<svg width="81" height="80" viewBox="0 0 81 80" fill="none" xmlns="http://www.w3.org/2000/svg">
<path d="M0.666992 2C0.666992 0.895429 1.56242 0 2.66699 0H78.667C79.7716 0 80.667 0.895431 80.667 2V78C80.667 79.1046 79.7716 80 78.667 80H2.66699C1.56242 80 0.666992 79.1046 0.666992 78V2Z" fill="white"/>
<path d="M3.66699 7H77.667V73H3.66699V7Z" fill="white"/>
<mask id="mask0_210_5902" style="mask-type:alpha" maskUnits="userSpaceOnUse" x="8" y="51" width="59" height="16">
<path d="M8.16699 51.75H66.917V66.25H8.16699V51.75Z" fill="white"/>
</mask>
<g mask="url(#mask0_210_5902)">
<path fill-rule="evenodd" clip-rule="evenodd" d="M78.667 57C78.667 57.5523 78.2193 58 77.667 58C77.1147 58 76.667 57.5523 76.667 57C76.667 56.4477 77.1147 56 77.667 56C78.2193 56 78.667 56.4477 78.667 57ZM5.66699 130C6.21928 130 6.66699 129.552 6.66699 129C6.66699 128.448 6.21928 128 5.66699 128C5.11471 128 4.66699 128.448 4.66699 129C4.66699 129.552 5.11471 130 5.66699 130ZM14.667 129C14.667 129.552 14.2193 130 13.667 130C13.1147 130 12.667 129.552 12.667 129C12.667 128.448 13.1147 128 13.667 128C14.2193 128 14.667 128.448 14.667 129ZM21.667 130C22.2193 130 22.667 129.552 22.667 129C22.667 128.448 22.2193 128 21.667 128C21.1147 128 20.667 128.448 20.667 129C20.667 129.552 21.1147 130 21.667 130ZM30.667 129C30.667 129.552 30.2193 130 29.667 130C29.1147 130 28.667 129.552 28.667 129C28.667 128.448 29.1147 128 29.667 128C30.2193 128 30.667 128.448 30.667 129ZM37.667 130C38.2193 130 38.667 129.552 38.667 129C38.667 128.448 38.2193 128 37.667 128C37.1147 128 36.667 128.448 36.667 129C36.667 129.552 37.1147 130 37.667 130ZM46.667 129C46.667 129.552 46.2193 130 45.667 130C45.1147 130 44.667 129.552 44.667 129C44.667 128.448 45.1147 128 45.667 128C46.2193 128 46.667 128.448 46.667 129ZM53.667 130C54.2193 130 54.667 129.552 54.667 129C54.667 128.448 54.2193 128 53.667 128C53.1147 128 52.667 128.448 52.667 129C52.667 129.552 53.1147 130 53.667 130ZM62.667 129C62.667 129.552 62.2193 130 61.667 130C61.1147 130 60.667 129.552 60.667 129C60.667 128.448 61.1147 128 61.667 128C62.2193 128 62.667 128.448 62.667 129ZM69.667 130C70.2193 130 70.667 129.552 70.667 129C70.667 128.448 70.2193 128 69.667 128C69.1147 128 68.667 128.448 68.667 129C68.667 129.552 69.1147 130 69.667 130ZM77.667 130C78.2193 130 78.667 129.552 78.667 129C78.667 128.448 78.2193 128 77.667 128C77.1147 128 76.667 128.448 76.667 129C76.667 129.552 77.1147 130 77.667 130ZM10.667 125C10.667 125.552 10.2193 126 9.66699 126C9.11471 126 8.66699 125.552 8.66699 125C8.66699 124.448 9.11471 124 9.66699 124C10.2193 124 10.667 124.448 10.667 125ZM17.667 126C18.2193 126 18.667 125.552 18.667 125C18.667 124.448 18.2193 124 17.667 124C17.1147 124 16.667 124.448 16.667 125C16.667 125.552 17.1147 126 17.667 126ZM26.667 125C26.667 125.552 26.2193 126 25.667 126C25.1147 126 24.667 125.552 24.667 125C24.667 124.448 25.1147 124 25.667 124C26.2193 124 26.667 124.448 26.667 125ZM33.667 126C34.2193 126 34.667 125.552 34.667 125C34.667 124.448 34.2193 124 33.667 124C33.1147 124 32.667 124.448 32.667 125C32.667 125.552 33.1147 126 33.667 126ZM42.667 125C42.667 125.552 42.2193 126 41.667 126C41.1147 126 40.667 125.552 40.667 125C40.667 124.448 41.1147 124 41.667 124C42.2193 124 42.667 124.448 42.667 125ZM49.667 126C50.2193 126 50.667 125.552 50.667 125C50.667 124.448 50.2193 124 49.667 124C49.1147 124 48.667 124.448 48.667 125C48.667 125.552 49.1147 126 49.667 126ZM58.667 125C58.667 125.552 58.2193 126 57.667 126C57.1147 126 56.667 125.552 56.667 125C56.667 124.448 57.1147 124 57.667 124C58.2193 124 58.667 124.448 58.667 125ZM65.667 126C66.2193 126 66.667 125.552 66.667 125C66.667 124.448 66.2193 124 65.667 124C65.1147 124 64.667 124.448 64.667 125C64.667 125.552 65.1147 126 65.667 126ZM74.667 125C74.667 125.552 74.2193 126 73.667 126C73.1147 126 72.667 125.552 72.667 125C72.667 124.448 73.1147 124 73.667 124C74.2193 124 74.667 124.448 74.667 125ZM82.667 125C82.667 125.552 82.2193 126 81.667 126C81.1147 126 80.667 125.552 80.667 125C80.667 124.448 81.1147 124 81.667 124C82.2193 124 82.667 124.448 82.667 125ZM70.667 57C70.667 57.5523 70.2193 58 69.667 58C69.1147 58 68.667 57.5523 68.667 57C68.667 56.4477 69.1147 56 69.667 56C70.2193 56 70.667 56.4477 70.667 57ZM6.66699 121C6.66699 121.552 6.21928 122 5.66699 122C5.11471 122 4.66699 121.552 4.66699 121C4.66699 120.448 5.11471 120 5.66699 120C6.21928 120 6.66699 120.448 6.66699 121ZM13.667 122C14.2193 122 14.667 121.552 14.667 121C14.667 120.448 14.2193 120 13.667 120C13.1147 120 12.667 120.448 12.667 121C12.667 121.552 13.1147 122 13.667 122ZM22.667 121C22.667 121.552 22.2193 122 21.667 122C21.1147 122 20.667 121.552 20.667 121C20.667 120.448 21.1147 120 21.667 120C22.2193 120 22.667 120.448 22.667 121ZM29.667 122C30.2193 122 30.667 121.552 30.667 121C30.667 120.448 30.2193 120 29.667 120C29.1147 120 28.667 120.448 28.667 121C28.667 121.552 29.1147 122 29.667 122ZM38.667 121C38.667 121.552 38.2193 122 37.667 122C37.1147 122 36.667 121.552 36.667 121C36.667 120.448 37.1147 120 37.667 120C38.2193 120 38.667 120.448 38.667 121ZM45.667 122C46.2193 122 46.667 121.552 46.667 121C46.667 120.448 46.2193 120 45.667 120C45.1147 120 44.667 120.448 44.667 121C44.667 121.552 45.1147 122 45.667 122ZM54.667 121C54.667 121.552 54.2193 122 53.667 122C53.1147 122 52.667 121.552 52.667 121C52.667 120.448 53.1147 120 53.667 120C54.2193 120 54.667 120.448 54.667 121ZM61.667 122C62.2193 122 62.667 121.552 62.667 121C62.667 120.448 62.2193 120 61.667 120C61.1147 120 60.667 120.448 60.667 121C60.667 121.552 61.1147 122 61.667 122ZM70.667 121C70.667 121.552 70.2193 122 69.667 122C69.1147 122 68.667 121.552 68.667 121C68.667 120.448 69.1147 120 69.667 120C70.2193 120 70.667 120.448 70.667 121ZM78.667 121C78.667 121.552 78.2193 122 77.667 122C77.1147 122 76.667 121.552 76.667 121C76.667 120.448 77.1147 120 77.667 120C78.2193 120 78.667 120.448 78.667 121ZM62.667 57C62.667 57.5523 62.2193 58 61.667 58C61.1147 58 60.667 57.5523 60.667 57C60.667 56.4477 61.1147 56 61.667 56C62.2193 56 62.667 56.4477 62.667 57ZM10.667 117C10.667 117.552 10.2193 118 9.66699 118C9.11471 118 8.66699 117.552 8.66699 117C8.66699 116.448 9.11471 116 9.66699 116C10.2193 116 10.667 116.448 10.667 117ZM17.667 118C18.2193 118 18.667 117.552 18.667 117C18.667 116.448 18.2193 116 17.667 116C17.1147 116 16.667 116.448 16.667 117C16.667 117.552 17.1147 118 17.667 118ZM26.667 117C26.667 117.552 26.2193 118 25.667 118C25.1147 118 24.667 117.552 24.667 117C24.667 116.448 25.1147 116 25.667 116C26.2193 116 26.667 116.448 26.667 117ZM33.667 118C34.2193 118 34.667 117.552 34.667 117C34.667 116.448 34.2193 116 33.667 116C33.1147 116 32.667 116.448 32.667 117C32.667 117.552 33.1147 118 33.667 118ZM42.667 117C42.667 117.552 42.2193 118 41.667 118C41.1147 118 40.667 117.552 40.667 117C40.667 116.448 41.1147 116 41.667 116C42.2193 116 42.667 116.448 42.667 117ZM49.667 118C50.2193 118 50.667 117.552 50.667 117C50.667 116.448 50.2193 116 49.667 116C49.1147 116 48.667 116.448 48.667 117C48.667 117.552 49.1147 118 49.667 118ZM58.667 117C58.667 117.552 58.2193 118 57.667 118C57.1147 118 56.667 117.552 56.667 117C56.667 116.448 57.1147 116 57.667 116C58.2193 116 58.667 116.448 58.667 117ZM65.667 118C66.2193 118 66.667 117.552 66.667 117C66.667 116.448 66.2193 116 65.667 116C65.1147 116 64.667 116.448 64.667 117C64.667 117.552 65.1147 118 65.667 118ZM74.667 117C74.667 117.552 74.2193 118 73.667 118C73.1147 118 72.667 117.552 72.667 117C72.667 116.448 73.1147 116 73.667 116C74.2193 116 74.667 116.448 74.667 117ZM82.667 117C82.667 117.552 82.2193 118 81.667 118C81.1147 118 80.667 117.552 80.667 117C80.667 116.448 81.1147 116 81.667 116C82.2193 116 82.667 116.448 82.667 117ZM54.667 57C54.667 57.5523 54.2193 58 53.667 58C53.1147 58 52.667 57.5523 52.667 57C52.667 56.4477 53.1147 56 53.667 56C54.2193 56 54.667 56.4477 54.667 57ZM6.66699 113C6.66699 113.552 6.21928 114 5.66699 114C5.11471 114 4.66699 113.552 4.66699 113C4.66699 112.448 5.11471 112 5.66699 112C6.21928 112 6.66699 112.448 6.66699 113ZM13.667 114C14.2193 114 14.667 113.552 14.667 113C14.667 112.448 14.2193 112 13.667 112C13.1147 112 12.667 112.448 12.667 113C12.667 113.552 13.1147 114 13.667 114ZM22.667 113C22.667 113.552 22.2193 114 21.667 114C21.1147 114 20.667 113.552 20.667 113C20.667 112.448 21.1147 112 21.667 112C22.2193 112 22.667 112.448 22.667 113ZM29.667 114C30.2193 114 30.667 113.552 30.667 113C30.667 112.448 30.2193 112 29.667 112C29.1147 112 28.667 112.448 28.667 113C28.667 113.552 29.1147 114 29.667 114ZM38.667 113C38.667 113.552 38.2193 114 37.667 114C37.1147 114 36.667 113.552 36.667 113C36.667 112.448 37.1147 112 37.667 112C38.2193 112 38.667 112.448 38.667 113ZM45.667 114C46.2193 114 46.667 113.552 46.667 113C46.667 112.448 46.2193 112 45.667 112C45.1147 112 44.667 112.448 44.667 113C44.667 113.552 45.1147 114 45.667 114ZM54.667 113C54.667 113.552 54.2193 114 53.667 114C53.1147 114 52.667 113.552 52.667 113C52.667 112.448 53.1147 112 53.667 112C54.2193 112 54.667 112.448 54.667 113ZM61.667 114C62.2193 114 62.667 113.552 62.667 113C62.667 112.448 62.2193 112 61.667 112C61.1147 112 60.667 112.448 60.667 113C60.667 113.552 61.1147 114 61.667 114ZM70.667 113C70.667 113.552 70.2193 114 69.667 114C69.1147 114 68.667 113.552 68.667 113C68.667 112.448 69.1147 112 69.667 112C70.2193 112 70.667 112.448 70.667 113ZM78.667 113C78.667 113.552 78.2193 114 77.667 114C77.1147 114 76.667 113.552 76.667 113C76.667 112.448 77.1147 112 77.667 112C78.2193 112 78.667 112.448 78.667 113ZM46.667 57C46.667 57.5523 46.2193 58 45.667 58C45.1147 58 44.667 57.5523 44.667 57C44.667 56.4477 45.1147 56 45.667 56C46.2193 56 46.667 56.4477 46.667 57ZM10.667 109C10.667 109.552 10.2193 110 9.66699 110C9.11471 110 8.66699 109.552 8.66699 109C8.66699 108.448 9.11471 108 9.66699 108C10.2193 108 10.667 108.448 10.667 109ZM17.667 110C18.2193 110 18.667 109.552 18.667 109C18.667 108.448 18.2193 108 17.667 108C17.1147 108 16.667 108.448 16.667 109C16.667 109.552 17.1147 110 17.667 110ZM26.667 109C26.667 109.552 26.2193 110 25.667 110C25.1147 110 24.667 109.552 24.667 109C24.667 108.448 25.1147 108 25.667 108C26.2193 108 26.667 108.448 26.667 109ZM33.667 110C34.2193 110 34.667 109.552 34.667 109C34.667 108.448 34.2193 108 33.667 108C33.1147 108 32.667 108.448 32.667 109C32.667 109.552 33.1147 110 33.667 110ZM42.667 109C42.667 109.552 42.2193 110 41.667 110C41.1147 110 40.667 109.552 40.667 109C40.667 108.448 41.1147 108 41.667 108C42.2193 108 42.667 108.448 42.667 109ZM49.667 110C50.2193 110 50.667 109.552 50.667 109C50.667 108.448 50.2193 108 49.667 108C49.1147 108 48.667 108.448 48.667 109C48.667 109.552 49.1147 110 49.667 110ZM58.667 109C58.667 109.552 58.2193 110 57.667 110C57.1147 110 56.667 109.552 56.667 109C56.667 108.448 57.1147 108 57.667 108C58.2193 108 58.667 108.448 58.667 109ZM65.667 110C66.2193 110 66.667 109.552 66.667 109C66.667 108.448 66.2193 108 65.667 108C65.1147 108 64.667 108.448 64.667 109C64.667 109.552 65.1147 110 65.667 110ZM74.667 109C74.667 109.552 74.2193 110 73.667 110C73.1147 110 72.667 109.552 72.667 109C72.667 108.448 73.1147 108 73.667 108C74.2193 108 74.667 108.448 74.667 109ZM82.667 109C82.667 109.552 82.2193 110 81.667 110C81.1147 110 80.667 109.552 80.667 109C80.667 108.448 81.1147 108 81.667 108C82.2193 108 82.667 108.448 82.667 109ZM38.667 57C38.667 57.5523 38.2193 58 37.667 58C37.1147 58 36.667 57.5523 36.667 57C36.667 56.4477 37.1147 56 37.667 56C38.2193 56 38.667 56.4477 38.667 57ZM6.66699 105C6.66699 105.552 6.21928 106 5.66699 106C5.11471 106 4.66699 105.552 4.66699 105C4.66699 104.448 5.11471 104 5.66699 104C6.21928 104 6.66699 104.448 6.66699 105ZM13.667 106C14.2193 106 14.667 105.552 14.667 105C14.667 104.448 14.2193 104 13.667 104C13.1147 104 12.667 104.448 12.667 105C12.667 105.552 13.1147 106 13.667 106ZM22.667 105C22.667 105.552 22.2193 106 21.667 106C21.1147 106 20.667 105.552 20.667 105C20.667 104.448 21.1147 104 21.667 104C22.2193 104 22.667 104.448 22.667 105ZM29.667 106C30.2193 106 30.667 105.552 30.667 105C30.667 104.448 30.2193 104 29.667 104C29.1147 104 28.667 104.448 28.667 105C28.667 105.552 29.1147 106 29.667 106ZM38.667 105C38.667 105.552 38.2193 106 37.667 106C37.1147 106 36.667 105.552 36.667 105C36.667 104.448 37.1147 104 37.667 104C38.2193 104 38.667 104.448 38.667 105ZM45.667 106C46.2193 106 46.667 105.552 46.667 105C46.667 104.448 46.2193 104 45.667 104C45.1147 104 44.667 104.448 44.667 105C44.667 105.552 45.1147 106 45.667 106ZM54.667 105C54.667 105.552 54.2193 106 53.667 106C53.1147 106 52.667 105.552 52.667 105C52.667 104.448 53.1147 104 53.667 104C54.2193 104 54.667 104.448 54.667 105ZM61.667 106C62.2193 106 62.667 105.552 62.667 105C62.667 104.448 62.2193 104 61.667 104C61.1147 104 60.667 104.448 60.667 105C60.667 105.552 61.1147 106 61.667 106ZM70.667 105C70.667 105.552 70.2193 106 69.667 106C69.1147 106 68.667 105.552 68.667 105C68.667 104.448 69.1147 104 69.667 104C70.2193 104 70.667 104.448 70.667 105ZM78.667 105C78.667 105.552 78.2193 106 77.667 106C77.1147 106 76.667 105.552 76.667 105C76.667 104.448 77.1147 104 77.667 104C78.2193 104 78.667 104.448 78.667 105ZM30.667 57C30.667 57.5523 30.2193 58 29.667 58C29.1147 58 28.667 57.5523 28.667 57C28.667 56.4477 29.1147 56 29.667 56C30.2193 56 30.667 56.4477 30.667 57ZM10.667 101C10.667 101.552 10.2193 102 9.66699 102C9.11471 102 8.66699 101.552 8.66699 101C8.66699 100.448 9.11471 100 9.66699 100C10.2193 100 10.667 100.448 10.667 101ZM17.667 102C18.2193 102 18.667 101.552 18.667 101C18.667 100.448 18.2193 100 17.667 100C17.1147 100 16.667 100.448 16.667 101C16.667 101.552 17.1147 102 17.667 102ZM26.667 101C26.667 101.552 26.2193 102 25.667 102C25.1147 102 24.667 101.552 24.667 101C24.667 100.448 25.1147 100 25.667 100C26.2193 100 26.667 100.448 26.667 101ZM33.667 102C34.2193 102 34.667 101.552 34.667 101C34.667 100.448 34.2193 100 33.667 100C33.1147 100 32.667 100.448 32.667 101C32.667 101.552 33.1147 102 33.667 102ZM42.667 101C42.667 101.552 42.2193 102 41.667 102C41.1147 102 40.667 101.552 40.667 101C40.667 100.448 41.1147 100 41.667 100C42.2193 100 42.667 100.448 42.667 101ZM49.667 102C50.2193 102 50.667 101.552 50.667 101C50.667 100.448 50.2193 100 49.667 100C49.1147 100 48.667 100.448 48.667 101C48.667 101.552 49.1147 102 49.667 102ZM58.667 101C58.667 101.552 58.2193 102 57.667 102C57.1147 102 56.667 101.552 56.667 101C56.667 100.448 57.1147 100 57.667 100C58.2193 100 58.667 100.448 58.667 101ZM65.667 102C66.2193 102 66.667 101.552 66.667 101C66.667 100.448 66.2193 100 65.667 100C65.1147 100 64.667 100.448 64.667 101C64.667 101.552 65.1147 102 65.667 102ZM74.667 101C74.667 101.552 74.2193 102 73.667 102C73.1147 102 72.667 101.552 72.667 101C72.667 100.448 73.1147 100 73.667 100C74.2193 100 74.667 100.448 74.667 101ZM82.667 101C82.667 101.552 82.2193 102 81.667 102C81.1147 102 80.667 101.552 80.667 101C80.667 100.448 81.1147 100 81.667 100C82.2193 100 82.667 100.448 82.667 101ZM22.667 57C22.667 57.5523 22.2193 58 21.667 58C21.1147 58 20.667 57.5523 20.667 57C20.667 56.4477 21.1147 56 21.667 56C22.2193 56 22.667 56.4477 22.667 57ZM6.66699 97C6.66699 97.5523 6.21928 98 5.66699 98C5.11471 98 4.66699 97.5523 4.66699 97C4.66699 96.4477 5.11471 96 5.66699 96C6.21928 96 6.66699 96.4477 6.66699 97ZM13.667 98C14.2193 98 14.667 97.5523 14.667 97C14.667 96.4477 14.2193 96 13.667 96C13.1147 96 12.667 96.4477 12.667 97C12.667 97.5523 13.1147 98 13.667 98ZM22.667 97C22.667 97.5523 22.2193 98 21.667 98C21.1147 98 20.667 97.5523 20.667 97C20.667 96.4477 21.1147 96 21.667 96C22.2193 96 22.667 96.4477 22.667 97ZM29.667 98C30.2193 98 30.667 97.5523 30.667 97C30.667 96.4477 30.2193 96 29.667 96C29.1147 96 28.667 96.4477 28.667 97C28.667 97.5523 29.1147 98 29.667 98ZM38.667 97C38.667 97.5523 38.2193 98 37.667 98C37.1147 98 36.667 97.5523 36.667 97C36.667 96.4477 37.1147 96 37.667 96C38.2193 96 38.667 96.4477 38.667 97ZM45.667 98C46.2193 98 46.667 97.5523 46.667 97C46.667 96.4477 46.2193 96 45.667 96C45.1147 96 44.667 96.4477 44.667 97C44.667 97.5523 45.1147 98 45.667 98ZM54.667 97C54.667 97.5523 54.2193 98 53.667 98C53.1147 98 52.667 97.5523 52.667 97C52.667 96.4477 53.1147 96 53.667 96C54.2193 96 54.667 96.4477 54.667 97ZM61.667 98C62.2193 98 62.667 97.5523 62.667 97C62.667 96.4477 62.2193 96 61.667 96C61.1147 96 60.667 96.4477 60.667 97C60.667 97.5523 61.1147 98 61.667 98ZM70.667 97C70.667 97.5523 70.2193 98 69.667 98C69.1147 98 68.667 97.5523 68.667 97C68.667 96.4477 69.1147 96 69.667 96C70.2193 96 70.667 96.4477 70.667 97ZM78.667 97C78.667 97.5523 78.2193 98 77.667 98C77.1147 98 76.667 97.5523 76.667 97C76.667 96.4477 77.1147 96 77.667 96C78.2193 96 78.667 96.4477 78.667 97ZM14.667 57C14.667 57.5523 14.2193 58 13.667 58C13.1147 58 12.667 57.5523 12.667 57C12.667 56.4477 13.1147 56 13.667 56C14.2193 56 14.667 56.4477 14.667 57ZM10.667 93C10.667 93.5523 10.2193 94 9.66699 94C9.11471 94 8.66699 93.5523 8.66699 93C8.66699 92.4477 9.11471 92 9.66699 92C10.2193 92 10.667 92.4477 10.667 93ZM17.667 94C18.2193 94 18.667 93.5523 18.667 93C18.667 92.4477 18.2193 92 17.667 92C17.1147 92 16.667 92.4477 16.667 93C16.667 93.5523 17.1147 94 17.667 94ZM26.667 93C26.667 93.5523 26.2193 94 25.667 94C25.1147 94 24.667 93.5523 24.667 93C24.667 92.4477 25.1147 92 25.667 92C26.2193 92 26.667 92.4477 26.667 93ZM33.667 94C34.2193 94 34.667 93.5523 34.667 93C34.667 92.4477 34.2193 92 33.667 92C33.1147 92 32.667 92.4477 32.667 93C32.667 93.5523 33.1147 94 33.667 94ZM42.667 93C42.667 93.5523 42.2193 94 41.667 94C41.1147 94 40.667 93.5523 40.667 93C40.667 92.4477 41.1147 92 41.667 92C42.2193 92 42.667 92.4477 42.667 93ZM49.667 94C50.2193 94 50.667 93.5523 50.667 93C50.667 92.4477 50.2193 92 49.667 92C49.1147 92 48.667 92.4477 48.667 93C48.667 93.5523 49.1147 94 49.667 94ZM58.667 93C58.667 93.5523 58.2193 94 57.667 94C57.1147 94 56.667 93.5523 56.667 93C56.667 92.4477 57.1147 92 57.667 92C58.2193 92 58.667 92.4477 58.667 93ZM65.667 94C66.2193 94 66.667 93.5523 66.667 93C66.667 92.4477 66.2193 92 65.667 92C65.1147 92 64.667 92.4477 64.667 93C64.667 93.5523 65.1147 94 65.667 94ZM74.667 93C74.667 93.5523 74.2193 94 73.667 94C73.1147 94 72.667 93.5523 72.667 93C72.667 92.4477 73.1147 92 73.667 92C74.2193 92 74.667 92.4477 74.667 93ZM82.667 93C82.667 93.5523 82.2193 94 81.667 94C81.1147 94 80.667 93.5523 80.667 93C80.667 92.4477 81.1147 92 81.667 92C82.2193 92 82.667 92.4477 82.667 93ZM6.66699 57C6.66699 57.5523 6.21928 58 5.66699 58C5.11471 58 4.66699 57.5523 4.66699 57C4.66699 56.4477 5.11471 56 5.66699 56C6.21928 56 6.66699 56.4477 6.66699 57ZM6.66699 89C6.66699 89.5523 6.21928 90 5.66699 90C5.11471 90 4.66699 89.5523 4.66699 89C4.66699 88.4477 5.11471 88 5.66699 88C6.21928 88 6.66699 88.4477 6.66699 89ZM13.667 90C14.2193 90 14.667 89.5523 14.667 89C14.667 88.4477 14.2193 88 13.667 88C13.1147 88 12.667 88.4477 12.667 89C12.667 89.5523 13.1147 90 13.667 90ZM22.667 89C22.667 89.5523 22.2193 90 21.667 90C21.1147 90 20.667 89.5523 20.667 89C20.667 88.4477 21.1147 88 21.667 88C22.2193 88 22.667 88.4477 22.667 89ZM29.667 90C30.2193 90 30.667 89.5523 30.667 89C30.667 88.4477 30.2193 88 29.667 88C29.1147 88 28.667 88.4477 28.667 89C28.667 89.5523 29.1147 90 29.667 90ZM38.667 89C38.667 89.5523 38.2193 90 37.667 90C37.1147 90 36.667 89.5523 36.667 89C36.667 88.4477 37.1147 88 37.667 88C38.2193 88 38.667 88.4477 38.667 89ZM45.667 90C46.2193 90 46.667 89.5523 46.667 89C46.667 88.4477 46.2193 88 45.667 88C45.1147 88 44.667 88.4477 44.667 89C44.667 89.5523 45.1147 90 45.667 90ZM54.667 89C54.667 89.5523 54.2193 90 53.667 90C53.1147 90 52.667 89.5523 52.667 89C52.667 88.4477 53.1147 88 53.667 88C54.2193 88 54.667 88.4477 54.667 89ZM61.667 90C62.2193 90 62.667 89.5523 62.667 89C62.667 88.4477 62.2193 88 61.667 88C61.1147 88 60.667 88.4477 60.667 89C60.667 89.5523 61.1147 90 61.667 90ZM70.667 89C70.667 89.5523 70.2193 90 69.667 90C69.1147 90 68.667 89.5523 68.667 89C68.667 88.4477 69.1147 88 69.667 88C70.2193 88 70.667 88.4477 70.667 89ZM78.667 89C78.667 89.5523 78.2193 90 77.667 90C77.1147 90 76.667 89.5523 76.667 89C76.667 88.4477 77.1147 88 77.667 88C78.2193 88 78.667 88.4477 78.667 89ZM9.66699 86C10.2193 86 10.667 85.5523 10.667 85C10.667 84.4477 10.2193 84 9.66699 84C9.11471 84 8.66699 84.4477 8.66699 85C8.66699 85.5523 9.11471 86 9.66699 86ZM18.667 85C18.667 85.5523 18.2193 86 17.667 86C17.1147 86 16.667 85.5523 16.667 85C16.667 84.4477 17.1147 84 17.667 84C18.2193 84 18.667 84.4477 18.667 85ZM25.667 86C26.2193 86 26.667 85.5523 26.667 85C26.667 84.4477 26.2193 84 25.667 84C25.1147 84 24.667 84.4477 24.667 85C24.667 85.5523 25.1147 86 25.667 86ZM34.667 85C34.667 85.5523 34.2193 86 33.667 86C33.1147 86 32.667 85.5523 32.667 85C32.667 84.4477 33.1147 84 33.667 84C34.2193 84 34.667 84.4477 34.667 85ZM41.667 86C42.2193 86 42.667 85.5523 42.667 85C42.667 84.4477 42.2193 84 41.667 84C41.1147 84 40.667 84.4477 40.667 85C40.667 85.5523 41.1147 86 41.667 86ZM50.667 85C50.667 85.5523 50.2193 86 49.667 86C49.1147 86 48.667 85.5523 48.667 85C48.667 84.4477 49.1147 84 49.667 84C50.2193 84 50.667 84.4477 50.667 85ZM57.667 86C58.2193 86 58.667 85.5523 58.667 85C58.667 84.4477 58.2193 84 57.667 84C57.1147 84 56.667 84.4477 56.667 85C56.667 85.5523 57.1147 86 57.667 86ZM66.667 85C66.667 85.5523 66.2193 86 65.667 86C65.1147 86 64.667 85.5523 64.667 85C64.667 84.4477 65.1147 84 65.667 84C66.2193 84 66.667 84.4477 66.667 85ZM73.667 86C74.2193 86 74.667 85.5523 74.667 85C74.667 84.4477 74.2193 84 73.667 84C73.1147 84 72.667 84.4477 72.667 85C72.667 85.5523 73.1147 86 73.667 86ZM81.667 86C82.2193 86 82.667 85.5523 82.667 85C82.667 84.4477 82.2193 84 81.667 84C81.1147 84 80.667 84.4477 80.667 85C80.667 85.5523 81.1147 86 81.667 86ZM6.66699 81C6.66699 81.5523 6.21928 82 5.66699 82C5.11471 82 4.66699 81.5523 4.66699 81C4.66699 80.4477 5.11471 80 5.66699 80C6.21928 80 6.66699 80.4477 6.66699 81ZM13.667 82C14.2193 82 14.667 81.5523 14.667 81C14.667 80.4477 14.2193 80 13.667 80C13.1147 80 12.667 80.4477 12.667 81C12.667 81.5523 13.1147 82 13.667 82ZM22.667 81C22.667 81.5523 22.2193 82 21.667 82C21.1147 82 20.667 81.5523 20.667 81C20.667 80.4477 21.1147 80 21.667 80C22.2193 80 22.667 80.4477 22.667 81ZM29.667 82C30.2193 82 30.667 81.5523 30.667 81C30.667 80.4477 30.2193 80 29.667 80C29.1147 80 28.667 80.4477 28.667 81C28.667 81.5523 29.1147 82 29.667 82ZM38.667 81C38.667 81.5523 38.2193 82 37.667 82C37.1147 82 36.667 81.5523 36.667 81C36.667 80.4477 37.1147 80 37.667 80C38.2193 80 38.667 80.4477 38.667 81ZM45.667 82C46.2193 82 46.667 81.5523 46.667 81C46.667 80.4477 46.2193 80 45.667 80C45.1147 80 44.667 80.4477 44.667 81C44.667 81.5523 45.1147 82 45.667 82ZM54.667 81C54.667 81.5523 54.2193 82 53.667 82C53.1147 82 52.667 81.5523 52.667 81C52.667 80.4477 53.1147 80 53.667 80C54.2193 80 54.667 80.4477 54.667 81ZM61.667 82C62.2193 82 62.667 81.5523 62.667 81C62.667 80.4477 62.2193 80 61.667 80C61.1147 80 60.667 80.4477 60.667 81C60.667 81.5523 61.1147 82 61.667 82ZM70.667 81C70.667 81.5523 70.2193 82 69.667 82C69.1147 82 68.667 81.5523 68.667 81C68.667 80.4477 69.1147 80 69.667 80C70.2193 80 70.667 80.4477 70.667 81ZM78.667 81C78.667 81.5523 78.2193 82 77.667 82C77.1147 82 76.667 81.5523 76.667 81C76.667 80.4477 77.1147 80 77.667 80C78.2193 80 78.667 80.4477 78.667 81ZM9.66699 78C10.2193 78 10.667 77.5523 10.667 77C10.667 76.4477 10.2193 76 9.66699 76C9.11471 76 8.66699 76.4477 8.66699 77C8.66699 77.5523 9.11471 78 9.66699 78ZM18.667 77C18.667 77.5523 18.2193 78 17.667 78C17.1147 78 16.667 77.5523 16.667 77C16.667 76.4477 17.1147 76 17.667 76C18.2193 76 18.667 76.4477 18.667 77ZM25.667 78C26.2193 78 26.667 77.5523 26.667 77C26.667 76.4477 26.2193 76 25.667 76C25.1147 76 24.667 76.4477 24.667 77C24.667 77.5523 25.1147 78 25.667 78ZM34.667 77C34.667 77.5523 34.2193 78 33.667 78C33.1147 78 32.667 77.5523 32.667 77C32.667 76.4477 33.1147 76 33.667 76C34.2193 76 34.667 76.4477 34.667 77ZM41.667 78C42.2193 78 42.667 77.5523 42.667 77C42.667 76.4477 42.2193 76 41.667 76C41.1147 76 40.667 76.4477 40.667 77C40.667 77.5523 41.1147 78 41.667 78ZM50.667 77C50.667 77.5523 50.2193 78 49.667 78C49.1147 78 48.667 77.5523 48.667 77C48.667 76.4477 49.1147 76 49.667 76C50.2193 76 50.667 76.4477 50.667 77ZM57.667 78C58.2193 78 58.667 77.5523 58.667 77C58.667 76.4477 58.2193 76 57.667 76C57.1147 76 56.667 76.4477 56.667 77C56.667 77.5523 57.1147 78 57.667 78ZM66.667 77C66.667 77.5523 66.2193 78 65.667 78C65.1147 78 64.667 77.5523 64.667 77C64.667 76.4477 65.1147 76 65.667 76C66.2193 76 66.667 76.4477 66.667 77ZM73.667 78C74.2193 78 74.667 77.5523 74.667 77C74.667 76.4477 74.2193 76 73.667 76C73.1147 76 72.667 76.4477 72.667 77C72.667 77.5523 73.1147 78 73.667 78ZM81.667 78C82.2193 78 82.667 77.5523 82.667 77C82.667 76.4477 82.2193 76 81.667 76C81.1147 76 80.667 76.4477 80.667 77C80.667 77.5523 81.1147 78 81.667 78ZM6.66699 73C6.66699 73.5523 6.21928 74 5.66699 74C5.11471 74 4.66699 73.5523 4.66699 73C4.66699 72.4477 5.11471 72 5.66699 72C6.21928 72 6.66699 72.4477 6.66699 73ZM13.667 74C14.2193 74 14.667 73.5523 14.667 73C14.667 72.4477 14.2193 72 13.667 72C13.1147 72 12.667 72.4477 12.667 73C12.667 73.5523 13.1147 74 13.667 74ZM22.667 73C22.667 73.5523 22.2193 74 21.667 74C21.1147 74 20.667 73.5523 20.667 73C20.667 72.4477 21.1147 72 21.667 72C22.2193 72 22.667 72.4477 22.667 73ZM29.667 74C30.2193 74 30.667 73.5523 30.667 73C30.667 72.4477 30.2193 72 29.667 72C29.1147 72 28.667 72.4477 28.667 73C28.667 73.5523 29.1147 74 29.667 74ZM38.667 73C38.667 73.5523 38.2193 74 37.667 74C37.1147 74 36.667 73.5523 36.667 73C36.667 72.4477 37.1147 72 37.667 72C38.2193 72 38.667 72.4477 38.667 73ZM45.667 74C46.2193 74 46.667 73.5523 46.667 73C46.667 72.4477 46.2193 72 45.667 72C45.1147 72 44.667 72.4477 44.667 73C44.667 73.5523 45.1147 74 45.667 74ZM54.667 73C54.667 73.5523 54.2193 74 53.667 74C53.1147 74 52.667 73.5523 52.667 73C52.667 72.4477 53.1147 72 53.667 72C54.2193 72 54.667 72.4477 54.667 73ZM61.667 74C62.2193 74 62.667 73.5523 62.667 73C62.667 72.4477 62.2193 72 61.667 72C61.1147 72 60.667 72.4477 60.667 73C60.667 73.5523 61.1147 74 61.667 74ZM70.667 73C70.667 73.5523 70.2193 74 69.667 74C69.1147 74 68.667 73.5523 68.667 73C68.667 72.4477 69.1147 72 69.667 72C70.2193 72 70.667 72.4477 70.667 73ZM78.667 73C78.667 73.5523 78.2193 74 77.667 74C77.1147 74 76.667 73.5523 76.667 73C76.667 72.4477 77.1147 72 77.667 72C78.2193 72 78.667 72.4477 78.667 73ZM9.66699 70C10.2193 70 10.667 69.5523 10.667 69C10.667 68.4477 10.2193 68 9.66699 68C9.11471 68 8.66699 68.4477 8.66699 69C8.66699 69.5523 9.11471 70 9.66699 70ZM18.667 69C18.667 69.5523 18.2193 70 17.667 70C17.1147 70 16.667 69.5523 16.667 69C16.667 68.4477 17.1147 68 17.667 68C18.2193 68 18.667 68.4477 18.667 69ZM25.667 70C26.2193 70 26.667 69.5523 26.667 69C26.667 68.4477 26.2193 68 25.667 68C25.1147 68 24.667 68.4477 24.667 69C24.667 69.5523 25.1147 70 25.667 70ZM34.667 69C34.667 69.5523 34.2193 70 33.667 70C33.1147 70 32.667 69.5523 32.667 69C32.667 68.4477 33.1147 68 33.667 68C34.2193 68 34.667 68.4477 34.667 69ZM41.667 70C42.2193 70 42.667 69.5523 42.667 69C42.667 68.4477 42.2193 68 41.667 68C41.1147 68 40.667 68.4477 40.667 69C40.667 69.5523 41.1147 70 41.667 70ZM50.667 69C50.667 69.5523 50.2193 70 49.667 70C49.1147 70 48.667 69.5523 48.667 69C48.667 68.4477 49.1147 68 49.667 68C50.2193 68 50.667 68.4477 50.667 69ZM57.667 70C58.2193 70 58.667 69.5523 58.667 69C58.667 68.4477 58.2193 68 57.667 68C57.1147 68 56.667 68.4477 56.667 69C56.667 69.5523 57.1147 70 57.667 70ZM66.667 69C66.667 69.5523 66.2193 70 65.667 70C65.1147 70 64.667 69.5523 64.667 69C64.667 68.4477 65.1147 68 65.667 68C66.2193 68 66.667 68.4477 66.667 69ZM73.667 70C74.2193 70 74.667 69.5523 74.667 69C74.667 68.4477 74.2193 68 73.667 68C73.1147 68 72.667 68.4477 72.667 69C72.667 69.5523 73.1147 70 73.667 70ZM81.667 70C82.2193 70 82.667 69.5523 82.667 69C82.667 68.4477 82.2193 68 81.667 68C81.1147 68 80.667 68.4477 80.667 69C80.667 69.5523 81.1147 70 81.667 70ZM6.66699 65C6.66699 65.5523 6.21928 66 5.66699 66C5.11471 66 4.66699 65.5523 4.66699 65C4.66699 64.4477 5.11471 64 5.66699 64C6.21928 64 6.66699 64.4477 6.66699 65ZM13.667 66C14.2193 66 14.667 65.5523 14.667 65C14.667 64.4477 14.2193 64 13.667 64C13.1147 64 12.667 64.4477 12.667 65C12.667 65.5523 13.1147 66 13.667 66ZM22.667 65C22.667 65.5523 22.2193 66 21.667 66C21.1147 66 20.667 65.5523 20.667 65C20.667 64.4477 21.1147 64 21.667 64C22.2193 64 22.667 64.4477 22.667 65ZM29.667 66C30.2193 66 30.667 65.5523 30.667 65C30.667 64.4477 30.2193 64 29.667 64C29.1147 64 28.667 64.4477 28.667 65C28.667 65.5523 29.1147 66 29.667 66ZM38.667 65C38.667 65.5523 38.2193 66 37.667 66C37.1147 66 36.667 65.5523 36.667 65C36.667 64.4477 37.1147 64 37.667 64C38.2193 64 38.667 64.4477 38.667 65ZM45.667 66C46.2193 66 46.667 65.5523 46.667 65C46.667 64.4477 46.2193 64 45.667 64C45.1147 64 44.667 64.4477 44.667 65C44.667 65.5523 45.1147 66 45.667 66ZM54.667 65C54.667 65.5523 54.2193 66 53.667 66C53.1147 66 52.667 65.5523 52.667 65C52.667 64.4477 53.1147 64 53.667 64C54.2193 64 54.667 64.4477 54.667 65ZM61.667 66C62.2193 66 62.667 65.5523 62.667 65C62.667 64.4477 62.2193 64 61.667 64C61.1147 64 60.667 64.4477 60.667 65C60.667 65.5523 61.1147 66 61.667 66ZM70.667 65C70.667 65.5523 70.2193 66 69.667 66C69.1147 66 68.667 65.5523 68.667 65C68.667 64.4477 69.1147 64 69.667 64C70.2193 64 70.667 64.4477 70.667 65ZM78.667 65C78.667 65.5523 78.2193 66 77.667 66C77.1147 66 76.667 65.5523 76.667 65C76.667 64.4477 77.1147 64 77.667 64C78.2193 64 78.667 64.4477 78.667 65ZM9.66699 62C10.2193 62 10.667 61.5523 10.667 61C10.667 60.4477 10.2193 60 9.66699 60C9.11471 60 8.66699 60.4477 8.66699 61C8.66699 61.5523 9.11471 62 9.66699 62ZM18.667 61C18.667 61.5523 18.2193 62 17.667 62C17.1147 62 16.667 61.5523 16.667 61C16.667 60.4477 17.1147 60 17.667 60C18.2193 60 18.667 60.4477 18.667 61ZM25.667 62C26.2193 62 26.667 61.5523 26.667 61C26.667 60.4477 26.2193 60 25.667 60C25.1147 60 24.667 60.4477 24.667 61C24.667 61.5523 25.1147 62 25.667 62ZM34.667 61C34.667 61.5523 34.2193 62 33.667 62C33.1147 62 32.667 61.5523 32.667 61C32.667 60.4477 33.1147 60 33.667 60C34.2193 60 34.667 60.4477 34.667 61ZM41.667 62C42.2193 62 42.667 61.5523 42.667 61C42.667 60.4477 42.2193 60 41.667 60C41.1147 60 40.667 60.4477 40.667 61C40.667 61.5523 41.1147 62 41.667 62ZM50.667 61C50.667 61.5523 50.2193 62 49.667 62C49.1147 62 48.667 61.5523 48.667 61C48.667 60.4477 49.1147 60 49.667 60C50.2193 60 50.667 60.4477 50.667 61ZM57.667 62C58.2193 62 58.667 61.5523 58.667 61C58.667 60.4477 58.2193 60 57.667 60C57.1147 60 56.667 60.4477 56.667 61C56.667 61.5523 57.1147 62 57.667 62ZM66.667 61C66.667 61.5523 66.2193 62 65.667 62C65.1147 62 64.667 61.5523 64.667 61C64.667 60.4477 65.1147 60 65.667 60C66.2193 60 66.667 60.4477 66.667 61ZM73.667 62C74.2193 62 74.667 61.5523 74.667 61C74.667 60.4477 74.2193 60 73.667 60C73.1147 60 72.667 60.4477 72.667 61C72.667 61.5523 73.1147 62 73.667 62ZM81.667 62C82.2193 62 82.667 61.5523 82.667 61C82.667 60.4477 82.2193 60 81.667 60C81.1147 60 80.667 60.4477 80.667 61C80.667 61.5523 81.1147 62 81.667 62Z" fill="black"/>
</g>
<path fill-rule="evenodd" clip-rule="evenodd" d="M76.592 6H4.74199C3.59657 6.00138 2.66837 6.92958 2.66699 8.075V71.925C2.66837 73.0704 3.59657 73.9986 4.74199 74H76.592C77.7374 73.9986 78.6656 73.0704 78.667 71.925V8.075C78.6656 6.92958 77.7374 6.00138 76.592 6ZM76.667 71.925C76.6657 71.9659 76.6329 71.9987 76.592 72H4.74199C4.70112 71.9987 4.66829 71.9659 4.66699 71.925V18H76.667V71.925ZM4.66699 8.075V16H76.667V8.075C76.6657 8.03413 76.6329 8.0013 76.592 8H4.74199C4.70112 8.0013 4.66829 8.03413 4.66699 8.075Z" fill="black"/>
<path d="M73.667 11H29.667C29.1147 11 28.667 11.4477 28.667 12C28.667 12.5523 29.1147 13 29.667 13H73.667C74.2193 13 74.667 12.5523 74.667 12C74.667 11.4477 74.2193 11 73.667 11Z" fill="black"/>
<path d="M9.66699 12C9.66699 12.5523 9.21928 13 8.66699 13C8.11471 13 7.66699 12.5523 7.66699 12C7.66699 11.4477 8.11471 11 8.66699 11C9.21928 11 9.66699 11.4477 9.66699 12Z" fill="black"/>
<path d="M13.667 12C13.667 12.5523 13.2193 13 12.667 13C12.1147 13 11.667 12.5523 11.667 12C11.667 11.4477 12.1147 11 12.667 11C13.2193 11 13.667 11.4477 13.667 12Z" fill="black"/>
<path d="M17.667 12C17.667 12.5523 17.2193 13 16.667 13C16.1147 13 15.667 12.5523 15.667 12C15.667 11.4477 16.1147 11 16.667 11C17.2193 11 17.667 11.4477 17.667 12Z" fill="black"/>
<path d="M8.66699 22H34.667V48H8.66699V22Z" fill="#74C9E3"/>
</svg>
