<svg width="1000" height="400" viewBox="0 0 1000 400" fill="none" xmlns="http://www.w3.org/2000/svg">
<g clip-path="url(#clip0_279_6866)">
<rect width="1000" height="400" rx="60" fill="white"/>
<path fill-rule="evenodd" clip-rule="evenodd" d="M40 400.5L40 -1L42 -1L42 400.5L40 400.5Z" fill="#D3E5F7"/>
<path fill-rule="evenodd" clip-rule="evenodd" d="M80 400.5L80 -1L82 -1L82 400.5L80 400.5Z" fill="#D3E5F7"/>
<path fill-rule="evenodd" clip-rule="evenodd" d="M120 400.5L120 -1L122 -1L122 400.5L120 400.5Z" fill="#D3E5F7"/>
<path fill-rule="evenodd" clip-rule="evenodd" d="M160 400.5L160 -1L162 -1L162 400.5L160 400.5Z" fill="#D3E5F7"/>
<path fill-rule="evenodd" clip-rule="evenodd" d="M200 400.5L200 -1L202 -1L202 400.5L200 400.5Z" fill="#D3E5F7"/>
<path fill-rule="evenodd" clip-rule="evenodd" d="M240 400.5L240 -1L242 -1L242 400.5L240 400.5Z" fill="#D3E5F7"/>
<path fill-rule="evenodd" clip-rule="evenodd" d="M280 400.5L280 -1L282 -1L282 400.5L280 400.5Z" fill="#D3E5F7"/>
<path fill-rule="evenodd" clip-rule="evenodd" d="M320 400.5L320 -1L322 -1L322 400.5L320 400.5Z" fill="#D3E5F7"/>
<path fill-rule="evenodd" clip-rule="evenodd" d="M360 400.5L360 -1L362 -1L362 400.5L360 400.5Z" fill="#D3E5F7"/>
<path fill-rule="evenodd" clip-rule="evenodd" d="M400 400.5L400 -1L402 -1L402 400.5L400 400.5Z" fill="#D3E5F7"/>
<path fill-rule="evenodd" clip-rule="evenodd" d="M440 400.5L440 -1L442 -1L442 400.5L440 400.5Z" fill="#D3E5F7"/>
<path fill-rule="evenodd" clip-rule="evenodd" d="M480 400.5L480 -1L482 -1L482 400.5L480 400.5Z" fill="#D3E5F7"/>
<path fill-rule="evenodd" clip-rule="evenodd" d="M520 400.5L520 -1L522 -1L522 400.5L520 400.5Z" fill="#D3E5F7"/>
<path fill-rule="evenodd" clip-rule="evenodd" d="M560 400.5L560 -1L562 -1L562 400.5L560 400.5Z" fill="#D3E5F7"/>
<path fill-rule="evenodd" clip-rule="evenodd" d="M600 400.5L600 -1L602 -1L602 400.5L600 400.5Z" fill="#D3E5F7"/>
<path fill-rule="evenodd" clip-rule="evenodd" d="M640 400.5L640 -1L642 -1L642 400.5L640 400.5Z" fill="#D3E5F7"/>
<path fill-rule="evenodd" clip-rule="evenodd" d="M680 400.5L680 -1L682 -1L682 400.5L680 400.5Z" fill="#D3E5F7"/>
<path fill-rule="evenodd" clip-rule="evenodd" d="M720 400.5L720 -1L722 -1L722 400.5L720 400.5Z" fill="#D3E5F7"/>
<path fill-rule="evenodd" clip-rule="evenodd" d="M760 400.5L760 -1L762 -1L762 400.5L760 400.5Z" fill="#D3E5F7"/>
<path fill-rule="evenodd" clip-rule="evenodd" d="M800 400.5L800 -1L802 -1L802 400.5L800 400.5Z" fill="#D3E5F7"/>
<path fill-rule="evenodd" clip-rule="evenodd" d="M840 400.5L840 -1L842 -1L842 400.5L840 400.5Z" fill="#D3E5F7"/>
<path fill-rule="evenodd" clip-rule="evenodd" d="M880 400.5L880 -1L882 -1L882 400.5L880 400.5Z" fill="#D3E5F7"/>
<path fill-rule="evenodd" clip-rule="evenodd" d="M920 400.5L920 -1L922 -1L922 400.5L920 400.5Z" fill="#D3E5F7"/>
<path fill-rule="evenodd" clip-rule="evenodd" d="M960 400.5L960 -1L962 -1L962 400.5L960 400.5Z" fill="#D3E5F7"/>
<path fill-rule="evenodd" clip-rule="evenodd" d="M999.5 41H-1V39H999.5V41Z" fill="#D3E5F7"/>
<path fill-rule="evenodd" clip-rule="evenodd" d="M999.5 81H-1V79H999.5V81Z" fill="#D3E5F7"/>
<path fill-rule="evenodd" clip-rule="evenodd" d="M999.5 121H-1V119H999.5V121Z" fill="#D3E5F7"/>
<path fill-rule="evenodd" clip-rule="evenodd" d="M999.5 161H-1V159H999.5V161Z" fill="#D3E5F7"/>
<path fill-rule="evenodd" clip-rule="evenodd" d="M999.5 201H-1V199H999.5V201Z" fill="#D3E5F7"/>
<path fill-rule="evenodd" clip-rule="evenodd" d="M999.5 241H-1V239H999.5V241Z" fill="#D3E5F7"/>
<path fill-rule="evenodd" clip-rule="evenodd" d="M999.5 281H-1V279H999.5V281Z" fill="#D3E5F7"/>
<path fill-rule="evenodd" clip-rule="evenodd" d="M999.5 321H-1V319H999.5V321Z" fill="#D3E5F7"/>
<path fill-rule="evenodd" clip-rule="evenodd" d="M999.5 361H-1V359H999.5V361Z" fill="#D3E5F7"/>
<path fill-rule="evenodd" clip-rule="evenodd" d="M80 280.088C80 279.536 80.4477 279.088 81 279.088L560.771 279.088C561.323 279.088 561.771 279.536 561.771 280.088C561.771 280.64 561.323 281.088 560.771 281.088L81 281.088C80.4477 281.088 80 280.64 80 280.088Z" fill="#0076D6"/>
<path fill-rule="evenodd" clip-rule="evenodd" d="M0 160C0 159.448 0.447715 159 1 159H719C719.552 159 720 159.448 720 160C720 160.552 719.552 161 719 161H1C0.447715 161 0 160.552 0 160Z" fill="#0076D6"/>
<path fill-rule="evenodd" clip-rule="evenodd" d="M200.952 121.488L198.954 121.392C198.985 120.765 199 120.134 199 119.5C199 118.866 198.985 118.235 198.954 117.608L200.952 117.512C200.984 118.171 201 118.833 201 119.5C201 120.167 200.984 120.829 200.952 121.488ZM200.567 113.555L198.588 113.846C198.403 112.59 198.158 111.354 197.855 110.14L199.795 109.656C200.114 110.933 200.372 112.234 200.567 113.555ZM198.643 105.852L196.76 106.526C196.333 105.334 195.85 104.17 195.313 103.036L197.12 102.18C197.685 103.373 198.194 104.598 198.643 105.852ZM195.244 98.6762L193.529 99.706C192.879 98.6236 192.177 97.5757 191.427 96.5658L193.032 95.3731C193.821 96.4354 194.56 97.5376 195.244 98.6762ZM190.509 92.3018C189.618 91.3198 188.68 90.3817 187.698 89.4911L186.355 90.9726C187.288 91.8195 188.181 92.7116 189.027 93.6454L190.509 92.3018ZM184.627 86.9677L183.434 88.5732C182.424 87.8229 181.376 87.1211 180.294 86.4709L181.324 84.7565C182.462 85.4403 183.565 86.1786 184.627 86.9677ZM177.82 82.8798L176.964 84.6872C175.83 84.15 174.666 83.6666 173.474 83.2403L174.148 81.3573C175.402 81.8059 176.627 82.3145 177.82 82.8798ZM170.344 80.2047L169.86 82.1452C168.646 81.8422 167.41 81.5967 166.154 81.4119L166.445 79.4332C167.766 79.6276 169.067 79.8859 170.344 80.2047ZM162.488 79.0479L162.392 81.0456C161.765 81.0153 161.134 81 160.5 81C159.866 81 159.235 81.0153 158.608 81.0456L158.512 79.0479C159.171 79.0161 159.833 79 160.5 79C161.167 79 161.829 79.0161 162.488 79.0479ZM154.555 79.4332C153.234 79.6276 151.933 79.8859 150.656 80.2047L151.14 82.1452C152.354 81.8422 153.59 81.5967 154.846 81.4119L154.555 79.4332ZM146.852 81.3573L147.526 83.2403C146.334 83.6666 145.17 84.15 144.036 84.6872L143.18 82.8798C144.373 82.3145 145.598 81.8059 146.852 81.3573ZM139.676 84.7565C138.538 85.4404 137.435 86.1786 136.373 86.9677L137.566 88.5732C138.576 87.8229 139.624 87.1211 140.706 86.4709L139.676 84.7565ZM133.302 89.4911L134.645 90.9726C133.712 91.8195 132.819 92.7116 131.973 93.6454L130.491 92.3018C131.382 91.3198 132.32 90.3817 133.302 89.4911ZM127.968 95.3731L129.573 96.5658C128.823 97.5757 128.121 98.6236 127.471 99.706L125.756 98.6762C126.44 97.5376 127.179 96.4354 127.968 95.3731ZM123.88 102.18L125.687 103.036C125.15 104.17 124.667 105.334 124.24 106.526L122.357 105.852C122.806 104.598 123.315 103.373 123.88 102.18ZM121.205 109.656L123.145 110.14C122.842 111.354 122.597 112.59 122.412 113.846L120.433 113.555C120.628 112.234 120.886 110.933 121.205 109.656ZM120.048 117.512C120.016 118.171 120 118.833 120 119.5C120 120.167 120.016 120.829 120.048 121.488L122.046 121.392C122.015 120.765 122 120.134 122 119.5C122 118.866 122.015 118.235 122.046 117.608L120.048 117.512ZM120.433 125.445C120.628 126.766 120.886 128.067 121.205 129.344L123.145 128.86C122.842 127.646 122.597 126.41 122.412 125.154L120.433 125.445ZM122.357 133.148L124.24 132.474C124.667 133.666 125.15 134.83 125.687 135.964L123.88 136.82C123.315 135.627 122.806 134.402 122.357 133.148ZM125.756 140.324C126.44 141.462 127.179 142.565 127.968 143.627L129.573 142.434C128.823 141.424 128.121 140.376 127.471 139.294L125.756 140.324ZM130.491 146.698L131.973 145.355C132.819 146.288 133.712 147.181 134.645 148.027L133.302 149.509C132.32 148.618 131.382 147.68 130.491 146.698ZM136.373 152.032L137.566 150.427C138.576 151.177 139.624 151.879 140.706 152.529L139.676 154.244C138.538 153.56 137.435 152.821 136.373 152.032ZM143.18 156.12L144.036 154.313C145.17 154.85 146.334 155.333 147.526 155.76L146.852 157.643C145.598 157.194 144.373 156.685 143.18 156.12ZM150.656 158.795L151.14 156.855C152.354 157.158 153.59 157.403 154.846 157.588L154.555 159.567C153.234 159.372 151.933 159.114 150.656 158.795ZM158.512 159.952L158.608 157.954C159.235 157.985 159.866 158 160.5 158C161.134 158 161.765 157.985 162.392 157.954L162.488 159.952C161.829 159.984 161.167 160 160.5 160C159.833 160 159.171 159.984 158.512 159.952ZM166.445 159.567L166.154 157.588C167.41 157.403 168.646 157.158 169.86 156.855L170.344 158.795C169.067 159.114 167.766 159.372 166.445 159.567ZM174.148 157.643L173.474 155.76C174.666 155.333 175.83 154.85 176.964 154.313L177.82 156.12C176.627 156.685 175.402 157.194 174.148 157.643ZM181.324 154.244L180.294 152.529C181.376 151.879 182.424 151.177 183.434 150.427L184.627 152.032C183.565 152.821 182.462 153.56 181.324 154.244ZM187.698 149.509L186.355 148.027C187.288 147.181 188.181 146.288 189.027 145.355L190.509 146.698C189.618 147.68 188.68 148.618 187.698 149.509ZM193.032 143.627L191.427 142.434C192.177 141.424 192.879 140.376 193.529 139.294L195.244 140.324C194.56 141.462 193.821 142.565 193.032 143.627ZM197.12 136.82L195.313 135.964C195.85 134.83 196.333 133.666 196.76 132.474L198.643 133.148C198.194 134.402 197.685 135.627 197.12 136.82ZM199.795 129.344C200.114 128.067 200.372 126.766 200.567 125.445L198.588 125.154C198.403 126.41 198.158 127.646 197.855 128.86L199.795 129.344Z" fill="#0076D6"/>
<path d="M402 320.5C402 342.868 383.868 361 361.5 361C339.132 361 321 342.868 321 320.5C321 298.132 339.132 280 361.5 280C383.868 280 402 298.132 402 320.5Z" fill="#D3E5F7"/>
<path fill-rule="evenodd" clip-rule="evenodd" d="M401.952 322.488L399.954 322.392C399.985 321.765 400 321.134 400 320.5C400 319.866 399.985 319.235 399.954 318.608L401.952 318.512C401.984 319.171 402 319.833 402 320.5C402 321.167 401.984 321.829 401.952 322.488ZM401.567 314.555L399.588 314.846C399.403 313.59 399.158 312.354 398.855 311.14L400.795 310.656C401.114 311.933 401.372 313.234 401.567 314.555ZM399.643 306.852L397.76 307.526C397.333 306.334 396.85 305.17 396.313 304.036L398.12 303.18C398.685 304.373 399.194 305.598 399.643 306.852ZM396.244 299.676L394.529 300.706C393.879 299.624 393.177 298.576 392.427 297.566L394.032 296.373C394.821 297.435 395.56 298.538 396.244 299.676ZM391.509 293.302C390.618 292.32 389.68 291.382 388.698 290.491L387.355 291.973C388.288 292.819 389.181 293.712 390.027 294.645L391.509 293.302ZM385.627 287.968L384.434 289.573C383.424 288.823 382.376 288.121 381.294 287.471L382.324 285.756C383.462 286.44 384.565 287.179 385.627 287.968ZM378.82 283.88L377.964 285.687C376.83 285.15 375.666 284.667 374.474 284.24L375.148 282.357C376.402 282.806 377.627 283.315 378.82 283.88ZM371.344 281.205L370.86 283.145C369.646 282.842 368.41 282.597 367.154 282.412L367.445 280.433C368.766 280.628 370.067 280.886 371.344 281.205ZM363.488 280.048L363.392 282.046C362.765 282.015 362.134 282 361.5 282C360.866 282 360.235 282.015 359.608 282.046L359.512 280.048C360.171 280.016 360.833 280 361.5 280C362.167 280 362.829 280.016 363.488 280.048ZM355.555 280.433C354.234 280.628 352.933 280.886 351.656 281.205L352.14 283.145C353.354 282.842 354.59 282.597 355.846 282.412L355.555 280.433ZM347.852 282.357L348.526 284.24C347.334 284.667 346.17 285.15 345.036 285.687L344.18 283.88C345.373 283.315 346.598 282.806 347.852 282.357ZM340.676 285.756C339.538 286.44 338.435 287.179 337.373 287.968L338.566 289.573C339.576 288.823 340.624 288.121 341.706 287.471L340.676 285.756ZM334.302 290.491L335.645 291.973C334.712 292.819 333.819 293.712 332.973 294.645L331.491 293.302C332.382 292.32 333.32 291.382 334.302 290.491ZM328.968 296.373L330.573 297.566C329.823 298.576 329.121 299.624 328.471 300.706L326.756 299.676C327.44 298.538 328.179 297.435 328.968 296.373ZM324.88 303.18L326.687 304.036C326.15 305.17 325.667 306.334 325.24 307.526L323.357 306.852C323.806 305.598 324.315 304.373 324.88 303.18ZM322.205 310.656L324.145 311.14C323.842 312.354 323.597 313.59 323.412 314.846L321.433 314.555C321.628 313.234 321.886 311.933 322.205 310.656ZM321.048 318.512C321.016 319.171 321 319.833 321 320.5C321 321.167 321.016 321.829 321.048 322.488L323.046 322.392C323.015 321.765 323 321.134 323 320.5C323 319.866 323.015 319.235 323.046 318.608L321.048 318.512ZM321.433 326.445C321.628 327.766 321.886 329.067 322.205 330.344L324.145 329.86C323.842 328.646 323.597 327.41 323.412 326.154L321.433 326.445ZM323.357 334.148L325.24 333.474C325.667 334.666 326.15 335.83 326.687 336.964L324.88 337.82C324.315 336.627 323.806 335.402 323.357 334.148ZM326.756 341.324C327.44 342.462 328.179 343.565 328.968 344.627L330.573 343.434C329.823 342.424 329.121 341.376 328.471 340.294L326.756 341.324ZM331.491 347.698L332.973 346.355C333.819 347.288 334.712 348.181 335.645 349.027L334.302 350.509C333.32 349.618 332.382 348.68 331.491 347.698ZM337.373 353.032L338.566 351.427C339.576 352.177 340.624 352.879 341.706 353.529L340.676 355.244C339.538 354.56 338.435 353.821 337.373 353.032ZM344.18 357.12L345.036 355.313C346.17 355.85 347.334 356.333 348.526 356.76L347.852 358.643C346.598 358.194 345.373 357.685 344.18 357.12ZM351.656 359.795L352.14 357.855C353.354 358.158 354.59 358.403 355.846 358.588L355.555 360.567C354.234 360.372 352.933 360.114 351.656 359.795ZM359.512 360.952L359.608 358.954C360.235 358.985 360.866 359 361.5 359C362.134 359 362.765 358.985 363.392 358.954L363.488 360.952C362.829 360.984 362.167 361 361.5 361C360.833 361 360.171 360.984 359.512 360.952ZM367.445 360.567L367.154 358.588C368.41 358.403 369.646 358.158 370.86 357.855L371.344 359.795C370.067 360.114 368.766 360.372 367.445 360.567ZM375.148 358.643L374.474 356.76C375.666 356.333 376.83 355.85 377.964 355.313L378.82 357.12C377.627 357.685 376.402 358.194 375.148 358.643ZM382.324 355.244L381.294 353.529C382.376 352.879 383.424 352.177 384.434 351.427L385.627 353.032C384.565 353.821 383.462 354.56 382.324 355.244ZM388.698 350.509L387.355 349.027C388.288 348.181 389.181 347.288 390.027 346.355L391.509 347.698C390.618 348.68 389.68 349.618 388.698 350.509ZM394.032 344.627L392.427 343.434C393.177 342.424 393.879 341.376 394.529 340.294L396.244 341.324C395.56 342.462 394.821 343.565 394.032 344.627ZM398.12 337.82L396.313 336.964C396.85 335.83 397.333 334.666 397.76 333.474L399.643 334.148C399.194 335.402 398.685 336.627 398.12 337.82ZM400.795 330.344C401.114 329.067 401.372 327.766 401.567 326.445L399.588 326.154C399.403 327.41 399.158 328.646 398.855 329.86L400.795 330.344Z" fill="#0076D6"/>
<path fill-rule="evenodd" clip-rule="evenodd" d="M362 81H160C139.013 81 122 98.0132 122 119V321C122 341.987 139.013 359 160 359H362C382.987 359 400 341.987 400 321V119C400 98.0132 382.987 81 362 81ZM160 79C137.909 79 120 96.9086 120 119V321C120 343.091 137.909 361 160 361H362C384.091 361 402 343.091 402 321V119C402 96.9086 384.091 79 362 79H160Z" fill="#0076D6"/>
<path fill-rule="evenodd" clip-rule="evenodd" d="M303.319 271.539C303.937 271.304 304.561 271.063 305.191 270.817L305.617 268.696L303.656 268.303L303.446 269.349C303.165 269.457 302.885 269.564 302.607 269.67L303.319 271.539ZM311.574 239.01L312 236.89H309.96L309.614 238.617L310.638 238.822V238.89H310.974L311.574 239.01ZM307.915 236.89H306.553L305.34 238.765L307.02 239.851L307.642 238.89H307.915V238.467L308.233 237.976L307.915 237.77V236.89ZM302.915 242.516L300.489 246.266L302.169 247.353L304.594 243.602L302.915 242.516ZM298.064 250.017L295.638 253.768L297.318 254.854L299.743 251.103L298.064 250.017ZM293.213 257.519L294.892 258.605L292.467 262.355L290.787 261.269L293.213 257.519ZM281.453 270.054L282.191 271.913C280.8 272.465 279.31 272.929 277.722 273.278L277.292 271.325C278.774 270.999 280.161 270.567 281.453 270.054ZM272.985 271.937L273.122 273.932C272.368 273.983 271.597 274.01 270.808 274.01C270.128 274.01 269.45 273.988 268.777 273.945L268.907 271.949C269.536 271.99 270.17 272.01 270.808 272.01C271.551 272.01 272.277 271.985 272.985 271.937ZM265.136 271.451L264.742 273.412C263.407 273.144 262.095 272.786 260.811 272.34L261.467 270.45C262.666 270.867 263.89 271.201 265.136 271.451ZM257.967 268.965L257.065 270.75C255.867 270.145 254.701 269.459 253.568 268.693L254.689 267.036C255.753 267.756 256.846 268.399 257.967 268.965ZM251.671 264.72L250.363 266.233C249.365 265.371 248.4 264.441 247.471 263.444L248.933 262.08C249.815 263.025 250.729 263.906 251.671 264.72ZM246.48 259.177L244.893 260.393C244.101 259.361 243.342 258.274 242.615 257.134L244.302 256.059C244.998 257.152 245.725 258.192 246.48 259.177ZM242.384 252.768L240.619 253.709C240.014 252.572 239.437 251.391 238.891 250.168L240.717 249.353C241.245 250.535 241.801 251.674 242.384 252.768ZM239.278 245.829L237.404 246.528C236.956 245.328 236.535 244.092 236.141 242.821L238.052 242.229C238.435 243.465 238.844 244.665 239.278 245.829ZM237.02 238.56C236.715 237.356 236.432 236.122 236.174 234.858L234.215 235.258C234.479 236.552 234.768 237.817 235.082 239.052L237.02 238.56ZM235.494 231.113L233.519 231.428C233.318 230.168 233.139 228.883 232.983 227.574L234.969 227.337C235.122 228.621 235.297 229.88 235.494 231.113ZM234.59 223.554L232.597 223.717C232.493 222.451 232.41 221.164 232.348 219.855L234.346 219.761C234.407 221.047 234.488 222.311 234.59 223.554ZM234.227 215.959L232.228 215.989C232.218 215.346 232.213 214.697 232.213 214.044C232.213 213.358 232.22 212.678 232.234 212.004L234.234 212.046C234.22 212.706 234.213 213.372 234.213 214.044C234.213 214.687 234.218 215.325 234.227 215.959ZM234.405 208.068L232.409 207.937C232.5 206.555 232.621 205.2 232.773 203.874L234.76 204.101C234.612 205.395 234.493 206.717 234.405 208.068ZM235.317 200.156L233.344 199.824C233.576 198.451 233.842 197.112 234.141 195.809L236.09 196.256C235.8 197.521 235.542 198.821 235.317 200.156ZM237.105 192.401L235.188 191.828C235.591 190.481 236.032 189.177 236.51 187.917L238.38 188.627C237.92 189.84 237.494 191.098 237.105 192.401ZM239.941 184.963L238.135 184.104C238.745 182.822 239.398 181.596 240.093 180.427L241.812 181.449C241.15 182.563 240.526 183.735 239.941 184.963ZM244.018 178.136L242.414 176.941C243.27 175.792 244.174 174.715 245.123 173.713L246.575 175.088C245.682 176.031 244.829 177.048 244.018 178.136ZM249.493 172.381L248.234 170.827C249.354 169.92 250.522 169.104 251.734 168.383L252.756 170.102C251.629 170.772 250.54 171.533 249.493 172.381ZM256.32 168.335L255.573 166.48C256.9 165.945 258.266 165.515 259.667 165.193L260.116 167.142C258.817 167.441 257.55 167.839 256.32 168.335ZM264.051 166.551L263.905 164.556C264.611 164.504 265.324 164.479 266.043 164.479C266.782 164.479 267.508 164.5 268.224 164.543L268.103 166.54C267.429 166.499 266.743 166.479 266.043 166.479C265.372 166.479 264.708 166.503 264.051 166.551ZM272.189 167.055L272.573 165.092C274.04 165.38 275.454 165.765 276.823 166.243L276.163 168.132C274.883 167.684 273.562 167.324 272.189 167.055ZM279.946 169.758L280.859 167.979C282.146 168.639 283.393 169.384 284.608 170.205L283.487 171.862C282.333 171.082 281.156 170.379 279.946 169.758ZM290.798 180.576L292.585 179.678L294.223 182.938L292.436 183.836L290.798 180.576ZM294.074 187.097L295.862 186.199L297.5 189.459L295.713 190.357L294.074 187.097ZM297.351 193.618L299.138 192.72L300.776 195.981L298.989 196.878L297.351 193.618ZM306.723 201.769L306.702 199.702L304.702 199.723L304.723 201.769H306.723ZM306.66 195.568L304.66 195.588L304.617 191.454L306.617 191.434L306.66 195.568ZM306.574 187.299L304.575 187.32L304.532 183.186L306.532 183.165L306.574 187.299ZM306.489 179.031L304.489 179.051L304.447 174.917L306.447 174.896L306.489 179.031ZM301.193 166.359L300.427 168.207C299.29 167.735 298.139 167.284 296.971 166.856L297.659 164.978C298.854 165.416 300.032 165.878 301.193 166.359ZM294.068 163.752L293.464 165.658C292.296 165.289 291.112 164.942 289.91 164.622L290.425 162.689C291.658 163.018 292.872 163.373 294.068 163.752ZM286.737 161.798L286.314 163.753C285.121 163.495 283.91 163.262 282.682 163.057L283.011 161.084C284.272 161.295 285.513 161.533 286.737 161.798ZM279.254 160.55L279.02 162.537C277.811 162.394 276.583 162.279 275.337 162.192L275.476 160.197C276.754 160.286 278.013 160.404 279.254 160.55ZM271.686 160.022L271.64 162.021C271.027 162.007 270.409 162 269.787 162C269.136 162 268.486 162.008 267.839 162.023L267.792 160.024C268.455 160.008 269.12 160 269.787 160C270.425 160 271.058 160.007 271.686 160.022ZM263.816 160.214L263.96 162.209C262.661 162.302 261.373 162.427 260.096 162.581L259.855 160.596C261.164 160.437 262.485 160.31 263.816 160.214ZM255.919 161.172L256.258 163.143C254.975 163.364 253.706 163.615 252.452 163.897L252.014 161.945C253.301 161.656 254.603 161.398 255.919 161.172ZM248.152 162.916L248.689 164.842C247.437 165.192 246.201 165.571 244.983 165.981L244.346 164.085C245.597 163.664 246.866 163.274 248.152 162.916ZM240.608 165.452L241.345 167.311C240.138 167.789 238.952 168.297 237.786 168.834L236.95 167.017C238.148 166.465 239.368 165.943 240.608 165.452ZM233.382 168.78L234.317 170.547C233.171 171.154 232.048 171.789 230.949 172.452L229.916 170.74C231.047 170.057 232.203 169.403 233.382 168.78ZM226.568 172.894L227.699 174.544C226.632 175.275 225.592 176.034 224.579 176.82L223.353 175.239C224.397 174.429 225.469 173.647 226.568 172.894ZM220.284 177.772L221.603 179.275C220.633 180.127 219.692 181.005 218.784 181.908L217.374 180.489C218.312 179.557 219.283 178.651 220.284 177.772ZM214.641 183.383L216.138 184.709C215.285 185.673 214.465 186.661 213.68 187.672L212.1 186.446C212.911 185.4 213.759 184.379 214.641 183.383ZM209.765 189.669L211.423 190.788C210.706 191.852 210.025 192.938 209.383 194.046L207.653 193.043C208.318 191.895 209.023 190.77 209.765 189.669ZM205.776 196.553L207.572 197.434C207.008 198.582 206.484 199.75 206.001 200.938L204.148 200.185C204.649 198.954 205.192 197.742 205.776 196.553ZM202.781 203.921L204.682 204.542C204.287 205.754 203.933 206.983 203.622 208.23L201.681 207.746C202.004 206.453 202.371 205.178 202.781 203.921ZM200.855 211.641L202.825 211.986C202.606 213.239 202.429 214.506 202.296 215.788L200.307 215.582C200.444 214.254 200.628 212.94 200.855 211.641ZM200.034 219.55L202.033 219.619C202.011 220.258 202 220.9 202 221.546C202 222.208 202.011 222.871 202.033 223.532L200.034 223.599C200.011 222.915 200 222.231 200 221.546C200 220.878 200.011 220.212 200.034 219.55ZM200.312 227.695L202.301 227.491C202.436 228.809 202.615 230.119 202.84 231.42L200.87 231.761C200.637 230.414 200.451 229.057 200.312 227.695ZM201.712 235.779C202.041 237.107 202.417 238.424 202.842 239.725L204.743 239.105C204.334 237.85 203.971 236.58 203.654 235.299L201.712 235.779ZM204.259 243.578L206.109 242.818C206.609 244.035 207.155 245.235 207.748 246.415L205.961 247.313C205.345 246.087 204.778 244.841 204.259 243.578ZM207.943 250.907L209.656 249.874C210.333 250.996 211.056 252.097 211.826 253.173L210.199 254.337C209.399 253.218 208.647 252.074 207.943 250.907ZM212.714 257.579L214.245 256.292C215.086 257.293 215.971 258.267 216.902 259.214L215.475 260.616C214.508 259.632 213.588 258.619 212.714 257.579ZM218.464 263.431L219.779 261.924C220.761 262.78 221.785 263.608 222.853 264.406L221.655 266.008C220.548 265.18 219.484 264.32 218.464 263.431ZM225.034 268.345L226.112 266.66C227.209 267.361 228.346 268.033 229.523 268.674L228.566 270.431C227.349 269.768 226.171 269.072 225.034 268.345ZM232.233 272.269L233.07 270.452C234.256 270.998 235.478 271.515 236.737 272L236.018 273.866C234.72 273.366 233.458 272.833 232.233 272.269ZM239.898 275.227L240.504 273.321C241.748 273.716 243.025 274.082 244.335 274.418L243.838 276.356C242.492 276.011 241.179 275.634 239.898 275.227ZM247.836 277.268L248.23 275.307C249.515 275.566 250.83 275.796 252.174 275.997L251.878 277.975C250.502 277.769 249.154 277.533 247.836 277.268ZM255.95 278.489L256.154 276.499C257.464 276.634 258.799 276.742 260.16 276.823L260.041 278.82C258.652 278.737 257.288 278.626 255.95 278.489ZM264.142 278.98L264.181 276.981C264.852 276.993 265.53 277 266.213 277C266.877 277 267.534 276.994 268.183 276.982L268.22 278.982C267.558 278.994 266.89 279 266.213 279C265.517 279 264.827 278.993 264.142 278.98ZM272.225 278.828L272.108 276.832C273.435 276.753 274.734 276.648 276.014 276.515L276.22 278.504C274.911 278.64 273.581 278.748 272.225 278.828ZM280.197 277.999L279.899 276.021C281.194 275.825 282.477 275.6 283.755 275.345L284.146 277.307C282.838 277.567 281.524 277.798 280.197 277.999ZM288.059 276.435L287.582 274.493C288.841 274.184 290.103 273.846 291.378 273.478L291.932 275.4C290.634 275.774 289.345 276.119 288.059 276.435ZM295.764 274.222L295.145 272.321C296.373 271.921 297.618 271.495 298.886 271.043L299.558 272.927C298.273 273.385 297.011 273.817 295.764 274.222ZM304.668 167.883L303.83 169.699C304.019 169.786 304.208 169.874 304.396 169.963L304.404 170.783L306.404 170.762L306.383 168.695C305.815 168.42 305.244 168.149 304.668 167.883ZM302.766 201.769V201.107L303.234 200.871L302.766 199.94V199.769H302.68L302.415 199.241L300.628 200.139L301.447 201.769H302.766ZM289.16 177.315L290.947 176.417L289.957 174.448L289.675 174.195C289.139 173.715 288.599 173.249 288.054 172.798L286.779 174.339C287.302 174.772 287.822 175.221 288.34 175.685L289.16 177.315ZM285.344 268.112C285.978 267.724 286.58 267.317 287.149 266.895L288.362 265.02L290.041 266.106L288.631 268.287L288.339 268.503C287.723 268.959 287.073 269.399 286.388 269.818L285.344 268.112ZM310.723 243.251L309.872 247.492L307.911 247.098L308.762 242.857L310.723 243.251ZM309.021 251.733L307.06 251.339L306.209 255.58L308.17 255.974L309.021 251.733ZM307.319 260.214L305.358 259.821L304.507 264.062L306.468 264.455L307.319 260.214Z" fill="#005380"/>
<path d="M305.191 270.817C291.234 276.272 280.511 279 266.213 279C263.021 279 259.95 278.86 257 278.591V268.5V168V160.994C261.144 160.34 265.418 160 269.787 160C283.915 160 295.83 163.58 306.383 168.695L306.723 201.769H301.447L288.34 175.685C281.872 169.888 275.064 166.479 266.043 166.479C264.362 166.486 260.2 166.8 257 168V268.5C261.8 271.3 268.206 272.007 270.808 272.01C277.787 272.01 283.234 269.794 287.149 266.895L306.553 236.89H312L305.191 270.817Z" fill="#0076D6"/>
<path fill-rule="evenodd" clip-rule="evenodd" d="M513 111L506.028 108.083C504.498 108.671 502.795 109 501 109C494.373 109 489 104.523 489 99C489 93.4772 494.373 89 501 89C507.627 89 513 93.4772 513 99C513 101.272 512.091 103.367 510.559 105.046L513 111ZM507 100V102H495V100H507ZM507 98V96H495V98H507Z" fill="#D3E5F7"/>
<path fill-rule="evenodd" clip-rule="evenodd" d="M832.857 211.746C833.178 210.776 832.972 209.756 832.108 208.892C831.244 208.028 830.224 207.822 829.254 208.143C828.705 208.325 828.296 208.617 828.031 208.882L824.913 212H811C809.895 212 809 212.895 809 214V230C809 231.105 809.895 232 811 232H827C828.105 232 829 231.105 829 230V216.087L832.118 212.97C832.383 212.704 832.675 212.295 832.857 211.746ZM827 218.087L821.111 223.976L815 226L817.024 219.889L822.913 214H811V230H827V218.087ZM827.346 212.292L828.709 213.654L820.069 222.294L818.032 222.968L818.706 220.931L827.346 212.292ZM829.866 209.968C830.169 209.868 830.424 209.919 830.752 210.248C831.081 210.576 831.132 210.831 831.032 211.134C830.961 211.349 830.829 211.533 830.755 211.607L830.064 212.298L828.701 210.936L829.393 210.245C829.467 210.171 829.651 210.039 829.866 209.968Z" fill="#74C9E3"/>
<path fill-rule="evenodd" clip-rule="evenodd" d="M621 61C624.314 61 627 58.3137 627 55C627 51.6863 624.314 49 621 49C617.686 49 615 51.6863 615 55C615 58.3137 617.686 61 621 61ZM621 59C618.791 59 617 57.2091 617 55C617 52.7909 618.791 51 621 51C623.209 51 625 52.7909 625 55C625 57.2091 623.209 59 621 59ZM624.477 61.5118L623.904 61.3385L621 64.2426L618.096 61.3385L617.523 61.5118C613.619 62.6918 610.562 65.8022 609.452 69.7278L609.092 71H632.908L632.548 69.7278C631.438 65.8022 628.381 62.6918 624.477 61.5118ZM624.458 63.6136C627.017 64.5566 629.083 66.5169 630.168 69H611.832C612.917 66.5169 614.983 64.5566 617.542 63.6136L621 67.0711L624.458 63.6136ZM637 64.6828C635.749 64.2406 634.403 64 633 64C632.587 64 632.178 64.0209 631.776 64.0617C632.279 64.6671 632.731 65.3156 633.128 66.0008C634.503 66.018 635.812 66.3129 637 66.8321V64.6828ZM610.224 64.0617C609.822 64.0209 609.413 64 609 64C607.597 64 606.251 64.2406 605 64.6828V66.8321C606.188 66.3129 607.497 66.018 608.872 66.0008C609.262 65.328 609.705 64.6907 610.197 64.0947L610.224 64.0617ZM637 58C637 60.2091 635.209 62 633 62C630.791 62 629 60.2091 629 58C629 55.7909 630.791 54 633 54C635.209 54 637 55.7909 637 58ZM631 58C631 59.1046 631.895 60 633 60C634.105 60 635 59.1046 635 58C635 56.8954 634.105 56 633 56C631.895 56 631 56.8954 631 58ZM609 62C611.209 62 613 60.2091 613 58C613 55.7909 611.209 54 609 54C606.791 54 605 55.7909 605 58C605 60.2091 606.791 62 609 62ZM609 60C607.895 60 607 59.1046 607 58C607 56.8954 607.895 56 609 56C610.105 56 611 56.8954 611 58C611 59.1046 610.105 60 609 60Z" fill="#74C9E3"/>
<path fill-rule="evenodd" clip-rule="evenodd" d="M660 335.829C658.835 335.417 658 334.306 658 333C658 331.343 659.343 330 661 330C662.657 330 664 331.343 664 333C664 334.306 663.165 335.417 662 335.829V347C662 347.552 661.552 348 661 348C660.448 348 660 347.552 660 347V335.829ZM668 333C668 332.448 668.448 332 669 332C669.552 332 670 332.448 670 333V344.171C671.165 344.583 672 345.694 672 347C672 348.657 670.657 350 669 350C667.343 350 666 348.657 666 347C666 345.694 666.835 344.583 668 344.171V333ZM668 347C668 347.552 668.448 348 669 348C669.552 348 670 347.552 670 347C670 346.448 669.552 346 669 346C668.448 346 668 346.448 668 347ZM661 334C660.448 334 660 333.552 660 333C660 332.448 660.448 332 661 332C661.552 332 662 332.448 662 333C662 333.552 661.552 334 661 334ZM653 332C652.448 332 652 332.448 652 333V337.171C650.835 337.583 650 338.694 650 340C650 341.306 650.835 342.417 652 342.829V347C652 347.552 652.448 348 653 348C653.552 348 654 347.552 654 347V342.829C655.165 342.417 656 341.306 656 340C656 338.694 655.165 337.583 654 337.171V333C654 332.448 653.552 332 653 332ZM652 340C652 340.552 652.448 341 653 341C653.552 341 654 340.552 654 340C654 339.448 653.552 339 653 339C652.448 339 652 339.448 652 340Z" fill="#74C9E3"/>
<path fill-rule="evenodd" clip-rule="evenodd" d="M821 8C827.627 8 833 13.3726 833 20C833 26.6274 827.627 32 821 32C814.373 32 809 26.6274 809 20C809 13.3726 814.373 8 821 8ZM821 10C815.477 10 811 14.4772 811 20C811 25.5228 815.477 30 821 30C826.523 30 831 25.5228 831 20C831 14.4772 826.523 10 821 10ZM821 18C821.828 18 822.5 18.6716 822.5 19.5V25.5C822.5 26.3284 821.828 27 821 27C820.172 27 819.5 26.3284 819.5 25.5V19.5C819.5 18.6716 820.172 18 821 18ZM821 13C821.828 13 822.5 13.6716 822.5 14.5C822.5 15.3284 821.828 16 821 16C820.172 16 819.5 15.3284 819.5 14.5C819.5 13.6716 820.172 13 821 13Z" fill="#D3E5F7"/>
<path fill-rule="evenodd" clip-rule="evenodd" d="M789.485 291.515C794.172 296.201 794.172 303.799 789.485 308.485C784.799 313.172 777.201 313.172 772.515 308.485C767.828 303.799 767.828 296.201 772.515 291.515C777.201 286.828 784.799 286.828 789.485 291.515ZM777.524 304.892C777.255 304.7 776.998 304.484 776.757 304.243C776.516 304.002 776.3 303.746 776.109 303.477L773.222 306.364L774.636 307.778L777.524 304.892ZM775.203 298.447L772.131 295.375C770.623 298.265 770.623 301.737 772.131 304.626L775.204 301.554C774.959 300.639 774.935 299.678 775.13 298.754L775.203 298.447ZM785.625 308.869L782.553 305.797C781.537 306.068 780.463 306.068 779.447 305.797L776.375 308.869C779.264 310.377 782.736 310.377 785.625 308.869ZM783.828 297.172C782.266 295.609 779.734 295.609 778.172 297.172C776.609 298.734 776.609 301.266 778.172 302.828C779.734 304.391 782.266 304.391 783.828 302.828C785.391 301.266 785.391 298.734 783.828 297.172ZM777.523 295.109L774.636 292.222L773.222 293.636L776.108 296.524C776.3 296.255 776.516 295.998 776.757 295.757C776.998 295.516 777.254 295.3 777.523 295.109ZM788.778 306.364L785.891 303.477C785.7 303.746 785.484 304.002 785.243 304.243C785.002 304.484 784.745 304.7 784.476 304.892L787.364 307.778L788.778 306.364ZM776.374 291.131L779.446 294.204C780.463 293.932 781.537 293.932 782.554 294.204L785.626 291.131C782.736 289.623 779.264 289.623 776.374 291.131ZM789.869 295.375L786.797 298.447C787.068 299.464 787.068 300.537 786.796 301.554L789.869 304.626C791.377 301.737 791.377 298.265 789.869 295.375ZM788.778 293.636L787.364 292.222L784.477 295.109C784.746 295.3 785.002 295.516 785.243 295.757C785.484 295.998 785.7 296.255 785.892 296.524L788.778 293.636Z" fill="#D3E5F7"/>
<path fill-rule="evenodd" clip-rule="evenodd" d="M934 168H943.414L950 174.586V190.014C950 191.555 949.549 192 948 192H934.035C932.455 192 932 191.56 932 190V170C932 168.448 932.448 168 934 168ZM942 176H948V190H934.035L934 190V170H942V176ZM944 171.414L946.586 174H944V171.414ZM946 186H936V188H946V186ZM936 182H946V184H936V182ZM946 178H936V180H946V178Z" fill="#D3E5F7"/>
<path d="M842 241H960V359H842V241Z" fill="white"/>
<path fill-rule="evenodd" clip-rule="evenodd" d="M912 267C922.039 267 931.31 270.287 938.796 275.844L938.638 275.897C932.724 277.866 927.902 282.223 925.314 287.823L925.295 287.864C925.211 288.048 925.129 288.233 925.049 288.419C925.042 288.435 925.036 288.451 925.029 288.467L925.049 288.419C925.017 288.495 924.984 288.572 924.953 288.648L925.029 288.467C924.989 288.561 924.95 288.655 924.911 288.749L924.953 288.648C924.868 288.852 924.787 289.057 924.709 289.264C924.701 289.283 924.694 289.303 924.686 289.323L924.709 289.264C924.676 289.351 924.643 289.438 924.611 289.525L924.686 289.323C924.651 289.417 924.616 289.512 924.581 289.607C924.557 289.675 924.533 289.743 924.509 289.811L924.581 289.607C924.542 289.717 924.503 289.827 924.465 289.937L924.465 289.937L924.383 290.181C917.121 291.105 910.94 295.489 907.546 301.629L921.037 327.002L921.039 327.002L923.386 331.416C924.164 332.879 925.98 333.435 927.443 332.657C928.906 331.879 929.461 330.062 928.684 328.599L927.587 326.602L927.564 326.558C927.339 326.078 927.527 325.501 928 325.25C928.472 324.999 929.054 325.164 929.326 325.617L929.352 325.663L930.449 327.66L930.489 327.737C931.726 330.162 930.795 333.14 928.382 334.423C925.97 335.705 922.982 334.813 921.663 332.434L921.62 332.355L919.924 329.166C919.914 329.149 919.903 329.131 919.894 329.112L905.642 302.309C905.194 302.277 904.742 302.257 904.287 302.252L904 302.25C897.207 302.25 891.118 305.26 886.992 310.019L886.868 310.164L886.602 310.087C886.573 310.079 886.545 310.071 886.516 310.063C886.459 310.047 886.401 310.032 886.343 310.016L886.516 310.063C886.419 310.036 886.321 310.01 886.223 309.984L886.343 310.016C886.241 309.989 886.139 309.962 886.037 309.936L886.223 309.984C886.141 309.963 886.06 309.942 885.978 309.921L886.037 309.936C885.937 309.911 885.837 309.887 885.737 309.863L885.978 309.921C885.882 309.898 885.787 309.874 885.692 309.852L885.737 309.863C885.631 309.837 885.523 309.813 885.416 309.789L885.692 309.852C885.585 309.827 885.478 309.802 885.37 309.779L885.416 309.789C885.325 309.768 885.233 309.749 885.142 309.729L885.37 309.779C885.265 309.755 885.16 309.733 885.054 309.711L885.142 309.729C885.044 309.709 884.946 309.689 884.848 309.67L885.054 309.711C883.661 309.425 882.22 309.267 880.745 309.251L880.5 309.25C875.518 309.25 870.914 310.869 867.185 313.611L867.032 313.724C867.011 313.152 867 312.577 867 312C867 295.164 876.245 280.488 889.936 272.771L887.969 269.072C887.71 268.584 887.895 267.979 888.383 267.719C888.871 267.46 889.476 267.645 889.735 268.133L891.7 271.828C897.724 268.778 904.526 267.043 911.73 267.001L912 267ZM888.041 276.286L887.99 276.32C876.935 283.764 869.819 296.003 869.066 309.601L869.042 310.089L869.056 310.081C872.479 308.27 876.314 307.284 880.294 307.251L880.5 307.25C881.762 307.25 883.011 307.346 884.241 307.534C883.429 304.155 883 300.628 883 297C883 289.53 884.82 282.486 888.041 276.286ZM885 297C885 300.598 885.442 304.135 886.305 307.554L886.356 307.752L886.459 307.646L886.496 307.607L886.59 307.512C886.623 307.479 886.656 307.445 886.689 307.412C886.779 307.323 886.869 307.234 886.96 307.145C887.155 306.956 887.353 306.771 887.554 306.589C887.765 306.397 887.979 306.21 888.197 306.026C888.23 305.998 888.263 305.971 888.296 305.943C888.312 305.929 888.328 305.916 888.344 305.903C888.356 305.892 888.369 305.882 888.381 305.872C888.467 305.801 888.554 305.73 888.641 305.66C888.667 305.639 888.693 305.618 888.719 305.597C888.747 305.575 888.775 305.552 888.803 305.53C888.891 305.461 888.979 305.392 889.067 305.324C889.077 305.316 889.088 305.308 889.098 305.3C889.129 305.276 889.161 305.252 889.192 305.228C889.216 305.21 889.239 305.192 889.263 305.175C889.285 305.158 889.308 305.141 889.331 305.124C889.415 305.061 889.499 304.999 889.583 304.937C889.595 304.928 889.608 304.919 889.62 304.91C889.657 304.884 889.693 304.858 889.73 304.831C889.757 304.811 889.785 304.791 889.813 304.772C889.841 304.752 889.868 304.733 889.896 304.713C889.91 304.703 889.925 304.693 889.94 304.682C889.976 304.657 890.013 304.631 890.049 304.606C890.075 304.588 890.101 304.57 890.127 304.552C890.149 304.537 890.171 304.522 890.194 304.506C890.223 304.486 890.252 304.466 890.282 304.446C890.312 304.426 890.343 304.405 890.373 304.385C890.393 304.371 890.413 304.358 890.433 304.345C890.577 304.249 890.723 304.154 890.869 304.061C890.887 304.05 890.904 304.039 890.922 304.028C890.947 304.012 890.971 303.997 890.996 303.981C891.029 303.96 891.062 303.94 891.095 303.919C891.188 303.862 891.28 303.805 891.373 303.75C891.384 303.743 891.395 303.736 891.406 303.73C891.444 303.707 891.483 303.684 891.521 303.661C891.547 303.645 891.574 303.63 891.6 303.614C891.62 303.603 891.639 303.591 891.659 303.58C891.694 303.559 891.73 303.538 891.765 303.518C891.787 303.505 891.81 303.493 891.832 303.48C891.866 303.46 891.9 303.441 891.934 303.422C891.948 303.413 891.963 303.405 891.978 303.397C892.069 303.345 892.161 303.295 892.252 303.244C892.287 303.225 892.321 303.207 892.356 303.188C892.372 303.179 892.387 303.171 892.403 303.162L892.457 303.134C892.49 303.116 892.524 303.098 892.558 303.08C892.57 303.074 892.581 303.068 892.593 303.062C892.622 303.046 892.651 303.031 892.68 303.016C892.714 302.998 892.749 302.98 892.784 302.962C892.805 302.951 892.825 302.941 892.846 302.93C892.879 302.913 892.913 302.896 892.947 302.879C892.974 302.865 893.001 302.852 893.028 302.838C893.115 302.794 893.202 302.751 893.29 302.709C893.444 302.634 893.598 302.561 893.753 302.489C893.775 302.479 893.798 302.469 893.82 302.459C893.977 302.387 894.135 302.317 894.293 302.249C894.308 302.242 894.323 302.235 894.339 302.229L894.352 302.223C894.594 302.119 894.838 302.02 895.084 301.924C895.17 301.89 895.257 301.857 895.344 301.824C895.432 301.791 895.519 301.758 895.607 301.726C895.707 301.69 895.808 301.654 895.909 301.618C895.93 301.611 895.952 301.604 895.974 301.596C895.998 301.588 896.022 301.579 896.047 301.571C896.203 301.517 896.361 301.465 896.519 301.414C896.564 301.4 896.608 301.386 896.653 301.372C896.667 301.367 896.682 301.363 896.696 301.358C896.734 301.347 896.771 301.335 896.808 301.324C896.959 301.277 897.111 301.232 897.264 301.189C897.3 301.179 897.336 301.169 897.372 301.158C897.399 301.151 897.426 301.143 897.454 301.136C897.476 301.129 897.499 301.123 897.521 301.117C897.57 301.104 897.618 301.091 897.667 301.078C897.677 301.075 897.686 301.072 897.696 301.07C897.741 301.058 897.786 301.046 897.83 301.035C897.861 301.027 897.891 301.019 897.921 301.011C897.955 301.003 897.989 300.994 898.023 300.986C898.054 300.978 898.084 300.97 898.115 300.963C898.144 300.955 898.174 300.948 898.204 300.941C898.237 300.933 898.269 300.925 898.302 300.917C898.342 300.908 898.381 300.899 898.421 300.889C898.436 300.886 898.452 300.882 898.467 300.879C898.507 300.869 898.546 300.86 898.586 300.852C898.623 300.843 898.66 300.835 898.697 300.827C898.726 300.82 898.755 300.814 898.784 300.808C898.811 300.802 898.838 300.796 898.865 300.79C898.898 300.783 898.93 300.776 898.963 300.77C899.069 300.747 899.175 300.726 899.282 300.705C899.3 300.701 899.319 300.698 899.338 300.694C899.376 300.687 899.414 300.679 899.453 300.672C899.496 300.664 899.538 300.656 899.581 300.649C899.592 300.646 899.603 300.644 899.615 300.642C899.663 300.634 899.711 300.625 899.76 300.617C899.781 300.613 899.802 300.609 899.824 300.606C899.875 300.597 899.927 300.588 899.979 300.579C899.986 300.578 899.992 300.577 899.999 300.576C900.052 300.567 900.105 300.559 900.158 300.55C900.18 300.547 900.201 300.544 900.223 300.54C900.251 300.536 900.279 300.532 900.308 300.527C900.351 300.521 900.395 300.514 900.438 300.508C900.452 300.506 900.466 300.504 900.48 300.502C900.534 300.494 900.588 300.486 900.642 300.479C900.65 300.478 900.659 300.477 900.667 300.476C900.719 300.469 900.771 300.462 900.823 300.455C900.845 300.452 900.867 300.449 900.889 300.446C900.928 300.441 900.968 300.436 901.008 300.432C901.125 300.417 901.243 300.404 901.361 300.391C901.367 300.39 901.374 300.39 901.38 300.389C901.436 300.383 901.492 300.377 901.548 300.372C901.558 300.371 901.569 300.37 901.579 300.369C901.592 300.367 901.606 300.366 901.619 300.365L901.771 300.35C901.783 300.349 901.796 300.348 901.808 300.347C901.816 300.346 901.825 300.346 901.834 300.345C901.892 300.34 901.949 300.335 902.007 300.33C902.014 300.33 902.021 300.329 902.028 300.329C902.082 300.324 902.135 300.32 902.189 300.316C902.226 300.314 902.263 300.311 902.299 300.308C902.327 300.306 902.355 300.305 902.384 300.303C902.421 300.3 902.459 300.298 902.497 300.296C902.526 300.294 902.554 300.292 902.583 300.29C902.614 300.289 902.645 300.287 902.677 300.285C902.91 300.273 903.144 300.264 903.378 300.258C903.512 300.254 903.647 300.252 903.782 300.251L904 300.25C904.184 300.25 904.367 300.252 904.551 300.256L891.086 274.933C887.127 281.54 885 289.11 885 297ZM892.877 274.04L906.444 299.557C910.043 293.779 915.92 289.704 922.678 288.426L922.904 288.385L922.938 288.296L922.956 288.252L922.963 288.235L922.789 288.043C915.123 279.628 904.438 274.538 892.877 274.04ZM912 269C906.292 269 900.748 270.112 895.609 272.233C906.716 273.363 916.628 278.532 923.854 286.249C926.162 281.662 929.868 277.901 934.414 275.525L934.616 275.42L934.428 275.304C927.83 271.261 920.224 269.052 912.281 269.001L912 269Z" fill="#74C9E3"/>
<path d="M602 161H720V279H602V161Z" fill="white"/>
<mask id="mask0_279_6866" style="mask-type:alpha" maskUnits="userSpaceOnUse" x="621" y="179" width="53" height="34">
<path d="M673.432 179H621V212.784H673.432V179Z" fill="white"/>
</mask>
<g mask="url(#mask0_279_6866)">
<path fill-rule="evenodd" clip-rule="evenodd" d="M701 259.541C701.597 259.541 702.081 259.056 702.081 258.459C702.081 257.862 701.597 257.378 701 257.378C700.403 257.378 699.919 257.862 699.919 258.459C699.919 259.056 700.403 259.541 701 259.541ZM692.351 259.541C692.948 259.541 693.432 259.056 693.432 258.459C693.432 257.862 692.948 257.378 692.351 257.378C691.754 257.378 691.27 257.862 691.27 258.459C691.27 259.056 691.754 259.541 692.351 259.541ZM683.703 259.541C684.3 259.541 684.784 259.056 684.784 258.459C684.784 257.862 684.3 257.378 683.703 257.378C683.106 257.378 682.622 257.862 682.622 258.459C682.622 259.056 683.106 259.541 683.703 259.541ZM675.054 259.541C675.651 259.541 676.135 259.056 676.135 258.459C676.135 257.862 675.651 257.378 675.054 257.378C674.457 257.378 673.973 257.862 673.973 258.459C673.973 259.056 674.457 259.541 675.054 259.541ZM666.405 259.541C667.002 259.541 667.486 259.056 667.486 258.459C667.486 257.862 667.002 257.378 666.405 257.378C665.808 257.378 665.324 257.862 665.324 258.459C665.324 259.056 665.808 259.541 666.405 259.541ZM657.757 259.541C658.354 259.541 658.838 259.056 658.838 258.459C658.838 257.862 658.354 257.378 657.757 257.378C657.16 257.378 656.676 257.862 656.676 258.459C656.676 259.056 657.16 259.541 657.757 259.541ZM649.108 259.541C649.705 259.541 650.189 259.056 650.189 258.459C650.189 257.862 649.705 257.378 649.108 257.378C648.511 257.378 648.027 257.862 648.027 258.459C648.027 259.056 648.511 259.541 649.108 259.541ZM640.459 259.541C641.056 259.541 641.54 259.056 641.54 258.459C641.54 257.862 641.056 257.378 640.459 257.378C639.862 257.378 639.378 257.862 639.378 258.459C639.378 259.056 639.862 259.541 640.459 259.541ZM631.811 259.541C632.408 259.541 632.892 259.056 632.892 258.459C632.892 257.862 632.408 257.378 631.811 257.378C631.214 257.378 630.73 257.862 630.73 258.459C630.73 259.056 631.214 259.541 631.811 259.541ZM623.162 259.541C623.759 259.541 624.243 259.056 624.243 258.459C624.243 257.862 623.759 257.378 623.162 257.378C622.565 257.378 622.081 257.862 622.081 258.459C622.081 259.056 622.565 259.541 623.162 259.541ZM696.676 255.216C697.273 255.216 697.757 254.732 697.757 254.135C697.757 253.538 697.273 253.054 696.676 253.054C696.079 253.054 695.595 253.538 695.595 254.135C695.595 254.732 696.079 255.216 696.676 255.216ZM688.027 255.216C688.624 255.216 689.108 254.732 689.108 254.135C689.108 253.538 688.624 253.054 688.027 253.054C687.43 253.054 686.946 253.538 686.946 254.135C686.946 254.732 687.43 255.216 688.027 255.216ZM679.378 255.216C679.975 255.216 680.459 254.732 680.459 254.135C680.459 253.538 679.975 253.054 679.378 253.054C678.781 253.054 678.297 253.538 678.297 254.135C678.297 254.732 678.781 255.216 679.378 255.216ZM670.73 255.216C671.327 255.216 671.811 254.732 671.811 254.135C671.811 253.538 671.327 253.054 670.73 253.054C670.133 253.054 669.649 253.538 669.649 254.135C669.649 254.732 670.133 255.216 670.73 255.216ZM662.081 255.216C662.678 255.216 663.162 254.732 663.162 254.135C663.162 253.538 662.678 253.054 662.081 253.054C661.484 253.054 661 253.538 661 254.135C661 254.732 661.484 255.216 662.081 255.216ZM653.432 255.216C654.029 255.216 654.513 254.732 654.513 254.135C654.513 253.538 654.029 253.054 653.432 253.054C652.835 253.054 652.351 253.538 652.351 254.135C652.351 254.732 652.835 255.216 653.432 255.216ZM644.784 255.216C645.381 255.216 645.865 254.732 645.865 254.135C645.865 253.538 645.381 253.054 644.784 253.054C644.187 253.054 643.703 253.538 643.703 254.135C643.703 254.732 644.187 255.216 644.784 255.216ZM636.135 255.216C636.732 255.216 637.216 254.732 637.216 254.135C637.216 253.538 636.732 253.054 636.135 253.054C635.538 253.054 635.054 253.538 635.054 254.135C635.054 254.732 635.538 255.216 636.135 255.216ZM627.486 255.216C628.084 255.216 628.568 254.732 628.568 254.135C628.568 253.538 628.084 253.054 627.486 253.054C626.889 253.054 626.405 253.538 626.405 254.135C626.405 254.732 626.889 255.216 627.486 255.216ZM618.838 255.216C619.435 255.216 619.919 254.732 619.919 254.135C619.919 253.538 619.435 253.054 618.838 253.054C618.241 253.054 617.757 253.538 617.757 254.135C617.757 254.732 618.241 255.216 618.838 255.216ZM701 250.892C701.597 250.892 702.081 250.408 702.081 249.811C702.081 249.214 701.597 248.73 701 248.73C700.403 248.73 699.919 249.214 699.919 249.811C699.919 250.408 700.403 250.892 701 250.892ZM692.351 250.892C692.948 250.892 693.432 250.408 693.432 249.811C693.432 249.214 692.948 248.73 692.351 248.73C691.754 248.73 691.27 249.214 691.27 249.811C691.27 250.408 691.754 250.892 692.351 250.892ZM683.703 250.892C684.3 250.892 684.784 250.408 684.784 249.811C684.784 249.214 684.3 248.73 683.703 248.73C683.106 248.73 682.622 249.214 682.622 249.811C682.622 250.408 683.106 250.892 683.703 250.892ZM675.054 250.892C675.651 250.892 676.135 250.408 676.135 249.811C676.135 249.214 675.651 248.73 675.054 248.73C674.457 248.73 673.973 249.214 673.973 249.811C673.973 250.408 674.457 250.892 675.054 250.892ZM666.405 250.892C667.002 250.892 667.486 250.408 667.486 249.811C667.486 249.214 667.002 248.73 666.405 248.73C665.808 248.73 665.324 249.214 665.324 249.811C665.324 250.408 665.808 250.892 666.405 250.892ZM657.757 250.892C658.354 250.892 658.838 250.408 658.838 249.811C658.838 249.214 658.354 248.73 657.757 248.73C657.16 248.73 656.676 249.214 656.676 249.811C656.676 250.408 657.16 250.892 657.757 250.892ZM649.108 250.892C649.705 250.892 650.189 250.408 650.189 249.811C650.189 249.214 649.705 248.73 649.108 248.73C648.511 248.73 648.027 249.214 648.027 249.811C648.027 250.408 648.511 250.892 649.108 250.892ZM640.459 250.892C641.056 250.892 641.54 250.408 641.54 249.811C641.54 249.214 641.056 248.73 640.459 248.73C639.862 248.73 639.378 249.214 639.378 249.811C639.378 250.408 639.862 250.892 640.459 250.892ZM631.811 250.892C632.408 250.892 632.892 250.408 632.892 249.811C632.892 249.214 632.408 248.73 631.811 248.73C631.214 248.73 630.73 249.214 630.73 249.811C630.73 250.408 631.214 250.892 631.811 250.892ZM623.162 250.892C623.759 250.892 624.243 250.408 624.243 249.811C624.243 249.214 623.759 248.73 623.162 248.73C622.565 248.73 622.081 249.214 622.081 249.811C622.081 250.408 622.565 250.892 623.162 250.892ZM696.676 246.568C697.273 246.568 697.757 246.084 697.757 245.486C697.757 244.889 697.273 244.405 696.676 244.405C696.079 244.405 695.595 244.889 695.595 245.486C695.595 246.084 696.079 246.568 696.676 246.568ZM688.027 246.568C688.624 246.568 689.108 246.084 689.108 245.486C689.108 244.889 688.624 244.405 688.027 244.405C687.43 244.405 686.946 244.889 686.946 245.486C686.946 246.084 687.43 246.568 688.027 246.568ZM679.378 246.568C679.975 246.568 680.459 246.084 680.459 245.486C680.459 244.889 679.975 244.405 679.378 244.405C678.781 244.405 678.297 244.889 678.297 245.486C678.297 246.084 678.781 246.568 679.378 246.568ZM670.73 246.568C671.327 246.568 671.811 246.084 671.811 245.486C671.811 244.889 671.327 244.405 670.73 244.405C670.133 244.405 669.649 244.889 669.649 245.486C669.649 246.084 670.133 246.568 670.73 246.568ZM662.081 246.568C662.678 246.568 663.162 246.084 663.162 245.486C663.162 244.889 662.678 244.405 662.081 244.405C661.484 244.405 661 244.889 661 245.486C661 246.084 661.484 246.568 662.081 246.568ZM653.432 246.568C654.029 246.568 654.513 246.084 654.513 245.486C654.513 244.889 654.029 244.405 653.432 244.405C652.835 244.405 652.351 244.889 652.351 245.486C652.351 246.084 652.835 246.568 653.432 246.568ZM644.784 246.568C645.381 246.568 645.865 246.084 645.865 245.486C645.865 244.889 645.381 244.405 644.784 244.405C644.187 244.405 643.703 244.889 643.703 245.486C643.703 246.084 644.187 246.568 644.784 246.568ZM636.135 246.568C636.732 246.568 637.216 246.084 637.216 245.486C637.216 244.889 636.732 244.405 636.135 244.405C635.538 244.405 635.054 244.889 635.054 245.486C635.054 246.084 635.538 246.568 636.135 246.568ZM627.486 246.568C628.084 246.568 628.568 246.084 628.568 245.486C628.568 244.889 628.084 244.405 627.486 244.405C626.889 244.405 626.405 244.889 626.405 245.486C626.405 246.084 626.889 246.568 627.486 246.568ZM618.838 246.568C619.435 246.568 619.919 246.084 619.919 245.486C619.919 244.889 619.435 244.405 618.838 244.405C618.241 244.405 617.757 244.889 617.757 245.486C617.757 246.084 618.241 246.568 618.838 246.568ZM701 242.243C701.597 242.243 702.081 241.759 702.081 241.162C702.081 240.565 701.597 240.081 701 240.081C700.403 240.081 699.919 240.565 699.919 241.162C699.919 241.759 700.403 242.243 701 242.243ZM692.351 242.243C692.948 242.243 693.432 241.759 693.432 241.162C693.432 240.565 692.948 240.081 692.351 240.081C691.754 240.081 691.27 240.565 691.27 241.162C691.27 241.759 691.754 242.243 692.351 242.243ZM683.703 242.243C684.3 242.243 684.784 241.759 684.784 241.162C684.784 240.565 684.3 240.081 683.703 240.081C683.106 240.081 682.622 240.565 682.622 241.162C682.622 241.759 683.106 242.243 683.703 242.243ZM675.054 242.243C675.651 242.243 676.135 241.759 676.135 241.162C676.135 240.565 675.651 240.081 675.054 240.081C674.457 240.081 673.973 240.565 673.973 241.162C673.973 241.759 674.457 242.243 675.054 242.243ZM666.405 242.243C667.002 242.243 667.486 241.759 667.486 241.162C667.486 240.565 667.002 240.081 666.405 240.081C665.808 240.081 665.324 240.565 665.324 241.162C665.324 241.759 665.808 242.243 666.405 242.243ZM657.757 242.243C658.354 242.243 658.838 241.759 658.838 241.162C658.838 240.565 658.354 240.081 657.757 240.081C657.16 240.081 656.676 240.565 656.676 241.162C656.676 241.759 657.16 242.243 657.757 242.243ZM649.108 242.243C649.705 242.243 650.189 241.759 650.189 241.162C650.189 240.565 649.705 240.081 649.108 240.081C648.511 240.081 648.027 240.565 648.027 241.162C648.027 241.759 648.511 242.243 649.108 242.243ZM640.459 242.243C641.056 242.243 641.54 241.759 641.54 241.162C641.54 240.565 641.056 240.081 640.459 240.081C639.862 240.081 639.378 240.565 639.378 241.162C639.378 241.759 639.862 242.243 640.459 242.243ZM631.811 242.243C632.408 242.243 632.892 241.759 632.892 241.162C632.892 240.565 632.408 240.081 631.811 240.081C631.214 240.081 630.73 240.565 630.73 241.162C630.73 241.759 631.214 242.243 631.811 242.243ZM623.162 242.243C623.759 242.243 624.243 241.759 624.243 241.162C624.243 240.565 623.759 240.081 623.162 240.081C622.565 240.081 622.081 240.565 622.081 241.162C622.081 241.759 622.565 242.243 623.162 242.243ZM696.676 237.919C697.273 237.919 697.757 237.435 697.757 236.838C697.757 236.241 697.273 235.757 696.676 235.757C696.079 235.757 695.595 236.241 695.595 236.838C695.595 237.435 696.079 237.919 696.676 237.919ZM688.027 237.919C688.624 237.919 689.108 237.435 689.108 236.838C689.108 236.241 688.624 235.757 688.027 235.757C687.43 235.757 686.946 236.241 686.946 236.838C686.946 237.435 687.43 237.919 688.027 237.919ZM679.378 237.919C679.975 237.919 680.459 237.435 680.459 236.838C680.459 236.241 679.975 235.757 679.378 235.757C678.781 235.757 678.297 236.241 678.297 236.838C678.297 237.435 678.781 237.919 679.378 237.919ZM670.73 237.919C671.327 237.919 671.811 237.435 671.811 236.838C671.811 236.241 671.327 235.757 670.73 235.757C670.133 235.757 669.649 236.241 669.649 236.838C669.649 237.435 670.133 237.919 670.73 237.919ZM662.081 237.919C662.678 237.919 663.162 237.435 663.162 236.838C663.162 236.241 662.678 235.757 662.081 235.757C661.484 235.757 661 236.241 661 236.838C661 237.435 661.484 237.919 662.081 237.919ZM653.432 237.919C654.029 237.919 654.513 237.435 654.513 236.838C654.513 236.241 654.029 235.757 653.432 235.757C652.835 235.757 652.351 236.241 652.351 236.838C652.351 237.435 652.835 237.919 653.432 237.919ZM644.784 237.919C645.381 237.919 645.865 237.435 645.865 236.838C645.865 236.241 645.381 235.757 644.784 235.757C644.187 235.757 643.703 236.241 643.703 236.838C643.703 237.435 644.187 237.919 644.784 237.919ZM636.135 237.919C636.732 237.919 637.216 237.435 637.216 236.838C637.216 236.241 636.732 235.757 636.135 235.757C635.538 235.757 635.054 236.241 635.054 236.838C635.054 237.435 635.538 237.919 636.135 237.919ZM627.486 237.919C628.084 237.919 628.568 237.435 628.568 236.838C628.568 236.241 628.084 235.757 627.486 235.757C626.889 235.757 626.405 236.241 626.405 236.838C626.405 237.435 626.889 237.919 627.486 237.919ZM618.838 237.919C619.435 237.919 619.919 237.435 619.919 236.838C619.919 236.241 619.435 235.757 618.838 235.757C618.241 235.757 617.757 236.241 617.757 236.838C617.757 237.435 618.241 237.919 618.838 237.919ZM701 233.595C701.597 233.595 702.081 233.111 702.081 232.513C702.081 231.916 701.597 231.432 701 231.432C700.403 231.432 699.919 231.916 699.919 232.513C699.919 233.111 700.403 233.595 701 233.595ZM692.351 233.595C692.948 233.595 693.432 233.111 693.432 232.513C693.432 231.916 692.948 231.432 692.351 231.432C691.754 231.432 691.27 231.916 691.27 232.513C691.27 233.111 691.754 233.595 692.351 233.595ZM683.703 233.595C684.3 233.595 684.784 233.111 684.784 232.513C684.784 231.916 684.3 231.432 683.703 231.432C683.106 231.432 682.622 231.916 682.622 232.513C682.622 233.111 683.106 233.595 683.703 233.595ZM675.054 233.595C675.651 233.595 676.135 233.111 676.135 232.513C676.135 231.916 675.651 231.432 675.054 231.432C674.457 231.432 673.973 231.916 673.973 232.513C673.973 233.111 674.457 233.595 675.054 233.595ZM666.405 233.595C667.002 233.595 667.486 233.111 667.486 232.513C667.486 231.916 667.002 231.432 666.405 231.432C665.808 231.432 665.324 231.916 665.324 232.513C665.324 233.111 665.808 233.595 666.405 233.595ZM657.757 233.595C658.354 233.595 658.838 233.111 658.838 232.513C658.838 231.916 658.354 231.432 657.757 231.432C657.16 231.432 656.676 231.916 656.676 232.513C656.676 233.111 657.16 233.595 657.757 233.595ZM649.108 233.595C649.705 233.595 650.189 233.111 650.189 232.513C650.189 231.916 649.705 231.432 649.108 231.432C648.511 231.432 648.027 231.916 648.027 232.513C648.027 233.111 648.511 233.595 649.108 233.595ZM640.459 233.595C641.056 233.595 641.54 233.111 641.54 232.513C641.54 231.916 641.056 231.432 640.459 231.432C639.862 231.432 639.378 231.916 639.378 232.513C639.378 233.111 639.862 233.595 640.459 233.595ZM631.811 233.595C632.408 233.595 632.892 233.111 632.892 232.513C632.892 231.916 632.408 231.432 631.811 231.432C631.214 231.432 630.73 231.916 630.73 232.513C630.73 233.111 631.214 233.595 631.811 233.595ZM623.162 233.595C623.759 233.595 624.243 233.111 624.243 232.513C624.243 231.916 623.759 231.432 623.162 231.432C622.565 231.432 622.081 231.916 622.081 232.513C622.081 233.111 622.565 233.595 623.162 233.595ZM696.676 229.27C697.273 229.27 697.757 228.786 697.757 228.189C697.757 227.592 697.273 227.108 696.676 227.108C696.079 227.108 695.595 227.592 695.595 228.189C695.595 228.786 696.079 229.27 696.676 229.27ZM688.027 229.27C688.624 229.27 689.108 228.786 689.108 228.189C689.108 227.592 688.624 227.108 688.027 227.108C687.43 227.108 686.946 227.592 686.946 228.189C686.946 228.786 687.43 229.27 688.027 229.27ZM679.378 229.27C679.975 229.27 680.459 228.786 680.459 228.189C680.459 227.592 679.975 227.108 679.378 227.108C678.781 227.108 678.297 227.592 678.297 228.189C678.297 228.786 678.781 229.27 679.378 229.27ZM670.73 229.27C671.327 229.27 671.811 228.786 671.811 228.189C671.811 227.592 671.327 227.108 670.73 227.108C670.133 227.108 669.649 227.592 669.649 228.189C669.649 228.786 670.133 229.27 670.73 229.27ZM662.081 229.27C662.678 229.27 663.162 228.786 663.162 228.189C663.162 227.592 662.678 227.108 662.081 227.108C661.484 227.108 661 227.592 661 228.189C661 228.786 661.484 229.27 662.081 229.27ZM653.432 229.27C654.029 229.27 654.513 228.786 654.513 228.189C654.513 227.592 654.029 227.108 653.432 227.108C652.835 227.108 652.351 227.592 652.351 228.189C652.351 228.786 652.835 229.27 653.432 229.27ZM644.784 229.27C645.381 229.27 645.865 228.786 645.865 228.189C645.865 227.592 645.381 227.108 644.784 227.108C644.187 227.108 643.703 227.592 643.703 228.189C643.703 228.786 644.187 229.27 644.784 229.27ZM636.135 229.27C636.732 229.27 637.216 228.786 637.216 228.189C637.216 227.592 636.732 227.108 636.135 227.108C635.538 227.108 635.054 227.592 635.054 228.189C635.054 228.786 635.538 229.27 636.135 229.27ZM627.486 229.27C628.084 229.27 628.568 228.786 628.568 228.189C628.568 227.592 628.084 227.108 627.486 227.108C626.889 227.108 626.405 227.592 626.405 228.189C626.405 228.786 626.889 229.27 627.486 229.27ZM618.838 229.27C619.435 229.27 619.919 228.786 619.919 228.189C619.919 227.592 619.435 227.108 618.838 227.108C618.241 227.108 617.757 227.592 617.757 228.189C617.757 228.786 618.241 229.27 618.838 229.27ZM701 224.946C701.597 224.946 702.081 224.462 702.081 223.865C702.081 223.268 701.597 222.784 701 222.784C700.403 222.784 699.919 223.268 699.919 223.865C699.919 224.462 700.403 224.946 701 224.946ZM692.351 224.946C692.948 224.946 693.432 224.462 693.432 223.865C693.432 223.268 692.948 222.784 692.351 222.784C691.754 222.784 691.27 223.268 691.27 223.865C691.27 224.462 691.754 224.946 692.351 224.946ZM683.703 224.946C684.3 224.946 684.784 224.462 684.784 223.865C684.784 223.268 684.3 222.784 683.703 222.784C683.106 222.784 682.622 223.268 682.622 223.865C682.622 224.462 683.106 224.946 683.703 224.946ZM675.054 224.946C675.651 224.946 676.135 224.462 676.135 223.865C676.135 223.268 675.651 222.784 675.054 222.784C674.457 222.784 673.973 223.268 673.973 223.865C673.973 224.462 674.457 224.946 675.054 224.946ZM666.405 224.946C667.002 224.946 667.486 224.462 667.486 223.865C667.486 223.268 667.002 222.784 666.405 222.784C665.808 222.784 665.324 223.268 665.324 223.865C665.324 224.462 665.808 224.946 666.405 224.946ZM657.757 224.946C658.354 224.946 658.838 224.462 658.838 223.865C658.838 223.268 658.354 222.784 657.757 222.784C657.16 222.784 656.676 223.268 656.676 223.865C656.676 224.462 657.16 224.946 657.757 224.946ZM649.108 224.946C649.705 224.946 650.189 224.462 650.189 223.865C650.189 223.268 649.705 222.784 649.108 222.784C648.511 222.784 648.027 223.268 648.027 223.865C648.027 224.462 648.511 224.946 649.108 224.946ZM640.459 224.946C641.056 224.946 641.54 224.462 641.54 223.865C641.54 223.268 641.056 222.784 640.459 222.784C639.862 222.784 639.378 223.268 639.378 223.865C639.378 224.462 639.862 224.946 640.459 224.946ZM631.811 224.946C632.408 224.946 632.892 224.462 632.892 223.865C632.892 223.268 632.408 222.784 631.811 222.784C631.214 222.784 630.73 223.268 630.73 223.865C630.73 224.462 631.214 224.946 631.811 224.946ZM623.162 224.946C623.759 224.946 624.243 224.462 624.243 223.865C624.243 223.268 623.759 222.784 623.162 222.784C622.565 222.784 622.081 223.268 622.081 223.865C622.081 224.462 622.565 224.946 623.162 224.946ZM696.676 220.622C697.273 220.622 697.757 220.138 697.757 219.541C697.757 218.943 697.273 218.459 696.676 218.459C696.079 218.459 695.595 218.943 695.595 219.541C695.595 220.138 696.079 220.622 696.676 220.622ZM688.027 220.622C688.624 220.622 689.108 220.138 689.108 219.541C689.108 218.943 688.624 218.459 688.027 218.459C687.43 218.459 686.946 218.943 686.946 219.541C686.946 220.138 687.43 220.622 688.027 220.622ZM679.378 220.622C679.975 220.622 680.459 220.138 680.459 219.541C680.459 218.943 679.975 218.459 679.378 218.459C678.781 218.459 678.297 218.943 678.297 219.541C678.297 220.138 678.781 220.622 679.378 220.622ZM670.73 220.622C671.327 220.622 671.811 220.138 671.811 219.541C671.811 218.943 671.327 218.459 670.73 218.459C670.133 218.459 669.649 218.943 669.649 219.541C669.649 220.138 670.133 220.622 670.73 220.622ZM662.081 220.622C662.678 220.622 663.162 220.138 663.162 219.541C663.162 218.943 662.678 218.459 662.081 218.459C661.484 218.459 661 218.943 661 219.541C661 220.138 661.484 220.622 662.081 220.622ZM653.432 220.622C654.029 220.622 654.513 220.138 654.513 219.541C654.513 218.943 654.029 218.459 653.432 218.459C652.835 218.459 652.351 218.943 652.351 219.541C652.351 220.138 652.835 220.622 653.432 220.622ZM644.784 220.622C645.381 220.622 645.865 220.138 645.865 219.541C645.865 218.943 645.381 218.459 644.784 218.459C644.187 218.459 643.703 218.943 643.703 219.541C643.703 220.138 644.187 220.622 644.784 220.622ZM636.135 220.622C636.732 220.622 637.216 220.138 637.216 219.541C637.216 218.943 636.732 218.459 636.135 218.459C635.538 218.459 635.054 218.943 635.054 219.541C635.054 220.138 635.538 220.622 636.135 220.622ZM627.486 220.622C628.084 220.622 628.568 220.138 628.568 219.541C628.568 218.943 628.084 218.459 627.486 218.459C626.889 218.459 626.405 218.943 626.405 219.541C626.405 220.138 626.889 220.622 627.486 220.622ZM618.838 220.622C619.435 220.622 619.919 220.138 619.919 219.541C619.919 218.943 619.435 218.459 618.838 218.459C618.241 218.459 617.757 218.943 617.757 219.541C617.757 220.138 618.241 220.622 618.838 220.622ZM701 216.297C701.597 216.297 702.081 215.813 702.081 215.216C702.081 214.619 701.597 214.135 701 214.135C700.403 214.135 699.919 214.619 699.919 215.216C699.919 215.813 700.403 216.297 701 216.297ZM692.351 216.297C692.948 216.297 693.432 215.813 693.432 215.216C693.432 214.619 692.948 214.135 692.351 214.135C691.754 214.135 691.27 214.619 691.27 215.216C691.27 215.813 691.754 216.297 692.351 216.297ZM683.703 216.297C684.3 216.297 684.784 215.813 684.784 215.216C684.784 214.619 684.3 214.135 683.703 214.135C683.106 214.135 682.622 214.619 682.622 215.216C682.622 215.813 683.106 216.297 683.703 216.297ZM675.054 216.297C675.651 216.297 676.135 215.813 676.135 215.216C676.135 214.619 675.651 214.135 675.054 214.135C674.457 214.135 673.973 214.619 673.973 215.216C673.973 215.813 674.457 216.297 675.054 216.297ZM666.405 216.297C667.002 216.297 667.486 215.813 667.486 215.216C667.486 214.619 667.002 214.135 666.405 214.135C665.808 214.135 665.324 214.619 665.324 215.216C665.324 215.813 665.808 216.297 666.405 216.297ZM657.757 216.297C658.354 216.297 658.838 215.813 658.838 215.216C658.838 214.619 658.354 214.135 657.757 214.135C657.16 214.135 656.676 214.619 656.676 215.216C656.676 215.813 657.16 216.297 657.757 216.297ZM649.108 216.297C649.705 216.297 650.189 215.813 650.189 215.216C650.189 214.619 649.705 214.135 649.108 214.135C648.511 214.135 648.027 214.619 648.027 215.216C648.027 215.813 648.511 216.297 649.108 216.297ZM640.459 216.297C641.056 216.297 641.54 215.813 641.54 215.216C641.54 214.619 641.056 214.135 640.459 214.135C639.862 214.135 639.378 214.619 639.378 215.216C639.378 215.813 639.862 216.297 640.459 216.297ZM631.811 216.297C632.408 216.297 632.892 215.813 632.892 215.216C632.892 214.619 632.408 214.135 631.811 214.135C631.214 214.135 630.73 214.619 630.73 215.216C630.73 215.813 631.214 216.297 631.811 216.297ZM623.162 216.297C623.759 216.297 624.243 215.813 624.243 215.216C624.243 214.619 623.759 214.135 623.162 214.135C622.565 214.135 622.081 214.619 622.081 215.216C622.081 215.813 622.565 216.297 623.162 216.297ZM696.676 211.973C697.273 211.973 697.757 211.489 697.757 210.892C697.757 210.295 697.273 209.811 696.676 209.811C696.079 209.811 695.595 210.295 695.595 210.892C695.595 211.489 696.079 211.973 696.676 211.973ZM688.027 211.973C688.624 211.973 689.108 211.489 689.108 210.892C689.108 210.295 688.624 209.811 688.027 209.811C687.43 209.811 686.946 210.295 686.946 210.892C686.946 211.489 687.43 211.973 688.027 211.973ZM679.378 211.973C679.975 211.973 680.459 211.489 680.459 210.892C680.459 210.295 679.975 209.811 679.378 209.811C678.781 209.811 678.297 210.295 678.297 210.892C678.297 211.489 678.781 211.973 679.378 211.973ZM670.73 211.973C671.327 211.973 671.811 211.489 671.811 210.892C671.811 210.295 671.327 209.811 670.73 209.811C670.133 209.811 669.649 210.295 669.649 210.892C669.649 211.489 670.133 211.973 670.73 211.973ZM662.081 211.973C662.678 211.973 663.162 211.489 663.162 210.892C663.162 210.295 662.678 209.811 662.081 209.811C661.484 209.811 661 210.295 661 210.892C661 211.489 661.484 211.973 662.081 211.973ZM653.432 211.973C654.029 211.973 654.513 211.489 654.513 210.892C654.513 210.295 654.029 209.811 653.432 209.811C652.835 209.811 652.351 210.295 652.351 210.892C652.351 211.489 652.835 211.973 653.432 211.973ZM644.784 211.973C645.381 211.973 645.865 211.489 645.865 210.892C645.865 210.295 645.381 209.811 644.784 209.811C644.187 209.811 643.703 210.295 643.703 210.892C643.703 211.489 644.187 211.973 644.784 211.973ZM636.135 211.973C636.732 211.973 637.216 211.489 637.216 210.892C637.216 210.295 636.732 209.811 636.135 209.811C635.538 209.811 635.054 210.295 635.054 210.892C635.054 211.489 635.538 211.973 636.135 211.973ZM627.486 211.973C628.084 211.973 628.568 211.489 628.568 210.892C628.568 210.295 628.084 209.811 627.486 209.811C626.889 209.811 626.405 210.295 626.405 210.892C626.405 211.489 626.889 211.973 627.486 211.973ZM618.838 211.973C619.435 211.973 619.919 211.489 619.919 210.892C619.919 210.295 619.435 209.811 618.838 209.811C618.241 209.811 617.757 210.295 617.757 210.892C617.757 211.489 618.241 211.973 618.838 211.973ZM701 207.649C701.597 207.649 702.081 207.165 702.081 206.568C702.081 205.97 701.597 205.486 701 205.486C700.403 205.486 699.919 205.97 699.919 206.568C699.919 207.165 700.403 207.649 701 207.649ZM692.351 207.649C692.948 207.649 693.432 207.165 693.432 206.568C693.432 205.97 692.948 205.486 692.351 205.486C691.754 205.486 691.27 205.97 691.27 206.568C691.27 207.165 691.754 207.649 692.351 207.649ZM683.703 207.649C684.3 207.649 684.784 207.165 684.784 206.568C684.784 205.97 684.3 205.486 683.703 205.486C683.106 205.486 682.622 205.97 682.622 206.568C682.622 207.165 683.106 207.649 683.703 207.649ZM675.054 207.649C675.651 207.649 676.135 207.165 676.135 206.568C676.135 205.97 675.651 205.486 675.054 205.486C674.457 205.486 673.973 205.97 673.973 206.568C673.973 207.165 674.457 207.649 675.054 207.649ZM666.405 207.649C667.002 207.649 667.486 207.165 667.486 206.568C667.486 205.97 667.002 205.486 666.405 205.486C665.808 205.486 665.324 205.97 665.324 206.568C665.324 207.165 665.808 207.649 666.405 207.649ZM657.757 207.649C658.354 207.649 658.838 207.165 658.838 206.568C658.838 205.97 658.354 205.486 657.757 205.486C657.16 205.486 656.676 205.97 656.676 206.568C656.676 207.165 657.16 207.649 657.757 207.649ZM649.108 207.649C649.705 207.649 650.189 207.165 650.189 206.568C650.189 205.97 649.705 205.486 649.108 205.486C648.511 205.486 648.027 205.97 648.027 206.568C648.027 207.165 648.511 207.649 649.108 207.649ZM640.459 207.649C641.056 207.649 641.54 207.165 641.54 206.568C641.54 205.97 641.056 205.486 640.459 205.486C639.862 205.486 639.378 205.97 639.378 206.568C639.378 207.165 639.862 207.649 640.459 207.649ZM631.811 207.649C632.408 207.649 632.892 207.165 632.892 206.568C632.892 205.97 632.408 205.486 631.811 205.486C631.214 205.486 630.73 205.97 630.73 206.568C630.73 207.165 631.214 207.649 631.811 207.649ZM623.162 207.649C623.759 207.649 624.243 207.165 624.243 206.568C624.243 205.97 623.759 205.486 623.162 205.486C622.565 205.486 622.081 205.97 622.081 206.568C622.081 207.165 622.565 207.649 623.162 207.649ZM696.676 203.324C697.273 203.324 697.757 202.84 697.757 202.243C697.757 201.646 697.273 201.162 696.676 201.162C696.079 201.162 695.595 201.646 695.595 202.243C695.595 202.84 696.079 203.324 696.676 203.324ZM688.027 203.324C688.624 203.324 689.108 202.84 689.108 202.243C689.108 201.646 688.624 201.162 688.027 201.162C687.43 201.162 686.946 201.646 686.946 202.243C686.946 202.84 687.43 203.324 688.027 203.324ZM679.378 203.324C679.975 203.324 680.459 202.84 680.459 202.243C680.459 201.646 679.975 201.162 679.378 201.162C678.781 201.162 678.297 201.646 678.297 202.243C678.297 202.84 678.781 203.324 679.378 203.324ZM670.73 203.324C671.327 203.324 671.811 202.84 671.811 202.243C671.811 201.646 671.327 201.162 670.73 201.162C670.133 201.162 669.649 201.646 669.649 202.243C669.649 202.84 670.133 203.324 670.73 203.324ZM662.081 203.324C662.678 203.324 663.162 202.84 663.162 202.243C663.162 201.646 662.678 201.162 662.081 201.162C661.484 201.162 661 201.646 661 202.243C661 202.84 661.484 203.324 662.081 203.324ZM653.432 203.324C654.029 203.324 654.513 202.84 654.513 202.243C654.513 201.646 654.029 201.162 653.432 201.162C652.835 201.162 652.351 201.646 652.351 202.243C652.351 202.84 652.835 203.324 653.432 203.324ZM644.784 203.324C645.381 203.324 645.865 202.84 645.865 202.243C645.865 201.646 645.381 201.162 644.784 201.162C644.187 201.162 643.703 201.646 643.703 202.243C643.703 202.84 644.187 203.324 644.784 203.324ZM636.135 203.324C636.732 203.324 637.216 202.84 637.216 202.243C637.216 201.646 636.732 201.162 636.135 201.162C635.538 201.162 635.054 201.646 635.054 202.243C635.054 202.84 635.538 203.324 636.135 203.324ZM627.486 203.324C628.084 203.324 628.568 202.84 628.568 202.243C628.568 201.646 628.084 201.162 627.486 201.162C626.889 201.162 626.405 201.646 626.405 202.243C626.405 202.84 626.889 203.324 627.486 203.324ZM618.838 203.324C619.435 203.324 619.919 202.84 619.919 202.243C619.919 201.646 619.435 201.162 618.838 201.162C618.241 201.162 617.757 201.646 617.757 202.243C617.757 202.84 618.241 203.324 618.838 203.324ZM701 199C701.597 199 702.081 198.516 702.081 197.919C702.081 197.322 701.597 196.838 701 196.838C700.403 196.838 699.919 197.322 699.919 197.919C699.919 198.516 700.403 199 701 199ZM692.351 199C692.948 199 693.432 198.516 693.432 197.919C693.432 197.322 692.948 196.838 692.351 196.838C691.754 196.838 691.27 197.322 691.27 197.919C691.27 198.516 691.754 199 692.351 199ZM683.703 199C684.3 199 684.784 198.516 684.784 197.919C684.784 197.322 684.3 196.838 683.703 196.838C683.106 196.838 682.622 197.322 682.622 197.919C682.622 198.516 683.106 199 683.703 199ZM675.054 199C675.651 199 676.135 198.516 676.135 197.919C676.135 197.322 675.651 196.838 675.054 196.838C674.457 196.838 673.973 197.322 673.973 197.919C673.973 198.516 674.457 199 675.054 199ZM666.405 199C667.002 199 667.486 198.516 667.486 197.919C667.486 197.322 667.002 196.838 666.405 196.838C665.808 196.838 665.324 197.322 665.324 197.919C665.324 198.516 665.808 199 666.405 199ZM657.757 199C658.354 199 658.838 198.516 658.838 197.919C658.838 197.322 658.354 196.838 657.757 196.838C657.16 196.838 656.676 197.322 656.676 197.919C656.676 198.516 657.16 199 657.757 199ZM649.108 199C649.705 199 650.189 198.516 650.189 197.919C650.189 197.322 649.705 196.838 649.108 196.838C648.511 196.838 648.027 197.322 648.027 197.919C648.027 198.516 648.511 199 649.108 199ZM640.459 199C641.056 199 641.54 198.516 641.54 197.919C641.54 197.322 641.056 196.838 640.459 196.838C639.862 196.838 639.378 197.322 639.378 197.919C639.378 198.516 639.862 199 640.459 199ZM631.811 199C632.408 199 632.892 198.516 632.892 197.919C632.892 197.322 632.408 196.838 631.811 196.838C631.214 196.838 630.73 197.322 630.73 197.919C630.73 198.516 631.214 199 631.811 199ZM623.162 199C623.759 199 624.243 198.516 624.243 197.919C624.243 197.322 623.759 196.838 623.162 196.838C622.565 196.838 622.081 197.322 622.081 197.919C622.081 198.516 622.565 199 623.162 199ZM696.676 194.676C697.273 194.676 697.757 194.192 697.757 193.595C697.757 192.998 697.273 192.513 696.676 192.513C696.079 192.513 695.595 192.998 695.595 193.595C695.595 194.192 696.079 194.676 696.676 194.676ZM688.027 194.676C688.624 194.676 689.108 194.192 689.108 193.595C689.108 192.998 688.624 192.513 688.027 192.513C687.43 192.513 686.946 192.998 686.946 193.595C686.946 194.192 687.43 194.676 688.027 194.676ZM679.378 194.676C679.975 194.676 680.459 194.192 680.459 193.595C680.459 192.998 679.975 192.513 679.378 192.513C678.781 192.513 678.297 192.998 678.297 193.595C678.297 194.192 678.781 194.676 679.378 194.676ZM670.73 194.676C671.327 194.676 671.811 194.192 671.811 193.595C671.811 192.998 671.327 192.513 670.73 192.513C670.133 192.513 669.649 192.998 669.649 193.595C669.649 194.192 670.133 194.676 670.73 194.676ZM662.081 194.676C662.678 194.676 663.162 194.192 663.162 193.595C663.162 192.998 662.678 192.513 662.081 192.513C661.484 192.513 661 192.998 661 193.595C661 194.192 661.484 194.676 662.081 194.676ZM653.432 194.676C654.029 194.676 654.513 194.192 654.513 193.595C654.513 192.998 654.029 192.513 653.432 192.513C652.835 192.513 652.351 192.998 652.351 193.595C652.351 194.192 652.835 194.676 653.432 194.676ZM644.784 194.676C645.381 194.676 645.865 194.192 645.865 193.595C645.865 192.998 645.381 192.513 644.784 192.513C644.187 192.513 643.703 192.998 643.703 193.595C643.703 194.192 644.187 194.676 644.784 194.676ZM636.135 194.676C636.732 194.676 637.216 194.192 637.216 193.595C637.216 192.998 636.732 192.513 636.135 192.513C635.538 192.513 635.054 192.998 635.054 193.595C635.054 194.192 635.538 194.676 636.135 194.676ZM627.486 194.676C628.084 194.676 628.568 194.192 628.568 193.595C628.568 192.998 628.084 192.513 627.486 192.513C626.889 192.513 626.405 192.998 626.405 193.595C626.405 194.192 626.889 194.676 627.486 194.676ZM618.838 194.676C619.435 194.676 619.919 194.192 619.919 193.595C619.919 192.998 619.435 192.513 618.838 192.513C618.241 192.513 617.757 192.998 617.757 193.595C617.757 194.192 618.241 194.676 618.838 194.676ZM701 190.351C701.597 190.351 702.081 189.867 702.081 189.27C702.081 188.673 701.597 188.189 701 188.189C700.403 188.189 699.919 188.673 699.919 189.27C699.919 189.867 700.403 190.351 701 190.351ZM692.351 190.351C692.948 190.351 693.432 189.867 693.432 189.27C693.432 188.673 692.948 188.189 692.351 188.189C691.754 188.189 691.27 188.673 691.27 189.27C691.27 189.867 691.754 190.351 692.351 190.351ZM683.703 190.351C684.3 190.351 684.784 189.867 684.784 189.27C684.784 188.673 684.3 188.189 683.703 188.189C683.106 188.189 682.622 188.673 682.622 189.27C682.622 189.867 683.106 190.351 683.703 190.351ZM675.054 190.351C675.651 190.351 676.135 189.867 676.135 189.27C676.135 188.673 675.651 188.189 675.054 188.189C674.457 188.189 673.973 188.673 673.973 189.27C673.973 189.867 674.457 190.351 675.054 190.351ZM666.405 190.351C667.002 190.351 667.486 189.867 667.486 189.27C667.486 188.673 667.002 188.189 666.405 188.189C665.808 188.189 665.324 188.673 665.324 189.27C665.324 189.867 665.808 190.351 666.405 190.351ZM657.757 190.351C658.354 190.351 658.838 189.867 658.838 189.27C658.838 188.673 658.354 188.189 657.757 188.189C657.16 188.189 656.676 188.673 656.676 189.27C656.676 189.867 657.16 190.351 657.757 190.351ZM649.108 190.351C649.705 190.351 650.189 189.867 650.189 189.27C650.189 188.673 649.705 188.189 649.108 188.189C648.511 188.189 648.027 188.673 648.027 189.27C648.027 189.867 648.511 190.351 649.108 190.351ZM640.459 190.351C641.056 190.351 641.54 189.867 641.54 189.27C641.54 188.673 641.056 188.189 640.459 188.189C639.862 188.189 639.378 188.673 639.378 189.27C639.378 189.867 639.862 190.351 640.459 190.351ZM631.811 190.351C632.408 190.351 632.892 189.867 632.892 189.27C632.892 188.673 632.408 188.189 631.811 188.189C631.214 188.189 630.73 188.673 630.73 189.27C630.73 189.867 631.214 190.351 631.811 190.351ZM623.162 190.351C623.759 190.351 624.243 189.867 624.243 189.27C624.243 188.673 623.759 188.189 623.162 188.189C622.565 188.189 622.081 188.673 622.081 189.27C622.081 189.867 622.565 190.351 623.162 190.351ZM696.676 186.027C697.273 186.027 697.757 185.543 697.757 184.946C697.757 184.349 697.273 183.865 696.676 183.865C696.079 183.865 695.595 184.349 695.595 184.946C695.595 185.543 696.079 186.027 696.676 186.027ZM688.027 186.027C688.624 186.027 689.108 185.543 689.108 184.946C689.108 184.349 688.624 183.865 688.027 183.865C687.43 183.865 686.946 184.349 686.946 184.946C686.946 185.543 687.43 186.027 688.027 186.027ZM679.378 186.027C679.975 186.027 680.459 185.543 680.459 184.946C680.459 184.349 679.975 183.865 679.378 183.865C678.781 183.865 678.297 184.349 678.297 184.946C678.297 185.543 678.781 186.027 679.378 186.027ZM670.73 186.027C671.327 186.027 671.811 185.543 671.811 184.946C671.811 184.349 671.327 183.865 670.73 183.865C670.133 183.865 669.649 184.349 669.649 184.946C669.649 185.543 670.133 186.027 670.73 186.027ZM662.081 186.027C662.678 186.027 663.162 185.543 663.162 184.946C663.162 184.349 662.678 183.865 662.081 183.865C661.484 183.865 661 184.349 661 184.946C661 185.543 661.484 186.027 662.081 186.027ZM653.432 186.027C654.029 186.027 654.513 185.543 654.513 184.946C654.513 184.349 654.029 183.865 653.432 183.865C652.835 183.865 652.351 184.349 652.351 184.946C652.351 185.543 652.835 186.027 653.432 186.027ZM644.784 186.027C645.381 186.027 645.865 185.543 645.865 184.946C645.865 184.349 645.381 183.865 644.784 183.865C644.187 183.865 643.703 184.349 643.703 184.946C643.703 185.543 644.187 186.027 644.784 186.027ZM636.135 186.027C636.732 186.027 637.216 185.543 637.216 184.946C637.216 184.349 636.732 183.865 636.135 183.865C635.538 183.865 635.054 184.349 635.054 184.946C635.054 185.543 635.538 186.027 636.135 186.027ZM627.486 186.027C628.084 186.027 628.568 185.543 628.568 184.946C628.568 184.349 628.084 183.865 627.486 183.865C626.889 183.865 626.405 184.349 626.405 184.946C626.405 185.543 626.889 186.027 627.486 186.027ZM618.838 186.027C619.435 186.027 619.919 185.543 619.919 184.946C619.919 184.349 619.435 183.865 618.838 183.865C618.241 183.865 617.757 184.349 617.757 184.946C617.757 185.543 618.241 186.027 618.838 186.027ZM701 181.703C701.597 181.703 702.081 181.219 702.081 180.622C702.081 180.025 701.597 179.541 701 179.541C700.403 179.541 699.919 180.025 699.919 180.622C699.919 181.219 700.403 181.703 701 181.703ZM692.351 181.703C692.948 181.703 693.432 181.219 693.432 180.622C693.432 180.025 692.948 179.541 692.351 179.541C691.754 179.541 691.27 180.025 691.27 180.622C691.27 181.219 691.754 181.703 692.351 181.703ZM683.703 181.703C684.3 181.703 684.784 181.219 684.784 180.622C684.784 180.025 684.3 179.541 683.703 179.541C683.106 179.541 682.622 180.025 682.622 180.622C682.622 181.219 683.106 181.703 683.703 181.703ZM675.054 181.703C675.651 181.703 676.135 181.219 676.135 180.622C676.135 180.025 675.651 179.541 675.054 179.541C674.457 179.541 673.973 180.025 673.973 180.622C673.973 181.219 674.457 181.703 675.054 181.703ZM666.405 181.703C667.002 181.703 667.486 181.219 667.486 180.622C667.486 180.025 667.002 179.541 666.405 179.541C665.808 179.541 665.324 180.025 665.324 180.622C665.324 181.219 665.808 181.703 666.405 181.703ZM657.757 181.703C658.354 181.703 658.838 181.219 658.838 180.622C658.838 180.025 658.354 179.541 657.757 179.541C657.16 179.541 656.676 180.025 656.676 180.622C656.676 181.219 657.16 181.703 657.757 181.703ZM649.108 181.703C649.705 181.703 650.189 181.219 650.189 180.622C650.189 180.025 649.705 179.541 649.108 179.541C648.511 179.541 648.027 180.025 648.027 180.622C648.027 181.219 648.511 181.703 649.108 181.703ZM640.459 181.703C641.056 181.703 641.54 181.219 641.54 180.622C641.54 180.025 641.056 179.541 640.459 179.541C639.862 179.541 639.378 180.025 639.378 180.622C639.378 181.219 639.862 181.703 640.459 181.703ZM631.811 181.703C632.408 181.703 632.892 181.219 632.892 180.622C632.892 180.025 632.408 179.541 631.811 179.541C631.214 179.541 630.73 180.025 630.73 180.622C630.73 181.219 631.214 181.703 631.811 181.703ZM623.162 181.703C623.759 181.703 624.243 181.219 624.243 180.622C624.243 180.025 623.759 179.541 623.162 179.541C622.565 179.541 622.081 180.025 622.081 180.622C622.081 181.219 622.565 181.703 623.162 181.703ZM696.676 177.378C697.273 177.378 697.757 176.894 697.757 176.297C697.757 175.7 697.273 175.216 696.676 175.216C696.079 175.216 695.595 175.7 695.595 176.297C695.595 176.894 696.079 177.378 696.676 177.378ZM688.027 177.378C688.624 177.378 689.108 176.894 689.108 176.297C689.108 175.7 688.624 175.216 688.027 175.216C687.43 175.216 686.946 175.7 686.946 176.297C686.946 176.894 687.43 177.378 688.027 177.378ZM679.378 177.378C679.975 177.378 680.459 176.894 680.459 176.297C680.459 175.7 679.975 175.216 679.378 175.216C678.781 175.216 678.297 175.7 678.297 176.297C678.297 176.894 678.781 177.378 679.378 177.378ZM670.73 177.378C671.327 177.378 671.811 176.894 671.811 176.297C671.811 175.7 671.327 175.216 670.73 175.216C670.133 175.216 669.649 175.7 669.649 176.297C669.649 176.894 670.133 177.378 670.73 177.378ZM662.081 177.378C662.678 177.378 663.162 176.894 663.162 176.297C663.162 175.7 662.678 175.216 662.081 175.216C661.484 175.216 661 175.7 661 176.297C661 176.894 661.484 177.378 662.081 177.378ZM653.432 177.378C654.029 177.378 654.513 176.894 654.513 176.297C654.513 175.7 654.029 175.216 653.432 175.216C652.835 175.216 652.351 175.7 652.351 176.297C652.351 176.894 652.835 177.378 653.432 177.378ZM644.784 177.378C645.381 177.378 645.865 176.894 645.865 176.297C645.865 175.7 645.381 175.216 644.784 175.216C644.187 175.216 643.703 175.7 643.703 176.297C643.703 176.894 644.187 177.378 644.784 177.378ZM636.135 177.378C636.732 177.378 637.216 176.894 637.216 176.297C637.216 175.7 636.732 175.216 636.135 175.216C635.538 175.216 635.054 175.7 635.054 176.297C635.054 176.894 635.538 177.378 636.135 177.378ZM627.486 177.378C628.084 177.378 628.568 176.894 628.568 176.297C628.568 175.7 628.084 175.216 627.486 175.216C626.889 175.216 626.405 175.7 626.405 176.297C626.405 176.894 626.889 177.378 627.486 177.378ZM618.838 177.378C619.435 177.378 619.919 176.894 619.919 176.297C619.919 175.7 619.435 175.216 618.838 175.216C618.241 175.216 617.757 175.7 617.757 176.297C617.757 176.894 618.241 177.378 618.838 177.378Z" fill="#74C9E3"/>
</g>
<path d="M646.405 248.189H623.703C623.404 248.189 623.162 248.431 623.162 248.73V258.459C623.162 258.758 623.404 259 623.703 259H646.405C646.704 259 646.946 258.758 646.946 258.459V248.73C646.946 248.431 646.704 248.189 646.405 248.189Z" fill="#0076D6"/>
<path d="M694.514 217.919H623.162V223.324H694.514V217.919Z" fill="#D3E5F7"/>
<path d="M701 227.649H623.162V233.054H701V227.649Z" fill="#D3E5F7"/>
<path d="M681.541 237.378H623.162V242.784H681.541V237.378Z" fill="#D3E5F7"/>
<path d="M643.432 252.513H626.676V254.676H643.432V252.513Z" fill="white"/>
<path d="M762 41H880V159H762V41Z" fill="white"/>
<path fill-rule="evenodd" clip-rule="evenodd" d="M837 103C844.18 103 850 108.82 850 116C850 123.18 844.18 129 837 129C829.82 129 824 123.18 824 116C824 108.82 829.82 103 837 103ZM834 111.5V120.5L842 116L834 111.5ZM818 105V113H792V105H818ZM815 71C816.657 71 818 72.3431 818 74V94C818 95.6569 816.657 97 815 97H795C793.343 97 792 95.6569 792 94V74C792 72.3431 793.343 71 795 71H815Z" fill="white"/>
<path fill-rule="evenodd" clip-rule="evenodd" d="M809 91C809.552 91 810 91.4477 810 92C810 92.5523 809.552 93 809 93C808.448 93 808 92.5523 808 92C808 91.4477 808.448 91 809 91ZM801 91C801.552 91 802 91.4477 802 92C802 92.5523 801.552 93 801 93C800.448 93 800 92.5523 800 92C800 91.4477 800.448 91 801 91ZM813 87C813.552 87 814 87.4477 814 88C814 88.5523 813.552 89 813 89C812.448 89 812 88.5523 812 88C812 87.4477 812.448 87 813 87ZM805 87C805.552 87 806 87.4477 806 88C806 88.5523 805.552 89 805 89C804.448 89 804 88.5523 804 88C804 87.4477 804.448 87 805 87ZM797 87C797.552 87 798 87.4477 798 88C798 88.5523 797.552 89 797 89C796.448 89 796 88.5523 796 88C796 87.4477 796.448 87 797 87ZM809 83C809.552 83 810 83.4477 810 84C810 84.5523 809.552 85 809 85C808.448 85 808 84.5523 808 84C808 83.4477 808.448 83 809 83ZM801 83C801.552 83 802 83.4477 802 84C802 84.5523 801.552 85 801 85C800.448 85 800 84.5523 800 84C800 83.4477 800.448 83 801 83ZM813 79C813.552 79 814 79.4477 814 80C814 80.5523 813.552 81 813 81C812.448 81 812 80.5523 812 80C812 79.4477 812.448 79 813 79ZM805 79C805.552 79 806 79.4477 806 80C806 80.5523 805.552 81 805 81C804.448 81 804 80.5523 804 80C804 79.4477 804.448 79 805 79ZM797 79C797.552 79 798 79.4477 798 80C798 80.5523 797.552 81 797 81C796.448 81 796 80.5523 796 80C796 79.4477 796.448 79 797 79ZM809 75C809.552 75 810 75.4477 810 76C810 76.5523 809.552 77 809 77C808.448 77 808 76.5523 808 76C808 75.4477 808.448 75 809 75ZM801 75C801.552 75 802 75.4477 802 76C802 76.5523 801.552 77 801 77C800.448 77 800 76.5523 800 76C800 75.4477 800.448 75 801 75Z" fill="#74C9E3"/>
<path fill-rule="evenodd" clip-rule="evenodd" d="M837 102C844.732 102 851 108.268 851 116C851 123.732 844.732 130 837 130C829.268 130 823 123.732 823 116C823 108.268 829.268 102 837 102ZM837 104C830.373 104 825 109.373 825 116C825 122.627 830.373 128 837 128C843.627 128 849 122.627 849 116C849 109.373 843.627 104 837 104ZM818 118C818.552 118 819 118.448 819 119V127C819 127.552 818.552 128 818 128H792C791.448 128 791 127.552 791 127V119C791 118.448 791.448 118 792 118H818ZM817.353 120H792.647V126H817.353V120ZM834.47 110.369L834.511 110.392L842.511 115.14C843.148 115.519 843.163 116.429 842.555 116.832L842.511 116.86L834.511 121.608C833.858 121.996 833.034 121.543 833.001 120.796L833 120.749V111.251C833 110.508 833.776 110.036 834.428 110.348L834.47 110.369ZM835 113.008V118.992L840.041 116L835 113.008ZM818 104C818.552 104 819 104.448 819 105V113C819 113.552 818.552 114 818 114H792C791.448 114 791 113.552 791 113V105C791 104.448 791.448 104 792 104H818ZM817.353 106H792.647V112H817.353V106ZM851 64C854.314 64 857 66.6863 857 70V130C857 133.314 854.314 136 851 136H791C787.686 136 785 133.314 785 130V70C785 66.6863 787.686 64 791 64H851ZM851 66H791C788.817 66 787.043 67.7485 787.001 69.9213L787 70V130C787 132.183 788.748 133.957 790.921 133.999L791 134H851C853.183 134 854.957 132.252 854.999 130.079L855 130V70C855 67.8172 853.251 66.0427 851.079 66.0008L851 66ZM815 70C817.209 70 819 71.7909 819 74V94C819 96.2091 817.209 98 815 98H795C792.791 98 791 96.2091 791 94V74C791 71.7909 792.791 70 795 70H815ZM815 72H795C793.916 72 793.034 72.862 793.001 73.9377L793 74V94C793 95.0837 793.862 95.9661 794.938 95.9991L795 96H815C816.084 96 816.966 95.138 816.999 94.0623L817 94V74C817 72.9163 816.138 72.0339 815.062 72.001L815 72ZM850 92C850.552 92 851 92.4477 851 93C851 93.5523 850.552 94 850 94H824C823.448 94 823 93.5523 823 93C823 92.4477 823.448 92 824 92H850ZM850 82C850.552 82 851 82.4477 851 83C851 83.5523 850.552 84 850 84H824C823.448 84 823 83.5523 823 83C823 82.4477 823.448 82 824 82H850ZM850 72C850.552 72 851 72.4477 851 73C851 73.5523 850.552 74 850 74H824C823.448 74 823 73.5523 823 73C823 72.4477 823.448 72 824 72H850Z" fill="#74C9E3"/>
</g>
<defs>
<clipPath id="clip0_279_6866">
<rect width="1000" height="400" rx="60" fill="white"/>
</clipPath>
</defs>
</svg>
