<?xml version="1.0" encoding="UTF-8"?>
<svg width="320px" height="320px" viewBox="0 0 320 320" version="1.1" xmlns="http://www.w3.org/2000/svg" xmlns:xlink="http://www.w3.org/1999/xlink">
    <title>Brand Icons/UI/Pensions and Retirement/15-fixed-term-retirement-plan</title>
    <g id="Brand-Icons/UI/Pensions-and-Retirement/15-fixed-term-retirement-plan" stroke="none" stroke-width="1" fill="none" fill-rule="evenodd">
        <path d="M244.00125,116 L244.00125,145.396715 C238.96226,139.711203 233.915112,134.572371 229.197229,130.315998 L228.470173,129.665216 C228.349768,129.558299 228.229758,129.452158 228.110157,129.346799 L227.045147,128.419846 L227.045147,128.419846 L226.348494,127.825799 L226.348494,127.825799 L225.663293,127.251207 L225.663293,127.251207 L224.990202,126.696342 L224.990202,126.696342 L224.32988,126.161474 L224.32988,126.161474 L223.682985,125.646875 L223.682985,125.646875 L223.050176,125.152816 L223.050176,125.152816 L222.432111,124.67957 L222.432111,124.67957 L221.829449,124.227408 L221.829449,124.227408 L221.242848,123.7966 L221.242848,123.7966 L220.672967,123.387419 L220.672967,123.387419 L220.120465,123.000137 C220.029866,122.937429 219.940019,122.875646 219.850937,122.814792 L219.325737,122.460866 L219.325737,122.460866 L218.819562,122.129516 L218.819562,122.129516 L218.33307,121.821015 L218.33307,121.821015 L217.866921,121.535634 L217.866921,121.535634 L217.421772,121.273644 L217.421772,121.273644 L216.998281,121.035317 L216.998281,121.035317 L216.597109,120.820924 C216.532143,120.787201 216.468135,120.754487 216.405098,120.722788 L216.038636,120.544806 L216.038636,120.544806 L215.696139,120.391437 L215.696139,120.391437 L215.378264,120.262953 L215.378264,120.262953 L215.08567,120.159624 C214.805936,120.068965 214.565111,120.016447 214.366159,120.003292 L214.270186,120 L153.803784,120 C152.613532,120 150.746307,120.777233 148.3895,122.199244 L147.734736,122.602952 C147.623633,122.672868 147.511553,122.744091 147.398515,122.816609 L146.70892,123.267156 C146.592117,123.344804 146.47439,123.423722 146.355758,123.503897 L145.633232,123.99994 L145.633232,123.99994 L144.889809,124.525567 L144.889809,124.525567 L144.126332,125.080182 L144.126332,125.080182 L143.343648,125.663186 L143.343648,125.663186 L142.542599,126.273983 L142.542599,126.273983 L141.724031,126.911976 C141.58619,127.020541 141.447655,127.130215 141.308442,127.240984 L140.46518,127.918651 L140.46518,127.918651 L139.60651,128.622021 L139.60651,128.622021 L138.733279,129.350497 C138.586574,129.473969 138.439297,129.598462 138.291466,129.723963 L137.397975,130.488979 L137.397975,130.488979 L136.492033,131.277608 C136.340052,131.41098 136.187587,131.545312 136.034657,131.68059 L135.111623,132.50352 L135.111623,132.50352 L134.17825,133.348569 C134.021874,133.491221 133.865101,133.63477 133.707951,133.779203 L132.760654,134.656314 C132.602063,134.804235 132.443128,134.953015 132.283868,135.102642 L131.324548,136.010471 C131.164058,136.163437 131.003278,136.317225 130.842225,136.471822 L129.872782,137.409025 C129.71071,137.566812 129.548401,137.725384 129.385873,137.884728 L128.408207,138.849962 L128.408207,138.849962 L127.426116,139.833137 L127.426116,139.833137 L126.440445,140.833656 L126.440445,140.833656 L125.452037,141.850922 L125.452037,141.850922 L124.461738,142.884337 L124.461738,142.884337 L123.470392,143.933305 L123.470392,143.933305 L122.478844,144.997229 L122.478844,144.997229 L121.487939,146.075511 C121.322889,146.256388 121.157901,146.437838 120.992992,146.61985 L120.004635,147.71855 C119.840115,147.902755 119.67571,148.087496 119.511437,148.272762 L118.527529,149.390536 L118.527529,149.390536 L117.547643,150.520281 L117.547643,150.520281 L116.572623,151.661398 L116.572623,151.661398 L115.603315,152.813292 L115.603315,152.813292 L114.640563,153.975364 C114.480697,154.169858 114.32114,154.364751 114.161909,154.560031 L113.210575,155.736252 L113.210575,155.736252 C98.5087493,174.062881 87.854975,193.439785 83.0152601,212.000349 L52,212.000349 L52,116 L244.00125,116 Z M182.908002,72.5261061 L184.036984,72 L184.036984,72 L186.797929,73.2831024 L186.797929,73.2831024 L189.34293,74.4522711 L189.34293,74.4522711 L191.232598,75.3077732 L191.232598,75.3077732 L192.999741,76.0941282 L192.999741,76.0941282 L194.651329,76.8130115 L194.651329,76.8130115 L196.194329,77.4660991 L196.194329,77.4660991 L197.635711,78.0550666 L197.635711,78.0550666 L198.320473,78.3260289 L198.320473,78.3260289 L198.982443,78.5815896 L198.982443,78.5815896 L199.93457,78.9365107 L199.93457,78.9365107 L200.543373,79.1544836 L200.543373,79.1544836 L201.419832,79.454005 L201.419832,79.454005 L201.980912,79.6356994 L201.980912,79.6356994 L202.524427,79.8032489 L202.524427,79.8032489 L203.051248,79.956863 C203.137709,79.9813157 203.22351,80.0051965 203.30867,80.0285097 L203.812084,80.1616134 C203.894753,80.1826739 203.976816,80.2031755 204.058293,80.2231227 L204.540259,80.3361873 L204.540259,80.3361873 L205.009016,80.4361544 L205.009016,80.4361544 L205.465434,80.5232333 C205.540524,80.5366841 205.615136,80.5496066 205.689289,80.5620052 L206.128833,80.6301447 L206.128833,80.6301447 L206.558217,80.6859198 C206.628982,80.6941969 206.699361,80.7019675 206.76937,80.7092361 L207.185146,80.7468572 C207.253753,80.7521349 207.322027,80.7569191 207.389986,80.7612144 L207.794114,80.7811529 L207.794114,80.7811529 L208.191566,80.7895648 C208.2573,80.7900178 208.322792,80.7899994 208.38806,80.7895137 L208.777131,80.7810284 L208.777131,80.7810284 L209.161703,80.7615402 L209.161703,80.7615402 L209.542647,80.7312585 C209.605884,80.7253237 209.669006,80.7189479 209.732031,80.7121355 L210.109167,80.6660563 C210.171878,80.6575148 210.234529,80.6485454 210.297137,80.6391524 L210.672426,80.577747 L210.672426,80.577747 L211.047571,80.506386 C211.110131,80.4936745 211.172722,80.4805569 211.235362,80.4670375 L211.611926,80.3811358 L211.611926,80.3811358 L211.990524,80.285802 L211.990524,80.285802 L212.372027,80.1812457 L212.372027,80.1812457 L212.757308,80.0676764 L212.757308,80.0676764 L213.147236,79.9453035 L213.147236,79.9453035 L213.542683,79.8143364 L213.542683,79.8143364 L213.996686,79.6561616 L213.996686,79.6561616 L214.493808,79.4716348 C214.739302,79.3772265 214.980712,79.2792754 215.220366,79.1763173 L215.698019,78.9632915 L215.698019,78.9632915 L216.175122,78.7343111 C216.254823,78.6946735 216.334674,78.6542627 216.41476,78.6130245 L216.898795,78.3552318 C216.980169,78.3104668 217.06195,78.2647659 217.144226,78.2180749 L217.644498,77.9256135 C217.729094,77.874745 217.814357,77.822778 217.900373,77.7696582 L218.426189,77.4366716 L218.426189,77.4366716 L218.974204,77.0734147 L218.974204,77.0734147 L219.548555,76.6772846 C219.646704,76.6083789 219.746123,76.537995 219.846898,76.4660787 L220.468507,76.0157585 L220.468507,76.0157585 L221.126792,75.5260579 L221.126792,75.5260579 L221.825888,74.9943742 L221.825888,74.9943742 L222.569933,74.4181044 L222.569933,74.4181044 L222.609155,74.8317101 L222.609155,74.8317101 L222.682553,75.6964716 L222.682553,75.6964716 L222.749063,76.6107175 L222.749063,76.6107175 L222.808486,77.5737492 L222.808486,77.5737492 L222.860626,78.5848679 L222.860626,78.5848679 L222.905285,79.6433748 L222.905285,79.6433748 L222.942266,80.7485712 L222.942266,80.7485712 L222.971373,81.8997583 L222.971373,81.8997583 L222.992407,83.0962375 L222.992407,83.0962375 L223.005172,84.3373099 L223.005172,84.3373099 L223.009471,85.6222768 L223.009471,85.6222768 C223.009471,89.7899268 219.577627,92.607369 212.769642,94.2372506 L212.040545,94.404438 C211.422577,94.5401173 210.778645,94.6667027 210.108788,94.7843038 L209.292518,94.9211198 C209.016281,94.9652923 208.735899,95.0080344 208.451373,95.0493531 L207.585368,95.1690459 L207.585368,95.1690459 L206.694519,95.2802404 L206.694519,95.2802404 L205.778838,95.3829786 C205.624156,95.3993993 205.46844,95.4154694 205.311691,95.4311898 L204.358791,95.5213228 L204.358791,95.5213228 L203.381096,95.603105 L203.381096,95.603105 L202.378621,95.6765785 L202.378621,95.6765785 L201.793349,95.7152997 L201.793349,95.7152997 L200.641282,95.783636 L200.641282,95.783636 L199.633765,95.834266 L199.633765,95.834266 L198.989328,95.8621162 L198.989328,95.8621162 L198.004077,95.898109 L198.004077,95.898109 L196.633945,95.9361532 L196.633945,95.9361532 L195.168898,95.9640149 L195.168898,95.9640149 L193.987885,95.9790063 L193.987885,95.9790063 L191.353819,95.9961672 L191.353819,95.9961672 L188.815221,96 L176.720151,95.9961672 L176.720151,95.9961672 L174.086086,95.9790063 L174.086086,95.9790063 L172.905072,95.9640149 L172.905072,95.9640149 L171.440026,95.9361532 L171.440026,95.9361532 L170.069894,95.898109 L170.069894,95.898109 L169.084643,95.8621162 L169.084643,95.8621162 L168.120153,95.8191237 L168.120153,95.8191237 L167.432688,95.783636 L166.280622,95.7152997 L166.280622,95.7152997 L165.69535,95.6765785 C165.357063,95.6534674 165.022904,95.6289786 164.692875,95.603105 L163.71518,95.5213228 L163.71518,95.5213228 L162.76228,95.4311898 L162.76228,95.4311898 L161.834189,95.3326639 C161.681576,95.3155411 161.529996,95.2980669 161.379452,95.2802404 L160.488602,95.1690459 L160.488602,95.1690459 L159.622598,95.0493531 C159.338072,95.0080344 159.05769,94.9652923 158.781453,94.9211198 L157.965182,94.7843038 C157.295325,94.6667027 156.651394,94.5401173 156.033425,94.404438 L155.304328,94.2372506 C148.496344,92.607369 145.064499,89.7899268 145.064499,85.6222768 L145.068618,84.3456618 L145.068618,84.3456618 L145.080852,83.1117385 C145.083557,82.9096839 145.086592,82.7094395 145.089954,82.5110208 L145.12892,80.7749701 L145.12892,80.7749701 L145.164384,79.6736268 C145.170914,79.4938566 145.177751,79.3159905 145.184892,79.1400439 L145.231344,78.1075247 L145.231344,78.1075247 L145.284891,77.1218269 L145.284891,77.1218269 L145.345345,76.1837013 L145.345345,76.1837013 L145.412522,75.2938988 C145.436015,75.0054352 145.460596,74.7251506 145.486237,74.4531702 L146.23441,75.0287582 L146.23441,75.0287582 L146.937414,75.5597575 C147.051049,75.6446858 147.162974,75.7278645 147.273277,75.8093476 L147.916319,76.2783314 L147.916319,76.2783314 L148.524582,76.7092165 C148.623292,76.778 148.720726,76.8453042 148.81697,76.9111833 L149.380856,77.2897879 C149.472689,77.3501825 149.563506,77.4092601 149.653393,77.4670747 L150.182253,77.79924 C151.220431,78.4349905 152.149672,78.9044535 153.119589,79.3010858 L153.608629,79.4937654 C153.690932,79.5250113 153.77369,79.5558597 153.85699,79.5863645 L154.363992,79.7657039 L154.363992,79.7657039 L154.959455,79.9624363 L154.959455,79.9624363 L155.349364,80.0829763 L155.349364,80.0829763 L155.734633,80.1947796 C155.798506,80.2126738 155.862222,80.2301952 155.925799,80.2473394 L156.305738,80.3456445 C156.368832,80.3612627 156.431822,80.3764951 156.494728,80.3913372 L156.871291,80.475672 L156.871291,80.475672 L157.24669,80.550431 L157.24669,80.550431 L157.621793,80.6154046 C157.684334,80.6254064 157.746899,80.6349918 157.809506,80.6441563 L158.185794,80.6940584 C158.248641,80.7015221 158.311566,80.7085562 158.374588,80.7151564 L158.754017,80.749515 L158.754017,80.749515 L159.136625,80.7732492 C159.264787,80.7793665 159.393625,80.7836781 159.523281,80.786149 L159.914855,80.7880048 L159.914855,80.7880048 L160.312214,80.7786069 C160.445727,80.7735753 160.58035,80.7666331 160.716227,80.7577454 L161.127764,80.7252105 L161.127764,80.7252105 L161.547693,80.6807926 C161.618428,80.6723878 161.68955,80.663479 161.761076,80.654062 L162.195222,80.5914262 L162.195222,80.5914262 L162.639931,80.5163829 C162.714978,80.5028301 162.790502,80.4887515 162.866519,80.4741429 L163.328704,80.3800951 L163.328704,80.3800951 L163.803625,80.2731154 L163.803625,80.2731154 L164.29215,80.1529941 L164.29215,80.1529941 L164.795149,80.0195214 L164.795149,80.0195214 L165.31349,79.8724875 L165.31349,79.8724875 L165.848042,79.7116827 C165.938533,79.6837226 166.029736,79.6551801 166.121669,79.6260506 L166.682166,79.4441961 L166.682166,79.4441961 L167.261047,79.2480463 L167.261047,79.2480463 L167.859179,79.0373914 L167.859179,79.0373914 L168.477432,78.8120216 L168.477432,78.8120216 L169.116673,78.5717273 L169.116673,78.5717273 L169.777773,78.3162986 L169.777773,78.3162986 L170.812308,77.9043197 L170.812308,77.9043197 L171.900909,77.4571086 L171.900909,77.4571086 L172.658129,77.1390448 L172.658129,77.1390448 L174.252043,76.4541579 L174.252043,76.4541579 L175.52044,75.8970024 L175.52044,75.8970024 L177.782095,74.8834737 L177.782095,74.8834737 L179.732133,73.9943202 L179.732133,73.9943202 L182.908002,72.5261061 L182.908002,72.5261061 Z" id="lg-icon-fill-primary" fill="#FFD500"></path>
        <path d="M200,288 C202.209139,288 204,289.790861 204,292 C204,294.209139 202.209139,296 200,296 C197.790861,296 196,294.209139 196,292 C196,289.790861 197.790861,288 200,288 Z M168,288 C170.209139,288 172,289.790861 172,292 C172,294.209139 170.209139,296 168,296 C165.790861,296 164,294.209139 164,292 C164,289.790861 165.790861,288 168,288 Z M248,272 C250.209139,272 252,273.790861 252,276 C252,278.209139 250.209139,280 248,280 C245.790861,280 244,278.209139 244,276 C244,273.790861 245.790861,272 248,272 Z M216,272 C218.209139,272 220,273.790861 220,276 C220,278.209139 218.209139,280 216,280 C213.790861,280 212,278.209139 212,276 C212,273.790861 213.790861,272 216,272 Z M184,272 C186.209139,272 188,273.790861 188,276 C188,278.209139 186.209139,280 184,280 C181.790861,280 180,278.209139 180,276 C180,273.790861 181.790861,272 184,272 Z M152,272 C154.209139,272 156,273.790861 156,276 C156,278.209139 154.209139,280 152,280 C149.790861,280 148,278.209139 148,276 C148,273.790861 149.790861,272 152,272 Z M120,272 C122.209139,272 124,273.790861 124,276 C124,278.209139 122.209139,280 120,280 C117.790861,280 116,278.209139 116,276 C116,273.790861 117.790861,272 120,272 Z M264,256 C266.209139,256 268,257.790861 268,260 C268,262.209139 266.209139,264 264,264 C261.790861,264 260,262.209139 260,260 C260,257.790861 261.790861,256 264,256 Z M104,256 C106.209139,256 108,257.790861 108,260 C108,262.209139 106.209139,264 104,264 C101.790861,264 100,262.209139 100,260 C100,257.790861 101.790861,256 104,256 Z" id="Half-tone" fill="#000000"></path>
        <path d="M244,16 C246.208145,16 248,17.8629032 248,20.1586022 L248,31.999 L263.261293,32 C268.088,32 272,35.9727109 272,40.8743228 L272.000763,168.751113 C286.983674,191.52584 296,214.157 296,233.32901 C296,288.903582 258.029411,312 184,312 C116.85657,312 79.3757936,293.000461 72.984041,248.001657 L32.7387065,248 C27.9147227,248 24,244.027289 24,239.125677 L24,40.8743228 C24,35.9727109 27.9147227,32 32.7387065,32 L48,31.999 L48,20.1586022 C48,17.8629032 49.7918552,16 52,16 C54.2081448,16 56,17.8629032 56,20.1586022 L56,31.999 L80,31.999 L80,20.1586022 C80,17.8629032 81.7918552,16 84,16 C86.2081448,16 88,17.8629032 88,20.1586022 L88,31.999 L112,31.999 L112,20.1586022 C112,17.8629032 113.791855,16 116,16 C118.208145,16 120,17.8629032 120,20.1586022 L120,31.999 L144,31.999 L144,20.1586022 C144,17.8629032 145.791855,16 148,16 C150.208145,16 152,17.8629032 152,20.1586022 L152,31.999 L176,31.999 L176,20.1586022 C176,17.8629032 177.791855,16 180,16 C182.208145,16 184,17.8629032 184,20.1586022 L184,31.999 L208,31.999 L208,20.1586022 C208,17.8629032 209.791855,16 212,16 C214.208145,16 216,17.8629032 216,20.1586022 L216,31.999 L240,31.999 L240,20.1586022 C240,17.8629032 241.791855,16 244,16 Z M214.270186,120 L153.803784,120 C153.316863,120 152.716647,120.130074 152.015965,120.381154 L152.001167,120.386469 C151.931715,120.411474 151.86128,120.437664 151.789876,120.465027 C149.841281,121.211772 147.170452,122.833339 144.029779,125.151333 C144.020142,125.158445 144.010501,125.165565 144.000855,125.17269 L143.737338,125.368172 C135.25787,131.68432 123.471273,142.94573 113.210575,155.736252 C109.967347,159.779112 106.921117,163.873083 104.090841,167.998126 L104.004533,168.124026 C101.09905,172.366261 98.4255732,176.635028 96.0005144,180.914636 L95.6758526,181.490291 C89.179269,193.064088 84.505506,204.710031 82.060249,215.999325 L82.0557077,216.020303 C80.7781575,221.924949 80.1103561,227.73195 80.1103561,233.379945 C80.1103561,238.544649 80.4701962,243.395583 81.1927512,247.942493 C81.1958846,247.962211 81.1990249,247.981924 81.202172,248.001631 L81.3397204,248.833912 C87.9802197,287.693519 121.598428,304 184.036985,304 C254.192667,304 287.963614,283.413608 287.963614,233.379945 C287.963614,212.137177 275.188229,184.960574 254.812349,158.48736 C246.448419,147.620585 237.333224,137.656119 229.197229,130.315998 C222.003412,123.82589 216.088487,120 214.270186,120 Z M48,51.8413978 L48,39.999 L32.3166695,40 C32.1419553,40 32,40.1472222 32,40.325 L32,239.675 C32,239.852778 32.1419553,240 32.3166695,240 L72.1912949,240.000537 C72.0638089,237.830842 72,235.607216 72,233.32901 C72,227.646862 72.604732,221.855473 73.7641364,216.000595 L52.1267089,216 L52.0563981,215.999585 C52.0376296,215.999861 52.0188299,216 52,216 C51.239543,216 50.5284591,215.774062 49.9229335,215.381919 C48.7674235,214.672639 48,213.422727 48,212 L48.0022655,211.891809 L48.0005679,211.819762 L48,116.249828 L48.0014662,116.107598 C48.0004908,116.071847 48,116.035979 48,116 C48,114.580129 48.7643454,113.33238 49.9157339,112.622472 C50.5229506,112.227363 51.2365972,112 52,112 L244,112 C244.754144,112 245.459732,112.221882 246.061965,112.607607 C247.226194,113.315178 248,114.570336 248,116 L247.997858,116.10944 C247.999282,116.15605 248,116.20285 248,116.249828 L248.000785,137.852406 C252.391546,142.680067 256.835495,147.974449 261.134285,153.54755 C262.106371,154.807795 263.062123,156.069878 264.001018,157.33323 L264,40.325 C264,40.1472222 263.858045,40 263.680601,40 L248,39.999 L248,51.8413978 C248,54.1370968 246.208145,56 244,56 C241.791855,56 240,54.1370968 240,51.8413978 L240,39.999 L216,39.999 L216,51.8413978 C216,54.1370968 214.208145,56 212,56 C209.791855,56 208,54.1370968 208,51.8413978 L208,39.999 L184,39.999 L184,51.8413978 C184,54.1370968 182.208145,56 180,56 C177.791855,56 176,54.1370968 176,51.8413978 L176,39.999 L152,39.999 L152,51.8413978 C152,54.1370968 150.208145,56 148,56 C145.791855,56 144,54.1370968 144,51.8413978 L144,39.999 L120,39.999 L120,51.8413978 C120,54.1370968 118.208145,56 116,56 C113.791855,56 112,54.1370968 112,51.8413978 L112,39.999 L88,39.999 L88,51.8413978 C88,54.1370968 86.2081448,56 84,56 C81.7918552,56 80,54.1370968 80,51.8413978 L80,39.999 L56,39.999 L56,51.8413978 C56,54.1370968 54.2081448,56 52,56 C49.7918552,56 48,54.1370968 48,51.8413978 Z M187.683642,164 C193.512989,164 198.201927,165.797801 201.633763,169.354918 C205.060294,172.906536 206.800081,177.689676 206.800081,183.577886 C206.800081,184.331093 206.200703,184.952352 205.474024,184.952352 L199.904584,184.952352 C199.172601,184.952352 198.578527,184.331093 198.578527,183.577886 C198.578527,179.740379 197.56542,176.760538 195.57103,174.715333 C193.544814,172.637141 190.834354,171.631032 187.269912,171.631032 C183.885815,171.631032 181.27083,172.824068 179.281745,175.292608 C177.266138,177.799633 176.242422,181.351252 176.242422,185.854001 L176.608414,198.108735 L190.8927,198.108735 C191.624684,198.108735 192.218757,198.724496 192.218757,199.483201 L192.218757,204.365302 C192.218757,205.118509 191.624684,205.739768 190.8927,205.739768 L176.831191,205.739768 L177.191879,217.312767 C177.239617,221.815516 176.603109,225.510079 175.292965,228.368968 L206.693996,228.368968 C207.42598,228.368968 208.020053,228.984728 208.020053,229.743433 L208.020053,234.625535 C208.020053,235.378742 207.42598,236 206.693996,236 L161.560318,236 C160.828334,236 160.234261,235.378742 160.234261,234.625535 L160.234261,229.743433 C160.234261,228.984728 160.828334,228.368968 161.560318,228.368968 L165.999957,228.368968 C166.965326,228.072083 167.760961,226.021381 168.206516,224.361026 C168.774068,222.189371 169.028671,219.858277 168.970325,217.439218 L168.604333,205.739768 L161.379974,205.739768 C160.647991,205.739768 160.053917,205.118509 160.053917,204.365302 L160.053917,199.483201 C160.053917,198.724496 160.647991,198.108735 161.379974,198.108735 L168.344426,198.108735 L167.978434,185.919976 C167.978434,179.295052 169.781872,173.95113 173.3304,169.998167 C176.916059,166.017715 181.742906,164 187.683642,164 Z M94.3572963,168.000486 L56,168 L56,208 L75.6788883,208.00075 C79.398746,194.709955 85.815335,181.202477 94.3572963,168.000486 Z M96,120 L56,120 L56,160 L96,160 L96,120 Z M137.66184,119.999486 L104,120 L103.999348,154.381584 C104.954233,153.140879 105.926869,151.904659 106.91675,150.673384 C117.029132,138.094993 128.286633,127.034459 137.66184,119.999486 Z M240,120 L229.379977,119.999606 C232.69737,122.640877 236.281768,125.853908 240.00033,129.512786 L240,120 Z M145.966644,65.1950751 C152.697128,70.6117767 154.771282,72.0702957 157.088626,72.8573197 C159.489062,73.6725638 161.712527,73.5404226 167.535208,71.2343035 L168.100752,71.008061 C171.464646,69.6495134 175.976409,67.6079666 182.283535,64.6730994 C183.39108,64.1577302 184.68289,64.1577302 185.790436,64.6730994 C203.83216,73.0683756 207.188198,74.1565981 210.984261,72.8490407 C213.283363,72.0571127 215.342874,70.5989093 222.013012,65.1977867 C225.101261,62.6970874 227.880357,64.5644055 229.071396,67.1229551 C229.526834,68.1013099 229.865778,69.407607 230.142687,71.1023066 C230.695925,74.4881623 231.003827,79.5255191 231.003827,85.9659852 C231.003827,97.6413306 220.460426,102.469895 202.91838,103.660078 C202.417094,103.694089 201.927232,103.724849 201.441608,103.752647 L200.715451,103.792158 C197.45396,103.960283 194.221775,104 188.80822,104 L179.26575,104 C173.852195,104 170.620011,103.960283 167.358519,103.792158 L166.632363,103.752647 C166.146738,103.724849 165.656877,103.694089 165.15559,103.660078 C147.613544,102.469895 137.070143,97.6413306 137.070143,85.9659852 C137.070143,79.5949924 137.363119,74.5812975 137.889452,71.1996856 C138.152764,69.5079498 138.474629,68.2029679 138.904337,67.2278724 C140.057711,64.6106288 142.778783,62.6294802 145.966644,65.1950751 Z M184.036984,72 C164.91781,80.9236882 161.059961,82.0555832 154.363992,79.7657039 C151.617894,78.826597 149.604335,77.6464913 145.486237,74.4531702 C145.217013,77.3089649 145.064499,81.0802901 145.064499,85.6222768 C145.064499,91.5447268 151.994734,94.7405798 165.69535,95.6765785 C166.285199,95.7168758 166.859819,95.7523865 167.432688,95.783636 L168.120153,95.8191237 C171.102996,95.9643319 174.18423,96 179.258749,96 L188.815221,96 C193.88974,96 196.970975,95.9643319 199.953818,95.8191237 L200.641282,95.783636 C201.214151,95.7523865 201.788772,95.7168758 202.378621,95.6765785 C216.079237,94.7405798 223.009471,91.5447268 223.009471,85.6222768 C223.009471,81.0488924 222.850281,77.2692302 222.569933,74.4181044 C218.47448,77.6150665 216.473286,78.7986361 213.742748,79.7456955 C207.04607,82.0683701 203.193342,80.9410676 184.036984,72 Z" id="Outlines" fill="#000000"></path>
    </g>
</svg>