<svg width="81" height="80" viewBox="0 0 81 80" fill="none" xmlns="http://www.w3.org/2000/svg">
<rect x="0.333008" width="80" height="80" rx="8" fill="white"/>
<g clip-path="url(#clip0_184_14820)">
<path d="M6.33301 28C6.33301 26.8954 7.22844 26 8.33301 26H72.333C73.4376 26 74.333 26.8954 74.333 28V50C74.333 51.1046 73.4376 52 72.333 52H8.33301C7.22844 52 6.33301 51.1046 6.33301 50V28Z" fill="#0076D6"/>
<path d="M30.2822 39.1084H28.6519L28.6431 38.3042H30.0669C30.3071 38.3042 30.5107 38.269 30.6777 38.1987C30.8477 38.1255 30.9766 38.0215 31.0645 37.8867C31.1523 37.749 31.1963 37.5835 31.1963 37.3901C31.1963 37.1763 31.1553 37.002 31.0732 36.8672C30.9912 36.7324 30.8652 36.6343 30.6953 36.5728C30.5283 36.5112 30.3145 36.4805 30.0537 36.4805H28.9858V42H27.8828V35.6016H30.0537C30.4053 35.6016 30.7188 35.6353 30.9941 35.7026C31.2725 35.77 31.5083 35.8755 31.7017 36.019C31.8979 36.1597 32.0459 36.3384 32.1455 36.5552C32.248 36.772 32.2993 37.0298 32.2993 37.3286C32.2993 37.5923 32.2363 37.834 32.1104 38.0537C31.9844 38.2705 31.7983 38.4478 31.5522 38.5854C31.3062 38.7231 31 38.8052 30.6338 38.8315L30.2822 39.1084ZM30.2339 42H28.3047L28.8013 41.1255H30.2339C30.4829 41.1255 30.6909 41.0845 30.8579 41.0024C31.0249 40.9175 31.1494 40.8018 31.2314 40.6553C31.3164 40.5059 31.3589 40.3315 31.3589 40.1323C31.3589 39.9243 31.3223 39.7441 31.249 39.5918C31.1758 39.4365 31.0601 39.3179 30.9019 39.2358C30.7437 39.1509 30.5371 39.1084 30.2822 39.1084H29.043L29.0518 38.3042H30.6646L30.915 38.6074C31.2666 38.6191 31.5552 38.6968 31.7808 38.8403C32.0093 38.9839 32.1792 39.1699 32.2905 39.3984C32.4019 39.627 32.4575 39.873 32.4575 40.1367C32.4575 40.5439 32.3682 40.8853 32.1895 41.1606C32.0137 41.436 31.7603 41.6455 31.4292 41.7891C31.0981 41.9297 30.6997 42 30.2339 42Z" fill="white"/>
<path d="M36.3247 40.8794V37.2451H37.3882V42H36.3862L36.3247 40.8794ZM36.4741 39.8906L36.8301 39.8818C36.8301 40.2012 36.7949 40.4956 36.7246 40.7651C36.6543 41.0317 36.5459 41.2646 36.3994 41.4639C36.2529 41.6602 36.0654 41.814 35.8369 41.9253C35.6084 42.0337 35.3345 42.0879 35.0151 42.0879C34.7837 42.0879 34.5713 42.0542 34.3779 41.9868C34.1846 41.9194 34.0176 41.8154 33.877 41.6748C33.7393 41.5342 33.6323 41.3511 33.5562 41.1255C33.48 40.8999 33.4419 40.6304 33.4419 40.3169V37.2451H34.501V40.3257C34.501 40.4985 34.5215 40.6436 34.5625 40.7607C34.6035 40.875 34.6592 40.9673 34.7295 41.0376C34.7998 41.1079 34.8818 41.1577 34.9756 41.187C35.0693 41.2163 35.1689 41.231 35.2744 41.231C35.5762 41.231 35.8135 41.1724 35.9863 41.0552C36.1621 40.9351 36.2866 40.7739 36.3599 40.5718C36.436 40.3696 36.4741 40.1426 36.4741 39.8906Z" fill="white"/>
<path d="M40.6533 37.2451V38.0186H37.9727V37.2451H40.6533ZM38.7461 36.0806H39.8052V40.686C39.8052 40.8325 39.8257 40.9453 39.8667 41.0244C39.9106 41.1006 39.9707 41.1519 40.0469 41.1782C40.123 41.2046 40.2124 41.2178 40.3149 41.2178C40.3882 41.2178 40.4585 41.2134 40.5259 41.2046C40.5933 41.1958 40.6475 41.187 40.6885 41.1782L40.6929 41.9868C40.605 42.0132 40.5024 42.0366 40.3853 42.0571C40.271 42.0776 40.1392 42.0879 39.9897 42.0879C39.7466 42.0879 39.5312 42.0454 39.3438 41.9604C39.1562 41.8726 39.0098 41.7305 38.9043 41.5342C38.7988 41.3379 38.7461 41.0771 38.7461 40.752V36.0806Z" fill="white"/>
<path d="M43.6504 37.2451V38.0186H40.9697V37.2451H43.6504ZM41.7432 36.0806H42.8022V40.686C42.8022 40.8325 42.8228 40.9453 42.8638 41.0244C42.9077 41.1006 42.9678 41.1519 43.0439 41.1782C43.1201 41.2046 43.2095 41.2178 43.312 41.2178C43.3853 41.2178 43.4556 41.2134 43.5229 41.2046C43.5903 41.1958 43.6445 41.187 43.6855 41.1782L43.6899 41.9868C43.6021 42.0132 43.4995 42.0366 43.3823 42.0571C43.2681 42.0776 43.1362 42.0879 42.9868 42.0879C42.7437 42.0879 42.5283 42.0454 42.3408 41.9604C42.1533 41.8726 42.0068 41.7305 41.9014 41.5342C41.7959 41.3379 41.7432 41.0771 41.7432 40.752V36.0806Z" fill="white"/>
<path d="M44.1602 39.6753V39.5742C44.1602 39.2314 44.21 38.9136 44.3096 38.6206C44.4092 38.3247 44.5527 38.0684 44.7402 37.8516C44.9307 37.6318 45.1621 37.4619 45.4346 37.3418C45.71 37.2188 46.0205 37.1572 46.3662 37.1572C46.7148 37.1572 47.0254 37.2188 47.2979 37.3418C47.5732 37.4619 47.8062 37.6318 47.9966 37.8516C48.187 38.0684 48.332 38.3247 48.4316 38.6206C48.5312 38.9136 48.5811 39.2314 48.5811 39.5742V39.6753C48.5811 40.0181 48.5312 40.3359 48.4316 40.6289C48.332 40.9219 48.187 41.1782 47.9966 41.3979C47.8062 41.6147 47.5747 41.7847 47.3022 41.9077C47.0298 42.0278 46.7207 42.0879 46.375 42.0879C46.0264 42.0879 45.7144 42.0278 45.439 41.9077C45.1665 41.7847 44.9351 41.6147 44.7446 41.3979C44.5542 41.1782 44.4092 40.9219 44.3096 40.6289C44.21 40.3359 44.1602 40.0181 44.1602 39.6753ZM45.2192 39.5742V39.6753C45.2192 39.8892 45.2412 40.0913 45.2852 40.2817C45.3291 40.4722 45.3979 40.6392 45.4917 40.7827C45.5854 40.9263 45.7056 41.0391 45.8521 41.1211C45.9985 41.2031 46.1729 41.2441 46.375 41.2441C46.5713 41.2441 46.7412 41.2031 46.8848 41.1211C47.0312 41.0391 47.1514 40.9263 47.2451 40.7827C47.3389 40.6392 47.4077 40.4722 47.4517 40.2817C47.4985 40.0913 47.522 39.8892 47.522 39.6753V39.5742C47.522 39.3633 47.4985 39.1641 47.4517 38.9766C47.4077 38.7861 47.3374 38.6177 47.2407 38.4712C47.147 38.3247 47.0269 38.2104 46.8804 38.1284C46.7368 38.0435 46.5654 38.001 46.3662 38.001C46.167 38.001 45.9941 38.0435 45.8477 38.1284C45.7041 38.2104 45.5854 38.3247 45.4917 38.4712C45.3979 38.6177 45.3291 38.7861 45.2852 38.9766C45.2412 39.1641 45.2192 39.3633 45.2192 39.5742Z" fill="white"/>
<path d="M50.519 38.2603V42H49.46V37.2451H50.4575L50.519 38.2603ZM50.3301 39.4468L49.9873 39.4424C49.9902 39.1055 50.0371 38.7964 50.1279 38.5151C50.2217 38.2339 50.3506 37.9922 50.5146 37.79C50.6816 37.5879 50.8809 37.4326 51.1123 37.3242C51.3438 37.2129 51.6016 37.1572 51.8857 37.1572C52.1143 37.1572 52.3208 37.1895 52.5054 37.2539C52.6929 37.3154 52.8525 37.4165 52.9844 37.5571C53.1191 37.6978 53.2217 37.8809 53.292 38.1064C53.3623 38.3291 53.3975 38.603 53.3975 38.9282V42H52.334V38.9238C52.334 38.6953 52.3003 38.5151 52.2329 38.3833C52.1685 38.2485 52.0732 38.1533 51.9473 38.0977C51.8242 38.0391 51.6704 38.0098 51.4858 38.0098C51.3042 38.0098 51.1416 38.0479 50.998 38.124C50.8545 38.2002 50.7329 38.3042 50.6333 38.436C50.5366 38.5679 50.4619 38.7202 50.4092 38.8931C50.3564 39.0659 50.3301 39.2505 50.3301 39.4468Z" fill="white"/>
</g>
<defs>
<clipPath id="clip0_184_14820">
<rect width="68" height="26" fill="white" transform="translate(6.33301 26)"/>
</clipPath>
</defs>
</svg>
