<svg width="81" height="80" viewBox="0 0 81 80" fill="none" xmlns="http://www.w3.org/2000/svg">
<g clip-path="url(#clip0_210_5906)">
<path fill-rule="evenodd" clip-rule="evenodd" d="M28.29 48.1051C23.8718 48.1051 20.29 44.5233 20.29 40.1051C20.29 35.6868 23.8718 32.1051 28.29 32.1051C32.7083 32.1051 36.29 35.6868 36.29 40.1051C36.29 42.2268 35.4472 44.2616 33.9469 45.7619C32.4466 47.2622 30.4118 48.1051 28.29 48.1051ZM52.84 16.0701L56.31 19.6376V24.4701L48.24 16.0701H52.84ZM78.31 56.5701V60.0926H62.285V54.0926H78.31V56.5326C78.3088 56.545 78.3088 56.5576 78.31 56.5701Z" fill="#0076D6"/>
<path fill-rule="evenodd" clip-rule="evenodd" d="M55.3096 40.0576L55.3595 40.0588C55.8886 40.0848 56.3096 40.522 56.3096 41.0576C56.3096 41.6098 55.8619 42.0576 55.3096 42.0576C54.7573 42.0576 54.3096 41.6098 54.3096 41.0576C54.3096 40.522 54.7306 40.0848 55.2597 40.0588L55.3096 40.0576ZM51.3096 36.0576L51.3595 36.0588C51.8886 36.0848 52.3096 36.522 52.3096 37.0576C52.3096 37.6098 51.8619 38.0576 51.3096 38.0576C50.7573 38.0576 50.3096 37.6098 50.3096 37.0576C50.3096 36.522 50.7306 36.0848 51.2597 36.0588L51.3096 36.0576ZM47.3096 32.0576L47.3595 32.0588C47.8886 32.0848 48.3096 32.522 48.3096 33.0576C48.3096 33.6098 47.8619 34.0576 47.3096 34.0576C46.7573 34.0576 46.3096 33.6098 46.3096 33.0576C46.3096 32.522 46.7306 32.0848 47.2597 32.0588L47.3096 32.0576ZM55.3096 32.0576L55.3595 32.0588C55.8886 32.0848 56.3096 32.522 56.3096 33.0576C56.3096 33.6098 55.8619 34.0576 55.3096 34.0576C54.7573 34.0576 54.3096 33.6098 54.3096 33.0576C54.3096 32.522 54.7306 32.0848 55.2597 32.0588L55.3096 32.0576ZM51.3096 28.0576L51.3595 28.0588C51.8886 28.0848 52.3096 28.522 52.3096 29.0576C52.3096 29.6098 51.8619 30.0576 51.3096 30.0576C50.7573 30.0576 50.3096 29.6098 50.3096 29.0576C50.3096 28.522 50.7306 28.0848 51.2597 28.0588L51.3096 28.0576ZM43.3096 28.0576L43.3595 28.0588C43.8886 28.0848 44.3096 28.522 44.3096 29.0576C44.3096 29.6098 43.8619 30.0576 43.3096 30.0576C42.7573 30.0576 42.3096 29.6098 42.3096 29.0576C42.3096 28.522 42.7306 28.0848 43.2597 28.0588L43.3096 28.0576ZM47.3096 24.0576L47.3595 24.0588C47.8886 24.0848 48.3096 24.522 48.3096 25.0576C48.3096 25.6098 47.8619 26.0576 47.3096 26.0576C46.7573 26.0576 46.3096 25.6098 46.3096 25.0576C46.3096 24.522 46.7306 24.0848 47.2597 24.0588L47.3096 24.0576ZM39.3096 24.0576C39.8619 24.0576 40.3096 24.5053 40.3096 25.0576C40.3096 25.6098 39.8619 26.0576 39.3096 26.0576C38.7573 26.0576 38.3096 25.6098 38.3096 25.0576C38.3096 24.5053 38.7573 24.0576 39.3096 24.0576Z" fill="black"/>
<path fill-rule="evenodd" clip-rule="evenodd" d="M78.31 52.0926H62.2925L62.31 31.5201C62.3105 31.0029 62.1107 30.5056 61.7525 30.1326L58.31 26.5576V19.2326C58.3102 18.9722 58.2089 18.7219 58.0275 18.5351L53.98 14.3726C53.7915 14.179 53.5327 14.0698 53.2625 14.0701H46.31L45.2725 12.9901C45.152 12.8648 45.0158 12.7556 44.8675 12.6651C41.845 10.8301 38.2925 10.3776 34.905 10.1651C33.195 10.0551 31.655 10 30.195 10C26.1075 9.99508 22.56 10.4276 19.3575 11.3076C9.27997 14.1101 2.14748 22.5026 0.749976 33.2176C0.289976 36.7401 0.317476 39.9676 0.347476 43.3926C0.347476 44.3401 0.364976 45.3201 0.362476 46.3001C0.362476 46.6126 0.362476 46.9276 0.362476 47.2426C0.334976 51.8076 0.309976 56.9826 2.88248 61.2726C5.23748 65.1951 9.54248 67.9776 15.005 69.1026C19.9325 70.1201 26.305 70.1201 28.4 70.1201C30.2825 70.1201 32.6225 70.1026 35.0975 70.0826C38.055 70.0601 41.4075 70.0351 44.6275 70.0351C46.8475 70.0351 48.76 70.0351 50.4725 70.0701C50.7158 70.0701 50.9608 70.0701 51.2075 70.0701C53.7375 70.0701 56.625 69.8201 58.87 67.9876C60.77 66.4326 61.62 64.1976 61.9875 62.0601C62.0859 62.0761 62.1853 62.0844 62.285 62.0851H78.31V67.0626C78.31 67.6149 78.7577 68.0626 79.31 68.0626C79.8623 68.0626 80.31 67.6149 80.31 67.0626V60.1676C80.31 60.1426 80.31 60.1176 80.31 60.0926V54.0926C80.31 52.988 79.4145 52.0926 78.31 52.0926ZM52.84 16.0701L56.31 19.6376V24.4701L48.24 16.0701H52.84ZM60.31 31.5201L60.2925 51.0201H41.7925C41.4916 51.0206 41.207 51.1565 41.0175 51.3901C36.2065 57.3108 27.9471 59.13 21.0939 55.7785C14.2406 52.4269 10.6053 44.7907 12.3247 37.3581C14.0441 29.9255 20.6636 24.6615 28.2925 24.6601C29.5547 24.6595 30.8128 24.803 32.0425 25.0876C32.3768 25.1575 32.7238 25.0519 32.9625 24.8076L43.3525 14.4176C43.4192 14.3485 43.4756 14.2702 43.52 14.1851C43.6275 14.2451 43.7325 14.3026 43.8375 14.3651L60.31 31.5201ZM57.605 66.4451C55.855 67.8726 53.48 68.0776 51.2075 68.0776C50.9575 68.0776 50.735 68.0776 50.5 68.0776C48.6375 68.0526 46.6475 68.0426 44.6275 68.0426C38.71 68.0426 32.5225 68.1276 28.4025 68.1276C25.1525 68.1276 19.7075 68.0376 15.4025 67.1526C11.0975 66.2676 6.86748 64.0401 4.59248 60.2526C2.14248 56.1701 2.34248 51.0851 2.35748 46.3126C2.35748 41.9051 2.15748 37.8526 2.72748 33.4826C4.00248 23.7326 10.415 15.8751 19.8875 13.2501C23.2375 12.3201 26.7125 12.0001 30.1975 12.0001C31.725 12.0001 33.2575 12.0626 34.78 12.1601C37.0875 12.3076 39.455 12.5601 41.615 13.3351L31.935 23.0176C25.0629 21.6278 17.9984 24.2654 13.7186 29.8187C9.43877 35.3721 8.68792 42.8754 11.7825 49.1667C14.877 55.458 21.2788 59.4431 28.29 59.4426C33.6629 59.451 38.7689 57.1014 42.2575 53.0151H60.29V53.9751C60.29 54.0126 60.29 54.0526 60.29 54.0926V58.0726C60.255 61.1526 59.945 64.5326 57.605 66.4451ZM78.31 54.0926V56.5326C78.3088 56.5451 78.3088 56.5576 78.31 56.5701V60.0926H62.285V54.0926H78.31ZM28.29 30.1051C30.9421 30.1051 33.4857 31.1587 35.361 33.034C37.2364 34.9094 38.29 37.4529 38.29 40.1051C38.29 45.6279 33.8128 50.1051 28.29 50.1051C22.7671 50.1051 18.29 45.6279 18.29 40.1051C18.29 34.5822 22.7671 30.1051 28.29 30.1051ZM28.29 32.1051C23.8717 32.1051 20.29 35.6868 20.29 40.1051C20.29 44.5234 23.8717 48.1051 28.29 48.1051C30.4117 48.1051 32.4465 47.2622 33.9468 45.7619C35.4471 44.2616 36.29 42.2268 36.29 40.1051C36.29 35.6868 32.7083 32.1051 28.29 32.1051Z" fill="black"/>
</g>
<defs>
<clipPath id="clip0_210_5906">
<rect width="80" height="80" fill="white" transform="translate(0.333008)"/>
</clipPath>
</defs>
</svg>
