<svg width="80" height="80" viewBox="0 0 80 80" fill="none" xmlns="http://www.w3.org/2000/svg">
<path d="M0 2C0 0.895429 0.895431 0 2 0H78C79.1046 0 80 0.895431 80 2V78C80 79.1046 79.1046 80 78 80H2C0.895429 80 0 79.1046 0 78V2Z" fill="white"/>
<path fill-rule="evenodd" clip-rule="evenodd" d="M76 34.5C76 34.2239 75.7761 34 75.5 34H4.5C4.22386 34 4 34.2239 4 34.5V45.5C4 45.7761 4.22386 46 4.5 46H75.5C75.7761 46 76 45.7761 76 45.5V34.5ZM5 35H75V45H5V35Z" fill="black"/>
<path d="M75 35H5V45H75V35Z" fill="white"/>
<mask id="mask0_210_5897" style="mask-type:alpha" maskUnits="userSpaceOnUse" x="7" y="38" width="61" height="4">
<path d="M7.25 38H68V42H7.25V38Z" fill="white"/>
</mask>
<g mask="url(#mask0_210_5897)">
<path fill-rule="evenodd" clip-rule="evenodd" d="M78 40.25C78 40.8023 77.5523 41.25 77 41.25C76.4477 41.25 76 40.8023 76 40.25C76 39.6977 76.4477 39.25 77 39.25C77.5523 39.25 78 39.6977 78 40.25ZM5 113.25C5.55228 113.25 6 112.802 6 112.25C6 111.698 5.55228 111.25 5 111.25C4.44772 111.25 4 111.698 4 112.25C4 112.802 4.44772 113.25 5 113.25ZM14 112.25C14 112.802 13.5523 113.25 13 113.25C12.4477 113.25 12 112.802 12 112.25C12 111.698 12.4477 111.25 13 111.25C13.5523 111.25 14 111.698 14 112.25ZM21 113.25C21.5523 113.25 22 112.802 22 112.25C22 111.698 21.5523 111.25 21 111.25C20.4477 111.25 20 111.698 20 112.25C20 112.802 20.4477 113.25 21 113.25ZM30 112.25C30 112.802 29.5523 113.25 29 113.25C28.4477 113.25 28 112.802 28 112.25C28 111.698 28.4477 111.25 29 111.25C29.5523 111.25 30 111.698 30 112.25ZM37 113.25C37.5523 113.25 38 112.802 38 112.25C38 111.698 37.5523 111.25 37 111.25C36.4477 111.25 36 111.698 36 112.25C36 112.802 36.4477 113.25 37 113.25ZM46 112.25C46 112.802 45.5523 113.25 45 113.25C44.4477 113.25 44 112.802 44 112.25C44 111.698 44.4477 111.25 45 111.25C45.5523 111.25 46 111.698 46 112.25ZM53 113.25C53.5523 113.25 54 112.802 54 112.25C54 111.698 53.5523 111.25 53 111.25C52.4477 111.25 52 111.698 52 112.25C52 112.802 52.4477 113.25 53 113.25ZM62 112.25C62 112.802 61.5523 113.25 61 113.25C60.4477 113.25 60 112.802 60 112.25C60 111.698 60.4477 111.25 61 111.25C61.5523 111.25 62 111.698 62 112.25ZM69 113.25C69.5523 113.25 70 112.802 70 112.25C70 111.698 69.5523 111.25 69 111.25C68.4477 111.25 68 111.698 68 112.25C68 112.802 68.4477 113.25 69 113.25ZM77 113.25C77.5523 113.25 78 112.802 78 112.25C78 111.698 77.5523 111.25 77 111.25C76.4477 111.25 76 111.698 76 112.25C76 112.802 76.4477 113.25 77 113.25ZM10 108.25C10 108.802 9.55228 109.25 9 109.25C8.44772 109.25 8 108.802 8 108.25C8 107.698 8.44772 107.25 9 107.25C9.55228 107.25 10 107.698 10 108.25ZM17 109.25C17.5523 109.25 18 108.802 18 108.25C18 107.698 17.5523 107.25 17 107.25C16.4477 107.25 16 107.698 16 108.25C16 108.802 16.4477 109.25 17 109.25ZM26 108.25C26 108.802 25.5523 109.25 25 109.25C24.4477 109.25 24 108.802 24 108.25C24 107.698 24.4477 107.25 25 107.25C25.5523 107.25 26 107.698 26 108.25ZM33 109.25C33.5523 109.25 34 108.802 34 108.25C34 107.698 33.5523 107.25 33 107.25C32.4477 107.25 32 107.698 32 108.25C32 108.802 32.4477 109.25 33 109.25ZM42 108.25C42 108.802 41.5523 109.25 41 109.25C40.4477 109.25 40 108.802 40 108.25C40 107.698 40.4477 107.25 41 107.25C41.5523 107.25 42 107.698 42 108.25ZM49 109.25C49.5523 109.25 50 108.802 50 108.25C50 107.698 49.5523 107.25 49 107.25C48.4477 107.25 48 107.698 48 108.25C48 108.802 48.4477 109.25 49 109.25ZM58 108.25C58 108.802 57.5523 109.25 57 109.25C56.4477 109.25 56 108.802 56 108.25C56 107.698 56.4477 107.25 57 107.25C57.5523 107.25 58 107.698 58 108.25ZM65 109.25C65.5523 109.25 66 108.802 66 108.25C66 107.698 65.5523 107.25 65 107.25C64.4477 107.25 64 107.698 64 108.25C64 108.802 64.4477 109.25 65 109.25ZM74 108.25C74 108.802 73.5523 109.25 73 109.25C72.4477 109.25 72 108.802 72 108.25C72 107.698 72.4477 107.25 73 107.25C73.5523 107.25 74 107.698 74 108.25ZM82 108.25C82 108.802 81.5523 109.25 81 109.25C80.4477 109.25 80 108.802 80 108.25C80 107.698 80.4477 107.25 81 107.25C81.5523 107.25 82 107.698 82 108.25ZM70 40.25C70 40.8023 69.5523 41.25 69 41.25C68.4477 41.25 68 40.8023 68 40.25C68 39.6977 68.4477 39.25 69 39.25C69.5523 39.25 70 39.6977 70 40.25ZM6 104.25C6 104.802 5.55228 105.25 5 105.25C4.44772 105.25 4 104.802 4 104.25C4 103.698 4.44772 103.25 5 103.25C5.55228 103.25 6 103.698 6 104.25ZM13 105.25C13.5523 105.25 14 104.802 14 104.25C14 103.698 13.5523 103.25 13 103.25C12.4477 103.25 12 103.698 12 104.25C12 104.802 12.4477 105.25 13 105.25ZM22 104.25C22 104.802 21.5523 105.25 21 105.25C20.4477 105.25 20 104.802 20 104.25C20 103.698 20.4477 103.25 21 103.25C21.5523 103.25 22 103.698 22 104.25ZM29 105.25C29.5523 105.25 30 104.802 30 104.25C30 103.698 29.5523 103.25 29 103.25C28.4477 103.25 28 103.698 28 104.25C28 104.802 28.4477 105.25 29 105.25ZM38 104.25C38 104.802 37.5523 105.25 37 105.25C36.4477 105.25 36 104.802 36 104.25C36 103.698 36.4477 103.25 37 103.25C37.5523 103.25 38 103.698 38 104.25ZM45 105.25C45.5523 105.25 46 104.802 46 104.25C46 103.698 45.5523 103.25 45 103.25C44.4477 103.25 44 103.698 44 104.25C44 104.802 44.4477 105.25 45 105.25ZM54 104.25C54 104.802 53.5523 105.25 53 105.25C52.4477 105.25 52 104.802 52 104.25C52 103.698 52.4477 103.25 53 103.25C53.5523 103.25 54 103.698 54 104.25ZM61 105.25C61.5523 105.25 62 104.802 62 104.25C62 103.698 61.5523 103.25 61 103.25C60.4477 103.25 60 103.698 60 104.25C60 104.802 60.4477 105.25 61 105.25ZM70 104.25C70 104.802 69.5523 105.25 69 105.25C68.4477 105.25 68 104.802 68 104.25C68 103.698 68.4477 103.25 69 103.25C69.5523 103.25 70 103.698 70 104.25ZM78 104.25C78 104.802 77.5523 105.25 77 105.25C76.4477 105.25 76 104.802 76 104.25C76 103.698 76.4477 103.25 77 103.25C77.5523 103.25 78 103.698 78 104.25ZM62 40.25C62 40.8023 61.5523 41.25 61 41.25C60.4477 41.25 60 40.8023 60 40.25C60 39.6977 60.4477 39.25 61 39.25C61.5523 39.25 62 39.6977 62 40.25ZM10 100.25C10 100.802 9.55228 101.25 9 101.25C8.44772 101.25 8 100.802 8 100.25C8 99.6977 8.44772 99.25 9 99.25C9.55228 99.25 10 99.6977 10 100.25ZM17 101.25C17.5523 101.25 18 100.802 18 100.25C18 99.6977 17.5523 99.25 17 99.25C16.4477 99.25 16 99.6977 16 100.25C16 100.802 16.4477 101.25 17 101.25ZM26 100.25C26 100.802 25.5523 101.25 25 101.25C24.4477 101.25 24 100.802 24 100.25C24 99.6977 24.4477 99.25 25 99.25C25.5523 99.25 26 99.6977 26 100.25ZM33 101.25C33.5523 101.25 34 100.802 34 100.25C34 99.6977 33.5523 99.25 33 99.25C32.4477 99.25 32 99.6977 32 100.25C32 100.802 32.4477 101.25 33 101.25ZM42 100.25C42 100.802 41.5523 101.25 41 101.25C40.4477 101.25 40 100.802 40 100.25C40 99.6977 40.4477 99.25 41 99.25C41.5523 99.25 42 99.6977 42 100.25ZM49 101.25C49.5523 101.25 50 100.802 50 100.25C50 99.6977 49.5523 99.25 49 99.25C48.4477 99.25 48 99.6977 48 100.25C48 100.802 48.4477 101.25 49 101.25ZM58 100.25C58 100.802 57.5523 101.25 57 101.25C56.4477 101.25 56 100.802 56 100.25C56 99.6977 56.4477 99.25 57 99.25C57.5523 99.25 58 99.6977 58 100.25ZM65 101.25C65.5523 101.25 66 100.802 66 100.25C66 99.6977 65.5523 99.25 65 99.25C64.4477 99.25 64 99.6977 64 100.25C64 100.802 64.4477 101.25 65 101.25ZM74 100.25C74 100.802 73.5523 101.25 73 101.25C72.4477 101.25 72 100.802 72 100.25C72 99.6977 72.4477 99.25 73 99.25C73.5523 99.25 74 99.6977 74 100.25ZM82 100.25C82 100.802 81.5523 101.25 81 101.25C80.4477 101.25 80 100.802 80 100.25C80 99.6977 80.4477 99.25 81 99.25C81.5523 99.25 82 99.6977 82 100.25ZM54 40.25C54 40.8023 53.5523 41.25 53 41.25C52.4477 41.25 52 40.8023 52 40.25C52 39.6977 52.4477 39.25 53 39.25C53.5523 39.25 54 39.6977 54 40.25ZM6 96.25C6 96.8023 5.55228 97.25 5 97.25C4.44772 97.25 4 96.8023 4 96.25C4 95.6977 4.44772 95.25 5 95.25C5.55228 95.25 6 95.6977 6 96.25ZM13 97.25C13.5523 97.25 14 96.8023 14 96.25C14 95.6977 13.5523 95.25 13 95.25C12.4477 95.25 12 95.6977 12 96.25C12 96.8023 12.4477 97.25 13 97.25ZM22 96.25C22 96.8023 21.5523 97.25 21 97.25C20.4477 97.25 20 96.8023 20 96.25C20 95.6977 20.4477 95.25 21 95.25C21.5523 95.25 22 95.6977 22 96.25ZM29 97.25C29.5523 97.25 30 96.8023 30 96.25C30 95.6977 29.5523 95.25 29 95.25C28.4477 95.25 28 95.6977 28 96.25C28 96.8023 28.4477 97.25 29 97.25ZM38 96.25C38 96.8023 37.5523 97.25 37 97.25C36.4477 97.25 36 96.8023 36 96.25C36 95.6977 36.4477 95.25 37 95.25C37.5523 95.25 38 95.6977 38 96.25ZM45 97.25C45.5523 97.25 46 96.8023 46 96.25C46 95.6977 45.5523 95.25 45 95.25C44.4477 95.25 44 95.6977 44 96.25C44 96.8023 44.4477 97.25 45 97.25ZM54 96.25C54 96.8023 53.5523 97.25 53 97.25C52.4477 97.25 52 96.8023 52 96.25C52 95.6977 52.4477 95.25 53 95.25C53.5523 95.25 54 95.6977 54 96.25ZM61 97.25C61.5523 97.25 62 96.8023 62 96.25C62 95.6977 61.5523 95.25 61 95.25C60.4477 95.25 60 95.6977 60 96.25C60 96.8023 60.4477 97.25 61 97.25ZM70 96.25C70 96.8023 69.5523 97.25 69 97.25C68.4477 97.25 68 96.8023 68 96.25C68 95.6977 68.4477 95.25 69 95.25C69.5523 95.25 70 95.6977 70 96.25ZM78 96.25C78 96.8023 77.5523 97.25 77 97.25C76.4477 97.25 76 96.8023 76 96.25C76 95.6977 76.4477 95.25 77 95.25C77.5523 95.25 78 95.6977 78 96.25ZM46 40.25C46 40.8023 45.5523 41.25 45 41.25C44.4477 41.25 44 40.8023 44 40.25C44 39.6977 44.4477 39.25 45 39.25C45.5523 39.25 46 39.6977 46 40.25ZM10 92.25C10 92.8023 9.55228 93.25 9 93.25C8.44772 93.25 8 92.8023 8 92.25C8 91.6977 8.44772 91.25 9 91.25C9.55228 91.25 10 91.6977 10 92.25ZM17 93.25C17.5523 93.25 18 92.8023 18 92.25C18 91.6977 17.5523 91.25 17 91.25C16.4477 91.25 16 91.6977 16 92.25C16 92.8023 16.4477 93.25 17 93.25ZM26 92.25C26 92.8023 25.5523 93.25 25 93.25C24.4477 93.25 24 92.8023 24 92.25C24 91.6977 24.4477 91.25 25 91.25C25.5523 91.25 26 91.6977 26 92.25ZM33 93.25C33.5523 93.25 34 92.8023 34 92.25C34 91.6977 33.5523 91.25 33 91.25C32.4477 91.25 32 91.6977 32 92.25C32 92.8023 32.4477 93.25 33 93.25ZM42 92.25C42 92.8023 41.5523 93.25 41 93.25C40.4477 93.25 40 92.8023 40 92.25C40 91.6977 40.4477 91.25 41 91.25C41.5523 91.25 42 91.6977 42 92.25ZM49 93.25C49.5523 93.25 50 92.8023 50 92.25C50 91.6977 49.5523 91.25 49 91.25C48.4477 91.25 48 91.6977 48 92.25C48 92.8023 48.4477 93.25 49 93.25ZM58 92.25C58 92.8023 57.5523 93.25 57 93.25C56.4477 93.25 56 92.8023 56 92.25C56 91.6977 56.4477 91.25 57 91.25C57.5523 91.25 58 91.6977 58 92.25ZM65 93.25C65.5523 93.25 66 92.8023 66 92.25C66 91.6977 65.5523 91.25 65 91.25C64.4477 91.25 64 91.6977 64 92.25C64 92.8023 64.4477 93.25 65 93.25ZM74 92.25C74 92.8023 73.5523 93.25 73 93.25C72.4477 93.25 72 92.8023 72 92.25C72 91.6977 72.4477 91.25 73 91.25C73.5523 91.25 74 91.6977 74 92.25ZM82 92.25C82 92.8023 81.5523 93.25 81 93.25C80.4477 93.25 80 92.8023 80 92.25C80 91.6977 80.4477 91.25 81 91.25C81.5523 91.25 82 91.6977 82 92.25ZM38 40.25C38 40.8023 37.5523 41.25 37 41.25C36.4477 41.25 36 40.8023 36 40.25C36 39.6977 36.4477 39.25 37 39.25C37.5523 39.25 38 39.6977 38 40.25ZM6 88.25C6 88.8023 5.55228 89.25 5 89.25C4.44772 89.25 4 88.8023 4 88.25C4 87.6977 4.44772 87.25 5 87.25C5.55228 87.25 6 87.6977 6 88.25ZM13 89.25C13.5523 89.25 14 88.8023 14 88.25C14 87.6977 13.5523 87.25 13 87.25C12.4477 87.25 12 87.6977 12 88.25C12 88.8023 12.4477 89.25 13 89.25ZM22 88.25C22 88.8023 21.5523 89.25 21 89.25C20.4477 89.25 20 88.8023 20 88.25C20 87.6977 20.4477 87.25 21 87.25C21.5523 87.25 22 87.6977 22 88.25ZM29 89.25C29.5523 89.25 30 88.8023 30 88.25C30 87.6977 29.5523 87.25 29 87.25C28.4477 87.25 28 87.6977 28 88.25C28 88.8023 28.4477 89.25 29 89.25ZM38 88.25C38 88.8023 37.5523 89.25 37 89.25C36.4477 89.25 36 88.8023 36 88.25C36 87.6977 36.4477 87.25 37 87.25C37.5523 87.25 38 87.6977 38 88.25ZM45 89.25C45.5523 89.25 46 88.8023 46 88.25C46 87.6977 45.5523 87.25 45 87.25C44.4477 87.25 44 87.6977 44 88.25C44 88.8023 44.4477 89.25 45 89.25ZM54 88.25C54 88.8023 53.5523 89.25 53 89.25C52.4477 89.25 52 88.8023 52 88.25C52 87.6977 52.4477 87.25 53 87.25C53.5523 87.25 54 87.6977 54 88.25ZM61 89.25C61.5523 89.25 62 88.8023 62 88.25C62 87.6977 61.5523 87.25 61 87.25C60.4477 87.25 60 87.6977 60 88.25C60 88.8023 60.4477 89.25 61 89.25ZM70 88.25C70 88.8023 69.5523 89.25 69 89.25C68.4477 89.25 68 88.8023 68 88.25C68 87.6977 68.4477 87.25 69 87.25C69.5523 87.25 70 87.6977 70 88.25ZM78 88.25C78 88.8023 77.5523 89.25 77 89.25C76.4477 89.25 76 88.8023 76 88.25C76 87.6977 76.4477 87.25 77 87.25C77.5523 87.25 78 87.6977 78 88.25ZM30 40.25C30 40.8023 29.5523 41.25 29 41.25C28.4477 41.25 28 40.8023 28 40.25C28 39.6977 28.4477 39.25 29 39.25C29.5523 39.25 30 39.6977 30 40.25ZM10 84.25C10 84.8023 9.55228 85.25 9 85.25C8.44772 85.25 8 84.8023 8 84.25C8 83.6977 8.44772 83.25 9 83.25C9.55228 83.25 10 83.6977 10 84.25ZM17 85.25C17.5523 85.25 18 84.8023 18 84.25C18 83.6977 17.5523 83.25 17 83.25C16.4477 83.25 16 83.6977 16 84.25C16 84.8023 16.4477 85.25 17 85.25ZM26 84.25C26 84.8023 25.5523 85.25 25 85.25C24.4477 85.25 24 84.8023 24 84.25C24 83.6977 24.4477 83.25 25 83.25C25.5523 83.25 26 83.6977 26 84.25ZM33 85.25C33.5523 85.25 34 84.8023 34 84.25C34 83.6977 33.5523 83.25 33 83.25C32.4477 83.25 32 83.6977 32 84.25C32 84.8023 32.4477 85.25 33 85.25ZM42 84.25C42 84.8023 41.5523 85.25 41 85.25C40.4477 85.25 40 84.8023 40 84.25C40 83.6977 40.4477 83.25 41 83.25C41.5523 83.25 42 83.6977 42 84.25ZM49 85.25C49.5523 85.25 50 84.8023 50 84.25C50 83.6977 49.5523 83.25 49 83.25C48.4477 83.25 48 83.6977 48 84.25C48 84.8023 48.4477 85.25 49 85.25ZM58 84.25C58 84.8023 57.5523 85.25 57 85.25C56.4477 85.25 56 84.8023 56 84.25C56 83.6977 56.4477 83.25 57 83.25C57.5523 83.25 58 83.6977 58 84.25ZM65 85.25C65.5523 85.25 66 84.8023 66 84.25C66 83.6977 65.5523 83.25 65 83.25C64.4477 83.25 64 83.6977 64 84.25C64 84.8023 64.4477 85.25 65 85.25ZM74 84.25C74 84.8023 73.5523 85.25 73 85.25C72.4477 85.25 72 84.8023 72 84.25C72 83.6977 72.4477 83.25 73 83.25C73.5523 83.25 74 83.6977 74 84.25ZM82 84.25C82 84.8023 81.5523 85.25 81 85.25C80.4477 85.25 80 84.8023 80 84.25C80 83.6977 80.4477 83.25 81 83.25C81.5523 83.25 82 83.6977 82 84.25ZM22 40.25C22 40.8023 21.5523 41.25 21 41.25C20.4477 41.25 20 40.8023 20 40.25C20 39.6977 20.4477 39.25 21 39.25C21.5523 39.25 22 39.6977 22 40.25ZM6 80.25C6 80.8023 5.55228 81.25 5 81.25C4.44772 81.25 4 80.8023 4 80.25C4 79.6977 4.44772 79.25 5 79.25C5.55228 79.25 6 79.6977 6 80.25ZM13 81.25C13.5523 81.25 14 80.8023 14 80.25C14 79.6977 13.5523 79.25 13 79.25C12.4477 79.25 12 79.6977 12 80.25C12 80.8023 12.4477 81.25 13 81.25ZM22 80.25C22 80.8023 21.5523 81.25 21 81.25C20.4477 81.25 20 80.8023 20 80.25C20 79.6977 20.4477 79.25 21 79.25C21.5523 79.25 22 79.6977 22 80.25ZM29 81.25C29.5523 81.25 30 80.8023 30 80.25C30 79.6977 29.5523 79.25 29 79.25C28.4477 79.25 28 79.6977 28 80.25C28 80.8023 28.4477 81.25 29 81.25ZM38 80.25C38 80.8023 37.5523 81.25 37 81.25C36.4477 81.25 36 80.8023 36 80.25C36 79.6977 36.4477 79.25 37 79.25C37.5523 79.25 38 79.6977 38 80.25ZM45 81.25C45.5523 81.25 46 80.8023 46 80.25C46 79.6977 45.5523 79.25 45 79.25C44.4477 79.25 44 79.6977 44 80.25C44 80.8023 44.4477 81.25 45 81.25ZM54 80.25C54 80.8023 53.5523 81.25 53 81.25C52.4477 81.25 52 80.8023 52 80.25C52 79.6977 52.4477 79.25 53 79.25C53.5523 79.25 54 79.6977 54 80.25ZM61 81.25C61.5523 81.25 62 80.8023 62 80.25C62 79.6977 61.5523 79.25 61 79.25C60.4477 79.25 60 79.6977 60 80.25C60 80.8023 60.4477 81.25 61 81.25ZM70 80.25C70 80.8023 69.5523 81.25 69 81.25C68.4477 81.25 68 80.8023 68 80.25C68 79.6977 68.4477 79.25 69 79.25C69.5523 79.25 70 79.6977 70 80.25ZM78 80.25C78 80.8023 77.5523 81.25 77 81.25C76.4477 81.25 76 80.8023 76 80.25C76 79.6977 76.4477 79.25 77 79.25C77.5523 79.25 78 79.6977 78 80.25ZM14 40.25C14 40.8023 13.5523 41.25 13 41.25C12.4477 41.25 12 40.8023 12 40.25C12 39.6977 12.4477 39.25 13 39.25C13.5523 39.25 14 39.6977 14 40.25ZM10 76.25C10 76.8023 9.55228 77.25 9 77.25C8.44772 77.25 8 76.8023 8 76.25C8 75.6977 8.44772 75.25 9 75.25C9.55228 75.25 10 75.6977 10 76.25ZM17 77.25C17.5523 77.25 18 76.8023 18 76.25C18 75.6977 17.5523 75.25 17 75.25C16.4477 75.25 16 75.6977 16 76.25C16 76.8023 16.4477 77.25 17 77.25ZM26 76.25C26 76.8023 25.5523 77.25 25 77.25C24.4477 77.25 24 76.8023 24 76.25C24 75.6977 24.4477 75.25 25 75.25C25.5523 75.25 26 75.6977 26 76.25ZM33 77.25C33.5523 77.25 34 76.8023 34 76.25C34 75.6977 33.5523 75.25 33 75.25C32.4477 75.25 32 75.6977 32 76.25C32 76.8023 32.4477 77.25 33 77.25ZM42 76.25C42 76.8023 41.5523 77.25 41 77.25C40.4477 77.25 40 76.8023 40 76.25C40 75.6977 40.4477 75.25 41 75.25C41.5523 75.25 42 75.6977 42 76.25ZM49 77.25C49.5523 77.25 50 76.8023 50 76.25C50 75.6977 49.5523 75.25 49 75.25C48.4477 75.25 48 75.6977 48 76.25C48 76.8023 48.4477 77.25 49 77.25ZM58 76.25C58 76.8023 57.5523 77.25 57 77.25C56.4477 77.25 56 76.8023 56 76.25C56 75.6977 56.4477 75.25 57 75.25C57.5523 75.25 58 75.6977 58 76.25ZM65 77.25C65.5523 77.25 66 76.8023 66 76.25C66 75.6977 65.5523 75.25 65 75.25C64.4477 75.25 64 75.6977 64 76.25C64 76.8023 64.4477 77.25 65 77.25ZM74 76.25C74 76.8023 73.5523 77.25 73 77.25C72.4477 77.25 72 76.8023 72 76.25C72 75.6977 72.4477 75.25 73 75.25C73.5523 75.25 74 75.6977 74 76.25ZM82 76.25C82 76.8023 81.5523 77.25 81 77.25C80.4477 77.25 80 76.8023 80 76.25C80 75.6977 80.4477 75.25 81 75.25C81.5523 75.25 82 75.6977 82 76.25ZM6 40.25C6 40.8023 5.55228 41.25 5 41.25C4.44772 41.25 4 40.8023 4 40.25C4 39.6977 4.44772 39.25 5 39.25C5.55228 39.25 6 39.6977 6 40.25ZM6 72.25C6 72.8023 5.55228 73.25 5 73.25C4.44772 73.25 4 72.8023 4 72.25C4 71.6977 4.44772 71.25 5 71.25C5.55228 71.25 6 71.6977 6 72.25ZM13 73.25C13.5523 73.25 14 72.8023 14 72.25C14 71.6977 13.5523 71.25 13 71.25C12.4477 71.25 12 71.6977 12 72.25C12 72.8023 12.4477 73.25 13 73.25ZM22 72.25C22 72.8023 21.5523 73.25 21 73.25C20.4477 73.25 20 72.8023 20 72.25C20 71.6977 20.4477 71.25 21 71.25C21.5523 71.25 22 71.6977 22 72.25ZM29 73.25C29.5523 73.25 30 72.8023 30 72.25C30 71.6977 29.5523 71.25 29 71.25C28.4477 71.25 28 71.6977 28 72.25C28 72.8023 28.4477 73.25 29 73.25ZM38 72.25C38 72.8023 37.5523 73.25 37 73.25C36.4477 73.25 36 72.8023 36 72.25C36 71.6977 36.4477 71.25 37 71.25C37.5523 71.25 38 71.6977 38 72.25ZM45 73.25C45.5523 73.25 46 72.8023 46 72.25C46 71.6977 45.5523 71.25 45 71.25C44.4477 71.25 44 71.6977 44 72.25C44 72.8023 44.4477 73.25 45 73.25ZM54 72.25C54 72.8023 53.5523 73.25 53 73.25C52.4477 73.25 52 72.8023 52 72.25C52 71.6977 52.4477 71.25 53 71.25C53.5523 71.25 54 71.6977 54 72.25ZM61 73.25C61.5523 73.25 62 72.8023 62 72.25C62 71.6977 61.5523 71.25 61 71.25C60.4477 71.25 60 71.6977 60 72.25C60 72.8023 60.4477 73.25 61 73.25ZM70 72.25C70 72.8023 69.5523 73.25 69 73.25C68.4477 73.25 68 72.8023 68 72.25C68 71.6977 68.4477 71.25 69 71.25C69.5523 71.25 70 71.6977 70 72.25ZM78 72.25C78 72.8023 77.5523 73.25 77 73.25C76.4477 73.25 76 72.8023 76 72.25C76 71.6977 76.4477 71.25 77 71.25C77.5523 71.25 78 71.6977 78 72.25ZM9 69.25C9.55228 69.25 10 68.8023 10 68.25C10 67.6977 9.55228 67.25 9 67.25C8.44772 67.25 8 67.6977 8 68.25C8 68.8023 8.44772 69.25 9 69.25ZM18 68.25C18 68.8023 17.5523 69.25 17 69.25C16.4477 69.25 16 68.8023 16 68.25C16 67.6977 16.4477 67.25 17 67.25C17.5523 67.25 18 67.6977 18 68.25ZM25 69.25C25.5523 69.25 26 68.8023 26 68.25C26 67.6977 25.5523 67.25 25 67.25C24.4477 67.25 24 67.6977 24 68.25C24 68.8023 24.4477 69.25 25 69.25ZM34 68.25C34 68.8023 33.5523 69.25 33 69.25C32.4477 69.25 32 68.8023 32 68.25C32 67.6977 32.4477 67.25 33 67.25C33.5523 67.25 34 67.6977 34 68.25ZM41 69.25C41.5523 69.25 42 68.8023 42 68.25C42 67.6977 41.5523 67.25 41 67.25C40.4477 67.25 40 67.6977 40 68.25C40 68.8023 40.4477 69.25 41 69.25ZM50 68.25C50 68.8023 49.5523 69.25 49 69.25C48.4477 69.25 48 68.8023 48 68.25C48 67.6977 48.4477 67.25 49 67.25C49.5523 67.25 50 67.6977 50 68.25ZM57 69.25C57.5523 69.25 58 68.8023 58 68.25C58 67.6977 57.5523 67.25 57 67.25C56.4477 67.25 56 67.6977 56 68.25C56 68.8023 56.4477 69.25 57 69.25ZM66 68.25C66 68.8023 65.5523 69.25 65 69.25C64.4477 69.25 64 68.8023 64 68.25C64 67.6977 64.4477 67.25 65 67.25C65.5523 67.25 66 67.6977 66 68.25ZM73 69.25C73.5523 69.25 74 68.8023 74 68.25C74 67.6977 73.5523 67.25 73 67.25C72.4477 67.25 72 67.6977 72 68.25C72 68.8023 72.4477 69.25 73 69.25ZM81 69.25C81.5523 69.25 82 68.8023 82 68.25C82 67.6977 81.5523 67.25 81 67.25C80.4477 67.25 80 67.6977 80 68.25C80 68.8023 80.4477 69.25 81 69.25ZM6 64.25C6 64.8023 5.55228 65.25 5 65.25C4.44772 65.25 4 64.8023 4 64.25C4 63.6977 4.44772 63.25 5 63.25C5.55228 63.25 6 63.6977 6 64.25ZM13 65.25C13.5523 65.25 14 64.8023 14 64.25C14 63.6977 13.5523 63.25 13 63.25C12.4477 63.25 12 63.6977 12 64.25C12 64.8023 12.4477 65.25 13 65.25ZM22 64.25C22 64.8023 21.5523 65.25 21 65.25C20.4477 65.25 20 64.8023 20 64.25C20 63.6977 20.4477 63.25 21 63.25C21.5523 63.25 22 63.6977 22 64.25ZM29 65.25C29.5523 65.25 30 64.8023 30 64.25C30 63.6977 29.5523 63.25 29 63.25C28.4477 63.25 28 63.6977 28 64.25C28 64.8023 28.4477 65.25 29 65.25ZM38 64.25C38 64.8023 37.5523 65.25 37 65.25C36.4477 65.25 36 64.8023 36 64.25C36 63.6977 36.4477 63.25 37 63.25C37.5523 63.25 38 63.6977 38 64.25ZM45 65.25C45.5523 65.25 46 64.8023 46 64.25C46 63.6977 45.5523 63.25 45 63.25C44.4477 63.25 44 63.6977 44 64.25C44 64.8023 44.4477 65.25 45 65.25ZM54 64.25C54 64.8023 53.5523 65.25 53 65.25C52.4477 65.25 52 64.8023 52 64.25C52 63.6977 52.4477 63.25 53 63.25C53.5523 63.25 54 63.6977 54 64.25ZM61 65.25C61.5523 65.25 62 64.8023 62 64.25C62 63.6977 61.5523 63.25 61 63.25C60.4477 63.25 60 63.6977 60 64.25C60 64.8023 60.4477 65.25 61 65.25ZM70 64.25C70 64.8023 69.5523 65.25 69 65.25C68.4477 65.25 68 64.8023 68 64.25C68 63.6977 68.4477 63.25 69 63.25C69.5523 63.25 70 63.6977 70 64.25ZM78 64.25C78 64.8023 77.5523 65.25 77 65.25C76.4477 65.25 76 64.8023 76 64.25C76 63.6977 76.4477 63.25 77 63.25C77.5523 63.25 78 63.6977 78 64.25ZM9 61.25C9.55228 61.25 10 60.8023 10 60.25C10 59.6977 9.55228 59.25 9 59.25C8.44772 59.25 8 59.6977 8 60.25C8 60.8023 8.44772 61.25 9 61.25ZM18 60.25C18 60.8023 17.5523 61.25 17 61.25C16.4477 61.25 16 60.8023 16 60.25C16 59.6977 16.4477 59.25 17 59.25C17.5523 59.25 18 59.6977 18 60.25ZM25 61.25C25.5523 61.25 26 60.8023 26 60.25C26 59.6977 25.5523 59.25 25 59.25C24.4477 59.25 24 59.6977 24 60.25C24 60.8023 24.4477 61.25 25 61.25ZM34 60.25C34 60.8023 33.5523 61.25 33 61.25C32.4477 61.25 32 60.8023 32 60.25C32 59.6977 32.4477 59.25 33 59.25C33.5523 59.25 34 59.6977 34 60.25ZM41 61.25C41.5523 61.25 42 60.8023 42 60.25C42 59.6977 41.5523 59.25 41 59.25C40.4477 59.25 40 59.6977 40 60.25C40 60.8023 40.4477 61.25 41 61.25ZM50 60.25C50 60.8023 49.5523 61.25 49 61.25C48.4477 61.25 48 60.8023 48 60.25C48 59.6977 48.4477 59.25 49 59.25C49.5523 59.25 50 59.6977 50 60.25ZM57 61.25C57.5523 61.25 58 60.8023 58 60.25C58 59.6977 57.5523 59.25 57 59.25C56.4477 59.25 56 59.6977 56 60.25C56 60.8023 56.4477 61.25 57 61.25ZM66 60.25C66 60.8023 65.5523 61.25 65 61.25C64.4477 61.25 64 60.8023 64 60.25C64 59.6977 64.4477 59.25 65 59.25C65.5523 59.25 66 59.6977 66 60.25ZM73 61.25C73.5523 61.25 74 60.8023 74 60.25C74 59.6977 73.5523 59.25 73 59.25C72.4477 59.25 72 59.6977 72 60.25C72 60.8023 72.4477 61.25 73 61.25ZM81 61.25C81.5523 61.25 82 60.8023 82 60.25C82 59.6977 81.5523 59.25 81 59.25C80.4477 59.25 80 59.6977 80 60.25C80 60.8023 80.4477 61.25 81 61.25ZM6 56.25C6 56.8023 5.55228 57.25 5 57.25C4.44772 57.25 4 56.8023 4 56.25C4 55.6977 4.44772 55.25 5 55.25C5.55228 55.25 6 55.6977 6 56.25ZM13 57.25C13.5523 57.25 14 56.8023 14 56.25C14 55.6977 13.5523 55.25 13 55.25C12.4477 55.25 12 55.6977 12 56.25C12 56.8023 12.4477 57.25 13 57.25ZM22 56.25C22 56.8023 21.5523 57.25 21 57.25C20.4477 57.25 20 56.8023 20 56.25C20 55.6977 20.4477 55.25 21 55.25C21.5523 55.25 22 55.6977 22 56.25ZM29 57.25C29.5523 57.25 30 56.8023 30 56.25C30 55.6977 29.5523 55.25 29 55.25C28.4477 55.25 28 55.6977 28 56.25C28 56.8023 28.4477 57.25 29 57.25ZM38 56.25C38 56.8023 37.5523 57.25 37 57.25C36.4477 57.25 36 56.8023 36 56.25C36 55.6977 36.4477 55.25 37 55.25C37.5523 55.25 38 55.6977 38 56.25ZM45 57.25C45.5523 57.25 46 56.8023 46 56.25C46 55.6977 45.5523 55.25 45 55.25C44.4477 55.25 44 55.6977 44 56.25C44 56.8023 44.4477 57.25 45 57.25ZM54 56.25C54 56.8023 53.5523 57.25 53 57.25C52.4477 57.25 52 56.8023 52 56.25C52 55.6977 52.4477 55.25 53 55.25C53.5523 55.25 54 55.6977 54 56.25ZM61 57.25C61.5523 57.25 62 56.8023 62 56.25C62 55.6977 61.5523 55.25 61 55.25C60.4477 55.25 60 55.6977 60 56.25C60 56.8023 60.4477 57.25 61 57.25ZM70 56.25C70 56.8023 69.5523 57.25 69 57.25C68.4477 57.25 68 56.8023 68 56.25C68 55.6977 68.4477 55.25 69 55.25C69.5523 55.25 70 55.6977 70 56.25ZM78 56.25C78 56.8023 77.5523 57.25 77 57.25C76.4477 57.25 76 56.8023 76 56.25C76 55.6977 76.4477 55.25 77 55.25C77.5523 55.25 78 55.6977 78 56.25ZM9 53.25C9.55228 53.25 10 52.8023 10 52.25C10 51.6977 9.55228 51.25 9 51.25C8.44772 51.25 8 51.6977 8 52.25C8 52.8023 8.44772 53.25 9 53.25ZM18 52.25C18 52.8023 17.5523 53.25 17 53.25C16.4477 53.25 16 52.8023 16 52.25C16 51.6977 16.4477 51.25 17 51.25C17.5523 51.25 18 51.6977 18 52.25ZM25 53.25C25.5523 53.25 26 52.8023 26 52.25C26 51.6977 25.5523 51.25 25 51.25C24.4477 51.25 24 51.6977 24 52.25C24 52.8023 24.4477 53.25 25 53.25ZM34 52.25C34 52.8023 33.5523 53.25 33 53.25C32.4477 53.25 32 52.8023 32 52.25C32 51.6977 32.4477 51.25 33 51.25C33.5523 51.25 34 51.6977 34 52.25ZM41 53.25C41.5523 53.25 42 52.8023 42 52.25C42 51.6977 41.5523 51.25 41 51.25C40.4477 51.25 40 51.6977 40 52.25C40 52.8023 40.4477 53.25 41 53.25ZM50 52.25C50 52.8023 49.5523 53.25 49 53.25C48.4477 53.25 48 52.8023 48 52.25C48 51.6977 48.4477 51.25 49 51.25C49.5523 51.25 50 51.6977 50 52.25ZM57 53.25C57.5523 53.25 58 52.8023 58 52.25C58 51.6977 57.5523 51.25 57 51.25C56.4477 51.25 56 51.6977 56 52.25C56 52.8023 56.4477 53.25 57 53.25ZM66 52.25C66 52.8023 65.5523 53.25 65 53.25C64.4477 53.25 64 52.8023 64 52.25C64 51.6977 64.4477 51.25 65 51.25C65.5523 51.25 66 51.6977 66 52.25ZM73 53.25C73.5523 53.25 74 52.8023 74 52.25C74 51.6977 73.5523 51.25 73 51.25C72.4477 51.25 72 51.6977 72 52.25C72 52.8023 72.4477 53.25 73 53.25ZM81 53.25C81.5523 53.25 82 52.8023 82 52.25C82 51.6977 81.5523 51.25 81 51.25C80.4477 51.25 80 51.6977 80 52.25C80 52.8023 80.4477 53.25 81 53.25ZM6 48.25C6 48.8023 5.55228 49.25 5 49.25C4.44772 49.25 4 48.8023 4 48.25C4 47.6977 4.44772 47.25 5 47.25C5.55228 47.25 6 47.6977 6 48.25ZM13 49.25C13.5523 49.25 14 48.8023 14 48.25C14 47.6977 13.5523 47.25 13 47.25C12.4477 47.25 12 47.6977 12 48.25C12 48.8023 12.4477 49.25 13 49.25ZM22 48.25C22 48.8023 21.5523 49.25 21 49.25C20.4477 49.25 20 48.8023 20 48.25C20 47.6977 20.4477 47.25 21 47.25C21.5523 47.25 22 47.6977 22 48.25ZM29 49.25C29.5523 49.25 30 48.8023 30 48.25C30 47.6977 29.5523 47.25 29 47.25C28.4477 47.25 28 47.6977 28 48.25C28 48.8023 28.4477 49.25 29 49.25ZM38 48.25C38 48.8023 37.5523 49.25 37 49.25C36.4477 49.25 36 48.8023 36 48.25C36 47.6977 36.4477 47.25 37 47.25C37.5523 47.25 38 47.6977 38 48.25ZM45 49.25C45.5523 49.25 46 48.8023 46 48.25C46 47.6977 45.5523 47.25 45 47.25C44.4477 47.25 44 47.6977 44 48.25C44 48.8023 44.4477 49.25 45 49.25ZM54 48.25C54 48.8023 53.5523 49.25 53 49.25C52.4477 49.25 52 48.8023 52 48.25C52 47.6977 52.4477 47.25 53 47.25C53.5523 47.25 54 47.6977 54 48.25ZM61 49.25C61.5523 49.25 62 48.8023 62 48.25C62 47.6977 61.5523 47.25 61 47.25C60.4477 47.25 60 47.6977 60 48.25C60 48.8023 60.4477 49.25 61 49.25ZM70 48.25C70 48.8023 69.5523 49.25 69 49.25C68.4477 49.25 68 48.8023 68 48.25C68 47.6977 68.4477 47.25 69 47.25C69.5523 47.25 70 47.6977 70 48.25ZM78 48.25C78 48.8023 77.5523 49.25 77 49.25C76.4477 49.25 76 48.8023 76 48.25C76 47.6977 76.4477 47.25 77 47.25C77.5523 47.25 78 47.6977 78 48.25ZM9 45.25C9.55228 45.25 10 44.8023 10 44.25C10 43.6977 9.55228 43.25 9 43.25C8.44772 43.25 8 43.6977 8 44.25C8 44.8023 8.44772 45.25 9 45.25ZM18 44.25C18 44.8023 17.5523 45.25 17 45.25C16.4477 45.25 16 44.8023 16 44.25C16 43.6977 16.4477 43.25 17 43.25C17.5523 43.25 18 43.6977 18 44.25ZM25 45.25C25.5523 45.25 26 44.8023 26 44.25C26 43.6977 25.5523 43.25 25 43.25C24.4477 43.25 24 43.6977 24 44.25C24 44.8023 24.4477 45.25 25 45.25ZM34 44.25C34 44.8023 33.5523 45.25 33 45.25C32.4477 45.25 32 44.8023 32 44.25C32 43.6977 32.4477 43.25 33 43.25C33.5523 43.25 34 43.6977 34 44.25ZM41 45.25C41.5523 45.25 42 44.8023 42 44.25C42 43.6977 41.5523 43.25 41 43.25C40.4477 43.25 40 43.6977 40 44.25C40 44.8023 40.4477 45.25 41 45.25ZM50 44.25C50 44.8023 49.5523 45.25 49 45.25C48.4477 45.25 48 44.8023 48 44.25C48 43.6977 48.4477 43.25 49 43.25C49.5523 43.25 50 43.6977 50 44.25ZM57 45.25C57.5523 45.25 58 44.8023 58 44.25C58 43.6977 57.5523 43.25 57 43.25C56.4477 43.25 56 43.6977 56 44.25C56 44.8023 56.4477 45.25 57 45.25ZM66 44.25C66 44.8023 65.5523 45.25 65 45.25C64.4477 45.25 64 44.8023 64 44.25C64 43.6977 64.4477 43.25 65 43.25C65.5523 43.25 66 43.6977 66 44.25ZM73 45.25C73.5523 45.25 74 44.8023 74 44.25C74 43.6977 73.5523 43.25 73 43.25C72.4477 43.25 72 43.6977 72 44.25C72 44.8023 72.4477 45.25 73 45.25ZM81 45.25C81.5523 45.25 82 44.8023 82 44.25C82 43.6977 81.5523 43.25 81 43.25C80.4477 43.25 80 43.6977 80 44.25C80 44.8023 80.4477 45.25 81 45.25Z" fill="black"/>
</g>
<path d="M4 50.5C4 50.2239 4.22386 50 4.5 50H25.5C25.7761 50 26 50.2239 26 50.5V59.5C26 59.7761 25.7761 60 25.5 60H4.5C4.22386 60 4 59.7761 4 59.5V50.5Z" fill="#0076D6"/>
<path d="M7.25 54H22.75V56H7.25V54Z" fill="white"/>
<path d="M4 20H30V24H4V20Z" fill="black"/>
<path d="M4 26H40V30H4V26Z" fill="#575757"/>
</svg>
