<svg xmlns="http://www.w3.org/2000/svg" fill="none" viewBox="0 0 320 320"><g id="25-tax-free"><path id="lg-icon-fill-primary" fill="#42aeea" d="M148 88c-46.392 0-84 37.608-84 84s37.608 84 84 84 84-37.608 84-84h40c0 68.483-55.517 124-124 124S24 240.483 24 172 79.517 48 148 48zm24-64c68.483 0 124 55.517 124 124h-40c0-46.392-37.608-84-84-84z"/><path id="Outlines" fill="#1d1d1b" fill-rule="evenodd" d="M172 20c70.692 0 128 57.308 128 128a4 4 0 0 1-4 4h-21.556A129 129 0 0 1 276 172c0 70.692-57.308 128-128 128S20 242.692 20 172 77.308 44 148 44a129 129 0 0 1 20 1.556V24a4 4 0 0 1 4-4m-28 32.067C79.578 54.177 28 107.064 28 172c0 66.274 53.726 120 120 120 64.936 0 117.823-51.578 119.933-116h-32.024c-2.091 46.745-40.649 84-87.909 84-48.601 0-88-39.399-88-88 0-47.26 37.256-85.818 84-87.91zM148 92c-44.183 0-80 35.817-80 80s35.817 80 80 80 80-35.817 80-80-35.817-80-80-80m4-7.91c45.419 2.033 81.877 38.491 83.909 83.91h32.024a120.5 120.5 0 0 0-1.597-16H256a4 4 0 0 1-4-4c0-44.183-35.817-80-80-80a4 4 0 0 1-4-4V53.663a120.5 120.5 0 0 0-16-1.596zm24-24c45.419 2.033 81.877 38.491 83.909 83.91h32.024C289.866 80.906 239.094 30.134 176 28.067z" clip-rule="evenodd"/></g></svg>