<svg xmlns="http://www.w3.org/2000/svg" fill="none" viewBox="0 0 320 320"><g id="accessible" fill-rule="evenodd" clip-rule="evenodd"><path id="lg-icon-fill-primary" fill="#42aeea" d="M160 40c66.274 0 120 53.726 120 120s-53.726 120-120 120S40 226.274 40 160 93.726 40 160 40m76 66.078c0-5.156-4.78-8.993-9.823-7.92C209.927 101.611 177.511 108 160 108s-49.927-6.388-66.177-9.843C88.78 97.085 84 100.922 84 106.078a8.02 8.02 0 0 0 5.66 7.663L136 128l-15.052 122.297a8.776 8.776 0 0 0 17.212 3.243L160 168l21.84 85.54a8.776 8.776 0 0 0 17.212-3.243L184 128l46.34-14.259a8.02 8.02 0 0 0 5.66-7.663M160 60c-8.837 0-16 7.163-16 16s7.163 16 16 16 16-7.163 16-16-7.163-16-16-16"/><g id="Outlines" fill="#1d1d1b"><path d="M225.423 94.206C232.89 92.62 240 98.291 240 105.974c0 5.336-3.54 10.025-8.671 11.49l-46.943 13.404 14.607 118.965h-.002a12.58 12.58 0 0 1-9.431 13.79c-6.889 1.721-13.84-2.592-15.35-9.531l-.004-.02L160 187.193l-14.206 66.879-.004.02c-1.51 6.939-8.461 11.252-15.35 9.531a12.58 12.58 0 0 1-9.432-13.79l14.605-118.965-46.942-13.404A11.95 11.95 0 0 1 80 105.974c0-7.683 7.11-13.355 14.577-11.768 16.342 3.474 48.39 9.767 65.423 9.767s49.081-6.293 65.423-9.767M232 105.974c0-2.544-2.374-4.483-4.914-3.943-16.105 3.424-49.042 9.942-67.086 9.942s-50.981-6.518-67.086-9.942c-2.54-.54-4.914 1.399-4.914 3.943a3.95 3.95 0 0 0 2.868 3.797l50.231 14.344a4 4 0 0 1 2.871 4.334l-15.023 122.359-.003.025a4.587 4.587 0 0 0 9.029 1.559l18.114-85.283.041-.171a4 4 0 0 1 7.785.171l18.114 85.283.058.233a4.586 4.586 0 0 0 8.971-1.792l-.003-.025-15.023-122.359a4 4 0 0 1 2.871-4.334l50.231-14.344a3.95 3.95 0 0 0 2.868-3.797"/><path d="M160 55.998c11.044 0 20 8.948 20 19.991s-8.956 19.992-20 19.992-20-8.949-20-19.992 8.956-19.991 20-19.991m0 8c-6.629 0-12 5.37-12 11.991s5.371 11.992 12 11.992 12-5.371 12-11.992c0-6.62-5.371-11.991-12-11.991"/><path d="M160 16c79.529 0 144 64.471 144 144s-64.471 144-144 144S16 239.529 16 160 80.471 16 160 16m0 8C84.89 24 24 84.89 24 160c0 75.111 60.89 136 136 136 75.111 0 136-60.889 136-136S235.111 24 160 24"/></g></g></svg>