<svg xmlns="http://www.w3.org/2000/svg" fill="none" viewBox="0 0 320 320"><g id="aeroplane"><path id="lg-icon-fill-primary" fill="#42aeea" d="m147.673 81.36 38.561 18.658-46.484 46.485-36.286-30.48c11.5-8.007 28.015-20.158 43.322-33.805q.465-.415.887-.858m72.503 52.599-46.485 46.485 30.482 36.287c8.006-11.499 20.158-28.015 33.805-43.321q.416-.465.858-.888zM45.047 184.614l50.145 16.715a600 600 0 0 0-13.046 21.02 421 421 0 0 1 8.569-9.517c4.512-4.854 12.12-4.846 16.807-.159 4.686 4.686 4.694 12.294-.16 16.806a418 418 0 0 1-9.516 8.568 599 599 0 0 0 21.006-13.037l16.704 50.113-11.313 11.314-33.137-42.605c-15.833 13.351-30.59 24.212-36.913 28.761-1.88 1.352-4.432 1.113-6.068-.523-1.637-1.637-1.876-4.19-.524-6.068 4.55-6.323 15.411-21.082 28.764-36.917l-42.632-33.157zm181.812 59.124-11.514-13.707c9.834-6.806 23.772-16.931 37.507-28.542l2.692 5.564c-11.204 12.821-21.273 26.243-28.685 36.685m12.278 14.617c8.539-6.023 19.291-13.967 30.136-22.93l24.689 51.024-16.971 16.971zM118.707 67.344c-11.611 13.735-21.736 27.673-28.543 37.507L76.457 93.337c10.443-7.412 23.864-17.482 36.686-28.686zM84.77 50.923c-8.963 10.845-16.907 21.596-22.93 30.136L16.777 43.205l16.97-16.971z"/><path id="Outlines" fill="#1d1d1b" fill-rule="evenodd" d="M282.696 37.597c-4.563-4.563-11.48-6.178-17.608-3.485-11.91 5.235-35.786 17.182-54.566 35.963L185.417 95.18l-31.761-15.37c3.805-7.322 2.415-16.578-3.708-22.701-7.005-7.005-18.109-7.815-25.729-1.74 1.373-6.299-.5-13.175-5.383-18.06-7.771-7.77-20.587-7.917-28.094.502a361 361 0 0 0-7.044 8.149l-50.77-24.566L10.862 43.46l45.6 38.305a511 511 0 0 0-6.9 10.172c-2.796 4.236-2.117 9.746 1.392 13.255s9.02 4.187 13.255 1.391a520 520 0 0 0 12.036-8.201l8.565 7.195a484 484 0 0 0-4.135 6.159c-2.796 4.235-2.118 9.746 1.39 13.255 3.51 3.509 9.02 4.187 13.256 1.391a502 502 0 0 0 7.908-5.333l30.608 25.71-6.754 6.753c-11.585 11.586-23.407 27.676-33.548 43.048l-49.569-16.523-16.265 16.266 42.936 33.394a645 645 0 0 0-26.283 33.967c-2.526 3.512-2.044 8.247.942 11.233 2.987 2.986 7.721 3.469 11.233.942a645 645 0 0 0 33.964-26.279l33.374 42.909 16.266-16.266-16.512-49.536c15.375-10.142 31.471-21.968 43.06-33.557l6.754-6.753 25.711 30.608a493 493 0 0 0-5.334 7.908c-2.796 4.236-2.117 9.746 1.392 13.255s9.019 4.187 13.255 1.391a486 486 0 0 0 6.158-4.135l7.196 8.566a517 517 0 0 0-8.202 12.036c-2.796 4.235-2.118 9.746 1.391 13.255s9.02 4.187 13.256 1.391a511 511 0 0 0 10.172-6.9l38.304 45.6 22.066-22.066-24.565-50.769a366 366 0 0 0 8.148-7.045c8.419-7.506 8.272-20.323.502-28.093-4.884-4.884-11.761-6.757-18.06-5.384 6.075-7.619 5.266-18.724-1.739-25.729-6.123-6.123-15.38-7.513-22.702-3.707l-15.369-31.763 25.105-25.104c19.422-19.423 31.069-42.95 36.111-54.697 2.612-6.084.959-12.885-3.535-17.38m-172.679 78.707c10.911-7.75 25.028-18.365 38.366-30.157l31.045 15.022-39.913 39.913zm-75.454-85.23 43.905 21.243c-6.555 8.127-12.472 16.053-17.375 22.89l-38.405-32.26zm54.824 67.9-6.413-5.387c7.432-5.379 15.978-11.847 24.597-18.961-7.041 8.858-13.268 17.364-18.184 24.348m144.661 72.838c-11.792 13.339-22.407 27.455-30.157 38.366l-24.778-29.498 39.913-39.913zm-7.44 65.41-5.387-6.414c6.985-4.916 15.491-11.143 24.35-18.185-7.115 8.62-13.583 17.167-18.963 24.599m50.639 60.284L244.988 259.1c6.838-4.903 14.763-10.819 22.89-17.374l21.244 43.904zM96.615 244.401a479 479 0 0 0 3.583-3.097 615 615 0 0 0 16.489-10.141l14.293 42.881-6.362 6.361zm18.312-21.613a15.87 15.87 0 0 0-4.577-12.944 15.88 15.88 0 0 0-12.943-4.577c10.501-16.275 23.113-33.877 35.333-46.097l83.439-83.439c9.694-9.694 20.903-17.515 30.966-23.446 2.035 4.132 5.309 8.336 8.869 11.896 3.598 3.597 7.853 6.903 12.026 8.933-5.858 9.9-13.668 20.993-23.577 30.902l-83.439 83.438c-12.22 12.221-29.821 24.833-46.097 35.334M271.976 66.127a186 186 0 0 0 6.904-14.307c1.218-2.836.529-6.196-1.841-8.566-2.403-2.404-5.841-3.088-8.732-1.818a203 203 0 0 0-14.176 6.919c1.451 3.112 4.154 6.783 7.54 10.169 3.435 3.435 7.165 6.168 10.305 7.603M78.891 219.996a615 615 0 0 1 10.148-16.501l-42.912-14.304-6.361 6.361 36.03 28.024a487 487 0 0 1 3.095-3.58m14.754-4.441c2.906-3.126 7.899-3.204 11.048-.054s3.073 8.142-.054 11.048c-20.878 19.406-44.35 36.73-52.782 42.797-.246.177-.617.182-.904-.105s-.282-.657-.105-.903c6.068-8.433 23.391-31.905 42.797-52.783m147.319-39.483c4.254-4.772 11.739-4.894 16.465-.168s4.604 12.21-.169 16.465c-20.724 18.478-43.739 34.224-53.208 40.475-.971.641-2.289.531-3.192-.372-.902-.902-1.012-2.22-.371-3.191 6.25-9.469 21.997-32.484 40.475-53.209m19.798 31.113c4.255-4.772 11.74-4.895 16.466-.169 4.726 4.727 4.604 12.211-.169 16.466-20.724 18.478-43.74 34.224-53.208 40.475-.971.641-2.289.53-3.192-.372-.902-.902-1.012-2.22-.371-3.191 6.25-9.469 21.996-32.484 40.474-53.209M144.291 62.767c-4.726-4.727-12.21-4.604-16.465.168-18.478 20.725-34.224 43.74-40.475 53.209-.64.971-.53 2.289.372 3.191s2.22 1.013 3.191.372c9.469-6.251 32.484-21.997 53.209-40.475 4.772-4.255 4.894-11.74.168-16.465m-47.577-19.63c4.254-4.773 11.739-4.895 16.465-.17 4.726 4.727 4.604 12.211-.169 16.466-20.724 18.478-43.74 34.224-53.208 40.475-.971.641-2.29.531-3.192-.372-.902-.902-1.012-2.22-.371-3.191 6.25-9.469 21.997-32.484 40.475-53.209" clip-rule="evenodd"/></g></svg>