<svg xmlns="http://www.w3.org/2000/svg" fill="none" viewBox="0 0 320 320"><g id="announcement" fill-rule="evenodd" clip-rule="evenodd"><path id="lg-icon-fill-primary" fill="#42aeea" d="m152 188-8 32h-20v-32zM124 84v104H40c-11.046 0-20-8.954-20-20v-64c0-11.046 8.954-20 20-20zm144 24h22c5.523 0 10 4.477 10 10v28c0 5.523-4.477 10-10 10h-22z"/><path id="Outlines" fill="#1d1d1b" d="M272 28v76l18 .001c7.628 0 13.83 6.1 13.997 13.687L304 118v28c0 7.732-6.268 14-14 14l-18-.001V244c0 3.236-3.643 5.133-6.294 3.277L186.74 192l-31.617-.001-8 32.001-19.123-.001V296H92.608a12 12 0 0 1-11.784-9.734l-18.129-94.267L40 192c-13.122 0-23.785-10.531-23.997-23.603L16 168v-64c0-13.255 10.745-24 24-24h146.739l78.967-55.277C268.357 22.867 272 24.764 272 28M120 192H70.842l17.838 92.756a4 4 0 0 0 3.724 3.239l.204.005H120zM264 35.681l-73.706 51.596A4 4 0 0 1 188 88h-60v96h60c.739 0 1.461.205 2.088.589l.206.134L264 236.318zM146.876 192H128v24h12.876zM120 88H40c-8.731 0-15.83 6.994-15.997 15.685L24 104v64c0 8.837 7.163 16 16 16h80zm170 24h-18v40h18a6 6 0 0 0 6-6v-28a6 6 0 0 0-6-6"/></g></svg>