<svg xmlns="http://www.w3.org/2000/svg" fill="none" viewBox="0 0 320 320"><g id="annuity"><path id="lg-icon-fill-primary" fill="#42aeea" d="M288 52H32a4 4 0 0 0-4 4v44h264V56a4 4 0 0 0-4-4m-160 80H64v64h64z"/><g id="Outlines" fill="#1d1d1b"><path d="M252 248.385c0-4.751 3.7-8.385 8-8.385s8 3.634 8 8.385a4 4 0 0 0 8 0c0-8.929-7.045-16.385-16-16.385s-16 7.456-16 16.385c0 1.263.239 2.784.513 4.234.26 1.382.605 2.966.962 4.606l.101.461q.249 1.138.498 2.314H244a4 4 0 0 0 0 8h3.506q.078.599.142 1.19c.425 3.904.289 6.906-.428 8.772-.325.844-.701 1.276-1.047 1.519-.334.236-.955.519-2.173.519a4 4 0 0 0 0 8h28a4 4 0 0 0 0-8h-17.022c1.135-3.582 1.041-7.833.624-11.675l-.037-.325H264a4 4 0 0 0 0-8h-9.756c-.285-1.408-.578-2.76-.851-4.016l-.095-.436c-.365-1.675-.686-3.146-.924-4.41-.27-1.432-.374-2.307-.374-2.753"/><path fill-rule="evenodd" d="M260 24c2.208 0 4 1.863 4 4.159v19.84l23.261.001c4.741 0 8.599 3.832 8.735 8.613l.004.261v165.603c9.861 9.463 16 22.776 16 37.523 0 28.719-23.281 52-52 52-14.747 0-28.06-6.139-37.523-16H32.739c-4.738 0-8.599-3.832-8.735-8.613l-.004-.261V56.874c0-4.814 3.776-8.732 8.481-8.87L32.74 48 56 47.999v-19.84C56 25.863 57.792 24 60 24s4 1.863 4 4.159v19.84h32v-19.84C96 25.863 97.792 24 100 24s4 1.863 4 4.159v19.84h32v-19.84c0-2.296 1.792-4.159 4-4.159s4 1.863 4 4.159v19.84h32v-19.84c0-2.296 1.792-4.159 4-4.159s4 1.863 4 4.159v19.84h32v-19.84c0-2.296 1.792-4.159 4-4.159s4 1.863 4 4.159v19.84h32v-19.84c0-2.296 1.792-4.159 4-4.159m-43.825 264a51.7 51.7 0 0 1-8.023-24H64c-.76 0-1.471-.226-2.077-.618C60.767 262.673 60 261.423 60 260l.002-.108-.001-.072L60 132.25l.002-.142-.002-.079V132c0-1.42.764-2.668 1.916-3.378A3.8 3.8 0 0 1 64 128h192c.754 0 1.46.222 2.062.608 1.164.707 1.938 1.962 1.938 3.392l-.002.109.001.049.001.092V208c10.309 0 19.918 3 28 8.175V104H32v183.675c0 .156.109.288.253.318l.064.007zM252 208.612V200h-56v56h12.152c1.839-24.181 20.217-43.74 43.848-47.388M68 200v56h56v-56zm120 0h-56v56h56zM68 136v56h56v-56zm120 0h-56v56h56zm8 0v56h56v-56zm91.681-80L264 55.999v19.842c0 2.296-1.792 4.159-4 4.159s-4-1.863-4-4.159V56h-32v19.842c0 2.296-1.792 4.159-4 4.159s-4-1.863-4-4.159V56h-32v19.842c0 2.296-1.792 4.159-4 4.159s-4-1.863-4-4.159V56h-32v19.842c0 2.296-1.792 4.159-4 4.159s-4-1.863-4-4.159V56h-32v19.842c0 2.296-1.792 4.159-4 4.159s-4-1.863-4-4.159V56H64v19.842C64 78.137 62.208 80 60 80s-4-1.863-4-4.159V56H32.317a.32.32 0 0 0-.31.26l-.007.065V96h256V56.325a.323.323 0 0 0-.319-.325M260 304c24.301 0 44-19.699 44-44s-19.699-44-44-44-44 19.699-44 44 19.699 44 44 44" clip-rule="evenodd"/></g></g></svg>