<svg xmlns="http://www.w3.org/2000/svg" fill="none" viewBox="0 0 320 320"><g id="app-download" fill-rule="evenodd" clip-rule="evenodd"><path id="lg-icon-fill-primary" fill="#42aeea" d="M236 40c33.137 0 60 26.863 60 60v152c0 33.137-26.863 60-60 60H84c-33.137 0-60-26.863-60-60V100c0-33.137 26.863-60 60-60zm0 24H84c-19.882 0-36 16.118-36 36v152c0 19.882 16.118 36 36 36h152c19.882 0 36-16.118 36-36V100c0-19.882-16.118-36-36-36"/><path id="Outlines" fill="#1d1d1b" d="M160 8a4 4 0 0 1 4 4l-.001 28H236c33.137 0 60 26.863 60 60v152c0 33.137-26.863 60-60 60H84c-33.137 0-60-26.863-60-60V100c0-33.137 26.863-60 60-60h71.999L156 12a4 4 0 0 1 4-4m76 40h-72.001v16H236c19.882 0 36 16.118 36 36v152c0 19.882-16.118 36-36 36H84c-19.882 0-36-16.118-36-36V100c0-19.882 16.118-36 36-36h71.999V48H84c-28.719 0-52 23.281-52 52v152c0 28.719 23.281 52 52 52h152c28.719 0 52-23.281 52-52V100c0-28.719-23.281-52-52-52m0 24h-72.001L164 210.466l57.296-57.294a4 4 0 1 1 5.657 5.656l-63.471 63.473q-.225.348-.529.652a3.98 3.98 0 0 1-2.89 1.171 4.02 4.02 0 0 1-3.421-1.823l-63.47-63.473a4 4 0 0 1 0-5.656 4 4 0 0 1 5.656 0L156 210.342 155.999 72H84c-15.464 0-28 12.536-28 28v152c0 15.464 12.536 28 28 28h152c15.464 0 28-12.536 28-28V100c0-15.464-12.536-28-28-28"/></g></svg>