<svg xmlns="http://www.w3.org/2000/svg" fill="none" viewBox="0 0 320 320"><g id="apparel"><path id="lg-icon-fill-primary" fill="#42aeea" d="M214.937 76.648C207.172 99.532 185.509 116 160 116s-47.172-16.468-54.937-39.353l20.475-6.204C130.014 85.233 143.75 96 160 96s29.986-10.767 34.462-25.557zM276 163.5l15.5-62.5-23.5-8-16 63zM236 292l-2-24H86l-2 24zM36.003 132.01 44 163.5l23.5-8L52 93l-23.884 7.464z"/><path id="Outlines" fill="#1d1d1b" fill-rule="evenodd" d="M148 32a11.95 11.95 0 0 1 3.515-8.485c4.686-4.687 12.284-4.687 16.97 0 4.686 4.686 4.686 12.284 0 16.97-.657.658-1.59 1.509-2.733 2.551l-.22.201c-1.204 1.099-2.575 2.354-3.857 3.62-1.265 1.248-2.551 2.61-3.544 3.93-.498.662-.989 1.402-1.37 2.184-.361.742-.762 1.801-.762 3.029v12.662l-25.144 4.572a32 32 0 0 1-1.489-3.95 3.997 3.997 0 0 0-4.988-2.669L26.84 96.172a4 4 0 0 0-2.72 4.798l16 64a4 4 0 0 0 5.145 2.825l42.432-14.144-7.692 138.139A4 4 0 0 0 84 296h152a4.003 4.003 0 0 0 3.994-4.21l-7.691-138.139 42.432 14.144a4 4 0 0 0 5.145-2.825l16-64a4 4 0 0 0-2.72-4.798l-97.538-29.557a4 4 0 0 0-4.989 2.67 32 32 0 0 1-1.488 3.949l-25.146-4.572V56.384c.093-.17.258-.432.526-.788.639-.851 1.597-1.888 2.769-3.045 1.157-1.142 2.419-2.3 3.63-3.404l.277-.253c1.079-.983 2.146-1.957 2.941-2.752 7.81-7.81 7.81-20.474 0-28.284-7.811-7.81-20.474-7.81-28.284 0A19.95 19.95 0 0 0 140 32a4 4 0 0 0 8 0m15.929 24.528-.01.024.003-.007zm20.62 24.001L160 76.066l-24.549 4.463C141.322 87.542 150.143 92 160 92s18.677-4.458 24.549-11.47M32.804 102.724l14.029 56.115 15.465-5.155-13.92-55.68zm23.24-7.042 13.866 55.465 20.825-6.942a4 4 0 0 1 5.26 4.005L89.478 264H230.52l-6.516-115.79a4 4 0 0 1 5.26-4.005l20.825 6.942 13.866-55.465-47.247-14.318C207.609 104 185.661 120 159.973 120c-25.682 0-47.627-15.994-56.729-38.622zM88.215 288l.842-16h141.884l.842 16zm184.951-129.161-15.465-5.155 13.92-55.68 15.574 4.72zm-76.229-83.466 12.081 3.66C200.929 98.432 181.991 112 159.973 112c-22.012 0-40.946-13.562-49.039-32.952l12.128-3.675C129.086 89.831 143.351 100 160 100s30.913-10.169 36.938-24.627" clip-rule="evenodd"/></g></svg>