<svg xmlns="http://www.w3.org/2000/svg" fill="none" viewBox="0 0 320 320"><g id="bank"><path id="lg-icon-fill-primary" fill="#42aeea" d="M80 108v136h32V108zm64 136V108h32v136zm64 0V108h32v136z"/><path id="Outlines" fill="#1d1d1b" fill-rule="evenodd" d="M161.565 16.28a6 6 0 0 0-3.13 0L13.002 55.586a6 6 0 0 0-4.127 7.69l6.874 20.621A6 6 0 0 0 21.442 88H24v18a6 6 0 0 0 6 6h14v128H30a6 6 0 0 0-6 6v18H14a6 6 0 0 0-6 6v20a6 6 0 0 0 6 6h292a6 6 0 0 0 6-6v-20a6 6 0 0 0-6-6h-10v-18a6 6 0 0 0-6-6h-14V112h14a6 6 0 0 0 6-6V88h2.558a6 6 0 0 0 5.693-4.103l6.874-20.622a6 6 0 0 0-4.127-7.69zM288 88H32v16h256zm2.015-8h7.102l5.748-17.244L160 24.143 17.135 62.756 22.883 80zM52 240V112h24v128zm32 0V112h24v128zm32 0V112h24v128zm32 0V112h24v128zm32 0V112h24v128zm32 0V112h24v128zm32 0V112h24v128zm44 24v-16H32v16zm-272 8v16h288v-16z" clip-rule="evenodd"/></g></svg>