<svg xmlns="http://www.w3.org/2000/svg" fill="none" viewBox="0 0 320 320"><g id="bell"><path id="lg-icon-fill-primary" fill="#42aeea" fill-rule="evenodd" d="M98.797 20c15.464 0 28 12.536 28 28 0 1.47-.115 2.913-.333 4.322 31.898-4.048 64.116 12.594 78.434 43.298l23.667 50.753c13.523 29.001 42.524 15.479 49.287 29.979l15.214 32.627-195.762 91.286-14.37-30.815c-6.761-14.501 21.395-29.837 7.872-58.839l-23.667-50.753c-14.309-30.684-6.367-66.039 17.203-87.875C76.225 67.08 70.797 58.175 70.797 48c0-15.464 12.536-28 28-28m0 16c-6.627 0-12 5.373-12 12s5.373 12 12 12c1.793 0 3.493-.397 5.02-1.102l.082-.039.151-.069c3.994-1.948 6.747-6.047 6.747-10.79 0-6.627-5.373-12-12-12" clip-rule="evenodd"/><g id="Outlines" fill="#1d1d1b"><path d="M243.095 185.388c2-.939 4.383-.081 5.323 1.918a4 4 0 0 1-1.918 5.322l-134 63a4.002 4.002 0 0 1-3.405-7.24z"/><path fill-rule="evenodd" d="M98.799 32.008c8.836 0 16 7.163 16 16-.001 8.836-7.164 16-16 16s-16-7.164-16-16 7.163-16 16-16m0 8a8 8 0 1 0 0 16 8 8 0 0 0 0-16" clip-rule="evenodd"/><path fill-rule="evenodd" d="M85.274 19.006c16.017-7.47 35.058-.539 42.527 15.478a31.9 31.9 0 0 1 3.001 13.412c31.952-2.079 63.375 15.275 77.721 46.041l23.667 50.753c3.076 6.596 6.93 10.596 10.992 13.206 4.125 2.651 8.677 4.008 13.385 4.997 2.394.504 4.65.879 7.023 1.325 2.293.43 4.632.916 6.814 1.604 4.415 1.393 8.715 3.79 11.073 8.847l15.214 32.628.083.188a4 4 0 0 1-2.017 5.127l-30.547 14.243a26 26 0 0 1 2.96 4.875c6.068 13.014.437 28.484-12.576 34.552s-28.484.438-34.552-12.575a26 26 0 0 1-1.832-5.402L98.994 303.897a4 4 0 0 1-5.315-1.934l-14.37-30.815c-2.34-5.02-1.493-9.933.16-14.331 1.556-4.139 4.301-8.892 6.34-13.089 4.267-8.785 7.397-18.495 1.371-31.419l-23.666-50.754c-14.337-30.746-7.452-65.947 14.646-89.087a31.9 31.9 0 0 1-8.363-10.937c-7.47-16.017-.54-35.056 15.477-42.525m35.276 18.86c-5.602-12.014-19.881-17.21-31.894-11.61-12.013 5.602-17.21 19.881-11.61 31.894a23.92 23.92 0 0 0 13.57 12.42 4 4 0 0 1-2.728 7.52 32 32 0 0 1-2.866-1.2c-20.738 20.8-27.391 53.119-14.258 81.285l23.667 50.754c7.497 16.077 3.313 28.537-1.426 38.294-2.465 5.076-4.647 8.688-6.046 12.41-1.302 3.462-1.438 5.905-.399 8.134l12.679 27.19 188.512-87.905-13.524-29.001c-1.022-2.193-2.885-3.544-6.231-4.6-1.699-.536-3.642-.951-5.882-1.371-2.162-.406-4.695-.832-7.193-1.358-5.078-1.067-10.735-2.673-16.063-6.096-5.39-3.464-10.233-8.65-13.919-16.555l-23.667-50.753c-13.142-28.183-42.205-43.863-71.487-41.322a32 32 0 0 1-.929 2.991 4 4 0 0 1-7.514-2.745 23.92 23.92 0 0 0-.792-18.377m105.172 206.937a18 18 0 0 0 1.57 5.522c4.201 9.01 14.911 12.908 23.921 8.707s12.907-14.911 8.706-23.921a18 18 0 0 0-3.221-4.753z" clip-rule="evenodd"/></g></g></svg>