<svg xmlns="http://www.w3.org/2000/svg" fill="none" viewBox="0 0 320 320"><g id="binoculars"><g id="lg-icon-fill-primary" fill="#42aeea"><path d="M12 156c0 37.555 30.445 68 68 68 33.496 0 61.334-24.219 66.961-56.101C140.591 207.956 105.933 272 72 272c-48 0-60-78.445-60-116m296 0c0 37.555-12 116-60 116-33.933 0-68.592-64.044-74.962-104.101C178.665 199.781 206.504 224 240 224c37.555 0 68-30.445 68-68"/><path fill-rule="evenodd" d="M80 108c26.51 0 48 21.49 48 48s-21.49 48-48 48-48-21.49-48-48 21.49-48 48-48m0 16c-17.673 0-32 14.327-32 32s14.327 32 32 32 32-14.327 32-32-14.327-32-32-32m160-16c26.51 0 48 21.49 48 48s-21.49 48-48 48-48-21.49-48-48 21.49-48 48-48m0 16c-17.673 0-32 14.327-32 32s14.327 32 32 32 32-14.327 32-32-14.327-32-32-32" clip-rule="evenodd"/><path d="M160 36c34.911 0 92.391 50.783 95.837 53.856A68.2 68.2 0 0 0 240 88c-31.22 0-57.525 21.04-65.512 49.714L174 138c0-7.732-6.268-14-14-14s-14 6.268-14 14l-.489-.286C137.524 109.04 111.22 88 80 88c-5.453 0-10.756.643-15.838 1.856C67.602 86.788 125.087 36 160 36"/></g><g id="Outlines" fill="#1d1d1b" fill-rule="evenodd" clip-rule="evenodd"><path d="M80 120c19.882 0 36 16.118 36 36s-16.118 36-36 36-36-16.118-36-36 16.118-36 36-36m0 8c-15.464 0-28 12.536-28 28s12.536 28 28 28 28-12.536 28-28-12.536-28-28-28"/><path d="M80 104c28.719 0 52 23.281 52 52s-23.281 52-52 52-52-23.281-52-52 23.281-52 52-52m0 8c-24.3 0-44 19.699-44 44s19.7 44 44 44 44-19.699 44-44-19.699-44-44-44m160 8c19.882 0 36 16.118 36 36s-16.118 36-36 36-36-16.118-36-36 16.118-36 36-36m0 8c-15.464 0-28 12.536-28 28s12.536 28 28 28 28-12.536 28-28-12.536-28-28-28"/><path d="M240 104c28.719 0 52 23.281 52 52s-23.281 52-52 52-52-23.281-52-52 23.281-52 52-52m0 8c-24.301 0-44 19.699-44 44s19.699 44 44 44 44-19.699 44-44-19.699-44-44-44"/><path d="M160 32q.479 0 .962.012l.38.012q.331.01.664.025l.177.01c9.328.486 19.695 3.984 29.861 8.757 11.046 5.187 22.24 12.065 32.213 18.881 9.985 6.826 18.822 13.644 25.159 18.751a378 378 0 0 1 7.482 6.183 251 251 0 0 1 2.268 1.95q.273.074.545.15C289.893 95.304 312 123.07 312 156c0 19.076-3.033 48.583-12.249 73.473C290.63 254.104 274.693 276 248 276c-10.784 0-21.145-5.605-30.384-13.861-9.289-8.302-17.861-19.648-25.146-32.027-11.655-19.801-20.382-42.884-23.359-61.442A72.5 72.5 0 0 1 168 156c0-5.902.71-11.639 2.05-17.129l.024-.1A4 4 0 0 1 170 138c0-5.523-4.477-10-10-10s-10 4.477-10 10q-.001.396-.075.771A72.2 72.2 0 0 1 152 156c0 4.312-.38 8.535-1.106 12.638-2.972 18.563-11.702 41.661-23.364 61.474-7.285 12.379-15.857 23.725-25.146 32.027C93.145 270.395 82.784 276 72 276c-26.693 0-42.63-21.896-51.751-46.527C11.033 204.583 8 175.076 8 156c0-33.127 22.373-61.029 52.833-69.42l.238-.207c.466-.404 1.15-.994 2.03-1.742a380 380 0 0 1 7.483-6.183c6.337-5.107 15.174-11.925 25.16-18.75 9.972-6.817 21.166-13.695 32.212-18.882 10.166-4.773 20.533-8.27 29.86-8.756l.177-.011q.333-.014.664-.025l.38-.012Q159.52 32 160 32M19.494 195.041c1.85 10.657 4.529 21.585 8.257 31.653C36.631 250.674 50.693 268 72 268c7.993 0 16.52-4.201 25.053-11.826 8.481-7.58 16.563-18.192 23.583-30.119a197 197 0 0 0 9.539-18.42C117.208 220.238 99.511 228 80 228c-25.374 0-47.683-13.126-60.506-32.959m281.011 0C287.682 214.873 265.374 228 240 228c-19.511 0-37.208-7.762-50.176-20.365a197 197 0 0 0 9.54 18.42c7.02 11.927 15.102 22.539 23.583 30.119C231.48 263.799 240.007 268 248 268c21.307 0 35.37-17.326 44.249-41.306 3.728-10.068 6.406-20.996 8.256-31.653M80 92c-35.346 0-64 28.654-64 64s28.654 64 64 64c31.559 0 57.781-22.843 63.038-52.896.63-4.009.962-7.744.962-11.104 0-35.346-28.654-64-64-64m160 0c-35.346 0-64 28.654-64 64 0 3.36.331 7.095.961 11.104C182.218 197.157 208.441 220 240 220c35.346 0 64-28.654 64-64s-28.654-64-64-64m-46.201-41.398A39.8 39.8 0 0 1 200 72c0 22.091-17.909 40-40 40s-40-17.909-40-40a39.8 39.8 0 0 1 6.2-21.398c-8.853 4.557-17.759 10.107-25.943 15.7-9.389 6.418-17.759 12.844-23.923 17.79A73 73 0 0 1 80 84c29.393 0 54.671 17.614 65.858 42.861C149.155 122.682 154.264 120 160 120s10.844 2.682 14.141 6.861l.219-.492C185.656 101.385 210.798 84 240 84a73 73 0 0 1 3.665.092c-6.164-4.945-14.534-11.372-23.922-17.79-8.184-5.594-17.091-11.143-25.944-15.7M160 40c-17.673 0-32 14.327-32 32s14.327 32 32 32 32-14.327 32-32-14.327-32-32-32"/></g></g></svg>