<svg xmlns="http://www.w3.org/2000/svg" fill="none" viewBox="0 0 320 320"><g id="bob-ai-chatbot" fill-rule="evenodd" clip-rule="evenodd"><path id="lg-icon-fill-primary" fill="#42aeea" d="M259.259 36.548c10.43 5.578 18.615 13.763 24.193 24.193S292 81.516 292 110.044V292H110.044c-28.528 0-38.873-2.97-49.303-8.548s-18.615-13.763-24.193-24.193c-5.522-10.325-8.488-20.568-8.547-48.453L28 110.044c0-28.528 2.97-38.873 8.548-49.303s13.763-18.615 24.193-24.193c10.325-5.522 20.568-8.488 48.453-8.547L217.956 28c28.528 0 30.873 2.97 41.303 8.548m-49.912 23.453h-98.694c-17.358.043-23.748 1.897-30.19 5.342-6.518 3.486-11.634 8.602-15.12 15.12C61.856 86.982 60 93.447 60 111.278v98.069c.044 17.358 1.898 23.748 5.343 30.19 3.486 6.518 8.602 11.634 15.12 15.12 6.519 3.486 12.984 5.343 30.815 5.343h97.444c17.831 0 24.296-1.857 30.815-5.343 6.518-3.486 11.634-8.602 15.12-15.12 3.486-6.519 5.343-12.984 5.343-30.815v-97.444c0-17.83-1.857-24.296-5.343-30.815-3.486-6.518-8.602-11.634-15.12-15.12C233.018 61.856 226.553 60 208.722 60zM220 188v11.489c0 7.132-.743 9.718-2.137 12.326a14.55 14.55 0 0 1-6.048 6.048c-2.608 1.394-5.194 2.137-12.326 2.137h-78.978c-7.132 0-9.718-.743-12.326-2.137a14.55 14.55 0 0 1-6.048-6.048c-1.394-2.608-2.137-5.194-2.137-12.326V188zm-16-64c8.837 0 16 7.163 16 16s-7.163 16-16 16-16-7.163-16-16 7.163-16 16-16m-88 0c8.837 0 16 7.163 16 16s-7.163 16-16 16-16-7.163-16-16 7.163-16 16-16"/><g id="Outlines" fill="#1d1d1b"><path d="M96 188a4 4 0 0 1 4-4h120a4 4 0 0 1 4 4v11.489c0 7.456-.779 10.788-2.61 14.212a18.53 18.53 0 0 1-7.689 7.689c-3.424 1.831-6.756 2.61-14.212 2.61h-78.978c-7.456 0-10.788-.779-14.212-2.61a18.53 18.53 0 0 1-7.69-7.689C96.78 210.277 96 206.945 96 199.489zm92 4h-24v24h24zm8 24v-24h20v7.489c0 6.808-.707 8.649-1.664 10.439a10.54 10.54 0 0 1-4.408 4.408c-1.79.957-3.631 1.664-10.439 1.664zm-40 0v-24h-24v24zm-32 0v-24h-20v7.489c0 6.808.707 8.649 1.664 10.439a10.54 10.54 0 0 0 4.408 4.408c1.79.957 3.631 1.664 10.439 1.664zm-28-76c0-11.046 8.954-20 20-20s20 8.954 20 20-8.954 20-20 20-20-8.954-20-20m20-12c-6.627 0-12 5.373-12 12s5.373 12 12 12 12-5.373 12-12-5.373-12-12-12m68 12c0-11.046 8.954-20 20-20s20 8.954 20 20-8.954 20-20 20-20-8.954-20-20m20-12c-6.627 0-12 5.373-12 12s5.373 12 12 12 12-5.373 12-12-5.373-12-12-12"/><path d="M208.722 56c18.155 0 25.366 1.892 32.701 5.815 7.216 3.86 12.903 9.546 16.762 16.762 3.923 7.335 5.815 14.546 5.815 32.701v97.444c0 18.155-1.892 25.366-5.815 32.701-3.859 7.216-9.546 12.903-16.762 16.762-7.335 3.923-14.546 5.815-32.701 5.815h-97.444c-18.155 0-25.366-1.892-32.701-5.815-7.216-3.859-12.903-9.546-16.762-16.762C57.892 234.088 56 226.877 56 208.722v-97.444c0-18.155 1.892-25.366 5.815-32.701 3.86-7.216 9.546-12.903 16.762-16.762C85.912 57.892 93.123 56 111.278 56zM82.35 68.87c5.7-3.05 11.42-4.87 28.928-4.87H132v28a4 4 0 0 0 8 0V64h16v44a4 4 0 0 0 8 0V64h16v28a4 4 0 0 0 8 0V64h20.722c17.507 0 23.227 1.82 28.929 4.87 5.821 3.113 10.366 7.658 13.479 13.48 3.049 5.701 4.87 11.421 4.87 28.928v97.444c0 17.507-1.821 23.227-4.87 28.929-3.113 5.821-7.658 10.366-13.479 13.479-5.702 3.049-11.422 4.87-28.929 4.87h-97.444c-17.507 0-23.227-1.821-28.928-4.87-5.822-3.113-10.367-7.658-13.48-13.479-3.05-5.702-4.87-11.422-4.87-28.929v-97.444c0-17.507 1.82-23.227 4.87-28.928 3.113-5.822 7.658-10.367 13.48-13.48"/><path d="M110.044 24c-28.852 0-39.943 3.006-51.19 9.021-11.126 5.95-19.882 14.707-25.833 25.834C27.006 70.1 24 81.192 24 110.044v99.912c0 28.852 3.006 39.943 9.021 51.189 5.95 11.127 14.707 19.883 25.834 25.834C70.1 292.994 81.192 296 110.044 296H296V110.044c0-28.852-3.006-39.943-9.021-51.19-5.951-11.126-14.707-19.882-25.834-25.833C249.899 27.006 238.808 24 209.956 24zM62.627 40.075C72.24 34.936 81.84 32 110.044 32h99.912c28.204 0 37.804 2.935 47.417 8.075 9.732 5.206 17.346 12.82 22.551 22.552C285.065 72.24 288 81.84 288 110.044V288H110.044c-28.204 0-37.804-2.935-47.417-8.076-9.732-5.205-17.346-12.819-22.552-22.551C34.936 247.76 32 238.16 32 209.956v-99.912c0-28.204 2.935-37.804 8.075-47.417 5.206-9.732 12.82-17.346 22.552-22.552"/></g></g></svg>