<svg xmlns="http://www.w3.org/2000/svg" fill="none" viewBox="0 0 320 320"><g id="bob-ai" fill-rule="evenodd" clip-rule="evenodd"><path id="lg-icon-fill-primary" fill="#42aeea" d="m172.485 47.464 79.03 44.073C259.241 96.155 264 104.69 264 113.927v92.146c0 9.237-4.759 17.772-12.485 22.39l-79.03 44.073c-7.726 4.619-17.244 4.619-24.97 0l-79.03-44.073C60.759 223.845 56 215.31 56 206.073v-92.146c0-9.237 4.76-17.772 12.485-22.39l79.03-44.073c7.726-4.619 17.244-4.619 24.97 0M160 228c-6.627 0-12 5.373-12 12s5.373 12 12 12 12-5.373 12-12-5.373-12-12-12m-69.25-40c-6.627 0-12 5.373-12 12s5.373 12 12 12 12-5.373 12-12-5.373-12-12-12m138.5 0c-6.627 0-12 5.373-12 12s5.373 12 12 12 12-5.373 12-12-5.373-12-12-12M176 144h-32v32h32zm53.25-36c-6.627 0-12 5.373-12 12s5.373 12 12 12 12-5.373 12-12-5.373-12-12-12m-138.5 0c-6.627 0-12 5.373-12 12s5.373 12 12 12 12-5.373 12-12-5.373-12-12-12M160 68c-6.627 0-12 5.373-12 12s5.373 12 12 12 12-5.373 12-12-5.373-12-12-12"/><g id="Outlines" fill="#1d1d1b"><path d="M184 168h37.5c6.525 0 11.834 5.209 11.996 11.695l.004.305v4.562c1.294.355 2.565.879 3.782 1.582 7.653 4.418 10.275 14.203 5.856 21.856-4.418 7.653-14.203 10.275-21.856 5.856-7.653-4.418-10.275-14.203-5.856-21.856a15.95 15.95 0 0 1 10.074-7.547V180a4 4 0 0 0-4-4H184v4a4 4 0 0 1-4 4h-16.001l.001 40.504c6.901 1.776 12 8.041 12 15.496 0 8.837-7.163 16-16 16s-16-7.163-16-16c0-7.456 5.099-13.72 12.001-15.496L156 184h-16a4 4 0 0 1-4-4v-4.001L98.5 176a4 4 0 0 0-3.995 3.8l-.005.2v4.453A15.95 15.95 0 0 1 104.574 192c4.419 7.653 1.797 17.438-5.856 21.856S81.28 215.653 76.862 208s-1.797-17.438 5.856-21.856a16 16 0 0 1 3.782-1.582V180c0-6.627 5.373-12 12-12H136v-16H98.5c-6.627 0-12-5.373-12-12v-4.562a16 16 0 0 1-3.782-1.582c-7.653-4.418-10.275-14.203-5.856-21.856 4.418-7.653 14.203-10.275 21.856-5.856 7.653 4.418 10.275 14.203 5.856 21.856a15.95 15.95 0 0 1-10.074 7.547V140a4 4 0 0 0 4 4H136v-4a4 4 0 0 1 4-4h16l.001-40.504C149.099 93.72 144 87.456 144 80c0-8.837 7.163-16 16-16s16 7.163 16 16c0 7.455-5.099 13.72-12 15.496L163.999 136H180a4 4 0 0 1 4 4v4h37.5a4 4 0 0 0 4-4v-4.453A15.95 15.95 0 0 1 215.426 128c-4.419-7.653-1.797-17.438 5.856-21.856s17.438-1.797 21.856 5.856 1.797 17.438-5.856 21.856a16 16 0 0 1-3.782 1.582V140c0 6.627-5.373 12-12 12H184zm-8-24h-32v32h32zm-16 88a8 8 0 1 0 0 16 8 8 0 0 0 0-16m-73.282-38.928a8 8 0 1 0 8 13.856 8 8 0 0 0-8-13.856M222.354 196a8 8 0 1 0 13.857 8 8 8 0 0 0-13.857-8m2.928-82.928a8 8 0 1 0 8 13.856 8 8 0 0 0-8-13.856M83.79 116a8 8 0 1 0 13.856 8 8 8 0 0 0-13.856-8M160 72a8 8 0 1 0 0 16 8 8 0 0 0 0-16"/><path d="M144.339 20.227a31.13 31.13 0 0 1 31.322 0l96.678 56.225C282.045 82.097 288 92.52 288 103.775v112.45c0 11.255-5.955 21.679-15.661 27.323l-96.678 56.225a31.13 31.13 0 0 1-31.322 0l-96.678-56.225C37.955 237.904 32 227.48 32 216.225v-112.45c0-11.255 5.955-21.678 15.661-27.323zM160 24a23.13 23.13 0 0 0-11.639 3.143L51.683 83.367C44.46 87.567 40 95.345 40 103.775v112.45c0 8.43 4.46 16.207 11.683 20.408l96.678 56.224a23.13 23.13 0 0 0 23.278 0l96.678-56.224C275.54 232.432 280 224.655 280 216.225v-112.45c0-8.43-4.46-16.207-11.683-20.408l-96.678-56.224A23.13 23.13 0 0 0 160 24"/></g></g></svg>