<svg xmlns="http://www.w3.org/2000/svg" fill="none" viewBox="0 0 320 320"><g id="briefcase"><g id="lg-icon-fill-primary" fill="#42aeea"><path d="M116 12c-8.837 0-16 7.163-16 16v32h16V30a2 2 0 0 1 2-2h84a2 2 0 0 1 2 2v30h16V28c0-8.837-7.163-16-16-16z"/><path fill-rule="evenodd" d="M20 296c-6.627 0-12-5.373-12-12V84c0-6.627 5.373-12 12-12h280c6.627 0 12 5.373 12 12v200c0 6.627-5.373 12-12 12zm112-132s0-8 28-8 28 8 28 8v24h-4.333L180 232s0 8-20 8-20-8-20-8l-3.667-44H132z" clip-rule="evenodd"/></g><g id="Outlines" fill="#1d1d1b"><path d="M164 204a4 4 0 0 0-8 0v8a4 4 0 0 0 8 0z"/><path fill-rule="evenodd" d="M116 8c-11.046 0-20 8.954-20 20v28h-4a4 4 0 0 0-4 4v12H16a8 8 0 0 0-8 8v204c0 6.627 5.373 12 12 12h280c6.627 0 12-5.373 12-12V80a8 8 0 0 0-8-8h-72V60a4 4 0 0 0-4-4h-4V28c0-11.046-8.954-20-20-20zm-12 20c0-6.627 5.373-12 12-12h88c6.627 0 12 5.373 12 12v28h-8V30a6 6 0 0 0-6-6h-84a6 6 0 0 0-6 6v26h-8zm120 36h-24v8h24zm-24-8V32h-80v24h4a4 4 0 0 1 4 4v12h64V60a4 4 0 0 1 4-4zm-80 8H96v8h24zm180 16a4 4 0 0 1 4 4v73.333C304 171.025 290.786 184 272 184h-80v-24s0-8-32-8-32 8-32 8v24H48c-18.786 0-32-12.975-32-26.667V84a4 4 0 0 1 4-4zM48 192c-13.085 0-24.702-5.445-32-13.863V284a4 4 0 0 0 4 4h280a4 4 0 0 0 4-4V178.137C296.702 186.555 285.085 192 272 192h-88.667L180 232s0 8-20 8-20-8-20-8l-3.333-40zm96.694 0 3.167 37.998c1.066.633 4.3 2.002 12.139 2.002s11.073-1.369 12.139-2.002L175.306 192zM184 184v-21.043c-2.648-1.178-9.265-2.957-24-2.957s-21.352 1.779-24 2.957V184z" clip-rule="evenodd"/></g></g></svg>