<svg xmlns="http://www.w3.org/2000/svg" fill="none" viewBox="0 0 320 320"><g id="building-office"><path id="lg-icon-fill-primary" fill="#42aeea" d="M52 208c-8.837 0-16 7.163-16 16v40c0 8.837 7.163 16 16 16s16-7.163 16-16v-40c0-8.837-7.163-16-16-16m200 16c0-8.837 7.163-16 16-16s16 7.163 16 16v40c0 8.837-7.163 16-16 16s-16-7.163-16-16zm-24 12H92v32h24v40h88v-40h24z"/><g id="Outlines" fill="#1d1d1b"><path d="M128 44a4 4 0 0 0-8 0v160a4 4 0 0 0 8 0zm20-4a4 4 0 0 1 4 4v160a4 4 0 0 1-8 0V44a4 4 0 0 1 4-4m28 4a4 4 0 0 0-8 0v160a4 4 0 0 0 8 0zm24 0a4 4 0 0 0-8 0v160a4 4 0 0 0 8 0z"/><path fill-rule="evenodd" d="M232 8H88v264h24v32H56v-20.4c9.129-1.853 16-9.924 16-19.6v-40c0-11.046-8.954-20-20-20s-20 8.954-20 20v40c0 9.676 6.871 17.747 16 19.6V304H12a4 4 0 0 0 0 8h296a4 4 0 0 0 0-8h-36v-20.4c9.129-1.853 16-9.924 16-19.6v-40c0-11.046-8.954-20-20-20s-20 8.954-20 20v40c0 9.676 6.871 17.747 16 19.6V304h-56v-32h24zm-32 296v-32h-16v32zm-24 0v-32h-12v32zm-20 0v-32h-12v32zm-20 0v-32h-16v32zm88-72V16H96v216zm0 8H96v24h128zM64 264c0 6.627-5.373 12-12 12s-12-5.373-12-12v-40c0-6.627 5.373-12 12-12s12 5.373 12 12zm216 0c0 6.627-5.373 12-12 12s-12-5.373-12-12v-40c0-6.627 5.373-12 12-12s12 5.373 12 12z" clip-rule="evenodd"/></g></g></svg>