<svg xmlns="http://www.w3.org/2000/svg" fill="none" viewBox="0 0 320 320"><g id="building-factory"><path id="lg-icon-fill-primary" fill="#42aeea" d="M220 188h80v120H180v-40h-40v40H20V188h80v-40h120zM76 28H44V12h32zm100 0h-32V12h32zm100 0h-32V12h32z"/><g id="Outlines" fill="#1d1d1b"><path d="M44 208a4 4 0 0 1 4 4v32a4 4 0 0 1-8 0v-32a4 4 0 0 1 4-4m24 0a4 4 0 0 1 4 4v32a4 4 0 0 1-8 0v-32a4 4 0 0 1 4-4m56-24a4 4 0 0 1 4 4v56a4 4 0 0 1-8 0v-56a4 4 0 0 1 4-4m24 0a4 4 0 0 1 4 4v56a4 4 0 0 1-8 0v-56a4 4 0 0 1 4-4m24 0a4 4 0 0 1 4 4v56a4 4 0 0 1-8 0v-56a4 4 0 0 1 4-4m24 0a4 4 0 0 1 4 4v56a4 4 0 0 1-8 0v-56a4 4 0 0 1 4-4m56 24a4 4 0 0 1 4 4v32a4 4 0 0 1-8 0v-32a4 4 0 0 1 4-4m24 0a4 4 0 0 1 4 4v32a4 4 0 0 1-8 0v-32a4 4 0 0 1 4-4"/><path fill-rule="evenodd" d="M80 27.944 83.901 184H96v-40h41.011L140 27.942V8h40v19.942L182.989 144H224v40h12.099L240 27.944V8h40v19.944L283.901 184H304v120h4a4 4 0 0 1 0 8H12a4 4 0 0 1 0-8h4V184h20.099L40 27.944V8h40zM24 304h72V192H24zm80 0h32v-40h48v40h32V152H104zm40 0h12v-32h-12zm20 0h12v-32h-12zm60 0h72V192h-72zM44.102 184h31.796l-3.8-152H47.902zm200 0h31.796l-3.799-152h-24.198zm-99.088-40h29.973l-2.885-112h-24.204zM48 24h24v-8H48zm100 0h24v-8h-24zm100 0h24v-8h-24z" clip-rule="evenodd"/></g></g></svg>