<svg xmlns="http://www.w3.org/2000/svg" fill="none" viewBox="0 0 320 320"><g id="bullseye" fill-rule="evenodd" clip-rule="evenodd"><g id="lg-icon-fill-primary" fill="#42aeea"><path d="M160 100c33.137 0 60 26.863 60 60s-26.863 60-60 60-60-26.863-60-60 26.863-60 60-60m0 32c-15.464 0-28 12.536-28 28s12.536 28 28 28 28-12.536 28-28-12.536-28-28-28"/><path d="M160 20c77.32 0 140 62.68 140 140s-62.68 140-140 140S20 237.32 20 160 82.68 20 160 20m0 40c-55.228 0-100 44.772-100 100s44.772 100 100 100 100-44.772 100-100S215.228 60 160 60"/></g><path id="Outlines" fill="#1d1d1b" d="M36 7.657a4 4 0 0 1 4 4v22.687l8 8V27.657a4 4 0 0 1 8 0v22.687l5.045 5.045C86.847 30.974 121.674 16 160 16c79.529 0 144 64.471 144 144s-64.471 144-144 144S16 239.529 16 160c0-38.325 14.973-73.153 39.388-98.954l-5.105-5.105H27.716a4 4 0 0 1 0-8h14.567l-8-8H11.716a4 4 0 0 1 0-8h14.567l-16.61-16.61a4 4 0 0 1 5.657-5.657L32 26.344V11.657a4 4 0 0 1 4-4M160 24c-36.117 0-68.944 14.08-93.296 37.048l22.64 22.64C107.894 66.504 132.72 56 160 56c57.438 0 104 46.562 104 104s-46.562 104-104 104S56 217.438 56 160c0-27.279 10.504-52.105 27.686-70.655l-22.64-22.64C38.08 91.057 24 123.884 24 160c0 75.111 60.89 136 136 136 75.111 0 136-60.889 136-136S235.111 24 160 24m0 40c-25.071 0-47.896 9.612-64.995 25.35l22.656 22.656C128.944 102.045 143.766 96 160 96c35.346 0 64 28.654 64 64s-28.654 64-64 64-64-28.654-64-64c0-16.233 6.044-31.055 16.004-42.338L89.349 95.007C73.61 112.105 64 134.93 64 160c0 53.019 42.981 96 96 96s96-42.981 96-96-42.981-96-96-96m0 40c-14.024 0-26.845 5.155-36.67 13.674l17.047 17.048A31.86 31.86 0 0 1 160 128c17.673 0 32 14.327 32 32s-14.327 32-32 32-32-14.327-32-32a31.86 31.86 0 0 1 6.721-19.621l-17.048-17.048C109.154 133.155 104 145.976 104 160c0 30.928 25.072 56 56 56s56-25.072 56-56-25.072-56-56-56m0 32a23.9 23.9 0 0 0-13.907 4.438l16.231 16.231a4 4 0 0 1-5.656 5.657l-16.232-16.232A23.9 23.9 0 0 0 136 160c0 13.255 10.745 24 24 24s24-10.745 24-24-10.745-24-24-24"/></g></svg>