<svg xmlns="http://www.w3.org/2000/svg" fill="none" viewBox="0 0 320 320"><g id="calculator"><path id="lg-icon-fill-primary" fill="#42aeea" fill-rule="evenodd" d="M60 12h200v104H60z" clip-rule="evenodd"/><g id="Outlines" fill="#1d1d1b"><path d="M128.971 243.029a4 4 0 0 1 0 5.657L117.657 260l11.314 11.314a4 4 0 0 1-5.657 5.657L112 265.657l-11.314 11.314a4 4 0 1 1-5.657-5.657L106.343 260l-11.314-11.314a4 4 0 0 1 5.657-5.657L112 254.343l11.314-11.314a4 4 0 0 1 5.657 0M210 272a4 4 0 1 1 0 8 4 4 0 0 1 0-8m14-16a4 4 0 0 1 0 8h-28a4 4 0 0 1 0-8zm-14-16a4 4 0 1 1 0 8 4 4 0 0 1 0-8m14-80a4 4 0 0 1 0 8h-28a4 4 0 0 1 0-8zm-112-20a4 4 0 0 1 4 4v16h16a4 4 0 0 1 0 8h-16v16a4 4 0 0 1-8 0v-16H92a4 4 0 0 1 0-8h16v-16a4 4 0 0 1 4-4m53.168-49.168a3.99 3.99 0 0 1 0-5.64l48.024-48.024a3.988 3.988 0 0 1 5.64 5.64l-48.024 48.024a3.99 3.99 0 0 1-5.64 0M101.167 85.2a3.984 3.984 0 1 0 5.634 5.633l48.032-48.032a3.983 3.983 0 1 0-5.634-5.634z"/><path fill-rule="evenodd" d="M264 304a8 8 0 0 1-8 8H64a8 8 0 0 1-8-8V16a8 8 0 0 1 8-8h192a8 8 0 0 1 8 8zm-200 0h92v-88H64zm192-88h-92v88h92zm0-8v-88h-92v88zm-192 0h92v-88H64zM256 16H64v96h192z" clip-rule="evenodd"/></g></g></svg>