<svg xmlns="http://www.w3.org/2000/svg" fill="none" viewBox="0 0 320 320"><g id="calendar-time"><path id="lg-icon-fill-primary" fill="#42aeea" d="M288 52H32a4 4 0 0 0-4 4v44h264V56a4 4 0 0 0-4-4m-160 80H64v64h64z"/><g id="Outlines" fill="#1d1d1b"><path d="M256 228a4 4 0 0 0-4 4v32a4 4 0 0 0 4 4h24a4 4 0 0 0 0-8h-20v-28a4 4 0 0 0-4-4"/><path fill-rule="evenodd" d="M260 24c2.208 0 4 1.863 4 4.159v19.84l23.261.001c4.741 0 8.599 3.832 8.735 8.613l.004.261v165.603c9.861 9.463 16 22.776 16 37.523 0 28.719-23.281 52-52 52-14.747 0-28.06-6.139-37.523-16H32.739c-4.738 0-8.599-3.832-8.735-8.613l-.004-.261V56.874c0-4.814 3.776-8.732 8.481-8.87L32.74 48 56 47.999v-19.84C56 25.863 57.792 24 60 24s4 1.863 4 4.159v19.84h32v-19.84C96 25.863 97.792 24 100 24s4 1.863 4 4.159v19.84h32v-19.84c0-2.296 1.792-4.159 4-4.159s4 1.863 4 4.159v19.84h32v-19.84c0-2.296 1.792-4.159 4-4.159s4 1.863 4 4.159v19.84h32v-19.84c0-2.296 1.792-4.159 4-4.159s4 1.863 4 4.159v19.84h32v-19.84c0-2.296 1.792-4.159 4-4.159m-43.825 264a51.7 51.7 0 0 1-8.023-24H64c-.76 0-1.471-.226-2.077-.618C60.767 262.673 60 261.423 60 260l.002-.108-.001-.072L60 132.25l.002-.142-.002-.079V132c0-1.42.764-2.668 1.916-3.378A3.8 3.8 0 0 1 64 128h192c.754 0 1.46.222 2.062.608 1.164.707 1.938 1.962 1.938 3.392l-.002.109.001.049.001.046V208c10.309 0 19.918 3 28 8.175V104H32v183.675c0 .156.109.288.253.318l.064.007zM252 208.612V200h-56v56h12.152c1.839-24.181 20.217-43.74 43.848-47.388M287.681 56 264 55.999v19.842c0 2.296-1.792 4.159-4 4.159s-4-1.863-4-4.159V56h-32v19.842c0 2.296-1.792 4.159-4 4.159s-4-1.863-4-4.159V56h-32v19.842c0 2.296-1.792 4.159-4 4.159s-4-1.863-4-4.159V56h-32v19.842c0 2.296-1.792 4.159-4 4.159s-4-1.863-4-4.159V56h-32v19.842c0 2.296-1.792 4.159-4 4.159s-4-1.863-4-4.159V56H64v19.842C64 78.137 62.208 80 60 80s-4-1.863-4-4.159V56H32.317a.32.32 0 0 0-.31.26l-.007.065V96h256V56.325a.323.323 0 0 0-.319-.325M68 200v56h56v-56zm120 0h-56v56h56zM68 136v56h56v-56zm120 0h-56v56h56zm8 0v56h56v-56zm64 168c24.301 0 44-19.699 44-44s-19.699-44-44-44-44 19.699-44 44 19.699 44 44 44" clip-rule="evenodd"/></g></g></svg>