<svg xmlns="http://www.w3.org/2000/svg" fill="none" viewBox="0 0 320 320"><g id="calendar"><path id="lg-icon-fill-primary" fill="#42aeea" d="M288 52H32a4 4 0 0 0-4 4v44h264V56a4 4 0 0 0-4-4m-160 80H64v64h64z"/><g id="Outlines" fill="#1d1d1b" fill-rule="evenodd" clip-rule="evenodd"><path d="M256 128c.754 0 1.46.222 2.062.608 1.164.707 1.938 1.962 1.938 3.392l-.002.109.002.141v127.497l-.002.142.002.111c0 1.431-.776 2.688-1.942 3.395A3.8 3.8 0 0 1 256 264l-.055-.001-.069.001H64c-.76 0-1.471-.226-2.077-.618C60.767 262.673 60 261.423 60 260l.002-.108-.001-.072L60 132.25l.002-.142L60 132c0-1.42.764-2.668 1.916-3.378A3.8 3.8 0 0 1 64 128zm-132 72H68v56h56zm64 0h-56v56h56zm64 0h-56v56h56zm-128-64H68v56h56zm64 0h-56v56h56zm64 0h-56v56h56z"/><path d="M260 24c2.208 0 4 1.863 4 4.159v19.84l23.261.001c4.741 0 8.599 3.832 8.735 8.613l.004.261v230.252c0 4.814-3.774 8.732-8.481 8.87l-.258.004H32.739c-4.738 0-8.599-3.832-8.735-8.613l-.004-.261V56.874c0-4.814 3.776-8.732 8.481-8.87L32.74 48 56 47.999v-19.84C56 25.863 57.792 24 60 24s4 1.863 4 4.159v19.84h32v-19.84C96 25.863 97.792 24 100 24s4 1.863 4 4.159v19.84h32v-19.84c0-2.296 1.792-4.159 4-4.159s4 1.863 4 4.159v19.84h32v-19.84c0-2.296 1.792-4.159 4-4.159s4 1.863 4 4.159v19.84h32v-19.84c0-2.296 1.792-4.159 4-4.159s4 1.863 4 4.159v19.84h32v-19.84c0-2.296 1.792-4.159 4-4.159m28 80H32v183.675c0 .156.109.288.253.318l.064.007H287.68a.32.32 0 0 0 .313-.26l.006-.065zm-.319-48L264 55.999v19.842c0 2.296-1.792 4.159-4 4.159s-4-1.863-4-4.159V56h-32v19.842c0 2.296-1.792 4.159-4 4.159s-4-1.863-4-4.159V56h-32v19.842c0 2.296-1.792 4.159-4 4.159s-4-1.863-4-4.159V56h-32v19.842c0 2.296-1.792 4.159-4 4.159s-4-1.863-4-4.159V56h-32v19.842c0 2.296-1.792 4.159-4 4.159s-4-1.863-4-4.159V56H64v19.842C64 78.137 62.208 80 60 80s-4-1.863-4-4.159V56H32.317a.32.32 0 0 0-.31.26l-.007.065V96h256V56.325a.323.323 0 0 0-.319-.325"/></g></g></svg>