<svg xmlns="http://www.w3.org/2000/svg" fill="none" viewBox="0 0 320 320"><g id="calendar-limited-time"><path id="lg-icon-fill-primary" fill="#42aeea" d="M288 52H32a4 4 0 0 0-4 4v44h264V56a4 4 0 0 0-4-4m-160 80H64v64h64zm108 96c0 6.627-5.373 12-12 12s-12-5.373-12-12 5.373-12 12-12 12 5.373 12 12M96 240c6.627 0 12-5.373 12-12s-5.373-12-12-12-12 5.373-12 12 5.373 12 12 12"/><g id="Outlines" fill="#1d1d1b" fill-rule="evenodd" clip-rule="evenodd"><path d="M258.062 128.608A3.8 3.8 0 0 0 256 128H64c-.763 0-1.477.227-2.084.622C60.764 129.332 60 130.58 60 132l.002.108-.002.142v127.57l.002.072L60 260c0 1.423.767 2.673 1.923 3.382A3.8 3.8 0 0 0 64 264h191.901l.044-.001.055.001c.752 0 1.457-.221 2.058-.605 1.166-.707 1.942-1.964 1.942-3.395l-.002-.111.002-.142V132.25l-.002-.141L260 132c0-1.43-.774-2.685-1.938-3.392M68 256v-56h56v24h-12.504c-1.776-6.901-8.041-12-15.496-12-8.837 0-16 7.163-16 16s7.163 16 16 16c7.455 0 13.72-5.099 15.496-12H124v24zm64-24v24h56v-24zm64 0h12.504c1.776 6.901 8.041 12 15.496 12 8.837 0 16-7.163 16-16s-7.163-16-16-16c-7.455 0-13.72 5.099-15.496 12H196v-24h56v56h-56zm-8-8h-56v-24h56zM68 192v-56h56v56zm64-56h56v56h-56zm64 56v-56h56v56zM96 220a8 8 0 1 0 0 16 8 8 0 0 0 0-16m120 8a8 8 0 1 1 16 0 8 8 0 0 1-16 0"/><path d="M264 28.159c0-2.296-1.792-4.159-4-4.159s-4 1.863-4 4.159v19.84h-32v-19.84c0-2.296-1.792-4.159-4-4.159s-4 1.863-4 4.159v19.84h-32v-19.84c0-2.296-1.792-4.159-4-4.159s-4 1.863-4 4.159v19.84h-32v-19.84c0-2.296-1.792-4.159-4-4.159s-4 1.863-4 4.159v19.84h-32v-19.84c0-2.296-1.792-4.159-4-4.159s-4 1.863-4 4.159v19.84H64v-19.84C64 25.863 62.208 24 60 24s-4 1.863-4 4.159v19.84L32.739 48l-.258.004C27.776 48.142 24 52.06 24 56.874v230.252l.004.261C24.14 292.168 28 296 32.739 296H287.26l.258-.004c4.707-.138 8.481-4.056 8.481-8.87V56.874l-.004-.261c-.136-4.78-3.994-8.613-8.735-8.613L264 47.999zM32 104h256v183.675l-.006.065a.32.32 0 0 1-.313.26H32.317l-.064-.007a.32.32 0 0 1-.253-.318zm232-48.001 23.681.001c.177 0 .319.147.319.325V96H32V56.325l.006-.065a.32.32 0 0 1 .31-.26L56 55.999v19.842C56 78.137 57.792 80 60 80s4-1.863 4-4.159V56h32v19.842C96 78.137 97.792 80 100 80s4-1.863 4-4.159V56h32v19.842c0 2.296 1.792 4.159 4 4.159s4-1.863 4-4.159V56h32v19.842c0 2.296 1.792 4.159 4 4.159s4-1.863 4-4.159V56h32v19.842c0 2.296 1.792 4.159 4 4.159s4-1.863 4-4.159V56h32v19.842c0 2.296 1.792 4.159 4 4.159s4-1.863 4-4.159z"/></g></g></svg>