<svg width="320" height="320" xmlns="http://www.w3.org/2000/svg"><g fill="none" fill-rule="evenodd"><path fill="#FFF" d="M0 0h320v320H0z"/><path fill="#FFD500" d="M24 46h272v66H24z"/><path d="M24.739 40C19.915 40 16 43.973 16 48.874v238.252c0 4.901 3.915 8.874 8.739 8.874H295.26c4.827 0 8.739-3.973 8.739-8.874V48.874c0-4.901-3.912-8.874-8.739-8.874H24.74zM296 48.325v239.35a.323.323 0 01-.32.325H24.318a.322.322 0 01-.317-.325V48.325c0-.178.142-.325.317-.325H295.68c.177 0 .319.147.319.325z" fill="#000"/><path d="M192 264a4 4 0 110 8 4 4 0 010-8zm32 0a4 4 0 110 8 4 4 0 010-8zm32 0a4 4 0 110 8 4 4 0 010-8zm-16-16a4 4 0 110 8 4 4 0 010-8zm-32 0a4 4 0 110 8 4 4 0 010-8zm48-16a4 4 0 110 8 4 4 0 010-8zm-32 0a4 4 0 110 8 4 4 0 010-8zm-32 0a4 4 0 110 8 4 4 0 010-8zm48-16a4 4 0 110 8 4 4 0 010-8zm-32 0a4 4 0 110 8 4 4 0 010-8zm48-16a4 4 0 110 8 4 4 0 010-8zm-32 0a4 4 0 110 8 4 4 0 010-8zm-32 0a4 4 0 110 8 4 4 0 010-8z" fill="#000"/><path d="M63.126 272C61.4 272 60 270.208 60 268l.002-.126a4.599 4.599 0 01-.002-.127V140.25l.002-.124A5.204 5.204 0 0160 140c0-2.208 1.4-4 3.126-4h193.75c1.726 0 3.124 1.792 3.124 4l-.002.124a4.6 4.6 0 01.002.126v127.497l-.002.126.002.127c0 2.208-1.398 4-3.124 4H63.126zM124 208H68v56h56v-56zm64 0h-56v56h56v-56zm64 0h-56v56h56v-56zm-128-64H68v56h56v-56zm64 0h-56v56h56v-56zm64 0h-56v56h56v-56zM24.377 112h271.249c2.416 0 4.374 1.792 4.374 4s-1.958 4-4.374 4H24.376c-2.415 0-4.376-1.792-4.376-4s1.96-4 4.377-4zM260 16c2.208 0 4 1.863 4 4.159V65.84c0 2.296-1.792 4.159-4 4.159s-4-1.863-4-4.159V20.16c0-2.296 1.792-4.159 4-4.159zm-40 0c2.208 0 4 1.863 4 4.159V65.84c0 2.296-1.792 4.159-4 4.159s-4-1.863-4-4.159V20.16c0-2.296 1.792-4.159 4-4.159zm-40 0c2.208 0 4 1.863 4 4.159V65.84c0 2.296-1.792 4.159-4 4.159s-4-1.863-4-4.159V20.16c0-2.296 1.792-4.159 4-4.159zm-40 0c2.208 0 4 1.863 4 4.159V65.84c0 2.296-1.792 4.159-4 4.159s-4-1.863-4-4.159V20.16c0-2.296 1.792-4.159 4-4.159zm-40 0c2.208 0 4 1.863 4 4.159V65.84c0 2.296-1.792 4.159-4 4.159s-4-1.863-4-4.159V20.16c0-2.297 1.792-4.16 4-4.16zm-40 0c2.208 0 4 1.863 4 4.159V65.84c0 2.297-1.792 4.16-4 4.16s-4-1.863-4-4.159V20.16c0-2.297 1.792-4.16 4-4.16z" fill="#000"/></g></svg>