<svg xmlns="http://www.w3.org/2000/svg" fill="none" viewBox="0 0 320 320"><path fill="#42aeea" d="M176 260c8.837 0 16 7.163 16 16s-7.163 16-16 16h-32c-8.837 0-16-7.163-16-16s7.163-16 16-16zM60 100c13.255 0 24 10.745 24 24v72c0 13.255-10.745 24-24 24s-24-10.745-24-24v-72c0-13.255 10.745-24 24-24m200 0c13.255 0 24 10.745 24 24v72c0 13.255-10.745 24-24 24s-24-10.745-24-24v-72c0-13.255 10.745-24 24-24M160 12c21.883 0 35.295 4.41 43.478 9.448C212.108 26.763 206.5 36 196.365 36h-72.73c-10.135 0-15.743-9.237-7.113-14.552C124.705 16.41 138.117 12 160 12"/><path fill="#1d1d1b" d="M60 96c15.464 0 28 12.536 28 28v72c0 13.453-9.489 24.688-22.139 27.383 6.613 26.8 30.11 46.949 58.56 48.517 1.891-9.079 9.938-15.9 19.579-15.9h32c11.046 0 20 8.954 20 20s-8.954 20-20 20h-32c-9.707 0-17.799-6.916-19.617-16.09-32.683-1.617-59.632-25.027-66.618-56-13.16-1.039-23.76-11.176-25.51-24.123-9.2-1.379-16.255-9.314-16.255-18.898v-42.032c0-9.533 7.075-17.414 16.26-18.679C34.124 106.522 45.833 96 60 96m84 168c-6.627 0-12 5.373-12 12s5.373 12 12 12h32c6.627 0 12-5.373 12-12s-5.373-12-12-12zM260 96c14.167 0 25.875 10.522 27.739 24.178 9.186 1.265 16.261 9.146 16.261 18.679v42.032c0 9.584-7.056 17.52-16.256 18.898C285.895 213.46 274.179 224 260 224c-15.464 0-28-12.536-28-28v-72c0-15.464 12.536-28 28-28m0 8c-11.046 0-20 8.954-20 20v72c0 11.046 8.954 20 20 20s20-8.954 20-20v-72c0-11.046-8.954-20-20-20m-200 0c-11.046 0-20 8.954-20 20v72c0 9.818 7.075 17.983 16.405 19.677A73 73 0 0 1 56 208v-32a4 4 0 0 1 8 0v32q.002 3.81.436 7.505C73.346 213.487 80 205.521 80 196v-72c0-11.046-8.954-20-20-20m-28 24.382c-4.61 1.254-8 5.468-8 10.475v42.032c0 5.056 3.378 9.32 8 10.666zm256 63.173c4.622-1.346 8-5.61 8-10.666v-42.032c0-5.007-3.39-9.221-8-10.475zM160 8q.729 0 1.455.009c14.9.132 26.079 2.29 34.463 5.395C235.374 25.698 264 57.682 264 96h-8c0-28.028-17.515-53.11-44.312-67.432a10.3 10.3 0 0 1-1.203 4.035c-2.448 4.58-7.957 7.397-14.12 7.397h-72.73c-6.163 0-11.672-2.818-14.12-7.397a10.3 10.3 0 0 1-1.204-4.035C81.514 42.891 64 67.972 64 96h-8c0-38.318 28.626-70.302 68.081-82.596 8.384-3.105 19.563-5.263 34.463-5.395Q159.271 8 160 8m0 8c-11.549 0-22.57 1.686-32.757 4.766-3.463 1.255-6.302 2.66-8.623 4.089-1.561.961-2.085 1.85-2.252 2.357-.155.472-.132.995.201 1.62.732 1.367 3.094 3.168 7.066 3.168h72.73c3.972 0 6.334-1.801 7.066-3.169.333-.624.356-1.147.201-1.62-.167-.506-.691-1.395-2.252-2.356-2.321-1.43-5.16-2.834-8.624-4.09C182.569 17.688 171.548 16 160 16"/></svg>