<svg xmlns="http://www.w3.org/2000/svg" fill="none" viewBox="0 0 320 320"><g id="call-centre-headset"><path id="lg-icon-fill-primary" fill="#42aeea" d="M176 260c8.837 0 16 7.163 16 16s-7.163 16-16 16h-32c-8.837 0-16-7.163-16-16s7.163-16 16-16zM60 100c13.255 0 24 10.745 24 24v72c0 13.255-10.745 24-24 24s-24-10.745-24-24v-72c0-13.255 10.745-24 24-24m200 0c13.255 0 24 10.745 24 24v72c0 13.255-10.745 24-24 24s-24-10.745-24-24v-72c0-13.255 10.745-24 24-24M160 12c21.883 0 35.295 4.41 43.478 9.448C212.108 26.763 206.5 36 196.365 36h-72.73c-10.135 0-15.743-9.237-7.113-14.552C124.705 16.41 138.117 12 160 12"/><g id="Outlines" fill="#1d1d1b"><path d="M188 276c0-6.627-5.373-12-12-12h-32c-6.627 0-12 5.373-12 12s5.373 12 12 12h32c6.627 0 12-5.373 12-12m8 0c0 11.046-8.954 20-20 20h-32c-11.046 0-20-8.954-20-20s8.954-20 20-20h32c11.046 0 20 8.954 20 20"/><path d="M56 176v32c0 39.764 32.236 72 72 72a4 4 0 0 0 0-8c-35.346 0-64-28.654-64-64v-32a4 4 0 0 0-8 0m224 19.111a4.89 4.89 0 0 0 4.889 4.889c10.554 0 19.111-8.557 19.111-19.111v-42.032c0-10.414-8.443-18.857-18.857-18.857l-.265.007a5.143 5.143 0 0 0-4.878 5.136zm16-14.222c0 5.056-3.378 9.32-8 10.666v-63.173c4.61 1.254 8 5.468 8 10.475z"/><path d="M280 124c0-11.046-8.954-20-20-20s-20 8.954-20 20v72c0 11.046 8.954 20 20 20s20-8.954 20-20zm8 72c0 15.464-12.536 28-28 28s-28-12.536-28-28v-72c0-15.464 12.536-28 28-28s28 12.536 28 28zM80 124c0-11.046-8.954-20-20-20s-20 8.954-20 20v72c0 11.046 8.954 20 20 20s20-8.954 20-20zm8 72c0 15.464-12.536 28-28 28s-28-12.536-28-28v-72c0-15.464 12.536-28 28-28s28 12.536 28 28z"/><path d="M40 195.111A4.89 4.89 0 0 1 35.111 200C24.557 200 16 191.443 16 180.889v-42.032C16 128.443 24.443 120 34.857 120l.265.007A5.143 5.143 0 0 1 40 125.143zm-16-14.222c0 5.056 3.378 9.32 8 10.666v-63.173c-4.61 1.254-8 5.468-8 10.475zM160 8c56.756 0 104 38.774 104 88h-8c0-43.558-42.299-80-96-80S64 52.442 64 96h-8c0-49.226 47.244-88 104-88"/><path d="M160 8c22.405 0 36.599 4.514 45.575 10.042 2.754 1.696 4.765 3.955 5.658 6.675.904 2.755.509 5.537-.748 7.886-2.448 4.58-7.957 7.397-14.12 7.397h-72.73c-6.163 0-11.672-2.818-14.12-7.397-1.257-2.35-1.652-5.131-.747-7.886.892-2.72 2.903-4.98 5.657-6.675C123.402 12.514 137.595 8 160 8m0 8c-21.361 0-33.991 4.305-41.38 8.855-1.561.961-2.085 1.85-2.252 2.357-.154.472-.132.995.201 1.62.732 1.367 3.094 3.168 7.066 3.168h72.73c3.972 0 6.334-1.801 7.066-3.169.333-.624.356-1.147.201-1.62-.166-.506-.691-1.395-2.252-2.356C193.991 20.305 181.361 16 160 16"/></g></g></svg>