<svg xmlns="http://www.w3.org/2000/svg" fill="none" viewBox="0 0 320 320"><g id="car"><g id="lg-icon-fill-primary" fill="#42aeea"><path fill-rule="evenodd" d="M80 220c19.882 0 36 16.118 36 36s-16.118 36-36 36-36-16.118-36-36 16.118-36 36-36m0 24c-6.627 0-12 5.373-12 12s5.373 12 12 12 12-5.373 12-12-5.373-12-12-12m160-24c19.882 0 36 16.118 36 36s-16.118 36-36 36-36-16.118-36-36 16.118-36 36-36m0 24c-6.627 0-12 5.373-12 12s5.373 12 12 12 12-5.373 12-12-5.373-12-12-12" clip-rule="evenodd"/><path d="M44 180v24H20v-24zm200 0H80c-36 0-36-32-36-32l36-16h110z"/></g><g id="Outlines" fill="#1d1d1b" fill-rule="evenodd" clip-rule="evenodd"><path d="M80 240c8.837 0 16 7.163 16 16s-7.163 16-16 16-16-7.164-16-16 7.163-16 16-16m0 8a8 8 0 1 0 0 16 8 8 0 0 0 0-16m160-8c8.837 0 16 7.163 16 16s-7.163 16-16 16-16-7.164-16-16 7.163-16 16-16m0 8a8 8 0 1 0 0 16 8 8 0 0 0 0-16"/><path d="M163.129 68.28C187.112 65.756 208 84.56 208 108.676c0 6.254-5.07 11.324-11.324 11.324h-24.675a19.9 19.9 0 0 1 3.599 8h8.317c4.898 0 9.626 1.798 13.287 5.052l48.142 42.793c.432.384.942.67 1.495.838l42.969 13.044A20 20 0 0 1 304 208.864V248a4 4 0 0 1-1.781 3.328l-23.812 15.874C273.562 283.841 258.202 296 240 296c-16.402 0-30.495-9.874-36.668-24h-86.664c-6.173 14.126-20.266 24-36.668 24-22.091 0-40-17.909-40-40 0-2.008.149-3.981.435-5.909l-20.92-20.919A12 12 0 0 1 16 220.686v-53.019a20 20 0 0 1 12.308-18.462l47.2-19.667A20 20 0 0 1 83.2 128h5.2a19.9 19.9 0 0 1 3.6-8H54.246c-7.807 0-13.535-7.337-11.641-14.91l4.157-16.63a12 12 0 0 1 10.386-9.023zM80 224c-17.673 0-32 14.327-32 32s14.327 32 32 32 32-14.327 32-32-14.327-32-32-32m160 0c-17.673 0-32 14.327-32 32s14.327 32 32 32 32-14.327 32-32-14.327-32-32-32m-156-7.803c20.213 2.007 36 19.062 36 39.803 0 2.74-.276 5.415-.801 8h81.602a40 40 0 0 1-.801-8c0-22.091 17.909-40 40-40s40 17.909 40 40c0 .177-.005.354-.007.53L296 245.859v-26.81l-31.182-8.575A12 12 0 0 1 256 198.903v-11.081l-11.482-3.485a12 12 0 0 1-.959-.337H140v4c0 6.627-5.373 12-12 12h-16c-6.627 0-12-5.373-12-12v-4H84zM31.385 156.59A12 12 0 0 0 24 167.667V176h12c6.627 0 12 5.373 12 12v8c0 6.627-5.373 12-12 12H24v12.686c0 1.061.422 2.079 1.172 2.829l17.664 17.665c5.417-13.573 18.053-23.483 33.164-24.983v-32.329c-16.915-1.12-26.163-9.332-30.986-17.907-2.522-4.483-3.765-8.927-4.383-12.224q-.09-.482-.163-.932zM264 198.903a4 4 0 0 0 2.939 3.857L296 210.751v-1.887a12 12 0 0 0-8.515-11.483L264 190.251zM24 200h12a4 4 0 0 0 4-4v-8a4 4 0 0 0-4-4H24zm84-12a4 4 0 0 0 4 4h16a4 4 0 0 0 4-4v-4h-24zm-24.8-52c-1.584 0-3.153.314-4.615.923L48.109 149.62c.072.704.19 1.603.385 2.643.507 2.703 1.514 6.259 3.492 9.776C55.796 168.811 63.48 176 80 176h153.48l-41.59-36.969a12 12 0 0 0-7.973-3.031zm24.8-16c-5.225 0-9.667 3.34-11.314 8h70.628c-1.647-4.66-6.089-8-11.314-8zm-56.877-16-.758 3.03a4 4 0 0 0 3.881 4.97h142.43a3.325 3.325 0 0 0 3.324-3.324c0-1.59-.116-3.151-.334-4.676zm146.325-8c-5.4-12.795-18.709-21.319-33.482-19.764L57.986 87.392a4 4 0 0 0-3.463 3.008l-1.4 5.6z"/></g></g></svg>