<svg xmlns="http://www.w3.org/2000/svg" fill="none" viewBox="0 0 320 320"><g id="care"><path id="lg-icon-fill-primary" fill="#42aeea" d="M196 64.571C196 44.374 212.118 28 232 28s36 20.945 36 41.143C268 110.286 200.5 156 196 156s-72-45.714-72-86.857C124 48.945 140.118 28 160 28s36 16.377 36 36.571M36 140a8 8 0 0 0-8 8v80a8 8 0 0 0 8 8h40v-88a8 8 0 0 0-8-8z"/><g id="Outlines" fill="#1d1d1b" fill-rule="evenodd" clip-rule="evenodd"><path d="M160 24c-11.404 0-21.446 5.999-28.52 14.426C124.41 46.848 120 58.029 120 69.143c0 11.346 4.633 22.673 11.241 33.073 6.632 10.439 15.455 20.262 24.316 28.684 8.874 8.433 17.885 15.553 24.983 20.579 3.547 2.511 6.653 4.525 9.056 5.93 1.195.698 2.269 1.277 3.167 1.695.446.207.907.402 1.354.553.353.119 1.064.343 1.883.343s1.53-.224 1.883-.343c.447-.151.908-.346 1.354-.553.898-.418 1.972-.997 3.167-1.695 2.403-1.405 5.509-3.419 9.056-5.93 7.098-5.026 16.109-12.146 24.983-20.579 8.861-8.422 17.684-18.245 24.316-28.684C267.367 91.816 272 80.489 272 69.143c0-11.114-4.41-22.295-11.48-30.717C253.446 29.999 243.404 24 232 24c-15.867 0-29.527 9.351-36 22.871C189.526 33.353 175.867 24 160 24m0 8c17.614 0 32 14.526 32 32.571a4 4 0 0 0 8 0C200 46.523 214.386 32 232 32c8.478 0 16.436 4.474 22.392 11.569 5.96 7.1 9.608 16.49 9.608 25.574 0 9.226-3.804 19.041-9.993 28.784-6.165 9.703-14.499 19.023-23.075 27.173-8.564 8.139-17.271 15.018-24.095 19.85-3.414 2.417-6.32 4.296-8.47 5.552a34 34 0 0 1-2.367 1.283 34 34 0 0 1-2.367-1.283c-2.15-1.256-5.056-3.135-8.47-5.552-6.824-4.832-15.531-11.711-24.095-19.85-8.576-8.15-16.91-17.47-23.075-27.173C131.804 88.184 128 78.369 128 69.143c0-9.084 3.649-18.475 9.608-25.574C143.564 36.474 151.522 32 160 32m35.277 120.092q0-.002.046-.014zm1.4-.014c.059.015.063.021 0 0"/><path d="M79.309 144.003c-1.651-4.659-6.1-8.003-11.314-8.003H36c-6.618 0-12 5.385-12 12.005v80.037c0 6.619 5.382 12.004 11.998 12.004h55.995c5.751 0 10.57-4.069 11.729-9.483 14.523 7.11 54.194 25.437 77.263 25.437 25.345 0 94.166-43.613 99.385-46.943l.081-.04.294-.147c3.053-1.552 15.255-8.537 15.255-21.01 0-5.656-2.424-8.523-4.457-9.932-5.185-3.597-12.408-1.049-13.308-.71l-54.074 21.835c-.485-8.374-7.179-15.032-15.338-15.032l-32.058-.003c-23.322-27.425-62.9-28.068-72.774-27.772l.001-.238c0-6.619-5.383-12.005-11.999-12.005zm24.68 77.753.001-57.493c8.388-.229 46.934.222 67.771 26.261l-.021-.026a5 5 0 0 0 .192.226l.02.021.083.088.057.056.101.095q.155.142.322.264l.046.034q.06.043.12.082l.021.013.02.014q.063.042.129.079l.046.027a3 3 0 0 0 .222.118l.075.036q.28.13.578.216l.023.007.042.012q.08.023.16.039l.032.008.074.015q.045.01.09.016l.014.003.046.008q.067.011.135.019l.08.009q.074.008.149.013l.059.002-.003.001h.016l.062.003h.009l.018.001.105.002h33.94c4.062 0 7.367 3.59 7.367 8.003s-3.305 8.004-7.367 8.004h-53.047a4 4 0 0 0-3.999 4.002 4 4 0 0 0 3.999 4.001h53.047c5.427 0 10.207-2.946 12.941-7.384l.048-.019 59.351-23.965c1.694-.606 4.635-.994 5.83-.157.877.614 1.008 2.362 1.008 3.35 0 8.127-9.546 13.209-11.031 13.95l-.117.057-.053.025-.023.011a4 4 0 0 0-.504.274l-.032.021c-.169.108-.974.62-2.31 1.458l-.439.275c-5.715 3.576-19.555 12.095-35.141 20.662l-1.218.668c-34.379 18.791-49.51 22.735-56.148 22.735-23.126 0-67.013-21.25-76.996-26.24m-23.995-69.749h11.999c2.206 0 4 1.794 4 4.001v72.033a4.005 4.005 0 0 1-4 4.002H79.994zM36 144.003h31.996c2.206 0 4 1.795 4 4.002v84.038H35.998a4.004 4.004 0 0 1-3.999-4.001v-80.037a4.005 4.005 0 0 1 4-4.002"/></g></g></svg>