<svg xmlns="http://www.w3.org/2000/svg" fill="none" viewBox="0 0 320 320"><g id="cash-lump-sum"><path id="lg-icon-fill-primary" fill="#42aeea" d="M118 28s11.256 8 19.75 8c4.247 0 7.561-2 10.875-4s6.628-4 10.875-4 7.561 2 10.875 4 6.628 4 10.875 4c8.494 0 19.75-8 19.75-8s7 29-8 29c-7.88 0-12.004.728-16.189 1.466-4.312.761-8.69 1.534-17.311 1.534-8.556 0-12.806-.761-17.025-1.516C138.318 57.739 134.19 57 126 57c-14 0-8-29-8-29m6 64h72s62.108 69.009 70.956 120.5A48.5 48.5 0 0 0 260 212c-26.51 0-48 21.49-48 48a47.78 47.78 0 0 0 9.113 28.144C202.884 296.134 181.288 300 160 300c-53.042 0-104-24-104-76s68-132 68-132"/><g id="Outlines" fill="#1d1d1b"><path d="M199.352 76c0-2.21-1.83-4-4.088-4h-69.769c-2.257 0-4.088 1.79-4.088 4s1.831 4 4.088 4h69.769c2.258 0 4.088-1.79 4.088-4"/><path fill-rule="evenodd" d="M133.089 32.857c-2.318-.787-4.392-2.245-11.122-7.662-3.188-2.565-5.909-.584-7.062 2.033-.43.975-.752 2.28-1.015 3.972-.527 3.381-.82 8.395-.82 14.766 0 11.675 10.544 16.504 28.086 17.694q.75.051 1.477.093l.726.04c3.261.167 6.493.207 11.907.207h9.542c5.414 0 8.646-.04 11.908-.208l.726-.04q.726-.04 1.477-.092c17.542-1.19 28.085-6.019 28.085-17.694 0-6.44-.308-11.478-.861-14.864-.277-1.694-.616-3-1.071-3.979-1.191-2.559-3.971-4.426-7.059-1.925-6.67 5.4-8.729 6.86-11.029 7.651-3.796 1.308-7.152.22-25.193-8.176a4.17 4.17 0 0 0-3.507 0c-6.307 2.935-10.819 4.977-14.183 6.335l-.566.226c-5.822 2.306-8.046 2.439-10.446 1.623m-2.725 6.909c6.696 2.29 10.554 1.158 29.673-7.766 19.157 8.941 23.009 10.068 29.706 7.746 2.73-.947 4.732-2.13 8.827-5.328.28 2.851.44 6.63.44 11.204 0 5.923-6.931 9.119-20.631 10.055-.59.04-1.165.075-1.738.107l-.687.035c-2.983.145-6.064.181-11.139.181h-9.556c-5.075 0-8.156-.036-11.139-.18l-.687-.036a144 144 0 0 1-1.737-.107c-13.701-.936-20.631-4.132-20.631-10.055 0-4.542.152-8.313.421-11.169 4.118 3.194 6.132 4.374 8.878 5.313" clip-rule="evenodd"/><path d="M223.599 194.343a4 4 0 0 1 0 5.657c-10.935 10.934-28.664 10.934-39.598 0a4 4 0 0 1 5.657-5.657c7.81 7.81 20.473 7.81 28.284 0a4 4 0 0 1 5.657 0m-64 29.657a4 4 0 0 0-5.657-5.657c-7.811 7.81-20.474 7.81-28.284 0a4 4 0 0 0-5.657 5.657c10.934 10.934 28.663 10.934 39.598 0m40 24a4 4 0 0 0-5.657-5.657c-7.811 7.81-20.474 7.81-28.284 0a4 4 0 0 0-5.657 5.657c10.934 10.934 28.663 10.934 39.598 0m-16 24a4 4 0 0 0-5.657-5.657c-7.811 7.81-20.474 7.81-28.284 0a4 4 0 0 0-5.657 5.657c10.934 10.934 28.663 10.934 39.598 0m-56.003-21.657a4 4 0 0 1 0 5.657c-10.935 10.934-28.664 10.934-39.598 0a4 4 0 0 1 5.656-5.657c7.811 7.81 20.474 7.81 28.285 0a4 4 0 0 1 5.657 0M260 240c-4.3 0-8 3.634-8 8.385 0 .446.104 1.321.374 2.753.238 1.264.559 2.735.924 4.41l.095.436c.273 1.256.566 2.608.851 4.016H264a4 4 0 0 1 0 8h-8.435l.02.176.017.149c.417 3.842.511 8.093-.624 11.675H272a4 4 0 0 1 0 8h-28a4 4 0 0 1 0-8c1.218 0 1.839-.283 2.173-.519.346-.243.722-.675 1.047-1.519.717-1.866.853-4.868.428-8.772q-.064-.591-.142-1.19H244a4 4 0 0 1 0-8h2.074q-.249-1.176-.498-2.314l-.101-.461c-.357-1.64-.702-3.224-.962-4.606-.274-1.45-.513-2.971-.513-4.234 0-8.929 7.045-16.385 16-16.385s16 7.456 16 16.385a4 4 0 0 1-8 0c0-4.751-3.7-8.385-8-8.385"/><path fill-rule="evenodd" d="M122.15 88h75.631c.766.85 1.119 1.24 1.252 1.383l.777.884c.537.61 1.321 1.507 2.316 2.664a454 454 0 0 1 8.229 9.86c6.8 8.374 15.873 20.092 24.954 33.461 9.073 13.358 18.205 28.437 25.081 43.527 4.458 9.783 8.031 19.705 9.983 29.256C294.122 213.842 312 234.833 312 260c0 28.719-23.281 52-52 52-16.177 0-30.629-7.387-40.166-18.972C201.629 300.457 180.6 304 160 304c-27.045 0-53.864-6.106-74.06-19.139C65.594 271.731 52 251.544 52 224c0-13.786 4.483-29.117 10.95-44.144 6.492-15.082 15.114-30.158 23.683-43.516 8.577-13.369 17.146-25.088 23.568-33.462a454 454 0 0 1 7.772-9.86c.94-1.158 1.681-2.055 2.188-2.665.468-.562.666-.801.741-.894A112 112 0 0 0 122.15 88m130.96 95.096c3.907 8.573 6.981 16.989 8.853 24.94A53 53 0 0 0 260 208c-28.719 0-52 23.281-52 52 0 9.593 2.597 18.579 7.127 26.293C198.467 292.794 179.174 296 160 296c-25.997 0-51.178-5.894-69.722-17.861C71.885 266.269 60 248.456 60 224c0-12.214 4.016-26.383 10.3-40.981 6.258-14.543 14.636-29.217 23.067-42.359 8.423-13.131 16.854-24.662 23.182-32.913a443 443 0 0 1 7.634-9.686c.674-.83 1.241-1.52 1.688-2.061h68.327c.485.553 1.111 1.273 1.863 2.147a450 450 0 0 1 8.084 9.687c6.7 8.251 15.627 19.783 24.546 32.914 8.927 13.142 17.795 27.813 24.419 42.348M304 260c0 24.301-19.699 44-44 44s-44-19.699-44-44 19.699-44 44-44 44 19.699 44 44" clip-rule="evenodd"/><path d="M198.815 89.126c-.164-.184-.255-.282.218.257.181.196-.055-.073-.218-.257"/></g></g></svg>