<svg xmlns="http://www.w3.org/2000/svg" fill="none" viewBox="0 0 320 320"><g id="cash"><path id="lg-icon-fill-primary" fill="#42aeea" fill-rule="evenodd" d="M308 140H12v136h296zM160 252c24.301 0 44-19.699 44-44s-19.699-44-44-44-44 19.699-44 44 19.699 44 44 44m96-24c11.046 0 20-8.954 20-20s-8.954-20-20-20-20 8.954-20 20 8.954 20 20 20M84 208c0 11.046-8.954 20-20 20s-20-8.954-20-20 8.954-20 20-20 20 8.954 20 20" clip-rule="evenodd"/><g id="Outlines" fill="#1d1d1b"><path fill-rule="evenodd" d="M256 232c13.255 0 24-10.745 24-24s-10.745-24-24-24-24 10.745-24 24 10.745 24 24 24m0-8c8.837 0 16-7.163 16-16s-7.163-16-16-16-16 7.163-16 16 7.163 16 16 16" clip-rule="evenodd"/><path d="M153 196.385c0-4.751 3.7-8.385 8-8.385s8 3.634 8 8.385a4 4 0 0 0 8 0c0-8.929-7.045-16.385-16-16.385s-16 7.456-16 16.385c0 1.263.239 2.784.513 4.234.26 1.382.605 2.966.962 4.606l.101.461q.249 1.138.498 2.314H145a4 4 0 0 0 0 8h3.506q.078.599.142 1.19c.425 3.904.289 6.906-.428 8.772-.325.844-.701 1.276-1.047 1.519-.334.236-.955.519-2.173.519a4 4 0 0 0 0 8h28a4 4 0 0 0 0-8h-17.022c1.135-3.582 1.041-7.833.624-11.675l-.037-.325H165a4 4 0 0 0 0-8h-9.756c-.285-1.408-.578-2.76-.851-4.016l-.095-.436c-.365-1.675-.686-3.146-.924-4.41-.27-1.432-.374-2.307-.374-2.753"/><path fill-rule="evenodd" d="M160 256c26.51 0 48-21.49 48-48s-21.49-48-48-48-48 21.49-48 48 21.49 48 48 48m0-8c22.091 0 40-17.909 40-40s-17.909-40-40-40-40 17.909-40 40 17.909 40 40 40m-96-16c13.255 0 24-10.745 24-24s-10.745-24-24-24-24 10.745-24 24 10.745 24 24 24m0-8c8.837 0 16-7.163 16-16s-7.163-16-16-16-16 7.163-16 16 7.163 16 16 16" clip-rule="evenodd"/><path fill-rule="evenodd" d="M36 64h4V44a4 4 0 0 1 4-4h232a4 4 0 0 1 4 4v20h4a4 4 0 0 1 4 4v20h4a4 4 0 0 1 4 4v20h4a4 4 0 0 1 4 4v20h4a4 4 0 0 1 4 4v136a4 4 0 0 1-4 4H12a4 4 0 0 1-4-4V140a4 4 0 0 1 4-4h4v-20a4 4 0 0 1 4-4h4V92a4 4 0 0 1 4-4h4V68a4 4 0 0 1 4-4m-12 72h272v-16H24zm264-40v16H32V96zM40 88h240V72H40zm232-24H48V48h224zM16 144v128h288V144z" clip-rule="evenodd"/></g></g></svg>