<svg xmlns="http://www.w3.org/2000/svg" fill="none" viewBox="0 0 320 320"><g id="cement"><g id="lg-icon-fill-primary" fill="#42aeea"><path fill-rule="evenodd" d="M188.832 71.753c15.305 8.837 20.549 28.407 11.713 43.713l-28 48.497c-8.837 15.306-28.408 20.55-43.713 11.713l-11.082-6.398-.247.428-65.818-38 .753-1.305L12 62.035l20-34.641 81.488.859-14.869 25.754 38.975 4.9 24.775 32.68 15.205-26.334zm-89.238 52.972 24.775 32.681 19-32.909-24.775-32.681-38.975-4.9-19 32.908zM220.065 256c0 19.882 16.118 36 36 36s36-16.118 36-36-16.118-36-36-36-36 16.118-36 36m24 0c0 6.627 5.372 12 12 12 6.627 0 12-5.373 12-12s-5.373-12-12-12c-6.628 0-12 5.373-12 12m-124 36c-19.882 0-36-16.118-36-36 0 19.882-16.118 36-36 36s-36-16.118-36-36 16.118-36 36-36 36 16.118 36 36c0-19.882 16.118-36 36-36s36 16.118 36 36-16.118 36-36 36m0-24c-6.628 0-12-5.373-12-12s5.372-12 12-12c6.627 0 12 5.373 12 12s-5.373 12-12 12m-72 0c-6.627 0-12-5.373-12-12s5.373-12 12-12 12 5.373 12 12-5.373 12-12 12" clip-rule="evenodd"/><path d="M308.065 125.826a2 2 0 0 0-1.819-1.991l-84-7.637a2 2 0 0 0-2.181 1.992v16.669a2 2 0 0 0 .982 1.722l84 49.636c1.334.788 3.018-.173 3.018-1.722z"/></g><g id="Outlines" fill="#1d1d1b" fill-rule="evenodd" clip-rule="evenodd"><path d="M65.136 256c0-8.837-7.164-16-16-16s-16 7.163-16 16 7.163 16 16 16 16-7.164 16-16m-16-8a8 8 0 1 1 0 16 8 8 0 0 1 0-16m88 8c0-8.837-7.164-16-16-16s-16 7.163-16 16 7.163 16 16 16 16-7.164 16-16m-16-8a8 8 0 1 1 0 16 8 8 0 0 1 0-16m152 8c0-8.837-7.164-16-16-16s-16 7.163-16 16 7.163 16 16 16 16-7.164 16-16m-16-8a8 8 0 1 1 0 16 8 8 0 0 1 0-16"/><path d="M204.143 117.495c9.941-17.218 4.041-39.235-13.177-49.176L113.824 23.78l-83.136.147L8.383 62.56l41.441 72.071 77.142 44.538c17.218 9.941 39.236 4.041 49.177-13.177l6.21-10.757C185.346 163.831 193.52 170 203.136 170c4.863 0 9.358-1.578 13-4.25V216h-47v-18a6 6 0 0 0-6-6h-38.928l-88.607-51.195A6 6 0 0 0 32.6 140h-9.464a6 6 0 0 0-6 6v72a6 6 0 0 0 6 6h1.996c-9.714 7.298-15.996 18.915-15.996 32 0 22.091 17.908 40 40 40 15.833 0 29.517-9.199 36-22.544 6.483 13.345 20.167 22.544 36 22.544 20.741 0 37.795-15.787 39.802-36h56.395c2.007 20.213 19.061 36 39.803 36s37.795-15.787 39.802-36h9.198a6 6 0 0 0 6-6V109.827a6 6 0 0 0-5.457-5.976l-84-7.636a6 6 0 0 0-6.543 5.975v18.723a6 6 0 0 0-.136 1.277v7.961A21.9 21.9 0 0 0 203.136 126c-1.411 0-2.79.133-4.126.386zm-17.177-42.248c13.392 7.732 17.98 24.856 10.248 38.248l-28 48.498c-7.732 13.392-24.856 17.981-38.248 10.249l-6.928-4 56-96.995zm-13.857-8-9.988 17.3-22.286-29.399-36.603-4.602 9.988-17.3zM105.82 31.795l-70.508.125-17.696 30.649 35.147 61.124zm-47.6 98.447 3.672-6.361 36.602 4.603 22.287 29.397-3.672 6.361zm66.901 20.122-22.286-29.398-36.603-4.602 14.66-25.392 36.602 4.603 22.287 29.397zm19-32.909-22.286-29.398-36.603-4.602 14.66-25.391 36.602 4.602 22.287 29.398zm81.013 30.225.002.32c0 2.291-.35 4.5-1 6.577v78.811c7.209-10.501 19.3-17.388 33-17.388 20.741 0 37.796 15.787 39.802 36h7.198v-57.797a6 6 0 0 1-1.188-.542zm79.002-24.048v-11.979l-80-7.273v11.979zm-80 14.166v-13.406L304 131.653v53.337zm-21 24.202c5.892 0 10.934-3.64 13-8.794v-10.412c-2.066-5.154-7.108-8.794-13-8.794-7.732 0-14 6.268-14 14s6.268 14 14 14m13 62v28h-55.198c-1.135-11.436-7.087-21.455-15.798-28h17.996c.701 0 1.374-.12 2-.341V224zm-95.466-24.805L32.063 148h-6.927v68h136v-16h-37.464a6 6 0 0 1-3.002-.805M73.14 224a40.2 40.2 0 0 1 11.996 14.543A40.2 40.2 0 0 1 97.132 224zm-24.004 0c17.673 0 32 14.327 32 32s-14.327 32-32 32-32-14.327-32-32 14.327-32 32-32m72 0c17.673 0 32 14.327 32 32s-14.327 32-32 32-32-14.327-32-32 14.327-32 32-32m168 32c0-17.673-14.327-32-32-32s-32 14.327-32 32 14.327 32 32 32 32-14.327 32-32"/></g></g></svg>