<svg xmlns="http://www.w3.org/2000/svg" fill="none" viewBox="0 0 320 320"><g id="chart-pie"><path id="lg-icon-fill-primary" fill="#42aeea" d="M288.127 102.918A120 120 0 0 0 174 20v120z"/><g id="Outlines" fill="#1d1d1b" fill-rule="evenodd" clip-rule="evenodd"><path d="M148 56a4 4 0 0 1 4 4v114.493l108.891-35.38a4 4 0 0 1 5.04 2.569A124 124 0 1 1 148 56m-4 8.07a115.999 115.999 0 1 0 115.491 83.91l-110.255 35.825A4 4 0 0 1 144 180z"/><path d="M174 16a124 124 0 0 1 117.931 85.682 4 4 0 0 1-2.568 5.041l-114.127 37.082A4 4 0 0 1 170 140V20a4 4 0 0 1 4-4m4 118.493 105.019-34.122a116 116 0 0 0-40.836-54.217A116 116 0 0 0 178 24.07z"/></g></g></svg>