<svg xmlns="http://www.w3.org/2000/svg" fill="none" viewBox="0 0 320 320"><g id="chat" fill-rule="evenodd" clip-rule="evenodd"><path id="lg-icon-fill-primary" fill="#42aeea" d="M132 100h160v160h-32v26l-26-26H132z"/><path id="Outlines" fill="#1d1d1b" d="M192 24v72h104v168h-32v32l-32-32H128v-72H88l-32 32v-32H24V24zm-56 80v152h99.314L256 276.686V256h32V104zm84 104a4 4 0 0 1 0 8h-56a4 4 0 0 1 0-8zm40-24a4 4 0 0 1 0 8h-96a4 4 0 0 1 0-8zM184 32H32v152h32v20.686L84.686 184H128V96h56zm76 128a4 4 0 0 1 0 8h-96a4 4 0 0 1 0-8zm0-24a4 4 0 0 1 0 8h-96a4 4 0 0 1 0-8z"/></g></svg>