<svg xmlns="http://www.w3.org/2000/svg" fill="none" viewBox="0 0 320 320"><g id="checklist" fill-rule="evenodd" clip-rule="evenodd"><path id="lg-icon-fill-primary" fill="#42aeea" d="M92 12h136v32H92z"/><path id="Outlines" fill="#1d1d1b" d="M223.7 8a8.31 8.31 0 0 1 8.3 8.3V24h23.7a8.31 8.31 0 0 1 8.3 8.3v271.4a8.31 8.31 0 0 1-8.3 8.3H64.3a8.31 8.31 0 0 1-8.3-8.3V32.3a8.31 8.31 0 0 1 8.3-8.3H88v-7.7A8.31 8.31 0 0 1 96.3 8zM88 32.3H64.3v271.4h191.4V32.3H232v7.4a8.31 8.31 0 0 1-8.3 8.3H96.3a8.31 8.31 0 0 1-8.3-8.3zM124 248a4 4 0 0 1 0 8H84a4 4 0 0 1 0-8zm109.17-27.09a4 4 0 0 1 5.66 5.64l-30.83 31-14.83-14.9a4 4 0 1 1 5.66-5.65l9.17 9.21 25.17-25.28zM164 232a4 4 0 0 1 0 8H84a4 4 0 0 1 0-8zm-40-48a4 4 0 0 1 0 8H84a4 4 0 0 1 0-8zm109.17-27.09a4 4 0 0 1 5.66 5.64l-30.83 31-14.83-14.9a4 4 0 1 1 5.66-5.65l9.17 9.21 25.17-25.28zM164 168a4 4 0 0 1 0 8H84a4 4 0 0 1 0-8zm-40-48a4 4 0 0 1 0 8H84a4 4 0 0 1 0-8zm109.17-27.09a4 4 0 1 1 5.66 5.64l-30.83 31-14.83-14.9a4 4 0 1 1 5.66-5.65l9.17 9.21zM164 104a4 4 0 0 1 0 8H84a4 4 0 0 1 0-8zm59.7-88H96.3a.31.31 0 0 0-.3.3v23.4a.31.31 0 0 0 .3.3h127.4a.31.31 0 0 0 .3-.3V16.3a.31.31 0 0 0-.3-.3"/></g></svg>