<svg xmlns="http://www.w3.org/2000/svg" fill="none" viewBox="0 0 320 320"><g id="chemicals"><path id="lg-icon-fill-primary" fill="#42aeea" d="M228 112h40v128c0 10.935-8.775 19.82-19.668 19.997l4.279 9.337c4.858 10.598-2.887 22.666-14.545 22.666H107.058c-3.586.657-7.282 1-11.058 1-33.69 0-61-27.311-61-61a60.8 60.8 0 0 1 4.903-24h111.105a60.23 60.23 0 0 0-20.129-24.827L141.5 160h61l25.5 55.636z"/><path id="Outlines" fill="#1d1d1b" fill-rule="evenodd" d="M152 24c-6.627 0-12 5.373-12 12 0 5.225 3.339 9.67 8 11.317v87.804l-19.313 41.846a64 64 0 0 0-8.687-4.314v-69.031c5.176-1.332 9-6.03 9-11.622 0-6.627-5.373-12-12-12H77c-6.627 0-12 5.373-12 12 0 4.843 2.869 9.016 7 10.912v69.741a64 64 0 0 0-8.27 4.067 63.6 63.6 0 0 0-19.59 17.768C36.505 205.027 32 217.986 32 232c0 35.346 28.654 64 64 64q2.914 0 5.762-.256 1.576.254 3.245.256h133.987c14.596 0 24.275-15.129 18.159-28.381l-2.149-4.657C264.842 259.965 272 250.818 272 240V47.317c4.661-1.647 8-6.092 8-11.317 0-6.627-5.373-12-12-12h-40c-6.627 0-12 5.373-12 12 0 5.225 3.339 9.67 8 11.317v148.471l-28-60.667V47.317c4.661-1.647 8-6.092 8-11.317 0-6.627-5.373-12-12-12zM77 96h40a4 4 0 0 0 0-8H77a4 4 0 0 0 0 8m3 8v66.034a64.2 64.2 0 0 1 15.997-2.043 4 4 0 1 1 .007 8 56.3 56.3 0 0 0-28.645 7.876 56.3 56.3 0 0 0-16.573 15.085 57 57 0 0 0-3.284 5.049q-.069.122-.147.236C42.676 212.421 40 221.899 40 232c0 30.928 25.072 56 56 56s56-25.072 56-56c0-24.376-15.577-45.125-37.333-52.815l-2.667-.942V104zm47.008 184h111.986c8.757 0 14.565-9.077 10.895-17.029L188 136.879V48h-32v88.879l-20.617 44.671C150.365 193.261 160 211.503 160 232c0 24.096-13.317 45.082-32.992 56M264 240c0 7.598-5.296 13.959-12.398 15.593L232 213.121V48h32zM192 40a4 4 0 0 0 0-8h-40a4 4 0 0 0 0 8zm80-4a4 4 0 0 1-4 4h-40a4 4 0 0 1 0-8h40a4 4 0 0 1 4 4" clip-rule="evenodd"/></g></svg>