<svg xmlns="http://www.w3.org/2000/svg" fill="none" viewBox="0 0 320 320"><g id="claim"><path id="lg-icon-fill-primary" fill="#42aeea" d="M88 67V42.179L124 32l36 10.179V67c0 30-36 45-36 45S88 97 88 67"/><g id="Outlines" fill="#1d1d1b"><path d="M184 132a4 4 0 0 0-4-4H92a4 4 0 0 0 0 8h88a4 4 0 0 0 4-4m-4 12a4 4 0 0 1 0 8H92a4 4 0 0 1 0-8zm4 44a4 4 0 0 0-4-4H92a4 4 0 0 0 0 8h88a4 4 0 0 0 4-4m-4 12a4 4 0 0 1 0 8H92a4 4 0 0 1 0-8zm-12 44a4 4 0 0 0-4-4H92a4 4 0 0 0 0 8h72a4 4 0 0 0 4-4m-40 16a4 4 0 0 0-4-4H92a4 4 0 0 0 0 8h32a4 4 0 0 0 4-4m100-76a4 4 0 0 1 0 8h-24a4 4 0 0 1 0-8zm4-52a4 4 0 0 0-4-4h-24a4 4 0 0 0 0 8h24a4 4 0 0 0 4-4"/><path fill-rule="evenodd" d="M124 112s36-15 36-45V42.179L124 32 88 42.179V67c0 30 36 45 36 45M96 48.23V67c0 11.554 6.919 20.77 15.121 27.604 3.093 2.577 6.209 4.676 8.879 6.283V41.445zm40.879 46.374c-3.093 2.577-6.209 4.676-8.879 6.283V41.445l24 6.785V67c0 11.554-6.919 20.77-15.121 27.604" clip-rule="evenodd"/><path d="M252 248.385c0-4.751 3.7-8.385 8-8.385s8 3.634 8 8.385a4 4 0 0 0 8 0c0-8.929-7.045-16.385-16-16.385s-16 7.456-16 16.385c0 1.263.239 2.784.513 4.234.26 1.382.605 2.966.962 4.606l.101.461q.249 1.138.498 2.314H244a4 4 0 0 0 0 8h3.506q.078.599.142 1.19c.425 3.904.289 6.906-.428 8.772-.325.844-.701 1.276-1.047 1.519-.334.236-.955.519-2.173.519a4 4 0 0 0 0 8h28a4 4 0 0 0 0-8h-17.022c1.135-3.582 1.041-7.833.624-11.675l-.037-.325H264a4 4 0 0 0 0-8h-9.756c-.285-1.408-.578-2.76-.851-4.016l-.095-.436c-.365-1.675-.686-3.146-.924-4.41-.27-1.432-.374-2.307-.374-2.753"/><path fill-rule="evenodd" d="M56 14a6 6 0 0 1 6-6h196a6 6 0 0 1 6 6v194.152c26.85 2.042 48 24.475 48 51.848 0 28.719-23.281 52-52 52q-.75 0-1.494-.021A6 6 0 0 1 258 312H62a6 6 0 0 1-6-6zm176.275 290C217.688 294.789 208 278.526 208 260c0-27.373 21.15-49.806 48-51.848V16H64v288zM260 304c24.301 0 44-19.699 44-44s-19.699-44-44-44-44 19.699-44 44 19.699 44 44 44" clip-rule="evenodd"/></g></g></svg>