<svg xmlns="http://www.w3.org/2000/svg" fill="none" viewBox="0 0 320 320"><g id="clock"><path id="lg-icon-fill-primary" fill="#42aeea" fill-rule="evenodd" d="M160 300c77.32 0 140-62.68 140-140S237.32 20 160 20 20 82.68 20 160s62.68 140 140 140m0-32c59.647 0 108-48.353 108-108S219.647 52 160 52 52 100.353 52 160s48.353 108 108 108" clip-rule="evenodd"/><g id="Outlines" fill="#1d1d1b"><path fill-rule="evenodd" d="M144 160c0-7.455 5.099-13.72 12-15.496V76a4 4 0 0 1 8 0v68.504c6.901 1.776 12 8.041 12 15.496a16 16 0 0 1-.521 4.064l34.973 20.191a4 4 0 1 1-4 6.929l-34.878-20.137A15.95 15.95 0 0 1 160 176c-8.837 0-16-7.163-16-16m16-8a8 8 0 1 0 0 16 8 8 0 0 0 0-16" clip-rule="evenodd"/><path d="M160 224a4 4 0 0 0-4 4v16a4 4 0 0 0 8 0v-16a4 4 0 0 0-4-4m38.535-138.746a4 4 0 0 1 6.928 4l-8 13.857a4 4 0 0 1-6.928-4zm-70.536 130.172a4 4 0 0 0-5.464 1.464l-8 13.856a4 4 0 1 0 6.928 4l8-13.856a4 4 0 0 0-1.464-5.464M236.209 116a4 4 0 0 0-5.464-1.464l-13.857 8a4 4 0 0 0 4 6.928l13.857-8a4 4 0 0 0 1.464-5.464m-137.1 74.536a4 4 0 0 1 4 6.928l-13.856 8a4 4 0 1 1-4-6.928zM243.998 156a4 4 0 0 1 0 8h-16a4 4 0 0 1 0-8zm-148 4a4 4 0 0 0-4-4h-16a4 4 0 0 0 0 8h16a4 4 0 0 0 4-4m140.21 43.999a4 4 0 0 0-1.464-5.464l-13.857-8a4 4 0 0 0-4 6.928l13.857 8a4 4 0 0 0 5.464-1.464m-133.1-81.464a4 4 0 1 1-4 6.928l-13.856-8a4 4 0 1 1 4-6.928zm102.354 108.21a4 4 0 0 1-6.928 4l-8-13.857a4 4 0 1 1 6.928-4zm-77.464-126.172a4 4 0 0 0 1.464-5.464l-8-13.856a4 4 0 0 0-6.928 4l8 13.856a4 4 0 0 0 5.464 1.464"/><path fill-rule="evenodd" d="M48 160C48 98.144 98.144 48 160 48s112 50.144 112 112-50.144 112-112 112S48 221.856 48 160M160 56c-57.438 0-104 46.562-104 104s46.562 104 104 104 104-46.562 104-104S217.438 56 160 56" clip-rule="evenodd"/><path fill-rule="evenodd" d="M16 160C16 80.471 80.471 16 160 16s144 64.471 144 144-64.471 144-144 144S16 239.529 16 160M160 24C84.89 24 24 84.89 24 160c0 75.111 60.89 136 136 136 75.111 0 136-60.889 136-136S235.111 24 160 24" clip-rule="evenodd"/></g></g></svg>