<svg xmlns="http://www.w3.org/2000/svg" fill="none" viewBox="0 0 320 320"><g id="comment"><path id="lg-icon-fill-primary" fill="#42aeea" fill-rule="evenodd" d="M276 60H76v200h32v26l26-26h142z" clip-rule="evenodd"/><g id="Outlines" fill="#1d1d1b"><path d="M204 184a4 4 0 0 1 0 8h-96a4 4 0 0 1 0-8zm40-24a4 4 0 0 1 0 8H108a4 4 0 0 1 0-8zm0-24a4 4 0 0 1 0 8H108a4 4 0 0 1 0-8zm0-24a4 4 0 0 1 0 8H108a4 4 0 0 1 0-8z"/><path fill-rule="evenodd" d="M248 56h32v208H136l-32 32v-32H72v-32H40V24h208zM80 64v192h32v20.686L132.687 256H272V64zM48 224h24V56h168V32H48z" clip-rule="evenodd"/></g></g></svg>