<svg xmlns="http://www.w3.org/2000/svg" fill="none" viewBox="0 0 320 320"><g id="computer" fill-rule="evenodd" clip-rule="evenodd"><path id="lg-icon-fill-primary" fill="#42aeea" d="M308 276v8a8 8 0 0 1-8 8H20a8 8 0 0 1-8-8v-8h112l4-8h64l4 8zM44 44h232v120H44z"/><path id="Outlines" fill="#1d1d1b" d="M284 24c6.627 0 12 5.373 12 12v136c0 2.734-.914 5.254-2.453 7.271a11.97 11.97 0 0 1 3.576 6.601l14.416 80q.192 1.074.193 2.128H312v16c0 6.627-5.373 12-12 12H20c-6.627 0-12-5.373-12-12v-16h.27c0-.714.064-1.426.19-2.128l14.417-80a11.97 11.97 0 0 1 3.575-6.6A11.96 11.96 0 0 1 24 172V36c0-6.627 5.373-12 12-12zm-96 248h-56a4 4 0 0 0-4 4v4H20.27a12 12 0 0 1-4.27-.782V284a4 4 0 0 0 4 4h280a4 4 0 0 0 4-4l.001-4.784a12.1 12.1 0 0 1-4.272.784H192v-4a4 4 0 0 0-4-4m97.313-88H34.687a4 4 0 0 0-3.936 3.291l-14.417 80A4 4 0 0 0 20.27 272h100.413l.023-.067c1.633-4.535 5.92-7.803 10.988-7.929L132 264h56c5.2 0 9.627 3.307 11.293 7.933l.023.067h100.413q.238 0 .475-.028l.235-.035a4 4 0 0 0 3.227-4.646l-14.417-80a4 4 0 0 0-3.936-3.291m.687 60a4 4 0 0 1 0 8H34a4 4 0 0 1 0-8zm-6-24a4 4 0 0 1 0 8H40a4 4 0 0 1 0-8zm-4-24a4 4 0 0 1 0 8H44a4 4 0 0 1 0-8zm8-164H36a4 4 0 0 0-4 4v136a4 4 0 0 0 4 4h248a4 4 0 0 0 4-4V36a4 4 0 0 0-4-4m-4 8v128H40V40zm-8 8H48v112h224z"/></g></svg>