<svg xmlns="http://www.w3.org/2000/svg" fill="none" viewBox="0 0 320 320"><g id="computer-secure"><path id="lg-icon-fill-primary" fill="#42aeea" d="M308 284v-8h-2.731a48 48 0 0 1-9.491 16H300a8 8 0 0 0 8-8m-83.778 8H20a8 8 0 0 1-8-8v-8h112l4-8h64l4 8h18.731a48 48 0 0 0 9.491 16M276 44H44v120h232z"/><g id="Outlines" fill="#1d1d1b"><path d="M276 196a4 4 0 0 1 0 8H44a4 4 0 0 1 0-8z"/><path fill-rule="evenodd" d="M280 40v128H40V40zm-8 8H48v112h224zm-26 200v-6.4c0-7.663 6.423-13.6 14-13.6s14 5.937 14 13.6v6.4h6a4 4 0 0 1 4 4v32a4 4 0 0 1-4 4h-40a4 4 0 0 1-4-4v-32a4 4 0 0 1 4-4zm8-6.4c0-2.94 2.531-5.6 6-5.6s6 2.66 6 5.6v6.4h-12zM244 280v-24h32v24z" clip-rule="evenodd"/><path fill-rule="evenodd" d="M284 24c6.627 0 12 5.373 12 12v136c0 2.734-.914 5.254-2.453 7.271a11.97 11.97 0 0 1 3.576 6.601l9.04 50.168A51.8 51.8 0 0 1 312 260c0 2.15-.131 4.27-.384 6.352q.115.83.116 1.648H312v16c0 6.627-5.373 12-12 12h-2.477c-9.463 9.861-22.776 16-37.523 16s-28.06-6.139-37.523-16H20c-6.627 0-12-5.373-12-12v-16h.27c0-.714.064-1.426.19-2.128l14.417-80a11.97 11.97 0 0 1 3.575-6.6A11.96 11.96 0 0 1 24 172V36c0-6.627 5.373-12 12-12zm-67.825 264a52 52 0 0 1-4.19-8H192v-4a4 4 0 0 0-4-4h-56a4 4 0 0 0-4 4v4H20.27a12 12 0 0 1-4.27-.782V284a4 4 0 0 0 4 4zm-6.784-16A52.2 52.2 0 0 1 208 260c0-2.721.209-5.392.612-8H34a4 4 0 0 1 0-8h176.508a51.9 51.9 0 0 1 8.501-16H40a4 4 0 0 1 0-8h186.771A51.8 51.8 0 0 1 260 208c13.727 0 26.212 5.319 35.506 14.008l-6.257-34.717a4 4 0 0 0-3.936-3.291H34.687a4 4 0 0 0-3.936 3.291l-14.417 80A4 4 0 0 0 20.27 272h100.413l.023-.067c1.633-4.535 5.92-7.803 10.988-7.929L132 264h56c5.2 0 9.627 3.307 11.293 7.933l.023.067zM284 32H36a4 4 0 0 0-4 4v136a4 4 0 0 0 4 4h248a4 4 0 0 0 4-4V36a4 4 0 0 0-4-4m-24 272c24.301 0 44-19.699 44-44s-19.699-44-44-44-44 19.699-44 44 19.699 44 44 44" clip-rule="evenodd"/></g></g></svg>