<svg xmlns="http://www.w3.org/2000/svg" fill="none" viewBox="0 0 320 320"><g id="confirm"><path id="lg-icon-fill-primary" fill="#42aeea" d="M280 160c0 66.274-53.726 120-120 120S40 226.274 40 160 93.726 40 160 40s120 53.726 120 120"/><g id="Outlines" fill="#1d1d1b"><path d="M242.828 106.828a3.997 3.997 0 0 0 0-5.656 4 4 0 0 0-5.656 0L128 210.343l-45.172-45.171a4 4 0 0 0-5.656 0 4 4 0 0 0 0 5.656l48 48a3.997 3.997 0 0 0 5.656 0z"/><path fill-rule="evenodd" d="M304 160c0 79.529-64.471 144-144 144S16 239.529 16 160 80.471 16 160 16s144 64.471 144 144m-8 0c0 75.111-60.889 136-136 136S24 235.111 24 160 84.89 24 160 24c75.111 0 136 60.89 136 136" clip-rule="evenodd"/></g></g></svg>