<svg xmlns="http://www.w3.org/2000/svg" fill="none" viewBox="0 0 320 320"><g id="connections"><path id="lg-icon-fill-primary" fill="#42aeea" d="M77.574 120.263c28.68-9.538 60.228-2.741 82.426 17.116 22.197-19.857 53.745-26.653 82.424-17.115-5.861 29.879-27.564 54.078-56.002 63.495 5.678 28.8-4.179 58.998-26.423 78.852-22.243-19.854-32.101-50.051-26.424-78.851-28.438-9.417-50.14-33.618-56.001-63.497m-19.569 93.344c5.74-3.313 13.08-1.347 16.393 4.393s1.347 13.079-4.393 16.393c-5.739 3.313-13.077 1.346-16.391-4.393-3.314-5.74-1.348-13.079 4.391-16.393M245.603 218c3.314-5.739 10.652-7.706 16.392-4.393 5.739 3.314 7.706 10.653 4.392 16.393s-10.653 7.706-16.392 4.393c-5.74-3.314-7.706-10.654-4.392-16.393M160 44c6.627 0 12 5.373 12 12s-5.373 12-12 12c-6.628 0-12-5.373-12-12s5.372-12 12-12"/><path id="Outlines" fill="#1d1d1b" fill-rule="evenodd" d="M160 16c48.601 0 88 39.4 88 88 0 4.633-.36 9.183-1.05 13.623a88.5 88.5 0 0 1 13.043 6.179c42.083 24.297 56.502 78.108 32.205 120.191s-78.108 56.502-120.191 32.205a88.6 88.6 0 0 1-12.008-8.317 88.6 88.6 0 0 1-12.006 8.317c-42.083 24.297-95.895 9.878-120.191-32.205s-9.878-95.895 32.205-120.191a88.6 88.6 0 0 1 13.042-6.18A89 89 0 0 1 71.999 104C72 55.399 111.4 16 160 16M74.666 125.576a81 81 0 0 0-10.66 5.154C25.75 152.818 12.644 201.737 34.73 239.993c22.088 38.256 71.006 51.364 109.263 29.277a81 81 0 0 0 9.999-6.82c-9.877-9.794-17.109-21.648-21.401-34.45H79.497a15.95 15.95 0 0 1-7.491 9.856c-7.653 4.419-17.438 1.797-21.857-5.856-4.418-7.653-1.796-17.438 5.857-21.856a15.95 15.95 0 0 1 12.207-1.581l26.215-45.876c-9.342-10.431-16.231-23.103-19.762-37.111m170.667 0c-3.531 14.009-10.421 26.68-19.763 37.111l26.215 45.876a15.95 15.95 0 0 1 12.21 1.581c7.652 4.418 10.275 14.203 5.856 21.856-4.418 7.653-14.203 10.275-21.856 5.856a15.95 15.95 0 0 1-7.491-9.856h-53.096c-4.292 12.802-11.524 24.656-21.401 34.451a81 81 0 0 0 10 6.819c38.256 22.087 87.175 8.979 109.262-29.277s8.98-87.175-29.276-109.263a81 81 0 0 0-10.66-5.154M141.073 228a79.75 79.75 0 0 0 18.926 29.138A79.75 79.75 0 0 0 178.925 228zm-70.139-8a8 8 0 1 0-13.857 8.002A8 8 0 0 0 70.934 220m189.061-2.928a8 8 0 1 0-8 13.857 8 8 0 0 0 8-13.857m-40.255-48.464a88 88 0 0 1-28.79 17.792 88 88 0 0 1-1.27 33.6h50.819c.354-1.37.898-2.715 1.64-4a16 16 0 0 1 2.698-3.474zM75.162 212.525a16 16 0 0 1 2.7 3.475 16 16 0 0 1 1.639 4h50.817a88 88 0 0 1-1.27-33.599 88 88 0 0 1-28.791-17.792zm108.069-23.626A88 88 0 0 1 160 192a88 88 0 0 1-23.234-3.101A80.1 80.1 0 0 0 138.555 220h42.887a80.1 80.1 0 0 0 1.789-31.101M160 142.861a80 80 0 0 0-13.27 17.146 80 80 0 0 0-8.451 21.008A80 80 0 0 0 160 184a80 80 0 0 0 21.719-2.985 80 80 0 0 0-8.45-21.008A80 80 0 0 0 160 142.861m-55.658 18.601a80.1 80.1 0 0 0 26.328 16.99 88 88 0 0 1 9.132-22.445 88 88 0 0 1 14.195-18.467 80 80 0 0 0-27.773-14.373zm89.431-38.296a80 80 0 0 0-27.772 14.374 88 88 0 0 1 14.197 18.467 88 88 0 0 1 9.131 22.445 80.1 80.1 0 0 0 26.327-16.991zm-75.676-1.899a79.7 79.7 0 0 0-35.827 1.736 79.75 79.75 0 0 0 16.365 32.322zm119.63 1.736a79.75 79.75 0 0 0-35.826-1.736l19.462 34.057c7.732-9.235 13.421-20.24 16.364-32.321m-73.513-51.567a16 16 0 0 1-8.43 0l-25.486 44.601a88 88 0 0 1 29.701 16.069 88 88 0 0 1 29.7-16.069zM160 24c-44.183 0-80 35.817-80 80 0 3.772.261 7.482.766 11.115 13.75-3.773 27.987-4.058 41.519-1.178l26.556-46.473A15.95 15.95 0 0 1 144 56c0-8.837 7.163-16 16-16s16 7.163 16 16a15.95 15.95 0 0 1-4.842 11.465l26.555 46.472c13.532-2.88 27.77-2.595 41.519 1.178A81 81 0 0 0 240 104c0-44.183-35.818-80-80-80m0 24a8 8 0 1 0 0 16 8 8 0 0 0 0-16" clip-rule="evenodd"/></g></svg>