<svg xmlns="http://www.w3.org/2000/svg" fill="none" viewBox="0 0 320 320"><g id="consistent"><path id="lg-icon-fill-primary" fill="#42aeea" d="M68 212H36v-24h32zm56 0H92v-24h32zm104 0h-32v-24h32zm56 0h-32v-24h32zm-160-88H36V84h88zm160 0h-88V84h88z"/><g id="Outlines" fill="#1d1d1b"><path d="M108 264a4 4 0 0 1 0 8H36a4 4 0 0 1 0-8zm0-16a4 4 0 0 1 0 8H36a4 4 0 0 1 0-8zm16-16a4 4 0 0 1 0 8H36a4 4 0 0 1 0-8z"/><path fill-rule="evenodd" d="M68 184a4 4 0 0 1 4 4v24a4 4 0 0 1-4 4H36a4 4 0 0 1-4-4v-24a4 4 0 0 1 4-4zm-28 24h24v-16H40zm84-24a4 4 0 0 1 4 4v24a4 4 0 0 1-4 4H92a4 4 0 0 1-4-4v-24a4 4 0 0 1 4-4zm-28 24h24v-16H96z" clip-rule="evenodd"/><path d="M108 160a4 4 0 0 1 0 8H36a4 4 0 0 1 0-8zm16-16a4 4 0 0 1 0 8H36a4 4 0 0 1 0-8z"/><path fill-rule="evenodd" d="M124.206 80.005A4 4 0 0 1 128 84v40a4 4 0 0 1-4 4H36a4 4 0 0 1-4-4V84a4 4 0 0 1 4-4h88zM40 120h80V88H40z" clip-rule="evenodd"/><path d="M124 40a4 4 0 0 1 0 8H36a4 4 0 0 1 0-8z"/><path fill-rule="evenodd" d="M148 24a4 4 0 0 1 4 4v264a4 4 0 0 1-4 4H12a4 4 0 0 1-4-4V28a4 4 0 0 1 4-4zM16 288h128V64H16zm0-232h128V32H16z" clip-rule="evenodd"/><path d="M268 264a4 4 0 0 1 0 8h-72a4 4 0 0 1 0-8zm0-16a4 4 0 0 1 0 8h-72a4 4 0 0 1 0-8zm16-16a4 4 0 0 1 0 8h-88a4 4 0 0 1 0-8z"/><path fill-rule="evenodd" d="M228 184a4 4 0 0 1 4 4v24a4 4 0 0 1-4 4h-32a4 4 0 0 1-4-4v-24a4 4 0 0 1 4-4zm-28 24h24v-16h-24zm84-24a4 4 0 0 1 4 4v24a4 4 0 0 1-4 4h-32a4 4 0 0 1-4-4v-24a4 4 0 0 1 4-4zm-28 24h24v-16h-24z" clip-rule="evenodd"/><path d="M268 160a4 4 0 0 1 0 8h-72a4 4 0 0 1 0-8zm16-16a4 4 0 0 1 0 8h-88a4 4 0 0 1 0-8z"/><path fill-rule="evenodd" d="M284 80a4 4 0 0 1 4 4v40a4 4 0 0 1-4 4h-88a4 4 0 0 1-4-4V84a4 4 0 0 1 4-4zm-84 40h80V88h-80z" clip-rule="evenodd"/><path d="M284 40a4 4 0 0 1 0 8h-88a4 4 0 0 1 0-8z"/><path fill-rule="evenodd" d="M308 24a4 4 0 0 1 4 4v264a4 4 0 0 1-4 4H172a4 4 0 0 1-4-4V28a4 4 0 0 1 4-4zM176 288h128V64H176zm0-232h128V32H176z" clip-rule="evenodd"/></g></g></svg>