<svg xmlns="http://www.w3.org/2000/svg" fill="none" viewBox="0 0 320 320"><g id="cooling-towers"><path id="lg-icon-fill-primary" fill="#42aeea" d="M97.684 127.625c-.801-1.985-.042-4.281 1.925-5.125 7.692-3.303 28.152-10.5 60.391-10.5s52.699 7.197 60.391 10.5c1.967.844 2.726 3.14 1.925 5.125a110 110 0 0 0-2.02 5.439C225.845 132.411 232.085 132 239 132c33.582 0 51.24 9.697 51.24 9.697s-9.76 19.667-9.76 50.909S300 282.303 300 282.303 282.342 292 239 292q-2.84 0-5.536-.054a596 596 0 0 0 1.509 4.772c.589 1.837-.203 3.804-1.985 4.544C225.331 304.441 202.643 312 160 312s-65.33-7.559-72.988-10.738c-1.781-.74-2.574-2.707-1.985-4.544a633 633 0 0 0 1.509-4.772q-2.695.053-5.536.054c-43.342 0-61-9.697-61-9.697s19.52-58.455 19.52-89.697-9.76-50.909-9.76-50.909S47.418 132 81 132c6.915 0 13.155.411 18.704 1.064a110 110 0 0 0-2.02-5.439"/><path id="Outlines" fill="#1d1d1b" fill-rule="evenodd" d="M205.22 26.78c-14.373-14.373-37.676-14.373-52.048 0a4 4 0 0 0 0 5.657 4 4 0 0 0 5.656 0c11.249-11.25 29.487-11.25 40.735 0 11.249 11.248 11.249 29.486 0 40.735a4 4 0 0 0 5.657 5.656 36.63 36.63 0 0 0 9.725-17.252c7.597-7.473 19.814-7.434 27.364.115 7.588 7.589 7.588 19.892 0 27.48a3 3 0 0 0-.13.136A40 40 0 0 0 232 88a4 4 0 0 0 0 8c17.673 0 32 14.327 32 32q0 .951-.055 1.887C256.9 128.77 248.571 128 239 128c-6.261 0-11.99.329-17.176.87q.26-.668.492-1.245c.801-1.985.042-4.281-1.925-5.125-7.692-3.303-28.152-10.5-60.391-10.5-10.906 0-20.464.824-28.635 2.041-10.165-11.308-9.808-28.725 1.072-39.604 11.248-11.25 29.486-11.25 40.735 0a4 4 0 0 0 5.656 0 4 4 0 0 0 0-5.657c-14.372-14.373-37.675-14.373-52.048 0-12.743 12.742-14.188 32.504-4.336 46.839-11.099 2.287-18.759 5.13-22.835 6.881-1.967.844-2.726 3.14-1.925 5.125q.233.577.492 1.245c-5.186-.54-10.915-.87-17.177-.87-9.584 0-17.922.772-24.973 1.892.563-17.418 10.406-32.496 24.76-40.443q.632.704 1.307 1.38a4 4 0 1 0 5.657-5.658c-10.333-10.333-10.333-27.087 0-37.421 9.502-9.502 24.439-10.268 34.812-2.292a4 4 0 1 0 4.876-6.342c-13.516-10.393-32.965-9.403-45.345 2.977C71.05 53.138 69.068 69.814 76.152 82.88c-16.8 9.647-28.131 27.765-28.152 48.537-2.29.51-4.39 1.045-6.297 1.582-4.47 1.258-7.879 2.524-10.2 3.492a54 54 0 0 0-2.66 1.189 29 29 0 0 0-.712.355l-.2.105-.062.033-.02.011-.009.004-.003.002s-.003.002 1.922 3.508l-1.925-3.506a4 4 0 0 0-1.658 5.282l.01.024q.02.038.065.134.091.19.274.6c.244.547.602 1.381 1.036 2.488.869 2.215 2.044 5.518 3.223 9.783 2.36 8.533 4.736 20.899 4.736 36.104 0 15.046-4.746 37.016-9.628 55.545a619 619 0 0 1-6.667 23.358 539 539 0 0 1-2.807 8.883l-.16.485-.052.159a4 4 0 0 0 1.868 4.773L20 282.304c-1.925 3.505-1.923 3.506-1.921 3.507l.014.008.024.013.032.017.035.019.215.111q.267.137.752.365c.646.302 1.586.715 2.833 1.201 2.496.973 6.223 2.237 11.306 3.49C43.456 293.542 59.03 296 81 296q2.175 0 4.268-.031l-.24.749c-.589 1.837.204 3.804 1.985 4.544C94.67 304.441 117.357 312 160 312s65.331-7.559 72.988-10.738c1.782-.74 2.574-2.707 1.985-4.544l-.089-.278-.151-.471q2.092.03 4.267.031c21.971 0 37.544-2.458 47.71-4.965 5.083-1.253 8.81-2.517 11.306-3.49a47 47 0 0 0 2.833-1.201q.486-.228.752-.365l.116-.059.099-.052.068-.036.024-.013.013-.008c.002-.001.004-.002-1.921-3.508l1.925 3.506a4 4 0 0 0 1.869-4.773l-.001-.001-.012-.037-.04-.121-.16-.485a534 534 0 0 1-2.807-8.883 620 620 0 0 1-6.667-23.358c-4.882-18.529-9.627-40.499-9.627-55.545 0-15.205 2.375-27.571 4.735-36.104 1.18-4.265 2.354-7.568 3.223-9.783a61 61 0 0 1 1.192-2.833l.118-.255.028-.06.015-.03.021-.044.011-.022.002-.005a4 4 0 0 0-1.66-5.279l-1.925 3.506c1.925-3.506 1.922-3.508 1.922-3.508l-.003-.002-.008-.004-.021-.011-.061-.033q-.074-.04-.201-.105a28 28 0 0 0-.712-.355 53 53 0 0 0-2.661-1.189c-2.32-.968-5.729-2.234-10.198-3.492a117 117 0 0 0-6.438-1.613q.14-1.675.141-3.385c0-15.552-8.875-29.03-21.837-35.648 8.457-10.765 7.724-26.396-2.197-36.317-8.663-8.663-21.679-10.32-32.007-4.973A36.67 36.67 0 0 0 205.22 26.78m-98.694 101.577c3.839 10.584 9.794 31.493 9.794 59.401 0 18.165-4.892 42.625-10.147 63.826-4.539 18.316-9.502 34.779-12.305 43.721C103.309 298.584 124.303 304 160 304s56.691-5.416 66.133-8.695c-2.804-8.942-7.766-25.405-12.306-43.721-5.255-21.201-10.147-45.661-10.147-63.826 0-27.908 5.955-48.817 9.794-59.401C204.539 125.058 186.52 120 160 120s-44.539 5.058-53.474 8.357m1.794 59.401c0-22.052-3.877-39.49-7.253-50.494C95.225 136.499 88.529 136 81 136c-16.402 0-28.847 2.367-37.13 4.699-3.886 1.094-6.858 2.18-8.895 3.013l.033.085c.961 2.449 2.226 6.016 3.487 10.572 2.52 9.112 5.025 22.2 5.025 38.237 0 16.196-5.015 39.074-9.893 57.584a627 627 0 0 1-8.708 29.913c2.17.845 5.558 1.999 10.285 3.165C44.702 285.61 59.629 288 81 288q3.504-.001 6.78-.083c6.833-22.351 20.54-70.841 20.54-100.159M239 288q-3.505-.001-6.78-.083c-6.833-22.351-20.54-70.841-20.54-100.159 0-22.052 3.877-39.49 7.253-50.494C224.775 136.499 231.47 136 239 136c16.401 0 28.846 2.367 37.129 4.699 3.886 1.094 6.858 2.18 8.895 3.013l-.033.085c-.961 2.449-2.226 6.016-3.487 10.572-2.52 9.112-5.024 22.2-5.024 38.237 0 16.196 5.014 39.074 9.892 57.584a626 626 0 0 0 8.708 29.913c-2.171.845-5.557 1.999-10.285 3.165C275.297 285.61 260.37 288 239 288" clip-rule="evenodd"/></g></svg>