<svg xmlns="http://www.w3.org/2000/svg" fill="none" viewBox="0 0 320 320"><g id="credit-card-confirm"><path id="lg-icon-fill-primary" fill="#42aeea" d="M12 100h296v64H12zm263.798 114.66q.2-1.552.202-3.16c0-13.531-10.969-24.5-24.5-24.5S227 197.969 227 211.5c0 4.054.985 7.879 2.728 11.247A47.8 47.8 0 0 1 260 212c5.535 0 10.851.937 15.798 2.66"/><g id="Outlines" fill="#1d1d1b"><path d="M168 212c0-2.209-1.788-4-3.993-4H43.993A3.997 3.997 0 0 0 40 212c0 2.209 1.788 4 3.993 4h120.014a3.997 3.997 0 0 0 3.993-4m68.162 46.194a3.964 3.964 0 0 1 5.609 0l11.218 11.225 25.24-25.257a3.966 3.966 0 0 1 5.609 0 3.97 3.97 0 0 1 0 5.613l-28.045 28.063a3.966 3.966 0 0 1-5.609 0l-14.022-14.032a3.97 3.97 0 0 1 0-5.612"/><path fill-rule="evenodd" d="M311.996 63.75A8 8 0 0 0 304 56H16l-.25.004A8 8 0 0 0 8 64v192l.004.249A8 8 0 0 0 16 264h192.152c2.042 26.85 24.475 48 51.848 48 28.719 0 52-23.281 52-52q0-1.447-.078-2.877.077-.551.078-1.123V64zM304 232.276V168H16v88h192.152c1.055-13.868 7.549-26.216 17.355-34.914A28 28 0 0 1 224 212c0-15.464 12.536-28 28-28 15.459 0 27.992 12.528 28 27.985a52.2 52.2 0 0 1 24 20.29m-32.174-22.924C270.53 199.557 262.148 192 252 192c-11.046 0-20 8.954-20 20 0 1.345.133 2.659.386 3.93 8.002-5.024 17.468-7.93 27.614-7.93 4.068 0 8.027.467 11.826 1.351M16 104h288v56H16zm0-40h288v32H16zm244 240c24.301 0 44-19.699 44-44s-19.699-44-44-44-44 19.699-44 44 19.699 44 44 44" clip-rule="evenodd"/></g></g></svg>