<svg xmlns="http://www.w3.org/2000/svg" fill="none" viewBox="0 0 320 320"><g id="credit-card"><path id="lg-icon-fill-primary" fill="#42aeea" d="M308 100H12v64h296zm-32 111.5c0 13.531-10.969 24.5-24.5 24.5S227 225.031 227 211.5s10.969-24.5 24.5-24.5 24.5 10.969 24.5 24.5"/><g id="Outlines" fill="#1d1d1b"><path d="M168 212c0-2.209-1.788-4-3.993-4H43.993A3.997 3.997 0 0 0 40 212c0 2.209 1.788 4 3.993 4h120.014a3.997 3.997 0 0 0 3.993-4"/><path fill-rule="evenodd" d="M252 184c-15.464 0-28 12.536-28 28s12.536 28 28 28 28-12.536 28-28-12.536-28-28-28m-20 28c0-11.046 8.954-20 20-20s20 8.954 20 20-8.954 20-20 20-20-8.954-20-20" clip-rule="evenodd"/><path fill-rule="evenodd" d="M311.996 63.75A8 8 0 0 0 304 56H16l-.25.004A8 8 0 0 0 8 64v192l.004.249A8 8 0 0 0 16 264h288l.249-.004A8 8 0 0 0 312 256V64zM16 168h288v88H16zm0-64h288v56H16zm0-40h288v32H16z" clip-rule="evenodd"/></g></g></svg>