<svg xmlns="http://www.w3.org/2000/svg" fill="none" viewBox="0 0 320 320"><g id="cuppa" fill-rule="evenodd" clip-rule="evenodd"><path id="lg-icon-fill-primary" fill="#42aeea" d="M60 152h200a4 4 0 0 1 4 4v60c0 35.346-28.654 64-64 64h-80c-35.346 0-64-28.654-64-64v-60a4 4 0 0 1 4-4"/><path id="Outlines" fill="#1d1d1b" d="M304 152v28c0 15.464-12.536 28-28 28h-12.001l.001 16c0 24.097-13.317 45.083-32.994 56.001L308 280c3.509 0 5.317 4.196 2.908 6.746C294.957 303.636 270.794 312 238.667 312H81.333c-32.126 0-56.29-8.364-72.24-25.254C6.682 284.196 8.49 280 12 280l76.994.001C69.317 269.083 56 248.097 56 224v-68a4 4 0 0 1 4-4zm-6.45 136H22.45l.413.311c13.88 10.303 33.024 15.561 57.57 15.687l.9.002h157.334c24.979 0 44.422-5.26 58.47-15.689zM256 160H64v64c0 30.619 24.573 55.498 55.074 55.992L120 280h80c30.928 0 56-25.072 56-56zm40 0h-32v40h12c10.931 0 19.813-8.769 19.997-19.656L296 180zM136 40a4 4 0 0 1 0 8c-17.359 0-31.49 13.823-31.986 31.063C104.577 101.768 123.159 120 146 120a4 4 0 0 1 0 8c-26.678 0-48.476-20.894-49.923-47.211A4 4 0 0 1 96 80q0-.471.01-.939Q96 78.533 96 78q.002-.473.105-.915C97.597 56.355 114.89 40 136 40m0-16c-30.619 0-55.498 24.573-55.992 55.074L80 80c0 30.928 25.072 56 56 56h84a4 4 0 0 1 0 8h-84c-35.346 0-64-28.654-64-64s28.654-64 64-64c26.245 0 47.57 21.063 47.994 47.206L184 64c0 17.673-14.327 32-32 32a4 4 0 0 1-.2-7.995L152 88c13.122 0 23.785-10.531 23.997-23.603L176 64c0-22.091-17.908-40-40-40"/></g></svg>