<svg xmlns="http://www.w3.org/2000/svg" fill="none" viewBox="0 0 320 320"><g id="currency-global"><path id="lg-icon-fill-primary" fill="#42aeea" d="M180 68c0 13.255-10.745 24-24 24s-24-10.745-24-24 10.745-24 24-24 24 10.745 24 24m80 64c0 13.255-10.745 24-24 24s-24-10.745-24-24 10.745-24 24-24 24 10.745 24 24m-224 8a8 8 0 0 0-8 8v80a8 8 0 0 0 8 8h32a8 8 0 0 0 8-8v-80a8 8 0 0 0-8-8z"/><g id="Outlines" fill="#1d1d1b" fill-rule="evenodd" clip-rule="evenodd"><path d="M156 40c-15.464 0-28 12.536-28 28s12.536 28 28 28 28-12.536 28-28-12.536-28-28-28m-20 28c0-11.046 8.954-20 20-20s20 8.954 20 20-8.954 20-20 20-20-8.954-20-20"/><path d="M156 24c-24.301 0-44 19.7-44 44s19.699 44 44 44 44-19.7 44-44-19.699-44-44-44m-36 44c0-19.882 16.118-36 36-36s36 16.118 36 36-16.118 36-36 36-36-16.118-36-36m116 36c-15.464 0-28 12.536-28 28s12.536 28 28 28 28-12.536 28-28-12.536-28-28-28m-20 28c0-11.046 8.954-20 20-20s20 8.954 20 20-8.954 20-20 20-20-8.954-20-20"/><path d="M192 132c0-24.301 19.699-44 44-44s44 19.699 44 44-19.699 44-44 44-44-19.699-44-44m44-36c-19.882 0-36 16.118-36 36s16.118 36 36 36 36-16.118 36-36-16.118-36-36-36m60 164c0 19.882-16.118 36-36 36s-36-16.118-36-36 16.118-36 36-36 36 16.118 36 36m-36 28c.102 0 .678-.041 1.678-1.168.995-1.123 2.075-2.976 3.062-5.609 1.649-4.397 2.827-10.391 3.163-17.223h-15.806c.336 6.832 1.514 12.826 3.163 17.223.987 2.633 2.067 4.486 3.062 5.609 1 1.127 1.576 1.168 1.678 1.168m-7.903-32h15.806c-.336-6.832-1.514-12.826-3.163-17.223-.987-2.633-2.067-4.486-3.062-5.609-1-1.127-1.576-1.168-1.678-1.168s-.678.041-1.678 1.168c-.995 1.123-2.075 2.976-3.062 5.609-1.649 4.397-2.827 10.391-3.163 17.223m20.134 28.032c2.03-5.413 3.339-12.393 3.68-20.032h11.805c-1.368 9.566-7.571 17.572-16.054 21.463q.296-.703.569-1.431m3.68-28.032h11.805c-1.368-9.566-7.571-17.572-16.054-21.463q.296.703.569 1.431c2.03 5.413 3.339 12.393 3.68 20.032m-28.142-20.032c-2.03 5.413-3.339 12.393-3.68 20.032h-11.805c1.368-9.566 7.571-17.572 16.054-21.463q-.296.703-.569 1.431m.569 49.495c-8.483-3.891-14.686-11.897-16.054-21.463h11.805c.341 7.639 1.65 14.619 3.68 20.032q.273.728.569 1.431"/><path d="M79.317 144c-1.647-4.661-6.092-8-11.317-8H36c-6.627 0-12 5.373-12 12v80c0 6.627 5.373 12 12 12h56c5.744 0 10.546-4.036 11.72-9.428C118.237 237.678 157.935 256 181 256c6.943 0 17.148-3.275 28.415-8.099A52.2 52.2 0 0 0 208 260c0 28.719 23.281 52 52 52s52-23.281 52-52c0-22.648-14.478-41.914-34.684-49.047A383 383 0 0 0 280.4 209a11 11 0 0 0 .38-.179l.239-.119c3.403-1.72 14.983-8.696 15.011-20.752 0-5.66-2.46-8.52-4.46-9.93-5.19-3.6-12.41-1.05-13.31-.71l-54.071 21.84c-.426-8.427-7.143-15.15-15.349-15.15l-32.043-.003c-23.316-27.422-62.918-28.077-72.797-27.782V156c0-6.627-5.373-12-12-12zM260 208c-20.683 0-38.546 12.076-46.923 29.561C195.142 245.916 185.829 248 181 248c-23.111 0-67.025-21.244-77.003-26.232l.001-57.516c8.396-.227 46.938.22 67.782 26.248l.095.117a4 4 0 0 0 2.558 1.355l.028.004.026.003.063.006.025.002.025.002.067.004.233.007h33.94c4.07 0 7.37 3.59 7.37 8s-3.3 8-7.37 8h-53.05a4 4 0 0 0 0 8h53.05c5.361 0 10.087-2.87 12.837-7.209l.163-.061 59.36-24c1.69-.61 4.63-1 5.83-.16.87.61 1 2.35 1 3.35 0 7.712-8.657 12.714-10.77 13.784l-.189.094a2 2 0 0 1-.271.122 5 5 0 0 0-.5.28c-.019.009-.228.141-.613.383l-.004.003c-.397.25-.979.616-1.728 1.084l-.44.275a753 753 0 0 1-7.195 4.435A53 53 0 0 0 260 208M80 152h12a4 4 0 0 1 4 4v72a4 4 0 0 1-4 4H80zm-44-8h32a4 4 0 0 1 4 4v84H36a4 4 0 0 1-4-4v-80a4 4 0 0 1 4-4m268 116c0 24.301-19.699 44-44 44s-44-19.699-44-44 19.699-44 44-44 44 19.699 44 44"/></g></g></svg>