<svg xmlns="http://www.w3.org/2000/svg" fill="none" viewBox="0 0 320 320"><g id="currency-pounds"><path id="lg-icon-fill-primary" fill="#42aeea" d="M180 68c0 13.255-10.745 24-24 24s-24-10.745-24-24 10.745-24 24-24 24 10.745 24 24m80 64c0 13.255-10.745 24-24 24s-24-10.745-24-24 10.745-24 24-24 24 10.745 24 24m-224 8a8 8 0 0 0-8 8v80a8 8 0 0 0 8 8h32a8 8 0 0 0 8-8v-80a8 8 0 0 0-8-8z"/><g id="Outlines" fill="#1d1d1b"><path fill-rule="evenodd" d="M156 40c-15.464 0-28 12.536-28 28s12.536 28 28 28 28-12.536 28-28-12.536-28-28-28m-20 28c0-11.046 8.954-20 20-20s20 8.954 20 20-8.954 20-20 20-20-8.954-20-20" clip-rule="evenodd"/><path fill-rule="evenodd" d="M156 24c-24.301 0-44 19.7-44 44s19.699 44 44 44 44-19.7 44-44-19.699-44-44-44m-36 44c0-19.882 16.118-36 36-36s36 16.118 36 36-16.118 36-36 36-36-16.118-36-36m88 64c0-15.464 12.536-28 28-28s28 12.536 28 28-12.536 28-28 28-28-12.536-28-28m28-20c-11.046 0-20 8.954-20 20s8.954 20 20 20 20-8.954 20-20-8.954-20-20-20" clip-rule="evenodd"/><path fill-rule="evenodd" d="M192 132c0-24.301 19.699-44 44-44s44 19.699 44 44-19.699 44-44 44-44-19.699-44-44m44-36c-19.882 0-36 16.118-36 36s16.118 36 36 36 36-16.118 36-36-16.118-36-36-36" clip-rule="evenodd"/><path d="M252 248.385c0-4.751 3.7-8.385 8-8.385s8 3.634 8 8.385a4 4 0 0 0 8 0c0-8.929-7.045-16.385-16-16.385s-16 7.456-16 16.385c0 1.263.239 2.784.513 4.234.26 1.382.605 2.966.962 4.606l.101.461q.249 1.138.498 2.314H244a4 4 0 0 0 0 8h3.506q.078.599.142 1.19c.425 3.904.289 6.906-.428 8.772-.325.844-.701 1.276-1.047 1.519-.334.236-.955.519-2.173.519a4 4 0 0 0 0 8h28a4 4 0 0 0 0-8h-17.022c1.135-3.582 1.041-7.833.624-11.675l-.037-.325H264a4 4 0 0 0 0-8h-9.756c-.285-1.408-.578-2.76-.851-4.016l-.095-.436c-.365-1.675-.686-3.146-.924-4.41-.27-1.432-.374-2.307-.374-2.753"/><path fill-rule="evenodd" d="M68 136c5.225 0 9.67 3.339 11.317 8H92c6.627 0 12 5.373 12 12v.215c9.879-.295 49.481.36 72.797 27.782l32.043.003c8.206 0 14.923 6.723 15.349 15.15l54.071-21.84c.9-.34 8.12-2.89 13.31.71 2 1.41 4.46 4.27 4.46 9.93-.028 12.056-11.608 19.032-15.011 20.752l-.239.119-.38.179c-.492.316-1.55.99-3.084 1.953C297.522 218.086 312 237.352 312 260c0 28.719-23.281 52-52 52s-52-23.281-52-52c0-4.165.49-8.217 1.415-12.099C198.148 252.725 187.943 256 181 256c-23.065 0-62.763-18.322-77.28-25.428C102.546 235.964 97.744 240 92 240H36c-6.627 0-12-5.373-12-12v-80c0-6.627 5.373-12 12-12zm145.077 101.561C221.454 220.076 239.317 208 260 208c2.139 0 4.249.129 6.32.38a753 753 0 0 0 7.195-4.435l.44-.275c.749-.468 1.331-.834 1.728-1.084l.004-.003c.385-.242.594-.374.613-.383a5 5 0 0 1 .5-.28c.01 0 .105-.041.271-.122l.189-.094c2.113-1.07 10.77-6.072 10.77-13.784 0-1-.13-2.74-1-3.35-1.2-.84-4.14-.45-5.83.16l-59.36 24-.163.061c-2.75 4.339-7.476 7.209-12.837 7.209h-53.05a4 4 0 0 1 0-8h53.05c4.07 0 7.37-3.59 7.37-8s-3.3-8-7.37-8H174.9l-.233-.007-.067-.004-.05-.004-.063-.006-.026-.003-.028-.004a4 4 0 0 1-2.558-1.355l-.095-.117c-20.844-26.028-59.386-26.475-67.782-26.248l-.001 57.516C113.975 226.756 157.889 248 181 248c4.829 0 14.142-2.084 32.077-10.439M92 152H80v80h12a4 4 0 0 0 4-4v-72a4 4 0 0 0-4-4m-24-8H36a4 4 0 0 0-4 4v80a4 4 0 0 0 4 4h36v-84a4 4 0 0 0-4-4m192 160c24.301 0 44-19.699 44-44s-19.699-44-44-44-44 19.699-44 44 19.699 44 44 44" clip-rule="evenodd"/></g></g></svg>