<svg xmlns="http://www.w3.org/2000/svg" fill="none" viewBox="0 0 320 320"><g id="customer"><path id="lg-icon-fill-primary" fill="#42aeea" d="M196 92c17.673 0 32-14.327 32-32s-14.327-32-32-32-32 14.327-32 32 14.327 32 32 32m-55.453 30.001a36 36 0 0 0-3.971 4.014c-4.76 5.634-6.878 22.284-7.82 35.985 0 0 30.244 5 46.244 26h34c5 0 11 3 11 12v5l44.001-17.5v-5.431s0-45.905-8.575-56.054a36 36 0 0 0-3.971-4.014c-10.04-8.668-25.178-8.668-55.454-8.668s-45.414 0-55.454 8.668M28 148a8 8 0 0 1 8-8h32a8 8 0 0 1 8 8v88H36a8 8 0 0 1-8-8z"/><path id="Outlines" fill="#1d1d1b" fill-rule="evenodd" d="M196.013 24c-19.244 0-34.845 16.118-34.845 36s15.601 36 34.845 36 34.844-16.118 34.844-36-15.6-36-34.844-36m-27.101 36c0-15.464 12.133-28 27.101-28s27.101 12.536 27.101 28-12.134 28-27.101 28c-14.968 0-27.101-12.536-27.101-28m-41.577 98.027c.469-5.908 1.161-12.175 2.187-17.787.621-3.4 1.379-6.64 2.315-9.453.915-2.751 2.096-5.39 3.702-7.353a39 39 0 0 1 4.271-4.461c5.672-5.059 12.625-7.394 21.55-8.526 8.776-1.114 19.96-1.114 34.381-1.114h.544c14.422 0 25.605 0 34.382 1.114 8.925 1.132 15.877 3.467 21.55 8.526a39.5 39.5 0 0 1 4.271 4.461c1.454 1.778 2.55 4.097 3.415 6.52.88 2.469 1.607 5.297 2.214 8.277 1.214 5.961 2.009 12.834 2.533 19.281.527 6.466.789 12.597.92 17.106a324 324 0 0 1 .129 6.908l.002.399.001.105v.038l-3.872.001h3.872v.21l12.533-5.061c.9-.339 8.123-2.887 13.308.71 2.033 1.409 4.457 4.276 4.457 9.932 0 12.473-12.202 19.458-15.255 21.01l-.294.147-.081.04c-5.219 3.33-74.04 46.943-99.385 46.943-23.069 0-62.74-18.327-77.263-25.437-1.159 5.414-5.978 9.483-11.729 9.483H35.998c-6.616 0-11.998-5.385-11.998-12.004v-80.037C24 141.385 29.382 136 35.999 136h31.996c5.215 0 9.663 3.344 11.314 8.003h12.684c6.616 0 11.999 5.386 11.999 12.005l-.001.238c3.972-.119 12.75-.086 23.344 1.781m17.535-32.998c4.045-3.608 9.277-5.607 17.433-6.642 8.25-1.046 18.96-1.054 33.71-1.054s25.46.008 33.71 1.054c8.156 1.035 13.388 3.034 17.434 6.642a31.6 31.6 0 0 1 3.416 3.568c.621.759 1.34 2.094 2.064 4.124.708 1.984 1.343 4.407 1.903 7.158 1.12 5.5 1.882 12.006 2.395 18.304.511 6.279.767 12.259.895 16.675.065 2.205.097 4.015.113 5.271.008.628.011 1.116.013 1.447l.002.264v3.566l-33.797 13.647c-.485-8.374-7.179-15.032-15.338-15.032l-32.058-.003c-11.76-13.829-27.654-20.848-41.788-24.371.457-6.032 1.14-12.378 2.154-17.923.581-3.179 1.256-6.014 2.028-8.336.794-2.383 1.596-3.938 2.294-4.791a31.6 31.6 0 0 1 3.417-3.568m-40.881 96.727.001-57.493c8.388-.229 46.934.222 67.771 26.261l-.021-.026a5 5 0 0 0 .192.226l.02.021.083.088.057.056.101.095q.155.142.322.264l.046.034q.06.043.12.082l.021.013.02.014q.063.042.129.079l.046.027a3 3 0 0 0 .222.118l.075.036q.28.13.578.216l.023.007.042.012q.08.023.16.039l.032.008.074.015q.045.01.09.016l.014.003.046.008q.067.011.135.019l.08.009q.074.008.149.013l.059.002-.003.001h.016l.062.003h.009l.018.001.105.002h33.94c4.062 0 7.367 3.59 7.367 8.003s-3.305 8.004-7.367 8.004h-53.047a4 4 0 0 0-3.999 4.002 4 4 0 0 0 3.999 4.001h53.047c5.427 0 10.207-2.946 12.941-7.384l.048-.019 59.351-23.965c1.694-.606 4.635-.994 5.83-.157.877.614 1.008 2.362 1.008 3.35 0 8.127-9.546 13.209-11.031 13.95l-.117.057-.053.025-.023.011a4 4 0 0 0-.504.274l-.032.021c-.169.108-.974.62-2.31 1.458l-.439.275c-5.715 3.576-19.555 12.095-35.141 20.662l-1.218.668c-34.379 18.791-49.51 22.735-56.148 22.735-23.126 0-67.013-21.25-76.996-26.24m-23.995-69.749h11.999c2.206 0 4 1.794 4 4.001v72.033a4.005 4.005 0 0 1-4 4.002H79.994zM36 144.003h31.996c2.206 0 4 1.795 4 4.002v84.038H35.998a4.004 4.004 0 0 1-3.999-4.001v-80.037a4.005 4.005 0 0 1 4-4.002" clip-rule="evenodd"/></g></svg>