<svg xmlns="http://www.w3.org/2000/svg" fill="none" viewBox="0 0 320 320"><g id="decision"><path id="lg-icon-fill-primary" fill="#42aeea" d="M186.172 172.021c8.401.241 13.007 4.155 18.195 8.502.671.563 1.35 1.131 2.055 1.709 3.12 2.558 6.597 5.118 11.255 7.038 3.879 1.598 8.571 2.748 14.552 3.09a4 4 0 0 1 3.771 3.994v44.377a4 4 0 0 1-3.543 3.974c-4.141.477-7.63 1.805-10.648 3.87-3.824 2.616-6.865 6.398-9.512 11.061s-4.905 10.21-7.158 16.358c-1.013 2.764-1.994 5.561-3.009 8.45-1.291 3.674-2.632 7.49-4.137 11.52-1.317 3.527-2.975 6.536-5.208 8.662-2.232 2.124-5.037 3.365-8.645 3.365-5.624 0-9.631-5.402-9.631-10.827 0-.667.156-1.753.415-3.143.26-1.395.625-3.105 1.042-5.025l.311-1.429c.774-3.546 1.672-7.671 2.417-11.804.849-4.707 1.499-9.435 1.541-13.363.022-1.963-.109-3.726-.443-5.186s-.871-2.619-1.664-3.372c-.795-.755-2.034-1.395-3.59-1.939s-3.434-.991-5.506-1.358c-4.144-.734-9.076-1.147-13.808-1.373a242 242 0 0 0-12.62-.244c-1.676.009-3.056.032-4.016.053-.482.011-.858.021-1.111.029l-.292.009-.148.002c-5.279-.027-9.582-4.307-9.582-9.623 0-5.33 4.328-9.622 9.631-9.623l.013-.001.005-.003-.005-.004h-2.426c-5.303-.001-9.631-4.294-9.631-9.624s4.328-9.623 9.631-9.623h2.426l.005-.005-.005-.003-.013-.001c-5.303 0-9.631-4.293-9.631-9.623s4.328-9.623 9.631-9.623h3.62l.012-.001.005-.004-.005-.004-.012-.001c-2.652 0-4.757-1.071-6.201-2.812-1.443-1.739-2.224-4.147-2.224-6.81 0-5.331 4.328-9.623 9.631-9.623h43.436zM64 139H32V70h32z"/><path id="Outlines" fill="#1d1d1b" fill-rule="evenodd" d="M185.348 167.999c10.467 0 16.324 4.976 21.669 9.486.666.563 1.321 1.116 1.98 1.656 2.996 2.456 6.112 4.728 10.23 6.425 3.321 1.369 7.424 2.411 12.773 2.762v-.679c0-4.771 3.323-8.65 8.174-8.65h8.326c1.45-2.799 4.476-4.982 7.9-4.983h30.801c4.865.001 8.799 3.954 8.799 8.819v71.208c0 4.864-3.934 8.818-8.799 8.818H256.4c-3.178 0-5.855-2.34-7.4-4.862h-9c-4.865 0-8-3.304-8-8.169v-1.015c-3.119.486-5.686 1.547-7.896 3.06-3.145 2.151-5.815 5.377-8.286 9.727-2.477 4.364-4.642 9.655-6.88 15.761-.947 2.582-1.925 5.363-2.946 8.266v.002l-.003.007c-1.327 3.773-2.725 7.749-4.206 11.717-1.418 3.8-3.343 7.444-6.2 10.163-2.972 2.829-6.773 4.481-11.442 4.481-8.646 0-13.674-8.069-13.674-14.836 0-1.083.229-2.507.483-3.871.272-1.462.648-3.226 1.065-5.142l.17-.783.143-.653c.775-3.552 1.657-7.6 2.388-11.657.837-4.646 1.44-9.113 1.478-12.701.02-1.795-.106-3.216-.343-4.257-.235-1.026-.502-1.342-.518-1.362-.182-.173-.786-.582-2.137-1.054-1.277-.446-2.923-.847-4.874-1.192-3.897-.69-8.632-1.093-13.292-1.315-4.637-.222-9.096-.259-12.402-.241a247 247 0 0 0-5.034.081l-.279.007-.083.003-.006.001-.053.002-.044.001h-.043c-7.557 0-13.673-6.109-13.673-13.633 0-3.187 1.1-6.12 2.939-8.441-3.252-2.491-5.352-6.407-5.352-10.814 0-4.406 2.099-8.323 5.351-10.814a13.56 13.56 0 0 1-2.938-8.441c0-4.993 2.693-9.358 6.709-11.733-1.279-2.254-1.883-4.875-1.883-7.522 0-7.524 6.116-13.633 13.673-13.633zm-43.436 8.01a5.627 5.627 0 0 0-5.631 5.623c0 1.912.562 3.363 1.303 4.257.677.816 1.65 1.365 3.122 1.365a4.014 4.014 0 0 1 4.021 4.005 4.014 4.014 0 0 1-4.021 4.005h-3.62a5.627 5.627 0 0 0-5.631 5.623c0 3.11 2.527 5.622 5.631 5.623a4.013 4.013 0 0 1 4.021 4.005 4.01 4.01 0 0 1-4.021 4.003h-2.413a5.63 5.63 0 0 0-5.631 5.624 5.627 5.627 0 0 0 5.631 5.623h2.413a4.013 4.013 0 0 1 4.021 4.005 4.013 4.013 0 0 1-4.021 4.004 5.627 5.627 0 0 0-5.631 5.623 5.626 5.626 0 0 0 5.603 5.622l.304-.009a254 254 0 0 1 5.221-.083c3.396-.019 8.006.019 12.831.249 4.804.229 9.928.653 14.315 1.429 2.192.388 4.296.881 6.127 1.521 1.761.615 3.626 1.484 5.027 2.815 1.601 1.521 2.39 3.549 2.808 5.38.431 1.882.567 3.99.544 6.122-.046 4.268-.745 9.26-1.604 14.029-.76 4.216-1.674 8.409-2.445 11.947l-.312 1.426c-.418 1.924-.77 3.579-1.018 4.908-.265 1.428-.346 2.164-.346 2.41 0 3.823 2.778 6.827 5.631 6.827 2.569 0 4.389-.838 5.886-2.263 1.612-1.534 3.004-3.908 4.219-7.163 1.489-3.989 2.818-7.77 4.109-11.447 1.013-2.884 2.004-5.707 3.028-8.501 2.269-6.191 4.618-11.994 7.436-16.957 2.826-4.976 6.234-9.309 10.731-12.386 3.578-2.448 7.69-3.995 12.45-4.543v-44.378c-6.386-.366-11.521-1.602-15.848-3.385-5.19-2.139-9.021-4.983-12.265-7.642-.725-.594-1.42-1.177-2.088-1.737-5.345-4.479-9.093-7.579-16.451-7.579zM257 181.999c-.5 0-1 .5-1 1v71c0 .5.5 1 1 1h30c.549 0 1.002-.5 1.002-1v-71c0-.5-.502-1-1.002-1zm-16 5c-.452 0-1 .637-1 1v61c0 .5.5 1 1 1h7v-63zM127.714 9.963c4.261-2.412 9.202-2.658 13.073-.439l.001.001c5.027 2.885 7.431 7.408 7.682 12.834.123 2.668-.246 5.261-.977 8.287l-.002.007-.144.583-.004.019-.503 1.927a164 164 0 0 0-4.105 23.552c-.295 3.123.054 4.788 1.211 6.205 1.848 2.262 6.221 3.995 14.796 3.995h23.868c6.996 0 12.551 5.717 12.963 12.75l.016.335.001.012.005.211.001.027.002.22v.014a13.92 13.92 0 0 1-2.817 8.435c2.946 2.302 4.907 5.87 5.186 9.9l.023.455.001.013.007.244v.028l.002.22v.013c0 4.419-2.032 8.387-5.22 10.876a13.93 13.93 0 0 1 2.806 7.875l.001.017.008.277.001.032.002.219v.014c-.001 5.137-2.751 9.673-6.874 11.974a13.97 13.97 0 0 1 2.056 6.786l.008.284.001.031.002.221v.013l-.004.341c-.171 7.154-5.692 13.098-12.754 13.225h-.014l-.201.002h-38.974c-10.195 0-16.594-2.127-25.51-7.194l-.006-.003-2.882-1.656-.558-.317-.625-.35-.856-.466-3.783-2.01-.339-.175a12 12 0 0 0-.652-.312l-.864-.361-.364-.143c-2.57-.976-5.499-1.353-15.096-1.458-.782 3.925-4.188 6.912-8.326 7.014h-.018l-.18.002H67.551a8.68 8.68 0 0 1-5.742 2.406l-.022.001-.22.003H32.714c-4.748 0-8.594-3.799-8.711-8.509l-.001-.019-.002-.184V70.762c0-4.738 3.772-8.61 8.492-8.728h.02l.183-.003h28.85c2.33 0 4.446.92 6.007 2.41h11.214c4.314 0 7.884 3.138 8.587 7.245 6.22-.664 12.185-5.847 17.852-15.891l.191-.34c4.625-8.296 8.207-17.954 12.281-31.588 1.926-6.449 5.435-11.3 10.037-13.904m9.188 6.354c-1.219-.699-3.211-.746-5.341.46-2.599 1.47-4.961 4.534-6.395 9.333l-.001.002-.402 1.342-.001.005-.402 1.316v.003c-3.872 12.66-7.46 22.1-12.141 30.496-6.696 12.01-14.763 19.57-24.74 20.261v50.192l1.011.012h.004c9.31.13 12.959.552 16.533 1.895l.716.281.013.005 1.056.443.019.009c.376.164.738.339 1.45.711l3.562 1.891.004.002.503.271.009.005.518.283.005.003.548.305.011.006 3.355 1.92.001.001c8 4.588 13.131 6.341 21.614 6.399l.439.002h9.325a14.1 14.1 0 0 1-1.212-5.18l-.001-.016-.009-.281v-.031l-.002-.22v-.013c0-3.173 1.047-6.111 2.815-8.437-3.055-2.388-5.05-6.138-5.208-10.353v-.014l-.007-.243-.001-.03-.002-.219v-.013c0-2.692.755-5.215 2.063-7.338-3.975-2.221-6.675-6.524-6.86-11.455v-.014l-.007-.241-.001-.028-.002-.22v-.014c0-5.137 2.75-9.673 6.873-11.974a14 14 0 0 1-2.054-6.769v-.016l-.009-.286-.001-.03-.002-.22v-.013c0-2.653.733-5.142 2.006-7.245-3.744-1.124-6.642-2.894-8.658-5.363-2.881-3.526-3.382-7.263-2.942-11.91v-.009a172 172 0 0 1 4.31-24.72l.004-.015.458-1.753.081-.323c.659-2.648.937-4.627.853-6.444-.07-1.523-.4-2.754-.985-3.767-.581-1.006-1.463-1.885-2.773-2.637m23.036 116.371c-2.669.001-5.085 2.346-5.168 5.551l-.001.154.001.16.011.297c.196 3.051 2.489 5.25 5.03 5.319l.146.002h17.848c2.673 0 5.092-2.355 5.167-5.569l.002-.136-.001-.159-.013-.303c-.201-3.099-2.564-5.315-5.155-5.316zM33 69.998c-.374 0-.98.51-1 1v67.251c0 .495.5.749 1 .749h30c.47 0 .976-.511 1-1v-67c0-.492-.541-.97-1-1zm39 66.751h7.04c.503 0 .933-.374.959-.863l.001-.047V73.172c0-.492-.407-.879-.897-.909L79 72.262h-7zm85.534-23.369c-2.674 0-5.092 2.354-5.167 5.568l-.002.167.002.144c.067 3.188 2.411 5.519 5.022 5.6l.166.002h25.055c2.674 0 5.093-2.354 5.167-5.568l.002-.137-.001-.159-.012-.303c-.201-3.099-2.564-5.314-5.156-5.314zm-4.806-19.31c-2.674 0-5.093 2.355-5.167 5.569l-.002.166.002.13.011.297c.196 3.05 2.488 5.25 5.029 5.319l.147.002h32.267c2.668-.001 5.082-2.347 5.166-5.551l.003-.154-.002-.16-.013-.302c-.201-3.1-2.563-5.315-5.154-5.316zm4.806-19.308c-2.674 0-5.092 2.354-5.167 5.568l-.002.167.002.144c.068 3.195 2.421 5.529 5.039 5.6l.149.002h25.055c2.674 0 5.093-2.354 5.167-5.568l.002-.137-.001-.16-.012-.302c-.201-3.1-2.564-5.314-5.156-5.314z" clip-rule="evenodd"/></g></svg>