<svg xmlns="http://www.w3.org/2000/svg" fill="none" viewBox="0 0 320 320"><g id="decrease"><path id="lg-icon-fill-primary" fill="#42aeea" d="M100 32a4 4 0 0 0-4-4H32a4 4 0 0 0-4 4v256a4 4 0 0 0 4 4h64a4 4 0 0 0 4-4zm96 64a4 4 0 0 0-4-4h-64a4 4 0 0 0-4 4v192a4 4 0 0 0 4 4h64a4 4 0 0 0 4-4zm92 60a4 4 0 0 1 4 4v128a4 4 0 0 1-4 4h-64a4 4 0 0 1-4-4V160a4 4 0 0 1 4-4z"/><path id="Outlines" fill="#1d1d1b" fill-rule="evenodd" d="M104 288V28a4 4 0 0 0-4-4H28a4 4 0 0 0-4 4v260H12a4 4 0 0 0 0 8h296a4 4 0 0 0 0-8h-12V156a4 4 0 0 0-4-4h-72a4 4 0 0 0-4 4v132h-16V92a4 4 0 0 0-4-4h-72a4 4 0 0 0-4 4v196zm-72 0h64V32H32zm192 0V160h64v128zM192 96v192h-64V96z" clip-rule="evenodd"/></g></svg>