<svg xmlns="http://www.w3.org/2000/svg" fill="none" viewBox="0 0 320 320"><g id="denied"><path id="lg-icon-fill-primary" fill="#42aeea" d="M65.825 85.623C49.655 106.07 40 131.907 40 160c0 66.274 53.726 120 120 120 28.093 0 53.93-9.655 74.377-25.825zM160 40c-28.092 0-53.929 9.654-74.376 25.824l168.552 168.552C270.346 213.929 280 188.092 280 160c0-66.274-53.726-120-120-120"/><g id="Outlines" fill="#1d1d1b"><path d="M61.005 83.633a4 4 0 0 1 5.657 0l169.705 169.705a4 4 0 0 1-5.656 5.657L61.005 89.289a4 4 0 0 1 0-5.656m22.628-22.628a4 4 0 0 1 5.656 0L258.995 230.71a4 4 0 1 1-5.657 5.656L83.633 66.662a4 4 0 0 1 0-5.657"/><path fill-rule="evenodd" d="M160 16c79.529 0 144 64.471 144 144s-64.471 144-144 144S16 239.529 16 160 80.471 16 160 16m0 8C84.89 24 24 84.89 24 160c0 75.111 60.89 136 136 136 75.111 0 136-60.889 136-136S235.111 24 160 24" clip-rule="evenodd"/></g></g></svg>