<svg xmlns="http://www.w3.org/2000/svg" fill="none" viewBox="0 0 320 320"><g id="devices"><path id="lg-icon-fill-primary" fill="#42aeea" d="M172 292H12a8 8 0 0 1-8-8v-8h112l4-8h52V164H36V44h232v56h-96v24h128v56h-44c-6.627 0-12 5.373-12 12v12h72v80h-72v-8h-72z"/><path id="Outlines" fill="#1d1d1b" fill-rule="evenodd" d="M288 36c0-6.627-5.373-12-12-12H28c-6.627 0-12 5.373-12 12v136c0 2.734.914 5.254 2.452 7.272a11.97 11.97 0 0 0-3.575 6.6l-14.416 80c-.127.702-.19 1.414-.19 2.128H0v16c0 6.627 5.373 12 12 12h158.141c2.766 4.782 7.937 8 13.859 8h58.141c2.766 4.782 7.937 8 13.859 8h48c8.837 0 16-7.163 16-16V192c0-8.837-7.163-16-16-16v-64c0-8.837-7.163-16-16-16zm8 140v-48H176v144h64v-80c0-8.837 7.163-16 16-16zm-56 104h-64v8a8 8 0 0 0 8 8h56zm-116-8h44v16H12a4 4 0 0 1-4-4v-4.782a12 12 0 0 0 4.27.782H120v-4a4 4 0 0 1 4-4m44-20v12h-44l-.305.004c-5.068.126-9.355 3.394-10.988 7.929l-.023.067H12.271a4 4 0 0 1-3.937-4.709l14.417-80A4 4 0 0 1 26.687 184H168v12H36a4 4 0 0 0 0 8h132v16H32a4 4 0 0 0 0 8h136v16H26a4 4 0 0 0 0 8zm0-84v8H28a4 4 0 0 1-4-4V36a4 4 0 0 1 4-4h248a4 4 0 0 1 4 4v60h-8V40H32v128zm96-120v48h-80c-8.837 0-16 7.163-16 16v48H40V48zm32 64v8H176v-8a8 8 0 0 1 8-8h104a8 8 0 0 1 8 8m8 72a8 8 0 0 1 8 8v8h-64v-8a8 8 0 0 1 8-8zm-56 112v-8h64v8a8 8 0 0 1-8 8h-48a8 8 0 0 1-8-8m0-16v-72h64v72z" clip-rule="evenodd"/></g></svg>