<svg xmlns="http://www.w3.org/2000/svg" fill="none" viewBox="0 0 320 320"><g id="diamond"><path id="lg-icon-fill-primary" fill="#42aeea" fill-rule="evenodd" d="M220 92H100l24 52H68l92 108 92-108h-56zm-24 52-36 108-36-108 36-52z" clip-rule="evenodd"/><g id="Outlines" fill="#1d1d1b"><path d="M164 12a4 4 0 0 0-8 0v24a4 4 0 0 0 8 0zm0 272a4 4 0 0 0-8 0v24a4 4 0 0 0 8 0zm73.464-250.172a4 4 0 1 0-6.928-4l-12 20.785a4 4 0 0 0 6.928 4zm-136 235.559a4 4 0 1 0-6.928-4l-12 20.785a4 4 0 0 0 6.928 4zM291.637 84a4 4 0 0 1-1.464 5.464l-20.785 12a4 4 0 1 1-4-6.928l20.785-12A4 4 0 0 1 291.637 84M56.078 220a4 4 0 0 1-1.464 5.464l-20.785 12a4 4 0 1 1-4-6.928l20.785-12A4 4 0 0 1 56.078 220m251.923-55.999a4 4 0 0 0 0-8h-24a4 4 0 0 0 0 8zm-272 0a4 4 0 0 0 0-8h-24a4 4 0 0 0 0 8zm255.636 72a4 4 0 0 1-5.464 1.464l-20.785-12a4 4 0 1 1 4-6.928l20.785 12a4 4 0 0 1 1.464 5.464m-235.559-136a4 4 0 0 1-5.464 1.464l-20.785-12a4 4 0 1 1 4-6.928l20.785 12a4 4 0 0 1 1.464 5.464m174.459 190.173a4 4 0 0 0 6.928-4l-12-20.785a4 4 0 1 0-6.928 4zm-136-235.559a4 4 0 0 0 6.928-4l-12-20.785a4 4 0 1 0-6.928 4z"/><path fill-rule="evenodd" d="M100 88a4 4 0 0 0-3.407 1.904l-32 52a4 4 0 0 0 .362 4.69l92 108a4 4 0 0 0 6.09 0l92-108a4 4 0 0 0 .362-4.69l-32-52A4 4 0 0 0 220 88zm6.252 8h46.114l-27.669 39.966zm-6.756 4.452L117.748 140h-42.59zm50.199 133.283L76.662 148h44.455zM160 239.351 129.55 148h60.9zm10.305-5.616L198.883 148h44.455zM202.252 140h42.59l-24.337-39.548zm-34.618-44h46.114l-18.445 39.966zM160 99.027 188.366 140h-56.732z" clip-rule="evenodd"/></g></g></svg>