<svg xmlns="http://www.w3.org/2000/svg" fill="none" viewBox="0 0 320 320"><g id="digital-workplace"><g id="lg-icon-fill-primary" fill="#42aeea"><path d="m256 252 36 32v16H28v-16l36-32z"/><path fill-rule="evenodd" d="M308 197H12V53h296zM36 148h64v24h120v-72h-64V76H36zm224 0h24v-24h-24zm0-48h24V76h-24z" clip-rule="evenodd"/></g><g id="Outlines" fill="#1d1d1b"><path d="M248 264a4 4 0 0 1 0 8H72a4 4 0 0 1 0-8z"/><path fill-rule="evenodd" d="M156 72a4 4 0 0 1 4 4v20h60a4 4 0 0 1 4 4v72a4 4 0 0 1-4 4H100a4 4 0 0 1-4-4v-20H36a4 4 0 0 1-4-4V76a4 4 0 0 1 4-4zm-52 96h112v-64H104zm-64-24h56v-44a4 4 0 0 1 4-4h52V80H40zm244-24a4 4 0 0 1 4 4v24a4 4 0 0 1-4 4h-24a4 4 0 0 1-4-4v-24a4 4 0 0 1 4-4zm-20 24h16v-16h-16zm20-72a4 4 0 0 1 4 4v24a4 4 0 0 1-4 4h-24a4 4 0 0 1-4-4V76a4 4 0 0 1 4-4zm-20 24h16V80h-16z" clip-rule="evenodd"/><path fill-rule="evenodd" d="M300 16c6.525 0 11.834 5.209 11.996 11.695L312 28v192c0 6.525-5.209 11.834-11.695 11.996L300 232H164v16h82.166a28 28 0 0 1 19.647 8.051l25.994 25.599q.273.271.484.578A9.98 9.98 0 0 1 296 290v4c0 5.523-4.477 10-10 10H34c-5.523 0-10-4.477-10-10v-4a9.98 9.98 0 0 1 3.708-7.772q.211-.307.485-.578l25.994-25.599A28 28 0 0 1 73.834 248H156v-16H20c-6.525 0-11.834-5.209-11.996-11.695L8 220V28c0-6.526 5.209-11.834 11.695-11.996L20 16zM34 288a2 2 0 0 0-2 2v4a2 2 0 0 0 2 2h252a2 2 0 0 0 2-2v-4a2 2 0 0 0-2-2zm39.834-32a20 20 0 0 0-14.034 5.75L41.27 280h237.46l-18.53-18.25a20 20 0 0 0-14.034-5.75zM16 220a4 4 0 0 0 3.8 3.995l.2.005h280a4 4 0 0 0 3.995-3.801L304 220v-20H16zm0-28h288V56H16zm4-168a4 4 0 0 0-3.995 3.8L16 28v20h288V28a4 4 0 0 0-3.801-3.995L300 24z" clip-rule="evenodd"/></g></g></svg>