<svg xmlns="http://www.w3.org/2000/svg" fill="none" viewBox="0 0 320 320"><g id="digital-customer-products"><path id="lg-icon-fill-primary" fill="#42aeea" d="M196 188c8.485 0 15.691 2.131 21.551 5.695-2.825 6.313-1.787 14.1 3.114 19.328 3.832 4.088 9.131 5.655 14.089 4.706q.569 2.308.879 4.666l-14.928 16.077c-6.272 6.755-6.272 17.706 0 24.462 3.136 3.377 7.247 5.066 11.357 5.066H84v-40c0-20 14-40 40-40zm40 80h-3.938c1.324 0 2.647-.176 3.938-.526zM160 92c19.882 0 36 16.118 36 36s-16.118 36-36 36-36-16.118-36-36 16.118-36 36-36"/><g id="Outlines" fill="#1d1d1b"><path fill-rule="evenodd" d="M160 88c22.091 0 40 17.909 40 40s-17.909 40-40 40-40-17.909-40-40 17.909-40 40-40m0 8c-17.673 0-32 14.327-32 32s14.327 32 32 32 32-14.327 32-32-14.327-32-32-32" clip-rule="evenodd"/><path d="M136 28a4 4 0 1 1 0 8 4 4 0 0 1 0-8m48 0a4 4 0 0 1 0 8h-32a4 4 0 0 1 0-8z"/><path fill-rule="evenodd" d="M206.223 8C224.877 8 240 22.327 240 40v5.323l20.013-15.727c7.76-6.76 20.048-7.689 27.999.261 3.705 3.706 5.975 8.227 6.069 13.294.093 5.03-1.969 10.02-5.805 14.699l-.037.044-37.724 44.672c7.598-4.377 17.338-3.153 23.738 3.673 7.661 8.172 7.661 21.322 0 29.494l-13.392 14.285c4.874.201 9.691 2.274 13.392 6.221 7.661 8.172 7.661 21.322 0 29.494l-20.924 22.318c4.707.345 9.321 2.443 12.896 6.294 7.698 8.29 7.698 21.616 0 29.906l-19.875 21.404a20 20 0 0 1-6.35 4.613V280c0 17.673-15.123 32-33.777 32h-92.446C95.123 312 80 297.673 80 280v-8.982a38 38 0 0 1-5.09-2.224c-4.757-2.49-10.874-6.847-16.695-14.34-11.67-15.023-21.751-42.116-18.205-90.745 3.593-49.273 5.606-75.375 6.715-89.116C47.585 63.933 56.386 56 67.003 56c4.907 0 9.422 1.684 12.997 4.506V40c0-17.673 15.123-32 33.777-32zM88 280c0 13.255 11.786 24 25.777 24h92.446c13.991 0 25.333-10.745 25.333-24l-.001-8H88zm72-88c-17.066 0-30.016.007-39.607 1.169-9.497 1.15-15.664 3.382-20.447 7.456a36 36 0 0 0-4.005 3.995c-4.085 4.77-6.324 10.92-7.477 20.392-.15 1.231-.28 3.791-.395 6.232L88 264h128.388c-6.28-8.324-5.818-20.493 1.385-28.251l12.812-13.798c-4.684-.33-9.279-2.393-12.839-6.19-5.001-5.335-6.737-12.79-5.209-19.598-3.524-1.405-7.726-2.364-12.93-2.994-9.59-1.162-22.54-1.169-39.606-1.169m100.363 27.788c-4.69-5.05-12.162-5.051-16.852 0l-19.876 21.405c-4.847 5.221-4.847 13.799 0 19.019 4.69 5.05 12.162 5.05 16.852 0l19.876-21.405c4.848-5.221 4.848-13.799 0-19.019M67.003 64c-6.526 0-11.786 4.81-12.305 11.236-1.106 13.711-3.118 39.79-6.71 89.055-3.454 47.369 6.465 72.278 16.545 85.255 5.054 6.506 10.25 10.15 14.087 12.16q.723.377 1.38.682v-98.354l-.001-.034V76.996C79.999 69.82 74.18 64 67.003 64m201.414 97.711c-4.639-4.947-12.046-4.948-16.685 0l-28.151 30.027c-4.776 5.095-4.776 13.456 0 18.551 4.638 4.948 12.046 4.948 16.685 0l28.151-30.027c4.776-5.095 4.776-13.456 0-18.551M88.133 201.598a33 33 0 0 1 1.708-2.174 44 44 0 0 1 4.895-4.882c6.468-5.51 14.41-8.069 24.69-9.314C129.556 184 142.993 184 159.72 184h.56c16.727 0 30.164 0 40.294 1.228 5.72.693 10.716 1.792 15.137 3.581a21 21 0 0 1 2.034-2.542l13.391-14.286c-4.874-.202-9.691-2.274-13.391-6.22-7.661-8.172-7.661-21.322 0-29.494l14.254-15.205V56H88.444zm180.284-89.887c-4.639-4.947-12.046-4.948-16.685 0l-28.151 30.027c-4.776 5.095-4.776 13.456 0 18.551 4.638 4.948 12.046 4.948 16.685 0l28.151-30.027c4.776-5.095 4.776-13.456 0-18.551m13.937-76.196c-4.51-4.51-12.02-4.358-17.152.17l-.085.076-.09.07L240 55.5v47.119l42.101-49.857c2.971-3.63 4.031-6.823 3.982-9.462-.048-2.606-1.186-5.242-3.729-7.784M113.777 16C99.787 16 88 26.745 88 40v8h144v-8c0-13.255-11.787-24-25.778-24z" clip-rule="evenodd"/></g></g></svg>