<svg xmlns="http://www.w3.org/2000/svg" fill="none" viewBox="0 0 320 320"><g id="document-cancel"><path id="lg-icon-fill-primary" fill="#42aeea" d="M256 12a4 4 0 0 1 4 4v196c-26.51 0-48 21.49-48 48 0 25.463 19.828 46.295 44.886 47.899A4 4 0 0 1 256 308H64a4 4 0 0 1-4-4V16a4 4 0 0 1 4-4z"/><g id="Outlines" fill="#1d1d1b"><path d="M220 208a4 4 0 0 1 0 8H101a4 4 0 0 1 0-8zm0-32a4 4 0 0 1 0 8H101a4 4 0 0 1 0-8zm0-32a4 4 0 0 1 0 8H101a4 4 0 0 1 0-8zm0-32a4 4 0 0 1 0 8H101a4 4 0 0 1 0-8zm0-32a4 4 0 0 1 0 8H101a4 4 0 0 1 0-8zm0-32a4 4 0 0 1 0 8H101a4 4 0 0 1 0-8zm53.142 193.201a4 4 0 0 1 5.657 5.656L265.656 260l13.143 13.142a4 4 0 0 1-5.657 5.657L260 265.656l-13.143 13.143a4 4 0 1 1-5.656-5.657L254.343 260l-13.142-13.143a4 4 0 1 1 5.656-5.656L260 254.343z"/><path fill-rule="evenodd" d="M256 8a8 8 0 0 1 8 8v192.15c26.85 2.043 48 24.477 48 51.85 0 28.719-23.281 52-52 52H64a8 8 0 0 1-8-8V16a8 8 0 0 1 8-8zM64 304h168.276C217.689 294.79 208 278.527 208 260c0-27.373 21.15-49.807 48-51.85V16H64zm196-88c-24.301 0-44 19.699-44 44s19.699 44 44 44 44-19.699 44-44-19.699-44-44-44" clip-rule="evenodd"/></g></g></svg>