<svg xmlns="http://www.w3.org/2000/svg" fill="none" viewBox="0 0 320 320"><g id="document"><path id="lg-icon-fill-primary" fill="#42aeea" d="M60 16a4 4 0 0 1 4-4h192a4 4 0 0 1 4 4v288a4 4 0 0 1-4 4H64a4 4 0 0 1-4-4z"/><g id="Outlines" fill="#1d1d1b"><path d="M97 212a4 4 0 0 1 4-4h119a4 4 0 0 1 0 8H101a4 4 0 0 1-4-4m4-36a4 4 0 0 0 0 8h119a4 4 0 0 0 0-8zm-4-28a4 4 0 0 1 4-4h119a4 4 0 0 1 0 8H101a4 4 0 0 1-4-4m4-36a4 4 0 0 0 0 8h119a4 4 0 0 0 0-8zm-4-28a4 4 0 0 1 4-4h119a4 4 0 0 1 0 8H101a4 4 0 0 1-4-4m4-36a4 4 0 0 0 0 8h119a4 4 0 0 0 0-8z"/><path fill-rule="evenodd" d="M64 8a8 8 0 0 0-8 8v288a8 8 0 0 0 8 8h196l4-4V16a8 8 0 0 0-8-8zm192 8H64v288h192z" clip-rule="evenodd"/></g></g></svg>