<svg xmlns="http://www.w3.org/2000/svg" fill="none" viewBox="0 0 320 320"><g id="document-warning"><path id="lg-icon-fill-primary" fill="#42aeea" d="M256 12a4 4 0 0 1 4 4v196c-26.51 0-48 21.49-48 48 0 25.463 19.828 46.295 44.886 47.899A4 4 0 0 1 256 308H64a4 4 0 0 1-4-4V16a4 4 0 0 1 4-4z"/><g id="Outlines" fill="#1d1d1b"><path d="M220 208a4 4 0 0 1 0 8H101a4 4 0 0 1 0-8zm0-32a4 4 0 0 1 0 8H101a4 4 0 0 1 0-8zm0-32a4 4 0 0 1 0 8H101a4 4 0 0 1 0-8zm0-32a4 4 0 0 1 0 8H101a4 4 0 0 1 0-8zm0-32a4 4 0 0 1 0 8H101a4 4 0 0 1 0-8zm0-32a4 4 0 0 1 0 8H101a4 4 0 0 1 0-8zm40 230a5 5 0 1 1-.001 10.001A5 5 0 0 1 260 278m0-46a4 4 0 0 1 4 4v32a4 4 0 0 1-8 0v-32a4 4 0 0 1 4-4"/><path fill-rule="evenodd" d="M256 8a8 8 0 0 1 8 8v192.15c26.85 2.043 48 24.477 48 51.85 0 28.719-23.281 52-52 52H64a8 8 0 0 1-8-8V16a8 8 0 0 1 8-8zM64 304h168.276C217.689 294.79 208 278.527 208 260c0-27.373 21.15-49.807 48-51.85V16H64zm196-88c-24.301 0-44 19.699-44 44s19.699 44 44 44 44-19.699 44-44-19.699-44-44-44" clip-rule="evenodd"/></g></g></svg>