<svg xmlns="http://www.w3.org/2000/svg" fill="none" viewBox="0 0 320 320"><g id="document-confirmation"><path id="lg-icon-fill-primary" fill="#42aeea" d="M64 12a4 4 0 0 0-4 4v288a4 4 0 0 0 4 4h192q.46 0 .889-.099C231.829 306.298 212 285.465 212 260c0-26.51 21.49-48 48-48V16a4 4 0 0 0-4-4z"/><g id="Outlines" fill="#1d1d1b"><path d="M97 212a4 4 0 0 1 4-4h119a4 4 0 0 1 0 8H101a4 4 0 0 1-4-4m4-36a4 4 0 0 0 0 8h119a4 4 0 0 0 0-8zm-4-28a4 4 0 0 1 4-4h119a4 4 0 0 1 0 8H101a4 4 0 0 1-4-4m4-36a4 4 0 0 0 0 8h119a4 4 0 0 0 0-8zm-4-28a4 4 0 0 1 4-4h119a4 4 0 0 1 0 8H101a4 4 0 0 1-4-4m4-36a4 4 0 0 0 0 8h119a4 4 0 0 0 0-8zm135.162 210.194a3.964 3.964 0 0 1 5.609 0l11.218 11.225 25.24-25.257a3.966 3.966 0 0 1 5.609 0 3.97 3.97 0 0 1 0 5.613l-28.045 28.063a3.966 3.966 0 0 1-5.609 0l-14.022-14.032a3.97 3.97 0 0 1 0-5.612"/><path fill-rule="evenodd" d="M264 208.152V16a8 8 0 0 0-8-8H64a8 8 0 0 0-8 8v288a8 8 0 0 0 8 8h196c28.719 0 52-23.281 52-52 0-27.373-21.15-49.806-48-51.848M256 16H64v288h168.275C217.688 294.789 208 278.526 208 260c0-27.373 21.15-49.806 48-51.848zm4 288c24.301 0 44-19.699 44-44s-19.699-44-44-44-44 19.699-44 44 19.699 44 44 44" clip-rule="evenodd"/></g></g></svg>