<svg xmlns="http://www.w3.org/2000/svg" fill="none" viewBox="0 0 320 320"><g id="dollars"><path id="lg-icon-fill-primary" fill="#42aeea" d="M280 160c0 66.274-53.726 120-120 120S40 226.274 40 160 93.726 40 160 40s120 53.726 120 120"/><g id="Outlines" fill="#1d1d1b" fill-rule="evenodd" clip-rule="evenodd"><path d="M160 68a4 4 0 0 1 4 4v12.116c12.47.727 23.803 4.825 32.341 11.228C205.785 102.427 212 112.518 212 124a4 4 0 0 1-8 0c0-8.4-4.53-16.309-12.459-22.256-7.072-5.304-16.695-8.897-27.541-9.613v64.795c2.136.559 4.24 1.09 6.315 1.614l.004.001.334.084c3.118.787 6.178 1.562 9.102 2.375 5.821 1.619 11.344 3.451 16.094 6.029 4.802 2.606 8.93 6.036 11.816 10.888C210.547 182.76 212 188.696 212 196c0 11.482-6.215 21.573-15.659 28.656-8.538 6.403-19.871 10.501-32.341 11.228V248a4 4 0 0 1-8 0v-12.116c-12.47-.727-23.803-4.825-32.341-11.228C114.215 217.573 108 207.482 108 196a4 4 0 0 1 8 0c0 8.4 4.53 16.309 12.459 22.256 7.072 5.304 16.695 8.897 27.541 9.613v-64.795a754 754 0 0 0-6.319-1.615l-.334-.084c-3.118-.787-6.178-1.562-9.102-2.375-5.821-1.619-11.344-3.451-16.094-6.029-4.802-2.606-8.93-6.036-11.816-10.888C109.453 137.24 108 131.304 108 124c0-11.482 6.215-21.573 15.659-28.656 8.538-6.403 19.871-10.501 32.341-11.228V72a4 4 0 0 1 4-4m-31.541 33.744c7.072-5.304 16.695-8.897 27.541-9.613v62.679q-2.212-.566-4.341-1.102l-.353-.09c-3.132-.79-6.1-1.542-8.918-2.326-5.665-1.575-10.485-3.215-14.421-5.352-3.885-2.108-6.786-4.635-8.757-7.948-1.976-3.32-3.21-7.755-3.21-13.992 0-8.4 4.53-16.309 12.459-22.256M164 227.869V165.19q2.21.566 4.339 1.102l.355.09c3.132.79 6.1 1.542 8.918 2.326 5.665 1.575 10.485 3.215 14.421 5.352 3.885 2.108 6.786 4.635 8.757 7.948 1.976 3.32 3.21 7.755 3.21 13.992 0 8.4-4.53 16.309-12.459 22.256-7.072 5.304-16.695 8.897-27.541 9.613"/><path d="M304 160c0 79.529-64.471 144-144 144S16 239.529 16 160 80.471 16 160 16s144 64.471 144 144m-8 0c0 75.111-60.889 136-136 136S24 235.111 24 160 84.89 24 160 24c75.111 0 136 60.89 136 136"/></g></g></svg>