<svg xmlns="http://www.w3.org/2000/svg" fill="none" viewBox="0 0 320 320"><g id="edit-profile"><g id="lg-icon-fill-primary" fill="#42aeea"><path fill-rule="evenodd" d="M52 36h152v152h-32v-20c0-11.164 0-16.747-1.378-21.289a32 32 0 0 0-21.333-21.333C144.747 124 139.165 124 128 124s-16.747 0-21.289 1.378a32 32 0 0 0-21.333 21.333C84 151.253 84 156.836 84 168v20H52zm96 52c0 11.046-8.954 20-20 20s-20-8.954-20-20 8.954-20 20-20 20 8.954 20 20" clip-rule="evenodd"/><path d="M252 156h40v116h-40z"/></g><g id="Outlines" fill="#1d1d1b"><path d="M52 256a4 4 0 0 0 0 8h152a4 4 0 0 0 0-8zm-4-20a4 4 0 0 1 4-4h152a4 4 0 0 1 0 8H52a4 4 0 0 1-4-4m4-28a4 4 0 0 0 0 8h152a4 4 0 0 0 0-8z"/><path fill-rule="evenodd" d="M152 88c0 13.255-10.745 24-24 24s-24-10.745-24-24 10.745-24 24-24 24 10.745 24 24m-8 0c0 8.837-7.163 16-16 16s-16-7.163-16-16 7.163-16 16-16 16 7.163 16 16" clip-rule="evenodd"/><path fill-rule="evenodd" d="M48 192h160V32H48zm79.85-72h.3c3.328 0 9.032 0 13.631.314 4.667.318 8.487.973 11.996 2.426a36 36 0 0 1 19.483 19.483c1.453 3.509 2.108 7.329 2.426 11.996.314 4.599.314 10.302.314 17.63V184h24V40H56v144h24v-12.15c0-7.328 0-13.032.314-17.631.318-4.667.973-8.487 2.426-11.996a36 36 0 0 1 19.483-19.483c3.509-1.453 7.329-2.108 11.996-2.426 4.599-.314 6.303-.314 13.631-.314M168 172v12H88v-12c0-7.51.002-12.942.295-17.237.29-4.259.854-7.106 1.836-9.478a28 28 0 0 1 15.154-15.154c2.372-.982 5.219-1.545 9.478-1.836 4.295-.293 5.727-.295 13.237-.295 3.51 0 8.942.002 13.237.295 4.259.291 7.106.854 9.478 1.836a28 28 0 0 1 15.154 15.154c.982 2.372 1.545 5.219 1.836 9.478.293 4.295.295 9.727.295 17.237" clip-rule="evenodd"/><path fill-rule="evenodd" d="M24 312V8h208v304zm8-296h192v288H32zm215.095 142.867q-.002-.248-.025-.495C246.851 155.923 245.815 136 272 136c24.185 0 24.149 19.923 23.93 22.372a6 6 0 0 0-.025.495v111.896c0 .621-.146 1.233-.427 1.788l-19.856 37.239c-1.493 2.947-5.752 2.947-7.244 0l-20.856-37.239a3.96 3.96 0 0 1-.427-1.788zM255 155c.169-1.418.772-3.504 1.594-5.093.762-1.471 2.581-2.799 4.406-3.853s6.089-2.057 11-2.057 9.177 1.004 11 2.057c1.793 1.035 2.644 2.382 3.406 3.853.822 1.589 1.425 3.675 1.594 5.093zm.193 7.616V268h12.758V162.616zM276 163v105h12V163zm-9 128-8.827-15.295h26.653L277 291q-.286-.082-.621-.184c-1.151-.347-2.703-.816-4.379-.816-1.642 0-2.802.347-4.114.74q-.427.128-.886.26" clip-rule="evenodd"/></g></g></svg>