<svg xmlns="http://www.w3.org/2000/svg" fill="none" viewBox="0 0 320 320"><g id="electirc-charging"><g id="lg-icon-fill-primary" fill="#42aeea"><path fill-rule="evenodd" d="M84 54a2 2 0 0 1 2-2h100a2 2 0 0 1 2 2v100a2 2 0 0 1-2 2H86a2 2 0 0 1-2-2zm56 14-4 28h24l-36 44.5 4-28.5h-20z" clip-rule="evenodd"/><path d="M283.999 140V89c.001-3-.028-8.399-1.825-11.088-.537-.804-1.396-1.69-3.968-4.262l-7.928-7.928-26.557 26.557 5.928 5.928c2.572 2.572 3.458 3.431 4.262 3.968l.641.432c2.561 1.731 5.577 3.769 8.35 2.978l5.097-.455V140z"/></g><g id="Outlines" fill="#1d1d1b"><path d="M84 224a4 4 0 0 0 0 8h104a4 4 0 0 0 0-8zm-4-20a4 4 0 0 1 4-4h104a4 4 0 0 1 0 8H84a4 4 0 0 1-4-4m4-28a4 4 0 0 0 0 8h104a4 4 0 0 0 0-8z"/><path fill-rule="evenodd" d="M163.11 98.516A4.001 4.001 0 0 0 160 92h-19.388l3.348-23.434a4 4 0 0 0-7.195-2.919l-32 44A4 4 0 0 0 108 116h15.399l-3.36 23.944a4 4 0 0 0 7.071 3.072zM136 100h15.619l-21.652 26.764 1.994-14.208a4 4 0 0 0-.942-3.181A4 4 0 0 0 128 108h-12.145l17.908-24.623-1.723 12.057A4 4 0 0 0 136 100" clip-rule="evenodd"/><path fill-rule="evenodd" d="M80 54a6 6 0 0 1 6-6h100a6 6 0 0 1 6 6v100a6 6 0 0 1-6 6H86a6 6 0 0 1-6-6zm8 2v96h96V56z" clip-rule="evenodd"/><path fill-rule="evenodd" d="M56 52c0-15.464 12.536-28 28-28h104c15.464 0 28 12.536 28 28v56c13.255 0 24 10.745 24 24v104c0 5.016 1.151 10.15 3.688 13.901 2.4 3.547 6.173 6.099 12.312 6.099s9.912-2.552 12.312-6.099C270.849 246.15 272 241.016 272 236v-92h-8v-34a18.8 18.8 0 0 1-10.533-3.173c-1.548-1.035-3.029-2.516-5.156-4.645l-21.968-21.968 31.871-31.87 21.968 21.967c2.128 2.128 3.61 3.608 4.644 5.157A18.8 18.8 0 0 1 287.999 86l.001 58h-8v92c0 6.029-1.349 12.896-5.062 18.383C271.088 260.074 264.861 264 256 264s-15.088-3.926-18.938-9.617C233.349 248.896 232 242.029 232 236V132c0-8.837-7.163-16-16-16v172h28a4 4 0 0 1 0 8H28a4 4 0 0 1 0-8h28zm152 0v236H64V52c0-11.046 8.954-20 20-20h104c11.046 0 20 8.954 20 20m72 84h-8v-35.87l-5.098 1.454a10.83 10.83 0 0 1-8.99-1.409c-.805-.537-1.691-1.396-4.263-3.968l-4.928-4.928 20.557-20.557 4.929 4.928c2.571 2.572 3.43 3.458 3.968 4.262C279.971 82.602 280 86 280 89zm-16.379-70.935-20.557 20.557-5.408-5.408 20.558-20.557z" clip-rule="evenodd"/></g></g></svg>