<svg xmlns="http://www.w3.org/2000/svg" fill="none" viewBox="0 0 320 320"><g id="enhanced-returns" fill-rule="evenodd" clip-rule="evenodd"><path id="lg-icon-fill-primary" fill="#42aeea" d="M160 20c77.32 0 140 62.68 140 140s-62.68 140-140 140S20 237.32 20 160 82.68 20 160 20m0 224c-15.464 0-28 12.536-28 28s12.536 28 28 28 28-12.536 28-28-12.536-28-28-28"/><path id="Outlines" fill="#1d1d1b" d="M160 16c79.529 0 144 64.471 144 144 0 78.886-63.433 142.957-142.074 143.987l-.463.001L160 304q-.733 0-1.463-.012L160 304q-.965 0-1.925-.016L160 304c-79.529 0-144-64.471-144-144S80.471 16 160 16m0 232c-13.255 0-24 10.745-24 24s10.745 24 24 24 24-10.745 24-24-10.745-24-24-24m-10.849-54.865-.036.006C125.622 198.145 108 219.015 108 244c0 18.529 9.691 34.795 24.282 44.004A31.87 31.87 0 0 1 128 272c0-16.319 12.215-29.784 28-31.752v-40.931a12.04 12.04 0 0 1-6.849-6.182m21.699-.001-.124.253a12.04 12.04 0 0 1-6.725 5.93v40.931C179.786 242.216 192 255.682 192 272c0 5.83-1.559 11.296-4.283 16.004C202.309 278.795 212 262.529 212 244c0-24.998-17.64-45.876-41.15-50.866m-21.871-56.378-.685.094C109.66 142.515 80 175.794 80 216c0 26.172 12.568 49.409 31.999 64.005C104.465 269.976 100 257.509 100 244c0-29.15 20.787-53.444 48.346-58.869a12.02 12.02 0 0 1 7.654-8.448v-33.366a12.04 12.04 0 0 1-7.021-6.561m22.041-.003-.049.116a12.04 12.04 0 0 1-6.97 6.448v33.366a12.03 12.03 0 0 1 7.654 8.447C199.213 190.556 220 214.85 220 244c0 13.509-4.465 25.976-11.999 36.004C227.432 265.41 240 242.172 240 216c0-40.444-30.012-73.878-68.98-79.247M148.9 80.567l-1.247.131C93.821 86.825 52 132.53 52 188c0 33.931 15.648 64.208 40.12 84.007C79.552 256.791 72 237.277 72 216c0-44.684 33.304-81.59 76.445-87.248a12.03 12.03 0 0 1 7.555-8.069V87.317a12.04 12.04 0 0 1-7.1-6.75m22.2-.003-.015.04a12.04 12.04 0 0 1-7.084 6.713v33.366a12.03 12.03 0 0 1 7.554 8.068C214.696 134.41 248 171.316 248 216c0 21.277-7.551 40.791-20.12 56.007C252.352 252.208 268 221.931 268 188c0-55.899-42.468-101.88-96.9-107.436M24 160c0 41.721 18.787 79.055 48.363 104.003C54.694 243.645 44 217.071 44 188c0-60.184 45.833-109.663 104.5-115.437a12.03 12.03 0 0 1 7.5-7.88V24.058C82.74 26.174 24 86.228 24 160M164.001 24.058v40.625a12.03 12.03 0 0 1 7.5 7.88C230.167 78.337 276 127.816 276 188c0 29.071-10.694 55.645-28.363 76.002C277.213 239.055 296 201.721 296 160c0-73.772-58.739-133.826-131.999-135.942"/></g></svg>