<svg xmlns="http://www.w3.org/2000/svg" fill="none" viewBox="0 0 320 320"><g id="euro"><path id="lg-icon-fill-primary" fill="#42aeea" d="M280 160c0 66.274-53.726 120-120 120S40 226.274 40 160 93.726 40 160 40s120 53.726 120 120"/><g id="Outlines" fill="#1d1d1b"><path d="M211.174 109.091a4 4 0 0 0 5.652-5.662c-31.301-31.239-82.046-31.239-113.347 0C92.967 113.92 85.984 126.6 82.532 140H60a4 4 0 0 0 0 8h20.902a80.3 80.3 0 0 0 0 24H60a4 4 0 0 0 0 8h22.532c3.452 13.4 10.435 26.08 20.947 36.571 31.301 31.239 82.046 31.239 113.347 0a4 4 0 0 0-5.652-5.662c-28.177 28.121-73.866 28.121-102.044 0-8.935-8.918-15.037-19.592-18.304-30.909H172a4 4 0 0 0 0-8H89.003a72.3 72.3 0 0 1 0-24H172a4 4 0 0 0 0-8H90.826c3.267-11.317 9.369-21.991 18.304-30.909 28.178-28.121 73.867-28.121 102.044 0"/><path fill-rule="evenodd" d="M304 160c0 79.529-64.471 144-144 144S16 239.529 16 160 80.471 16 160 16s144 64.471 144 144m-8 0c0 75.111-60.889 136-136 136S24 235.111 24 160 84.89 24 160 24c75.111 0 136 60.89 136 136" clip-rule="evenodd"/></g></g></svg>