<svg xmlns="http://www.w3.org/2000/svg" fill="none" viewBox="0 0 320 320"><g id="evidence"><g id="lg-icon-fill-primary" fill="#42aeea"><path d="M163.824 188A84.33 84.33 0 0 0 204 147.824v23.224l-8.003-8.003-16.971 16.97 7.985 7.985zM52 147.824A84.34 84.34 0 0 0 92.177 188H52zM204 36v40.177A84.34 84.34 0 0 0 163.824 36zM52 36h40.177A84.34 84.34 0 0 0 52 76.177z"/><path fill-rule="evenodd" d="M102.025 166.101a60.2 60.2 0 0 1-17.739-13.002c.197-2.508.53-4.535 1.092-6.388a32 32 0 0 1 21.333-21.333C111.254 124 116.836 124 128 124s16.747 0 21.289 1.378a32 32 0 0 1 21.333 21.333c.563 1.853.895 3.879 1.092 6.387C181.813 142.361 188 127.903 188 112c0-33.137-26.863-60-60-60s-60 26.863-60 60c0 23.832 13.895 44.419 34.025 54.101M128 108c11.046 0 20-8.954 20-20s-8.954-20-20-20-20 8.954-20 20 8.955 20 20 20" clip-rule="evenodd"/><path d="m192 203.062 28.022-28.021 82.156 82.155c7.738 7.738 7.738 20.284-.001 28.022-7.738 7.738-20.283 7.738-28.021 0z"/></g><g id="Outlines" fill="#1d1d1b"><path d="M52 256a4 4 0 0 0 0 8h152a4 4 0 0 0 0-8zm-4-20a4 4 0 0 1 4-4h152a4 4 0 0 1 0 8H52a4 4 0 0 1-4-4"/><path fill-rule="evenodd" d="M127.999 112c13.255 0 24-10.745 24-24s-10.745-24-24-24c-13.254 0-24 10.745-24 24s10.746 24 24 24m0-8c8.837 0 16-7.163 16-16s-7.163-16-16-16-16 7.163-16 16 7.164 16 16 16" clip-rule="evenodd"/><path fill-rule="evenodd" d="M192 112c0 35.346-28.654 64-64 64s-64-28.654-64-64 28.654-64 64-64 64 28.654 64 64M82.066 144.041q.304-.925.674-1.818a36 36 0 0 1 19.483-19.483c3.509-1.453 7.329-2.108 11.995-2.426 4.599-.314 6.303-.314 13.631-.314h.301c3.328 0 9.032 0 13.631.314 4.666.318 8.486.973 11.995 2.426a36 36 0 0 1 19.483 19.483q.37.894.674 1.819C180.278 134.963 184 123.916 184 112c0-30.928-25.072-56-56-56s-56 25.072-56 56c0 11.916 3.722 22.963 10.066 32.041m6.506 7.727C98.692 161.802 112.622 168 128 168s29.307-6.198 39.427-16.232c-.327-2.683-.827-4.715-1.559-6.483a28 28 0 0 0-15.153-15.154c-2.372-.982-5.22-1.545-9.479-1.836-4.295-.293-9.727-.295-13.237-.295-7.509 0-8.941.002-13.236.295-4.259.291-7.107.854-9.479 1.836a28 28 0 0 0-15.153 15.154c-.732 1.767-1.232 3.799-1.559 6.483" clip-rule="evenodd"/><path fill-rule="evenodd" d="M232 249.442V312H24V8h208v173.559l72.792 72.793c9.373 9.372 9.373 24.568 0 33.941-9.372 9.372-24.568 9.372-33.941 0zM32 16h192v157.559l-4.059-4.059-5.656 5.657-6.285-6.285v-20.16c5.136-11.174 8-23.609 8-36.712s-2.864-25.538-8-36.712V32h-43.288c-11.174-5.136-23.609-8-36.712-8s-25.538 2.864-36.712 8H48v43.288C42.864 86.462 40 98.897 40 112s2.864 25.538 8 36.712V192h43.288c11.174 5.136 23.609 8 36.712 8s25.538-2.864 36.712-8h21.161l5.784 5.784-5.657 5.658 4.558 4.558H52a4 4 0 0 0 0 8h146.558L224 241.442V304H32zm45.39 168A88.5 88.5 0 0 1 56 162.609V184zM56 61.39A88.5 88.5 0 0 1 77.39 40H56zM178.609 40A88.5 88.5 0 0 1 200 61.39V40zM128 192c44.183 0 80-35.817 80-80s-35.817-80-80-80-80 35.817-80 80 35.817 80 80 80m56.585-12.602a88.5 88.5 0 0 0 11.268-11.359l12.775 12.775-11.314 11.314zm12.729 24.044 22.627-22.628 79.194 79.194c6.249 6.249 6.249 16.379 0 22.628s-16.379 6.248-22.627 0z" clip-rule="evenodd"/></g></g></svg>