<svg xmlns="http://www.w3.org/2000/svg" fill="none" viewBox="0 0 320 320"><g id="eye" fill-rule="evenodd" clip-rule="evenodd"><path id="lg-icon-fill-primary" fill="#42aeea" d="M232 160c0 39.765-32.235 72-72 72s-72-32.235-72-72 32.235-72 72-72 72 32.235 72 72m-44 0c0 15.464-12.536 28-28 28s-28-12.536-28-28 12.536-28 28-28 28 12.536 28 28"/><g id="Outlines" fill="#1d1d1b"><path d="M192 160c0 17.673-14.327 32-32 32s-32-14.327-32-32 14.327-32 32-32 32 14.327 32 32m-8 0c0 13.255-10.745 24-24 24s-24-10.745-24-24 10.745-24 24-24 24 10.745 24 24"/><path d="M84 160c0-41.974 34.026-76 76-76s76 34.026 76 76-34.026 76-76 76-76-34.026-76-76m76-68c-37.555 0-68 30.445-68 68s30.445 68 68 68 68-30.445 68-68-30.445-68-68-68"/><path d="M308 160c3.46-2.007 3.459-2.008 3.458-2.01l-.003-.006-.048-.082-.138-.233q-.18-.305-.528-.875a155 155 0 0 0-2.046-3.257 242 242 0 0 0-7.933-11.52c-6.941-9.508-17.149-22.191-30.226-34.887C244.466 81.82 206.512 56 160 56S75.534 81.82 49.464 107.13c-13.077 12.696-23.285 25.379-30.226 34.887a242 242 0 0 0-7.933 11.52c-.9 1.396-1.584 2.498-2.046 3.257q-.348.57-.528.875l-.138.233-.037.064-.014.024c-.001.002-.002.003 3.458 2.01l-3.46-2.007a4 4 0 0 0 0 4.014L12 160c-3.46 2.007-3.46 2.008-3.458 2.01l.014.024.037.064.138.233q.18.305.528.875a155 155 0 0 0 2.046 3.257 242 242 0 0 0 7.933 11.52c6.94 9.508 17.15 22.191 30.226 34.887C75.534 238.181 113.488 264 160 264s84.466-25.819 110.536-51.13c13.077-12.696 23.285-25.379 30.226-34.887a242 242 0 0 0 7.933-11.52 155 155 0 0 0 2.574-4.132l.138-.233.048-.082.003-.006c.001-.002.002-.003-3.458-2.01m-291.32 0c.368.592.82 1.306 1.35 2.13a234 234 0 0 0 7.67 11.137c6.746 9.242 16.663 21.559 29.336 33.863C80.466 231.819 116.512 256 160 256s79.534-24.181 104.964-48.87c12.673-12.304 22.59-24.621 29.337-33.863a235 235 0 0 0 7.669-11.137c.531-.824.982-1.538 1.35-2.13-.368-.592-.819-1.306-1.35-2.13a235 235 0 0 0-7.669-11.137c-6.747-9.242-16.664-21.559-29.337-33.863C239.534 88.18 203.488 64 160 64S80.466 88.18 55.036 112.87c-12.673 12.304-22.59 24.621-29.336 33.863a234 234 0 0 0-7.67 11.137c-.53.824-.982 1.538-1.35 2.13M308 160l3.46 2.007a4 4 0 0 0 0-4.014z"/></g></g></svg>