<svg xmlns="http://www.w3.org/2000/svg" fill="none" viewBox="0 0 320 320"><g id="feature"><path id="lg-icon-fill-primary" fill="#42aeea" fill-rule="evenodd" d="M160 76q0 42 21 63t63 21q-42.787.787-63.525 21.525-20.322 20.323-20.477 60.814L160 244q0-42-21-63t-63-21q42 0 63-21t21-63" clip-rule="evenodd"/><g id="Outlines" fill="#1d1d1b"><path d="M160 264a4 4 0 0 1 4 4v32a4 4 0 0 1-8 0v-32a4 4 0 0 1 4-4m-50.912-58.745a4 4 0 0 1 5.657 5.656L75.147 250.51a4 4 0 0 1-5.657-5.657zm96.167 0a4 4 0 0 1 5.657 0l39.598 39.598a4 4 0 0 1-5.657 5.657l-39.598-39.599a4 4 0 0 1 0-5.656"/><path fill-rule="evenodd" d="M160 72a4 4 0 0 1 4 4c0 27.383 6.843 47.187 19.828 60.172S216.617 156 244 156a4 4 0 0 1 .073 7.999c-27.962.515-47.954 7.539-60.769 20.355-12.54 12.539-19.204 31.62-19.306 57.989l.001 1.228.001.424V244a4 4 0 0 1-8 .005V244l-.001-.421c-.07-27.165-6.908-46.832-19.827-59.751C123.187 170.843 103.383 164 76 164a4 4 0 0 1 0-8c27.383 0 47.187-6.843 60.172-19.828S156 103.383 156 76a4 4 0 0 1 4-4m0 37.2c-3.579 13.126-9.593 24.049-18.172 32.628S122.326 156.421 109.2 160c13.126 3.579 24.049 9.593 32.628 18.172 8.513 8.513 14.5 19.334 18.089 32.326 3.496-12.787 9.363-23.435 17.729-31.802 8.721-8.72 20.041-14.845 33.799-18.522-13.413-3.557-24.554-9.627-33.273-18.346-8.579-8.579-14.593-19.502-18.172-32.628" clip-rule="evenodd"/><path d="M52 156a4 4 0 0 1 0 8H20a4 4 0 0 1 0-8zm248 0a4 4 0 0 1 0 8h-32a4 4 0 0 1 0-8zM69.49 69.49a4 4 0 0 1 5.657 0l39.598 39.598a4 4 0 0 1-5.657 5.657L69.49 75.147a4 4 0 0 1 0-5.657m175.363 0a4 4 0 1 1 5.657 5.657l-39.598 39.598a4 4 0 0 1-5.657-5.657zM160 16a4 4 0 0 1 4 4v32a4 4 0 0 1-8 0V20a4 4 0 0 1 4-4"/></g></g></svg>