<svg xmlns="http://www.w3.org/2000/svg" fill="none" viewBox="0 0 320 320"><g id="features"><path id="lg-icon-fill-primary" fill="#42aeea" d="M224 40q0 20 10 30t30 10q-20.375.375-30.25 10.25-9.678 9.678-9.751 28.959l.001.588Q223.95 99.949 214 90q-10-10-30-10 20 0 30-10t10-30m0 128q0 28 14 42t42 14q-28.525.525-42.35 14.35-13.548 13.549-13.651 40.543l.001.824q-.07-27.788-14-41.717-14-14-42-14 28 0 42-14t14-42m-90-38q-22-22-22-66 0 44-22 66t-66 22q44 0 66 22 21.89 21.89 21.999 65.557l-.001-1.297q.162-42.42 21.452-63.71Q155.175 152.825 200 152q-44 0-66-22"/><g id="Outlines" fill="#1d1d1b"><path fill-rule="evenodd" d="M228 40a4 4 0 0 0-8 0c0 12.717-3.176 21.52-8.828 27.172C205.52 72.823 196.717 76 184 76a4 4 0 0 0 0 8c12.717 0 21.52 3.177 27.172 8.828 5.622 5.623 8.795 14.365 8.828 26.976v.201a4 4 0 0 0 8-.005l-.001-.786c.048-12.23 3.136-20.692 8.579-26.136 5.575-5.574 14.475-8.839 27.496-9.079A4 4 0 0 0 264 76c-12.717 0-21.52-3.177-27.172-8.828C231.176 61.52 228 52.717 228 40m-11.172 32.828c3.028-3.027 5.404-6.6 7.172-10.672 1.768 4.072 4.144 7.645 7.172 10.672 3.071 3.072 6.705 5.473 10.852 7.25-4.279 1.807-7.998 4.239-11.102 7.344-2.934 2.933-5.242 6.39-6.965 10.324-1.764-4.032-4.126-7.572-7.129-10.574-3.027-3.028-6.6-5.404-10.672-7.172 4.072-1.768 7.645-4.144 10.672-7.172M228 168a4 4 0 0 0-8 0c0 18.05-4.51 30.853-12.828 39.172C198.853 215.49 186.05 220 168 220a4 4 0 0 0 0 8c18.05 0 30.853 4.51 39.172 12.828 8.276 8.277 12.782 20.991 12.828 38.896v.281a4 4 0 0 0 8-.005v-.29l-.001-.812c.068-17.372 4.455-29.696 12.479-37.72 8.208-8.207 21.142-12.839 39.596-13.179A4 4 0 0 0 280 220c-18.05 0-30.853-4.51-39.172-12.828C232.51 198.853 228 186.05 228 168m-15.172 44.828c4.975-4.974 8.673-11.069 11.172-18.201 2.499 7.132 6.197 13.227 11.172 18.201 5.052 5.053 11.26 8.788 18.535 11.288-7.481 2.556-13.809 6.329-18.885 11.406-4.839 4.838-8.441 10.761-10.881 17.682-2.499-7.059-6.177-13.097-11.113-18.032-4.974-4.975-11.069-8.673-18.201-11.172 7.132-2.499 13.227-6.197 18.201-11.172" clip-rule="evenodd"/><path d="M204.201 99.8a4 4 0 0 1 0 5.656l-11.314 11.314a4 4 0 0 1-5.657-5.657l11.314-11.314a4 4 0 0 1 5.657 0m0-45.255a4 4 0 0 1-5.657 5.657L187.23 48.888a4 4 0 0 1 5.657-5.657zm56.568 56.569a4 4 0 0 1-5.657 5.657l-11.313-11.314a4 4 0 0 1 5.657-5.657zm0-67.883a4 4 0 0 1 0 5.658L249.456 60.2a4 4 0 0 1-5.657-5.657l11.313-11.313a4 4 0 0 1 5.657 0"/><path fill-rule="evenodd" d="M116 64a4 4 0 0 0-8 0c0 28.717-7.176 49.52-20.828 63.172S52.717 148 24 148a4 4 0 0 0 0 8c28.717 0 49.52 7.176 63.172 20.828 13.582 13.583 20.755 34.243 20.827 62.733L108 240v.005a4 4 0 0 0 8-.005v-.005l-.001-.442-.001-1.289c.107-27.655 7.095-47.7 20.28-60.886 13.475-13.474 34.475-20.839 63.796-21.379A4 4 0 0 0 200 148c-28.717 0-49.52-7.176-63.172-20.828S116 92.717 116 64m-23.172 68.828c9.108-9.108 15.453-20.751 19.172-34.78 3.719 14.029 10.064 25.672 19.172 34.78 9.257 9.258 21.134 15.661 35.474 19.353-14.705 3.823-26.77 10.286-36.024 19.541-8.886 8.885-15.076 20.238-18.708 33.909-3.73-13.886-10.047-25.421-19.086-34.459-9.108-9.108-20.751-15.453-34.78-19.172 14.029-3.719 25.672-10.064 34.78-19.172" clip-rule="evenodd"/></g></g></svg>