<svg xmlns="http://www.w3.org/2000/svg" fill="none" viewBox="0 0 320 320"><g id="female"><path id="lg-icon-fill-primary" fill="#42aeea" d="M132 195.403c-4.742 2.987-9.366 6.417-14.03 9.877-9.402 6.973-18.964 14.066-29.97 17.886-2.274.789-4.512 1.553-6.701 2.301-20.886 7.129-37.3 12.731-37.299 24.162V292h232v-42.371c0-10.629-20.034-18.144-44-26.463-11.006-3.82-20.568-10.913-29.97-17.886-4.664-3.46-9.288-6.89-14.03-9.877v25.243c0 19.354-28 30.283-28 30.283S132 240 132 220.646z"/><path id="Outlines" fill="#1d1d1b" d="M160 24c39.764 0 72 32.236 72 72l.001 123.189C257.753 230.07 280 232.783 280 255.89v40.001H40V255.89c0-23.107 22.247-25.82 48-36.7V96c0-39.367 31.594-71.354 70.809-71.99zm-53.368 195.006c-3.691 2.087-7.467 3.983-11.524 5.811l.893-.405a181 181 0 0 1-6.617 2.868l-1.125.46-.259.104-.822.332c-1.327.53-3.585 1.395-6.034 2.323l-11.065 4.155-1.011.392C52.95 241.347 48.098 245.839 48 255.587v32.304h224V255.89l-.006-.597c-.192-9.546-5.109-14.011-21.067-20.249l-12.527-4.719a396 396 0 0 1-5.578-2.149l-.822-.331-.259-.105-1.067-.436a232 232 0 0 1-1.808-.754l-.377-.159q-.266-.112-.528-.226l-.576-.247-.497-.216-.501-.219-.636-.281-.357-.159-.615-.277-.629-.285-.151-.069-.416-.191a138 138 0 0 1-10.215-5.215c-7.788-4.404-14.913-9.549-21.368-15.575V216q0 26-32 40-32-14-32-40v-12.569c-6.455 6.026-13.58 11.171-21.368 15.575M160 192c-8.743 0-16.94-2.191-24-6.02V216c0 12.845 7.398 22.994 23.427 30.914l.573.28.042-.019c16.222-7.873 23.796-17.972 23.955-30.762L184 216v-30.02l-.632.337C176.452 189.937 168.483 192 160 192m0-160c-35.346 0-64 28.654-64 64v119.561c10.835-5.3 21.94-12.486 32-23.56l-.001-11.46.124.103C118.232 172.401 112 160.383 112 147v-39l.039-.001c1.008-22.906 21.682-27.9 47.187-27.998L160 80c25.86 0 46.943 4.862 47.962 27.999L208 108v39c0 13.36-6.21 25.36-16.072 33.602l.073-.061-.002 11.454c10.06 11.077 21.165 18.264 32.001 23.564V96c0-35.346-28.654-64-64-64m0 56c-27.263 0-39.083 5.496-39.946 19.911l-.023.439-.015.254-.016.164V147c0 20.112 17.443 36.666 39.335 36.995L160 184c22.203 0 40-16.685 40-37v-38.221l-.016-.175-.015-.254c-.642-14.595-12.196-20.237-39.148-20.348z"/></g></svg>