<svg xmlns="http://www.w3.org/2000/svg" fill="none" viewBox="0 0 320 320"><g id="female-call-centre"><path id="lg-icon-fill-primary" fill="#42aeea" d="M132 195.403c-4.742 2.987-9.366 6.417-14.03 9.877-9.402 6.973-18.964 14.066-29.97 17.886-2.274.789-4.512 1.553-6.701 2.301-20.886 7.129-37.3 12.731-37.299 24.162V292h232v-42.371c0-10.629-20.034-18.144-44-26.463-11.006-3.82-20.568-10.913-29.97-17.886-4.664-3.46-9.288-6.89-14.03-9.877v25.243c0 19.354-28 30.283-28 30.283S132 240 132 220.646z"/><path id="Outlines" fill="#1d1d1b" d="M160 24c39.764 0 72 32.248 72 72.029l.001 123.238c25.752 10.885 47.999 13.6 47.999 36.716V296H40v-40.017c0-23.116 22.247-25.831 48-36.715V96.028c0-39.382 31.594-71.382 70.809-72.018zm-53.368 195.084c-3.691 2.087-7.467 3.984-11.524 5.814l.893-.406a181 181 0 0 1-1.55.701l-.676.299-.323.142a192 192 0 0 1-4.068 1.728l-1.125.46-.259.103-.822.332a413 413 0 0 1-6.034 2.324l-11.065 4.157-1.011.392C52.95 241.434 48.098 245.927 48 255.679v32.318h224v-32.014l-.006-.598c-.192-9.55-5.109-14.016-21.067-20.257l-12.527-4.72a391 391 0 0 1-5.578-2.151l-.822-.331-.259-.104-1.067-.436q-.537-.221-1.067-.443l-.741-.312-.377-.159-.528-.226-.576-.247-.497-.216-.501-.22-.636-.281-.357-.159-.615-.276-.629-.286-.151-.069-.416-.191a139 139 0 0 1-10.215-5.217c-7.788-4.406-14.913-9.553-21.368-15.581v12.574q0 26.01-32 40.016-32-14.006-32-40.016v-12.574c-6.455 6.028-13.58 11.175-21.368 15.581M184 186.045l-.632.337c-6.916 3.621-14.885 5.685-23.368 5.685-8.743 0-16.94-2.192-24-6.022v30.032c0 12.849 7.398 23.003 23.427 30.926l.573.28.042-.019c16.222-7.876 23.796-17.979 23.955-30.774l.003-.413zM160 32.003c-35.346 0-64 28.665-64 64.026v119.608c10.835-5.301 21.94-12.49 32-23.569l-.001-11.465.124.104c-5.403-4.504-9.713-10.135-12.513-16.499-5.028-2.031-9.801-5.103-14.301-9.196a4 4 0 1 1 5.382-5.922 45 45 0 0 0 5.813 4.508 43 43 0 0 1-.504-6.549v-39.015l.039-.002c1.008-22.915 21.682-27.91 47.187-28.008l.774-.002c25.86 0 46.943 4.864 47.962 28.01l.038.002v39.015c0 13.365-6.21 25.37-16.072 33.615l.073-.061-.002 11.459c10.06 11.081 21.165 18.271 32.001 23.574V96.029c0-35.36-28.654-64.026-64-64.026m0 56.023c-27.263 0-39.083 5.497-39.946 19.918l-.023.44-.015.254-.016.164v38.247c0 3.761.609 7.397 1.743 10.825a32.2 32.2 0 0 0 6.564 1.192q6.224.478 12.923.726a7.99 7.99 0 0 1 6.77-3.739h16c4.418 0 8 3.583 8 8.003a8 8 0 0 1-8 8.003h-16a8 8 0 0 1-7.078-4.27 330 330 0 0 1-13.229-.744 41 41 0 0 1-1.446-.137c6.972 10.128 19.125 16.941 33.088 17.151l.665.005c22.203 0 40-16.692 40-37.015v-38.236l-.016-.175-.015-.254c-.642-14.602-12.196-20.245-39.148-20.357z"/></g></svg>