<svg xmlns="http://www.w3.org/2000/svg" fill="none" viewBox="0 0 320 320"><g id="firework" fill-rule="evenodd" clip-rule="evenodd"><path id="lg-icon-fill-primary" fill="#42aeea" d="M160.149 28c70.692 0 128 57.308 128 128s-57.308 128-128 128-128-57.308-128-128 57.308-128 128-128m0 56c-39.765 0-72 32.235-72 72s32.235 72 72 72 72-32.236 72-72-32.236-72-72-72"/><path id="Outlines" fill="#1d1d1b" d="M160.149 244a4 4 0 0 1 4 4v56a4 4 0 0 1-8 0v-56a4 4 0 0 1 4-4m32.234-1.739 9.888 30.434a4 4 0 1 1-7.608 2.472l-9.889-30.434a4 4 0 0 1 7.609-2.472m-59.428-2.568a4 4 0 0 1 2.569 5.04l-9.889 30.434a4 4 0 1 1-7.608-2.472l9.888-30.434a4 4 0 0 1 5.04-2.568m84.506-11.615 28.214 38.833a4 4 0 0 1-6.472 4.703l-28.214-38.833a4 4 0 0 1 6.472-4.703m-109.037-.885a4 4 0 0 1 .885 5.588l-28.214 38.833a4 4 0 0 1-6.472-4.703l28.214-38.833a4 4 0 0 1 5.587-.885M160.149 220a4 4 0 0 1 4 4v8a4 4 0 0 1-8 0v-8a4 4 0 0 1 4-4m76.781-13.16 25.888 18.809a4 4 0 0 1-4.702 6.472l-25.889-18.809a4 4 0 0 1 4.703-6.472m-147.974.885a4 4 0 0 1-.885 5.587l-25.889 18.809a4 4 0 1 1-4.702-6.472l25.888-18.809a4 4 0 0 1 5.588.885m75.191-103.847q.105 3.423.031 6.551l-.027.927.009.237c.481 12.589 3.392 20.118 8.185 22.95 4.68 2.766 12.262 1.673 22.825-3.925l.72-.387a113 113 0 0 1 6.334-3.737c4.53-2.487 8.431 4.116 4.068 6.884a117 117 0 0 1-5.439 3.253l-.896.495-.253.163c-10.351 6.696-15.232 13.01-15.232 18.711s4.881 12.015 15.221 18.704l.272.174.028.015a111 111 0 0 1 5.488 3.219l.811.51c4.363 2.768.462 9.371-4.068 6.884a116 116 0 0 1-5.529-3.229l-.809-.511-.195-.105c-10.843-5.841-18.591-7.013-23.346-4.204-4.719 2.789-7.614 10.131-8.161 22.372l-.034.814.004.09c.054 1.681.068 3.428.041 5.253l-.016.92-.031 1.198c-.135 5.183-7.839 5.2-7.997.018q-.105-3.426-.031-6.539l.026-.941-.006-.194c-.476-12.613-3.389-20.156-8.187-22.991-4.68-2.766-12.262-1.673-22.838 3.932l-.697.373-.019.013c-1.412.9-2.903 1.798-4.482 2.699l-.797.452-1.03.571c-4.528 2.514-8.457-4.1-4.084-6.875q2.852-1.808 5.529-3.303l.794-.44.222-.14c10.381-6.706 15.275-13.03 15.275-18.739 0-5.701-4.881-12.015-15.223-18.705l-.265-.171-.033-.017a111 111 0 0 1-5.488-3.219l-.811-.51c-4.363-2.768-.462-9.371 4.068-6.884a116 116 0 0 1 5.63 3.292l.715.451.188.102c10.673 5.75 18.348 6.976 23.121 4.333l.225-.129c4.719-2.789 7.614-10.131 8.161-22.364l.032-.818-.001-.049a116 116 0 0 1-.02-6.462l.026-.972c.158-5.17 7.838-5.17 7.996 0m84.735 76.747 45.651 14.833a4 4 0 1 1-2.472 7.609l-45.651-14.833a4 4 0 0 1 2.472-7.609m-172.426 2.568a4 4 0 0 1-2.568 5.041l-45.65 14.833a4 4 0 0 1-2.473-7.609l45.65-14.833a4 4 0 0 1 5.041 2.568m83.693-51.225-.104.227c-1.95 4.129-4.608 7.218-8.022 9.235-3.491 2.063-7.536 2.87-12.128 2.486l-.154-.015.183.266c2.503 3.714 3.819 7.525 3.898 11.453l.004.38c0 4.067-1.322 8.009-3.914 11.848l-.171.249.155-.013c4.452-.373 8.391.375 11.808 2.302l.319.184c3.37 1.991 6.004 5.028 7.947 9.08l.179.379.104-.224c1.889-4 4.443-7.024 7.705-9.043l.317-.192c3.491-2.063 7.536-2.87 12.127-2.486l.154.014-.182-.265c-2.503-3.714-3.819-7.525-3.898-11.453l-.004-.38c0-4.062 1.319-7.999 3.903-11.833l.18-.265-.153.014c-4.452.373-8.391-.375-11.808-2.302l-.319-.184c-3.414-2.017-6.072-5.106-8.022-9.236zm-92 20.032a4 4 0 0 1 0 8h-32a4 4 0 0 1 0-8zm216 0a4 4 0 0 1 0 8h-32a4 4 0 0 1 0-8zm12.952-40.498a4 4 0 0 1-2.568 5.04l-45.651 14.833a4 4 0 0 1-2.472-7.609l45.651-14.833a4 4 0 0 1 5.04 2.569m-268.864-2.569 45.65 14.833a4 4 0 0 1-2.471 7.609l-45.651-14.833a4 4 0 0 1 2.472-7.609m33.945-29.054 25.889 18.809a4 4 0 0 1-4.703 6.472L57.48 86.35a4 4 0 0 1 4.702-6.471m201.521.884a4 4 0 0 1-.885 5.588L236.93 105.16a4 4 0 0 1-4.703-6.472l25.889-18.81a4 4 0 0 1 5.587.885M244.79 39.502a4 4 0 0 1 .885 5.587l-28.214 38.833a4 4 0 1 1-6.472-4.703l28.214-38.832a4 4 0 0 1 5.587-.885m-163.695.884L109.31 79.22a4 4 0 0 1-6.472 4.703L74.623 45.089a4 4 0 0 1 6.472-4.703m118.608-6.121a4 4 0 0 1 2.568 5.04l-9.888 30.434a4 4 0 0 1-7.609-2.472l9.889-30.434a4 4 0 0 1 5.04-2.568m-74.068 2.568 9.889 30.434a4 4 0 0 1-7.609 2.472l-9.888-30.434a4 4 0 1 1 7.608-2.472M160.149 12a4 4 0 0 1 4 4v48a4 4 0 0 1-8 0V16a4 4 0 0 1 4-4"/></g></svg>