<svg xmlns="http://www.w3.org/2000/svg" fill="none" viewBox="0 0 320 320"><g id="fixed-term-retirement-plan"><path id="lg-icon-fill-primary" fill="#42aeea" d="M288 52H32a4 4 0 0 0-4 4v44h264V56a4 4 0 0 0-4-4m-160 80H64v64h64zm108 32c0 6.627-5.373 12-12 12s-12-5.373-12-12 5.373-12 12-12 12 5.373 12 12"/><g id="Outlines" fill="#1d1d1b"><path d="M252 248.385c0-4.751 3.7-8.385 8-8.385s8 3.634 8 8.385a4 4 0 0 0 8 0c0-8.929-7.045-16.385-16-16.385s-16 7.456-16 16.385c0 1.263.239 2.784.513 4.234.26 1.382.605 2.966.962 4.606l.101.461q.249 1.138.498 2.314H244a4 4 0 0 0 0 8h3.506q.078.599.142 1.19c.425 3.904.289 6.906-.428 8.772-.325.844-.701 1.276-1.047 1.519-.334.236-.955.519-2.173.519a4 4 0 0 0 0 8h28a4 4 0 0 0 0-8h-17.022c1.135-3.582 1.041-7.833.624-11.675l-.037-.325H264a4 4 0 0 0 0-8h-9.756c-.285-1.408-.578-2.76-.851-4.016l-.095-.436c-.365-1.675-.686-3.146-.924-4.41-.27-1.432-.374-2.307-.374-2.753"/><path fill-rule="evenodd" d="M264 28.159c0-2.296-1.792-4.159-4-4.159s-4 1.863-4 4.159v19.84h-32v-19.84c0-2.296-1.792-4.159-4-4.159s-4 1.863-4 4.159v19.84h-32v-19.84c0-2.296-1.792-4.159-4-4.159s-4 1.863-4 4.159v19.84h-32v-19.84c0-2.296-1.792-4.159-4-4.159s-4 1.863-4 4.159v19.84h-32v-19.84c0-2.296-1.792-4.159-4-4.159s-4 1.863-4 4.159v19.84H64v-19.84C64 25.863 62.208 24 60 24s-4 1.863-4 4.159v19.84L32.739 48l-.258.004C27.776 48.142 24 52.06 24 56.874v230.252l.004.261C24.14 292.168 28 296 32.739 296h189.738c9.463 9.861 22.776 16 37.523 16 28.719 0 52-23.281 52-52 0-14.747-6.139-28.06-16-37.523V56.874l-.004-.261c-.136-4.78-3.994-8.613-8.735-8.613L264 47.999zm24 188.016V104H32v183.675c0 .156.109.288.253.318l.064.007h183.858a51.7 51.7 0 0 1-8.023-24H64c-.76 0-1.471-.226-2.077-.618C60.767 262.673 60 261.423 60 260l.002-.108-.001-.072L60 132.25l.002-.142-.002-.079V132c0-1.42.764-2.668 1.916-3.378A3.8 3.8 0 0 1 64 128h192c.754 0 1.46.222 2.062.608 1.164.707 1.938 1.962 1.938 3.392l-.002.109.001.049.001.046V208c10.309 0 19.918 3 28 8.175m-36-7.563V200h-56v56h12.152c1.839-24.181 20.217-43.74 43.848-47.388M68 256v-56h56v56zm64-56h56v56h-56zm-64-8v-56h56v24h-12.504c-1.776-6.901-8.041-12-15.496-12-8.837 0-16 7.163-16 16s7.163 16 16 16c7.455 0 13.72-5.099 15.496-12H124v24zm64-24v24h56v-24zm0-8h56v-24h-56zm64 8h12.504c1.776 6.901 8.041 12 15.496 12 8.837 0 16-7.163 16-16s-7.163-16-16-16c-7.455 0-13.72 5.099-15.496 12H196v-24h56v56h-56zm68-112.001 23.681.001c.177 0 .319.147.319.325V96H32V56.325l.006-.065a.32.32 0 0 1 .31-.26L56 55.999v19.842C56 78.137 57.792 80 60 80s4-1.863 4-4.159V56h32v19.842C96 78.137 97.792 80 100 80s4-1.863 4-4.159V56h32v19.842c0 2.296 1.792 4.159 4 4.159s4-1.863 4-4.159V56h32v19.842c0 2.296 1.792 4.159 4 4.159s4-1.863 4-4.159V56h32v19.842c0 2.296 1.792 4.159 4 4.159s4-1.863 4-4.159V56h32v19.842c0 2.296 1.792 4.159 4 4.159s4-1.863 4-4.159zM96 156a8 8 0 1 0 0 16 8 8 0 0 0 0-16m120 8a8 8 0 1 1 16 0 8 8 0 0 1-16 0m44 140c24.301 0 44-19.699 44-44s-19.699-44-44-44-44 19.699-44 44 19.699 44 44 44" clip-rule="evenodd"/></g></g></svg>