<svg xmlns="http://www.w3.org/2000/svg" fill="none" viewBox="0 0 320 320"><g id="flexible-income"><path id="lg-icon-fill-primary" fill="#42aeea" d="M196 32a4 4 0 0 0-4-4h-64a4 4 0 0 0-4 4v256a4 4 0 0 0 4 4h64a4 4 0 0 0 4-4zM96 92a4 4 0 0 1 4 4v192a4 4 0 0 1-4 4H32a4 4 0 0 1-4-4V96a4 4 0 0 1 4-4zm192 64a4 4 0 0 1 4 4v64.222c-8.492-7.6-19.706-12.222-32-12.222-16.696 0-31.401 8.524-40 21.458V160a4 4 0 0 1 4-4zm-68 130.542V288a4 4 0 0 0 4 4h.222a48 48 0 0 1-4.222-5.458"/><g id="Outlines" fill="#1d1d1b"><path d="M252 248.385c0-4.751 3.7-8.385 8-8.385s8 3.634 8 8.385a4 4 0 0 0 8 0c0-8.929-7.045-16.385-16-16.385s-16 7.456-16 16.385c0 1.263.239 2.784.513 4.234.26 1.382.605 2.966.962 4.606l.101.461q.249 1.138.498 2.314H244a4 4 0 0 0 0 8h3.506q.078.599.142 1.19c.425 3.904.289 6.906-.428 8.772-.325.844-.701 1.276-1.047 1.519-.334.236-.955.519-2.173.519a4 4 0 0 0 0 8h28a4 4 0 0 0 0-8h-17.022c1.135-3.582 1.041-7.833.624-11.675l-.037-.325H264a4 4 0 0 0 0-8h-9.756c-.285-1.408-.578-2.76-.851-4.016l-.095-.436c-.365-1.675-.686-3.146-.924-4.41-.27-1.432-.374-2.307-.374-2.753"/><path fill-rule="evenodd" d="M200 288V28a4 4 0 0 0-4-4h-72a4 4 0 0 0-4 4v260h-16V92a4 4 0 0 0-4-4H28a4 4 0 0 0-4 4v196H12a4 4 0 0 0 0 8h210.477c9.463 9.861 22.776 16 37.523 16s28.06-6.139 37.523-16H308a4 4 0 0 0 0-8h-4.175C309 279.918 312 270.309 312 260c0-14.747-6.139-28.06-16-37.523V156a4 4 0 0 0-4-4h-72a4 4 0 0 0-4 4v76.275c-5.067 8.025-8 17.532-8 27.725s2.933 19.7 8 27.725V288zm-8-256h-64v256h64zm32 190.477C233.343 213.51 246.028 208 260 208c10.309 0 19.918 3 28 8.175V160h-64zM96 96v192H32V96zm164 208c24.301 0 44-19.699 44-44s-19.699-44-44-44-44 19.699-44 44 19.699 44 44 44" clip-rule="evenodd"/></g></g></svg>