<svg xmlns="http://www.w3.org/2000/svg" fill="none" viewBox="0 0 320 320"><g id="flip-flops"><path id="lg-icon-fill-primary" fill="#42aeea" d="M169.277 86.87c-1.059-33.422 26.722-60.87 59.931-58.548s56.899 33.37 51.199 66.318c-5.868 33.916-12.478 75.621-15.799 108.578-1.581 15.691-4.542 35.185-7.366 52.119-3.732 22.374-23.923 37.918-46.45 36.343-22.528-1.576-40.358-19.779-40.94-42.454-.44-17.162-.66-36.878-.042-52.637 1.298-33.098.557-75.318-.533-109.72M90.792 28.321C124 26 151.78 53.447 150.722 86.867c-1.09 34.403-1.831 76.623-.533 109.721.618 15.759.399 35.475-.041 52.637-.582 22.675-18.413 40.878-40.94 42.453-22.528 1.575-42.719-13.969-46.45-36.343-2.825-16.933-5.786-36.427-7.367-52.118-3.321-32.957-9.93-74.663-15.799-108.58-5.7-32.947 17.99-63.993 51.2-66.316"/><path id="Outlines" fill="#1d1d1b" fill-rule="evenodd" d="M165.28 86.995c-1.132-35.716 28.562-65.156 64.207-62.664s60.953 35.78 54.861 70.99c-5.865 33.898-12.453 75.488-15.76 108.297-1.594 15.823-4.573 35.42-7.401 52.376-4.078 24.452-26.135 41.39-50.674 39.674s-44.024-21.559-44.66-46.34c-.441-17.184-.662-37.005-.039-52.897 1.292-32.95.555-75.052-.534-109.436m59.512 4.477c-1.995 3.395-4.414 6.605-7.029 9.71-3.53 4.192-7.582 8.388-11.576 12.633-4.037 4.291-8.089 8.709-11.845 13.543-7.476 9.622-13.715 20.815-15.928 35.443-2.216 14.658-.443 33.136 8.742 57.38a4 4 0 0 1-7.483 2.834c-2.537-6.696-4.547-13.018-6.086-18.999-.321 14.177-.111 30.534.263 45.106.527 20.569 16.704 37.131 37.221 38.566s38.84-12.715 42.225-33.011c2.398-14.376 4.882-30.544 6.536-44.627-2.355 5.707-5.224 11.687-8.668 17.964a4 4 0 0 1-7.014-3.847c12.469-22.73 16.794-40.781 16.639-55.605-.154-14.794-4.774-26.746-10.838-37.315-3.046-5.31-6.444-10.25-9.844-15.061-3.364-4.76-6.795-9.478-9.706-14.12-2.157-3.44-4.106-6.954-5.609-10.594m4.136-59.16c-30.772-2.151-56.64 23.303-55.653 54.429.584 18.422 1.064 39.111 1.189 59.46 3.401-9.182 8.257-16.923 13.561-23.75 4-5.149 8.27-9.797 12.336-14.118 4.108-4.367 7.937-8.33 11.282-12.303 4.954-5.884 8.47-11.372 9.854-17.299a8 8 0 1 1 12.621-5.959 7.99 7.99 0 0 1-4.291 6.54c.546 6.062 3.265 11.987 7.352 18.504 2.76 4.4 6 8.857 9.46 13.753 3.424 4.845 7.006 10.042 10.251 15.697 4.302 7.499 8.032 15.841 10.122 25.405 2.956-20.133 6.312-40.553 9.454-58.714 5.309-30.686-16.765-59.493-47.538-61.645M90.513 24.33c35.645-2.492 65.339 26.948 64.207 62.664-1.09 34.384-1.826 76.486-.534 109.436.623 15.892.401 35.712-.04 52.897-.636 24.781-20.12 44.625-44.659 46.341-24.54 1.716-46.596-15.223-50.674-39.675-2.828-16.956-5.807-36.553-7.402-52.376-3.306-32.809-9.895-74.399-15.76-108.297-6.09-35.21 19.217-68.497 54.862-70.99m4.424 66.674c-1.742 3.902-4.038 7.65-6.562 11.292-3.224 4.654-7.005 9.397-10.685 14.17-3.723 4.829-7.42 9.784-10.7 15.1-6.532 10.582-11.345 22.478-11.148 37.136.198 14.698 5.44 32.634 19.871 55.235a4 4 0 1 1-6.742 4.306c-3.18-4.98-5.95-9.776-8.347-14.4 1.636 13.143 3.893 27.733 6.078 40.834 3.386 20.296 21.71 34.446 42.227 33.011s36.693-17.997 37.221-38.566c.373-14.571.583-30.927.261-45.103-1.538 5.98-3.549 12.301-6.085 18.996a4 4 0 0 1-7.482-2.835c9.184-24.244 10.957-42.721 8.74-57.379-2.212-14.628-8.451-25.821-15.926-35.443-3.756-4.834-7.808-9.253-11.845-13.544-3.994-4.245-8.047-8.441-11.576-12.633-2.735-3.247-5.255-6.608-7.3-10.177m51.788-4.263c.986-31.126-24.882-56.582-55.654-54.43s-52.846 30.96-47.537 61.646c2.724 15.749 5.609 33.197 8.255 50.683 2.19-6.266 5.126-11.982 8.393-17.275 3.509-5.685 7.416-10.911 11.173-15.783 3.799-4.928 7.373-9.409 10.444-13.841 4.555-6.575 7.586-12.49 8.282-18.478a8 8 0 1 1 8.422-.534c1.384 5.927 4.9 11.416 9.854 17.3 3.345 3.973 7.174 7.936 11.282 12.303 4.065 4.321 8.336 8.969 12.336 14.118 5.304 6.827 10.158 14.568 13.559 23.749.124-20.349.607-41.037 1.191-59.458" clip-rule="evenodd"/></g></svg>