<svg xmlns="http://www.w3.org/2000/svg" fill="none" viewBox="0 0 320 320"><g id="flip"><path id="lg-icon-fill-primary" fill="#42aeea" d="M158.41 306.586a2 2 0 0 0 2.828 0l91.172-91.172c1.26-1.26.367-3.414-1.414-3.414h-53.167a2 2 0 0 1-2-2.005l.115-47.99a2 2 0 0 0-2-2.005h-68.245a2 2 0 0 0-2 2v48a2 2 0 0 1-2 2H68.652c-1.781 0-2.674 2.154-1.414 3.414z"/><path id="Outlines" fill="#1d1d1b" fill-rule="evenodd" d="M250.999 112.054c5.336 0 8.008-6.455 4.235-10.231l-90.999-91.068a5.986 5.986 0 0 0-8.47 0l-90.999 91.068c-3.773 3.776-1.1 10.231 4.235 10.231h50.95v95.892h-50.95c-5.336 0-8.008 6.455-4.235 10.231l90.999 91.068a5.987 5.987 0 0 0 8.47 0l90.999-91.068c3.773-3.776 1.101-10.231-4.235-10.231h-51.065l.106-43.965h.004l-.002-1.045.002-.924a5 5 0 0 0-.004-.255l-.106-49.703zM160 17.818l86.18 86.245h-48.247a5.99 5.99 0 0 0-5.989 6.008l.111 45.933h-64.119v-45.947a5.99 5.99 0 0 0-5.989-5.994H73.82zm0 284.364 86.18-86.245h-48.247a5.99 5.99 0 0 1-5.989-6.008l.111-45.933h-64.119v45.947a5.99 5.99 0 0 1-5.989 5.994H73.82z" clip-rule="evenodd"/></g></svg>