<svg xmlns="http://www.w3.org/2000/svg" fill="none" viewBox="0 0 320 320"><g id="food"><path id="lg-icon-fill-primary" fill="#42aeea" d="M204 84a8 8 0 0 1 8 8v208a8 8 0 0 1-16 0v-80.54c-14.887-2.958-25.132-17.637-21.896-33.171l19.559-93.884A10.56 10.56 0 0 1 204 84m-88 8a8 8 0 0 0-8 8v62.988c0 4.526 1.261 9.113 4.075 12.952 1.642 2.24 3.781 4.984 6.127 7.536 1.75 1.904 3.729 3.828 5.798 5.355V300a8 8 0 0 0 16 0V188.831c2.069-1.527 4.048-3.451 5.798-5.355 2.346-2.552 4.485-5.296 6.127-7.536 2.814-3.839 4.075-8.426 4.075-12.952V100a8 8 0 0 0-16 0 8 8 0 0 0-16 0 8 8 0 0 0-8-8"/><path id="Outlines" fill="#1d1d1b" fill-rule="evenodd" d="M120 290.372C59.932 273.038 16 217.649 16 152 16 72.471 80.471 8 160 8s144 64.471 144 144c0 59.666-36.289 110.857-88 132.705V300c0 6.627-5.373 12-12 12s-12-5.373-12-12v-7.568A144.5 144.5 0 0 1 160 296c-5.408 0-10.747-.298-16-.879V300c0 6.627-5.373 12-12 12s-12-5.373-12-12zM24 152C24 76.89 84.89 16 160 16c75.111 0 136 60.89 136 136 0 55.147-32.824 102.628-80 123.972v-36.321c28.867-18.481 48-50.832 48-87.651 0-57.438-46.562-104-104-104S56 94.562 56 152c0 43.263 26.417 80.356 64 96.029v33.993C64.41 264.941 24 213.19 24 152m120 135.069c5.248.615 10.587.931 16 .931 11.022 0 21.738-1.311 32-3.786v-33.23c-10.081 3.257-20.835 5.016-32 5.016-5.441 0-10.784-.418-16-1.223zm0-40.396A96.7 96.7 0 0 0 160 248c11.22 0 21.991-1.925 32-5.463v-19.969c-15.245-4.728-25.273-20.482-21.812-37.095l19.559-93.883A14.56 14.56 0 0 1 204 80c6.627 0 12 5.373 12 12v137.983c24.225-17.427 40-45.863 40-77.983 0-53.02-42.981-96-96-96s-96 42.98-96 96c0 38.744 22.951 72.127 56 87.295v-48.526c-1.746-1.461-3.35-3.071-4.743-4.586-2.481-2.699-4.716-5.569-6.409-7.878-3.383-4.617-4.848-10.061-4.848-15.317V100c0-6.627 5.373-12 12-12 3.073 0 5.877 1.155 8 3.056A11.96 11.96 0 0 1 132 88c3.073 0 5.877 1.155 8 3.056A11.96 11.96 0 0 1 148 88c6.627 0 12 5.373 12 12v62.988c0 5.256-1.465 10.7-4.848 15.317-1.693 2.309-3.928 5.179-6.409 7.878-1.393 1.515-2.997 3.125-4.743 4.586zm56-30.72c-14.454-.891-24.981-14.443-21.98-28.848l19.559-93.884A6.56 6.56 0 0 1 204 88a4 4 0 0 1 4 4v208a4 4 0 0 1-8 0zm-64-29.26c4.527-2.65 9.516-8.774 12.699-13.118 2.245-3.062 3.301-6.791 3.301-10.587V100a4 4 0 0 0-8 0v40a4 4 0 0 1-8 0v-40a4 4 0 0 0-8 0v40a4 4 0 0 1-8 0v-40a4 4 0 0 0-8 0v62.988c0 3.796 1.056 7.525 3.301 10.587 3.183 4.344 8.172 10.468 12.699 13.118V300a4 4 0 0 0 8 0z" clip-rule="evenodd"/></g></svg>