<svg xmlns="http://www.w3.org/2000/svg" fill="none" viewBox="0 0 320 320"><g id="forestry"><path id="lg-icon-fill-primary" fill="#42aeea" d="m160 12 25 56h-9.75l24.25 40h-15.75L216 148h-19.75l36.25 44h-29.75L247 240h-31.5l44.5 44H60l44.5-44H73l44.25-48H87.5l36.25-44H104l32.25-40H120.5l24.25-40H135z"/><path id="Outlines" fill="#1d1d1b" fill-rule="evenodd" d="M191.166 72 160 2.188 128.834 72h8.813l-24.25 40h14.49l-32.25 40h19.635l-36.25 44h29.1l-44.25 48h30.893l-44.5 44H156v16h-32a4 4 0 0 0 0 8h72a4 4 0 0 0 0-8h-32v-16h105.735l-44.5-44h30.893l-44.25-48h29.1l-36.25-44h19.635l-32.25-40h14.49l-24.25-40zm46.706 164-36.875-40H180a4 4 0 0 1 0-8h44.022l-36.25-44h19.865l-32.25-40h17.01l-24.25-40h10.687L160 21.812 141.166 64h10.687l-24.25 40H148a4 4 0 0 1 0 8h-9.837l-25.8 32h19.865l-36.25 44h30.4l-44.25 48H132a4 4 0 0 1 0 8h-25.856l-36.41 36h180.532l-44.5-44z" clip-rule="evenodd"/></g></svg>