<svg xmlns="http://www.w3.org/2000/svg" fill="none" viewBox="0 0 320 320"><g id="form"><path id="lg-icon-fill-primary" fill="#42aeea" d="m293 53-26-26-80 80 26 26zM148 172H28v120h120z"/><g id="Outlines" fill="#1d1d1b"><path fill-rule="evenodd" d="M264.157 23.809q-.159.191-.333.367l-79.156 79.156c-.439.439-.77.975-.966 1.564L170.53 144.41c-1.042 3.127 1.933 6.102 5.06 5.06l39.514-13.171a4 4 0 0 0 1.564-.967l79.156-79.156a5 5 0 0 1 .368-.332c1.885-1.58 16.702-14.95-.192-31.844s-30.264-2.076-31.843-.191m12.641.665c-1.698.55-3.172 1.488-4.293 2.374l10.32 10.32.003.004 10.325 10.324c.885-1.121 1.824-2.596 2.373-4.294.509-1.572.677-3.31.157-5.294-.528-2.019-1.909-4.82-5.34-8.251s-6.232-4.811-8.25-5.34c-1.985-.52-3.723-.352-5.295.157m-84.313 82.355 74.344-74.344L274.343 40 200 114.343zM205.657 120 280 45.657l7.515 7.515-74.343 74.343zm-16.747-5.433-5.147 15.442a16 16 0 0 1 6.228 6.228l15.442-5.147z" clip-rule="evenodd"/><path d="M126.828 210.828a3.997 3.997 0 0 0 0-5.656 3.997 3.997 0 0 0-5.656 0L76 250.343l-21.172-21.171a4 4 0 0 0-5.656 0 4 4 0 0 0 0 5.656l24 24a4 4 0 0 0 5.656 0z"/><path fill-rule="evenodd" d="M28 168a4 4 0 0 0-4 4v120a4 4 0 0 0 4 4h120a4 4 0 0 0 4-4V172a4 4 0 0 0-4-4zm4 8v112h112V176zm140-8a4 4 0 0 0-4 4v120a4 4 0 0 0 4 4h120a4 4 0 0 0 4-4V172a4 4 0 0 0-4-4zm4 8v112h112V176zM24 28a4 4 0 0 1 4-4h120a4 4 0 0 1 4 4v120a4 4 0 0 1-4 4H28a4 4 0 0 1-4-4zm8 116V32h112v112z" clip-rule="evenodd"/></g></g></svg>