<svg xmlns="http://www.w3.org/2000/svg" fill="none" viewBox="0 0 320 320"><g id="fuel-pump"><g id="lg-icon-fill-primary" fill="#42aeea"><path fill-rule="evenodd" d="M84 54a2 2 0 0 1 2-2h100a2 2 0 0 1 2 2v100a2 2 0 0 1-2 2H86a2 2 0 0 1-2-2zm52 78c11.046 0 20-8.954 20-20s-20-36-20-36-20 24.954-20 36 8.954 20 20 20" clip-rule="evenodd"/><path d="M284 76h-32v32h8a8 8 0 0 1 8 8v16a8 8 0 0 1-8 8h24z"/></g><g id="Outlines" fill="#1d1d1b"><path d="M84 224a4 4 0 0 0 0 8h104a4 4 0 0 0 0-8zm-4-20a4 4 0 0 1 4-4h104a4 4 0 0 1 0 8H84a4 4 0 0 1-4-4m4-28a4 4 0 0 0 0 8h104a4 4 0 0 0 0-8zm52-100 3.121-2.502L136 69.604l-3.121 3.894z"/><path fill-rule="evenodd" d="M136 76c3.121-2.502 3.122-2.5 3.122-2.5l.018.022.047.06.177.222a197 197 0 0 1 2.967 3.875 206 206 0 0 1 7.013 9.984c2.548 3.883 5.153 8.201 7.135 12.316C158.391 103.95 160 108.276 160 112c0 13.255-10.745 24-24 24s-24-10.745-24-24c0-3.724 1.609-8.051 3.521-12.02 1.982-4.116 4.587-8.434 7.135-12.317a206 206 0 0 1 7.013-9.984 196 196 0 0 1 2.967-3.875l.177-.223.047-.06.018-.022zm-6.656 16.052a198 198 0 0 1 6.656-9.48 198 198 0 0 1 6.656 9.48c2.452 3.737 4.847 7.728 6.615 11.399 1.838 3.815 2.729 6.75 2.729 8.549 0 8.836-7.163 16-16 16s-16-7.164-16-16c0-1.799.891-4.734 2.729-8.549 1.768-3.67 4.163-7.662 6.615-11.399" clip-rule="evenodd"/><path fill-rule="evenodd" d="M80 54a6 6 0 0 1 6-6h100a6 6 0 0 1 6 6v100a6 6 0 0 1-6 6H86a6 6 0 0 1-6-6zm8 2v96h96V56z" clip-rule="evenodd"/><path fill-rule="evenodd" d="M274.727 47.879 262.341 14.85l-7.49 2.81 12.385 33.028c.506 1.347.764 2.774.764 4.213V72h-20v60c0 6.627 5.373 12 12 12h12v92c0 5.016-1.151 10.15-3.688 13.901-2.4 3.547-6.173 6.099-12.312 6.099s-9.912-2.552-12.312-6.099C241.151 246.15 240 241.016 240 236V132c0-13.255-10.745-24-24-24V52c0-15.464-12.536-28-28-28H84c-15.464 0-28 12.536-28 28v236H28a4 4 0 0 0 0 8h216a4 4 0 0 0 0-8h-28V116c8.837 0 16 7.163 16 16v104c0 6.029 1.349 12.896 5.062 18.383C240.912 260.074 247.139 264 256 264s15.088-3.926 18.938-9.617C278.651 248.896 280 242.029 280 236v-92h8V72h-12V54.9c0-2.398-.431-4.777-1.273-7.022M280 136h-8v-20c0-6.628-5.373-12-12-12h-4V80h24zm-20 0a4 4 0 0 0 4-4v-16a4 4 0 0 0-4-4h-4v20a4 4 0 0 0 4 4m-52-84v236H64V52c0-11.046 8.954-20 20-20h104c11.046 0 20 8.954 20 20" clip-rule="evenodd"/></g></g></svg>