<svg xmlns="http://www.w3.org/2000/svg" fill="none" viewBox="0 0 320 320"><g id="funds-decrease"><path id="lg-icon-fill-primary" fill="#42aeea" d="M160 172c55.228 0 100 16.118 100 36v4c-26.51 0-48 21.49-48 48 0 15.253 7.114 28.844 18.206 37.636C212.151 304.045 187.358 308 160 308c-55.228 0-100-16.118-100-36v-64c0-19.882 44.772-36 100-36"/><g id="Outlines" fill="#1d1d1b"><path d="M241.169 241.166a4 4 0 0 1 5.656 0L272 266.341v-14.344a4 4 0 0 1 8 0v23.795a4 4 0 0 1-1.166 3.039 4 4 0 0 1-3.04 1.166H252a4 4 0 0 1 0-8h14.343l-25.174-25.174a4 4 0 0 1 0-5.657"/><path fill-rule="evenodd" d="M160 8c27.951 0 53.431 4.072 72.065 10.78 9.301 3.348 17.11 7.43 22.669 12.161C260.278 35.66 264 41.41 264 48v160.15c26.85 2.043 48 24.477 48 51.85 0 28.719-23.281 52-52 52a51.76 51.76 0 0 1-30.508-9.89C211.118 308.284 186.686 312 160 312c-27.951 0-53.431-4.072-72.065-10.78-9.3-3.348-17.11-7.43-22.67-12.161C59.723 284.34 56 278.591 56 272V48c0-6.591 3.722-12.34 9.266-17.059 5.56-4.731 13.368-8.813 22.669-12.16C106.569 12.07 132.049 8 160 8M64 272c0 3.35 1.874 7.071 6.451 10.967 4.561 3.882 11.397 7.559 20.194 10.725C108.202 300.013 132.723 304 160 304c23.858 0 45.606-3.053 62.433-8.047a51.95 51.95 0 0 1-12.171-20.74C195.362 278.271 178.205 280 160 280c-27.951 0-53.431-4.072-72.065-10.78-9.3-3.348-17.11-7.43-22.67-12.161A39 39 0 0 1 64 255.934zm196-56c-24.301 0-44 19.699-44 44s19.699 44 44 44 44-19.699 44-44-19.699-44-44-44M64 240c0 3.35 1.874 7.071 6.451 10.967 4.561 3.882 11.397 7.559 20.194 10.725C108.202 268.013 132.723 272 160 272c17.723 0 34.282-1.685 48.523-4.598A52.5 52.5 0 0 1 208 260c0-5.916.989-11.601 2.809-16.899C195.782 246.229 178.429 248 160 248c-27.951 0-53.431-4.072-72.065-10.78-9.3-3.348-17.11-7.43-22.67-12.161A39 39 0 0 1 64 223.934zm96-64c-27.277 0-51.797 3.987-69.355 10.308-8.797 3.166-15.633 6.843-20.194 10.725C65.874 200.929 64 204.65 64 208s1.874 7.071 6.451 10.967c4.561 3.882 11.397 7.559 20.194 10.725C108.202 236.013 132.723 240 160 240c20.472 0 39.392-2.248 54.98-6.041 8.367-14.433 23.474-24.472 41.015-25.808L256 208c0-3.35-1.874-7.071-6.451-10.967-4.561-3.882-11.397-7.559-20.194-10.725C211.797 179.987 187.277 176 160 176m96-112.066q-.615.57-1.266 1.125c-5.559 4.731-13.368 8.813-22.669 12.16C213.431 83.93 187.951 88 160 88s-53.431-4.072-72.065-10.78c-9.3-3.348-17.11-7.43-22.67-12.161A39 39 0 0 1 64 63.934v128.132q.615-.572 1.266-1.125c5.56-4.731 13.368-8.813 22.669-12.161C106.569 172.072 132.049 168 160 168s53.431 4.072 72.065 10.78c9.301 3.348 17.11 7.43 22.669 12.161q.651.554 1.266 1.125zM160 16c-27.277 0-51.797 3.987-69.355 10.308-8.797 3.166-15.633 6.843-20.194 10.725C65.874 40.93 64 44.65 64 48s1.874 7.071 6.451 10.967c4.561 3.882 11.397 7.559 20.194 10.725C108.202 76.013 132.723 80 160 80s51.797-3.987 69.355-10.308c8.797-3.166 15.633-6.843 20.194-10.725C254.126 55.07 256 51.35 256 48s-1.874-7.071-6.451-10.967c-4.561-3.882-11.397-7.559-20.194-10.725C211.797 19.987 187.277 16 160 16" clip-rule="evenodd"/></g></g></svg>