<svg xmlns="http://www.w3.org/2000/svg" fill="none" viewBox="0 0 320 320"><g id="funds-search"><path id="lg-icon-fill-primary" fill="#42aeea" d="M160 84c55.228 0 100-16.118 100-36v164c-26.51 0-48 21.49-48 48 0 15.253 7.114 28.844 18.206 37.636C212.151 304.045 187.358 308 160 308c-55.228 0-100-16.118-100-36V48c0 19.882 44.772 36 100 36"/><path id="Outlines" fill="#1d1d1b" fill-rule="evenodd" d="M56 48c0-6.592 3.722-12.34 9.266-17.059 5.56-4.732 13.368-8.812 22.668-12.16C106.57 12.072 132.048 8 160 8s53.431 4.072 72.066 10.78c9.3 3.349 17.109 7.43 22.668 12.161C260.278 35.66 264 41.408 264 48v160.152c26.85 2.042 48 24.475 48 51.848 0 28.719-23.281 52-52 52a51.77 51.77 0 0 1-30.508-9.885C211.118 308.288 186.686 312 160 312c-27.952 0-53.431-4.072-72.066-10.781-9.3-3.348-17.109-7.428-22.668-12.16C59.722 284.341 56 278.591 56 272zm166.434 247.956a51.96 51.96 0 0 1-12.173-20.742C195.362 278.273 178.205 280 160 280c-27.952 0-53.431-4.072-72.066-10.781-9.3-3.348-17.109-7.428-22.668-12.16A38 38 0 0 1 64 255.933V272c0 3.35 1.874 7.071 6.451 10.967 4.561 3.882 11.397 7.559 20.193 10.725C108.203 300.013 132.723 304 160 304c23.858 0 45.608-3.05 62.434-8.044m-13.911-28.552A52.4 52.4 0 0 1 208 260c0-5.916.988-11.6 2.807-16.898C195.781 246.23 178.428 248 160 248c-27.952 0-53.431-4.072-72.066-10.781-9.3-3.348-17.109-7.428-22.668-12.16A38 38 0 0 1 64 223.933V240c0 3.35 1.874 7.071 6.451 10.967 4.561 3.882 11.397 7.559 20.193 10.725C108.203 268.013 132.723 272 160 272c17.723 0 34.281-1.683 48.523-4.596m6.456-33.442c8.366-14.435 23.476-24.475 41.02-25.81L256 208v-16.067q-.616.573-1.266 1.126c-5.559 4.732-13.368 8.812-22.668 12.16C213.431 211.928 187.952 216 160 216s-53.431-4.072-72.066-10.781c-9.3-3.348-17.109-7.428-22.668-12.16A38 38 0 0 1 64 191.933V208c0 3.35 1.874 7.071 6.451 10.967 4.561 3.882 11.397 7.559 20.193 10.725C108.203 236.013 132.723 240 160 240c20.471 0 39.39-2.246 54.979-6.038M64 48c0-3.35 1.874-7.071 6.451-10.967 4.561-3.882 11.397-7.559 20.193-10.725C108.203 19.987 132.723 16 160 16s51.797 3.987 69.356 10.308c8.796 3.166 15.632 6.843 20.193 10.725C254.126 40.93 256 44.65 256 48s-1.874 7.071-6.451 10.967c-4.561 3.882-11.397 7.559-20.193 10.725C211.797 76.013 187.277 80 160 80s-51.797-3.987-69.356-10.308c-8.796-3.166-15.632-6.843-20.193-10.725C65.874 55.07 64 51.35 64 48m192 15.933V80c0 3.35-1.874 7.071-6.451 10.967-4.561 3.882-11.397 7.559-20.193 10.725C211.797 108.013 187.277 112 160 112s-51.797-3.987-69.356-10.308c-8.796-3.166-15.632-6.843-20.193-10.725C65.874 87.07 64 83.35 64 80V63.933q.615.573 1.266 1.126c5.56 4.732 13.368 8.812 22.668 12.16C106.57 83.928 132.048 88 160 88s53.431-4.072 72.066-10.78c9.3-3.349 17.109-7.43 22.668-12.161q.65-.553 1.266-1.126M64 112V95.933q.615.573 1.266 1.126c5.56 4.732 13.368 8.812 22.668 12.16C106.57 115.928 132.048 120 160 120s53.431-4.072 72.066-10.781c9.3-3.348 17.109-7.428 22.668-12.16q.65-.553 1.266-1.126V112c0 3.35-1.874 7.071-6.451 10.967-4.561 3.882-11.397 7.559-20.193 10.725C211.797 140.013 187.277 144 160 144s-51.797-3.987-69.356-10.308c-8.796-3.166-15.632-6.843-20.193-10.725C65.874 119.071 64 115.35 64 112m0 15.933V144c0 3.35 1.874 7.071 6.451 10.967 4.561 3.882 11.397 7.559 20.193 10.725C108.203 172.013 132.723 176 160 176s51.797-3.987 69.356-10.308c8.796-3.166 15.632-6.843 20.193-10.725C254.126 151.071 256 147.35 256 144v-16.067q-.616.573-1.266 1.126c-5.559 4.732-13.368 8.812-22.668 12.16C213.431 147.928 187.952 152 160 152s-53.431-4.072-72.066-10.781c-9.3-3.348-17.109-7.428-22.668-12.16A38 38 0 0 1 64 127.933M64 176v-16.067q.615.573 1.266 1.126c5.56 4.732 13.368 8.812 22.668 12.16C106.57 179.928 132.048 184 160 184s53.431-4.072 72.066-10.781c9.3-3.348 17.109-7.428 22.668-12.16a38 38 0 0 0 1.266-1.126V176c0 3.35-1.874 7.071-6.451 10.967-4.561 3.882-11.397 7.559-20.193 10.725C211.797 204.013 187.277 208 160 208s-51.797-3.987-69.356-10.308c-8.796-3.166-15.632-6.843-20.193-10.725C65.874 183.071 64 179.35 64 176m196 128a43.82 43.82 0 0 0 28.156-10.187l-18.25-18.25A23.9 23.9 0 0 1 256 280c-13.255 0-24-10.745-24-24s10.745-24 24-24 24 10.745 24 24a23.9 23.9 0 0 1-4.437 13.906l18.25 18.25A43.82 43.82 0 0 0 304 260c0-24.301-19.699-44-44-44s-44 19.699-44 44 19.699 44 44 44m-20-48c0-8.837 7.163-16 16-16s16 7.163 16 16-7.163 16-16 16-16-7.163-16-16" clip-rule="evenodd"/></g></svg>