<svg xmlns="http://www.w3.org/2000/svg" fill="none" viewBox="0 0 320 320"><g id="gas-cannister"><g id="lg-icon-fill-primary" fill="#42aeea" fill-rule="evenodd" clip-rule="evenodd"><path d="M160 208c13.255 0 24-11.282 24-25.2S160 136 160 136s-24 32.882-24 46.8 10.745 25.2 24 25.2m12-12.6c0 6.959-5.373 12.6-12 12.6s-12-5.641-12-12.6 12-23.4 12-23.4 12 16.441 12 23.4"/><path d="M124 12h72v56h-12.19C225.888 68 260 99.042 260 137.333v104C260 260.479 242.944 276 221.905 276H228c8.837 0 16 7.163 16 16v16H76v-16c0-8.837 7.163-16 16-16h6.095C77.055 276 60 260.479 60 241.333v-104C60 99.042 94.112 68 136.19 68H124zm16 32c0-8.837 7.163-16 16-16h8c8.837 0 16 7.163 16 16v23h-40zm-32 232v8a8 8 0 0 0 8 8h16a8 8 0 0 0 8-8v-8zm72 0v8a8 8 0 0 0 8 8h16a8 8 0 0 0 8-8v-8zm40-104c0 33.137-26.863 60-60 60s-60-26.863-60-60 26.863-60 60-60 60 26.863 60 60"/></g><g id="Outlines" fill="#1d1d1b"><path d="m160 136 3.231-2.358-3.231-4.427-3.231 4.427z"/><path fill-rule="evenodd" d="M160 136c-3.231-2.358-3.232-2.357-3.232-2.357l-.02.028-.055.076-.099.137-.11.152a272 272 0 0 0-3.539 5.066 281 281 0 0 0-8.371 13.015c-3.042 5.05-6.133 10.62-8.477 15.869-2.279 5.106-4.097 10.432-4.097 14.814 0 15.941 12.354 29.2 28 29.2s28-13.259 28-29.2c0-4.382-1.818-9.708-4.097-14.814-2.344-5.249-5.435-10.819-8.477-15.869a281 281 0 0 0-8.371-13.015 272 272 0 0 0-3.539-5.066l-.128-.177-.081-.112-.055-.076-.02-.028s-.001-.001-3.232 2.357m-.088 7.086.088-.128.145.211.3.44a273 273 0 0 1 8.129 12.636c2.958 4.911 5.867 10.171 8.023 15.002 2.221 4.973 3.403 8.976 3.403 11.553 0 4.816-1.497 9.207-4 12.728v-.128c0-2.642-1.068-5.636-2.222-8.222-1.219-2.729-2.81-5.592-4.352-8.151a142 142 0 0 0-5.646-8.619l-.16-.225-.102-.142-.137-.191-.108-.15-.03-.041-.011-.016s-.001-.001-3.232 2.357l3.231-2.358-3.231-4.427-3.231 4.427L160 172c-3.231-2.358-3.232-2.357-3.232-2.357l-.011.016-.03.041-.054.074-.054.076-.139.193-.26.365a142 142 0 0 0-5.646 8.619c-1.542 2.559-3.133 5.422-4.352 8.151-1.154 2.586-2.222 5.58-2.222 8.222v.128c-2.503-3.521-4-7.912-4-12.728 0-2.577 1.182-6.58 3.403-11.553 2.156-4.831 5.065-10.091 8.023-15.002a273 273 0 0 1 8.486-13.159m-2.486 40.069a128 128 0 0 1 2.574-4.086c.805 1.228 1.691 2.62 2.574 4.086 1.458 2.42 2.867 4.972 3.898 7.284 1.096 2.453 1.528 4.124 1.528 4.961 0 4.936-3.763 8.6-8 8.6s-8-3.664-8-8.6c0-.837.432-2.508 1.528-4.961 1.031-2.312 2.44-4.864 3.898-7.284" clip-rule="evenodd"/><path fill-rule="evenodd" d="M200 8h-80v57.5c-36.302 6.824-64 36.136-64 71.833V168h-4a4 4 0 0 0 0 8h4v65.333c0 15.521 9.826 28.62 23.795 34.821C75.055 279.812 72 285.549 72 292v20h176v-20c0-6.451-3.054-12.188-7.795-15.846 13.969-6.201 23.795-19.3 23.795-34.821V176h4a4 4 0 0 0 0-8h-4v-30.667c0-35.697-27.698-65.009-64-71.832zm56 160v-30.667C256 101.597 224.043 72 183.81 72h-47.62C95.957 72 64 101.597 64 137.333V168h32.123c2.065-33.483 29.874-60 63.877-60s61.812 26.517 63.877 60zm-40 4c0-30.928-25.072-56-56-56s-56 25.072-56 56 25.072 56 56 56 56-25.072 56-56m-119.877 4H64v65.333C64 257.923 78.902 272 98.095 272h123.81C241.098 272 256 257.923 256 241.333V176h-32.123c-2.065 33.483-29.874 60-63.877 60s-61.812-26.517-63.877-60M128 64V16h64v48h-8V44c0-11.046-8.954-20-20-20h-8c-11.046 0-20 8.954-20 20v20zm48-20v19h-12V48a4 4 0 0 0-8 0v15h-12V44c0-6.627 5.373-12 12-12h8c6.627 0 12 5.373 12 12M80 292c0-6.627 5.373-12 12-12h12v4c0 6.627 5.373 12 12 12h16c6.627 0 12-5.373 12-12v-4h32v4c0 6.627 5.373 12 12 12h16c6.627 0 12-5.373 12-12v-4h12c6.627 0 12 5.373 12 12v12H80zm32-8v-4h24v4a4 4 0 0 1-4 4h-16a4 4 0 0 1-4-4m72 0v-4h24v4a4 4 0 0 1-4 4h-16a4 4 0 0 1-4-4" clip-rule="evenodd"/></g></g></svg>