<svg xmlns="http://www.w3.org/2000/svg" fill="none" viewBox="0 0 320 320"><g id="gavel"><path id="lg-icon-fill-primary" fill="#42aeea" d="M175.811 62.763a2 2 0 0 0-2.828 0l-48.084 48.083a2 2 0 0 0 0 2.828l42.427 42.427a2 2 0 0 0 2.828 0l48.083-48.084a2 2 0 0 0 0-2.828zM148 224a4 4 0 0 0-4 4v24a4 4 0 0 0 4 4h120a4 4 0 0 0 4-4v-24a4 4 0 0 0-4-4z"/><path id="Outlines" fill="#1d1d1b" fill-rule="evenodd" d="M136.214 25.993a6 6 0 0 1 8.485 0l19.799 19.8a6 6 0 0 1 0 8.485l-7.071 7.07 5.657 5.657 7.071-7.07a6 6 0 0 1 8.485 0l42.426 42.426a6 6 0 0 1 0 8.485l-7.071 7.071 5.657 5.657 7.071-7.071a6 6 0 0 1 8.485 0l19.799 19.799a6 6 0 0 1 0 8.485l-48.083 48.083a6 6 0 0 1-8.485 0l-19.799-19.799a6 6 0 0 1 0-8.485l7.071-7.071-5.657-5.657-7.071 7.071a6 6 0 0 1-8.485 0l-10.747-10.746-95.61 102.204c-7.521 8.04-20.208 8.252-27.993.466-7.786-7.785-7.574-20.472.466-27.993l102.204-95.611-10.747-10.746a6 6 0 0 1 0-8.485l7.071-7.071-5.656-5.657-7.071 7.071a6 6 0 0 1-8.486 0l-19.799-19.8a6 6 0 0 1 0-8.485zm-1.415 69.297-5.657-5.657 22.628-22.628 5.657 5.657zm22.628-45.255L112.172 95.29l-16.97-16.97 45.254-45.256zm-28.285 62.225 39.598 39.598 45.255-45.255-39.598-39.598zm56.569 33.941 22.627-22.627 5.657 5.657-22.627 22.627zm-47.233-13.292 9.613 9.614-95.792 102.399c-4.432 4.737-11.907 4.862-16.495.274-4.587-4.587-4.462-12.062.275-16.494zm47.233 35.92 16.971 16.97 45.254-45.255-16.97-16.97zM144 228v20h-20a4 4 0 0 0-4 4v40a4 4 0 0 0 4 4h168a4 4 0 0 0 4-4v-40a4 4 0 0 0-4-4h-20v-20a4 4 0 0 0-4-4H148a4 4 0 0 0-4 4m8 4v16h112v-16zm136 24v32H128v-32z" clip-rule="evenodd"/></g></svg>