<svg xmlns="http://www.w3.org/2000/svg" fill="none" viewBox="0 0 320 320"><g id="glass"><path id="lg-icon-fill-primary" fill="#42aeea" fill-rule="evenodd" d="M41.8 28 28 44v248h248l16-13.8V276H44V28z" clip-rule="evenodd"/><g id="Outlines" fill="#1d1d1b"><path d="M105.182 177.109a4.038 4.038 0 0 0 5.709 5.709L214.818 78.891a4.038 4.038 0 0 0-5.709-5.709zm16 48a4.038 4.038 0 0 0 5.709 5.709l103.927-103.927a4.038 4.038 0 0 0-5.709-5.709z"/><path fill-rule="evenodd" d="M39.968 24 24 42.513V296h253.487L296 280.032V24zM40 36.211l-8 9.276v236.856l8-8zM45.657 280l-8 8h236.856l9.276-8zM48 32v240h240V32z" clip-rule="evenodd"/></g></g></svg>