<svg xmlns="http://www.w3.org/2000/svg" fill="none" viewBox="0 0 320 320"><g id="globe"><path id="lg-icon-fill-primary" fill="#42aeea" d="M210.703 239.359c52.665-28.002 72.658-93.396 44.655-146.061-28.002-52.665-93.396-72.658-146.061-44.655-52.665 28.002-72.658 93.396-44.655 146.061 28.002 52.665 93.396 72.658 146.061 44.655"/><path id="Outlines" fill="#1d1d1b" fill-rule="evenodd" d="M88.64 9.791a4 4 0 0 1 5.41 1.654l7.502 14.11.01.017.009.018 9.413 17.704c53.943-26.298 119.433-5.328 147.866 48.05l.04.074.039.075c28.354 53.42 9.118 119.441-42.849 149.457l9.413 17.704.009.017.009.016 7.503 14.111a4 4 0 0 1-7.064 3.755l-5.661-10.646c-18.088 8.958-37.268 13.519-56.289 14.064v24.028h32a4 4 0 0 1 0 8h-72a4 4 0 0 1 0-8h32v-24.035c-47.198-1.432-92.325-27.438-116.08-72.116-34.635-65.138-10.965-145.739 52.727-182L86.987 15.2a4 4 0 0 1 1.653-5.41m126.49 46.003c13.933 8.69 25.98 20.793 34.751 35.884l-35.286 18.762c-8.397-15.065-18.296-28.26-28.875-39.009zm-8.285-4.656c-20.7-10.42-44.648-13.827-67.893-9.013 8.233 2.012 16.646 5.867 24.831 11.171 5.349 3.467 10.668 7.59 15.866 12.303zm-34.733 18.468c-4.193-3.637-8.438-6.848-12.68-9.596-16.534-10.715-32.286-14.025-44.598-9.476l20.53 38.611zM128.3 92.901 107.77 54.29c-10.656 7.663-16.72 22.573-17.084 42.273-.093 5.053.195 10.368.866 15.878zm-35.458 27.914 39.214-20.85 22.534 42.38-45.877 24.393c-7.889-15.605-13.157-31.296-15.87-45.923m-8.827-4.367c-1.001-6.945-1.445-13.659-1.327-20.033.18-9.752 1.688-18.882 4.623-26.833-16.989 16.58-27.556 38.339-30.492 61.327zm-27.97 23.932 29.41-15.637c2.995 14.78 8.4 30.366 16.193 45.752l-35.286 18.762c-7.606-15.71-10.903-32.465-10.316-48.877m83.075-44.171 39.213-20.85c10.609 10.43 20.671 23.57 29.197 38.837l-45.876 24.393zm72.166 25.051-45.877 24.393 22.535 42.381 39.213-20.85c-2.714-14.627-7.982-30.319-15.871-45.924m-52.94 28.148-45.877 24.394c8.526 15.267 18.589 28.409 29.198 38.838l39.214-20.85zm-52.942 28.15L70.117 196.32c8.771 15.091 20.819 27.195 34.753 35.886l29.41-15.638c-10.58-10.748-20.478-23.944-28.876-39.01m148.233-78.817-35.286 18.762c7.794 15.387 13.199 30.972 16.193 45.754l29.41-15.638c.587-16.412-2.71-33.168-10.317-48.878M96.405 32.914l7.516 14.135C51.929 77.08 32.699 143.147 61.11 196.581c28.41 53.433 93.938 74.435 147.906 48.125l7.516 14.134c-18.015 8.881-37.172 13.134-56.081 13.184a4.2 4.2 0 0 0-.895 0c-45.616-.198-89.658-24.835-112.573-67.932-32.56-61.236-10.37-136.993 49.422-171.178m108.761 204.551c-12.312 4.549-28.064 1.239-44.599-9.476-4.241-2.748-8.487-5.958-12.679-9.596l36.748-19.539zM191.7 195.098l20.53 38.611c10.656-7.663 16.721-22.574 17.083-42.273.093-5.053-.194-10.368-.865-15.877zm44.285-23.547c1.001 6.945 1.444 13.659 1.327 20.033-.18 9.753-1.688 18.884-4.625 26.835 16.99-16.58 27.558-38.34 30.494-61.328zm-122.831 65.31 27.197-14.46c5.197 4.713 10.516 8.835 15.866 12.302 8.186 5.305 16.599 9.16 24.833 11.172-23.246 4.814-47.195 1.407-67.896-9.014" clip-rule="evenodd"/></g></svg>