<svg xmlns="http://www.w3.org/2000/svg" fill="none" viewBox="0 0 320 320"><g id="graph-point"><g id="lg-icon-fill-primary" fill="#42aeea"><path d="M196 114.344C177.532 109.12 164 92.14 164 72c0-24.3 19.699-44 44-44s44 19.7 44 44c0 20.14-13.532 37.12-32 42.344V104c0-6.627-5.373-12-12-12 11.046 0 20-8.954 20-20s-8.954-20-20-20-20 8.954-20 20 8.954 20 20 20c-6.627 0-12 5.373-12 12z"/><path fill-rule="evenodd" d="M72 252c24.3 0 44-19.699 44-44s-19.7-44-44-44-44 19.699-44 44 19.7 44 44 44m0-24c11.046 0 20-8.954 20-20s-8.954-20-20-20-20 8.954-20 20 8.954 20 20 20m44-156c0 24.3-19.7 44-44 44S28 96.3 28 72s19.7-44 44-44 44 19.7 44 44m-24 0c0 11.046-8.954 20-20 20s-20-8.954-20-20 8.954-20 20-20 20 8.954 20 20" clip-rule="evenodd"/></g><g id="Outlines" fill="#1d1d1b" fill-rule="evenodd" clip-rule="evenodd"><path d="M96 208c0 13.255-10.745 24-24 24s-24-10.745-24-24 10.745-24 24-24 24 10.745 24 24m-8 0c0 8.837-7.163 16-16 16s-16-7.163-16-16 7.163-16 16-16 16 7.163 16 16m8-136c0 13.255-10.745 24-24 24S48 85.255 48 72s10.745-24 24-24 24 10.745 24 24m-8 0c0 8.837-7.163 16-16 16s-16-7.163-16-16 7.163-16 16-16 16 7.163 16 16"/><path d="M224 117.269c18.643-6.589 32-24.37 32-45.269 0-26.51-21.49-48-48-48s-48 21.49-48 48c0 8.902 2.423 17.238 6.646 24.384l-70.262 70.262A47.7 47.7 0 0 0 84 161.512v-43.024c20.703-5.329 36-24.122 36-46.488 0-26.51-21.49-48-48-48S24 45.49 24 72c0 22.366 15.297 41.159 36 46.488v43.024C39.297 166.841 24 185.634 24 208c0 26.51 21.49 48 48 48s48-21.49 48-48c0-8.902-2.423-17.237-6.646-24.383l70.263-70.263a47.7 47.7 0 0 0 8.383 3.915V209.6l-22.961-18.368a15.83 15.83 0 0 0-18.671-.811c-7.726 5.151-9.381 15.813-3.581 23.063l52.109 65.137L202 296h78l13.361-110.846.02-.131c1.377-8.951-5.549-17.023-14.605-17.023q-1.326.001-2.588.226a14.7 14.7 0 0 0-5.253 2.024 16 16 0 0 0-3.245-5.174A15.95 15.95 0 0 0 256 160q-.69 0-1.366.057a15.9 15.9 0 0 0-7.532 2.644 16 16 0 0 0-4.454-6.644A15.94 15.94 0 0 0 232 152a15.9 15.9 0 0 0-8 2.141zm0-8.597c14.127-6.173 24-20.27 24-36.672 0-22.091-17.909-40-40-40s-40 17.909-40 40c0 16.402 9.873 30.499 24 36.672V104c0-4.26 1.664-8.13 4.378-10.997C188.996 88.91 184 81.038 184 72c0-13.255 10.745-24 24-24s24 10.745 24 24c0 9.039-4.996 16.91-12.378 21.003A15.94 15.94 0 0 1 224 104zM72 120a49 49 0 0 0 4-.164v40.328a48.6 48.6 0 0 0-8 0v-40.328a49 49 0 0 0 4 .164m105.005-11.348a48 48 0 0 1-5.657-5.657l-68.353 68.353a48 48 0 0 1 5.657 5.657zM224 72c0 8.837-7.163 16-16 16s-16-7.163-16-16 7.163-16 16-16 16 7.163 16 16M112 208c0 22.091-17.909 40-40 40s-40-17.909-40-40 17.909-40 40-40 40 17.909 40 40m0-136c0 22.091-17.909 40-40 40S32 94.091 32 72s17.909-40 40-40 40 17.909 40 40m75.002 143.847A8 8 0 0 0 200 209.6V104a8 8 0 0 1 16 0v50.141a8 8 0 0 0 12.006 6.924A7.9 7.9 0 0 1 232 160a8.01 8.01 0 0 1 7.553 5.349 7.997 7.997 0 0 0 12.003 3.997A7.93 7.93 0 0 1 256 168a8.01 8.01 0 0 1 7.47 5.126 7.998 7.998 0 0 0 11.716 3.901 6.7 6.7 0 0 1 3.59-1.027c4.153 0 7.329 3.702 6.698 7.807l-.02.131a6 6 0 0 0-.036.259L272.906 288h-64.208l-1.926-10.786a8 8 0 0 0-1.629-3.591l-52.109-65.136c-2.869-3.587-2.05-8.861 1.771-11.409a7.83 7.83 0 0 1 9.237.401z"/></g></g></svg>