<svg xmlns="http://www.w3.org/2000/svg" fill="none" viewBox="0 0 320 320"><g id="growth-on-target"><path id="lg-icon-fill-primary" fill="#42aeea" d="M284 92c0 22.091-17.909 40-40 40h-32v-32c0-22.091 17.909-40 40-40h32zM124 56c15.464 0 28 12.536 28 28s-12.536 28-28 28-28-12.536-28-28 12.536-28 28-28"/><path id="Outlines" fill="#1d1d1b" fill-rule="evenodd" d="M140.719 8.609a4.84 4.84 0 0 1 6.627 1.97 55 55 0 0 1 4.349 10.996c.948 3.484 1.659 7.614 1.471 11.907 3.624-2.31 7.556-3.759 11.048-4.68a55 55 0 0 1 11.697-1.731l.263-.003a4.84 4.84 0 0 1 4.757 4.757l-.002.262-.038.867a55 55 0 0 1-1.694 10.83c-.921 3.492-2.371 7.425-4.68 11.049 4.293-.189 8.424.524 11.909 1.472a55 55 0 0 1 10.996 4.348 4.84 4.84 0 0 1 1.835 6.854 55 55 0 0 1-7.347 9.264c-2.543 2.563-5.766 5.244-9.578 7.228 3.813 1.983 7.035 4.666 9.578 7.23a55 55 0 0 1 7.348 9.263 4.84 4.84 0 0 1-1.836 6.854 55 55 0 0 1-10.996 4.348c-3.485.948-7.616 1.659-11.909 1.471 2.31 3.624 3.759 7.558 4.68 11.05a55 55 0 0 1 1.732 11.696 4.84 4.84 0 0 1-5.017 5.017 55 55 0 0 1-11.697-1.732 44 44 0 0 1-5.613-1.877c1.838 7.524 3.301 16.01 4.236 25.579a18.3 18.3 0 0 1 2.954-2.646c6.118-4.393 14.059-4.251 20.208-4.251 6.851 0 11.91-.142 15.542-2.749 3.183-2.286 6.259-7.354 6.448-20.003l.01-1.248v-32c0-24.301 19.699-44 44-44h36v36c0 24.3-19.7 43.999-44 44h-28.093c-.576 12.06-3.856 19.555-9.699 23.75-6.118 4.392-14.059 4.25-20.208 4.25-6.851 0-11.91.142-15.542 2.75-2.942 2.112-5.791 6.598-6.355 17.251H256a8 8 0 0 1 8 8v16a8 8 0 0 1-8 8h-12.471l-9.803 78.168c-1.255 10.005-9.762 17.511-19.845 17.511H106.119c-10.083 0-18.59-7.506-19.845-17.511l-9.803-78.168H64a8 8 0 0 1-7.99-7.588l-.01-.412v-16a8 8 0 0 1 8-8h91.972c-.214-15.357-1.66-28.281-3.879-39.152a46 46 0 0 1-.399 1.575 55 55 0 0 1-4.347 10.995 4.84 4.84 0 0 1-6.855 1.837 55 55 0 0 1-9.264-7.348c-2.564-2.544-5.244-5.766-7.228-9.578-1.984 3.813-4.665 7.035-7.229 9.579a55 55 0 0 1-9.264 7.348 4.84 4.84 0 0 1-6.853-1.837 55 55 0 0 1-4.35-10.995c-.948-3.484-1.659-7.616-1.47-11.91-3.624 2.31-7.558 3.761-11.05 4.682a55 55 0 0 1-11.695 1.73 4.84 4.84 0 0 1-5.018-5.016 55 55 0 0 1 1.732-11.697c.92-3.491 2.368-7.425 4.678-11.049-4.293.188-8.423-.524-11.907-1.472a55 55 0 0 1-10.996-4.349 4.84 4.84 0 0 1-1.837-6.854 55 55 0 0 1 7.349-9.262c2.543-2.563 5.764-5.247 9.577-7.23-3.812-1.984-7.034-4.665-9.577-7.228a55 55 0 0 1-7.348-9.264 4.84 4.84 0 0 1 1.837-6.853l.768-.4c2.035-1.032 5.73-2.726 10.226-3.95 3.485-.948 7.616-1.66 11.91-1.471-2.31-3.624-3.76-7.557-4.68-11.048a55 55 0 0 1-1.733-11.698 4.84 4.84 0 0 1 5.018-5.017c1.996.069 6.547.374 11.696 1.732 3.492.921 7.425 2.37 11.049 4.679-.188-4.294.524-8.424 1.473-11.908a55 55 0 0 1 4.348-10.995l.129-.228a4.84 4.84 0 0 1 6.498-1.742l.227.134.729.465a55 55 0 0 1 8.533 6.882c2.564 2.544 5.246 5.765 7.23 9.578 1.984-3.813 4.665-7.033 7.229-9.577a55 55 0 0 1 9.264-7.347zM94.212 293.174a12 12 0 0 0 11.907 10.507h107.762a12 12 0 0 0 11.907-10.507l9.679-77.172H84.533zM64 208.002h192v-16H64zm51.831-93.516c-.748-.2-2.811.066-5.657 3.034-2.659 2.773-5.267 7.248-6.815 13.025-1.195 4.463-.642 9.393.56 13.809a46.4 46.4 0 0 0 2.225 6.284 46.6 46.6 0 0 0 5.07-4.329c3.249-3.223 6.192-7.217 7.388-11.68 1.547-5.776 1.529-10.955.613-14.686-.981-3.994-2.637-5.257-3.384-5.457m21.995 3.034c-2.759-2.878-4.783-3.214-5.585-3.05l-.165.046c-.784.276-2.348 1.591-3.29 5.426-.916 3.73-.936 8.909.611 14.685 1.196 4.463 4.14 8.458 7.389 11.681a46.6 46.6 0 0 0 5.069 4.33 46.4 46.4 0 0 0 2.226-6.285c1.202-4.416 1.754-9.347.559-13.81-1.548-5.776-4.155-10.25-6.814-13.023m-36.185-11.239c-.597-.545-2.518-1.286-6.375-.165-3.69 1.072-8.186 3.644-12.415 7.873-3.266 3.266-5.251 7.813-6.418 12.238a46.6 46.6 0 0 0-1.217 6.555 46.6 46.6 0 0 0 6.556-1.215c4.426-1.167 8.972-3.153 12.239-6.42 4.229-4.229 6.801-8.724 7.873-12.413 1.114-3.834.388-5.754-.155-6.363zm51.093-.165c-3.798-1.104-5.719-.403-6.347.138q-.057.058-.116.114c-.543.608-1.27 2.529-.156 6.365 1.072 3.689 3.645 8.185 7.874 12.414 3.267 3.267 7.813 5.253 12.239 6.42a46.5 46.5 0 0 0 6.555 1.214 46.6 46.6 0 0 0-1.216-6.554c-1.167-4.425-3.153-8.971-6.42-12.238-4.229-4.229-8.724-6.801-12.413-7.873M252 64.001c-19.882 0-36 16.117-36 36v5.983c3.591-4.529 7.971-7.592 12.271-9.652 4.991-2.392 9.929-3.463 13.581-3.945a46 46 0 0 1 4.47-.375 33 33 0 0 1 1.674-.013q.068 0 .111.004l.049.001h.011a4 4 0 0 1-.333 7.993h-.037q-.068-.003-.229-.004c-.214-.002-.549 0-.984.014-.873.029-2.147.108-3.686.311-3.098.409-7.16 1.306-11.169 3.227-3.988 1.911-7.866 4.804-10.762 9.208-2.423 3.685-4.278 8.609-4.811 15.248H244c19.882-.001 36-16.119 36-36V64zm-121.873-2.866a23.57 23.57 0 0 0-12.14-.034l-.113.034-.084.02a23.8 23.8 0 0 0-10.498 6.073l-.031.033-.056.053a23.57 23.57 0 0 0-6.068 10.56 23.56 23.56 0 0 0-.028 12.166l.026.085.014.061a23.8 23.8 0 0 0 6.046 10.487l.068.065.081.085a23.56 23.56 0 0 0 10.53 6.042 23.56 23.56 0 0 0 12.105.041l.148-.043.125-.031a23.8 23.8 0 0 0 10.396-6.002l.089-.093q.054-.053.109-.104a23.56 23.56 0 0 0 6.019-10.507 23.56 23.56 0 0 0 .038-12.12l-.039-.133-.026-.11a23.8 23.8 0 0 0-6.029-10.433l-.071-.068-.093-.097a23.56 23.56 0 0 0-10.518-6.03m-42.07 27.65c-3.73-.915-8.91-.936-14.687.612-4.462 1.196-8.455 4.14-11.679 7.389a47 47 0 0 0-4.332 5.069 47 47 0 0 0 6.286 2.226c4.416 1.201 9.348 1.755 13.81.559 5.777-1.548 10.252-4.156 13.025-6.814 2.901-2.783 3.219-4.818 3.044-5.606l-.034-.123c-.259-.777-1.562-2.36-5.432-3.311m86.573.611c-5.777-1.548-10.957-1.526-14.688-.61-3.971.975-5.242 2.617-5.453 3.37l-.002.012-.004.012c-.194.758.086 2.815 3.037 5.646 2.773 2.658 7.248 5.266 13.025 6.814 4.462 1.196 9.393.642 13.809-.559a47 47 0 0 0 6.285-2.226 46.6 46.6 0 0 0-4.33-5.07c-3.224-3.248-7.217-6.193-11.679-7.389M77.455 63.359c-4.462-1.196-9.394-.642-13.81.56a46.6 46.6 0 0 0-6.286 2.224 46.6 46.6 0 0 0 4.332 5.07c3.224 3.25 7.218 6.193 11.68 7.39 5.777 1.547 10.956 1.526 14.687.61 3.992-.98 5.256-2.635 5.457-3.382s-.068-2.813-3.034-5.658c-2.773-2.658-7.249-5.266-13.026-6.814m106.899.56c-4.416-1.202-9.347-1.755-13.809-.56-5.777 1.549-10.253 4.156-13.025 6.814-2.897 2.778-3.218 4.81-3.045 5.601l.037.13c.262.78 1.566 2.36 5.43 3.31 3.731.915 8.91.936 14.687-.612 4.462-1.196 8.456-4.14 11.68-7.389a46.6 46.6 0 0 0 4.33-5.07 46.6 46.6 0 0 0-6.285-2.224M75.216 35.215a46.6 46.6 0 0 0 1.217 6.556c1.167 4.425 3.153 8.972 6.42 12.24 4.229 4.228 8.725 6.8 12.414 7.872 3.857 1.12 5.777.38 6.374-.165l.07-.069c.545-.587 1.298-2.507.172-6.384-1.072-3.689-3.643-8.184-7.872-12.413-3.267-3.266-7.814-5.253-12.239-6.42a46.6 46.6 0 0 0-6.556-1.217m97.566.001a46.5 46.5 0 0 0-6.554 1.216c-4.426 1.167-8.973 3.153-12.24 6.42-4.229 4.23-6.8 8.725-7.872 12.414-1.106 3.807-.399 5.727.143 6.35l.106.108c.604.544 2.524 1.277 6.369.16 3.689-1.073 8.185-3.645 12.413-7.874 3.267-3.266 5.253-7.812 6.42-12.237a46.6 46.6 0 0 0 1.215-6.557m-30.927-17.855a46.6 46.6 0 0 0-5.069 4.33c-3.248 3.223-6.193 7.217-7.389 11.68-1.547 5.777-1.527 10.956-.611 14.687.981 3.992 2.634 5.255 3.382 5.456.747.2 2.813-.066 5.659-3.034 2.659-2.773 5.265-7.249 6.813-13.025 1.195-4.463.644-9.393-.558-13.809a46.4 46.4 0 0 0-2.227-6.285m-35.711-.002a46.5 46.5 0 0 0-2.224 6.287c-1.202 4.416-1.757 9.346-.562 13.809 1.548 5.776 4.157 10.25 6.816 13.023 2.793 2.913 4.831 3.221 5.613 3.043l.104-.027c.772-.25 2.367-1.547 3.323-5.437.916-3.73.936-8.91-.611-14.686-1.196-4.463-4.14-8.458-7.389-11.681a46.6 46.6 0 0 0-5.07-4.331" clip-rule="evenodd"/></g></svg>