<svg xmlns="http://www.w3.org/2000/svg" fill="none" viewBox="0 0 320 320"><g id="growth-off-target"><path id="lg-icon-fill-primary" fill="#42aeea" d="M168.07 128.09c9.913-9.885 27.757-7.933 27.757-7.933.012.107 1.953 17.91-7.931 27.765-9.887 9.859-27.665 7.942-27.757 7.932-.002-.018-.133-1.223-.157-3.17-.024 1.941-.153 3.144-.156 3.17 0 0-17.844 1.952-27.757-7.933s-7.931-27.765-7.931-27.765c.089-.009 17.869-1.926 27.757 7.934 6.8 6.78 8.002 17.322 8.087 23.275.085-5.953 1.288-16.495 8.088-23.275"/><path id="Outlines" fill="#1d1d1b" fill-rule="evenodd" d="M192.959 116.007c.989.016 1.793.056 2.361.094q.428.03.671.052l.192.018.078.008.007.001h.003c-.001.006-.015.153-.394 3.616l.396-3.616 3.188.349.352 3.187-3.975.441c3.808-.422 3.97-.438 3.976-.439v.003l.001.008.002.02.006.057.019.193a40 40 0 0 1 .15 3.038 54 54 0 0 1-.435 7.809c-.79 6.062-2.951 14.045-8.823 19.9-5.865 5.848-13.838 8.01-19.894 8.804a54 54 0 0 1-6.84.448V184h92a8 8 0 0 1 8 8v16a8 8 0 0 1-8 8h-12.471l-9.803 78.169c-1.255 10.004-9.762 17.51-19.845 17.51H106.119c-10.083 0-18.59-7.506-19.845-17.51L76.471 216H64a8 8 0 0 1-7.99-7.588L56 208v-16a8 8 0 0 1 8-8h92v-24.001a54 54 0 0 1-6.84-.448c-6.056-.794-14.029-2.956-19.894-8.804-5.871-5.855-8.033-13.838-8.823-19.9a54 54 0 0 1-.435-7.809 40 40 0 0 1 .15-3.038l.019-.193.008-.077.001-.008v-.003s.063.005 3.976.439l-3.975-.441.352-3.187 3.188-.349.396 3.616-.394-3.616h.003l.007-.001.078-.008.192-.018q.243-.022.671-.052a47 47 0 0 1 2.361-.094c1.972-.03 4.713.039 7.799.444 6.056.794 14.029 2.956 19.894 8.804 2.262 2.255 3.971 4.827 5.265 7.482 1.294-2.656 3.005-5.227 5.267-7.483 5.865-5.848 13.838-8.01 19.894-8.804a54 54 0 0 1 7.799-.444M94.212 293.172a12 12 0 0 0 11.907 10.507h107.762a12 12 0 0 0 11.907-10.507L235.467 216H84.533zM64 208h192v-16H64zm64.001-83.997c.002 1.587.087 3.602.375 5.811.697 5.346 2.5 11.242 6.538 15.269 4.045 4.032 9.946 5.836 15.286 6.537 2.205.289 4.215.375 5.8.38a46 46 0 0 0-.376-5.811c-.697-5.346-2.5-11.241-6.538-15.269-4.045-4.032-9.946-5.836-15.286-6.537a46 46 0 0 0-5.799-.38m63.998-.001a46 46 0 0 0-5.799.38c-5.34.701-11.241 2.505-15.286 6.538-4.039 4.027-5.841 9.922-6.538 15.268a46 46 0 0 0-.376 5.811 46 46 0 0 0 5.8-.38c5.34-.701 11.241-2.505 15.286-6.537 4.039-4.027 5.841-9.923 6.538-15.269.288-2.209.373-4.224.375-5.811" clip-rule="evenodd"/></g></svg>