<svg xmlns="http://www.w3.org/2000/svg" fill="none" viewBox="0 0 320 320"><g id="handheld-scanner"><path id="lg-icon-fill-primary" fill="#42aeea" fill-rule="evenodd" d="M100 12c-8.837 0-16 7.163-16 16v127.568c0 2.9.788 5.746 2.28 8.232l19.44 32.4a16 16 0 0 1 2.28 8.232V292c0 8.837 7.163 16 16 16h72c8.837 0 16-7.163 16-16v-87.568c0-2.9.788-5.746 2.28-8.232l19.44-32.4a16 16 0 0 0 2.28-8.232V28c0-8.837-7.163-16-16-16zm0 20a4 4 0 0 1 4-4h112a4 4 0 0 1 4 4v112a4 4 0 0 1-4 4H104a4 4 0 0 1-4-4zm32 132a8 8 0 0 0 0 16h56a8 8 0 0 0 0-16zm-4 32a4 4 0 0 0-4 4v64a4 4 0 0 0 4 4h16a4 4 0 0 1 4 4v16a4 4 0 0 0 4 4h16a4 4 0 0 0 4-4v-16a4 4 0 0 1 4-4h16a4 4 0 0 0 4-4v-64a4 4 0 0 0-4-4z" clip-rule="evenodd"/><g id="Outlines" fill="#1d1d1b"><path fill-rule="evenodd" d="M128 192a8 8 0 0 0-8 8v64a8 8 0 0 0 8 8h16v16a8 8 0 0 0 8 8h16a8 8 0 0 0 8-8v-16h16a8 8 0 0 0 8-8v-64a8 8 0 0 0-8-8zm16 72h-16v-16h16zm8 24v-16h16v16zm0-24h16v-16h-16zm24 0v-16h16v16zm16-24h-16v-16h16zm0-24h-16v-16h16zm-24 0v-16h-16v16zm0 8h-16v16h16zm-24 0v16h-16v-16zm0-8h-16v-16h16zm-12-56c-6.627 0-12 5.373-12 12s5.373 12 12 12h56c6.627 0 12-5.373 12-12s-5.373-12-12-12zm-4 12a4 4 0 0 1 4-4h56a4 4 0 0 1 0 8h-56a4 4 0 0 1-4-4" clip-rule="evenodd"/><path d="M120.205 81.265a4 4 0 0 1 2.53-5.06l72-24a4 4 0 0 1 2.53 7.59l-72 24a4 4 0 0 1-5.06-2.53m0 32a4 4 0 0 1 2.53-5.06l72-24a4 4 0 0 1 2.53 7.59l-72 24a4 4 0 0 1-5.06-2.53"/><path fill-rule="evenodd" d="M96 32a8 8 0 0 1 8-8h112a8 8 0 0 1 8 8v112a8 8 0 0 1-8 8H104a8 8 0 0 1-8-8zm120 0H104v112h112z" clip-rule="evenodd"/><path fill-rule="evenodd" d="M80 28c0-11.046 8.954-20 20-20h120c11.046 0 20 8.954 20 20v127.568c0 3.625-.985 7.182-2.85 10.29l-19.44 32.4a12 12 0 0 0-1.71 6.174V292c0 11.046-8.954 20-20 20h-72c-11.046 0-20-8.954-20-20v-87.568a12 12 0 0 0-1.71-6.174l-19.44-32.4a20 20 0 0 1-2.85-10.29zm20-12c-6.627 0-12 5.373-12 12v127.568a12 12 0 0 0 1.71 6.174l19.44 32.4a20 20 0 0 1 2.85 10.29V292c0 6.627 5.373 12 12 12h72c6.627 0 12-5.373 12-12v-87.568c0-3.625.985-7.182 2.85-10.29l19.44-32.4a12 12 0 0 0 1.71-6.174V28c0-6.627-5.373-12-12-12z" clip-rule="evenodd"/></g></g></svg>