<svg xmlns="http://www.w3.org/2000/svg" fill="none" viewBox="0 0 320 320"><g id="hazard"><path id="lg-icon-fill-primary" fill="#42aeea" d="M178.455 40c2.728 0 4.656 2.672 3.796 5.26L154.78 128h62.117c3.483 0 5.302 4.142 2.945 6.706l-90.06 98.008c-1.431 1.556-3.983.118-3.393-1.912L139.76 168H84.594c-2.69 0-4.613-2.603-3.823-5.175l36.859-120A4 4 0 0 1 121.454 40z"/><path id="Outlines" fill="#1d1d1b" d="M212 16a4 4 0 0 1 3.795 5.265L188.217 104H272a3.999 3.999 0 0 1 2.94 6.713l-192 208a4.001 4.001 0 0 1-6.774-3.854L112.714 192H52a4 4 0 0 1-3.822-5.18l51.833-168 .109-.307A4 4 0 0 1 103.833 16zM57.42 184h60.657a4 4 0 0 1 3.834 5.141L88.746 300.627 262.864 112h-80.197a4 4 0 0 1-3.795-5.265L206.45 24h-99.665z"/></g></svg>