<svg xmlns="http://www.w3.org/2000/svg" fill="none" viewBox="0 0 320 320"><g id="hierarchy"><path id="lg-icon-fill-primary" fill="#42aeea" d="M160 76c13.255 0 24-10.745 24-24s-10.745-24-24-24-24 10.745-24 24 10.745 24 24 24m56 108c13.255 0 24-10.745 24-24s-10.745-24-24-24-24 10.745-24 24 10.745 24 24 24M76 268c0 13.255-10.745 24-24 24s-24-10.745-24-24 10.745-24 24-24 24 10.745 24 24m84 24c13.255 0 24-10.745 24-24s-10.745-24-24-24-24 10.745-24 24 10.745 24 24 24m108 0c13.255 0 24-10.745 24-24s-10.745-24-24-24-24 10.745-24 24 10.745 24 24 24M128 160c0 13.255-10.745 24-24 24s-24-10.745-24-24 10.745-24 24-24 24 10.745 24 24"/><path id="Outlines" fill="#1d1d1b" fill-rule="evenodd" d="M132 52c0-15.464 12.536-28 28-28s28 12.536 28 28c0 14.106-10.431 25.775-24 27.716V156h24.284c1.94-13.569 13.61-24 27.716-24 15.464 0 28 12.536 28 28 0 14.106-10.431 25.776-24 27.716V264h20.284c1.94-13.569 13.61-24 27.716-24 15.464 0 28 12.536 28 28s-12.536 28-28 28c-14.106 0-25.776-10.431-27.716-24h-52.568c-1.94 13.569-13.61 24-27.716 24s-25.776-10.431-27.716-24H79.716c-1.94 13.569-13.61 24-27.716 24-15.464 0-28-12.536-28-28s12.536-28 28-28c14.106 0 25.775 10.431 27.716 24H100v-76.284c-13.57-1.94-24-13.61-24-27.716 0-15.464 12.536-28 28-28 14.106 0 25.776 10.431 27.716 24H156V79.716c-13.569-1.94-24-13.61-24-27.716m28-20c-11.046 0-20 8.954-20 20s8.954 20 20 20 20-8.954 20-20-8.954-20-20-20m-28.284 132c-1.754 12.263-11.453 21.962-23.716 23.716V264h24.284c1.94-13.569 13.61-24 27.716-24s25.776 10.431 27.716 24H212v-76.284c-12.263-1.754-21.962-11.453-23.716-23.716zM216 140c-11.046 0-20 8.954-20 20s8.954 20 20 20 20-8.954 20-20-8.954-20-20-20M32 268c0-11.046 8.954-20 20-20s20 8.954 20 20-8.954 20-20 20-20-8.954-20-20m128-20c-11.046 0-20 8.954-20 20s8.954 20 20 20 20-8.954 20-20-8.954-20-20-20m108 0c-11.046 0-20 8.954-20 20s8.954 20 20 20 20-8.954 20-20-8.954-20-20-20M84 160c0-11.046 8.954-20 20-20s20 8.954 20 20-8.954 20-20 20-20-8.954-20-20" clip-rule="evenodd"/></g></svg>