<svg xmlns="http://www.w3.org/2000/svg" fill="none" viewBox="0 0 320 320"><g id="home" fill-rule="evenodd" clip-rule="evenodd"><path id="lg-icon-fill-primary" fill="#42aeea" d="M160 180c16.518.139 40 15.878 40 34v74h-80v-74l.004-.517C120.28 197.153 143.604 180 160 180m0 48a8 8 0 1 0 0 16 8 8 0 0 0 0-16m0-198.657L275 145c1.562 1.562 3 6-2 10q-5 4-7.828.828L160 52.657 54.828 155.828C53.318 157.338 48 157 46 154q-2-3 0-10zM52 28c17.673 0 32 14.327 32 32S69.673 92 52 92 20 77.673 20 60s14.327-32 32-32"/><path id="Outlines" fill="#1d1d1b" d="m160 24 36 36V40.97h8v-12a4 4 0 0 1 8 0v12h8V84l56.485 56.485c4.608 4.608 4.685 12.032.231 16.734l-.231.237c-4.513 4.514-11.761 4.698-16.497.448l-.159-.147-.314-.301-7.515-7.515v138.03h40a4 4 0 1 1 0 8l-88-.001v.03h-88v-.03l-88 .001a4 4 0 0 1 0-8h40V149.94l-7.515 7.516c-4.436 4.436-11.512 4.69-16.25.664l-.247-.216-.16-.147-.313-.301c-4.514-4.514-4.698-11.762-.449-16.498l.147-.159.302-.314zm0 33.94-84 84v146.031l40-.001V220c0-24.301 19.699-44 44-44s44 19.699 44 44v67.97l40 .001v-146.03zM160 184c-19.683 0-35.677 15.797-35.995 35.405L124 220v67.97h72V220c0-19.683-15.797-35.677-35.405-35.995zm0 40c6.627 0 12 5.373 12 12s-5.373 12-12 12-12-5.373-12-12 5.373-12 12-12m0 8a4 4 0 1 0 0 8 4 4 0 0 0 0-8m0-136c19.882 0 36 16.118 36 36s-16.118 36-36 36-36-16.118-36-36 16.118-36 36-36m-4 40h-23.716c1.754 12.263 11.454 21.963 23.717 23.717zm31.716 0H164v23.716c12.263-1.754 21.962-11.453 23.716-23.716M160 35.314 49.172 146.142l-.151.16a4 4 0 0 0 .15 5.497l.16.151a4 4 0 0 0 5.497-.151L160 46.628l105.172 105.171.159.151a4 4 0 0 0 5.497-5.808zm-3.999 68.969c-12.264 1.754-21.964 11.454-23.718 23.718L156 128zm7.999.001v23.715l23.716.001c-1.754-12.263-11.453-21.962-23.716-23.716M52 24c19.882 0 36 16.118 36 36S71.882 96 52 96 16 79.882 16 60s16.118-36 36-36m0 8c-15.464 0-28 12.536-28 28s12.536 28 28 28 28-12.536 28-28-12.536-28-28-28m160 16.97h-8v18.688l8 8z"/></g></svg>