<svg xmlns="http://www.w3.org/2000/svg" fill="none" viewBox="0 0 320 320"><g id="increase"><path id="lg-icon-fill-primary" fill="#42aeea" d="M220 32a4 4 0 0 1 4-4h64a4 4 0 0 1 4 4v256a4 4 0 0 1-4 4h-64a4 4 0 0 1-4-4zm-96 64a4 4 0 0 1 4-4h64a4 4 0 0 1 4 4v192a4 4 0 0 1-4 4h-64a4 4 0 0 1-4-4zm-92 60a4 4 0 0 0-4 4v128a4 4 0 0 0 4 4h64a4 4 0 0 0 4-4V160a4 4 0 0 0-4-4z"/><path id="Outlines" fill="#1d1d1b" fill-rule="evenodd" d="M216 288V28a4 4 0 0 1 4-4h72a4 4 0 0 1 4 4v260h12a4 4 0 0 1 0 8H12a4 4 0 0 1 0-8h12V156a4 4 0 0 1 4-4h72a4 4 0 0 1 4 4v132h16V92a4 4 0 0 1 4-4h72a4 4 0 0 1 4 4v196zm72 0h-64V32h64zm-192 0V160H32v128zm32-192v192h64V96z" clip-rule="evenodd"/></g></svg>