<svg xmlns="http://www.w3.org/2000/svg" fill="none" viewBox="0 0 320 320"><g id="information"><path id="lg-icon-fill-primary" fill="#42aeea" d="M280 160c0 66.274-53.726 120-120 120S40 226.274 40 160 93.726 40 160 40s120 53.726 120 120"/><g id="Outlines" fill="#1d1d1b"><path fill-rule="evenodd" d="M144 96c0-8.837 7.163-16 16-16s16 7.163 16 16-7.163 16-16 16-16-7.163-16-16m16-7.6c-4 0-7.6 3.6-7.6 7.6s3.6 7.6 7.6 7.6 7.6-3.6 7.6-7.6-3.6-7.6-7.6-7.6" clip-rule="evenodd"/><path d="M192 132a4 4 0 0 1-4 4h-24v96h24a4 4 0 0 1 0 8h-56a4 4 0 0 1 0-8h24v-96h-24a4 4 0 0 1 0-8h56a4 4 0 0 1 4 4"/><path fill-rule="evenodd" d="M304 160c0 79.529-64.471 144-144 144S16 239.529 16 160 80.471 16 160 16s144 64.471 144 144m-8 0c0 75.111-60.889 136-136 136S24 235.111 24 160 84.89 24 160 24c75.111 0 136 60.89 136 136" clip-rule="evenodd"/></g></g></svg>