<svg xmlns="http://www.w3.org/2000/svg" fill="none" viewBox="0 0 320 320"><g id="infrastructure-cloud" fill-rule="evenodd" clip-rule="evenodd"><path id="lg-icon-fill-primary" fill="#42aeea" d="M159.9 12c41.424 0 76.231 28.364 86.1 66.75-.004.005-.211.29-.605.82 12.211 1.701 23.988 7.223 33.379 16.564 22.967 22.845 22.967 59.887 0 82.732C267.291 190.289 252.24 196 237.189 196H71.784c-12.229 0-24.459-4.641-33.789-13.922-18.66-18.562-18.66-48.657 0-67.219 9.131-9.082 21.039-13.719 33.005-13.913C71.029 51.818 110.82 12 159.9 12M136 132c-6.627 0-12 5.373-12 12s5.373 12 12 12 12-5.373 12-12-5.373-12-12-12m48 0c-6.627 0-12 5.373-12 12s5.373 12 12 12 12-5.373 12-12-5.373-12-12-12m-24-32c-6.627 0-12 5.373-12 12s5.373 12 12 12 12-5.373 12-12-5.373-12-12-12"/><path id="Outlines" fill="#1d1d1b" d="M159.9 8c42.735 0 78.716 28.882 89.558 68.198a62.6 62.6 0 0 1 32.138 17.1c24.538 24.41 24.538 63.994 0 88.403-12.074 12.01-27.843 18.106-43.654 18.294l-.753.005H192v64c0 6.627 5.372 12 12 12h56a4 4 0 0 1 0 8h-56c-11.046 0-20-8.954-20-20v-64h-20v64c0 22.091 17.909 40 40 40h56a4 4 0 0 1 0 8h-56c-26.51 0-48-21.49-48-48v-64h-20v64c0 11.046-8.954 20-20 20H60a4 4 0 0 1 0-8h56c6.627 0 12-5.373 12-12v-64H71.784c-13.24 0-26.497-5.027-36.61-15.086-20.232-20.126-20.232-52.765 0-72.891 8.913-8.865 20.265-13.821 31.905-14.872C69.095 47.578 109.877 8 159.9 8m0 8c-45.561 0-82.745 35.933-84.808 81.045 12.126.768 24.032 5.759 33.3 14.978a4 4 0 1 1-5.641 5.672c-8.573-8.527-19.818-12.779-31.056-12.757a4 4 0 0 1-1.255.022c-10.756.326-21.415 4.57-29.624 12.735-17.088 16.999-17.088 44.549 0 61.547C49.365 187.745 60.566 192 71.784 192H128v-32.505c-6.901-1.776-12-8.04-12-15.495 0-8.837 7.163-16 16-16s16 7.163 16 16c0 7.455-5.099 13.719-12 15.495V192h20v-64.505c-6.901-1.776-12-8.04-12-15.495 0-8.837 7.163-16 16-16s16 7.163 16 16c0 7.455-5.099 13.719-12 15.495V192h20v-32.505c-6.901-1.776-12-8.04-12-15.495 0-8.837 7.163-16 16-16s16 7.163 16 16c0 7.455-5.099 13.719-12 15.495V192h45.189c14.04 0 28.063-5.325 38.765-15.97 21.395-21.282 21.395-55.778 0-77.06-21.407-21.294-56.123-21.293-77.529 0a4 4 0 0 1-5.658-.015 4 4 0 0 1 .015-5.656c13.18-13.11 30.757-19.177 48.006-18.197C229.847 40.818 197.762 16 159.9 16M132 136a8 8 0 1 0 0 16 8 8 0 0 0 0-16m56 0a8 8 0 1 0 0 16 8 8 0 0 0 0-16m-28-32a8 8 0 1 0 0 16 8 8 0 0 0 0-16"/></g></svg>