<svg xmlns="http://www.w3.org/2000/svg" fill="none" viewBox="0 0 320 320"><g id="instant-photo"><path id="lg-icon-fill-primary" fill="#42aeea" d="M60 36h200v200H60z"/><g id="Outlines" fill="#1d1d1b"><path d="M280 20a4 4 0 0 0-4-4H45a4 4 0 0 0-4 4v280a4 4 0 0 0 4 4h231a4 4 0 0 0 4-4zm8 280c0 6.627-5.373 12-12 12H45c-6.627 0-12-5.373-12-12V20c0-6.627 5.373-12 12-12h231c6.627 0 12 5.373 12 12z"/><path d="M260 32a4 4 0 0 1 4 4v200a4 4 0 0 1-4 4H60a4 4 0 0 1-4-4V36a4 4 0 0 1 4-4zM64 232h192V40H64z"/><path d="M111.959 152c16.682 0 21.57 0 31.673 1.228 10.252 1.245 18.172 3.805 24.623 9.314a44 44 0 0 1 4.883 4.882c2.312 2.707 4.101 5.674 5.495 8.963 8.152-.386 17.742-.387 29.087-.387h.559c16.682 0 29.57 0 39.673 1.228 4.601.558 8.531 1.383 12.048 2.62v8.621c-3.38-1.576-7.451-2.624-13.013-3.3-9.565-1.162-21.968-1.169-38.988-1.169s-29.422.007-38.987 1.169c-9.472 1.15-15.623 3.382-20.393 7.456a36 36 0 0 0-3.994 3.995c-4.074 4.77-6.306 10.92-7.457 20.392-.649 5.341-.937 11.567-1.065 18.988h-7.999c.132-7.666.435-14.29 1.123-19.952 1.245-10.253 3.804-18.173 9.314-24.624a44 44 0 0 1 4.883-4.882c6.451-5.509 14.37-8.069 24.623-9.314q.99-.121 2.015-.226a25.4 25.4 0 0 0-3.008-4.382 36 36 0 0 0-3.994-3.995c-4.771-4.074-10.921-6.306-20.393-7.456-9.565-1.162-5.968-1.169-30.987-1.169-17.02 0-21.424.007-30.989 1.169-9.471 1.15-14.622 3.382-19.392 7.456L60 167.104v-7.491c5.416-3.539 11.497-5.386 19.727-6.385C89.829 152 94.717 152 111.399 152z"/><path fill-rule="evenodd" d="M207.999 88c22.091 0 40 17.909 40 40s-17.909 40-40 40-40-17.909-40-40 17.909-40 40-40m0 8c-17.673 0-32 14.327-32 32s14.327 32 32 32 32-14.327 32-32-14.327-32-32-32M111.68 64c22.091 0 40 17.909 40 40s-17.909 40-40 40-40-17.909-40-40 17.908-40 40-40m0 8c-17.673 0-32 14.327-32 32s14.327 32 32 32 32-14.327 32-32-14.327-32-32-32" clip-rule="evenodd"/></g></g></svg>