<svg xmlns="http://www.w3.org/2000/svg" fill="none" viewBox="0 0 320 320"><g id="instruction-confirm"><path id="lg-icon-fill-primary" fill="#42aeea" d="M120 100c15.464 0 28-12.536 28-28s-12.536-28-28-28-28 12.536-28 28 12.536 28 28 28m80 88c15.464 0 28-12.536 28-28s-12.536-28-28-28-28 12.536-28 28 12.536 28 28 28"/><g id="Outlines" fill="#1d1d1b"><path fill-rule="evenodd" d="M151.752 68C149.784 52.215 136.318 40 120 40c-17.673 0-32 14.327-32 32s14.327 32 32 32c16.318 0 29.784-12.215 31.752-28h66.591l-21.171 21.172a4 4 0 0 0 0 5.656 3.997 3.997 0 0 0 5.656 0l28-28a4 4 0 0 0 0-5.656l-28-28a4 4 0 0 0-5.656 0 4 4 0 0 0 0 5.656L218.343 68zM96 72c0-13.255 10.745-24 24-24s24 10.745 24 24-10.745 24-24 24-24-10.745-24-24m104 56c-16.318 0-29.784 12.215-31.752 28h-66.591l21.171-21.172a3.997 3.997 0 0 0 0-5.656 3.997 3.997 0 0 0-5.656 0l-28 28a4 4 0 0 0 0 5.656l28 28a3.997 3.997 0 0 0 5.656 0 3.997 3.997 0 0 0 0-5.656L101.657 164h66.591c1.968 15.785 15.434 28 31.752 28 17.673 0 32-14.327 32-32s-14.327-32-32-32m0 8c13.255 0 24 10.745 24 24s-10.745 24-24 24-24-10.745-24-24 10.745-24 24-24" clip-rule="evenodd"/><path d="M236.162 258.194a3.964 3.964 0 0 1 5.609 0l11.218 11.225 25.24-25.257a3.966 3.966 0 0 1 5.609 0 3.97 3.97 0 0 1 0 5.613l-28.045 28.063a3.966 3.966 0 0 1-5.609 0l-14.022-14.032a3.97 3.97 0 0 1 0-5.612"/><path fill-rule="evenodd" d="M56 8h209.873v200.328C291.827 211.245 312 233.267 312 260c0 28.719-23.281 52-52 52-27.373 0-49.806-21.15-51.848-48h-73.76L96.36 302.871V264H56zm152.152 248c1.987-26.127 23.282-46.857 49.649-47.954V16H64.072v240h40.36v27.129L130.976 256zM260 304c24.301 0 44-19.699 44-44s-19.699-44-44-44-44 19.699-44 44 19.699 44 44 44" clip-rule="evenodd"/></g></g></svg>