<svg xmlns="http://www.w3.org/2000/svg" fill="none" viewBox="0 0 320 320"><g id="investment-choices"><path id="lg-icon-fill-primary" fill="#42aeea" d="M52 220c8.837 0 16 7.163 16 16s-7.163 16-16 16-16-7.163-16-16 7.163-16 16-16m108-72c8.837 0 16 7.163 16 16s-7.163 16-16 16-16-7.163-16-16 7.163-16 16-16m-52-40c8.837 0 16 7.163 16 16s-7.163 16-16 16-16-7.163-16-16 7.163-16 16-16m160-40c8.837 0 16 7.163 16 16s-7.163 16-16 16-16-7.163-16-16 7.163-16 16-16m-56-40c8.837 0 16 7.163 16 16s-7.163 16-16 16-16-7.163-16-16 7.163-16 16-16"/><g id="Outlines" fill="#1d1d1b"><path d="M292 288a4 4 0 0 1 0 8H28a4 4 0 0 1 0-8z"/><path fill-rule="evenodd" d="M212 24c11.046 0 20 8.954 20 20 0 2.898-.618 5.65-1.727 8.137l24.107 17.219A19.93 19.93 0 0 1 268 64c11.046 0 20 8.954 20 20s-8.954 20-20 20-20-8.954-20-20c0-2.897.616-5.651 1.725-8.137l-24.106-17.218A19.93 19.93 0 0 1 212 64c-1.414 0-2.793-.148-4.124-.427l-36.415 84.035c5.163 3.617 8.539 9.61 8.539 16.392 0 11.046-8.954 20-20 20s-20-8.954-20-20c0-3.15.729-6.13 2.026-8.78l-20.933-16.102A19.92 19.92 0 0 1 108 144c-1.795 0-3.534-.238-5.188-.682l-38.471 76.943C69.004 223.922 72 229.611 72 236c0 11.046-8.954 20-20 20s-20-8.954-20-20 8.954-20 20-20c1.794 0 3.533.238 5.188.681l38.47-76.943C90.996 136.077 88 130.388 88 124c0-11.046 8.954-20 20-20s20 8.954 20 20c0 3.15-.73 6.129-2.027 8.779l20.932 16.102A19.93 19.93 0 0 1 160 144c1.412 0 2.79.147 4.12.426l36.416-84.036C195.375 56.773 192 50.78 192 44c0-11.046 8.954-20 20-20M52 224c-6.627 0-12 5.373-12 12s5.373 12 12 12 12-5.373 12-12-5.373-12-12-12m108-72c-6.627 0-12 5.373-12 12s5.373 12 12 12 12-5.373 12-12-5.373-12-12-12m-52-40c-6.627 0-12 5.373-12 12s5.373 12 12 12 12-5.373 12-12-5.373-12-12-12m160-40c-6.627 0-12 5.373-12 12s5.373 12 12 12 12-5.373 12-12-5.373-12-12-12m-56-40c-6.627 0-12 5.373-12 12s5.373 12 12 12 12-5.373 12-12-5.373-12-12-12" clip-rule="evenodd"/></g></g></svg>