<svg xmlns="http://www.w3.org/2000/svg" fill="none" viewBox="0 0 320 320"><g id="investment-goal"><path id="lg-icon-fill-primary" fill="#42aeea" d="M276 28h-80l28 28-28 28h80zm-52 96a4 4 0 0 0-4 4v160a4 4 0 0 0 4 4h64a4 4 0 0 0 4-4V128a4 4 0 0 0-4-4zm-96 32a4 4 0 0 0-4 4v128a4 4 0 0 0 4 4h64a4 4 0 0 0 4-4V160a4 4 0 0 0-4-4zM28 192a4 4 0 0 1 4-4h64a4 4 0 0 1 4 4v96a4 4 0 0 1-4 4H32a4 4 0 0 1-4-4z"/><path id="Outlines" fill="#1d1d1b" fill-rule="evenodd" d="M256 8a4 4 0 0 1 4 4v12h20v39.354a75 75 0 0 1 10.493 1.517 68 68 0 0 1 8.079 2.274c.96.339 1.713.634 2.238.85a30 30 0 0 1 .791.339l.053.024.019.008.007.004h.002c.002.001.003.002-1.661 3.584l1.664-3.582a4 4 0 0 1-3.362 7.26l-.004-.002-.002-.001-.002-.001-.007-.003-.095-.042a21 21 0 0 0-.445-.19 40 40 0 0 0-1.859-.704 60 60 0 0 0-7.12-2.002 67 67 0 0 0-8.789-1.31V88h-20v32h32a4 4 0 0 1 4 4v164h12a4 4 0 0 1 0 8H12a4 4 0 0 1 0-8h12V188a4 4 0 0 1 4-4h72a4 4 0 0 1 4 4v100h16V156a4 4 0 0 1 4-4h72a4 4 0 0 1 4 4v132h16V124a4 4 0 0 1 4-4h32V88h-21.777c-4.662 3.516-9.229 7.375-13.868 11.366l-2.317 1.998c-14.037 12.113-29.01 25.035-48.983 30.495-20.32 5.554-36.674 1.083-51.678-3.019l-2.023-.552c-15.6-4.241-29.953-7.625-47.889-.566-9.107 3.585-19.26 10.32-27.286 16.322a234 234 0 0 0-9.758 7.716 193 193 0 0 0-3.512 3.006l-.14.124-.042.038-.044.039-.01.009-.001.001a4 4 0 0 1-5.344-5.954L20 152c-2.672-2.977-2.671-2.977-2.67-2.977v-.002l.005-.004.07-.063a133 133 0 0 1 .987-.866c.677-.588 1.661-1.433 2.9-2.468a243 243 0 0 1 10.096-7.983c8.164-6.105 19.012-13.37 29.147-17.359 20.55-8.088 37.158-3.994 52.918.29l1.673.456c15.183 4.141 29.645 8.086 47.819 3.118 18.175-4.969 31.879-16.78 46.231-29.15l.019-.016 1.942-1.674A509 509 0 0 1 217.38 88h-31.037l32-32-32-32H252V12a4 4 0 0 1 4-4m-32 280V128h64v160zm-128 0v-96H32v96zm32-128v128h64V160zM229.656 56l-24-24H272v48h-66.344z" clip-rule="evenodd"/></g></svg>