<svg xmlns="http://www.w3.org/2000/svg" fill="none" viewBox="0 0 320 320"><g id="jigsaw" fill-rule="evenodd" clip-rule="evenodd"><path id="lg-icon-fill-primary" fill="#42aeea" d="M159.985 160c14.553.064 29.666.166 43.934 3.406 1.636.383 3.252.817 4.847 1.348 2.469.851 7.254 5.796 8.384 6.822 3.113 2.828-2.104 7.944-4.38 10.121-11.652 11.347-15.267 24.881-3.717 36.356 11.316 11.243 29.228 11.165 40.465 0 11.253-11.18 8.33-25.369-3-36.626-1.797-1.802-2.832-3.849-3.649-6.324-.464-1.405-.212-6.272 1.28-7.455 1.17-.926 6.824-1.779 8.977-2.548 2.763-.955 5.586-1.596 8.453-2.137 10.007-1.816 20.274-2.232 30.42-2.439L292 292H159.859c-.288-11.321-.815-22.809-3.12-33.927l-1.053-4.419c-1.293-4.726.122-4.264-1.755-6.714-3.229-4.216-6.565-5.592-11.113-4.147-3.861 1.226-6.919 4.027-9.74 6.815-8.136 7.896-25.028 7.751-33-.272-8.075-8.127-8.133-31.003 0-39.189 8.476-8.53 25.044-8.725 33.203-.074 2.664 2.824 5.504 5.648 9.037 7.349 4.463 2.15 8.94 1.603 12.406-2.17 2.323-2.53.197-2.645 1.636-8.552.449-1.905.831-3.819 1.168-5.747 2.28-13.482 2.436-27.319 2.457-40.953m.155-132c.301 11.309.818 22.776 3.12 33.883l1.053 4.419c1.294 4.725-1.122 4.264.756 6.714 3.229 4.216 7.564 5.592 12.113 4.147 3.861-1.226 6.919-4.027 9.74-6.815 8.136-7.896 25.028-6.751 33 1.272 8.075 8.127 8.133 30.003 0 38.189-8.476 8.53-25.044 8.725-33.203.074-2.665-2.824-5.505-5.648-9.037-7.349-4.464-2.15-8.94-1.603-12.406 2.17-2.323 2.53-.197 2.645-1.636 8.552a99 99 0 0 0-1.169 5.747c-2.28 13.482-2.435 27.319-2.457 40.953-14.553-.064-29.666-.166-43.934-3.406a55 55 0 0 1-4.846-1.348c-2.469-.851-8.255-5.796-9.384-6.822-3.113-2.828 3.103-7.944 5.379-10.121 11.652-11.347 15.267-24.881 3.718-36.356-11.316-11.243-31.228-11.165-42.466 0-11.252 11.18-7.33 25.369 4 36.626 1.798 1.802 3.832 3.849 4.65 6.324.463 1.405.212 6.272-1.28 7.455-1.17.926-6.824 1.779-8.977 2.548-2.764.955-5.587 1.596-8.454 2.137-10.005 1.816-20.275 2.238-30.421 2.438V28z"/><path id="Outlines" fill="#1d1d1b" d="M292.222 24A3.78 3.78 0 0 1 296 27.778v264.444a3.777 3.777 0 0 1-3.778 3.778H27.778A3.78 3.78 0 0 1 24 292.222V27.778A3.78 3.78 0 0 1 27.778 24zM74.12 103.578c-8.023 7.972-8.168 20.864-.272 29 2.802 2.836 5.604 5.905 6.88 9.767 1.508 4.567.236 8.949-3.91 12.234-2.967 2.35-7.574 4.236-14.006 5.659l-3.183.639c-3.266.594-6.556 1.012-9.856 1.365l-5.693.498-7.03.413-5.05.187V288h123.73l-.165-3.951-.348-5.919-.444-5.403-.325-3.118-.553-4.306-.498-3.128-.689-3.518c-.361-1.594-.754-3.179-1.252-4.736a42 42 0 0 0-.932-2.555q-.91-2.17-1.944-3.518c-1.183-1.545-2.013-1.808-3.341-1.387-2.434.773-4.447 2.8-6.21 4.558-11.257 11.329-29.446 11.252-40.626 0-11.165-11.238-11.243-31.15 0-42.466 11.475-11.549 29.009-11.935 40.356-.282 2.11 2.208 4.255 4.651 7.031 5.987 1.466.707 2.123.626 3.042-.374 1.138-1.238 1.819-2.817 2.423-4.366.456-1.216.816-2.461 1.15-3.715l.615-2.643.395-2.027.858-5.643.493-4.414.646-8.396.294-6.065.176-5.757.102-6.901-9.399-.228-6.856-.31-6.296-.424-3.654-.323c-3.825-.387-7.641-.851-11.425-1.537l-4.725-.991-2.35-.615c-4.957-1.403-8.513-3.143-10.809-5.228-3.814-3.466-4.457-7.941-2.384-12.42 1.65-3.564 4.485-6.43 7.297-9.1 8.651-8.159 8.456-20.727-.074-29.203-8.186-8.133-23.062-8.075-31.189 0m89.86 60.94-.11 7.067-.269 7.829-.312 5.592c-.245 3.527-.542 7.05-.974 10.56a132 132 0 0 1-.883 5.993l-.406 2.17c-1.509 7.545-3.602 12.627-6.302 15.567-3.466 3.773-7.942 4.32-12.406 2.17-3.531-1.701-6.372-4.541-9.037-7.349-8.159-8.651-20.727-8.456-29.203.074-8.133 8.186-8.075 23.062 0 31.189 7.972 8.024 20.864 8.168 29 .272 2.821-2.788 5.879-5.589 9.74-6.815 4.549-1.445 8.884-.069 12.113 4.147 2.241 2.925 4.065 7.399 5.474 13.592l.856 4.26c.392 2.212.703 4.436.987 6.664.372 3.03.646 6.069.883 9.112l.391 6.292.218 5.096H288V164.651l-5.521.215-5.8.343-4.656.383-5.134.567-3.022.423-4.21.741-2.005.432c-3.425.793-12.933 3.003-11.603 7.498.72 2.432 2.713 4.455 4.456 6.205 11.329 11.257 11.252 29.445 0 40.626-11.237 11.165-31.15 11.243-42.466 0-11.549-11.475-11.934-29.01-.282-40.356 1.929-1.849 4.172-3.916 5.022-6.531 2.323-7.147-21.789-9.266-25.927-9.661l-5.137-.403-5.61-.308-6.086-.208zM288 32H164.269l.167 3.95.347 5.92.444 5.403c.218 2.204.458 4.405.761 6.598.292 2.047.613 4.09 1.02 6.117a74 74 0 0 0 .784 3.461 51 51 0 0 0 1.209 3.967c.738 2.023 1.546 3.597 2.419 4.736 1.184 1.545 2.013 1.808 3.341 1.387 2.434-.773 4.447-2.8 6.211-4.558 11.256-11.329 29.445-11.252 40.625 0 11.165 11.238 11.243 31.15 0 42.466-11.475 11.549-29.009 11.935-40.356.282-2.108-2.211-4.248-4.647-7.03-5.987-1.467-.707-2.124-.626-3.043.374-3.442 3.747-4.301 10.736-5.07 15.707a147 147 0 0 0-.643 4.983c-.387 3.496-.651 7.004-.867 10.514l-.293 6.065-.195 6.614-.089 6.518 5.8.091 6.554.217 8.214.489 6.048.565c2.573.297 5.14.634 7.693 1.077 2.024.364 4.04.764 6.035 1.269 1.569.41 3.128.852 4.658 1.395l.759.277c2.858 1.078 5.126 2.317 6.838 3.718 3.985 3.263 5.232 7.577 3.777 12.055-1.227 3.774-3.963 6.846-6.784 9.536-8.65 8.159-8.456 20.727.075 29.202 8.186 8.134 23.061 8.075 31.188 0 8.024-7.971 8.168-20.864.273-28.999-2.813-2.846-5.601-5.966-6.761-9.887-1.356-4.581.098-8.925 4.353-12.162 2.983-2.27 7.515-4.107 13.756-5.509a115 115 0 0 1 6.616-1.226c2.797-.425 5.607-.742 8.423-1.019l5.849-.466 6.369-.343 4.256-.153zm-131.739 0H32v123.332l4.684-.175 5.832-.328 5.943-.491c3.334-.34 6.663-.746 9.961-1.345l2.319-.455 2.923-.695c2.834-.753 5.872-1.701 8.188-3.535 1.493-1.183 1.745-2.05 1.281-3.455-.817-2.475-2.852-4.522-4.65-6.324-11.329-11.257-11.252-29.446 0-40.626 11.238-11.165 31.15-11.243 42.466 0 11.549 11.475 11.935 29.009.282 40.356-.858.821-1.718 1.64-2.537 2.502-1.267 1.361-2.558 2.778-3.346 4.481-.676 1.46-.576 2.157.504 3.138 1.683 1.529 3.92 2.334 6.044 3.041 1.377.444 2.778.799 4.187 1.129 2.854.648 5.746 1.1 8.644 1.499l6.057.681 5.086.421 5.946.361 5.649.239 8.551.205c.026-3.115.074-6.23.163-9.344.156-4.879.365-9.755.753-14.622.245-2.946.528-5.889.917-8.82.191-1.392.39-2.782.624-4.167.338-1.928.72-3.842 1.169-5.747 1.439-5.907 3.313-10.022 5.636-12.552 3.466-3.773 7.942-4.32 12.406-2.17 3.532 1.701 6.373 4.525 9.037 7.349 8.159 8.651 20.727 8.456 29.203-.074 8.133-8.186 8.075-23.062 0-31.189-7.972-8.023-20.864-8.168-29-.272-2.821 2.788-5.879 5.59-9.74 6.815-4.549 1.445-8.884.07-12.113-4.147-1.877-2.45-3.462-5.989-4.756-10.714l-.486-1.889c-.949-3.922-1.566-7.913-2.075-11.913-.251-2.05-.455-4.106-.644-6.163-.419-4.77-.677-9.553-.847-14.337"/></g></svg>