<svg xmlns="http://www.w3.org/2000/svg" fill="none" viewBox="0 0 320 320"><g id="landfill-waste"><g id="lg-icon-fill-primary" fill="#42aeea"><path d="M184.276 64.519 64.501 96.612l-26.454 71.276 16.047 59.887 162.275-43.482z"/><path fill-rule="evenodd" d="M52.136 256c0 19.882 16.118 36 36 36s36-16.118 36-36c0 19.882 16.118 36 36 36s36-16.118 36-36-16.118-36-36-36-36 16.118-36 36c0-19.882-16.118-36-36-36s-36 16.118-36 36m24 0c0 6.628 5.372 12 12 12 6.627 0 12-5.372 12-12 0-6.627-5.373-12-12-12-6.628 0-12 5.373-12 12m84 12c-6.628 0-12-5.372-12-12 0-6.627 5.372-12 12-12 6.627 0 12 5.373 12 12 0 6.628-5.373 12-12 12m60-12c0 19.882 16.118 36 36 36s36-16.118 36-36-16.118-36-36-36-36 16.118-36 36m24 0c0 6.628 5.372 12 12 12 6.627 0 12-5.372 12-12 0-6.627-5.373-12-12-12-6.628 0-12 5.373-12 12" clip-rule="evenodd"/><path d="M306.181 131.835a2 2 0 0 1 1.819 1.991v58.669c0 1.549-1.684 2.51-3.017 1.722l-84-49.636a2 2 0 0 1-.983-1.722V126.19a2 2 0 0 1 2.181-1.992z"/></g><g id="Outlines" fill="#1d1d1b"><path d="M69.613 16.366a4 4 0 0 0-2.07 7.728c12.802 3.43 20.4 16.59 16.97 29.394a4 4 0 0 0 7.727 2.07c3.43-12.803 16.591-20.401 29.394-16.97a4 4 0 0 0 2.071-7.728c-11.638-3.118-23.497.598-31.316 8.687-2.727-10.915-11.139-20.062-22.776-23.18M16.288 74.876a4 4 0 0 1 1.464-5.464c7.23-4.174 15.728-4.16 22.685-.709.49-7.75 4.727-15.117 11.956-19.29a4 4 0 1 1 4 6.927c-7.653 4.418-10.275 14.204-5.856 21.857a4 4 0 1 1-6.928 4c-4.419-7.653-14.204-10.275-21.857-5.857a4 4 0 0 1-5.464-1.464"/><path fill-rule="evenodd" d="M104.136 256c0-8.837-7.164-16-16-16s-16 7.163-16 16 7.163 16 16 16 16-7.164 16-16m-16-8a8 8 0 1 1 0 16 8 8 0 0 1 0-16m88 8c0-8.837-7.164-16-16-16s-16 7.163-16 16 7.163 16 16 16 16-7.164 16-16m-16-8a8 8 0 1 1 0 16 8 8 0 0 1 0-16m112 8c0-8.837-7.164-16-16-16s-16 7.163-16 16 7.163 16 16 16 16-7.164 16-16m-16-8a8 8 0 1 1 0 16 8 8 0 0 1 0-16" clip-rule="evenodd"/><path fill-rule="evenodd" d="M63.465 92.748a4 4 0 0 0-2.715 2.472l-26.454 71.276a4 4 0 0 0-.114 2.427l5.231 19.523C30.033 195.766 24 207.179 24 220v13.167a36 36 0 0 0-3.983 4.183A35.85 35.85 0 0 0 12 260v1.167C4.664 267.733.036 277.263 0 287.875V292h70.68a39.8 39.8 0 0 0 17.456 4c15.833 0 29.517-9.199 36-22.544 6.483 13.345 20.167 22.544 36 22.544 20.741 0 37.795-15.787 39.802-36h16.395c2.007 20.213 19.061 36 39.803 36s37.795-15.787 39.802-36h10.198a6 6 0 0 0 6-6V109.827a6 6 0 0 0-5.457-5.976l-84-7.636a6 6 0 0 0-6.543 5.975v22.723a6 6 0 0 0-.136 1.277v16.669c0 .431.046.857.136 1.269v23.843L188.138 63.483a4 4 0 0 0-4.899-2.828zm152.671 95.749-21.962 5.884L199.966 216h16.17zm-52.872 14.167L113.492 216h53.345zM56.745 231.205l-1.617.434a4 4 0 0 1-4.899-2.829l-8.514-31.775C35.723 202.851 32 210.991 32 220v7.744a35.7 35.7 0 0 1 7.003-2.609l1.994 7.747a27.9 27.9 0 0 0-10.384 5.168l-.111.089a28 28 0 0 0-2.62 2.385 27.93 27.93 0 0 0-7.534 15.047A35.9 35.9 0 0 1 36 252a4 4 0 0 1 0 8c-14.106 0-25.775 10.431-27.716 24H59.57c-7.073-7.215-11.434-17.098-11.434-28a39.83 39.83 0 0 1 8.61-24.795M42.24 168.084l25.29-68.143 113.916-30.523 30.023 112.047-30.909 8.282-14.494-54.092a4 4 0 1 0-7.728 2.071l14.494 54.092-34.773 9.317-14.494-54.092a4 4 0 1 0-7.727 2.071l14.493 54.092-34.773 9.317-14.494-54.092a4 4 0 1 0-7.727 2.071l14.494 54.092-30.91 8.282zm181.896-63.704 80 7.273v15.979l-80-7.273zm78.812 93.281q.583.343 1.188.542V252h-8.198c-2.006-20.213-19.061-36-39.802-36-13.085 0-24.702 6.283-32 15.996V151.09zM175.12 216h16.564l-5.227-19.508-15.455 4.141zm24.818 36c-1.135-11.436-7.087-21.455-15.798-28h31.996v28zM304 188.99l-79.864-47.192v-13.406L304 135.653zM56.136 256c0-17.673 14.327-32 32-32s32 14.327 32 32-14.327 32-32 32-32-14.327-32-32m56.004-32h23.992a40.16 40.16 0 0 0-11.996 14.543A40.2 40.2 0 0 0 112.14 224m15.996 32c0-17.673 14.327-32 32-32s32 14.327 32 32-14.327 32-32 32-32-14.327-32-32m160 0c0-17.673-14.327-32-32-32s-32 14.327-32 32 14.327 32 32 32 32-14.327 32-32" clip-rule="evenodd"/></g></g></svg>