<svg xmlns="http://www.w3.org/2000/svg" fill="none" viewBox="0 0 320 320"><g id="launch"><path id="lg-icon-fill-primary" fill="#42aeea" fill-rule="evenodd" d="M185.527 201.288c6.299 15.964-49.296 84.31-60.916 95.736-11.913 11.714-1.508-45.96-12.72-59.123l-.345-.383 1.105-.411c27.855-10.434 51.936-22.583 72.876-35.819m-67.561-67.349c-10.644 16.845-20.576 35.739-29.492 57.066l12.982 13.147c23.337-24.709 49.283-47.371 55.187-41.453 5.911 5.922-16.805 31.917-41.542 55.271L127.97 231l-16.5 6.5-8.388-8.527c-20.097 17.83-38.689 31.485-41.439 28.725-2.754-2.764 10.954-21.416 28.828-41.55L81.97 207.5l-.125.335-.337-.288c-13.49-10.975-70.61-.713-58.948-12.574 11.349-11.541 78.853-66.466 95.406-61.034m-29.604 57.335a440 440 0 0 0-5.724 14.439l-.668 1.787zM161.97 78.5l80 79-13 10.5-77.5-77zm90.53-11.2c9.372 9.373 9.372 24.569 0 33.942-9.373 9.372-24.569 9.372-33.941 0s-9.373-24.569 0-33.942c9.372-9.372 24.568-9.372 33.941 0M298.97 20l-7.5 50.5-42.5-41.5z" clip-rule="evenodd"/><g id="Outlines" fill="#1d1d1b"><path d="m20.088 299.915.012 3.999-4.024.011.013-4.022zM235.526 72.671c6.628 0 12 5.373 12 12s-5.373 12-12 12a4 4 0 0 1-.2-7.995l.2-.005a4 4 0 0 0 .2-7.995l-.2-.005a4 4 0 0 1 0-8"/><path fill-rule="evenodd" d="M235.526 56.671c15.464 0 28 12.537 28 28 0 15.464-12.536 28-28 28-15.463 0-27.999-12.536-28-28 0-15.464 12.536-28 28-28m0 8c-11.045 0-20 8.955-20 20 .001 11.046 8.955 20 20 20s20-8.954 20-20-8.954-20-20-20" clip-rule="evenodd"/><path fill-rule="evenodd" d="M299.576 16.035c2.605-.341 4.826 1.88 4.486 4.485l-.46 3.462-.311 2.268c-4.25 30.774-9.202 52.605-16.743 71.877-8.863 22.65-21.505 41.78-40.193 60.467-16.709 16.71-35.39 31.834-56.327 45.295.64 9.659-8.134 26.127-23.826 48.406l-1.096 1.549a491 491 0 0 1-8.273 11.287l-.858 1.137-.899 1.183c-10.495 13.779-21.472 26.938-27.155 32.649l-.449.447c-3.018 2.968-6.578 3.862-9.474 1.11-1.75-1.664-2.572-4.188-3.102-7.975l-.099-.758c-.27-2.196-.444-4.821-.568-8.215l-.055-1.685-.305-13.45-.047-1.529a236 236 0 0 0-.202-4.853l-.063-1.155-.075-1.18c-.618-9.316-1.918-15.667-3.964-18.855a3.9 3.9 0 0 1-1.19-.818l-.557-.558a77 77 0 0 1-1.804 7.812c-2.745 9.573-8.274 21.956-19.41 33.092-11.396 11.395-28.268 16.895-41.769 19.608a149 149 0 0 1-17.406 2.414c-2.22.176-4.022.266-5.277.313a90 90 0 0 1-1.457.042l-.394.007-.108.001-.03-.001h-.01l-.004.001-.014-4-4-.014v-.152l.008-.395c.006-.339.018-.831.042-1.457.046-1.254.137-3.056.312-5.276a149 149 0 0 1 2.414-17.407c2.713-13.501 8.213-30.372 19.609-41.768 11.136-11.136 23.519-16.666 33.092-19.41a77 77 0 0 1 7.809-1.806l-.462-.462a4 4 0 0 1-.767-1.074c-3.32-2.038-9.81-3.312-19.288-3.903l-.583-.036c-1.903-.111-3.91-.199-6.158-.271l-4.218-.11-9.713-.212-2.583-.079-1.726-.071c-2.949-.134-5.27-.321-7.246-.597-3.787-.53-6.311-1.352-7.975-3.102-2.752-2.896-1.858-6.455 1.109-9.473l.448-.45c5.562-5.535 18.227-16.123 31.63-26.378l1.185-.903 1.7-1.289q1.14-.861 2.28-1.714l1.141-.851a480 480 0 0 1 7.9-5.752l1.531-1.085c22.174-15.657 38.702-24.532 48.448-24.157 13.469-20.969 28.634-39.679 45.475-56.52 18.687-18.687 37.816-31.33 60.466-40.193 20.447-8 43.776-13.088 77.608-17.513M84.31 219.587c-2.57.298-6.238.904-10.541 2.138-8.612 2.469-19.687 7.425-29.64 17.377-9.692 9.693-14.8 24.642-17.421 37.689a141 141 0 0 0-2.283 16.46c-.072.914-.128 1.75-.172 2.498.748-.045 1.584-.099 2.498-.171a141 141 0 0 0 16.46-2.284c13.047-2.621 27.997-7.729 37.69-17.421 9.951-9.952 14.907-21.028 17.376-29.639a66.5 66.5 0 0 0 2.103-10.265c-21.703 18.384-41.645 31.911-44.855 28.702-3.22-3.221 10.42-23.3 28.908-45.097zm97.145-10.355c-19.358 11.689-40.569 22.029-63.841 30.963l.118.265c1.994 4.513 3.087 10.747 3.674 19.009l.096 1.437.077 1.307.077 1.485c.073 1.507.133 3.093.186 4.811l.084 3.287c.071 3.234.192 9.238.244 10.991l.071 2.087.045 1.084c.111 2.457.256 4.411.455 6.02l.078.597q.051.363.106.695l.074.424.233-.242c5.231-5.459 14.312-16.347 23.354-28.076l1.768-2.304.847-1.113 1.686-2.23.837-1.117a475 475 0 0 0 6.859-9.399l1.339-1.897c11.456-16.333 19.099-29.875 21.453-37.809zm-29.472-41.136c-3.064 1.32-7.075 3.806-11.771 7.341-10.096 7.601-22.772 19.581-35.816 33.669-11.612 12.541-22.714 25.905-30.67 36.861l-1.288 1.79.313-.22c10.974-7.839 24.621-19.094 37.483-30.945l.857-.791c14.088-13.045 26.068-25.72 33.669-35.816 3.535-4.696 6.022-8.707 7.342-11.771l.086-.205zm-38.106 56.009a496 496 0 0 1-5.963 5.352l4.25 4.25.668-.25 1.73-.661q2.898-1.11 5.753-2.252zm36.932-127.118c-10.054 11.644-19.402 24.134-28.041 37.582l-1.169 1.833a4 4 0 0 1-.195.345c-10.62 16.807-20.153 35.086-28.567 55.004l8.699 8.7c24.196-25.647 50.31-47.46 57.99-39.78 7.68 7.681-14.134 33.795-39.78 57.991l8.585 8.585c19.923-8.437 38.252-18.01 55.115-28.669q.152-.096.307-.175c14.135-8.954 27.218-18.671 39.346-29.124zM89.545 199.773a440 440 0 0 0-3.106 8.015l-.052.141 4.353 4.355a484 484 0 0 1 5.352-5.964zm20.587-60.619-.688.226c-8.271 2.822-21.578 10.51-37.446 21.711l-1.31.93a457 457 0 0 0-5.461 3.951l-1.105.814q-1.936 1.43-3.876 2.891l-1.107.836-1.245.945c-12.426 9.457-24.36 19.327-30.466 25.082l-.812.773.425.073.34.054.355.052c2.032.284 4.643.468 8.204.597l2.16.068c1.194.031 3.237.075 5.33.12l.838.017 2.432.052 4.33.102 1.528.046c1.991.065 3.807.142 5.54.238l1.358.08c8.963.562 15.639 1.666 20.401 3.771l.99-2.559c8.652-22.21 18.568-42.464 29.736-61.011zm51.438-54.03a327 327 0 0 0-5.45 5.863l72.985 72.985a327 327 0 0 0 5.867-5.447zm85.49-51.266c-33.735 8.926-56.672 22.311-79.901 45.54l73.538 73.538c23.321-23.319 36.72-46.346 45.647-80.298l-.128-.12zm47.653-9.096c-14.315 1.99-27.038 4.214-38.54 6.85L288.56 63.59c2.488-10.91 4.608-22.917 6.511-36.336l.363-2.59z" clip-rule="evenodd"/></g></g></svg>