<svg xmlns="http://www.w3.org/2000/svg" fill="none" viewBox="0 0 320 320"><g id="life-ring"><path id="lg-icon-fill-primary" fill="#42aeea" d="M173.67 224a12 12 0 0 1 11.954 10.954l5.6 64c.613 7.013-4.914 13.046-11.954 13.046h-38.54c-7.04 0-12.567-6.033-11.954-13.046l5.6-64A12 12 0 0 1 146.331 224zM8 140.731c0-7.04 6.033-12.567 13.046-11.954l64 5.6A12 12 0 0 1 96 146.331v27.339a12 12 0 0 1-10.954 11.955l-64 5.6C14.033 191.838 8 186.31 8 179.271zm290.954-11.954c7.013-.613 13.046 4.914 13.046 11.954v38.54c0 7.039-6.033 12.567-13.046 11.954l-64-5.6A12 12 0 0 1 224 173.67v-27.339a12 12 0 0 1 10.954-11.954zM179.27 8c7.04 0 12.567 6.033 11.954 13.046l-5.6 64A12 12 0 0 1 173.67 96h-27.339a12 12 0 0 1-11.955-10.954l-5.6-64C128.163 14.033 133.69 8 140.73 8z"/><path id="Outlines" fill="#1d1d1b" fill-rule="evenodd" d="M179.27 4c9.239 0 16.525 7.794 15.97 16.957l-.032.438-.239 2.731c15.597.208 28.705.762 39.79 2.253 17.871 2.403 31.084 7.298 41.324 17.538s15.135 23.453 17.538 41.324c1.49 11.085 2.044 24.193 2.251 39.79l2.733-.238c9.351-.818 17.395 6.552 17.395 15.938v38.54c-.001 9.386-8.044 16.757-17.395 15.939l-2.733-.239c-.207 15.596-.761 28.703-2.251 39.788-2.403 17.871-7.298 31.084-17.538 41.324s-23.453 15.135-41.324 17.538c-11.085 1.49-24.193 2.044-39.79 2.251l.239 2.733c.818 9.351-6.552 17.395-15.938 17.395h-38.54c-9.386 0-16.757-8.044-15.939-17.395l.238-2.733c-15.596-.207-28.703-.761-39.788-2.251-17.871-2.403-31.084-7.298-41.324-17.538s-15.135-23.453-17.538-41.324c-1.49-11.085-2.045-24.192-2.253-39.788l-2.732.239c-9.35.818-17.393-6.553-17.394-15.939v-38.54c0-9.386 8.044-16.756 17.395-15.938l2.731.238c.208-15.597.762-28.705 2.253-39.79 2.403-17.871 7.298-31.084 17.538-41.324S67.37 28.782 85.241 26.379c11.085-1.49 24.192-2.045 39.788-2.253l-.238-2.732C123.973 12.045 131.344 4 140.73 4zm-32.939 224a8.003 8.003 0 0 0-7.971 7.303l-5.303 60.621-.003.027-.293 3.352c-.409 4.675 3.276 8.697 7.969 8.697h38.54c4.693 0 8.377-4.022 7.968-8.697l-5.599-64a8.004 8.004 0 0 0-7.97-7.303zM32.387 207.119c.314 10.087.884 18.86 1.92 26.573 2.284 16.985 6.76 28.229 15.266 36.735s19.75 12.982 36.735 15.265c7.712 1.037 16.485 1.605 26.572 1.919-37.205-13.742-66.751-43.287-80.493-80.492m255.224-.001c-13.742 37.206-43.287 66.751-80.493 80.493 10.087-.314 18.861-.882 26.574-1.919 16.985-2.283 28.229-6.76 36.735-15.265s12.982-19.75 15.265-36.735c1.037-7.713 1.605-16.487 1.919-26.574M36.534 193.885c11.9 43.455 46.126 77.681 89.581 89.58l3.934-44.964c-22.299-8.513-40.04-26.251-48.552-48.55zm201.967-3.934c-8.513 22.299-26.253 40.038-48.552 48.55l3.934 44.963c43.456-11.899 77.682-46.123 89.581-89.579zM131.337 89.593c-18.921 7.71-34.034 22.825-41.744 41.746 6.119 2.28 10.407 8.171 10.407 14.992v27.339c0 6.821-4.288 12.712-10.406 14.993 7.71 18.92 22.823 34.032 41.743 41.742 2.281-6.118 8.173-10.405 14.994-10.405h27.339l.388.005c6.655.159 12.365 4.399 14.603 10.4 18.92-7.71 34.033-22.822 41.743-41.742C224.287 186.381 220 180.49 220 173.67v-27.339c0-6.821 4.287-12.711 10.405-14.992-7.71-18.921-22.823-34.035-41.744-41.745C186.38 95.712 180.491 100 173.67 100h-27.339c-6.822 0-12.713-4.288-14.994-10.407m-110.64 43.17c-4.675-.409-8.697 3.275-8.697 7.968v38.54c0 4.693 4.022 8.378 8.697 7.969l64-5.6A8.003 8.003 0 0 0 92 173.67v-27.339a8 8 0 0 0-6.512-7.859l-.065-.013a8 8 0 0 0-.726-.097zM308 140.731c0-4.693-4.022-8.377-8.697-7.968l-64 5.599a8 8 0 0 0-.727.097l-.065.013a8 8 0 0 0-1.428.409 8 8 0 0 0-5.083 7.45v27.339a8.004 8.004 0 0 0 7.303 7.97l5.747.502-.001.001 44.303 3.877.001-.001 10.598.926-.001.001 3.353.294c4.675.409 8.697-3.276 8.697-7.969zM126.115 36.533c-43.456 11.9-77.683 46.128-89.582 89.584l44.963 3.934c8.512-22.3 26.253-40.041 48.553-48.554zm63.834 44.964c22.3 8.513 40.04 26.254 48.553 48.554l44.963-3.934c-11.899-43.457-46.125-77.684-89.582-89.583zm-77.07-49.11c-10.086.314-18.859.884-26.571 1.92-16.985 2.284-28.23 6.76-36.735 15.266s-12.982 19.75-15.265 36.735c-1.037 7.712-1.607 16.485-1.921 26.572 13.742-37.204 43.288-66.751 80.492-80.493m94.239 0c37.205 13.742 66.751 43.288 80.493 80.493-.314-10.087-.882-18.86-1.919-26.572-2.283-16.985-6.76-28.23-15.265-36.735s-19.75-12.982-36.735-15.265c-7.713-1.037-16.487-1.607-26.574-1.921M140.73 12c-4.693 0-8.378 4.022-7.969 8.697l5.599 64A8.004 8.004 0 0 0 146.331 92h27.338a8.003 8.003 0 0 0 7.97-7.303l5.599-64 .027-.436c.151-4.487-3.449-8.26-7.995-8.261z" clip-rule="evenodd"/></g></svg>