<svg xmlns="http://www.w3.org/2000/svg" fill="none" viewBox="0 0 320 320"><g id="lightbulb"><path id="lg-icon-fill-primary" fill="#42aeea" d="M224 104c0 35.346-28.654 64-64 64s-64-28.654-64-64 28.654-64 64-64 64 28.654 64 64"/><path id="Outlines" fill="#1d1d1b" fill-rule="evenodd" d="M160 16c48.601 0 88 39.399 88 88 0 30.523-15.539 57.416-39.139 73.2l-13.879 48.981a8 8 0 0 1-3.024 4.313q.042.383.042.779v1.146l3.558-.395a4.002 4.002 0 0 1 1.082 7.925l-.198.027-4.442.492v7.951l3.558-.395a4.002 4.002 0 0 1 1.082 7.925l-.198.027-4.442.492v7.951l3.558-.395a4.002 4.002 0 0 1 1.082 7.925l-.198.027-4.442.492v8.259a7.273 7.273 0 0 1-7.273 7.273l-5.127.001C177.746 297.129 169.676 304 160 304s-17.746-6.871-19.6-15.999l-5.127-.001a7.273 7.273 0 0 1-7.273-7.273v-1.147l-3.558.396a4.002 4.002 0 0 1-1.082-7.925l.198-.027 4.442-.494v-7.95l-3.558.396a4.002 4.002 0 0 1-1.082-7.925l.198-.027 4.442-.494v-7.95l-3.558.396a4.002 4.002 0 0 1-1.082-7.925l.198-.027 4.442-.494v-8.257q0-.396.041-.781a7.98 7.98 0 0 1-3.023-4.311L111.139 177.2C87.539 161.416 72 134.523 72 104c0-48.601 39.399-88 88-88m11.316 272h-22.633l.129.348c1.707 4.389 5.921 7.524 10.883 7.648L160 296c5.2 0 9.627-3.307 11.293-7.933zM184 273.357l-48 5.334V280h48zm0-16-48 5.334v7.951l48-5.334zm0-16-48 5.334v7.951l48-5.334zm0-9.357h-48v6.642l48-5.334zM160 24c-44.183 0-80 35.817-80 80 0 27.047 13.516 51.788 35.586 66.55a8 8 0 0 1 3.157 4.166l.093.303 13.877 48.979.002.002H144v-32c0-7.456 5.099-13.72 12.001-15.496L156 147.907a4 4 0 0 1 2.036-3.485l.192-.101 7.723-3.817-23.355-8.759c-3.395-1.272-3.46-6.006-.196-7.412l.196-.078L164.607 116l-22.011-8.255c-3.395-1.272-3.46-6.006-.196-7.412l.196-.078L164.607 92l-22.011-8.255c-3.395-1.273-3.46-6.006-.196-7.412l.196-.078 32-12a3.999 3.999 0 0 1 2.999 7.413l-.191.077L155.392 80l22.012 8.255c3.395 1.273 3.46 6.006.196 7.412l-.196.078L155.392 104l22.012 8.255c3.395 1.272 3.46 6.006.196 7.412l-.196.078L155.392 128l22.012 8.255c3.213 1.205 3.497 5.599.553 7.234l-.185.097L164 150.392v26.112c6.901 1.776 12 8.041 12 15.496v32h11.284l13.88-48.981a8 8 0 0 1 3.25-4.469C226.484 155.788 240 131.047 240 104c0-44.183-35.817-80-80-80m0 160a8 8 0 0 0-8 8v32h16v-32a8 8 0 0 0-7.751-7.996z" clip-rule="evenodd"/></g></svg>