<svg xmlns="http://www.w3.org/2000/svg" fill="none" viewBox="0 0 320 320"><g id="locations" fill-rule="evenodd" clip-rule="evenodd"><path id="lg-icon-fill-primary" fill="#42aeea" d="M221.055 218.544C192.976 261.451 160 296 160 296s-32.975-34.549-61.055-77.456C83.785 243.203 64 264 64 264s-52-54.663-52-91.826c0-27.465 21.15-49.973 48-52.022V120c0-55.228 44.772-100 100-100s100 44.772 100 100v.152c26.85 2.05 48 24.558 48 52.022C308 209.337 256 264 256 264s-19.783-20.797-34.945-45.456m17.723-29.828A23.93 23.93 0 0 0 256 196c13.255 0 24-10.745 24-24s-10.745-24-24-24l-.293.002c-3.762 13.325-9.745 27.131-16.929 40.714M64.294 148.002 64 148c-13.255 0-24 10.745-24 24s10.745 24 24 24a23.93 23.93 0 0 0 17.222-7.285c-7.183-13.583-13.166-27.389-16.928-40.713M204 120c0 24.301-19.699 44-44 44s-44-19.699-44-44 19.7-44 44-44 44 19.7 44 44"/><g id="Outlines" fill="#1d1d1b"><path d="M160 72c-26.509 0-48 21.49-48 48s21.491 48 48 48c26.51 0 48-21.49 48-48s-21.49-48-48-48m-40 48c0-22.091 17.909-40 40-40s40 17.909 40 40-17.908 40-40 40-40-17.909-40-40"/><path d="M157.105 298.76s.002.002 2.895-2.76l-2.893 2.762 2.893 3.031 2.894-3.031L160 296c2.894 2.762 2.896 2.76 2.896 2.76l.02-.021.058-.061.222-.235a320 320 0 0 0 4.059-4.391 585 585 0 0 0 11.407-12.932c9.429-10.998 22.008-26.417 34.596-44.089a511 511 0 0 0 7.72-11.139 263 263 0 0 0 5.76 8.446c6.588 9.28 13.167 17.37 18.096 23.138a306 306 0 0 0 5.969 6.79 210 210 0 0 0 2.135 2.317l.119.126.032.034.011.012s.002.002 2.9-2.755l-2.898 2.757 2.898 3.046 2.898-3.046L256 264c2.898 2.757 2.899 2.755 2.899 2.755l.012-.012.032-.034.119-.126q.156-.165.451-.482c.391-.421.961-1.038 1.684-1.835a306 306 0 0 0 5.969-6.79c4.929-5.768 11.508-13.858 18.095-23.138 6.58-9.267 13.222-19.795 18.233-30.434 4.984-10.583 8.506-21.59 8.506-31.73 0-28.308-20.881-51.743-48.055-55.613C262.13 60.715 216.287 16 160 16S57.87 60.715 56.056 116.561C28.881 120.431 8 143.865 8 172.174c0 10.14 3.522 21.147 8.506 31.73 5.011 10.639 11.653 21.167 18.232 30.434 6.588 9.28 13.167 17.37 18.096 23.139a308 308 0 0 0 5.97 6.789 198 198 0 0 0 1.924 2.093l.21.224.119.126.032.034.011.012s.002.002 2.9-2.755l-2.898 2.757L64 269.803l2.898-3.046L64 264c2.898 2.757 2.9 2.755 2.9 2.755l.011-.012.032-.034.12-.126.45-.482c.391-.421.961-1.038 1.684-1.835a308 308 0 0 0 5.97-6.789c4.928-5.769 11.507-13.859 18.095-23.139a263 263 0 0 0 5.76-8.447 515 515 0 0 0 7.721 11.14c12.588 17.672 25.167 33.091 34.596 44.089a585 585 0 0 0 11.407 12.932 395 395 0 0 0 4.059 4.391l.222.235.058.061zM64.001 120C64 66.98 106.98 24 160 24s96 42.98 96 96c0 16.954-5.976 36.234-15.241 55.84-9.239 19.551-21.596 39.113-34.016 56.55-12.412 17.425-24.833 32.65-34.154 43.523A577 577 0 0 1 160 290.131a577 577 0 0 1-12.588-14.218c-9.321-10.873-21.742-26.098-34.154-43.523-12.42-17.437-24.777-36.999-34.016-56.55C69.977 156.234 64 136.954 64 120m30.203 98.59c-4.956-7.667-9.747-15.594-14.163-23.637A27.9 27.9 0 0 1 64 200c-15.464 0-28-12.536-28-28 0-13.831 10.027-25.319 23.209-27.592-1.65-6.72-2.722-13.338-3.078-19.764C33.374 128.412 16 148.247 16 172.174c0 8.441 2.978 18.203 7.744 28.321 4.739 10.063 11.097 20.168 17.518 29.212 6.412 9.032 12.833 16.93 17.654 22.573A307 307 0 0 0 64 258.085a307 307 0 0 0 5.084-5.805c4.821-5.643 11.242-13.541 17.654-22.573a248 248 0 0 0 7.466-11.117M61.35 152.174C51.558 153.469 44 161.852 44 172c0 11.046 8.954 20 20 20 4.611 0 8.858-1.561 12.24-4.182a276 276 0 0 1-4.231-8.559c-4.256-9.007-7.916-18.105-10.658-27.085m202.519-27.53c-.356 6.426-1.428 13.044-3.078 19.764C273.973 146.682 284 158.17 284 172c0 15.464-12.536 28-28 28a27.87 27.87 0 0 1-16.04-5.047c-4.416 8.044-9.208 15.971-14.163 23.638a248 248 0 0 0 7.464 11.116c6.413 9.032 12.834 16.93 17.655 22.573a308 308 0 0 0 5.084 5.805 308 308 0 0 0 5.084-5.805c4.821-5.643 11.242-13.541 17.654-22.573 6.421-9.044 12.779-19.149 17.518-29.212 4.766-10.118 7.744-19.881 7.744-28.321 0-23.926-17.373-43.762-40.13-47.53m-20.11 63.174A19.9 19.9 0 0 0 256 192c11.046 0 20-8.955 20-20 0-10.148-7.557-18.53-17.35-19.826-2.742 8.98-6.402 18.078-10.658 27.085a276 276 0 0 1-4.232 8.559"/></g></g></svg>