<svg xmlns="http://www.w3.org/2000/svg" fill="none" viewBox="0 0 320 320"><g id="location" fill-rule="evenodd" clip-rule="evenodd"><path id="lg-icon-fill-primary" fill="#42aeea" d="M160 296s100-104.772 100-176c0-55.228-44.772-100-100-100S60 64.772 60 120c0 71.228 100 176 100 176m0-132c24.301 0 44-19.699 44-44s-19.699-44-44-44-44 19.7-44 44 19.699 44 44 44"/><path id="Outlines" fill="#1d1d1b" d="M160 24c-53.019 0-96 42.98-96 96 0 16.954 5.976 36.234 15.242 55.84 9.238 19.551 21.595 39.113 34.016 56.55 12.412 17.425 24.833 32.65 34.154 43.523A575 575 0 0 0 160 290.131q.611-.666 1.339-1.465a575 575 0 0 0 11.249-12.753c9.321-10.873 21.742-26.098 34.154-43.523 12.421-17.437 24.778-36.999 34.016-56.55C250.024 156.234 256 136.954 256 120c0-53.02-42.981-96-96-96m0 272c-2.894 2.762-2.896 2.76-2.896 2.76l-.019-.021-.058-.061-.222-.235q-.294-.31-.852-.908a392 392 0 0 1-3.208-3.483 588 588 0 0 1-11.407-12.932c-9.429-10.998-22.008-26.417-34.596-44.089-12.58-17.659-25.222-37.645-34.734-57.772C62.524 159.187 56 138.66 56 120c0-57.438 46.562-104 104-104s104 46.562 104 104c0 18.66-6.524 39.187-16.008 59.259-9.512 20.127-22.155 40.113-34.734 57.772-12.588 17.672-25.167 33.091-34.596 44.089a588 588 0 0 1-11.407 12.932 392 392 0 0 1-4.06 4.391l-.222.235-.058.061-.019.021s-.002.002-2.896-2.76m0 0 2.894 2.762-2.894 3.031-2.894-3.031zm0-216c-22.091 0-40 17.909-40 40s17.909 40 40 40 40-17.909 40-40-17.909-40-40-40m-48 40c0-26.51 21.49-48 48-48s48 21.49 48 48-21.49 48-48 48-48-21.49-48-48"/></g></svg>