<svg xmlns="http://www.w3.org/2000/svg" fill="none" viewBox="0 0 320 320"><g id="lock-open" fill-rule="evenodd" clip-rule="evenodd"><path id="lg-icon-fill-primary" fill="#42aeea" d="M260 140H60v145l36 15h128l36-15zm-84 64c0 5.871-3.162 11.003-7.876 13.787.266.4.463.854.572 1.345l6.222 28a4 4 0 0 1-3.904 4.868h-22.028a4 4 0 0 1-3.904-4.868l6.222-28c.109-.491.306-.945.572-1.345C147.162 215.003 144 209.871 144 204c0-8.837 7.163-16 16-16s16 7.163 16 16"/><g id="Outlines" fill="#1d1d1b"><path d="M160 184c11.046 0 20 8.954 20 20a19.96 19.96 0 0 1-6.559 14.81l6.003 30.013c.743 3.713-2.097 7.177-5.883 7.177h-27.122c-3.786 0-6.626-3.464-5.883-7.177l6.003-30.013A19.96 19.96 0 0 1 140 204c0-11.046 8.954-20 20-20m0 8c-6.627 0-12 5.373-12 12 0 4.108 2.061 7.735 5.223 9.904a4 4 0 0 1 1.659 4.083L148.879 248h22.242l-6.003-30.013a4 4 0 0 1 1.659-4.083A11.98 11.98 0 0 0 172 204c0-6.627-5.373-12-12-12"/><path d="M260 136a4 4 0 0 1 4 4v145.292a4 4 0 0 1-2.515 3.714l-36.77 14.708a4 4 0 0 1-1.486.286H96.77a4 4 0 0 1-1.485-.286l-36.77-14.708A4 4 0 0 1 56 285.292V140a4 4 0 0 1 4-4h20V88c0-44.183 35.817-80 80-80s80 35.817 80 80v8c0 8.837-7.163 16-16 16s-16-7.163-16-16v-8c0-26.51-21.49-48-48-48s-48 21.49-48 48v48zm-156 0V88c0-30.928 25.072-56 56-56s56 25.072 56 56v8a8 8 0 0 0 16 0v-8c0-39.764-32.236-72-72-72S88 48.236 88 88v48zM64 282.584 97.541 296h124.918L256 282.584V144H64z"/></g></g></svg>