<svg xmlns="http://www.w3.org/2000/svg" fill="none" viewBox="0 0 320 320"><g id="lock-settings"><path id="lg-icon-fill-primary" fill="#42aeea" fill-rule="evenodd" d="M260 212c-26.51 0-48 21.49-48 48 0 15.169 7.038 28.692 18.025 37.488L224 300H96l-36-15V140h200zm-100-24c-8.837 0-16 7.163-16 16 0 5.871 3.162 11.003 7.876 13.787-.266.4-.463.854-.572 1.345l-6.222 28a4 4 0 0 0 3.904 4.868h22.028a4 4 0 0 0 3.904-4.868l-6.222-28a4 4 0 0 0-.572-1.345C172.838 215.003 176 209.871 176 204c0-8.837-7.163-16-16-16" clip-rule="evenodd"/><g id="Outlines" fill="#1d1d1b"><path d="M260 254a6 6 0 1 1 0 12 6 6 0 0 1 0-12"/><path fill-rule="evenodd" d="M260 228a4 4 0 0 1 4 4v4.332c1.509.253 2.971.647 4.371 1.168l2.165-3.749a4 4 0 0 1 6.928 4l-2.167 3.755a24 24 0 0 1 3.197 3.197l3.755-2.167a4 4 0 0 1 4 6.928l-3.749 2.165c.521 1.4.915 2.862 1.168 4.371H288a4 4 0 0 1 0 8h-4.332a24 24 0 0 1-1.168 4.371l3.749 2.165a4 4 0 0 1-4 6.928l-3.755-2.167a24 24 0 0 1-3.197 3.197l2.167 3.755a4 4 0 0 1-6.928 4l-2.165-3.749c-1.4.521-2.862.915-4.371 1.168V288a4 4 0 0 1-8 0v-4.332a24 24 0 0 1-4.371-1.168l-2.165 3.749a4 4 0 0 1-6.928-4l2.167-3.755a24 24 0 0 1-3.197-3.197l-3.755 2.167a4 4 0 0 1-4-6.928l3.749-2.165a24 24 0 0 1-1.168-4.371H232a4 4 0 0 1 0-8h4.332a24 24 0 0 1 1.168-4.371l-3.749-2.165a4 4 0 0 1 4-6.928l3.755 2.167a24 24 0 0 1 3.197-3.197l-2.167-3.755a4 4 0 0 1 6.928-4l2.165 3.749c1.4-.521 2.862-.915 4.371-1.168V232a4 4 0 0 1 4-4m0 16c-8.837 0-16 7.163-16 16s7.163 16 16 16 16-7.163 16-16-7.163-16-16-16m-100-60c11.046 0 20 8.954 20 20a19.96 19.96 0 0 1-6.559 14.81l6.003 30.013c.743 3.713-2.097 7.177-5.883 7.177h-27.122c-3.786 0-6.626-3.464-5.883-7.177l6.003-30.013A19.96 19.96 0 0 1 140 204c0-11.046 8.954-20 20-20m0 8c-6.627 0-12 5.373-12 12 0 4.108 2.061 7.735 5.223 9.904a4 4 0 0 1 1.659 4.083L148.879 248h22.242l-6.003-30.013a4 4 0 0 1 1.659-4.083A11.98 11.98 0 0 0 172 204c0-6.627-5.373-12-12-12" clip-rule="evenodd"/><path fill-rule="evenodd" d="M160 16c44.183 0 80 35.817 80 80v40h20a4 4 0 0 1 4 4v68.15c26.85 2.043 48 24.477 48 51.85 0 28.719-23.281 52-52 52a51.76 51.76 0 0 1-30.781-10.089l-4.504 1.803a4 4 0 0 1-1.486.286H96.77a4 4 0 0 1-1.485-.286l-36.77-14.708A4 4 0 0 1 56 285.292V140a4 4 0 0 1 4-4h20V96c0-44.183 35.817-80 80-80m100 200c-24.301 0-44 19.699-44 44s19.699 44 44 44 44-19.699 44-44-19.699-44-44-44M64 282.584 97.541 296h124.918l.014-.006C213.509 286.651 208 273.969 208 260c0-27.373 21.15-49.807 48-51.85V144H64zM160 24c-39.765 0-72 32.236-72 72v40h16V96c0-30.928 25.072-56 56-56s56 25.072 56 56v40h16V96c0-39.764-32.236-72-72-72m0 24c-26.51 0-48 21.49-48 48v40h96V96c0-26.51-21.49-48-48-48" clip-rule="evenodd"/></g></g></svg>