<svg xmlns="http://www.w3.org/2000/svg" fill="none" viewBox="0 0 320 320"><g id="lock-closed" fill-rule="evenodd" clip-rule="evenodd"><path id="lg-icon-fill-primary" fill="#42aeea" d="M260 140H60v145l36 15h128l36-15zm-84 64c0 5.871-3.162 11.003-7.876 13.787.266.4.463.854.572 1.345l6.222 28a4 4 0 0 1-3.904 4.868h-22.028a4 4 0 0 1-3.904-4.868l6.222-28c.109-.491.306-.945.572-1.345C147.162 215.003 144 209.871 144 204c0-8.837 7.163-16 16-16s16 7.163 16 16"/><g id="Outlines" fill="#1d1d1b"><path d="M140 204c0-11.046 8.954-20 20-20s20 8.954 20 20a19.96 19.96 0 0 1-6.559 14.81l6.003 30.013c.742 3.713-2.097 7.177-5.884 7.177h-27.12c-3.787 0-6.626-3.464-5.884-7.177l6.003-30.013A19.96 19.96 0 0 1 140 204m20-12c-6.627 0-12 5.373-12 12 0 4.108 2.06 7.735 5.222 9.905a4 4 0 0 1 1.66 4.082L148.879 248h22.242l-6.003-30.013a4 4 0 0 1 1.66-4.082A11.98 11.98 0 0 0 172 204c0-6.627-5.373-12-12-12"/><path d="M240 96c0-44.183-35.817-80-80-80S80 51.817 80 96v40H60a4 4 0 0 0-4 4v145.292c0 1.635.996 3.106 2.514 3.714l36.77 14.708a4 4 0 0 0 1.486.286h126.46c.509 0 1.013-.097 1.485-.286l36.771-14.708a4 4 0 0 0 2.514-3.714V140a4 4 0 0 0-4-4h-20zm-8 40V96c0-39.764-32.236-72-72-72S88 56.236 88 96v40h16V96c0-30.928 25.072-56 56-56s56 25.072 56 56v40zm-24 0V96c0-26.51-21.49-48-48-48s-48 21.49-48 48v40zm-144 8v138.584L97.54 296h124.92L256 282.584V144z"/></g></g></svg>