<svg xmlns="http://www.w3.org/2000/svg" fill="none" viewBox="0 0 320 320"><g id="login"><path id="lg-icon-fill-primary" fill="#42aeea" d="M280 160c0 66.274-53.726 120-120 120S40 226.274 40 160 93.726 40 160 40s120 53.726 120 120"/><g id="Outlines" fill="#1d1d1b"><path d="M58.177 58.177c56.236-56.235 147.411-56.235 203.647 0s56.235 147.411 0 203.647-147.411 56.235-203.647 0a4 4 0 0 1 5.657-5.657c53.111 53.111 139.221 53.111 192.333 0s53.111-139.222 0-192.334c-53.112-53.11-139.222-53.11-192.333 0a4 4 0 0 1-5.657-5.656"/><path d="M157.195 93.149a4 4 0 0 1 5.656.045l63 64.001a4 4 0 0 1 0 5.611l-63 64a4 4 0 0 1-5.701-5.611L213.451 164H97.001a4 4 0 0 1 0-8.001h116.45L157.15 98.805a4 4 0 0 1 .045-5.656"/></g></g></svg>