<svg xmlns="http://www.w3.org/2000/svg" fill="none" viewBox="0 0 320 320"><g id="logout"><path id="lg-icon-fill-primary" fill="#42aeea" d="M280 160c0 66.274-53.726 120-120 120S40 226.274 40 160 93.726 40 160 40s120 53.726 120 120"/><g id="Outlines" fill="#1d1d1b"><path d="M58.177 58.177c56.235-56.235 147.411-56.235 203.646 0a4 4 0 0 1-5.656 5.656c-53.111-53.11-139.223-53.11-192.334 0-53.111 53.112-53.111 139.223 0 192.334s139.223 53.112 192.334 0a4 4 0 1 1 5.656 5.657c-56.235 56.235-147.411 56.235-203.646 0-56.236-56.236-56.236-147.411 0-203.647"/><path d="M157.194 93.15a4 4 0 0 1 5.656.045l63 64a4 4 0 0 1 0 5.611l-63 64a4 4 0 0 1-5.701-5.611L213.45 164H97a4 4 0 0 1 0-8h116.45l-56.301-57.194a4 4 0 0 1 .045-5.656"/></g></g></svg>