<svg xmlns="http://www.w3.org/2000/svg" fill="none" viewBox="0 0 320 320"><g id="looking-ahead"><path id="lg-icon-fill-primary" fill="#42aeea" fill-rule="evenodd" d="M281.208 60.917c-9.016-6.056-22.091-10.041-39.064-12.015l-1.74-.194-1.766-.18-1.793-.166q-1.354-.12-2.74-.223L232.14 48l-.383-.004A8 8 0 0 1 232.006 32l.18.002.4.015.451.029.244.02.522.05.565.066.605.078.643.093.334.052.693.113.722.126 1.132.214.783.159.399.084.809.178.824.19q.415.099.835.203l.843.214c6.571 1.715 13.101 4.3 19.044 7.806 8.285 4.888 14.841 11.15 19.294 18.952l.322.574zm-242.41 0c9.322-6.26 22.983-10.31 40.804-12.21l1.766-.18 1.794-.165q1.354-.12 2.74-.223L87.866 48l.382-.004A8 8 0 0 0 88 32l-.18.002-.4.015-.45.029-.244.02-.522.05-.565.066-.606.078-.642.093-.677.106-.708.12-.736.133-.76.146-.784.159-.398.084-.81.178-.823.19q-.416.099-.835.203l-.843.214c-6.571 1.715-13.102 4.3-19.044 7.806-8.285 4.888-14.842 11.15-19.294 18.952l-.323.574z" clip-rule="evenodd"/><g id="Outlines" fill="#1d1d1b"><path d="M205.182 245.109a4.038 4.038 0 0 0 5.709 5.709l39.927-39.927a4.038 4.038 0 0 0-5.709-5.709zm16 16a4.038 4.038 0 0 0 5.709 5.709l39.927-39.927a4.038 4.038 0 0 0-5.709-5.709zm-168-16a4.037 4.037 0 1 0 5.71 5.709l39.926-39.927a4.037 4.037 0 0 0-5.71-5.709zm16 16a4.037 4.037 0 1 0 5.71 5.709l39.926-39.927a4.038 4.038 0 0 0-5.709-5.709z"/><path fill-rule="evenodd" d="M266.099 34.802C254.285 27.832 239.597 24 232.006 24c-8.836 0-16 7.163-16 16 0 8.683 6.917 15.75 15.541 15.993l.316.006 1.114.078 1.092.082C269.907 58.932 287.333 69.523 288 87l.001 119.049C277.634 188.088 258.229 176 236 176c-28.813 0-52.883 20.31-58.673 47.394A23.93 23.93 0 0 0 160 216a23.92 23.92 0 0 0-17.326 7.395C136.883 196.31 112.813 176 84 176c-22.228 0-41.632 12.087-52 30.047V87c.674-17.654 18.453-28.28 55.029-30.923l1.114-.078.316-.006C97.083 55.75 104 48.683 104 40c0-8.837-7.163-16-16-16-7.59 0-22.279 3.832-34.092 10.802C35.665 45.565 24.493 63.17 24 87v145q.001.42.083.816A61 61 0 0 0 24 236c0 33.137 26.863 60 60 60 31.793 0 57.81-24.728 59.869-56H144l.003-.315C144.171 230.994 151.269 224 160 224c8.837 0 16 7.163 16 16h.131c2.059 31.272 28.076 56 59.869 56 33.137 0 60-26.863 60-60q0-1.603-.083-3.183.082-.397.083-.817V87l-.018-.713c-.699-23.468-11.823-40.83-29.883-51.485M184 236c0-28.719 23.281-52 52-52s52 23.281 52 52-23.281 52-52 52-52-23.281-52-52m-152 0c0-28.719 23.281-52 52-52s52 23.281 52 52-23.281 52-52 52-52-23.281-52-52M224.006 40a8 8 0 0 1 8-8c1.787 0 5.804.594 10.141 1.672l.843.214.857.229c6.281 1.712 12.502 4.223 18.187 7.577 8.285 4.888 14.841 11.15 19.294 18.952l.322.574-.442-.301-.462-.306c-10.395-6.797-26.021-10.926-46.641-12.472L232.139 48l-.382-.004-.247-.011A8 8 0 0 1 224.006 40M77.859 33.672C82.196 32.594 86.213 32 88 32a8 8 0 0 1 .25 15.996l-.383.004-1.966.139c-20.927 1.569-36.711 5.799-47.103 12.778l-.442.3.322-.573c4.453-7.803 11.01-14.064 19.295-18.952 5.942-3.506 12.472-6.091 19.043-7.806z" clip-rule="evenodd"/></g></g></svg>