<svg xmlns="http://www.w3.org/2000/svg" fill="none" viewBox="0 0 320 320"><g id="male"><path id="lg-icon-fill-primary" fill="#42aeea" d="M227.967 95.968c0 21.817-10.279 41.234-26.26 53.67V93.431c0-8.837-7.163-16-16-16h-52.959c-8.837 0-16 7.163-16 16v54.968c-15.095-12.466-24.716-31.325-24.716-52.431C92.033 58.43 122.464 28 160 28s67.967 30.43 67.967 67.968M132 184c0-3.081-1.09 1.043-1.482 8.515.961-2.626 1.482-5.453 1.482-8.515m57.486 8.565c5.642 15.447 26.413 23.892 46.188 31.932C256.384 232.917 276 240.892 276 256v36H44s.889-4 0-36c-.42-15.153 19.29-23.13 40.16-31.578 19.829-8.026 40.706-16.476 46.358-31.907-.36 6.842-.135 16.492 2.048 25.985C136.358 234.988 147.298 251 160 251c12.68 0 23.618-16.009 27.414-32.5 2.178-9.465 2.419-19.088 2.072-25.935M188 184c0 3.081.522 5.925 1.486 8.565-.383-7.568-1.486-11.743-1.486-8.565"/><path id="Outlines" fill="#1d1d1b" d="M88 96c0-39.764 32.235-72 72-72s72 32.236 72 72c0 21.279-9.231 40.402-23.907 53.583l-.464.414c-1.469 11.787-7.212 22.247-15.628 29.78l-.003 12.325C228.949 232.789 280 220.996 280 255.999V296H40v-40.001c0-35.002 51.048-23.21 88-63.89l-.003-12.334c-8.415-7.533-14.157-17.992-15.626-29.779C97.426 136.804 88 117.503 88 96m103.999 107.539.001 12.174Q192 241.9 160 256q-32-14.1-32-40.287V203.54c-6.455 6.025-13.58 11.17-21.368 15.575-5.684 3.214-11.572 5.976-18.373 8.734l-1.081.435a404 404 0 0 1-6.034 2.323l-11.065 4.156-1.011.392C52.95 241.456 48.098 245.947 48 255.696V288h224v-32.001l-.006-.597c-.192-9.547-5.109-14.011-21.067-20.249l-12.527-4.719a381 381 0 0 1-5.578-2.15c-7.262-2.904-13.471-5.786-19.454-9.169-7.788-4.405-14.914-9.55-21.369-15.576M184 185.579c-7.06 4.084-15.257 6.421-24 6.421a47.8 47.8 0 0 1-23.368-6.062l-.632-.359v30.134c0 12.937 7.398 23.159 23.427 31.136l.573.282.042-.02c16.222-7.929 23.796-18.1 23.955-30.981l.003-.417zM160 80c-27.244 0-39.026 5.871-39.941 21.854l-.039.74-.02.216V144c0 21.87 17.552 39.641 39.339 39.995L160 184c22.091 0 40-17.909 40-40v-41.179l-.02-.227-.015-.252c-.696-16.188-12.212-22.221-39.144-22.34zm0-48c-35.346 0-64 28.654-64 64 0 16.232 6.043 31.052 16.001 42.334L112 102l.042-.002c1.055-24.538 21.71-29.892 47.185-29.996L160 72c25.829 0 46.892 5.212 47.958 29.998L208 102l.001 36.332C217.958 127.05 224 112.231 224 96c0-35.346-28.654-64-64-64"/></g></svg>