<svg xmlns="http://www.w3.org/2000/svg" fill="none" viewBox="0 0 320 320"><g id="message-sent" fill-rule="evenodd" clip-rule="evenodd"><path id="lg-icon-fill-primary" fill="#42aeea" d="M268.303 51.697 117.5 225.5 95 202z"/><path id="Outlines" fill="#1d1d1b" d="m299.721 25.468-.072.171-124 276c-1.12 2.492-4.335 3.138-6.33 1.33l-.148-.141-63.72-63.721a4 4 0 0 1-.31-5.309l.14-.167 6.89-7.804-18-18.001-7.802 6.893a4 4 0 0 1-5.155.119l-.164-.139-.157-.15-63.721-63.721c-1.932-1.932-1.394-5.167 1.005-6.389l.184-.088 276-124c3.242-1.456 6.562 1.705 5.424 4.947zm-17.93 20.397L113.765 236.108l56.962 56.962zm-33.488 25.832L100.179 202.52l17.299 17.3zm25.831-33.49L26.929 149.273l56.962 56.962z"/></g></svg>