<svg xmlns="http://www.w3.org/2000/svg" fill="none" viewBox="0 0 320 320"><g id="message"><path id="lg-icon-fill-primary" fill="#42aeea" d="M160 181 60 99V60H16a4 4 0 0 0-4 4v192a4 4 0 0 0 4 4h288a4 4 0 0 0 4-4V64a4 4 0 0 0-4-4h-44v39z"/><g id="Outlines" fill="#1d1d1b"><path d="M97 108a4 4 0 0 1 4-4h119a4 4 0 0 1 0 8H101a4 4 0 0 1-4-4m4-36a4 4 0 0 0 0 8h119a4 4 0 0 0 0-8zm-4-28a4 4 0 0 1 4-4h119a4 4 0 0 1 0 8H101a4 4 0 0 1-4-4"/><path fill-rule="evenodd" d="M56 16v40H12a4 4 0 0 0-4 4v200a4 4 0 0 0 4 4h296a4 4 0 0 0 4-4V60a4 4 0 0 0-4-4h-44V16a8 8 0 0 0-8-8H64a8 8 0 0 0-8 8m200 0H64v81.347l96 78.486 96-78.486zm8 74.806L296.788 64H264zm40-22.37L192.005 160 304 251.563zm-118.314 96.731-20.623 16.86a8 8 0 0 1-10.127 0l-20.622-16.86L23.212 256h273.575zM127.994 160 16 68.437v183.126zM23.212 64 56 90.807V64z" clip-rule="evenodd"/></g></g></svg>