<svg xmlns="http://www.w3.org/2000/svg" fill="none" viewBox="0 0 320 320"><g id="message-unavailable"><path id="lg-icon-fill-primary" fill="#42aeea" d="m60 99 100 82 100-82V60h44a4 4 0 0 1 4 4v192q0 .46-.099.889C306.298 231.829 285.465 212 260 212c-26.51 0-48 21.49-48 48H16a4 4 0 0 1-4-4V64a4 4 0 0 1 4-4h44z"/><g id="Outlines" fill="#1d1d1b"><path d="M101 104a4 4 0 0 0 0 8h119a4 4 0 0 0 0-8zm-4-28a4 4 0 0 1 4-4h119a4 4 0 0 1 0 8H101a4 4 0 0 1-4-4m4-36a4 4 0 0 0 0 8h119a4 4 0 0 0 0-8zm140.201 201.201a4 4 0 0 0 0 5.657L254.343 260l-13.142 13.142a4 4 0 0 0 5.657 5.657L260 265.657l13.142 13.142a4 4 0 0 0 5.657-5.657L265.657 260l13.142-13.142a4 4 0 0 0-5.657-5.657L260 254.343l-13.142-13.142a4 4 0 0 0-5.657 0"/><path fill-rule="evenodd" d="M208.152 264c2.042 26.85 24.475 48 51.848 48 28.719 0 52-23.281 52-52V60a4 4 0 0 0-4-4h-44V16a8 8 0 0 0-8-8H64a8 8 0 0 0-8 8v40H12a4 4 0 0 0-4 4v200a4 4 0 0 0 4 4zM64 16h192v81.347l-96 78.486-96-78.486zm232.788 48L264 90.806V64zM304 232.275V68.437L192.005 160l59.546 48.683A52.4 52.4 0 0 1 260 208c18.526 0 34.789 9.688 44 24.275M303.821 264a45 45 0 0 0 0-8c-2.021-22.426-20.869-40-43.821-40s-41.8 17.574-43.821 40a45 45 0 0 0 0 8c2.021 22.426 20.869 40 43.821 40s41.8-17.574 43.821-40m-95.669-8c1.57-20.641 15.19-37.913 33.841-44.798l-56.307-46.035-20.623 16.86a8 8 0 0 1-10.127 0l-20.622-16.86L23.212 256zM16 68.437 127.994 160 16 251.563zm40 22.37L23.212 64H56z" clip-rule="evenodd"/></g></g></svg>