<svg xmlns="http://www.w3.org/2000/svg" fill="none" viewBox="0 0 320 320"><g id="metal" fill-rule="evenodd" clip-rule="evenodd"><path id="lg-icon-fill-primary" fill="#42aeea" d="M86 31.828 12 160l74 128.172h148L308 160 234 31.828zM160 228c37.555 0 68-30.445 68-68s-30.445-68-68-68-68 30.445-68 68 30.445 68 68 68"/><g id="Outlines" fill="#1d1d1b"><path d="M160 88c-39.765 0-72 32.235-72 72s32.235 72 72 72 72-32.236 72-72-32.236-72-72-72m-64 72c0-35.346 28.654-64 64-64s64 28.654 64 64-28.654 64-64 64-64-28.654-64-64"/><path d="M15.464 146a28 28 0 0 0 0 28l60.144 104.172a28 28 0 0 0 24.248 14h120.288a28 28 0 0 0 24.248-14L304.536 174a28 28 0 0 0 0-28L244.392 41.828a28 28 0 0 0-24.248-14H99.856a28 28 0 0 0-24.248 14zm6.928 24a20 20 0 0 1 0-20L82.536 45.828a20 20 0 0 1 17.32-10h120.288a20 20 0 0 1 17.32 10L297.608 150a20 20 0 0 1 0 20l-60.144 104.172a20 20 0 0 1-17.32 10H99.856a20 20 0 0 1-17.32-10z"/></g></g></svg>