<svg xmlns="http://www.w3.org/2000/svg" fill="none" viewBox="0 0 320 320"><g id="microphone"><path id="lg-icon-fill-primary" fill="#42aeea" d="M160 84c-19.882 0-36 11.914-36 42v60c0 30.086 16.118 42 36 42s36-11.914 36-42v-60c0-30.086-16.118-42-36-42m0 201.53L203.176 308h-86.353z"/><g id="Outlines" fill="#1d1d1b"><path d="M56 120.397C56 62.727 102.576 16 160 16s104 46.726 104 104.397c0 11.305-1.789 22.183-5.094 32.368a4 4 0 1 0 7.609 2.47c3.561-10.974 5.485-22.684 5.485-34.838C272 58.336 221.87 8 160 8S48 58.336 48 120.397c0 12.154 1.924 23.864 5.485 34.838a4 4 0 1 0 7.61-2.47C57.788 142.58 56 131.702 56 120.397"/><path d="M160 40c-44.199 0-80 35.674-80 79.644 0 5.67.595 11.198 1.724 16.527a4 4 0 1 1-7.826 1.658A87.7 87.7 0 0 1 72 119.644C72 71.224 111.415 32 160 32s88 39.224 88 87.644c0 6.231-.654 12.315-1.898 18.185a4 4 0 0 1-7.826-1.658A79.7 79.7 0 0 0 240 119.644C240 75.674 204.199 40 160 40"/><path d="M104 120c0-30.928 25.072-56 56-56s56 25.072 56 56a4 4 0 0 0 8 0c0-35.346-28.654-64-64-64s-64 28.654-64 64a4 4 0 0 0 8 0"/><path fill-rule="evenodd" d="M160 80c22.091 0 40 17.909 40 40v32h20a4 4 0 0 1 4 4v37.703c0 33.198-26.612 60.169-60 62.177v27.054l41.83 21.509A3.999 3.999 0 0 1 204 312h-88a4 4 0 0 1-1.829-7.557L156 282.934V255.88c-33.388-2.008-60-28.979-60-62.177V156a4 4 0 0 1 4-4h20v-32c0-22.091 17.909-40 40-40m32 40v32h-64v-32c0-17.673 14.327-32 32-32s32 14.327 32 32m0 72v-32h-64v32c0 17.673 14.327 32 32 32s32-14.327 32-32m-72 0v-32h-16v33.703C104 223.582 128.963 248 160 248s56-24.418 56-54.297V160h-16v32c0 22.091-17.909 40-40 40s-40-17.909-40-40m40 97.873L132.527 304h54.947z" clip-rule="evenodd"/></g></g></svg>