<svg xmlns="http://www.w3.org/2000/svg" fill="none" viewBox="0 0 320 320"><g id="mining"><g id="lg-icon-fill-primary" fill="#42aeea"><path d="M52 104c0-15.464 12.536-28 28-28h-4c0-26.51 21.49-48 48-48 16.065 0 30.287 7.892 39 20.012 0 0 8.5-8.012 21-8.012 17.673 0 31 13.327 31 31l-19.5 37H52zm240 4h-60l-23.5 48H284z"/><path fill-rule="evenodd" d="M140 240c0 28.719-23.281 52-52 52s-52-23.281-52-52 23.281-52 52-52 52 23.281 52 52m-32 0c0 11.046-8.954 20-20 20s-20-8.954-20-20 8.954-20 20-20 20 8.954 20 20m184 0c0 28.719-23.281 52-52 52s-52-23.281-52-52 23.281-52 52-52 52 23.281 52 52m-32 0c0 11.046-8.954 20-20 20s-20-8.954-20-20 8.954-20 20-20 20 8.954 20 20" clip-rule="evenodd"/></g><g id="Outlines" fill="#1d1d1b" fill-rule="evenodd" clip-rule="evenodd"><path d="M88 216c-13.255 0-24 10.745-24 24s10.745 24 24 24 24-10.745 24-24-10.745-24-24-24m-16 24c0-8.837 7.163-16 16-16s16 7.163 16 16-7.163 16-16 16-16-7.163-16-16m144 0c0-13.255 10.745-24 24-24s24 10.745 24 24-10.745 24-24 24-24-10.745-24-24m24-16c-8.837 0-16 7.163-16 16s7.163 16 16 16 16-7.163 16-16-7.163-16-16-16"/><path d="M48 104H37a4 4 0 0 0-3.632 2.324l-21 45.5a4 4 0 0 0 2.198 5.41l69.953 26.872C55.213 185.904 32 210.241 32 240c0 30.928 25.072 56 56 56 29.583 0 53.808-22.939 55.859-52h40.282c2.051 29.061 26.276 52 55.859 52 30.8 0 55.792-24.865 55.999-55.616l14.121-74.139c1.409-7.394-4.26-14.245-11.788-14.245h-9.61l7.224-43.342A4 4 0 0 0 292 104h-53.343l3.856-8h61.937c5.461 0 9.317-5.35 7.59-10.53l-5.334-16a8 8 0 0 0-7.589-5.47h-80.009C215.47 47.968 201.133 36 184 36a35.84 35.84 0 0 0-20.38 6.32C154.087 31.117 139.875 24 124 24c-27.707 0-50.353 21.67-51.914 48.986C58.24 76.508 48 89.058 48 104m32.18-32C82.2 49.575 101.047 32 124 32c13.452 0 25.495 6.034 33.571 15.556C151.631 53.976 148 62.564 148 72a4 4 0 0 0 8 0c0-15.464 12.536-28 28-28 14.005 0 25.608 10.282 27.673 23.71L193.528 104H56c0-13.255 10.745-24 24-24 6.63 0 12.625 2.683 16.972 7.031a4 4 0 1 0 5.658-5.656c-5.748-5.749-13.685-9.326-22.45-9.374m138.292 0-18.894 37.789A4 4 0 0 1 196 112H39.56l-18.138 39.298 21.464 8.245 13.482-29.219A4 4 0 0 1 60 128h63.934l.073-.001.064.001 31.884-.001h32.012a4 4 0 0 1 3.652 5.705l-33.088 70.264 9.149 3.514a12 12 0 0 0 15.113-5.992l53.604-111.227A4 4 0 0 1 240 88h64.45l-5.333-16zm68.806 40-6.667 40h-65.086l19.277-40zm-75.609 48L190 204.963c-4.518 9.376-15.473 13.72-25.189 9.987l-36.809-14.14c9.024 9.21 14.893 21.523 15.857 35.19h40.282c2.051-29.061 26.276-52 55.859-52 23.501 0 43.621 14.476 51.928 34.998l10.334-54.25a4 4 0 0 0-3.93-4.748zM181.695 136l-30.652 65.092-19.643-7.545L158.536 136zm-32.003 0-25.78 54.67-19.475-7.481L126.544 136zm-31.983.001-20.76 44.312-19.48-7.484L94.555 136zm-31.974 0-15.75 33.953-19.615-7.535L62.56 136zM40 240c0-26.51 21.49-48 48-48s48 21.49 48 48-21.49 48-48 48-48-21.49-48-48m200-48c-26.51 0-48 21.49-48 48s21.49 48 48 48 48-21.49 48-48-21.49-48-48-48"/></g></g></svg>