<svg xmlns="http://www.w3.org/2000/svg" fill="none" viewBox="0 0 320 320"><g id="mobile-phone"><path id="lg-icon-fill-primary" fill="#42aeea" fill-rule="evenodd" d="M112 308h96c15.464 0 28-12.536 28-28v-12H84v12c0 15.464 12.536 28 28 28m0-296h96c15.464 0 28 12.536 28 28v12H84V40c0-15.464 12.536-28 28-28" clip-rule="evenodd"/><g id="Outlines" fill="#1d1d1b"><path d="M114.746 231.597a4 4 0 0 1 0-5.656l79.196-79.196a4 4 0 0 1 5.657 5.657l-79.196 79.195a4 4 0 0 1-5.657 0m0-69.656a4 4 0 1 0 5.657 5.656l79.196-79.196a4 4 0 0 0-5.657-5.656zM184 28a4 4 0 0 1 0 8h-32a4 4 0 0 1 0-8zm-48 0a4 4 0 1 1 0 8 4 4 0 0 1 0-8"/><path fill-rule="evenodd" d="M206.222 8C224.877 8 240 22.327 240 40v240c0 17.673-15.123 32-33.778 32h-92.444C95.123 312 80 297.673 80 280V40c0-17.673 15.123-32 33.778-32zm25.333 264H88.444v8c0 13.255 11.343 24 25.334 24h92.444c13.991 0 25.334-10.745 25.334-24zm0-216H88.444v208h143.111zm-25.333-40h-92.444c-13.991 0-25.334 10.745-25.334 24v8h143.111l.001-8c0-13.255-11.343-24-25.334-24" clip-rule="evenodd"/></g></g></svg>