<svg xmlns="http://www.w3.org/2000/svg" fill="none" viewBox="0 0 320 320"><g id="numeral-two"><path id="lg-icon-fill-primary" fill="#42aeea" d="M88.144 288.76c-5.76 0-8.28-2.52-8.28-7.92v-5.04c0-7.92 1.8-10.8 5.76-14.4 78.84-69.48 105.12-106.56 105.12-141.12 0-27.72-20.88-48.96-46.8-48.96-19.8 0-37.8 11.52-54 32.4-6.12 7.92-18.36 3.6-14.04-7.92 14.4-39.24 50.76-64.8 87.84-64.8 43.2 0 75.24 30.96 75.24 73.44 0 46.08-42.48 100.8-113.04 144.72h85.68c5.76 0 10.8-3.96 19.44-15.12 3.6-4.68 6.48-6.12 9.36-6.12 4.68 0 5.76 3.96 5.04 7.2l-10.44 46.44c-1.44 6.48-4.68 7.2-10.8 7.2z"/><path id="Outlines" fill="#1d1d1b" fill-rule="evenodd" d="m80.288 255.439.046-.041c39.32-34.651 65.074-60.835 80.976-82.401 15.816-21.45 21.433-37.722 21.433-52.717 0-23.58-17.571-40.96-38.8-40.96-16.335 0-32.258 9.43-47.676 29.3-5.114 6.611-13.63 8.945-20.636 5.682a14.74 14.74 0 0 1-7.804-8.754c-1.341-4.012-.984-8.355.575-12.528C83.876 50.884 123.067 23 163.743 23c47.412 0 83.24 34.338 83.24 81.44 0 25.449-11.675 52.344-31.751 78.089-15.81 20.276-37.098 40.197-62.881 58.631h59.272c.71 0 1.727-.129 3.723-1.685 2.234-1.742 5.153-4.858 9.385-10.324 4.352-5.654 9.307-9.231 15.692-9.231 4.995 0 9.267 2.356 11.56 6.538 1.97 3.592 1.93 7.516 1.29 10.397l-.002.01-10.438 46.43-.003.015c-.974 4.369-3 8.698-7.521 11.248-3.818 2.154-8.2 2.202-11.086 2.202H88.143c-3.849 0-8.377-.817-11.86-4.183-3.542-3.424-4.42-7.944-4.42-11.737v-5.04c0-4.489.495-8.436 2.066-12.027 1.608-3.676 4.01-6.198 6.313-8.293zm154.735 26.121 10.44-46.44c.72-3.24-.36-7.2-5.04-7.2-2.88 0-5.76 1.44-9.36 6.12-8.64 11.16-13.68 15.12-19.44 15.12h-85.68a417 417 0 0 0 12.368-8c63.127-42.441 100.672-93.399 100.672-136.72 0-42.48-32.04-73.44-75.24-73.44-37.08 0-73.44 25.56-87.84 64.8-4.32 11.52 7.92 15.84 14.04 7.92 16.2-20.88 34.2-32.4 54-32.4 25.92 0 46.8 21.24 46.8 48.96 0 34.56-26.28 71.64-105.12 141.12-3.96 3.6-5.76 6.48-5.76 14.4v5.04c0 5.4 2.52 7.92 8.28 7.92h136.08c6.12 0 9.36-.72 10.8-7.2" clip-rule="evenodd"/></g></svg>