<svg xmlns="http://www.w3.org/2000/svg" fill="none" viewBox="0 0 320 320"><g id="numeral-six"><path id="lg-icon-fill-primary" fill="#42aeea" d="M160.46 284C104.066 284 66 241.704 66 179.319c0-89.878 78.247-154.38 166.01-151.207 11.984.353 14.451 16.213-1.057 17.976-48.64 5.992-94.813 39.828-112.436 81.771-1.057 2.82.352 5.287 3.172 2.467 10.574-10.221 29.959-17.975 48.992-17.975 48.993 0 83.182 33.484 83.182 81.771 0 52.517-38.419 89.878-93.403 89.878m.352-19.385c23.263 0 42.296-29.607 42.296-66.968 0-37.714-16.566-64.853-41.943-64.853-23.968 0-42.296 25.024-42.296 66.262 0 38.419 17.976 65.559 41.943 65.559"/><path id="Outlines" fill="#1d1d1b" fill-rule="evenodd" d="M122.601 119.23a111 111 0 0 0-4.084 8.629c-1.057 2.82.352 5.287 3.172 2.467q.408-.394.834-.784l.14-.128q1.32-1.198 2.796-2.343a55 55 0 0 1 3.331-2.389c11-7.3 26.56-12.331 41.891-12.331 48.993 0 83.182 33.484 83.182 81.771 0 52.517-38.419 89.878-93.403 89.878C104.066 284 66 241.704 66 179.319c0-89.878 78.247-154.38 166.01-151.207 11.984.353 14.451 16.213-1.057 17.976-45.257 5.575-88.377 35.255-108.352 73.142m109.296-65.198c-38.055 4.699-74.447 27.514-95.185 57.383 10.362-4.42 22.269-7.064 33.969-7.064 26.357 0 49.241 9.036 65.568 25.069 16.34 16.045 25.614 38.61 25.614 64.702 0 28.28-10.383 52.876-28.527 70.389C215.21 282.007 189.796 292 160.46 292c-30.311 0-56.138-11.425-74.32-31.589C68.025 240.319 58 212.124 58 179.319c0-95.062 82.681-162.5 174.275-159.203 9.761.301 17.142 7.307 17.509 16.122.182 4.367-1.45 8.714-4.817 12.04-3.315 3.273-7.874 5.156-13.07 5.754m-47.967 186.82c6.729-10.595 11.178-25.796 11.178-43.205 0-17.808-3.929-32.407-10.205-42.276-6.165-9.693-14.332-14.578-23.738-14.578-8.849 0-17.105 4.507-23.471 14.093-6.468 9.74-10.825 24.63-10.825 44.17 0 18.06 4.239 32.844 10.703 42.844 6.418 9.929 14.638 14.714 23.24 14.714 7.951 0 16.331-5.073 23.118-15.762m19.178-43.205c0 37.361-19.033 66.967-42.296 66.967-23.967 0-41.943-27.139-41.943-65.558 0-41.238 18.328-66.263 42.296-66.263 25.377 0 41.943 27.14 41.943 64.854" clip-rule="evenodd"/></g></svg>