<svg xmlns="http://www.w3.org/2000/svg" fill="none" viewBox="0 0 320 320"><g id="numeral-seven"><path id="lg-icon-fill-primary" fill="#42aeea" d="M132.993 284c-20.38 0-28.961-17.52-17.877-37.184L212.01 74.123c.715-1.788-.357-2.86-2.503-2.86H123.34c-12.514 0-17.162 2.145-23.598 10.368C88.3 96.648 86.512 98.078 81.865 98.078c-5.72 0-7.866-3.575-6.436-10.01l12.872-53.275C89.73 29.43 92.234 28 99.74 28h135.867c7.866 0 12.156 5.72 9.653 12.156l-80.089 214.168C158.021 273.631 146.937 284 132.993 284"/><path id="Outlines" fill="#1d1d1b" fill-rule="evenodd" d="M75.429 88.067 88.3 34.793C89.73 29.43 92.233 28 99.742 28h135.866c7.866 0 12.156 5.72 9.653 12.156l-80.089 214.168C158.021 273.631 146.937 284 132.993 284c-20.38 0-28.961-17.52-17.877-37.184L212.01 74.123c.715-1.788-.358-2.86-2.503-2.86H123.34c-12.514 0-17.162 2.145-23.598 10.368C88.3 96.648 86.512 98.078 81.865 98.078c-5.721 0-7.866-3.575-6.436-10.011m30.644-1.545c-5.552 7.286-9.326 12.057-12.436 14.884-1.705 1.55-3.589 2.883-5.86 3.72-2.284.842-4.352.952-5.912.952-4.47 0-9.607-1.481-12.664-6.32-2.742-4.343-2.473-9.413-1.582-13.426l.016-.072 12.911-53.437.025-.091c.95-3.567 2.743-7.664 7.107-10.237C91.44 20.275 95.894 20 99.742 20h135.866c5.837 0 11.449 2.163 15.023 6.745 3.657 4.688 4.236 10.732 2.108 16.255l-80.065 214.103-.006.014C165.041 277.701 151.897 292 132.993 292c-12.582 0-23.025-5.574-27.939-15.735-4.777-9.876-3.314-22.007 3.09-33.372l.003-.005 91.806-163.625H123.34c-5.972 0-8.882.548-10.838 1.414-1.78.79-3.568 2.195-6.429 5.845" clip-rule="evenodd"/></g></svg>