<svg xmlns="http://www.w3.org/2000/svg" fill="none" viewBox="0 0 320 320"><g id="numeral-three"><path id="lg-icon-fill-primary" fill="#42aeea" d="M154.756 284c-25.18 0-54.207-6.645-68.196-22.732-12.24-13.989-11.891-32.875 4.546-39.17 12.94-4.896 22.382 3.498 29.377 15.388 10.842 18.536 23.432 24.131 35.322 24.131 21.683 0 37.421-18.535 37.421-42.316 0-33.574-22.382-51.76-58.404-53.509l-12.241-.349c-4.896-.175-7.694-3.148-7.694-8.044v-2.448c0-4.896 2.798-7.869 7.694-8.044l20.634-.699c28.328-1.05 45.115-24.132 45.115-44.416 0-24.48-15.038-44.765-44.415-44.765-12.59 0-28.328 5.596-37.421 16.787-9.443 11.541-23.082 6.295-16.787-6.994C101.248 41.99 128.177 28 161.401 28c40.568 0 74.142 24.83 74.142 62.601 0 20.634-15.388 44.765-39.169 53.858 27.628 11.191 44.765 30.426 44.765 65.049 0 44.415-34.973 74.492-86.383 74.492"/><path id="Outlines" fill="#1d1d1b" fill-rule="evenodd" d="m122.582 146.907 20.633-.699c28.328-1.05 45.115-24.132 45.115-44.416 0-24.48-15.038-44.765-44.415-44.765-12.59 0-28.328 5.596-37.421 16.787-9.442 11.541-23.082 6.295-16.787-6.994C101.248 41.99 128.177 28 161.401 28c40.569 0 74.142 24.83 74.142 62.601 0 17.771-11.414 38.136-29.773 49.254a58.5 58.5 0 0 1-9.396 4.604c3.358 1.36 6.56 2.839 9.596 4.45 21.944 11.644 35.169 30.184 35.169 60.599 0 44.415-34.973 74.492-86.383 74.492-25.18 0-54.207-6.645-68.196-22.732-12.24-13.989-11.891-32.875 4.546-39.17 12.94-4.896 22.383 3.498 29.377 15.388 10.842 18.536 23.432 24.131 35.323 24.131 21.683 0 37.42-18.535 37.42-42.316 0-33.574-22.382-51.76-58.404-53.509l-12.24-.349c-4.897-.175-7.694-3.148-7.694-8.044v-2.448c0-4.896 2.797-7.869 7.694-8.044m11.931 26.88c16.812.828 29.413 5.446 37.709 12.809 8.123 7.208 13.004 17.825 13.004 32.705 0 20.413-13.137 34.316-29.42 34.316-4.62 0-9.248-1.065-13.837-3.912-4.645-2.882-9.66-7.846-14.58-16.258l-.005-.008-.005-.009c-3.782-6.429-8.704-12.79-15.176-16.754-6.893-4.223-15.071-5.411-23.928-2.06l-.015.006-.015.006c-11.105 4.253-17.27 13.203-18.138 23.497-.831 9.856 3.198 20.14 10.425 28.403 8.363 9.611 20.701 15.894 33.615 19.797 13.029 3.936 27.377 5.675 40.609 5.675 27.231 0 50.8-7.974 67.693-22.53 16.992-14.641 26.69-35.505 26.69-59.962 0-18.694-4.654-33.901-13.574-46.047-5.803-7.901-13.2-14.219-21.748-19.314 18.383-12.915 29.726-34.199 29.726-53.546 0-43.667-38.796-70.601-82.142-70.601-35.305 0-65.696 14.964-78.937 43.423-2.09 4.426-2.994 9.164-1.882 13.646 1.165 4.696 4.369 8.267 8.631 9.981 8.207 3.302 17.444-.802 23.473-8.17l.008-.01.009-.011c7.25-8.923 20.465-13.832 31.212-13.832 12.731 0 21.587 4.329 27.319 10.6 5.834 6.383 9.096 15.518 9.096 26.165 0 16.349-13.739 35.537-37.398 36.421h-.013l-20.616.699h-.007c-4.02.144-8.116 1.501-11.191 4.729-3.06 3.214-4.217 7.346-4.217 11.31v2.448c0 3.963 1.157 8.096 4.217 11.309 3.075 3.229 7.171 4.586 11.191 4.73l.029.001z" clip-rule="evenodd"/></g></svg>