<svg xmlns="http://www.w3.org/2000/svg" fill="none" viewBox="0 0 320 320"><g id="numeral-nine"><path id="lg-icon-fill-primary" fill="#42aeea" d="M106.922 283.992c-7.354.351-10.506-11.556-.7-14.708 40.272-13.307 73.191-37.471 94.552-85.097 1.401-3.152 0-4.903-1.751-3.152-12.607 12.607-32.568 18.911-50.778 18.911C98.167 199.946 67 164.576 67 117.3 67 72.475 98.167 28 158.401 28c63.035 0 94.202 47.626 94.202 101.206 0 95.604-75.992 151.284-145.681 154.786m49.728-102.957c26.615 0 43.774-27.665 43.774-68.988 0-35.02-15.759-64.786-40.272-64.786-29.417 0-42.374 33.969-42.374 66.887 0 30.817 9.105 66.887 38.872 66.887"/><path id="Outlines" fill="#1d1d1b" fill-rule="evenodd" d="M107.313 291.983h-.01c-8.754.417-14.16-6.507-15.083-12.885-.488-3.37.1-7.077 2.151-10.368 2.082-3.34 5.355-5.753 9.368-7.051 32.259-10.664 59.286-28.423 79.153-60.664-11.074 4.683-23.278 6.931-34.647 6.931-27.01 0-49.489-9.589-65.194-26.077C67.393 165.431 59 142.701 59 117.3c0-24.21 8.41-48.523 25.214-66.864C101.133 31.971 126.166 20 158.401 20c33.726 0 59.572 12.836 76.858 33.357 17.132 20.338 25.344 47.593 25.344 75.849 0 100.596-80.104 159.099-153.279 162.776zm82.664-103.7c-12.051 7.775-27.431 11.663-41.732 11.663C98.167 199.946 67 164.576 67 117.3 67 72.475 98.167 28 158.401 28c63.035 0 94.202 47.626 94.202 101.206 0 95.604-75.992 151.284-145.681 154.786-7.354.351-10.506-11.556-.7-14.708 37.475-12.383 68.582-34.166 89.935-75.508a190 190 0 0 0 4.617-9.589 7.5 7.5 0 0 0 .375-1.026c.7-2.481-.575-3.676-2.126-2.126a50 50 0 0 1-1.686 1.61l-.011.009a53 53 0 0 1-2.944 2.492 58 58 0 0 1-4.405 3.137m-8.227-30.512c6.567-10.416 10.674-26.036 10.674-45.724 0-16.435-3.718-31.14-9.826-41.447-6.082-10.264-13.903-15.34-22.446-15.34-10.969 0-19.249 6.093-25.204 16.948-6.075 11.073-9.17 26.354-9.17 41.94 0 14.832 2.221 30.239 7.525 41.621 5.177 11.11 12.594 17.266 23.347 17.266 10.089 0 18.678-5.078 25.1-15.264m18.674-45.724c0 41.323-17.159 68.988-43.774 68.988-29.767 0-38.872-36.07-38.872-66.887 0-32.918 12.957-66.887 42.374-66.887 24.513 0 40.272 29.766 40.272 64.786" clip-rule="evenodd"/></g></svg>