<svg xmlns="http://www.w3.org/2000/svg" fill="none" viewBox="0 0 320 320"><g id="numeral-eight"><path id="lg-icon-fill-primary" fill="#42aeea" d="M159.634 284C110.672 284 75 257.77 75 220.35c0-25.181 16.087-46.514 46.863-53.858 2.448-.7 2.099-2.099-.349-3.497-26.23-13.99-42.317-37.421-42.317-64.7C79.197 59.125 113.47 28 161.732 28c45.465 0 79.738 27.279 79.738 62.601 0 26.579-19.585 50.71-50.361 58.055-1.748.349-2.798 2.098-.699 3.147 36.022 17.487 55.257 36.722 55.257 65.399 0 38.47-34.973 66.798-86.033 66.798m1.399-19.235c21.683 0 38.819-15.738 38.819-37.77 0-22.733-18.885-40.918-57.53-54.558-14.688 12.59-21.858 27.629-21.858 46.164 0 27.279 17.137 46.164 40.569 46.164m-37.771-178.71c0 22.032 12.241 36.721 48.088 54.557 17.311-15.213 25.355-31.301 25.355-50.36 0-25.88-15.388-43.017-38.12-43.017-21.334 0-35.323 14.688-35.323 38.82"/><path id="Outlines" fill="#1d1d1b" fill-rule="evenodd" d="M191.109 148.656c-1.748.349-2.798 2.098-.699 3.147q.741.36 1.473.721l.169.084a233 233 0 0 1 5.253 2.673c31.576 16.582 48.362 35.131 48.362 61.921 0 38.47-34.973 66.798-86.033 66.798C110.672 284 75 257.77 75 220.35c0-23.205 13.662-43.143 39.892-51.876q.636-.211 1.28-.415 1.446-.453 2.941-.863l.187-.051a83 83 0 0 1 2.563-.653c2.448-.7 2.099-2.099-.349-3.497l-.557-.299-.211-.115a99 99 0 0 1-4.815-2.801c-22.911-14.218-36.734-36.199-36.734-61.485C79.197 59.125 113.47 28 161.732 28c45.465 0 79.738 27.279 79.738 62.601 0 24.525-16.675 46.966-43.43 56.058a77 77 0 0 1-5.934 1.752l-.056.014q-.469.119-.941.231m16.184 2.972c25.78-11.382 42.177-34.831 42.177-61.027C249.47 49.192 209.737 20 161.732 20c-51.582 0-90.535 33.684-90.535 78.295 0 26.466 13.483 49.314 35.28 64.802C81.011 173.794 67 195.228 67 220.35c0 43.844 41.571 71.65 92.634 71.65 53.578 0 94.033-30.223 94.033-74.798 0-29.227-17.536-49.138-46.374-65.574m-46.26 105.137c17.606 0 30.819-12.489 30.819-29.77 0-16.478-12.936-32.233-47.719-45.38-10.68 10.435-15.669 22.39-15.669 36.986 0 23.788 14.429 38.164 32.569 38.164m-18.711-84.328c38.645 13.64 57.53 31.825 57.53 54.558 0 22.032-17.136 37.77-38.819 37.77-23.432 0-40.569-18.885-40.569-46.164 0-18.535 7.17-33.574 21.858-46.164m27.691-41.485c-14.787-7.73-24.246-14.561-30.118-21.3-6.172-7.085-8.633-14.356-8.633-23.597 0-10.542 3.038-18.148 7.544-23.038 4.445-4.823 11.027-7.782 19.779-7.782 9.235 0 16.535 3.419 21.607 9.12 5.144 5.783 8.513 14.52 8.513 25.896 0 14.889-5.57 27.878-18.692 40.701m1.337 9.66c-35.847-17.836-48.088-32.525-48.088-54.557 0-24.132 13.989-38.82 35.323-38.82 22.732 0 38.12 17.137 38.12 43.016 0 19.06-8.044 35.148-25.355 50.361" clip-rule="evenodd"/></g></svg>