<svg xmlns="http://www.w3.org/2000/svg" fill="none" viewBox="0 0 320 320"><g id="numeral-zero"><path id="lg-icon-fill-primary" fill="#42aeea" d="M160 288c-64.647 0-94-66.098-94-128.35C66 96.7 96.402 32 160 32s94 64.7 94 127.65C254 221.902 224.647 288 160 288m0-19.235c23.413 0 41.933-42.667 41.933-109.115 0-67.147-18.52-108.415-41.933-108.415s-41.933 40.918-41.933 108.415c0 66.798 18.52 109.115 41.933 109.115"/><path id="Outlines" fill="#1d1d1b" fill-rule="evenodd" d="M82.002 251.455C65.568 225.549 58 191.867 58 159.65c0-32.606 7.848-66.132 24.433-91.776C99.181 41.978 125.014 24 160 24s60.819 17.978 77.567 43.874C254.152 93.518 262 127.044 262 159.65c0 32.217-7.568 65.899-24.002 91.805C221.393 277.63 195.55 296 160 296s-61.393-18.37-77.998-44.545m100.312-15.29c7.06-17.724 11.619-43.912 11.619-76.515 0-32.965-4.563-58.957-11.605-76.392-7.318-18.12-15.886-24.023-22.328-24.023-6.467 0-15.027 5.856-22.331 23.898-7.038 17.385-11.602 43.372-11.602 76.517 0 32.783 4.561 58.967 11.617 76.641 7.361 18.439 15.957 24.474 22.316 24.474 6.335 0 14.939-6.084 22.314-24.6M66 159.65C66 221.902 95.353 288 160 288s94-66.098 94-128.35C254 96.7 223.599 32 160 32c-63.598 0-94 64.7-94 127.65m135.933 0c0 66.448-18.52 109.115-41.933 109.115s-41.933-42.317-41.933-109.115c0-67.497 18.52-108.415 41.933-108.415s41.933 41.268 41.933 108.415" clip-rule="evenodd"/></g></svg>