<svg xmlns="http://www.w3.org/2000/svg" fill="none" viewBox="0 0 320 320"><g id="numeral-four"><path id="lg-icon-fill-primary" fill="#42aeea" d="M254.403 195.497c5.12 0 8.046 2.926 8.046 8.046v19.383c0 5.12-2.926 8.045-8.046 8.045h-31.086v44.983c0 5.12-2.926 8.046-8.046 8.046h-32.548c-5.12 0-8.046-2.926-8.046-8.046v-44.983H67.157c-7.68 0-12.068-9.874-6.948-17.554L178.334 38.971C184.186 30.194 186.746 28 195.157 28h18.469c6.217 0 9.691 3.474 9.691 9.691v157.806zM98.974 191.84c-1.828 2.56.366 3.657 1.829 3.657h73.874V77.92z"/><path id="Outlines" fill="#1d1d1b" fill-rule="evenodd" d="M60.209 213.417 178.335 38.971C184.186 30.194 186.746 28 195.157 28h18.469c6.217 0 9.691 3.474 9.691 9.691v157.806h31.086c5.12 0 8.046 2.926 8.046 8.046v19.383c0 5.12-2.926 8.045-8.046 8.045h-31.086v44.983c0 5.12-2.925 8.046-8.045 8.046h-32.549c-5.12 0-8.046-2.926-8.046-8.046v-44.983H67.157c-7.68 0-12.068-9.874-6.948-17.554m106.468 25.554h-99.52c-7.674 0-13.258-5.012-15.667-10.841-2.416-5.845-2.005-13.049 2.062-19.15l.017-.024L171.678 34.534l.016-.024c2.839-4.257 5.711-8.294 9.597-10.933 4.361-2.963 9.005-3.577 13.866-3.577h18.469c4.568 0 9.277 1.3 12.834 4.857s4.857 8.267 4.857 12.834v149.806h23.086c4.065 0 8.342 1.188 11.6 4.446s4.446 7.535 4.446 11.6v19.383c0 4.064-1.188 8.341-4.446 11.599s-7.535 4.446-11.6 4.446h-23.086v36.983c0 4.065-1.188 8.342-4.446 11.6S219.336 292 215.272 292h-32.549c-4.065 0-8.342-1.188-11.6-4.446s-4.446-7.535-4.446-11.6zm8-43.474V77.92L98.975 191.84c-1.829 2.56.365 3.657 1.828 3.657zm-63.211-8h55.211v-83.084z" clip-rule="evenodd"/></g></svg>