<svg xmlns="http://www.w3.org/2000/svg" fill="none" viewBox="0 0 320 320"><g id="numeral-one"><path id="lg-icon-fill-primary" fill="#42aeea" d="M93 72.29c0-6.062 1.781-8.557 7.482-9.984 36.696-9.27 54.51-15.688 69.117-24.958C176.725 32.713 178.15 32 181 32c3.919 0 6.769 2.852 6.769 7.13 0 5.706-2.137 57.761-2.137 74.876v131.208c0 16.758 4.809 21.928 17.813 23.176l15.32 1.783c5.166.713 6.235 5.17 6.235 9.983 0 4.457-1.781 7.844-5.522 7.844-16.567 0-27.433-.713-58.964-.713s-42.397.713-58.963.713c-3.741 0-5.523-3.387-5.523-7.844 0-4.813 1.07-9.27 6.235-9.983l15.32-1.783c13.004-1.248 17.814-6.418 17.814-23.176V104.022c0-14.262-8.195-22.106-23.871-22.106h-11.044c-4.988 0-7.482-2.852-7.482-9.626"/><path id="Outlines" fill="#1d1d1b" fill-rule="evenodd" d="m102.263 270.173 15.32-1.783c13.004-1.248 17.814-6.418 17.814-23.176V104.022c0-14.262-8.195-22.106-23.871-22.106h-11.044c-4.988 0-7.482-2.852-7.482-9.626 0-6.062 1.781-8.557 7.482-9.984 36.696-9.27 54.51-15.688 69.117-24.958C176.725 32.713 178.15 32 181 32c3.919 0 6.769 2.852 6.769 7.13 0 2.089-.286 10.387-.649 20.908-.629 18.224-1.488 43.118-1.488 53.968v131.208c0 16.758 4.809 21.928 17.813 23.176l15.32 1.783c5.166.713 6.235 5.17 6.235 9.983 0 4.457-1.781 7.844-5.522 7.844-6.962 0-12.918-.126-19.823-.272-9.526-.201-20.861-.441-39.141-.441s-29.614.24-39.141.441c-6.905.146-12.86.272-19.822.272-3.741 0-5.523-3.387-5.523-7.844 0-4.813 1.07-9.27 6.235-9.983m63.012-239.556c-13.437 8.52-30.165 14.69-66.744 23.93-3.55.89-7.57 2.497-10.351 6.245C85.467 64.446 85 68.722 85 72.29c0 4.098.704 8.699 3.622 12.349 3.234 4.046 7.802 5.277 11.86 5.277h11.044c6.602 0 10.318 1.65 12.353 3.552 1.946 1.817 3.518 4.951 3.518 10.554v141.192c0 8.031-1.248 11.117-2.283 12.414-.775.971-2.489 2.241-8.295 2.799l-.081.007-15.484 1.802-.085.012c-5.215.72-9.016 3.649-11.1 7.768-1.78 3.522-2.04 7.386-2.04 10.14 0 3.123.597 6.796 2.651 9.955 2.306 3.546 6.145 5.889 10.871 5.889 7.053 0 13.102-.128 20.01-.274l4.023-.084a1596 1596 0 0 1 34.93-.355c15.696 0 26.239.177 34.93.355l4.023.084c6.908.146 12.957.274 20.011.274 4.726 0 8.564-2.343 10.87-5.889 2.055-3.159 2.652-6.832 2.652-9.955 0-2.754-.26-6.618-2.041-10.14-2.084-4.119-5.884-7.048-11.1-7.768l-.084-.012-15.485-1.802-.08-.007c-5.807-.558-7.52-1.828-8.295-2.799-1.035-1.297-2.283-4.383-2.283-12.414V114.006c0-8.391.528-25.526 1.064-41.447.138-4.111.278-8.155.409-11.94.367-10.655.664-19.25.664-21.488 0-3.949-1.343-7.804-4.154-10.72C188.793 25.48 184.966 24 181 24c-2.515 0-4.763.402-7.515 1.703-2.185 1.032-4.798 2.695-8.21 4.914" clip-rule="evenodd"/></g></svg>