<svg xmlns="http://www.w3.org/2000/svg" fill="none" viewBox="0 0 320 320"><g id="numeral-five"><path id="lg-icon-fill-primary" fill="#42aeea" d="M155.635 284c-30.034 0-58.995-8.939-71.866-25.028-11.442-14.302-10.726-32.894 5.363-39.33 12.514-5.005 22.525 1.788 30.391 15.017 10.011 16.805 22.168 26.101 40.402 26.101 24.313 0 41.833-17.162 41.833-41.833 0-33.251-29.676-54.704-72.939-54.704H98.786c-6.079 0-8.224-4.648-7.509-9.296l17.699-120.67c.536-3.933 3.217-6.257 7.15-6.257H230.54c3.933 0 5.899 2.324 5.005 6.257l-6.078 30.749c-.894 3.933-3.575 6.257-7.508 6.257h-94.391c-3.933 0-6.615 2.324-7.151 6.257l-6.257 42.368h26.1c60.425 0 104.045 33.967 104.045 81.162 0 46.123-37.542 82.95-88.67 82.95"/><path id="Outlines" fill="#1d1d1b" fill-rule="evenodd" d="M229.467 65.006c-.894 3.933-3.575 6.257-7.508 6.257h-94.391c-3.933 0-6.615 2.324-7.151 6.257l-6.257 42.368h26.1c60.425 0 104.045 33.967 104.045 81.162 0 46.123-37.542 82.95-88.67 82.95-30.034 0-58.995-8.939-71.866-25.028-11.442-14.302-10.727-32.894 5.363-39.33 12.514-5.005 22.525 1.788 30.391 15.017 10.011 16.805 22.168 26.101 40.402 26.101 24.313 0 41.833-17.162 41.833-41.833 0-33.251-29.676-54.704-72.939-54.704H98.786c-6.079 0-8.224-4.648-7.509-9.296l17.698-120.67c.537-3.933 3.218-6.257 7.151-6.257H230.54c3.933 0 5.899 2.324 5.005 6.257zm13.908-29.104-6.082 30.766-.025.11c-.755 3.322-2.41 6.548-5.262 8.95-2.894 2.437-6.441 3.535-10.047 3.535h-93.713l-4.818 32.625h16.832c62.875 0 112.045 35.809 112.045 89.162 0 50.931-41.523 90.95-96.67 90.95-15.762 0-31.387-2.339-44.923-6.899-13.424-4.522-25.451-11.457-33.19-21.131-6.75-8.437-10.375-18.699-9.352-28.447 1.064-10.136 7.137-18.967 17.99-23.308 8.375-3.35 16.493-2.838 23.711 1.058 6.835 3.69 12.222 10.057 16.525 17.292 4.635 7.78 9.441 13.26 14.713 16.811 5.153 3.47 11.171 5.384 18.816 5.384 10.229 0 18.601-3.581 24.394-9.339 5.786-5.751 9.439-14.109 9.439-24.494 0-13.962-6.113-25.307-17.014-33.397-11.1-8.237-27.52-13.307-47.925-13.307H98.786c-5.297 0-9.98-2.164-12.88-6.351-2.663-3.847-3.112-8.377-2.54-12.13L101.054 33.13c.492-3.541 2.058-6.97 4.962-9.504 2.916-2.545 6.537-3.626 10.109-3.626H230.54c3.41 0 7.612 1.028 10.521 4.609 2.902 3.57 3.062 7.881 2.314 11.293" clip-rule="evenodd"/></g></svg>