<svg xmlns="http://www.w3.org/2000/svg" fill="none" viewBox="0 0 320 320"><g id="oil-pump"><path id="lg-icon-fill-primary" fill="#42aeea" d="M254.878 177.158a6.45 6.45 0 0 0 3.743-2.55c19.126-27.44 26.745-62.687 18.017-97.691-5.743-23.035-17.786-42.84-33.834-58.037-1.911-1.81-4.627-2.456-7.181-1.819l-18.129 4.52a8 8 0 0 0-5.827 9.698l12.096 48.515-56.316 14.041C172.533 96.515 176 101.852 176 108c0 3.404-1.063 6.56-2.876 9.154l56.445-14.073 17.264 69.243a6.636 6.636 0 0 0 8.045 4.834M268 212h24v80h-24zM41.348 125.275l105.429-26.287A15.93 15.93 0 0 0 144 108c0 6.209 3.537 11.593 8.707 14.245L47.154 148.562zm31.881 119.797A15.93 15.93 0 0 1 64 248a15.93 15.93 0 0 1-9.229-2.928C50.675 242.174 48 237.399 48 232c0-3.778 1.31-7.25 3.499-9.987L32.485 203c-16.647 16.647-16.647 43.637 0 60.285a42.6 42.6 0 0 0 11.683 8.294L36 292h56l-8.64-21.599a42.7 42.7 0 0 0 9.41-7.116l-18.783-18.784q-.37.297-.758.571"/><path id="Outlines" fill="#1d1d1b" fill-rule="evenodd" d="M234.656 13.18c3.802-.948 7.94-.005 10.898 2.796 16.586 15.705 29.032 36.176 34.965 59.973 3.149 12.63 4.239 25.293 3.481 37.631V208h12v80h12a4 4 0 0 1 0 8H12a4 4 0 0 1 0-8h21.292l6.345-15.862a46.8 46.8 0 0 1-8.98-7.025c-18.21-18.209-18.21-47.732 0-65.941l2.828-2.829 4.918 4.918A39.8 39.8 0 0 1 60 192.198v-42.716l-15.76 3.929-7.741-31.049 107.926-26.91C148.091 90.909 153.706 88 160 88c2.794 0 5.454.573 7.869 1.607l51.045-12.727-11.129-44.633c-1.603-6.431 2.31-12.944 8.741-14.547zM68 139.242V132a4 4 0 0 0-8 0v9.237l-9.932 2.476-3.871-15.524 94.068-23.454A20 20 0 0 0 140 108c0 4.614 1.562 8.863 4.187 12.247zm0 8.245v44.71c20.213 2.007 36 19.062 36 39.803a39.84 39.84 0 0 1-9.261 25.597l4.688 4.688-2.829 2.828a46.8 46.8 0 0 1-8.381 6.659L94.708 288h14.068l34.634-159.315zM86.092 288l-5.038-12.596a46.8 46.8 0 0 1-34.209.254L41.908 288zM276 112q.002-.513.123-.989c.471-10.884-.596-22.018-3.366-33.127-5.553-22.273-17.193-41.412-32.704-56.1-.864-.817-2.157-1.167-3.462-.842l-18.13 4.52a4 4 0 0 0-2.913 4.85l35.166 141.045a2.64 2.64 0 0 0 3.197 1.92 2.44 2.44 0 0 0 1.428-.957c11.992-17.204 19.303-37.575 20.661-58.998zm0 96v-57.674a124.7 124.7 0 0 1-14.098 26.569c-1.468 2.107-3.645 3.543-6.056 4.144-5.7 1.422-11.473-2.047-12.894-7.747l-16.297-65.362-51.2 12.766q-.235.285-.48.561L211.224 288H264v-80zm-116-80c2.807 0 5.478-.578 7.902-1.622L176.95 168h-33.9l9.016-41.473.241-.06A19.9 19.9 0 0 0 160 128m15.89-32.147A19.9 19.9 0 0 1 180 108c0 1.155-.098 2.287-.286 3.389l45.006-11.222-3.871-15.524zM148 108c0-6.627 5.373-12 12-12s12 5.373 12 12-5.373 12-12 12-12-5.373-12-12m55.037 180-6.957-32.001-.047.001H124l-.08-.001L116.963 288zM272 216h16v72h-16zm-146.341 32 6.956-32h54.77l6.956 32zm59.987-40h-51.292l6.957-32h37.378zM64 236a4 4 0 0 1-4-4v-11.317c-4.66 1.647-8 6.092-8 11.317 0 6.627 5.373 12 12 12s12-5.373 12-12c0-5.225-3.34-9.67-8-11.317V232a4 4 0 0 1-4 4m20-4c0-9.676-6.871-17.747-16-19.6v-12.152c15.785 1.968 28 15.433 28 31.752a31.87 31.87 0 0 1-6.947 19.911l-8.574-8.574A19.9 19.9 0 0 0 84 232m-39.91-25.053A31.84 31.84 0 0 1 60 200.248V212.4a19.9 19.9 0 0 0-7.337 3.121zm30.627 41.942A19.9 19.9 0 0 1 64 252c-11.046 0-20-8.954-20-20 0-3.943 1.141-7.62 3.111-10.717L33.63 207.802c-12.34 15.171-11.446 37.524 2.684 51.654s36.483 15.025 51.655 2.684z" clip-rule="evenodd"/></g></svg>