<svg xmlns="http://www.w3.org/2000/svg" fill="none" viewBox="0 0 320 320"><g id="oil-gas-platform"><path id="lg-icon-fill-primary" fill="#42aeea" d="M84 12H60v224h16l8 60v9.401c3.837 1.555 7.658 2.599 11 2.599 13.083 0 33.5-16 33.5-16s1.389 1.088 3.674 2.697L140 236h40l8 60v1.292c4.472-2.919 7.5-5.292 7.5-5.292s20.417 16 33.5 16c2.173 0 4.549-.442 7-1.178V296l8-60h16v-64H84z"/><path id="Outlines" fill="#1d1d1b" fill-rule="evenodd" d="M175.62 8h-31.24l-12.8 128H88v-24h20a4 4 0 0 0 0-8H88V80h20a4 4 0 0 0 0-8H88V48h20a4 4 0 0 0 0-8H88V8H56v32H36a4 4 0 0 0 0 8h20v24H36a4 4 0 0 0 0 8h20v24H36a4 4 0 0 0 0 8h20v24H28a4 4 0 0 0 0 8h28v24H28a4 4 0 0 0 0 8h28v24H36a4 4 0 0 0 0 8h20v24H44a4 4 0 0 0 0 8h28.498L80 296.266v2.949a94 94 0 0 1-4.614-2.573 123 123 0 0 1-10.584-7.074q-.421-.315-.635-.48l-.157-.121-.036-.028-.008-.006L61.5 287l-2.466 1.933-.008.006-.037.028-.156.121q-.214.165-.634.48a123 123 0 0 1-10.584 7.074c-3.264 1.937-6.85 3.828-10.346 5.225-3.548 1.418-6.73 2.215-9.269 2.215a4 4 0 0 0 0 8c4.003 0 8.278-1.203 12.238-2.786 4.011-1.603 7.984-3.711 11.46-5.774a131 131 0 0 0 9.802-6.451q.499.362 1.083.775a131 131 0 0 0 8.72 5.676c3.475 2.063 7.448 4.171 11.46 5.774 3.959 1.583 8.234 2.786 12.237 2.786s8.278-1.203 12.238-2.786c4.011-1.603 7.984-3.711 11.459-5.774a131 131 0 0 0 9.803-6.451q.499.362 1.083.775c1.077.763 2.367 1.652 3.816 2.606l1.868 1.315.013-.1c.96.608 1.972 1.231 3.023 1.855 3.475 2.063 7.448 4.171 11.459 5.774 3.96 1.583 8.235 2.786 12.238 2.786s8.278-1.203 12.238-2.786c3.372-1.347 6.717-3.052 9.762-4.787v.17l2.638-1.721a133 133 0 0 0 8.862-5.887q.499.362 1.083.775a131 131 0 0 0 8.72 5.676c3.475 2.063 7.448 4.171 11.459 5.774 3.96 1.583 8.235 2.786 12.238 2.786 3.477 0 7.159-.908 10.662-2.183l.338-.102v-.023q.624-.232 1.238-.478c4.011-1.603 7.984-3.711 11.459-5.774a131 131 0 0 0 9.803-6.451q.499.362 1.083.775a131 131 0 0 0 8.72 5.676c3.475 2.063 7.448 4.171 11.459 5.774 3.96 1.583 8.235 2.786 12.238 2.786a4 4 0 0 0 0-8c-2.538 0-5.721-.797-9.269-2.215-3.497-1.397-7.082-3.288-10.345-5.225a123 123 0 0 1-10.584-7.074q-.421-.315-.635-.48l-.069-.053-.088-.068-.036-.028-.008-.006L262.5 287l-2.466 1.933h-.001l-.007.006-.036.028-.157.121q-.214.165-.635.48a123 123 0 0 1-10.584 7.074c-2.726 1.619-5.677 3.205-8.614 4.498v-4.874L247.502 240H276a4 4 0 0 0 0-8h-12v-24h20a4 4 0 0 0 0-8h-20v-24h28a4 4 0 0 0 0-8h-28v-24h28a4 4 0 0 0 0-8h-25.528l32-64H224v64h-35.58zm8.247 287.268L176.498 240h-32.996l-7.049 52.872a120 120 0 0 0 5.933 3.77c3.263 1.937 6.848 3.828 10.345 5.225 3.548 1.418 6.731 2.215 9.269 2.215s5.721-.797 9.269-2.215c3.497-1.397 7.082-3.288 10.345-5.225q1.164-.692 2.253-1.374M64 232v-24h192v24zm24 63.734L80.57 240h54.862l-6.32 47.397-.612-.479-2.467 1.934-.007.005-.036.028-.055.043-.102.078q-.213.165-.634.481a123 123 0 0 1-10.584 7.073c-3.264 1.937-6.849 3.828-10.345 5.226C100.722 303.203 97.538 304 95 304c-1.986 0-4.364-.488-7-1.376zm103.26-5.553L184.569 240h54.863L232 295.734v7.96c-1.086.203-2.09.306-3 .306-2.538 0-5.721-.797-9.269-2.214-3.496-1.398-7.081-3.289-10.345-5.226a123 123 0 0 1-10.584-7.073q-.42-.316-.634-.481l-.105-.081-.052-.04-.044-.034-2.467-1.933-2.467 1.934-.003.002-.02.016-.091.07-.378.288c-.301.229-.734.553-1.281.953M64 48v24h16V48zm16-8V16H64v24zm0 40H64v24h16zm-16 32v24h16v-24zm116.38 24h-32.079l29.904-21.749zM64 168v-24h16v24zm24 0v-24h42.78l-2.4 24zm48.793-3.729L138.82 144h30.279zM232 144h24v24h-24zm-42.78 0H224v24h-32.38zm96.308-64-28 56H232V80zM64 176v24h192v-24zm111.144-92.365L177.18 104h-26.22zm-3.273-32.721L173.98 72h-22.536zm-3.065-30.655L170.78 40H154zM151.62 16H162l-11.977 15.97zm-4.942 49.423L148.42 48h15.136zm-3.464 34.642L145.22 80h21.82zM167.699 112H142.02l-2.014 20.141zm13.656 33.754L183.58 168h-37.679z" clip-rule="evenodd"/></g></svg>