<svg xmlns="http://www.w3.org/2000/svg" fill="none" viewBox="0 0 320 320"><g id="oil-drum"><g id="lg-icon-fill-primary" fill="#42aeea"><path d="M160 200c12.15 0 22-10.342 22-23.1S160 134 160 134s-22 30.142-22 42.9 9.85 23.1 22 23.1"/><path fill-rule="evenodd" d="M228 12h-40v16H68a8 8 0 1 0 0 16h8v248h-8a8 8 0 0 0 0 16h184a8 8 0 0 0 0-16h-8V44h8a8 8 0 0 0 0-16h-24zm-68 216c33.137 0 60-26.863 60-60s-26.863-60-60-60-60 26.863-60 60 26.863 60 60 60" clip-rule="evenodd"/></g><g id="Outlines" fill="#1d1d1b"><path d="m160 134 3.231-2.358-3.231-4.427-3.231 4.427z"/><path fill-rule="evenodd" d="M160 134c3.231-2.358 3.232-2.357 3.232-2.357l.001.002.018.024.051.07.192.266c.166.232.408.57.715 1.003.614.866 1.487 2.113 2.533 3.648a257 257 0 0 1 7.684 11.946c2.792 4.635 5.633 9.754 7.789 14.582 2.092 4.687 3.785 9.624 3.785 13.716 0 14.781-11.459 27.1-26 27.1s-26-12.319-26-27.1c0-4.092 1.693-9.029 3.785-13.716 2.156-4.828 4.997-9.947 7.789-14.582 2.8-4.648 5.593-8.88 7.684-11.946a242 242 0 0 1 2.533-3.648c.307-.433.549-.771.715-1.003l.083-.114.109-.152.051-.07.019-.026s.001-.001 3.232 2.357m-.133 7.163.133-.195.133.195a250 250 0 0 1 7.441 11.567c2.708 4.496 5.367 9.304 7.336 13.716 2.033 4.553 3.09 8.167 3.09 10.454 0 10.735-8.241 19.1-18 19.1s-18-8.365-18-19.1c0-2.287 1.057-5.901 3.09-10.454 1.969-4.412 4.628-9.22 7.336-13.716 2.7-4.482 5.407-8.583 7.441-11.567" clip-rule="evenodd"/><path fill-rule="evenodd" d="M232 8h-48v16H68c-6.627 0-12 5.373-12 12s5.373 12 12 12h4v72h-4a4 4 0 0 0 0 8h4v80h-4a4 4 0 0 0 0 8h4v72h-4c-6.627 0-12 5.373-12 12s5.373 12 12 12h184c6.627 0 12-5.373 12-12s-5.373-12-12-12h-4v-72h4a4 4 0 0 0 0-8h-4v-80h4a4 4 0 0 0 0-8h-4V48h4c6.627 0 12-5.373 12-12s-5.373-12-12-12h-20zm-8 16v-8h-32v8zM68 32a4 4 0 0 0 0 8h184a4 4 0 0 0 0-8zm12 16h160v72h-37.667c-11.282-9.958-26.102-16-42.333-16s-31.051 6.042-42.333 16H80zm0 80h30.037A63.73 63.73 0 0 0 96 168a63.73 63.73 0 0 0 14.037 40H80zm0 88h37.667c11.282 9.958 26.102 16 42.333 16s31.051-6.042 42.333-16H240v72H80zm160-8h-30.037A63.73 63.73 0 0 0 224 168a63.73 63.73 0 0 0-14.037-40H240zM68 296a4 4 0 0 0 0 8h184a4 4 0 0 0 0-8zm36-128c0-30.928 25.072-56 56-56s56 25.072 56 56-25.072 56-56 56-56-25.072-56-56" clip-rule="evenodd"/></g></g></svg>