<svg xmlns="http://www.w3.org/2000/svg" fill="none" viewBox="0 0 320 320"><g id="online-chat" fill-rule="evenodd" clip-rule="evenodd"><path id="lg-icon-fill-primary" fill="#42aeea" d="M308 52H12v160h152v-20.15c0-7.328 0-15.032.314-19.631.318-4.667.973-8.487 2.426-11.996 3.654-8.821 8.662-13.829 17.483-17.483 3.509-1.453 9.329-2.108 13.996-2.426 4.599-.314 6.303-.314 13.63-.314h.301c7.328 0 9.032 0 13.631.314 4.667.318 10.487.973 13.996 2.426 8.821 3.654 13.829 8.662 17.483 17.483 1.453 3.509 2.108 7.329 2.426 11.996.314 4.599.314 12.303.314 19.631V212h48zM60 76h80v40h17l-17 16v24H60zm152 0c-13.255 0-24 10.745-24 24s10.745 24 24 24 24-10.745 24-24-10.745-24-24-24"/><g id="Outlines" fill="#1d1d1b"><path d="M184 100c0-15.464 12.536-28 28-28s28 12.536 28 28-12.536 28-28 28-28-12.536-28-28m28-20c-11.046 0-20 8.954-20 20s8.954 20 20 20 20-8.954 20-20-8.954-20-20-20m-67.84-8v39.81H168l-23.84 23.809V160H56V72zm-8 47.81h12.509l-12.509 12.492V152H64V80h72.16z"/><path d="M311.996 19.695C311.834 13.209 306.525 8 300 8H20l-.305.004C13.209 8.166 8 13.474 8 20v224l.004.305C8.166 250.791 13.474 256 20 256h136v48h-52a4 4 0 0 0 0 8h112a4 4 0 0 0 0-8h-52v-48h136l.305-.004C306.791 255.834 312 250.525 312 244V20zM304 216v28l-.005.2A4 4 0 0 1 300 248H20l-.2-.005A4 4 0 0 1 16 244v-28zm-40-8h40V56H16v152h144v-20.15c0-7.328 0-13.032.314-17.631.318-4.667.973-8.487 2.426-11.996a36 36 0 0 1 19.483-19.483c3.509-1.453 7.329-2.108 11.996-2.426 4.599-.314 10.303-.314 17.631-.314h.3c7.328 0 13.032 0 17.631.314 4.667.318 8.487.973 11.996 2.426a36 36 0 0 1 19.483 19.483c1.453 3.509 2.108 7.329 2.426 11.996.314 4.598.314 10.302.314 17.629zm-8 0v-20c0-7.51-.002-12.942-.295-17.237-.291-4.259-.854-7.106-1.836-9.478a28 28 0 0 0-15.154-15.154c-2.372-.982-5.219-1.545-9.478-1.836-4.295-.293-9.727-.295-17.237-.295s-12.942.002-17.237.295c-4.259.291-7.106.854-9.478 1.836a28 28 0 0 0-15.154 15.154c-.982 2.372-1.545 5.219-1.836 9.478-.293 4.295-.295 9.727-.295 17.237v20zM20 16h280l.2.005A4 4 0 0 1 304 20v28H16V20l.005-.2A4 4 0 0 1 20 16"/></g></g></svg>