<svg xmlns="http://www.w3.org/2000/svg" fill="none" viewBox="0 0 320 320"><g id="online"><path id="lg-icon-fill-primary" fill="#42aeea" d="M286.226 220.629C295.054 202.285 300 181.72 300 160c0-77.32-62.68-140-140-140S20 82.68 20 160s62.68 140 140 140c21.582 0 42.023-4.883 60.278-13.605C215.054 278.871 212 269.785 212 260c0-25.957 21.49-47 48-47 9.678 0 18.688 2.805 26.226 7.629"/><g id="Outlines" fill="#1d1d1b"><path d="M236.162 258.194a3.964 3.964 0 0 1 5.609 0l11.218 11.225 25.24-25.257a3.966 3.966 0 0 1 5.609 0 3.97 3.97 0 0 1 0 5.613l-28.045 28.063a3.966 3.966 0 0 1-5.609 0l-14.022-14.032a3.97 3.97 0 0 1 0-5.612"/><path fill-rule="evenodd" d="M291.549 218.661C299.551 200.743 304 180.891 304 160c0-79.529-64.471-144-144-144S16 80.471 16 160s64.471 144 144 144c20.891 0 40.743-4.449 58.661-12.451C228.163 303.981 243.145 312 260 312c28.719 0 52-23.281 52-52 0-16.855-8.019-31.837-20.451-41.339M191.948 27.774c9.703 7.543 18.263 18.345 25.308 31.323 4.693 8.644 8.777 18.354 12.14 28.903h46.003c-18.598-29.745-48.377-51.782-83.451-60.226M280.03 96h-48.267c4.976 18.182 7.885 38.525 8.208 60h55.971c-.625-21.648-6.309-42.029-15.912-60m15.912 68h-55.971c-.27 17.974-2.352 35.155-5.942 50.94 7.642-4.414 16.512-6.94 25.971-6.94 8.959 0 17.388 2.265 24.747 6.255 6.736-15.468 10.68-32.432 11.195-50.255m-81.687 120.747a51.7 51.7 0 0 1-4.573-11.578c-5.333 7.582-11.28 14.04-17.734 19.058a135 135 0 0 0 22.307-7.48m-6.246-23.743A56 56 0 0 1 208 260c0-10.309 3-19.918 8.175-28H164v63.787c16.348-1.74 31.817-14.101 44.009-34.783m15.833-38.375q-.696.673-1.365 1.371H164v-60h67.97c-.327 21.135-3.235 41.018-8.128 58.629m-95.788 69.598c-9.704-7.544-18.264-18.346-25.309-31.324-4.693-8.644-8.777-18.354-12.14-28.903H44.601c18.598 29.746 48.378 51.783 83.453 60.227M39.97 224h48.268c-4.976-18.182-7.885-38.525-8.207-60H24.058c.625 21.648 6.31 42.029 15.912 60m-15.912-68H80.03c.322-21.475 3.231-41.818 8.207-60H39.97c-9.603 17.971-15.287 38.352-15.912 60M44.6 88h46.004c3.363-10.55 7.447-20.259 12.14-28.903 7.045-12.978 15.605-23.78 25.309-31.324C92.978 36.217 63.199 58.255 44.601 88m176.38 0c-3.057-9.151-6.675-17.57-10.756-25.087-12.505-23.035-28.87-36.852-46.225-38.7V88zM156 88V24.213c-17.354 1.848-33.719 15.664-46.224 38.7C105.695 70.431 102.077 78.85 99.02 88zm-59.455 8H156v60H88.031c.336-21.685 3.388-42.053 8.514-60m-8.514 68H156v60H96.545c-5.126-17.947-8.178-38.315-8.514-60m10.99 68H156v63.787c-17.354-1.848-33.719-15.665-46.224-38.7-4.081-7.518-7.699-15.936-10.756-25.087M164 96v60h67.97c-.336-21.685-3.388-42.053-8.514-60zm96 208c24.301 0 44-19.699 44-44s-19.699-44-44-44-44 19.699-44 44 19.699 44 44 44" clip-rule="evenodd"/></g></g></svg>