<svg xmlns="http://www.w3.org/2000/svg" fill="none" viewBox="0 0 320 320"><g id="options"><path id="lg-icon-fill-primary" fill="#42aeea" d="M100 28H28v72h72zm0 96H28v72h72z"/><g id="Outlines" fill="#1d1d1b"><path d="M84.828 54.828a4 4 0 1 0-5.656-5.656L58 70.343l-9.172-9.171a4 4 0 1 0-5.656 5.656l12 12a4 4 0 0 0 5.656 0z"/><path fill-rule="evenodd" d="M24 28a4 4 0 0 1 4-4h72a4 4 0 0 1 4 4v72a4 4 0 0 1-4 4H28a4 4 0 0 1-4-4zm8 68V32h64v64z" clip-rule="evenodd"/><path d="M124 48a4 4 0 0 0 0 8h167a4 4 0 0 0 0-8zm0 24a4 4 0 0 0 0 8h120a4 4 0 0 0 0-8zm-39.172 73.172a4 4 0 0 1 0 5.656l-24 24a4 4 0 0 1-5.656 0l-12-12a4 4 0 0 1 0-5.656 4 4 0 0 1 5.656 0L58 166.343l21.172-21.171a4 4 0 0 1 5.656 0"/><path fill-rule="evenodd" d="M28 120a4 4 0 0 0-4 4v72a4 4 0 0 0 4 4h72a4 4 0 0 0 4-4v-72a4 4 0 0 0-4-4zm4 8v64h64v-64z" clip-rule="evenodd"/><path d="M120 148a4 4 0 0 1 4-4h167a4 4 0 0 1 0 8H124a4 4 0 0 1-4-4m0 24a4 4 0 0 1 4-4h120a4 4 0 0 1 0 8H124a4 4 0 0 1-4-4"/><path fill-rule="evenodd" d="M28 216a4 4 0 0 0-4 4v72a4 4 0 0 0 4 4h72a4 4 0 0 0 4-4v-72a4 4 0 0 0-4-4zm4 8v64h64v-64z" clip-rule="evenodd"/><path d="M120 244a4 4 0 0 1 4-4h167a4 4 0 0 1 0 8H124a4 4 0 0 1-4-4m0 24a4 4 0 0 1 4-4h120a4 4 0 0 1 0 8H124a4 4 0 0 1-4-4"/></g></g></svg>