<svg xmlns="http://www.w3.org/2000/svg" fill="none" viewBox="0 0 320 320"><g id="org-chart"><path id="lg-icon-fill-primary" fill="#42aeea" d="M160 52c11.046 0 20-8.954 20-20s-8.954-20-20-20-20 8.954-20 20 8.954 20 20 20m-44 60c0-11.165 0-16.747 1.378-21.29a32 32 0 0 1 21.333-21.332C143.253 68 148.835 68 160 68s16.747 0 21.289 1.378a32 32 0 0 1 21.333 21.333C204 95.253 204 100.835 204 112v8h-88zm144 128c11.046 0 20-8.954 20-20s-8.954-20-20-20-20 8.954-20 20 8.954 20 20 20m-42.622 38.711C216 283.253 216 288.836 216 300v8h88v-8c0-11.164 0-16.747-1.378-21.289a32 32 0 0 0-21.333-21.333C276.747 256 271.165 256 260 256s-16.747 0-21.289 1.378a32 32 0 0 0-21.333 21.333M16 300c0-11.164 0-16.747 1.378-21.289a32 32 0 0 1 21.333-21.333C43.253 256 48.836 256 60 256s16.747 0 21.29 1.378a32 32 0 0 1 21.332 21.333C104 283.253 104 288.836 104 300v8H16zm44-60c11.046 0 20-8.954 20-20s-8.954-20-20-20-20 8.954-20 20 8.954 20 20 20"/><g id="Outlines" fill="#1d1d1b"><path fill-rule="evenodd" d="M160 56c13.255 0 24-10.745 24-24S173.255 8 160 8s-24 10.745-24 24 10.745 24 24 24m0-8c8.837 0 16-7.163 16-16s-7.163-16-16-16-16 7.163-16 16 7.163 16 16 16m.15 16c3.328 0 9.032 0 13.631.314 4.667.318 8.487.973 11.996 2.426a36 36 0 0 1 19.483 19.483c1.453 3.51 2.108 7.33 2.426 11.996.075 1.097.132 1.802.175 2.338.033.404.058.713.077 1.022.062 1.001.062 2.006.062 6.271V124h-96v-16.151c0-4.264 0-5.269.062-6.27.019-.309.044-.618.077-1.022.043-.537.1-1.241.175-2.338.318-4.666.973-8.487 2.426-11.996a36 36 0 0 1 19.483-19.483c3.509-1.453 7.329-2.108 11.996-2.426 4.599-.314 6.303-.314 13.63-.314zm-13.387 8.295c-4.259.29-7.106.854-9.478 1.836a28 28 0 0 0-15.154 15.154c-.982 2.372-1.545 5.22-1.836 9.478a109 109 0 0 1-.173 2.237c-.121 1.404-.122 1.418-.122 7v8h80v-8c0-5.582-.001-5.596-.122-6.999a109 109 0 0 1-.173-2.238c-.291-4.259-.854-7.106-1.836-9.478a28 28 0 0 0-15.154-15.154c-2.372-.982-5.219-1.545-9.478-1.836C168.942 72.002 163.51 72 160 72c-7.51 0-8.942.002-13.237.295" clip-rule="evenodd"/><path d="M168 136a4 4 0 0 0-8 0v20H56v28a4 4 0 0 0 8 0v-20h192v20a4 4 0 0 0 8 0v-28h-96z"/><path fill-rule="evenodd" d="M60 244c13.255 0 24-10.745 24-24s-10.745-24-24-24-24 10.745-24 24 10.745 24 24 24m0-8c8.837 0 16-7.163 16-16s-7.163-16-16-16-16 7.163-16 16 7.163 16 16 16m.15 16c3.328 0 9.032 0 13.631.314 4.666.318 8.487.973 11.996 2.426a36 36 0 0 1 19.483 19.483c1.453 3.509 2.108 7.329 2.426 11.996.075 1.097.132 1.802.175 2.338.033.404.058.713.077 1.022.062 1.001.062 2.006.062 6.27V312H12v-16.151c0-4.264 0-5.269.062-6.27.019-.309.044-.618.077-1.022.043-.536.1-1.241.175-2.338.318-4.667.973-8.487 2.426-11.996a36 36 0 0 1 19.483-19.483c3.51-1.453 7.33-2.108 11.996-2.426 4.599-.314 6.303-.314 13.63-.314zm-13.387 8.295c-4.259.291-7.106.854-9.478 1.836a28 28 0 0 0-15.154 15.154c-.982 2.372-1.545 5.219-1.836 9.478a108 108 0 0 1-.173 2.237c-.12 1.404-.122 1.418-.122 7v8h80v-8c0-5.582-.001-5.596-.122-7-.042-.484-.098-1.134-.173-2.237-.29-4.259-.854-7.106-1.836-9.478a28 28 0 0 0-15.154-15.154c-2.372-.982-5.22-1.545-9.478-1.836C68.942 260.002 63.51 260 60 260c-7.51 0-8.942.002-13.237.295M260 244c13.255 0 24-10.745 24-24s-10.745-24-24-24-24 10.745-24 24 10.745 24 24 24m0-8c8.837 0 16-7.163 16-16s-7.163-16-16-16-16 7.163-16 16 7.163 16 16 16m.15 16c3.328 0 9.032 0 13.631.314 4.667.318 8.487.973 11.996 2.426a36 36 0 0 1 19.483 19.483c1.453 3.509 2.108 7.329 2.426 11.996.075 1.096.132 1.8.175 2.337l.001.001v.002c.032.403.057.711.076 1.02.062 1.001.062 2.006.062 6.264V312h-96v-16.15c0-4.264 0-5.27.062-6.271.019-.309.044-.618.077-1.022.043-.537.1-1.241.175-2.338.318-4.667.973-8.487 2.426-11.996a36 36 0 0 1 19.483-19.483c3.509-1.453 7.329-2.108 11.996-2.426 4.599-.314 6.303-.314 13.63-.314zm-13.387 8.295c-4.259.291-7.106.854-9.478 1.836a28 28 0 0 0-15.154 15.154c-.982 2.372-1.545 5.219-1.836 9.478a108 108 0 0 1-.173 2.237c-.121 1.404-.122 1.418-.122 7v8h80v-8c0-5.582-.001-5.596-.122-7-.042-.484-.098-1.134-.173-2.237-.291-4.259-.854-7.106-1.836-9.478a28 28 0 0 0-15.154-15.154c-2.372-.982-5.219-1.545-9.478-1.836-4.295-.293-9.727-.295-13.237-.295-7.51 0-8.942.002-13.237.295" clip-rule="evenodd"/></g></g></svg>