<svg xmlns="http://www.w3.org/2000/svg" fill="none" viewBox="0 0 320 320"><g id="pencil"><path id="lg-icon-fill-primary" fill="#42aeea" d="m282 105-67-66L62 193s1.849 8.206 5 11.5c4.63 4.839 16 8.25 16 8.25s3.314 11.466 8 16.25 16 8.25 16 8.25 3.371 11.411 8 16.25c3.151 3.294 11 5.5 11 5.5zM65.46 254.165a49 49 0 0 0-20.974-12.273L31 289l46.96-13.993a49 49 0 0 0-12.5-20.842"/><path id="Outlines" fill="#1d1d1b" fill-rule="evenodd" d="M207.843 40.157c.104-.105.19-.2.285-.313C210.361 37.17 241.469 1.469 280 40s2.829 69.639.156 71.872c-.114.094-.209.18-.313.284L128.702 263.297a4 4 0 0 1-1.652.995l-95.829 29.486c-3.069.944-5.944-1.931-5-5l29.487-95.829a4 4 0 0 1 .994-1.652zM128 252q.325 0 .636.05l145.55-145.55c.289-.289.562-.536.842-.769.107-.09.298-.253.559-.487L260 89.657 112.077 237.58C112.87 245.675 119.696 252 128 252m-23.708-12.243c1.336 8.496 7.129 15.512 14.911 18.579L79.737 270.48c-2.528-6.858-6.441-12.259-11.535-17.516-5.221-5.387-11.651-9.807-18.711-12.608l12.172-39.56c3.067 7.783 10.084 13.576 18.58 14.912 1.654 12.498 11.551 22.395 24.049 24.049m-57.163 8.274c5.712 2.367 10.99 6.025 15.328 10.501 4.418 4.559 7.565 8.934 9.62 14.305L36.09 283.91zM213.5 45.813 67.95 191.364q.05.31.05.636c0 8.303 6.325 15.129 14.42 15.923L230.343 60l-15.588-15.587c-.233.26-.397.451-.486.558-.234.28-.48.554-.769.842M236 65.657 88.063 213.594c.77 9.774 8.568 17.572 18.342 18.343L254.343 84zm45.029 33.716c2.5-3.18 5.207-7.419 6.938-12.436 1.803-5.222 2.529-11.222.914-17.88-1.62-6.68-5.734-14.596-14.538-23.4s-16.721-12.918-23.4-14.538c-6.659-1.615-12.658-.89-17.881.913-5.017 1.732-9.255 4.439-12.435 6.938z" clip-rule="evenodd"/></g></svg>