<svg xmlns="http://www.w3.org/2000/svg" fill="none" viewBox="0 0 320 320"><g id="pensions-and-retirement"><path id="lg-icon-fill-primary" fill="#42aeea" fill-rule="evenodd" d="M160 180c16.518.139 40 15.878 40 34v74h-80v-74l.004-.517C120.28 197.153 143.604 180 160 180m0 48a8 8 0 1 0 0 16 8 8 0 0 0 0-16m0-198.657L275 145c1.562 1.562 3 6-2 10q-5 4-7.828.828L160 52.657 54.828 155.828C53.318 157.338 48 157 46 154q-2-3 0-10zM52 28c17.673 0 32 14.327 32 32S69.673 92 52 92 20 77.673 20 60s14.327-32 32-32" clip-rule="evenodd"/><g id="Outlines" fill="#1d1d1b"><path fill-rule="evenodd" d="M160 96c19.882 0 36 16.118 36 36s-16.118 36-36 36-36-16.118-36-36 16.118-36 36-36m-4 40h-23.716c1.754 12.263 11.454 21.963 23.717 23.717zm31.716 0H164v23.716c12.263-1.754 21.962-11.453 23.716-23.716m-31.715-31.717c-12.264 1.754-21.964 11.454-23.718 23.718L156 128zm7.999.001v23.715l23.716.001c-1.754-12.263-11.453-21.962-23.716-23.716M160 224c6.627 0 12 5.373 12 12s-5.373 12-12 12-12-5.373-12-12 5.373-12 12-12m0 8a4 4 0 1 0 0 8 4 4 0 0 0 0-8" clip-rule="evenodd"/><path d="M252 248.385c0-4.751 3.7-8.385 8-8.385s8 3.634 8 8.385a4 4 0 0 0 8 0c0-8.929-7.045-16.385-16-16.385s-16 7.456-16 16.385c0 1.263.239 2.784.513 4.234.26 1.382.605 2.966.962 4.606l.101.461q.249 1.138.498 2.314H244a4 4 0 0 0 0 8h3.506q.078.599.142 1.19c.425 3.904.289 6.906-.428 8.772-.325.844-.701 1.276-1.047 1.519-.334.236-.955.519-2.173.519a4 4 0 0 0 0 8h28a4 4 0 0 0 0-8h-17.022c1.135-3.582 1.041-7.833.624-11.675l-.037-.325H264a4 4 0 0 0 0-8h-9.756c-.285-1.408-.578-2.76-.851-4.016l-.095-.436c-.365-1.675-.686-3.146-.924-4.41-.27-1.432-.374-2.307-.374-2.753"/><path fill-rule="evenodd" d="m160 24 36 36V40.97h8v-12a4 4 0 0 1 8 0v12h8V84l56.485 56.485c4.608 4.608 4.685 12.032.231 16.734l-.231.237c-4.513 4.514-11.761 4.698-16.497.448l-.159-.147-.314-.301-7.515-7.515v58.671a52.4 52.4 0 0 1 8-.612c28.719 0 52 23.281 52 52s-23.281 52-52 52c-14.762 0-28.087-6.151-37.552-16.03H204v.03h-88v-.03l-88 .001a4 4 0 0 1 0-8h40V149.94l-7.515 7.516c-4.436 4.436-11.512 4.69-16.25.664l-.247-.216-.16-.147-.313-.301c-4.514-4.514-4.698-11.762-.449-16.498l.147-.159.302-.314zm56.155 263.97C210.993 279.894 208 270.296 208 260c0-23.136 15.11-42.744 36-49.492v-68.567l-84-84-84 83.999v146.031l40-.001V220c0-24.301 19.699-44 44-44s44 19.699 44 44v67.97zM160 184c-19.683 0-35.677 15.797-35.995 35.405L124 220v67.97h72V220c0-19.683-15.797-35.677-35.405-35.995zm0-148.686L49.172 146.142l-.151.16a4 4 0 0 0 .15 5.497l.16.151a4 4 0 0 0 5.497-.151L160 46.628l105.172 105.171.159.151a4 4 0 0 0 5.497-5.808zm44 13.657v18.687l8 8V48.97zM260 304c24.301 0 44-19.699 44-44s-19.699-44-44-44-44 19.699-44 44 19.699 44 44 44M52 24c19.882 0 36 16.118 36 36S71.882 96 52 96 16 79.882 16 60s16.118-36 36-36m0 8c-15.464 0-28 12.536-28 28s12.536 28 28 28 28-12.536 28-28-12.536-28-28-28" clip-rule="evenodd"/></g></g></svg>