<svg xmlns="http://www.w3.org/2000/svg" fill="none" viewBox="0 0 320 320"><g id="pension-pot-filled"><path id="lg-icon-fill-primary" fill="#42aeea" d="M112 256c0-8.837-7.163-16-16-16s-16 7.163-16 16 7.163 16 16 16 16-7.163 16-16m85.005 8.02-3.756-7.063-28.254 15.023 3.756 7.063zm-40.756-8.977 3.756-7.063-28.254-15.023-3.756 7.063zM200 229l.001-26.112a24 24 0 0 1-8.001 4.747V229zm-13-6c0-8.837-7.163-16-16-16s-16 7.163-16 16 7.163 16 16 16 16-7.163 16-16m-91-42v32h8v-32zm48 5c0-8.837-7.163-16-16-16s-16 7.163-16 16 7.163 16 16 16 16-7.163 16-16m8 13h8v-32h-8zm-36.995-54.98-3.756-7.063-28.254 15.023 3.756 7.063zM220 12H100a8 8 0 0 0-8 8v8a8 8 0 0 0 8 8h120a8 8 0 0 0 8-8v-8a8 8 0 0 0-8-8m4 168c11.046 0 20-8.954 20-20s-8.954-20-20-20-20 8.954-20 20 8.954 20 20 20m0 104c11.046 0 20-8.954 20-20s-8.954-20-20-20-20 8.954-20 20 8.954 20 20 20m-20-88h40v32h-40zM144 88h8V56h-8zm36 48c11.046 0 20-8.954 20-20s-8.954-20-20-20-20 8.954-20 20 8.954 20 20 20m-68-24v-8H80v8z"/><g id="Outlines" fill="#1d1d1b" fill-rule="evenodd" clip-rule="evenodd"><path d="m176 63.712 1.215-2.104 10.036 5.794 7.965-13.794 41.568 24L226.166 96H248v24h-15.263l7.086 13.328-7.685 4.087C241.387 140.748 248 149.602 248 160a23.9 23.9 0 0 1-6.111 16H248v72h-6.111A23.9 23.9 0 0 1 248 264c0 13.255-10.745 24-24 24-10.839 0-20.001-7.186-22.979-17.054l-35.578 18.916-6.235-11.725C156.496 288.419 147.134 296 136 296c-12.641 0-22.999-9.773-23.932-22.175A23.9 23.9 0 0 1 96 280c-13.255 0-24-10.745-24-24a23.9 23.9 0 0 1 6.111-16H72v-48h15.999l.001-6.56 8-4.253V213h8v-32l-7.65-.001.212-.113-13.119 6.976-11.267-21.19 7.46-3.968-7.46-14.032L98.329 136H72V96h30.731C96.264 91.7 92 84.349 92 76c0-13.255 10.745-24 24-24 8.412 0 15.812 4.329 20.098 10.88V48.06H152V48h24zM136 256c-8.837 0-16 7.163-16 16s7.163 16 16 16 16-7.163 16-16-7.163-16-16-16m88-8c-8.837 0-16 7.163-16 16s7.163 16 16 16 16-7.164 16-16-7.164-16-16-16m-58.557 23.862-.051-.094-.397.211 3.756 7.064 28.254-15.022-3.706-6.97zM96 240c-8.837 0-16 7.163-16 16s7.163 16 16 16 16-7.163 16-16-7.163-16-16-16m63.596 25.789 2.04-1.085-.732-1.376zm6.627-12.464-.789 1.483 3.266 6.14 27.857-14.81.05.093.398-.21-3.756-7.064zm34.14-.03 1.18 2.22a24 24 0 0 1 1.855-3.833zm-72.368-13.274 28.254 15.022 3.756-7.064-28.254-15.022zm-15.136-1.102a23.93 23.93 0 0 1 7.073 15.256 23.95 23.95 0 0 1 8.39-4.92l-11.146-5.927 4.968-9.346zM208 240h32v-8h-32zm-37-33c-8.837 0-16 7.163-16 16s7.163 16 16 16 16-7.163 16-16-7.163-16-16-16m-34.568 19.385 12.844 6.83A23.9 23.9 0 0 1 147 223q0-1.16.108-2.291zM96 232c1.304 0 2.583.104 3.83.304L96 225.103zm8.995-7.021 3.756 7.064 28.254-15.022-3.756-7.064zM80 232h8v-32h-8zm120-29.111a24 24 0 0 1-8 4.746v3.737c1.911 3.445 3 7.409 3 11.628 0 3.634-.607 5.676-.739 6.001L200 229zM208 224h32v-8h-32zm-63.999-20.112a24 24 0 0 1-3.525 2.619l6.806 12.803a23.9 23.9 0 0 1 5.829-12.31H144zm-32.002 8.306 7.235-3.845a24 24 0 0 1-7.234-4.46zM208 208h32v-8h-32zm-78.432-37.924A16 16 0 0 0 128 170c-8.837 0-16 7.163-16 16s7.163 16 16 16c1.469 0 2.892-.198 4.243-.568l4.314-2.294.153.286c4.388-2.853 7.29-7.8 7.29-13.424 0-6.256-3.591-11.673-8.823-14.304a23.8 23.8 0 0 1-5.609-1.62h.002l-.255-.11zM184 169c-8.837 0-16 7.163-16 16s7.163 16 16 16c8.806 0 15.95-7.114 16-15.908v-.184c-.05-8.794-7.194-15.908-16-15.908m-30.337-1.999-.402.305q-.615.455-1.26.872L152 199h8v-32zM208 192h32v-8h-32zM83.443 169.862l-.051-.094-.397.211 3.756 7.064 28.254-15.022-3.706-6.97zM224 144c-8.837 0-16 7.163-16 16s7.163 16 16 16 16-7.164 16-16-7.164-16-16-16m-23.235 23.826q.445.435.867.892a24 24 0 0 1-.533-1.519zm-38.786-12.879a24 24 0 0 1-1.489 3.75l-.154.303H168v8.111a24 24 0 0 1 7.959-4.731zM139 132c-8.837 0-16 7.163-16 16s7.163 16 16 16 16-7.163 16-16-7.163-16-16-16m26.993 16.021 28.254 15.023 3.756-7.064-.391-.208-.17.091-.134-.253-27.559-14.653zm-82.998 3.958 3.705 6.969 27.857-14.81.05.094.398-.211-3.756-7.064zm113.999-13.999 3.756 7.064 28.254-15.023-3.755-7.064zm-8.759.568a24 24 0 0 1-3.961 1.071l6.318 3.36zm-30.72-14.143a24.2 24.2 0 0 1-4.761 3.924 24.1 24.1 0 0 1 8.702 11.184l2.849-5.359a24.04 24.04 0 0 1-6.79-9.749M120 133.336a24.1 24.1 0 0 1 6.247-5.67 24.2 24.2 0 0 1-6.247-6.397zM180 100c-8.837 0-16 7.163-16 16s7.163 16 16 16 16-7.163 16-16-7.163-16-16-16M80 128h32v-8H80zm123.666-8a23.9 23.9 0 0 1-2.068 6.471L213.77 120zM140 92a15.93 15.93 0 0 0-9.698 3.273C126.472 98.197 124 102.81 124 108c0 8.837 7.163 16 16 16s16-7.163 16-16-7.163-16-16-16m-60 20h32v-8H80zm128-7.714V112h32v-8h-31.834zm-8-1.556v-.254l-.287-.166q.146.208.287.42M160.788 96a24 24 0 0 1 1.696 3.594A24 24 0 0 1 166.731 96zm51.996 0h7.857l-5.893-3.402zm-36.64-16.535 27.712 16 3.964-6.867-24.604-14.205.035-.063-3.107-1.794zM176 92.333a24.2 24.2 0 0 1 6.001-.249L176 88.618zM116 60c-8.837 0-16 7.163-16 16s7.163 16 16 16c3.568 0 6.862-1.17 9.523-3.144l.174-.13C129.528 85.802 132 81.19 132 76c0-8.837-7.163-16-16-16m44.098 28H168V56h-7.902zm34.081-16.598 24.605 14.206-.036.062 3.108 1.795 4-6.929-27.712-16zM144.098 84.35c2.835.487 5.5 1.472 7.902 2.86V56.06h-7.902z"/><path d="M224 8a8 8 0 0 1 8 8v16a8 8 0 0 1-7.751 7.996L224 40c22.091 0 40 17.909 40 40v184c0 19.351-13.742 35.493-31.999 39.199L232 304a8 8 0 0 1-8 8H96a8 8 0 0 1-8-8v-.8c-18.258-3.706-32-19.848-32-39.2V80c0-22.091 17.909-40 40-40a8 8 0 0 1-8-8V16a8 8 0 0 1 8-8zM103.996 40.249A8 8 0 0 1 96 48c-17.496 0-31.713 14.042-31.996 31.47L64 80v184c0 15.286 10.805 28.358 25.592 31.359a8 8 0 0 1 6.404 7.583l.004.259V304h128l.001-.81a8 8 0 0 1 6.408-7.831c14.639-2.972 25.375-15.812 25.588-30.901L256 264V80c0-17.673-14.327-32-32-32a8 8 0 0 1-7.991-7.627l-.008-.25-.002-.123H104zM96 32h128V16H96z"/></g></g></svg>