<svg xmlns="http://www.w3.org/2000/svg" fill="none" viewBox="0 0 320 320"><g id="pension-pot"><path id="lg-icon-fill-primary" fill="#42aeea" d="M112 256c0-8.837-7.163-16-16-16s-16 7.163-16 16 7.163 16 16 16 16-7.163 16-16m85.005 8.02-3.756-7.063-28.254 15.023 3.756 7.063zm-40.756-8.977 3.756-7.063-28.254-15.023-3.756 7.063zM200 229l.001-26.112a24 24 0 0 1-8.001 4.747V229zm-13-6c0-8.837-7.163-16-16-16s-16 7.163-16 16 7.163 16 16 16 16-7.163 16-16m-91-42v32h8v-32zm48 5c0-8.837-7.163-16-16-16s-16 7.163-16 16 7.163 16 16 16 16-7.163 16-16m8 13h8v-32h-8zm-36.995-54.98-3.756-7.063-28.254 15.023 3.756 7.063zM220 12H100a8 8 0 0 0-8 8v8a8 8 0 0 0 8 8h120a8 8 0 0 0 8-8v-8a8 8 0 0 0-8-8m4 168c11.046 0 20-8.954 20-20s-8.954-20-20-20-20 8.954-20 20 8.954 20 20 20m0 104c11.046 0 20-8.954 20-20s-8.954-20-20-20-20 8.954-20 20 8.954 20 20 20m-20-88h40v32h-40z"/><g id="Outlines" fill="#1d1d1b" fill-rule="evenodd" clip-rule="evenodd"><path d="m228.556 112.138-42.381 22.534 4.416 8.307-24.15-12.841-4.985 9.375C158.028 130.447 149.267 124 139 124c-8.231 0-15.495 4.144-19.819 10.461l-.185.274.073-.11-4.512-8.488-42.381 22.535 7.46 14.032-7.46 3.968 11.267 21.191 13.119-6.977-.211.113L104 181v32h-8v-31.814l-8 4.254-.001 6.56H72v48h6.111A23.9 23.9 0 0 0 72 256c0 13.255 10.745 24 24 24a23.9 23.9 0 0 0 16.068-6.175C113.001 286.227 123.359 296 136 296c11.134 0 20.497-7.581 23.208-17.863l6.235 11.726 35.577-18.917C203.999 280.814 213.16 288 224 288c13.255 0 24-10.745 24-24a23.9 23.9 0 0 0-6.111-16H248v-72h-6.111A23.9 23.9 0 0 0 248 160c0-10.398-6.613-19.252-15.862-22.585l7.686-4.087zm-58.807 28.819 27.559 14.653.134.253.171-.091.39.208-3.756 7.064-28.254-15.023zm55.5-18 3.755 7.064-28.254 15.023-3.756-7.064zm-63.27 31.99a24 24 0 0 1-1.489 3.751l-.154.302H168v8.111a24 24 0 0 1 7.959-4.731zm38.786 12.879q.446.435.867.892a25 25 0 0 1-.534-1.518zM240 160c0 8.837-7.164 16-16 16s-16-7.163-16-16 7.163-16 16-16 16 7.163 16 16m-32 24h32v8h-32zm-8 .908c-.05-8.794-7.194-15.908-16-15.908-8.837 0-16 7.163-16 16s7.163 16 16 16c8.806 0 15.95-7.114 16-15.908zM208 200v8h32v-8zm32 16v8h-32v-8zm-40 13-5.74.001c.132-.324.74-2.366.74-6.001 0-4.219-1.088-8.183-3-11.628v-3.737a24 24 0 0 0 8-4.746zm-5.756.001c-.016.061-.008.061.016 0zM208 232v8h32v-8zm0 32c0-8.837 7.163-16 16-16s16 7.163 16 16-7.164 16-16 16-16-7.163-16-16m-4.602-12.319-3.035 1.614 1.18 2.219a24 24 0 0 1 1.855-3.833M120 272c0-8.837 7.163-16 16-16s16 7.163 16 16-7.163 16-16 16-16-7.163-16-16m45.443-.137 27.856-14.812 3.706 6.969-28.254 15.023-3.756-7.063.397-.212zM80 256c0-8.837 7.163-16 16-16s16 7.163 16 16-7.163 16-16 16-16-7.163-16-16m79.596 9.789 1.309-2.461.731 1.376zm6.627-12.464 27.026-14.368 3.756 7.063-.398.211-.05-.094-27.857 14.811-3.266-6.14zm-38.228-13.305 3.756-7.063 28.254 15.023-3.756 7.063zm-15.136-1.101 9.285-4.937-4.968 9.346 11.146 5.926a23.95 23.95 0 0 0-8.39 4.921 23.92 23.92 0 0 0-7.073-15.256M155 223c0-8.837 7.163-16 16-16s16 7.163 16 16-7.163 16-16 16-16-7.163-16-16m-18.568 3.385 10.676-5.676A24 24 0 0 0 147 223c0 3.653.816 7.115 2.276 10.215zM96 232v-6.897l3.83 7.201A24 24 0 0 0 96 232m8.995-7.02 28.254-15.023 3.756 7.063-28.254 15.023zM80 200h8v32h-8zm60.476 6.507a24 24 0 0 0 3.525-2.619L144 207h9.111a23.9 23.9 0 0 0-5.829 12.31zm-28.477 5.687.001-8.305a24 24 0 0 0 7.234 4.46zm17.571-42.118-.255-.11.254.11Q128.794 170 128 170c-8.837 0-16 7.163-16 16s7.163 16 16 16c1.469 0 2.892-.198 4.243-.569l4.314-2.294.153.287c4.388-2.853 7.29-7.8 7.29-13.424 0-6.256-3.59-11.673-8.823-14.304a23.8 23.8 0 0 1-5.608-1.62zm22.431-1.899q.86-.555 1.667-1.179l-.005.003L160 167v32h-8zm-68.558 1.686 27.856-14.812 3.706 6.969-28.254 15.023-3.756-7.063.397-.212zM123 148c0-8.837 7.163-16 16-16s16 7.163 16 16-7.163 16-16 16-16-7.163-16-16m-40.005 3.98 28.254-15.023 3.756 7.063-.398.212-.05-.095L86.7 158.948z"/><path d="M88 16v16a8 8 0 0 0 8 8c-22.091 0-40 17.909-40 40v184c0 19.352 13.742 35.494 32 39.2v.8a8 8 0 0 0 8 8h128a8 8 0 0 0 8-8l.001-.8C250.258 299.493 264 283.351 264 264V80c0-22.091-17.909-40-40-40l.249-.004A8 8 0 0 0 232 32V16a8 8 0 0 0-8-8H96a8 8 0 0 0-8 8m16 24h111.999l.002.122.008.251A8 8 0 0 0 224 48c17.673 0 32 14.327 32 32v184l-.003.458c-.213 15.089-10.949 27.93-25.588 30.902a8 8 0 0 0-6.408 7.831L224 304H96v-.799l-.004-.259a8 8 0 0 0-6.404-7.582C74.804 292.358 64 279.286 64 264V80l.004-.53C64.287 62.043 78.504 48 96 48a8 8 0 0 0 7.996-7.75zm-8-24h128v16H96z"/></g></g></svg>