<svg xmlns="http://www.w3.org/2000/svg" fill="none" viewBox="0 0 320 320"><g id="people-settings"><path id="lg-icon-fill-primary" fill="#42aeea" fill-rule="evenodd" d="M166 164c18.778 0 34 15.222 34 34v24q-12.798 8.19-25.129 10.791C180.366 229.225 184 223.037 184 216v-20h-40v20c0 7.216 3.822 13.54 9.552 17.057Q140.776 230.637 128 222v-24c0-18.778 15.222-34 34-34zm-28 80h14c0 12 5 16 12 16s12-4 12-16h14c14.359 0 26 11.641 26 26v30H112v-30c0-14.359 11.641-26 26-26m85-164V52h40.5q8.25 0 16.5-12v40c0 11.046-8.954 20-20 20h8v16c0 8.837-7.163 16-16 16s-16-7.163-16-16v-16h7c-11.046 0-20-8.954-20-20M76 20c19.882 0 36 16.118 36 36v60H88v-16H64v16H40V56c0-19.882 16.118-36 36-36m8 32H68c-6.627 0-12 5.373-12 12v18c0 8.837 7.163 16 16 16h8c8.837 0 16-7.163 16-16V64c0-6.627-5.373-12-12-12" clip-rule="evenodd"/><g id="Outlines" fill="#1d1d1b"><path d="M260 266a6 6 0 1 0 0-12 6 6 0 0 0 0 12"/><path fill-rule="evenodd" d="M256 232a4 4 0 0 1 8 0v4.332c1.51.253 2.971.647 4.371 1.168l2.165-3.749a4 4 0 0 1 6.928 4l-2.167 3.755a24 24 0 0 1 3.197 3.197l3.755-2.167a4 4 0 1 1 4 6.928l-3.749 2.165c.521 1.4.915 2.861 1.168 4.371H288a4 4 0 0 1 0 8h-4.332a24 24 0 0 1-1.168 4.371l3.749 2.165a4 4 0 0 1-4 6.928l-3.755-2.167a24 24 0 0 1-3.197 3.198l2.167 3.754a4 4 0 1 1-6.928 4l-2.165-3.749c-1.4.521-2.861.915-4.371 1.168V288a4 4 0 0 1-8 0v-4.332a24 24 0 0 1-4.371-1.168l-2.165 3.749a4 4 0 0 1-6.928-4l2.167-3.755a24 24 0 0 1-3.198-3.197l-3.754 2.167a4 4 0 1 1-4-6.928l3.749-2.165a24 24 0 0 1-1.168-4.371H232a4 4 0 0 1 0-8h4.332c.253-1.51.647-2.971 1.168-4.371l-3.749-2.165a4 4 0 0 1 4-6.928l3.755 2.167a24 24 0 0 1 3.197-3.197l-2.167-3.755a4 4 0 1 1 6.928-4l2.165 3.749c1.4-.521 2.861-.915 4.371-1.168zm20 28c0 8.837-7.163 16-16 16s-16-7.163-16-16 7.163-16 16-16 16 7.163 16 16" clip-rule="evenodd"/><path fill-rule="evenodd" d="M160 160c22.091 0 40 17.909 40 40v24.092l-1.718 1.193c-6.016 4.178-13.811 7.058-22.28 8.641L176 240h10c9.154 0 17.351 4.1 22.854 10.565 3.951-21.558 21.197-38.468 42.925-41.919a103 103 0 0 0 10.289-29.375 4 4 0 0 1 7.864 1.473 111 111 0 0 1-8.879 27.266C289.286 208.571 312 231.633 312 260c0 28.719-23.281 52-52 52-18.526 0-34.789-9.688-44-24.275V304H104v-34c0-16.569 13.431-30 30-30h10l-.001-6.073c-8.469-1.583-16.265-4.464-22.281-8.642L120 224.092V200c0-22.091 17.909-40 40-40m-16 88h-10c-12.15 0-22 9.85-22 22v26h96v-26c0-12.029-9.654-21.803-21.636-21.997L186 248h-10c0 8.837-7.163 16-16 16s-16-7.163-16-16m24-9.366a24 24 0 0 1-8 1.366c-2.805 0-5.497-.481-7.999-1.365L152 248a8 8 0 0 0 16 0zm-8-25.689a11.96 11.96 0 0 1-8 3.055h-4c-1.403 0-2.749-.241-4-.683V216c0 8.837 7.163 16 16 16s16-7.163 16-16l.001-.683A12 12 0 0 1 172 216h-4a11.96 11.96 0 0 1-8-3.055M160 168c-17.673 0-32 14.327-32 32v19.828l.359.217c2.685 1.586 5.73 2.915 9.018 3.987A24 24 0 0 1 136 216v-16a4 4 0 0 1 0-8h48a4 4 0 0 1 0 8v16c0 2.817-.485 5.52-1.377 8.031 3.288-1.07 6.333-2.4 9.018-3.986l.359-.217V200c0-17.496-14.042-31.713-31.471-31.996zm16 32h-12v4a4 4 0 0 0 3.8 3.995l.2.005h4a4 4 0 0 0 4-4zm-20 0h-12v4a4 4 0 0 0 3.8 3.995l.2.005h4a4 4 0 0 0 4-4zm104 104c24.301 0 44-19.699 44-44s-19.699-44-44-44-44 19.699-44 44 19.699 44 44 44" clip-rule="evenodd"/><path d="M53.264 176.076a4 4 0 0 1 4.668 3.195c5.155 27.523 21.284 51.707 44.421 67.203a4 4 0 0 1-4.452 6.647c-24.91-16.684-42.279-42.726-47.833-72.377a4 4 0 0 1 3.196-4.668"/><path fill-rule="evenodd" d="M280 24v24h4c6.525 0 11.834 5.209 11.996 11.695L296 60v8c0 6.627-5.373 12-12 12h-4c0 8.883-4.826 16.64-12 20.789V112h6c16.569 0 30 13.431 30 30v26H192v-26c0-16.569 13.431-30 30-30h6l.001-11.21C220.827 96.64 216 88.884 216 80V48c0-13.255 10.745-24 24-24zm-51.6 96.001L222 120c-12.15 0-22 9.85-22 22v18h96v-18c0-12.029-9.654-21.803-21.636-21.997L274 120l-6.4.001C265.746 129.129 257.676 136 248 136s-17.746-6.871-19.6-15.999m31.601-16.333A24 24 0 0 1 256 104h-16c-1.363 0-2.699-.114-4-.332V116c0 6.627 5.373 12 12 12s12-5.373 12-12zm12-54.422C266.827 53.6 259.647 56 252 56h-20a8 8 0 0 0-8 8v16c0 8.837 7.163 16 16 16h16c8.837 0 16-7.163 16-16zM284 56h-4v16h4a4 4 0 0 0 4-4v-8a4 4 0 0 0-4-4m-12-24h-32c-8.837 0-16 7.163-16 16v2.14a15.93 15.93 0 0 1 8-2.14h20c10.838 0 19.799-6.13 19.997-15.677zM72 16c22.091 0 40 17.909 40 40l.001 59.461C121.516 120.491 128 130.488 128 142v26H16v-26c0-11.512 6.484-21.51 16-26.54V56c0-22.091 17.909-40 40-40M56 120H46c-12.15 0-22 9.85-22 22v18h96v-18c0-12.029-9.654-21.803-21.636-21.997L98 120H88c0 8.837-7.163 16-16 16s-16-7.163-16-16m24-17.366A24 24 0 0 1 72 104c-2.805 0-5.497-.481-8-1.365V120a8 8 0 0 0 16 0zM72 24c-17.673 0-32 14.327-32 32v56.6c1.939-.393 3.945-.6 6-.6h10V97.889C51.09 93.494 48 87.108 48 80V64c0-8.837 7.163-16 16-16h16c8.837 0 16 7.163 16 16v16c0 7.108-3.09 13.493-7.999 17.888L88 112h10c2.055 0 4.062.207 6.001.6L104 56c0-17.673-14.327-32-32-32m8 32H64a8 8 0 0 0-8 8v16c0 8.837 7.163 16 16 16s16-7.163 16-16V64a8 8 0 0 0-8-8" clip-rule="evenodd"/><path d="M160 48c15.938 0 31.415 3.334 45.656 9.699a4 4 0 0 1-3.264 7.304C189.172 59.094 174.808 56 160 56c-11.952 0-23.623 2.015-34.653 5.912a4 4 0 0 1-2.665-7.543C134.565 50.17 147.137 48 160 48"/></g></g></svg>