<svg xmlns="http://www.w3.org/2000/svg" fill="none" viewBox="0 0 320 320"><g id="people-search" fill-rule="evenodd" clip-rule="evenodd"><path id="lg-icon-fill-primary" fill="#42aeea" d="M267.867 212.642C275.638 196.748 280 178.883 280 160c0-66.274-53.726-120-120-120S40 93.726 40 160c0 37.433 17.14 70.863 44 92.87V248c0-33.838 0-50.757 9.584-61.978a40 40 0 0 1 4.438-4.438C109.243 172 126.162 172 160 172s50.757 0 61.978 9.584a40 40 0 0 1 4.438 4.438c6.29 7.364 8.452 17.183 9.195 32.627C242.758 214.424 251.096 212 260 212c2.679 0 5.308.22 7.867.642M160 148c19.882 0 36-16.118 36-36s-16.118-36-36-36-36 16.118-36 36 16.118 36 36 36"/><g id="Outlines" fill="#1d1d1b"><path d="M120 112c0-22.091 17.909-40 40-40s40 17.909 40 40-17.909 40-40 40-40-17.909-40-40m40-32c-17.673 0-32 14.327-32 32s14.327 32 32 32 32-14.327 32-32-14.327-32-32-32"/><path d="M218.661 291.549c-15.786 7.05-33.074 11.342-51.251 12.264a147 147 0 0 1-20.855-.432 143.15 143.15 0 0 1-65.038-22.628L80 279.77v-.019C41.409 253.919 16 209.927 16 160 16 80.471 80.471 16 160 16s144 64.471 144 144c0 20.891-4.449 40.743-12.451 58.661C303.981 228.163 312 243.145 312 260c0 28.719-23.281 52-52 52-16.855 0-31.837-8.019-41.339-20.451m-51.662 4.274Q163.521 296 160 296c-4.242 0-8.439-.194-12.582-.574A135.2 135.2 0 0 1 88 275.399V248c0-17.02.007-29.423 1.169-38.988 1.15-9.472 3.382-15.622 7.456-20.392a36 36 0 0 1 3.995-3.995c4.77-4.074 10.92-6.306 20.392-7.456C130.577 176.007 142.98 176 160 176s29.423.007 38.988 1.169c9.472 1.15 15.622 3.382 20.392 7.456a36 36 0 0 1 3.995 3.995c4.074 4.77 6.306 10.92 7.456 20.392.282 2.322.496 4.811.659 7.494C217.342 225.798 208 241.808 208 260c0 8.959 2.265 17.388 6.255 24.747-14.598 6.358-30.529 10.228-47.256 11.076m117.748-81.568C291.986 197.634 296 179.286 296 160c0-75.11-60.889-136-136-136S24 84.89 24 160c0 45.209 22.059 85.265 56 109.994V247.72c0-16.682 0-29.57 1.227-39.673 1.246-10.252 3.805-18.172 9.315-24.623a44 44 0 0 1 4.882-4.882c6.451-5.509 14.371-8.069 24.623-9.315C130.15 168 143.038 168 159.72 168h.56c16.682 0 29.57 0 39.673 1.227 10.252 1.246 18.172 3.806 24.623 9.315a44 44 0 0 1 4.882 4.882c5.509 6.451 8.069 14.371 9.315 24.623q.25 2.06.435 4.276A51.8 51.8 0 0 1 260 208c8.959 0 17.388 2.265 24.747 6.255M260 304a43.82 43.82 0 0 0 28.156-10.187l-18.25-18.25A23.9 23.9 0 0 1 256 280c-13.255 0-24-10.745-24-24s10.745-24 24-24 24 10.745 24 24a23.9 23.9 0 0 1-4.437 13.906l18.25 18.25A43.82 43.82 0 0 0 304 260c0-24.301-19.699-44-44-44s-44 19.699-44 44 19.699 44 44 44m-20-48c0-8.837 7.163-16 16-16s16 7.163 16 16-7.163 16-16 16-16-7.163-16-16"/></g></g></svg>