<svg xmlns="http://www.w3.org/2000/svg" fill="none" viewBox="0 0 320 320"><g id="people"><path id="lg-icon-fill-primary" fill="#42aeea" d="M244 105.943c9.772-8.07 16-20.28 16-33.943 0-24.3-19.699-44-44-44s-44 19.7-44 44c0 13.663 6.228 25.872 16 33.943V112c0 7.108 3.09 13.494 8 17.889V157c0 9.763 20 19 20 19s20-9.237 20-19v-27.111c4.91-4.395 8-10.781 8-17.889zM28 195c35.67-16.646 49.173-25.375 56-29.953V177c0 10.002 20 19 20 19s20-8.998 20-19v-10.742c7.506 4.85 21.816 13.46 55 28.742v97H28z"/><path id="Outlines" fill="#1d1d1b" d="M24 296v-93.333c0-12.943 10.47-16.289 24-21.33V96c0-30.619 24.573-55.498 55.074-55.992L104 40c30.928 0 56 25.072 56 56l.001 61.337c9.993-3.723 21.654-8.372 31.998-18.495v-9.677A31.88 31.88 0 0 1 184 108l-.001-4.224-.17-.152C174.108 94.84 168 82.134 168 68c0-26.51 21.49-48 48-48s48 21.49 48 48c0 14.216-6.18 26.988-15.999 35.777L248 108a31.88 31.88 0 0 1-7.999 21.165l-.001 9.677c24.35 23.83 56 17.321 56 39.825V296zm215.999-146.494.001 3.827q0 17.334-24 26.667-24-9.333-24-26.667l.001-3.827a79 79 0 0 1-10.267 6.892c-3.848 2.176-7.818 4.043-12.373 5.897l-.919.371c-.442.177-1.035.408-1.719.671l-3.891 1.478-2.83 1.061v15.462c13.529 5.04 23.998 8.386 23.998 21.329v85.332L288 288V178.667c0-5.124-2.321-7.438-11.712-11.162l-1.77-.684c-.939-.351-3.117-1.165-5.35-2.006l-3.283-1.245c-.836-.32-1.575-.606-2.128-.825l-.199-.079c-4.944-1.977-9.188-3.947-13.292-6.268a79 79 0 0 1-10.267-6.892M80.001 173.504l-.574.453a79 79 0 0 1-9.693 6.441c-3.848 2.176-7.818 4.043-12.373 5.897l-.92.371c-.378.152-.868.343-1.43.56l-.288.111-3.89 1.478-5.823 2.183-1.286.502c-9.263 3.672-11.654 5.972-11.722 10.942L32 288h144v-85.333c0-5.124-2.321-7.438-11.712-11.162l-1.77-.684-2.28-.853-.242-.091-.003-.001-.027-.01-.361-.135-1.261-.474-.226-.084-.455-.172-.495-.186-3.283-1.245-.334-.128-.705-.271-.265-.103-.287-.112-.294-.115-.027-.011-.216-.085-.199-.079c-4.944-1.977-9.188-3.947-13.292-6.268a79 79 0 0 1-10.268-6.893l.002-.172q0 17.334-24 26.667-23.881-9.288-24-26.496m40-17.575c-4.771 2.768-10.339 4.357-16.287 4.357-5.71 0-11.072-1.465-15.714-4.033v17.08c0 7.059 4.696 12.915 15.494 17.786l.506.225.019-.007c10.989-4.846 15.845-10.676 15.978-17.706l.003-.298zM104 48c-26.51 0-48 21.49-48 48l.001 82.199c7.911-3.342 16.319-7.841 24-15.358l-.002-12.853c-5.148-5.562-8.285-12.943-8.285-21.042v-29.16h.026c.678-16.114 14.734-19.5 31.974-19.5l1.031.004c16.766.136 30.279 3.704 30.944 19.495h.025v29.161c0 7.795-2.905 14.925-7.713 20.408L128 162.838c7.681 7.519 16.088 12.018 24 15.361V96c0-26.51-21.49-48-48-48m95.999 87.719.001 17.614c0 7.059 4.696 12.915 15.494 17.786l.506.225.019-.007c10.989-4.846 15.845-10.676 15.978-17.706l.003-.298v-17.614A31.85 31.85 0 0 1 216 140a31.85 31.85 0 0 1-16.001-4.281m-96.285-47.433c-8.611 0-14.728.927-18.636 2.87-3.433 1.707-5.062 4.117-5.327 8.607l-.033.611-.004.043v28.529c0 12.724 10.495 23.13 23.602 23.337l.398.003c13.292 0 24-10.487 24-23.34v-28.518l-.004-.054-.014-.252c-.199-4.722-1.822-7.214-5.346-8.966-3.812-1.895-9.727-2.824-18.01-2.869zM216 68c-8.574 0-14.657.947-18.541 2.93-3.458 1.763-5.14 4.314-5.419 9.044l-.026.496-.014.183V108c0 13.122 10.531 23.785 23.603 23.997L216 132c13.255 0 24-10.745 24-24V80.664l-.006-.066-.015-.256c-.213-4.966-1.891-7.604-5.438-9.413-3.79-1.933-9.672-2.882-17.918-2.927zm0-40c-22.091 0-40 17.909-40 40a39.83 39.83 0 0 0 8 24.004V80l.028-.001C184.739 63.475 198.781 60 216 60l1.029.004c16.746.14 30.247 3.801 30.943 19.995L248 80l-.001 14.106.002-2.103A39.82 39.82 0 0 0 256 68c0-22.091-17.909-40-40-40"/></g></svg>