<svg xmlns="http://www.w3.org/2000/svg" width="320" height="320"><g fill="none" fill-rule="evenodd"><path d="M64.52 194.027c-7.68-3.488-14.23-9.46-14.23-19.657v-53.843c0-4.651 3.53-8.209 7.6-8.209a7.132 7.132 0 012.16.338 86.547 86.547 0 0026.41 4.353h3.08a86.56 86.56 0 0026.46-4.353 7.194 7.194 0 012.16-.338c4.06 0 7.6 3.558 7.6 8.209v53.843c0 10.196-6.55 16.17-14.23 19.657 4.12 19.37 25.26 24.467 25.26 24.467l3 .994v-92.76c-.172-13.388-5.699-26.157-15.36-35.488-20.203-19.606-52.457-19.606-72.66 0-9.693 9.31-15.256 22.073-15.46 35.468v92.75l3-.993s21.09-5.069 25.21-24.438z"/><path d="M105.67 187.826c10.8-3.975 12-9.56 12-13.446v-53.943a93.959 93.959 0 01-28.17 4.522h-3.04a93.959 93.959 0 01-28.17-4.522v53.933c0 3.886 1.24 9.5 12 13.446a61.053 61.053 0 0017.71 3.2 61.05 61.05 0 0017.67-3.19zM222.43 46.142h3.14a88.287 88.287 0 0026.89-4.403 7.172 7.172 0 012.2-.348c4.14 0 7.74 3.618 7.74 8.358v21.804c2.6 0 4.8-2.982 4.8-6.48v-8.516A52.534 52.534 0 00254 21.863c-8.1-8.944-18.76-13.913-30-13.913-11.24 0-21.91 4.97-30 13.913a52.531 52.531 0 00-13.18 34.733v8.517c-.01 3.458 2.18 6.44 4.78 6.44V49.689c0-4.74 3.6-8.357 7.74-8.357.747 0 1.49.117 2.2.348a88.293 88.293 0 0026.89 4.462zm41.72 106.842a53.523 53.523 0 01-5.63-3.3c-8.77-5.962-14.4-13.724-16.6-22.857A72.371 72.371 0 01224 129.58a72.436 72.436 0 01-17.92-2.792c-2.2 9.172-7.83 16.983-16.6 22.857a53.697 53.697 0 01-5.63 3.3c11.08 7.343 29.53 17.987 40.15 17.987 10.62 0 29.08-10.644 40.15-17.948z"/><path d="M307.93 171.16c-4.75-4.223-15.49-8.805-32.84-14.012-.41-.1-1.13-.288-2.06-.577-7.57 5.287-33.18 22.311-49 22.311s-41.46-17.024-49-22.31c-.93.288-1.65.476-2.06.576-11 3.3-19.35 6.36-25.2 9.222v55.89c20.66 7.663 25.79 13.566 27.3 21.02h136.68c.18-15.812.5-50.902-.09-61.615-.31-5.585-.66-7.752-3.73-10.505zM56.94 218.634a49.983 49.983 0 01-8.46 4.968L88 262.847l39.52-39.245a49.932 49.932 0 01-8.46-4.899 37.693 37.693 0 01-15.18-21.973A72.514 72.514 0 0188 198.966a72.585 72.585 0 01-15.88-2.265 37.69 37.69 0 01-15.18 21.933zM224 121.63a61.938 61.938 0 0018.05-3.26c11.07-4.045 12.35-9.828 12.35-13.823V49.689a1.078 1.078 0 000-.278 95.53 95.53 0 01-28.8 4.651h-3.14a95.561 95.561 0 01-28.8-4.65 1.07 1.07 0 000 .277v54.858c0 3.975 1.28 9.778 12.35 13.823a61.946 61.946 0 0017.99 3.26z"/><path d="M164.29 239.722c-4.15-3.975-13.48-8.269-28.47-13.158l-45 44.72a4.014 4.014 0 01-5.66 0l-45-44.72c-15 4.89-24.32 9.202-28.47 13.158-2.77 2.633-3.11 4.83-3.4 10.405-.54 10.464-.25 44.72-.08 60.362h159.56c.17-15.602.46-49.898-.08-60.362-.29-5.575-.63-7.772-3.4-10.405z"/><path fill="#000" fill-rule="nonzero" d="M319.65 181.267c-.68-12.402-2.18-19.737-42.48-31.801 0 0-23.64-5.327-27.71-25.66 7.13-3.637 12.94-9.57 12.94-19.26V79.504c7.07 0 12.8-6.46 12.8-14.43v-8.616C274.79 25.202 252 0 224 0c-28 0-50.79 25.202-51.19 56.457v8.616c0 7.95 5.72 14.43 12.79 14.43v25.044c0 9.689 5.81 15.622 12.94 19.26-4.07 20.332-27.71 25.659-27.71 25.659a207.241 207.241 0 00-23.12 8.129v-30.996C147.23 94.479 120.69 68.57 88 68.57S28.77 94.48 28.31 126.6v95.662C2.05 231.99.88 238.887.32 249.729c-.72 14.032 0 68.71 0 68.71h175.36s.67-51.16.07-67.21h143.9s.79-55.671 0-69.962zM185.6 49.69v21.864c-2.6 0-4.79-2.982-4.79-6.48v-8.516A52.532 52.532 0 01194 21.864c8.1-8.944 18.76-13.913 30-13.913 11.24 0 21.9 4.97 30 13.913a52.531 52.531 0 0113.18 34.733v8.516c0 3.508-2.2 6.48-4.8 6.48V49.689c0-4.74-3.6-8.357-7.74-8.357-.747 0-1.49.117-2.2.348a88.276 88.276 0 01-26.89 4.432h-3.14a88.27 88.27 0 01-26.87-4.373 7.172 7.172 0 00-2.2-.348c-4.14-.03-7.74 3.588-7.74 8.298zm8 54.828V49.689a1.078 1.078 0 010-.278 95.53 95.53 0 0028.8 4.651h3.14a95.561 95.561 0 0028.8-4.65 1.07 1.07 0 010 .277v54.858c0 3.975-1.28 9.778-12.35 13.823a61.946 61.946 0 01-17.99 3.26 61.94 61.94 0 01-18-3.26c-11.12-4.084-12.4-9.828-12.4-13.823v-.03zm-4.12 45.138c8.77-5.963 14.4-13.725 16.6-22.857a72.431 72.431 0 0017.92 2.782 72.436 72.436 0 0017.92-2.792c2.2 9.172 7.83 16.983 16.6 22.857a53.697 53.697 0 005.63 3.3c-11.07 7.343-29.51 17.987-40.15 17.987-10.64 0-29.07-10.644-40.15-17.948a53.523 53.523 0 005.63-3.3v-.03zm-153.19-22.45v-.477c.172-13.398 5.707-26.175 15.38-35.508 20.203-19.606 52.457-19.606 72.66 0 9.661 9.331 15.188 22.1 15.36 35.488v92.75l-3-.993s-21.14-5.099-25.26-24.467c7.68-3.489 14.23-9.461 14.23-19.658v-53.813c0-4.651-3.54-8.209-7.6-8.209a7.194 7.194 0 00-2.16.338 86.547 86.547 0 01-26.41 4.353h-3.08A86.547 86.547 0 0160 112.657a7.132 7.132 0 00-2.16-.338c-4.07 0-7.6 3.558-7.6 8.209v53.843c0 10.196 6.55 16.17 14.23 19.657-4.12 19.37-25.26 24.467-25.26 24.467l-3 .994.08-92.283zm34 60.621c-10.8-3.975-12-9.56-12-13.446v-53.943a93.959 93.959 0 0028.17 4.522h3.08a93.959 93.959 0 0028.17-4.522v53.933c0 3.886-1.24 9.5-12 13.446a61.053 61.053 0 01-17.71 3.2 61.05 61.05 0 01-17.67-3.19h-.04zM88 198.966a72.585 72.585 0 0015.88-2.265 37.69 37.69 0 0015.18 21.933 50.067 50.067 0 008.46 4.899L88 262.847l-39.52-39.245a49.983 49.983 0 008.46-4.968 37.693 37.693 0 0015.18-21.973A72.55 72.55 0 0088 198.966zm79.77 111.523H8.23c-.17-15.602-.46-49.898.08-60.362.29-5.575.63-7.772 3.4-10.405 4.15-3.975 13.48-8.269 28.47-13.158l45 44.72a4.014 4.014 0 005.66 0l45-44.72c15 4.89 24.32 9.202 28.47 13.158 2.77 2.633 3.11 4.83 3.4 10.405.52 10.464.23 44.76.06 60.362zm144-67.21H175c-1.51-7.453-6.64-13.356-27.3-21.018v-55.89c5.85-2.863 14.19-5.964 25.2-9.223.41-.1 1.13-.288 2.06-.577 7.57 5.287 33.18 22.311 49 22.311s41.46-17.024 49-22.31c.93.288 1.65.476 2.06.576 17.35 5.207 28.09 9.789 32.84 14.012 3 2.713 3.42 4.97 3.73 10.544.66 10.674.34 45.764.16 61.576h.02z"/><path fill="#FFD500" fill-rule="nonzero" d="M167.77 310.49H8.23c-.17-15.603-.46-49.899.08-60.363.29-5.575.63-7.772 3.4-10.405 4.15-3.975 13.48-8.269 28.47-13.158l45 44.72a4.014 4.014 0 005.66 0l45-44.72c15 4.89 24.32 9.202 28.47 13.158 2.77 2.633 3.11 4.83 3.4 10.405.52 10.464.23 44.76.06 60.362zm144-67.21H175c-1.51-7.454-6.64-13.357-27.3-21.02v-55.89c5.85-2.862 14.19-5.963 25.2-9.222.41-.1 1.13-.288 2.06-.577 7.57 5.287 33.18 22.311 49 22.311s41.46-17.024 49-22.31c.93.288 1.65.476 2.06.576 17.35 5.207 28.09 9.789 32.84 14.012 3 2.713 3.42 4.97 3.73 10.544.66 10.674.34 45.764.16 61.576h.02z"/><path d="M307.93 171.16c-4.75-4.223-15.49-8.805-32.84-14.012-.41-.1-1.13-.288-2.06-.577-7.57 5.287-33.18 22.311-49 22.311s-41.46-17.024-49-22.31c-.93.288-1.65.476-2.06.576-11 3.3-19.35 6.36-25.2 9.222v55.89c20.66 7.663 25.79 13.566 27.3 21.02h136.68c.18-15.812.5-50.902-.09-61.615-.31-5.585-.66-7.752-3.73-10.505zm-143.64 68.562c-4.15-3.975-13.48-8.269-28.47-13.158l-45 44.72a4.014 4.014 0 01-5.66 0l-45-44.72c-15 4.89-24.32 9.202-28.47 13.158-2.77 2.633-3.11 4.83-3.4 10.405-.54 10.464-.25 44.72-.08 60.362h159.56c.17-15.602.46-49.898-.08-60.362-.29-5.575-.63-7.772-3.4-10.405z"/><path fill="#000" fill-rule="nonzero" d="M132 294.161c2.21 0 4 1.78 4 3.976 0 2.195-1.79 3.975-4 3.975s-4-1.78-4-3.975c0-2.196 1.79-3.976 4-3.976zm-32 0c2.21 0 4 1.78 4 3.976 0 2.195-1.79 3.975-4 3.975s-4-1.78-4-3.975c0-2.196 1.79-3.976 4-3.976zm48-15.9c2.21 0 4 1.78 4 3.975 0 2.195-1.79 3.975-4 3.975s-4-1.78-4-3.975c0-2.195 1.79-3.975 4-3.975zm-32 0c2.21 0 4 1.78 4 3.975 0 2.195-1.79 3.975-4 3.975s-4-1.78-4-3.975c0-2.195 1.79-3.975 4-3.975zm16-15.9c2.21 0 4 1.779 4 3.974 0 2.196-1.79 3.976-4 3.976s-4-1.78-4-3.976c0-2.195 1.79-3.975 4-3.975zm144-47.703c2.21 0 4 1.78 4 3.976 0 2.195-1.79 3.975-4 3.975s-4-1.78-4-3.975c0-2.196 1.79-3.976 4-3.976zm-32 0c2.21 0 4 1.78 4 3.976 0 2.195-1.79 3.975-4 3.975s-4-1.78-4-3.975c0-2.196 1.79-3.976 4-3.976zm48-15.9c2.21 0 4 1.78 4 3.975 0 2.195-1.79 3.975-4 3.975s-4-1.78-4-3.975c0-2.195 1.79-3.975 4-3.975zm-32 0c2.21 0 4 1.78 4 3.975 0 2.195-1.79 3.975-4 3.975s-4-1.78-4-3.975c0-2.195 1.79-3.975 4-3.975zm16-15.9c2.21 0 4 1.779 4 3.974 0 2.196-1.79 3.975-4 3.975s-4-1.78-4-3.975c0-2.195 1.79-3.975 4-3.975z"/></g></svg>