<svg xmlns="http://www.w3.org/2000/svg" fill="none" viewBox="0 0 320 320"><g id="performance"><path id="lg-icon-fill-primary" fill="#42aeea" d="M284 44c0 8.837-7.163 16-16 16-3.011 0-5.828-.832-8.233-2.278l-54.669 91.115c4.17 2.888 6.902 7.706 6.902 13.163 0 8.837-7.163 16-16 16s-16-7.163-16-16c0-4.239 1.649-8.093 4.34-10.956l-49.636-55.151A15.94 15.94 0 0 1 124 100c-3.011 0-5.828-.832-8.233-2.278l-55.534 92.556C64.887 193.076 68 198.174 68 204c0 8.837-7.163 16-16 16s-16-7.163-16-16H16v88h288V44z"/><g id="Outlines" fill="#1d1d1b"><path fill-rule="evenodd" d="M287.6 40c-1.853-9.129-9.924-16-19.6-16-11.046 0-20 8.954-20 20 0 5.71 2.394 10.863 6.232 14.507l-50.922 84.871A19.9 19.9 0 0 0 196 142a19.9 19.9 0 0 0-10.846 3.193l-44.626-49.928A19.9 19.9 0 0 0 144 84c0-11.046-8.954-20-20-20s-20 8.954-20 20a19.95 19.95 0 0 0 6.552 14.804l-51.814 86.359A20 20 0 0 0 52 184c-9.676 0-17.747 6.871-19.6 16H12a4 4 0 0 0 0 8h20.4c1.853 9.129 9.924 16 19.6 16 11.046 0 20-8.954 20-20a19.95 19.95 0 0 0-6.423-14.686l51.851-86.419A20 20 0 0 0 124 104c3.973 0 7.675-1.158 10.787-3.155l44.644 49.951A19.9 19.9 0 0 0 176 162c0 11.046 8.954 20 20 20s20-8.954 20-20a19.94 19.94 0 0 0-5.978-14.262l50.994-84.991A20 20 0 0 0 268 64c9.676 0 17.747-6.871 19.6-16H308a4 4 0 0 0 0-8zM40 204c0-6.627 5.373-12 12-12s12 5.373 12 12-5.373 12-12 12-12-5.373-12-12m144-42c0-6.627 5.373-12 12-12s12 5.373 12 12-5.373 12-12 12-12-5.373-12-12m-72-78c0-6.627 5.373-12 12-12s12 5.373 12 12-5.373 12-12 12-12-5.373-12-12m144-40c0-6.627 5.373-12 12-12s12 5.373 12 12-5.373 12-12 12-12-5.373-12-12" clip-rule="evenodd"/><path d="M12 288a4 4 0 0 0 0 8h296a4 4 0 0 0 0-8z"/></g></g></svg>