<svg xmlns="http://www.w3.org/2000/svg" fill="none" viewBox="0 0 320 320"><g id="phone"><path id="lg-icon-fill-primary" fill="#42aeea" fill-rule="evenodd" d="m250.908 28.246 25.414 25.414c5.049 5.539 12.898 16.479 14.743 23.743 3 12-2.66 23.51-16.5 46.5-13.18 21.88-33.172 45.172-69.172 81.172s-62.12 58.819-84 71.999c-19 11.431-30.15 17.28-40.22 17.28-2.117 0-4.227-.262-6.28-.78-7.264-1.844-18.204-9.693-23.742-14.742l-25.415-25.414 62.829-62.829 14.828 14.829c9.6 9.6 12.583 6.823 19.493 6.823 1.629 0 3.253-.161 4.85-.48 4.468-.882 8.871-2.698 12.258-5.743l66.343-66.343c3.045-3.386 4.86-7.79 5.742-12.257 1.5-7.5 3.536-14.465-6.343-24.343l-14.828-14.829z" clip-rule="evenodd"/><g id="Outlines" fill="#1d1d1b"><path d="M160 24C84.89 24 24 84.89 24 160a4 4 0 0 1-8 0C16 80.471 80.471 16 160 16a4 4 0 0 1 0 8"/><path d="M48 160C48 98.144 98.144 48 160 48a4 4 0 0 0 0-8C93.726 40 40 93.726 40 160a4 4 0 0 0 8 0"/><path d="M72 160c0-48.601 39.399-88 88-88a4 4 0 0 0 0-8c-53.019 0-96 42.981-96 96a4 4 0 0 0 8 0"/><path fill-rule="evenodd" d="M257.58 27.047a8 8 0 0 0-5.65-2.34l.03.02a8 8 0 0 0-5.66 2.34l-56.464 56.464a8 8 0 0 0 0 11.31l9.878 9.879c7.94 7.95 11.24 15.61 9.81 22.78a17.8 17.8 0 0 1-3.87 8l-71.173 71.143a17.9 17.9 0 0 1-8 3.87c-1.079.22-2.178.33-3.28.33-6.21 0-12.77-3.41-19.5-10.14l-9.878-9.879a8 8 0 0 0-11.31 0l-56.465 56.465a8 8 0 0 0 0 11.31l24.707 24.707a54 54 0 0 0 23.22 12.61c2.689.67 5.45 1.006 8.22 1 12.78 0 25.85-7.3 44.34-18.43 21.73-13.08 47.31-35 81.995-69.665 38.22-38.2 55.877-59.557 68.957-81.287l1.19-1.98c12.66-21.117 20.071-35.157 16.22-50.58a54 54 0 0 0-12.61-23.22zm-62.084 62.145 56.464-56.465 24.707 24.707a45.6 45.6 0 0 1 10.5 19.5c3 12-2.66 23.51-16.5 46.5-13.18 21.88-31.757 43.757-67.757 79.757-32.465 32.465-58.585 55.285-80.465 68.465-19 11.43-30.15 17.28-40.22 17.28a25.7 25.7 0 0 1-6.28-.78 45.6 45.6 0 0 1-19.5-10.5l-24.707-24.707 56.465-56.465 9.879 9.879c9.599 9.6 18.239 12.48 25.149 12.48 1.629 0 3.254-.16 4.85-.48a25.26 25.26 0 0 0 12-6l71.293-71.293a25.26 25.26 0 0 0 6-12c1.5-7.5 0-18-12-30z" clip-rule="evenodd"/></g></g></svg>