<svg xmlns="http://www.w3.org/2000/svg" width="55" height="55"><g fill="none"><path fill="#BBD143" d="M27.36 1.62a10.799 10.799 0 019.355 16.185 10.8 10.8 0 01-19.601-1.965 10.833 10.833 0 01-.36-1.399A10.802 10.802 0 0127.36 1.62z"/><path fill="#000" d="M24.49 12.877c-.033-.15-.07-.302-.105-.457H23.04a.72.72 0 110-1.44h1.053a12.65 12.65 0 01-.18-1.863V9.07a3.879 3.879 0 013.877-3.85c1.88 0 3.89 1.132 3.89 4.32a.72.72 0 11-1.44 0c0-2.381-1.334-2.88-2.45-2.88a2.436 2.436 0 00-2.44 2.43v.023c.019.627.089 1.252.21 1.867h3.24a.72.72 0 110 1.44h-2.938l.031.128c.36 1.494.686 2.925.236 4.192h5.551a.72.72 0 110 1.44h-8.64a.72.72 0 110-1.44h1.476c.626-.887.405-2.027-.025-3.863zM43.92 30.42a.72.72 0 11-1.44 0V26.1a.72.72 0 111.44 0v4.32z"/><path fill="#000" d="M53.28 28.98h-3.724L47.88 27.3l5.195-9.091a1.443 1.443 0 00-1.174-2.189h-.061a1.252 1.252 0 00-.379.047l-10.732 2.682a15.26 15.26 0 00-2.114-1.53 12.242 12.242 0 00-3.15-13.979 12.242 12.242 0 00-20.086 11.684 17.775 17.775 0 00-6.186 4.023C5.656 22.53 4.68 26.787 4.42 28.98H.72a.72.72 0 100 1.44h3.6v.009c0 6.12 3.199 10.64 4.32 12.038V53.46c0 .795.645 1.44 1.44 1.44h7.2a1.44 1.44 0 001.44-1.44V50c1.19.674 2.477 1.16 3.816 1.44 1.584.357 3.2.551 4.824.58 4.878 0 8.1-1.309 10.08-2.581v4.021c0 .795.645 1.44 1.44 1.44h7.2a1.44 1.44 0 001.44-1.44V42.84l3.983-1.917c1.572-.4 2.362-1.29 2.749-1.98.289-.504.45-1.07.468-1.65V30.42a1.44 1.44 0 00-1.44-1.44zM27.36 1.62a10.799 10.799 0 019.355 16.185 10.8 10.8 0 01-19.601-1.965 10.833 10.833 0 01-.36-1.399A10.802 10.802 0 0127.36 1.62zM53.28 37.3s0 1.762-2.263 2.266L46.08 41.94v11.52h-7.2v-7.2S36 50.58 27.36 50.58c0 0-8.64 0-10.08-4.32v7.2h-7.2V41.94s-4.32-4.723-4.32-11.52c0 0-.128-9.98 10.003-14.096a12.239 12.239 0 0022.205 2.189c.851.516 1.64 1.13 2.352 1.827l11.52-2.88-5.76 10.08 2.88 2.88h4.32v6.88z"/><path fill="#000" d="M23.04 16.74a.72.72 0 100 1.44h8.64a.72.72 0 100-1.44h-5.551c.45-1.26.115-2.7-.236-4.192l-.03-.128H28.8a.72.72 0 100-1.44h-3.24a11.383 11.383 0 01-.205-1.868v-.024A2.436 2.436 0 0127.79 6.66c1.116 0 2.45.499 2.45 2.88a.72.72 0 101.44 0c0-3.186-2.01-4.32-3.89-4.32a3.878 3.878 0 00-3.88 3.852v.047c.013.624.073 1.247.18 1.863h-1.05a.72.72 0 100 1.44h1.346l.107.457c.43 1.836.651 2.975.023 3.863l-1.476-.002zm20.16 8.64a.72.72 0 00-.72.72v4.32a.72.72 0 101.44 0V26.1a.72.72 0 00-.72-.72z"/><circle cx="9.36" cy="31.14" r="1" fill="#000"/><circle cx="9.36" cy="36.9" r="1" fill="#000"/><circle cx="12.24" cy="34.02" r="1" fill="#000"/><circle cx="15.12" cy="36.9" r="1" fill="#000"/><circle cx="12.24" cy="39.78" r="1" fill="#000"/><circle cx="18" cy="39.78" r="1" fill="#000"/><circle cx="15.12" cy="42.66" r="1" fill="#000"/><circle cx="20.88" cy="42.66" r="1" fill="#000"/><circle cx="23.76" cy="39.78" r="1" fill="#000"/><circle cx="29.52" cy="39.78" r="1" fill="#000"/><circle cx="26.64" cy="42.66" r="1" fill="#000"/><circle cx="32.4" cy="42.66" r="1" fill="#000"/><circle cx="35.28" cy="39.78" r="1" fill="#000"/><circle cx="41.04" cy="39.78" r="1" fill="#000"/><circle cx="38.16" cy="42.66" r="1" fill="#000"/><circle cx="23.76" cy="45.54" r="1" fill="#000"/><circle cx="29.52" cy="45.54" r="1" fill="#000"/><circle cx="26.64" cy="48.42" r="1" fill="#000"/><circle cx="32.4" cy="48.42" r="1" fill="#000"/><circle cx="35.28" cy="45.54" r="1" fill="#000"/><circle cx="38.16" cy="48.42" r="1" fill="#000"/><circle cx="12.24" cy="39.78" r="1" fill="#000"/><circle cx="18" cy="39.78" r="1" fill="#000"/><circle cx="15.12" cy="42.66" r="1" fill="#000"/><circle cx="20.88" cy="42.66" r="1" fill="#000"/><circle cx="23.76" cy="39.78" r="1" fill="#000"/><circle cx="29.52" cy="39.78" r="1" fill="#000"/><circle cx="26.64" cy="42.66" r="1" fill="#000"/><circle cx="32.4" cy="42.66" r="1" fill="#000"/><circle cx="35.28" cy="39.78" r="1" fill="#000"/><circle cx="41.04" cy="39.78" r="1" fill="#000"/><circle cx="38.16" cy="42.66" r="1" fill="#000"/><circle cx="23.76" cy="45.54" r="1" fill="#000"/><circle cx="29.52" cy="45.54" r="1" fill="#000"/><circle cx="26.64" cy="48.42" r="1" fill="#000"/><circle cx="32.4" cy="48.42" r="1" fill="#000"/><circle cx="35.28" cy="45.54" r="1" fill="#000"/><circle cx="38.16" cy="48.42" r="1" fill="#000"/><circle cx="12.24" cy="39.78" r="1" fill="#000"/><circle cx="18" cy="39.78" r="1" fill="#000"/><circle cx="15.12" cy="42.66" r="1" fill="#000"/><circle cx="20.88" cy="42.66" r="1" fill="#000"/><circle cx="23.76" cy="39.78" r="1" fill="#000"/><circle cx="29.52" cy="39.78" r="1" fill="#000"/><circle cx="26.64" cy="42.66" r="1" fill="#000"/><circle cx="32.4" cy="42.66" r="1" fill="#000"/><circle cx="35.28" cy="39.78" r="1" fill="#000"/><circle cx="41.04" cy="39.78" r="1" fill="#000"/><circle cx="38.16" cy="42.66" r="1" fill="#000"/><circle cx="23.76" cy="45.54" r="1" fill="#000"/><circle cx="29.52" cy="45.54" r="1" fill="#000"/><circle cx="26.64" cy="48.42" r="1" fill="#000"/><circle cx="35.28" cy="45.54" r="1" fill="#000"/><circle cx="38.16" cy="48.42" r="1" fill="#000"/><circle cx="38.16" cy="54.18" r="1" fill="#000"/><circle cx="43.92" cy="54.18" r="1" fill="#000"/></g></svg>