<svg xmlns="http://www.w3.org/2000/svg" fill="none" viewBox="0 0 320 320"><g id="piggy-bank"><path id="lg-icon-fill-primary" fill="#42aeea" fill-rule="evenodd" d="M176.911 106.942a48 48 0 0 0 13.091-21.194c14.624 4.885 28.251 12.495 40.415 21.297l41.575-22.677c3.059-1.668 6.641 1.101 5.796 4.482l-12.557 50.227c3.885 4.477 7.333 8.837 10.297 12.923h23.75a4 4 0 0 1 3.946 4.658l-6.831 40.984a4 4 0 0 1-2.656 3.129l-21.736 7.399c-6.388 8.279-14.502 17.032-24.001 25.316V308a4 4 0 0 1-4 4h-25.264a4 4 0 0 1-3.728-2.55l-17.577-45.199C184.401 269.09 170.472 272 156 272c-15.428 0-30.238-1.925-44-5.463V308a4 4 0 0 1-4 4H82.736a4 4 0 0 1-3.728-2.55l-30.045-77.258C33.257 216.395 24 196.984 24 176c0-38.235 30.735-71.249 75.217-86.688a48.13 48.13 0 0 0 15.451 20.687C125.431 106.177 137.819 104 151 104c9.107 0 17.835 1.039 25.911 2.942M232 168c6.627 0 12-5.373 12-12s-5.373-12-12-12-12 5.373-12 12 5.373 12 12 12" clip-rule="evenodd"/><g id="Outlines" fill="#1d1d1b"><path d="M145 48c-4.3 0-8 3.634-8 8.385 0 .446.105 1.32.374 2.753.238 1.264.559 2.735.924 4.41l.095.436c.274 1.256.566 2.608.852 4.016H149a4 4 0 0 1 0 8h-8.435l.022.189.015.136c.417 3.842.511 8.093-.624 11.675H157a4 4 0 0 1 0 8h-28a4 4 0 0 1 0-8c1.218 0 1.839-.283 2.173-.519.346-.243.722-.675 1.047-1.52.717-1.865.853-4.867.429-8.772q-.065-.59-.143-1.189H129a4 4 0 0 1 0-8h2.074q-.249-1.176-.498-2.314l-.1-.461a171 171 0 0 1-.963-4.606c-.273-1.45-.513-2.971-.513-4.234C129 47.455 136.046 40 145 40s16 7.456 16 16.385a4 4 0 0 1-8 0c0-4.751-3.7-8.385-8-8.385"/><path fill-rule="evenodd" d="M248 156c0 8.837-7.163 16-16 16s-16-7.163-16-16 7.164-16 16-16 16 7.163 16 16m-8 0a8 8 0 1 1-16 0 8 8 0 0 1 16 0" clip-rule="evenodd"/><path fill-rule="evenodd" d="M197.521 88.529c11.789 4.78 22.842 11.24 32.896 18.516l41.575-22.677c3.059-1.668 6.641 1.101 5.796 4.482l-12.557 50.227c3.885 4.477 7.333 8.837 10.297 12.923h23.75a4 4 0 0 1 3.946 4.658l-6.831 40.984a4 4 0 0 1-2.656 3.129l-21.736 7.399c-6.388 8.279-14.502 17.032-24.001 25.316V308a4 4 0 0 1-4 4h-25.264a4 4 0 0 1-3.728-2.55l-17.577-45.199q-3.128 1.163-6.324 2.171a111 111 0 0 1-7.107 2.075V280h4a4 4 0 0 1 0 8h-64a4 4 0 0 1 0-8h4v-10.078a147 147 0 0 1-14.642-3.042q-.681-.168-1.358-.343V308a4 4 0 0 1-4 4H82.736a4 4 0 0 1-3.728-2.55l-30.045-77.258c-14.394-14.477-23.37-31.99-24.77-50.966l-2.106-6.316-2.608 25.497a4 4 0 0 1-7.79.809l-7.5-23.5a4 4 0 0 1 7.622-2.432l1.663 5.212 2.547-24.903a4 4 0 0 1 7.774-.858l1.919 5.757c6.57-29.42 31.526-54.354 66.013-68.363A55.9 55.9 0 0 1 88 72c0-30.928 25.072-56 56-56s56 25.072 56 56c0 5.753-.868 11.304-2.479 16.529m-82.853 21.469C125.432 106.177 137.819 104 151 104q1.192 0 2.376.024Q154.684 104 156 104c7.224 0 14.262 1.012 21.052 2.808C186.259 98.062 192 85.701 192 72c0-26.51-21.49-48-48-48S96 45.49 96 72c0 15.464 7.313 29.22 18.668 37.998m79.95-14.014c11.044 4.49 21.5 10.589 31.109 17.542l4.089 2.96 37.998-20.726-11.354 45.416 2.729 3.144c3.737 4.307 7.04 8.486 9.863 12.378l2.396 3.302h23.108l-5.661 33.968-21.755 7.406-1.473 1.909c-6.064 7.86-13.817 16.231-22.925 24.173L240 229.847V304h-18.527l-16.748-43.065a113 113 0 0 0 5.192-2.664 4 4 0 1 0-3.834-7.021 104.5 104.5 0 0 1-17.233 7.496c-10.475 3.317-21.419 5.232-32.651 5.254h-.419c-14.227-.018-27.871-1.746-40.563-4.901-6.12-1.617-11.999-3.656-17.59-6.146a4 4 0 1 0-3.254 7.308 119 119 0 0 0 9.627 3.788V304H85.472l-29.658-76.264-1.178-1.185C42.244 214.087 34.501 199.517 32.511 184H40a4 4 0 0 0 0-8h-8c0-31.752 24.343-61.024 63.136-76.623a56.1 56.1 0 0 0 11.062 13.94 120 120 0 0 0-12.08 5.592 3.999 3.999 0 1 0 3.761 7.06c15.84-8.436 34.892-13.542 55.489-13.943 7.642.162 14.942 1.109 21.707 2.703l3.261.768c6.803 2.103 13.389 5.066 19.686 8.646a4 4 0 1 0 3.954-6.954c-5.232-2.975-10.71-5.585-16.394-7.68a56 56 0 0 0 9.035-13.525M156.309 272A113.4 113.4 0 0 0 176 270.235V280h-40v-9.03c6.407.684 12.972 1.019 19.657 1.03z" clip-rule="evenodd"/></g></g></svg>