<svg xmlns="http://www.w3.org/2000/svg" fill="none" viewBox="0 0 320 320"><g id="pipeline"><path id="lg-icon-fill-primary" fill="#42aeea" d="M108 48a4 4 0 0 0 0 8h104a4 4 0 0 0 0-8zm28 66a2 2 0 0 1 2-2h44a2 2 0 0 1 2 2v12a2 2 0 0 1-2 2h-44a2 2 0 0 1-2-2zm-54 30a2 2 0 0 0-2 2v60a2 2 0 0 0 2 2h20a2 2 0 0 0 2-2v-60a2 2 0 0 0-2-2zm136 0a2 2 0 0 0-2 2v60a2 2 0 0 0 2 2h20a2 2 0 0 0 2-2v-60a2 2 0 0 0-2-2z"/><path id="Outlines" fill="#1d1d1b" fill-rule="evenodd" d="M176 104V64h36c6.627 0 12-5.373 12-12s-5.373-12-12-12h-36v-4c0-6.627-5.373-12-12-12h-8c-6.627 0-12 5.373-12 12v4h-36c-6.627 0-12 5.373-12 12s5.373 12 12 12h36v40h-6c-5.523 0-10 4.477-10 10v12c0 4.838 3.436 8.873 8 9.8v8.2h-24.2c-.927-4.564-4.962-8-9.8-8H82c-5.523 0-10 4.477-10 10v6c-35.346 0-64 28.654-64 64v80h48v-80c0-8.837 7.163-16 16-16v6c0 5.523 4.477 10 10 10h20c4.838 0 8.873-3.436 9.8-8h9c7.279 14.239 22.091 24 39.2 24s31.921-9.761 39.2-24h9c.927 4.564 4.962 8 9.8 8h20c5.523 0 10-4.477 10-10v-6c8.837 0 16 7.163 16 16v80h48v-80c0-35.346-28.654-64-64-64v-6c0-5.523-4.477-10-10-10h-20c-4.838 0-8.873 3.436-9.8 8H184v-8.2c4.564-.927 8-4.962 8-9.8v-12c0-5.523-4.477-10-10-10zm6 8a2 2 0 0 1 2 2v12a2 2 0 0 1-2 2h-44a2 2 0 0 1-2-2v-12a2 2 0 0 1 2-2zm-30-48v40h16V64zm0-24v-4a4 4 0 0 1 4-4h8a4 4 0 0 1 4 4v4zm60 8a4 4 0 0 1 0 8H108a4 4 0 0 1 0-8zm-36 88h-32v8h32zm-64 16h96v48h-14.048c-4.943 13.982-18.277 24-33.952 24s-29.009-10.018-33.952-24H112zm-32 54a2 2 0 0 0 2 2h20a2 2 0 0 0 2-2v-60a2 2 0 0 0-2-2H82a2 2 0 0 0-2 2zm-8-46a56.4 56.4 0 0 0-8 .567C36.862 164.449 16 187.788 16 216v72h32v-72c0-13.255 10.745-24 24-24zm144-14v60a2 2 0 0 0 2 2h20a2 2 0 0 0 2-2v-60a2 2 0 0 0-2-2h-20a2 2 0 0 0-2 2m32 46v-32c2.716 0 5.387.193 8 .567 27.138 3.882 48 27.221 48 55.433v72h-32v-72c0-13.255-10.745-24-24-24" clip-rule="evenodd"/></g></svg>