<svg xmlns="http://www.w3.org/2000/svg" fill="none" viewBox="0 0 320 320"><g id="play" fill-rule="evenodd" clip-rule="evenodd"><path id="lg-icon-fill-primary" fill="#42aeea" d="M160 280c66.274 0 120-53.726 120-120S226.274 40 160 40 40 93.726 40 160s53.726 120 120 120m-36.949-52.272 115.932-65.991a1.992 1.992 0 0 0 0-3.474L123.051 92.272c-1.356-.772-3.051.193-3.051 1.736v131.984c0 1.543 1.695 2.508 3.051 1.736"/><g id="Outlines" fill="#1d1d1b"><path d="M125.03 88.796c-3.938-2.242-9.03.503-9.03 5.212v131.984c0 4.709 5.092 7.454 9.03 5.213l115.932-65.992c4.051-2.306 4.051-8.12 0-10.426zM124 222.586V97.415L233.948 160z"/><path d="M160 16C80.471 16 16 80.471 16 160s64.471 144 144 144 144-64.471 144-144S239.529 16 160 16M24 160C24 84.89 84.89 24 160 24c75.111 0 136 60.89 136 136 0 75.111-60.889 136-136 136S24 235.111 24 160"/></g></g></svg>