<svg xmlns="http://www.w3.org/2000/svg" fill="none" viewBox="0 0 320 320"><g id="pointer-click"><path id="lg-icon-fill-primary" fill="#42aeea" d="m196.113 208.987 30.732 76.065-15.379 6.214-30.732-76.065L152 238.555 152.023 122l80.982 83.826z"/><g id="Outlines" fill="#1d1d1b"><path d="M140 8a4 4 0 0 1 4 4v8a4 4 0 0 1-8 0v-8a4 4 0 0 1 4-4m0 24a4 4 0 0 1 4 4v32a4 4 0 0 1-8 0V36a4 4 0 0 1 4-4m59.397.603a4 4 0 0 1 0 5.657l-5.656 5.657a4 4 0 0 1-5.657-5.657l5.657-5.657a4 4 0 0 1 5.656 0m-16.97 22.627a4 4 0 0 0-5.657-5.656L154.143 72.2a4 4 0 0 0 0 5.657 4 4 0 0 0 5.656 0zM80.603 151.397a4 4 0 0 0 5.657 0l5.657-5.657a4 4 0 0 0-5.657-5.657l-5.657 5.657a4 4 0 0 0 0 5.657m22.628-16.971a4 4 0 0 1-5.657 0 4 4 0 0 1 0-5.656l22.627-22.628a4 4 0 0 1 5.657 5.657zM224 92a4 4 0 0 1-4 4h-8a4 4 0 0 1 0-8h8a4 4 0 0 1 4 4m-28 4a4 4 0 0 0 0-8h-32a4 4 0 0 0 0 8zM56 92a4 4 0 0 0 4 4h8a4 4 0 1 0 0-8h-8a4 4 0 0 0-4 4m28 4a4 4 0 1 1 0-8h32a4 4 0 0 1 0 8zm-3.397-57.74a4 4 0 0 1 5.657-5.657l5.657 5.656a4 4 0 1 1-5.657 5.657zm16.971 11.313a4 4 0 0 0 0 5.657L120.2 77.857a4 4 0 0 0 5.657-5.656L103.23 49.573a4 4 0 0 0-5.657 0"/><path fill-rule="evenodd" d="M142.911 89.22a4.001 4.001 0 0 0-6.877 2.78L136 263.46a4 4 0 0 0 6.523 3.105l31.496-25.599 27.112 67.105a4.005 4.005 0 0 0 5.208 2.211l37.631-15.204a4 4 0 0 0 2.21-5.208l-27.112-67.105 40.439-3.465a3.998 3.998 0 0 0 2.535-6.764zm1.091 165.835.03-153.159 106.415 110.152-37.458 3.21a4 4 0 0 0-3.367 5.484l27.642 68.418-30.214 12.207-27.642-68.418a4.002 4.002 0 0 0-6.232-1.606z" clip-rule="evenodd"/></g></g></svg>