<svg xmlns="http://www.w3.org/2000/svg" fill="none" viewBox="0 0 320 320"><g id="post" fill-rule="evenodd" clip-rule="evenodd"><path id="lg-icon-fill-primary" fill="#42aeea" d="M236 84h48v64h-48z"/><path id="Outlines" fill="#1d1d1b" d="M312 56v208H8V56zm-8 8H16v192h288zm-16 16v72h-56V80zm-8 8h-40v56h40zM116.007 224H43.993A3.997 3.997 0 0 1 40 220c0-2.209 1.788-4 3.993-4h72.014a3.997 3.997 0 0 1 3.993 4c0 2.209-1.788 4-3.993 4m72-24H43.993A3.997 3.997 0 0 1 40 196c0-2.209 1.788-4 3.993-4h144.014a3.997 3.997 0 0 1 3.993 4c0 2.209-1.788 4-3.993 4m0-24H43.993A3.997 3.997 0 0 1 40 172c0-2.209 1.788-4 3.993-4h144.014a3.997 3.997 0 0 1 3.993 4c0 2.209-1.788 4-3.993 4m0-24H43.993A3.997 3.997 0 0 1 40 148c0-2.209 1.788-4 3.993-4h144.014a3.997 3.997 0 0 1 3.993 4c0 2.209-1.788 4-3.993 4"/></g></svg>