<svg xmlns="http://www.w3.org/2000/svg" fill="none" viewBox="0 0 320 320"><g id="poster"><g id="lg-icon-fill-primary" fill="#42aeea"><path d="M28 12h232v264H100c0-14.89 0-22.335 1.958-28.361a40 40 0 0 1 25.681-25.681C133.665 220 141.11 220 156 220h46c6.519.21 31.5 1.075 34 9V36H52v248c0 13.255 10.745 24 24 24H52c-13.255 0-24-10.745-24-24z"/><path fill-rule="evenodd" d="M176 204c19.882 0 36-16.118 36-36s-16.118-36-36-36-36 16.118-36 36 16.118 36 36 36m0-16c11.046 0 20-8.954 20-20h-40c0 11.046 8.954 20 20 20" clip-rule="evenodd"/></g><g id="Outlines" fill="#1d1d1b"><path fill-rule="evenodd" d="M152 164h48v4c0 13.255-10.745 24-24 24s-24-10.745-24-24zm8.504 8c1.777 6.901 8.041 12 15.496 12 7.456 0 13.72-5.099 15.496-12z" clip-rule="evenodd"/><path fill-rule="evenodd" d="M135.999 168c0-22.091 17.909-40 40-40s40 17.909 40 40-17.908 40-40 40-40-17.909-40-40m40-32c-17.673 0-32 14.327-32 32s14.327 32 32 32 32-14.327 32-32-14.327-32-32-32" clip-rule="evenodd"/><path d="M77 64a4 4 0 0 0 0 8h103a4 4 0 0 0 0-8zm-4 28a4 4 0 0 1 4-4h87a4 4 0 0 1 0 8H77a4 4 0 0 1-4-4m0 24a4 4 0 0 1 4-4h55a4 4 0 0 1 0 8H77a4 4 0 0 1-4-4"/><path fill-rule="evenodd" d="M24 8h240v264h28v12c0 15.452-12.54 27.964-28 28H52c-15.464 0-28-12.536-28-28zm40.02 292.017c4.888-3.65 8.048-9.469 8.048-16.017v-12h24.124c.164-5.997.47-11.3 1.035-15.953 1.245-10.252 3.805-18.172 9.314-24.623a44 44 0 0 1 4.883-4.882c6.451-5.509 14.37-8.069 24.623-9.315C146.15 216 159.037 216 175.72 216h.559c16.682 0 29.57 0 39.673 1.227 6.422.78 11.537 2.076 16.048 4.29V40H56v244c0 6.552 3.151 12.369 8.02 16.017M104.191 272H232v-41.223c-4.184-2.924-9.085-4.645-17.013-5.608-9.565-1.162-21.968-1.169-38.988-1.169s-29.423.007-38.988 1.169c-9.471 1.15-15.622 3.382-20.392 7.456a36 36 0 0 0-3.994 3.995c-4.074 4.77-6.306 10.92-7.457 20.392-.529 4.353-.818 9.293-.977 14.988M240 272h16V16H32v268c0 11.046 8.954 20 20 20 1.372 0 2.712-.137 4.006-.398A27.9 27.9 0 0 1 48 284V32h192zm23.932 32H71.643c5.198-5.08 8.425-12.162 8.425-20v-4H284v4c0 11.035-8.974 20-20.068 20" clip-rule="evenodd"/></g></g></svg>