<svg xmlns="http://www.w3.org/2000/svg" fill="none" viewBox="0 0 320 320"><g id="pounds-secure"><path id="lg-icon-fill-primary" fill="#42aeea" d="M267.867 212.642C275.638 196.748 280 178.883 280 160c0-66.274-53.726-120-120-120S40 93.726 40 160s53.726 120 120 120c18.883 0 36.748-4.362 52.642-12.133A48.3 48.3 0 0 1 212 260c0-26.51 21.49-48 48-48 2.679 0 5.308.22 7.867.642"/><g id="Outlines" fill="#1d1d1b"><path d="M161.753 72c19.8 0 33.468 7.197 41.74 19.192 2.898 4.203 4.906 8.689 6.191 13.176a41 41 0 0 1 1.01 4.383l.086.523c.089.574.142 1.017.167 1.315a4 4 0 0 1-7.949.874l-.048-.439a22 22 0 0 0-.141-.923 33 33 0 0 0-.815-3.53c-1.059-3.699-2.716-7.4-5.086-10.837C190.127 85.901 178.92 80 161.753 80c-16.733 0-28.653 5.456-35.699 14.893-5.861 7.85-7.991 18.24-6.227 27.802l.1.521c1.291 6.453 3.704 12.161 10.67 26.068l3.485 6.927.683 1.372q.611 1.233 1.187 2.417h60.043a4 4 0 0 1 0 8h-56.32c4.371 9.943 6.329 17.061 6.329 24 0 10.838-6.058 22.098-15.625 31.277q-.576.553-1.208 1.114c-2.429 2.162-5.436 4.404-8.9 6.7q-.594.393-1.197.783l-.197.126h78.946l14.879-21.679a4 4 0 0 1 5.383-1.15l.179.116a4 4 0 0 1 1.034 5.562l-16.071 23.415A4 4 0 0 1 199.93 240h-95.924c-4.135 0-5.517-5.472-1.995-7.468l1.324-.696.828-.444c.711-.385 1.474-.804 2.278-1.255 3.214-1.804 6.427-3.737 9.411-5.714 3.173-2.104 5.891-4.13 8.001-6.008q.522-.463.988-.912c8.133-7.801 13.163-17.153 13.163-25.503 0-6.24-2.172-13.31-7.11-24H96a4 4 0 0 1 0-8h31.025l-1.717-3.431-2.476-4.927c-6.255-12.533-8.834-18.53-10.334-24.94l-.124-.544a62 62 0 0 1-.291-1.374c-2.371-11.857.185-24.8 7.561-34.677C128.267 78.557 142.594 72 161.753 72"/><path fill-rule="evenodd" d="M288 256c0 24-28 36-28 36s-28-12-28-36v-19.857L260 228l28 8.143zm-48 0v-13.852l16-4.653v43.073a53 53 0 0 1-4.794-3.642C245.025 271.628 240 264.648 240 256m24 24.568a53 53 0 0 0 4.794-3.642C274.975 271.628 280 264.648 280 256v-13.852l-16-4.653z" clip-rule="evenodd"/><path fill-rule="evenodd" d="M291.549 218.661C299.551 200.743 304 180.891 304 160c0-79.529-64.471-144-144-144S16 80.471 16 160s64.471 144 144 144c20.891 0 40.743-4.449 58.661-12.451C228.163 303.981 243.145 312 260 312c28.719 0 52-23.281 52-52 0-16.855-8.019-31.837-20.451-41.339m-6.802-4.406C291.986 197.634 296 179.286 296 160c0-75.11-60.889-136-136-136S24 84.89 24 160c0 75.111 60.89 136 136 136 19.286 0 37.634-4.014 54.255-11.253C210.265 277.388 208 268.959 208 260c0-28.719 23.281-52 52-52 8.959 0 17.388 2.265 24.747 6.255M260 304c24.301 0 44-19.699 44-44s-19.699-44-44-44-44 19.699-44 44 19.699 44 44 44" clip-rule="evenodd"/></g></g></svg>