<svg xmlns="http://www.w3.org/2000/svg" fill="none" viewBox="0 0 320 320"><g id="pounds"><path id="lg-icon-fill-primary" fill="#42aeea" d="M280 160c0 66.274-53.726 120-120 120S40 226.274 40 160 93.726 40 160 40s120 53.726 120 120"/><g id="Outlines" fill="#1d1d1b"><path d="M161.753 72c19.8 0 33.468 7.197 41.74 19.192 2.898 4.203 4.906 8.689 6.191 13.176a41 41 0 0 1 1.01 4.383l.086.523c.089.574.142 1.017.167 1.315a4 4 0 0 1-7.949.874l-.048-.439a22 22 0 0 0-.141-.923 33 33 0 0 0-.815-3.53c-1.059-3.699-2.716-7.4-5.086-10.837C190.127 85.901 178.92 80 161.753 80c-16.733 0-28.653 5.456-35.699 14.893-5.861 7.85-7.991 18.24-6.227 27.802l.1.521c1.291 6.453 3.704 12.161 10.67 26.068l3.485 6.927.683 1.372q.611 1.233 1.187 2.417h60.043a4 4 0 0 1 0 8h-56.32c4.371 9.943 6.329 17.061 6.329 24 0 10.838-6.058 22.098-15.625 31.277q-.576.553-1.208 1.114c-2.429 2.162-5.436 4.404-8.9 6.7q-.594.393-1.197.783l-.197.126h78.946l14.879-21.679a4 4 0 0 1 5.383-1.15l.179.116a4 4 0 0 1 1.034 5.562l-16.071 23.415A4 4 0 0 1 199.93 240h-95.924c-4.135 0-5.517-5.472-1.995-7.468l1.324-.696.828-.444c.711-.385 1.474-.804 2.278-1.255 3.214-1.804 6.427-3.737 9.411-5.714 3.173-2.104 5.891-4.13 8.001-6.008q.522-.463.988-.912c8.133-7.801 13.163-17.153 13.163-25.503 0-6.24-2.172-13.31-7.11-24H96a4 4 0 0 1 0-8h31.025l-1.717-3.431-2.476-4.927c-6.255-12.533-8.834-18.53-10.334-24.94l-.124-.544a62 62 0 0 1-.291-1.374c-2.371-11.857.185-24.8 7.561-34.677C128.267 78.557 142.594 72 161.753 72"/><path fill-rule="evenodd" d="M304 160c0 79.529-64.471 144-144 144S16 239.529 16 160 80.471 16 160 16s144 64.471 144 144m-8 0c0 75.111-60.889 136-136 136S24 235.111 24 160 84.89 24 160 24c75.111 0 136 60.89 136 136" clip-rule="evenodd"/></g></g></svg>