<svg xmlns="http://www.w3.org/2000/svg" fill="none" viewBox="0 0 320 320"><g id="pounds-increase"><path id="lg-icon-fill-primary" fill="#42aeea" d="M267.867 212.642C275.638 196.748 280 178.883 280 160c0-66.274-53.726-120-120-120S40 93.726 40 160s53.726 120 120 120c18.883 0 36.748-4.362 52.642-12.133A48.3 48.3 0 0 1 212 260c0-26.51 21.49-48 48-48 2.679 0 5.308.22 7.867.642"/><g id="Outlines" fill="#1d1d1b"><path d="M203.493 91.193C195.221 79.197 181.553 72 161.753 72c-19.159 0-33.486 6.558-42.109 18.107-7.376 9.877-9.932 22.82-7.561 34.677q.139.694.291 1.374l.124.544c1.5 6.41 4.079 12.407 10.334 24.94l2.476 4.927 1.717 3.431H96a4 4 0 0 0 0 8h34.894c4.938 10.69 7.11 17.76 7.11 24 0 8.35-5.03 17.702-13.163 25.503q-.466.449-.988.912c-2.11 1.878-4.828 3.904-8.001 6.008-2.984 1.977-6.197 3.91-9.411 5.714-.804.451-1.567.87-2.278 1.255l-.828.444-1.324.696c-3.522 1.996-2.14 7.468 1.995 7.468h95.924a4 4 0 0 0 3.297-1.736l16.071-23.415a4 4 0 0 0-1.034-5.562l-.179-.116a4 4 0 0 0-5.383 1.15L197.823 232h-78.946l.197-.126q.603-.39 1.197-.783c3.464-2.296 6.471-4.538 8.9-6.7q.632-.561 1.208-1.114c9.567-9.179 15.625-20.439 15.625-31.277 0-6.939-1.958-14.057-6.329-24h56.32a4 4 0 0 0 0-8h-60.043a346 346 0 0 0-1.187-2.417l-.683-1.372-3.485-6.927c-6.966-13.907-9.379-19.615-10.67-26.068l-.1-.521c-1.764-9.562.366-19.952 6.227-27.802C133.1 85.456 145.02 80 161.753 80c17.167 0 28.374 5.9 35.155 15.734 2.37 3.438 4.027 7.138 5.086 10.837.368 1.287.635 2.476.815 3.53.069.401.114.712.141.923l.048.439a4 4 0 0 0 7.949-.874 20 20 0 0 0-.167-1.315l-.086-.523a41 41 0 0 0-1.01-4.383c-1.285-4.487-3.293-8.973-6.191-13.175M275.794 240a4 4 0 0 1 3.04 1.166 4 4 0 0 1 1.166 3.039V268a4 4 0 0 1-8 0v-14.343l-25.174 25.174a4 4 0 0 1-5.657-5.657L266.343 248H252a4 4 0 0 1 0-8z"/><path fill-rule="evenodd" d="M218.661 291.549C200.743 299.551 180.891 304 160 304c-79.529 0-144-64.471-144-144S80.471 16 160 16s144 64.471 144 144c0 20.891-4.449 40.743-12.451 58.661C303.981 228.163 312 243.145 312 260c0 28.719-23.281 52-52 52-16.855 0-31.837-8.019-41.339-20.451m-4.406-6.802C197.634 291.986 179.286 296 160 296c-75.11 0-136-60.889-136-136S84.89 24 160 24c75.111 0 136 60.89 136 136 0 19.286-4.014 37.634-11.253 54.255C277.388 210.265 268.959 208 260 208c-28.719 0-52 23.281-52 52 0 8.959 2.265 17.388 6.255 24.747M260 304c24.301 0 44-19.699 44-44s-19.699-44-44-44-44 19.699-44 44 19.699 44 44 44" clip-rule="evenodd"/></g></g></svg>