<svg xmlns="http://www.w3.org/2000/svg" fill="none" viewBox="0 0 320 320"><g id="presentation"><g id="lg-icon-fill-primary" fill="#42aeea"><path fill-rule="evenodd" d="M12 28h296v48H12zm24 32a8 8 0 1 0 0-16 8 8 0 0 0 0 16m40-8a8 8 0 1 1-16 0 8 8 0 0 1 16 0m32 0a8 8 0 1 1-16 0 8 8 0 0 1 16 0" clip-rule="evenodd"/><path d="M132 132a8 8 0 1 0 0-16 8 8 0 0 0 0 16m64 24a8 8 0 1 1-16 0 8 8 0 0 1 16 0m56 16a8 8 0 1 1-16 0 8 8 0 0 1 16 0M84 220a8 8 0 1 1-16 0 8 8 0 0 1 16 0"/></g><g id="Outlines" fill="#1d1d1b"><path fill-rule="evenodd" d="M36 64c6.627 0 12-5.373 12-12s-5.373-12-12-12-12 5.373-12 12 5.373 12 12 12m0-8a4 4 0 1 0 0-8 4 4 0 0 0 0 8m44-4c0 6.627-5.373 12-12 12s-12-5.373-12-12 5.373-12 12-12 12 5.373 12 12m-8 0a4 4 0 1 1-8 0 4 4 0 0 1 8 0m40 0c0 6.627-5.373 12-12 12s-12-5.373-12-12 5.373-12 12-12 12 5.373 12 12m-8 0a4 4 0 1 1-8 0 4 4 0 0 1 8 0" clip-rule="evenodd"/><path d="M48 260a4 4 0 0 1 4-4h216a4 4 0 0 1 0 8H52a4 4 0 0 1-4-4"/><path fill-rule="evenodd" d="M116 124c0-8.837 7.163-16 16-16s16 7.163 16 16c0 1.459-.195 2.872-.561 4.215l29.095 16.626A15.95 15.95 0 0 1 188 140c8.837 0 16 7.163 16 16q0 .206-.005.41l26.206 7.487C232.981 159.171 238.12 156 244 156c7.455 0 13.72 5.099 15.496 12H268a4 4 0 0 1 0 8h-8.504c-1.776 6.901-8.041 12-15.496 12-8.837 0-16-7.163-16-16q0-.206.005-.41l-26.205-7.487c-2.781 4.725-7.92 7.897-13.8 7.897-8.837 0-16-7.163-16-16 0-1.459.195-2.872.561-4.215l-29.095-16.626A15.95 15.95 0 0 1 132 140c-1.509 0-2.969-.209-4.353-.599l-40.386 69.233A15.95 15.95 0 0 1 92 220c0 8.837-7.163 16-16 16-7.455 0-13.72-5.099-15.496-12H52a4 4 0 0 1 0-8h8.504c1.776-6.901 8.04-12 15.496-12 1.509 0 2.969.209 4.353.599l40.386-69.233A15.95 15.95 0 0 1 116 124m16-8a8 8 0 1 0 0 16 8 8 0 0 0 0-16m48 40a8 8 0 1 1 16 0 8 8 0 0 1-16 0m56 16a8 8 0 1 1 16 0 8 8 0 0 1-16 0M68 220a8 8 0 1 1 16 0 8 8 0 0 1-16 0" clip-rule="evenodd"/><path fill-rule="evenodd" d="M12 24a4 4 0 0 0-4 4v264a4 4 0 0 0 4 4h296a4 4 0 0 0 4-4V28a4 4 0 0 0-4-4zm4 8v40h288V32zm0 256V80h288v208z" clip-rule="evenodd"/></g></g></svg>