<svg xmlns="http://www.w3.org/2000/svg" fill="none" viewBox="0 0 320 320"><g id="printed-material" fill-rule="evenodd" clip-rule="evenodd"><path id="lg-icon-fill-primary" fill="#42aeea" d="M120 252H36v16h84c15.648 0 29.288 9.251 40 25l1.534-1.544 1.081-1.067 1.033-1.001 1.171-1.112.962-.898.68-.625.708-.644.737-.66 1.153-1.017.397-.345.811-.698.835-.705.855-.712q.216-.18.435-.358l.885-.717q.224-.18.45-.359l.912-.718.462-.359.936-.714.95-.708.964-.701.975-.692c6.704-4.689 14.154-8.569 20.547-8.643L200 268h84v-16h-84q-24 0-40 24-16-24-40-24m68-200h80v80h-80z"/><path id="Outlines" fill="#1d1d1b" d="M120 24q24 0 40 16 16-16 40-16h92a4 4 0 0 1 4 4v224a4 4 0 0 1-4 4h-4v12a4 4 0 0 1-4 4h-84c-14.264 0-26.262 10.292-36.207 27.429l-.32.556c-1.536 2.687-5.41 2.687-6.946 0-9.901-17.328-21.852-27.804-36.068-27.982L120 272H36a4 4 0 0 1-4-4v-12h-4a4 4 0 0 1-4-4V28a4 4 0 0 1 4-4zm0 232H40v8h80c15.648 0 28.906 10.076 39.618 25.825l.382.565.022-.031c10.654-15.922 23.857-26.175 39.451-26.356L200 264h80v-8h-80q-21.43 0-36.483 19.137c-1.764 2.243-5.27 2.243-7.034 0Q141.43 256 120 256m0-224H32v216h88c13.712 0 25.787 5.007 36.001 14.722L156 47.313l-1.657-1.656c-8.996-8.996-20.073-13.512-33.682-13.654zm168 0h-88c-13.691 0-24.843 4.374-33.906 13.225l-.437.432L164 47.312V262.72c10.072-9.578 21.953-14.58 35.43-14.717L200 248h88zm-52 168a4 4 0 0 1 0 8h-48a4 4 0 0 1 0-8zm32-24a4 4 0 0 1 0 8h-80a4 4 0 0 1 0-8zm0-24a4 4 0 0 1 0 8h-80a4 4 0 0 1 0-8zm0-104a4 4 0 0 1 4 4v80a4 4 0 0 1-4 4h-80a4 4 0 0 1-4-4V52a4 4 0 0 1 4-4zm-4 8h-72v72h72z"/></g></svg>