<svg xmlns="http://www.w3.org/2000/svg" fill="none" viewBox="0 0 320 320"><g id="private-markets"><g id="lg-icon-fill-primary" fill="#42aeea"><path d="M300 160a140 140 0 0 1-57.711 113.261l-23.514-32.364A99.98 99.98 0 0 0 259.995 160zm-124.357 98.765c-.4.063.548-.087 0 0m-46.351-3.603c-.351-.113-.313-.101 0 0"/><path fill-rule="evenodd" d="m205 220-24.25 8H139.5l-23.5-8v-72h89zm-45-40a8 8 0 0 0-8 8v16a8 8 0 0 0 16 0v-16a8 8 0 0 0-8-8" clip-rule="evenodd"/><path d="M160 60.005a100 100 0 0 0-45.397 10.898 100.3 100.3 0 0 0-35.501 30.322c-9.574 13.177-15.66 28.518-18.087 44.594C58.875 160.75 62.5 182 64.898 190.9l-38.046 12.363A140 140 0 0 1 160 20z"/></g><g id="Outlines" fill="#1d1d1b" fill-rule="evenodd" clip-rule="evenodd"><path d="M160 176c6.628 0 12 5.372 12 12v16c0 6.627-5.372 12-12 12-6.627 0-12-5.373-12-12v-16c0-6.628 5.373-12 12-12m0 8a4 4 0 0 0-4 4v16a4 4 0 0 0 8 0v-16a4 4 0 0 0-4-4"/><path d="M160 80c17.673 0 32 14.327 32 32v11.5a4 4 0 0 1-8 0V112c0-13.255-10.745-24-24-24s-24 10.745-24 24v32h73v78.892L181.393 232h-42.555L112 222.863V144h16v-32c0-17.673 14.327-32 32-32m-40 137.136L140.161 224h39.946L201 217.107V152h-81z"/><path d="M164 16.055C240.351 18.138 301.862 79.65 303.944 156H304c0 2.707.018 5.414-.059 8.121-.995 35.38-15.431 69.838-39.843 95.374a144.6 144.6 0 0 1-16.251 14.611l.03.041-2.046 1.485c-26.066 19.38-58.625 29.441-91.006 28.274-34.993-1.236-69.011-15.628-94.284-39.773a145 145 0 0 1-8.804-9.185c-11.882-13.548-21.272-29.333-27.436-46.651l-.017.005-.202-.622c-5.89-16.793-8.594-34.685-8.003-52.468 1.152-34.61 15.005-68.132 38.625-93.44a144 144 0 0 1 11.608-11.128c25.412-21.792 58.219-34.16 91.66-34.63 2.009-.028 4.019-.014 6.028-.014zM31.948 205.811a136 136 0 0 0 9 19.935 136 136 0 0 0 10.819 16.602 136 136 0 0 0 12.066 13.819 136 136 0 0 0 16.737 14.226 136 136 0 0 0 25.933 14.642 136.3 136.3 0 0 0 26.965 8.351 136 136 0 0 0 22.133 2.54q4.767.153 9.533-.026a136 136 0 0 0 41.413-8.115 136 136 0 0 0 30.119-15.456l-18.812-25.896C201.313 257.527 181.413 264 160 264c-44.81 0-83-28.34-97.627-68.074zM263.925 164c-1.192 31.522-16.415 59.452-39.603 77.726l18.817 25.9a137 137 0 0 0 7.586-6.312 137 137 0 0 0 12.578-12.858A136 136 0 0 0 295.94 164zM158.667 64.014a95.95 95.95 0 0 0-42.214 10.436 96 96 0 0 0-16.678 10.796 96.1 96.1 0 0 0-23.595 27.963 96 96 0 0 0-10.248 27.655 96.1 96.1 0 0 0 .152 39.003 96 96 0 0 0 13.495 32.548 96 96 0 0 0 24.274 25.446 96.1 96.1 0 0 0 24.944 12.92 96 96 0 0 0 12.476 3.369c16.611 3.304 34.047 2.113 50.047-3.409A96 96 0 0 0 255.995 160v-.777c-.416-52.535-44.837-95.938-97.328-95.209m-4.52-39.888a136.1 136.1 0 0 0-55.79 14.645 136 136 0 0 0-38.143 28.823 135.8 135.8 0 0 0-17.968 24.362 136 136 0 0 0-9.372 19.724 136 136 0 0 0-7.215 27.147 136 136 0 0 0 3.818 59.376l30.426-9.886A104 104 0 0 1 56 160c0-56.099 44.416-101.823 100-103.925V24.059q-.927.027-1.853.067M164 56.075c54.257 2.052 97.873 45.668 99.925 99.925h32.016C293.863 84.068 235.932 26.136 164 24.058z"/></g></g></svg>