<svg xmlns="http://www.w3.org/2000/svg" fill="none" viewBox="0 0 320 320"><g id="profile" fill-rule="evenodd" clip-rule="evenodd"><path id="lg-icon-fill-primary" fill="#42aeea" d="M236 252.87c26.86-22.007 44-55.437 44-92.87 0-66.274-53.726-120-120-120S40 93.726 40 160c0 37.433 17.14 70.863 44 92.87V248c0-33.838 0-50.757 9.584-61.978a40 40 0 0 1 4.438-4.438C109.243 172 126.162 172 160 172s50.757 0 61.978 9.584a40 40 0 0 1 4.438 4.438C236 197.243 236 214.162 236 248zM196 112c0 19.882-16.118 36-36 36s-36-16.118-36-36 16.118-36 36-36 36 16.118 36 36"/><g id="Outlines" fill="#1d1d1b"><path d="M120 112c0-22.091 17.909-40 40-40s40 17.909 40 40-17.909 40-40 40-40-17.909-40-40m40-32c-17.673 0-32 14.327-32 32s14.327 32 32 32 32-14.327 32-32-14.327-32-32-32"/><path d="M240 279.751c38.592-25.832 64-69.824 64-119.751 0-79.529-64.471-144-144-144S16 80.471 16 160c0 49.927 25.408 93.919 64 119.751v.019l1.517.983a143.15 143.15 0 0 0 65.038 22.628 146 146 0 0 0 20.855.432c26.137-1.325 50.434-9.619 71.073-23.06l1.517-.983zm-73.001 16.072Q163.521 296 160 296c-4.242 0-8.439-.194-12.582-.574A135.2 135.2 0 0 1 88 275.399V248c0-17.02.007-29.423 1.169-38.988 1.15-9.472 3.382-15.622 7.456-20.392a36 36 0 0 1 3.995-3.995c4.77-4.074 10.92-6.306 20.392-7.456C130.577 176.007 142.98 176 160 176s29.423.007 38.988 1.169c9.472 1.15 15.622 3.382 20.392 7.456a36 36 0 0 1 3.995 3.995c4.074 4.77 6.306 10.92 7.456 20.392C231.993 218.577 232 230.98 232 248v27.399c-19.027 11.897-41.207 19.218-65.001 20.424M240 269.994v-22.273c0-16.683 0-29.571-1.227-39.674-1.246-10.252-3.806-18.172-9.315-24.623a44 44 0 0 0-4.882-4.882c-6.451-5.509-14.371-8.069-24.623-9.315C189.85 168 176.962 168 160.28 168h-.56c-16.682 0-29.57 0-39.673 1.227-10.252 1.246-18.172 3.806-24.623 9.315a44 44 0 0 0-4.882 4.882c-5.51 6.451-8.07 14.371-9.315 24.623C80 218.15 80 231.038 80 247.72v22.274C46.059 245.265 24 205.209 24 160 24 84.89 84.89 24 160 24c75.111 0 136 60.89 136 136 0 45.209-22.059 85.265-56 109.994"/></g></g></svg>