<svg xmlns="http://www.w3.org/2000/svg" fill="none" viewBox="0 0 320 320"><g id="property"><path id="lg-icon-fill-primary" fill="#42aeea" d="M244 68h-72v64h72zm32 40h24v24h-24zM76 188h72v64H76zm168 0h-72v64h72zm56 40h-24v24h24zm-256 0H20v24h24zM76 68h72v64H76zm-32 40H20v24h24z"/><g id="Outlines" fill="#1d1d1b" fill-rule="evenodd" clip-rule="evenodd"><path d="M72 152h80V64H72zm8-40h64v16H80zm36-40v32h28V72zm-8 0v32H80V72zm-28 72v-8h64v8zm88 8h80V64h-80zm8-40h64v16h-64zm36-40v32h28V72zm-8 0v32h-28V72zm-28 72v-8h64v8zM72 272h80v-88H72zm8-40h64v16H80zm36-40v32h28v-32zm-8 0v32H80v-32zm-28 72v-8h64v8zm88 8h80v-88h-80zm8-40h64v16h-64zm36-40v32h28v-32zm-8 0v32h-28v-32zm-28 72v-8h64v8z"/><path d="M248 8H72v24H40v72H16v48h24v72H16v48h24v40h240v-40h24v-48h-24v-72h24v-48h-24V32h-32zm-8 24V16H80v16zM48 40v264h224V40zm-24 96h16v8H24zm0-24h16v16H24zm272 16h-16v-16h16zm0 16h-16v-8h16zM40 248H24v-16h16zm-16 16v-8h16v8zm272-16h-16v-16h16zm0 16h-16v-8h16z"/></g></g></svg>