<svg xmlns="http://www.w3.org/2000/svg" fill="none" viewBox="0 0 320 320"><g id="protection-confirm"><path id="lg-icon-fill-primary" fill="#42aeea" d="m28 60 132-48 132 48v80L160 92 28 140z"/><g id="Outlines" fill="#1d1d1b"><path d="M236.162 258.194a3.964 3.964 0 0 1 5.609 0l11.218 11.225 25.24-25.256a3.964 3.964 0 0 1 5.609 0 3.97 3.97 0 0 1 0 5.612l-28.045 28.063a3.964 3.964 0 0 1-5.609 0l-14.022-14.031a3.97 3.97 0 0 1 0-5.613"/><path fill-rule="evenodd" d="M160 7.744 296 57.2V160c0 19.52-5.241 37.223-13.615 53.052C299.9 221.418 312 239.296 312 260c0 28.719-23.281 52-52 52-20.207 0-37.722-11.525-46.329-28.361-11.514 7.643-22.404 13.754-31.214 18.292a302 302 0 0 1-15.156 7.301 201 201 0 0 1-4.275 1.851l-.517.215a96 96 0 0 1-.819.334l-.11.045-.081.032-.022.009-.007.003c-.002 0-.004.001-1.47-3.721-1.466 3.722-1.468 3.721-1.47 3.721l-.007-.003-.022-.009-.081-.032-.302-.122q-.397-.16-1.144-.472c-.993-.415-2.44-1.033-4.275-1.851a302 302 0 0 1-15.156-7.301c-12.515-6.447-29.225-16.065-45.958-28.742C58.29 247.966 24 209.93 24 160V57.199zm50.543 268.364A52 52 0 0 1 208 260c0-28.718 23.281-52 52-52 5.163 0 10.151.753 14.859 2.154C282.974 195.084 288 178.343 288 160v-17.198l-124-45.09v204.232l.043-.019a294 294 0 0 0 14.75-7.106c8.947-4.608 20.062-10.863 31.75-18.711M156 301.944V97.711L32 142.802V160c0 46.071 31.709 82.034 64.415 106.812 16.267 12.323 32.557 21.704 44.792 28.007a294 294 0 0 0 14.75 7.106zm8-212.745 124 45.091V62.802l-124-45.09zm-8-71.488V89.2L32 134.29V62.802zM260 304c24.301 0 44-19.699 44-44s-19.699-44-44-44-44 19.7-44 44 19.699 44 44 44" clip-rule="evenodd"/><path d="m160 308 1.466 3.722-1.466.578-1.466-.578z"/></g></g></svg>