<svg xmlns="http://www.w3.org/2000/svg" fill="none" viewBox="0 0 320 320"><g id="protection"><path id="lg-icon-fill-primary" fill="#42aeea" d="m28 60 132-48 132 48v80L160 92 28 140z"/><g id="Outlines" fill="#1d1d1b"><path fill-rule="evenodd" d="m160 7.744 136 49.454V160c0 49.929-34.291 87.966-67.585 113.188-16.733 12.677-33.443 22.296-45.958 28.743a302 302 0 0 1-15.156 7.3 207 207 0 0 1-4.275 1.852l-.517.215-.627.256-.192.078-.11.044-.081.032-.022.009-.007.003c-.002.001-.004.002-1.47-3.72-1.466 3.722-1.468 3.721-1.47 3.72l-.007-.003-.022-.009-.081-.032q-.105-.041-.302-.122a95 95 0 0 1-1.144-.471c-.993-.416-2.44-1.034-4.275-1.852a302 302 0 0 1-15.156-7.3c-12.515-6.447-29.225-16.066-45.958-28.743C58.29 247.966 24 209.929 24 160V57.198zm4 294.2.043-.019a294 294 0 0 0 14.75-7.106c12.235-6.303 28.525-15.685 44.792-28.007C256.291 242.034 288 206.07 288 160v-17.198L164 97.711zm-8 0V97.711L32 142.802V160c0 46.07 31.709 82.034 64.415 106.812 16.267 12.322 32.557 21.704 44.792 28.007a294 294 0 0 0 14.75 7.106zm8-212.746 124 45.091V62.802L164 17.71zm-8-71.487v71.487L32 134.29V62.802z" clip-rule="evenodd"/><path d="m160 308 1.466 3.722-1.466.577-1.466-.577z"/></g></g></svg>