<svg xmlns="http://www.w3.org/2000/svg" fill="none" viewBox="0 0 320 320"><g id="protection"><path id="lg-icon-fill-primary" fill="#42aeea" d="m28 60 132-48 132 48v80L160 92 28 140z"/><g id="Outlines" fill="#1d1d1b"><path fill-rule="evenodd" d="M160 7.744 296 57.2V160c0 49.93-34.291 87.966-67.585 113.189-16.733 12.677-33.443 22.295-45.958 28.742a302 302 0 0 1-15.156 7.301 201 201 0 0 1-4.275 1.851l-.517.215a96 96 0 0 1-.819.334l-.11.045-.081.032-.022.009-.007.003c-.002 0-.004.001-1.47-3.721-1.466 3.722-1.468 3.721-1.47 3.721l-.007-.003-.022-.009-.081-.032-.302-.122q-.397-.16-1.144-.472c-.993-.415-2.44-1.033-4.275-1.851a302 302 0 0 1-15.156-7.301c-12.515-6.447-29.225-16.065-45.958-28.742C58.29 247.966 24 209.93 24 160V57.199zm4 294.2.043-.019a294 294 0 0 0 14.75-7.106c12.235-6.303 28.525-15.684 44.792-28.007C256.291 242.034 288 206.071 288 160v-17.198l-124-45.09zm-8 0V97.711L32 142.802V160c0 46.071 31.709 82.034 64.415 106.812 16.267 12.323 32.557 21.704 44.792 28.007a294 294 0 0 0 14.75 7.106zm8-212.745 124 45.091V62.802l-124-45.09zm-8-71.488V89.2L32 134.29V62.802z" clip-rule="evenodd"/><path d="m160 308 1.466 3.722-1.466.578-1.466-.578z"/></g></g></svg>