<svg xmlns="http://www.w3.org/2000/svg" fill="none" viewBox="0 0 320 320"><g id="protection-pounds"><path id="lg-icon-fill-primary" fill="#42aeea" d="m28 60 132-48 132 48v80L160 92 28 140z"/><g id="Outlines" fill="#1d1d1b"><path d="M252 248.385c0-4.75 3.7-8.385 8-8.385s8 3.635 8 8.385a4 4 0 0 0 8 0c0-8.929-7.045-16.385-16-16.385s-16 7.456-16 16.385c0 1.263.239 2.785.513 4.235.26 1.381.605 2.966.962 4.605l.101.462q.249 1.139.498 2.313H244a4 4 0 0 0 0 8h3.506q.078.599.142 1.19c.425 3.905.289 6.906-.428 8.772-.325.845-.701 1.276-1.047 1.52-.334.236-.955.518-2.173.518a4 4 0 0 0 0 8h28a4 4 0 1 0 0-8h-17.022c1.135-3.582 1.041-7.833.624-11.675l-.037-.325H264a4 4 0 1 0 0-8h-9.756a290 290 0 0 0-.851-4.016l-.095-.435c-.365-1.675-.686-3.147-.924-4.41-.27-1.433-.374-2.307-.374-2.754"/><path fill-rule="evenodd" d="M160 7.744 296 57.2V160c0 19.52-5.241 37.223-13.615 53.052C299.9 221.418 312 239.296 312 260c0 28.719-23.281 52-52 52-20.207 0-37.722-11.525-46.329-28.361-11.514 7.643-22.404 13.754-31.214 18.292a302 302 0 0 1-15.156 7.301 201 201 0 0 1-4.275 1.851l-.517.215a96 96 0 0 1-.819.334l-.11.045-.081.032-.022.009-.007.003c-.002 0-.004.001-1.47-3.721-1.466 3.722-1.468 3.721-1.47 3.721l-.007-.003-.022-.009-.081-.032-.302-.122q-.397-.16-1.144-.472c-.993-.415-2.44-1.033-4.275-1.851a302 302 0 0 1-15.156-7.301c-12.515-6.447-29.225-16.065-45.958-28.742C58.29 247.966 24 209.93 24 160V57.199zM160 308l1.466 3.722-1.466.578-1.466-.578zm50.543-31.892A52 52 0 0 1 208 260c0-28.718 23.281-52 52-52 5.163 0 10.151.753 14.859 2.154C282.973 195.084 288 178.343 288 160v-17.198l-124-45.09v204.232l.043-.019a294 294 0 0 0 14.75-7.106c8.947-4.608 20.062-10.863 31.75-18.711M156 301.944V97.711L32 142.802V160c0 46.071 31.709 82.034 64.415 106.812 16.267 12.323 32.557 21.704 44.792 28.007a294 294 0 0 0 14.75 7.106zm8-212.745 124 45.091V62.802l-124-45.09zm-8-71.488V89.2L32 134.29V62.802zM260 304c24.301 0 44-19.699 44-44s-19.699-44-44-44-44 19.7-44 44 19.699 44 44 44" clip-rule="evenodd"/></g></g></svg>