<svg xmlns="http://www.w3.org/2000/svg" fill="none" viewBox="0 0 320 320"><g id="protection-confirm"><path id="lg-icon-fill-primary" fill="#42aeea" d="m28 60 132-48 132 48v80L160 92 28 140z"/><g id="Outlines" fill="#1d1d1b"><path d="M236.162 258.194a3.964 3.964 0 0 1 5.609 0l11.218 11.225 25.24-25.257a3.966 3.966 0 0 1 5.609 0 3.97 3.97 0 0 1 0 5.613l-28.045 28.063a3.966 3.966 0 0 1-5.609 0l-14.022-14.032a3.97 3.97 0 0 1 0-5.612"/><path fill-rule="evenodd" d="m160 7.744 136 49.454V160c0 19.52-5.241 37.222-13.615 53.052C299.9 221.418 312 239.296 312 260c0 28.719-23.281 52-52 52-20.207 0-37.722-11.526-46.329-28.362-11.514 7.643-22.404 13.754-31.214 18.293a302 302 0 0 1-15.156 7.3 207 207 0 0 1-4.275 1.852l-.517.215-.627.256-.192.078-.11.044-.081.032-.022.009-.007.003c-.002.001-.004.002-1.47-3.72-1.466 3.722-1.468 3.721-1.47 3.72l-.007-.003-.022-.009-.081-.032q-.105-.041-.302-.122a95 95 0 0 1-1.144-.471c-.993-.416-2.44-1.034-4.275-1.852a302 302 0 0 1-15.156-7.3c-12.515-6.447-29.225-16.066-45.958-28.743C58.29 247.966 24 209.929 24 160V57.198zm50.543 268.364A52 52 0 0 1 208 260c0-28.719 23.281-52 52-52 5.163 0 10.151.753 14.859 2.154C282.974 195.083 288 178.343 288 160v-17.198L164 97.711v204.233l.043-.019a294 294 0 0 0 14.75-7.106c8.947-4.609 20.062-10.864 31.75-18.711M156 301.944V97.711L32 142.802V160c0 46.07 31.709 82.034 64.415 106.812 16.267 12.322 32.557 21.704 44.792 28.007a294 294 0 0 0 14.75 7.106zm8-212.746 124 45.091V62.802L164 17.71zm-8-71.487v71.487L32 134.29V62.802zM260 304c24.301 0 44-19.699 44-44s-19.699-44-44-44-44 19.699-44 44 19.699 44 44 44" clip-rule="evenodd"/><path d="m160 308 1.466 3.722-1.466.577-1.466-.577z"/></g></g></svg>