<svg xmlns="http://www.w3.org/2000/svg" fill="none" viewBox="0 0 320 320"><g id="pylon"><path id="lg-icon-fill-primary" fill="#42aeea" d="M176 28h-32l-4.637 24L92 76h42.727l-6.182 32L72 140h50.363l-5.181 28L52 204h56l.608 4.455L80 300l35.312-42.375L120 292l38.095-83.81L200 292l3.279-36.065L240 300l-30-96h58l-65.182-36-5.182-28H248l-56.546-32-6.181-32H228l-47.364-24z"/><path id="Outlines" fill="#1d1d1b" fill-rule="evenodd" d="M140.07 27.254A4 4 0 0 1 144 24h32a4 4 0 0 1 3.929 3.254l4.036 21.26 45.886 23.94A4 4 0 0 1 228 80h-38.057l4.727 24.905 57.263 31.592A4 4 0 0 1 250 144h-47.908l3.898 20.53 63.971 35.984A4 4 0 0 1 268 208h-53.116l28.927 90.786a4 4 0 0 1-6.884 3.775l-30.539-36.647-2.404 26.448a4.002 4.002 0 0 1-7.562 1.427l-38.155-76.31-34.626 76.176a4 4 0 0 1-7.604-1.115l-3.462-25.383-29.503 35.404a4 4 0 0 1-6.884-3.775l28.502-89.453-.182-1.333H52a4 4 0 0 1-1.96-7.486l63.969-35.983L117.907 144H70a4 4 0 0 1-1.932-7.503l57.26-31.591L130.056 80H92a4 4 0 0 1-1.85-7.546l45.884-23.94zM188.424 72l-2.557-13.471 25.819 13.47zm-11.18-16 3.037 16h-40.563l3.037-16zm-1.519-8-3.038-16h-25.375l-3.038 16zm-45.314 73.027L138.199 80h17.121zm59.177 0L164.679 80H181.8zM134.132 58.53 131.575 72h-23.261zm-10.741 56.581L85.531 136h33.894zM126.05 144l-8.649 45.558L154.824 144zm39.126 0 37.422 45.556L193.949 144zm24.144-8h-58.641L160 87.707zm11.254 0h33.896l-37.862-20.89zm12.149 64-4.782-25.194L252.73 200zM103 200H67.27l44.788-25.193L107.276 200zm103.488 8H168.54l61.439 73.727zm-55.029 0h-37.948L90.02 281.727zm-32.282-8L160 150.302 200.824 200zm49.814 21.038 30.154 36.185-1.856 20.412zm-49.477 37.793 24.572-29.487-21.995 48.388z" clip-rule="evenodd"/></g></svg>