<svg xmlns="http://www.w3.org/2000/svg" fill="none" viewBox="0 0 320 320"><g id="quote"><path id="lg-icon-fill-primary" fill="#42aeea" d="M103 68h101v40H103z"/><g id="Outlines" fill="#1d1d1b"><path d="M184 132a4 4 0 0 0-4-4H92a4 4 0 0 0 0 8h88a4 4 0 0 0 4-4m-4 12a4 4 0 0 1 0 8H92a4 4 0 0 1 0-8zm4 44a4 4 0 0 0-4-4H92a4 4 0 0 0 0 8h88a4 4 0 0 0 4-4m-4 12a4 4 0 0 1 0 8H92a4 4 0 0 1 0-8zm-12 44a4 4 0 0 0-4-4H92a4 4 0 0 0 0 8h72a4 4 0 0 0 4-4m-40 16a4 4 0 0 0-4-4H92a4 4 0 0 0 0 8h32a4 4 0 0 0 4-4m100-76a4 4 0 0 1 0 8h-24a4 4 0 0 1 0-8zm4-52a4 4 0 0 0-4-4h-24a4 4 0 0 0 0 8h24a4 4 0 0 0 4-4"/><path fill-rule="evenodd" d="M102.867 111.911q-.248.001-.495.025C99.923 112.15 80 113.166 80 87.496c0-23.71 19.924-23.674 22.372-23.46q.247.024.495.025h99.896c.62 0 1.233.143 1.788.42l37.239 19.465c2.947 1.462 2.947 5.638 0 7.1l-37.239 20.446a4 4 0 0 1-1.788.419zM99 104.161c-1.418-.165-3.504-.756-5.093-1.563-1.47-.746-2.799-2.53-3.853-4.319s-2.057-5.968-2.057-10.783S89 78.5 90.054 76.712c1.035-1.757 2.382-2.592 3.853-3.338 1.589-.806 3.675-1.398 5.093-1.563zm7.616-.189H200V91.465h-93.384zM107 83.575h93V71.81h-93zm116 8.822-15.295 8.653V74.922L223 82.594q-.082.28-.184.61c-.347 1.128-.816 2.65-.816 4.292 0 1.61.347 2.747.74 4.032q.129.418.26.87" clip-rule="evenodd"/><path d="M252 248.385c0-4.751 3.7-8.385 8-8.385s8 3.634 8 8.385a4 4 0 0 0 8 0c0-8.929-7.045-16.385-16-16.385s-16 7.456-16 16.385c0 1.263.239 2.784.513 4.234.26 1.382.605 2.966.962 4.606l.101.461q.249 1.138.498 2.314H244a4 4 0 0 0 0 8h3.506q.078.599.142 1.19c.425 3.904.289 6.906-.428 8.772-.325.844-.701 1.276-1.047 1.519-.334.236-.955.519-2.173.519a4 4 0 0 0 0 8h28a4 4 0 0 0 0-8h-17.022c1.135-3.582 1.041-7.833.624-11.675l-.037-.325H264a4 4 0 0 0 0-8h-9.756c-.285-1.408-.578-2.76-.851-4.016l-.095-.436c-.365-1.675-.686-3.146-.924-4.41-.27-1.432-.374-2.307-.374-2.753"/><path fill-rule="evenodd" d="M88 8a4 4 0 0 0-4 4v12H62a6 6 0 0 0-6 6v276a6 6 0 0 0 6 6h196q.255 0 .506-.021.744.021 1.494.021c28.719 0 52-23.281 52-52 0-27.373-21.15-49.806-48-51.848V30a6 6 0 0 0-6-6h-22V12a4 4 0 0 0-8 0v12h-16V12a4 4 0 0 0-8 0v12h-16V12a4 4 0 0 0-8 0v12h-16V12a4 4 0 0 0-8 0v12h-16V12a4 4 0 0 0-8 0v12h-16V12a4 4 0 0 0-8 0v12H92V12a4 4 0 0 0-4-4m168 200.152V32h-20v12a4 4 0 0 1-8 0V32h-16v12a4 4 0 0 1-8 0V32h-16v12a4 4 0 0 1-8 0V32h-16v12a4 4 0 0 1-8 0V32h-16v12a4 4 0 0 1-8 0V32h-16v12a4 4 0 0 1-8 0V32H92v12a4 4 0 0 1-8 0V32H64v272h168.275C217.688 294.789 208 278.526 208 260c0-27.373 21.15-49.806 48-51.848M260 304c24.301 0 44-19.699 44-44s-19.699-44-44-44-44 19.699-44 44 19.699 44 44 44" clip-rule="evenodd"/></g></g></svg>