<svg xmlns="http://www.w3.org/2000/svg" fill="none" viewBox="0 0 320 320"><g id="refresh"><path id="lg-icon-fill-primary" fill="#42aeea" d="M252 160c0 50.81-41.19 92-92 92s-92-41.19-92-92 41.19-92 92-92 92 41.19 92 92"/><g id="Outlines" fill="#1d1d1b"><path d="M262 228v21.962c47.201-53.415 45.256-135.039-5.834-186.128C229.61 37.277 194.812 24 160 24a4 4 0 1 1 .001-8c36.846 0 73.705 14.06 101.822 42.177C316.157 112.51 317.994 199.46 267.336 256H290a4 4 0 1 1 0 8h-32a4 4 0 0 1-4-4v-32a4 4 0 0 1 8 0M58 92a4 4 0 1 0 8 0V60a4 4 0 0 0-4-4H30a4 4 0 1 0 0 8h22.663c-50.658 56.54-48.82 143.49 5.514 197.823C86.294 289.94 123.154 304 160 304a4 4 0 0 0 0-8c-34.812 0-69.61-13.277-96.167-39.834-51.09-51.09-53.035-132.715-5.833-186.13z"/><path fill-rule="evenodd" d="M160 64c-53.019 0-96 42.981-96 96s42.981 96 96 96c53.02 0 96-42.981 96-96s-42.98-96-96-96m-30.394 32.796c7.41-14.202 16.763-22.591 26.394-24.417V108h-31.344c1.492-4.006 3.15-7.754 4.95-11.204M116.158 108c1.848-5.356 3.978-10.349 6.355-14.904 3.534-6.774 7.711-12.739 12.427-17.476C116.293 81.15 100.231 92.692 89 108zm-32.381 7.994q.11.006.224.006h29.681c-3.335 12.09-5.325 25.66-5.638 40H72.09a87.5 87.5 0 0 1 11.687-40.006M122 116h34v40h-39.954c.332-14.564 2.47-28.161 5.954-40m42 0v40h39.955c-.332-14.564-2.47-28.161-5.954-40zm42.319 0c3.335 12.09 5.325 25.66 5.638 40h35.954a87.5 87.5 0 0 0-11.687-40.006A4 4 0 0 1 236 116zm24.682-8h-27.158c-1.849-5.356-3.978-10.349-6.355-14.904-3.534-6.774-7.711-12.739-12.427-17.476 18.647 5.53 34.709 17.072 45.94 32.38m-35.656 0H164V72.379c9.632 1.826 18.985 10.215 26.395 24.417 1.8 3.45 3.458 7.198 4.95 11.204m-79.299 56H156v40h-34c-3.484-11.839-5.622-25.436-5.954-40m-8.002 0H72.09a87.5 87.5 0 0 0 11.687 40.006q.11-.006.224-.006h29.681c-3.335-12.09-5.325-25.66-5.638-40m139.867 0h-35.954c-.313 14.34-2.303 27.91-5.638 40H236q.113 0 .224.006A87.5 87.5 0 0 0 247.911 164m-49.91 40c3.484-11.839 5.622-25.436 5.954-40H164v40zm-109 8h27.157c1.849 5.356 3.978 10.349 6.355 14.904 3.534 6.774 7.711 12.739 12.427 17.476-18.647-5.529-34.709-17.072-45.94-32.38m35.655 0H156v35.621c-9.631-1.826-18.984-10.215-26.394-24.417-1.8-3.451-3.458-7.198-4.95-11.204M164 212v35.621c9.632-1.826 18.985-10.215 26.395-24.417 1.8-3.451 3.458-7.198 4.95-11.204zm39.843 0c-1.849 5.356-3.978 10.349-6.355 14.904-3.534 6.774-7.711 12.739-12.427 17.476 18.647-5.529 34.709-17.072 45.94-32.38z" clip-rule="evenodd"/></g></g></svg>