<svg xmlns="http://www.w3.org/2000/svg" fill="none" viewBox="0 0 320 320"><g id="reload"><path id="lg-icon-fill-primary" fill="#42aeea" d="M242.026 77.975C196.725 32.675 123.501 32 75.001 80l17 17c39-38 97.127-37.982 133.055-2.054 17.964 17.964 26.946 41.509 26.946 65.054h-32.001v4l43.5 44 43.5-45v-3h-31c-.251-29.353-11.579-59.628-33.975-82.025"/><path id="Outlines" fill="#1d1d1b" fill-rule="evenodd" d="M51.432 109.946a6.336 6.336 0 0 1 9.136 0l41.603 43.048c3.766 3.897 1.372 11.005-4.568 11.005H72.09c.956 21.189 9.515 42.057 25.684 58.227 34.366 34.366 90.085 34.366 124.451 0l5.657-5.657 22.627 22.627-5.657 5.657c-46.862 46.863-122.843 46.863-169.706 0-22.41-22.411-34.107-51.51-35.08-80.854H14.397c-5.94 0-8.334-7.109-4.568-11.005zm-33.383 46.053h29.95v4.436q.016 3.786.285 7.565c1.847 25.934 12.688 51.365 32.52 71.196 41.836 41.836 108.537 43.656 152.536 5.458q3.001-2.605 5.855-5.458l-11.313-11.314c-37.491 37.491-98.275 37.491-135.765 0C73.371 209.136 64 184.581 64 160v-4.001h29.952L56 116.73zm56.629-80.852c46.863-46.863 122.842-46.863 169.705 0 22.41 22.41 34.107 51.51 35.081 80.853h25.668c5.94.001 8.334 7.11 4.568 11.007l-41.602 43.048a6.337 6.337 0 0 1-9.137 0l-41.603-43.048c-3.766-3.897-1.372-11.006 4.569-11.007h25.512c-.956-21.188-9.514-42.056-25.683-58.225-34.366-34.366-90.085-34.366-124.451 0l-5.658 5.657L69.02 80.804zm164.048 5.657c-41.837-41.836-108.538-43.656-152.537-5.458q-3.001 2.605-5.855 5.458l11.313 11.314c37.491-37.49 98.275-37.49 135.765 0 18.718 18.717 28.059 43.225 28.088 67.768l.029 4.114h-29.951l37.951 39.27L301.48 164h-29.951v-4.435q-.015-3.786-.284-7.565c-1.847-25.933-12.688-51.365-32.519-71.196" clip-rule="evenodd"/></g></svg>