<svg xmlns="http://www.w3.org/2000/svg" fill="none" viewBox="0 0 320 320"><g id="research"><path id="lg-icon-fill-primary" fill="#42aeea" d="M302.178 257.196c7.737 7.738 7.737 20.285 0 28.023-7.738 7.738-20.285 7.738-28.023 0L192 203.063l28.021-28.022zM128 48a64.002 64.002 0 0 1 59.128 88.491A64.002 64.002 0 1 1 72.574 80l27.713 16A32.001 32.001 0 0 0 144 139.713 32 32 0 0 0 128 80z"/><g id="Outlines" fill="#1d1d1b"><path d="M132 272a4 4 0 0 1 0 8H52a4 4 0 0 1 0-8zm64-24a4 4 0 0 1 0 8H52a4 4 0 0 1 0-8zm-32-24a4 4 0 0 1 0 8H52a4 4 0 0 1 0-8z"/><path fill-rule="evenodd" d="M128 48q.63 0 1.257.013.053 0 .105.002c16.463.343 31.396 6.904 42.55 17.427l.098.092q.436.414.865.835l.086.085a64 64 0 0 1 1.7 1.743l.082.087q.43.46.85.928l.05.055C185.813 80.597 192 95.576 192 112l-.002.222-.001.135c-.089 16.232-6.22 31.032-16.259 42.268l-.123.138a64 64 0 0 1-2.498 2.628l-.099.097a65 65 0 0 1-2.691 2.515l-.043.039c-10.912 9.612-25.124 15.564-40.719 15.938l-.04.001q-.539.013-1.08.016l-.214.001L128 176q-.438 0-.874-.006l-.101-.002a65 65 0 0 1-1.081-.026l-.126-.004c-14.952-.501-28.604-6.13-39.253-15.186l-.118-.1a64 64 0 0 1-.779-.676l-.176-.155a64 64 0 0 1-.754-.682l-.203-.186a74 74 0 0 1-.755-.711l-.093-.087-.126-.123a66 66 0 0 1-2.55-2.604l-.122-.134c-10.367-11.269-16.743-26.267-16.886-42.753l-.001-.287L64 112q0-1.033.033-2.059l.004-.129C65.19 75.479 93.386 48 128 48m8 24.8a39.8 39.8 0 0 1 16.189 7.344l.162.122.074.057a48 48 0 0 1 1.157.928l.222.188q.216.18.428.365.193.167.381.338a39 39 0 0 1 .932.854q.118.113.235.228a39 39 0 0 1 1.929 1.995l.3.337.265.3q.133.155.264.312.349.413.687.834l.137.17a39.8 39.8 0 0 1 8.599 23.111l.015.387a33 33 0 0 1 .019.92l.005.41-.002.109a42 42 0 0 1-.024 1.275q-.006.215-.016.429a46 46 0 0 1-.051.892 39.8 39.8 0 0 1-8.726 22.347l-.098.123q-.192.235-.388.469a64 64 0 0 1-.555.652q-.14.16-.282.318-.151.171-.304.339l-.228.246q-.273.294-.552.583-.209.217-.421.431l-.29.286q-.162.16-.328.32a33 33 0 0 1-.973.908 43 43 0 0 1-.703.618l-.199.169a39.82 39.82 0 0 1-24.12 9.446q-.288.013-.576.021-.163.005-.327.008a37 37 0 0 1-.665.008L128 152l-.116-.002a39 39 0 0 1-.686-.009l-.295-.005q-.435-.012-.872-.033-.234-.012-.469-.027-.21-.012-.421-.027-.311-.022-.62-.049l-.186-.017a39.8 39.8 0 0 1-21.463-8.711l-.159-.128a38 38 0 0 1-1.422-1.218 36 36 0 0 1-.694-.638l-.262-.246a37 37 0 0 1-1.24-1.241q-.133-.14-.265-.282l-.36-.387-.258-.287a32 32 0 0 1-.621-.709q-.12-.14-.237-.281a38 38 0 0 1-.358-.431l-.13-.161a39.8 39.8 0 0 1-8.73-21.818q-.018-.213-.033-.427a41 41 0 0 1-.041-.655l-.016-.293a40 40 0 0 1-.032-.835l-.002-.112a40 40 0 0 1 .086-3.758 39.8 39.8 0 0 1 1.952-9.886L76 91.216a56 56 0 0 0-3.52 28.094 56 56 0 0 0 57.343 48.659l.065-.002a56 56 0 0 0 37.93-16.592 54 54 0 0 0 1.5-1.578l.033-.034a56 56 0 0 0 14.647-37.485l.001-.104a56 56 0 0 0-14.301-37.554l-.092-.101a55 55 0 0 0-3.231-3.302A56 56 0 0 0 136 56.574zm-8 7.2c-11.843 0-22.183 6.434-27.717 15.997l.004.003a32 32 0 0 0-4.014 20.177 32 32 0 0 0 11.135 20.315 32 32 0 0 0 17.601 7.367q.587.055 1.179.088l.283.015q.7.033 1.408.036h.216a32 32 0 0 0 15.33-3.961l.575-.324a32 32 0 0 0 5.987-4.465l.214-.204a32 32 0 0 0 7.105-10.191l.258-.607a32 32 0 0 0 2.366-14.325 32 32 0 0 0-6.946-17.914A32 32 0 0 0 128 80m0-24c-20.726 0-38.823 11.26-48.506 27.995l13.86 8.002C100.27 80.043 113.196 72 128 72z" clip-rule="evenodd"/><path fill-rule="evenodd" d="M232 16h16v8h16v189.639l40.813 40.813c9.373 9.373 9.373 24.569 0 33.942-9.372 9.372-24.567 9.372-33.94 0L264 281.521V296h-16v8h-16v8H24V8h208zM32 304h192v-62.479l-37.98-37.98 5.633-5.634-13.552-13.553C163.882 194.219 146.616 200 128 200c-48.601 0-88-39.399-88-88s39.399-88 88-88 88 39.399 88 88c0 18.423-5.664 35.523-15.342 49.657l13.622 13.622 5.681-5.679 4.039 4.039V16H32zm200-8h8v-38.479l-8-8zm16-8h8v-14.479l-8-8zm-28.063-107.063.105.105-22.604 22.604 79.091 79.09c6.249 6.249 16.38 6.249 22.628 0s6.248-16.378 0-22.627l-79.196-79.196zM248 197.639l8 8V32h-8zm-54.925-26.401a89 89 0 0 1-5.844 5.843l-2.544 2.546 12.623 12.623 11.313-11.313-12.622-12.624zM128 32c-44.183 0-80 35.817-80 80s35.817 80 80 80c20.675 0 39.518-7.844 53.717-20.718l5.563-5.562C200.155 151.521 208 132.677 208 112c0-44.183-35.817-80-80-80m104 149.639 8 8V24h-8z" clip-rule="evenodd"/></g></g></svg>