<svg xmlns="http://www.w3.org/2000/svg" fill="none" viewBox="0 0 320 320"><g id="responsible-investing"><path id="lg-icon-fill-primary" fill="#42aeea" d="M244.028 22.033c10.275-4.28 21.29-7.903 32.512-9.17 5.738-.647 19.017-.892 23.622-.86-.03 24.35-3.366 45.93-13.247 61.251-9.11 14.124-30.882 32.329-46.442 39.17-8.835 3.883-18.938 5.088-28.724 6.254-1.738.207-3.467.413-5.176.633-3.415.439-6.63.727-9.592.895l-1.349.069-.66.028-1.293.045-1.254.029q-1.267.023-2.446.013c.121-25.519 5.873-51.775 16.421-67.354 9.292-13.724 22.111-24.54 37.628-31.003M115.022 44.456l-.006-.421.933-.01a80 80 0 0 1 9.828.62c8.366 1.03 24.491 5.31 31.889 9.134l.608.318c19.151 10.171 30.764 35.313 31.672 66.213l.009.356-.694.046c-9.75.598-28.791-2.647-39.22-6.997-9.909-4.133-18.106-10.724-24.107-20.231l-.325-.522c-6.566-10.663-10.267-30.694-10.587-48.506M76 140H28v96h48z"/><path id="Outlines" fill="#1d1d1b" fill-rule="evenodd" d="M296.842 8h6.996c1.227 29.474-4.536 53.259-16.352 71.59-10.007 15.524-24.008 26.717-40.923 34.157-11.154 4.906-23.04 7.951-35.079 9.499-6.465.831-12.271 1.154-17.123 1.147l-.456-.002-.004 59.629 14.815.001c8.154 0 14.844 6.659 15.329 15.033l54.043-21.835c.899-.339 8.118-2.888 13.3.709 2.032 1.41 4.454 4.277 4.454 9.932 0 12.473-12.195 19.458-15.246 21.01l-.294.147-.081.04c-5.215 3.33-73.996 46.943-99.327 46.943-23.056 0-62.704-18.327-77.219-25.437-1.157 5.414-5.974 9.484-11.721 9.484H35.99c-6.612 0-11.991-5.386-11.991-12.005v-80.037C24 141.385 29.38 136 35.992 136H67.97c5.211 0 9.657 3.345 11.307 8.003h12.677c6.612 0 11.991 5.386 11.991 12.006v.238c9.868-.297 49.423.346 72.732 27.772h9.229l.004-59.338c-10.918.708-23.212-.654-35.022-5.582-24.927-10.403-39.907-33.861-39.938-73.058l.005-1.522.056-.324a4.9 4.9 0 0 1 3.045-3.73l.22-.08.486-.164.512-.036c4.126-.287 9.337-.229 15.419.52 9.243 1.139 18.263 3.67 26.57 7.967 14.728 7.618 25.613 19.856 31.541 37.253l.117.353.062-.285c2.865-13.317 7.679-24.907 14.29-34.848l.399-.595c10.215-15.095 24.276-25.87 41.153-32.902 11.02-4.592 22.751-7.389 34.67-8.735 2.354-.265 4.636-.467 6.834-.613 3.506-.211 7.015-.3 10.513-.3M174.796 192.025l-.106-.001-.018-.001-.071-.003h-.016l-.055-.004-.15-.012-.079-.01-.135-.018-.06-.011a3 3 0 0 1-.164-.032l-.032-.007-.16-.039-.064-.019q-.3-.086-.578-.216l-.075-.036-.114-.059-.108-.059-.047-.028-.128-.078-.02-.014-.021-.014-.12-.081-.046-.035a4 4 0 0 1-.322-.263l-.1-.095-.058-.057-.083-.087-.056-.062a4 4 0 0 1-.155-.186l.021.026c-20.826-26.039-59.349-26.489-67.733-26.26l-.001 57.493c9.978 4.99 53.839 26.239 76.952 26.239 6.634 0 21.756-3.943 56.116-22.735l1.217-.667c15.577-8.568 29.409-17.086 35.12-20.662l.439-.275c1.336-.838 2.14-1.351 2.309-1.459l.032-.02q.242-.155.504-.274l.076-.037.116-.057c1.485-.741 11.025-5.823 11.025-13.95 0-.988-.131-2.736-1.007-3.35-1.195-.836-4.134-.448-5.827.157l-59.317 23.966-.047.018c-2.733 4.438-7.51 7.385-12.934 7.385H155.7a4 4 0 0 1-3.997-4.002 4 4 0 0 1 3.997-4.002h53.016c4.06 0 7.363-3.59 7.363-8.003s-3.303-8.004-7.363-8.004zm-82.842-40.018H79.962v80.036h11.992a4.004 4.004 0 0 0 3.997-4.002v-72.032a4.004 4.004 0 0 0-3.997-4.002m-23.984-8.004H35.992a4.004 4.004 0 0 0-3.997 4.002v80.037a4.003 4.003 0 0 0 3.996 4.001h35.976v-84.038a4.004 4.004 0 0 0-3.997-4.002m51.924-95.977-.933.008.007.422c.319 17.812 4.018 31.843 10.58 42.506l.326.522c5.996 9.507 14.189 16.098 24.092 20.231 10.423 4.35 21.458 5.595 31.202 4.997l.693-.046-.009-.356c-.906-30.9-12.513-50.042-31.654-60.213l-.606-.318c-7.394-3.825-15.515-6.104-23.876-7.133-3.654-.45-6.952-.626-9.822-.62m160.497-31.163c-11.214 1.266-22.223 3.89-32.492 8.17-15.509 6.462-28.32 16.279-37.606 30.002-10.543 15.58-16.292 35.836-16.412 61.355q1.178.01 2.445-.013l1.253-.029 1.292-.045.66-.028 1.348-.069a136 136 0 0 0 9.586-.895c11.326-1.456 22.483-4.314 32.881-8.888 15.552-6.84 28.316-17.045 37.421-31.17 9.875-15.32 15.208-34.9 15.238-59.25-4.602-.032-9.879.212-15.614.86" clip-rule="evenodd"/></g></svg>