<svg xmlns="http://www.w3.org/2000/svg" fill="none" viewBox="0 0 320 320"><g id="rewards"><path id="lg-icon-fill-primary" fill="#42aeea" d="M132 92v200H28V156H12V92zm176 64h-16v136H188V92h120z"/><path id="Outlines" fill="#1d1d1b" fill-rule="evenodd" d="M188 16a4 4 0 0 1 4 4v11.997C199.298 22.283 210.915 16 224 16c22.091 0 40 17.909 40 40 0 13.085-6.283 24.702-15.997 32H308a4 4 0 0 1 4 4v64a4 4 0 0 1-4 4h-12v132a4 4 0 0 1-4 4H28a4 4 0 0 1-4-4V160H12a4 4 0 0 1-4-4V92a4 4 0 0 1 4-4h59.997C62.283 80.702 56 69.085 56 56c0-22.091 17.909-40 40-40 13.085 0 24.702 6.283 32 15.997V20a4 4 0 0 1 4-4zM32 288h96V160H32zm104 0h48V96h-48zm56 0h96V160h-96zM16 152h112V96H16zm176 0h112V96H192zM96 24c-17.673 0-32 14.327-32 32s14.327 32 32 32h32V56c0-17.673-14.327-32-32-32m40 64h48V24h-48zm88-64c-17.673 0-32 14.327-32 32v32h32c17.673 0 32-14.327 32-32s-14.327-32-32-32" clip-rule="evenodd"/></g></svg>