<svg xmlns="http://www.w3.org/2000/svg" fill="none" viewBox="0 0 320 320"><g id="road-transport"><g id="lg-icon-fill-primary" fill="#42aeea"><path d="M204 36H12v168h192zm104.136 97.826a2 2 0 0 0-1.819-1.991l-84-7.637a2 2 0 0 0-2.181 1.992v16.669a2 2 0 0 0 .982 1.722l84 49.636c1.334.788 3.018-.173 3.018-1.722z"/><path fill-rule="evenodd" d="M48.136 292c-19.883 0-36-16.118-36-36s16.118-36 36-36 36 16.118 36 36-16.118 36-36 36m0-24c-6.628 0-12-5.373-12-12s5.372-12 12-12c6.627 0 12 5.373 12 12s-5.373 12-12 12m36-12c0-19.882 16.117-36 36-36s36 16.118 36 36-16.118 36-36 36-36-16.118-36-36m36 12c-6.628 0-12-5.373-12-12s5.372-12 12-12c6.627 0 12 5.373 12 12s-5.373 12-12 12m100-12c0 19.882 16.117 36 36 36s36-16.118 36-36-16.118-36-36-36-36 16.118-36 36m24 0c0 6.627 5.372 12 12 12 6.627 0 12-5.373 12-12s-5.373-12-12-12c-6.628 0-12 5.373-12 12" clip-rule="evenodd"/></g><g id="Outlines" fill="#1d1d1b" fill-rule="evenodd" clip-rule="evenodd"><path d="M8 32h200v176H8zm8 8v160h24V40zm32 0v160h24V40zm56 160H80V40h24zm8-160v160h24V40zm56 160h-24V40h24zm8-160v160h24V40zM48.136 240c8.836 0 16 7.163 16 16s-7.164 16-16 16-16-7.163-16-16 7.163-16 16-16m8 16a8 8 0 1 0-16 0 8 8 0 0 0 16 0m64-16c8.836 0 16 7.163 16 16s-7.164 16-16 16-16-7.163-16-16 7.163-16 16-16m8 16a8 8 0 1 0-16 0 8 8 0 0 0 16 0m128-16c8.836 0 16 7.163 16 16s-7.164 16-16 16-16-7.163-16-16 7.163-16 16-16m8 16a8 8 0 1 0-16 0 8 8 0 0 0 16 0"/><path d="M312.136 109.827a6 6 0 0 0-5.457-5.976l-84-7.636a6 6 0 0 0-6.543 5.975V216H12a4 4 0 0 0 0 8h12.132c-9.714 7.298-15.996 18.915-15.996 32 0 22.091 17.908 40 40 40 15.832 0 29.517-9.199 36-22.544 6.483 13.345 20.167 22.544 36 22.544 20.741 0 37.795-15.787 39.802-36h56.395c2.007 20.213 19.061 36 39.803 36s37.795-15.787 39.802-36h10.198a6 6 0 0 0 6-6zm-8 1.826-80-7.273v15.967l80 7.273zm0 77.337v-53.337l-80-7.273v13.337zm-80-37.98 78.947 46.651q.518.304 1.053.495V252h-8.198c-2.006-20.213-19.061-36-39.802-36-13.085 0-24.702 6.283-32 15.996zm-8 72.99v28h-56.198c-1.135-11.436-7.087-21.455-15.798-28zM72.14 224a40.16 40.16 0 0 1 11.996 14.544A40.16 40.16 0 0 1 96.132 224zm-24.004 0c-17.673 0-32 14.327-32 32s14.327 32 32 32 32-14.327 32-32-14.327-32-32-32m72 0c-17.673 0-32 14.327-32 32s14.327 32 32 32 32-14.327 32-32-14.327-32-32-32m136 0c17.673 0 32 14.327 32 32s-14.327 32-32 32-32-14.327-32-32 14.327-32 32-32"/></g></g></svg>