<svg xmlns="http://www.w3.org/2000/svg" fill="none" viewBox="0 0 320 320"><g id="rosette"><path id="lg-icon-fill-primary" fill="#42aeea" d="M160 164c28.719 0 52-23.281 52-52s-23.281-52-52-52-52 23.281-52 52 23.281 52 52 52m-36 140V199.257l4.683-1.492a14.92 14.92 0 0 1 15.555 4.168l4.734 5.195c5.917 6.496 16.139 6.496 22.056 0l4.734-5.195a14.92 14.92 0 0 1 15.555-4.168l4.683 1.492V304l-36-35.38z"/><g id="Outlines" fill="#1d1d1b" fill-rule="evenodd" clip-rule="evenodd"><path d="M160 56c-30.928 0-56 25.072-56 56s25.072 56 56 56 56-25.072 56-56-25.072-56-56-56m-48 56c0-26.51 21.49-48 48-48s48 21.49 48 48-21.49 48-48 48-48-21.49-48-48"/><path d="M146.015 14.178c7.504-8.237 20.466-8.237 27.97 0l4.733 5.194a10.92 10.92 0 0 0 11.385 3.051l6.697-2.132c10.617-3.381 21.842 3.1 24.223 13.985l1.501 6.865a10.92 10.92 0 0 0 8.335 8.335l6.865 1.501c10.885 2.38 17.366 13.606 13.985 24.223l-2.132 6.697a10.92 10.92 0 0 0 3.051 11.385l5.195 4.733c8.236 7.504 8.236 20.466 0 27.97l-5.195 4.733a10.92 10.92 0 0 0-3.051 11.385l2.132 6.697c3.381 10.617-3.1 21.842-13.985 24.223l-6.865 1.501a10.92 10.92 0 0 0-8.335 8.335l-1.501 6.865c-2.251 10.293-12.409 16.647-22.484 14.451v109.364L160 274.228l-38.539 39.311V204.175c-10.075 2.196-20.233-4.158-22.484-14.451l-1.501-6.865a10.92 10.92 0 0 0-8.335-8.335l-6.865-1.501C71.39 170.642 64.91 159.417 68.29 148.8l2.132-6.697a10.92 10.92 0 0 0-3.05-11.385l-5.196-4.733c-8.236-7.504-8.236-20.466 0-27.97l5.195-4.733a10.92 10.92 0 0 0 3.051-11.385L68.291 75.2c-3.381-10.617 3.1-21.842 13.985-24.223l6.865-1.501a10.92 10.92 0 0 0 8.335-8.335l1.501-6.865C101.358 23.39 112.583 16.91 123.2 20.29l6.697 2.132a10.92 10.92 0 0 0 11.385-3.05zm44.088 187.399.728.232v92.651L160 263.012l-30.831 31.448v-92.651l.728-.232a10.92 10.92 0 0 1 11.385 3.051l4.733 5.195c7.504 8.236 20.466 8.236 27.97 0l4.733-5.195a10.92 10.92 0 0 1 11.385-3.051M168.072 19.565c-4.332-4.754-11.812-4.754-16.144 0l-4.733 5.195a18.92 18.92 0 0 1-19.726 5.286l-6.696-2.133c-6.128-1.95-12.607 1.79-13.981 8.072l-1.501 6.866a18.92 18.92 0 0 1-14.44 14.44l-6.866 1.501c-6.282 1.374-10.023 7.853-8.072 13.98l2.133 6.697a18.92 18.92 0 0 1-5.286 19.726l-5.195 4.733c-4.753 4.332-4.753 11.812 0 16.144l5.195 4.733a18.92 18.92 0 0 1 5.286 19.726l-2.133 6.696c-1.95 6.128 1.79 12.607 8.072 13.981l6.866 1.501a18.92 18.92 0 0 1 14.44 14.44l1.501 6.866c1.374 6.282 7.853 10.023 13.981 8.072l6.696-2.133a18.92 18.92 0 0 1 19.726 5.286l4.733 5.195c4.332 4.753 11.812 4.753 16.144 0l4.733-5.195a18.92 18.92 0 0 1 19.726-5.286l6.696 2.133c6.128 1.951 12.607-1.79 13.981-8.072l1.501-6.866a18.92 18.92 0 0 1 14.44-14.44l6.866-1.501c6.282-1.374 10.023-7.853 8.072-13.981l-2.133-6.696a18.92 18.92 0 0 1 5.286-19.726l5.195-4.733c4.753-4.332 4.753-11.812 0-16.144l-5.195-4.733a18.92 18.92 0 0 1-5.286-19.726l2.133-6.696c1.951-6.128-1.79-12.607-8.072-13.98l-6.866-1.502a18.92 18.92 0 0 1-14.44-14.44l-1.501-6.866c-1.374-6.282-7.853-10.023-13.981-8.072l-6.696 2.133a18.92 18.92 0 0 1-19.726-5.286z"/></g></g></svg>