<svg xmlns="http://www.w3.org/2000/svg" fill="none" viewBox="0 0 320 320"><g id="saving"><path id="lg-icon-fill-primary" fill="#42aeea" fill-rule="evenodd" d="M160 20c55.228 0 100 44.772 100 100 0 26.262-10.126 50.157-26.684 68H284a8 8 0 0 1 8 8v8a8 8 0 0 1-8 8H36a8 8 0 0 1-8-8v-8a8 8 0 0 1 8-8h50.684C70.126 170.157 60 146.262 60 120c0-55.228 44.772-100 100-100m0 24c-41.974 0-76 34.026-76 76 0 29.761 17.106 55.526 42.022 68h67.956C218.894 175.526 236 149.761 236 120c0-41.974-34.026-76-76-76" clip-rule="evenodd"/><g id="Outlines" fill="#1d1d1b"><path d="M124.671 79.204c10.199-10.142 20.083-11.651 27.672-10.117 3.667.741 6.628 2.157 8.668 3.379a26 26 0 0 1 2.401 1.623l.979.805c1.632 1.494 1.752 4.02.269 5.643-1.478 1.617-3.992 1.725-5.625.247l-.002-.002-.069-.06a11 11 0 0 0-.38-.303 18 18 0 0 0-1.643-1.108c-1.467-.878-3.571-1.878-6.129-2.395-4.864-.983-12.085-.385-20.489 7.972-3.763 3.741-6.686 8.786-7.583 13.819-.871 4.89.15 9.698 4.163 13.723 6.73 6.748 14.042 9.28 21.645 11.555q.861.257 1.739.516.8.235 1.61.477l24.079-23.943c1.558-1.55 4.086-1.534 5.647.035 1.561 1.57 1.563 4.099.004 5.649l-21.305 21.185c3.752 1.606 7.4 3.741 10.616 6.939 6.864 6.827 7.368 16.879 6.622 24.219l28.519-28.36-2.944-14.404a3.965 3.965 0 0 1 3.112-4.693 4.025 4.025 0 0 1 4.714 3.144l3.375 16.512a3.97 3.97 0 0 1-1.088 3.615l-39.686 39.464a3.99 3.99 0 0 1-4.979.509 4.016 4.016 0 0 1-1.596-4.755l.001-.003.011-.031.056-.157a51 51 0 0 0 .969-3.203c.583-2.174 1.244-5.158 1.581-8.432.704-6.822-.117-13.64-4.281-17.781-3.141-3.124-6.819-4.905-11.197-6.424l-13.841 13.764c-1.559 1.55-4.088 1.534-5.648-.035-1.561-1.569-1.563-4.098-.004-5.648l10.823-10.763c-7.616-2.307-16.254-5.371-24.191-13.33-6.142-6.159-7.648-13.74-6.39-20.797 1.232-6.914 5.093-13.374 9.795-18.05"/><path fill-rule="evenodd" d="M284 184c6.627 0 12 5.373 12 12v8c0 5.224-3.34 9.666-8 11.313V300c0 6.627-5.373 12-12 12H44c-6.627 0-12-5.373-12-12v-84.687c-4.66-1.647-8-6.089-8-11.313v-8c0-6.627 5.373-12 12-12h42.023C64.226 166.353 56 144.138 56 120c0-57.438 46.562-104 104-104s104 46.562 104 104c0 24.138-8.226 46.353-22.023 64zm-90.985 0C216.171 172.031 232 147.864 232 120c0-39.764-32.236-72-72-72s-72 32.236-72 72c0 27.864 15.829 52.031 38.985 64zM40 300a4 4 0 0 0 4 4h232a4 4 0 0 0 4-4v-84H40zm-4-108a4 4 0 0 0-4 4v8a4 4 0 0 0 4 4h248a4 4 0 0 0 4-4v-8a4 4 0 0 0-4-4zm195.556-8C246.757 167.016 256 144.587 256 120c0-53.02-42.981-96-96-96s-96 42.98-96 96c0 24.587 9.243 47.016 24.444 64h23.55C92.567 169.404 80 146.17 80 120c0-44.183 35.817-80 80-80s80 35.817 80 80c0 26.17-12.567 49.404-31.994 64z" clip-rule="evenodd"/></g></g></svg>