<svg xmlns="http://www.w3.org/2000/svg" fill="none" viewBox="0 0 320 320"><g id="scales" fill-rule="evenodd" clip-rule="evenodd"><path id="lg-icon-fill-primary" fill="#42aeea" d="M288 196c0 26.51-21.49 48-48 48s-48-21.49-48-48zm-160-56c0 26.51-21.49 48-48 48s-48-21.49-48-48z"/><path id="Outlines" fill="#1d1d1b" d="M160 8a4 4 0 0 1 4 4v40.842l78.06 27.248a4 4 0 0 1 2.5 2.556l47.09 108.444c.219.501.332 1.043.33 1.59V196c-.028 28.7-23.28 51.961-51.98 52-28.707-.028-51.972-23.293-52-52v-3.33c0-.562.12-1.117.35-1.63l46.969-104.825L164 61.316V288h72a8 8 0 0 1 7.996 7.751L244 296v8a8 8 0 0 1-7.751 7.996L236 312H84a8 8 0 0 1-7.996-7.751L76 304v-8a8 8 0 0 1 7.75-7.996L84 288h72V58.523L88.042 34.797 131.65 135.07c.219.501.332 1.043.33 1.59V140c-.028 28.7-23.28 51.961-51.98 52-28.707-.028-51.972-23.293-52-52v-3.33a4.1 4.1 0 0 1 .35-1.64L77.1 26.38a4 4 0 0 1 3.445-2.374L80.75 24a4 4 0 0 1 1.555.326L156 50.05V12a4 4 0 0 1 4-4m76 288H84v8h152zm47.821-95.999h-87.642C198.201 222.426 217.048 240 240 240s41.799-17.574 43.821-39.999M240.69 93.78 196.689 192h86.66zm-116.869 50.221H36.179C38.201 166.426 57.05 184 80 184c22.952 0 41.799-17.574 43.821-39.999M80.69 37.92l-44 98.08h86.658z"/></g></svg>