<svg xmlns="http://www.w3.org/2000/svg" fill="none" viewBox="0 0 320 320"><g id="search-zoom-out"><path id="lg-icon-fill-primary" fill="#42aeea" d="M172 112c0 33.137-26.863 60-60 60s-60-26.863-60-60 26.863-60 60-60 60 26.863 60 60m-2 91.442 33.941-33.942 44.022 44.022c-16.574 4.28-29.677 17.191-34.23 33.652z"/><g id="Outlines" fill="#1d1d1b"><path d="M112 76a4 4 0 0 0 0 8c15.464 0 28 12.536 28 28a4 4 0 0 0 8 0c0-19.882-16.118-36-36-36"/><path fill-rule="evenodd" d="M176 112c0 35.346-28.654 64-64 64s-64-28.654-64-64 28.654-64 64-64 64 28.654 64 64m-8 0c0 30.928-25.072 56-56 56s-56-25.072-56-56 25.072-56 56-56 56 25.072 56 56" clip-rule="evenodd"/><path d="M244 264a4 4 0 0 1 0-8h32a4 4 0 0 1 0 8z"/><path fill-rule="evenodd" d="M200 112c0 18.391-5.642 35.464-15.289 49.584l13.574 13.573 5.656-5.657 40.78 40.781A52 52 0 0 1 260 208c28.719 0 52 23.281 52 52s-23.281 52-52 52-52-23.281-52-52c0-5.597.884-10.987 2.52-16.038L170 203.442l5.657-5.658-13.481-13.481C147.943 194.199 130.649 200 112 200c-48.601 0-88-39.399-88-88s39.399-88 88-88 88 39.399 88 88m-88 80c44.183 0 80-35.817 80-80s-35.817-80-80-80-80 35.817-80 80 35.817 80 80 80m101.863 43.991a52.23 52.23 0 0 1 22.788-22.467l-32.71-32.71-22.627 22.628zm-45.278-56.593a88.5 88.5 0 0 0 11.268-11.359l12.775 12.775-11.314 11.314zM260 304c24.301 0 44-19.699 44-44s-19.699-44-44-44-44 19.699-44 44 19.699 44 44 44" clip-rule="evenodd"/></g></g></svg>