<svg xmlns="http://www.w3.org/2000/svg" fill="none" viewBox="0 0 320 320"><g id="search-confirm"><path id="lg-icon-fill-primary" fill="#42aeea" d="M205.956 172.334c-33.161 0-60.044-26.937-60.044-60.167S172.795 52 205.956 52 266 78.938 266 112.167s-26.883 60.167-60.044 60.167m-92.008-2.506 33.966 34.036-84.913 85.087c-9.38 9.399-24.587 9.399-33.966 0s-9.38-24.637 0-34.036z"/><g id="Outlines" fill="#1d1d1b"><path d="M278.23 244.162a3.965 3.965 0 0 1 5.608 0 3.97 3.97 0 0 1 0 5.613l-28.045 28.063a3.965 3.965 0 0 1-5.608 0l-14.023-14.031a3.974 3.974 0 0 1 0-5.614 3.966 3.966 0 0 1 5.609 0l11.218 11.226z"/><path fill-rule="evenodd" d="M260 208c28.719 0 52 23.281 52 52s-23.281 52-52 52c-28.718 0-52-23.281-52-52s23.282-52 52-52m0 8c-24.3 0-44 19.699-44 44s19.7 44 44 44 44-19.7 44-44-19.699-44-44-44" clip-rule="evenodd"/><path d="M207.943 76.13a4.006 4.006 0 0 1 4.002 4.01 4.007 4.007 0 0 1-4.002 4.01c-15.474 0-28.019 12.567-28.019 28.07a4.006 4.006 0 0 1-4.003 4.009 4.006 4.006 0 0 1-4.002-4.009c0-19.932 16.129-36.09 36.024-36.09"/><path fill-rule="evenodd" d="M207.943 48.06c35.369 0 64.042 28.725 64.042 64.16s-28.673 64.16-64.042 64.16-64.042-28.726-64.042-64.16c0-35.435 28.672-64.16 64.042-64.16m0 8.02c-30.948 0-56.037 25.135-56.037 56.14s25.089 56.139 56.037 56.139 56.036-25.134 56.036-56.139-25.088-56.14-56.036-56.14" clip-rule="evenodd"/><path fill-rule="evenodd" d="M207.943 24C256.576 24 296 63.497 296 112.22s-39.424 88.219-88.057 88.219c-18.661 0-35.967-5.814-50.209-15.735l-13.49 13.515 5.661 5.671-84.908 85.063c-9.378 9.396-24.584 9.396-33.962 0-9.38-9.396-9.38-24.63 0-34.026l84.906-85.063 5.66 5.671 13.582-13.607c-9.653-14.155-15.298-31.271-15.298-49.708 0-48.723 39.425-88.22 88.058-88.22M36.695 260.598c-6.253 6.264-6.253 16.42 0 22.684 6.252 6.264 16.39 6.264 22.642 0l79.246-79.392-22.642-22.684zm90.567-79.392 11.321 11.342 12.738-12.762a88.7 88.7 0 0 1-11.276-11.387zM207.943 32.02c-44.212 0-80.053 35.907-80.053 80.2s35.841 80.2 80.053 80.2 80.052-35.907 80.052-80.2c-.001-44.293-35.841-80.2-80.052-80.2" clip-rule="evenodd"/></g></g></svg>