<svg xmlns="http://www.w3.org/2000/svg" fill="none" viewBox="0 0 320 320"><g id="search"><path id="lg-icon-fill-primary" fill="#42aeea" d="M207.956 172.334c-33.161 0-60.044-26.937-60.044-60.167S174.795 52 207.956 52 268 78.938 268 112.167s-26.883 60.167-60.044 60.167m-92.008-2.506 33.966 34.036-84.913 85.087c-9.38 9.399-24.587 9.399-33.966 0s-9.38-24.637 0-34.036z"/><g id="Outlines" fill="#1d1d1b"><path d="M207.942 76.13a4.006 4.006 0 0 1 4.003 4.01 4.006 4.006 0 0 1-4.003 4.01c-15.474 0-28.018 12.567-28.018 28.07a4.006 4.006 0 0 1-4.003 4.01 4.006 4.006 0 0 1-4.002-4.01c0-19.932 16.128-36.09 36.023-36.09"/><path fill-rule="evenodd" d="M143.9 112.22c0 35.434 28.673 64.16 64.042 64.16s64.042-28.726 64.042-64.16c0-35.435-28.672-64.16-64.042-64.16-35.369 0-64.042 28.725-64.042 64.16m8.006 0c0 31.005 25.088 56.14 56.036 56.14s56.037-25.135 56.037-56.14-25.089-56.14-56.037-56.14-56.036 25.135-56.036 56.14" clip-rule="evenodd"/><path fill-rule="evenodd" d="M119.885 112.22c0 18.437 5.645 35.553 15.298 49.708l-13.582 13.607-5.66-5.671-84.907 85.063c-9.379 9.396-9.379 24.63 0 34.026s24.585 9.396 33.963 0l84.907-85.063-5.661-5.671 13.49-13.515c14.243 9.92 31.548 15.736 50.209 15.736 48.633 0 88.058-39.498 88.058-88.22S256.575 24 207.942 24s-88.057 39.497-88.057 88.22m88.057 80.2c-44.212 0-80.052-35.907-80.052-80.2s35.84-80.2 80.052-80.2 80.053 35.907 80.053 80.2-35.841 80.2-80.053 80.2m-56.622-12.633a88.7 88.7 0 0 1-11.275-11.388l-12.783 12.807 11.321 11.342zm-12.737 24.103-22.642-22.684-79.246 79.392c-6.253 6.264-6.253 16.42 0 22.684 6.252 6.264 16.39 6.264 22.642 0z" clip-rule="evenodd"/></g></g></svg>