<svg xmlns="http://www.w3.org/2000/svg" fill="none" viewBox="0 0 320 320"><g id="settings" fill-rule="evenodd" clip-rule="evenodd"><path id="lg-icon-fill-primary" fill="#42aeea" d="M240.978 12.655a4 4 0 0 0-4.899 2.828l-5.51 20.564c-11.773-.552-23.183 2.66-32.763 8.789l-15.062-15.062a4 4 0 0 0-5.657 0l-11.313 11.313a4 4 0 0 0 0 5.657l15.051 15.052a56 56 0 0 0-6.917 15.71 56 56 0 0 0-1.864 17.064l-20.561 5.509a4 4 0 0 0-2.828 4.899l4.141 15.455a4 4 0 0 0 4.899 2.828l20.575-5.513c5.231 10.097 13.507 18.584 23.978 23.993l-5.51 20.563a4 4 0 0 0 2.829 4.899l15.454 4.141a4 4 0 0 0 4.899-2.828l5.51-20.564c11.773.552 23.183-2.66 32.763-8.789l15.061 15.061a4 4 0 0 0 5.657 0l11.313-11.313a4 4 0 0 0 0-5.657l-15.05-15.051a56 56 0 0 0 6.917-15.71 56 56 0 0 0 1.865-17.063l20.56-5.51a4 4 0 0 0 2.828-4.898l-4.141-15.455a4 4 0 0 0-4.899-2.829l-20.575 5.513c-5.231-10.097-13.507-18.584-23.978-23.993l5.51-20.563a4 4 0 0 0-2.829-4.899zm20.847 88.408c-5.006 18.681-24.208 29.768-42.889 24.762s-29.768-24.208-24.762-42.889c5.005-18.681 24.207-29.768 42.889-24.762 18.681 5.006 29.767 24.208 24.762 42.889M156 212c0 26.509-21.49 48-48 48s-48-21.491-48-48c0-26.51 21.49-48 48-48s48 21.49 48 48m-24 0c0 13.254-10.745 24-24 24s-24-10.746-24-24c0-13.255 10.745-24 24-24s24 10.745 24 24"/><g id="Outlines" fill="#1d1d1b"><path d="M208.681 87.824c2.858-10.67 13.825-17.001 24.494-14.143 10.67 2.86 17.001 13.826 14.143 24.495s-13.826 17.001-24.495 14.142c-10.67-2.858-17.001-13.825-14.142-24.495m22.424-6.415c-6.402-1.716-12.982 2.083-14.697 8.485s2.084 12.982 8.485 14.697c6.402 1.715 12.982-2.084 14.697-8.485 1.716-6.402-2.083-12.982-8.485-14.697"/><path d="M238.353 54.363c-21.339-5.718-43.272 6.946-48.99 28.284s6.946 43.272 28.284 48.99 43.273-6.946 48.99-28.284c5.718-21.339-6.945-43.272-28.284-48.99m-41.262 30.355c4.574-17.071 22.12-27.202 39.191-22.628s27.202 22.121 22.628 39.192-22.121 27.202-39.192 22.628-27.202-22.121-22.627-39.192"/><path d="M147.896 117.604c1.716 6.402 8.296 10.201 14.697 8.486l13.298-3.564.002.001a.6.6 0 0 1 .173.054c.215.098.501.32.716.672a59.94 59.94 0 0 0 19.948 19.97c.358.219.583.509.682.727a.6.6 0 0 1 .056.175v.002l-3.558 13.279c-1.715 6.401 2.083 12.981 8.485 14.696l7.727 2.071c6.402 1.715 12.982-2.084 14.697-8.485l3.558-13.279.002-.002a.6.6 0 0 1 .135-.123c.195-.14.535-.278.954-.288a59.95 59.95 0 0 0 27.26-7.321c.363-.198.722-.247.957-.224a.6.6 0 0 1 .177.039l.002.001 9.733 9.734c4.687 4.686 12.285 4.686 16.971 0l5.657-5.657c4.686-4.686 4.686-12.284 0-16.971l-9.721-9.72-.001-.002c-.006-.015-.029-.071-.039-.18-.024-.238.026-.602.226-.97a60 60 0 0 0 5.265-13.196 60 60 0 0 0 2.039-14.06c.01-.42.149-.76.288-.955a.6.6 0 0 1 .124-.135l.002-.001 13.279-3.558c6.401-1.716 10.2-8.296 8.485-14.697l-2.071-7.728c-1.715-6.401-8.295-10.2-14.696-8.485l-13.297 3.563h-.002a.6.6 0 0 1-.173-.055 1.74 1.74 0 0 1-.716-.672 59.95 59.95 0 0 0-19.948-19.97c-.357-.218-.583-.508-.682-.726a.6.6 0 0 1-.055-.175l-.001-.002 3.558-13.279c1.716-6.401-2.083-12.981-8.485-14.696l-7.727-2.071c-6.402-1.715-12.982 2.084-14.697 8.485l-3.558 13.279-.001.002c-.01.012-.047.06-.136.123-.195.14-.535.278-.954.288a59.95 59.95 0 0 0-27.26 7.32 1.74 1.74 0 0 1-.957.225.6.6 0 0 1-.176-.04h-.002l-9.735-9.735c-4.686-4.686-12.284-4.686-16.97 0l-5.657 5.657c-4.686 4.686-4.686 12.284 0 16.97l9.721 9.722.001.002c.007.014.029.07.04.179.023.239-.027.602-.227.97a60 60 0 0 0-5.265 13.197 60 60 0 0 0-2.038 14.06c-.011.42-.15.759-.289.954a.6.6 0 0 1-.124.135l-.002.002-13.28 3.558c-6.401 1.715-10.2 8.295-8.485 14.697zm7.728-2.07a4 4 0 0 0 4.899 2.828l13.302-3.564c3.807-1.02 7.734.925 9.787 4.289a51.94 51.94 0 0 0 17.284 17.306c3.369 2.056 5.322 5.987 4.301 9.8l-3.56 13.283a4 4 0 0 0 2.829 4.899l7.727 2.071a4 4 0 0 0 4.899-2.829l3.559-13.283c1.022-3.813 4.679-6.241 8.625-6.336a51.94 51.94 0 0 0 23.621-6.346c3.46-1.887 7.833-1.608 10.62 1.179l9.737 9.737a4 4 0 0 0 5.657 0l5.657-5.657a4 4 0 0 0 0-5.657l-9.724-9.724c-2.789-2.788-3.066-7.165-1.18-10.629a52.2 52.2 0 0 0 4.564-11.442 52 52 0 0 0 1.768-12.192c.099-3.943 2.528-7.595 6.337-8.616l13.283-3.559a4 4 0 0 0 2.829-4.899l-2.071-7.727a4 4 0 0 0-4.899-2.829l-13.301 3.564c-3.807 1.02-7.734-.924-9.787-4.289a51.95 51.95 0 0 0-17.283-17.306c-3.37-2.055-5.323-5.986-4.301-9.799l3.559-13.283a4 4 0 0 0-2.828-4.9l-7.728-2.07a4 4 0 0 0-4.899 2.829l-3.559 13.283c-1.022 3.813-4.679 6.24-8.624 6.336a51.94 51.94 0 0 0-23.621 6.345c-3.46 1.888-7.834 1.608-10.621-1.178l-9.738-9.738a4 4 0 0 0-5.656 0l-5.657 5.657a4 4 0 0 0 0 5.657l9.724 9.724c2.789 2.789 3.066 7.166 1.181 10.63a52.2 52.2 0 0 0-4.565 11.442 52.2 52.2 0 0 0-1.768 12.192c-.099 3.942-2.527 7.594-6.337 8.615l-13.284 3.559a4 4 0 0 0-2.829 4.899zM80 212c0-15.464 12.536-28 28-28s28 12.536 28 28-12.536 28-28 28-28-12.536-28-28m28-20c-11.046 0-20 8.954-20 20s8.954 20 20 20 20-8.955 20-20-8.954-20-20-20"/><path d="M160 212c0 28.719-23.281 52-52 52s-52-23.281-52-52 23.281-52 52-52 52 23.281 52 52m-8 0c0 24.3-19.699 44-44 44s-44-19.7-44-44 19.7-44 44-44 44 19.699 44 44"/><path d="m173.054 135.632 11.313 11.314c4.687 4.686 4.687 12.284 0 16.971l-10.369 10.369A75.6 75.6 0 0 1 181.341 192H196c6.627 0 12 5.372 12 12v16c0 6.627-5.373 12-12 12h-14.659a75.5 75.5 0 0 1-7.344 17.713l10.37 10.37c4.687 4.686 4.687 12.284 0 16.971l-11.313 11.313c-4.687 4.687-12.285 4.687-16.971 0l-10.37-10.37A75.5 75.5 0 0 1 128 285.341V300c0 6.627-5.373 12-12 12h-16c-6.627 0-12-5.373-12-12v-14.659a75.5 75.5 0 0 1-17.713-7.344l-10.37 10.37c-4.687 4.687-12.285 4.687-16.971 0l-11.314-11.313c-4.686-4.687-4.686-12.285 0-16.971l10.37-10.37A75.6 75.6 0 0 1 34.66 232H20c-6.627 0-12-5.373-12-12v-16c0-6.628 5.373-12 12-12h14.659a75.5 75.5 0 0 1 7.343-17.713l-10.37-10.37c-4.686-4.687-4.686-12.285 0-16.971l11.314-11.314c4.686-4.686 12.284-4.686 16.97 0l10.37 10.37A75.6 75.6 0 0 1 88 138.659V124c0-6.628 5.373-12 12-12h16c6.627 0 12 5.372 12 12v14.659a75.6 75.6 0 0 1 17.713 7.343l10.37-10.37c4.686-4.686 12.284-4.686 16.971 0M96 138.659a8 8 0 0 1-5.9 7.719 67.5 67.5 0 0 0-15.838 6.567 8 8 0 0 1-9.632-1.286l-10.37-10.37a4 4 0 0 0-5.657 0l-11.314 11.314a4 4 0 0 0 0 5.657l10.37 10.37a8 8 0 0 1 1.286 9.632 67.5 67.5 0 0 0-6.566 15.838 8 8 0 0 1-7.72 5.9H20a4 4 0 0 0-4 4v16a4 4 0 0 0 4 4h14.659a8 8 0 0 1 7.72 5.9 67.5 67.5 0 0 0 6.566 15.837 8 8 0 0 1-1.286 9.633l-10.37 10.37a4 4 0 0 0 0 5.657l11.314 11.313a4 4 0 0 0 5.657 0l10.37-10.37a8 8 0 0 1 9.632-1.285 67.5 67.5 0 0 0 15.838 6.566 8 8 0 0 1 5.9 7.72V300a4 4 0 0 0 4 4h16a4 4 0 0 0 4-4v-14.659a8 8 0 0 1 5.9-7.72 67.5 67.5 0 0 0 15.838-6.566 8 8 0 0 1 9.632 1.286l10.37 10.369a4 4 0 0 0 5.657 0l11.313-11.313a4 4 0 0 0 0-5.657l-10.369-10.37a8 8 0 0 1-1.286-9.632 67.6 67.6 0 0 0 6.567-15.838 8 8 0 0 1 7.719-5.9H196a4 4 0 0 0 4-4v-16a4 4 0 0 0-4-4h-14.659a8 8 0 0 1-7.719-5.9 67.6 67.6 0 0 0-6.567-15.838 8 8 0 0 1 1.286-9.632l10.369-10.37a4 4 0 0 0 0-5.657l-11.313-11.314a4 4 0 0 0-5.657 0l-10.37 10.37a8 8 0 0 1-9.632 1.285 67.5 67.5 0 0 0-15.838-6.566 8 8 0 0 1-5.9-7.719V124a4 4 0 0 0-4-4h-16a4 4 0 0 0-4 4z"/></g></g></svg>