<svg xmlns="http://www.w3.org/2000/svg" fill="none" viewBox="0 0 320 320"><g id="sharper-focus" fill-rule="evenodd" clip-rule="evenodd"><path id="lg-icon-fill-primary" fill="#42aeea" d="M160.335 20.09c77.32 0 140 62.68 140 140s-62.68 140-140 140-140-62.68-140-140 62.68-140 140-140M160 96l-55.426 32v64L160 224l55.426-32v-64z"/><path id="Outlines" fill="#1d1d1b" d="M160 16c79.529 0 144 64.471 144 144s-64.471 144-144 144S16 239.529 16 160 80.471 16 160 16m47.665 185.186-35.892 20.724c.885 4.848-1.295 9.943-5.808 12.549-4.514 2.606-10.016 1.946-13.773-1.246l-68.36 39.472C105.561 287.403 131.776 296 160 296c18.227 0 35.617-3.586 51.503-10.09l-.002-82.514a12 12 0 0 1-3.836-2.21m15.67-64.088a12 12 0 0 1-3.834 2.218v41.446c4.642 1.658 7.964 6.093 7.964 11.304s-3.322 9.647-7.964 11.305l.002 78.955c40.051-19.518 69.089-58.127 75.271-103.984zM24 160c0 43.744 20.653 82.664 52.74 107.542l71.431-41.244a12 12 0 0 1-.004-4.426l-35.894-20.724q-.814.692-1.771 1.246c-5.74 3.314-13.079 1.348-16.392-4.392a11.95 11.95 0 0 1-1.413-8.157l-68.362-39.466A138 138 0 0 0 24 160m128.21-54.968-35.873 20.711a11.96 11.96 0 0 1-1.406 8.195 11.95 11.95 0 0 1-6.43 5.327v41.423a11.95 11.95 0 0 1 6.393 5.314 11.95 11.95 0 0 1 1.399 8.23l35.873 20.711q.825-.705 1.799-1.269c4.536-2.619 10.072-1.94 13.829 1.294l35.871-20.709q-.199-1.068-.2-2.193c0-5.238 3.356-9.692 8.036-11.329v-41.42a12 12 0 0 1-1.999-.923c-4.537-2.619-6.717-7.754-5.794-12.626l-35.869-20.71a11.96 11.96 0 0 1-7.8 2.88 11.95 11.95 0 0 1-7.829-2.906M25.227 141.655l71.446 41.25q.838-.722 1.829-1.295a12 12 0 0 1 1.999-.923V139.24a12 12 0 0 1-1.962-.91c-5.74-3.314-7.706-10.653-4.392-16.392a11.95 11.95 0 0 1 6.354-5.301l-.004-78.963c-40.05 19.518-69.087 58.125-75.27 103.981m218.036-89.196-71.432 41.244q.207 1.087.208 2.235a12 12 0 0 1-.2 2.192l35.894 20.722c3.756-3.189 9.257-3.847 13.769-1.242s6.693 7.698 5.808 12.546l68.355 39.461q.334-4.766.335-9.617c0-43.743-20.652-82.663-52.737-107.54M160 24c-18.227 0-35.617 3.586-51.503 10.09l.004 82.518a12.1 12.1 0 0 1 3.837 2.207l35.894-20.724a12 12 0 0 1-.193-2.153c0-6.628 5.373-12 12-12 2.962 0 5.674 1.073 7.767 2.852l68.365-39.474C214.439 32.597 188.224 24 160 24"/></g></svg>