<svg xmlns="http://www.w3.org/2000/svg" fill="none" viewBox="0 0 320 320"><g id="shipping"><path id="lg-icon-fill-primary" fill="#42aeea" d="M280 124H40v64h12l12.187 91.403C70.995 284.101 83.808 292 93 292c13.083 0 33.5-16 33.5-16s20.417 16 33.5 16 33.5-16 33.5-16 20.417 16 33.5 16c9.192 0 22.005-7.899 28.813-12.597L268 188h12z"/><path id="Outlines" fill="#1d1d1b" fill-rule="evenodd" d="M40 24h240v54.819l-56 20V120h60v72h-11.027c-.395.207-.926.49-1.584.849l-10.653 79.898.23.179.008.007.036.028.157.12c.142.108.355.271.635.479a123 123 0 0 0 10.584 7.051c3.263 1.93 6.848 3.815 10.345 5.208 3.548 1.413 6.731 2.207 9.269 2.207 2.209 0 4 1.785 4 3.987a3.994 3.994 0 0 1-4 3.987c-4.003 0-8.278-1.199-12.238-2.776-4.011-1.598-7.984-3.7-11.459-5.756a132 132 0 0 1-8.72-5.657l-.107-.075-1.391.96c-3.487 2.406-8.57 5.674-14.017 8.356C238.74 293.675 232.552 296 227 296c-4.003 0-8.278-1.203-12.237-2.786-4.012-1.602-7.984-3.711-11.46-5.774a132 132 0 0 1-9.803-6.451q-.499.362-1.083.776a132 132 0 0 1-8.719 5.675c-2.815 1.671-5.957 3.372-9.18 4.81l-.01.004q-.76.34-1.536.662a51 51 0 0 1-4.721 1.707c-2.755.835-5.564 1.377-8.251 1.377q-.443 0-.891-.019c-2.385-.103-4.86-.604-7.307-1.342a52 52 0 0 1-5.478-2.021q-.419-.18-.831-.364l-.012-.005c-3.223-1.438-6.364-3.139-9.178-4.809a132 132 0 0 1-9.803-6.451q-.499.362-1.083.776a132 132 0 0 1-8.719 5.675c-3.476 2.063-7.448 4.172-11.46 5.774C101.278 294.797 97.004 296 93 296c-5.551 0-11.739-2.325-17.067-4.948-5.447-2.682-10.53-5.95-14.017-8.356l-1.336-.922.003.037s-.75-.533-1.083-.773q-.499.36-1.083.773a132 132 0 0 1-8.72 5.657c-3.475 2.056-7.448 4.158-11.46 5.756C34.279 294.801 30.004 296 26 296c-2.21 0-4-1.785-4-3.987a3.994 3.994 0 0 1 4-3.987c2.538 0 5.721-.794 9.27-2.207 3.496-1.393 7.08-3.278 10.344-5.208A123 123 0 0 0 56.2 273.56c.279-.208.492-.371.634-.479l.157-.12.036-.028.008-.007 2.042-1.595-10.465-78.482a111 111 0 0 0-1.583-.849H36v-72h60V98.819l-56-20zm176 69.181V120H104V93.181l-56-20V64h224v9.181zM84 184v-56h32v56zm40 0v-56h32v56zm40 0v-56h32v56zm40 0v-56h32v56zM48 48v8h224v-8zm0-8h224v-8H48zm-4 144h32v-56H44zm200-56v56h32v-56zM62.955 192a273 273 0 0 1 26.07 18.521c21.065 16.902 45.956 42.044 61.1 75.018a43 43 0 0 0 3.962 1.433q.986.298 1.913.513V192zM164 192v95.485c1.814-.419 3.794-1.084 5.876-1.946 15.144-32.974 40.034-58.116 61.099-75.018A273 273 0 0 1 257.045 192zm18.079 87.054c14.56-26.684 35.558-47.574 53.903-62.293 10.342-8.298 19.786-14.592 26.657-18.815l-10.554 79.156c-3.177 2.128-7.278 4.669-11.551 6.773-5.078 2.5-9.893 4.125-13.534 4.125-2.538 0-5.721-.797-9.269-2.214-3.496-1.398-7.081-3.289-10.345-5.226a123 123 0 0 1-10.584-7.074 58 58 0 0 1-.634-.48l-.095-.073-.062-.048-.044-.034-2.467-1.933-2.466 1.933-.001.001-.043.033-.157.121a107 107 0 0 1-3.039 2.229 126 126 0 0 1-5.715 3.819m-44.157 0c-14.56-26.684-35.559-47.574-53.903-62.293-10.342-8.298-19.787-14.592-26.657-18.815l10.554 79.156c3.177 2.128 7.278 4.669 11.55 6.773C84.547 286.375 89.36 288 93 288c2.538 0 5.722-.797 9.27-2.214 3.496-1.398 7.081-3.289 10.345-5.226a123 123 0 0 0 10.584-7.074c.279-.209.493-.371.634-.48l.085-.066.072-.055.036-.028.007-.005 2.467-1.934 2.468 1.934.007.005.036.028.078.061.079.06.267.204.367.276c.558.419 1.378 1.023 2.404 1.749a127 127 0 0 0 5.716 3.819" clip-rule="evenodd"/></g></svg>