<svg xmlns="http://www.w3.org/2000/svg" fill="none" viewBox="0 0 320 320"><g id="shopping-basket"><path id="lg-icon-fill-primary" fill="#42aeea" d="M220 124c-8.837 0-16 7.163-16 16v8h-96v-8c0-8.837-7.163-16-16-16s-16 7.163-16 16v8H12l48 144h200l48-144h-72v-8c0-8.837-7.163-16-16-16"/><path id="Outlines" fill="#1d1d1b" fill-rule="evenodd" d="M162.211 24.421a4 4 0 0 1 5.367 1.79l47.234 94.469A20 20 0 0 1 220 120c11.045 0 20 8.955 20 20a4 4 0 0 0 4 4h58.45c5.46 0 9.316 5.35 7.59 10.53l-42.599 127.794A20 20 0 0 1 248.467 296H71.532a20 20 0 0 1-18.974-13.676L9.96 154.53C8.233 149.35 12.09 144 17.55 144H68a4 4 0 0 0 4-4c0-11.045 8.954-20 20-20 1.793 0 3.532.237 5.186.68l47.236-94.47a4 4 0 0 1 7.156 3.578l-47.238 94.473c4.664 3.661 7.66 9.35 7.66 15.739v4h88v-4c0-6.388 2.995-12.078 7.658-15.739l-47.236-94.473a4 4 0 0 1 1.789-5.367M60.147 279.795A12 12 0 0 0 71.532 288h176.935a12 12 0 0 0 11.384-8.205L270.45 248H49.549zM46.882 240h226.234l13.334-40H33.55zM220 128q-.754 0-1.483.09l5.061 10.12a4 4 0 0 1-7.156 3.578l-5.059-10.116A11.96 11.96 0 0 0 208 140v4a8 8 0 0 1-8 8h-88a8 8 0 0 1-8-8v-4c0-3.235-1.283-6.17-3.365-8.328l-5.057 10.116a4 4 0 0 1-7.157-3.578l5.06-10.12Q92.752 128 92 128c-6.524 0-11.832 5.206-11.996 11.691l-.008.619C79.83 146.794 74.523 152 68 152H17.55l13.332 40h258.234l13.334-40H244c-6.524 0-11.832-5.206-11.996-11.69l-.008-.619C231.832 133.206 226.524 128 220 128" clip-rule="evenodd"/></g></svg>