<svg xmlns="http://www.w3.org/2000/svg" fill="none" viewBox="0 0 320 320"><g id="shopping-trolley"><path id="lg-icon-fill-primary" fill="#42aeea" d="M60 260c13.255 0 24 10.745 24 24s-10.745 24-24 24-24-10.745-24-24 10.745-24 24-24m200 0c13.255 0 24 10.745 24 24s-10.745 24-24 24-24-10.745-24-24 10.745-24 24-24M44 32c6.627 0 12 5.373 12 12s-5.373 12-12 12h-8c-6.627 0-12-5.373-12-12s5.373-12 12-12z"/><path id="Outlines" fill="#1d1d1b" fill-rule="evenodd" d="M48 28c6.627 0 12 5.373 12 12v2.349L70.128 56.14l222.157 15.87A4 4 0 0 1 296 76v77.229c0 10.427-8.011 19.104-18.405 19.936L137.279 184.39l114.928 51.717A20 20 0 0 1 264 254.346v1.939c13.569 1.941 24 13.609 24 27.715 0 15.464-12.536 28-28 28s-28-12.536-28-28c0-14.106 10.431-25.774 24-27.715v-1.939c0-4.722-2.769-9.006-7.075-10.944L129.786 189.79c-14.846-6.681-32.24.665-37.805 15.965L72.62 259C81.743 263.615 88 273.076 88 284c0 15.464-12.536 28-28 28s-28-12.536-28-28 12.536-28 28-28c1.718 0 3.4.156 5.033.452l19.43-53.431c2.68-7.37 7.495-13.306 13.474-17.394a20 20 0 0 1-12.583-14.917L64.244 61.642l-5.748-7.827A12 12 0 0 1 48 60H36c-8.837 0-16-7.163-16-16s7.163-16 16-16zm12 236c-11.046 0-20 8.954-20 20s8.954 20 20 20 20-8.954 20-20-8.954-20-20-20m200 0c-11.046 0-20 8.954-20 20s8.954 20 20 20 20-8.954 20-20-8.954-20-20-20m28-120.534a12 12 0 0 1-3.769.684l-195.14 3.771 4.117 21.269a12 12 0 0 0 12.738 9.681l171.011-13.681A12 12 0 0 0 288 153.229zM87.548 139.95l196.529-3.798a4 4 0 0 0 3.923-3.999v-16.585a4 4 0 0 0-3.778-3.994L79.858 100.221zM78.29 92.12l206.376 11.466c1.165.065 2.284.296 3.334.667V79.725L72.918 64.36zM36 36a8 8 0 1 0 0 16h12a4 4 0 0 0 4-4v-8a4 4 0 0 0-4-4z" clip-rule="evenodd"/></g></svg>