<svg xmlns="http://www.w3.org/2000/svg" fill="none" viewBox="0 0 320 320"><g id="shopping-bags"><g id="lg-icon-fill-primary" fill="#42aeea"><path fill-rule="evenodd" d="M292 300H132l8-160h144zM180 164a8 8 0 1 0 0 16 8 8 0 0 0 0-16m64 0a8 8 0 1 0 0 16 8 8 0 0 0 0-16" clip-rule="evenodd"/><path d="M128 44c6.627 0 12 5.373 12 12s-5.373 12-12 12H88c-6.627 0-12-5.373-12-12s5.373-12 12-12z"/></g><g id="Outlines" fill="#1d1d1b" fill-rule="evenodd" clip-rule="evenodd"><path d="M244 160c6.627 0 12 5.373 12 12 0 5.224-3.34 9.666-8 11.313V204c0 19.882-16.118 36-36 36s-36-16.118-36-36v-20.687c-4.66-1.647-8-6.089-8-11.313 0-6.627 5.373-12 12-12s12 5.373 12 12c0 5.224-3.34 9.666-8 11.313V204c0 15.464 12.536 28 28 28s28-12.536 28-28v-20.687c-4.66-1.647-8-6.089-8-11.313 0-6.627 5.373-12 12-12m-64 8a4 4 0 1 0 0 8 4 4 0 0 0 0-8m64 0a4 4 0 1 0 0 8 4 4 0 0 0 0-8M128 40c8.836 0 16 7.164 16 16s-7.164 16-16 16H88c-8.837 0-16-7.163-16-16s7.163-16 16-16zm-40 8a8 8 0 1 0 0 16h40a8 8 0 0 0 0-16z"/><path d="M180 16a4 4 0 0 1 3.998 3.879L187.516 136H284a4 4 0 0 1 3.995 3.8l8 160A4 4 0 0 1 292 304H132a4 4 0 0 1-3.995-4.2l.59-11.8H28a4.003 4.003 0 0 1-3.998-4.121l8-264 .01-.201A4 4 0 0 1 36 16zm-43.795 280h151.59l-7.6-152h-136.39zM32.123 280h96.872l7.01-140.2.014-.198A4 4 0 0 1 140 136h39.514l-3.395-112H39.881z"/></g></g></svg>