<svg xmlns="http://www.w3.org/2000/svg" fill="none" viewBox="0 0 320 320"><g id="signal-wifi"><path id="lg-icon-fill-primary" fill="#42aeea" d="M160 228c8.836 0 16 7.163 16 16s-7.164 16-16 16-16-7.163-16-16 7.163-16 16-16m-50.259-35.368c27.775-27.509 72.744-27.509 100.519 0 6.278 6.218 6.326 16.35.108 22.628s-16.349 6.326-22.627.108c-15.303-15.157-40.179-15.157-55.482 0-6.279 6.218-16.409 6.17-22.627-.108-6.219-6.278-6.169-16.41.109-22.628"/><g id="Outlines" fill="#1d1d1b" fill-rule="evenodd" clip-rule="evenodd"><path d="M160 224c11.045 0 20 8.954 20 20s-8.955 20-20 20-20-8.954-20-20 8.954-20 20-20m0 8c-6.628 0-12 5.373-12 12s5.372 12 12 12c6.627 0 12-5.373 12-12s-5.373-12-12-12"/><path d="M106.927 189.79c29.104-28.826 76.073-29.052 105.457-.676l.69.676.362.368c7.486 7.8 7.425 20.191-.226 27.916-7.773 7.848-20.436 7.908-28.283.136-13.745-13.613-36.109-13.613-49.854 0-7.848 7.772-20.51 7.712-28.283-.136s-7.711-20.511.137-28.284m100.517 5.684c-26.216-25.965-68.673-25.965-94.888 0-4.709 4.664-4.746 12.263-.082 16.971 4.663 4.708 12.261 4.745 16.97.081 16.863-16.701 44.249-16.701 61.112 0 4.708 4.664 12.307 4.628 16.97-.081 4.664-4.708 4.627-12.308-.082-16.971"/><path d="M68.835 149.881c50.342-50.508 131.988-50.508 182.33 0 7.797 7.823 7.776 20.486-.047 28.284s-20.486 7.776-28.283-.047c-34.71-34.825-90.96-34.825-125.67 0-7.798 7.823-20.461 7.844-28.284.047s-7.844-20.461-.046-28.284m176.664 5.647c-47.215-47.371-123.783-47.371-170.998 0-4.679 4.694-4.667 12.292.027 16.971 4.694 4.678 12.292 4.665 16.97-.028 37.837-37.962 99.167-37.962 137.003 0 4.678 4.693 12.276 4.706 16.97.028s4.706-12.277.028-16.971"/><path d="M29.865 109.851c71.874-71.801 188.396-71.801 260.27 0 7.814 7.806 7.821 20.469.014 28.284-7.806 7.813-20.469 7.82-28.284.014-56.256-56.199-147.474-56.199-203.73 0-7.815 7.807-20.478 7.8-28.284-.014-7.807-7.815-7.8-20.478.014-28.284m254.615 5.66c-68.75-68.68-180.21-68.68-248.96 0-4.69 4.684-4.693 12.281-.01 16.969 4.685 4.689 12.282 4.693 16.97.009 59.38-59.32 155.66-59.32 215.039 0 4.689 4.684 12.286 4.68 16.97-.009 4.684-4.688 4.68-12.285-.009-16.969"/></g></g></svg>