<svg xmlns="http://www.w3.org/2000/svg" fill="none" viewBox="0 0 320 320"><g id="signal-mobile"><path id="lg-icon-fill-primary" fill="#42aeea" d="M36 220c8.837 0 16 7.163 16 16v8c0 8.837-7.163 16-16 16s-16-7.163-16-16v-8c0-8.837 7.163-16 16-16m64-40c8.837 0 16 7.163 16 16v48c0 8.837-7.163 16-16 16s-16-7.163-16-16v-48c0-8.837 7.163-16 16-16m64-40c8.837 0 16 7.163 16 16v88c0 8.837-7.163 16-16 16s-16-7.163-16-16v-88c0-8.837 7.163-16 16-16"/><path id="Outlines" fill="#1d1d1b" fill-rule="evenodd" d="M36 216c11.046 0 20 8.954 20 20v8c0 11.046-8.954 20-20 20s-20-8.954-20-20v-8c0-11.046 8.954-20 20-20m0 8c-6.627 0-12 5.373-12 12v8c0 6.627 5.373 12 12 12s12-5.373 12-12v-8c0-6.627-5.373-12-12-12m64-48c11.046 0 20 8.954 20 20v48c0 11.046-8.954 20-20 20s-20-8.954-20-20v-48c0-11.046 8.954-20 20-20m0 8c-6.627 0-12 5.373-12 12v48c0 6.627 5.373 12 12 12s12-5.373 12-12v-48c0-6.627-5.373-12-12-12m64-48c11.046 0 20 8.954 20 20v88c0 11.046-8.954 20-20 20-10.873 0-19.719-8.676-19.993-19.483L144 244v-88c0-11.046 8.954-20 20-20m0 8c-6.627 0-12 5.373-12 12v88l.004.31c.164 6.484 5.472 11.69 11.996 11.69 6.627 0 12-5.373 12-12v-88c0-6.627-5.373-12-12-12m64-48c11.046 0 20 8.954 20 20v128c0 11.046-8.954 20-20 20s-20-8.954-20-20V116c0-11.046 8.954-20 20-20m0 8c-6.627 0-12 5.373-12 12v128c0 6.627 5.373 12 12 12s12-5.373 12-12V116c0-6.627-5.373-12-12-12m64-48c11.046 0 20 8.954 20 20v168c0 11.046-8.954 20-20 20s-20-8.954-20-20V76c0-11.046 8.954-20 20-20m0 8c-6.627 0-12 5.373-12 12v168c0 6.627 5.373 12 12 12s12-5.373 12-12V76c0-6.627-5.373-12-12-12" clip-rule="evenodd"/></g></svg>