<svg xmlns="http://www.w3.org/2000/svg" fill="none" viewBox="0 0 320 320"><g id="signal-mobile-disconnected"><path id="lg-icon-fill-primary" fill="#42aeea" d="M36 220c8.837 0 16 7.163 16 16v8c0 8.837-7.163 16-16 16s-16-7.163-16-16v-8c0-8.837 7.163-16 16-16m64-40c8.837 0 16 7.163 16 16v48c0 8.837-7.163 16-16 16s-16-7.163-16-16v-48c0-8.837 7.163-16 16-16m64-40c8.837 0 16 7.163 16 16v88c0 8.837-7.163 16-16 16s-16-7.163-16-16v-88c0-8.837 7.163-16 16-16"/><g id="Outlines" fill="#1d1d1b"><path d="M273.142 241.201a4 4 0 0 1 5.657 5.656L265.656 260l13.143 13.142a4 4 0 0 1-5.657 5.657L260 265.656l-13.143 13.143a4 4 0 1 1-5.656-5.657L254.343 260l-13.142-13.143a4 4 0 1 1 5.656-5.656L260 254.343z"/><path fill-rule="evenodd" d="M292 56c11.046 0 20 8.954 20 20v184c0 28.719-23.281 52-52 52s-52-23.281-52-52V116c0-11.046 8.954-20 20-20s20 8.954 20 20v93.393A52 52 0 0 1 260 208c4.13 0 8.148.483 12 1.393V76c0-11.046 8.954-20 20-20m-32 160c-24.301 0-44 19.699-44 44s19.699 44 44 44 44-19.699 44-44-19.699-44-44-44m-32-112c-6.627 0-12 5.373-12 12v116.276a52.2 52.2 0 0 1 24-20.291V116c0-6.627-5.373-12-12-12m64-40c-6.627 0-12 5.373-12 12v135.985a52.2 52.2 0 0 1 24 20.291V76c0-6.627-5.373-12-12-12M36 216c11.046 0 20 8.954 20 20v8c0 11.046-8.954 20-20 20s-20-8.954-20-20v-8c0-11.046 8.954-20 20-20m0 8c-6.627 0-12 5.373-12 12v8c0 6.627 5.373 12 12 12s12-5.373 12-12v-8c0-6.627-5.373-12-12-12m64-48c11.046 0 20 8.954 20 20v48c0 11.046-8.954 20-20 20s-20-8.954-20-20v-48c0-11.046 8.954-20 20-20m0 8c-6.627 0-12 5.373-12 12v48c0 6.627 5.373 12 12 12s12-5.373 12-12v-48c0-6.627-5.373-12-12-12m64-48c11.046 0 20 8.954 20 20v88c0 11.046-8.954 20-20 20-10.873 0-19.719-8.676-19.993-19.483L144 244v-88c0-11.046 8.954-20 20-20m0 8c-6.627 0-12 5.373-12 12v88l.004.31c.164 6.484 5.472 11.69 11.996 11.69 6.627 0 12-5.373 12-12v-88c0-6.627-5.373-12-12-12" clip-rule="evenodd"/></g></g></svg>