<svg xmlns="http://www.w3.org/2000/svg" fill="none" viewBox="0 0 320 320"><g id="solar"><path id="lg-icon-fill-primary" fill="#42aeea" d="M270 96c0-24.3-19.699-44-44-44s-44 19.7-44 44 19.699 44 44 44 44-19.699 44-44m34 116H16v16h288z"/><path id="Outlines" fill="#1d1d1b" fill-rule="evenodd" d="m292 24 16 192v16H164v56h60v8H96v-8h60v-56H12v-16L28 24zm8 192H20v8h280zM90.167 116H28.36l-7.666 92h65.639zm92.186.001L164 116v92h61.659l-2.67-64.093c-18.079-1.119-33.448-12.245-40.636-27.906M291.638 116l-21.991.001c-6.924 15.086-21.44 25.964-38.657 27.743L233.667 208h65.638zM156 116H98.174l-3.834 92H156zm65.825 0-30.473.001c6.39 11.045 17.909 18.752 31.301 19.861zm38.823.001L229.833 116l.823 19.732c12.832-1.488 23.812-9.047 29.992-19.731M93.667 32H35.361l-6.334 76H90.5zM156 32h-54.326l-3.167 76H156zm62.325 0H164v76l15.513.001A48 48 0 0 1 178 96c0-24.137 17.815-44.112 41.013-47.495zm9.009 24.022L229.5 108l34.668.001A40 40 0 0 0 266 96c0-21.645-17.192-39.274-38.666-39.978M284.638 32h-58.305l.668 16.01C253.049 48.543 274 69.825 274 96c0 4.144-.525 8.165-1.513 12.001l18.484-.001zM186 96c0 4.181.642 8.213 1.832 12.001l33.66-.001-2.143-51.45C200.423 59.719 186 76.176 186 96" clip-rule="evenodd"/></g></svg>