<svg xmlns="http://www.w3.org/2000/svg" fill="none" viewBox="0 0 320 320"><g id="spanner"><path id="lg-icon-fill-primary" fill="#42aeea" d="m184.97 109.088 25.941 25.941-75.882 75.882-25.941-25.941z"/><path id="Outlines" fill="#1d1d1b" fill-rule="evenodd" d="m276.853 20.52-33.942 33.94v22.628h22.628l33.941-33.941c2.627 2.627 3.94 3.94 4.937 5.155q.277.336.543.679c9.139 11.767 8.958 28.346-.543 39.922-.997 1.215-2.31 2.529-4.937 5.155l-31.113 31.113-43.557 3.96-95.679 95.678-3.96 43.558-31.112 31.113c-2.627 2.627-3.94 3.94-5.156 4.937-11.576 9.501-28.155 9.682-39.922.542a32 32 0 0 1-.679-.542c-1.215-.997-2.528-2.31-5.154-4.937l33.94-33.941v-22.628H54.461L20.52 276.852c-2.627-2.626-3.94-3.94-4.938-5.155a32 32 0 0 1-.542-.679c-9.14-11.767-8.958-28.345.542-39.922.998-1.215 2.31-2.529 4.938-5.155l31.112-31.113 43.558-3.96 95.678-95.678 3.96-43.558 31.113-31.113c2.626-2.626 3.94-3.94 5.155-4.937 11.577-9.5 28.155-9.681 39.922-.542q.343.266.679.542c1.216.997 2.529 2.31 5.156 4.937m-86.226 86.225 7.946-7.946 3.96-43.558 29.065-29.065c2.761-2.761 3.738-3.725 4.573-4.41 8.42-6.91 20.368-7.246 29.131-1.01l-30.391 30.39v33.942h33.942l30.39-30.39c6.237 8.763 5.9 20.71-1.01 29.13-.685.835-1.649 1.812-4.41 4.574l-29.064 29.064-43.558 3.96-7.947 7.946zm-5.657 5.657-72.569 72.568 22.628 22.628 72.568-72.569zm-78.225 78.225-7.946 7.946-43.558 3.96-29.064 29.065c-2.762 2.761-3.726 3.738-4.41 4.573-6.91 8.42-7.247 20.367-1.01 29.131l30.39-30.391h33.941v33.941l-30.39 30.391c8.763 6.236 20.71 5.9 29.13-1.01.835-.685 1.813-1.649 4.574-4.41l29.064-29.065 3.96-43.557 7.946-7.946z" clip-rule="evenodd"/></g></svg>