<svg xmlns="http://www.w3.org/2000/svg" fill="none" viewBox="0 0 320 320"><g id="sprout"><path id="lg-icon-fill-primary" fill="#42aeea" d="M160 140c70 0 112-42 112-112-84 0-112 42-112 112m0 0c-60 0-80-30-80-80 50 0 80 30 80 80"/><path id="Outlines" fill="#1d1d1b" fill-rule="evenodd" d="M164 143.955c33.973-.775 61.669-11.468 81.078-30.877C265.244 92.913 276 63.802 276 28v-4h-4c-42.611 0-71.913 10.658-90.46 31.06-12.171 13.388-19.39 30.627-22.899 50.958-3.772-10.753-9.498-20.032-17.063-27.596C126.913 63.756 105.802 56 80 56h-4v4c0 25.417 5.064 46.616 18.54 61.441 12.949 14.243 32.983 21.869 61.46 22.514v72.149c-22.043 1.143-41.601 11.681-54.744 27.673A55.9 55.9 0 0 0 81 240c-29.48 0-53.637 22.777-55.837 51.697L24.836 296h272.329l-.328-4.303C294.637 262.777 270.481 240 241 240a55.8 55.8 0 0 0-21.76 4.386c-13.145-16.333-32.918-27.125-55.24-28.283zm.032-8.003c.529-32.632 7.555-58.051 23.428-75.511 15.91-17.502 41.401-27.75 80.492-28.407-.777 32.283-10.923 57.78-28.53 75.388-17.608 17.608-43.106 27.753-75.39 28.53m-58.328 115.103C118.123 234.613 137.822 224 160 224c22.475 0 42.403 10.899 54.79 27.717l1.987 2.698 3.005-1.483C226.175 249.775 233.374 248 241 248c23.784 0 43.53 17.3 47.337 40H33.663c3.808-22.7 23.554-40 47.337-40a47.8 47.8 0 0 1 19.856 4.285l2.916 1.327zm-5.244-134.996c-10.88-11.967-15.887-29.393-16.413-51.99 22.264.766 39.764 7.9 51.875 20.01s19.242 29.609 20.009 51.873c-27.06-.653-44.556-7.886-55.471-19.893" clip-rule="evenodd"/></g></svg>