<svg xmlns="http://www.w3.org/2000/svg" fill="none" viewBox="0 0 320 320"><g id="star-rating"><path id="lg-icon-fill-primary" fill="#42aeea" d="m134.406 21.58 10.387 32.085h33.613l-27.193 19.83L161.6 105.58l-27.194-19.83-27.193 19.83L117.6 73.495l-27.194-19.83h33.613zm105.049 57.45-10.387-32.086-10.387 32.085h-33.613l27.194 19.83-10.387 32.085 27.193-19.83 27.194 19.83-10.387-32.085 27.193-19.83zm14.979 62.576 10.387 32.085h33.613l-27.194 19.83 10.387 32.085-27.193-19.83-27.194 19.83 10.387-32.085-27.193-19.83h33.613zM36 254.024 116.024 174l29.285 29.284-80.025 80.025zm39.5-131.061L65.113 90.877l-10.387 32.086H21.113l27.194 19.829-10.387 32.085 27.193-19.829 27.194 19.829-10.387-32.085 27.193-19.829z"/><path id="Outlines" fill="#1d1d1b" fill-rule="evenodd" d="M134.407 17.58a4 4 0 0 1 3.805 2.768l9.491 29.317h30.704a4 4 0 0 1 2.356 7.232L155.911 75.02l9.495 29.328a4.002 4.002 0 0 1-6.163 4.464l-24.836-18.111-24.837 18.111a4.001 4.001 0 0 1-6.163-4.464l9.495-29.328L88.05 56.897a4 4 0 0 1 2.356-7.232h30.704l9.491-29.317a4 4 0 0 1 3.806-2.768m0 16.987-6.582 20.33a4 4 0 0 1-3.805 2.768h-21.339l17.276 12.598a4 4 0 0 1 1.449 4.464l-6.591 20.36 17.235-12.569a4 4 0 0 1 4.713 0l17.236 12.569-6.592-20.36a4 4 0 0 1 1.449-4.464l17.276-12.598h-21.338a4 4 0 0 1-3.806-2.768zm98.467 11.145a4 4 0 0 0-7.611 0l-9.491 29.317h-30.703a4.001 4.001 0 0 0-2.357 7.232l24.852 18.123-9.494 29.328a3.999 3.999 0 0 0 6.162 4.464l24.837-18.111 24.836 18.111a4.001 4.001 0 0 0 6.163-4.464l-9.495-29.328 24.852-18.123a4 4 0 0 0-2.356-7.232h-30.704zm-10.387 34.55 6.582-20.33 6.581 20.33a4 4 0 0 0 3.806 2.767h21.338l-17.276 12.598a4 4 0 0 0-1.448 4.464l6.591 20.359-17.236-12.568a4 4 0 0 0-4.713 0l-17.235 12.568 6.591-20.359a4 4 0 0 0-1.449-4.464l-17.276-12.598h21.339a4 4 0 0 0 3.805-2.768m31.947 57.345a4 4 0 0 1 3.805 2.768l9.491 29.317h30.704a4 4 0 0 1 2.357 7.232l-24.853 18.123 9.495 29.328a4 4 0 0 1-6.162 4.464l-24.837-18.111-24.837 18.111a4 4 0 0 1-6.162-4.464l9.494-29.328-24.852-18.123a3.999 3.999 0 0 1 2.357-7.232h30.703l9.491-29.317a4 4 0 0 1 3.806-2.768m0 16.987-6.582 20.33a4 4 0 0 1-3.805 2.768h-21.339l17.276 12.598a4 4 0 0 1 1.449 4.464l-6.591 20.359 17.235-12.568a4 4 0 0 1 4.714 0l17.235 12.568-6.591-20.359a4 4 0 0 1 1.449-4.464l17.276-12.598h-21.339a4 4 0 0 1-3.806-2.768zM33.716 251.862a6 6 0 0 1-.366.332c-1.874 1.577-16.6 14.931 1.798 33.444 16.992 17.099 30.965 2.987 32.532 1.102q.156-.192.33-.368l78.617-79.112c.436-.439.763-.975.956-1.566l12.213-40.368c1.022-3.138-1.97-6.149-5.089-5.121l-40.817 11.583a3.9 3.9 0 0 0-1.557.962zm2.837 8.323c-.878 1.122-1.92 3.024-2.458 4.728-.498 1.578-.154 3.804.388 5.839s2.832 5.76 6.283 9.232c3.45 3.473 7.154 5.778 9.174 6.323 1.987.535 3.532.185 5.1-.317 1.694-.542 3.584-1.59 4.699-2.473zm5.487-5.248 74.042-74.508 8.963 9.02-74.042 74.508zm14.888 14.44 73.773-74.237 8.431 8.484-73.773 74.237zm83.609-96.861-16.948 4.573 18.727 18.844 5.247-16.347q-.259-.145-.566-.309c-1.053-.569-2.472-1.335-3.65-2.519-1.153-1.161-1.725-2.227-2.37-3.432q-.21-.394-.44-.81m48.404 37.153a4.001 4.001 0 0 0-7.612 0l-9.49 29.318h-30.704a3.999 3.999 0 0 0-2.357 7.231l24.853 18.123-9.495 29.328a4 4 0 0 0 6.162 4.464l24.837-18.111 24.837 18.111a3.998 3.998 0 0 0 6.162-4.464l-9.494-29.328 24.852-18.123a3.998 3.998 0 0 0-2.357-7.231h-30.704zm-10.387 34.549 6.581-20.329 6.581 20.329a4 4 0 0 0 3.806 2.769h21.339l-17.276 12.597a4 4 0 0 0-1.449 4.464l6.591 20.36-17.235-12.568a4 4 0 0 0-4.714 0l-17.235 12.568 6.591-20.36a4 4 0 0 0-1.449-4.464l-17.276-12.597h21.339a4 4 0 0 0 3.806-2.769M68.92 89.646a4 4 0 0 0-7.612 0l-9.49 29.317H21.113a4 4 0 0 0-2.357 7.232l24.852 18.122-9.495 29.328a4 4 0 0 0 6.163 4.464l24.837-18.111 24.836 18.111a3.999 3.999 0 0 0 6.163-4.464l-9.495-29.328 24.852-18.122a4 4 0 0 0-2.356-7.232H78.41zm-10.388 34.549 6.582-20.33 6.581 20.33a4 4 0 0 0 3.806 2.768h21.338L79.563 139.56a4 4 0 0 0-1.448 4.464l6.59 20.36-17.235-12.568a4 4 0 0 0-4.713 0l-17.235 12.568 6.59-20.36a4 4 0 0 0-1.448-4.464l-17.276-12.597h21.339a4 4 0 0 0 3.805-2.768" clip-rule="evenodd"/></g></svg>