<svg xmlns="http://www.w3.org/2000/svg" fill="none" viewBox="0 0 320 320"><g id="stethoscope"><path id="lg-icon-fill-primary" fill="#42aeea" d="M77.191 20.054 56 28l21.191 7.947C82.421 37.908 88 34.042 88 28.457v-.913c0-5.585-5.579-9.451-10.809-7.49M160 28l-21.191-7.946c-5.23-1.961-10.809 1.905-10.809 7.49v.912c0 5.586 5.579 9.452 10.809 7.491zM85.199 172.522a4 4 0 0 0-2.397 7.632A83.8 83.8 0 0 0 104 183.907V204a4 4 0 1 0 8 0v-20.093a83.8 83.8 0 0 0 21.199-3.753 4 4 0 0 0-2.398-7.632A76 76 0 0 1 108 176a76 76 0 0 1-22.801-3.478M204 268c17.673 0 32-14.326 32-32 0-17.673-14.327-32-32-32s-32 14.327-32 32 14.327 32 32 32"/><g id="Outlines" fill="#1d1d1b" fill-rule="evenodd" clip-rule="evenodd"><path d="M204 216c-11.046 0-20 8.954-20 20s8.954 20 20 20 20-8.954 20-20-8.954-20-20-20m-12 20c0-6.627 5.373-12 12-12s12 5.373 12 12-5.373 12-12 12-12-5.373-12-12"/><path d="M140.213 16.308C132.368 13.366 124 19.166 124 27.544v.912c0 8.378 8.368 14.178 16.213 11.236l19.765-7.412C173.558 34.212 184 45.886 184 60v40c0 30.128-17.53 56.161-42.947 68.456-3.037-3.485-7.957-5.041-12.649-3.567A68 68 0 0 1 108 168a68 68 0 0 1-20.404-3.111c-4.692-1.474-9.611.082-12.648 3.567C49.53 156.161 32 130.128 32 100V60c0-14.114 10.442-25.788 24.022-27.72l19.765 7.412C83.63 42.634 92 36.834 92 28.456v-.912c0-8.378-8.368-14.178-16.213-11.236l-21.192 7.947q-.259.097-.498.227C37.023 27.298 24 42.128 24 60v40c0 33.511 19.623 62.438 48.005 75.919-.187 5.262 3.132 10.213 8.4 11.867A91.5 91.5 0 0 0 96 191.223V204c0 5.225 3.34 9.67 8 11.317V260c0 28.719 23.281 52 52 52h72c28.719 0 52-23.281 52-52v-84c0-22.091-17.909-40-40-40s-40 17.909-40 40v24.22c-18 1.989-32 17.25-32 35.78 0 19.882 16.118 36 36 36s36-16.118 36-36c0-18.53-14-33.791-32-35.78V176c0-17.673 14.327-32 32-32s32 14.327 32 32v84c0 24.301-19.699 44-44 44h-72c-24.301 0-44-19.699-44-44v-44.683c4.661-1.647 8-6.092 8-11.317v-12.777a91.5 91.5 0 0 0 15.596-3.437c5.268-1.654 8.587-6.605 8.4-11.868C172.378 162.438 192 133.51 192 100V60c0-17.872-13.023-32.702-30.097-35.518a4 4 0 0 0-.499-.227zM132 27.544c0-2.793 2.789-4.726 5.404-3.745L148.608 28l-11.204 4.201c-2.615.981-5.404-.952-5.404-3.745zM204 208c-15.464 0-28 12.536-28 28s12.536 28 28 28 28-12.536 28-28-12.536-28-28-28m-96-32q1.824 0 3.625-.085a75.7 75.7 0 0 0 19.177-3.394 4 4 0 0 1 2.397 7.633l-.003.001q-.745.234-1.495.454A83.8 83.8 0 0 1 112 183.906V204a4 4 0 0 1-8 0v-20.094q-.45-.02-.901-.047a83.7 83.7 0 0 1-20.294-3.704l-.003-.001a4 4 0 0 1 2.397-7.633 75.7 75.7 0 0 0 19.176 3.394q1.802.085 3.625.085M78.596 23.799c2.614-.98 5.404.952 5.404 3.745v.912c0 2.793-2.79 4.726-5.404 3.745l-11.204-4.2z"/></g></g></svg>