<svg xmlns="http://www.w3.org/2000/svg" fill="none" viewBox="0 0 320 320"><g id="stopwatch"><path id="lg-icon-fill-primary" fill="#42aeea" d="M99 38 57 62l16 27 41.5-24zm146 154v-22.866c-7.8-29.066-30.111-52.192-58.691-61.134H161v84z"/><g id="Outlines" fill="#1d1d1b"><path d="M156 244a4 4 0 0 1 8 0v16a4 4 0 0 1-8 0zm-25.465-8.967a4 4 0 1 1 6.928 4l-8 13.857a4 4 0 0 1-6.928-4zm-12.106-19.034a4 4 0 0 0-5.465-1.464l-13.856 8a4 4 0 1 0 4 6.928l13.856-8a4 4 0 0 0 1.465-5.464m-10.431-28.001a4 4 0 0 1 0 8h-16a4 4 0 0 1 0-8zm114.354 39.999a4 4 0 0 0-1.465-5.464l-13.856-8a4 4 0 1 0-4 6.928l13.856 8a4 4 0 0 0 5.465-1.464m-103.923-60a4 4 0 0 0-1.465-5.464l-13.856-8a4 4 0 1 0-4 6.928l13.856 8a4 4 0 0 0 5.465-1.464m79.034 80.889a4 4 0 0 1-6.928 4l-8-13.856a4 4 0 1 1 6.928-4zm-60-103.923a4 4 0 0 1-6.928 4l-8-13.856a4 4 0 1 1 6.928-4zm53.072-13.853a4 4 0 1 1 6.928 4l-8 13.857a4 4 0 0 1-6.928-4zm31.817 24.889a4 4 0 0 0-5.465-1.464l-13.856 8a4 4 0 1 0 4 6.928l13.856-8a4 4 0 0 0 1.465-5.464"/><path fill-rule="evenodd" d="M248 192c0 48.601-39.399 88-88 88s-88-39.399-88-88 39.399-88 88-88 88 39.399 88 88m-8.098 4c-2.084 42.324-37.061 76-79.902 76-44.183 0-80-35.817-80-80 0-42.841 33.676-77.818 76-79.902V192a4 4 0 0 0 4 4zm0-8h-11.778l-.126-.002h-16l-.126.002H164v-75.902c40.999 2.019 73.883 34.903 75.902 75.902" clip-rule="evenodd"/><path fill-rule="evenodd" d="M132 20a4 4 0 0 1 4-4h48a4 4 0 0 1 4 4v40a4 4 0 0 1-4 4h-12v16.635C228.213 86.623 272 134.198 272 192c0 61.856-50.144 112-112 112S48 253.856 48 192c0-37.146 18.084-70.069 45.927-90.444L85.61 87.149l-10.393 6a4 4 0 0 1-5.464-1.464l-16-27.713a4 4 0 0 1 1.464-5.464l41.57-24a4 4 0 0 1 5.464 1.464l16 27.713a4 4 0 0 1-1.464 5.464l-10.393 6 8.308 14.39A111.3 111.3 0 0 1 148 80.634V64h-12a4 4 0 0 1-4-4zm8 36V24h8v32zm16 0h8V24h-8zm16 0V24h8v32zm-64.51 37.047-8.024-13.898-6.928 4 8.028 13.904a112 112 0 0 1 6.924-4.006M164 64v16.07a114 114 0 0 0-8 0V64zm100 128c0 57.438-46.562 104-104 104S56 249.438 56 192 102.562 88 160 88s104 46.562 104 104M62.682 63.436l12 20.785 34.64-20-12-20.785z" clip-rule="evenodd"/></g></g></svg>