<svg xmlns="http://www.w3.org/2000/svg" fill="none" viewBox="0 0 320 320"><g id="strategy"><path id="lg-icon-fill-primary" fill="#42aeea" d="M76 268c13.255 0 24-10.745 24-24s-10.745-24-24-24-24 10.745-24 24 10.745 24 24 24"/><path id="Outlines" fill="#1d1d1b" fill-rule="evenodd" d="M280 24c8.837 0 16 7.163 16 16v240c0 8.837-7.163 16-16 16H40c-8.837 0-16-7.163-16-16V40c0-8.837 7.163-16 16-16zm0 8H40a8 8 0 0 0-7.996 7.75L32 40v240a8 8 0 0 0 7.75 7.996L40 288h240a8 8 0 0 0 7.996-7.751L288 280V40a8 8 0 0 0-7.751-7.996zm-35.979 14.322 5.657 5.657-.021.021 21.171 21.172a4 4 0 0 1-5.497 5.808l-.159-.152-17.173-17.173L248 76c0 57.627-29.198 87.401-86.262 87.991L160 164c-43.776 0-69.284 17.358-77.265 52.814C94.946 219.831 104 230.858 104 244c0 15.464-12.536 28-28 28s-28-12.536-28-28c0-15.041 11.86-27.312 26.738-27.972 8.47-39.28 36.56-59.534 83.524-60.019L160 156c53.253 0 79.473-25.688 79.992-78.394L240 76l-.001-14.343-17.171 17.171-.159.151a4 4 0 0 1-5.648-5.648l.151-.16L238.342 52l-.021-.021 5.657-5.657.022.021zM76 224c-11.046 0-20 8.954-20 20s8.954 20 20 20 20-8.954 20-20-8.954-20-20-20m162.828-30.828a4 4 0 0 1 .151 5.497l-.151.159L217.657 220l21.171 21.172a3.997 3.997 0 0 1 0 5.656 4 4 0 0 1-5.497.151l-.159-.151L212 225.657l-21.172 21.171-.159.151a3.999 3.999 0 0 1-5.648-5.648l.151-.159L206.343 220l-21.171-21.172a3.997 3.997 0 0 1 0-5.656 4 4 0 0 1 5.497-.151l.159.151L212 214.343l21.172-21.171.159-.151a4 4 0 0 1 5.497.151m-128-96a4 4 0 0 1 .151 5.497l-.151.159L89.657 124l21.171 21.172a3.997 3.997 0 0 1 0 5.656 4 4 0 0 1-5.497.151l-.159-.151L84 129.657l-21.172 21.171-.159.151a4 4 0 0 1-5.648-5.648l.15-.159L78.344 124l-21.171-21.172a4 4 0 0 1 5.497-5.807l.16.15L84 118.344l21.172-21.171.159-.151a4 4 0 0 1 5.497.15m80-40a4 4 0 0 1 .151 5.497l-.151.16L169.657 84l21.171 21.172a3.997 3.997 0 0 1 0 5.656 4 4 0 0 1-5.497.151l-.159-.151L164 89.657l-21.172 21.171-.159.151a3.999 3.999 0 0 1-5.648-5.648l.151-.159L158.343 84l-21.171-21.172a4 4 0 0 1 5.497-5.808l.159.152L164 78.343l21.172-21.171.159-.151a4 4 0 0 1 5.497.15" clip-rule="evenodd"/></g></svg>