<svg xmlns="http://www.w3.org/2000/svg" fill="none" viewBox="0 0 320 320"><g id="sustainable-growth" fill-rule="evenodd" clip-rule="evenodd"><path id="lg-icon-fill-primary" fill="#42aeea" d="m160 152-28 27.5L76 220q-33.154 7.358-38.181 8.42a140.2 140.2 0 0 0 21.473 28.832c53.711 55.62 142.341 57.167 197.96 3.456s57.166-142.341 3.456-197.96L244 84l-56 40z"/><path id="Outlines" fill="#1d1d1b" d="M160 16c79.529 0 144 64.471 144 144s-64.471 144-144 144S16 239.529 16 160 80.471 16 160 16m22.826 118.83-39.996 39.996A11.95 11.95 0 0 1 144 180c0 5.225-3.339 9.669-7.999 11.317L136 293.889A137 137 0 0 0 160 296c8.189 0 16.21-.724 24.001-2.111L184 135.317a12 12 0 0 1-1.174-.487m-57.707 55.002-37.585 26.845c.303 1.055.466 2.17.466 3.323 0 5.225-3.339 9.669-8 11.317v38.676a135.4 135.4 0 0 0 48 22.221V191.317c-1.033-.365-2-.867-2.881-1.485m112-96-37.585 26.844c.303 1.056.466 2.171.466 3.324 0 5.225-3.339 9.669-7.999 11.317l.001 156.897a135.4 135.4 0 0 0 48-22.222L240 95.317c-1.033-.365-2-.867-2.881-1.485M65.874 226.443l-21.625 4.991a136.7 136.7 0 0 0 27.75 32.26L72 231.317a12.04 12.04 0 0 1-6.126-4.874M259.428 67.208l-5.979 9.394A11.95 11.95 0 0 1 256 84c0 5.225-3.339 9.67-7.999 11.317l.002 168.376C277.368 238.747 296 201.549 296 160c0-35.867-13.885-68.492-36.572-92.791M160 24C84.89 24 24 84.89 24 160c0 23.213 5.816 45.068 16.07 64.187l24.006-5.542C64.749 212.656 69.83 208 76 208c2.56 0 4.934.802 6.883 2.169l37.583-26.847A12 12 0 0 1 120 180c0-6.627 5.373-12 12-12 1.852 0 3.607.42 5.173 1.169l39.996-39.996A12 12 0 0 1 176 124c0-6.627 5.373-12 12-12 2.561 0 4.934.802 6.883 2.169l37.583-26.847A12 12 0 0 1 232 84c0-6.627 5.373-12 12-12 .929 0 1.833.106 2.701.305l6.951-10.922C229.265 38.216 196.292 24 160 24"/></g></svg>