<svg xmlns="http://www.w3.org/2000/svg" fill="none" viewBox="0 0 320 320"><g id="switch"><path id="lg-icon-fill-primary" fill="#42aeea" d="M306.586 161.414a2 2 0 0 0 0-2.828l-91.172-91.172c-1.26-1.26-3.414-.368-3.414 1.414v53.167a2 2 0 0 1-2.005 2l-47.99-.115a2 2 0 0 0-2.005 2v68.245a2 2 0 0 0 2 2h48a2 2 0 0 1 2 2v53.046c0 1.782 2.154 2.675 3.414 1.415z"/><path id="Outlines" fill="#1d1d1b" fill-rule="evenodd" d="M112 68.828c0-5.345-6.463-8.022-10.243-4.242l-91.172 91.171a6 6 0 0 0 0 8.486l91.172 91.171c3.78 3.78 10.243 1.103 10.243-4.242v-51.047h96v51.047c0 5.345 6.463 8.022 10.243 4.242l91.172-91.171a6 6 0 0 0 0-8.486l-91.172-91.171c-3.78-3.78-10.243-1.103-10.243 4.242v51.162l-44.015-.105v-.005l-1.045.002-.925-.002q-.129 0-.256.005L112 119.99zM17.657 160 104 73.657v48.338a6 6 0 0 0 6.014 6l45.986-.11v64.24h-46a6 6 0 0 0-6 6v48.218zm284.686 0L216 73.657v48.338a6 6 0 0 1-6.014 6l-45.986-.11v64.24h46a6 6 0 0 1 6 6v48.218z" clip-rule="evenodd"/></g></svg>