<svg xmlns="http://www.w3.org/2000/svg" fill="none" viewBox="0 0 320 320"><g id="tag"><path id="lg-icon-fill-primary" fill="#42aeea" fill-rule="evenodd" d="M180 60H60v120l128 128 120-120zm-60.143 79.858c11.046 0 20-8.954 20-20s-8.954-20-20-20-20 8.954-20 20 8.955 20 20 20" clip-rule="evenodd"/><g id="Outlines" fill="#1d1d1b"><path d="M176.487 148.342c-4.868-.968-12.102-.345-20.547 8.053-3.781 3.761-6.726 8.824-7.641 13.867-.889 4.9.116 9.712 4.122 13.729 6.716 6.736 14.032 9.246 21.638 11.499q.862.255 1.74.511l.004.001q.798.232 1.607.471l24.197-24.061a4 4 0 1 1 5.64 5.672l-21.409 21.291c3.752 1.595 7.398 3.721 10.608 6.913 6.852 6.814 7.321 16.879 6.549 24.232l28.66-28.499-2.899-14.417a4 4 0 1 1 7.843-1.577l3.323 16.525a4 4 0 0 1-1.101 3.625l-39.883 39.659a4 4 0 0 1-6.569-4.23v-.001c0-.001.001-.002 3.749 1.395l-3.748-1.397.011-.032.056-.156c.051-.145.128-.37.225-.665.193-.59.463-1.462.757-2.546.591-2.18 1.263-5.171 1.612-8.451.728-6.835-.07-13.66-4.226-17.793-3.136-3.118-6.813-4.889-11.193-6.395l-13.909 13.831a4 4 0 1 1-5.641-5.672l10.877-10.816c-7.62-2.284-16.261-5.323-24.183-13.268-6.13-6.147-7.612-13.734-6.329-20.806 1.258-6.929 5.147-13.412 9.872-18.111 10.25-10.193 20.153-11.738 27.748-10.227 3.671.73 6.631 2.138 8.67 3.354a26 26 0 0 1 2.399 1.617 19 19 0 0 1 .872.709l.065.057.023.021.01.009.004.004c.002.002.004.003-2.696 2.955l2.7-2.952a4.001 4.001 0 0 1-5.384 5.918l-.002-.002-.069-.059a11 11 0 0 0-.38-.303 18 18 0 0 0-1.641-1.104c-1.467-.875-3.57-1.869-6.131-2.378"/><path fill-rule="evenodd" d="M30.828 25.172a4 4 0 1 0-5.657 5.656l30.83 30.83V180c0 1.061.42 2.078 1.171 2.828l128 128a4 4 0 0 0 5.657 0l120-120a4 4 0 0 0 0-5.656l-128-128A4 4 0 0 0 180.001 56H61.656zM64 69.658v108.685l124 124L302.344 188l-124-124H69.656l36.295 36.295a23.9 23.9 0 0 1 13.907-4.437c13.255 0 24 10.745 24 24s-10.745 24-24 24-24-10.745-24-24a23.9 23.9 0 0 1 4.437-13.906zm42.072 42.072a15.93 15.93 0 0 0-2.215 8.128c0 8.836 7.163 16 16 16s16-7.164 16-16-7.164-16-16-16c-2.967 0-5.746.808-8.128 2.215l11.098 11.099a4 4 0 1 1-5.657 5.656z" clip-rule="evenodd"/></g></g></svg>