<svg xmlns="http://www.w3.org/2000/svg" fill="none" viewBox="0 0 320 320"><g id="tap-and-drag"><g id="lg-icon-fill-primary" fill="#42aeea"><path fill-rule="evenodd" d="M168.034 103.268C188.498 99.492 204 81.557 204 60c0-24.3-19.699-44-44-44s-44 19.7-44 44c0 21.58 15.536 39.533 36.034 43.281V68.999a8 8 0 0 1 16 0z" clip-rule="evenodd"/><path d="M136 284c0-6.627 5.373-12 12-12l12.732-.001h64.209L236 272c6.627 0 12 5.373 12 12v8c0 6.627-5.373 12-12 12h-88c-6.627 0-12-5.373-12-12z"/></g><g id="Outlines" fill="#1d1d1b"><path d="M62.835 38.693a4.003 4.003 0 0 0-5.814-5.5L33.011 57.19v.05l-.163.18a5 5 0 0 0-.297.38c-.062.1-.112.22-.17.33a2.5 2.5 0 0 0-.192.36 3 3 0 0 0-.129.42q-.045.163-.06.33a3.8 3.8 0 0 0 0 1.56q.033.17.1.33.05.215.13.42.08.189.19.36c.06.11.11.23.17.33q.21.297.46.56v.05l24.011 23.998.16.15a4.004 4.004 0 0 0 5.503-5.81L45.546 64.02h46.452l.2-.004a4 4 0 0 0-.2-7.995H45.546l17.138-17.169zm194.331 42.635a4.002 4.002 0 0 0 5.813 5.5L286.99 62.83v-.05l.163-.179a5 5 0 0 0 .297-.381c.061-.1.111-.22.17-.33q.11-.171.191-.36.08-.204.129-.42.046-.161.06-.33a3.8 3.8 0 0 0 0-1.56 2 2 0 0 0-.1-.33 3 3 0 0 0-.129-.42 2.5 2.5 0 0 0-.191-.36c-.059-.11-.109-.23-.17-.33a5 5 0 0 0-.46-.56v-.049l-24.011-23.998-.159-.151a4.004 4.004 0 0 0-5.503 5.81l17.177 17.17h-46.452l-.2.004A4 4 0 0 0 224 60.001c0 2.209 1.792 4 4.002 4h46.452l-17.137 17.168z"/><path fill-rule="evenodd" d="M204 60c0 18.643-11.594 34.578-27.965 40.987v18.153a15.93 15.93 0 0 1 8-2.14c4.089 0 7.819 1.533 10.648 4.057a16 16 0 0 1 4.453 6.643 15.9 15.9 0 0 1 8.899-2.7c4.613 0 8.77 1.952 11.69 5.075 1.39 1.487 2.5 3.24 3.245 5.174a14.7 14.7 0 0 1 7.841-2.249c9.056 0 15.982 8.072 14.605 17.023l-.021.131-12.537 121.845h3.173c6.627 0 12 5.373 12 12L248 292c0 6.627-5.372 12-12 12h-88c-6.627 0-12-5.373-12-12l.031-8.001c0-6.627 5.372-12 12-12h5.321l-2.421-28.379-52.11-65.137c-5.8-7.25-4.144-17.912 3.581-23.062a15.83 15.83 0 0 1 18.672.81l22.961 18.368v-73.585C127.627 94.622 116 78.669 116 60c0-24.3 19.7-44 44-44s44 19.7 44 44m-27.965 9v23.24C187.87 86.345 196 74.122 196 60c0-19.882-16.118-36-36-36s-36 16.118-36 36c0 14.148 8.162 26.39 20.035 32.275V68.999a15.94 15.94 0 0 1 4.378-10.996s3.622-5.004 11.622-5.004 11.622 5.004 11.622 5.004a15.95 15.95 0 0 1 4.378 10.996m61.429 80.107-.003.027-.008.063-12.512 122.802h-64.209l-1.926-29.785a8 8 0 0 0-1.628-3.592l-52.109-65.136c-2.87-3.587-2.051-8.861 1.771-11.409a7.83 7.83 0 0 1 9.237.401l22.96 18.368a8 8 0 0 0 12.998-6.247v-105.6a8 8 0 0 1 16 0v50.141a7.998 7.998 0 0 0 12.006 6.925 7.9 7.9 0 0 1 3.994-1.065 8.01 8.01 0 0 1 7.553 5.349 8 8 0 0 0 12.003 3.996 7.93 7.93 0 0 1 4.444-1.345 8.005 8.005 0 0 1 7.47 5.125 7.998 7.998 0 0 0 11.716 3.901 6.7 6.7 0 0 1 3.59-1.026c4.153 0 7.329 3.701 6.698 7.806l-.021.131-.02.141zm-1.227 130.897-.206-.005h-88a4 4 0 0 0-4 4L144 292a4 4 0 0 0 4 4h88l.206-.005A4 4 0 0 0 240 292l.031-8.001a4 4 0 0 0-3.794-3.995" clip-rule="evenodd"/></g></g></svg>