<svg xmlns="http://www.w3.org/2000/svg" fill="none" viewBox="0 0 320 320"><g id="tape-measure"><g id="lg-icon-fill-primary" fill="#42aeea"><path d="M308 268h-64v-40h64z"/><path fill-rule="evenodd" d="M128 92c37.555 0 68 30.445 68 68s-30.445 68-68 68-68-30.445-68-68 30.445-68 68-68m0 48c-11.046 0-20 8.954-20 20s8.954 20 20 20 20-8.954 20-20-8.954-20-20-20" clip-rule="evenodd"/><path d="M216 52c11.046 0 20 8.954 20 20v20a19.93 19.93 0 0 1-5.455 13.726 116.5 116.5 0 0 0-48.272-48.272A19.93 19.93 0 0 1 196 52z"/></g><g id="Outlines" fill="#1d1d1b" fill-rule="evenodd" clip-rule="evenodd"><path d="M128 136c13.255 0 24 10.745 24 24s-10.745 24-24 24-24-10.745-24-24 10.745-24 24-24m0 8c-8.837 0-16 7.163-16 16s7.163 16 16 16 16-7.163 16-16-7.163-16-16-16"/><path d="M128 88c39.764 0 72 32.235 72 72s-32.236 72-72 72-72-32.236-72-72 32.236-72 72-72m0 8c-35.346 0-64 28.654-64 64s28.654 64 64 64 64-28.654 64-64-28.654-64-64-64"/><path d="M128 40c19.326 0 37.583 4.57 53.754 12.685A23.9 23.9 0 0 1 196 48h20c13.255 0 24 10.745 24 24v20a23.9 23.9 0 0 1-4.687 14.244C243.43 122.415 248 140.674 248 160v64h60a4 4 0 0 1 4 4v52a4 4 0 0 1-8 0v-8h-56.681a11.98 11.98 0 0 1-11.306 8H128C61.726 280 8 226.274 8 160S61.726 40 128 40m0 8C66.144 48 16 98.144 16 160s50.144 112 112 112h108.013a3.98 3.98 0 0 0 3.987-3.989V160c0-19.11-4.788-37.102-13.227-52.843q-.277-.516-.559-1.03a115 115 0 0 0-3.526-5.97q-.332-.523-.669-1.042a113 113 0 0 0-3.934-5.674l-.046-.061q-.291-.394-.587-.784l-.146-.194a112 112 0 0 0-6.02-7.284 111 111 0 0 0-2.784-2.983 113 113 0 0 0-12.949-11.475 112 112 0 0 0-14.376-9.255C165.356 52.855 147.245 48 128 48m120 216h56v-32h-8v12a4 4 0 0 1-8 0v-12h-8v20a4 4 0 0 1-8 0v-20h-8v12a4 4 0 0 1-8 0v-12h-8zM196 56c-2.152 0-4.203.423-6.075 1.192l.058.036q1.496.904 2.963 1.851l.251.162a120 120 0 0 1 2.92 1.953q1.423.984 2.816 2.006l.307.228q.528.39 1.051.785l.354.268q.602.458 1.197.923l.135.105q.669.525 1.332 1.06l.284.23a129 129 0 0 1 2.325 1.94l.4.341q1.28 1.104 2.528 2.241l.207.19q.532.49 1.058.983.124.115.246.232.556.524 1.105 1.055l.133.128q1.243 1.208 2.452 2.451l.253.263q.485.501.964 1.008l.227.242a121 121 0 0 1 3.478 3.866l.204.24q.455.531.904 1.067l.23.275q1.68 2.022 3.274 4.117l.107.141q.472.623.936 1.251l.114.154a120 120 0 0 1 3.059 4.36l.137.205a122 122 0 0 1 2.872 4.524A16 16 0 0 0 232 92V72c0-8.837-7.163-16-16-16z"/></g></g></svg>