<svg xmlns="http://www.w3.org/2000/svg" fill="none" viewBox="0 0 320 320"><g id="target" clip-path="url(#clip0_2351_9455)"><g id="lg-icon-fill-primary" fill="#42aeea"><path d="M160 212c28.719 0 52-23.281 52-52s-23.281-52-52-52-52 23.281-52 52 23.281 52 52 52"/><path fill-rule="evenodd" d="M300 160c0 77.32-62.68 140-140 140S20 237.32 20 160 82.68 20 160 20s140 62.68 140 140m-24 0c0 64.065-51.935 116-116 116S44 224.065 44 160 95.935 44 160 44s116 51.935 116 116" clip-rule="evenodd"/></g><g id="Outlines" fill="#1d1d1b" fill-rule="evenodd" clip-rule="evenodd"><path d="M160 88a4 4 0 0 0-4 4v12.141c-27.74 1.957-49.902 24.119-51.859 51.859H93a4 4 0 0 0 0 8h11.141c1.957 27.74 24.119 49.902 51.859 51.859V228a4 4 0 0 0 8 0v-12.141c27.74-1.957 49.902-24.119 51.859-51.859H229a4 4 0 0 0 0-8h-13.141c-1.957-27.74-24.119-49.902-51.859-51.859V92a4 4 0 0 0-4-4m-47.836 68c1.924-23.319 20.517-41.912 43.836-43.836V156zM156 207.836c-23.319-1.924-41.912-20.517-43.836-43.836H156zM207.836 164c-1.924 23.319-20.517 41.912-43.836 43.836V164zM164 112.164c23.319 1.924 41.912 20.517 43.836 43.836H164z"/><path d="M160 0a4 4 0 0 0-4 4v12.055C79.65 18.137 18.137 79.649 16.055 156H4a4 4 0 0 0 0 8h12.055C18.137 240.351 79.649 301.863 156 303.946V316a4 4 0 0 0 8 0v-12.054c76.351-2.083 137.863-63.595 139.946-139.946H316a4 4 0 0 0 0-8h-12.054C301.863 79.65 240.351 18.137 164 16.055V4a4 4 0 0 0-4-4m-4 24.058v16.007C92.906 42.132 42.132 92.905 40.065 156H24.058C26.135 84.068 84.068 26.135 156 24.058M279.935 156C277.868 92.906 227.095 42.132 164 40.065V24.058C235.932 26.135 293.865 84.068 295.942 156zM164 279.935c63.095-2.067 113.868-52.84 115.935-115.935h16.007c-2.077 71.932-60.01 129.865-131.942 131.942zM40.065 164C42.132 227.095 92.905 277.868 156 279.935v16.007C84.068 293.865 26.135 235.932 24.058 164zM160 272c61.856 0 112-50.144 112-112S221.856 48 160 48 48 98.144 48 160s50.144 112 112 112"/></g></g><defs><clipPath id="clip0_2351_9455"><path fill="#fff" d="M0 0h320v320H0z"/></clipPath></defs></svg>