<svg xmlns="http://www.w3.org/2000/svg" fill="none" viewBox="0 0 320 320"><g id="team" fill-rule="evenodd" clip-rule="evenodd"><path id="lg-icon-fill-primary" fill="#42aeea" d="M160 40c66.274 0 120 53.726 120 120 0 13.131-2.113 25.769-6.011 37.595a40 40 0 0 0-7.83-5.236c-7.519-3.831-17.081-4.295-34.493-4.351-1.312-4.029-3.022-7.377-5.25-9.986a40 40 0 0 0-4.438-4.438C210.756 164 193.838 164 160 164s-50.756 0-61.978 9.584a40 40 0 0 0-4.438 4.438c-2.228 2.609-3.939 5.957-5.251 9.986-17.411.056-26.973.52-34.492 4.351a40 40 0 0 0-7.831 5.236C42.112 185.769 40 173.131 40 160 40 93.726 93.726 40 160 40m-72 60c-17.673 0-32 14.327-32 32s14.327 32 32 32 32-14.327 32-32-14.327-32-32-32m144 0c-17.673 0-32 14.327-32 32s14.327 32 32 32 32-14.327 32-32-14.327-32-32-32m-72-32c-19.882 0-36 16.118-36 36s16.118 36 36 36 36-16.118 36-36-16.118-36-36-36"/><g id="Outlines" fill="#1d1d1b"><path d="M88 100c17.673 0 32 14.327 32 32s-14.327 32-32 32-32-14.327-32-32 14.327-32 32-32m0 8c-13.255 0-24 10.745-24 24s10.745 24 24 24 24-10.745 24-24-10.745-24-24-24m144-8c17.673 0 32 14.327 32 32s-14.327 32-32 32-32-14.327-32-32 14.327-32 32-32m0 8c-13.255 0-24 10.745-24 24s10.745 24 24 24 24-10.745 24-24-10.745-24-24-24m-72-44c22.091 0 40 17.909 40 40s-17.909 40-40 40-40-17.909-40-40 17.909-40 40-40m0 8c-17.673 0-32 14.327-32 32s14.327 32 32 32 32-14.327 32-32-14.327-32-32-32"/><path d="M160 16c79.529 0 144 64.471 144 144 0 49.926-25.409 93.916-64 119.748v.023c-1.296.839-2.591 1.683-3.901 2.5a144 144 0 0 1-12.15 6.785 142.9 142.9 0 0 1-45.531 13.776 145.6 145.6 0 0 1-38.424-.212 143.4 143.4 0 0 1-22.67-5.05A143.2 143.2 0 0 1 83.9 282.271c-1.31-.817-2.604-1.661-3.9-2.5v-.023C41.41 253.916 16 209.926 16 160 16 80.471 80.471 16 160 16m0 152c-17.02 0-29.423.007-38.988 1.169-9.472 1.15-15.622 3.382-20.392 7.456a36 36 0 0 0-3.995 3.995c-4.074 4.77-6.305 10.92-7.456 20.392C88.007 210.577 88 222.98 88 240v35.398a135.5 135.5 0 0 0 22.256 11.216 135 135 0 0 0 10.858 3.745 135.3 135.3 0 0 0 28.201 5.226c3.526.274 7.089.415 10.685.415 8.628 0 17.256-.809 25.729-2.432A135.1 135.1 0 0 0 232 275.398V240c0-17.02-.007-29.423-1.169-38.988-1.15-9.472-3.382-15.622-7.456-20.392a36 36 0 0 0-3.995-3.995c-4.77-4.074-10.92-6.306-20.392-7.456C189.423 168.007 177.02 168 160 168m0-144C84.89 24 24 84.89 24 160c0 45.208 22.059 85.265 56 109.993v-30.272c0-16.682 0-29.57 1.228-39.673.346-2.855.796-5.529 1.381-8.041-6.187.016-7.328.097-12.555.524-6.423.525-10.777 1.548-14.398 3.393a36 36 0 0 0-8.218 5.757 119 119 0 0 1-2.707-8.213 44 44 0 0 1 7.293-4.672c4.937-2.515 10.46-3.672 17.378-4.237 6.245-.511 7.303-.552 15.805-.556 1.37-3.137 3.113-5.977 5.335-8.579a44 44 0 0 1 4.882-4.882c6.451-5.51 14.371-8.069 24.624-9.314C130.151 160 143.039 160 159.721 160c13.371 0 26.928-.388 40.231 1.228 10.253 1.245 18.173 3.804 24.624 9.314a44 44 0 0 1 4.882 4.882c2.222 2.602 3.964 5.442 5.334 8.579 8.503.004 9.56.045 15.806.556 6.917.565 12.441 1.722 17.378 4.237a44 44 0 0 1 7.292 4.672q-1.21 4.171-2.707 8.213a36 36 0 0 0-8.217-5.757c-3.621-1.845-7.975-2.868-14.398-3.393-5.227-.427-6.368-.508-12.556-.524.586 2.512 1.036 5.186 1.382 8.041C240 210.151 240 223.039 240 239.721v30.272c33.941-24.728 56-64.785 56-109.993 0-75.11-60.889-136-136-136"/></g></g></svg>