<svg xmlns="http://www.w3.org/2000/svg" fill="none" viewBox="0 0 320 320"><path fill="#42aeea" fill-rule="evenodd" d="M160 40c66.274 0 120 53.726 120 120 0 13.131-2.113 25.769-6.011 37.595a40 40 0 0 0-7.83-5.236c-7.519-3.831-17.081-4.295-34.493-4.351-1.312-4.029-3.022-7.377-5.25-9.986a40 40 0 0 0-4.438-4.438C210.756 164 193.838 164 160 164s-50.756 0-61.978 9.584a40 40 0 0 0-4.438 4.438c-2.228 2.609-3.939 5.957-5.251 9.986-17.411.056-26.973.52-34.492 4.351a40 40 0 0 0-7.831 5.236C42.112 185.769 40 173.131 40 160 40 93.726 93.726 40 160 40m-72 60c-17.673 0-32 14.327-32 32s14.327 32 32 32 32-14.327 32-32-14.327-32-32-32m144 0c-17.673 0-32 14.327-32 32s14.327 32 32 32 32-14.327 32-32-14.327-32-32-32m-72-32c-19.882 0-36 16.118-36 36s16.118 36 36 36 36-16.118 36-36-16.118-36-36-36" clip-rule="evenodd"/><path fill="#1d1d1b" fill-rule="evenodd" d="M88 100c17.673 0 32 14.327 32 32s-14.327 32-32 32-32-14.327-32-32 14.327-32 32-32m0 8c-13.255 0-24 10.745-24 24s10.745 24 24 24 24-10.745 24-24-10.745-24-24-24m144-8c17.673 0 32 14.327 32 32s-14.327 32-32 32-32-14.327-32-32 14.327-32 32-32m0 8c-13.255 0-24 10.745-24 24s10.745 24 24 24 24-10.745 24-24-10.745-24-24-24m-72-44c22.091 0 40 17.909 40 40s-17.909 40-40 40-40-17.909-40-40 17.909-40 40-40m0 8c-17.673 0-32 14.327-32 32s14.327 32 32 32 32-14.327 32-32-14.327-32-32-32" clip-rule="evenodd"/><path fill="#1d1d1b" fill-rule="evenodd" d="M160 16c79.529 0 144 64.471 144 144 0 49.926-25.409 93.916-64 119.748v.023l-1.825 1.182-.334.213-.451.289q-.514.329-1.032.653l-.259.163q-.674.42-1.352.833l-.21.126q-.595.361-1.194.717l-.281.166q-.664.392-1.332.778l-.298.169q-.528.302-1.057.599-.225.127-.452.252-.512.285-1.026.566l-.363.199q-.636.345-1.276.683l-.511.268q-.457.24-.918.477l-.534.273q-.471.24-.944.477l-.402.202q-.654.324-1.313.642l-.451.218a124 124 0 0 1-1.468.693q-.694.324-1.393.641l-.322.144q-.542.243-1.088.484l-.577.252q-.435.19-.872.376l-.538.229q-.629.265-1.261.525-.362.148-.725.294-.396.16-.795.318l-.567.225q-.633.248-1.269.492l-.167.064a130 130 0 0 1-2.081.77 159 159 0 0 1-1.45.517q-.674.237-1.35.466l-.366.122a129 129 0 0 1-1.801.593l-.663.211q-.378.12-.757.238-.633.196-1.269.386l-.76.225q-.439.129-.878.255l-.54.155q-.684.192-1.37.379l-.449.121q-.556.149-1.114.294l-.778.199-.674.169-.824.204q-.665.16-1.331.315-.292.068-.585.133-.512.117-1.025.231l-.58.126q-.593.128-1.187.251l-.357.074q-.711.145-1.425.283-.362.07-.725.138l-.92.17-.619.111a160 160 0 0 1-3.68.602l-1.083.158-.497.071q-.792.11-1.587.212l-.308.038q-.672.084-1.346.162l-.39.045q-.687.078-1.377.15l-.489.049q-.68.069-1.36.13l-.632.055-1.043.086-.595.047q-.768.057-1.539.107l-.454.028q-.59.035-1.181.066l-.604.031q-.597.029-1.194.053-.218.01-.437.018-.798.03-1.597.05l-.459.011q-.659.015-1.319.025l-.394.006a137 137 0 0 1-3.401 0l-.394-.006q-.66-.01-1.319-.025l-.459-.011q-.8-.02-1.597-.05l-.437-.018q-.597-.024-1.194-.053l-.604-.031q-.591-.031-1.181-.066l-.454-.028q-.771-.05-1.539-.107l-.595-.047-1.043-.086-.632-.055q-.68-.061-1.36-.13l-.489-.049q-.69-.072-1.377-.15l-.39-.045q-.674-.078-1.346-.162l-.308-.038q-.795-.101-1.587-.212l-.497-.071a202 202 0 0 1-1.735-.258 108 108 0 0 1-1.82-.294 160 160 0 0 1-1.208-.208l-.619-.111-.92-.17q-.363-.068-.725-.138-.714-.138-1.425-.283l-.357-.074q-.594-.123-1.187-.251l-.58-.126q-.512-.114-1.025-.231-.293-.065-.584-.133-.668-.155-1.332-.315l-.824-.204-.674-.169-.778-.199-1.114-.294-.449-.121q-.686-.187-1.37-.379l-.54-.155q-.44-.126-.877-.255l-.761-.225q-.636-.19-1.269-.386l-.757-.238-.663-.211-.753-.244q-.525-.172-1.048-.349l-.366-.122a126 126 0 0 1-2.8-.983l-.722-.264q-.68-.25-1.358-.506l-.168-.064q-.636-.244-1.269-.492l-.567-.225-.795-.318q-.363-.146-.725-.294-.632-.26-1.261-.525l-.538-.229q-.437-.187-.872-.376l-.577-.252q-.546-.24-1.088-.484l-.322-.144a135 135 0 0 1-1.752-.809 114 114 0 0 1-1.56-.743q-.659-.318-1.313-.642l-.4-.202a158 158 0 0 1-2.398-1.227l-.51-.268q-.641-.338-1.277-.683l-.363-.199q-.515-.281-1.026-.566l-.452-.252q-.53-.297-1.057-.599l-.297-.169q-.669-.386-1.332-.778l-.282-.166q-.6-.356-1.194-.717l-.21-.126a164 164 0 0 1-1.611-.996 138 138 0 0 1-1.483-.942l-.333-.213L80 279.771v-.023C41.41 253.916 16 209.926 16 160 16 80.471 80.471 16 160 16m0 152c-17.02 0-29.423.007-38.988 1.169-9.472 1.15-15.622 3.382-20.392 7.456a36 36 0 0 0-3.995 3.995c-4.074 4.77-6.305 10.92-7.456 20.392C88.007 210.577 88 222.98 88 240v35.398l.055.036q.75.468 1.51.927a133 133 0 0 0 7.166 4.056 134 134 0 0 0 4.341 2.188 135 135 0 0 0 8.961 3.921l.223.088q2.168.853 4.37 1.632l.285.101q1.46.513 2.935.993l.259.085q1.497.484 3.009.934a135 135 0 0 0 16.611 3.825q1.562.257 3.136.479a138 138 0 0 0 8.454.922 138 138 0 0 0 24.487-.277 138 138 0 0 0 8.726-1.166q1.608-.268 3.201-.574a135 135 0 0 0 16.165-4.143l.259-.085q1.475-.48 2.935-.993l.286-.101a134 134 0 0 0 4.369-1.632l.223-.088a135 135 0 0 0 21.978-11.092l.056-.036V240c0-17.02-.007-29.423-1.169-38.988-1.15-9.472-3.382-15.622-7.456-20.392a36 36 0 0 0-3.995-3.995c-4.77-4.074-10.92-6.306-20.392-7.456C189.423 168.007 177.02 168 160 168m0-144C84.89 24 24 84.89 24 160c0 45.208 22.059 85.265 56 109.993v-30.272c0-16.682 0-29.57 1.228-39.673.346-2.855.796-5.529 1.381-8.041-6.187.016-7.328.097-12.555.524-6.423.525-10.777 1.548-14.398 3.393a36 36 0 0 0-8.218 5.757 119 119 0 0 1-2.707-8.213 44 44 0 0 1 7.293-4.672c4.937-2.515 10.46-3.672 17.378-4.237 6.245-.511 7.303-.552 15.805-.556 1.37-3.137 3.113-5.977 5.335-8.579a44 44 0 0 1 4.882-4.882c6.451-5.51 14.371-8.069 24.624-9.314C130.151 160 143.039 160 159.721 160h.558c16.682 0 29.57 0 39.673 1.228 10.253 1.245 18.173 3.804 24.624 9.314a44 44 0 0 1 4.882 4.882c2.222 2.602 3.964 5.442 5.334 8.579 8.503.004 9.56.045 15.806.556 6.917.565 12.441 1.722 17.378 4.237a44 44 0 0 1 7.292 4.672q-1.21 4.171-2.707 8.213a36 36 0 0 0-8.217-5.757c-3.621-1.845-7.975-2.868-14.398-3.393-5.227-.427-6.368-.508-12.556-.524.586 2.512 1.036 5.186 1.382 8.041C240 210.151 240 223.039 240 239.721v30.272c33.941-24.728 56-64.785 56-109.993 0-75.11-60.889-136-136-136" clip-rule="evenodd"/></svg>