<svg xmlns="http://www.w3.org/2000/svg" fill="none" viewBox="0 0 320 320"><g id="technical-services"><g id="lg-icon-fill-primary" fill="#42aeea"><path d="M68 140a8 8 0 0 1 8 8v88H36a8 8 0 0 1-8-8v-80a8 8 0 0 1 8-8z"/><path fill-rule="evenodd" d="M210.562 13.966a4 4 0 0 1 4.898-2.829l15.455 4.142a4 4 0 0 1 2.828 4.898l-5.51 20.564c10.472 5.408 18.747 13.896 23.979 23.993l20.574-5.513a4 4 0 0 1 4.9 2.828l4.14 15.455a4 4 0 0 1-2.828 4.899l-20.56 5.51a56 56 0 0 1-1.864 17.063 56 56 0 0 1-6.918 15.71l15.051 15.051a4 4 0 0 1 0 5.656l-11.313 11.314a4 4 0 0 1-5.658 0l-15.061-15.061c-9.579 6.128-20.99 9.341-32.762 8.789l-5.51 20.564a4 4 0 0 1-4.899 2.828l-15.455-4.141a4 4 0 0 1-2.828-4.899l5.509-20.564c-10.471-5.408-18.746-13.895-23.978-23.992l-20.574 5.513a4 4 0 0 1-4.9-2.828l-4.14-15.456a4 4 0 0 1 2.828-4.899l20.56-5.509a56 56 0 0 1 1.864-17.064 56 56 0 0 1 6.918-15.71l-15.052-15.051a4 4 0 0 1 0-5.657l11.313-11.314a4 4 0 0 1 5.658 0l15.062 15.063c9.579-6.129 20.989-9.342 32.762-8.79zm.983 42.69c-18.681-5.005-37.883 6.081-42.889 24.762-5.005 18.682 6.081 37.884 24.762 42.89s37.883-6.081 42.889-24.763c5.005-18.68-6.081-37.883-24.762-42.888" clip-rule="evenodd"/></g><g id="Outlines" fill="#1d1d1b" fill-rule="evenodd" clip-rule="evenodd"><path d="M67.995 136c5.215 0 9.663 3.345 11.314 8.003h12.684c6.616 0 11.999 5.386 11.999 12.006l-.001.237c9.875-.297 49.453.347 72.775 27.772l32.057.003c8.159 0 14.853 6.659 15.338 15.033l54.073-21.835c.9-.34 8.124-2.888 13.31.709 2.033 1.409 4.456 4.277 4.456 9.932 0 12.473-12.202 19.457-15.255 21.01l-.294.147-.081.039c-5.218 3.331-74.039 46.943-99.385 46.944-23.068 0-62.74-18.327-77.263-25.437-1.159 5.414-5.978 9.483-11.729 9.483H35.998c-6.615 0-11.998-5.385-11.998-12.004v-80.037C24 141.385 29.383 136 35.999 136zm103.745 54.498c-20.842-26.013-59.363-26.464-67.75-26.235l-.002 57.494c9.984 4.989 53.871 26.239 76.997 26.239 6.639 0 21.769-3.945 56.148-22.735l1.218-.667c15.586-8.568 29.426-17.087 35.141-20.663l.44-.275c1.335-.838 2.14-1.35 2.309-1.458l.032-.02a4 4 0 0 1 .504-.275l.024-.011.053-.025.116-.058c1.486-.741 11.031-5.822 11.031-13.949 0-.988-.131-2.736-1.008-3.35-1.195-.837-4.136-.448-5.831.157l-59.35 23.966-.047.018c-2.735 4.438-7.514 7.384-12.942 7.384h-53.047a4.001 4.001 0 0 1 0-8.003h53.047c4.063 0 7.367-3.591 7.367-8.004s-3.304-8.004-7.367-8.004h-33.939l-.107-.001-.017-.001h-.008l-.064-.003h-.015l.003-.001-.059-.003q-.075-.004-.149-.011l-.079-.01q-.069-.008-.136-.019l-.046-.008-.015-.002-.089-.017-.075-.015-.031-.007a4 4 0 0 1-.202-.052l-.023-.007a4 4 0 0 1-.578-.216l-.075-.036a4 4 0 0 1-.223-.117l-.045-.028a2 2 0 0 1-.129-.079l-.02-.013-.02-.014-.12-.082-.047-.034a4 4 0 0 1-.323-.264l-.099-.095-.058-.056-.083-.088-.02-.022-.036-.04a4 4 0 0 1-.156-.185M35.999 144.003c-2.206 0-4 1.795-4 4.002v80.037a4.005 4.005 0 0 0 3.999 4.001h35.997v-84.038a4.005 4.005 0 0 0-4-4.002zm43.995 8.004v80.036h12a4.004 4.004 0 0 0 3.998-4.002v-72.032a4.004 4.004 0 0 0-3.999-4.002zm103.273-65.599c2.858-10.67 13.825-17.001 24.495-14.143 10.669 2.86 17 13.826 14.141 24.495s-13.825 17.002-24.495 14.143c-10.669-2.859-17-13.826-14.141-24.495m22.423-6.415c-6.401-1.715-12.98 2.084-14.696 8.485-1.715 6.402 2.084 12.982 8.485 14.698 6.402 1.715 12.981-2.084 14.697-8.486 1.715-6.401-2.084-12.982-8.486-14.697"/><path d="M163.949 81.231c5.718-21.338 27.651-34.001 48.989-28.284 21.339 5.718 34.002 27.652 28.285 48.99s-27.651 34.002-48.99 28.284c-21.338-5.717-34.001-27.651-28.284-48.99m46.919-20.556c-17.071-4.574-34.617 5.557-39.191 22.627-4.574 17.071 5.556 34.618 22.627 39.192s34.618-5.556 39.192-22.627-5.557-34.618-22.628-39.192"/><path d="M205.766 16.896c1.715-6.401 8.295-10.2 14.697-8.484l7.727 2.07c6.402 1.716 10.201 8.295 8.486 14.697l-3.559 13.279v.002a.6.6 0 0 0 .056.175c.099.218.325.508.682.726a59.95 59.95 0 0 1 19.948 19.97c.215.352.501.574.717.672a.6.6 0 0 0 .171.054h.002l13.297-3.562c6.402-1.715 12.982 2.084 14.698 8.485l2.07 7.727c1.715 6.401-2.084 12.982-8.486 14.697l-13.278 3.558-.002.002a.6.6 0 0 0-.124.134 1.8 1.8 0 0 0-.289.954 60 60 0 0 1-2.038 14.062 60 60 0 0 1-5.265 13.195 1.77 1.77 0 0 0-.226.971c.01.108.032.164.039.179l.001.002 9.721 9.72c4.686 4.687 4.686 12.285 0 16.971l-5.658 5.657c-4.686 4.686-12.283 4.686-16.969 0l-9.735-9.733-.002-.001a.6.6 0 0 0-.176-.039c-.236-.023-.594.026-.957.224a59.95 59.95 0 0 1-27.259 7.32c-.419.01-.76.149-.955.288a.6.6 0 0 0-.135.124l-.001.002-3.559 13.278c-1.715 6.402-8.295 10.201-14.697 8.486l-7.727-2.071c-6.401-1.715-10.2-8.295-8.485-14.697l3.558-13.278v-.003a.6.6 0 0 0-.056-.174c-.099-.218-.325-.509-.683-.728a59.95 59.95 0 0 1-19.947-19.969 1.73 1.73 0 0 0-.717-.672.6.6 0 0 0-.172-.055h-.002l-13.297 3.563c-6.402 1.715-12.982-2.083-14.698-8.485l-2.07-7.727c-1.715-6.402 2.084-12.982 8.485-14.698l13.28-3.558.002-.001a.6.6 0 0 0 .124-.136 1.77 1.77 0 0 0 .289-.953 60 60 0 0 1 2.038-14.06 60 60 0 0 1 5.265-13.197c.2-.368.25-.732.227-.97a.6.6 0 0 0-.04-.18l-.001-.001-9.722-9.722c-4.686-4.686-4.686-12.284 0-16.97l5.658-5.658c4.686-4.686 12.284-4.686 16.97 0l9.735 9.735.002.001a.6.6 0 0 0 .176.039c.236.023.595-.026.957-.224a59.95 59.95 0 0 1 27.26-7.32c.419-.01.759-.15.954-.288a.6.6 0 0 0 .135-.123l.002-.002zm12.626-.758a4 4 0 0 0-4.899 2.83l-3.559 13.283c-1.022 3.812-4.679 6.24-8.624 6.336a51.95 51.95 0 0 0-23.622 6.345c-3.459 1.888-7.833 1.607-10.62-1.18l-9.738-9.737a4 4 0 0 0-5.656 0l-5.657 5.658a4 4 0 0 0 0 5.656l9.724 9.724c2.789 2.79 3.066 7.166 1.181 10.63a52.2 52.2 0 0 0-4.565 11.443 52.2 52.2 0 0 0-1.768 12.191c-.1 3.943-2.528 7.595-6.337 8.615l-13.284 3.56a4 4 0 0 0-2.828 4.898l2.07 7.728a4 4 0 0 0 4.898 2.829l13.303-3.564c3.807-1.02 7.734.924 9.786 4.289a51.95 51.95 0 0 0 17.284 17.306c3.37 2.056 5.323 5.987 4.301 9.799l-3.558 13.283a4 4 0 0 0 2.828 4.9l7.727 2.07a4 4 0 0 0 4.899-2.828l3.559-13.284c1.022-3.812 4.679-6.24 8.624-6.335a51.94 51.94 0 0 0 23.622-6.346c3.46-1.887 7.834-1.608 10.621 1.179l9.736 9.736a4 4 0 0 0 5.657 0l5.656-5.656a4 4 0 0 0 0-5.657l-9.723-9.724c-2.789-2.789-3.066-7.166-1.181-10.63a52 52 0 0 0 4.564-11.442 52 52 0 0 0 1.769-12.192c.099-3.942 2.528-7.594 6.337-8.615l13.283-3.56a4 4 0 0 0 2.828-4.898l-2.07-7.727a4 4 0 0 0-4.899-2.83l-13.301 3.565c-3.807 1.02-7.734-.925-9.786-4.29a51.95 51.95 0 0 0-17.285-17.305c-3.369-2.055-5.322-5.987-4.3-9.8l3.559-13.283a4 4 0 0 0-2.829-4.898z"/></g></g></svg>