<svg xmlns="http://www.w3.org/2000/svg" fill="none" viewBox="0 0 320 320"><g id="tech"><path id="lg-icon-fill-primary" fill="#42aeea" d="M80 84a4 4 0 0 1 4-4h152a4 4 0 0 1 4 4v152a4 4 0 0 1-4 4H84a4 4 0 0 1-4-4z"/><g id="Outlines" fill="#1d1d1b" fill-rule="evenodd" clip-rule="evenodd"><path d="M116 124a8 8 0 0 1 8-8h72a8 8 0 0 1 8 8v72a8 8 0 0 1-8 8h-72a8 8 0 0 1-8-8zm80 0h-72v72h72z"/><path d="M104 32a4 4 0 0 0-4 4v40H84a8 8 0 0 0-8 8v16H36a4 4 0 0 0 0 8h40v20H36a4 4 0 0 0 0 8h40v20H36a4 4 0 0 0 0 8h40v20H36a4 4 0 0 0 0 8h40v20H36a4 4 0 0 0 0 8h40v16a8 8 0 0 0 8 8h16v40a4 4 0 0 0 8 0v-40h20v40a4 4 0 0 0 8 0v-40h20v40a4 4 0 0 0 8 0v-40h20v40a4 4 0 0 0 8 0v-40h20v40a4 4 0 0 0 8 0v-40h16a8 8 0 0 0 8-8v-16h40a4 4 0 0 0 0-8h-40v-20h40a4 4 0 0 0 0-8h-40v-20h40a4 4 0 0 0 0-8h-40v-20h40a4 4 0 0 0 0-8h-40v-20h40a4 4 0 0 0 0-8h-40V84a8 8 0 0 0-8-8h-16V36a4 4 0 0 0-8 0v40h-20V36a4 4 0 0 0-8 0v40h-20V36a4 4 0 0 0-8 0v40h-20V36a4 4 0 0 0-8 0v40h-20V36a4 4 0 0 0-4-4m132 52H84v152h152z"/></g></g></svg>