<svg xmlns="http://www.w3.org/2000/svg" fill="none" viewBox="0 0 320 320"><g id="telescope"><path id="lg-icon-fill-primary" fill="#42aeea" d="M176 222v78h-16v-78l7.5-12.99zm8-18h-32v-16h32zM22.834 157.708c8.009-3.734 17.528-.269 21.263 7.739 3.734 8.009.269 17.529-7.74 21.263-8.008 3.734-17.528.269-21.262-7.739-3.735-8.009-.27-17.528 7.739-21.263m123.988-9.268-68.94 32.147-23.665-50.753 69.077-32.212zm76.071-35.471-47.069 21.948-23.528-50.818 46.93-21.884zm79.061-19.212-14.498 6.761-37.19-79.756 14.498-6.76z"/><path id="Outlines" fill="#1d1d1b" fill-rule="evenodd" d="M307.271 95.69h-.004l-21.748 10.143-.001-.001-58.002 27.048-6.761-14.501-39.676 18.502 5.071 10.875a19.9 19.9 0 0 1 1.85 9.485v44.913l56.963 98.662a4 4 0 0 1-1.465 5.464l-6.928 4c-5.739 3.314-13.079 1.348-16.393-4.391L180 236.298V292c-.001 6.627-5.373 12-12 12-6.628 0-12-5.373-12-12v-55.991l-40.345 69.88c-3.314 5.739-10.653 7.705-16.393 4.391l-6.927-4a4 4 0 0 1-1.464-5.464L148 201.865v-41.274l-3.174-6.806-68.878 32.119-5.072-10.878-32.798 15.293-.03.016a19.9 19.9 0 0 1-8.207 1.877h-.486c-7.44-.094-14.531-4.355-17.887-11.551-4.668-10.011-.336-21.91 9.674-26.578l32.828-15.31-5.069-10.873 68.878-32.119-3.381-7.25 36.252-16.905 3.381 7.25 39.676-18.5-6.762-14.501L266.7 8.685zM99.798 301.353l3.464 2a4 4 0 0 0 5.465-1.464L162.933 208h-9.237zM172.9 208l54.206 93.889a4 4 0 0 0 5.464 1.464l3.464-2L182.137 208zm-8.9 14.152V292a4 4 0 0 0 8 0v-69.559l-4.084-7.073zM156 200h24v-8h-24zM40.471 167.138c-2.8-6.007-9.94-8.606-15.947-5.805s-8.605 9.941-5.805 15.947a12 12 0 0 0 10.732 6.93 11.95 11.95 0 0 0 5.215-1.125l.028-.014c5.987-2.809 8.574-9.936 5.777-15.933M156 184h24v-11.77a20 20 0 0 1-3.524 2.104c-6.929 3.231-14.762 2.15-20.476-2.141zM39.024 154.57a19.9 19.9 0 0 1 8.697 9.187 19.9 19.9 0 0 1 1.447 12.564l18.125-8.451-10.143-21.751zm20.508-22.8 20.286 43.502 61.627-28.738-20.285-43.502zm65.497-39.37 32.119 68.879c2.801 6.007 9.941 8.606 15.947 5.805A12 12 0 0 0 180 156.989V156q0-.164.013-.323a12 12 0 0 0-1.114-4.54l-32.118-68.88zm32.383-6.273 20.286 43.503 39.676-18.501-20.286-43.503zm40.164-36.383 3.381 7.251.204-.095 27.047 58.004-.203.094 3.38 7.251 50.752-23.667-33.809-72.505zm58.003-27.048 33.809 72.505 7.248-3.38-33.809-72.504z" clip-rule="evenodd"/></g></svg>