<svg xmlns="http://www.w3.org/2000/svg" fill="none" viewBox="0 0 320 320"><g id="thumbs-down"><path id="lg-icon-fill-primary" fill="#42aeea" d="M84 76h20c6.627 0 12 5.373 12 12v97c0 6.627-5.373 12-12 12H84z"/><path id="Outlines" fill="#1d1d1b" fill-rule="evenodd" d="M120 87.928c10.524-.387 18.474-2.3 24.859-4.937 7.182-2.968 12.584-6.933 17.633-11.081a314 314 0 0 0 3.313-2.776C174.641 61.659 183.695 54 200 54h72c11.046 0 20 8.954 20 20 0 5.009-1.418 9.823-4.33 13.523C294.909 90.534 300 97.673 300 106a19.95 19.95 0 0 1-6.256 14.53C299.863 123.95 304 130.492 304 138s-4.137 14.05-10.256 17.47A19.95 19.95 0 0 1 300 170c0 11.046-8.954 20-20 20h-.043l-.043-.001-.053-.001-.008-.001-.146-.004-.47-.015a396 396 0 0 0-8.408-.134c-5.51-.031-12.95.031-20.7.401-7.773.372-15.751 1.049-22.375 2.225-3.314.588-6.194 1.285-8.496 2.091-2.373.831-3.793 1.663-4.499 2.336-.507.482-1.147 1.538-1.616 3.595-.458 2.007-.669 4.595-.635 7.691.066 6.188 1.096 13.785 2.491 21.546 1.222 6.798 2.695 13.57 3.978 19.467l.518 2.385c.691 3.188 1.306 6.083 1.749 8.468.425 2.287.756 4.427.756 5.951 0 10.307-7.619 22-20 22-7.042 0-12.686-2.475-17.124-6.71-4.325-4.126-7.341-9.76-9.625-15.894-2.445-6.567-4.754-13.151-6.954-19.427l-.001-.002-.001-.002c-1.692-4.824-3.319-9.466-4.896-13.779-3.722-10.176-7.371-19.139-11.59-26.59-4.212-7.437-8.883-13.165-14.543-17.047-4.726-3.242-10.32-5.319-17.266-5.89V189c0 6.627-5.373 12-12 12H86.912c-1.896 4.131-6.069 7-10.912 7H28c-6.627 0-12-5.373-12-12V76c0-6.627 5.373-12 12-12h48c5.225 0 9.67 3.34 11.317 8H108c6.627 0 12 5.373 12 12zm0 8.005c11.507-.393 20.494-2.483 27.914-5.549 8.248-3.407 14.362-7.942 19.657-12.294a390 390 0 0 0 3.439-2.867C179.877 67.773 186.749 62 200 62h72c6.627 0 12 5.373 12 12 0 3.673-1.075 6.717-2.768 8.764C279.601 84.734 277.234 86 274 86a4 4 0 0 0 0 8h6c6.627 0 12 5.373 12 12s-5.373 12-12 12a4 4 0 0 0 0 8h4c6.627 0 12 5.373 12 12s-5.373 12-12 12h-4a4 4 0 0 0 0 8c6.627 0 12 5.373 12 12 0 6.607-5.339 11.966-11.938 12l-.1-.003-.495-.015a410 410 0 0 0-8.593-.138c-5.599-.032-13.19.031-21.128.411-7.915.378-16.28 1.076-23.39 2.338-3.554.63-6.889 1.418-9.741 2.417-2.781.974-5.455 2.266-7.374 4.094-2.118 2.017-3.259 4.81-3.898 7.609-.649 2.849-.872 6.124-.835 9.556.074 6.869 1.2 14.991 2.618 22.875 1.249 6.952 2.755 13.874 4.035 19.76l.516 2.371c.692 3.196 1.283 5.982 1.702 8.235.436 2.351.621 3.805.621 4.49 0 7.366-5.381 14-12 14-4.958 0-8.631-1.663-11.602-4.498-3.084-2.942-5.568-7.308-7.649-12.898-2.479-6.657-4.689-12.964-6.829-19.073-1.68-4.795-3.317-9.469-5.008-14.092-3.752-10.261-7.583-19.736-12.142-27.785-4.567-8.063-9.973-14.897-16.979-19.703-6.128-4.203-13.285-6.72-21.791-7.314zM112 84a4 4 0 0 0-4-4H88v113h20a4 4 0 0 0 4-4zM76 72H28a4 4 0 0 0-4 4v120a4 4 0 0 0 4 4h48a4 4 0 0 0 4-4V76a4 4 0 0 0-4-4" clip-rule="evenodd"/></g></svg>