<svg xmlns="http://www.w3.org/2000/svg" fill="none" viewBox="0 0 320 320"><g id="thumbs-up" fill-rule="evenodd" clip-rule="evenodd"><path id="lg-icon-fill-primary" fill="#42aeea" d="M84 130h24a8 8 0 0 1 8 8v104a8 8 0 0 1-8 8H84z"/><path id="Outlines" fill="#1d1d1b" d="M210.006 34.2c7.556 4.323 11.154 11.014 11.536 19.256.19 4.111-.374 8.164-1.559 13.057l-.24.968-.841 3.22a274 274 0 0 0-6.898 39.457c-.516 5.434.025 8.999 2.568 12.101 3.851 4.699 12.198 7.548 26.575 7.548h39.738c10.35 0 18.724 8.593 19.101 19.313l.01.35.003.365c0 5.681-2.264 10.831-5.912 14.486 5.707 3.291 9.625 9.553 9.898 16.791l.012.403.003.365c0 7.543-3.992 14.15-9.915 17.564 3.462 3.469 5.681 8.293 5.897 13.655l.014.461.003.365c0 8.679-5.284 16.118-12.716 18.881 2.768 3.325 4.504 7.618 4.697 12.327l.014.472.004.365c0 10.896-8.329 19.838-18.78 20.025l-.334.003h-64.863c-16.452 0-26.68-3.371-41.228-11.612l-4.81-2.754-.942-.532-1.051-.586c-.507-.281-.99-.544-1.462-.797l-6.3-3.335-.603-.309a23 23 0 0 0-1.218-.58l-1.472-.616-.668-.262c-4.975-1.886-10.557-2.471-28.27-2.612-.175 6.373-5.319 11.507-11.697 11.663l-.3.004-23.056.001a11.97 11.97 0 0 1-8.578 3.994l-.366.005H28c-6.526 0-11.834-5.208-11.996-11.695L16 245.67v-112c0-6.525 5.209-11.834 11.695-11.996l.305-.004h48a11.97 11.97 0 0 1 8.945 4H108c6.525 0 11.834 5.209 11.996 11.695l.004.453c12.631 0 23.978-9.703 34.202-27.768l.319-.567c7.836-14.009 13.862-30.243 20.662-52.928 3.074-10.26 8.587-17.695 15.546-21.62 6.463-3.647 13.731-3.904 19.277-.735m-15.349 7.714c-5.059 2.854-9.303 8.578-11.81 16.944l-.671 2.225-.667 2.186c-6.426 20.942-12.337 36.418-20.006 50.128-11.458 20.486-24.872 32.197-41.01 32.429l-.493.003.002 88.162 4.16.045c16.52.229 21.905 1.021 27.799 3.425l1.758.735c1.135.494 2.157 1.043 8.165 4.234l.837.449.86.469q.439.242.899.498l5.584 3.187c13.593 7.77 22.557 10.852 37.219 10.951l.738.003h19.83c-2.25-3.142-3.64-6.999-3.81-11.186l-.014-.466-.003-.365c0-5.681 2.264-10.831 5.912-14.485-5.707-3.292-9.625-9.554-9.898-16.792l-.012-.403-.003-.365c0-5.028 1.774-9.639 4.71-13.167-7.193-2.677-12.383-9.743-12.697-18.113l-.011-.4-.003-.365c0-8.679 5.284-16.118 12.715-18.881-2.767-3.325-4.504-7.617-4.696-12.327l-.015-.472-.003-.365c0-5.195 1.894-9.946 5.007-13.515-7.656-1.66-13.124-4.683-16.644-8.979-4.219-5.148-5.045-10.591-4.346-17.961a282 282 0 0 1 7.111-40.67l.763-2.91.141-.557c1.125-4.507 1.649-8.056 1.493-11.416-.261-5.65-2.493-9.8-7.51-12.67-2.993-1.71-7.277-1.559-11.381.757M108 133.67H88v112h20a4 4 0 0 0 3.995-3.8l.005-.2v-104a4 4 0 0 0-3.8-3.995zm-32-4H28a4 4 0 0 0-3.995 3.8l-.005.2v112a4 4 0 0 0 3.8 3.995l.2.005h48a4 4 0 0 0 3.995-3.8l.005-.2v-112a4 4 0 0 0-3.8-3.995zm196.884 104.283h-29.746c-5.989 0-10.958 5.168-11.109 11.673l-.004.306.003.289c.122 6.475 4.958 11.603 10.829 11.762l.281.004h29.746c5.989 0 10.957-5.168 11.109-11.673l.003-.306-.002-.289c-.125-6.578-5.113-11.766-11.11-11.766m8.001-32.045h-41.748c-5.989 0-10.957 5.168-11.109 11.673l-.003.306.002.289c.122 6.475 4.958 11.603 10.83 11.762l.28.004h41.748c5.989 0 10.958-5.168 11.109-11.673l.004-.306-.003-.289c-.124-6.578-5.112-11.766-11.11-11.766m4.001-32.045h-53.751c-5.988 0-10.957 5.168-11.108 11.673l-.004.306.003.29c.122 6.474 4.957 11.603 10.829 11.761l.28.004h53.751c5.989 0 10.958-5.168 11.109-11.673l.004-.306-.003-.289c-.124-6.578-5.113-11.766-11.11-11.766m-4.001-32.045h-41.748c-5.989 0-10.957 5.168-11.109 11.673l-.003.306.002.29c.122 6.474 4.958 11.603 10.83 11.761l.28.004h41.748c5.989 0 10.958-5.168 11.109-11.673l.004-.306-.003-.289c-.124-6.578-5.112-11.766-11.11-11.766"/></g></svg>