<svg xmlns="http://www.w3.org/2000/svg" fill="none" viewBox="0 0 320 320"><g id="ticks"><path id="lg-icon-fill-primary" fill="#42aeea" fill-rule="evenodd" d="M32 28a4 4 0 0 0-4 4v160a4 4 0 0 0 4 4h53v-8c1.093-11.175 3.401-19.91 8.584-25.978a40 40 0 0 1 4.438-4.438C109.243 148 126.162 148 160 148s50.757 0 61.978 9.584a40 40 0 0 1 4.438 4.438c5.336 6.248 7.536 14.261 8.584 25.978v8h53a4 4 0 0 0 4-4V32a4 4 0 0 0-4-4zm128 96c19.882 0 36-16.118 36-36s-16.118-36-36-36-36 16.118-36 36 16.118 36 36 36" clip-rule="evenodd"/><g id="Outlines" fill="#1d1d1b"><path fill-rule="evenodd" d="M160 48c-22.091 0-40 17.909-40 40s17.909 40 40 40 40-17.909 40-40-17.909-40-40-40m-32 40c0-17.673 14.327-32 32-32s32 14.327 32 32-14.327 32-32 32-32-14.327-32-32" clip-rule="evenodd"/><path fill-rule="evenodd" d="M28 24a4 4 0 0 0-4 4v168a4 4 0 0 0 4 4h264a4 4 0 0 0 4-4V28a4 4 0 0 0-4-4zm4 8v160h48.727c.139-2.947.304-6.336.5-7.953 1.245-10.252 3.805-18.172 9.315-24.623a44 44 0 0 1 4.882-4.882c6.451-5.509 14.371-8.069 24.623-9.315C130.15 144 143.038 144 159.72 144h.56c16.682 0 29.569 0 39.672 1.227 10.253 1.246 18.173 3.806 24.624 9.315a44 44 0 0 1 4.882 4.882c5.509 6.451 8.069 14.371 9.315 24.623.196 1.617.361 5.006.5 7.953H288V32zm199.26 160c-.122-2.651-.264-5.629-.429-6.988-1.15-9.472-3.382-15.622-7.456-20.392a36 36 0 0 0-3.995-3.995c-4.77-4.074-10.921-6.306-20.392-7.456C189.423 152.007 177.02 152 160 152s-29.423.007-38.988 1.169c-9.472 1.15-15.622 3.382-20.392 7.456a36 36 0 0 0-3.995 3.995c-4.074 4.77-6.306 10.92-7.456 20.392-.165 1.359-.307 4.337-.429 6.988z" clip-rule="evenodd"/><path d="M276.828 246.828a3.997 3.997 0 0 0 0-5.656 3.997 3.997 0 0 0-5.656 0L250 262.343l-9.172-9.171a3.997 3.997 0 0 0-5.656 0 3.997 3.997 0 0 0 0 5.656l12 12a3.997 3.997 0 0 0 5.656 0z"/><path fill-rule="evenodd" d="M216 220a4 4 0 0 1 4-4h72a4 4 0 0 1 4 4v72a4 4 0 0 1-4 4h-72a4 4 0 0 1-4-4zm8 68v-64h64v64z" clip-rule="evenodd"/><path d="M180.828 241.172a3.997 3.997 0 0 1 0 5.656l-24 24a3.997 3.997 0 0 1-5.656 0l-12-12a3.997 3.997 0 0 1 0-5.656 3.997 3.997 0 0 1 5.656 0l9.172 9.171 21.172-21.171a3.997 3.997 0 0 1 5.656 0"/><path fill-rule="evenodd" d="M124 216a4 4 0 0 0-4 4v72a4 4 0 0 0 4 4h72a4 4 0 0 0 4-4v-72a4 4 0 0 0-4-4zm4 8v64h64v-64z" clip-rule="evenodd"/><path d="M84.828 246.828a4 4 0 0 0 0-5.656 4 4 0 0 0-5.656 0L58 262.343l-9.172-9.171a4 4 0 0 0-5.656 0 4 4 0 0 0 0 5.656l12 12a4 4 0 0 0 5.656 0z"/><path fill-rule="evenodd" d="M24 220a4 4 0 0 1 4-4h72a4 4 0 0 1 4 4v72a4 4 0 0 1-4 4H28a4 4 0 0 1-4-4zm8 68v-64h64v64z" clip-rule="evenodd"/></g></g></svg>