<svg xmlns="http://www.w3.org/2000/svg" fill="none" viewBox="0 0 320 320"><g id="toolkit"><path id="lg-icon-fill-primary" fill="#42aeea" d="M204 236H68v-56h136zm48-56h-16l8-32zM220 52c17.673 0 32 14.327 32 32s-14.327 32-32 32-32-14.327-32-32 14.327-32 32-32m-80 40H68V52h72z"/><g id="Outlines" fill="#1d1d1b"><path fill-rule="evenodd" d="M196 160c6.627 0 12 5.373 12 12v76h8a8 8 0 0 1 8 8v4c0 6.627-5.373 12-12 12H60c-6.627 0-12-5.373-12-12v-4a8 8 0 0 1 8-8h8v-76c0-6.627 5.373-12 12-12zM56 260a4 4 0 0 0 4 4h52.686a12 12 0 0 1-.686-4v-4H56zm64 0a4 4 0 0 0 4 4h24a4 4 0 0 0 4-4v-4h-32zm40 0a12 12 0 0 1-.686 4H212a4 4 0 0 0 4-4v-4h-56zm-88-12h128v-8H72zm0-16h128v-48H72zm4-64a4 4 0 0 0-4 4v4h128v-4a4 4 0 0 0-4-4zm168-24a4 4 0 0 1 3.881 3.03l8 32q.119.483.118.97l.001 80c0 6.627-5.373 12-12 12s-12-5.373-12-12v-80q0-.487.119-.97l8-32A4 4 0 0 1 244 144m-4 116a4 4 0 0 0 8 0v-76h-8zm1.123-84h5.754L244 164.493z" clip-rule="evenodd"/><path d="M284 216a4 4 0 0 1 0 8h-24a4 4 0 0 1 0-8z"/><path fill-rule="evenodd" d="M220 48c19.882 0 36 16.118 36 36s-16.118 36-36 36a35.86 35.86 0 0 1-15.521-3.51l-24.219 24.221a11.95 11.95 0 0 1-7.172 3.439A4 4 0 0 1 176 148v8a4 4 0 0 1-8 0v-8a4 4 0 0 1 2.799-3.817 11.95 11.95 0 0 1-7.51-3.472c-4.686-4.686-4.686-12.284 0-16.971l24.22-24.22A35.85 35.85 0 0 1 184 84c0-19.882 16.118-36 36-36m-51.054 81.397a4.001 4.001 0 0 0 5.657 5.657l22.927-22.929a36.2 36.2 0 0 1-5.656-5.656zM220 56c-15.464 0-28 12.536-28 28s12.536 28 28 28 28-12.536 28-28-12.536-28-28-28m-88-8c6.627 0 12 5.373 12 12v72c0 6.627-5.373 12-12 12H76c-6.627 0-12-5.373-12-12V60c0-6.627 5.373-12 12-12zm-28 96a4 4 0 0 1 4 4v8a4 4 0 0 1-8 0v-8a4 4 0 0 1 4-4m-32-12a4 4 0 0 0 4 4h56a4 4 0 0 0 4-4v-4H72zm0-12h64v-8H72zm0-16h64v-8H72zm4-48a4 4 0 0 0-4 4v28h64V60a4 4 0 0 0-4-4z" clip-rule="evenodd"/><path fill-rule="evenodd" d="M260 24c19.882 0 36 16.118 36 36v200c0 19.882-16.118 36-36 36H60c-19.882 0-36-16.118-36-36V60c0-19.882 16.118-36 36-36zM60 32c-15.464 0-28 12.536-28 28v200c0 15.464 12.536 28 28 28h76a4 4 0 0 1-4-4v-8a4 4 0 0 1 8 0v8a4 4 0 0 1-4 4h108a4 4 0 0 1-4-4v-8a4 4 0 0 1 8 0v8a4 4 0 0 1-4 4h16c15.464 0 28-12.536 28-28V60c0-15.464-12.536-28-28-28zm44 0a4 4 0 0 1 4 4v8a4 4 0 0 1-8 0v-8a4 4 0 0 1 4-4m116 0a4 4 0 0 1 4 4v8a4 4 0 0 1-8 0v-8a4 4 0 0 1 4-4" clip-rule="evenodd"/></g></g></svg>