<svg xmlns="http://www.w3.org/2000/svg" fill="none" viewBox="0 0 320 320"><g id="transactions-pounds"><path id="lg-icon-fill-primary" fill="#42aeea" d="M160 40c66.274 0 120 53.726 120 120 0 18.883-4.364 36.747-12.135 52.641A48.3 48.3 0 0 0 260 212c-26.51 0-48 21.49-48 48 0 2.679.219 5.306.641 7.865C196.747 275.636 178.883 280 160 280c-66.274 0-120-53.726-120-120S93.726 40 160 40"/><g id="Outlines" fill="#1d1d1b"><path d="M260 232c8.955 0 16 7.456 16 16.385a4 4 0 0 1-8 0c0-4.751-3.7-8.385-8-8.385s-8 3.634-8 8.385c0 .447.104 1.321.374 2.754.238 1.263.559 2.734.924 4.409l.095.436c.273 1.257.565 2.609.85 4.016H264a4 4 0 0 1 0 8h-8.437l.039.325c.417 3.842.511 8.093-.624 11.675H272a4 4 0 0 1 0 8h-28a4 4 0 0 1 0-8c1.218 0 1.839-.283 2.174-.519.345-.243.721-.675 1.046-1.519.717-1.866.853-4.868.428-8.773q-.064-.59-.143-1.189H244a4 4 0 0 1 0-8h2.072q-.248-1.176-.496-2.313l-.1-.462c-.358-1.64-.703-3.224-.963-4.606-.273-1.45-.513-2.971-.513-4.234 0-8.929 7.045-16.385 16-16.385m-126.851-74.807a4.001 4.001 0 0 1 5.702 5.612l-32.301 33.194H215a4.001 4.001 0 0 1 0 8.001H106.55l32.301 33.194a4.001 4.001 0 0 1-5.702 5.612l-39-40a4 4 0 0 1 0-5.612zm48.045-80.045a4 4 0 0 1 5.657.045l39 40.001a4.003 4.003 0 0 1 0 5.612l-39 40a4.001 4.001 0 0 1-5.702-5.612L213.45 124H105a4 4 0 0 1 0-8.001h108.45l-32.301-33.194a4 4 0 0 1 .045-5.657"/><path fill-rule="evenodd" d="M160 16c79.529 0 144 64.471 144 144 0 20.892-4.451 40.744-12.454 58.662C303.978 228.164 312 243.144 312 260c0 28.719-23.281 52-52 52-16.856 0-31.836-8.022-41.338-20.454C200.744 299.549 180.892 304 160 304c-79.529 0-144-64.471-144-144S80.471 16 160 16m100 200c-24.301 0-44 19.699-44 44s19.699 44 44 44 44-19.699 44-44-19.699-44-44-44M160 24C84.89 24 24 84.89 24 160c0 75.111 60.89 136 136 136 19.286 0 37.632-4.019 54.253-11.258C210.265 277.384 208 268.957 208 260c0-28.719 23.281-52 52-52 8.957 0 17.384 2.265 24.742 6.253C291.981 197.632 296 179.286 296 160c0-75.11-60.889-136-136-136" clip-rule="evenodd"/></g></g></svg>