<svg xmlns="http://www.w3.org/2000/svg" fill="none" viewBox="0 0 320 320"><g id="transactions-warning"><path id="lg-icon-fill-primary" fill="#42aeea" d="M160 20c77.32 0 140 62.68 140 140 0 21.47-4.836 41.809-13.473 59.993A47.77 47.77 0 0 0 260 212c-26.51 0-48 21.49-48 48a47.77 47.77 0 0 0 7.993 26.527C201.809 295.164 181.47 300 160 300c-77.32 0-140-62.68-140-140S82.68 20 160 20"/><g id="Outlines" fill="#1d1d1b"><path d="M260 278a5 5 0 1 1-.001 10.001A5 5 0 0 1 260 278m0-46a4 4 0 0 1 4 4v32a4 4 0 0 1-8 0v-32a4 4 0 0 1 4-4m-126.851-74.807a4.001 4.001 0 0 1 5.702 5.612l-32.301 33.194H215a4.001 4.001 0 0 1 0 8.001H106.55l32.301 33.194a4.001 4.001 0 0 1-5.702 5.612l-39-40a4 4 0 0 1 0-5.612zm48.045-80.045a4 4 0 0 1 5.657.045l39 40.001a4.003 4.003 0 0 1 0 5.612l-39 40a4.001 4.001 0 0 1-5.702-5.612L213.45 124H105a4 4 0 0 1 0-8.001h108.45l-32.301-33.194a4 4 0 0 1 .045-5.657"/><path fill-rule="evenodd" d="M160 16c79.529 0 144 64.471 144 144 0 20.892-4.451 40.744-12.454 58.662C303.978 228.164 312 243.144 312 260c0 28.719-23.281 52-52 52-16.856 0-31.836-8.022-41.338-20.454C200.744 299.549 180.892 304 160 304c-79.529 0-144-64.471-144-144S80.471 16 160 16m100 200c-24.301 0-44 19.699-44 44s19.699 44 44 44 44-19.699 44-44-19.699-44-44-44M160 24C84.89 24 24 84.89 24 160c0 75.111 60.89 136 136 136 19.286 0 37.632-4.019 54.253-11.258C210.265 277.384 208 268.957 208 260c0-28.719 23.281-52 52-52 8.957 0 17.384 2.265 24.742 6.253C291.981 197.632 296 179.286 296 160c0-75.11-60.889-136-136-136" clip-rule="evenodd"/></g></g></svg>