<svg xmlns="http://www.w3.org/2000/svg" fill="none" viewBox="0 0 320 320"><g id="transactions"><circle id="lg-icon-fill-primary" cx="160" cy="160" r="120" fill="#42aeea"/><g id="Outlines" fill="#1d1d1b"><path d="M133.149 157.193a4.001 4.001 0 0 1 5.702 5.612l-32.301 33.194H215a4.001 4.001 0 0 1 0 8.001H106.55l32.301 33.194a4.001 4.001 0 0 1-5.702 5.612l-39-40a4 4 0 0 1 0-5.612zm48.045-80.045a4 4 0 0 1 5.657.045l39 40.001a4.003 4.003 0 0 1 0 5.612l-39 40a4.001 4.001 0 0 1-5.702-5.612L213.45 124H105a4 4 0 0 1 0-8.001h108.45l-32.301-33.194a4 4 0 0 1 .045-5.657"/><path fill-rule="evenodd" d="M160 16c79.529 0 144 64.471 144 144s-64.471 144-144 144S16 239.529 16 160 80.471 16 160 16m0 8C84.89 24 24 84.89 24 160c0 75.111 60.89 136 136 136 75.111 0 136-60.889 136-136S235.111 24 160 24" clip-rule="evenodd"/></g></g></svg>