<svg xmlns="http://www.w3.org/2000/svg" fill="none" viewBox="0 0 320 320"><g id="trust"><path id="lg-icon-fill-primary" fill="#42aeea" d="M128 35.882V84.06c0 57 68 83.941 68 83.941s68-26.941 68-83.941V35.882L196 16zM36 140a8 8 0 0 0-8 8v80a8 8 0 0 0 8 8h40v-88a8 8 0 0 0-8-8z"/><g id="Outlines" fill="#1d1d1b" fill-rule="evenodd" clip-rule="evenodd"><path d="M196 168s68-26.941 68-83.941V35.882L196 16l-68 19.882V84.06c0 57 68 83.941 68 83.941M136 41.878v42.18c0 25.037 14.903 43.977 31.055 57.146 8.001 6.523 16.042 11.399 22.099 14.645 1.01.541 1.962 1.035 2.846 1.483V25.505zm66.846 113.971c-1.01.541-1.962 1.035-2.846 1.483V25.505l56 16.373v42.18c0 25.037-14.903 43.977-31.055 57.146-8.001 6.523-16.042 11.399-22.099 14.645"/><path d="M79.309 144.003c-1.651-4.659-6.1-8.003-11.314-8.003H36c-6.618 0-12 5.385-12 12.005v80.037c0 6.619 5.382 12.004 11.998 12.004h55.995c5.751 0 10.57-4.069 11.729-9.483 14.523 7.11 54.194 25.437 77.263 25.437 25.345 0 94.166-43.613 99.385-46.943l.081-.04.294-.147c3.053-1.552 15.255-8.537 15.255-21.01 0-5.656-2.424-8.523-4.457-9.932-5.185-3.597-12.408-1.049-13.308-.71l-54.074 21.835c-.485-8.374-7.179-15.032-15.338-15.032l-32.058-.003c-23.322-27.425-62.9-28.068-72.774-27.772l.001-.238c0-6.619-5.383-12.005-11.999-12.005zm24.68 77.753.001-57.493c8.388-.229 46.934.222 67.771 26.261l-.021-.026a5 5 0 0 0 .295.335l.057.056.101.095q.155.142.322.264l.046.034q.06.043.12.082l.021.013.02.014q.063.042.129.079l.046.027a3 3 0 0 0 .222.118l.041.02.034.016q.28.13.578.216l.016.005.049.014q.08.023.16.039l.032.008.079.016q.042.009.085.015l.014.003.046.008q.067.011.135.019l.08.009q.074.008.149.013l.059.002-.003.001h.016l.062.003h.009l.018.001.105.002h33.94c4.062 0 7.367 3.59 7.367 8.003s-3.305 8.004-7.367 8.004h-53.047a4 4 0 0 0-3.999 4.002 4 4 0 0 0 3.999 4.001h53.047c5.427 0 10.207-2.946 12.941-7.384l.048-.019 59.351-23.965c1.694-.606 4.635-.994 5.83-.157.877.614 1.008 2.362 1.008 3.35 0 8.127-9.546 13.209-11.031 13.95l-.117.057-.054.026-.022.01a4 4 0 0 0-.504.274l-.032.021c-.169.108-.974.62-2.31 1.458l-.439.275c-5.715 3.576-19.555 12.095-35.141 20.662l-1.218.668c-34.379 18.791-49.51 22.735-56.148 22.735-23.126 0-67.013-21.25-76.996-26.24m-23.995-69.749h11.999c2.206 0 4 1.794 4 4.001v72.033a4.005 4.005 0 0 1-4 4.002H79.994zM36 144.003h31.996c2.206 0 4 1.795 4 4.002v84.038H35.998a4.004 4.004 0 0 1-3.999-4.001v-80.037a4.005 4.005 0 0 1 4-4.002"/></g></g></svg>