<svg xmlns="http://www.w3.org/2000/svg" fill="none" viewBox="0 0 320 320"><g id="upload-bulk"><path id="lg-icon-fill-primary" fill="#42aeea" d="M160 40c66.274 0 120 53.726 120 120 0 37.432-17.14 70.859-43.999 92.866V247.4l24.489-115.212a4 4 0 0 0-3.081-4.745l-36.721-7.805-11.83-55.658a4 4 0 0 0-4.744-3.08L78.911 87.512a4 4 0 0 0-3.08 4.744l11.85 55.755a4 4 0 0 0-3.68 3.986v100.87C57.141 230.861 40 197.433 40 160 40 93.726 93.726 40 160 40"/><g id="Outlines" fill="#1d1d1b"><path d="M157.195 225.148a4.003 4.003 0 0 1 5.612 0l36 35a4 4 0 1 1-5.612 5.701l-29.194-28.3v70.45a4 4 0 0 1-8.001 0v-70.45l-29.194 28.3a4 4 0 1 1-5.612-5.701z"/><path fill-rule="evenodd" d="M203.28 55.919a8 8 0 0 1 9.489 6.162l11.529 54.245 33.915 7.209a8 8 0 0 1 6.162 9.488L240 247.697V292a4 4 0 0 1-8 0V152H88v140a4 4 0 0 1-8 0V152a7.99 7.99 0 0 1 3.29-6.466L71.914 92.02a8 8 0 0 1 6.162-9.488zM123.004 144H232a8 8 0 0 1 8 8v57.22l16.55-77.86-125.203-26.612zM79.74 90.357 91.143 144h23.682l8.697-40.915a8 8 0 0 1 9.488-6.162l82.723 17.583-10.79-50.762z" clip-rule="evenodd"/><path d="M58.177 58.177c56.235-56.236 147.411-56.236 203.646 0 56.236 56.235 56.236 147.411 0 203.646a4 4 0 0 1-5.657-5.657c53.111-53.111 53.111-139.222 0-192.333s-139.222-53.111-192.333 0-53.11 139.222 0 192.333a4 4 0 0 1-5.656 5.657c-56.236-56.235-56.236-147.411 0-203.646"/><path d="M204 200a4 4 0 0 1 0 8h-88a4 4 0 0 1 0-8zm0-24a4 4 0 0 1 0 8h-88a4 4 0 0 1 0-8z"/></g></g></svg>