<svg xmlns="http://www.w3.org/2000/svg" fill="none" viewBox="0 0 320 320"><g id="utilities"><g id="lg-icon-fill-primary" fill="#42aeea"><path d="m70 60 8-32-38 48h26l-8 32 38-48z"/><path fill-rule="evenodd" d="M252 100c13.255 0 24-10.553 24-23.571S252 34 252 34s-24 29.41-24 42.429C228 89.447 238.745 100 252 100m0 0c-5.523 0-10-5.117-10-11.429C242 82.26 252 68 252 68s10 14.26 10 20.571S257.523 100 252 100" clip-rule="evenodd"/><path d="M120 127.13 160 88l40 39.13V180h-28v-40h-24v40h-28zM284 252c0 17.673-14.327 32-32 32s-32-14.327-32-32 14.327-32 32-32 32 14.327 32 32m-196 8c0 11.046-8.954 20-20 20s-20-8.954-20-20 20-36 20-36 20 24.954 20 36"/></g><g id="Outlines" fill="#1d1d1b"><path d="M255.099 31.471 252 34l-3.099-2.529L252 27.673z"/><path fill-rule="evenodd" d="M252 104c15.396 0 28-12.276 28-27.571 0-4.234-1.872-9.22-4.159-13.883-2.359-4.812-5.466-9.873-8.515-14.436-3.058-4.577-6.109-8.728-8.391-11.731a232 232 0 0 0-3.548-4.552l-.21-.26-.056-.07-.021-.025L252 34c-3.099-2.529-3.1-2.528-3.1-2.528l-.021.026-.056.069-.054.067-.156.193a232 232 0 0 0-3.548 4.552c-2.282 3.003-5.333 7.154-8.391 11.731-3.049 4.563-6.156 9.624-8.515 14.436-2.287 4.663-4.159 9.649-4.159 13.883C224 91.724 236.604 104 252 104m0-63.522-.565.741a234 234 0 0 0-8.109 11.336c-2.951 4.417-5.844 9.149-7.985 13.513-2.213 4.513-3.341 8.085-3.341 10.36 0 5.51 2.337 10.515 6.113 14.085a17 17 0 0 1-.113-1.942c0-2.422.902-5.119 1.876-7.43 1.026-2.434 2.363-4.964 3.655-7.214a121 121 0 0 1 4.731-7.55l.27-.395.065-.094.092-.133.025-.036.01-.015 3.246 2.275-3.245-2.276 3.275-4.67 3.275 4.67-3.245 2.276c3.245-2.276 3.246-2.275 3.246-2.275l.01.015.025.036.04.058.052.075q.12.171.335.488a121 121 0 0 1 4.731 7.55c1.292 2.25 2.629 4.781 3.655 7.215.974 2.311 1.876 5.008 1.876 7.43q0 .98-.113 1.942c3.776-3.57 6.113-8.576 6.113-14.084 0-2.276-1.128-5.848-3.341-10.36-2.141-4.365-5.034-9.097-7.985-13.514a234 234 0 0 0-8.109-11.336q-.291-.384-.565-.74m0 34.857c-.495.807-1.014 1.675-1.531 2.576-1.208 2.104-2.371 4.322-3.22 6.337-.901 2.137-1.249 3.59-1.249 4.323 0 4.622 3.171 7.429 6 7.429s6-2.807 6-7.428c0-.734-.348-2.187-1.249-4.324-.849-2.015-2.012-4.233-3.22-6.337A103 103 0 0 0 252 75.335" clip-rule="evenodd"/><path d="M236 216a4 4 0 0 0 0 8c15.464 0 28 12.536 28 28a4 4 0 0 0 8 0c0-19.882-16.118-36-36-36"/><path d="M236 240c-6.627 0-12 5.373-12 12a4 4 0 0 1-8 0c0-11.046 8.954-20 20-20s20 8.954 20 20c0 6.627 5.373 12 12 12s12-5.373 12-12a4 4 0 0 1 8 0c0 11.046-8.954 20-20 20s-20-8.954-20-20c0-6.627-5.373-12-12-12"/><path d="M272 284a4 4 0 0 1-4 4c-19.882 0-36-16.118-36-36a4 4 0 0 1 8 0c0 15.464 12.536 28 28 28a4 4 0 0 1 4 4M71.121 221.498 68 224l-3.121-2.502L68 217.604z"/><path fill-rule="evenodd" d="M68 224c-3.121-2.502-3.122-2.501-3.122-2.501l-.018.023-.047.059-.073.092-.104.131a197 197 0 0 0-2.967 3.875 206 206 0 0 0-7.013 9.984c-2.548 3.883-5.153 8.201-7.135 12.316C45.61 251.949 44 256.276 44 260c0 13.255 10.745 24 24 24s24-10.745 24-24c0-3.724-1.609-8.051-3.521-12.021-1.982-4.115-4.587-8.433-7.135-12.316a206 206 0 0 0-7.013-9.984 197 197 0 0 0-2.967-3.875l-.097-.122-.08-.101-.047-.059-.018-.023zm0 6.572a198 198 0 0 0-6.656 9.48c-2.452 3.737-4.847 7.728-6.615 11.399C52.89 255.266 52 258.201 52 260c0 8.837 7.163 16 16 16s16-7.163 16-16c0-1.799-.891-4.734-2.729-8.549-1.768-3.671-4.163-7.662-6.615-11.399a198 198 0 0 0-6.656-9.48M36.864 73.517A4 4 0 0 0 40 80h20.877l-6.757 27.03a4 4 0 0 0 7.016 3.453l38-48A4 4 0 0 0 96 56H75.123l6.758-27.03a4 4 0 0 0-7.017-3.453zM66 72H48.27l21.35-26.97-3.5 14A4 4 0 0 0 70 64h17.732L66.38 90.969l3.5-14A4 4 0 0 0 66 72" clip-rule="evenodd"/><path fill-rule="evenodd" d="M252 8c-33.137 0-60 26.863-60 60 0 31.793 24.728 57.81 56 59.869V164c0 6.627-5.373 12-12 12h-32v-40.143l5.228 5.026a4 4 0 0 0 5.655-.111 4 4 0 0 0-.111-5.656L162.776 85.12 160 82.404l-2.776 2.716-51.996 49.996a4 4 0 0 0 5.544 5.767l5.228-5.026V176H84c-6.627 0-12-5.373-12-12v-36.131c31.272-2.059 56-28.076 56-59.869 0-33.137-26.863-60-60-60S8 34.863 8 68c0 31.793 24.728 57.81 56 59.869V164c0 11.046 8.954 20 20 20h60v52c0 6.627-5.373 12-12 12h-4.131C125.81 216.728 99.793 192 68 192c-33.137 0-60 26.863-60 60s26.863 60 60 60c31.793 0 57.81-24.728 59.869-56H132c11.046 0 20-8.954 20-20v-92h16v92c0 11.046 8.954 20 20 20h4.131c2.059 31.272 28.076 56 59.869 56 33.137 0 60-26.863 60-60s-26.863-60-60-60c-31.793 0-57.81 24.728-59.869 56H188c-6.627 0-12-5.373-12-12v-52h60c11.046 0 20-8.954 20-20v-36.131c31.272-2.059 56-28.076 56-59.869 0-33.137-26.863-60-60-60m-52 60c0-28.719 23.281-52 52-52s52 23.281 52 52-23.281 52-52 52-52-23.281-52-52m-56 68h32v40h20v-47.187l-36-35.217-36 35.217V176h20zm108 64c-28.719 0-52 23.281-52 52s23.281 52 52 52 52-23.281 52-52-23.281-52-52-52M16 252c0-28.719 23.281-52 52-52s52 23.281 52 52-23.281 52-52 52-52-23.281-52-52M68 16c-28.719 0-52 23.281-52 52s23.281 52 52 52 52-23.281 52-52-23.281-52-52-52" clip-rule="evenodd"/></g></g></svg>