<svg xmlns="http://www.w3.org/2000/svg" fill="none" viewBox="0 0 320 320"><g id="video-call"><g id="lg-icon-fill-primary" fill="#42aeea"><path d="M244 92c6.627 0 12 5.373 12 12s-5.373 12-12 12-12-5.373-12-12 5.373-12 12-12"/><path fill-rule="evenodd" d="M308 212H180c0-14.89 0-22.335-1.958-28.36a40 40 0 0 0-25.682-25.682C146.335 156 138.89 156 124 156h-16c-14.89 0-22.335 0-28.36 1.958a40 40 0 0 0-25.682 25.682C52 189.665 52 197.11 52 212H12V52h296zM208 80v72h12v-.8c0-6.72 0-10.081 1.308-12.648a12 12 0 0 1 5.244-5.244C229.119 132 232.48 132 239.2 132h9.6c6.72 0 10.081 0 12.648 1.308a12 12 0 0 1 5.244 5.244C268 141.119 268 144.48 268 151.2v.8h12V80zm-92-4c-17.673 0-32 14.327-32 32s14.327 32 32 32 32-14.327 32-32-14.327-32-32-32" clip-rule="evenodd"/></g><g id="Outlines" fill="#1d1d1b"><path fill-rule="evenodd" d="M244 88c8.837 0 16 7.163 16 16s-7.163 16-16 16-16-7.163-16-16 7.163-16 16-16m0 8a8 8 0 1 0 0 16 8 8 0 0 0 0-16" clip-rule="evenodd"/><path fill-rule="evenodd" d="M280 72a8 8 0 0 1 8 8v72a8 8 0 0 1-8 8h-72a8 8 0 0 1-8-8V80a8 8 0 0 1 8-8zm-72 80h8v-.8c0-3.294-.003-6.005.177-8.207.183-2.248.578-4.315 1.567-6.257a16 16 0 0 1 6.992-6.992c1.942-.989 4.009-1.384 6.257-1.567 2.202-.18 4.913-.177 8.207-.177h9.6c3.294 0 6.005-.003 8.207.177 2.248.183 4.315.578 6.257 1.567l.557.298a16 16 0 0 1 6.435 6.694l.179.366c.859 1.835 1.216 3.783 1.388 5.891.18 2.202.177 4.913.177 8.207v.8h8V80h-72zm31.2-16c-3.426 0-5.755.003-7.555.15-1.754.144-2.651.403-3.277.722a8 8 0 0 0-3.496 3.496c-.319.626-.578 1.523-.722 3.277-.147 1.8-.15 4.129-.15 7.555v.8h40v-.8c0-3.426-.003-5.755-.15-7.555-.126-1.535-.34-2.414-.605-3.029l-.117-.248a8 8 0 0 0-3.217-3.347l-.279-.149c-.626-.319-1.523-.578-3.277-.722-1.8-.147-4.129-.15-7.555-.15zM116 72c19.882 0 36 16.118 36 36s-16.118 36-36 36-36-16.118-36-36 16.118-36 36-36m0 8c-15.464 0-28 12.536-28 28s12.536 28 28 28 28-12.536 28-28-12.536-28-28-28" clip-rule="evenodd"/><path d="M160 24a8 8 0 1 1 0 16 8 8 0 0 1 0-16"/><path fill-rule="evenodd" d="M300 8c6.525 0 11.834 5.209 11.996 11.695L312 20v224c0 6.525-5.209 11.834-11.695 11.996L300 256H164v48h52a4 4 0 0 1 0 8H104a4 4 0 0 1 0-8h52v-48H20c-6.525 0-11.834-5.209-11.996-11.695L8 244V20c0-6.525 5.209-11.834 11.695-11.996L20 8zM16 244a4 4 0 0 0 3.8 3.995l.2.005h280a4 4 0 0 0 3.995-3.801L304 244v-28H16zm0-36h32.002c.01-12.136.158-19.463 2.151-25.597a44 44 0 0 1 28.25-28.25C85.183 151.951 93.421 152 108 152h16c14.579 0 22.817-.049 29.597 2.153l.626.209a44 44 0 0 1 27.624 28.041l.2.64c1.803 6.005 1.941 13.24 1.951 24.957H304V56H16zm92-48c-15.201 0-21.854.049-27.125 1.762a36 36 0 0 0-23.113 23.113c-1.555 4.784-1.736 10.706-1.757 23.125h119.99c-.02-11.991-.19-17.925-1.601-22.626l-.156-.499a36 36 0 0 0-22.601-22.942l-.512-.171C145.854 160.049 139.202 160 124 160zM20 16a4 4 0 0 0-3.995 3.8L16 20v28h288V20a4 4 0 0 0-3.801-3.995L300 16z" clip-rule="evenodd"/></g></g></svg>