<svg xmlns="http://www.w3.org/2000/svg" fill="none" viewBox="0 0 320 320"><g id="video-guides"><g id="lg-icon-fill-primary" fill="#42aeea"><path d="m180 140-32 19v-38z"/><path fill-rule="evenodd" d="M288 208H32V72h256zM160 96c-24.301 0-44 19.699-44 44s19.699 44 44 44 44-19.699 44-44-19.699-44-44-44" clip-rule="evenodd"/></g><path id="Outlines" fill="#1d1d1b" fill-rule="evenodd" d="M284 24c6.525 0 11.834 5.209 11.996 11.695L296 36v208c0 6.525-5.209 11.834-11.695 11.996L284 256H164v32h52a4 4 0 0 1 0 8H104a4 4 0 0 1 0-8h52v-32H36c-6.526 0-11.834-5.209-11.996-11.695L24 244V36c0-6.526 5.209-11.834 11.695-11.996L36 24zm4 192H32v28a4 4 0 0 0 3.8 3.995l.2.005h248a4 4 0 0 0 3.995-3.8l.005-.2zm0-144H32v136h256zM160 92c26.51 0 48 21.49 48 48s-21.49 48-48 48-48-21.49-48-48 21.49-48 48-48m0 8c-22.091 0-40 17.909-40 40s17.909 40 40 40 40-17.909 40-40-17.909-40-40-40m-10.122 17.468.164.093 32 19c2.55 1.513 2.609 5.154.178 6.767l-.178.111-32 19c-2.612 1.551-5.905-.261-6.038-3.251L144 159v-38c0-3.038 3.239-4.944 5.878-3.532M152 128.027v23.945L172.164 140zM284 32H36a4 4 0 0 0-3.995 3.8L32 36v28h256V36a4 4 0 0 0-3.8-3.995z" clip-rule="evenodd"/></g></svg>