<svg xmlns="http://www.w3.org/2000/svg" fill="none" viewBox="0 0 320 320"><g id="wallet"><path id="lg-icon-fill-primary" fill="#42aeea" fill-rule="evenodd" d="M60 12v160h208v-70h-32V69h-24V12zm76 144c28.719 0 52-23.281 52-52s-23.281-52-52-52-52 23.281-52 52 23.281 52 52 52" clip-rule="evenodd"/><g id="Outlines" fill="#1d1d1b"><path d="M112 102c0 4.3 3.634 8 8.385 8 .446 0 1.321-.104 2.753-.374 1.264-.238 2.735-.559 4.41-.924l.436-.095c1.256-.273 2.608-.566 4.016-.851V98a4 4 0 0 1 8 0v8.435l.325-.037c3.842-.417 8.093-.511 11.675.624V90a4 4 0 0 1 8 0v28a4 4 0 0 1-8 0c0-1.218-.283-1.839-.519-2.173-.243-.346-.675-.722-1.519-1.047-1.866-.717-4.868-.853-8.772-.428q-.591.064-1.19.142V118a4 4 0 0 1-8 0v-2.074q-1.176.249-2.314.498l-.461.101c-1.64.357-3.224.702-4.606.962-1.45.274-2.971.513-4.234.513-8.929 0-16.385-7.045-16.385-16s7.456-16 16.385-16a4 4 0 0 1 0 8c-4.751 0-8.385 3.7-8.385 8"/><path fill-rule="evenodd" d="M180.903 70.532A56 56 0 0 0 136 48a56 56 0 0 0-50.6 80 56 56 0 0 0 104.27-8 56 56 0 0 0-8.767-49.468M90.75 120c-7.04-19.893-.263-42.05 16.701-54.6s40.134-12.551 57.098 0 23.741 34.707 16.701 54.6a47.3 47.3 0 0 1-3.71 8 47.949 47.949 0 0 1-83.08 0 47.3 47.3 0 0 1-3.71-8" clip-rule="evenodd"/><path fill-rule="evenodd" d="M215.996 15.75A8 8 0 0 0 208 8H64l-.25.004A8 8 0 0 0 56 16v96H32l-.25.004A8 8 0 0 0 24 120v168l.004.249A8 8 0 0 0 32 296h256l.249-.004A8 8 0 0 0 296 288V120l-.004-.249A8 8 0 0 0 288 112h-16v-8l-.004-.249A8 8 0 0 0 264 96h-24V72l-.004-.25A8 8 0 0 0 232 64h-16V16zM40 172a4 4 0 0 0 4 4h228v-56h16v168H32V120h24v48H44l-.2.005A4 4 0 0 0 40 172M216 72h16v96h-16zm24 32h24v64h-24zM64 16h144v152H64z" clip-rule="evenodd"/></g></g></svg>