<svg xmlns="http://www.w3.org/2000/svg" fill="none" viewBox="0 0 320 320"><g id="warning"><path id="lg-icon-fill-primary" fill="#42aeea" fill-rule="evenodd" d="M173.816 45.967c-6.156-10.623-21.476-10.623-27.632 0L22.181 259.982C16.003 270.644 23.686 284 35.996 284h248.008c12.31 0 19.993-13.356 13.815-24.018zm79.022 206.049L159.999 92.091 67.161 252.016z" clip-rule="evenodd"/><g id="Outlines" fill="#1d1d1b"><path d="M159.999 144.066a3.997 3.997 0 0 1 3.993 3.999v55.974a3.996 3.996 0 0 1-3.993 3.998 3.996 3.996 0 0 1-3.993-3.998v-55.974a3.997 3.997 0 0 1 3.993-3.999m-5.989 79.964a5.993 5.993 0 0 1 5.989-5.997 5.994 5.994 0 0 1 5.99 5.997 5.994 5.994 0 0 1-5.99 5.997 5.993 5.993 0 0 1-5.989-5.997"/><path fill-rule="evenodd" d="M163.452 90.081a3.993 3.993 0 0 0-6.905 0L63.708 250.008a4 4 0 0 0-.009 4.003 3.99 3.99 0 0 0 3.461 2.004h185.678a3.99 3.99 0 0 0 3.461-2.004 4 4 0 0 0-.009-4.003zm-3.453 9.965 85.9 147.973H74.1z" clip-rule="evenodd"/><path fill-rule="evenodd" d="M177.27 43.96c-7.694-13.28-26.846-13.28-34.54 0L18.726 257.976C11.004 271.305 20.607 288 35.996 288h248.009c15.388 0 24.991-16.695 17.269-30.023zm-27.632 4.012c4.617-7.968 16.107-7.968 20.724 0L294.366 261.99c4.634 7.996-1.128 18.014-10.361 18.014H35.995c-9.232 0-14.995-10.018-10.361-18.014z" clip-rule="evenodd"/></g></g></svg>