<svg xmlns="http://www.w3.org/2000/svg" fill="none" viewBox="0 0 320 320"><path fill="#42aeea" fill-rule="evenodd" d="M176 208h96a8 8 0 0 1 8 8v48a8 8 0 0 1-8 8h-96a8 8 0 0 1-8-8v-48a8 8 0 0 1 8-8m-128 0h96a8 8 0 0 1 8 8v48a8 8 0 0 1-8 8H48a8 8 0 0 1-8-8v-48a8 8 0 0 1 8-8m0-120h224a8 8 0 0 1 8 8v48a8 8 0 0 1-8 8H48a8 8 0 0 1-8-8V96a8 8 0 0 1 8-8" clip-rule="evenodd"/><path fill="#1d1d1b" fill-rule="evenodd" d="M296 24a8 8 0 0 1 8 8v256a8 8 0 0 1-8 8H24a8 8 0 0 1-8-8V32a8 8 0 0 1 8-8zm0 48H24v216h272zm-24 136a8 8 0 0 1 8 8v48a8 8 0 0 1-8 8h-96a8 8 0 0 1-8-8v-48a8 8 0 0 1 8-8zm-128 0a8 8 0 0 1 8 8v48a8 8 0 0 1-8 8H48a8 8 0 0 1-8-8v-48a8 8 0 0 1 8-8zm128 8h-96v48h96zm-128 0H48v48h96zm76 32a4 4 0 0 1 0 8h-32a4 4 0 0 1 0-8zm-128 0a4 4 0 0 1 0 8H60a4 4 0 0 1 0-8zm112-64a4 4 0 0 1 0 8H44a4 4 0 0 1 0-8zm16-16a4 4 0 0 1 0 8H44a4 4 0 0 1 0-8zm52-80a8 8 0 0 1 8 8v48a8 8 0 0 1-8 8H48a8 8 0 0 1-8-8V96a8 8 0 0 1 8-8zm0 8H48v48h224zm24-64H24v32h272zm-16 12a4 4 0 0 1 0 8H112a4 4 0 0 1 0-8zM72 44a4 4 0 1 1 0 8 4 4 0 0 1 0-8m-16 0a4 4 0 1 1 0 8 4 4 0 0 1 0-8m-16 0a4 4 0 1 1 0 8 4 4 0 0 1 0-8" clip-rule="evenodd"/></svg>