<svg xmlns="http://www.w3.org/2000/svg" fill="none" viewBox="0 0 320 320"><g id="website"><g id="lg-icon-fill-primary" fill="#42aeea"><path fill-rule="evenodd" d="M28 28h264v48H28zm24 32a8 8 0 1 0 0-16 8 8 0 0 0 0 16m40-8a8 8 0 1 1-16 0 8 8 0 0 1 16 0m32 0a8 8 0 1 1-16 0 8 8 0 0 1 16 0" clip-rule="evenodd"/><path d="m244.958 248.917-15.175-37.748L248 209.6 208.011 168 208 225.842l14.189-11.59L237.364 252z"/></g><g id="Outlines" fill="#1d1d1b"><path d="M148 256a4 4 0 0 0 0-8H52a4 4 0 0 0 0 8zm20-28a4 4 0 0 1-4 4H52a4 4 0 0 1 0-8h112a4 4 0 0 1 4 4m-20-20a4 4 0 0 0 0-8H52a4 4 0 0 0 0 8zm20-28a4 4 0 0 1-4 4H52a4 4 0 0 1 0-8h112a4 4 0 0 1 4 4m-20-20a4 4 0 0 0 0-8H52a4 4 0 0 0 0 8z"/><path fill-rule="evenodd" d="m255.355 253.329-22.419 9.103-14.112-35.102-18.827 15.378.019-94.57 65.361 67.995-24.14 2.079zm-25.572-42.161L248 209.6 208.012 168 208 225.841l14.189-11.589L237.365 252l7.593-3.084zM56 96a8 8 0 0 0-8 8v24a8 8 0 0 0 8 8h209a8 8 0 0 0 8-8v-24a8 8 0 0 0-8-8zm0 8h209v24H56zm-4-40c6.627 0 12-5.373 12-12s-5.373-12-12-12-12 5.373-12 12 5.373 12 12 12m0-8a4 4 0 1 0 0-8 4 4 0 0 0 0 8m44-4c0 6.627-5.373 12-12 12s-12-5.373-12-12 5.373-12 12-12 12 5.373 12 12m-8 0a4 4 0 1 1-8 0 4 4 0 0 1 8 0m40 0c0 6.627-5.373 12-12 12s-12-5.373-12-12 5.373-12 12-12 12 5.373 12 12m-8 0a4 4 0 1 1-8 0 4 4 0 0 1 8 0" clip-rule="evenodd"/><path fill-rule="evenodd" d="M24 28a4 4 0 0 1 4-4h264a4 4 0 0 1 4 4v264a4 4 0 0 1-4 4H28a4 4 0 0 1-4-4zm8 260V80h256v208zM288 72H32V32h256z" clip-rule="evenodd"/></g></g></svg>