<svg xmlns="http://www.w3.org/2000/svg" fill="none" viewBox="0 0 320 320"><g id="wellbeing" fill-rule="evenodd" clip-rule="evenodd"><path id="lg-icon-fill-primary" fill="#42aeea" d="M160 20c77.32 0 140 62.68 140 140s-62.68 140-140 140S20 237.32 20 160 82.68 20 160 20m0 31C99.801 51 51 99.801 51 160s48.801 109 109 109 109-48.801 109-109S220.199 51 160 51m-.544 66.707.674-.537.067.053c16.759 13.371 27.156 32.373 28.624 53.093 12.608-11.198 28.282-17.392 46.246-17.691l.947-.01.02.083-.127 2.716-.167 3.268-.109 1.898-.118 1.852-.129 1.811-.093 1.185-.099 1.168-.053.578-.111 1.144-.119 1.129-.127 1.114-.137 1.102-.147 1.088-.157 1.076-.083.534-.175 1.059q-.09.527-.187 1.049l-.2 1.04a70 70 0 0 1-.44 2.053l-.242 1.016c-2.121 8.601-5.906 16.489-13.099 25.695l-.445.564c-10.835 13.587-23.92 20.986-39.209 25.423l-1.297.368-1.308.354q-2.298.608-4.659 1.139l-1.355.298q-.68.147-1.366.287l-1.375.276-1.387.266-.697.129-.83.008-.02-.083a93 93 0 0 1-1.176-5.685 80 80 0 0 1-4.27 3.695l-.65.517-.066-.053a81 81 0 0 1-5.79-5.084 88 88 0 0 1-1.103 5.636l-.247 1.057-.83-.008-.697-.129-1.387-.266-1.375-.276q-.685-.14-1.366-.287l-1.355-.298-1.344-.31-1.334-.322q-.996-.246-1.981-.507l-1.308-.354-1.297-.368c-15.074-4.375-28.005-11.628-38.75-24.852l-.459-.571-.445-.564c-8.039-10.289-11.822-18.931-13.781-28.764l-.2-1.04a81 81 0 0 1-.187-1.049l-.175-1.059-.083-.534-.157-1.076-.147-1.088-.137-1.102-.127-1.114-.12-1.129-.11-1.144-.103-1.16-.097-1.176-.09-1.194-.085-1.212-.08-1.23-.146-2.52-.102-1.944-.129-2.67-.063-1.37.02-.083.187.001c18.9.14 35.295 6.771 48.293 18.868 1.201-20.951 11.527-40.215 28.338-53.777"/><path id="Outlines" fill="#1d1d1b" d="M160 16c79.529 0 144 64.471 144 144s-64.471 144-144 144S16 239.529 16 160 80.471 16 160 16m0 8C84.89 24 24 84.89 24 160c0 75.111 60.89 136 136 136 75.111 0 136-60.889 136-136S235.111 24 160 24m0 24c61.856 0 112 50.144 112 112s-50.144 112-112 112S48 221.856 48 160 98.144 48 160 48m0 8c-57.438 0-104 46.562-104 104s46.562 104 104 104 104-46.562 104-104S217.438 56 160 56m.131 54.918 2.464 1.938c15.381 12.094 25.741 29.314 29.165 48.502 12.391-8.257 26.909-12.938 42.169-13.332l.781-.017 4.495-.037.372 3.621q.422 4.108.423 8.281c0 42.058-32.351 76.549-73.49 79.868l-1.25.091-.472.026.01.104-1.587.013-.004.042-3.075-.016-.132.001h-.033l-.098.076-.099-.078-.192-.001c-43.568-.225-78.866-35.319-79.567-78.805L80 159.874c0-2.261.094-4.511.282-6.767l.102-1.128.421-3.998 3.62.019c15.854.083 30.991 4.803 43.847 13.376 3.469-19.199 13.886-36.414 29.323-48.477zm71.77 45.196-.064.004a71.5 71.5 0 0 0-38.483 13.89l-.51.38q.155 2.494.156 5.016c0 12.674-2.985 24.857-8.462 35.74a79.7 79.7 0 0 1-13.315 19.21l-.475.502-.389.404.176-.024c34.044-5 60.347-33.868 61.43-69.099l.025-1.07.01-1.193q0-1.074-.031-2.145l-.039-1.069zm-143.804 0-.034.71a74 74 0 0 0-.063 3.05c0 35.761 25.985 65.461 60.092 71.145l1.037.165.295.042-.437-.458a79.8 79.8 0 0 1-13.585-19.551c-5.439-10.853-8.402-22.993-8.402-35.621q0-2.615.168-5.201l.087.065a71.5 71.5 0 0 0-38.396-14.299zm72.015-34.944-.126.107c-13.515 11.584-22.266 27.747-24.45 45.529l.136.11-.196 2.14a73 73 0 0 0-.304 6.666c0 11.245 2.573 22.059 7.304 31.752a71.6 71.6 0 0 0 17.356 22.306l.057.049.56-.481a71.6 71.6 0 0 0 16.984-21.882c4.789-9.741 7.395-20.621 7.395-31.937a73 73 0 0 0-.2-5.421l-.087-1.077-.189-2.132.133-.108c-2.138-17.782-10.842-33.957-24.315-45.572z"/></g></svg>