<svg xmlns="http://www.w3.org/2000/svg" fill="none" viewBox="0 0 320 320"><g id="wind-turbine"><path id="lg-icon-fill-primary" fill="#42aeea" d="M164.805 154.999C169.04 153.147 172 148.919 172 144c0-6.627-5.373-12-12-12s-12 5.373-12 12 5.373 12 12 12c1.434 0 2.809-.252 4.084-.713 3.678 14.711-1.543 26.244-11.491 35.271L144 308h32z"/><path id="Outlines" fill="#1d1d1b" fill-rule="evenodd" d="M164.001 128.504V10a2 2 0 0 0-2-2h-12.768c-.755 0-1.405.343-1.735 1.022-5.485 11.261-52.971 112.183-3.165 131.714A16 16 0 0 0 144 144c0 1.428.187 2.813.538 4.131L41.799 207.447a2 2 0 0 0-.732 2.733l6.384 11.057c.378.654 1 1.045 1.753.992 8.996-.634 69.132-5.652 99.121-28.157L139.696 312h40.607l-11.324-154.755a16 16 0 0 0 2.325-1.922l102.59 59.231a2 2 0 0 0 2.732-.733l6.384-11.057c.378-.654.406-1.388-.017-2.014-7.003-10.37-70.536-101.775-112.355-68.701a15.95 15.95 0 0 0-6.637-3.545m-8 0V16h-2.961c-4.977 10.705-17.171 38.794-21.612 65.645-2.563 15.494-2.288 29.17 2.125 38.735 2.121 4.598 5.19 8.238 9.502 10.848a28 28 0 0 0 4.844 2.304 16 16 0 0 1 8.102-5.028m19.108 10.218c.577 1.652.891 3.428.891 5.278 0 1.539-.217 3.028-.623 4.437l97.321 56.188 1.481-2.564c-6.782-9.662-25.011-34.268-46.045-51.539-12.136-9.966-24.118-16.566-34.608-17.527-5.042-.462-9.729.375-14.146 2.805a28 28 0 0 0-4.271 2.922m-18.266 20.967a16 16 0 0 1-8.37-4.592l-97.478 56.279 1.481 2.564c11.759-1.042 42.182-4.526 67.656-14.106 14.699-5.528 26.406-12.604 32.483-21.208 2.921-4.136 4.54-8.613 4.644-13.653a28 28 0 0 0-.416-5.284M148.303 304l8.627-117.901c2.259-2.66 4.124-5.51 5.513-8.564L171.696 304zM168 144a8 8 0 1 1-16 0 8 8 0 0 1 16 0" clip-rule="evenodd"/></g></svg>