<svg xmlns="http://www.w3.org/2000/svg" fill="none" viewBox="0 0 320 320"><g id="workshop"><path id="lg-icon-fill-primary" fill="#42aeea" fill-rule="evenodd" d="M132 100h160v160h-32v26l-26-26H132z" clip-rule="evenodd"/><g id="Outlines" fill="#1d1d1b"><path d="M212.253 136c14.865 0 23.747 9.778 23.747 25.259l-.017.133.001.056.001.083c0 12.494-7.559 25.827-20.077 25.827h-8.084c-1.826 0-3.912.815-3.912 4.074v12.494c0 2.173-1.826 4.074-3.912 4.074-2.347 0-3.912-1.901-3.912-4.074v-12.494c0-9.234 7.302-12.494 11.996-12.494h8.085c5.998 0 11.993-6.815 11.993-17.407l.002-.128q-.003-.072-.002-.144c0-14.395-9.798-16.754-15.832-16.837l-.337-.002c-8.867 0-16.169 6.247-16.169 14.123 0 2.445-1.826 4.074-3.912 4.074-2.347 0-3.912-1.901-3.912-4.074C188 146.049 198.953 136 212.253 136m-12.257 79.852c2.087 0 3.912 1.901 3.912 4.074 0 2.444-1.825 4.074-3.912 4.074-2.347 0-3.912-1.901-3.912-4.074 0-2.445 1.826-4.074 3.912-4.074M112 140a4 4 0 0 0-4-4H60a4 4 0 0 0 0 8h48a4 4 0 0 0 4-4m0-24a4 4 0 0 0-4-4H60a4 4 0 0 0 0 8h48a4 4 0 0 0 4-4m0-24a4 4 0 0 0-4-4H60a4 4 0 0 0 0 8h48a4 4 0 0 0 4-4m48-24a4 4 0 0 0-4-4H60a4 4 0 0 0 0 8h96a4 4 0 0 0 4-4"/><path fill-rule="evenodd" d="M192 96V24H24v168h32v32l32-32h40v72h104l32 32v-32h32V96zm-56 160V104h152v152h-32v20.686L235.314 256zM32 32h152v64h-56v88H84.686L64 204.686V184H32z" clip-rule="evenodd"/></g></g></svg>