<svg xmlns="http://www.w3.org/2000/svg" fill="none" viewBox="0 0 320 320"><g id="yen"><path id="lg-icon-fill-primary" fill="#42aeea" d="M280 160c0 66.274-53.726 120-120 120S40 226.274 40 160 93.726 40 160 40s120 53.726 120 120"/><g id="Outlines" fill="#1d1d1b"><path d="M97.172 89.172a4 4 0 0 1 5.656 0L160 146.343l57.172-57.171a4 4 0 0 1 5.656 0 4 4 0 0 1 0 5.656L165.657 152H216a4 4 0 0 1 0 8h-52v24h52a4 4 0 0 1 0 8h-52v52a4 4 0 0 1-8 0v-52h-52a4 4 0 0 1 0-8h52v-24h-52a4 4 0 0 1 0-8h50.343L97.172 94.828a4 4 0 0 1 0-5.656"/><path fill-rule="evenodd" d="M304 160c0 79.529-64.471 144-144 144S16 239.529 16 160 80.471 16 160 16s144 64.471 144 144m-8 0c0 75.111-60.889 136-136 136S24 235.111 24 160 84.89 24 160 24c75.111 0 136 60.89 136 136" clip-rule="evenodd"/></g></g></svg>