<svg xmlns="http://www.w3.org/2000/svg" width="320" height="320" viewBox="0 0 320 320"><g id="Foundations/Icons/Brand-Icons/Online/25-add-person" fill="none" fill-rule="evenodd" stroke="none" stroke-width="1"><circle id="lg-icon-fill-primary" cx="259.801" cy="60.016" r="48" fill="#FFD500"/><path id="Half-tone" fill="#000" d="M59.801 192.016a4 4 0 1 1 0 8 4 4 0 0 1 0-8Zm192 0a4 4 0 1 1 0 8 4 4 0 0 1 0-8Zm-176-16a4 4 0 1 1 0 8 4 4 0 0 1 0-8Zm-32 0a4 4 0 1 1 0 8 4 4 0 0 1 0-8Zm192 0a4 4 0 1 1 0 8 4 4 0 0 1 0-8Zm32 0a4 4 0 1 1 0 8 4 4 0 0 1 0-8Zm-176-16a4 4 0 1 1 0 8 4 4 0 0 1 0-8Zm-32 0a4 4 0 1 1 0 8 4 4 0 0 1 0-8Zm-32 0a4 4 0 1 1 0 8 4 4 0 0 1 0-8Zm224 0a4 4 0 1 1 0 8 4 4 0 0 1 0-8Zm32 0a4 4 0 1 1 0 8 4 4 0 0 1 0-8Zm-64 0a4 4 0 1 1 0 8 4 4 0 0 1 0-8Zm-144-16a4 4 0 1 1 0 8 4 4 0 0 1 0-8Zm-32 0a4 4 0 1 1 0 8 4 4 0 0 1 0-8Zm192 0a4 4 0 1 1 0 8 4 4 0 0 1 0-8Zm32 0a4 4 0 1 1 0 8 4 4 0 0 1 0-8Zm-208-16a4 4 0 1 1 0 8 4 4 0 0 1 0-8Zm192 0a4 4 0 1 1 0 8 4 4 0 0 1 0-8Z"/><path id="Outlines" fill="#000" d="M35.475 72.8C77.76 12.406 157.302-8.91 224.12 22.245c.25-.24.5-.49.76-.72a53.24 53.24 0 0 1 3.85-3.18c1.33-1 2.72-1.93 4.15-2.8a48.653 48.653 0 0 1 4.42-2.4 52.08 52.08 0 0 1 45.08 0c1.52.73 2.99 1.53 4.42 2.4 1.43.87 2.82 1.8 4.15 2.8 1.34 1 2.623 2.06 3.85 3.18a51.84 51.84 0 0 1 17 38.49 51.81 51.81 0 0 1-14.19 35.72c31.155 66.818 9.839 146.36-50.554 188.646C186.665 326.667 104.63 319.49 52.5 267.358.367 215.228-6.811 133.192 35.475 72.8ZM168.14 182.225a86.4 86.4 0 0 0-36.75 4.15c-1.36.47-2.69.95-4 1.47a85.91 85.91 0 0 0-9.56 4.49c-.62.3-1.23.64-1.83 1-1.22.7-2.41 1.43-3.59 2.19a88.948 88.948 0 0 0-8.44 6.2 87.66 87.66 0 0 0-31.62 67.57v5.14a142.926 142.926 0 0 0 87.45 29.58c31.178.1 61.534-9.996 86.44-28.75l-.07-5.93a87.67 87.67 0 0 0-40.06-73.77l-1.78-1.12c-1.19-.73-2.41-1.43-3.64-2.11a85.91 85.91 0 0 0-9.56-4.49c-1.32-.47-2.65-1.01-4-1.47-1.35-.46-2.7-.88-4.08-1.28s-2.76-.76-4.17-1.08c-2.1-.487-4.23-.9-6.39-1.24-1.43-.22-2.88-.4-4.35-.55Zm50.35-153.79C155.065.206 80.527 21.224 41.193 78.43 1.86 135.637 8.917 212.759 57.981 261.876c2.07 2.07 4.21 4.07 6.39 6 .77-52.03 43.03-94.12 94.88-94.12 52.17 0 94.63 42.61 94.89 95.08a142.113 142.113 0 0 0 7.48-7 143.003 143.003 0 0 0 42.18-101.82 143.58 143.58 0 0 0-12.46-58.69c-.16.11-.31.24-.47.36-1.33 1-2.72 1.93-4.15 2.8a48.653 48.653 0 0 1-4.42 2.4 52.08 52.08 0 0 1-45.08 0c-1.52-.73-2.99-1.53-4.42-2.4-1.43-.87-2.82-1.8-4.15-2.8a53.24 53.24 0 0 1-3.85-3.18c-19.982-18.173-22.724-48.62-6.31-70.07Zm-58.69 36.72c28.39.033 51.397 23.04 51.43 51.43 0 28.404-23.026 51.43-51.43 51.43s-51.43-23.026-51.43-51.43 23.026-51.43 51.43-51.43Zm8.75 8.86a43.62 43.62 0 0 0-17.5 0 42.15 42.15 0 0 0-8.17 2.56 43.15 43.15 0 0 0-10.72 6.5 43.14 43.14 0 0 0-5.89 5.89 40.89 40.89 0 0 0-2.5 3.34 43.43 43.43 0 0 0 2.5 51.91 43.64 43.64 0 0 0 5.89 5.88c.53.45 1.08.88 1.64 1.29a43.14 43.14 0 0 0 17.24 7.75 43.45 43.45 0 0 0 4.31.66c1.44.14 2.94.22 4.44.22 1.5 0 2.98-.08 4.44-.22a43.23 43.23 0 0 0 21.54-8.41c.56-.41 1.11-.84 1.64-1.29a43.64 43.64 0 0 0 5.89-5.88c.89-1.08 1.72-2.19 2.5-3.35l.01.05a43.43 43.43 0 0 0 0-48.56 40.89 40.89 0 0 0-2.5-3.34 43.14 43.14 0 0 0-5.87-5.94c-.53-.44-1.08-.87-1.64-1.29a43.15 43.15 0 0 0-9.1-5.24 42.15 42.15 0 0 0-8.15-2.53Zm91.25-58c-24.29.027-43.972 19.71-44 44 0 24.3 19.7 44 44 44s44-19.7 44-44-19.7-44-44-44Zm0 16a4 4 0 0 1 4 4v20h20a4 4 0 1 1 0 8h-20v20a4 4 0 1 1-8 0v-20h-20a4 4 0 1 1 0-8h20v-20a4 4 0 0 1 4-4Z"/></g></svg>