<svg xmlns="http://www.w3.org/2000/svg" width="320" height="320" viewBox="0 0 320 320"><g id="Foundations/Icons/Brand-Icons/UI/Design-and-Development/05-angular-library" fill="none" fill-rule="evenodd" stroke="none" stroke-width="1"><path id="lg-icon-fill-primary" fill="#FFD500" d="M159.999 41.45 50.42 80.124l19.76 144.909 89.819 51.325 89.819-51.325 19.76-144.909L159.999 41.45Z"/><path id="Outlines" fill="#000" d="m160 16 136 48-24 176-112 64-112-64L24 64l136-48Zm0 8.483L32.806 69.374l22.587 165.637 104.606 59.775 104.607-59.775 22.587-165.637L160 24.483Zm-.001 16.967 109.579 38.674-19.76 144.909-89.819 51.325-89.819-51.325L50.42 80.124 159.999 41.45ZM201.134 176h-82.21l-23.872 53.626a4.052 4.052 0 0 1-.158.317l65.104 37.201 65.153-37.23a4.035 4.035 0 0 1-.055-.102l-.088-.186L201.134 176ZM159.999 49.933 59.226 85.498l18.347 134.546 10.353 5.916L160.03 64l72.09 161.931 10.304-5.887 18.347-134.546-100.772-35.565Zm.03 33.737L122.487 168h75.087L160.03 83.67Z"/></g></svg>