<svg xmlns="http://www.w3.org/2000/svg" width="320" height="320" viewBox="0 0 320 320"><g id="Foundations/Icons/Brand-Icons/Banking-and-Commerce/42-atm-card" fill="none" fill-rule="evenodd" stroke="none" stroke-width="1"><circle id="lg-icon-fill-primary" cx="103.25" cy="235.72" r="19.72" fill="#FFD500"/><path id="Half-tone" fill="#000" d="m172 272 .2.005a4 4 0 1 1-.4 0l.2-.005Zm32 0 .2.005a4 4 0 1 1-.4 0l.2-.005Zm-16-16 .2.005a4 4 0 1 1-.4 0l.2-.005Zm-16-16 .2.005a4 4 0 1 1-.4 0l.2-.005Zm32 0 .2.005a4 4 0 1 1-.4 0l.2-.005Zm-16-16 .2.005a4 4 0 1 1-.4 0l.2-.005Zm-16-16a4 4 0 1 1 0 8 4 4 0 0 1 0-8Zm32 0 .2.005a4 4 0 1 1-.4 0l.2-.005Zm-16-16 .2.005a4 4 0 1 1-.4 0l.2-.005Zm-16-16a4 4 0 1 1 0 8 4 4 0 0 1 0-8Zm32 0a4 4 0 1 1 0 8 4 4 0 0 1 0-8Zm-16-16a4 4 0 1 1 0 8 4 4 0 0 1 0-8Zm-16-16 .2.005a4 4 0 1 1-.4 0l.2-.005Zm32 0 .2.005a4 4 0 1 1-.4 0l.2-.005Zm-16-16 .2.005a4 4 0 1 1-.4 0l.2-.005Zm-16-16 .2.005a4 4 0 1 1-.4 0l.2-.005Zm32 0 .2.005a4 4 0 1 1-.4 0l.2-.005Zm-16-16 .2.005a4 4 0 1 1-.4 0L188 96Zm-16-16a4 4 0 1 1 0 8 4 4 0 0 1 0-8Zm32 0 .2.005a4 4 0 1 1-.4 0L204 80Zm-16-16 .2.005a4 4 0 1 1-.4 0L188 64Zm-16-16a4 4 0 1 1 0 8 4 4 0 0 1 0-8Zm32 0a4 4 0 1 1 0 8 4 4 0 0 1 0-8Z"/><path id="Outlines" fill="#000" d="M304 24a8 8 0 0 1 8 8v39a8 8 0 0 1-8 8h-35.611L280 288a8 8 0 0 1-7.75 7.996L272 296H48a8 8 0 0 1-8-8L51.611 79H16a8 8 0 0 1-7.996-7.75L8 71V32a8 8 0 0 1 8-8Zm-152 8h-40.21L108 144a4 4 0 1 1-8 0l3.79-112H62.244L48 288h104V32Zm65.043 0H160v256h63.8l-6.757-256Zm40.713 0h-32.713l6.757 256H272L257.756 32ZM103.25 208c15.314 0 27.733 12.406 27.75 27.72 0 15.305-12.405 27.714-27.71 27.72-15.305.005-27.719-12.395-27.73-27.7-.011-15.305 12.385-27.723 27.69-27.74Zm0 8a19.72 19.72 0 0 0-19.72 19.72c0 10.891 8.829 19.72 19.72 19.72 10.891 0 19.72-8.829 19.72-19.72 0-10.891-8.829-19.72-19.72-19.72ZM304 32h-38.223l2.167 39H304V32ZM52.056 71l2.167-39H16v39h36.056Z"/></g></svg>