<svg width="320" height="320" viewBox="0 0 320 320" xmlns="http://www.w3.org/2000/svg"><g id="Foundations/Icons/Brand-Icons/Energy-and-Resources/10-barn" stroke="none" stroke-width="1" fill="none" fill-rule="evenodd"><circle id="lg-icon-fill-primary" fill="#FFD500" cx="160" cy="107.988" r="44"/><path d="m160 287.988.2.005a4 4 0 1 1-.4 0l.2-.005Zm-32 0a4 4 0 1 1 0 8 4 4 0 0 1 0-8Zm64 0a4 4 0 1 1 0 8 4 4 0 0 1 0-8Zm-48-16a4 4 0 1 1 0 8 4 4 0 0 1 0-8Zm32 0a4 4 0 1 1 0 8 4 4 0 0 1 0-8Zm-16-16 .2.005a4 4 0 1 1-.4 0l.2-.005Zm-32 0a4 4 0 1 1 0 8 4 4 0 0 1 0-8Zm64 0a4 4 0 1 1 0 8 4 4 0 0 1 0-8Zm-48-16a4 4 0 1 1 0 8 4 4 0 0 1 0-8Zm32 0a4 4 0 1 1 0 8 4 4 0 0 1 0-8Zm-16-16 .2.005a4 4 0 1 1-.4 0l.2-.005Zm-32 0a4 4 0 1 1 0 8 4 4 0 0 1 0-8Zm64 0a4 4 0 1 1 0 8 4 4 0 0 1 0-8Zm-48-16a4 4 0 1 1 0 8 4 4 0 0 1 0-8Zm32 0a4 4 0 1 1 0 8 4 4 0 0 1 0-8Zm-16-16 .2.005a4 4 0 1 1-.4 0l.2-.005Zm-32 0a4 4 0 1 1 0 8 4 4 0 0 1 0-8Zm64 0a4 4 0 1 1 0 8 4 4 0 0 1 0-8Z" id="Half-tone" fill="#000"/><path d="M156.77 8.778a13.4 13.4 0 0 1 9 0l69.4 29a24.42 24.42 0 0 1 7.67 5.62l62 74.71a15.54 15.54 0 0 1 3.16 8.64v180.07a4.91 4.91 0 0 1-4.88 4.91h-37.84l-60.28.19a8.26 8.26 0 0 1-1 .07h-88c-.368 0-.736-.028-1.1-.08l-57.41-.18H16.88a4.91 4.91 0 0 1-4.88-4.91v-180.07a15.54 15.54 0 0 1 3.16-8.64l64.55-74.71a24.3 24.3 0 0 1 7.67-5.62ZM204 183.988h-88v119.92l23.85.07h45.66l18.49-.06v-119.93Zm-42.82-167.94a5.51 5.51 0 0 0-1.46.17l-69.36 29a16.72 16.72 0 0 0-4.64 3.41l-64.46 74.64a8.37 8.37 0 0 0-1.26 3.46v177h37.49l50.51.15v-119.89a8 8 0 0 1 8-8h88a8 8 0 0 1 8 8v119.91l53.26-.17H300v-111.31l-.11-65.67a8.42 8.42 0 0 0-1.27-3.48l-62-74.67a16.55 16.55 0 0 0-4.63-3.39l-69.39-29a5.615 5.615 0 0 0-1.42-.16ZM160 63.987a44 44 0 0 1 44 44c0 24.3-19.7 44-44 44s-44-19.7-44-44 19.7-44 44-44Zm-4 48h-31.77c1.889 16.701 15.069 29.881 31.77 31.77v-31.77Zm39.77 0H164v31.77c16.701-1.889 29.881-15.069 31.77-31.77ZM156 72.218c-16.701 1.89-29.881 15.069-31.77 31.77H156Zm8 0v31.77h31.77c-1.889-16.701-15.069-29.88-31.77-31.77Z" id="Outlines" fill="#000"/></g></svg>