<svg xmlns="http://www.w3.org/2000/svg" width="320" height="320" viewBox="0 0 320 320"><g id="Foundations/Icons/Brand-Icons/Sports-and-Pastimes/04-basketball" fill="none" fill-rule="evenodd" stroke="none" stroke-width="1"><path id="lg-icon-fill-primary" fill="#FFD500" d="M58.18 261.82c-56.231-56.235-56.231-147.405 0-203.64 1.89-1.9 3.84-3.73 5.82-5.51 2 1.78 3.93 3.61 5.82 5.51A143.003 143.003 0 0 1 112 160a143.003 143.003 0 0 1-42.18 101.82c-1.89 1.9-3.84 3.73-5.82 5.51-2-1.78-3.93-3.61-5.82-5.51Zm203.64 0c-1.89 1.9-3.84 3.73-5.82 5.51-2-1.78-3.93-3.61-5.82-5.51-56.231-56.235-56.231-147.405 0-203.64 1.89-1.9 3.84-3.73 5.82-5.51 2 1.78 3.93 3.61 5.82 5.51 56.231 56.235 56.231 147.405 0 203.64Z"/><path id="Half-tone" fill="#000" d="M68 224a4 4 0 1 1 0 8 4 4 0 0 1 0-8Zm184 0a4 4 0 1 1 0 8 4 4 0 0 1 0-8ZM52 208a4 4 0 1 1 0 8 4 4 0 0 1 0-8Zm32 0a4 4 0 1 1 0 8 4 4 0 0 1 0-8Zm184 0 .2.005a4 4 0 1 1-.4 0l.2-.005Zm-32 0 .2.005a4 4 0 1 1-.4 0l.2-.005ZM36 192l.2.005a4 4 0 1 1-.4 0L36 192Zm32 0 .2.005a4 4 0 1 1-.4 0L68 192Zm216 0 .2.005a4 4 0 1 1-.4 0l.2-.005Zm-32 0 .2.005a4 4 0 1 1-.4 0l.2-.005ZM52 176l.2.005a4 4 0 1 1-.4 0L52 176Zm32 0 .2.005a4 4 0 1 1-.4 0L84 176Zm184 0 .2.005a4 4 0 1 1-.4 0l.2-.005Zm-32 0 .2.005a4 4 0 1 1-.4 0l.2-.005ZM52 136l.2.005a4 4 0 1 1-.4 0L52 136Zm32 0 .2.005a4 4 0 1 1-.4 0L84 136Zm184 0 .2.005a4 4 0 1 1-.4 0l.2-.005Zm-32 0 .2.005a4 4 0 1 1-.4 0l.2-.005ZM36 120l.2.005a4 4 0 1 1-.4 0L36 120Zm32 0 .2.005a4 4 0 1 1-.4 0L68 120Zm216 0 .2.005a4 4 0 1 1-.4 0l.2-.005Zm-32 0 .2.005a4 4 0 1 1-.4 0l.2-.005ZM52 104l.2.005a4 4 0 1 1-.4 0L52 104Zm32 0 .2.005a4 4 0 1 1-.4 0L84 104Zm184 0a4 4 0 1 1 0 8 4 4 0 0 1 0-8Zm-32 0a4 4 0 1 1 0 8 4 4 0 0 1 0-8ZM68 88a4 4 0 1 1 0 8 4 4 0 0 1 0-8Zm184 0a4 4 0 1 1 0 8 4 4 0 0 1 0-8Z"/><path id="Outlines" fill="#000" d="M160 8C76.053 8 8 76.053 8 160s68.053 152 152 152 152-68.053 152-152S243.947 8 160 8Zm101.82 50.18A142.93 142.93 0 0 1 303.94 156h-95.88a142.93 142.93 0 0 1 42.12-97.82c1.89-1.9 3.84-3.73 5.82-5.51 2 1.78 3.93 3.61 5.82 5.51ZM200.05 156H164V16.06a142.79 142.79 0 0 1 85.84 31.39A151.59 151.59 0 0 0 200.05 156ZM156 16.06V156h-36A151.59 151.59 0 0 0 70.16 47.45 142.79 142.79 0 0 1 156 16.06ZM58.18 58.18c1.89-1.9 3.84-3.73 5.82-5.51 2 1.78 3.93 3.61 5.82 5.51A142.93 142.93 0 0 1 111.94 156H16.06a142.93 142.93 0 0 1 42.12-97.82Zm0 203.64A142.93 142.93 0 0 1 16.06 164h95.88a142.93 142.93 0 0 1-42.12 97.82c-1.89 1.9-3.84 3.73-5.82 5.51-2-1.78-3.93-3.61-5.82-5.51ZM120 164h36v139.94a142.79 142.79 0 0 1-85.84-31.39A151.59 151.59 0 0 0 120 164Zm44 139.94V164h36.05a151.59 151.59 0 0 0 49.79 108.55A142.79 142.79 0 0 1 164 303.94Zm97.82-42.12c-1.89 1.9-3.84 3.73-5.82 5.51-2-1.78-3.93-3.61-5.82-5.51A142.93 142.93 0 0 1 208.06 164h95.88a142.93 142.93 0 0 1-42.12 97.82Z"/></g></svg>