<svg width="320" height="320" viewBox="0 0 320 320" xmlns="http://www.w3.org/2000/svg"><g id="Foundations/Icons/Brand-Icons/Sports-and-Pastimes/01-basketball-hoop" stroke="none" stroke-width="1" fill="none" fill-rule="evenodd"><path id="lg-icon-fill-primary" fill="#FFD500" d="M70 142h178v12H70z"/><path d="M28 201a4 4 0 1 1 0 8 4 4 0 0 1 0-8Zm16-16a4 4 0 1 1 0 8 4 4 0 0 1 0-8Zm-16-16 .2.005a4 4 0 1 1-.4 0L28 169Zm16-16 .2.005a4 4 0 1 1-.4 0L44 153Zm-16-16 .2.005a4 4 0 1 1-.4 0L28 137Zm16-16 .2.005a4 4 0 1 1-.4 0L44 121Zm-16-16 .2.005a4 4 0 1 1-.4 0L28 105Zm16-16 .2.005a4 4 0 1 1-.4 0L44 89ZM28 73a4 4 0 1 1 0 8 4 4 0 0 1 0-8Zm16-16a4 4 0 1 1 0 8 4 4 0 0 1 0-8Z" id="Half-tone" fill="#000"/><path d="M160 8c107 0 152 40.87 152 40.87v175.439c0 4.404-3.582 7.974-8 7.974h-80l-7.25 72.549c-.422 4.082-3.883 7.178-8 7.157h-97.51a6.641 6.641 0 0 1-.77 0c-.25-.02-.5-.1-.74-.1a7.984 7.984 0 0 1-6.46-7.067l-6.802-72.539H16c-4.335 0-7.865-3.436-7.996-7.726L8 224.31V48.869S53 8 160 8Zm63.14 152.513H97.81l13.46 143.541h97.51l14.36-143.541Zm-31.21 7.973.2.001a3.996 3.996 0 0 1 3.872 3.918l-.002.2-4 119.617a3.994 3.994 0 0 1-3.799 3.853l-.201.005h-.13a4.006 4.006 0 0 1-2.791-1.26 3.98 3.98 0 0 1-1.08-2.631l.001-.226 4-119.618a3.996 3.996 0 0 1 3.733-3.851l.197-.008Zm-31.93.001a3.995 3.995 0 0 1 3.995 3.789l.005.199v119.617a3.994 3.994 0 0 1-4 3.988 3.995 3.995 0 0 1-3.995-3.789l-.005-.199V172.475a3.994 3.994 0 0 1 4-3.988Zm-28.011 3.66.011.198 4 119.618a3.98 3.98 0 0 1-1.079 2.858 4.005 4.005 0 0 1-2.565 1.245l-.226.014H132a3.996 3.996 0 0 1-3.988-3.658l-.012-.2-4-119.618a3.995 3.995 0 0 1 3.87-4.117 3.998 3.998 0 0 1 4.119 3.66ZM95.75 224.308l-.03-.001.748 7.975h.032l-.75-7.974ZM160 15.975c-88.72 0-133.24 28.648-144 36.712V224.31l79.72-.001-5.91-63.028a6.489 6.489 0 0 1-.013-.585l.008-.183H72c-4.335 0-7.865-3.436-7.996-7.725l-.004-.249v-8.974c0-4.404 3.582-7.975 8-7.975h8V56.844c0-4.404 3.582-7.975 8-7.975h144c4.418 0 8 3.57 8 7.975v78.745h8c4.418 0 8 3.57 8 7.975v8.974c0 4.404-3.582 7.975-8 7.975h-16.9v.817l-6.3 62.979H304V52.697c-4.51-3.33-14.95-10.307-31.89-17.285-21.68-8.871-58.72-19.437-112.11-19.437Zm88 127.589H72v8.974h176v-8.974Zm-16-86.72H88v78.745h144V56.844Z" id="Outlines" fill="#000"/></g></svg>