<svg width="320" height="320" viewBox="0 0 320 320" xmlns="http://www.w3.org/2000/svg"><g id="Foundations/Icons/Brand-Icons/Festive/02-bauble" stroke="none" stroke-width="1" fill="none" fill-rule="evenodd"><path d="M96 66.89c0-11.77 12-11.77 12-11.77h96c12 0 12 11.77 12 11.77v23.53H96V66.89Z" id="lg-icon-fill-primary" fill="#FFD500"/><path d="m148 272 .2.005a4 4 0 1 1-.4 0l.2-.005Zm32 0 .2.005a4 4 0 1 1-.4 0l.2-.005Zm32 0 .2.005a4 4 0 1 1-.4 0l.2-.005Zm-96 0 .2.005a4 4 0 1 1-.4 0l.2-.005Zm48-16 .2.005a4 4 0 1 1-.4 0l.2-.005Zm32 0a4 4 0 1 1 0 8 4 4 0 0 1 0-8Zm32 0 .2.005a4 4 0 1 1-.4 0l.2-.005Zm-96 0 .2.005a4 4 0 1 1-.4 0l.2-.005Zm-32 0a4 4 0 1 1 0 8 4 4 0 0 1 0-8Zm80-120 .2.005a4 4 0 1 1-.4 0l.2-.005Zm-32 0a4 4 0 1 1 0 8 4 4 0 0 1 0-8Zm-32 0 .2.005a4 4 0 1 1-.4 0l.2-.005Zm-32 0a4 4 0 1 1 0 8 4 4 0 0 1 0-8Zm128 0 .2.005a4 4 0 1 1-.4 0l.2-.005Zm32 0a4 4 0 1 1 0 8 4 4 0 0 1 0-8Zm-48-16 .2.005a4 4 0 1 1-.4 0l.2-.005Zm-32 0 .2.005a4 4 0 1 1-.4 0l.2-.005Zm-32 0 .2.005a4 4 0 1 1-.4 0l.2-.005Zm-32 0a4 4 0 1 1 0 8 4 4 0 0 1 0-8Zm128 0 .2.005a4 4 0 1 1-.4 0l.2-.005Zm-48-16 .2.005a4 4 0 1 1-.4 0l.2-.005Zm-32 0a4 4 0 1 1 0 8 4 4 0 0 1 0-8Zm-32 0 .2.005a4 4 0 1 1-.4 0l.2-.005Zm96 0a4 4 0 1 1 0 8 4 4 0 0 1 0-8Z" id="Half-tone" fill="#000"/><path d="M224 90.48V66.89c0-8-5.33-19.77-20-19.77h-44V0h-8v47.12h-44a23 23 0 0 0-9.52 2.29C91.82 52.67 88 59 88 66.89V96a119.82 119.82 0 0 0-48 96c0 4.098.206 8.193.62 12.27.31 3 .73 6 1.25 9 .36 2 .76 3.93 1.2 5.86.23 1 .46 1.93.71 2.89.487 1.92 1.027 3.817 1.62 5.69a116 116 0 0 0 6.4 16.31 120.45 120.45 0 0 0 17.43 26.51 117.533 117.533 0 0 0 3.88 4.26c.66.7 1.33 1.38 2 2.06 1.35 1.36 2.74 2.68 4.16 4 2.14 1.933 4.34 3.793 6.6 5.58a110.451 110.451 0 0 0 7 5.1 119.41 119.41 0 0 0 31.41 15.1c1.873.58 3.77 1.117 5.69 1.61a120.86 120.86 0 0 0 60 0 121.31 121.31 0 0 0 5.69-1.61 119.41 119.41 0 0 0 31.41-15.1 119.591 119.591 0 0 0 13.6-10.68c1.42-1.3 2.81-2.62 4.16-4 .68-.68 1.35-1.36 2-2.06a116.445 116.445 0 0 0 3.88-4.26A120.45 120.45 0 0 0 268.17 244a116 116 0 0 0 6.4-16.31c.587-1.873 1.127-3.77 1.62-5.69.25-1 .48-1.92.71-2.89.44-1.93.84-3.89 1.2-5.86.52-3 .94-6 1.25-9 .423-4.07.64-8.158.65-12.25a119.91 119.91 0 0 0-56-101.52ZM96 66.89c0-11.77 12-11.77 12-11.77h96c12 0 12 11.77 12 11.77v23.53H96V66.89ZM80.8 112.8a114.3 114.3 0 0 1 17.6-14.38h123.2a114.3 114.3 0 0 1 17.6 14.38 111.63 111.63 0 0 1 25.47 39.2H55.33a111.63 111.63 0 0 1 25.47-39.2Zm158.4 158.4a112 112 0 0 1-158.4 0A113 113 0 0 1 63 248h194a113 113 0 0 1-17.8 23.2Zm31.71-63.49a111.27 111.27 0 0 1-9.65 32.29H58.74a111.27 111.27 0 0 1-9.65-32.29 69.94 69.94 0 0 1-.45-3.42l9.7 9.71 5.66 5.66 5.66-5.66L88 195.66 106.34 214l5.66 5.66 5.66-5.66L136 195.66 154.34 214l5.66 5.66 5.66-5.66L184 195.66 202.34 214l5.66 5.66 5.66-5.66L232 195.66 250.34 214l5.66 5.66 5.66-5.66 9.7-9.71a69.94 69.94 0 0 1-.45 3.42Zm1.09-15.36-16 16-24-24-24 24-24-24-24 24-24-24-24 24-24-24-24 24-16-16V192a112.462 112.462 0 0 1 4.62-32h214.76a112.462 112.462 0 0 1 4.62 32v.35Z" id="Outlines" fill="#000"/></g></svg>