<svg width="320" height="320" viewBox="0 0 320 320" xmlns="http://www.w3.org/2000/svg"><g id="Foundations/Icons/Brand-Icons/UI/Group-Protection/07-benefits" stroke="none" stroke-width="1" fill="none" fill-rule="evenodd"><path d="M160 20c77.32 0 140 62.68 140 140s-62.68 140-140 140S20 237.32 20 160 82.68 20 160 20Zm0 31C99.801 51 51 99.801 51 160s48.801 109 109 109 109-48.801 109-109S220.199 51 160 51Zm0 35.733 20.978 46.28.083.192a4 4 0 0 0 3.358 2.308l49.456 4.082-34.962 30.213-.164.144c-1.061.99-4.508 4.483-4.15 5.901l10.114 50.184-42.586-26.225-.198-.116a4 4 0 0 0-4.056.116l-43.587 26.225 11.116-50.184.047-.213a4 4 0 0 0-1.362-3.832l-35.963-31.213 49.457-5.082a4 4 0 0 0 3.44-2.5L160 86.733Z" id="lg-icon-fill-primary" fill="#FFD500"/><path d="M160 236a4 4 0 1 1 0 8 4 4 0 0 1 0-8Zm64-32a4 4 0 1 1 0 8 4 4 0 0 1 0-8Zm-128 0a4 4 0 1 1 0 8 4 4 0 0 1 0-8Zm144-16a4 4 0 1 1 0 8 4 4 0 0 1 0-8Zm-160 0a4 4 0 1 1 0 8 4 4 0 0 1 0-8Zm160-32a4 4 0 1 1 0 8 4 4 0 0 1 0-8Zm-160 0a4 4 0 1 1 0 8 4 4 0 0 1 0-8Zm144-48a4 4 0 1 1 0 8 4 4 0 0 1 0-8Zm-128 0a4 4 0 1 1 0 8 4 4 0 0 1 0-8Zm112-16a4 4 0 1 1 0 8 4 4 0 0 1 0-8Zm-96 0a4 4 0 1 1 0 8 4 4 0 0 1 0-8Zm80-16a4 4 0 1 1 0 8 4 4 0 0 1 0-8Zm-64 0a4 4 0 1 1 0 8 4 4 0 0 1 0-8Z" id="Half-tone" fill="#000"/><path d="M160 16c79.529 0 144 64.471 144 144s-64.471 144-144 144S16 239.529 16 160 80.471 16 160 16Zm.392 8a134.669 134.669 0 0 0-95.886 39.722c-34.723 34.163-48.456 84.324-35.977 131.41 12.48 47.085 49.254 83.86 96.34 96.339 47.085 12.48 97.246-1.254 131.409-35.977 38.78-38.783 50.381-97.108 29.393-147.78C264.683 57.043 215.238 24.004 160.39 24ZM160 48c61.856 0 112 50.144 112 112s-50.144 112-112 112S48 221.856 48 160 98.144 48 160 48Zm-.047 8a103.315 103.315 0 0 0-73.514 30.481C51.367 121.574 45.97 176.556 73.547 217.8c27.578 41.244 80.45 57.263 126.28 38.26 45.832-19.003 71.856-67.735 62.158-116.392C252.286 91.01 209.567 55.979 159.953 56Zm3.676 26.316.083.193 19.753 49.192 52.89 3.587c3.468.235 4.953 4.43 2.577 6.802l-.136.13-.147.128-40.681 33.988 12.934 51.41c.849 3.373-2.69 6.084-5.682 4.548l-.163-.088-.161-.097L160 203.922l-44.896 28.187c-2.947 1.85-6.618-.677-6.081-3.998l.033-.182.042-.184 12.933-51.409-40.68-33.988c-2.667-2.227-1.404-6.492 1.91-7.017l.19-.026.194-.017 52.889-3.587 19.754-49.192c1.317-3.28 5.896-3.344 7.341-.193ZM160 94.733l-16.978 42.28a4 4 0 0 1-3.234 2.48l-.207.02-45.457 3.082 34.963 29.213a4 4 0 0 1 1.4 3.607l-.038.225-.047.213-11.116 44.184 38.587-24.225a4 4 0 0 1 3.842-.226l.214.11.198.116 38.586 24.225-11.115-44.184a4 4 0 0 1 .988-3.74l.163-.16.164-.145 34.962-29.213-45.456-3.082a4 4 0 0 1-3.261-2.114l-.097-.194-.083-.192L160 94.733Z" id="Outlines" fill="#000"/></g></svg>