<svg xmlns="http://www.w3.org/2000/svg" width="320" height="320" viewBox="0 0 320 320"><g id="Foundations/Icons/Brand-Icons/Transport/09-bicycle" fill="none" fill-rule="evenodd" stroke="none" stroke-width="1"><path id="Outlines" fill="#000" d="M256.962 130.99a63.43 63.43 0 0 0-12.719 1.29l-20.457-65.47a4 4 0 0 0-3.819-2.81h-23.996a4 4 0 0 0 0 7.999h21.056l8.75 27.996H118.431l-5.39-15.998h22.937a4 4 0 0 0 0-7.999H90.986a4 4 0 0 0 0 7.999h13.648a2.8 2.8 0 0 0 .06.28l6.62 19.647L90.445 137.3c-24.237-11.737-53.254-6.768-72.206 12.364-18.951 19.132-23.644 48.195-11.678 72.32 11.967 24.124 37.945 37.974 64.645 34.462 26.7-3.512 48.213-23.608 53.534-50.006a10.158 10.158 0 0 0 8.869 5.22h19.437c5.614-.006 10.163-4.556 10.168-10.17v-19.436a10.368 10.368 0 0 0-.51-3.17l66.62-67.54 7.21 23.067c-30.996 10.651-48.644 43.291-40.585 75.06 8.059 31.768 39.132 52.048 71.457 46.637 32.324-5.411 55.098-34.706 52.372-67.367-2.727-32.66-30.043-57.773-62.817-57.75Zm-35.575-22.997-63.99 64.88a10.208 10.208 0 0 0-4.35-.999h-10.389l-21.526-63.88h100.255Zm-106.774 5.73 19.607 58.161h-.61a10.168 10.168 0 0 0-9.539 6.689 63.2 63.2 0 0 0-26.666-37.314l17.208-27.536Zm3 74.259H68.208l24.997-39.994a54.992 54.992 0 0 1 24.446 39.994h-.04Zm-54.623 60.99c-22.526-.002-42.773-13.742-51.095-34.674-8.323-20.933-3.037-44.824 13.338-60.293 16.375-15.469 40.529-19.387 60.954-9.887L57.6 189.861a4 4 0 0 0 3.39 6.12h56.991c-1.077 29.587-25.385 53.011-54.992 52.992Zm92.227-47.482a2.18 2.18 0 0 1-2.17 2.17H133.61a2.18 2.18 0 0 1-2.17-2.17v-19.437a2.18 2.18 0 0 1 2.17-2.17h19.437a2.18 2.18 0 0 1 2.17 2.17v19.437Zm101.745 47.483c-26.827-.03-49.717-19.411-54.169-45.865-4.452-26.454 10.833-52.26 36.171-61.07l17.228 55.132a4 4 0 0 0 3.77 2.81 4 4 0 0 0 3.82-5.18l-17.129-54.811a54.992 54.992 0 1 1 10.309 108.984Z"/></g></svg>