<svg width="320" height="320" viewBox="0 0 320 320" xmlns="http://www.w3.org/2000/svg"><g id="Foundations/Icons/Brand-Icons/Sports-and-Pastimes/06-bowling-ball" stroke="none" stroke-width="1" fill="none" fill-rule="evenodd"><path d="M68 121c10.493 0 19 8.507 19 19s-8.507 19-19 19-19-8.507-19-19 8.507-19 19-19Zm56 0c10.493 0 19 8.507 19 19s-8.507 19-19 19-19-8.507-19-19 8.507-19 19-19ZM96 73c10.493 0 19 8.507 19 19s-8.507 19-19 19-19-8.507-19-19 8.507-19 19-19Z" id="lg-icon-fill-primary" fill="#FFD500"/><path d="M276 152a4 4 0 1 1 0 8 4 4 0 0 1 0-8Zm-16-16 .2.005a4 4 0 1 1-.4 0l.2-.005Zm-16-16 .2.005a4 4 0 1 1-.4 0l.2-.005Zm32 0a4 4 0 1 1 0 8 4 4 0 0 1 0-8Zm-16-16 .2.005a4 4 0 1 1-.4 0l.2-.005Zm-32 0a4 4 0 1 1 0 8 4 4 0 0 1 0-8Zm-16-16 .2.005a4 4 0 1 1-.4 0L212 88Zm32 0a4 4 0 1 1 0 8 4 4 0 0 1 0-8Zm-48-16 .2.005a4 4 0 1 1-.4 0L196 72Zm32 0a4 4 0 1 1 0 8 4 4 0 0 1 0-8Zm-16-16 .2.005a4 4 0 1 1-.4 0L212 56Zm-32 0a4 4 0 1 1 0 8 4 4 0 0 1 0-8Zm-16-16 .2.005a4 4 0 1 1-.4 0L164 40Zm32 0a4 4 0 1 1 0 8 4 4 0 0 1 0-8Z" id="Half-tone" fill="#000"/><path d="M160 8c83.947 0 152 68.053 152 152s-68.053 152-152 152S8 243.947 8 160 76.053 8 160 8Zm37.721 11.977C147.722 6.725 94.456 21.307 58.18 58.18 21.308 94.456 6.725 147.722 19.977 197.721c13.252 50 52.302 89.05 102.302 102.302 49.999 13.252 103.265-1.33 139.541-38.203 36.872-36.276 51.455-89.542 38.203-139.541-13.252-50-52.302-89.05-102.302-102.302ZM68 120c11.046 0 20 8.954 20 20s-8.954 20-20 20-20-8.954-20-20 8.954-20 20-20Zm56 0c11.046 0 20 8.954 20 20s-8.954 20-20 20-20-8.954-20-20 8.954-20 20-20Zm-56 8c-6.627 0-12 5.373-12 12s5.373 12 12 12 12-5.373 12-12-5.373-12-12-12Zm56 0c-6.627 0-12 5.373-12 12s5.373 12 12 12 12-5.373 12-12-5.373-12-12-12ZM96 72c11.046 0 20 8.954 20 20a20 20 0 0 1-20 20c-11.046 0-20-8.954-20-20s8.954-20 20-20Zm0 8c-6.627 0-12 5.373-12 12s5.373 12 12 12 12-5.373 12-12-5.373-12-12-12Z" id="Outlines" fill="#000"/></g></svg>