<svg width="320" height="320" viewBox="0 0 320 320" xmlns="http://www.w3.org/2000/svg"><g id="Foundations/Icons/Brand-Icons/House-and-Home/05-box" stroke="none" stroke-width="1" fill="none" fill-rule="evenodd"><path d="M291 288H32V176h259v112Zm0-120H8l8-95.34V72h288v.66l8 95.34h-21Z" id="lg-icon-fill-primary" fill="#FFD500"/><path d="M51.74 256.31a4 4 0 1 1 0 8 4 4 0 0 1 0-8Zm16-16a4 4 0 1 1 0 8 4 4 0 0 1 0-8Zm-16-16a4 4 0 1 1 0 8 4 4 0 0 1 0-8Zm32 0a4 4 0 1 1 0 8 4 4 0 0 1 0-8Zm-16-16a4 4 0 1 1 0 8 4 4 0 0 1 0-8Zm32 0a4 4 0 1 1 0 8 4 4 0 0 1 0-8Zm-48-16a4 4 0 1 1 0 8 4 4 0 0 1 0-8Zm32 0a4 4 0 1 1 0 8 4 4 0 0 1 0-8Zm32 0a4 4 0 1 1 0 8 4 4 0 0 1 0-8Z" id="Half-tone" fill="#000"/><path d="M312 72a8.14 8.14 0 0 0-.05-.87.68.68 0 0 0 0-.14c0-.2-.05-.4-.09-.6-.04-.2 0-.18-.07-.27l-.06-.23a2.68 2.68 0 0 0-.07-.27c-.07-.22-.15-.43-.23-.63a7.89 7.89 0 0 0-.46-.92l-.11-.19c-.06-.1-.12-.2-.19-.3-.07-.1-.21-.29-.32-.43l-.06-.1-32-40A8.005 8.005 0 0 0 272 24H48a8.005 8.005 0 0 0-6.25 3l-32 40-.06.1a7.34 7.34 0 0 0-.51.73l-.11.17-.1.17a6.47 6.47 0 0 0-.36.75c-.08.21-.16.42-.23.64a2.29 2.29 0 0 0-.07.28l-.06.22c0 .09-.05.18-.07.27-.02.09-.06.4-.09.6a.68.68 0 0 0 0 .14A8.14 8.14 0 0 0 8 72l-8 96a8 8 0 0 0 8 8h16v112a8 8 0 0 0 8 8h259a8 8 0 0 0 8-8V176h13a8.53 8.53 0 0 0 1.61-.16c.26-.06.52-.12.77-.2a8.09 8.09 0 0 0 4.25-3.17 7.44 7.44 0 0 0 .74-1.36A7.86 7.86 0 0 0 320 168l-8-96Zm-36-35 21.6 27H276V37ZM52 32h216v32H52V32Zm-8 5v27H22.4L44 37Zm247 251H32V176h259v112Zm0-120H8l8-95.34V72h288v.66l8 95.34h-21Z" id="Outlines" fill="#000"/></g></svg>