<svg xmlns="http://www.w3.org/2000/svg" width="320" height="320" viewBox="0 0 320 320"><g id="Foundations/Icons/Brand-Icons/Banking-and-Commerce/05-brief-case" fill="none" fill-rule="evenodd" stroke="none" stroke-width="1"><path id="lg-icon-fill-primary" fill="#FFD500" d="M116 163.2h88v33h-88z"/><path id="Half-tone" fill="#000" d="M52 272a4 4 0 1 1 0 8 4 4 0 0 1 0-8Zm32 0a4 4 0 1 1 0 8 4 4 0 0 1 0-8Zm32 0a4 4 0 1 1 0 8 4 4 0 0 1 0-8Zm32 0a4 4 0 1 1 0 8 4 4 0 0 1 0-8Zm32 0a4 4 0 1 1 0 8 4 4 0 0 1 0-8Zm32 0a4 4 0 1 1 0 8 4 4 0 0 1 0-8Zm32 0a4 4 0 1 1 0 8 4 4 0 0 1 0-8Zm32 0a4 4 0 1 1 0 8 4 4 0 0 1 0-8ZM68 256a4 4 0 1 1 0 8 4 4 0 0 1 0-8Zm32 0a4 4 0 1 1 0 8 4 4 0 0 1 0-8Zm32 0a4 4 0 1 1 0 8 4 4 0 0 1 0-8Zm32 0a4 4 0 1 1 0 8 4 4 0 0 1 0-8Zm32 0a4 4 0 1 1 0 8 4 4 0 0 1 0-8Zm32 0a4 4 0 1 1 0 8 4 4 0 0 1 0-8Zm32 0a4 4 0 1 1 0 8 4 4 0 0 1 0-8ZM52 240l.2.005A4 4 0 1 1 52 240Zm32 0 .2.005A4 4 0 1 1 84 240Zm32 0 .2.005a4 4 0 1 1-.2-.005Zm32 0 .2.005a4 4 0 1 1-.2-.005Zm32 0 .2.005a4 4 0 1 1-.2-.005Zm32 0 .2.005a4 4 0 1 1-.2-.005Zm32 0 .2.005a4 4 0 1 1-.2-.005Zm32 0 .2.005a4 4 0 1 1-.2-.005ZM68 224a4 4 0 1 1 0 8 4 4 0 0 1 0-8Zm32 0a4 4 0 1 1 0 8 4 4 0 0 1 0-8Zm32 0a4 4 0 1 1 0 8 4 4 0 0 1 0-8Zm32 0a4 4 0 1 1 0 8 4 4 0 0 1 0-8Zm32 0a4 4 0 1 1 0 8 4 4 0 0 1 0-8Zm32 0a4 4 0 1 1 0 8 4 4 0 0 1 0-8Zm32 0a4 4 0 1 1 0 8 4 4 0 0 1 0-8ZM52 208a4 4 0 1 1 0 8 4 4 0 0 1 0-8Zm32 0a4 4 0 1 1 0 8 4 4 0 0 1 0-8Zm32 0a4 4 0 1 1 0 8 4 4 0 0 1 0-8Zm32 0a4 4 0 1 1 0 8 4 4 0 0 1 0-8Zm32 0a4 4 0 1 1 0 8 4 4 0 0 1 0-8Zm32 0a4 4 0 1 1 0 8 4 4 0 0 1 0-8Zm32 0a4 4 0 1 1 0 8 4 4 0 0 1 0-8Zm32 0a4 4 0 1 1 0 8 4 4 0 0 1 0-8Z"/><path id="Outlines" fill="#000" d="M210 24a8 8 0 0 1 8 8v8h86a8 8 0 0 1 7.996 7.75L312 48v128a8 8 0 0 1-8 8h-8v112a8 8 0 0 1-8 8H32a8 8 0 0 1-8-8V184h-8a8 8 0 0 1-8-8V48a8 8 0 0 1 8-8h86v-8a8 8 0 0 1 7.75-7.996L110 24Zm-98 160H32v112h256V184h-80v8.2a8 8 0 0 1-7.75 7.996l-.25.004h-80a8 8 0 0 1-8-8V184Zm88-15.8h-80v24h80v-24ZM304 48H16v128h96v-7.8a8 8 0 0 1 7.75-7.996l.25-.004h80a8 8 0 0 1 8 8v7.8h96V48Zm-94-16H110v7.94h100V32Z"/></g></svg>