<svg width="320" height="320" viewBox="0 0 320 320" xmlns="http://www.w3.org/2000/svg"><g id="Foundations/Icons/Brand-Icons/UI/Design-and-Development/20-bug" stroke="none" stroke-width="1" fill="none" fill-rule="evenodd"><path d="M222.27 112c6.165 16.422 9.73 35.524 9.73 56 0 62.378-33.081 112-72 112s-72-49.622-72-112c0-20.476 3.565-39.578 9.73-56 12.618 12.003 36.127 20 62.27 20 26.075 0 49.53-7.955 62.171-19.906ZM188 100a8 8 0 1 0 0-16 8 8 0 0 0 0 16Zm-56 0a8 8 0 1 0 0-16 8 8 0 0 0 0 16Z" id="lg-icon-fill-primary" fill="#FFD500"/><path d="M176 260a4 4 0 1 1 0 8 4 4 0 0 1 0-8Zm-32 0a4 4 0 1 1 0 8 4 4 0 0 1 0-8Zm48-16a4 4 0 1 1 0 8 4 4 0 0 1 0-8Zm-64 0a4 4 0 1 1 0 8 4 4 0 0 1 0-8Zm80-16a4 4 0 1 1 0 8 4 4 0 0 1 0-8Zm-32 0a4 4 0 1 1 0 8 4 4 0 0 1 0-8Zm-32 0a4 4 0 1 1 0 8 4 4 0 0 1 0-8Zm-32 0a4 4 0 1 1 0 8 4 4 0 0 1 0-8Zm80-16a4 4 0 1 1 0 8 4 4 0 0 1 0-8Zm-64 0a4 4 0 1 1 0 8 4 4 0 0 1 0-8Zm80-16a4 4 0 1 1 0 8 4 4 0 0 1 0-8Zm-32 0a4 4 0 1 1 0 8 4 4 0 0 1 0-8Zm-32 0a4 4 0 1 1 0 8 4 4 0 0 1 0-8Zm-32 0a4 4 0 1 1 0 8 4 4 0 0 1 0-8Zm112-16a4 4 0 1 1 0 8 4 4 0 0 1 0-8Zm-32 0a4 4 0 1 1 0 8 4 4 0 0 1 0-8Zm-64 0a4 4 0 1 1 0 8 4 4 0 0 1 0-8Zm-32 0a4 4 0 1 1 0 8 4 4 0 0 1 0-8Zm112-16a4 4 0 1 1 0 8 4 4 0 0 1 0-8Zm-32 0a4 4 0 1 1 0 8 4 4 0 0 1 0-8Zm-32 0a4 4 0 1 1 0 8 4 4 0 0 1 0-8Zm-32 0a4 4 0 1 1 0 8 4 4 0 0 1 0-8Zm112-16a4 4 0 1 1 0 8 4 4 0 0 1 0-8Zm-32 0a4 4 0 1 1 0 8 4 4 0 0 1 0-8Zm-64 0a4 4 0 1 1 0 8 4 4 0 0 1 0-8Zm-32 0a4 4 0 1 1 0 8 4 4 0 0 1 0-8Zm112-16a4 4 0 1 1 0 8 4 4 0 0 1 0-8Zm-96 0a4 4 0 1 1 0 8 4 4 0 0 1 0-8Z" id="Half-tone" fill="#000"/><path d="m92.32 103.99.255-.602a137.977 137.977 0 0 1 2.735-6.001 128.92 128.92 0 0 1 3.28-6.3 121.167 121.167 0 0 1 3.241-5.47 111.2 111.2 0 0 1 4.355-6.41 105.949 105.949 0 0 1 2.87-3.735 100.623 100.623 0 0 1 2.309-2.758l.28-.32.165-.188-.66-.241C89.917 64.125 76 51.185 76 36a4 4 0 1 1 8 0l.01.573c.416 11.803 13.646 22.687 33.718 29.193l.27.086.022-.022.237-.22a82.37 82.37 0 0 1 2.848-2.497 78.527 78.527 0 0 1 3.446-2.719 74.077 74.077 0 0 1 3.252-2.28 69.733 69.733 0 0 1 3.46-2.14 66.139 66.139 0 0 1 3.6-1.93 62.159 62.159 0 0 1 4.859-2.155 59.205 59.205 0 0 1 1.053-.401l.08-.03a58.387 58.387 0 0 1 4.967-1.58 56.045 56.045 0 0 1 5.12-1.117 54.62 54.62 0 0 1 7.848-.748 54.422 54.422 0 0 1 2.42 0L160 48a54.404 54.404 0 0 1 14.377 1.933 56.505 56.505 0 0 1 4.891 1.57 59.074 59.074 0 0 1 3.735 1.532 62.126 62.126 0 0 1 4.806 2.414 65.863 65.863 0 0 1 .997.565L188.78 56a66.864 66.864 0 0 1 3.707 2.307 70.776 70.776 0 0 1 3.275 2.321 74.935 74.935 0 0 1 3.312 2.634 79.445 79.445 0 0 1 2.668 2.348l.251.232.008.009.305-.096c20.143-6.536 33.387-17.483 33.689-29.341L236 36l.005-.2A4 4 0 0 1 244 36c0 15.185-13.918 28.126-35.149 35.962l-.664.242-.217-.247a92.044 92.044 0 0 0 .385.437l.28.32a95.12 95.12 0 0 1 2.516 3.016 100.515 100.515 0 0 1 2.89 3.788 106.365 106.365 0 0 1 2.575 3.7 113.085 113.085 0 0 1 3.395 5.426 120.92 120.92 0 0 1 3.134 5.667 128.702 128.702 0 0 1 2.137 4.31l-.114-.24a133.285 133.285 0 0 1 2.882 6.494 140.871 140.871 0 0 1 1.777 4.52l.07.186a154.394 154.394 0 0 1 5.659 18.881l29.535-7.83 23.232-54.208a4 4 0 0 1 7.43 2.96l-.076.192-24 56a4 4 0 0 1-2.432 2.225l-.22.065-31.845 8.441C239.02 146.403 240 157.03 240 168c0 2.445-.049 4.874-.145 7.283l34.222 8.147 22.493-37.488a4 4 0 0 1 5.303-1.477l.185.105a4 4 0 0 1 1.477 5.303l-.105.185-24 40a4 4 0 0 1-4.153 1.876l-.203-.043-35.725-8.505c-.875 10.246-2.61 20.088-5.095 29.358l35.701 20.006.205.123a4 4 0 0 1 1.413 1.568l.101.217 24 55.76.077.19a4 4 0 0 1-7.339 3.16l-.086-.188-23.465-54.514-32.939-18.457C218.925 260.514 191.602 288 160 288c-31.563 0-58.857-27.418-71.874-67.242l-32.991 18.316-23.46 54.506-.087.187a4 4 0 0 1-7.339-3.158l.077-.191 24-55.76.102-.218a4 4 0 0 1 1.424-1.575l.206-.123 35.732-19.837c-2.503-9.295-4.251-19.167-5.132-29.447l-35.739 8.435a4 4 0 0 1-4.237-1.66l-.112-.175-24-40a4 4 0 0 1 6.746-4.295l.114.179 22.495 37.493 34.223-8.077A182.622 182.622 0 0 1 80 168c0-10.998.986-21.65 2.833-31.768l-31.85-8.363a4 4 0 0 1-2.563-2.084l-.097-.21-24-56a4 4 0 0 1 7.268-3.338l.086.187 23.229 54.203 29.555 7.763a154.271 154.271 0 0 1 5.711-18.994c.001 0 .001 0 0 0 .169-.45.339-.898.51-1.344l.089-.229c.173-.448.348-.893.525-1.336l.046-.116.097-.24c.288-.719.582-1.432.88-2.14Zm4.122 11.594-.246.715C90.977 131.721 88 149.287 88 168c0 60.229 30.841 108.565 68 111.825V135.936c-24.269-.777-45.694-8.583-59.558-20.352Zm127.117-.002-.36.304c-13.873 11.6-35.138 19.28-59.199 20.05v143.889c37.159-3.26 68-51.596 68-111.825 0-19.004-3.07-36.825-8.441-52.418ZM160 56l-1.014.011a45.461 45.461 0 0 0-1.222.044l.93-.036c-.408.012-.816.029-1.223.051l.293-.015c-.325.016-.649.035-.972.058l.679-.043a45.639 45.639 0 0 0-1.886.143l.673-.059c-.387.032-.774.069-1.16.11l.487-.05c-.334.032-.667.068-1 .107l.512-.056a46.1 46.1 0 0 0-1.667.208l.292-.039c-7.154.992-14.115 3.665-20.672 7.832a22.22 22.22 0 0 0-.447.285l.447-.285c-.28.178-.559.358-.837.541l.39-.256c-.384.249-.767.503-1.148.763l.758-.507c-.367.242-.733.489-1.098.74l.34-.233a66.594 66.594 0 0 0-5.383 4.085l.344-.287c-.305.253-.61.509-.912.769l.568-.482c-.324.272-.647.548-.969.828l.401-.346c-.309.265-.617.534-.923.806l.522-.46c-.287.25-.573.504-.859.76l.337-.3a68.74 68.74 0 0 0-.812.732l.475-.431a78.5 78.5 0 0 0-.914.836l.439-.405c-.418.382-.833.77-1.246 1.165l.807-.76a75.865 75.865 0 0 0-1.655 1.584l.421-.41c-.321.312-.641.629-.96.95l.539-.54a88.39 88.39 0 0 0-.75.75l-.7.722-.569.593c-5.753 6.101-10.933 13.465-15.356 21.846l-.269.515.27-.515c-.125.235-.248.47-.371.707l.101-.192a125.348 125.348 0 0 0-4.335 9.248l-.207.497.375.353c13.026 12.117 34.992 19.896 59.324 20.065L160 128c24.655 0 46.965-7.816 60.136-20.069l.374-.353-.207-.497a125.574 125.574 0 0 0-4.33-9.243l.153.3c-.134-.26-.268-.518-.404-.775l.25.475c-4.684-8.983-10.232-16.814-16.424-23.196l-.267-.274.267.274a85.65 85.65 0 0 0-.896-.91l.63.636a79.312 79.312 0 0 0-.897-.9l.267.265c-.361-.36-.724-.716-1.089-1.066l.822.8a77.751 77.751 0 0 0-.865-.841l.043.041a76.155 76.155 0 0 0-.922-.87l.88.829a77.7 77.7 0 0 0-1.073-1.008l.193.178c-.303-.281-.608-.56-.914-.835l.721.657c-.313-.29-.628-.575-.944-.856l.223.2a73.061 73.061 0 0 0-.9-.795l.677.595a72.823 72.823 0 0 0-.956-.837l.28.242c-.323-.28-.648-.557-.974-.83l.694.588c-.3-.257-.6-.511-.9-.762l.206.174a66.939 66.939 0 0 0-5.1-3.881l-.209-.142.208.142c-.3-.206-.602-.41-.905-.61l.697.468c-.314-.213-.63-.423-.946-.63l-.723-.465c-6.455-4.09-13.302-6.731-20.337-7.748a7.756 7.756 0 0 0-.259-.038l.259.038a46.2 46.2 0 0 0-1.648-.209l.567.066c-.349-.042-.697-.08-1.047-.114l.48.048a45.945 45.945 0 0 0-1.288-.12l.808.072c-.388-.037-.777-.07-1.167-.098l.36.026a45.817 45.817 0 0 0-1.089-.073l.729.047a45.59 45.59 0 0 0-.993-.06l.264.013a45.755 45.755 0 0 0-1.195-.05l.93.037c-.414-.02-.829-.036-1.244-.045L160 56Zm28 24c6.627 0 12 5.373 12 12s-5.373 12-12 12-12-5.373-12-12 5.373-12 12-12Zm-56 0c6.627 0 12 5.373 12 12s-5.373 12-12 12-12-5.373-12-12 5.373-12 12-12Zm56 8a4 4 0 1 0 0 8 4 4 0 0 0 0-8Zm-56 0a4 4 0 1 0 0 8 4 4 0 0 0 0-8Z" id="Outlines" fill="#000"/></g></svg>