<svg width="320" height="320" viewBox="0 0 320 320" xmlns="http://www.w3.org/2000/svg"><g id="Foundations/Icons/Brand-Icons/UI/Design-and-Development/11-build-trust" stroke="none" stroke-width="1" fill="none" fill-rule="evenodd"><path d="M184 203c50-25.507 75-50.864 75-76.072v-66.5L184 30l-75 30.429v66.499c0 25.208 25 50.565 75 76.072Z" id="lg-icon-fill-primary" fill="#FFD500"/><path d="M51.996 256.036a4 4 0 0 1 4 4.001 4 4 0 0 1-4 4.002 4 4 0 0 1-4-4.002 4 4 0 0 1 4-4.001Zm-15.998-16.008a4 4 0 0 1 4 4.002 4 4 0 0 1-4 4.002 4 4 0 0 1-4-4.002 4 4 0 0 1 4-4.002Zm15.998-16.007a4 4 0 0 1 4 4.002 4 4 0 0 1-4 4.002 4 4 0 0 1-4-4.002 4 4 0 0 1 4-4.002Zm-15.998-16.007a4 4 0 0 1 4 4.002 4 4 0 0 1-4 4.002 4 4 0 0 1-4-4.002 4 4 0 0 1 4-4.002Zm15.998-16.007a4 4 0 0 1 4 4.002 4 4 0 0 1-4 4.001 4 4 0 0 1-4-4.001 4 4 0 0 1 4-4.002Z" id="Half-tone" fill="#000"/><path d="M59.995 176c5.215 0 9.663 3.345 11.314 8.003h12.684c6.616 0 11.999 5.386 11.999 12.006l-.001.237c9.874-.296 49.452.347 72.774 27.772l32.058.003c8.159 0 14.853 6.659 15.338 15.033l54.074-21.836c.9-.339 8.123-2.887 13.308.71 2.033 1.41 4.457 4.277 4.457 9.932 0 12.473-12.202 19.458-15.255 21.01l-.294.147-.081.04c-5.22 3.33-74.04 46.943-99.385 46.943-23.069 0-62.74-18.327-77.263-25.437-1.159 5.414-5.978 9.483-11.729 9.483H27.998c-6.616 0-11.998-5.385-11.998-12.004v-80.037C16 181.385 21.382 176 27.999 176h31.996Zm35.995 28.263-.001 57.494c9.983 4.99 53.87 26.24 76.996 26.24 6.638 0 21.769-3.945 56.148-22.736 16.08-8.789 30.496-17.66 36.359-21.33l.44-.275c1.335-.837 2.14-1.35 2.309-1.458l.032-.02a4.023 4.023 0 0 1 .58-.31l.117-.058c1.485-.741 11.03-5.823 11.03-13.95 0-.988-.13-2.736-1.007-3.35-1.195-.837-4.136-.448-5.83.157l-59.351 23.966-.048.018c-2.734 4.438-7.514 7.385-12.941 7.385h-53.047a4 4 0 0 1-4-4.002 4 4 0 0 1 4-4.002h53.047c4.062 0 7.367-3.59 7.367-8.004 0-4.413-3.305-8.003-7.367-8.003h-33.94l-.105-.002h-.028l-.062-.004h-.016.003l-.059-.003c-.05-.003-.1-.007-.15-.013l-.079-.01a2.973 2.973 0 0 1-.135-.018l-.06-.01a3.055 3.055 0 0 1-.164-.032l-.032-.008a2.949 2.949 0 0 1-.16-.039l-.065-.018a3.88 3.88 0 0 1-.875-.37l-.046-.028a3.087 3.087 0 0 1-.129-.078l-.02-.014-.02-.014a2.793 2.793 0 0 1-.12-.081l-.047-.035a3.757 3.757 0 0 1-.62-.565 4.095 4.095 0 0 1-.155-.185l.021.026c-20.837-26.039-59.383-26.49-67.771-26.26Zm-11.997-12.256H71.994v80.036h11.999c2.206 0 4-1.795 4-4.002v-72.032a4.005 4.005 0 0 0-4-4.002Zm-23.998-8.004H28c-2.206 0-4 1.795-4 4.002v80.037c0 2.206 1.794 4 3.999 4h35.997v-84.037a4.005 4.005 0 0 0-4-4.002ZM184 24l80 32.364v70.727c0 26.81-26.667 53.78-80 80.909-52.8-26.857-79.464-53.559-79.992-80.105l-.008-.804V56.364L184 24Zm0 36.34-72 30.315v36.436c0 22.193 23.267 46.39 71.117 71.45l.883.461.883-.46c47.357-24.803 70.635-48.76 71.11-70.764l.007-.687V90.656L184 60.34Zm26.081 36.244a4 4 0 0 1 1.44 5.313l-.105.184-29.25 48a4 4 0 0 1-6.067.915l-.155-.146-18.75-18.461a4 4 0 0 1 5.452-5.85l.16.15 15.154 14.92 26.624-43.69a4 4 0 0 1 5.497-1.335ZM184 32.63l-72 29.126v20.219l72-30.315 72 30.315V61.757L184 32.63Z" id="Outlines" fill="#000"/></g></svg>