<svg width="320" height="320" viewBox="0 0 320 320" xmlns="http://www.w3.org/2000/svg"><g id="Foundations/Icons/Brand-Icons/Food-and-Drink/10-burger" stroke="none" stroke-width="1" fill="none" fill-rule="evenodd"><path d="M31.975 125.28v-3.22c1.85-60 57.13-94.06 120-94.06h16c62.86 0 118.14 34.2 119.94 94.38h.06v18.22l-256-.37v-14.95Zm59.63 71.32-22.63 22.63-22.63-22.63h45.26Zm196.37 48v40a8 8 0 0 1-8 8h-241a8 8 0 0 1-8-8v-40h257Z" id="lg-icon-fill-primary" fill="#FFD500"/><path d="M115.975 60.6a4 4 0 1 1 0 8 4 4 0 0 1 0-8Zm-32 0a4 4 0 1 1 0 8 4 4 0 0 1 0-8Zm96 0a4 4 0 1 1 0 8 4 4 0 0 1 0-8Zm-32 0a4 4 0 1 1 0 8 4 4 0 0 1 0-8Zm96 0a4 4 0 1 1 0 8 4 4 0 0 1 0-8Zm-32 0a4 4 0 1 1 0 8 4 4 0 0 1 0-8Zm-80-16 .2.005a4 4 0 1 1-.2-.005Zm64 0a4 4 0 1 1 0 8 4 4 0 0 1 0-8Zm-32 0a4 4 0 1 1 0 8 4 4 0 0 1 0-8Z" id="Half-tone" fill="#000"/><path d="M298.375 192.6a28 28 0 0 0-2.82-49.48 8 8 0 0 0 .42-2.52v-18.22c0-.398-.03-.796-.09-1.19a95.73 95.73 0 0 0-11.61-42.8 99.46 99.46 0 0 0-28.69-32.22c-23-16.87-54.11-26.17-87.61-26.17h-16c-33.49 0-64.6 9.26-87.59 26.07a99 99 0 0 0-28.7 32.12 95 95 0 0 0-11.62 42.67 7.88 7.88 0 0 0-.09 1.2v18.17a7.92 7.92 0 0 0 .53 2.84 28 28 0 0 0-2.93 49.53 28 28 0 0 0 2 49.07 8 8 0 0 0-.6 2.93v40c0 8.837 7.164 16 16 16h241c8.837 0 16-7.163 16-16v-40a8.06 8.06 0 0 0-.41-2.52 28 28 0 0 0 2.81-49.48Zm-266.4-67.32v-3.22c1.85-60 57.13-94.06 120-94.06h16c62.86 0 118.14 34.2 119.94 94.38h.06v18.22l-256-.37v-14.95Zm-16 43.32a19.89 19.89 0 0 1 1.15-6.62 19.36 19.36 0 0 1 1.26-2.91 20.27 20.27 0 0 1 3.45-4.61 19.94 19.94 0 0 1 14.14-5.86h248a19.94 19.94 0 0 1 14.14 5.86 20.27 20.27 0 0 1 3.45 4.61c.5.934.92 1.907 1.26 2.91a19.89 19.89 0 0 1 1.15 6.62c0 11.046-8.954 20-20 20h-248c-11.045 0-20-8.954-20-20Zm75.63 28-22.63 22.63-22.63-22.63h45.26Zm196.37 48v40a8 8 0 0 1-8 8h-241a8 8 0 0 1-8-8v-40h257Zm-4-8h-248c-11.045.11-20.09-8.754-20.2-19.8-.11-11.046 8.755-20.09 19.8-20.2a7.83 7.83 0 0 0 1.4 2l26.31 26.31a8 8 0 0 0 11.32 0l26.37-26.31a7.55 7.55 0 0 0 1.44-2h181.56c11.046 0 20 8.954 20 20s-8.954 20-20 20Z" id="Outlines" fill="#000"/></g></svg>