<svg xmlns="http://www.w3.org/2000/svg" width="320" height="320" viewBox="0 0 320 320"><g id="Foundations/Icons/Brand-Icons/UI/Action/03-calculator" fill="none" fill-rule="evenodd" stroke="none" stroke-width="1"><path id="lg-icon-fill-primary" fill="#FFD500" d="M68 20h184v104H68z"/><path id="Half-tone" fill="#000" d="M128 92a4 4 0 1 1 0 8 4 4 0 0 1 0-8Zm-32 0a4 4 0 1 1 0 8 4 4 0 0 1 0-8Zm48-16a4 4 0 1 1 0 8 4 4 0 0 1 0-8Zm-32 0a4 4 0 1 1 0 8 4 4 0 0 1 0-8Zm48-16a4 4 0 1 1 0 8 4 4 0 0 1 0-8Zm-32 0a4 4 0 1 1 0 8 4 4 0 0 1 0-8Zm48-16a4 4 0 1 1 0 8 4 4 0 0 1 0-8Zm-32 0a4 4 0 1 1 0 8 4 4 0 0 1 0-8Z"/><path id="Outlines" fill="#000" d="M256 296a8 8 0 0 1-8 8H72a8 8 0 0 1-8-8V24a8 8 0 0 1 8-8h176a8 8 0 0 1 8 8v272Zm-184 0h84v-80H72v80Zm176-80h-84v80h84v-80Zm0-8v-80h-84v80h84Zm-176 0h84v-80H72v80ZM248 24H72v96h176V24Zm-42 244a4 4 0 1 1 0 8 4 4 0 0 1 0-8Zm-73.03-28.97a4 4 0 0 1 0 5.656L121.658 256l11.314 11.314a4 4 0 0 1-5.657 5.657L116 261.657l-11.314 11.314a4 4 0 0 1-5.657-5.657L110.343 256 99.03 244.686a4 4 0 0 1 5.657-5.657L116 250.343l11.314-11.314a4 4 0 0 1 5.657 0ZM220 252a4 4 0 1 1 0 8h-28a4 4 0 1 1 0-8h28Zm-14-16a4 4 0 1 1 0 8 4 4 0 0 1 0-8Zm-90-92a4 4 0 0 1 4 4v16h16a4 4 0 1 1 0 8h-16v16a4 4 0 1 1-8 0v-16H96a4 4 0 1 1 0-8h16v-16a4 4 0 0 1 4-4Zm104 20a4 4 0 1 1 0 8h-28a4 4 0 1 1 0-8h28Z"/></g></svg>