<svg xmlns="http://www.w3.org/2000/svg" width="320" height="320" viewBox="0 0 320 320"><g id="Foundations/Icons/Brand-Icons/Banking-and-Commerce/16-calendar" fill="none" fill-rule="evenodd" stroke="none" stroke-width="1"><path id="lg-icon-fill-primary" fill="#FFD500" d="M228 219.95v62h-62v-62h62Zm-130 0v62H36v-62h62Zm65-64v62h-63v-62h63Zm125 0v62h-62v-62h62Zm-190-64v62H36v-62h62Zm128 0v62h-62v-62h62Z"/><path id="Half-tone" fill="#000" d="M132 263.95a4 4 0 1 1 0 8 4 4 0 0 1 0-8Zm-16-16a4 4 0 1 1 0 8 4 4 0 0 1 0-8Zm32 0a4 4 0 1 1 0 8 4 4 0 0 1 0-8Zm-16-16a4 4 0 1 1 0 8 4 4 0 0 1 0-8Zm-64-32a4 4 0 1 1 0 8 4 4 0 0 1 0-8Zm128 0a4 4 0 1 1 0 8 4 4 0 0 1 0-8Zm-144-16a4 4 0 1 1 0 8 4 4 0 0 1 0-8Zm32 0a4 4 0 1 1 0 8 4 4 0 0 1 0-8Zm96 0a4 4 0 1 1 0 8 4 4 0 0 1 0-8Zm32 0a4 4 0 1 1 0 8 4 4 0 0 1 0-8Zm-144-16a4 4 0 1 1 0 8 4 4 0 0 1 0-8Zm128 0a4 4 0 1 1 0 8 4 4 0 0 1 0-8Zm-64-32a4 4 0 1 1 0 8 4 4 0 0 1 0-8Zm-16-16a4 4 0 1 1 0 8 4 4 0 0 1 0-8Zm32 0a4 4 0 1 1 0 8 4 4 0 0 1 0-8Zm-16-16a4 4 0 1 1 0 8 4 4 0 0 1 0-8Z"/><path id="Outlines" fill="#000" d="M284 8a4 4 0 0 1 4 4v16.953h15.7a8.31 8.31 0 0 1 8.296 8.048l.004.254v266.444a8.31 8.31 0 0 1-8.3 8.301H16.3a8.31 8.31 0 0 1-8.3-8.301V37.255a8.31 8.31 0 0 1 8.3-8.302H32V12.001a4 4 0 1 1 8 0v16.952h33.329l.001-16.952a4 4 0 1 1 8 0l-.001 16.952h33.341V12.001a4 4 0 1 1 8 0v16.952H156V12.001a4 4 0 1 1 8 0v16.952h33.329l.001-16.952a4 4 0 1 1 8 0l-.001 16.952h33.341V12.001a4 4 0 1 1 8 0v16.952H280V12.001A4 4 0 0 1 284 8ZM32 36.954H16.3a.31.31 0 0 0-.3.3V303.7a.31.31 0 0 0 .3.3h287.4a.31.31 0 0 0 .3-.3V37.255a.31.31 0 0 0-.3-.3l-15.7-.001v19.004a4 4 0 1 1-8 0V36.954h-33.33v19.004a4 4 0 1 1-8 0V36.954h-33.341l.001 19.004a4 4 0 1 1-8 0l-.001-19.004H164v19.004a4 4 0 1 1-8 0V36.954h-33.33v19.004a4 4 0 1 1-8 0V36.954H81.329l.001 19.004a4 4 0 1 1-8 0l-.001-19.004H40v19.004a4 4 0 1 1-8 0V36.954Zm252 51.01a4 4 0 0 1 4 4v192.031a4 4 0 0 1-3.8 3.996l-.2.005H36a4 4 0 0 1-3.874-5 4.013 4.013 0 0 1-.126-1V91.963a4 4 0 0 1 4-4h248Zm-4 136.021h-48v56.009h48v-56.009Zm-186 0H40v56.009h54v-56.009Zm66 0h-58v56.009h58v-56.009Zm64 0h-56v56.009h56v-56.009Zm56-63.96h-48v55.959h48v-55.959Zm-186 0H40v55.959h54v-55.959Zm66 0h-58v55.959h58v-55.959Zm64 0h-56v55.959h56v-55.959ZM94 95.964H40v56.059h54V95.964Zm66 0h-58v56.059h58V95.964Zm64.001 0H168v56.059h56V96.014l.001-.05Zm55.999 0h-48v56.059h48V95.964Z"/></g></svg>