<svg xmlns="http://www.w3.org/2000/svg" width="320" height="320" viewBox="0 0 320 320"><g id="Foundations/Icons/Brand-Icons/Banking-and-Commerce/19-calendar-appointment" fill="none" fill-rule="evenodd" stroke="none" stroke-width="1"><ellipse id="lg-icon-fill-primary" cx="244.696" cy="75.953" fill="#FFD500" rx="61.921" ry="62.012"/><path id="Half-tone" fill="#000" d="M131.846 264a4 4 0 1 1 0 8 4 4 0 0 1 0-8Zm127.836 0a4 4 0 1 1 0 8 4 4 0 0 1 0-8Zm-143.815-16.003a4 4 0 1 1 0 8 4 4 0 0 1 0-8Zm31.959 0a4 4 0 1 1 0 8 4 4 0 0 1 0-8Zm95.877 0a4 4 0 1 1 0 8 4 4 0 0 1 0-8Zm31.959 0a4 4 0 1 1 0 8 4 4 0 0 1 0-8Zm-143.816-16.003a4 4 0 1 1 0 8 4 4 0 0 1 0-8Zm127.836 0a4 4 0 1 1 0 8 4 4 0 0 1 0-8ZM67.928 199.988a4 4 0 1 1 0 8 4 4 0 0 1 0-8Zm127.836 0a4 4 0 1 1 0 8 4 4 0 0 1 0-8ZM51.95 183.985a4 4 0 1 1 0 8 4 4 0 0 1 0-8Zm31.959 0a4 4 0 1 1 0 8 4 4 0 0 1 0-8Zm95.877 0a4 4 0 1 1 0 8 4 4 0 0 1 0-8Zm31.959 0a4 4 0 1 1 0 8 4 4 0 0 1 0-8ZM67.928 167.982a4 4 0 1 1 0 8 4 4 0 0 1 0-8Zm127.836 0a4 4 0 1 1 0 8 4 4 0 0 1 0-8Z"/><path id="Outlines" fill="#000" d="M244.087 8C281.594 8 312 38.45 312 76.013c0 3.318-.244 6.63-.73 9.912.226.757.34 1.542.34 2.33v215.443c-.005 4.583-3.713 8.296-8.289 8.302H16.29c-4.575-.006-8.283-3.72-8.289-8.302V88.256c.006-4.583 3.714-8.296 8.29-8.302h15.68V62.951c0-2.21 1.788-4 3.994-4a3.998 3.998 0 0 1 3.995 4v17.003h33.287V62.951c0-2.21 1.789-4 3.995-4a3.998 3.998 0 0 1 3.995 4v17.003h33.297V62.951c0-2.21 1.789-4 3.995-4a3.998 3.998 0 0 1 3.995 4v17.003h33.287V62.951c0-2.21 1.789-4 3.995-4a3.998 3.998 0 0 1 3.995 4v17.003h12.504c-.08-1.31-.13-2.62-.13-3.94C176.174 38.45 206.58 8 244.087 8ZM31.97 87.956H16.29a.31.31 0 0 0-.3.3v215.442a.31.31 0 0 0 .3.3h287.032l.068-.01a.31.31 0 0 0 .232-.29V108.66a67.966 67.966 0 0 1-18.496 21.502l.275-.21c-.141.109-.283.217-.426.325-14.508 10.946-33.155 15.876-51.867 12.805a67.763 67.763 0 0 1-33.171-15.443l.193.167a68.32 68.32 0 0 1-.532-.457l.339.29c-.22-.188-.439-.378-.656-.569l.317.279a68.293 68.293 0 0 1-.697-.615l.38.336c-.185-.163-.37-.327-.553-.492l.173.156a68.278 68.278 0 0 1-.617-.558l.444.402a68.098 68.098 0 0 1-.74-.676l-.373-.347-.56-.532a68.275 68.275 0 0 1-1.51-1.499l.26.265a68.134 68.134 0 0 1-.665-.683l.406.418a68.261 68.261 0 0 1-.586-.607l.18.19a68.124 68.124 0 0 1-.591-.625l.41.435a68.253 68.253 0 0 1-.617-.657l.207.222a68.12 68.12 0 0 1-.648-.702l.441.48a68.49 68.49 0 0 1-3.672-4.303l.166.212a68.08 68.08 0 0 1-.537-.688l.37.476a68.087 68.087 0 0 1-.573-.742l.203.266c-.192-.25-.382-.5-.571-.752l.368.486a68.057 68.057 0 0 1-.548-.729l.18.243c-.16-.215-.32-.43-.477-.646l.297.403a68.03 68.03 0 0 1-.532-.728l.235.325c-.204-.28-.407-.562-.607-.845l.372.52a68.02 68.02 0 0 1-.48-.675h-.001l-.504-.729-.514-.761a68.179 68.179 0 0 1-1.087-1.694l.085.138c-.155-.25-.31-.5-.462-.75l.377.612a67.9 67.9 0 0 1-.51-.833l.133.22a66.95 66.95 0 0 1-.467-.78l.334.56a67.89 67.89 0 0 1-.475-.801l.141.241c-.18-.305-.357-.612-.532-.92l.391.679a67.866 67.866 0 0 1-.44-.765l.049.085a67.908 67.908 0 0 1-.431-.77l.383.685a68.301 68.301 0 0 1-2.234-4.297 68.11 68.11 0 0 1-4.975-14.489l.066.3a68.4 68.4 0 0 1-.21-.957l.144.657c-.067-.3-.131-.6-.194-.903l.05.246a78.16 78.16 0 0 1-.177-.867l.127.621c-.066-.318-.13-.638-.192-.958l-.167-.897H163.8v19.004c0 2.21-1.788 4-3.995 4a3.998 3.998 0 0 1-3.995-4V87.956h-33.287v19.004c0 2.21-1.788 4-3.995 4a3.998 3.998 0 0 1-3.995-4V87.956H81.236v19.004c0 2.21-1.789 4-3.995 4a3.998 3.998 0 0 1-3.995-4V87.956H39.96v19.004c0 2.21-1.789 4-3.995 4a3.998 3.998 0 0 1-3.995-4V87.956Zm259.667 64.012a3.995 3.995 0 0 1 3.655 2.45c.226.504.34 1.05.34 1.601v127.975a3.998 3.998 0 0 1-3.995 4.001H35.964a3.998 3.998 0 0 1-3.995-4V156.018c0-.551.115-1.097.34-1.6a3.995 3.995 0 0 1 3.655-2.45Zm-195.75 72.015H39.96v56.01h55.928v-56.01Zm63.918 0h-55.928v56.01h55.928v-56.01Zm63.918 0h-55.928v56.01h55.928v-56.01Zm63.918 0h-55.928v56.01h55.928v-56.01Zm0-64.013h-55.928v56.011h55.928V159.97Zm-63.918 0h-55.928v56.011h55.928V159.97Zm-63.918 0h-55.928v56.011h55.928V159.97Zm-63.918 0H39.96v56.011h55.928V159.97Zm148.2-143.968c-33.095 0-59.923 26.868-59.923 60.011 0 1.32.06 2.63.15 4.001a58.614 58.614 0 0 0 1.048 8.002c5.671 27.97 30.227 48.07 58.725 48.07s53.054-20.1 58.725-48.07c.534-2.64.884-5.313 1.048-8.002.09-1.35.15-2.67.15-4 0-33.144-26.828-60.012-59.923-60.012Zm-.39 13.802a3.998 3.998 0 0 1 3.995 4.001v37.147h27.965a3.998 3.998 0 0 1 3.995 4.001c0 2.21-1.79 4.001-3.995 4.001h-35.954V33.805c0-2.21 1.788-4 3.995-4Z"/></g></svg>