<svg width="320" height="320" viewBox="0 0 320 320" xmlns="http://www.w3.org/2000/svg"><g id="Foundations/Icons/Brand-Icons/Entertainment-and-Technology/09-camera" stroke="none" stroke-width="1" fill="none" fill-rule="evenodd"><circle id="lg-icon-fill-primary" fill="#FFD500" cx="160" cy="176" r="76"/><path d="M188 176a4 4 0 1 1 0 8 4 4 0 0 1 0-8Zm16-16 .2.005a4 4 0 1 1-.4 0l.2-.005Zm-32 0 .2.005a4 4 0 1 1-.4 0l.2-.005Zm16-16 .2.005a4 4 0 1 1-.4 0l.2-.005Zm-32 0 .2.005a4 4 0 1 1-.4 0l.2-.005Zm16-16 .2.005a4 4 0 1 1-.4 0l.2-.005Z" id="Half-tone" fill="#000"/><path d="M72 32a8 8 0 0 1 8 8v24h231.7a8.31 8.31 0 0 1 8.3 8.3v207.4a8.31 8.31 0 0 1-8.3 8.3H8.3a8.31 8.31 0 0 1-8.3-8.3V72.3A8.31 8.31 0 0 1 8.3 64H16V40a8 8 0 0 1 8-8Zm239.7 40H8.3a.31.31 0 0 0-.3.3v207.4a.31.31 0 0 0 .3.3h303.4a.31.31 0 0 0 .3-.3V72.3a.31.31 0 0 0-.3-.3ZM292 136a4 4 0 0 1 4 4v112a4 4 0 1 1-8 0V140a4 4 0 0 1 4-4ZM160 96a80 80 0 0 1 80 80c0 44.183-35.817 80-80 80s-80-35.817-80-80 35.817-80 80-80ZM28 136a4 4 0 0 1 4 4v112a4 4 0 1 1-8 0V140a4 4 0 0 1 4-4Zm132-32c-39.765 0-72 32.235-72 72s32.235 72 72 72c39.746-.044 71.956-32.254 72-72 0-39.765-32.235-72-72-72Zm128-16a8 8 0 0 1 8 8v16a8 8 0 0 1-8 8h-32a8 8 0 0 1-8-8V96a8 8 0 0 1 8-8Zm0 8h-32v16h32V96ZM72 40H24v24h48V40Z" id="Outlines" fill="#000"/></g></svg>