<svg xmlns="http://www.w3.org/2000/svg" width="320" height="320" viewBox="0 0 320 320"><g id="Foundations/Icons/Brand-Icons/Transport/05-car" fill="none" fill-rule="evenodd" stroke="none" stroke-width="1"><path id="lg-icon-fill-primary" fill="#FFD500" d="M62.74 68h171.77l6.32 16H60.11l2.63-16ZM312 212h-24.19c-2.109-22.62-21.092-39.915-43.81-39.915-22.718 0-41.701 17.295-43.81 39.915h-76.38c-2.109-22.62-21.092-39.915-43.81-39.915-22.718 0-41.701 17.295-43.81 39.915H8v-48h24v-16h256v16h24v48Z"/><path id="Half-tone" fill="#000" d="M148 172a4 4 0 1 1 0 8 4 4 0 0 1 0-8Zm32 0a4 4 0 1 1 0 8 4 4 0 0 1 0-8Zm-16-16a4 4 0 1 1 0 8 4 4 0 0 1 0-8Zm-96 0a4 4 0 1 1 0 8 4 4 0 0 1 0-8Zm64 0a4 4 0 1 1 0 8 4 4 0 0 1 0-8Zm-32 0a4 4 0 1 1 0 8 4 4 0 0 1 0-8Zm96 0a4 4 0 1 1 0 8 4 4 0 0 1 0-8Zm64 0a4 4 0 1 1 0 8 4 4 0 0 1 0-8Zm-32 0a4 4 0 1 1 0 8 4 4 0 0 1 0-8Z"/><path id="Outlines" fill="#000" d="M312 156h-16v-8a8 8 0 0 0-8-8h-17a8 8 0 0 0-.86-3.62l-28.42-72a8 8 0 0 0-7.17-4.38H62.73a8 8 0 0 0-7.82 6.34l-11.86 72a7.86 7.86 0 0 0-.17 1.66H32a8 8 0 0 0-8 8v8H8a8 8 0 0 0-8 8v48a8 8 0 0 0 8 8h28.19c2.109 22.62 21.092 39.916 43.81 39.916 22.718 0 41.701-17.296 43.81-39.916h76.38c2.109 22.62 21.092 39.916 43.81 39.916 22.718 0 41.701-17.296 43.81-39.916H312a8 8 0 0 0 8-8v-48a8 8 0 0 0-8-8Zm-49.19-16.3.16.3H146V92h98l18.68 47.32.13.38ZM62.74 68h171.77l6.32 16H60.11l2.63-16Zm-11.83 71.82v-.18L58.79 92H138v48H50.87l.04-.18ZM80 252c-19.882 0-36-16.118-36-36s16.118-36 36-36 36 16.118 36 36-16.118 36-36 36Zm164 0c-19.882 0-36-16.118-36-36s16.118-36 36-36 36 16.118 36 36-16.118 36-36 36Zm68-40h-24.19c-2.109-22.62-21.092-39.915-43.81-39.915-22.718 0-41.701 17.295-43.81 39.915h-76.38c-2.109-22.62-21.092-39.915-43.81-39.915-22.718 0-41.701 17.295-43.81 39.915H8v-48h24v-16h256v16h24v48Z"/></g></svg>