<svg xmlns="http://www.w3.org/2000/svg" width="320" height="320" viewBox="0 0 320 320"><g id="Foundations/Icons/Brand-Icons/Online/29-card-payment" fill="none" fill-rule="evenodd" stroke="none" stroke-width="1"><circle id="lg-icon-fill-primary" cx="240" cy="92" r="64" fill="#FFD500"/><path id="Half-tone" fill="#000" d="M48 183.94a4 4 0 1 1 0 8 4 4 0 0 1 0-8Zm32 0a4 4 0 1 1 0 8 4 4 0 0 1 0-8Zm32 0a4 4 0 1 1 0 8 4 4 0 0 1 0-8Zm32 0a4 4 0 1 1 0 8 4 4 0 0 1 0-8Zm32 0a4 4 0 1 1 0 8 4 4 0 0 1 0-8Zm32 0 .2.005a4 4 0 1 1-.4 0l.2-.005Zm32 0 .2.005a4 4 0 1 1-.4 0l.2-.005Zm32 0a4 4 0 1 1 0 8 4 4 0 0 1 0-8Zm-240-16a4 4 0 1 1 0 8 4 4 0 0 1 0-8Zm32 0a4 4 0 1 1 0 8 4 4 0 0 1 0-8Zm32 0a4 4 0 1 1 0 8 4 4 0 0 1 0-8Zm32 0a4 4 0 1 1 0 8 4 4 0 0 1 0-8Zm32 0a4 4 0 1 1 0 8 4 4 0 0 1 0-8Zm32 0 .2.005a4 4 0 1 1-.4 0l.2-.005Zm32 0 .2.005a4 4 0 1 1-.4 0l.2-.005Zm32 0a4 4 0 1 1 0 8 4 4 0 0 1 0-8Zm-208-16a4 4 0 1 1 0 8 4 4 0 0 1 0-8Zm32 0a4 4 0 1 1 0 8 4 4 0 0 1 0-8Zm32 0a4 4 0 1 1 0 8 4 4 0 0 1 0-8Zm32 0a4 4 0 1 1 0 8 4 4 0 0 1 0-8Zm32 0a4 4 0 1 1 0 8 4 4 0 0 1 0-8Zm64 0 .2.005a4 4 0 1 1-.4 0l.2-.005Z"/><path id="Outlines" fill="#000" d="M240.107 24c23.99.008 46.196 12.69 58.418 33.363a68.101 68.101 0 0 1 1.118 67.34v163.295c0 4.42-3.578 8.002-7.99 8.002H19.99c-4.413 0-7.99-3.583-7.99-8.002V111.96c0-4.419 3.577-8.001 7.99-8.001h153.27a68.017 68.017 0 0 1 14.757-55.63A67.806 67.806 0 0 1 240.107 24Zm51.546 179.98H19.99v84.018h271.663V203.98Zm-39.95 24.005c13.238 0 23.97 10.748 23.97 24.005 0 13.258-10.732 24.006-23.97 24.006-13.24 0-23.971-10.748-23.971-24.006 0-13.257 10.732-24.005 23.97-24.005Zm0 8.002c-8.826 0-15.98 7.165-15.98 16.003 0 8.839 7.154 16.004 15.98 16.004 8.825 0 15.98-7.165 15.98-16.004 0-8.838-7.155-16.003-15.98-16.003Zm-95.882 12.002a3.998 3.998 0 0 1 3.995 4.001 3.998 3.998 0 0 1-3.795 3.996l-.2.005H43.961a3.998 3.998 0 0 1-3.996-4 3.998 3.998 0 0 1 3.796-3.997l.2-.005h111.86Zm135.832-111.764a63.984 63.984 0 0 1-3.436 3.74 67.736 67.736 0 0 1-48.11 20.063 67.736 67.736 0 0 1-48.11-20.062H19.99v56.012h271.663ZM240.107 32.002c-33.096 0-59.926 26.869-59.926 60.013s26.83 60.013 59.926 60.013c33.08-.038 59.887-26.885 59.925-60.013 0-33.144-26.83-60.013-59.925-60.013Zm-64.93 79.957H19.99v20.005h165.175a67.864 67.864 0 0 1-9.988-20.005Zm67.317-60.013c10.437 0 21.583 6.312 21.583 24.006 0 2.21-1.789 4-3.995 4a3.998 3.998 0 0 1-3.995-4c0-13.223-7.391-16.004-13.593-16.004-7.467.006-13.518 6.066-13.523 13.543v.14c.104 3.482.485 6.95 1.138 10.372h17.978a3.998 3.998 0 0 1 3.995 4.001 3.998 3.998 0 0 1-3.995 4.001h-16.28l.16.72c1.947 8.282 3.805 16.284 1.308 23.285h30.782l-.01-.04a3.998 3.998 0 0 1 3.995 4.001 3.998 3.998 0 0 1-3.995 4.001h-47.94a3.998 3.998 0 0 1-3.996-4 4 4 0 0 1 3.995-4.002h8.19c3.486-4.93 2.258-11.262-.13-21.454-.19-.84-.389-1.69-.589-2.551h-7.47a3.998 3.998 0 0 1-3.996-4 4 4 0 0 1 3.995-4.002h5.853a69.894 69.894 0 0 1-.999-10.342v-.25c.072-11.858 9.693-21.43 21.534-21.425Z"/></g></svg>