<svg width="320" height="320" viewBox="0 0 320 320" xmlns="http://www.w3.org/2000/svg"><g id="Foundations/Icons/Brand-Icons/Online/20-card-confirmation" stroke="none" stroke-width="1" fill="none" fill-rule="evenodd"><circle id="lg-icon-fill-primary" fill="#FFD500" cx="240" cy="91.94" r="60"/><path d="M48 183.94a4 4 0 1 1 0 8 4 4 0 0 1 0-8Zm32 0a4 4 0 1 1 0 8 4 4 0 0 1 0-8Zm32 0a4 4 0 1 1 0 8 4 4 0 0 1 0-8Zm32 0a4 4 0 1 1 0 8 4 4 0 0 1 0-8Zm32 0a4 4 0 1 1 0 8 4 4 0 0 1 0-8Zm32 0 .2.005a4 4 0 1 1-.2-.005Zm32 0 .2.005a4 4 0 1 1-.2-.005Zm32 0a4 4 0 1 1 0 8 4 4 0 0 1 0-8Zm-240-16a4 4 0 1 1 0 8 4 4 0 0 1 0-8Zm32 0a4 4 0 1 1 0 8 4 4 0 0 1 0-8Zm32 0a4 4 0 1 1 0 8 4 4 0 0 1 0-8Zm32 0a4 4 0 1 1 0 8 4 4 0 0 1 0-8Zm32 0a4 4 0 1 1 0 8 4 4 0 0 1 0-8Zm32 0 .2.005a4 4 0 1 1-.2-.005Zm32 0 .2.005a4 4 0 1 1-.2-.005Zm32 0a4 4 0 1 1 0 8 4 4 0 0 1 0-8Zm-208-16a4 4 0 1 1 0 8 4 4 0 0 1 0-8Zm32 0a4 4 0 1 1 0 8 4 4 0 0 1 0-8Zm32 0a4 4 0 1 1 0 8 4 4 0 0 1 0-8Zm32 0a4 4 0 1 1 0 8 4 4 0 0 1 0-8Zm32 0a4 4 0 1 1 0 8 4 4 0 0 1 0-8Zm64 0 .2.005a4 4 0 1 1-.2-.005Z" id="Half-tone" fill="#000"/><path d="M240.39 24A68 68 0 0 1 300 124.68v163.26a8 8 0 0 1-8 8H20a8 8 0 0 1-8-8v-176a8 8 0 0 1 8-8h153.46A67.93 67.93 0 0 1 240.39 24ZM292 207.94H20v80h272v-80Zm-136 40a4 4 0 1 1 0 8H44a4 4 0 1 1 0-8ZM292 136.2a69.44 69.44 0 0 1-7.79 7.74c-25.286 21.413-62.344 21.413-87.63 0H20v56h272Zm-25.144-98.047a60 60 0 0 0-85.266 65.787 61 61 0 0 0 2.22 8 60 60 0 0 0 86.55 32A60.22 60.22 0 0 0 292 122.55a59.46 59.46 0 0 0 6.43-15.35 59.58 59.58 0 0 0 1.96-15.2 60 60 0 0 0-33.534-53.847ZM175.38 111.94H20v24h168.56a67.91 67.91 0 0 1-13.18-24Zm102.79-46.83a4.002 4.002 0 0 1 5.66 5.66L225 129.6l-26.83-26.83a4.002 4.002 0 1 1 5.66-5.66L225 118.28Z" id="Outlines" fill="#000"/></g></svg>