<svg width="320" height="320" viewBox="0 0 320 320" xmlns="http://www.w3.org/2000/svg"><g id="Foundations/Icons/Brand-Icons/Construction/02-cargo" stroke="none" stroke-width="1" fill="none" fill-rule="evenodd"><path id="lg-icon-fill-primary" fill="#FFD500" d="M59.953 120h200v192h-200z"/><path d="M75.953 264a4 4 0 1 1 0 8 4 4 0 0 1 0-8Zm168 0a4 4 0 1 1 0 8 4 4 0 0 1 0-8Zm-152-16a4 4 0 1 1 0 8 4 4 0 0 1 0-8Zm136 0a4 4 0 1 1 0 8 4 4 0 0 1 0-8Zm-152-16a4 4 0 1 1 0 8 4 4 0 0 1 0-8Zm168 0a4 4 0 1 1 0 8 4 4 0 0 1 0-8Zm-152-16a4 4 0 1 1 0 8 4 4 0 0 1 0-8Zm136 0a4 4 0 1 1 0 8 4 4 0 0 1 0-8Zm-152-16a4 4 0 1 1 0 8 4 4 0 0 1 0-8Zm168 0a4 4 0 1 1 0 8 4 4 0 0 1 0-8Zm-152-16a4 4 0 1 1 0 8 4 4 0 0 1 0-8Zm136 0a4 4 0 1 1 0 8 4 4 0 0 1 0-8Zm-152-16a4 4 0 1 1 0 8 4 4 0 0 1 0-8Zm168 0a4 4 0 1 1 0 8 4 4 0 0 1 0-8Z" id="Half-tone" fill="#000"/><path d="M155.953 0v14.29a28 28 0 0 0-20.63 41L67.303 112h-7A8.482 8.482 0 0 0 52 120.63v190.74a8.482 8.482 0 0 0 8.252 8.63h199.4a8.482 8.482 0 0 0 8.301-8.63V120.63a8.482 8.482 0 0 0-8.301-8.63h-7l-68-56.68a28 28 0 0 0-20.63-41V0m1.53 216.23 94.4-90.68v180.92l-94.4-90.24Zm-9.6-193.83a20.2 20.2 0 0 1 8 0 20 20 0 0 1 16 19.6 19.8 19.8 0 0 1-1.7 8 20.12 20.12 0 0 1-4.65 6.54c-7.666 7.226-19.635 7.226-27.3 0a20.12 20.12 0 0 1-4.65-6.54 19.8 19.8 0 0 1-1.7-8 20 20 0 0 1 16-19.6Zm-15.85 39.35a28 28 0 0 0 39.7 0l60.3 50.25h-160.3l60.3-50.25ZM70.203 120h184l-94.48 90.7-94.98-90.7h5.46Zm-10.25 186.46v-180l94 89.76-94 90.24Zm136 5.54H65.733l94-90.22 94.43 90.22h-58.21Z" id="Outlines" fill="#000"/></g></svg>