<svg xmlns="http://www.w3.org/2000/svg" width="320" height="320" fill="none"><g id="am-cash-liquidity"><path id="lg-icon-fill-primary" fill="#42aeea" d="M288 204a4 4 0 0 1 4 4v16a4 4 0 0 1-4 4h-12v20a4 4 0 0 1-4 4H64a4 4 0 0 1-4-4v-20H40a4 4 0 0 1-4-4v-16a4 4 0 0 1 4-4zm-132-30.424c-14.347-8.299-24-23.81-24-41.576s9.653-33.278 24-41.577zm48-83.153c14.347 8.3 24 23.81 24 41.577 0 17.766-9.653 33.277-24 41.576zM92 116c8.837 0 16 7.163 16 16s-7.163 16-16 16-16-7.163-16-16 7.163-16 16-16m176 0c8.837 0 16 7.163 16 16s-7.163 16-16 16-16-7.163-16-16 7.163-16 16-16"/><g id="Outlines" fill="#1d1d1b"><path fill-rule="evenodd" d="M268 112c11.046 0 20 8.954 20 20s-8.954 20-20 20-20-8.954-20-20 8.954-20 20-20m0 8c-6.627 0-12 5.373-12 12s5.373 12 12 12 12-5.373 12-12-5.373-12-12-12" clip-rule="evenodd"/><path fill-rule="evenodd" d="M200 52a8 8 0 0 1 6.927 4H304a8 8 0 0 1 8 8v136a8 8 0 0 1-8 8h-8v16a8 8 0 0 1-8 8h-8v16a8 8 0 0 1-8 8h-65.073a8 8 0 0 1-6.927 4h-40a8 8 0 0 1-6.927-4H60a4 4 0 0 1 0-8h92v-16H36a4 4 0 0 1 0-8h116v-16H12a4 4 0 0 1 0-8h140v-24.179c-14.432-9.24-24-25.412-24-43.821s9.567-34.583 24-43.823V64H12a4 4 0 0 1 0-8h141.073A8 8 0 0 1 160 52zm-40 200h40v-44h-40zm48-4h64v-16h-64zm0-24h80v-16h-80zm-48-24h40V60h-40zm48-111.823c14.433 9.24 24 25.414 24 43.823s-9.568 34.581-24 43.821V200h96V64h-96zm-56 9.883c-9.771 8.071-16 20.277-16 33.94s6.229 25.868 16 33.938zm56 67.878c9.771-8.07 16-20.276 16-33.938s-6.229-25.869-16-33.94z" clip-rule="evenodd"/><path d="M92 164a4 4 0 0 1 0 8H28a4 4 0 0 1 0-8z"/><path fill-rule="evenodd" d="M92 112c11.046 0 20 8.954 20 20s-8.954 20-20 20c-9.676 0-17.746-6.871-19.6-16H36a4 4 0 0 1 0-8h36.4c1.853-9.129 9.924-16 19.6-16m0 8c-6.627 0-12 5.373-12 12s5.373 12 12 12 12-5.373 12-12-5.373-12-12-12" clip-rule="evenodd"/><path d="M84 92a4 4 0 0 1 0 8H20a4 4 0 0 1 0-8z"/></g></g></svg>