<svg width="320" height="320" viewBox="0 0 320 320" xmlns="http://www.w3.org/2000/svg"><g id="Foundations/Icons/Brand-Icons/UI/Financial/02-cash" stroke="none" stroke-width="1" fill="none" fill-rule="evenodd"><circle id="lg-icon-fill-primary" fill="#FFD500" cx="111" cy="208" r="64"/><path d="M154.521 80.055a4 4 0 1 1 0 8 4 4 0 0 1 0-8Zm32 0a4 4 0 1 1 0 8 4 4 0 0 1 0-8Zm32 0a4 4 0 1 1 0 8 4 4 0 0 1 0-8Zm-80-16a4 4 0 1 1 0 8 4 4 0 0 1 0-8Zm32 0a4 4 0 1 1 0 8 4 4 0 0 1 0-8Zm32 0a4 4 0 1 1 0 8 4 4 0 0 1 0-8Zm32 0a4 4 0 1 1 0 8 4 4 0 0 1 0-8Zm32 0a4 4 0 1 1 0 8 4 4 0 0 1 0-8Zm-144-16a4 4 0 1 1 0 8 4 4 0 0 1 0-8Zm32 0a4 4 0 1 1 0 8 4 4 0 0 1 0-8Zm32 0a4 4 0 1 1 0 8 4 4 0 0 1 0-8Zm32 0a4 4 0 1 1 0 8 4 4 0 0 1 0-8Zm32 0a4 4 0 1 1 0 8 4 4 0 0 1 0-8Zm-80-16a4 4 0 1 1 0 8 4 4 0 0 1 0-8Zm32 0a4 4 0 1 1 0 8 4 4 0 0 1 0-8Zm32 0a4 4 0 1 1 0 8 4 4 0 0 1 0-8Z" id="Half-tone" fill="#000"/><path d="M164.081 17.644c21.297-2.348 44.796-2.18 66.054.5a198.838 198.838 0 0 1 30.554 6.106c9.163 2.659 18.376 6.097 26.482 11.225 7.456 4.717 14.493 11.564 16.21 20.559a22.285 22.285 0 0 1-1.856 13.633 27.93 27.93 0 0 1-3.714 5.757 35.375 35.375 0 0 1-2.555 2.778c-.4.39-1.378 1.69-1.996 1.61a32.872 32.872 0 0 1 7.865 9.295 22.404 22.404 0 0 1 2.516 14.812c-1.138 6.457-5.24 11.884-10.122 16.082 5.9 5.067 10.481 11.994 10.481 19.99 0 7.995-4.582 14.922-10.48 19.99a33.083 33.083 0 0 1 7.705 9.264 22.414 22.414 0 0 1 2.416 14.633c-1.138 6.457-5.24 11.894-10.122 16.082a33.083 33.083 0 0 1 7.706 9.265 22.414 22.414 0 0 1 2.416 14.632c-1.138 6.457-5.24 11.894-10.122 16.082a31.658 31.658 0 0 1 8.485 10.874 22.145 22.145 0 0 1 1.078 15.253 28.619 28.619 0 0 1-8.165 12.593c-5.99 5.607-13.426 9.485-20.962 12.534a153.757 153.757 0 0 1-27.33 7.995c-21.315 4.151-45.064 5.625-66.743 4.388a248.794 248.794 0 0 1-31.941-3.588c-1.348-.25-2.705-.51-4.053-.78l-1.657-.34a3.11 3.11 0 0 0-1.867.26c-2.525.84-5.09 1.56-7.685 2.19-33.417 7.457-68.269-3.503-91.427-28.751-23.159-25.25-31.106-60.95-20.847-93.657 10.258-32.706 37.163-57.448 70.58-64.906a25.071 25.071 0 0 1-4.253-8.995c-2.336-9.805 2.715-18.85 10.022-25.097-.52.13-1.657-1.27-1.996-1.61a33.429 33.429 0 0 1-2.137-2.298c-5.61-6.627-8.215-15.392-4.99-23.818 3.224-8.426 10.86-14.443 18.506-18.7 8.385-4.688 17.688-7.816 26.95-10.265a210.05 210.05 0 0 1 30.994-5.577Zm-33.348 104.794c-30.922-7.38-63.413 2.544-84.956 25.948-26.715 28.982-30.835 72.25-10.072 105.766a88.605 88.605 0 0 0 24.955 26.246 87.438 87.438 0 0 0 34.128 14.083c42.667 7.705 84.568-16.915 98.66-57.97a88.563 88.563 0 0 0 3.993-40.07 91.205 91.205 0 0 0-1.158-6.776 109.4 109.4 0 0 0-.839-3.578c-.13-.48-.25-.95-.38-1.42l-.199-.7c-8.684-30.618-33.21-54.15-64.132-61.53ZM287.07 244.946c-.56-.23-.16-.16-.659 0-.56.267-1.095.585-1.597.95-1.038.6-2.106 1.17-3.174 1.719a108.721 108.721 0 0 1-15.562 6.387c-19.395 6.396-41.997 9.005-62.32 9.685-2.815.09-5.62.16-8.435.16h-6.128c-.26 0-.799-.11-.999 0-.2.11-.449.62-.579.8a97.516 97.516 0 0 1-9.392 10.994 96.462 96.462 0 0 1-23.458 17.29 253.135 253.135 0 0 0 35.526 2.89c21.25.299 44.861-1.55 65.454-7.067 9.942-2.659 20.053-6.177 28.638-11.994 3.833-2.599 7.526-5.797 9.762-9.915a14.379 14.379 0 0 0-.16-14.213l.03.04a25.747 25.747 0 0 0-5.78-6.726 6.29 6.29 0 0 0-1.167-1ZM121.735 141.343c35.717 6.002 60.378 39.107 55.942 75.098a67.632 67.632 0 0 1-2.446 11.504c-10.587 34.68-46.575 54.859-81.637 45.775-35.063-9.084-56.76-44.208-49.22-79.678 7.54-35.47 41.643-58.7 77.36-52.699Zm-11.13 6.954-.953.01c-31.81.581-57.536 26.118-58.394 57.964-.857 31.846 23.458 58.733 55.191 61.03 31.734 2.296 59.657-20.81 63.382-52.45.415-3.568.512-7.167.29-10.754-1.978-31.157-27.602-55.386-58.567-55.795l-.95-.005Zm176.246 56.58c-.23-.02-.928.55-1.118.67l-1.128.65a90.89 90.89 0 0 1-11.858 5.567c-15.691 6.156-32.56 9.255-49.28 10.894-4.465.453-10.937.786-15.416 1l-1.996.09a5.254 5.254 0 0 0-.789 0c-.619.16-.26-.08-.449.38a17.52 17.52 0 0 0-.559 2.998 86.504 86.504 0 0 1-1.447 6.096 95.48 95.48 0 0 1-9.453 22.709c9.053.022 20.101-.412 29.11-1.3 15.981-1.569 32.182-4.477 47.155-10.344 11.658-4.568 33.349-15.852 24.365-31.634l.03.04a24.122 24.122 0 0 0-4.372-5.427c-.439-.41-.878-.81-1.327-1.2a2.886 2.886 0 0 1-.352-.318l-.228-.23c-.317-.315-.671-.64-.888-.64Zm-166.4-35.671a19.98 19.98 0 0 1 12.677 13.692c.566 2 .924 4.054 1.068 6.127.01.147.022.296.034.446l.034.452c.131 1.818.156 3.736-1.316 5.03a4.039 4.039 0 0 1-5.28 0c-1.697-1.5-1.288-3.789-1.468-5.788-.31-3.418-1.287-6.956-3.683-9.515a11.883 11.883 0 0 0-6.708-3.438c-7.197-1.25-14.503 2.788-16.25 10.135a20.356 20.356 0 0 0-.22 6.276c.12 1.486.29 2.966.51 4.438.09.61.189 1.21.289 1.82.022.366.09.728.2 1.079.2.145 1.042.026 1.389.003l.088-.003h3.214c4.412 0 8.854-.14 13.266 0 3.923.12 5.57 5.377 2.046 7.446-1.414.83-3.478.582-5.099.552l-.281-.003h-12.917c.262 1.12.538 2.258.81 3.41l.23.99c1.45 6.291 2.615 12.936.603 19.102l-.165.486h30.724a3.996 3.996 0 0 1 3.913 4.078 3.996 3.996 0 0 1-3.874 3.917l-.2.001h-45.91c-1.924.007-3.826.072-5.106-1.77a4.002 4.002 0 0 1-.186-4.153 3.992 3.992 0 0 1 3.6-2.073c1.906 0 3.903 0 5.81-.03a7.158 7.158 0 0 0 2.215 0c.739-.34 1.328-2.259 1.567-2.998.782-2.937.884-6.013.3-8.996-.29-1.949-.69-3.898-1.108-5.827a214.49 214.49 0 0 0-.517-2.276l-.262-1.132-.39-1.63c-.05-.219-.109-1.019-.259-1.099-.368-.22-1.46-.034-1.987-.003l-.119.003H88.11l-.42-.002c-2.034-.019-4.086-.227-4.99-2.446-1.212-2.876 1.086-5.436 3.898-5.544l.184-.003h5.44a76.626 76.626 0 0 1-.908-7.676A23.905 23.905 0 0 1 93.31 180.2a21.641 21.641 0 0 1 7.257-8.466 22.504 22.504 0 0 1 19.884-2.528Zm166.5-4.238c-.47-.15-1.168.52-1.767.85-.599.33-1.198.669-1.806.999a86.967 86.967 0 0 1-4.083 2.079c-11.26 5.337-23.467 8.605-35.685 10.884-12.712 2.316-27.583 3.652-40.5 3.998a96.792 96.792 0 0 1 2.755 31.864c8.407-.33 18.792-1.08 27.124-2.25 14.214-2.038 28.618-5.247 41.734-11.244 10.69-4.907 27.12-15.631 19.265-29.474l.03.04a23.565 23.565 0 0 0-3.254-4.288 41.373 41.373 0 0 0-1.817-1.77c-.499-.459-1.347-1.488-1.996-1.688Zm.12-39.87c-.56-.3-.17-.22-.689 0a3.43 3.43 0 0 0-.479.29c-.839.5-1.697.99-2.555 1.45-14.424 7.845-30.974 11.743-47.085 14.212-17.466 2.602-37.145 3.486-54.783 2.639a95.96 95.96 0 0 1 15.97 24.177 83.825 83.825 0 0 1 2.476 5.887c.153.619.374 1.219.659 1.79.29.399-.17.22.509.32.262.024.526.024.788 0a231.5 231.5 0 0 0 3.724-.12c4.761-.24 11.512-.55 16.254-1a214.93 214.93 0 0 0 27.949-4.428 123.663 123.663 0 0 0 26.691-8.995c7.297-3.549 15.861-8.706 18.716-16.792v.04a14.658 14.658 0 0 0-2.176-13.273 27.074 27.074 0 0 0-4.522-4.997 9.715 9.715 0 0 0-1.447-1.2Zm-.49-40.239c-.239.03-.698.43-.908.55a96.89 96.89 0 0 1-18.676 8.365c-14.044 4.778-28.807 7.417-43.54 8.896-15.744 1.564-33.593 1.784-49.374.66a217.693 217.693 0 0 1-44.34-7.387 120.063 120.063 0 0 1-20.252-7.626 79.934 79.934 0 0 1-4.193-2.229c-.499-.3-1.527-1.139-1.996-1-.619.21-1.497 1.27-1.996 1.73a21.808 21.808 0 0 0-6.13 8.616 13.93 13.93 0 0 0 .36 10.394 19.603 19.603 0 0 0 2.855 4.498 8.71 8.71 0 0 0 1.996 2.099c.61.32 2.087-.12 2.825-.12a97.435 97.435 0 0 1 11.46-.16 95.253 95.253 0 0 1 55.209 20.73 39.95 39.95 0 0 1 1.996 1.598c.246.274.528.513.839.71.484.106.981.146 1.477.12 1.926.14 3.863.26 5.79.36 3.939.24 7.905.36 11.898.36 7.772.073 17.525-.19 25.257-.79 15.462-1.19 30.994-3.638 45.777-8.436a87.784 87.784 0 0 0 20.033-8.995c5.77-3.658 12.048-8.955 12.927-16.182a15.007 15.007 0 0 0-2.745-10.154 25.488 25.488 0 0 0-3.574-4.168 32.58 32.58 0 0 0-2.076-1.82c-.23-.19-.659-.649-.898-.619ZM204.708 24.23a269.052 269.052 0 0 0-47.114 2.25c-14.643 1.998-29.167 5.356-42.642 11.553-5.61 2.589-11.34 5.757-15.592 10.385a19.376 19.376 0 0 0-4.791 8.346 14.219 14.219 0 0 0 1.457 10.264 26.126 26.126 0 0 0 6.668 7.576c5.52 4.448 12.048 7.576 18.636 10.095a146.756 146.756 0 0 0 22.17 6.437 239.542 239.542 0 0 0 45.377 4.877c15.395.331 32.788-.716 47.996-3.128 14.554-2.359 29.536-5.947 42.563-13.093 5.76-3.159 11.828-7.367 14.823-13.453a13.89 13.89 0 0 0 1.078-9.735 20.164 20.164 0 0 0-5.34-8.666c-4.752-4.837-10.83-8.116-16.97-10.764a134.472 134.472 0 0 0-21.041-6.997c-14.855-3.502-32.024-5.494-47.278-5.947Z" id="Outlines" fill="#000"/></g></svg>