<svg xmlns="http://www.w3.org/2000/svg" width="320" height="320" viewBox="0 0 320 320"><g id="Foundations/Icons/Brand-Icons/Banking-and-Commerce/07-cash" fill="none" fill-rule="evenodd" stroke="none" stroke-width="1"><circle id="lg-icon-fill-primary" cx="140" cy="181" r="54" fill="#FFD500"/><path id="Half-tone" fill="#000" d="m300 200 .2.005a4 4 0 1 1-.2-.005Zm-16-16 .2.005a4 4 0 1 1-.2-.005Zm32 0 .2.005a4 4 0 1 1-.2-.005Zm-16-16 .2.005a4 4 0 1 1-.2-.005Zm16-16 .2.005a4 4 0 1 1-.2-.005Zm0-32a4 4 0 1 1 0 8 4 4 0 0 1 0-8Zm-208-16a4 4 0 1 1 0 8 4 4 0 0 1 0-8Zm32 0a4 4 0 1 1 0 8 4 4 0 0 1 0-8Zm32 0a4 4 0 1 1 0 8 4 4 0 0 1 0-8Zm32 0a4 4 0 1 1 0 8 4 4 0 0 1 0-8Zm32 0a4 4 0 1 1 0 8 4 4 0 0 1 0-8Zm32 0a4 4 0 1 1 0 8 4 4 0 0 1 0-8Zm32 0a4 4 0 1 1 0 8 4 4 0 0 1 0-8Zm-256 0a4 4 0 1 1 0 8 4 4 0 0 1 0-8Zm32 0a4 4 0 1 1 0 8 4 4 0 0 1 0-8Zm48-16a4 4 0 1 1 0 8 4 4 0 0 1 0-8Zm160 0a4 4 0 1 1 0 8 4 4 0 0 1 0-8ZM60 88a4 4 0 1 1 0 8 4 4 0 0 1 0-8Zm256 0a4 4 0 1 1 0 8 4 4 0 0 1 0-8Zm-64 0a4 4 0 1 1 0 8 4 4 0 0 1 0-8ZM92 88a4 4 0 1 1 0 8 4 4 0 0 1 0-8Zm208-16a4 4 0 1 1 0 8 4 4 0 0 1 0-8ZM44 72a4 4 0 1 1 0 8 4 4 0 0 1 0-8Zm32 0a4 4 0 1 1 0 8 4 4 0 0 1 0-8Zm32 0a4 4 0 1 1 0 8 4 4 0 0 1 0-8Zm32 0a4 4 0 1 1 0 8 4 4 0 0 1 0-8Zm96 0a4 4 0 1 1 0 8 4 4 0 0 1 0-8Zm32 0a4 4 0 1 1 0 8 4 4 0 0 1 0-8ZM60 56a4 4 0 1 1 0 8 4 4 0 0 1 0-8Zm32 0a4 4 0 1 1 0 8 4 4 0 0 1 0-8Zm32 0a4 4 0 1 1 0 8 4 4 0 0 1 0-8Zm32 0a4 4 0 1 1 0 8 4 4 0 0 1 0-8Zm32 0a4 4 0 1 1 0 8 4 4 0 0 1 0-8Zm32 0a4 4 0 1 1 0 8 4 4 0 0 1 0-8Zm32 0a4 4 0 1 1 0 8 4 4 0 0 1 0-8Zm32 0a4 4 0 1 1 0 8 4 4 0 0 1 0-8Z"/><path id="Outlines" fill="#000" d="M312 56a8 8 0 0 1 8 8v136a8 8 0 0 1-8 8h-32v40a8 8 0 0 1-8 8H8a8 8 0 0 1-8-8V112a8 8 0 0 1 8-8h32V64a8 8 0 0 1 8-8Zm-40 56H8v136h264V112Zm-114.554 12.691.734.238 6.26 2.468a57.737 57.737 0 0 1 8.176 4.669l.774.539h.38c.08.11.08.21.08.32a58.45 58.45 0 0 1 16.71 18.67 56.539 56.539 0 0 1 3.73 7.996 57.717 57.717 0 0 1 3.685 18.208l.025.813v1.35c.028 25.407-16.501 47.872-40.775 55.418-24.273 7.546-50.635-1.586-65.03-22.528C77.8 191.91 78.726 164.04 94.48 144.099a58.893 58.893 0 0 1 3.26-3.778 57.749 57.749 0 0 1 33.14-17.601 57.978 57.978 0 0 1 26.566 1.971ZM130 130.986a48.818 48.818 0 0 0-8 2.348c-21.284 8.201-34.316 29.76-31.68 52.406 2.636 22.646 20.272 40.638 42.87 43.736 22.6 3.098 44.431-9.484 53.07-30.584a49.714 49.714 0 0 0 3.72-17.193l.02-.738v-1a49.97 49.97 0 0 0-23.29-42.199 49.95 49.95 0 0 0-36.71-6.776Zm12 15.102c5.43 0 11.07 1.999 14.64 6.997a18.986 18.986 0 0 1 2.92 6.486 28.13 28.13 0 0 1 .8 6.887 3.5 3.5 0 0 1-3.5 3.498 3.5 3.5 0 0 1-3.5-3.498c0-8.746-3.93-13.373-11.36-13.373a11.308 11.308 0 0 0-11.3 10.845l-.01.419v.11c.072 2.574.328 5.14.767 7.676l.173.95h15.11a3.49 3.49 0 0 1 .78 6.896 3.332 3.332 0 0 1-.583.092l-.197.008h-13.6c.04.15.11.3.11.45 1.51 6.497 2.98 12.744 1.51 18.36-.073.267-.147.53-.229.79l-.131.39h25.83l.05-.04a3.49 3.49 0 0 1 1.06 6.817c-.273.092-.557.15-.844.17l-.216.01h-40.49a3.311 3.311 0 0 1-1-.18 3.488 3.488 0 0 1 .81-6.81l.19-.007h6.85c.263-.374.497-.769.7-1.18 1.97-3.947.96-9.035-.86-16.76a66.84 66.84 0 0 1-.36-1.484l-.12-.516h-6.26a3.5 3.5 0 0 1-.192-6.991l.192-.005h4.79a60.63 60.63 0 0 1-.807-7.636l-.033-.96v-.21a18.104 18.104 0 0 1 2.88-9.725 18.396 18.396 0 0 1 6.26-5.997 18.199 18.199 0 0 1 9.17-2.479ZM312 64H48v40h81.84a57.94 57.94 0 0 1 100.32 0H272a8 8 0 0 1 8 8v2.78a17.48 17.48 0 0 1 0 34.44V200h32V64ZM44.005 162c1.743 0 3.477.256 5.145.761A17.99 17.99 0 0 1 62 180a17.99 17.99 0 0 1-12.85 17.239 17.732 17.732 0 0 1-5.145.761C34.061 198 26 189.941 26 180s8.061-18 18.005-18ZM236 162a18 18 0 1 1-17.146 12.528 18.082 18.082 0 0 1 8.506-10.306A17.784 17.784 0 0 1 236 162Zm-192 8c-5.523 0-10 4.477-10 10s4.477 10 10 10a9.863 9.863 0 0 0 5.263-1.516 9.968 9.968 0 0 0 0-16.968A9.863 9.863 0 0 0 44 170Zm192 .229c-5.395.005-9.766 4.377-9.772 9.771 0 5.397 4.375 9.771 9.771 9.771 5.397 0 9.772-4.374 9.772-9.771 0-5.397-4.375-9.771-9.772-9.771ZM280 123v18a9.49 9.49 0 0 0 0-18ZM180 83.063A49.93 49.93 0 0 0 139.35 104h29.55a18.79 18.79 0 0 1 13.1-5.33 18.52 18.52 0 0 1 13.54 5.33h25.11A49.93 49.93 0 0 0 180 83.063Z"/></g></svg>