<svg width="320" height="320" viewBox="0 0 320 320" xmlns="http://www.w3.org/2000/svg"><g id="Foundations/Icons/Brand-Icons/Hazards/01-caution-inspection" stroke="none" stroke-width="1" fill="none" fill-rule="evenodd"><circle id="lg-icon-fill-primary" fill="#FFD500" cx="148" cy="180" r="48"/><path d="M160 12a7.971 7.971 0 0 1 7.028 4.22l152.026 284a8.022 8.022 0 0 1-.186 7.888 7.97 7.97 0 0 1-6.842 3.892H7.974a7.97 7.97 0 0 1-6.842-3.892 8.022 8.022 0 0 1-.186-7.888l152.076-284A7.972 7.972 0 0 1 160 12Zm0 8L7.974 304h304.052L160 20Zm-11.99 108c28.715.006 51.99 23.285 51.99 52 0 9.835-2.77 19.218-7.708 27.243l62.153 62.357a4.277 4.277 0 0 1 .167 5.884l-.167.176-11.045 11.08a4.25 4.25 0 0 1-5.866.168l-.175-.168-62.208-62.39a52 52 0 1 1-27.14-96.35Zm42.894 89.181-.674.76a61.595 61.595 0 0 1-4.36 4.373l-.768.686 55.267 55.46 5.812-5.83-55.277-55.449ZM148 136c-24.29.028-43.972 19.71-44 44 0 24.3 19.7 44 44 44s44-19.7 44-44-19.7-44-44-44Zm0 64a4 4 0 1 1 0 8 4 4 0 0 1 0-8Zm2.177-49.348a4.104 4.104 0 0 1 1.778 4.028l-.04 33.35c-.053 2.186-1.787 3.938-3.927 3.97-2.203 0-3.988-1.823-3.988-4.07l.07-33.25a4.104 4.104 0 0 1 1.778-4.028 3.92 3.92 0 0 1 4.329 0Z" id="Outlines" fill="#000"/></g></svg>