<svg width="320" height="320" viewBox="0 0 320 320" xmlns="http://www.w3.org/2000/svg"><g id="Foundations/Icons/Brand-Icons/Banking-and-Commerce/18-certificate" stroke="none" stroke-width="1" fill="none" fill-rule="evenodd"><path d="M260 136c28.719 0 52 23.281 52 52 0 19.809-11.076 37.03-27.373 45.81H288V307l-26-27-30 25v-71.19h3.373C219.076 225.03 208 207.809 208 188c0-28.719 23.281-52 52-52Z" id="lg-icon-fill-primary" fill="#FFD500"/><path d="M244 216a4 4 0 1 1 0 8 4 4 0 0 1 0-8Zm32 0a4 4 0 1 1 0 8 4 4 0 0 1 0-8Zm-48-16a4 4 0 1 1 0 8 4 4 0 0 1 0-8Zm32 0a4 4 0 1 1 0 8 4 4 0 0 1 0-8Zm32 0a4 4 0 1 1 0 8 4 4 0 0 1 0-8Zm-48-16a4 4 0 1 1 0 8 4 4 0 0 1 0-8Zm32 0a4 4 0 1 1 0 8 4 4 0 0 1 0-8Zm-48-16a4 4 0 1 1 0 8 4 4 0 0 1 0-8Zm32 0a4 4 0 1 1 0 8 4 4 0 0 1 0-8Zm32 0a4 4 0 1 1 0 8 4 4 0 0 1 0-8Zm-48-16a4 4 0 1 1 0 8 4 4 0 0 1 0-8Zm32 0a4 4 0 1 1 0 8 4 4 0 0 1 0-8Z" id="Half-tone" fill="#000"/><path d="M255.7 8a8.308 8.308 0 0 1 8.296 8.042l.004.253v115.79c29.28 2.126 51.962 26.467 52 55.808-.058 29.031-22.283 53.156-51.124 55.696l-.876.07v.01c-1.32.1-2.55.16-4 .16-1.16 0-2.307-.051-3.447-.123l-.853-.057v-7.995c1.42.12 2.85.21 4.3.21a42.9 42.9 0 0 0 3.207-.124l.793-.066c24.807-2.163 43.847-22.916 43.847-47.801 0-24.637-18.662-45.223-43.105-47.722l-.742-.07a46.2 46.2 0 0 0-4-.18c-1.16 0-2.307.051-3.447.133l-.853.067V16.295H64.3v239.257h163.55v-21.857c-19.12-13.443-27.852-37.322-21.97-59.882l.183-.683c6.179-22.532 25.7-38.833 48.932-40.945l.705-.06v7.996c-19 1.712-35.182 14.505-41.221 32.59a47.952 47.952 0 0 0 12.949 50.415l.422.385v.04a47.964 47.964 0 0 0 27.23 12.084l.62.059v7.995a55.626 55.626 0 0 1-19.55-5.16v25.317l.03.001v34.11l22.59-22.087a4.211 4.211 0 0 1 3-1.18 4.121 4.121 0 0 1 2.795 1.197l.155.163 19.13 21.037v-58.575a55.349 55.349 0 0 0 7.536-4.288l.794-.549v74.166a4.152 4.152 0 0 1-7.066 2.949l-.154-.16-23.46-25.795-26.57 25.984a4.152 4.152 0 0 1-7.046-2.79l-.004-.208-.001-43.974H64.3a8.308 8.308 0 0 1-8.296-8.041l-.004-.254V16.295c.005-4.494 3.582-8.152 8.046-8.29L64.3 8h191.4ZM156 151.914a3.999 3.999 0 1 1 0 7.995H92a3.999 3.999 0 1 1 0-7.995h64Zm72-47.971a3.999 3.999 0 1 1 0 7.995H92a3.999 3.999 0 1 1 0-7.995h136Zm0-47.972a3.999 3.999 0 1 1 0 7.996H92a3.999 3.999 0 1 1 0-7.996h136Z" id="Outlines" fill="#000"/></g></svg>