<svg xmlns="http://www.w3.org/2000/svg" width="320" height="320" viewBox="0 0 320 320"><g id="Foundations/Icons/Brand-Icons/UI/Pensions-and-Retirement/06-changed-beneficiaries" fill="none" fill-rule="evenodd" stroke="none" stroke-width="1"><circle id="lg-icon-fill-primary" cx="260" cy="212" r="36" fill="#028844"/><path id="Outlines" fill="#000" d="m187.545 256.294-.1.17C181.85 265.771 171.652 272 160 272c-11.722 0-21.973-6.303-27.546-15.705-5.898 2.416-13.151 4.328-21.797 5.8a8 8 0 0 0-6.653 7.627l-.004.26-.001 13.99C121.077 291.698 140.036 296 160 296s38.924-4.302 56.002-12.029l-.002-13.99a8 8 0 0 0-6.657-7.886c-8.646-1.472-15.899-3.384-21.798-5.8Zm6.676-119.815c-4.187 1.44-8.982 2.7-14.397 3.794l.227.103C196.548 147.97 208 164.648 208 184c0 16.28-8.104 30.666-20.498 39.345-2.962 5.486-6.697 9.616-11.207 12.39l.07.308.08.305.018.063.018.063.001.003.085.283a12.19 12.19 0 0 0 .435 1.169l-.034-.079.094.218a12.66 12.66 0 0 0 .828 1.564l.233.364.247.36.05.071.011.016.017.024.014.02.048.065.035.047.011.016.004.005.059.079.017.023.001.001.014.02.002.002.066.087.007.009.024.031.005.007.063.08.019.025.024.03.057.072.021.026.036.045.046.056.029.036.001.001.104.125.009.011.059.07.046.054.016.018.051.059.023.026.012.014.01.011.093.105.035.04.09.1.025.027.004.005.092.1.093.099-.035-.039.186.196.267.271.121.12-.048-.048.119.116.072.069.056.053.001.001.397.366a22.887 22.887 0 0 0 1.906 1.529l.04.03.108.075.021.016h.001l.112.08.082.057.1.069.067.046.004.003.34.23.349.227.136.087.006.004.376.235.385.234.101.059.064.038.106.062.188.109.027.015.002.001.39.22.429.236.06.032.098.052.096.051.063.034a41.335 41.335 0 0 0 1.998.984c.383.177.776.351 1.177.523 5.389 2.312 12.357 4.196 20.905 5.652A16 16 0 0 1 224 269.98l.002 10.048a136.458 136.458 0 0 0 32.468-24.167C233.82 254.062 216 235.112 216 212c0-24.3 19.7-44 44-44 13.638 0 25.827 6.205 33.898 15.945A136.712 136.712 0 0 0 296 160v-9.664a8 8 0 0 0-6.93-7.928c-10.961-1.479-20.039-3.434-27.294-5.929l-.123.332C256.49 150.368 243.37 160 228 160c-15.495 0-28.704-9.79-33.779-23.521Zm-80.273 6.26C108.707 148.847 100.057 154.601 88 160c-12.056-5.398-20.706-11.152-25.948-17.262-7.704 3.397-17.524 5.941-30.977 7.753a8 8 0 0 0-6.897 7.178l-.02.26-.155 2.505.015 1.815c.828 51.025 29.755 95.218 71.981 117.78L96 269.982a16 16 0 0 1 13.314-15.772c8.012-1.365 14.637-3.106 19.873-5.222l.082-.034a50.836 50.836 0 0 0 1.822-.78c.415-.189.821-.38 1.217-.573a34.31 34.31 0 0 0 4.238-2.433 24.43 24.43 0 0 0 2.114-1.606l.149-.128-.075.063.216-.187a20.08 20.08 0 0 0 1.273-1.233c.103-.11.204-.221.303-.333l.081-.092.011-.013.01-.011.012-.014.113-.13-.022.026.052-.06.037-.046.046-.055-.022.027.105-.125.007-.01.023-.027.044-.056.05-.062-.012.016.019-.025.081-.102-.023.03.033-.041.078-.101.024-.031.007-.008.067-.089.017-.022.017-.023.059-.079.002-.004.016-.02.023-.031.048-.068.008-.011.014-.018.017-.025.012-.017.21-.3a13.763 13.763 0 0 0 .693-1.136l.015-.031.133-.25c.048-.094.095-.188.14-.282l.122-.259c.168-.37.317-.746.448-1.127l.126-.393.113-.396.025-.097.025-.093-.025.097c.03-.116.058-.232.085-.348l.015-.075c-4.51-2.775-8.245-6.905-11.207-12.39C120.104 214.666 112 200.28 112 184c0-14.465 6.398-27.435 16.519-36.235l.285-.247-.057.05c-5.733-1.367-10.582-2.97-14.799-4.83Zm54.946 96.376-.372.077a43.359 43.359 0 0 1-7.936.804l-.292.003L160 240c-2.961 0-5.805-.268-8.522-.808l-.373-.077-.086.28c-1.305 4.04-3.884 7.574-7.587 10.602l-.075.06a34.13 34.13 0 0 1-3.445 2.467l-.286.176.098.157a24.02 24.02 0 0 0 19.888 11.14L160 264a24.02 24.02 0 0 0 20.275-11.142l.097-.158-.339-.21a34.452 34.452 0 0 1-3.047-2.157c-3.927-3.1-6.652-6.748-8.005-10.938l-.087-.28ZM260 176c-19.882 0-36 16.118-36 36s16.118 36 36 36 36-16.118 36-36-16.118-36-36-36Zm18.12 16.608a4 4 0 0 1 1.38 5.329l-.108.183-20 32a4 4 0 0 1-6.066.855l-.154-.147-12-12a4 4 0 0 1 5.497-5.807l.16.15 8.444 8.445 17.335-27.736a4 4 0 0 1 5.512-1.272ZM160 176c-5.708 0-11.417.407-17.13 1.222a8 8 0 0 0-6.866 7.661l-.004.259v24.47a8 8 0 0 0 .4 2.499c4.481 13.634 11.833 19.74 23.177 19.886L160 232l.423-.003c11.344-.147 18.696-6.252 23.177-19.886a8 8 0 0 0 .392-2.135l.008-.363v-24.471a8 8 0 0 0-6.87-7.92 121.272 121.272 0 0 0-15.813-1.215L160 176Zm0-32c-22.091 0-40 17.909-40 40a39.938 39.938 0 0 0 7.607 23.474l.393.533v-22.865a16 16 0 0 1 13.74-15.84A129.14 129.14 0 0 1 160 168c6.087 0 12.173.434 18.26 1.302a16 16 0 0 1 13.74 15.84v22.864l.062-.081a39.939 39.939 0 0 0 7.935-23.414L200 184c0-22.091-17.909-40-40-40Zm79.835-25.315-.059.015c-3.516.827-7.245 1.257-11.174 1.297h-.088L228 120c-3.874 0-7.556-.375-11.035-1.132l-.801-.183-.092.291c-1.623 4.958-5.337 9.089-10.832 12.467a42.45 42.45 0 0 1-3.017 1.695l-.442.223-.155.075.07.195c3.898 10.657 14.069 18.19 25.881 18.366L228 152c11.992 0 22.36-7.585 26.303-18.368l.07-.195-.154-.076a42.936 42.936 0 0 1-3.603-2.007c-5.416-3.361-9.079-7.463-10.688-12.378l-.093-.291Zm-142.94 8.43-.373.077c-2.47.49-5.045.757-7.717.801l-.219.003-.358.003L88 128a46.49 46.49 0 0 1-4.209-.188 41.536 41.536 0 0 1-4.313-.62l-.374-.077-.003.01c-1.447 4.703-4.608 8.733-9.242 12.079l-.109.077.067.066c3.897 3.845 9.769 7.748 17.664 11.586l.519.249.519-.25c7.663-3.724 13.42-7.51 17.315-11.245l.415-.407-.109-.076c-4.484-3.238-7.589-7.117-9.096-11.625l-.149-.464ZM88 24c-21.87 0-39.641 17.552-39.995 39.339L48 64v75.217c14.404-3.664 22.075-8.83 23.68-15.497-6.64-4.096-11.6-11.133-14.88-21.112a16 16 0 0 1-.8-4.995V72c0-8.49 6.883-15.374 15.374-15.374.84 0 1.68.07 2.51.206A86.355 86.355 0 0 0 88 58c4.344 0 8.687-.332 13.031-.995l1.086-.173c8.377-1.386 16.291 4.282 17.677 12.659.137.83.206 1.668.206 2.509v25.613a16 16 0 0 1-.8 4.995c-3.28 9.98-8.24 17.018-14.883 21.114 1.6 6.664 9.292 11.828 23.683 15.492V64c0-22.091-17.909-40-40-40Zm15.423 40.725A94.355 94.355 0 0 1 88 66a94.355 94.355 0 0 1-15.423-1.275 7.374 7.374 0 0 0-8.573 7.032L64 72v25.613a8 8 0 0 0 .4 2.498c4.429 13.475 11.663 19.596 22.784 19.879l.395.008L88 120l.423-.003c11.344-.147 18.696-6.252 23.177-19.886a8 8 0 0 0 .392-2.135l.008-.363V72c0-.302-.019-.604-.056-.904l-.043-.3a7.374 7.374 0 0 0-8.478-6.071ZM228 56c-7.244 0-14.488.803-21.732 2.41a8 8 0 0 0-6.264 7.555l-.004.238v23.106a8 8 0 0 0 .513 2.82c5.067 13.453 13.618 19.707 26.956 19.868.177.002.353.003.531.003l.532-.003c13.337-.161 21.888-6.415 26.955-19.869a8 8 0 0 0 .505-2.458l.008-.36V66.381a8 8 0 0 0-6.256-7.808l-2.953-.648c-2.183-.47-3.677-.764-4.48-.881a99.03 99.03 0 0 0-13.118-1.038L228 56Zm6-24h-12c-16.569 0-30 13.431-30 30 0 .605.018 1.207.054 1.805l.008.137.035-.336a16.003 16.003 0 0 1 13.734-14.09A163.327 163.327 0 0 1 228 48c7.39 0 14.78.506 22.17 1.517a16.002 16.002 0 0 1 13.733 14.087l.033.332.013-.17c.025-.426.04-.854.047-1.283L264 62c0-16.403-13.164-29.731-29.504-29.996L234 32ZM21.46 199.412l.041.143-.097-.344-.214-.764a142.909 142.909 0 0 1-2.01-8.21l-.053-.248a143.213 143.213 0 0 1-1.588-8.859l-.025-.176c-.103-.706-.201-1.415-.294-2.125l-.016-.123a144.184 144.184 0 0 1-.498-4.36l-.033-.333a144.785 144.785 0 0 1-.653-11.605l-.003-.158c-.01-.68-.016-1.361-.017-2.044V160l.013-.001.16-2.562a16 16 0 0 1 13.834-14.874l1.703-.236c2.93-.416 5.693-.87 8.29-1.358V64c0-26.51 21.49-48 48-48s48 21.49 48 48l-.002 76.966c.655.124 1.32.245 1.997.364a47.796 47.796 0 0 1 23.28-5.313l-.401-.01a15.972 15.972 0 0 1 4.987-1.527c10.615-1.433 19.272-3.312 25.969-5.638l.47-.166a54.575 54.575 0 0 0 5.478-2.262c.294-.142.582-.286.864-.43l.008-.005.015-.008.022-.01-.023.01.492-.256a35.697 35.697 0 0 0 1.127-.625l.026-.016.377-.221.392-.24.067-.041.062-.039.027-.017.466-.298c.32-.21.63-.421.928-.635a23.411 23.411 0 0 0 1.328-1.024 20.182 20.182 0 0 0 .919-.815 18.103 18.103 0 0 0 .858-.87l.06-.069.17-.189a15.203 15.203 0 0 0 .607-.738l.008-.011.009-.011.048-.064.056-.075.077-.103c.065-.088.128-.177.19-.266l.03-.047.183-.27c.138-.21.268-.424.39-.639l.068-.12.129-.241.077-.15c.068-.134.132-.269.194-.404l.038-.086.022-.048.057-.132.001-.002.02-.048.038-.09.022-.055.017-.044.028-.07.004-.011-.005.011.019-.048.006-.017.025-.062.058-.158-.031.078.07-.188.093-.284v-.004l.022-.07.014-.044.01-.03v-.004l.033-.113.006-.021.001-.003.004-.014.034-.123.001-.004v-.001l.039-.15v-.005l.026-.101.005-.021v-.006l.008-.026.01-.044.01-.049.01-.033.026-.125c-6.952-4.115-12.2-10.874-15.743-20.284A16 16 0 0 1 192 89.309v-3.982A37.836 37.836 0 0 1 184 62c0-20.987 17.013-38 38-38h12c20.987 0 38 17.013 38 38a37.836 37.836 0 0 1-7.998 23.325L264 89.309a16 16 0 0 1-1.027 5.639c-3.543 9.41-8.791 16.17-15.743 20.277l.034.166.01.048.01.043.009.033.005.021.025.101.002.006.005.023.034.126v.001l.001.005.006.023.027.098.004.015v.003l.008.022.043.146.035.114v.003l.01.029c.064.203.135.404.211.603l.014.037.01.027.005.01v.003l.018.042.039.097.059.142c.041.096.083.192.127.288l.123.26a11.643 11.643 0 0 0 .505.92l.002.005.009.014.166.266.186.282.078.113.002.003.026.036.025.035.144.202.101.136.104.135.032.041.002.003.004.005.03.039.002.002.002.002.023.03.052.065-.051-.065.096.122.109.132.002.003.028.033.03.037.033.039.078.091.046.054.096.11.007.008c.223.253.459.503.706.75a20.365 20.365 0 0 0 1.488 1.335l.002.001.056.045.059.047.03.024.087.069.012.01.067.052.044.034.083.065.114.087.109.081.07.054.023.017.058.042.069.051.15.11.229.163.343.238.17.114-.089-.059.173.115.086.058.003.001.121.08.062.04-.045-.03.16.105.206.13.153.096.049.03.106.066.005.003.185.112.096.058.002.001.079.047.015.01.116.068.04.023.037.022.087.051.026.015.072.041.069.04.121.07.177.099h.001l.106.059.3.165c.135.074.271.147.41.22l.387.2a40.973 40.973 0 0 0 1.524.744l.453.206c.277.126.56.25.847.373l.591.249.604.246.222.088-.079-.03.078.03.065.026.122.047.036.015.257.099-.115-.044.114.044.258.1.05.018.113.043.088.033.245.091.056.022.157.057-.089-.034.093.035.128.047.144.052.511.184c6.744 2.38 15.513 4.3 26.308 5.756A16 16 0 0 1 304 150.323V160a146.647 146.647 0 0 1-.168 7.02l-.013.259a145.497 145.497 0 0 1-1.015 11.364l-.026.202c-.092.704-.19 1.407-.291 2.109l-.025.165a141.22 141.22 0 0 1-.724 4.442l-.036.2a143.37 143.37 0 0 1-1.67 7.954A43.822 43.822 0 0 1 304 212c0 21.578-15.533 39.529-36.028 43.28a144.499 144.499 0 0 1-44.004 33.768h-.002a142.554 142.554 0 0 1-10.123 4.548l-.205.083c-1.53.614-3.074 1.204-4.632 1.767l-1.56.555a142.882 142.882 0 0 1-10.472 3.208l-.371.098a142.957 142.957 0 0 1-8.615 1.975l-.152.03a143.345 143.345 0 0 1-11.215 1.74l-.353.04a144.488 144.488 0 0 1-4.321.42l-.266.021a145.101 145.101 0 0 1-9.278.447h-.036c-.748.013-1.497.02-2.248.02H160l-2.381-.02a146.395 146.395 0 0 1-11.698-.66l-.162-.015a144.45 144.45 0 0 1-8.959-1.164l-.298-.049c-.652-.107-1.303-.218-1.952-.334l-.33-.06a143.37 143.37 0 0 1-1.93-.362l-.327-.064a143.212 143.212 0 0 1-4.227-.9l-.19-.044a142.978 142.978 0 0 1-8.718-2.3l-.022-.006-.067-.02a142.85 142.85 0 0 1-11.876-4.123l-.699-.283.2.08a141.235 141.235 0 0 1-10.332-4.628c-35.85-17.806-63.227-50.11-74.46-89.24l-.039-.138-.073-.258Z"/><path id="Half-tone" fill="#000" d="M180 280a4 4 0 1 1 0 8 4 4 0 0 1 0-8Zm-32 0a4 4 0 1 1 0 8 4 4 0 0 1 0-8Zm-32 0a4 4 0 1 1 0 8 4 4 0 0 1 0-8Zm80-16a4 4 0 1 1 0 8 4 4 0 0 1 0-8Zm-64 0a4 4 0 1 1 0 8 4 4 0 0 1 0-8Z"/></g></svg>