<svg xmlns="http://www.w3.org/2000/svg" width="320" height="320" viewBox="0 0 320 320"><g id="Foundations/Icons/Brand-Icons/Online/19-chart-warning" fill="none" fill-rule="evenodd" stroke="none" stroke-width="1"><path id="lg-icon-fill-primary" fill="#FFD500" d="M80 192a8 8 0 1 1 0 16 8 8 0 0 1 0-16Zm144-33a8 8 0 1 1 0 16 8 8 0 0 1 0-16Zm-48-23a8 8 0 1 1 0 16 8 8 0 0 1 0-16Zm76-96c24.3 0 44 19.923 44 44.5S276.3 129 252 129s-44-19.923-44-44.5S227.7 40 252 40ZM128 89a8 8 0 1 1 0 16 8 8 0 0 1 0-16Z"/><path id="Half-tone" fill="#000" d="M212 280a4 4 0 1 1 0 8 4 4 0 0 1 0-8Zm-32 0a4 4 0 1 1 0 8 4 4 0 0 1 0-8Zm-32 0a4 4 0 1 1 0 8 4 4 0 0 1 0-8Zm-32 0a4 4 0 1 1 0 8 4 4 0 0 1 0-8Zm-32 0a4 4 0 1 1 0 8 4 4 0 0 1 0-8Z"/><path id="Outlines" fill="#000" d="M247.7 8a8.31 8.31 0 0 1 8.34 8.3v15.83a51.56 51.56 0 0 1 18.54 5c1.52.73 2.99 1.53 4.42 2.4 1.43.87 2.82 1.8 4.15 2.8 1.34 1 2.623 2.06 3.85 3.18l-.04-.06a52 52 0 0 1 0 77 53.24 53.24 0 0 1-3.85 3.18 52.174 52.174 0 0 1-8.57 5.2 51.56 51.56 0 0 1-18.54 5V303.7a8.31 8.31 0 0 1-8.3 8.3H56.3a8.31 8.31 0 0 1-8.3-8.3V16.3A8.31 8.31 0 0 1 56.3 8Zm0 8.3H56.3v287.4h191.4V135.83a51.52 51.52 0 0 1-22.66-7.34c-1.43-.87-2.82-1.8-4.15-2.8a53.24 53.24 0 0 1-3.85-3.18 52 52 0 0 1 0-77 53.24 53.24 0 0 1 3.85-3.18c1.33-1 2.72-1.93 4.15-2.8a48.653 48.653 0 0 1 4.42-2.4 51.52 51.52 0 0 1 18.24-4.94V16.3ZM228 240a4 4 0 1 1 0 8H76a4 4 0 1 1 0-8ZM115.082 87.551c5.022-6.856 14.527-8.591 21.647-3.95 7.119 4.64 9.368 14.038 5.121 21.4l25.9 25.32A16 16 0 0 1 192 144a15.56 15.56 0 0 1-.33 3.27l19.9 9.73a16 16 0 1 1-3.57 10c.007-.937.097-1.87.27-2.79l-20.12-9.85c-5.394 6.171-14.58 7.268-21.277 2.54-6.696-4.729-8.735-13.753-4.723-20.9l-25.9-25.32A15.88 15.88 0 0 1 128 113a15.44 15.44 0 0 1-2.91-.28l-34.92 74.93A16 16 0 1 1 80 184a15.44 15.44 0 0 1 2.91.28l34.94-74.9c-6.573-5.387-7.789-14.973-2.768-21.83ZM80.82 192.001a8.43 8.43 0 0 0-1.64 0 8 8 0 0 0-5.81 3.57 8 8 0 0 0 0 8.94 8 8 0 0 0 5.81 3.49 8.43 8.43 0 0 0 1.64 0 8 8 0 0 0 4.24-1.83c.2-.16.39-.33.57-.51a7.88 7.88 0 0 0 1-1.19l.03-.04a8 8 0 0 0-1-10.13 6.91 6.91 0 0 0-.57-.51 8 8 0 0 0-4.27-1.79Zm144-32.96a8.43 8.43 0 0 0-1.64 0 8 8 0 0 0-5.81 3.49 8 8 0 0 0 0 8.94 8 8 0 0 0 5.81 3.49 8.43 8.43 0 0 0 1.64 0 8 8 0 0 0 4.27-1.79c.2-.16.39-.33.57-.51a8.05 8.05 0 0 0 0-11.32 6.91 6.91 0 0 0-.57-.51 8 8 0 0 0-4.27-1.79Zm-48.03-23a8.43 8.43 0 0 0-1.64 0 8 8 0 0 0-5.81 3.49 8 8 0 0 0 0 8.94 8 8 0 0 0 5.81 3.49 8.43 8.43 0 0 0 1.64 0 8 8 0 0 0 4.27-1.79c.2-.16.39-.33.57-.51a7.88 7.88 0 0 0 1-1.19 8 8 0 0 0-1-10.13 6.91 6.91 0 0 0-.57-.51 8 8 0 0 0-4.27-1.79ZM252 40c-24.3 0-44 19.699-44 44 0 24.3 19.7 44 44 44 24.29-.028 43.972-19.712 44-44 0-24.301-19.7-44-44-44Zm0 64a4 4 0 1 1 0 8 4 4 0 0 1 0-8ZM128.82 89a8 8 0 0 0-7.48 3.53 8 8 0 0 0 0 8.94 8 8 0 0 0 5.81 3.49 8.42 8.42 0 0 0 1.64 0 8 8 0 0 0 4.27-1.79c.2-.16.39-.33.57-.51a7.88 7.88 0 0 0 1-1.19l.03-.04a8 8 0 0 0-1-10.13 6.91 6.91 0 0 0-.57-.51 8 8 0 0 0-4.27-1.79ZM252 48a4 4 0 0 1 3.995 3.8l.005.2v40a4 4 0 0 1-7.995.199L248 92V52a4 4 0 0 1 4-4Z"/></g></svg>