<svg xmlns="http://www.w3.org/2000/svg" width="320" height="320" viewBox="0 0 320 320"><g id="Foundations/Icons/Brand-Icons/Banking-and-Commerce/59-checklist" fill="none" fill-rule="evenodd" stroke="none" stroke-width="1"><path id="lg-icon-fill-primary" fill="#FFD500" d="M24 124h72v72H24z"/><path id="Half-tone" fill="#000" d="M52 284a4 4 0 1 1 0 8 4 4 0 0 1 0-8Zm32 0a4 4 0 1 1 0 8 4 4 0 0 1 0-8Zm-48-16a4 4 0 1 1 0 8 4 4 0 0 1 0-8Zm32 0a4 4 0 1 1 0 8 4 4 0 0 1 0-8Zm-16-16a4 4 0 1 1 0 8 4 4 0 0 1 0-8Zm32 0a4 4 0 1 1 0 8 4 4 0 0 1 0-8Zm-48-16a4 4 0 1 1 0 8 4 4 0 0 1 0-8Zm32 0a4 4 0 1 1 0 8 4 4 0 0 1 0-8ZM52 76a4 4 0 1 1 0 8 4 4 0 0 1 0-8Zm32 0a4 4 0 1 1 0 8 4 4 0 0 1 0-8ZM36 60a4 4 0 1 1 0 8 4 4 0 0 1 0-8Zm32 0a4 4 0 1 1 0 8 4 4 0 0 1 0-8ZM52 44a4 4 0 1 1 0 8 4 4 0 0 1 0-8Zm32 0a4 4 0 1 1 0 8 4 4 0 0 1 0-8ZM36 28a4 4 0 1 1 0 8 4 4 0 0 1 0-8Zm32 0a4 4 0 1 1 0 8 4 4 0 0 1 0-8Z"/><path id="Outlines" fill="#000" d="M300 300a4 4 0 1 1 0 8H124a4 4 0 1 1 0-8h176ZM96 220a8 8 0 0 1 8 8v72a8 8 0 0 1-8 8H24a8 8 0 0 1-8-8v-72a8 8 0 0 1 8-8Zm0 8H24v72h72v-72Zm204-32a4 4 0 1 1 0 8H124a4 4 0 1 1 0-8h176ZM96 116a8 8 0 0 1 8 8v72a8 8 0 0 1-8 8H24a8 8 0 0 1-8-8v-72a8 8 0 0 1 8-8Zm0 8H24v72h72v-72Zm204-32a4 4 0 1 1 0 8H124a4 4 0 1 1 0-8h176ZM96 12a8 8 0 0 1 8 8v72a8 8 0 0 1-8 8H24a8 8 0 0 1-8-8V20a8 8 0 0 1 8-8Zm0 8H24v72h72V20Z"/></g></svg>