<svg xmlns="http://www.w3.org/2000/svg" width="320" height="320" viewBox="0 0 320 320"><g id="Foundations/Icons/Brand-Icons/Online/24-checklist" fill="none" fill-rule="evenodd" stroke="none" stroke-width="1"><path id="lg-icon-fill-primary" fill="#FFD500" d="M96 20h128v24H96z"/><path id="Half-tone" fill="#000" d="M212 28a4 4 0 1 1 0 8 4 4 0 0 1 0-8Zm-32 0a4 4 0 1 1 0 8 4 4 0 0 1 0-8Zm-32 0a4 4 0 1 1 0 8 4 4 0 0 1 0-8Zm-32 0a4 4 0 1 1 0 8 4 4 0 0 1 0-8Z"/><path id="Outlines" fill="#000" d="M223.7 12a8.31 8.31 0 0 1 8.3 8.3V28h23.7a8.31 8.31 0 0 1 8.3 8.3v263.4a8.31 8.31 0 0 1-8.3 8.3H64.3a8.31 8.31 0 0 1-8.3-8.3V36.3a8.31 8.31 0 0 1 8.3-8.3H88v-7.7a8.31 8.31 0 0 1 8.3-8.3ZM88 36.3H64.3v263.4h191.4V36.3H232v7.4a8.31 8.31 0 0 1-8.3 8.3H96.3a8.31 8.31 0 0 1-8.3-8.3v-7.4ZM124 256a4 4 0 0 1 .2 7.995l-.2.005H84a4 4 0 0 1-.2-7.995L84 256h40Zm114.685-28.964a4 4 0 0 1 .288 5.347l-.143.167-30.83 31-14.83-14.9a4 4 0 0 1 5.498-5.811l.162.161 9.17 9.21 25.17-25.28v-.02a4 4 0 0 1 5.515.126ZM164 240a4 4 0 0 1 .2 7.995l-.2.005H84a4 4 0 0 1-.2-7.995L84 240h80Zm-40-48a4 4 0 0 1 .2 7.995l-.2.005H84a4 4 0 0 1-.2-7.995L84 192h40Zm114.685-28.964a4 4 0 0 1 .288 5.347l-.143.167-30.83 31-14.83-14.9a4 4 0 0 1 5.498-5.811l.162.161 9.17 9.21 25.17-25.28v-.02a4 4 0 0 1 5.515.126ZM164 176a4 4 0 0 1 .2 7.995l-.2.005H84a4 4 0 0 1-.2-7.995L84 176h80Zm-40-48a4 4 0 0 1 .2 7.995l-.2.005H84a4 4 0 0 1-.2-7.995L84 128h40Zm113.104-30.291a4 4 0 0 1 1.885 6.688l-.159.153-30.83 31-14.83-14.9a4 4 0 0 1 5.498-5.811l.162.161 9.17 9.21 25.17-25.3a4 4 0 0 1 3.934-1.201ZM164 112a4 4 0 0 1 .2 7.995l-.2.005H84a4 4 0 0 1-.2-7.995L84 112h80Zm59.7-92H96.3a.31.31 0 0 0-.3.3v23.4a.31.31 0 0 0 .3.3h127.4a.31.31 0 0 0 .3-.3V20.3a.31.31 0 0 0-.3-.3Z"/></g></svg>