<svg width="320" height="320" viewBox="0 0 320 320" xmlns="http://www.w3.org/2000/svg"><g id="Foundations/Icons/Brand-Icons/Online/16-checklist-warning" stroke="none" stroke-width="1" fill="none" fill-rule="evenodd"><circle id="lg-icon-fill-primary" fill="#FFD500" cx="252" cy="84" r="44"/><path d="M212 280a4 4 0 1 1 0 8 4 4 0 0 1 0-8Zm-32 0a4 4 0 1 1 0 8 4 4 0 0 1 0-8Zm-32 0a4 4 0 1 1 0 8 4 4 0 0 1 0-8Zm-32 0a4 4 0 1 1 0 8 4 4 0 0 1 0-8Zm-32 0a4 4 0 1 1 0 8 4 4 0 0 1 0-8Z" id="Half-tone" fill="#000"/><path d="M247.7 8a8.31 8.31 0 0 1 8.34 8.3v15.83a51.56 51.56 0 0 1 18.54 5c1.52.73 2.99 1.53 4.42 2.4 1.43.87 2.82 1.8 4.15 2.8 1.34 1 2.623 2.06 3.85 3.18l-.04-.06a52 52 0 0 1 0 77 53.24 53.24 0 0 1-3.85 3.18 52.174 52.174 0 0 1-8.57 5.2 51.56 51.56 0 0 1-18.54 5V303.7a8.31 8.31 0 0 1-8.3 8.3H56.3a8.31 8.31 0 0 1-8.3-8.3V16.3A8.31 8.31 0 0 1 56.3 8Zm0 8.3H56.3v287.4h191.4V135.8A51.74 51.74 0 0 1 232 132v112a4 4 0 0 1-4 4H76a4 4 0 0 1-4-4V52a4 4 0 0 1 4-4h138.5c.82-.86 1.66-1.69 2.54-2.49a53.24 53.24 0 0 1 3.85-3.18c1.33-1 2.72-1.93 4.15-2.8a48.653 48.653 0 0 1 4.42-2.4 51.52 51.52 0 0 1 18.24-4.94V16.3ZM120 200H80v40h40v-40Zm104 0h-96v40h96v-40Zm0-48h-96v40h96v-40Zm-104 0H80v40h40v-40Zm0-48H80v40h40v-40Zm84 0h-76v40h96l-.04-16.19c-1.06-.68-2.11-1.39-3.11-2.14a53.24 53.24 0 0 1-3.85-3.18A52 52 0 0 1 204 104Zm48-64c-24.3 0-44 19.7-44 44s19.7 44 44 44c24.29-.027 43.972-19.71 44-44 0-24.3-19.7-44-44-44Zm0 64a4 4 0 1 1 0 8 4 4 0 0 1 0-8ZM120 56H80v40h40V56Zm88.19 0H128v40h73.41a51.9 51.9 0 0 1 6.78-40ZM252 48a4 4 0 0 1 3.995 3.8l.005.2v40a4 4 0 0 1-7.995.2L248 92V52a4 4 0 0 1 4-4Z" id="Outlines" fill="#000"/></g></svg>