<svg xmlns="http://www.w3.org/2000/svg" width="320" height="320" viewBox="0 0 320 320"><g id="Check" fill="none" fill-rule="evenodd" stroke="none" stroke-width="1"><circle id="lg-icon-fill-primary" cx="160" cy="160" r="112" fill="#FFD500"/><path id="Outline" fill="#000" d="M160 16c79.529 0 144 64.471 144 144s-64.471 144-144 144S16 239.529 16 160 80.471 16 160 16Zm0 8C84.89 24 24 84.89 24 160s60.89 136 136 136 136-60.89 136-136S235.11 24 160 24Zm0 24c61.856 0 112 50.144 112 112 0 61.237-49.146 110.996-110.148 111.985L160 272c-61.856 0-112-50.144-112-112S98.144 48 160 48Zm0 8c-57.438 0-104 46.562-104 104s46.562 104 104 104 104-46.562 104-104S217.438 56 160 56Zm58.828 61.172a4 4 0 0 1 0 5.656l-80 80a4 4 0 0 1-5.656 0l-32-32a4 4 0 1 1 5.656-5.656L136 194.343l77.172-77.171a4 4 0 0 1 5.656 0Z"/></g></svg>