<svg width="320" height="320" viewBox="0 0 320 320" xmlns="http://www.w3.org/2000/svg"><g id="Foundations/Icons/Brand-Icons/Energy-and-Resources/01-chemical" stroke="none" stroke-width="1" fill="none" fill-rule="evenodd"><path d="M245.454 247.884c-10.485 36.893-45.578 64.04-85.63 64.12-40.05-.08-75.144-27.227-85.63-64.12h171.26Zm-129.089-39.582c4.416 0 7.996 3.598 7.996 8.037 0 4.438-3.58 8.036-7.996 8.036s-7.996-3.598-7.996-8.036c0-4.439 3.58-8.037 7.996-8.037Zm47.148-48.417c8.766 0 15.872 7.142 15.872 15.953 0 8.81-7.106 15.952-15.872 15.952s-15.873-7.142-15.873-15.952c0-8.81 7.107-15.953 15.873-15.953Z" id="lg-icon-fill-primary" fill="#FFD500"/><path d="M191.81 287.865a3.998 3.998 0 1 1 0 7.996 3.998 3.998 0 0 1 0-7.996Zm-31.985 0a3.998 3.998 0 1 1 0 7.996 3.998 3.998 0 0 1 0-7.996Zm-31.985 0a3.998 3.998 0 1 1 0 7.996 3.998 3.998 0 0 1 0-7.996Zm79.962-15.992a3.998 3.998 0 1 1 0 7.996 3.998 3.998 0 0 1 0-7.996Zm-31.985 0a3.998 3.998 0 1 1 0 7.996 3.998 3.998 0 0 1 0-7.996Zm-31.985 0a3.998 3.998 0 1 1 0 7.996 3.998 3.998 0 0 1 0-7.996Zm-31.985 0a3.998 3.998 0 1 1 0 7.996 3.998 3.998 0 0 1 0-7.996Zm111.948-15.993a3.998 3.998 0 1 1 0 7.996 3.998 3.998 0 0 1 0-7.996Zm-31.985 0a3.998 3.998 0 1 1 0 7.996 3.998 3.998 0 0 1 0-7.996Zm-31.985 0a3.998 3.998 0 1 1 0 7.996 3.998 3.998 0 0 1 0-7.996Zm-31.985 0a3.998 3.998 0 1 1 0 7.996 3.998 3.998 0 0 1 0-7.996Zm-31.985 0a3.998 3.998 0 1 1 0 7.996 3.998 3.998 0 0 1 0-7.996Z" id="Half-tone" fill="#000"/><path d="M199.446 0c9.356 0 16.692 7.237 16.692 16.192 0 8.956-7.176 15.703-16.692 15.703h-15.403v101.542a101.482 101.482 0 0 1 49.207 30.906c15.093 17.212 23.4 38.752 23.4 60.662 0 25.268-10.246 49.127-28.857 67.198A97.444 97.444 0 0 1 160.154 320h-.65a97.434 97.434 0 0 1-67.648-27.797C73.246 274.132 63 250.273 63 225.005c0-21.91 8.306-43.45 23.399-60.662a101.482 101.482 0 0 1 49.207-30.906V31.895h-15.403c-9.515 0-16.692-6.627-16.692-15.703C103.511 7.117 110.838 0 120.203 0Zm46.008 247.884H74.194c10.486 36.893 45.58 64.04 85.63 64.12l1.2-.01c39.551-.614 74.05-27.586 84.43-64.11ZM199.446 7.996h-79.243c-4.808 0-8.696 3.389-8.696 8.196 0 4.808 3.888 7.707 8.696 7.707h23.4v115.845c-39.752 8.057-72.607 43.17-72.607 85.26a84.1 84.1 0 0 0 1.34 14.884h174.978a84.1 84.1 0 0 0 1.339-14.883c0-42.09-32.895-77.204-72.606-85.26V23.898h23.399c4.808 0 8.696-2.909 8.696-7.707 0-4.797-3.888-8.196-8.696-8.196Zm-83.081 192.31c8.832 0 15.992 7.16 15.992 15.993 0 8.832-7.16 15.992-15.992 15.992s-15.993-7.16-15.993-15.992c0-8.833 7.16-15.993 15.993-15.993Zm0 7.996-.25.004a7.996 7.996 0 0 0 .25 15.989l.249-.004a7.996 7.996 0 0 0-.249-15.989Zm47.148-56.493c13.249 0 23.989 10.74 23.989 23.989 0 13.248-10.74 23.988-23.99 23.988-13.248 0-23.988-10.74-23.988-23.988 0-13.249 10.74-23.99 23.989-23.99Zm0 7.996c-.55 0-1.1.03-1.64.08a15.993 15.993 0 0 0-7.306 2.649 16.632 16.632 0 0 0-4.318 4.318 15.992 15.992 0 0 0 11.625 24.858c.54.08 1.09.08 1.639.08a15.993 15.993 0 0 0 15.673-12.774 16.352 16.352 0 0 0 0-6.437 15.993 15.993 0 0 0-15.673-12.774Z" id="Outlines" fill="#000"/></g></svg>