<svg width="320" height="320" viewBox="0 0 320 320" xmlns="http://www.w3.org/2000/svg"><g id="Foundations/Icons/Brand-Icons/Food-and-Drink/01-cherries" stroke="none" stroke-width="1" fill="none" fill-rule="evenodd"><path d="M71.538 178c31.757 0 57.5 25.744 57.5 57.5s-25.743 57.5-57.5 57.5c-31.756 0-57.5-25.744-57.5-57.5s25.744-57.5 57.5-57.5Zm177 0c31.757 0 57.5 25.744 57.5 57.5s-25.743 57.5-57.5 57.5c-31.756 0-57.5-25.744-57.5-57.5s25.744-57.5 57.5-57.5Z" id="lg-icon-fill-primary" fill="#FFD500"/><path d="m92.038 236 .2.005a4 4 0 1 1-.4 0l.2-.005Zm176 0a4 4 0 1 1 0 8 4 4 0 0 1 0-8Zm-160-16 .2.005a4 4 0 1 1-.4 0l.2-.005Zm-32 0 .2.005a4 4 0 1 1-.4 0l.2-.005Zm208 0a4 4 0 1 1 0 8 4 4 0 0 1 0-8Zm-32 0a4 4 0 1 1 0 8 4 4 0 0 1 0-8Zm-160-16 .2.005a4 4 0 1 1-.4 0l.2-.005Zm-32 0a4 4 0 1 1 0 8 4 4 0 0 1 0-8Zm208 0a4 4 0 1 1 0 8 4 4 0 0 1 0-8Zm-32 0a4 4 0 1 1 0 8 4 4 0 0 1 0-8Zm-160-16 .2.005a4 4 0 1 1-.4 0l.2-.005Zm176 0a4 4 0 1 1 0 8 4 4 0 0 1 0-8Z" id="Half-tone" fill="#000"/><path d="M305.728 208.25a55.45 55.45 0 0 0-3-5.44 64.09 64.09 0 0 0-11.69-14.18 63.19 63.19 0 0 0-9.84-7.36 83.906 83.906 0 0 0-5.44-3c-.94-.45-1.88-.88-2.84-1.28-.69-.29-1.38-.57-2.08-.83l-.51-.19-1.7-.61-.44-.15c-.66-.22-1.33-.42-2-.62h-.15c-.76-.22-1.53-.43-2.3-.63-.73-11.27-3.43-34.26-13.56-57.53a173.8 173.8 0 0 0-12.84-24.92 165.59 165.59 0 0 0 39.87-8.6l2.8-1c1.43-.52 2.78-1 4-1.53 1.22-.53 2.44-1 3.52-1.44 1.08-.44 2.07-.89 3-1.28 3.51-1.6 5.51-2.66 5.51-2.66s-2.22-3.88-6.2-9.58c-.47-.67-1-1.37-1.48-2.08l-.79-1.1-1.69-2.24c-.59-.77-1.2-1.57-1.83-2.37-.94-1.21-1.94-2.45-3-3.71-.7-.84-1.41-1.68-2.15-2.53-.74-.85-1.49-1.71-2.26-2.57l-1.18-1.29c-.79-.86-1.61-1.72-2.44-2.57-.83-.85-1.68-1.71-2.54-2.56a143.342 143.342 0 0 0-4-3.75 121.113 121.113 0 0 0-4.24-3.65c-6.75-5.4-14.2-10-22.2-12.64a45.24 45.24 0 0 0-14.19-2.36 68.74 68.74 0 0 0-17.55 2.36 90.25 90.25 0 0 0-18.85 7.48c-1.93 1-3.8 2.07-5.6 3.16-2.7 1.63-5.26 3.31-7.64 5a151.596 151.596 0 0 0-4.53 3.36 87.29 87.29 0 0 0-4 3.25c-1.22 1.06-2.43 2.07-3.52 3-1.09.93-2.06 1.88-3 2.73-.4.37-.77.73-1.13 1.08-.36-.35-.73-.71-1.13-1.08a75.2 75.2 0 0 0-3-2.73c-1.13-.97-2.26-2-3.52-3-1.26-1-2.61-2.15-4-3.25-1.39-1.1-2.94-2.23-4.53-3.36-2.38-1.69-4.94-3.37-7.64-5-1.8-1.09-3.67-2.15-5.6-3.16a90.25 90.25 0 0 0-18.85-7.48A68.74 68.74 0 0 0 94.228 20c-1.806 0-3.61.12-5.4.36-1.19.15-2.37.36-3.54.61a47.74 47.74 0 0 0-5.2 1.44c-.566.193-1.136.393-1.71.6a79.54 79.54 0 0 0-5 2.16c-1.1.53-2.19 1.1-3.26 1.7-1.61.89-3.2 1.86-4.75 2.88-2.08 1.37-4.1 2.84-6.06 4.38-1 .77-1.94 1.56-2.89 2.37-.95.81-1.88 1.63-2.8 2.46a152.83 152.83 0 0 0-19.42 21.74c-.58.79-1.15 1.56-1.69 2.31A154.24 154.24 0 0 0 24.038 76a142.07 142.07 0 0 0 18.23 7.25 174.91 174.91 0 0 0 40.45 8.29 174.36 174.36 0 0 0-12.86 24.88c-10.26 23.58-12.9 46.85-13.58 57.58a64 64 0 0 0-43.21 87c.4 1 .83 1.9 1.28 2.84.9 1.86 1.89 3.68 3 5.44 1.11 1.76 2.22 3.46 3.44 5.1 1.22 1.64 2.54 3.23 3.92 4.74a64.09 64.09 0 0 0 14.18 11.7c1.76 1.07 3.58 2.06 5.44 3a64.13 64.13 0 0 0 52.62 1.18c1-.4 1.9-.83 2.84-1.28 1.86-.9 3.68-1.89 5.44-3 1.76-1.11 3.46-2.22 5.1-3.44 1.64-1.22 3.23-2.54 4.74-3.92a59.23 59.23 0 0 0 4.34-4.34 63.59 63.59 0 0 0 3.92-4.74c1.23-1.64 2.38-3.34 3.44-5.1 1.06-1.76 2.06-3.58 3-5.44a64.18 64.18 0 0 0 0-55.5 55.45 55.45 0 0 0-3-5.44 64.09 64.09 0 0 0-11.73-14.17 63.19 63.19 0 0 0-9.84-7.36 83.906 83.906 0 0 0-5.44-3c-.94-.45-1.88-.88-2.84-1.28a64 64 0 0 0-32.19-4.56c.88-10.91 3.7-32.05 12.84-52.94A144 144 0 0 1 92.898 92h1.33c20.09 0 38.19-9.66 51-19 1.09-.79 2.16-1.59 3.18-2.38a87.29 87.29 0 0 0 4-3.25c1.22-1.06 2.43-2.07 3.52-3 1.09-.93 2.06-1.88 3-2.72l1.11-1.11 1.13 1.09c.89.84 1.87 1.75 3 2.72 1.13.97 2.26 2 3.52 3 1.26 1 2.61 2.15 4 3.25 1 .79 2.09 1.59 3.18 2.38 12.8 9.32 30.9 19 51 19h1.33a144.49 144.49 0 0 1 15.33 27.51c9 20.67 11.91 41.59 12.81 52.93a64.84 64.84 0 0 0-7.3-.42 64 64 0 0 0-24.91 5c-1 .4-1.9.83-2.84 1.28-1.86.9-3.68 1.89-5.44 3-1.76 1.11-3.46 2.22-5.1 3.44a61.215 61.215 0 0 0-4.74 3.92 64.09 64.09 0 0 0-11.7 14.18 79.378 79.378 0 0 0-3 5.44 64.13 64.13 0 0 0-1.27 52.65c.4 1 .83 1.9 1.28 2.84.9 1.86 1.89 3.68 3 5.44 1.11 1.76 2.22 3.46 3.44 5.1 1.22 1.64 2.54 3.23 3.92 4.74a59.23 59.23 0 0 0 4.34 4.34 63.19 63.19 0 0 0 9.84 7.36c1.76 1.06 3.58 2.06 5.44 3a64.13 64.13 0 0 0 52.66 1.28c1-.4 1.9-.83 2.84-1.28 1.86-.9 3.68-1.89 5.44-3 1.76-1.11 3.46-2.22 5.1-3.44 1.64-1.22 3.23-2.54 4.74-3.92a59.23 59.23 0 0 0 4.34-4.34 63.59 63.59 0 0 0 3.92-4.74c1.23-1.64 2.38-3.34 3.44-5.1 1.06-1.76 2.06-3.58 3-5.44a64.18 64.18 0 0 0 0-55.5h-.05ZM72.038 180c30.928 0 56 25.072 56 56s-25.072 56-56 56-56-25.072-56-56c.033-30.914 25.086-55.967 56-56Zm66.89-112.31C119.778 81.17 104.038 84 94.228 84c-25 0-47.14-7.16-58.48-11.63a167.63 167.63 0 0 1 14.77-19C69.548 32.4 84.798 28 94.228 28c17.8 0 34.13 8.87 44.7 16.31A128.12 128.12 0 0 1 153.208 56a129.06 129.06 0 0 1-14.28 11.69ZM225.848 84c-17.8 0-34.13-8.87-44.7-16.31A128.12 128.12 0 0 1 166.868 56a129.06 129.06 0 0 1 14.28-11.69c19.15-13.48 34.89-16.31 44.7-16.31 9.41 0 24.6 4.29 43.55 24.71a164.74 164.74 0 0 1 15 18.89c-11.24 4.73-33.36 12.4-58.55 12.4Zm35.13 89.32-.39-.08.39.08ZM248.038 292c-30.928 0-56-25.072-56-56s25.072-56 56-56 56 25.072 56 56c-.033 30.914-25.085 55.967-56 56Z" id="Outlines" fill="#000"/></g></svg>