<svg xmlns="http://www.w3.org/2000/svg" width="320" height="320" viewBox="0 0 320 320"><g id="Foundations/Icons/Brand-Icons/Festive/04-christmas-gift" fill="none" fill-rule="evenodd" stroke="none" stroke-width="1"><path id="lg-icon-fill-primary" fill="#FFD500" d="M200 116.72c-10.06 2.053-16.93 11.39-15.899 21.606 1.032 10.215 9.632 17.99 19.899 17.99 10.267 0 18.867-7.775 19.899-17.99 1.032-10.215-5.84-19.553-15.899-21.606v-8.84h19.91L248 128v128h-88V128l20.09-20.18H200v8.9Z"/><path id="Half-tone" fill="#000" d="m212 48 .2.005a4 4 0 1 1-.4 0L212 48Zm32 0 .2.005a4 4 0 1 1-.4 0L244 48Zm32 0 .2.005a4 4 0 1 1-.4 0L276 48Zm-96 0 .2.005a4 4 0 1 1-.4 0L180 48Zm-96 0 .2.005a4 4 0 1 1-.4 0L84 48Zm32 0 .2.005a4 4 0 1 1-.4 0L116 48Zm32 0 .2.005a4 4 0 1 1-.4 0L148 48Zm-96 0 .2.005a4 4 0 1 1-.4 0L52 48Zm-32 0a4 4 0 1 1 0 8 4 4 0 0 1 0-8Zm208-16 .2.005a4 4 0 1 1-.4 0L228 32Zm32 0a4 4 0 1 1 0 8 4 4 0 0 1 0-8Zm32 0 .2.005a4 4 0 1 1-.4 0L292 32Zm-96 0 .2.005a4 4 0 1 1-.4 0L196 32Zm-32 0 .2.005a4 4 0 1 1-.4 0L164 32Zm-64 0 .2.005a4 4 0 1 1-.4 0L100 32Zm32 0a4 4 0 1 1 0 8 4 4 0 0 1 0-8Zm-64 0 .2.005a4 4 0 1 1-.4 0L68 32Zm-32 0a4 4 0 1 1 0 8 4 4 0 0 1 0-8Z"/><path id="Outlines" fill="#000" d="M312 16H8a8 8 0 0 0-8 8v48a8 8 0 0 0 8 8h16v224a8 8 0 0 0 8 8h256a8 8 0 0 0 8-8V80h16a8 8 0 0 0 8-8V24a8 8 0 0 0-8-8Zm-24 288H32V80h168v19.86h-23.24l-23.31 23.42a5 5 0 0 0-1.45 3.51V259a5 5 0 0 0 4.95 5h94.1a5 5 0 0 0 4.95-5V126.79a5 5 0 0 0-1.45-3.51l-23.31-23.42H208V80h80v224Zm-84-170a4 4 0 0 0 4-4v-5a12 12 0 1 1-8 0v5a4 4 0 0 0 4 4Zm-4-17.28c-10.06 2.053-16.93 11.39-15.899 21.606 1.032 10.215 9.632 17.99 19.899 17.99 10.267 0 18.867-7.775 19.899-17.99 1.032-10.215-5.84-19.553-15.899-21.606v-8.84h19.91L248 128v128h-88V128l20.09-20.18H200v8.9ZM312 72H8V24h304v48Z"/></g></svg>