<svg xmlns="http://www.w3.org/2000/svg" width="320" height="320" fill="none" viewBox="0 0 320 320"><path fill="#000" fill-rule="evenodd" d="M208 280a4 4 0 1 0 0-8 4 4 0 0 0 0 8Zm-32 0a4 4 0 1 0 0-8 4 4 0 0 0 0 8Zm-32 0a4 4 0 1 0 0-8 4 4 0 0 0 0 8Zm-32 0a4 4 0 1 0 0-8 4 4 0 0 0 0 8Z" clip-rule="evenodd"/><path fill="#FFD500" d="M160 172c33.137 0 60-26.863 60-60s-26.863-60-60-60-60 26.863-60 60 26.863 60 60 60Z"/><path fill="#000" fill-rule="evenodd" d="M256 16v288H64V16l16 8 16-8 16 8 16-8 16 8 16-8 16 8 16-8 16 8 16-8 16 8 16-8Zm-32 8.944-16 8-16-8-16 8-16-8-16 8-16-8-16 8-16-8-16 8-8-4V296h176V28.944l-8 4-16-8ZM212 248a4 4 0 0 1 0 8h-16a4 4 0 0 1 0-8h16Zm-40 0a4 4 0 0 1 0 8h-64a4 4 0 0 1 0-8h64Zm40-24a4 4 0 0 1 0 8h-16a4 4 0 0 1 0-8h16Zm-40 0a4 4 0 0 1 0 8h-64a4 4 0 0 1 0-8h64Zm40-24a4 4 0 0 1 0 8h-16a4 4 0 0 1 0-8h16Zm-40 0a4 4 0 0 1 0 8h-64a4 4 0 0 1 0-8h64ZM160 48c35.346 0 64 28.654 64 64 0 35.346-28.654 64-64 64-35.331-.036-63.964-28.669-64-64 0-35.346 28.654-64 64-64Zm0 8c-30.928 0-56 25.072-56 56s25.072 56 56 56c30.915-.031 55.969-25.085 56-56 0-30.928-25.072-56-56-56Zm2.796 14c18.099 0 21.552 12.009 21.552 25.115 0 2.192-1.792 3.969-4.002 3.969s-4.002-1.777-4.002-3.969c0-12.362-2.873-17.178-13.548-17.178-8.974-.005-11.281 7.106-11.483 15.964l-.004.486c.089 4.377.659 9.573 1.436 13.65l16.594-.001c2.211 0 4.002 1.777 4.002 3.969s-1.791 3.969-4.002 3.969h-14.867l.9 3.824c2.109 9.043 3.791 16.677.679 24.265h27.947c2.21 0 4.002 1.777 4.002 3.968 0 2.192-1.792 3.969-4.002 3.969h-47.996c-2.21 0-4.002-1.777-4.002-3.969 0-2.191 1.792-3.968 4.002-3.968h10.924c4.148-5.507 3.211-11.365.769-21.956l-1.166-4.966-.269-1.166-10.258-.001c-2.21 0-4.002-1.777-4.002-3.969s1.792-3.969 4.002-3.969h8.627c-.705-4.02-1.224-9.245-1.324-13.64v-.287C143.404 80.765 149.34 70 162.796 70Z" clip-rule="evenodd"/></svg>