<svg width="320" height="320" viewBox="0 0 320 320" xmlns="http://www.w3.org/2000/svg"><g id="Foundations/Icons/Brand-Icons/Entertainment-and-Technology/03-clapper-board" stroke="none" stroke-width="1" fill="none" fill-rule="evenodd"><path d="M167.813 158.758c-34.241 0-62 27.759-62 62 0 34.242 27.759 62 62 62 34.242 0 62-27.758 62-62 0-34.241-27.758-62-62-62Zm-16 86v-56l48 28-48 28Z" id="lg-icon-fill-primary" fill="#FFD500"/><path d="M35.813 280.758a4 4 0 1 1 0 8 4 4 0 0 1 0-8Zm256 0a4 4 0 1 1 0 8 4 4 0 0 1 0-8Zm-240-16a4 4 0 1 1 0 8 4 4 0 0 1 0-8Zm224 0a4 4 0 1 1 0 8 4 4 0 0 1 0-8Zm-240-16a4 4 0 1 1 0 8 4 4 0 0 1 0-8Zm256 0a4 4 0 1 1 0 8 4 4 0 0 1 0-8Zm-240-16 .2.005a4 4 0 1 1-.2-.005Zm224 0a4 4 0 1 1 0 8 4 4 0 0 1 0-8Zm-240-16 .2.005a4 4 0 1 1-.2-.005Zm256 0 .2.005a4 4 0 1 1-.2-.005Zm-240-16a4 4 0 1 1 0 8 4 4 0 0 1 0-8Zm224 0 .2.005a4 4 0 1 1-.2-.005Zm-240-16a4 4 0 1 1 0 8 4 4 0 0 1 0-8Zm256 0a4 4 0 1 1 0 8 4 4 0 0 1 0-8Zm-240-16a4 4 0 1 1 0 8 4 4 0 0 1 0-8Zm224 0a4 4 0 1 1 0 8 4 4 0 0 1 0-8Zm-240-16a4 4 0 1 1 0 8 4 4 0 0 1 0-8Zm256 0a4 4 0 1 1 0 8 4 4 0 0 1 0-8Z" id="Half-tone" fill="#000"/><path d="M303.673 136.758a8 8 0 0 1 8 8v152a8 8 0 0 1-8 8h-280a8 8 0 0 1-8-8v-152a8 8 0 0 1 8-8Zm0 8h-280v152h280v-152Zm-135.86 11.71c35.347 0 64 28.654 64 64 0 35.346-28.653 64-64 64-35.33-.038-63.961-28.67-64-64 0-35.346 28.654-64 64-64Zm0 8c-30.928 0-56 25.072-56 56s25.072 56 56 56 56-25.072 56-56-25.072-56-56-56Zm-12.266 17.263.266.147 48 28a8 8 0 0 1 .243 13.673l-.243.147-48 28a8 8 0 0 1-11.995-6.654l-.005-.286v-56a8 8 0 0 1 11.734-7.027Zm-3.734 7.027v56l48-28-48-28Zm141.86-173.55a8 8 0 0 1 9.61 6l8.53 37.15a8 8 0 0 1-6 9.58l-279.46 64.82a8 8 0 0 1-6.05-1 8.05 8.05 0 0 1-3.56-5l-8.54-37.12a8 8 0 0 1 6-9.58Zm1.8 7.79-279.47 64.85 8.54 37.15 279.46-64.85-8.53-37.15Z" id="Outlines" fill="#000"/></g></svg>