<svg xmlns="http://www.w3.org/2000/svg" width="320" height="320" viewBox="0 0 320 320"><g id="Foundations/Icons/Brand-Icons/House-and-Home/01-clock" fill="none" fill-rule="evenodd" stroke="none" stroke-width="1"><circle id="lg-icon-fill-primary" cx="160" cy="160" r="29" fill="#FFD500"/><path id="Half-tone" fill="#000" d="M115.5 256a4 4 0 1 1 0 8 4 4 0 0 1 0-8Zm16-16a4 4 0 1 1 0 8 4 4 0 0 1 0-8Zm-32 0a4 4 0 1 1 0 8 4 4 0 0 1 0-8Zm-16-16a4 4 0 1 1 0 8 4 4 0 0 1 0-8Zm32 0a4 4 0 1 1 0 8 4 4 0 0 1 0-8Zm-48-16 .2.005a4 4 0 1 1-.2-.005Zm32 0a4 4 0 1 1 0 8 4 4 0 0 1 0-8Zm-48-16a4 4 0 1 1 0 8 4 4 0 0 1 0-8Zm32 0a4 4 0 1 1 0 8 4 4 0 0 1 0-8Zm-16-16a4 4 0 1 1 0 8 4 4 0 0 1 0-8Zm-32 0a4 4 0 1 1 0 8 4 4 0 0 1 0-8Z"/><path id="Outlines" fill="#000" d="M160 8c83.947 0 152 68.053 152 152s-68.053 152-152 152S8 243.947 8 160 76.053 8 160 8Zm37.721 11.977C147.722 6.725 94.456 21.307 58.18 58.18 21.308 94.456 6.725 147.722 19.977 197.721c13.252 50 52.302 89.05 102.302 102.302 49.999 13.252 103.265-1.33 139.541-38.203 36.872-36.276 51.455-89.542 38.203-139.541-13.252-50-52.302-89.05-102.302-102.302ZM160 36.57a4 4 0 0 1 3.995 3.8l.005.2v87.1l.08.01c.373.047.742.098 1.11.156l.55.094c.55.1 1.1.21 1.64.33 1.08.247 2.14.547 3.18.9a29.42 29.42 0 0 1 3 1.21 30.14 30.14 0 0 1 2.88 1.49c.307.173.609.356.907.544l.443.286.84.56c.64.41 1.39 1 1.88 1.41.49.41 1.01.84 1.49 1.28a32.54 32.54 0 0 1 8.79 13.44c.26.75.49 1.5.69 2.27a31.25 31.25 0 0 1 .743 3.617l.097.733h65.39a4 4 0 0 1 .2 7.995l-.2.005h-65.39a32.59 32.59 0 0 1-16.69 24.61c-.47.25-.93.49-1.41.72a33.1 33.1 0 0 1-6 2.19c-1.04.26-2.1.48-3.18.65a33.43 33.43 0 0 1-9.92 0c-1.08-.17-2.18-.39-3.18-.65a32.64 32.64 0 0 1-10.72-5 32.59 32.59 0 0 1-2.57-51.085l.53-.455.33-.27a36.74 36.74 0 0 1 1.595-1.222l.545-.388.69-.45c.54-.35 1.08-.68 1.63-1a33.05 33.05 0 0 1 4.29-2 32.68 32.68 0 0 1 5.82-1.66c.64-.12 1.32-.22 2-.31a32.12 32.12 0 0 1 3.96-.25 32.12 32.12 0 0 0-3.234.16l-.806.09V40.57a4 4 0 0 1 4-4Zm-4 99.19c-12.369 2.04-21.219 13.063-20.536 25.58.682 12.517 10.679 22.514 23.196 23.196 12.517.683 23.54-8.167 25.58-20.536a24.41 24.41 0 0 0 0-8A24.62 24.62 0 0 0 164 135.76a24.41 24.41 0 0 0-8 0Z"/></g></svg>