<svg width="320" height="320" viewBox="0 0 320 320" xmlns="http://www.w3.org/2000/svg"><g id="Foundations/Icons/Brand-Icons/Security/16-cloud-files" stroke="none" stroke-width="1" fill="none" fill-rule="evenodd"><path d="M160.13 56c30.315 0 57.445 18.822 68.06 47.218a71.83 71.83 0 0 1 11.24-.88c40.223 0 72.83 32.607 72.83 72.83s-32.607 72.83-72.83 72.83H80.83C40.607 247.998 8 215.39 8 175.168s32.607-72.83 72.83-72.83a71.83 71.83 0 0 1 11.24.88C102.685 74.822 129.815 56 160.13 56Zm0 7.988c-26.976 0-51.118 16.744-60.57 42.01l-2.3 6.12-6.43-1a65.88 65.88 0 0 0-10-.78c-35.805 0-64.83 29.025-64.83 64.83 0 35.804 29.025 64.83 64.83 64.83h148.69l9.9-.03c35.805 0 64.83-29.026 64.83-64.83 0-35.805-29.025-64.83-64.83-64.83a65.88 65.88 0 0 0-10 .78l-6.43 1-2.29-6.09c-9.452-25.266-33.594-42.01-60.57-42.01Zm-13.692 56.01 8.13 8.25h52.078a2.748 2.748 0 0 1 2.742 2.582l.005.168v18.6H226l-16.617 57.75h-.989c-.44.372-.983.595-1.553.64l-.215.01h-87.88a2.748 2.748 0 0 1-2.741-2.583l-.005-.167v-82.5a2.749 2.749 0 0 1 2.579-2.745l.167-.005h27.692Zm70.265 36.6h-76.386l-12.323 43.75h76.126l12.583-43.75Zm-73.17-29.6H123v65.28l11.984-42.68h67.418v-14.35h-47.815a6.985 6.985 0 0 1-4.781-1.884l-.212-.206-6.062-6.16Z" id="Outlines" fill="#000"/></g></svg>