<svg xmlns="http://www.w3.org/2000/svg" width="320" height="320" viewBox="0 0 320 320"><g id="Foundations/Icons/Brand-Icons/Security/15-cloud-security" fill="none" fill-rule="evenodd" stroke="none" stroke-width="1"><path id="Outlines" fill="#000" d="M160 56c30.29 0 57.396 18.822 68.002 47.218a71.709 71.709 0 0 1 11.23-.88c40.189 0 72.768 32.607 72.768 72.83s-32.58 72.83-72.768 72.83H80.768C40.579 247.998 8 215.39 8 175.168s32.58-72.83 72.768-72.83c3.76-.002 7.516.292 11.23.88C102.604 74.822 129.711 56 160 56Zm0 7.988c-26.953 0-51.074 16.744-60.518 42.01l-2.298 6.12-6.425-1a65.769 65.769 0 0 0-9.991-.78c-35.774 0-64.775 29.025-64.775 64.83 0 35.804 29 64.83 64.775 64.83h158.464l-.01-.03c35.774 0 64.775-29.026 64.775-64.83 0-35.805-29-64.83-64.775-64.83a65.769 65.769 0 0 0-9.991.78l-6.425 1-2.288-6.09c-9.444-25.266-33.565-42.01-60.518-42.01ZM161.63 94c27.394.071 49.55 22.177 49.5 49.39 0 .993-.04 1.986-.1 2.98.042.258.071.518.087.78l.013.392v69.505c0 3.76-3.005 6.823-6.76 6.949l-.24.004h-84c-4.335 0-7.865-3.425-7.996-7.7l-.004-.247v-68.472a7.64 7.64 0 0 1 .1-1.172c-.1-.993-.1-1.986-.1-2.98-.035-13.075 5.161-25.628 14.444-34.898 9.283-9.27 21.893-14.497 35.056-14.531Zm41.5 53.542h-83v68.471h83v-68.471Zm-26.429 20.671a16.829 16.829 0 0 1-3.173 18.21l-.258.27v11.553c-.016 5.308-4.281 9.617-9.585 9.75l-.275.004h-4.28c-5.323-.01-9.654-4.223-9.815-9.48l-.005-.274-.04-11.195a16.833 16.833 0 0 1-3.987-18.37c2.532-6.36 8.671-10.576 15.551-10.68 6.88-.102 13.144 3.93 15.867 10.212Zm-15.571-2.966a9.95 9.95 0 0 0-7.06 2.815 9.836 9.836 0 0 0-2.98 6.959 9.724 9.724 0 0 0 4.902 8.417l.278.153v14.655a2.831 2.831 0 0 0 2.687 2.79l.173.004h4.32a2.834 2.834 0 0 0 2.853-2.622l.007-.172v-14.854a9.743 9.743 0 0 0 4.82-8.371c-.05-5.444-4.525-9.818-10-9.774Zm.5-63.3c-21.271.086-39.023 16.067-41.257 37.012l-.063.636h82.64c-1.939-21.256-19.834-37.561-41.32-37.648Z"/></g></svg>