<svg width="320" height="320" viewBox="0 0 320 320" xmlns="http://www.w3.org/2000/svg"><g id="Foundations/Icons/Brand-Icons/Energy-and-Resources/06-coal" stroke="none" stroke-width="1" fill="none" fill-rule="evenodd"><path d="M231.87 247.823c13.255 0 24 10.746 24 24 0 13.255-10.745 24-24 24s-24-10.745-24-24c0-13.254 10.745-24 24-24Zm-143 0c13.255 0 24 10.746 24 24 0 13.255-10.745 24-24 24s-24-10.745-24-24c0-13.254 10.745-24 24-24Z" id="lg-icon-fill-primary" fill="#FFD500"/><path d="M275.87 135.823a4 4 0 1 1 0 8 4 4 0 0 1 0-8Zm-32 0a4 4 0 1 1 0 8 4 4 0 0 1 0-8Zm-32 0a4 4 0 1 1 0 8 4 4 0 0 1 0-8Zm-32 0a4 4 0 1 1 0 8 4 4 0 0 1 0-8Zm-32 0a4 4 0 1 1 0 8 4 4 0 0 1 0-8Zm-32 0a4 4 0 1 1 0 8 4 4 0 0 1 0-8Zm-32 0a4 4 0 1 1 0 8 4 4 0 0 1 0-8Zm-32 0a4 4 0 1 1 0 8 4 4 0 0 1 0-8Zm208-16a4 4 0 1 1 0 8 4 4 0 0 1 0-8Zm-32 0a4 4 0 1 1 0 8 4 4 0 0 1 0-8Zm-32 0a4 4 0 1 1 0 8 4 4 0 0 1 0-8Zm-32 0a4 4 0 1 1 0 8 4 4 0 0 1 0-8Zm-32 0a4 4 0 1 1 0 8 4 4 0 0 1 0-8Zm-32 0a4 4 0 1 1 0 8 4 4 0 0 1 0-8Zm-32 0a4 4 0 1 1 0 8 4 4 0 0 1 0-8Zm-32 0a4 4 0 1 1 0 8 4 4 0 0 1 0-8Zm240-16a4 4 0 1 1 0 8 4 4 0 0 1 0-8Zm-32 0a4 4 0 1 1 0 8 4 4 0 0 1 0-8Zm-32 0a4 4 0 1 1 0 8 4 4 0 0 1 0-8Zm-32 0a4 4 0 1 1 0 8 4 4 0 0 1 0-8Zm-32 0a4 4 0 1 1 0 8 4 4 0 0 1 0-8Zm-32 0a4 4 0 1 1 0 8 4 4 0 0 1 0-8Zm-32 0a4 4 0 1 1 0 8 4 4 0 0 1 0-8Zm-32 0a4 4 0 1 1 0 8 4 4 0 0 1 0-8Z" id="Half-tone" fill="#000"/><path d="M88.87 239.823c17.673 0 32 14.327 32 32 0 17.674-14.327 32-32 32-17.673 0-32-14.326-32-32 0-17.673 14.327-32 32-32Zm143 0c17.673 0 32 14.327 32 32 0 17.674-14.327 32-32 32-17.673 0-32-14.326-32-32 0-17.673 14.327-32 32-32Zm-143 8c-13.255 0-24 10.746-24 24 0 13.255 10.745 24 24 24s24-10.745 24-24c0-13.254-10.745-24-24-24Zm143 0c-13.255 0-24 10.746-24 24 0 13.255 10.745 24 24 24s24-10.745 24-24c0-13.254-10.745-24-24-24ZM159.88 16c28.042 0 51.761 20.742 55.5 48.533 10.128-14.102 28.196-20.06 44.726-14.75 16.53 5.31 27.746 20.678 27.764 38.04h14.38c4.09 0 7.62 3 9.02 6.85a8 8 0 0 1 .48 2.15 9 9 0 0 1-.01 1.43c-.02.25-.1.49-.1.73a9.7 9.7 0 0 1-.38 1.43l-47.48 125.9a8.16 8.16 0 0 1-7.64 5.51H63.6a8 8 0 0 1-4.66-1.54 8 8 0 0 1-.95-.8 8.53 8.53 0 0 1-2-3.2l-47.48-125.9a8.44 8.44 0 0 1 0-5.78 11 11 0 0 1 1.9-3.28c.308-.386.642-.75 1-1.09a9.75 9.75 0 0 1 2.46-1.63 8.67 8.67 0 0 1 2.86-.78h15.14c.007-17.373 11.227-32.756 27.768-38.069 16.54-5.313 34.62.66 44.742 14.78C108.12 36.741 131.838 16 159.88 16Zm142.37 79.823H17.49c-.39 0-1.16.6-1.53 1.6 0 .092.02.183.05.27l47.49 125.79v.14a.36.36 0 0 0 .14.2h192.54a.93.93 0 0 0 .11-.19v-.14l47.44-125.8a.6.6 0 0 0 .04-.29c-.36-.97-1.13-1.58-1.52-1.58Zm-54.38-40c-17.673 0-32 14.327-32 32h64c0-17.673-14.327-32-32-32Zm-88-32a48 48 0 0 0-45.26 64h90.52a48 48 0 0 0-45.26-64Zm-86.35 32h-1.65c-17.673 0-32 14.327-32 32h64a32.08 32.08 0 0 0-2.51-12.42c-.41-.95-.86-1.89-1.35-2.79a29.51 29.51 0 0 0-1.61-2.64 31.49 31.49 0 0 0-6.18-6.8c-.39-.38-.79-.7-1.2-1a32 32 0 0 0-8.15-4.42 30.65 30.65 0 0 0-3-.93 31.71 31.71 0 0 0-6.35-1Z" id="Outlines" fill="#000"/></g></svg>