<svg width="320" height="320" viewBox="0 0 320 320" xmlns="http://www.w3.org/2000/svg"><g id="Foundations/Icons/Brand-Icons/House-and-Home/18-coat-hanger" stroke="none" stroke-width="1" fill="none" fill-rule="evenodd"><path d="m313.686 274.343-147.52-148a7.94 7.94 0 0 0-1.65-1.26v-13.29a40 40 0 0 0 24.28-68.08 40 40 0 0 0-68.28 28.28 4 4 0 1 0 8 0c0-17.673 14.327-32 32-32 17.673 0 32 14.327 32 32 0 17.673-14.327 32-32 32a4 4 0 0 0-4 4v17.07a7.89 7.89 0 0 0-1.65 1.25c-.37.37-37.59 37.32-74.32 73.84-21.57 21.46-38.75 38.57-51.03 50.84-7.32 7.31-13 13-16.82 16.85-2 2.06-3.65 3.68-4.74 4.8l-1.35 1.35c-3.45 3.66-2.73 7.21-2 9a7.996 7.996 0 0 0 7.41 5h296a8 8 0 0 0 5.67-13.65Zm-301.672 5.65c-.568 0 125.142-124.83 145.662-145.19l2.84-2.81 2.83 2.84 144.67 145.16H12.014Z" id="Outlines" fill="#000"/></g></svg>