<svg xmlns="http://www.w3.org/2000/svg" width="320" height="320" viewBox="0 0 320 320"><g id="Foundations/Icons/Brand-Icons/Food-and-Drink/08-coffee" fill="none" fill-rule="evenodd" stroke="none" stroke-width="1"><path id="lg-icon-fill-primary" fill="#FFD500" d="m248 119.5-8 85H80l-8-85h116.24z"/><path id="Half-tone" fill="#000" d="m180 192 .2.005a4 4 0 1 1-.4 0l.2-.005Zm-32 0 .2.005a4 4 0 1 1-.4 0l.2-.005Zm64 0 .2.005a4 4 0 1 1-.4 0l.2-.005Zm-96 0 .2.005a4 4 0 1 1-.4 0l.2-.005Zm48-16 .2.005a4 4 0 1 1-.4 0l.2-.005Zm-32 0 .2.005a4 4 0 1 1-.4 0l.2-.005Zm64 0 .2.005a4 4 0 1 1-.4 0l.2-.005Zm-96 0a4 4 0 1 1 0 8 4 4 0 0 1 0-8Zm128 0 .2.005a4 4 0 1 1-.4 0l.2-.005Zm-48-16 .2.005a4 4 0 1 1-.4 0l.2-.005Zm-32 0 .2.005a4 4 0 1 1-.4 0l.2-.005Zm-32 0 .2.005a4 4 0 1 1-.4 0l.2-.005Zm96 0 .2.005a4 4 0 1 1-.4 0l.2-.005Zm-48-16 .2.005a4 4 0 1 1-.4 0l.2-.005Zm-32 0a4 4 0 1 1 0 8 4 4 0 0 1 0-8Zm-32 0 .2.005a4 4 0 1 1-.4 0l.2-.005Zm128 0 .2.005a4 4 0 1 1-.4 0l.2-.005Zm-32 0a4 4 0 1 1 0 8 4 4 0 0 1 0-8Zm-48-16 .2.005a4 4 0 1 1-.4 0l.2-.005Zm-32 0 .2.005a4 4 0 1 1-.4 0l.2-.005Zm-32 0a4 4 0 1 1 0 8 4 4 0 0 1 0-8Zm128 0 .2.005a4 4 0 1 1-.4 0l.2-.005Zm-32 0 .2.005a4 4 0 1 1-.4 0l.2-.005Z"/><path id="Outlines" fill="#000" d="M256 40h-8V16a8 8 0 0 0-8-8H80a8 8 0 0 0-8 8v24h-8a8 8 0 0 0-8 8v16a8 8 0 0 0 8 8h8.5l2.55 39.5H72a8 8 0 0 0-8 8.75l8 85a8 8 0 0 0 8 7.25h1.56l6.46 100a8 8 0 0 0 8 7.48H224a8 8 0 0 0 8-7.48l6.46-100H240a8 8 0 0 0 8-7.25l8-84.77a8 8 0 0 0-7.94-9H245L247.5 72h8.5a8 8 0 0 0 8-8V48a8 8 0 0 0-8-8ZM80 16h160v24H80V16Zm144 296H96l-6.42-99.5h140.84L224 312Zm24-192.5-8 85H80l-8-85h176Zm-11.06-8H83.06L80.52 72h159l-2.58 39.5ZM256 64H64V48h192v16Z"/></g></svg>