<svg width="320" height="320" viewBox="0 0 320 320" xmlns="http://www.w3.org/2000/svg"><g id="Foundations/Icons/Brand-Icons/Stationary/05-compass" stroke="none" stroke-width="1" fill="none" fill-rule="evenodd"><path d="M271.738 314.58 229.7 204h33.8a4 4 0 0 0 0-8h-36.85l-20.339-53.52A70.82 70.82 0 0 0 223 120.6a70.002 70.002 0 0 0-59-100.48V8a4 4 0 1 0-8 0v12.12a69.998 69.998 0 0 0-59.178 100.05 70.81 70.81 0 0 0 16.18 21.71L92.732 196h-36.23a4 4 0 0 0 0 8h33.23l-41.48 110.6a4.003 4.003 0 0 0 7.5 2.8L98.274 204H221.14l43.119 113.42a4 4 0 1 0 7.48-2.84ZM101.273 196l21.21-56.56-2.18-1.82a62.64 62.64 0 0 1-16.3-20.9c-12.456-26.104-5.208-57.352 17.467-75.307 22.675-17.955 54.752-17.846 77.305.263 22.552 18.109 29.587 49.405 16.955 75.424A62.55 62.55 0 0 1 199 138.15l-2.21 1.85 21.31 56H101.273Z" id="Outlines" fill="#000"/></g></svg>