<svg xmlns="http://www.w3.org/2000/svg" width="320" height="320" viewBox="0 0 320 320"><g id="Foundations/Icons/Brand-Icons/Hazards/02-cone" fill="none" fill-rule="evenodd" stroke="none" stroke-width="1"><path id="lg-icon-fill-primary" fill="#FFD500" d="M118.164 220h84l12 40h-108l12-40Zm23-80h38l11 40h-60l11-40Z"/><path id="Outlines" fill="#000" d="M160 12a7.971 7.971 0 0 1 7.028 4.22l152.026 284a8.022 8.022 0 0 1-.186 7.888 7.97 7.97 0 0 1-6.842 3.892H7.974a7.97 7.97 0 0 1-6.842-3.892 8.022 8.022 0 0 1-.186-7.888l152.076-284A7.972 7.972 0 0 1 160 12Zm0 8L7.974 304h304.052L160 20Zm-7.692 65.802c2.21-7.736 13.174-7.736 15.384 0l48 168c.211.739.312 1.476.313 2.198a7.995 7.995 0 0 1 4.433 1.344l24 16C251.023 277.734 247.915 288 240 288H80c-7.915 0-11.023-10.266-4.438-14.656l24-16A8 8 0 0 1 104 256a7.852 7.852 0 0 1 .308-2.198ZM216 264H104l-24 16h160l-24-16Zm-17.143-40h-77.714L112 256h96l-9.143-32Zm-11.429-40h-54.856l-9.143 32h73.142l-9.143-32ZM176 144h-32l-9.143 32h50.286L176 144Zm-16-56-13.714 48h27.428L160 88Z"/></g></svg>