<svg xmlns="http://www.w3.org/2000/svg" width="320" height="320" viewBox="0 0 320 320"><g id="Foundations/Icons/Brand-Icons/UI/Action/08-controls" fill="none" fill-rule="evenodd" stroke="none" stroke-width="1"><path id="lg-icon-fill-primary" fill="#FFD500" d="M276 180c13.255 0 24-10.745 24-24s-10.745-24-24-24-24 10.745-24 24 10.745 24 24 24Zm-192-8c35.346 0 64 28.654 64 64 0 35.346-28.654 64-64 64-35.346 0-64-28.654-64-64 0-35.346 28.654-64 64-64Zm0 25c-21.54 0-39 17.46-39 39s17.46 39 39 39 39-17.46 39-39-17.46-39-39-39Zm0-177c35.346 0 64 28.654 64 64 0 35.346-28.654 64-64 64-35.346 0-64-28.654-64-64 0-35.346 28.654-64 64-64Zm0 25c-21.54 0-39 17.46-39 39s17.46 39 39 39 39-17.46 39-39-17.46-39-39-39Zm120 23c13.255 0 24 10.745 24 24s-10.745 24-24 24-24-10.745-24-24 10.745-24 24-24Z"/><path id="Outlines" fill="#000" d="M276 16a4 4 0 0 1 4 4v108.283c13.569 1.941 24 13.61 24 27.717 0 14.106-10.431 25.776-24 27.717V300a4 4 0 1 1-8 0V183.716c-13.57-1.94-24-13.61-24-27.716 0-14.106 10.43-25.775 24-27.716V20a4 4 0 0 1 4-4Zm-72 0a4 4 0 0 1 4 4v44.283c13.569 1.941 24 13.61 24 27.717 0 14.106-10.431 25.776-24 27.717V300a4 4 0 1 1-8 0V119.716c-13.57-1.94-24-13.61-24-27.716 0-14.106 10.43-25.775 24-27.716V20a4 4 0 0 1 4-4ZM84 168c37.555 0 68 30.445 68 68s-30.445 68-68 68-68-30.445-68-68 30.445-68 68-68Zm0 8c-33.137 0-60 26.863-60 60s26.863 60 60 60 60-26.863 60-60-26.863-60-60-60Zm0 16c24.3 0 44 19.7 44 44s-19.7 44-44 44-44-19.7-44-44 19.7-44 44-44Zm0 8c-19.882 0-36 16.118-36 36s16.118 36 36 36c18.53 0 33.79-14 35.78-32H84a4 4 0 1 1 0-8h35.78c-1.99-18-17.25-32-35.78-32Zm192-64h-.002l-.558.008a20.316 20.316 0 0 0-.54.022l.495-.021c-.216.006-.432.016-.647.03l.153-.01c-.211.012-.421.027-.63.045l.477-.035a16 16 0 0 0-.541.04l.064-.005c-.168.014-.335.03-.502.049l.438-.044a20.18 20.18 0 0 0-.557.058l.119-.014c-.211.023-.421.05-.63.08l.51-.066c-.184.021-.369.045-.552.072l.042-.006c-.19.027-.378.057-.565.09l.523-.084c-.195.028-.388.06-.58.093l.057-.01c-.188.033-.374.068-.56.105l.502-.095C263.131 137.951 256 146.142 256 156c0 9.68 6.878 17.755 16.014 19.603l.502.095a19.8 19.8 0 0 0 .581.093l-.524-.083c.188.032.376.062.566.089l-.042-.006c.183.026.367.05.552.072l-.51-.066c.209.03.42.057.63.08l-.12-.014c.185.022.371.041.558.058l-.438-.044c.167.018.334.035.502.05l-.064-.006c.18.016.36.03.54.04l-.476-.035c.209.018.419.033.63.044l-.154-.009c.216.014.432.024.649.03l-.495-.02c.18.01.361.016.543.021l-.048-.001c.2.006.401.009.603.009h-.001.002l.556-.008a20.908 20.908 0 0 0 .546-.022l-.497.021c.215-.006.43-.016.642-.03l-.145.01c.21-.012.419-.027.626-.045l-.48.036c.182-.012.364-.025.545-.041l-.065.005c.168-.014.336-.03.503-.049l-.438.044c.187-.017.372-.036.557-.058l-.12.014c.212-.023.421-.05.63-.08l-.51.066a16.7 16.7 0 0 0 .553-.072l-.043.006c.193-.028.384-.058.574-.09l-.53.084c.187-.027.374-.057.56-.09l-.03.005c.19-.033.378-.068.566-.106l.03-.006C289.145 173.729 296 165.665 296 156c0-9.665-6.856-17.729-15.97-19.594l-.03-.006-.536-.101a21.114 21.114 0 0 0-.562-.09l.533.085c-.19-.033-.382-.063-.574-.09l.041.005c-.183-.027-.367-.05-.552-.072l.511.066c-.209-.03-.42-.057-.63-.08l.12.014a21.096 21.096 0 0 0-.558-.058l.438.044a20.083 20.083 0 0 0-.502-.05l.064.006c-.181-.016-.363-.03-.545-.04l.48.035a20.162 20.162 0 0 0-.627-.044l.147.008a20.247 20.247 0 0 0-.644-.029l.497.02c-.18-.009-.36-.016-.541-.021l.044.001c-.2-.006-.402-.009-.604-.009Zm0 16a4 4 0 1 1 0 8 4 4 0 0 1 0-8ZM84 16c37.555 0 68 30.445 68 68s-30.445 68-68 68-68-30.445-68-68 30.445-68 68-68Zm0 8c-33.137 0-60 26.863-60 60s26.863 60 60 60 60-26.863 60-60-26.863-60-60-60Zm31.113 28.887c17.183 17.183 17.183 45.043 0 62.226s-45.043 17.183-62.226 0-17.183-45.043 0-62.226 45.043-17.183 62.226 0Zm-56.569 5.657c-14.059 14.059-14.059 36.853 0 50.912 14.059 14.059 36.853 14.059 50.912 0 13.102-13.103 13.994-33.793 2.673-47.927l-25.3 25.3a4 4 0 1 1-5.657-5.657l25.3-25.3c-14.135-11.322-34.825-10.43-47.928 2.672ZM204 72h-.002l-.558.008a20.316 20.316 0 0 0-.54.022l.495-.021c-.216.006-.432.016-.647.03l.153-.01c-.211.012-.421.027-.63.045l.477-.035a16 16 0 0 0-.541.04l.064-.005c-.168.014-.335.03-.502.049l.438-.044a20.07 20.07 0 0 0-.557.058l.119-.014c-.211.023-.421.05-.63.08l.51-.066c-.184.021-.369.045-.552.072l.042-.006c-.19.027-.378.057-.565.09l.523-.084c-.195.028-.388.06-.58.093l.057-.01c-.188.033-.374.068-.56.105l.502-.095C191.131 73.951 184 82.142 184 92c0 9.68 6.878 17.755 16.014 19.603l.502.095a19.8 19.8 0 0 0 .581.093l-.524-.083c.188.032.376.062.566.089l-.042-.006c.183.026.367.05.552.072l-.51-.066c.209.03.42.057.63.08l-.12-.014c.185.022.371.041.558.058l-.438-.044c.167.018.334.035.502.05l-.064-.006c.18.016.36.03.54.04l-.476-.035c.209.018.419.033.63.044l-.154-.009c.216.014.432.024.649.03l-.495-.02c.18.01.361.016.543.021l-.048-.001c.2.006.401.009.603.009h-.001.002l.556-.008a20.908 20.908 0 0 0 .546-.022l-.497.021c.215-.006.43-.016.642-.03l-.145.01c.21-.012.419-.027.626-.045l-.48.036c.182-.012.364-.025.545-.041l-.065.005c.168-.014.336-.03.503-.049l-.438.044c.187-.017.372-.036.557-.058l-.12.014c.212-.023.421-.05.63-.08l-.51.066a16.7 16.7 0 0 0 .553-.072l-.043.006c.193-.028.384-.058.574-.09l-.53.084c.187-.027.374-.057.56-.09l-.03.005c.19-.033.378-.068.566-.106l.03-.006C217.145 109.729 224 101.665 224 92c0-9.665-6.856-17.729-15.97-19.594L208 72.4l-.536-.101a19.827 19.827 0 0 0-.562-.09l.533.085c-.19-.033-.382-.063-.574-.09l.041.005c-.183-.027-.367-.05-.552-.072l.511.066c-.209-.03-.42-.057-.63-.08l.12.014a20.07 20.07 0 0 0-.558-.058l.438.044a20.082 20.082 0 0 0-.502-.05l.064.006c-.181-.016-.363-.03-.545-.04l.48.035a20.165 20.165 0 0 0-.627-.044l.147.008a20.249 20.249 0 0 0-.644-.029l.497.02c-.18-.009-.36-.016-.541-.021l.044.001c-.2-.006-.402-.009-.604-.009Zm0 16a4 4 0 1 1 0 8 4 4 0 0 1 0-8Z"/></g></svg>