<svg xmlns="http://www.w3.org/2000/svg" width="55" height="55"><g fill="none" fill-rule="evenodd"><path fill="#74C9E3" fill-rule="nonzero" d="M1.44 10.08l8.914-8.501v6.264h9.806v4.474h-9.806v6.264L1.44 10.08z"/><path fill="#000" fill-rule="nonzero" d="M10.354 1.579v6.264h9.806v4.474h-9.806v6.264L1.44 10.08l8.914-8.501m0-1.44c-.37 0-.727.144-.994.401L.446 9.038a1.44 1.44 0 000 2.084L9.36 19.62c.417.398 1.03.508 1.56.281.53-.226.874-.747.874-1.323v-4.82h8.366a1.44 1.44 0 001.44-1.44V7.842a1.44 1.44 0 00-1.44-1.44h-8.366V1.579a1.44 1.44 0 00-1.44-1.44z"/><path fill="#74C9E3" fill-rule="nonzero" d="M53.28 44.869l-8.914 8.501v-6.264H34.56v-4.475h9.806v-6.266l8.914 8.504z"/><path fill="#000" fill-rule="nonzero" d="M44.366 36.36l8.914 8.509-8.914 8.501v-6.264H34.56v-4.475h9.806V36.36m0-1.44a1.439 1.439 0 00-1.438 1.44v4.826H34.56a1.44 1.44 0 00-1.44 1.44v4.48c0 .795.645 1.44 1.44 1.44h8.366v4.824a1.44 1.44 0 002.434 1.042l8.914-8.501a1.441 1.441 0 000-2.085l-8.914-8.503a1.44 1.44 0 00-.995-.398l.001-.005z"/><path d="M15.3 30.92c-.58.54-.9 1.133-.9 1.752 0 2.639 5.803 4.779 12.96 4.779 7.157 0 12.96-2.14 12.96-4.78 0-.618-.322-1.209-.9-1.75-2.71 1.754-7.403 2.66-12.06 2.66-4.657 0-9.347-.906-12.06-2.66zm8.426-4.28c1.207.128 2.42.19 3.634.189a33.928 33.928 0 003.634-.189c2.954-.317 5.47-1.012 7.143-1.931a6.425 6.425 0 001.281-.9c.58-.54.9-1.133.9-1.752 0-2.639-5.803-4.779-12.96-4.779-7.157 0-12.96 2.14-12.96 4.78 0 .618.322 1.209.9 1.75.389.352.82.654 1.282.9 1.676.917 4.192 1.612 7.146 1.932z"/><path d="M39.42 25.609c-1.134.734-2.612 1.319-4.291 1.751-1.36.342-2.744.582-4.14.72-1.208.122-2.42.182-3.634.18a35.588 35.588 0 01-3.635-.18 28.476 28.476 0 01-4.14-.72c-1.679-.432-3.157-1.017-4.29-1.751-.58.54-.9 1.132-.9 1.751 0 .62.321 1.21.9 1.751a6.27 6.27 0 001.28.9c2.326 1.282 6.285 2.126 10.777 2.126 4.493 0 8.451-.844 10.777-2.126a6.311 6.311 0 001.282-.9c.58-.54.9-1.132.9-1.751 0-.62-.308-1.21-.886-1.751z"/><path fill="#000" fill-rule="nonzero" d="M40.554 24.705c.767-.767 1.206-1.652 1.206-2.657 0-4.082-7.245-6.219-14.4-6.219s-14.4 2.137-14.4 6.22c0 1.004.44 1.89 1.206 2.656-.767.765-1.206 1.65-1.206 2.655 0 1.004.44 1.89 1.206 2.655-.767.765-1.206 1.652-1.206 2.657 0 4.082 7.245 6.219 14.4 6.219s14.4-2.137 14.4-6.22c0-1.004-.44-1.89-1.206-2.656.767-.765 1.206-1.65 1.206-2.655 0-1.004-.44-1.89-1.206-2.655zM14.4 22.048c0-2.639 5.803-4.779 12.96-4.779 7.157 0 12.96 2.14 12.96 4.78 0 .618-.322 1.209-.9 1.75-.389.352-.82.654-1.282.9-1.672.92-4.188 1.62-7.142 1.932a34.237 34.237 0 01-7.27.009c-2.954-.317-5.47-1.012-7.143-1.931a6.425 6.425 0 01-1.281-.9c-.58-.551-.902-1.142-.902-1.76zm25.92 10.62c0 2.639-5.803 4.78-12.96 4.78-7.157 0-12.96-2.141-12.96-4.78 0-.619.322-1.21.9-1.751 2.71 1.755 7.403 2.66 12.06 2.66 4.657 0 9.347-.9 12.06-2.66.578.545.9 1.136.9 1.755v-.004zm-2.183-2.657c-2.317 1.286-6.277 2.13-10.777 2.13-4.5 0-8.451-.844-10.777-2.126a6.344 6.344 0 01-1.281-.9c-.58-.54-.9-1.132-.9-1.751 0-.62.322-1.21.9-1.752 1.134.735 2.612 1.32 4.291 1.752 1.36.341 2.744.582 4.14.72a36.15 36.15 0 003.634.18 36.135 36.135 0 003.634-.18 28.588 28.588 0 004.14-.72c1.68-.432 3.158-1.017 4.292-1.752.58.54.9 1.132.9 1.752 0 .619-.323 1.21-.9 1.751a6.336 6.336 0 01-1.296.9v-.004z"/><circle cx="19.395" cy="22.318" r="1" fill="#000" fill-rule="nonzero"/><circle cx="22.275" cy="19.438" r="1" fill="#000" fill-rule="nonzero"/><circle cx="28.035" cy="19.438" r="1" fill="#000" fill-rule="nonzero"/><circle cx="25.155" cy="22.318" r="1" fill="#000" fill-rule="nonzero"/><circle cx="30.915" cy="22.318" r="1" fill="#000" fill-rule="nonzero"/><circle cx="33.795" cy="19.438" r="1" fill="#000" fill-rule="nonzero"/><circle cx="36.675" cy="22.318" r="1" fill="#000" fill-rule="nonzero"/><circle cx="28.035" cy="25.198" r="1" fill="#000" fill-rule="nonzero"/></g></svg>