<svg xmlns="http://www.w3.org/2000/svg" width="320" height="320" viewBox="0 0 320 320"><g id="Foundations/Icons/Brand-Icons/UI/Design-and-Development/10-craft-and-quality-" fill="none" fill-rule="evenodd" stroke="none" stroke-width="1"><path id="lg-icon-fill-primary" fill="#FFD500" d="M264 132h-63l-41 154 104-154Zm-146 0 42 154L58 132h60Zm110-48-27 48-41-48h68Zm-68.908 0-40.551 47.339L92.007 84h67.085Z"/><path id="Half-tone" fill="#000" d="M160 208a4 4 0 1 1 0 8 4 4 0 0 1 0-8Zm0-32a4 4 0 1 1 0 8 4 4 0 0 1 0-8Zm16-16a4 4 0 1 1 0 8 4 4 0 0 1 0-8Zm-32 0a4 4 0 1 1 0 8 4 4 0 0 1 0-8Zm16-16a4 4 0 1 1 0 8 4 4 0 0 1 0-8Zm0-32a4 4 0 1 1 0 8 4 4 0 0 1 0-8Zm-72 0a4 4 0 1 1 0 8 4 4 0 0 1 0-8Zm144 0a4 4 0 1 1 0 8 4 4 0 0 1 0-8Z"/><path id="Outlines" fill="#000" d="m231.223 81.447.127.161 35.778 47.89.094.123.078.11-.088-.123c.53.71.782 1.502.801 2.28v.19a3.93 3.93 0 0 1-.502 1.856 4.44 4.44 0 0 1-.199.323l-103.97 156.954c-1.542 2.329-4.914 2.387-6.547.175l-.122-.175-103.98-156.968a4.097 4.097 0 0 1-.193-.318 3.922 3.922 0 0 1-.499-1.847v-.027a3.914 3.914 0 0 1 .593-2.137l.011-.016c.07-.112.144-.222.224-.327l35.836-47.963a3.966 3.966 0 0 1 3.342-1.603v-.003h136a3.974 3.974 0 0 1 3.216 1.445Zm-129.241 175.62a4.002 4.002 0 0 1 1.565 5.28l-.101.186-7.772 13.466a4 4 0 0 1-7.03-3.815l.102-.187 7.772-13.465a4 4 0 0 1 5.464-1.465Zm121.691.867.119.173.111.182 7.771 13.465a4 4 0 0 1-6.817 4.183l-.11-.181-7.772-13.466a4 4 0 0 1 6.698-4.356Zm-26.895-121.932h-73.543l36.772 135.706 36.771-135.706Zm-81.832 0H63.454l87.136 131.543-35.644-131.543Zm90.122 0L169.425 267.54l87.134-131.538h-51.491ZM59.267 214.513a4.003 4.003 0 0 1-1.283 5.356l-.182.11-13.46 7.775a4 4 0 0 1-5.464-1.465 4.003 4.003 0 0 1 1.283-5.355l.181-.11 13.46-7.775a4 4 0 0 1 5.465 1.464Zm206.797-2.077.19.09.186.102 13.46 7.774a4.002 4.002 0 0 1-3.812 7.033l-.187-.102-13.46-7.774a4.002 4.002 0 0 1 3.623-7.123ZM39.543 152.294a4 4 0 0 1 .2 7.998l-.2.005H24a4 4 0 0 1-.2-7.998l.2-.005h15.543ZM296 151.808a4 4 0 0 1 .2 7.998l-.2.005h-15.543a4 4 0 0 1-.2-7.998l.2-.005H296Zm-67.375-60.48-20.55 36.674h47.95l-27.4-36.674Zm-68.618-1.189-32.532 37.863h65.063l-32.53-37.863Zm-68.619 1.19-27.4 36.673h47.951L91.39 91.328Zm59.908-3.327H98.695l20.764 37.054 31.837-37.054Zm70.022 0h-52.6l31.836 37.054 20.764-37.054ZM43.723 84.58l.19.09.186.102 13.46 7.774a4.002 4.002 0 0 1-3.813 7.033l-.186-.102-13.46-7.774a4.002 4.002 0 0 1 3.623-7.123Zm237.4 1.236a4.003 4.003 0 0 1-1.284 5.355l-.181.111-13.46 7.774a4 4 0 0 1-5.465-1.464 4.003 4.003 0 0 1 1.283-5.355l.182-.111 13.46-7.775a4 4 0 0 1 5.464 1.465Zm-186.1-49.821.12.173.11.182 7.772 13.465a4 4 0 0 1-6.817 4.183l-.111-.181-7.771-13.466a4 4 0 0 1 6.698-4.356Zm134.767-1.353a4.002 4.002 0 0 1 1.565 5.28l-.101.186-7.772 13.466a4 4 0 0 1-7.03-3.815l.102-.187 7.772-13.465a4 4 0 0 1 5.464-1.465ZM160 16c2.142 0 3.891 1.717 3.995 3.874l.005.204v15.844c0 2.252-1.79 4.078-4 4.078-2.142 0-3.891-1.717-3.995-3.874l-.005-.204V20.078c0-2.252 1.79-4.078 4-4.078Z"/></g></svg>