<svg xmlns="http://www.w3.org/2000/svg" width="320" height="320" viewBox="0 0 320 320"><g id="Foundations/Icons/Brand-Icons/Construction/01-crane" fill="none" fill-rule="evenodd" stroke="none" stroke-width="1"><circle id="lg-icon-fill-primary" cx="227.915" cy="147.945" r="19.993" fill="#FFD500"/><path id="Half-tone" fill="#000" d="M51.98 295.889a3.999 3.999 0 1 1 0 7.997 3.999 3.999 0 0 1 0-7.997Zm31.989 0a3.999 3.999 0 1 1 0 7.997 3.999 3.999 0 0 1 0-7.997Zm-15.994-15.994a3.999 3.999 0 1 1 0 7.997 3.999 3.999 0 0 1 0-7.997ZM51.98 263.901a3.999 3.999 0 1 1 0 7.997 3.999 3.999 0 0 1 0-7.997Zm31.988 0a3.999 3.999 0 1 1 0 7.997 3.999 3.999 0 0 1 0-7.997Zm-15.994-15.994a3.999 3.999 0 1 1 0 7.997 3.999 3.999 0 0 1 0-7.997ZM51.98 231.913a3.999 3.999 0 1 1 0 7.997 3.999 3.999 0 0 1 0-7.997Zm31.988 0a3.999 3.999 0 1 1 0 7.997 3.999 3.999 0 0 1 0-7.997Zm-15.994-15.994a3.999 3.999 0 1 1 0 7.997 3.999 3.999 0 0 1 0-7.997ZM51.98 199.925a3.999 3.999 0 1 1 0 7.997 3.999 3.999 0 0 1 0-7.997Zm31.988 0a3.999 3.999 0 1 1 0 7.997 3.999 3.999 0 0 1 0-7.997Zm-15.994-15.994a3.999 3.999 0 1 1 0 7.997 3.999 3.999 0 0 1 0-7.997ZM51.98 167.937a3.999 3.999 0 1 1 0 7.997 3.999 3.999 0 0 1 0-7.997Zm31.988 0a3.999 3.999 0 1 1 0 7.997 3.999 3.999 0 0 1 0-7.997Zm-15.994-15.994a3.999 3.999 0 1 1 0 7.997 3.999 3.999 0 0 1 0-7.997ZM51.98 135.949a3.999 3.999 0 1 1 0 7.997 3.999 3.999 0 0 1 0-7.997Zm31.988 0a3.999 3.999 0 1 1 0 7.997 3.999 3.999 0 0 1 0-7.997Zm-15.994-15.994a3.999 3.999 0 1 1 0 7.997 3.999 3.999 0 0 1 0-7.997ZM51.98 103.961a3.999 3.999 0 1 1 0 7.997 3.999 3.999 0 0 1 0-7.997Zm31.988 0a3.999 3.999 0 1 1 0 7.997 3.999 3.999 0 0 1 0-7.997ZM67.975 87.967a3.999 3.999 0 1 1 0 7.997 3.999 3.999 0 0 1 0-7.997ZM51.98 71.973a3.999 3.999 0 1 1 0 7.997 3.999 3.999 0 0 1 0-7.997Zm31.988 0a3.999 3.999 0 1 1 0 7.997 3.999 3.999 0 0 1 0-7.997ZM67.975 55.979a3.999 3.999 0 1 1 0 7.997 3.999 3.999 0 0 1 0-7.997ZM51.98 39.985a3.999 3.999 0 1 1 0 7.997 3.999 3.999 0 0 1 0-7.997Zm31.988 0a3.999 3.999 0 1 1 0 7.997 3.999 3.999 0 0 1 0-7.997ZM67.975 23.991a3.999 3.999 0 1 1 0 7.997 3.999 3.999 0 0 1 0-7.997Z"/><path id="Outlines" fill="#000" d="m317.54 37.646-3.318-3.319a7.997 7.997 0 0 0-5.648-2.339H103.961V16.294a8.307 8.307 0 0 0-8.297-8.297L40.284 0a8.307 8.307 0 0 0-8.296 8.297v7.697H11.306a7.997 7.997 0 0 0-5.648 2.34l-3.319 3.318A7.993 7.993 0 0 0 0 27.3v65.355c0 2.118.842 4.15 2.34 5.648l3.318 3.319a7.997 7.997 0 0 0 5.648 2.339h20.682v184.051h-.69a7.997 7.997 0 0 0-5.648 2.34l-3.318 3.308a7.997 7.997 0 0 0-2.34 5.658V320h95.965v-20.682a7.997 7.997 0 0 0-2.34-5.658l-3.318-3.309a7.997 7.997 0 0 0-5.648-2.339h-.69V79.97h87.967v12.685a7.997 7.997 0 0 0 2.34 5.648l3.318 3.319a7.997 7.997 0 0 0 5.648 2.339h20.682v16.284c-13.815 2.012-24.035 13.898-23.955 27.859.08 13.96 10.437 25.727 24.275 27.58v24.321c0 1.06.42 2.078 1.17 2.829a26.64 26.64 0 1 1-45.473 18.843 3.998 3.998 0 1 0-7.997 0c-.002 15.468 10.252 29.062 25.125 33.31 14.873 4.247 30.76-1.882 38.927-15.018 8.167-13.136 6.634-30.094-3.755-41.553v-22.812c13.69-2.133 23.759-13.962 23.679-27.817-.08-13.855-10.285-25.567-23.999-27.542V103.96h20.682a7.997 7.997 0 0 0 5.648-2.34l3.319-3.318a7.997 7.997 0 0 0 2.339-5.648V79.97h44.673a7.997 7.997 0 0 0 5.648-2.34l3.319-3.318a7.993 7.993 0 0 0 2.339-5.648v-25.37c0-2.118-.842-4.15-2.34-5.648Zm-69.633 110.299c0 11.041-8.95 19.992-19.992 19.992-11.042 0-19.993-8.95-19.993-19.992 0-11.042 8.951-19.993 19.993-19.993 11.041 0 19.992 8.951 19.992 19.993ZM11.306 95.964l-3.309-3.309V27.3l3.309-3.309h20.682v71.973H11.306Zm92.655 200.045h.69l3.309 3.309v12.685H27.99v-12.685l3.308-3.309h.69a7.997 7.997 0 0 0 7.997-7.997V8.297a.28.28 0 0 1 .13-.24l54.4 7.857c.38.052.765.078 1.15.08a.31.31 0 0 1 .299.3v271.718a7.997 7.997 0 0 0 7.997 7.997ZM308.574 71.973h-44.673a7.997 7.997 0 0 0-7.997 7.997v12.685l-3.309 3.309h-49.361l-3.309-3.309V79.97a7.997 7.997 0 0 0-7.997-7.997h-87.967V39.985h204.613l3.309 3.309v25.37l-3.309 3.309Z"/></g></svg>