<svg width="320" height="320" viewBox="0 0 320 320" xmlns="http://www.w3.org/2000/svg"><g id="Foundations/Icons/Brand-Icons/UI/Action/09-create-account" stroke="none" stroke-width="1" fill="none" fill-rule="evenodd"><circle id="lg-icon-fill-primary" fill="#FFD500" cx="248" cy="248" r="52"/><path d="M48 200a4 4 0 1 1 0 8 4 4 0 0 1 0-8Zm16-16a4 4 0 1 1 0 8 4 4 0 0 1 0-8Zm192 0a4 4 0 1 1 0 8 4 4 0 0 1 0-8Zm-16-16a4 4 0 1 1 0 8 4 4 0 0 1 0-8Zm-160 0a4 4 0 1 1 0 8 4 4 0 0 1 0-8Zm-32 0a4 4 0 1 1 0 8 4 4 0 0 1 0-8Zm224 0a4 4 0 1 1 0 8 4 4 0 0 1 0-8Zm-16-16a4 4 0 1 1 0 8 4 4 0 0 1 0-8Zm-64 0a4 4 0 1 1 0 8 4 4 0 0 1 0-8Zm-64 0a4 4 0 1 1 0 8 4 4 0 0 1 0-8Zm-32 0a4 4 0 1 1 0 8 4 4 0 0 1 0-8Zm-32 0a4 4 0 1 1 0 8 4 4 0 0 1 0-8Zm160 0a4 4 0 1 1 0 8 4 4 0 0 1 0-8Zm48-16a4 4 0 1 1 0 8 4 4 0 0 1 0-8Zm-64 0a4 4 0 1 1 0 8 4 4 0 0 1 0-8Zm-160 0a4 4 0 1 1 0 8 4 4 0 0 1 0-8Zm192 0a4 4 0 1 1 0 8 4 4 0 0 1 0-8Zm-160 0a4 4 0 1 1 0 8 4 4 0 0 1 0-8Zm32 0a4 4 0 1 1 0 8 4 4 0 0 1 0-8Zm112-16a4 4 0 1 1 0 8 4 4 0 0 1 0-8Zm-128 0a4 4 0 1 1 0 8 4 4 0 0 1 0-8Zm-32 0a4 4 0 1 1 0 8 4 4 0 0 1 0-8Zm192 0a4 4 0 1 1 0 8 4 4 0 0 1 0-8ZM80 104a4 4 0 1 1 0 8 4 4 0 0 1 0-8Zm160 0a4 4 0 1 1 0 8 4 4 0 0 1 0-8Zm-16-16a4 4 0 1 1 0 8 4 4 0 0 1 0-8ZM96 88a4 4 0 1 1 0 8 4 4 0 0 1 0-8Zm-32 0a4 4 0 1 1 0 8 4 4 0 0 1 0-8Zm192 0a4 4 0 1 1 0 8 4 4 0 0 1 0-8Zm-16-16a4 4 0 1 1 0 8 4 4 0 0 1 0-8Zm-32 0a4 4 0 1 1 0 8 4 4 0 0 1 0-8Zm-96 0a4 4 0 1 1 0 8 4 4 0 0 1 0-8Zm-32 0a4 4 0 1 1 0 8 4 4 0 0 1 0-8Zm144-16a4 4 0 1 1 0 8 4 4 0 0 1 0-8Zm-32 0a4 4 0 1 1 0 8 4 4 0 0 1 0-8Zm-64 0a4 4 0 1 1 0 8 4 4 0 0 1 0-8Zm-32 0a4 4 0 1 1 0 8 4 4 0 0 1 0-8Zm80-16a4 4 0 1 1 0 8 4 4 0 0 1 0-8Zm-32 0a4 4 0 1 1 0 8 4 4 0 0 1 0-8Z" id="Half-tone" fill="#000"/><path d="M160 16c79.529 0 144 64.471 144 144 0 19.447-3.855 37.993-10.842 54.917A55.71 55.71 0 0 1 304 248.087c-.048 30.522-24.669 55.41-55.075 55.905l-.923.008h-.09a55.704 55.704 0 0 1-33-10.845C197.993 300.145 179.447 304 160 304c-79.529 0-144-64.471-144-144S80.471 16 160 16Zm0 160c-50.81 0-92 35.817-92 80 0 1.435.043 2.861.13 4.277C92.33 282.462 124.583 296 160 296c16.933 0 33.143-3.095 48.095-8.749-9.97-10.136-16.119-24.035-16.095-39.338.035-21.915 12.737-40.925 31.152-50.087C206.676 184.296 184.452 176 160 176Zm88.074 24h-.076c-3.177 0-6.282.309-9.287.898l-.749.153a47.636 47.636 0 0 0-8.383 2.611h.003l-.247.102c-17.212 7.272-29.304 24.298-29.335 44.162-.022 14.05 5.995 26.698 15.603 35.492l.538.485a48.16 48.16 0 0 0 7.233 5.307 47.76 47.76 0 0 0 23.758 6.782l.794.008h.076c26.473 0 47.957-21.44 47.998-47.926.04-26.509-21.416-48.033-47.926-48.074ZM248 212a4 4 0 0 1 4 4v28h28a4 4 0 1 1 0 8h-28v28a4 4 0 1 1-8 0v-28h-28a4 4 0 1 1 0-8h28v-28a4 4 0 0 1 4-4ZM160 24C84.89 24 24 84.89 24 160c0 35.611 13.687 68.026 36.088 92.27C62.311 205.397 106.193 168 160 168c28.02 0 53.35 10.142 71.505 26.481a55.708 55.708 0 0 1 15.57-2.473l.923-.008h.09c15.24.024 29.068 6.166 39.16 16.093C292.905 193.143 296 176.933 296 160c0-75.11-60.89-136-136-136Zm0 40c24.3 0 44 19.7 44 44s-19.7 44-44 44-44-19.7-44-44 19.7-44 44-44Zm0 8c-19.882 0-36 16.118-36 36s16.118 36 36 36 36-16.118 36-36-16.118-36-36-36Z" id="Outlines" fill="#000"/></g></svg>