<svg xmlns="http://www.w3.org/2000/svg" width="320" height="320" viewBox="0 0 320 320"><g id="Foundations/Icons/Brand-Icons/Banking-and-Commerce/04-credit-card" fill="none" fill-rule="evenodd" stroke="none" stroke-width="1"><circle id="lg-icon-fill-primary" cx="251.72" cy="210.75" r="19.72" fill="#FFD500"/><path id="Half-tone" fill="#000" d="M44 144a4 4 0 1 1 0 8 4 4 0 0 1 0-8Zm32 0a4 4 0 1 1 0 8 4 4 0 0 1 0-8Zm32 0a4 4 0 1 1 0 8 4 4 0 0 1 0-8Zm32 0a4 4 0 1 1 0 8 4 4 0 0 1 0-8Zm32 0a4 4 0 1 1 0 8 4 4 0 0 1 0-8Zm32 0a4 4 0 1 1 0 8 4 4 0 0 1 0-8Zm32 0a4 4 0 1 1 0 8 4 4 0 0 1 0-8Zm32 0a4 4 0 1 1 0 8 4 4 0 0 1 0-8ZM28 128a4 4 0 1 1 0 8 4 4 0 0 1 0-8Zm32 0a4 4 0 1 1 0 8 4 4 0 0 1 0-8Zm32 0a4 4 0 1 1 0 8 4 4 0 0 1 0-8Zm32 0a4 4 0 1 1 0 8 4 4 0 0 1 0-8Zm32 0a4 4 0 1 1 0 8 4 4 0 0 1 0-8Zm32 0a4 4 0 1 1 0 8 4 4 0 0 1 0-8Zm32 0a4 4 0 1 1 0 8 4 4 0 0 1 0-8Zm32 0a4 4 0 1 1 0 8 4 4 0 0 1 0-8Zm32 0a4 4 0 1 1 0 8 4 4 0 0 1 0-8ZM44 112a4 4 0 1 1 0 8 4 4 0 0 1 0-8Zm32 0a4 4 0 1 1 0 8 4 4 0 0 1 0-8Zm32 0a4 4 0 1 1 0 8 4 4 0 0 1 0-8Zm32 0a4 4 0 1 1 0 8 4 4 0 0 1 0-8Zm32 0a4 4 0 1 1 0 8 4 4 0 0 1 0-8Zm32 0a4 4 0 1 1 0 8 4 4 0 0 1 0-8Zm32 0a4 4 0 1 1 0 8 4 4 0 0 1 0-8Zm32 0a4 4 0 1 1 0 8 4 4 0 0 1 0-8Z"/><path id="Outlines" fill="#000" d="M304 56a8 8 0 0 1 7.996 7.75L312 64v192a8 8 0 0 1-7.75 7.996L304 264H16a8 8 0 0 1-7.996-7.75L8 256V64a8 8 0 0 1 7.75-7.996L16 56h288Zm0 112H16v88h288v-88Zm-52.28 15c15.302.017 27.703 12.418 27.72 27.72 0 15.31-12.41 27.72-27.72 27.72-15.31 0-27.72-12.41-27.72-27.72 0-15.31 12.41-27.72 27.72-27.72Zm0 8A19.72 19.72 0 0 0 232 210.75c.017 10.887 8.853 19.701 19.74 19.69 10.887-.011 19.705-8.843 19.7-19.73-.006-10.887-8.833-19.71-19.72-19.71Zm-87.713 17a3.997 3.997 0 0 1 3.993 4c0 2.21-1.788 4-3.993 4H43.993A3.997 3.997 0 0 1 40 212c0-2.21 1.788-4 3.993-4h120.014ZM304 104H16v56h288v-56Zm0-40H16v32h288V64Z"/></g></svg>