<svg width="320" height="320" viewBox="0 0 320 320" xmlns="http://www.w3.org/2000/svg"><g id="Foundations/Icons/Brand-Icons/Banking-and-Commerce/23-currency" stroke="none" stroke-width="1" fill="none" fill-rule="evenodd"><circle id="lg-icon-fill-primary" fill="#FFD500" cx="112" cy="208" r="64"/><path d="M156 80a4 4 0 1 1 0 8 4 4 0 0 1 0-8Zm32 0a4 4 0 1 1 0 8 4 4 0 0 1 0-8Zm32 0a4 4 0 1 1 0 8 4 4 0 0 1 0-8Zm-80-16a4 4 0 1 1 0 8 4 4 0 0 1 0-8Zm32 0a4 4 0 1 1 0 8 4 4 0 0 1 0-8Zm32 0a4 4 0 1 1 0 8 4 4 0 0 1 0-8Zm32 0a4 4 0 1 1 0 8 4 4 0 0 1 0-8Zm32 0a4 4 0 1 1 0 8 4 4 0 0 1 0-8ZM124 48a4 4 0 1 1 0 8 4 4 0 0 1 0-8Zm32 0a4 4 0 1 1 0 8 4 4 0 0 1 0-8Zm32 0a4 4 0 1 1 0 8 4 4 0 0 1 0-8Zm32 0a4 4 0 1 1 0 8 4 4 0 0 1 0-8Zm32 0a4 4 0 1 1 0 8 4 4 0 0 1 0-8Zm-80-16a4 4 0 1 1 0 8 4 4 0 0 1 0-8Zm32 0a4 4 0 1 1 0 8 4 4 0 0 1 0-8Zm32 0a4 4 0 1 1 0 8 4 4 0 0 1 0-8Z" id="Half-tone" fill="#000"/><path d="M304 139.99c0-7.995-4.614-14.922-10.554-19.99 4.915-4.197 9.046-9.624 10.192-16.08a22.27 22.27 0 0 0-2.533-14.813 32.932 32.932 0 0 0-7.92-9.295c.623.08 1.608-1.22 2.01-1.61a35.468 35.468 0 0 0 2.573-2.778 27.908 27.908 0 0 0 3.74-5.757 22.146 22.146 0 0 0 1.869-13.633c-1.73-8.995-8.815-15.842-16.324-20.56-8.162-5.127-17.44-8.565-26.667-11.224a201.464 201.464 0 0 0-30.768-6.107 276.796 276.796 0 0 0-64.501-.5 212.855 212.855 0 0 0-31.21 5.578c-9.328 2.449-18.696 5.577-27.14 10.265-7.7 4.257-15.389 10.274-18.636 18.7-3.246 8.426-.623 17.191 5.026 23.818.684.8 1.397 1.569 2.151 2.298.342.34 1.488 1.74 2.01 1.61-7.357 6.246-12.443 15.292-10.091 25.097a24.995 24.995 0 0 0 4.282 8.995c-33.65 7.458-60.744 32.2-71.074 64.906-10.33 32.706-2.327 68.408 20.993 93.657 23.32 25.248 58.416 36.208 92.066 28.75a97.568 97.568 0 0 0 7.74-2.189 3.152 3.152 0 0 1 1.88-.26l1.668.34c1.357.27 2.724.53 4.081.78a252.217 252.217 0 0 0 32.166 3.588 264.534 264.534 0 0 0 65.194-4.388 155.656 155.656 0 0 0 27.522-7.995c7.589-3.049 15.077-6.927 21.108-12.534a28.6 28.6 0 0 0 8.222-12.593 22.003 22.003 0 0 0-1.085-15.253 31.69 31.69 0 0 0-8.544-10.874c4.915-4.188 9.046-9.625 10.192-16.082a22.279 22.279 0 0 0-2.432-14.632 33.137 33.137 0 0 0-7.76-9.265c4.915-4.188 9.046-9.625 10.192-16.082a22.279 22.279 0 0 0-2.432-14.633 33.137 33.137 0 0 0-7.76-9.265c5.94-5.067 10.554-11.994 10.554-19.99ZM96.585 67.029a14.133 14.133 0 0 1-1.468-10.264 19.344 19.344 0 0 1 4.825-8.346c4.282-4.628 10.052-7.796 15.7-10.385 13.57-6.197 28.196-9.555 42.941-11.554a272.808 272.808 0 0 1 47.444-2.249 229.669 229.669 0 0 1 45.594 5.947 136.075 136.075 0 0 1 21.189 6.997c6.182 2.648 12.303 5.927 17.088 10.764a20.142 20.142 0 0 1 5.377 8.666c.84 3.268.455 6.729-1.085 9.735-3.016 6.086-9.127 10.294-14.927 13.453-13.117 7.146-28.205 10.734-42.86 13.093a261.79 261.79 0 0 1-46.318 3.128 242.84 242.84 0 0 1-45.695-4.877 148.573 148.573 0 0 1-22.324-6.437c-6.634-2.519-13.208-5.647-18.767-10.095a26.184 26.184 0 0 1-6.714-7.576Zm-.854 28.406a21.812 21.812 0 0 1 6.171-8.616c.503-.46 1.387-1.52 2.01-1.73.473-.139 1.508.7 2.01 1 1.378.78 2.795 1.53 4.223 2.23a121.494 121.494 0 0 0 20.394 7.625 220.617 220.617 0 0 0 44.65 7.387 282.673 282.673 0 0 0 47.705-.66c14.836-1.48 29.702-4.118 43.845-8.896a97.907 97.907 0 0 0 18.806-8.365c.211-.12.674-.52.915-.55.241-.03.673.43.905.62.723.58 1.417 1.18 2.09 1.819a25.537 25.537 0 0 1 3.599 4.168 14.93 14.93 0 0 1 2.764 10.154c-.885 7.227-7.207 12.524-13.017 16.182a88.702 88.702 0 0 1-20.173 8.995c-14.887 4.798-30.527 7.247-46.097 8.436-7.787.6-15.594.863-23.42.79-4.021 0-8.015-.12-11.982-.36-1.94-.1-3.89-.22-5.83-.36a5.65 5.65 0 0 1-1.488-.12 4.075 4.075 0 0 1-.844-.71 40.182 40.182 0 0 0-2.01-1.599 96.317 96.317 0 0 0-55.596-20.729 98.801 98.801 0 0 0-11.539.16c-.744 0-2.231.44-2.845.12a8.737 8.737 0 0 1-2.01-2.1 19.586 19.586 0 0 1-2.875-4.497 13.84 13.84 0 0 1-.361-10.394Zm100.586 89.234c.13.47.251.939.382 1.419.302 1.19.583 2.379.844 3.578a90.626 90.626 0 0 1 1.166 6.776 87.982 87.982 0 0 1-4.02 40.07c-14.191 41.055-56.384 65.675-99.35 57.97a88.388 88.388 0 0 1-34.367-14.083 88.871 88.871 0 0 1-25.129-26.246c-20.908-33.515-16.76-76.784 10.142-105.766 21.694-23.404 54.412-33.328 85.55-25.948 31.138 7.38 55.836 30.911 64.581 61.53l.201.7Zm97.601 67.964a14.292 14.292 0 0 1 .161 14.213c-2.252 4.118-5.97 7.316-9.83 9.915-8.645 5.817-18.827 9.335-28.839 11.994-20.736 5.517-42.498 7.366-63.898 7.066a256.649 256.649 0 0 1-35.773-2.888 97.1 97.1 0 0 0 23.621-17.291 97.7 97.7 0 0 0 9.459-10.995c.13-.18.381-.69.583-.8.2-.11.743 0 1.005 0h6.171c2.835 0 5.66-.07 8.494-.16 20.465-.679 41.212-3.288 60.742-9.684a109.916 109.916 0 0 0 15.67-6.387 75.33 75.33 0 0 0 3.197-1.72 10.124 10.124 0 0 1 1.608-.949c.503-.16.1-.23.663 0 .432.285.827.62 1.176 1a25.798 25.798 0 0 1 5.82 6.726l-.03-.04Zm0-39.979c9.047 15.782-12.795 27.066-24.536 31.634-15.077 5.867-31.391 8.775-47.484 10.344a273.478 273.478 0 0 1-27.3 1.3 95.115 95.115 0 0 0 9.52-22.709 86 86 0 0 0 1.457-6.096c.1-1.014.287-2.018.562-2.999.191-.46-.17-.22.453-.38.264-.02.53-.02.794 0l2.01-.09c4.51-.213 9.013-.546 13.51-1 16.836-1.638 33.823-4.737 49.624-10.893a91.82 91.82 0 0 0 11.942-5.568l1.136-.65c.19-.12.894-.689 1.125-.669.382 0 1.186 1 1.478 1.19.452.39.895.79 1.337 1.199a24.153 24.153 0 0 1 4.402 5.427l-.03-.04Zm0-39.98c7.91 13.844-8.634 24.568-19.4 29.475-13.207 5.997-27.712 9.206-42.025 11.245a255.411 255.411 0 0 1-25.3 2.249 96.183 96.183 0 0 0-2.774-31.864 255.973 255.973 0 0 0 38.769-3.998c12.303-2.279 24.596-5.547 35.934-10.884a87.81 87.81 0 0 0 4.111-2.08c.614-.33 1.217-.669 1.82-.999.603-.33 1.306-1 1.779-.85.653.2 1.508 1.23 2.01 1.69.503.46 1.247 1.16 1.83 1.769a23.582 23.582 0 0 1 3.276 4.288l-.03-.04Zm-249.345 21.37c7.593-35.47 41.933-58.701 77.9-52.7 35.968 6.002 60.801 39.107 56.334 75.098a67.225 67.225 0 0 1-2.463 11.504c-10.66 34.68-46.9 54.859-82.208 45.775-35.307-9.084-57.156-44.208-49.563-79.678Zm66.693-45.746-.959.01c-32.033.581-57.939 26.118-58.802 57.964-.863 31.846 23.621 58.733 55.577 61.03 31.955 2.296 60.073-20.81 63.825-52.45a60.1 60.1 0 0 0 .291-10.754c-2.032-31.793-28.858-56.372-60.891-55.79Zm-10.108 23.437a22.796 22.796 0 0 1 20.023-2.528 20.034 20.034 0 0 1 12.766 13.692c.57 2 .93 4.054 1.075 6.127.151 2.06.473 4.418-1.256 5.927a4.088 4.088 0 0 1-5.317 0c-1.71-1.499-1.297-3.788-1.478-5.787-.312-3.418-1.297-6.956-3.71-9.515a11.995 11.995 0 0 0-6.754-3.438c-7.247-1.25-14.605 2.788-16.364 10.135a20.216 20.216 0 0 0-.221 6.276c.12 1.486.292 2.966.513 4.438.09.61.19 1.21.291 1.82.023.366.09.728.201 1.079.221.16 1.226 0 1.488 0h3.236c4.443 0 8.916-.14 13.36 0 3.95.12 5.608 5.377 2.06 7.446-1.508.88-3.75.55-5.418.55h-13.007c1.81 7.676 4.262 16.231 1.488 23.987h30.939c2.22.044 3.984 1.87 3.94 4.078-.045 2.208-1.88 3.962-4.101 3.918H88.895c-2.01 0-4.02.14-5.357-1.77a3.979 3.979 0 0 1-.188-4.153 4.025 4.025 0 0 1 3.626-2.073c1.92 0 3.93 0 5.85-.03a7.257 7.257 0 0 0 2.231 0c.744-.34 1.337-2.259 1.578-2.998a19.88 19.88 0 0 0 .302-8.996c-.292-1.949-.694-3.898-1.116-5.827-.251-1.14-.523-2.278-.784-3.408l-.392-1.63c-.05-.219-.11-1.019-.261-1.099-.402-.24-1.659 0-2.121 0h-3.649c-2.18-.002-4.474-.076-5.448-2.448-1.246-2.939 1.196-5.547 4.111-5.547h5.478a76.117 76.117 0 0 1-.914-7.676 23.758 23.758 0 0 1 2.01-12.084 21.683 21.683 0 0 1 7.307-8.466Zm185.794-46.636a9.768 9.768 0 0 1 1.458 1.2 27.14 27.14 0 0 1 4.553 4.997 14.575 14.575 0 0 1 2.192 13.273v-.04c-2.875 8.086-11.5 13.243-18.847 16.792a125.129 125.129 0 0 1-26.878 8.995 217.75 217.75 0 0 1-28.145 4.428c-4.774.45-9.559.76-14.353 1-1.247.05-2.503.09-3.75.12-.264.024-.53.024-.794 0-.683-.1-.22.079-.512-.32a8.634 8.634 0 0 1-.664-1.79 83.506 83.506 0 0 0-2.493-5.887 95.908 95.908 0 0 0-16.082-24.177 274.059 274.059 0 0 0 53.153-2.639c16.223-2.469 32.889-6.367 47.413-14.213.865-.46 1.73-.95 2.573-1.449.153-.11.314-.206.483-.29.523-.22.13-.3.693 0Z" id="Outlines" fill="#000"/></g></svg>