<svg xmlns="http://www.w3.org/2000/svg" viewBox="0 0 320 320"><g id="Foundations/Icons/Brand-Icons/Banking-and-Commerce/28-currency-pounds" fill="none" fill-rule="evenodd" stroke="none" stroke-width="1"><path id="lg-icon-fill-primary" fill="#FFD500" d="M237.02 124.02c22.091 0 40 17.909 40 40s-17.909 40-40 40-40-17.909-40-40 17.909-40 40-40ZM123.99 28c22.091 0 40 17.909 40 40s-17.909 40-40 40-40-17.909-40-40 17.909-40 40-40Z"/><path id="Half-tone" fill="#000" d="M60 272a4 4 0 1 1 0 8 4 4 0 0 1 0-8Zm-16-16a4 4 0 1 1 0 8 4 4 0 0 1 0-8Zm16-16a4 4 0 1 1 0 8 4 4 0 0 1 0-8Zm-16-16a4 4 0 1 1 0 8 4 4 0 0 1 0-8Zm16-16a4 4 0 1 1 0 8 4 4 0 0 1 0-8Z"/><path id="Outlines" fill="#000" d="M68 192c5.225 0 9.67 3.34 11.317 8H92c6.627 0 12 5.373 12 12v.215c9.88-.295 49.481.36 72.797 27.783l32.043.002c8.206 0 14.923 6.723 15.349 15.15l54.071-21.84c.9-.34 8.12-2.89 13.31.71 2 1.41 4.46 4.27 4.46 9.93-.028 12.056-11.608 19.032-15.01 20.752l-.24.119c-.15.073-.277.133-.38.18-5.22 3.35-74.05 47-99.4 47-23.065 0-62.763-18.323-77.28-25.43-1.174 5.393-5.976 9.43-11.72 9.43H36c-6.627 0-12-5.374-12-12v-80c0-6.628 5.373-12 12-12h32Zm35.998 28.252v57.516C113.974 282.757 157.887 304 181 304c6.64 0 21.76-3.94 56.12-22.71 16.085-8.786 30.522-17.678 36.395-21.345l.44-.275c1.479-.925 2.307-1.451 2.345-1.47a4.91 4.91 0 0 1 .5-.28c.01 0 .105-.04.271-.122l.189-.093c2.113-1.07 10.77-6.073 10.77-13.785 0-1-.13-2.74-1-3.35-1.2-.84-4.14-.45-5.83.16l-59.36 24-.163.061c-2.75 4.34-7.476 7.21-12.837 7.21h-53.05a4 4 0 1 1 0-8h53.05c4.07 0 7.37-3.59 7.37-8s-3.3-8-7.37-8H174.9l-.182-.006-.05-.002a3.759 3.759 0 0 1-.207-.017l-.028-.004a3.989 3.989 0 0 1-2.558-1.354l-.095-.118c-20.844-26.028-59.386-26.475-67.782-26.248ZM92 208H80v80h12a4 4 0 0 0 4-4v-72a4 4 0 0 0-4-4Zm-24-8H36a4 4 0 0 0-4 4v80a4 4 0 0 0 4 4h36v-84a4 4 0 0 0-4-4Zm169-96c25.251-.067 47.82 15.744 56.38 39.5 8.947 24.61.9 52.179-19.879 68.113-20.78 15.934-49.492 16.552-70.938 1.527-21.446-15.025-30.67-42.222-22.791-67.194C187.65 120.974 210.815 103.996 237 104Zm0 6-.893.007C206.696 110.484 183 134.475 183 164c0 29.823 24.177 54 54 54a54.05 54.05 0 0 0 50.74-72.45c-7.8-21.307-28.05-35.496-50.74-35.55Zm0 14a39.999 39.999 0 0 1 37.59 26.33c5.966 16.406.604 34.786-13.248 45.41-13.852 10.624-32.994 11.038-47.292 1.022-14.298-10.015-20.45-28.146-15.2-44.794C204.103 135.32 219.544 124 237 124Zm0 6-.7.008a34.1 34.1 0 0 0-10.93 2.052c-16.56 6.043-25.756 23.742-21.18 40.766 4.577 17.025 21.406 27.728 38.765 24.653 17.359-3.075 29.488-18.907 27.938-36.468-1.55-17.56-16.264-31.024-33.893-31.01Zm4.23 12.09c3.49 1.67 6.12 4.88 7.83 9.56a3 3 0 0 1-5.64 2.05c-1.15-3.15-2.75-5.23-4.77-6.19a7.81 7.81 0 0 0-6 0 8 8 0 0 0-4.78 10.18v.08a56.45 56.45 0 0 0 2.65 5.432l10.2-3.712a3 3 0 0 1 2.05 5.64l-8.982 3.276.174.264c2.716 4.147 5.257 8.162 5.528 12.57l17.45-6.35 2.05 5.64-9.071 3.288a3.027 3.027 0 0 1-.309.152l-18.79 6.84a2.88 2.88 0 0 1-1.06.19 3 3 0 0 1-1-5.82l4.524-1.645c.83-3.393-1.194-6.745-4.644-12.015a62.08 62.08 0 0 1-.677-.987L223.94 172a3 3 0 0 1-1.02.15 3 3 0 0 1-1-5.82l2.883-1.05a62.08 62.08 0 0 1-2.583-5.43v-.14c-2.576-7.236 1.159-15.196 8.37-17.84a13.54 13.54 0 0 1 10.64.22ZM124 8c7 .007 13.945 1.239 20.52 3.64 29.25 10.676 45.488 41.94 37.4 72.008-8.089 30.069-37.819 48.968-68.478 43.529-30.659-5.439-52.075-33.41-49.327-64.426C66.863 31.735 92.862 7.964 124 8Zm0 6-.681.001c-22.46.18-42.464 14.344-50.069 35.53-8.06 22.145-.829 46.96 17.868 61.309 18.697 14.347 44.539 14.913 63.845 1.397 19.306-13.517 27.617-37.992 20.532-60.47C168.411 29.29 147.567 14.003 124 14Zm0 14a40 40 0 0 1 13.68 2.42c19.485 7.105 30.308 27.924 24.93 47.954-5.38 20.03-25.177 32.627-45.6 29.015-20.423-3.613-34.697-22.237-32.878-42.897C85.952 43.832 103.26 27.989 124 28Zm0 6-.447.001A33.85 33.85 0 0 0 92 56.371 34 34 0 1 0 124 34Zm9.3 12.89a13.47 13.47 0 0 1 8 7c1.61 3.51 1.56 7.67-.14 12.34a3 3 0 1 1-5.64-2c1.15-3.14 1.26-5.77.33-7.8a7.8 7.8 0 0 0-4.6-3.86A7.92 7.92 0 0 0 121 57.26v.08a56.05 56.05 0 0 0-1.463 5.854l10.143 3.696a3 3 0 0 1-1 5.82 2.79 2.79 0 0 1-1-.19l-8.981-3.268-.04.34c-.59 4.932-1.219 9.61-3.819 13.158l17.45 6.35a3 3 0 0 1-1 5.82h-.06a3 3 0 0 1-1-.18l-9.355-3.408-.035-.012L102 84.48a3 3 0 0 1 2-5.64l4.65 1.692c2.788-2.071 3.381-5.935 4.12-12.162.036-.41.077-.821.121-1.23l-4.011-1.46a3 3 0 0 1 2-5.64l2.966 1.08a62 62 0 0 1 1.514-5.81l.05-.14a13.93 13.93 0 0 1 17.89-8.28Z"/></g></svg>