<svg xmlns="http://www.w3.org/2000/svg" width="320" height="320" viewBox="0 0 320 320"><g id="Foundations/Icons/Brand-Icons/UI/Design-and-Development/06-customer" fill="none" fill-rule="evenodd" stroke="none" stroke-width="1"><path id="lg-icon-fill-primary" fill="#FFD500" d="M196 132c8 16 18.667 24 32 24 13.333 0 24-7.333 32-22l36 7 3.937 14.753c.042 1.41.063 2.826.063 4.247 0 77.32-62.68 140-140 140S20 237.32 20 160c0-2.33.057-4.646.17-6.948.834-2.35 4.777-4.701 11.83-7.052l32-8 24 18 24-17 26.402 6.6C124.456 153.365 115 168.418 115 185.714c0 15.505 11.598 29.206 23.217 37.473 2.776 5.223 4.279 7.157 8.506 9.8l-2.052 6.237-.041.165-.13.467-.118.374c-.122.362-.262.72-.42 1.073l-.114.246c-.085.18-.176.36-.27.537l-.049.088-.189.335c-.194.332-.406.66-.636.984l-.065.092-.189.256-.206.266-.211.262-.29.339-.284.317a19.273 19.273 0 0 1-1.465 1.414c-.485.42-1.005.83-1.56 1.231l-.365.257-.505.345a32.895 32.895 0 0 1-3.526 2.014l-.563.274-.577.27-.557.252c-.375.166-.76.33-1.151.492l-.608.247-.456.18h4.118l.165.377C138.769 262.172 148.587 269 160 269c11.559 0 21.482-7.004 25.756-17h4.119a51.14 51.14 0 0 1-3.06-1.301l-.18-.085-.695-.338c-.34-.17-.673-.34-.997-.515l-.184-.098-.666-.372-.593-.348-.44-.27-.353-.224-.46-.303-.319-.218-.18-.127-.322-.232-.55-.415a20.41 20.41 0 0 1-1.616-1.396l-.225-.22-.32-.327-.14-.15-.298-.33-.297-.347-.237-.293-.257-.336-.265-.368a13.535 13.535 0 0 1-.96-1.613l-.109-.225.021.045-.05-.105.026.053-.153-.334-.12-.283-.134-.345-.123-.348c-.06-.18-.116-.36-.168-.542l-.108-.411-2.066-6.292c4.227-2.643 5.73-4.577 8.506-9.8C193.403 214.92 205 201.218 205 185.713c0-20.453-13.222-37.768-31.456-43.607Z"/><path id="Half-tone" fill="#000" d="M236 240a4 4 0 1 1 0 8 4 4 0 0 1 0-8Zm-152 0a4 4 0 1 1 0 8 4 4 0 0 1 0-8Zm168-16a4 4 0 1 1 0 8 4 4 0 0 1 0-8Zm-32 0a4 4 0 1 1 0 8 4 4 0 0 1 0-8Zm-120 0a4 4 0 1 1 0 8 4 4 0 0 1 0-8Zm-32 0a4 4 0 1 1 0 8 4 4 0 0 1 0-8Zm200-16a4 4 0 1 1 0 8 4 4 0 0 1 0-8Zm-32 0a4 4 0 1 1 0 8 4 4 0 0 1 0-8Zm-152 0a4 4 0 1 1 0 8 4 4 0 0 1 0-8Zm-32 0a4 4 0 1 1 0 8 4 4 0 0 1 0-8Zm200-16a4 4 0 1 1 0 8 4 4 0 0 1 0-8Zm-184 0a4 4 0 1 1 0 8 4 4 0 0 1 0-8Zm200-16a4 4 0 1 1 0 8 4 4 0 0 1 0-8Zm-32 0a4 4 0 1 1 0 8 4 4 0 0 1 0-8Zm-152 0a4 4 0 1 1 0 8 4 4 0 0 1 0-8Zm-32 0a4 4 0 1 1 0 8 4 4 0 0 1 0-8Z"/><path id="Outlines" fill="#000" d="m160 304-2.381-.02a146.395 146.395 0 0 1-11.86-.675 144.45 144.45 0 0 1-13.796-2.033 143.212 143.212 0 0 1-13.135-3.244l-.022-.006-.067-.02a142.85 142.85 0 0 1-13.281-4.69l.905.365a141.235 141.235 0 0 1-10.33-4.63c-35.851-17.805-63.228-50.108-74.46-89.24l.003.011-.173-.607-.104-.369.277.976a142.89 142.89 0 0 1-4.372-21.112 144.183 144.183 0 0 1-1.133-14.155 146.41 146.41 0 0 1-.07-4.345v-.022L16 160l.013-.001.16-2.562a16 16 0 0 1 13.834-14.874l1.703-.236c2.93-.416 5.693-.87 8.29-1.358V64c0-26.51 21.49-48 48-48s48 21.49 48 48l-.002 76.966c.655.124 1.32.245 1.997.364a47.796 47.796 0 0 1 23.28-5.313l-.401-.01a15.972 15.972 0 0 1 4.987-1.527c10.615-1.433 19.272-3.312 25.969-5.638l.47-.166a54.575 54.575 0 0 0 5.478-2.262c.294-.142.582-.286.864-.43l.008-.005.015-.008.022-.01-.023.01.492-.256a35.697 35.697 0 0 0 1.127-.625l.026-.016.377-.221.392-.24.067-.041.062-.039.027-.017.466-.298c.32-.21.63-.421.928-.635a23.411 23.411 0 0 0 1.328-1.024 20.182 20.182 0 0 0 .919-.815 18.103 18.103 0 0 0 .858-.87l.06-.069.17-.189a15.203 15.203 0 0 0 .607-.738l.008-.011.009-.011.048-.064.056-.075.077-.103c.065-.088.128-.177.19-.266l.03-.047.183-.27c.138-.21.268-.424.39-.639l.068-.12.129-.241.077-.15c.068-.134.132-.269.194-.404l.038-.086.022-.048.057-.132.001-.002.02-.048.038-.09.022-.055.017-.044.028-.07.004-.011-.005.011.019-.048.006-.017.025-.062.058-.158-.031.078.07-.188.093-.284v-.004l.022-.07.014-.044.01-.03v-.004l.033-.113.006-.021.001-.003.004-.014.034-.123.001-.004v-.001l.039-.15v-.005l.026-.101.005-.021v-.006l.008-.026.01-.044.01-.049.01-.033.026-.125c-6.952-4.115-12.2-10.874-15.743-20.284A16 16 0 0 1 192 89.309v-3.982A37.836 37.836 0 0 1 184 62c0-20.987 17.013-38 38-38h12c20.987 0 38 17.013 38 38a37.836 37.836 0 0 1-7.998 23.325L264 89.309a16 16 0 0 1-1.027 5.639c-3.543 9.41-8.791 16.17-15.743 20.277l.034.166.01.048.01.043.009.033.005.021.025.101.002.006.005.023.034.126v.001l.001.005.006.023.027.098.004.015v.003l.008.022.043.146.035.114v.003l.01.029c.064.203.135.404.211.603l.014.037.01.027.005.01v.003l.018.042.039.097.059.142c.041.096.083.192.127.288l.123.26a11.643 11.643 0 0 0 .505.92l.002.005.009.014.166.266.186.282.078.113.002.003.026.036.025.035.144.202.101.136.104.135.032.041.002.003.004.005.03.039.002.002.002.002.023.03.052.065-.051-.065.096.122.109.132.002.003.028.033.03.037.033.039.078.091.046.054.096.11.007.008c.223.253.459.503.706.75a20.365 20.365 0 0 0 1.488 1.335l.002.001.056.045.059.047.03.024.087.069.012.01.067.052.044.034.083.065.114.087.109.081.07.054.023.017.058.042.069.051.15.11.229.163.343.238.17.114-.1-.067.184.123.086.058.003.001.121.08.062.04-.06-.04.176.115.205.13.153.096.049.03.106.066.005.003.185.112.096.058.002.001.079.047.015.01.116.068.04.023.037.022.087.051.026.015.072.041.069.04.121.07.177.099h.001l.106.059.3.165c.135.074.271.147.41.22l.387.2a40.973 40.973 0 0 0 1.524.744l.453.206c.277.126.56.25.847.373l.591.249.604.246.222.088-.079-.03.078.03.065.026.122.047.036.015.257.099-.141-.054.14.054.258.1.05.018.113.043.088.033.245.091.056.022.157.057-.089-.034.093.035.128.047.144.052.511.184c6.744 2.38 15.513 4.3 26.308 5.756A16 16 0 0 1 304 150.323V160a146.65 146.65 0 0 1-.694 14.231 144.455 144.455 0 0 1-2.032 13.799 143.215 143.215 0 0 1-5.272 19.413c-12.446 35.684-38.543 64.971-72.034 81.605h-.002a142.554 142.554 0 0 1-16.523 6.954l.003-.001a142.882 142.882 0 0 1-28.755 6.797 144.175 144.175 0 0 1-13.99 1.127 146.383 146.383 0 0 1-4.582.075H160Zm27.545-47.706-.1.17C181.85 265.771 171.652 272 160 272c-11.722 0-21.973-6.303-27.546-15.705-5.898 2.416-13.151 4.328-21.797 5.8a8 8 0 0 0-6.653 7.627l-.004.26-.001 13.99C121.077 291.698 140.036 296 160 296s38.924-4.302 56.002-12.029l-.002-13.99a8 8 0 0 0-6.657-7.886c-8.646-1.472-15.899-3.384-21.798-5.8Zm-73.597-113.556C108.707 148.848 100.057 154.602 88 160c-12.056-5.398-20.706-11.152-25.948-17.262-7.704 3.397-17.524 5.941-30.977 7.753a8 8 0 0 0-6.897 7.178l-.02.26-.155 2.505.015 1.815c.828 51.025 29.755 95.218 71.981 117.78L96 269.982a16 16 0 0 1 13.314-15.772c8.012-1.365 14.637-3.106 19.873-5.222l.082-.034a50.836 50.836 0 0 0 1.822-.78c.415-.189.821-.38 1.217-.573a34.31 34.31 0 0 0 4.238-2.433 24.43 24.43 0 0 0 2.114-1.606l.149-.128-.075.063.216-.187a20.08 20.08 0 0 0 1.273-1.233c.103-.11.204-.221.303-.333l.081-.092.011-.013.01-.011.012-.014.113-.13-.022.026.052-.06.037-.046.046-.055-.022.027.105-.125.007-.01.023-.027.044-.056.05-.062-.012.016.019-.025.081-.102-.023.03.033-.041.078-.101.024-.031.007-.008.067-.089.017-.022.017-.023.059-.079.002-.004.016-.02.023-.031.048-.068.008-.011.014-.018.017-.025.012-.017.21-.3a13.763 13.763 0 0 0 .693-1.136l.015-.031.133-.25c.048-.094.095-.188.14-.282l.122-.259c.168-.37.317-.746.448-1.127l.126-.393.113-.396.025-.097.025-.093-.025.097c.03-.116.058-.232.085-.348l.015-.075c-4.51-2.775-8.245-6.905-11.207-12.39C120.104 214.666 112 200.28 112 184c0-15.051 6.927-28.484 17.768-37.285-.344.28-.685.564-1.021.852-5.733-1.366-10.582-2.97-14.799-4.829ZM208 184c0 16.28-8.104 30.666-20.498 39.345-2.962 5.486-6.697 9.616-11.207 12.39l.07.308.08.305.018.063.018.063.001.003.085.283a12.19 12.19 0 0 0 .435 1.169l-.034-.079.094.218a12.66 12.66 0 0 0 .828 1.564l.233.364.247.36.05.071.011.016.017.024.014.02.048.065.035.047.011.016.004.005.059.079.017.023.001.001.014.02.002.002.066.087.007.009.024.031.005.007.063.08.019.025.024.03.057.072.021.026.036.045.046.056.029.036.001.001.104.125.009.011.059.07.046.054.016.018.051.059.023.026.012.014.01.011.093.105.035.04.09.1.025.027.004.005.092.1.093.099-.035-.039.186.196.267.271.121.12-.048-.048.119.116.072.069.056.053.001.001.397.366a22.887 22.887 0 0 0 1.906 1.529l.04.03.108.075.021.016h.001l.112.08.082.057.1.069.067.046.004.003.34.23.349.227.136.087.006.004.376.235.385.234c.11.065.22.13.332.194l-.248-.145.375.219.027.015.002.001.39.22.429.236.06.032.098.052.096.051.063.034a41.335 41.335 0 0 0 1.998.984c.383.177.776.351 1.177.523 5.389 2.312 12.357 4.196 20.905 5.652A16 16 0 0 1 224 269.98l.002 10.048C266.847 257.136 296 211.972 296 160v-9.664a8 8 0 0 0-6.93-7.928c-10.961-1.479-20.039-3.434-27.294-5.929l-.123.332C256.49 150.368 243.37 160 228 160c-15.495 0-28.704-9.79-33.779-23.521-4.187 1.44-8.982 2.7-14.397 3.794l.227.103C196.548 147.97 208 164.648 208 184Zm-39.106 55.115-.372.077a43.359 43.359 0 0 1-7.936.804l-.292.003L160 240c-2.961 0-5.805-.268-8.522-.808l-.373-.077-.086.28c-1.305 4.04-3.884 7.574-7.587 10.602l-.075.06a34.13 34.13 0 0 1-3.445 2.467l-.286.176.098.157a24.02 24.02 0 0 0 19.888 11.14L160 264a24.02 24.02 0 0 0 20.275-11.142l.097-.158-.339-.21a34.452 34.452 0 0 1-3.047-2.157c-3.927-3.1-6.652-6.748-8.005-10.938l-.087-.28ZM160 176c-5.708 0-11.417.407-17.13 1.222a8 8 0 0 0-6.866 7.661l-.004.259v24.47a8 8 0 0 0 .4 2.499c4.481 13.634 11.833 19.74 23.177 19.886L160 232l.423-.003c11.344-.147 18.696-6.252 23.177-19.886a8 8 0 0 0 .392-2.135l.008-.363v-24.471a8 8 0 0 0-6.87-7.92 121.272 121.272 0 0 0-15.813-1.215L160 176Zm0-32c-22.091 0-40 17.909-40 40a39.938 39.938 0 0 0 7.607 23.474l.393.533v-22.865a16 16 0 0 1 13.74-15.84A129.14 129.14 0 0 1 160 168c6.087 0 12.173.434 18.26 1.302a16 16 0 0 1 13.74 15.84v22.864l.062-.081a39.939 39.939 0 0 0 7.935-23.414L200 184c0-22.091-17.909-40-40-40Zm79.835-25.315-.059.015c-3.516.827-7.245 1.257-11.174 1.297h-.088L228 120c-3.874 0-7.556-.375-11.035-1.132l-.801-.183-.092.291c-1.623 4.958-5.337 9.089-10.832 12.467a42.45 42.45 0 0 1-3.017 1.695l-.442.223-.155.075.07.195c3.898 10.657 14.069 18.19 25.881 18.366L228 152c11.992 0 22.36-7.585 26.303-18.368l.07-.195-.154-.076a42.936 42.936 0 0 1-3.603-2.007c-5.416-3.361-9.079-7.463-10.688-12.378l-.093-.291Zm-142.94 8.43-.373.077c-2.47.49-5.045.757-7.717.801l-.219.003-.358.003L88 128a46.49 46.49 0 0 1-4.209-.188 41.536 41.536 0 0 1-4.313-.62l-.374-.077-.003.01c-1.447 4.703-4.608 8.733-9.242 12.079l-.109.077.067.066c3.897 3.845 9.769 7.748 17.664 11.586l.519.249.519-.25c7.663-3.724 13.42-7.51 17.315-11.245l.415-.407-.109-.076c-4.484-3.238-7.589-7.117-9.096-11.625l-.149-.464ZM88 24c-21.87 0-39.641 17.552-39.995 39.339L48 64v75.217c14.404-3.664 22.075-8.83 23.68-15.497-6.64-4.096-11.6-11.133-14.88-21.112a16 16 0 0 1-.8-4.995V72c0-8.49 6.883-15.374 15.374-15.374.84 0 1.68.07 2.51.206A86.355 86.355 0 0 0 88 58c4.344 0 8.687-.332 13.031-.995l1.086-.173c8.377-1.386 16.291 4.282 17.677 12.659.137.83.206 1.668.206 2.509v25.613a16 16 0 0 1-.8 4.995c-3.28 9.98-8.24 17.018-14.883 21.114 1.6 6.664 9.292 11.828 23.683 15.492V64c0-22.091-17.909-40-40-40Zm15.423 40.725A94.355 94.355 0 0 1 88 66a94.355 94.355 0 0 1-15.423-1.275 7.374 7.374 0 0 0-8.573 7.032L64 72v25.613a8 8 0 0 0 .4 2.498c4.429 13.475 11.663 19.596 22.784 19.879l.395.008L88 120l.423-.003c11.344-.147 18.696-6.252 23.177-19.886a8 8 0 0 0 .392-2.135l.008-.363V72c0-.302-.019-.604-.056-.904l-.043-.3a7.374 7.374 0 0 0-8.478-6.071ZM228 56c-7.244 0-14.488.803-21.732 2.41a8 8 0 0 0-6.264 7.555l-.004.238v23.106a8 8 0 0 0 .513 2.82c5.067 13.453 13.618 19.707 26.956 19.868.177.002.353.003.531.003l.532-.003c13.337-.161 21.888-6.415 26.955-19.869a8 8 0 0 0 .505-2.458l.008-.36V66.381a8 8 0 0 0-6.256-7.808l-2.953-.648c-2.183-.47-3.677-.764-4.48-.881a99.03 99.03 0 0 0-13.118-1.038L228 56Zm6-24h-12c-16.569 0-30 13.431-30 30 0 .605.018 1.207.054 1.805l.008.137.035-.336a16.003 16.003 0 0 1 13.734-14.09A163.327 163.327 0 0 1 228 48c7.39 0 14.78.506 22.17 1.517a16.002 16.002 0 0 1 13.733 14.087l.033.332.013-.17c.025-.426.04-.854.047-1.283L264 62c0-16.403-13.164-29.731-29.504-29.996L234 32Z"/></g></svg>