<svg width="320" height="320" viewBox="0 0 320 320" xmlns="http://www.w3.org/2000/svg"><g id="Foundations/Icons/Brand-Icons/UI/Financial/03-decreasing" stroke="none" stroke-width="1" fill="none" fill-rule="evenodd"><path d="M256 188c19.882 0 36 7.163 36 16s-16.118 16-36 16-36-7.163-36-16 16.118-16 36-16Zm-96-80c19.882 0 36 7.163 36 16s-16.118 16-36 16-36-7.163-36-16 16.118-16 36-16ZM64 28c19.882 0 36 7.163 36 16S83.882 60 64 60s-36-7.163-36-16 16.118-16 36-16Z" id="lg-icon-fill-primary" fill="#FFD500"/><path d="M84 296a4 4 0 0 1 4 4 57.224 57.224 0 0 1-7.348 2.19A4 4 0 0 1 84 296Zm96 0a4 4 0 0 1 4 4 57.224 57.224 0 0 1-7.348 2.19A4 4 0 0 1 180 296Zm96 0a4 4 0 0 1 4 4 57.224 57.224 0 0 1-7.348 2.19A4 4 0 0 1 276 296Zm-80-16a4 4 0 1 1 0 8 4 4 0 0 1 0-8Zm-32 0a4 4 0 1 1 0 8 4 4 0 0 1 0-8Zm-64 0a4 4 0 1 1 0 8 4 4 0 0 1 0-8Zm-32 0a4 4 0 1 1 0 8 4 4 0 0 1 0-8Zm192 0a4 4 0 1 1 0 8 4 4 0 0 1 0-8Zm32 0a4 4 0 1 1 0 8 4 4 0 0 1 0-8Zm-16-16a4 4 0 1 1 0 8 4 4 0 0 1 0-8Zm-96 0a4 4 0 1 1 0 8 4 4 0 0 1 0-8Zm-96 0a4 4 0 1 1 0 8 4 4 0 0 1 0-8Zm208-16a4 4 0 1 1 0 8 4 4 0 0 1 0-8Zm-32 0a4 4 0 1 1 0 8 4 4 0 0 1 0-8Zm-64 0a4 4 0 1 1 0 8 4 4 0 0 1 0-8Zm-32 0a4 4 0 1 1 0 8 4 4 0 0 1 0-8Zm-64 0a4 4 0 1 1 0 8 4 4 0 0 1 0-8Zm-32 0a4 4 0 1 1 0 8 4 4 0 0 1 0-8Zm112-16a4 4 0 1 1 0 8 4 4 0 0 1 0-8Zm-96 0a4 4 0 1 1 0 8 4 4 0 0 1 0-8Zm192 0a4 4 0 1 1 0 8 4 4 0 0 1 0-8Zm-80-16a4 4 0 1 1 0 8 4 4 0 0 1 0-8Zm-32 0a4 4 0 1 1 0 8 4 4 0 0 1 0-8Zm-64 0a4 4 0 1 1 0 8 4 4 0 0 1 0-8Zm-32 0a4 4 0 1 1 0 8 4 4 0 0 1 0-8Zm228 4a4 4 0 0 1-8 .002c1.83-1.218 3.387-2.542 4.628-3.952A4 4 0 0 1 296 220Zm-116-20a4 4 0 1 1 0 8 4 4 0 0 1 0-8Zm-96 0a4 4 0 1 1 0 8 4 4 0 0 1 0-8Zm80-16a4 4 0 1 1 0 8 4 4 0 0 1 0-8Zm-64 0a4 4 0 1 1 0 8 4 4 0 0 1 0-8Zm-32 0a4 4 0 1 1 0 8 4 4 0 0 1 0-8Zm128 0a4 4 0 1 1 0 8 4 4 0 0 1 0-8Zm-16-16a4 4 0 1 1 0 8 4 4 0 0 1 0-8Zm-96 0a4 4 0 1 1 0 8 4 4 0 0 1 0-8Zm80-16a4 4 0 1 1 0 8 4 4 0 0 1 0-8Zm-64 0a4 4 0 1 1 0 8 4 4 0 0 1 0-8Zm-32 0a4 4 0 1 1 0 8 4 4 0 0 1 0-8Zm128 0a4 4 0 1 1 0 8 4 4 0 0 1 0-8ZM84 136a4 4 0 1 1 0 8 4 4 0 0 1 0-8Zm16-16a4 4 0 1 1 0 8 4 4 0 0 1 0-8Zm-32 0a4 4 0 1 1 0 8 4 4 0 0 1 0-8Zm132 4c0 .541-.108 1.058-.302 1.529A11.161 11.161 0 0 0 199.2 124h.8ZM84 104a4 4 0 1 1 0 8 4 4 0 0 1 0-8Zm16-16a4 4 0 1 1 0 8 4 4 0 0 1 0-8Zm-32 0a4 4 0 1 1 0 8 4 4 0 0 1 0-8Zm16-16a4 4 0 1 1 0 8 4 4 0 0 1 0-8Zm20-12a4 4 0 0 1-8 .002c1.83-1.218 3.387-2.542 4.628-3.952A3.999 3.999 0 0 1 104 60Z" id="Half-tone" fill="#000"/><path d="M256 184c21.87 0 39.641 8.776 39.995 19.67l.005.33v80c0 11.046-17.909 20-40 20-21.87 0-39.641-8.776-39.995-19.67L216 284v-80c0-11.046 17.909-20 40-20Zm-96-80c21.87 0 39.641 8.776 39.995 19.67l.005.33v160c0 11.046-17.909 20-40 20-21.87 0-39.641-8.776-39.995-19.67L120 284V124c0-11.046 17.909-20 40-20ZM64 24c21.87 0 39.641 8.776 39.995 19.67L104 44v240c0 11.046-17.909 20-40 20-21.87 0-39.641-8.776-39.995-19.67L24 284V44c0-11.046 17.909-20 40-20Zm224.001 192.001C280.704 220.858 269.086 224 256 224c-13.085 0-24.702-3.141-32-7.998V284l.002.086.007.117c.16 1.768 2.417 4.316 7.103 6.692l.356.178C237.742 294.163 246.524 296 256 296c9.568 0 18.427-1.873 24.707-5.013 4.903-2.452 7.183-5.068 7.29-6.858L288 284l.001-67.999Zm-96-80C184.704 140.858 173.086 144 160 144c-13.085 0-24.702-3.141-32-7.998V284l.002.086.007.117c.16 1.768 2.417 4.316 7.103 6.692l.356.178C141.742 294.163 150.524 296 160 296c9.568 0 18.427-1.873 24.707-5.013 4.903-2.452 7.183-5.068 7.29-6.858L192 284l.001-147.999Zm-96-80C88.704 60.858 77.086 64 64 64c-13.085 0-24.702-3.141-32-7.998V284l.002.086.007.117c.16 1.768 2.417 4.316 7.103 6.692l.356.178C45.742 294.163 54.524 296 64 296c9.568 0 18.427-1.873 24.707-5.013 4.903-2.452 7.183-5.068 7.29-6.858L96 284l.001-227.999ZM256 192c-9.568 0-18.427 1.873-24.707 5.013C226.27 199.525 224 202.21 224 204c0 1.791 2.27 4.475 7.293 6.987 6.28 3.14 15.139 5.013 24.707 5.013 9.568 0 18.427-1.873 24.707-5.013C285.73 208.475 288 205.79 288 204c0-1.791-2.27-4.475-7.293-6.987-6.28-3.14-15.139-5.013-24.707-5.013Zm-96-80c-9.568 0-18.427 1.873-24.707 5.013C130.27 119.525 128 122.21 128 124c0 1.791 2.27 4.475 7.293 6.987 6.28 3.14 15.139 5.013 24.707 5.013 9.568 0 18.427-1.873 24.707-5.013C189.73 128.475 192 125.79 192 124c0-1.791-2.27-4.475-7.293-6.987-6.28-3.14-15.139-5.013-24.707-5.013ZM64 32c-9.568 0-18.427 1.873-24.707 5.013C34.27 39.525 32 42.21 32 44c0 1.791 2.27 4.475 7.293 6.987C45.573 54.127 54.432 56 64 56c9.568 0 18.427-1.873 24.707-5.013C93.73 48.475 96 45.79 96 44c0-1.791-2.27-4.475-7.293-6.987C82.427 33.873 73.568 32 64 32Z" id="Outlines" fill="#000"/></g></svg>