<svg xmlns="http://www.w3.org/2000/svg" width="320" height="320" viewBox="0 0 320 320"><g id="Foundations/Icons/Brand-Icons/Commands/17-denied" fill="none" fill-rule="evenodd" stroke="none" stroke-width="1"><path id="Outlines" fill="#000" d="M159.89 8A151.48 151.48 0 0 0 55.28 49.73l-5.66 5.66c-56.6 59.786-55.315 153.766 2.9 211.98 58.214 58.214 152.194 59.5 211.98 2.9l5.66-5.66c41.808-44.073 53.36-108.807 29.376-164.62C275.552 44.175 220.638 8 159.89 8Zm0 296c-57.513-.003-109.508-34.227-132.253-87.05C4.892 164.125 15.76 102.833 55.28 61.05l203.61 203.56a143.004 143.004 0 0 1-99 39.39ZM60.94 55.39c56.609-53.874 145.856-52.764 201.108 2.501 55.252 55.266 56.34 144.513 2.452 201.11L60.94 55.39Z"/></g></svg>