<svg width="320" height="320" viewBox="0 0 320 320" xmlns="http://www.w3.org/2000/svg"><g id="Foundations/Icons/Brand-Icons/UI/Design-and-Development/03-design-patterns" stroke="none" stroke-width="1" fill="none" fill-rule="evenodd"><path d="M224 172c28.719 0 52 23.281 52 52s-23.281 52-52 52-52-23.281-52-52 23.281-52 52-52Zm-12 34v36l32-18-32-18Zm-64-26v32H44v-32h104ZM136 44c6.627 0 12 5.373 12 12v80c0 6.627-5.373 12-12 12H56c-6.627 0-12-5.373-12-12V56c0-6.627 5.373-12 12-12h80Z" id="lg-icon-fill-primary" fill="#FFD500"/><path d="M112 124a4 4 0 1 1 0 8 4 4 0 0 1 0-8Zm-32 0a4 4 0 1 1 0 8 4 4 0 0 1 0-8Zm48-16a4 4 0 1 1 0 8 4 4 0 0 1 0-8Zm-32 0a4 4 0 1 1 0 8 4 4 0 0 1 0-8Zm-32 0a4 4 0 1 1 0 8 4 4 0 0 1 0-8Zm48-16a4 4 0 1 1 0 8 4 4 0 0 1 0-8Zm-32 0a4 4 0 1 1 0 8 4 4 0 0 1 0-8Zm48-16a4 4 0 1 1 0 8 4 4 0 0 1 0-8Zm-32 0a4 4 0 1 1 0 8 4 4 0 0 1 0-8Zm-32 0a4 4 0 1 1 0 8 4 4 0 0 1 0-8Zm48-16a4 4 0 1 1 0 8 4 4 0 0 1 0-8Zm-32 0a4 4 0 1 1 0 8 4 4 0 0 1 0-8Z" id="Half-tone" fill="#000"/><path d="M224 168c30.928 0 56 25.072 56 56s-25.072 56-56 56-56-25.072-56-56 25.072-56 56-56Zm0 8c-26.51 0-48 21.49-48 48s21.49 48 48 48 48-21.49 48-48-21.49-48-48-48Zm-76 56a4 4 0 0 1 4 4v32a4 4 0 0 1-4 4H44a4 4 0 0 1-4-4v-32a4 4 0 0 1 4-4h104Zm-2.588 8H46.588v24h98.824v-24Zm68.466-38.526.164.093 32 18.994c2.55 1.514 2.61 5.153.178 6.766l-.178.112-32 18.994c-2.612 1.55-5.905-.261-6.038-3.25l-.004-.188v-37.99c0-2.974 3.106-4.862 5.712-3.615l.166.084ZM216 212.03v23.939L236.164 224 216 212.03ZM148 176a4 4 0 0 1 4 4v32a4 4 0 0 1-4 4H44a4 4 0 0 1-4-4v-32a4 4 0 0 1 4-4h104Zm-2.588 8H46.588v24h98.824v-24ZM280 16c13.254 0 24 10.745 24 24v240c0 13.255-10.746 24-24 24H40c-13.255 0-24-10.745-24-24V40c0-13.255 10.745-24 24-24h240Zm0 8H40c-8.732 0-15.83 6.994-15.997 15.685L24 40v240c0 8.731 6.993 15.83 15.685 15.997L40 296h240c8.73 0 15.829-6.994 15.996-15.685L296 280V40c0-8.731-6.994-15.83-15.686-15.997L280 24ZM136 40c8.837 0 16 7.163 16 16v80c0 8.837-7.163 16-16 16H56c-8.837 0-16-7.163-16-16V56c0-8.837 7.163-16 16-16h80Zm0 8H56a8 8 0 0 0-7.996 7.75L48 56v80a8 8 0 0 0 7.75 7.996L56 144h80a8 8 0 0 0 7.996-7.75L144 136V56a8 8 0 0 0-7.75-7.996L136 48Zm140 80a4 4 0 1 1 0 8H172a4 4 0 1 1 0-8h104Zm0-40a4 4 0 1 1 0 8H172a4 4 0 1 1 0-8h104Zm0-40a4 4 0 1 1 0 8H172a4 4 0 1 1 0-8h104Z" id="Outlines" fill="#000"/></g></svg>