<svg width="320" height="320" viewBox="0 0 320 320" xmlns="http://www.w3.org/2000/svg"><g id="Foundations/Icons/Brand-Icons/Banking-and-Commerce/36-printer" stroke="none" stroke-width="1" fill="none" fill-rule="evenodd"><path id="lg-icon-fill-primary" fill="#FFD500" d="M64 16h192v160H64z"/><path d="M124 280a4 4 0 1 1 0 8 4 4 0 0 1 0-8Zm-32 0a4 4 0 1 1 0 8 4 4 0 0 1 0-8Zm-32 0a4 4 0 1 1 0 8 4 4 0 0 1 0-8Zm-32 0a4 4 0 1 1 0 8 4 4 0 0 1 0-8Zm256 0a4 4 0 1 1 0 8 4 4 0 0 1 0-8Zm-32 0a4 4 0 1 1 0 8 4 4 0 0 1 0-8Zm-32 0a4 4 0 1 1 0 8 4 4 0 0 1 0-8Zm-32 0a4 4 0 1 1 0 8 4 4 0 0 1 0-8Zm-32 0a4 4 0 1 1 0 8 4 4 0 0 1 0-8Z" id="Half-tone" fill="#000"/><path d="M255.7 8a8.31 8.31 0 0 1 8.296 8.046l.004.254V144h48a8 8 0 0 1 7.996 7.75l.004.25v152a8 8 0 0 1-7.75 7.996L312 312H8a8 8 0 0 1-7.996-7.75L0 304V152a8 8 0 0 1 7.75-7.996L8 144h48V16.3a8.31 8.31 0 0 1 8.046-8.296L64.3 8h191.4Zm8.3 168h20.33a4 4 0 1 1 0 8H44a4 4 0 1 1 0-8h12v-24H8v152h304V152h-48v24Zm28.33 80a4 4 0 1 1 0 8H36a4 4 0 1 1 0-8h256.33ZM255.7 16H64.3a.31.31 0 0 0-.29.232L64 16.3V176h192V16.3a.31.31 0 0 0-.232-.29L255.7 16ZM148 88a4 4 0 1 1 0 8H84a4 4 0 1 1 0-8h64Zm72-24a4 4 0 1 1 0 8H84a4 4 0 1 1 0-8h136Zm0-24a4 4 0 1 1 0 8H84a4 4 0 1 1 0-8h136Z" id="Outlines" fill="#000"/></g></svg>