<svg xmlns="http://www.w3.org/2000/svg" width="320" height="320" viewBox="0 0 320 320"><g id="Foundations/Icons/Brand-Icons/House-and-Home/10-desk" fill="none" fill-rule="evenodd" stroke="none" stroke-width="1"><path id="lg-icon-fill-primary" fill="#FFD500" d="m16.94 96 18.38-80h74.17l18.16 80z"/><path id="Half-tone" fill="#000" d="M92 96a4 4 0 1 1 0 8 4 4 0 0 1 0-8ZM76 80a4 4 0 1 1 0 8 4 4 0 0 1 0-8Zm32 0a4 4 0 1 1 0 8 4 4 0 0 1 0-8ZM92 64a4 4 0 1 1 0 8 4 4 0 0 1 0-8Zm16-16a4 4 0 1 1 0 8 4 4 0 0 1 0-8Z"/><path id="Outlines" fill="#000" d="M112.66 8c.231 0 .462.02.69.06a4.2 4.2 0 0 1 3.28 3.28l19.84 87.27a4.39 4.39 0 0 1-3 5.27 3.71 3.71 0 0 1-1 .12H76.29v40H308a4 4 0 1 1 0 8h-8v156a4 4 0 1 1-8 0V152H128v152.01a8 8 0 0 1-8 8h-10.88a8 8 0 0 1-5.51-2.2l-4.84-4.6c-1.18-1.09-3.2-1.21-5-1.21H40.5a4 4 0 0 0-3.24 1.2l-4.84 4.6a8 8 0 0 1-5.51 2.2H16a8 8 0 0 1-8-8V152a8 8 0 0 1 8-8h52.29v-40h-56.2a3.9 3.9 0 0 1-2.59-1 7.695 7.695 0 0 1-.33-.33 4.58 4.58 0 0 1-.56-.75 5.59 5.59 0 0 1-.38-.87 5.21 5.21 0 0 1-.21-.95v-.5a4.44 4.44 0 0 1 .12-1l20.02-87.28a4.13 4.13 0 0 1 4-3.32ZM120 152H16v152h10.91l4.84-4.59A11.88 11.88 0 0 1 40.5 296h53.575c2.202.007 6.752.158 10.175 3.4l4.84 4.6H120V152Zm-80.273 96.03.273.01h55.98a7.38 7.38 0 0 1 .82 0 8 8 0 0 1 2.29.59 7.82 7.82 0 0 1 2 1.2c.2.16.39.33.57.51A8.12 8.12 0 0 1 104 256v16a8.12 8.12 0 0 1-2.32 5.66c-.18.18-.37.35-.57.51a7.82 7.82 0 0 1-2 1.2 8 8 0 0 1-2.29.59 7.38 7.38 0 0 1-.82 0H40.02a7.38 7.38 0 0 1-.82 0 8 8 0 0 1-2.29-.59 7.82 7.82 0 0 1-2-1.2 8 8 0 0 1-1.54-1.7A7.882 7.882 0 0 1 32 272v-16a7.882 7.882 0 0 1 1.35-4.47 8 8 0 0 1 1.54-1.7 7.82 7.82 0 0 1 2-1.2 8 8 0 0 1 2.29-.59 7.38 7.38 0 0 1 .82 0ZM96 256H40v16h56v-16Zm-56.273-47.97.273.01h55.98a7.38 7.38 0 0 1 .82 0 8 8 0 0 1 2.29.59 7.82 7.82 0 0 1 2 1.2c.2.16.39.33.57.51A8.12 8.12 0 0 1 104 216v16a8.12 8.12 0 0 1-2.32 5.66c-.18.18-.37.35-.57.51a7.82 7.82 0 0 1-2 1.2 8 8 0 0 1-2.29.59 7.38 7.38 0 0 1-.82 0H40.02a7.38 7.38 0 0 1-.82 0 8 8 0 0 1-2.29-.59 7.82 7.82 0 0 1-2-1.2 8 8 0 0 1-1.54-1.7A7.882 7.882 0 0 1 32 232v-16a7.882 7.882 0 0 1 1.35-4.47 8 8 0 0 1 1.54-1.7 7.82 7.82 0 0 1 2-1.2 8 8 0 0 1 2.29-.59 7.38 7.38 0 0 1 .82 0ZM96 216H40v16h56v-16Zm-56.273-47.97.273.01h55.98a7.38 7.38 0 0 1 .82 0 8 8 0 0 1 2.29.59 7.82 7.82 0 0 1 2 1.2c.2.16.39.33.57.51A8.12 8.12 0 0 1 104 176v16a8.12 8.12 0 0 1-2.32 5.66c-.18.18-.37.35-.57.51a7.82 7.82 0 0 1-2 1.2 8 8 0 0 1-2.29.59 7.38 7.38 0 0 1-.82 0H40.02a7.38 7.38 0 0 1-.82 0 8 8 0 0 1-2.29-.59 7.82 7.82 0 0 1-2-1.2 8 8 0 0 1-1.54-1.7A7.882 7.882 0 0 1 32 192v-16a7.882 7.882 0 0 1 1.35-4.47 8 8 0 0 1 1.54-1.7 7.82 7.82 0 0 1 2-1.2 8 8 0 0 1 2.29-.59 7.38 7.38 0 0 1 .82 0ZM96 176H40v16h56v-16Zm13.49-160H35.32L16.94 96h110.71l-18.16-80Z"/></g></svg>