<svg xmlns="http://www.w3.org/2000/svg" width="320" height="320" fill="none" viewBox="0 0 320 320"><path fill="#FFD500" fill-rule="evenodd" d="M280 64v36H176c-6.627 0-12 5.373-12 12v104H16V64h264Zm12 60v48h-44c-6.525 0-11.834 5.209-11.996 11.695L236 184v92h-72V124h128Zm-56 72h72v80h-72v-80Z" clip-rule="evenodd"/><path fill="#000" fill-rule="evenodd" d="M132 200a4 4 0 1 1 0 8 4 4 0 0 1 0-8Zm-32 0a4 4 0 1 1 0 8 4 4 0 0 1 0-8Zm-32 0a4 4 0 1 1 0 8 4 4 0 0 1 0-8Zm-32 0a4 4 0 1 1 0 8 4 4 0 0 1 0-8Zm184 56a4 4 0 1 1 0 8 4 4 0 0 1 0-8Zm-32 0a4 4 0 1 1 0 8 4 4 0 0 1 0-8Zm96 0a4 4 0 1 1 0 8 4 4 0 0 1 0-8Zm-32 0a4 4 0 1 1 0 8 4 4 0 0 1 0-8Z" clip-rule="evenodd"/><path fill="#000" fill-rule="evenodd" d="M92 304a4 4 0 0 1 0-8h52v-32H20c-6.627 0-12-5.373-12-12V28c0-6.627 5.373-12 12-12h256c6.627 0 12 5.373 12 12l.001 70.14-.046-.026C292.762 100.874 296 106.06 296 112v56c8.837 0 16 7.163 16 16v104c0 8.837-7.163 16-16 16H92Zm68-40h-8v32l10.141.001-.231-.413A15.935 15.935 0 0 1 160 288v-24Zm72 16h-64v8a8 8 0 0 0 8 8l58.141.001-.231-.413A15.935 15.935 0 0 1 232 288v-8Zm72 0h-64v8a8 8 0 0 0 8 8h48a8 8 0 0 0 8-8v-8Zm0-80h-64v72h64v-72Zm-144 24H16v28a4 4 0 0 0 3.8 3.995l.2.005h140v-32ZM280 64H16v152h144V112c0-8.837 7.163-16 16-16h104V64Zm16 112h-48a8 8 0 0 0-8 8v8h64v-8a8 8 0 0 0-8-8Zm-16-72H176a8 8 0 0 0-8 8v8h120v-8a8 8 0 0 0-8-8Zm-4-80H20a4 4 0 0 0-4 4v28h264V28a4 4 0 0 0-3.8-3.995L276 24Zm12 144v-40H168v144h64v-88c0-8.837 7.163-16 16-16h40Z" clip-rule="evenodd"/></svg>