<svg xmlns="http://www.w3.org/2000/svg" width="320" height="320" viewBox="0 0 320 320"><g id="Foundations/Icons/Brand-Icons/Banking-and-Commerce/47-diamond" fill="none" fill-rule="evenodd" stroke="none" stroke-width="1"><path id="lg-icon-fill-primary" fill="#FFD500" d="M160.316 25.98 223.336 96H97.296l63.02-70.02Zm-97.21 2.82L86.146 96h-65.8l42.76-67.2Zm194.42 0 42.77 67.2h-65.81l23.04-67.2Z"/><path id="Half-tone" fill="#000" d="M164.316 212a4 4 0 1 1 0 8 4 4 0 0 1 0-8Zm-16-16a4 4 0 1 1 0 8 4 4 0 0 1 0-8Zm32 0a4 4 0 1 1 0 8 4 4 0 0 1 0-8Zm-16-16a4 4 0 1 1 0 8 4 4 0 0 1 0-8Zm-16-16a4 4 0 1 1 0 8 4 4 0 0 1 0-8Zm32 0a4 4 0 1 1 0 8 4 4 0 0 1 0-8Zm-48-16a4 4 0 1 1 0 8 4 4 0 0 1 0-8Zm32 0a4 4 0 1 1 0 8 4 4 0 0 1 0-8Zm32 0a4 4 0 1 1 0 8 4 4 0 0 1 0-8Zm-80-16a4 4 0 1 1 0 8 4 4 0 0 1 0-8Zm32 0a4 4 0 1 1 0 8 4 4 0 0 1 0-8Zm32 0a4 4 0 1 1 0 8 4 4 0 0 1 0-8Zm-48-16a4 4 0 1 1 0 8 4 4 0 0 1 0-8Zm32 0a4 4 0 1 1 0 8 4 4 0 0 1 0-8Zm32 0a4 4 0 1 1 0 8 4 4 0 0 1 0-8Z"/><path id="Outlines" fill="#000" d="m309.386 95.4-50.71-79.7a8.003 8.003 0 0 0-6.75-3.7H68.706a8.003 8.003 0 0 0-6.75 3.7l-50.71 79.7a8 8 0 0 0 .29 9l142.33 200.77a8 8 0 0 0 12.9 0l142.33-200.76a8 8 0 0 0 .29-9.01ZM63.106 28.8l23 67.2h-65.79l42.79-67.2ZM97.316 96l63-70 63 70h-126Zm126 8-63 183.67-63-183.67h126Zm-134.4 0 63.5 185.3L21.056 104h67.86Zm142.86 0h67.83l-131.39 185.3 63.56-185.3Zm2.74-8 23-67.2 42.8 67.2h-65.8Zm17.54-75.83-23.8 69.34L165.696 20h86.23l.13.17Zm-97.12-.17-62.56 69.51-23.78-69.35.11-.16h86.23Z"/></g></svg>