<svg width="320" height="320" viewBox="0 0 320 320" xmlns="http://www.w3.org/2000/svg"><g id="Foundations/Icons/Brand-Icons/UI/Group-Protection/05-doctor" stroke="none" stroke-width="1" fill="none" fill-rule="evenodd"><path d="M160 24c35.346 0 64 28.654 64 64v112c0 .671-.01 1.34-.03 2.006-12.319-4.273-25.914-7.174-39.968-8.71L184 168.6c9.57-6.656 15.788-17.184 15.995-28.992L200 139v-38.221l-.016-.175-.015-.254c-.642-14.595-12.196-20.237-39.148-20.348L160 80c-27.263 0-39.083 5.496-39.946 19.91l-.023.44a10.5 10.5 0 0 1-.015.254l-.016.164v38.163l.005.675c.205 11.817 6.428 22.34 15.996 28.994l-.002 24.696c-14.054 1.535-27.65 4.437-39.974 8.703A89.175 89.175 0 0 1 96 200V88c0-35.346 28.654-64 64-64Zm84 260a8 8 0 1 0 0-16 8 8 0 0 0 0 16Zm-48 0a8 8 0 1 0 0-16 8 8 0 0 0 0 16Zm-96 0c13.255 0 24-10.745 24-24s-10.745-24-24-24-24 10.745-24 24 10.745 24 24 24Z" id="lg-icon-fill-primary" fill="#FFD500"/><path d="M160 16c39.367 0 71.355 31.594 71.99 70.81L232 88v112c0 .752-.012 1.503-.035 2.252a8.016 8.016 0 0 1-.504 2.576C259.96 216.535 280 236.259 280 264v40H40v-40c0-27.74 20.038-47.463 48.534-59.172a7.992 7.992 0 0 1-.499-2.407l-.009-.25-.016-.918-.01-.846V88c0-39.765 32.235-72 72-72Zm-34.766 186.865-1.208.208-.329.059.33-.058c-.448.079-.894.159-1.34.24l1.01-.182c-.392.07-.784.14-1.175.213l.166-.03a183.63 183.63 0 0 0-4.422.869l.598-.124c-.38.078-.759.157-1.137.238l.54-.114c-.378.079-.754.16-1.13.24l.59-.126c-.509.108-1.016.218-1.522.33l.932-.204c-.372.08-.743.162-1.113.245l.181-.04c-.459.101-.917.205-1.374.31l1.193-.27c-.555.124-1.107.25-1.658.378l.465-.108-1.03.24v.001l-.67.16a55.682 55.682 0 0 0-9.01 26.961C117.63 234.293 128 245.936 128 260c0 15.464-12.536 28-28 28s-28-12.536-28-28c0-14.144 10.487-25.838 24.11-27.732a63.628 63.628 0 0 1 6.15-23.907 160.7 160.7 0 0 0-2.03.66l.195-.064c-6.909 2.29-13.344 5-19.16 8.102-21.411 11.419-33.031 27.175-33.262 46.359L48 264v32h224v-32c0-19.252-11.406-35.087-32.619-46.594l-.646-.347c-5.236-2.793-10.975-5.268-17.11-7.405a6.367 6.367 0 0 1-.275-.089 145.392 145.392 0 0 0-3.597-1.194 63.536 63.536 0 0 1 5.09 15.45l.053.294c18.333 1.46 32.797 16.653 33.1 35.29L256 260v16c0 6.627-5.373 12-12 12s-12-5.373-12-12 5.373-12 12-12c1.403 0 2.75.24 4 .683V260c0-15.464-12.536-28-28-28-15.31 0-27.749 12.287-27.996 27.537L192 260v4.683a11.98 11.98 0 0 1 4-.683c6.627 0 12 5.373 12 12s-5.373 12-12 12-12-5.373-12-12v-16c0-18.114 13.378-33.103 30.792-35.626a55.58 55.58 0 0 0-7.909-19.026A182.688 182.688 0 0 0 192 202.42V208c-6 10.667-16.667 16-32 16-15.333 0-26-5.333-32-16v-5.584c-.925.143-1.847.293-2.766.449ZM244 272a4 4 0 1 0 0 8 4 4 0 0 0 0-8Zm-48 0a4 4 0 1 0 0 8 4 4 0 0 0 0-8Zm-96-32c-11.046 0-20 8.954-20 20s8.954 20 20 20 20-8.954 20-20-8.954-20-20-20Zm0 8c6.627 0 12 5.373 12 12s-5.373 12-12 12-12-5.373-12-12 5.373-12 12-12Zm0 8a4 4 0 1 0 0 8 4 4 0 0 0 0-8Zm36-78.02v7.409l-.001-.001.001 20.356.033.048c4.55 6.7 12.044 10.098 23.405 10.205L160 216c11.488 0 19.094-3.289 23.741-9.88l.259-.378V177.98c-7.06 3.829-15.257 6.02-24 6.02s-16.94-2.191-24-6.02ZM160 24c-34.993 0-63.426 28.084-63.991 62.942L96 88v112c0 .671.01 1.34.025 2l.37-.128.663-.226-1.033.354a151.287 151.287 0 0 1 5.429-1.767 162.284 162.284 0 0 1 6.816-1.923A64.32 64.32 0 0 1 128 180.563v-8.022c-9.636-8.086-15.767-19.769-15.993-32.797L112 139v-39l.039-.001c1.007-22.906 21.682-27.9 47.187-27.998L160 72c25.86 0 46.943 4.862 47.961 27.999L208 100v39c0 13.327-6.18 25.3-15.998 33.54l-.001 8.03a64.31 64.31 0 0 1 19.74 17.744 160.924 160.924 0 0 1 12.23 3.684l.021-.993L224 200V88c0-35.346-28.654-64-64-64Zm32 166.043.001 4.283c2.214.328 4.412.692 6.59 1.09a56.46 56.46 0 0 0-6.59-5.373Zm-70.588 5.374.253-.047a196.126 196.126 0 0 1 6.232-1.03l.102-.015v-4.287a56.274 56.274 0 0 0-6.587 5.379ZM160 80c-27.263 0-39.083 5.496-39.946 19.91l-.023.44a10.5 10.5 0 0 1-.015.254l-.016.164v38.163l.005.675c.145 8.343 3.29 16.042 8.493 22.19.121.142.243.284.367.425l-.367-.426c.155.183.312.365.47.545l-.103-.119a38.125 38.125 0 0 0 1.115 1.224l-.103-.108c.162.171.326.341.491.51l-.388-.402c.157.165.315.328.475.49l-.087-.088c.155.158.312.315.47.471l-.383-.383c.17.172.34.343.514.512l-.131-.129a38.89 38.89 0 0 0 1.798 1.664l-.185-.161c.166.146.334.29.503.434l-.318-.273c.17.147.34.293.513.438l-.195-.165a39.448 39.448 0 0 0 1.368 1.112l-.147-.115c.197.154.396.308.597.459l-.45-.344c.16.125.323.248.486.37l-.036-.026c.18.136.362.27.545.403l-.509-.376c.208.156.417.31.628.463l-.119-.087c.208.151.417.3.627.447l-.508-.36C142.204 173.083 150.721 176 160 176c9.378 0 17.97-2.977 24.767-7.946a39.8 39.8 0 0 0 .314-.233l-.314.233a39.8 39.8 0 0 0 .52-.387l-.206.154c.165-.123.329-.247.492-.372l-.286.218a39.623 39.623 0 0 0 1.752-1.406l-.17.144c.164-.138.326-.276.487-.416l-.317.272c.174-.148.347-.297.518-.448l-.2.176c.18-.157.36-.315.537-.476l-.337.3c.17-.15.34-.302.508-.454l-.171.154a38.854 38.854 0 0 0 1.275-1.202l-.138.136c.175-.172.35-.345.521-.52l-.383.384c.153-.15.304-.302.454-.455l-.07.072.45-.465-.38.393c.174-.178.346-.357.517-.538l-.137.145a38.169 38.169 0 0 0 1.164-1.279l-.141.162c.153-.175.305-.35.455-.527l-.314.365c.143-.164.284-.329.424-.495l-.11.13c.147-.174.292-.348.436-.524l-.326.394c5.15-6.132 8.258-13.79 8.404-22.08L200 139v-38.221l-.016-.175-.015-.254c-.642-14.595-12.196-20.237-39.148-20.348L160 80Z" id="Outlines" fill="#000"/></g></svg>