<svg width="320" height="320" viewBox="0 0 320 320" xmlns="http://www.w3.org/2000/svg"><g id="Foundations/Icons/Brand-Icons/Online/22-document-confirmation" stroke="none" stroke-width="1" fill="none" fill-rule="evenodd"><circle id="lg-icon-fill-primary" fill="#FFD500" cx="252" cy="84.001" r="48"/><path d="M212 280.001a4 4 0 1 1 0 8 4 4 0 0 1 0-8Zm-32 0a4 4 0 1 1 0 8 4 4 0 0 1 0-8Zm-32 0a4 4 0 1 1 0 8 4 4 0 0 1 0-8Zm-32 0a4 4 0 1 1 0 8 4 4 0 0 1 0-8Zm-32 0a4 4 0 1 1 0 8 4 4 0 0 1 0-8Z" id="Half-tone" fill="#000"/><path d="M247.7 8a8.314 8.314 0 0 1 8.42 8.301v15.91c.44.03.88.05 1.32.1l.626.067a51.57 51.57 0 0 1 29.524 13.673c.44.41.88.82 1.31 1.25l.068.07.06.062.11.12c.095.104.202.223.402.428.36.37.68.69 1.07 1.12.39.43.77.88 1.14 1.32l.48.55c.49.63 1.01 1.26 1.49 1.91l.437.591a51.42 51.42 0 0 1 8.813 19.94v.12c.15.73.27 1.47.39 2.21.02.13.07.26.07.39.1.67.18 1.33.25 2 .02.21.08.42.08.63.06.61.14 1.22.14 1.84.05.26.05.53.05.79.05.62.05 1.23.05 1.85v.76h-.16v2.74c-.01.26-.06.51-.06.77-.05.83-.13 1.66-.23 2.48v.28c-.09.73-.19 1.46-.31 2.18v.23c-.12.74-.26 1.48-.42 2.21a.52.52 0 0 0 0 .11 52.06 52.06 0 0 1-35.53 38.69l-.48.14c-.58.17-1.17.34-1.76.49l-.93.23-1.34.31c-.41.09-.83.16-1.24.24l-1.08.19c-.45.08-.96.15-1.45.21-.3.04-.6.12-.91.12l-1.58.16-.52.05v167.87a8.31 8.31 0 0 1-8.3 8.3H56.3a8.31 8.31 0 0 1-8.3-8.3v-287.4A8.311 8.311 0 0 1 56.3 8Zm0 8.301H56.3v287.4h191.4v-167.91l-1.08-.09h-.26a52.71 52.71 0 0 1-2.1-.27l-.49-.08c-.56-.09-1.12-.19-1.67-.3l-.44-.08c-.69-.14-1.35-.28-2-.44l-.54-.135A52.1 52.1 0 0 1 204 104.02H76a4 4 0 1 1 0-8h125.4c-.12-.47-.22-.98-.32-1.47a2 2 0 0 0-.05-.24c-.08-.41-.18-.92-.23-1.23-.05-.31-.12-.65-.16-.94-.04-.29-.13-.59-.13-.89-.1-.68-.18-1.34-.25-2l-.06-.81c-.05-.6-.13-1.2-.13-1.81v-5.31c.06-.26.06-.51.06-.76 1.775-25.87 22.316-46.493 48.18-48.37h-.61V16.3Zm-19.7 223.7a4 4 0 1 1 0 8H76a4 4 0 1 1 0-8Zm0-48a4 4 0 1 1 0 8H76a4 4 0 1 1 0-8Zm0-48a4 4 0 1 1 0 8H76a4 4 0 1 1 0-8ZM252.863 40.15l-.793.002h-3.43l-1.14.08h-.2l-.83.11c-.38.04-.81.09-1.16.14-.35.05-.61.11-1 .18-.39.07-.86.15-1.18.21-.32.06-.63.14-.94.21l-1.19.28c-.3.07-.6.17-.9.25l-1.19.34c-.28.08-.43.15-.83.28-.4.13-.95.32-1.21.41-.26.09-.36.14-.77.3-.41.16-.83.31-1.23.48l-.7.32-1.25.56-.66.34c-.41.21-.83.41-1.24.63l-.62.36c-.41.23-.82.46-1.22.7l-.59.38c-.4.25-.81.5-1.2.76l-.53.38c-.4.28-.8.55-1.19.85-.17.12-.33.25-.49.38-.4.3-.79.6-1.18.92l-.53.72-1.13 1-.44.42c-.37.3-.74.64-1.09 1l-.39.4c-.36.37-.72.74-1.07 1.12l-.37.43c-.33.38-.67.77-1 1.17-.12.14-.23.29-.35.44-.37.4-.69.8-1 1.21l-.35.5c-.3.4-.59.81-.88 1.23l-.33.52c-.28.42-.55.83-.81 1.26-.12.19-.22.38-.33.56-.25.43-.5.85-.73 1.28-.11.19-.2.38-.3.57-.23.44-.46.88-.68 1.32l-.27.62c-.21.44-.42.88-.61 1.33-.1.24-.19.49-.29.74-.17.42-.34.83-.5 1.26l-.24.7c-.15.44-.31.89-.45 1.34-.09.28-.13.44-.25.85s-.26.93-.35 1.23c-.09.3-.15.64-.24 1s-.17.71-.25 1.08c-.08.37-.15.81-.21 1.12-.06.31-.12.6-.18 1s-.12.87-.16 1.19c-.04.32-.13.66-.13 1v.63l-.06.74c-.06.26-.06.52-.06.78v2.2a44 44 0 0 0 23 38.73 42.5 42.5 0 0 0 3.84 1.86 45.09 45.09 0 0 0 6.13 2.08 44.9 44.9 0 0 0 6.49 1.17h.72c.52.08 1.04.12 1.56.12h4.6l1.12-.08 1.11-.08h.2l.88-.11 1.1-.14 1.07-.19c.36-.07.79-.13 1.1-.2.31-.07.63-.16 1-.24.37-.08.76-.17 1.09-.25.33-.08.67-.19 1-.28l1.08-.31.95-.32 1.09-.37c.31-.11.6-.23.9-.35l1.2-.51.88-.4c.35-.16.72-.31 1.07-.48l.83-.43c.36-.18.72-.35 1.07-.54l.78-.45 1.06-.61c.25-.15.43-.26.74-.48.31-.22.66-.43 1-.66l.7-.49 1-.73.65-.52c.33-.26.79-.62 1-.79.21-.17.26-.24.6-.52.34-.28.81-.69 1-.86.19-.17.37-.36.56-.54l1-.91.53-.55.93-1c.18-.2.24-.27.53-.62.29-.35.58-.67.85-1l.47-.6c.28-.35.57-.7.84-1.06l.38-.54c.29-.39.57-.78.85-1.19.14-.2.27-.42.4-.63.25-.38.5-.76.74-1.15.13-.21.25-.44.38-.66.23-.39.47-.78.68-1.18.11-.19.2-.38.29-.57.24-.44.47-.88.69-1.32l.32-.72c.19-.41.38-.81.56-1.23.11-.26.15-.39.31-.79s.33-.8.48-1.21l.26-.76c.15-.42.3-.85.43-1.28.09-.26.16-.53.23-.8.13-.43.26-.85.37-1.28.07-.26.12-.53.18-.79.11-.45.22-.89.31-1.34.06-.26.1-.53.15-.79.08-.46.19-1.04.24-1.38.05-.34.08-.59.13-1 .05-.41.16-.81.16-1.22l.029-.157c.021-.158.021-.315.021-.473l.06-.77c.06-.25.06-.5.06-.75v-2.2a43.812 43.812 0 0 0-11.36-29.59c-1-1.06-2-2-3-3a44.489 44.489 0 0 0-4.98-3.93c-.59-.39-1.18-.78-1.79-1.14a43.58 43.58 0 0 0-9.72-4.41c-.69-.22-1.38-.42-2.09-.6a44.19 44.19 0 0 0-10.99-1.25ZM276 61.92a4.002 4.002 0 0 1 5.66 5.66l-41.33 41.33L221 89.581a4 4 0 0 1 5.64-5.66l13.67 13.67ZM214.5 48a51.9 51.9 0 0 0-6.31 8H76a4 4 0 1 1 0-8Z" id="Outlines" fill="#000"/></g></svg>