<svg xmlns="http://www.w3.org/2000/svg" width="320" height="320" viewBox="0 0 320 320"><g id="Foundations/Icons/Brand-Icons/Online/06-document-warning" fill="none" fill-rule="evenodd" stroke="none" stroke-width="1"><circle id="lg-icon-fill-primary" cx="253" cy="84" r="49" fill="#FFD500"/><path id="Half-tone" fill="#000" d="M212 280a4 4 0 1 1 0 8 4 4 0 0 1 0-8Zm-32 0a4 4 0 1 1 0 8 4 4 0 0 1 0-8Zm-32 0a4 4 0 1 1 0 8 4 4 0 0 1 0-8Zm-32 0a4 4 0 1 1 0 8 4 4 0 0 1 0-8Zm-32 0a4 4 0 1 1 0 8 4 4 0 0 1 0-8Z"/><path id="Outlines" fill="#000" d="M247.7 8a8.31 8.31 0 0 1 8.3 8.3v15.83a51.56 51.56 0 0 1 18.54 5c1.52.73 2.99 1.53 4.42 2.4 1.43.87 2.81 1.8 4.15 2.8 1.34 1 2.62 2.06 3.85 3.18a53.43 53.43 0 0 1 3.53 3.53 53.24 53.24 0 0 1 3.18 3.85 52.173 52.173 0 0 1 5.2 8.57v-.04l.263.556a52.08 52.08 0 0 1 0 43.968l-.263.556c-.73 1.52-1.53 2.99-2.4 4.42a52.87 52.87 0 0 1-2.8 4.15c-1 1.34-2.06 2.62-3.18 3.85a53.43 53.43 0 0 1-3.53 3.53 53.24 53.24 0 0 1-3.85 3.18 52.173 52.173 0 0 1-8.57 5.2 51.56 51.56 0 0 1-18.54 5V303.7a8.31 8.31 0 0 1-8.3 8.3H56.3a8.31 8.31 0 0 1-8.3-8.3V16.3A8.31 8.31 0 0 1 56.3 8Zm0 8.3H56.3v287.4h191.4l.01-167.89a51.52 51.52 0 0 1-22.66-7.34 52.87 52.87 0 0 1-4.15-2.8c-1.34-1-2.62-2.06-3.85-3.18a53.43 53.43 0 0 1-3.53-3.53 53.24 53.24 0 0 1-3.18-3.85A52.173 52.173 0 0 1 204 104H76a4 4 0 1 1 0-8h125.41a52 52 0 0 1 3.72-34.58 50.503 50.503 0 0 1 2.4-4.42c.21-.31.44-.65.66-1H76a4 4 0 1 1 0-8h138.5c.82-.86 1.66-1.69 2.54-2.49a53.24 53.24 0 0 1 3.85-3.18c1.33-1 2.72-1.93 4.15-2.8a48.653 48.653 0 0 1 4.42-2.4 51.52 51.52 0 0 1 18.24-4.94V16.3ZM228 240a4 4 0 0 1 .2 7.995l-.2.005H76a4 4 0 0 1-.2-7.995L76 240h152Zm0-48a4 4 0 0 1 .2 7.995l-.2.005H76a4 4 0 0 1-.2-7.995L76 192h152Zm0-48a4 4 0 0 1 .2 7.995l-.2.005H76a4 4 0 0 1-.2-7.995L76 144h152Zm24-104c-24.3 0-44 19.7-44 44s19.7 44 44 44c24.29-.028 43.972-19.71 44-44 0-24.3-19.7-44-44-44Zm0 64a4 4 0 1 1 0 8 4 4 0 0 1 0-8Zm0-56a4 4 0 0 1 3.995 3.8l.005.2v40a4 4 0 0 1-7.995.2L248 92V52a4 4 0 0 1 4-4Z"/></g></svg>