<svg xmlns="http://www.w3.org/2000/svg" width="320" height="320" viewBox="0 0 320 320"><g id="Foundations/Icons/Brand-Icons/Banking-and-Commerce/62-dollars-circulation" fill="none" fill-rule="evenodd" stroke="none" stroke-width="1"><path id="Outlines" fill="#000" d="M296.179 168.262a4.001 4.001 0 0 1 3.499 1.94l16 26.69a4 4 0 0 1-3.42 6.06h-.01a4 4 0 0 1-3.43-1.94l-10.367-17.294a141.23 141.23 0 0 1-15.643 50.075 141.5 141.5 0 0 1-110.39 74.46 144.77 144.77 0 0 1-15.04.81c-4.594 0-9.167-.22-13.72-.66a141.23 141.23 0 0 1-52.66-15.92 142.51 142.51 0 0 1-42.08-34.08 141.24 141.24 0 0 1-32.37-76.34 4.022 4.022 0 0 1 8-.84 134.61 134.61 0 0 0 5.53 26.54 133 133 0 0 0 25 45.46 134.12 134.12 0 0 0 63.58 42.06 133.27 133.27 0 0 0 25.79 5.13 135.32 135.32 0 0 0 53.64-5.64c50.975-16.188 87.408-61.183 92.64-114.41l.014-.118-19.164 11.488a3.92 3.92 0 0 1-2.05.57 4 4 0 0 1-2.07-7.43l26.448-15.855a4 4 0 0 1 2.273-.756Zm-136.521-105.2a4 4 0 0 1 4 4l.002 9.042c28.938.97 43.668 15.65 43.668 43.679a4 4 0 1 1-8 0c.077-23.4-11.315-34.821-35.669-35.67v67.569c18.52 3.402 31.482 10.631 38.559 21.51a30.43 30.43 0 0 1 5.2 17.28c0 14.45-5.23 26.08-15 33.66-7.44 5.708-17.28 9.032-28.76 9.772v13.159a4 4 0 1 1-8 0l-.001-13.048c-29.018-.933-43.79-15.614-43.79-43.682a4 4 0 1 1 8 0c0 23.439 11.398 34.834 35.79 35.679l-.002-67.557c-43.253-8.592-43.757-37.374-43.757-38.622 0-14.5 5.2-26.18 15-33.78 7.393-5.717 17.262-9.105 28.76-9.846v-9.144a4 4 0 0 1 4-4Zm4.001 96.824-.001 65.985c13.627-1.05 35.69-7.138 35.69-35.538v-.27c.067-.961 1.132-22.804-35.689-30.177Zm123.239-76.653a140.61 140.61 0 0 1 11 25.61 142.38 142.38 0 0 1 5.85 28.12 4 4 0 1 1-7.95.83 135.37 135.37 0 0 0-5.52-26.53 133.14 133.14 0 0 0-25-45.47 134.72 134.72 0 0 0-39.72-32.16C177.413 7.97 118.5 14.157 76.738 49.263a134.25 134.25 0 0 0-42.08 63.61 133.42 133.42 0 0 0-5.096 25.442l18.156-10.882a4.001 4.001 0 0 1 4.12 6.86l-26.69 16a4.05 4.05 0 0 1-1.82.562l-.24.008-.11-.002-.021-.001a2.923 2.923 0 0 1-.295-.02l-.055-.006a3.921 3.921 0 0 1-.374-.063l-.05-.012a2.723 2.723 0 0 1-.102-.024l-.072-.02a4.033 4.033 0 0 1-.17-.051l-.078-.027a3.1 3.1 0 0 1-.14-.052l-.032-.013a3.303 3.303 0 0 1-.164-.07l-.021-.01-.068-.032a4.004 4.004 0 0 1-.275-.148l-.056-.033a3.997 3.997 0 0 1-1.088-.975l-.03-.04c-.099-.13-.19-.27-.273-.414L3.658 122.233a4 4 0 1 1 6.85-4.12L21.7 136.786a141.1 141.1 0 0 1 15.807-51.553 142.16 142.16 0 0 1 56.67-57.61 141.34 141.34 0 0 1 53.72-16.85c56.675-5.925 111.402 22.604 139 72.46Zm-131.24 1.021c-13.626 1.05-35.69 7.138-35.69 35.539 0 .959.773 22.84 35.69 30.435V84.254Z"/></g></svg>