<svg width="320" height="320" viewBox="0 0 320 320" xmlns="http://www.w3.org/2000/svg"><g id="Foundations/Icons/Brand-Icons/Banking-and-Commerce/46-dollars-and-pounds" stroke="none" stroke-width="1" fill="none" fill-rule="evenodd"><path d="M56 11.96c24.058 0 43.56 19.502 43.56 43.56 0 24.058-19.502 43.56-43.56 43.56-24.058 0-43.56-19.502-43.56-43.56 0-24.058 19.502-43.56 43.56-43.56Zm208 0c24.058 0 43.56 19.502 43.56 43.56 0 24.058-19.502 43.56-43.56 43.56-24.058 0-43.56-19.502-43.56-43.56 0-24.058 19.502-43.56 43.56-43.56Z" id="lg-icon-fill-primary" fill="#FFD500"/><path d="M91.5 288a4 4 0 1 1 0 8 4 4 0 0 1 0-8Zm32 0a4 4 0 1 1 0 8 4 4 0 0 1 0-8Zm32 0a4 4 0 1 1 0 8 4 4 0 0 1 0-8Zm32 0a4 4 0 1 1 0 8 4 4 0 0 1 0-8Zm32 0a4 4 0 1 1 0 8 4 4 0 0 1 0-8Zm-48-16a4 4 0 1 1 0 8 4 4 0 0 1 0-8Zm32 0a4 4 0 1 1 0 8 4 4 0 0 1 0-8Zm32 0a4 4 0 1 1 0 8 4 4 0 0 1 0-8Zm-128 0a4 4 0 1 1 0 8 4 4 0 0 1 0-8Zm32 0a4 4 0 1 1 0 8 4 4 0 0 1 0-8Zm-48-16a4 4 0 1 1 0 8 4 4 0 0 1 0-8Zm32 0a4 4 0 1 1 0 8 4 4 0 0 1 0-8Zm32 0a4 4 0 1 1 0 8 4 4 0 0 1 0-8Zm32 0a4 4 0 1 1 0 8 4 4 0 0 1 0-8Zm32 0a4 4 0 1 1 0 8 4 4 0 0 1 0-8Zm-112-16a4 4 0 1 1 0 8 4 4 0 0 1 0-8Zm32 0a4 4 0 1 1 0 8 4 4 0 0 1 0-8Zm96 0a4 4 0 1 1 0 8 4 4 0 0 1 0-8Zm-64 0a4 4 0 1 1 0 8 4 4 0 0 1 0-8Zm32 0a4 4 0 1 1 0 8 4 4 0 0 1 0-8Zm-112-16a4 4 0 1 1 0 8 4 4 0 0 1 0-8Zm32 0a4 4 0 1 1 0 8 4 4 0 0 1 0-8Zm32 0a4 4 0 1 1 0 8 4 4 0 0 1 0-8Zm32 0a4 4 0 1 1 0 8 4 4 0 0 1 0-8Zm32 0a4 4 0 1 1 0 8 4 4 0 0 1 0-8Zm-112-16a4 4 0 1 1 0 8 4 4 0 0 1 0-8Zm32 0a4 4 0 1 1 0 8 4 4 0 0 1 0-8Zm32 0a4 4 0 1 1 0 8 4 4 0 0 1 0-8Zm32 0a4 4 0 1 1 0 8 4 4 0 0 1 0-8Zm-80-16a4 4 0 1 1 0 8 4 4 0 0 1 0-8Zm32 0a4 4 0 1 1 0 8 4 4 0 0 1 0-8Zm32 0a4 4 0 1 1 0 8 4 4 0 0 1 0-8Z" id="Half-tone" fill="#000"/><path d="M159.72 168c52.331 0 94.862 39.949 95.707 89.544l.013 1.506L256 312H64v-52.95c0-50.29 42.86-91.05 95.72-91.05Zm0 8c-47.886 0-86.932 36.519-87.708 81.679L72 259.05V304h175.92l-.48-44.87v-.08c0-45.79-39.35-83.05-87.72-83.05ZM160 64c26.51 0 48 21.49 48 48s-21.49 48-48 48-48-21.49-48-48 21.49-48 48-48Zm0 8c-22.091 0-40 17.909-40 40s17.909 40 40 40 40-17.909 40-40-17.909-40-40-40ZM264 8c26.51 0 48 21.49 48 48s-21.49 48-48 48-48-21.49-48-48 21.49-48 48-48ZM56 8a48 48 0 0 1 48 48c0 26.51-21.49 48-48 48S8 82.51 8 56 29.49 8 56 8Zm0 7c-22.644 0-41 18.356-41 41s18.356 41 41 41 41-18.356 41-41-18.356-41-41-41Zm208 0c-22.644 0-41 18.356-41 41s18.356 41 41 41 41-18.356 41-41-18.356-41-41-41ZM56 21.8a3 3 0 0 1 3 3l.001 3.7C67.982 29.391 73 34.884 73 44.08a3 3 0 0 1-6 0c0-6.016-2.357-8.923-7.999-9.57v18.385c5.65 1.286 9.699 3.747 12.039 7.345a11.45 11.45 0 0 1 1.96 6.5c0 8.597-5.305 14.291-14 15.423V87.2a3 3 0 0 1-6 0v-4.947c-11.493-1.049-14-8.915-14-15.593a3 3 0 0 1 6 0c0 6.02 2.36 8.926 8 9.57V57.815C39.608 54.552 39.024 45.147 39 44.15v-.07c0-8.648 5.28-14.373 14-15.504V24.8a3 3 0 0 1 3-3Zm209.79 4.86c7.84 0 16.21 4.73 16.21 18a3 3 0 0 1-6 0c0-9.92-5.55-12-10.21-12-5.6-.006-10.148 4.52-10.17 10.12v.11c.13 2.586.407 5.16.83 7.71H270a3 3 0 0 1 0 6h-12.27l.16.6c1.454 6.203 2.848 12.138 1.024 17.4H270c.221 0 .437.024.644.07H282a3 3 0 0 1 0 6v-.07h-36a3 3 0 0 1 0-6h6.18c2.585-3.693 1.655-8.435-.13-16.06a73.258 73.258 0 0 1-.493-1.94H246a3 3 0 0 1 0-6l4.383.001a73.26 73.26 0 0 1-.763-7.721v-.22c.077-8.87 7.299-16.017 16.17-16ZM59.001 59.077v17.009c3.839-.702 7.989-2.957 7.989-9.426v-.288c-.002-.435-.147-5.04-7.989-7.295Zm-6-24.425c-3.843.7-8.001 2.952-8.001 9.428v.025c.021.42.51 5.135 8 7.494V34.652Z" id="Outlines" fill="#000"/></g></svg>