<svg xmlns="http://www.w3.org/2000/svg" width="320" height="320" viewBox="0 0 320 320"><g id="download-app" fill="none" fill-rule="evenodd" stroke="none" stroke-width="1"><path id="lg-icon-fill-primary" fill="#FFD500" d="M228 48c33.137 0 60 26.863 60 60v136c0 33.137-26.863 60-60 60H92c-33.137 0-60-26.863-60-60V108c0-33.137 26.863-60 60-60h136Zm0 24H92c-19.882 0-36 16.118-36 36v136c0 19.882 16.118 36 36 36h136c19.882 0 36-16.118 36-36V108c0-19.882-16.118-36-36-36Z"/><path id="Half-time" fill="#000" d="M96 256a4 4 0 1 1 0 8 4 4 0 0 1 0-8Zm32 0a4 4 0 1 1 0 8 4 4 0 0 1 0-8Zm32 0a4 4 0 1 1 0 8 4 4 0 0 1 0-8Zm32 0a4 4 0 1 1 0 8 4 4 0 0 1 0-8Zm32 0a4 4 0 1 1 0 8 4 4 0 0 1 0-8Zm16-16a4 4 0 1 1 0 8 4 4 0 0 1 0-8Zm-160 0a4 4 0 1 1 0 8 4 4 0 0 1 0-8Z"/><path id="Outlines" fill="#000" d="M160 16a4 4 0 0 1 4 4l-.001 28H228c33.137 0 60 26.863 60 60v136c0 33.137-26.863 60-60 60H92c-33.137 0-60-26.863-60-60V108c0-33.137 26.863-60 60-60h63.999L156 20a4 4 0 0 1 4-4Zm68 40h-64.001v16H228c19.882 0 36 16.118 36 36v136c0 19.882-16.118 36-36 36H92c-19.882 0-36-16.118-36-36V108c0-19.882 16.118-36 36-36h63.999V56H92c-28.719 0-52 23.281-52 52v136c0 28.719 23.281 52 52 52h136c28.719 0 52-23.281 52-52V108c0-28.719-23.281-52-52-52Zm0 24h-64.001L164 210.465l57.296-57.293a4 4 0 0 1 5.657 5.656l-63.47 63.473c-.15.23-.327.45-.53.652a3.988 3.988 0 0 1-2.89 1.171 3.988 3.988 0 0 1-3.42-1.823l-63.471-63.473a4 4 0 1 1 5.656-5.656L156 210.343 155.999 80H92c-15.464 0-28 12.536-28 28v136c0 15.464 12.536 28 28 28h136c15.464 0 28-12.536 28-28V108c0-15.464-12.536-28-28-28Z"/></g></svg>