<svg xmlns="http://www.w3.org/2000/svg" width="320" height="320" viewBox="0 0 320 320"><g id="Foundations/Icons/Brand-Icons/House-and-Home/19-dustbin" fill="none" fill-rule="evenodd" stroke="none" stroke-width="1"><path id="Outlines" fill="#000" d="m287.85 90.64-17-56a4 4 0 0 0-3.83-2.84h-67V12a4 4 0 0 0-4-4h-72a4 4 0 0 0-4 4v19.8h-72a4 4 0 0 0-3.91 3.16l-12 55.92a3.6 3.6 0 0 0-.11.81v.21a4 4 0 0 0 1 2.55 4 4 0 0 0 3.02 1.35h28.2a7.58 7.58 0 0 0-.2 2.24l14.33 206.3a8.223 8.223 0 0 0 8.36 7.462h146.62a8.223 8.223 0 0 0 8.34-7.462l14.35-206.3a7.58 7.58 0 0 0-.2-2.24h28.2a4 4 0 0 0 3.83-5.16Zm-54.19 213a.546.546 0 0 1-.33.09H86.71a.546.546 0 0 1-.33-.09l-14.31-206a.51.51 0 0 1 .31-.081h175.28a.51.51 0 0 1 .31.081l-14.31 206ZM128.02 16h64v15.8h-64V16Zm-87 71.8 10.3-48h212.7l14.6 48H41.02Z"/></g></svg>