<svg xmlns="http://www.w3.org/2000/svg" width="320" height="320" viewBox="0 0 320 320"><g id="Foundations/Icons/Brand-Icons/Online/30-edit-profile" fill="none" fill-rule="evenodd" stroke="none" stroke-width="1"><path id="lg-icon-fill-primary" fill="#FFD500" d="M64 48v112h26c3.405-18.443 19.455-31.852 38.21-31.92a38.52 38.52 0 0 1 21.74 6.69c1 .71 2 1.46 3 2.26 1 .8 1.88 1.64 2.76 2.53A39.15 39.15 0 0 1 166.39 160H192V48H64Zm63.5 62c-14.083 0-25.5-11.417-25.5-25.5S113.417 59 127.5 59 153 70.417 153 84.5a25.5 25.5 0 0 1-25.5 25.5Z"/><path id="Half-tone" fill="#000" d="M271.98 287.91a4 4 0 1 1 0 8 4 4 0 0 1 0-8ZM188 280a4 4 0 1 1 0 8 4 4 0 0 1 0-8Zm-32 0a4 4 0 1 1 0 8 4 4 0 0 1 0-8Zm-32 0a4 4 0 1 1 0 8 4 4 0 0 1 0-8Zm-32 0a4 4 0 1 1 0 8 4 4 0 0 1 0-8Zm-32 0a4 4 0 1 1 0 8 4 4 0 0 1 0-8Zm211.98-24.09a4 4 0 1 1 0 8 4 4 0 0 1 0-8Zm0-32a4 4 0 1 1 0 8 4 4 0 0 1 0-8Zm0-32a4 4 0 1 1 0 8 4 4 0 0 1 0-8Z"/><path id="Outlines" fill="#000" d="M223.7 8a8.31 8.31 0 0 1 8.296 8.046l.004.254v287.4a8.31 8.31 0 0 1-8.046 8.296l-.254.004H32.3a8.31 8.31 0 0 1-8.296-8.046L24 303.7V16.3a8.31 8.31 0 0 1 8.046-8.296L32.3 8h191.4Zm48.19 124.343a4.25 4.25 0 0 1 3.8 2.347L295 173.64a8.53 8.53 0 0 1 .89 3.77v126.1a8.49 8.49 0 0 1-8.49 8.49h-31a8.49 8.49 0 0 1-8.48-8.49v-126.1c0-1.308.301-2.598.88-3.77l19.29-38.95a4.25 4.25 0 0 1 3.8-2.347ZM223.7 16H32.3a.31.31 0 0 0-.29.232L32 16.3v287.4a.31.31 0 0 0 .232.29l.068.01h191.4a.31.31 0 0 0 .29-.232l.01-.068V16.3a.31.31 0 0 0-.3-.3Zm55.74 144.56a8 8 0 0 1-15.19.18l-8.2 16.52a.37.37 0 0 0 0 .15v126.1a.36.36 0 0 0 .35.36h31a.36.36 0 0 0 .36-.36l-.04-126.1a.37.37 0 0 0 0-.15ZM196 256a4 4 0 0 1 .2 7.995l-.2.005H60a4 4 0 0 1-.2-7.995L60 256h136Zm0-32a4 4 0 0 1 .2 7.995l-.2.005H60a4 4 0 0 1-.2-7.995L60 224h136Zm0-32a4 4 0 0 1 .2 7.995l-.2.005H60a4 4 0 0 1-.2-7.995L60 192h136Zm-4.3-152a8.31 8.31 0 0 1 8.296 8.046l.004.254v111.4a8.31 8.31 0 0 1-8.046 8.296l-.254.004H64.3a8.31 8.31 0 0 1-8.296-8.046L56 159.7V48.3a8.31 8.31 0 0 1 8.046-8.296L64.3 40h127.4Zm-63.49 88.08c-18.567.068-34.484 13.21-38.104 31.368L90 160h76.39a39.15 39.15 0 0 0-10.68-20.44c-.88-.89-1.76-1.73-2.76-2.53-1-.8-2-1.55-3-2.26a38.52 38.52 0 0 0-21.74-6.69ZM191.7 48H64.3a.31.31 0 0 0-.29.232L64 48.3v111.4a.31.31 0 0 0 .232.29l.068.01h17.55c3.415-22.954 23.123-39.947 46.33-39.947 22.975 0 42.52 16.655 46.223 39.26l.107.687h17.19a.31.31 0 0 0 .29-.232l.01-.068V48.3a.31.31 0 0 0-.3-.3ZM128 56a28 28 0 0 1 28 28c0 15.464-12.536 28-28 28s-28-12.536-28-28 12.536-28 28-28Zm-17.59 18.52a20.23 20.23 0 0 0-1.51 3.58 20.12 20.12 0 0 0 0 11.9 20.23 20.23 0 0 0 1.51 3.58 20 20 0 0 0 28.399 7.245l.371-.245v.05a20 20 0 1 0-28.77-26.11Z"/></g></svg>