<svg xmlns="http://www.w3.org/2000/svg" width="320" height="320" fill="none" viewBox="0 0 320 320"><path fill="#FFD500" fill-rule="evenodd" d="M167.939 20c50.08 0 88.122 23.975 88.122 54.218 0 14.919-10.483 34.874-22.754 45.016-9.548 7.89-20.903 13.75-38.819 21.063l.537-.221.359.215c46.426 27.833 68.175 51.373 68.609 79.25l.007.855c0 23.299-16.147 46.555-37.59 60.338C207.263 293.041 181.809 300 158.015 300c-26.624 0-51.026-5.49-68.63-15.835C70.347 272.977 56 252.72 56 231.881c0-24.976 24.195-50.079 65.53-67.185l-.562.234-.377-.221c-18.124-10.673-28.327-18.135-35.473-26.54l-.277-.328-.538-.651c-8.217-10.078-15.998-25.814-15.998-42.338 0-16.301 12.578-37.758 27.877-51.028C113.608 28.708 138.24 20 167.94 20Zm-36.764 153.168c-12.67 12.641-18.015 27.19-18.015 48.812 0 37.171 19.751 62.02 50.84 62.02 26.253 0 40.061-13.307 40.061-38.653 0-24.755-8.336-35.978-48.789-59.651l-24.097-12.528Zm-9.645-8.472-.562.234.333.196.718.421-.489-.851Zm72.425-25.258.533.859.537-.221-1.07-.638ZM158.015 36c-23.608 0-34.931 11.823-34.931 34.297 0 11.976-.761 17.657 5.83 26.087 5.465 6.992 13.024 13.025 24.456 20.02l1.495.907 29.991 15.647 2.539-2.74c11.97-13.078 13.887-22.685 13.887-41.307 0-34.665-16.269-52.911-43.267-52.911Z" clip-rule="evenodd"/><path fill="#000" fill-rule="evenodd" d="M228 212a4 4 0 1 1 0 8 4 4 0 0 1 0-8Zm16-16a4 4 0 1 1 0 8 4 4 0 0 1 0-8Zm-32 0a4 4 0 1 1 0 8 4 4 0 0 1 0-8Zm16-16a4 4 0 1 1 0 8 4 4 0 0 1 0-8Zm-32 0a4 4 0 1 1 0 8 4 4 0 0 1 0-8Zm16-16a4 4 0 1 1 0 8 4 4 0 0 1 0-8Zm-96-32a4 4 0 1 1 0 8 4 4 0 0 1 0-8Zm16-16a4 4 0 1 1 0 8 4 4 0 0 1 0-8Zm-32 0a4 4 0 1 1 0 8 4 4 0 0 1 0-8Zm16-16a4 4 0 1 1 0 8 4 4 0 0 1 0-8Zm-32 0a4 4 0 1 1 0 8 4 4 0 0 1 0-8Zm16-16a4 4 0 1 1 0 8 4 4 0 0 1 0-8Zm128 0a4 4 0 1 1 0 8 4 4 0 0 1 0-8Zm16-16a4 4 0 1 1 0 8 4 4 0 0 1 0-8Zm-32 0a4 4 0 1 1 0 8 4 4 0 0 1 0-8Zm16-16a4 4 0 1 1 0 8 4 4 0 0 1 0-8Z" clip-rule="evenodd"/><path fill="#000" fill-rule="evenodd" d="M167.939 16c54.019 0 92.122 26.835 92.122 62.218 0 17.49-7.659 31.612-21.658 43.182-8.486 7.013-18.044 12.419-31.49 18.332l-2.104.915 1.859 1.146c19.257 11.933 32.476 21.995 42.113 32.452l.401.437C261.799 188.53 268 203.202 268 220.396c0 26.231-13.67 47.902-37.265 63.068C210.252 296.63 183.294 304 158.015 304c-27.951 0-53.73-5.8-72.683-16.938C63.961 274.503 52 255.71 52 231.881c0-27.152 19.856-49.532 58.783-67.243l.448-.202-1.769-1.081c-15.034-9.241-24.168-16.402-31.065-24.75l-.295-.36c-9.44-11.577-13.797-25.105-13.797-43.394 0-18.708 9.643-38.331 26.635-53.07C109.86 25.368 136.361 16 167.939 16Zm0 8c-29.699 0-54.331 8.708-71.757 23.824-15.299 13.27-23.877 30.727-23.877 47.028 0 16.524 3.78 28.26 11.997 38.338l.539.651c7.343 8.759 17.918 16.441 37.178 27.706l6.956 4.068-7.445 3.081C80.195 185.802 60 206.905 60 231.881c0 20.839 10.347 37.096 29.385 48.284C106.99 290.51 131.391 296 158.015 296c23.794 0 49.248-6.959 68.395-19.266 21.443-13.783 33.59-33.039 33.59-56.338 0-28.537-18.158-48.467-66.045-76.958l-6.902-4.107 7.435-3.034c17.916-7.313 29.271-13.173 38.819-21.063 12.271-10.142 18.754-22.097 18.754-37.016 0-30.243-34.042-54.218-84.122-54.218Zm-38.764 145.168 2.239-2.234 23.858 14.762c40.453 23.673 52.789 38.896 52.789 63.651C208.061 270.693 190.253 288 164 288c-31.089 0-54.84-28.849-54.84-66.02 0-21.622 7.345-40.171 20.015-52.812Zm3.493 7.949-.184.207c-9.7 11.015-15.324 26.527-15.324 44.656 0 33.059 20.55 58.02 46.84 58.02 21.885 0 36.061-13.778 36.061-34.653 0-21.312-10.572-34.358-48.914-56.797l-18.479-11.433ZM158.015 32c26.998 0 47.267 22.246 47.267 56.91 0 18.623-5.917 32.23-17.887 45.308l-2.539 2.74-29.991-15.647-1.495-.907c-11.432-6.995-18.991-13.028-24.456-20.02-6.591-8.43-9.83-18.11-9.83-30.087 0-22.474 15.323-38.297 38.931-38.297Zm0 8c-19.131 0-30.931 12.185-30.931 30.297 0 18.917 8.446 29.909 31.113 43.68l.591.357 24.308 12.682.148-.17c9.357-10.879 13.904-22.038 14.035-37.251l.003-.684C197.282 58.507 180.42 40 158.015 40Z" clip-rule="evenodd"/></svg>