<svg xmlns="http://www.w3.org/2000/svg" width="320" height="320" viewBox="0 0 320 320"><g id="Foundations/Icons/Brand-Icons/Hazards/05-electric-shock" fill="none" fill-rule="evenodd" stroke="none" stroke-width="1"><path id="lg-icon-fill-primary" fill="#FFD500" d="M166.52 156h28.84L132 253.61 148.71 181h-27.58l25.17-65h36.1z"/><path id="Outlines" fill="#000" d="M160 12a7.971 7.971 0 0 1 7.028 4.22l152.026 284a8.022 8.022 0 0 1-.186 7.888 7.97 7.97 0 0 1-6.842 3.892H7.974a7.97 7.97 0 0 1-6.842-3.892 8.022 8.022 0 0 1-.186-7.888l152.076-284A7.972 7.972 0 0 1 160 12Zm0 8L7.974 304h304.052L160 20Zm28.18 92-15.87 40H204l-87.27 136 26.64-103H116l24.55-73h47.63Zm-11.78 8h-30.1l-19.17 57h26.58l-2.59 10L137 241.61 189.36 160h-28.84l4.35-10.95L176.4 120Z"/></g></svg>