<svg width="320" height="320" viewBox="0 0 320 320" xmlns="http://www.w3.org/2000/svg"><g id="Foundations/Icons/Brand-Icons/UI/Group-Protection/04-employees" stroke="none" stroke-width="1" fill="none" fill-rule="evenodd"><path d="m113.687 198.604-3.239 4.531 24.686 24.686 3.106-4.141 15.639 11.73-8.656 60.59h29.553l-8.656-60.59 15.64-11.73 3.105 4.141 24.686-24.686-.88-1.223C247.026 226.027 292 217.025 292 248v52H28v-52c0-31.613 46.845-23.32 85.687-49.396ZM128 186.839l-.001 5.806-3.31-2.645a93.264 93.264 0 0 0 3.311-3.16Zm66.304 3.963L192 192.643l-.002-4.102a91.23 91.23 0 0 0 2.307 2.261ZM160 16c39.765 0 72 32.235 72 72 0 21.503-9.426 40.804-24.372 53.997.246-1.965.372-3.966.372-5.997V94l-.042-.002C206.892 69.212 185.828 64 160 64c-25.829 0-46.892 5.212-47.958 29.998L112 94v42l.006.794c.029 1.759.152 3.495.365 5.203C97.426 128.804 88 109.503 88 88c0-39.765 32.235-72 72-72Z" id="lg-icon-fill-primary" fill="#FFD500"/><path d="M64 296a4 4 0 1 1 0 8 4 4 0 0 1 0-8Zm32 0a4 4 0 1 1 0 8 4 4 0 0 1 0-8Zm32 0a4 4 0 1 1 0 8 4 4 0 0 1 0-8Zm32 0a4 4 0 1 1 0 8 4 4 0 0 1 0-8Zm32 0a4 4 0 1 1 0 8 4 4 0 0 1 0-8Zm32 0a4 4 0 1 1 0 8 4 4 0 0 1 0-8Zm32 0a4 4 0 1 1 0 8 4 4 0 0 1 0-8Zm-16-16a4 4 0 1 1 0 8 4 4 0 0 1 0-8Zm-32 0a4 4 0 1 1 0 8 4 4 0 0 1 0-8Zm-32 0a4 4 0 1 1-2.493 7.128l-.775-5.434A3.995 3.995 0 0 1 176 280Zm-32 0c1.35 0 2.543.668 3.267 1.692l-.777 5.439A4 4 0 1 1 144 280Zm-32 0a4 4 0 1 1 0 8 4 4 0 0 1 0-8Zm-32 0a4 4 0 1 1 0 8 4 4 0 0 1 0-8Zm-32 0a4 4 0 1 1 0 8 4 4 0 0 1 0-8Zm224 0a4 4 0 1 1 0 8 4 4 0 0 1 0-8Zm-16-16a4 4 0 1 1 0 8 4 4 0 0 1 0-8Zm-32 0a4 4 0 1 1 0 8 4 4 0 0 1 0-8Zm-32 0a4 4 0 1 1 0 8 4 4 0 0 1 0-8Zm-64 0a4 4 0 1 1 0 8 4 4 0 0 1 0-8Zm-64 0a4 4 0 1 1 0 8 4 4 0 0 1 0-8Zm32 0a4 4 0 1 1 0 8 4 4 0 0 1 0-8Zm176-16a4 4 0 1 1 0 8 4 4 0 0 1 0-8Zm-32 0a4 4 0 1 1 0 8 4 4 0 0 1 0-8Zm-32 0a4 4 0 1 1 0 8 4 4 0 0 1 0-8Zm-96 0a4 4 0 1 1 0 8 4 4 0 0 1 0-8Zm-32 0a4 4 0 1 1 0 8 4 4 0 0 1 0-8Zm-32 0a4 4 0 1 1 0 8 4 4 0 0 1 0-8Zm176-16a4 4 0 1 1 0 8 4 4 0 0 1 0-8Zm32 0a4 4 0 1 1 0 8 4 4 0 0 1 0-8Zm-192 0a4 4 0 1 1 0 8 4 4 0 0 1 0-8Zm32 0a4 4 0 1 1 0 8 4 4 0 0 1 0-8Z" id="Half-tone" fill="#000"/><path d="M160 16c39.765 0 72 32.235 72 72 0 21.503-9.426 40.804-24.372 53.997-1.468 11.786-7.21 22.246-15.626 29.78l-.003 9.392c.222.235.443.468.666.7L200 176l18.01 25.216c12.553 6.987 25.44 11.305 37.03 15.04l5.092 1.638C280.667 224.527 296 230.24 296 248v56H24v-56c0-17.76 15.333-23.473 35.868-30.106l5.092-1.638c11.591-3.735 24.478-8.053 37.03-15.04L120 176l7.335 5.869c.223-.232.445-.466.667-.701l-.002-9.39c-8.417-7.534-14.16-17.994-15.629-29.781C97.426 128.804 88 109.503 88 88c0-39.765 32.235-72 72-72ZM97.672 212.422c-6.114 2.898-12.448 5.417-19.807 7.975l-1.347.465-1.732.583-11.096 3.631-5.586 1.812-.597.2-1.743.592-1.121.39-1.089.385-1.056.382-1.024.38-.993.376-.485.188-.947.373-.916.371-.887.37-.857.368-.827.368-.403.184-.784.367-.756.367-.729.367c-.238.122-.471.245-.7.368l-.674.369c-.11.061-.219.123-.327.185l-.633.37c-6.204 3.72-8.481 7.713-8.554 13.501l-.003.291v48l105.144-.001 9.115-63.8a15.912 15.912 0 0 1-1.621-3.714L136 240l-31.199-31.198a143.222 143.222 0 0 1-7.129 3.62Zm117.527-3.62L184 240l-8.637-11.516a15.912 15.912 0 0 1-1.62 3.714L182.857 296H288v-48c0-5.403-1.857-9.254-6.93-12.75l-.557-.372-.58-.371-.3-.185-.62-.368a39.947 39.947 0 0 0-.977-.548l-.685-.365-.352-.182-.725-.364-.373-.181-.766-.363-.394-.182-.808-.364-.415-.182-.852-.365-.88-.366-.91-.368-.466-.184-.954-.371-.985-.373-1.016-.376-1.047-.378-1.078-.382-1.11-.386-1.727-.586-14.716-4.795-3.776-1.255-.755-.256c-7.836-2.692-14.498-5.318-20.918-8.36a143.222 143.222 0 0 1-7.13-3.62Zm-54.884 31.195L160 240a15.94 15.94 0 0 1-6.574-1.409L145.223 296h29.553l-8.202-57.408a15.931 15.931 0 0 1-6.26 1.406ZM160 212a8 8 0 0 0-7.996 7.75L152 220v4a8 8 0 0 0 15.996.25L168 224v-4a8 8 0 0 0-8-8Zm-38.401-24.476-11.151 15.611 24.686 24.686 3.106-4.141-.001-.001 4.8-6.4.001.001 1.793-2.39a15.995 15.995 0 0 1 3.575-5.919L136 199.044v.001l-8-6.4v-.001l-.14-.11-6.261-5.01Zm76.801-.001-6.261 5.01-.139.11-8 6.4-12.408 9.928a15.995 15.995 0 0 1 3.573 5.915l1.795 2.394 4.531 6.041 3.374 4.5 24.686-24.686-11.151-15.612Zm-58.482-7.913-.153.192a112.657 112.657 0 0 1-3.764 4.476L136 188.8l19.722 15.778A16.016 16.016 0 0 1 160 204c1.481 0 2.916.201 4.278.578L184 188.8v-4.521a112.659 112.659 0 0 1-3.765-4.477l-.152-.193A47.821 47.821 0 0 1 160 184a47.821 47.821 0 0 1-20.082-4.39ZM160 72c-27.244 0-39.026 5.871-39.94 21.854l-.04.74-.02.217v41.124l.005.73c.007.435.022.87.042 1.302l.002.035a39.85 39.85 0 0 0 2.227 11.335v.001l.136.377a39.892 39.892 0 0 0 5.533 10.217l.054.072c.101.135.203.269.306.402C135.624 169.894 147.107 176 160 176a39.882 39.882 0 0 0 15.217-2.996l.21-.087a39.906 39.906 0 0 0 6.885-3.713l-.002.001.116-.078c10.435-7.078 17.35-18.958 17.569-32.466L200 136V94.821l-.02-.227-.015-.252c-.696-16.188-12.212-22.221-39.144-22.34L160 72Zm0-48c-35.346 0-64 28.654-64 64 0 16.232 6.043 31.052 16 42.334V94l.042-.002c1.055-24.538 21.71-29.892 47.185-29.996L160 64c25.829 0 46.892 5.212 47.958 29.998L208 94v36.332c9.958-11.282 16-26.101 16-42.332 0-35.346-28.654-64-64-64Z" id="Outlines" fill="#000"/></g></svg>