<svg xmlns="http://www.w3.org/2000/svg" width="320" height="320" viewBox="0 0 320 320"><g id="Foundations/Icons/Brand-Icons/Cities/03-european-city" fill="none" fill-rule="evenodd" stroke="none" stroke-width="1"><path id="lg-icon-fill-primary" fill="#FFD500" d="M112 32h96v272h-96z"/><path id="Outlines" fill="#000" d="M311.7 112H216V32.3a8.29 8.29 0 0 0-8.3-8.3h-95.4a8.29 8.29 0 0 0-8.3 8.3V72H88c.018-16.131-11.992-29.746-28-31.74V12a4 4 0 1 0-8 0v28.26C35.992 42.254 23.982 55.869 24 72H8.3A8.29 8.29 0 0 0 0 80.3v223.4c0 2.202.871 4.315 2.428 5.872A8.301 8.301 0 0 0 8.3 312h303.4a8.301 8.301 0 0 0 5.872-2.428A8.301 8.301 0 0 0 320 303.7V120.3a8.29 8.29 0 0 0-8.3-8.3ZM56 48c13.255 0 24 10.745 24 24H32c0-13.255 10.745-24 24-24Zm48 255.7a.31.31 0 0 1-.3.3H8.3a.31.31 0 0 1-.3-.3V80.3a.31.31 0 0 1 .3-.3h95.4a.31.31 0 0 1 .3.3v223.4Zm104-183.4v183.4a.31.31 0 0 1-.3.3h-95.4a.31.31 0 0 1-.3-.3V32.3a.31.31 0 0 1 .3-.3h95.4a.31.31 0 0 1 .3.3v88Zm104 183.4a.31.31 0 0 1-.3.3h-95.4a.31.31 0 0 1-.3-.3V120.3a.31.31 0 0 1 .3-.3h95.4a.31.31 0 0 1 .3.3v183.4ZM160 249l.2.005a4 4 0 0 1 3.795 3.789L164 253v16a4 4 0 0 1-7.995.2L156 269v-16a4 4 0 0 1 3.8-3.995l.2-.005Zm104 0 .2.005a4 4 0 0 1 3.795 3.789L268 253v16a4 4 0 0 1-7.995.2L260 269v-16a4 4 0 0 1 3.8-3.995l.2-.005ZM28 217l.2.005a4 4 0 0 1 3.795 3.789L32 221v16a4 4 0 0 1-7.995.2L24 237v-16a4 4 0 0 1 3.8-3.995L28 217Zm28 0 .2.005a4 4 0 0 1 3.795 3.789L60 221v16a4 4 0 0 1-7.995.2L52 237v-16a4 4 0 0 1 3.8-3.995L56 217Zm28 0 .2.005a4 4 0 0 1 3.795 3.789L88 221v16a4 4 0 0 1-7.995.2L80 237v-16a4 4 0 0 1 3.8-3.995L84 217Zm48-8 .2.005a4 4 0 0 1 3.795 3.789L136 213v16a4 4 0 0 1-7.995.2L128 229v-16a4 4 0 0 1 3.8-3.995l.2-.005Zm56 0 .2.005a4 4 0 0 1 3.795 3.789L192 213v16a4 4 0 0 1-7.995.2L184 229v-16a4 4 0 0 1 3.8-3.995l.2-.005Zm-28 0 .2.005a4 4 0 0 1 3.795 3.789L164 213v16a4 4 0 0 1-7.995.2L156 229v-16a4 4 0 0 1 3.8-3.995l.2-.005Zm76 0 .2.005a4 4 0 0 1 3.795 3.789L240 213v16a4 4 0 0 1-7.995.2L232 229v-16a4 4 0 0 1 3.8-3.995l.2-.005Zm56 0 .2.005a4 4 0 0 1 3.795 3.789L296 213v16a4 4 0 0 1-7.995.2L288 229v-16a4 4 0 0 1 3.8-3.995l.2-.005ZM28 177l.2.005a4 4 0 0 1 3.795 3.789L32 181v16a4 4 0 0 1-7.995.2L24 197v-16a4 4 0 0 1 3.8-3.995L28 177Zm56 0 .2.005a4 4 0 0 1 3.795 3.789L88 181v16a4 4 0 0 1-7.995.2L80 197v-16a4 4 0 0 1 3.8-3.995L84 177Zm-28 0 .2.005a4 4 0 0 1 3.795 3.789L60 181v16a4 4 0 0 1-7.995.2L52 197v-16a4 4 0 0 1 3.8-3.995L56 177Zm76-8 .2.005a4 4 0 0 1 3.795 3.789L136 173v16a4 4 0 0 1-7.995.2L128 189v-16a4 4 0 0 1 3.8-3.995l.2-.005Zm28 0 .2.005a4 4 0 0 1 3.795 3.789L164 173v16a4 4 0 0 1-7.995.2L156 189v-16a4 4 0 0 1 3.8-3.995l.2-.005Zm28 0 .2.005a4 4 0 0 1 3.795 3.789L192 173v16a4 4 0 0 1-7.995.2L184 189v-16a4 4 0 0 1 3.8-3.995l.2-.005Zm76 0 .2.005a4 4 0 0 1 3.795 3.789L268 173v16a4 4 0 0 1-7.995.2L260 189v-16a4 4 0 0 1 3.8-3.995l.2-.005ZM56 137l.2.005a4 4 0 0 1 3.795 3.789L60 141v16a4 4 0 0 1-7.995.2L52 157v-16a4 4 0 0 1 3.8-3.995L56 137Zm-28 0 .2.005a4 4 0 0 1 3.795 3.789L32 141v16a4 4 0 0 1-7.995.2L24 157v-16a4 4 0 0 1 3.8-3.995L28 137Zm56 0 .2.005a4 4 0 0 1 3.795 3.789L88 141v16a4 4 0 0 1-7.995.2L80 157v-16a4 4 0 0 1 3.8-3.995L84 137Zm48-8 .2.005a4 4 0 0 1 3.795 3.789L136 133v16a4 4 0 0 1-7.995.2L128 149v-16a4 4 0 0 1 3.8-3.995l.2-.005Zm56 0 .2.005a4 4 0 0 1 3.795 3.789L192 133v16a4 4 0 0 1-7.995.2L184 149v-16a4 4 0 0 1 3.8-3.995l.2-.005Zm-28 0 .2.005a4 4 0 0 1 3.795 3.789L164 133v16a4 4 0 0 1-7.995.2L156 149v-16a4 4 0 0 1 3.8-3.995l.2-.005Zm76 0 .2.005a4 4 0 0 1 3.795 3.789L240 133v16a4 4 0 0 1-7.995.2L232 149v-16a4 4 0 0 1 3.8-3.995l.2-.005Zm56 0 .2.005a4 4 0 0 1 3.795 3.789L296 133v16a4 4 0 0 1-7.995.2L288 149v-16a4 4 0 0 1 3.8-3.995l.2-.005ZM28 97l.2.005a4 4 0 0 1 3.795 3.789L32 101v16a4 4 0 0 1-7.995.2L24 117v-16a4 4 0 0 1 3.8-3.995L28 97Zm56 0 .2.005a4 4 0 0 1 3.795 3.789L88 101v16a4 4 0 0 1-7.995.2L80 117v-16a4 4 0 0 1 3.8-3.995L84 97Zm-28 0 .2.005a4 4 0 0 1 3.795 3.789L60 101v16a4 4 0 0 1-7.995.2L52 117v-16a4 4 0 0 1 3.8-3.995L56 97Zm76-8 .2.005a4 4 0 0 1 3.795 3.789L136 93v16a4 4 0 0 1-7.995.2L128 109V93a4 4 0 0 1 3.8-3.995L132 89Zm56 0 .2.005a4 4 0 0 1 3.795 3.789L192 93v16a4 4 0 0 1-7.995.2L184 109V93a4 4 0 0 1 3.8-3.995L188 89Zm-28 0 .2.005a4 4 0 0 1 3.795 3.789L164 93v16a4 4 0 0 1-7.995.2L156 109V93a4 4 0 0 1 3.8-3.995L160 89Zm-28-40 .2.005a4 4 0 0 1 3.795 3.789L136 53v16a4 4 0 0 1-7.995.2L128 69V53a4 4 0 0 1 3.8-3.995L132 49Zm56 0 .2.005a4 4 0 0 1 3.795 3.789L192 53v16a4 4 0 0 1-7.995.2L184 69V53a4 4 0 0 1 3.8-3.995L188 49Zm-28 0 .2.005a4 4 0 0 1 3.795 3.789L164 53v16a4 4 0 0 1-7.995.2L156 69V53a4 4 0 0 1 3.8-3.995L160 49Z"/></g></svg>