<svg width="320" height="320" viewBox="0 0 320 320" xmlns="http://www.w3.org/2000/svg"><g id="Foundations/Icons/Brand-Icons/Banking-and-Commerce/61-euro-circulation" stroke="none" stroke-width="1" fill="none" fill-rule="evenodd"><path d="M296.179 168.33a4.001 4.001 0 0 1 3.499 1.94l16 26.69a4 4 0 0 1-3.42 6.06h-.01a4 4 0 0 1-3.43-1.94l-10.367-17.295a141.23 141.23 0 0 1-15.643 50.075 141.5 141.5 0 0 1-110.39 74.46c-4.993.53-10.01.8-15.03.81-4.6 0-9.177-.22-13.73-.66a141.23 141.23 0 0 1-52.66-15.92 142.51 142.51 0 0 1-42.08-34.08 141.24 141.24 0 0 1-32.37-76.34 4.022 4.022 0 0 1 8-.84 134.61 134.61 0 0 0 5.53 26.54 133 133 0 0 0 25 45.46 134.12 134.12 0 0 0 63.58 42.06 133.27 133.27 0 0 0 25.79 5.13 135.32 135.32 0 0 0 53.64-5.64c50.975-16.188 87.408-61.183 92.64-114.41l.014-.118-19.164 11.488a3.92 3.92 0 0 1-2.05.57 4 4 0 0 1-2.07-7.43l26.448-15.855a4 4 0 0 1 2.273-.756Zm-118.451-90.2h.106c2.259.021 30.163.787 43.344 25.17a4 4 0 1 1-7 3.81c-10.986-20.325-35.168-20.982-36.366-21h-.044c-48.501 0-62.285 31.352-65.433 57.02h65.323a4 4 0 1 1 0 8l-65.997.001c-.08 1.66-.12 3.275-.13 4.831l-.003.798c0 4.946.253 9.563.734 13.874l65.396-.004a4 4 0 1 1 0 8l-64.179.002c7.886 40.3 38.225 49.458 64.279 49.458h.044c1.191-.022 25.439-.763 36.366-21a4 4 0 1 1 7 3.81c-13.181 24.441-41.076 25.208-43.334 25.23h-.106c-30.27 0-51.74-11.05-63.81-32.85-3.983-7.2-6.834-15.443-8.535-24.649l-27.725-.001a4 4 0 1 1 0-8h26.561a128.244 128.244 0 0 1-.718-12.874l-.003-.946c0-1.916.042-3.81.127-5.68H77.658a4 4 0 1 1 0-8h26.6c1.417-12.38 4.796-23.487 9.98-32.63 12.17-21.48 33.54-32.37 63.49-32.37Zm62.646-45.01a141.68 141.68 0 0 1 63.354 103.91 4 4 0 1 1-7.95.83 135.07 135.07 0 0 0-5.52-26.53 133.14 133.14 0 0 0-25-45.47 134.72 134.72 0 0 0-39.72-32.16 133.15 133.15 0 0 0-49.68-15 134.83 134.83 0 0 0-53.64 5.64 132.77 132.77 0 0 0-24.17 10.35 133.76 133.76 0 0 0-68.469 103.682L47.718 127.5a4.001 4.001 0 0 1 4.12 6.86l-26.69 16a4.05 4.05 0 0 1-1.82.562l-.24.008-.11-.002-.021-.001a2.777 2.777 0 0 1-.295-.02l-.055-.006a3.921 3.921 0 0 1-.374-.063l-.05-.011a2.723 2.723 0 0 1-.102-.025l-.072-.02a3.992 3.992 0 0 1-.17-.051l-.078-.027a3.1 3.1 0 0 1-.14-.052l-.032-.013a3.303 3.303 0 0 1-.164-.07l-.04-.02a3.082 3.082 0 0 1-.134-.065l-.055-.03a3.075 3.075 0 0 1-.125-.069l-.066-.04a3.995 3.995 0 0 1-.945-.799l-.05-.06a2.86 2.86 0 0 1-.096-.12l-.019-.025a3.829 3.829 0 0 1-.281-.424L3.658 122.3a4 4 0 1 1 6.85-4.12L21.7 136.854A141.23 141.23 0 0 1 37.508 85.29a142.2 142.2 0 0 1 56.67-57.6 140.32 140.32 0 0 1 25.61-11 141.68 141.68 0 0 1 120.586 16.43Z" id="Outlines" fill="#000"/></g></svg>