<svg xmlns="http://www.w3.org/2000/svg" width="320" height="320" viewBox="0 0 320 320"><g id="Brand-Icons/UI/Protection-/-evidence" fill="none" fill-rule="evenodd" stroke="none" stroke-width="1"><path id="lg-icon-fill-primary" fill="#FFD500" d="M216 132c19.882 0 36-16.118 36-36s-16.118-36-36-36-36 16.118-36 36 16.118 36 36 36ZM96 100c19.882 0 36 16.118 36 36a35.93 35.93 0 0 1-2.049 12H62.05A35.942 35.942 0 0 1 60 136c0-19.882 16.118-36 36-36Zm0-40c11.046 0 20 8.954 20 20s-8.954 20-20 20-20-8.954-20-20 8.954-20 20-20Z"/><path id="Half-tone" fill="#000" d="M179.92 288a4 4 0 1 0 0-8 4 4 0 0 0 0 8Zm-32 0a4 4 0 1 0 0-8 4 4 0 0 0 0 8Zm-32 0a4 4 0 1 0 0-8 4 4 0 0 0 0 8Zm-32 0a4 4 0 1 0 0-8 4 4 0 0 0 0 8Zm-32 0a4 4 0 1 0 0-8 4 4 0 0 0 0 8Z"/><path id="Outlines" fill="#000" d="M215.7 8a8.3 8.3 0 0 1 8.3 8.3v24.267C251.14 44.45 272 67.788 272 96c0 10.943-3.139 21.152-8.564 29.777l47.392 47.395a4 4 0 0 1 0 5.656l-12 12a4 4 0 0 1-5.656 0l-47.395-47.392a55.652 55.652 0 0 1-21.776 7.997L224 303.7a8.3 8.3 0 0 1-8.3 8.3H24.31a8.31 8.31 0 0 1-8.31-8.3V16.3A8.31 8.31 0 0 1 24.31 8Zm0 8H24.31a.31.31 0 0 0-.31.3v287.4a.31.31 0 0 0 .31.3H215.7a.3.3 0 0 0 .3-.3V152c-30.928 0-56-25.072-56-56s25.072-56 56-56V16.3a.3.3 0 0 0-.3-.3ZM196 240a4 4 0 1 1 0 8H44a4 4 0 1 1 0-8Zm0-48a4 4 0 1 1 0 8H44a4 4 0 1 1 0-8Zm63-59.343L252.657 139 296 182.343l6.343-6.343L259 132.657ZM143.7 40a8.3 8.3 0 0 1 8.3 8.3v95.4a8.3 8.3 0 0 1-8.3 8.3H48.31a8.31 8.31 0 0 1-8.31-8.3V48.3a8.31 8.31 0 0 1 8.31-8.3Zm0 8H48.31a.31.31 0 0 0-.31.3v95.43a.31.31 0 0 0 .31.3h7.45a7.32 7.32 0 0 1 0-.81v-6.93A40.32 40.32 0 0 1 81.1 98.84a24 24 0 1 1 29.61.11 40.34 40.34 0 0 1 25.08 37.23l.18 6.82a7 7 0 0 1-.05 1h7.78a.3.3 0 0 0 .3-.3V48.3a.3.3 0 0 0-.3-.3Zm72.3 0c-26.51 0-48 21.49-48 48s21.49 48 48 48 48-21.49 48-48-21.49-48-48-48ZM95.79 104.26c-17.673 0-32 14.327-32 32v6.93h64.18l-.18-6.93c0-17.673-14.327-32-32-32ZM216 56c22.091 0 40 17.909 40 40s-17.909 40-40 40-40-17.909-40-40 17.909-40 40-40Zm0 8c-17.673 0-32 14.327-32 32 0 17.673 14.327 32 32 32 17.673 0 32-14.327 32-32 0-17.673-14.327-32-32-32ZM96 64c-8.837 0-16 7.163-16 16s7.163 16 16 16 16-7.163 16-16-7.163-16-16-16Z"/></g></svg>