<svg xmlns="http://www.w3.org/2000/svg" width="320" height="320" fill="none" viewBox="0 0 320 320"><path fill="#FFD500" fill-rule="evenodd" d="M212 132c19.882 0 36-16.118 36-36s-16.118-36-36-36-36 16.118-36 36 16.118 36 36 36ZM92 100c19.882 0 36 16.118 36 36a35.94 35.94 0 0 1-2.049 12.001H58.049A35.944 35.944 0 0 1 56 136c0-19.882 16.118-36 36-36Zm0-40c11.046 0 20 8.954 20 20s-8.954 20-20 20-20-8.954-20-20 8.954-20 20-20Z" clip-rule="evenodd"/><path fill="#000" fill-rule="evenodd" d="M175.92 288a4 4 0 1 0 0-8 4 4 0 0 0 0 8Zm-32 0a4 4 0 1 0 0-8 4 4 0 0 0 0 8Zm-32 0a4 4 0 1 0 0-8 4 4 0 0 0 0 8Zm-32 0a4 4 0 1 0 0-8 4 4 0 0 0 0 8Zm-32 0a4 4 0 1 0 0-8 4 4 0 0 0 0 8Z" clip-rule="evenodd"/><path fill="#000" fill-rule="evenodd" d="M211.7 8a8.3 8.3 0 0 1 8.3 8.3l.001 24.267C247.139 44.45 268 67.788 268 96c0 10.943-3.139 21.152-8.564 29.777l47.392 47.395a3.997 3.997 0 0 1 0 5.656l-12 12a3.997 3.997 0 0 1-5.656 0l-47.395-47.392a55.648 55.648 0 0 1-21.776 7.997L220 303.7a8.3 8.3 0 0 1-8.3 8.3H20.31a8.31 8.31 0 0 1-8.31-8.3V16.3A8.31 8.31 0 0 1 20.31 8H211.7Zm0 8H20.31a.31.31 0 0 0-.31.3v287.4a.31.31 0 0 0 .31.3H211.7a.3.3 0 0 0 .3-.3V152c-30.928 0-56-25.072-56-56s25.072-56 56-56V16.3a.3.3 0 0 0-.3-.3ZM192 240a4 4 0 0 1 0 8H40a4 4 0 0 1 0-8h152Zm0-48a4 4 0 0 1 0 8H40a4 4 0 0 1 0-8h152Zm63-59.343L248.657 139 292 182.343l6.343-6.343L255 132.657ZM139.7 40a8.302 8.302 0 0 1 8.3 8.3v95.4a8.3 8.3 0 0 1-8.3 8.3H44.31a8.31 8.31 0 0 1-8.31-8.3V48.3a8.31 8.31 0 0 1 8.31-8.3h95.39Zm0 8H44.31a.31.31 0 0 0-.31.3v95.43a.31.31 0 0 0 .31.3h7.45a7.296 7.296 0 0 1 0-.81v-6.93A40.32 40.32 0 0 1 77.1 98.84a24 24 0 1 1 29.61.11 40.341 40.341 0 0 1 25.08 37.23l.18 6.82c.007.334-.009.668-.05 1h7.78a.3.3 0 0 0 .3-.3V48.3a.3.3 0 0 0-.3-.3Zm72.3 0c-26.51 0-48 21.49-48 48s21.49 48 48 48 48-21.49 48-48-21.49-48-48-48ZM91.79 104.26c-17.673 0-32 14.327-32 32v6.93h64.18l-.18-6.93c0-17.673-14.327-32-32-32ZM212 56c22.091 0 40 17.909 40 40s-17.909 40-40 40-40-17.909-40-40 17.909-40 40-40Zm0 8c-17.673 0-32 14.327-32 32 0 17.673 14.327 32 32 32 17.673 0 32-14.327 32-32 0-17.673-14.327-32-32-32ZM92 64c-8.837 0-16 7.163-16 16s7.163 16 16 16 16-7.163 16-16-7.163-16-16-16Z" clip-rule="evenodd"/></svg>