<svg width="320" height="320" viewBox="0 0 320 320" xmlns="http://www.w3.org/2000/svg"><g id="Foundations/Icons/Brand-Icons/Commands/18-exit" stroke="none" stroke-width="1" fill="none" fill-rule="evenodd"><path d="M285.61 8h-160a8 8 0 0 0-8 8v139.5H31a4 4 0 1 0 0 8h86.61V304a8 8 0 0 0 8 8h160a8 8 0 0 0 8-8V16a8 8 0 0 0-8-8Zm0 296h-160V163.5h106.45l-48.87 45.38a4.001 4.001 0 0 0 5.45 5.86l56-52a4 4 0 0 0 0-5.86l-56-52a4.001 4.001 0 0 0-5.45 5.86l48.21 44.76H125.61V16h160v288Z" id="Outlines" fill="#000"/></g></svg>