<svg width="320" height="320" viewBox="0 0 320 320" xmlns="http://www.w3.org/2000/svg"><g id="Foundations/Icons/Brand-Icons/Communication/13-eye" stroke="none" stroke-width="1" fill="none" fill-rule="evenodd"><circle id="lg-icon-fill-primary" fill="#FFD500" cx="160" cy="164" r="56"/><path d="M60 188a4 4 0 1 1 0 8 4 4 0 0 1 0-8Zm200 0a4 4 0 1 1 0 8 4 4 0 0 1 0-8ZM44 172a4 4 0 1 1 0 8 4 4 0 0 1 0-8Zm232 0a4 4 0 1 1 0 8 4 4 0 0 1 0-8ZM28 156a4 4 0 1 1 0 8 4 4 0 0 1 0-8Zm32 0a4 4 0 1 1 0 8 4 4 0 0 1 0-8Zm232 0a4 4 0 1 1 0 8 4 4 0 0 1 0-8Zm-32 0a4 4 0 1 1 0 8 4 4 0 0 1 0-8ZM44 140a4 4 0 1 1 0 8 4 4 0 0 1 0-8Zm232 0a4 4 0 1 1 0 8 4 4 0 0 1 0-8ZM60 124a4 4 0 1 1 0 8 4 4 0 0 1 0-8Zm200 0a4 4 0 1 1 0 8 4 4 0 0 1 0-8Z" id="Half-tone" fill="#000"/><path d="M160 60c84 0 160 100 160 100s-76.05 100-160 100S0 160 0 160 76.05 60 160 60Zm0 8c-17.86 0-36.94 5-56.71 14.72-16.14 7.97-32.74 19.13-49.35 33.18A363.42 363.42 0 0 0 10.27 160a363.42 363.42 0 0 0 43.67 44.1c16.61 14.05 33.21 25.18 49.35 33.18C123.06 247.05 142.14 252 160 252s36.94-4.95 56.71-14.72c16.14-7.97 32.74-19.13 49.35-33.18a363.42 363.42 0 0 0 43.67-44.1 363.42 363.42 0 0 0-43.67-44.1c-16.61-14.05-33.21-25.18-49.35-33.18C196.94 73 177.86 68 160 68Zm0 32a64 64 0 0 1 64 64c0 35.346-28.654 64-64 64-35.346 0-64-28.654-64-64 0-35.346 28.654-64 64-64Zm0 8c-30.928 0-56 25.072-56 56s25.072 56 56 56c30.914-.033 55.967-25.086 56-56 0-30.928-25.072-56-56-56Z" id="Outlines" fill="#000"/></g></svg>