<svg width="320" height="320" viewBox="0 0 320 320" xmlns="http://www.w3.org/2000/svg"><g id="Foundations/Icons/Brand-Icons/Cities/02-Factory" stroke="none" stroke-width="1" fill="none" fill-rule="evenodd"><path id="lg-icon-fill-primary" fill="#FFD500" d="M256 128h48v176h-48z"/><path d="M292 288a4 4 0 1 1 0 8 4 4 0 0 1 0-8Zm-16-16a4 4 0 1 1 0 8 4 4 0 0 1 0-8Zm16-16a4 4 0 1 1 0 8 4 4 0 0 1 0-8Zm-16-16a4 4 0 1 1 0 8 4 4 0 0 1 0-8Zm16-16a4 4 0 1 1 0 8 4 4 0 0 1 0-8Zm-16-16 .2.005a4 4 0 1 1-.4 0l.2-.005Zm16-16 .2.005a4 4 0 1 1-.4 0l.2-.005Zm-16-16a4 4 0 1 1 0 8 4 4 0 0 1 0-8Zm16-16a4 4 0 1 1 0 8 4 4 0 0 1 0-8Zm-16-16a4 4 0 1 1 0 8 4 4 0 0 1 0-8Z" id="Half-tone" fill="#000"/><path d="M304 120a8 8 0 0 1 8 8v176a8 8 0 0 1-8 8H16a8 8 0 0 1-8-8V152a8 8 0 0 1 11.58-7.16L88 179.06V152a8 8 0 0 1 11.58-7.16L168 179.06V152a8 8 0 0 1 11.89-7L248 182.85V128a8 8 0 0 1 8-8Zm-128 32v40l-80-40v40l-80-40v152h232V192l-72-40Zm128-24h-48v176h48V128ZM36 256a4 4 0 0 1 3.995 3.8l.005.2v16a4 4 0 0 1-7.995.2L32 276v-16a4 4 0 0 1 4-4Zm32 0a4 4 0 0 1 3.995 3.8l.005.2v16a4 4 0 0 1-7.995.2L64 276v-16a4 4 0 0 1 4-4Zm32 0a4 4 0 0 1 3.995 3.8l.005.2v16a4 4 0 0 1-7.995.2L96 276v-16a4 4 0 0 1 4-4Zm32 0a4 4 0 0 1 3.995 3.8l.005.2v16a4 4 0 0 1-7.995.2L128 276v-16a4 4 0 0 1 4-4Zm32 0a4 4 0 0 1 3.995 3.8l.005.2v16a4 4 0 0 1-7.995.2L160 276v-16a4 4 0 0 1 4-4Zm32 0a4 4 0 0 1 3.995 3.8l.005.2v16a4 4 0 0 1-7.995.2L192 276v-16a4 4 0 0 1 4-4Zm32 0a4 4 0 0 1 3.995 3.8l.005.2v16a4 4 0 0 1-7.995.2L224 276v-16a4 4 0 0 1 4-4ZM36 216a4 4 0 0 1 3.995 3.8l.005.2v16a4 4 0 0 1-7.995.2L32 236v-16a4 4 0 0 1 4-4Zm32 0a4 4 0 0 1 3.995 3.8l.005.2v16a4 4 0 0 1-7.995.2L64 236v-16a4 4 0 0 1 4-4Zm32 0a4 4 0 0 1 3.995 3.8l.005.2v16a4 4 0 0 1-7.995.2L96 236v-16a4 4 0 0 1 4-4Zm32 0a4 4 0 0 1 3.995 3.8l.005.2v16a4 4 0 0 1-7.995.2L128 236v-16a4 4 0 0 1 4-4Zm32 0a4 4 0 0 1 3.995 3.8l.005.2v16a4 4 0 0 1-7.995.2L160 236v-16a4 4 0 0 1 4-4Zm32 0a4 4 0 0 1 3.995 3.8l.005.2v16a4 4 0 0 1-7.995.2L192 236v-16a4 4 0 0 1 4-4Zm32 0a4 4 0 0 1 3.995 3.8l.005.2v16a4 4 0 0 1-7.995.2L224 236v-16a4 4 0 0 1 4-4Zm48-144c11.046 0 20 8.954 20 20s-8.954 20-20 20-20-8.954-20-20 8.954-20 20-20Zm0 8c-6.627 0-12 5.373-12 12s5.373 12 12 12 12-5.373 12-12-5.373-12-12-12ZM220 8c19.882 0 36 16.118 36 36s-16.118 36-36 36-36-16.118-36-36 16.118-36 36-36Zm0 8c-15.464 0-28 12.536-28 28s12.536 28 28 28 28-12.536 28-28-12.536-28-28-28Z" id="Outlines" fill="#000"/></g></svg>