<svg xmlns="http://www.w3.org/2000/svg" width="320" height="320" viewBox="0 0 320 320"><g id="Foundations/Icons/Brand-Icons/People/01-female" fill="none" fill-rule="evenodd" stroke="none" stroke-width="1"><path id="lg-icon-fill-primary" fill="#FFD500" d="M263.637 312H56.257c-.2-18.79-.63-65.63.09-79.59.38-7.47.94-10.9 5-14.8 5.62-5.38 17.47-10.92 37.18-17.39l58.6 58.61a4 4 0 0 0 5.66 0l58.6-58.61c19.71 6.47 31.56 12 37.18 17.39 4.05 3.9 4.61 7.33 5 14.8.7 13.96.27 60.8.07 79.59Z"/><path id="Half-tone" fill="#000" d="M204 256a4 4 0 1 1 0 8 4 4 0 0 1 0-8Zm32 0a4 4 0 1 1 0 8 4 4 0 0 1 0-8Zm-16-16a4 4 0 1 1 0 8 4 4 0 0 1 0-8Zm32 0a4 4 0 1 1 0 8 4 4 0 0 1 0-8Zm-16-16a4 4 0 1 1 0 8 4 4 0 0 1 0-8Z"/><path id="Outlines" fill="#000" d="M271.537 232a49.34 49.34 0 0 0-1.12-9.45 23.49 23.49 0 0 0-.76-2.47 20.4 20.4 0 0 0-3-5.34l-.46-.59c-.32-.38-.65-.77-1-1.15-2.86-3.09-7.07-6.13-13.33-9.33-.79-.4-1.6-.81-2.45-1.21-.85-.4-1.73-.81-2.65-1.23-.92-.42-1.82-.82-2.82-1.23-3-1.25-6.25-2.54-9.9-3.87l1.9.7V74.31c-.62-41.14-34.39-74.31-76-74.31a76.978 76.978 0 0 0-22.41 3.33c-2.36.72-4.67 1.56-6.93 2.5-1.13.47-2.24 1-3.34 1.48-2.2 1-4.34 2.19-6.42 3.43a76.11 76.11 0 0 0-23.55 22c-1.367 2-2.64 4.043-3.82 6.13a74.11 74.11 0 0 0-6.89 16.86 73.24 73.24 0 0 0-1.59 7.27 74.46 74.46 0 0 0-1 11.34v122.48l1.9-.7c-3.7 1.33-6.95 2.62-9.95 3.88-1 .42-1.94.83-2.85 1.24-9.15 4.11-14.86 7.9-18.43 11.76-.36.38-.69.77-1 1.15a20.8 20.8 0 0 0-3.42 5.93 23.49 23.49 0 0 0-.76 2.47 49.34 49.34 0 0 0-1.13 9.45c0 .84-.08 1.8-.12 2.86 0 .7 0 1.46-.06 2.25-.07 2.38-.11 5.13-.15 8.15v3.11c0 6.4-.06 13.74 0 21.25v33.59c.1 10 .19 16.79.19 16.79h223.32s.92-70 0-88ZM91.947 74.43a66.73 66.73 0 0 1 20.2-47c26.572-25.921 68.968-25.921 95.54 0a66.73 66.73 0 0 1 20.2 47V194l-1.69-.57c-1.38-.47-2.81-.94-4.27-1.41 0 0-26.91-6.52-32.15-31.32l.45-.22.46-.22.6-.29.47-.24.58-.3.46-.25.57-.32.46-.27.55-.33.45-.28.55-.35.44-.29.53-.36.42-.3.53-.39.41-.31.52-.42c.13-.1.26-.2.38-.31l.53-.45.35-.31.55-.52.29-.27c.25-.24.5-.49.74-.75l.07-.07c.27-.28.52-.56.77-.86.09-.09.16-.19.24-.28.08-.09.34-.4.5-.61l.27-.36c.15-.18.29-.37.43-.56l.27-.4c.13-.19.26-.37.38-.56l.27-.43c.12-.19.23-.38.34-.57l.26-.45c.1-.2.21-.39.31-.58l.24-.48c.09-.2.18-.39.28-.59l.21-.5c.09-.2.17-.41.25-.62.08-.21.14-.33.2-.51s.15-.42.22-.64c.07-.22.12-.35.17-.52.05-.17.13-.44.2-.67.07-.23.1-.36.14-.54.04-.18.11-.46.16-.7.05-.24.09-.36.12-.54.03-.18.09-.49.13-.74.04-.25.07-.36.1-.55l.09-.79c0-.18 0-.35.07-.53.07-.18 0-.61.06-.91.06-.3 0-.31 0-.46V66.52a12.09 12.09 0 0 0-.07-1.21c0-.12 0-.25-.05-.38s-.08-.52-.13-.78-.07-.28-.1-.42c-.03-.14-.13-.47-.2-.69-.07-.22-.09-.28-.15-.42-.06-.14-.17-.44-.26-.65-.09-.21-.11-.26-.17-.38-.06-.12-.24-.46-.37-.68l-.17-.28a9.16 9.16 0 0 0-.61-.88c0-.05-.09-.1-.13-.16-.19-.22-.37-.44-.57-.64l-.27-.27c-.17-.15-.33-.31-.51-.45l-.32-.26-.52-.38-.35-.22a6.55 6.55 0 0 0-.58-.32 3.65 3.65 0 0 0-.34-.18c-.23-.11-.48-.21-.72-.3l-.24-.09a8.52 8.52 0 0 0-1-.27h-.27l-.77-.11h-1.33a8.49 8.49 0 0 0-1 .11h-.19a10.05 10.05 0 0 0-1.05.26l-1.43.53-.52.16-1.16.34-.69.2-1.08.31-.78.21-1.07.29-.85.22-1.08.27-.9.21-1.11.26-.95.21-1.14.24-1 .2-1.17.22-1 .18c-.4.08-.81.14-1.22.21l-1.05.17-1.26.18-1.09.15-1.3.16-1.11.12-1.36.13-1.12.11-1.41.1-1.14.07-1.49.07h-11.88l-1.5-.07-1.12-.07-1.42-.1-1.12-.1-1.37-.14-1.08-.12-1.33-.16-1.02-.23-1.29-.18-1-.17-1.25-.21-1-.18-1.21-.23-1-.19-1.18-.25-.91-.2-1.15-.26-.87-.21-1.11-.28-.83-.21-1.08-.29-.77-.21-1.09-.31-.68-.2-1.15-.34-.54-.08-1.59-.5a10.05 10.05 0 0 0-1.05-.26h-.19a8.49 8.49 0 0 0-1-.11h-1.33l-.77.11h-.26a8.85 8.85 0 0 0-1 .27l-.22.09c-.25.09-.49.19-.74.3l-.32.17c-.2.1-.4.21-.59.33l-.34.22-.53.38-.32.25c-.18.15-.35.31-.51.47l-.24.28c-.21.22-.4.44-.59.67l-.12.14c-.22.28-.42.58-.62.88l-.15.27c-.13.23-.26.46-.38.69-.12.23-.11.25-.17.37l-.27.66-.14.42c-.07.22-.14.46-.2.69-.06.23-.07.28-.1.42-.03.14-.09.52-.13.79-.04.27 0 .25-.05.37a12.09 12.09 0 0 0-.07 1.21v70.87c0 .16 0 .61.06.91.06.3 0 .35.07.53l.09.79c0 .19.06.37.1.55.04.18.08.5.13.74s.08.36.12.54c.04.18.1.47.16.7.06.23.09.36.14.54.05.18.13.45.2.67.07.22.11.35.17.52.06.17.14.43.22.64.08.21.13.35.2.51.07.16.16.42.25.62l.21.5c.1.2.19.39.28.59l.24.48c.1.19.21.38.31.58l.26.45c.11.19.22.38.34.57l.27.43c.12.19.25.37.38.56l.27.4c.14.19.28.38.43.56l.27.36c.16.21.33.41.5.61.17.2.15.19.24.28.25.3.5.58.77.86l.07.07c.24.26.49.51.74.75l.29.27.55.52.35.31.53.45c.12.11.25.21.38.31l.52.42.41.31.53.39.42.3.53.36.44.29.55.35.45.28.55.33.46.27.57.32.46.25.58.3.47.24.6.29.46.22.45.22c-5.18 24.72-32.05 31.24-32.05 31.24-1.46.47-2.89.94-4.27 1.41l-1.73.59V74.43Zm91.22 80.33a79.22 79.22 0 0 1-23.22 4.24 79.22 79.22 0 0 1-23.25-4.23c-16.75-6.17-16.75-16.03-16.75-19.27v-69c0-1.67 1.08-2.51 1.68-2.51a1.32 1.32 0 0 1 .32 0 117.19 117.19 0 0 0 36 6h4a117.19 117.19 0 0 0 36-6 1.32 1.32 0 0 1 .32 0c.6 0 1.68.84 1.68 2.51v69c0 3.24 0 13.1-16.75 19.26h-.03Zm-45.57 8.74-.37-.11.47.14.63.18.49.14.61.17.49.13.6.16.49.12.6.15.48.11.6.14.47.1.6.13.46.1.59.12.45.09.6.11.42.08.61.1.4.07.64.11h.34l.74.12h.22l.94.14h.06l.85.12h.28l.59.07h.36l.49.06h14.26l.49-.06h.35l.6-.07h.28l.85-.12h.06l.94-.14h.21l.75-.12h.33l.65-.11.4-.06.61-.11.42-.08.6-.11.45-.09.59-.12.46-.1.6-.13.47-.1.6-.14.48-.11.6-.15.49-.12.61-.16.48-.13.62-.17.48-.14.63-.18.47-.14-.37.11c2.57 10.75 8.82 19.95 18.49 27a62.07 62.07 0 0 0 12.2 6.81l-53 53-53-53a62.07 62.07 0 0 0 12.22-6.84c9.64-7.02 15.89-16.22 18.46-26.97h-.03Zm126 148.5H56.257c-.2-18.79-.63-65.63.09-79.59.38-7.47.94-10.9 5-14.8 5.62-5.38 17.47-10.92 37.18-17.39l58.6 58.61a4 4 0 0 0 5.66 0l58.6-58.61c19.71 6.47 31.56 12 37.18 17.39 4.05 3.9 4.61 7.33 5 14.8.7 13.96.27 60.8.07 79.59h-.04Z"/></g></svg>