<svg xmlns="http://www.w3.org/2000/svg" width="320" height="320" viewBox="0 0 320 320"><g id="Foundations/Icons/Brand-Icons/House-and-Home/03-fence" fill="none" fill-rule="evenodd" stroke="none" stroke-width="1"><path id="lg-icon-fill-primary" fill="#FFD500" d="M92 183.355v120.66H20a.14.14 0 0 1 0-.11v-240a.24.24 0 0 1 0-.11l36-39.78c8.7 9.55 29.48 32.35 36 39.67a.2.2 0 0 1 0 .11v119.56Zm104 0v120.66h-72a.14.14 0 0 1 0-.11v-240a.24.24 0 0 1 0-.11l36-39.78c8.67 9.51 29.45 32.31 35.94 39.63a.2.2 0 0 1 0 .11l.06 119.6Zm104 0v120.66h-72a.14.14 0 0 1 0-.11v-240a.24.24 0 0 1 0-.11l36-39.78c8.67 9.51 29.45 32.31 35.94 39.63a.2.2 0 0 1 0 .11l.06 119.6Z"/><path id="Half-tone" fill="#000" d="M32.03 288.015a4 4 0 1 1 0 8 4 4 0 0 1 0-8Zm104 0a4 4 0 1 1 0 8 4 4 0 0 1 0-8Zm104 0a4 4 0 1 1 0 8 4 4 0 0 1 0-8Zm-88-16a4 4 0 1 1 0 8 4 4 0 0 1 0-8Zm104 0a4 4 0 1 1 0 8 4 4 0 0 1 0-8Zm-208 0a4 4 0 1 1 0 8 4 4 0 0 1 0-8Zm-16-16 .2.005a4 4 0 1 1-.2-.005Zm104 0 .2.005a4 4 0 1 1-.2-.005Zm104 0 .2.005a4 4 0 1 1-.2-.005Zm-192-16a4 4 0 1 1 0 8 4 4 0 0 1 0-8Zm104 0a4 4 0 1 1 0 8 4 4 0 0 1 0-8Zm104 0a4 4 0 1 1 0 8 4 4 0 0 1 0-8Zm-224-16 .2.005a4 4 0 1 1-.2-.005Zm104 0 .2.005a4 4 0 1 1-.2-.005Zm104 0 .2.005a4 4 0 1 1-.2-.005Zm-192-16a4 4 0 1 1 0 8 4 4 0 0 1 0-8Zm104 0a4 4 0 1 1 0 8 4 4 0 0 1 0-8Zm104 0a4 4 0 1 1 0 8 4 4 0 0 1 0-8Zm-224-16 .2.005a4 4 0 1 1-.2-.005Zm104 0 .2.005a4 4 0 1 1-.2-.005Zm104 0 .2.005a4 4 0 1 1-.2-.005Zm-192-16a4 4 0 1 1 0 8 4 4 0 0 1 0-8Zm104 0a4 4 0 1 1 0 8 4 4 0 0 1 0-8Zm104 0a4 4 0 1 1 0 8 4 4 0 0 1 0-8Zm-224-16 .2.005a4 4 0 1 1-.2-.005Zm104 0 .2.005a4 4 0 1 1-.2-.005Zm104 0 .2.005a4 4 0 1 1-.2-.005Zm-192-16a4 4 0 1 1 0 8 4 4 0 0 1 0-8Zm104 0a4 4 0 1 1 0 8 4 4 0 0 1 0-8Zm104 0a4 4 0 1 1 0 8 4 4 0 0 1 0-8Zm-120-16a4 4 0 1 1 0 8 4 4 0 0 1 0-8Zm104 0a4 4 0 1 1 0 8 4 4 0 0 1 0-8Zm-208 0a4 4 0 1 1 0 8 4 4 0 0 1 0-8Zm16-16a4 4 0 1 1 0 8 4 4 0 0 1 0-8Zm104 0a4 4 0 1 1 0 8 4 4 0 0 1 0-8Zm104 0a4 4 0 1 1 0 8 4 4 0 0 1 0-8Zm-224-16a4 4 0 1 1 0 8 4 4 0 0 1 0-8Zm104 0a4 4 0 1 1 0 8 4 4 0 0 1 0-8Zm104 0a4 4 0 1 1 0 8 4 4 0 0 1 0-8Zm-192-16a4 4 0 1 1 0 8 4 4 0 0 1 0-8Zm104 0a4 4 0 1 1 0 8 4 4 0 0 1 0-8Zm104 0a4 4 0 1 1 0 8 4 4 0 0 1 0-8Zm-224-16a4 4 0 1 1 0 8 4 4 0 0 1 0-8Zm104 0a4 4 0 1 1 0 8 4 4 0 0 1 0-8Zm104 0a4 4 0 1 1 0 8 4 4 0 0 1 0-8Z"/><path id="Outlines" fill="#000" d="M306 58.385c-6.39-7.21-26.1-28.84-36.06-39.77a7.93 7.93 0 0 0-11.77 0l-36 39.81a8.19 8.19 0 0 0-2.1 5.48v48.11H204v-48.22a8.19 8.19 0 0 0-2-5.41c-6.39-7.21-26.1-28.84-36.06-39.77a7.93 7.93 0 0 0-11.77 0l-36 39.81a8.19 8.19 0 0 0-2.1 5.48v48.11H100v-48.22a8.19 8.19 0 0 0-2-5.41c-6.43-7.21-26.14-28.84-36.1-39.77a7.93 7.93 0 0 0-11.77 0l-36 39.81a8.19 8.19 0 0 0-2.13 5.51v240c0 2.143.84 4.2 2.34 5.73a7.996 7.996 0 0 0 5.66 2.35h72a8 8 0 0 0 5.66-2.37 8.18 8.18 0 0 0 2.34-5.73v-31.9h16v31.9c0 2.143.84 4.2 2.34 5.73a8 8 0 0 0 5.66 2.37h72a8 8 0 0 0 5.66-2.37 8.18 8.18 0 0 0 2.34-5.73v-31.9h16v31.9c0 2.143.84 4.2 2.34 5.73a8 8 0 0 0 5.66 2.37h72a8 8 0 0 0 5.66-2.37 8.183 8.183 0 0 0 2.34-5.73V63.795a8.19 8.19 0 0 0-2-5.41Zm-214 125v120.63H20a.14.14 0 0 1 0-.11v-240a.24.24 0 0 1 0-.11l36-39.78c8.7 9.55 29.48 32.35 36 39.67a.2.2 0 0 1 0 .11v119.59Zm24-63.37v32h-16v-32h16Zm0 104h-16v-64h16v64Zm-16 40v-32h16v32h-16Zm120-144v32h-16v-32h16Zm0 104h-16v-64h16v64Zm-24-40.66v120.66h-72a.14.14 0 0 1 0-.11v-240a.24.24 0 0 1 0-.11l36-39.78c8.67 9.51 29.45 32.31 35.94 39.63a.2.2 0 0 1 0 .11l.06 119.6Zm8 80.66v-32h16v32h-16Zm96-80.66v120.66h-72a.14.14 0 0 1 0-.11v-240a.24.24 0 0 1 0-.11l36-39.78c8.67 9.51 29.45 32.31 35.94 39.63a.2.2 0 0 1 0 .11l.06 119.6Z"/></g></svg>