<svg xmlns="http://www.w3.org/2000/svg" width="320" height="320" viewBox="0 0 320 320"><g id="Foundations/Icons/Brand-Icons/Online/03-15-minutes" fill="none" fill-rule="evenodd" stroke="none" stroke-width="1"><path id="lg-icon-fill-primary" fill="#FFD500" d="M247.914 180.22a4.07 4.07 0 0 0-1.26-.22h-82.65V97.35a4.07 4.07 0 0 0-.22-1.26c45.604 2.013 82.117 38.526 84.13 84.13Z"/><path id="Half-tone" fill="#000" d="M196.004 160a4 4 0 1 1 0 8 4 4 0 0 1 0-8Zm32 0a4 4 0 1 1 0 8 4 4 0 0 1 0-8Zm-48-16a4 4 0 1 1 0 8 4 4 0 0 1 0-8Zm32 0a4 4 0 1 1 0 8 4 4 0 0 1 0-8Zm-16-16a4 4 0 1 1 0 8 4 4 0 0 1 0-8Zm-16-16a4 4 0 1 1 0 8 4 4 0 0 1 0-8Z"/><path id="Outlines" fill="#000" d="M215.704 8a8.31 8.31 0 0 1 8.3 8.3v15.4a8.31 8.31 0 0 1-8.3 8.3h-39.7v17c67.05 8.448 115.98 67.564 111.748 135.012-4.232 67.447-60.168 119.984-127.748 119.984-67.58 0-123.517-52.537-127.75-119.984C28.024 124.564 76.955 65.448 144.005 57V40h-39.7a8.31 8.31 0 0 1-8.3-8.3V16.3a8.31 8.31 0 0 1 8.3-8.3ZM183.42 66.301C127.27 55.13 71.05 85.178 49.14 138.068c-21.91 52.89-3.408 113.893 44.192 145.7 47.6 31.808 111.04 25.562 151.522-14.918a119.192 119.192 0 0 0 35.15-84.85c0-57.25-40.436-106.528-96.584-117.699ZM160.004 88c53.019 0 96 42.98 96 96s-42.981 96-96 96c-53.02 0-96-42.98-96-96s42.98-96 96-96Zm-3.78 8.09c-47.74 2.158-85.032 42.023-84.006 89.8 1.027 47.779 39.997 86.005 87.786 86.11 47.107-.056 85.835-37.159 87.91-84.22a4.07 4.07 0 0 1-1.26.22h-90.65V97.35a4.07 4.07 0 0 1 .22-1.26Zm7.56 0c.139.406.213.831.22 1.26V180h82.65c.429.006.854.08 1.26.22-2.013-45.604-38.526-82.117-84.13-84.13Zm4.22-56.09h-16v16h16V40Zm47.7-23.7h-111.4v15.4h111.4V16.3Z"/></g></svg>