<svg width="320" height="320" viewBox="0 0 320 320" xmlns="http://www.w3.org/2000/svg"><g id="Foundations/Icons/Brand-Icons/UI/Financial/04-financial-settings" stroke="none" stroke-width="1" fill="none" fill-rule="evenodd"><circle id="lg-icon-fill-primary" fill="#FFD500" cx="160" cy="160" r="68"/><path d="M168.84 16a8 8 0 0 1 7.95 7.117l2.042 18.352a119.15 119.15 0 0 1 24.136 6.453L213.9 33.06a7.994 7.994 0 0 1 6.193-3.256l.255-.004c1.363 0 2.74.348 3.996 1.073l15.31 8.84a8 8 0 0 1 3.328 10.138l-7.416 16.926a120.726 120.726 0 0 1 17.656 17.656l16.926-7.416a7.979 7.979 0 0 1 2.999-.67l.252-.003a8 8 0 0 1 6.888 4l8.84 15.311a8 8 0 0 1-2.188 10.444l-14.862 10.933a119.149 119.149 0 0 1 6.453 24.137l18.352 2.04A8 8 0 0 1 304 151.16v17.68a8 8 0 0 1-7.117 7.95l-18.352 2.042a119.15 119.15 0 0 1-6.453 24.136L286.94 213.9a8 8 0 0 1 2.187 10.444l-8.84 15.31a8 8 0 0 1-6.636 3.996l-.251.005a7.976 7.976 0 0 1-3.25-.673l-16.927-7.416a120.726 120.726 0 0 1-17.656 17.656l7.416 16.926a8 8 0 0 1-3.328 10.139l-15.31 8.84a7.972 7.972 0 0 1-3.74 1.068l-.256.004a7.996 7.996 0 0 1-6.448-3.26l-10.933-14.862a119.15 119.15 0 0 1-24.136 6.453l-2.041 18.352A8 8 0 0 1 168.84 304h-17.68a8 8 0 0 1-7.95-7.117l-2.04-18.352a119.157 119.157 0 0 1-23.036-6.036l-1.102-.417L106.1 286.94a7.994 7.994 0 0 1-6.193 3.256l-.255.004a7.972 7.972 0 0 1-3.996-1.073l-15.31-8.84a8 8 0 0 1-3.328-10.138l7.416-16.926a120.728 120.728 0 0 1-16.9-16.735l-.756-.921-16.926 7.416a7.979 7.979 0 0 1-2.999.67l-.252.003a8 8 0 0 1-6.888-4l-8.84-15.311A8 8 0 0 1 33.06 213.9l14.862-10.933a119.15 119.15 0 0 1-6.453-24.136l-18.352-2.041A8 8 0 0 1 16 168.84v-17.68a8 8 0 0 1 7.117-7.95l18.352-2.04a119.15 119.15 0 0 1 6.453-24.138L33.06 106.1a8 8 0 0 1-2.187-10.444l8.84-15.31a8 8 0 0 1 6.636-3.996l.251-.005a7.976 7.976 0 0 1 3.25.673l16.927 7.416a120.726 120.726 0 0 1 17.656-17.656L77.017 49.85a8 8 0 0 1 3.328-10.139l15.31-8.84a7.972 7.972 0 0 1 3.74-1.068l.256-.004a7.996 7.996 0 0 1 6.448 3.26l10.933 14.862a119.15 119.15 0 0 1 24.137-6.453l2.04-18.352A8 8 0 0 1 151.16 16h17.68Zm-.001 8H151.16l-2.714 24.42-6.031.951a111.156 111.156 0 0 0-21.428 5.609l-1.09.41-5.694 2.186L99.655 37.8l-15.31 8.84 9.861 22.507-4.731 3.84A112.729 112.729 0 0 0 73.729 88.57l-.74.904-3.841 4.731-22.508-9.861-8.84 15.31 19.776 14.548-2.185 5.695a111.128 111.128 0 0 0-5.83 21.359l-.19 1.158-.95 6.031L24 151.16v17.68l24.421 2.715.95 6.031a111.155 111.155 0 0 0 5.609 21.427l.41 1.09 2.186 5.694L37.8 220.345l8.84 15.31 22.507-9.861 3.84 4.731a112.728 112.728 0 0 0 15.583 15.746l.904.74 4.731 3.841-9.861 22.508 15.31 8.84 14.548-19.776 5.695 2.185a111.128 111.128 0 0 0 21.359 5.83l1.158.19 6.031.95L151.16 296h17.68l2.715-24.421 6.031-.95a111.156 111.156 0 0 0 21.427-5.609l1.09-.41 5.694-2.186 14.548 19.775 15.31-8.84-9.861-22.507 4.731-3.84a112.728 112.728 0 0 0 15.746-15.583l.74-.904 3.841-4.731 22.508 9.861 8.84-15.31-19.776-14.548 2.185-5.695a111.128 111.128 0 0 0 5.83-21.358l.19-1.158.95-6.03L296 168.84v-17.68l-24.42-2.714-.951-6.031a111.156 111.156 0 0 0-5.609-21.428l-.41-1.09-2.186-5.694L282.2 99.655l-8.84-15.31-22.507 9.861-3.84-4.731a112.729 112.729 0 0 0-15.583-15.746l-.904-.74-4.731-3.841 9.861-22.508-15.31-8.84-14.548 19.776-5.695-2.185a111.128 111.128 0 0 0-21.358-5.83l-1.158-.19-6.03-.95L168.838 24ZM160 64c53.02 0 96 42.98 96 96s-42.98 96-96 96-96-42.98-96-96 42.98-96 96-96Zm0 8c-48.601 0-88 39.399-88 88s39.399 88 88 88 88-39.399 88-88-39.399-88-88-88Zm0 16c39.765 0 72 32.235 72 72s-32.235 72-72 72-72-32.235-72-72 32.235-72 72-72Zm0 8c-35.346 0-64 28.654-64 64 0 35.346 28.654 64 64 64 35.346 0 64-28.654 64-64 0-35.346-28.654-64-64-64Zm3.65 24c5.833 0 10.525 1.798 13.96 5.355 3.428 3.552 5.17 8.335 5.17 14.223 0 .753-.6 1.374-1.328 1.374h-5.573c-.733 0-1.327-.62-1.327-1.374 0-3.838-1.014-6.817-3.01-8.863-2.027-2.078-4.74-3.084-8.307-3.084-3.386 0-6.003 1.193-7.994 3.662-2.017 2.507-3.041 6.058-3.041 10.561l.366 14.255h14.107c.733 0 1.327.615 1.327 1.374v5.165c0 .754-.594 1.375-1.327 1.375h-13.884l.361 9.29c.048 4.503-.597 7.828-1.908 10.687h31.424c.732 0 1.327.616 1.327 1.374l.007 5.252c0 .753-.594 1.374-1.327 1.374h-45.339c-.732 0-1.327-.496-1.327-1.249L136 185.5c0-.759.768-1.5 1.5-1.5h4.443c.966-.297 1.77-1.979 2.215-3.639.568-2.172.823-4.503.765-6.922l-.367-9.416h-7.229c-.733 0-1.327-.621-1.327-1.375v-5.165c0-.759.594-1.374 1.327-1.374h6.97l-.367-14.189c0-6.625 1.805-11.969 5.356-15.922 3.588-3.98 8.418-5.998 14.363-5.998Z" id="Outlines" fill="#000"/></g></svg>