<svg width="320" height="320" viewBox="0 0 320 320" xmlns="http://www.w3.org/2000/svg"><g id="Foundations/Icons/Brand-Icons/Hazards/06-fire" stroke="none" stroke-width="1" fill="none" fill-rule="evenodd"><path d="M160.648 124.13c12.122 14.74 39.228 51.44 39.228 84.8 0 15.11-4.397 29.22-12.392 39.75l-.323.422c1.762-5.026 2.746-10.622 2.746-16.522 0-29-29.448-60.58-29.448-60.58s-30.366 31.58-30.366 60.58c0 5.9.984 11.496 2.746 16.522-.108-.14-.216-.28-.323-.422-7.995-10.53-12.392-24.68-12.392-39.75 0-33.3 28.063-70.11 40.524-84.8Z" id="lg-icon-fill-primary" fill="#FFD500"/><path d="M160 12a7.971 7.971 0 0 1 7.028 4.22l152.026 284a8.022 8.022 0 0 1-.186 7.888 7.97 7.97 0 0 1-6.842 3.892H7.974a7.97 7.97 0 0 1-6.842-3.892 8.022 8.022 0 0 1-.186-7.888l152.076-284A7.972 7.972 0 0 1 160 12Zm0 8L7.974 304h304.052L160 20Zm.738 92 .055.06c1.81 1.96 47.058 51.398 47.058 96.87 0 34.83-21.423 63.07-47.851 63.07s-47.85-28.24-47.85-63.07c0-46.4 48.588-96.93 48.588-96.93Zm-.35 72.29a144.688 144.688 0 0 0-8.612 11.77c-8.962 13.67-13.708 26.3-13.708 36.52 0 17.03 10.04 31.42 21.932 31.42 11.893 0 21.932-14.46 21.932-31.42s-12.571-36.85-21.543-48.29Zm.26-60.16c-12.461 14.69-40.524 51.5-40.524 84.8 0 15.07 4.397 29.22 12.392 39.75.107.141.214.282.322.421-1.762-5.025-2.745-10.622-2.745-16.521 0-29 30.366-60.58 30.366-60.58s29.448 31.58 29.448 60.58c0 5.9-.984 11.496-2.746 16.522l.323-.422c7.995-10.53 12.392-24.64 12.392-39.75 0-33.36-27.106-70.06-39.228-84.8Z" id="Outlines" fill="#000"/></g></svg>