<svg xmlns="http://www.w3.org/2000/svg" width="320" height="320" fill="none" viewBox="0 0 320 320"><path fill="#FFD500" fill-rule="evenodd" d="M244.001 116v29.397c-5.039-5.686-10.086-10.825-14.804-15.081l-.727-.651-.36-.318-1.065-.927-.697-.594-.685-.575-.673-.555-.66-.535-.647-.514-.633-.494-.618-.473-.603-.453-.586-.43-.57-.41-.553-.387-.269-.185-.525-.354-.506-.331-.487-.309-.466-.285-.445-.262-.424-.239-.401-.214a8.786 8.786 0 0 0-.192-.098l-.366-.178-.343-.154-.318-.128-.292-.103a3.053 3.053 0 0 0-.72-.157l-.096-.003h-60.466c-1.19 0-3.058.777-5.415 2.199l-.654.404-.336.214-.69.45-.353.237-.723.496-.743.526-.764.554-.782.583-.801.611-.819.638-.416.329-.843.678-.858.703-.874.728-.442.374-.893.765-.906.789-.457.403-.923.823-.934.845-.47.43-.947.877-.477.447-.959.907-.483.462-.969.937c-.162.158-.325.316-.487.476l-.978.965-.982.983-.986 1.001-.988 1.017-.99 1.033-.992 1.049-.991 1.064-.991 1.079-.495.544-.988 1.099-.494.554-.983 1.118-.98 1.129-.975 1.141-.97 1.152-.962 1.162-.479.585-.951 1.176C98.509 174.063 87.855 193.44 83.015 212H52v-96h192.001Zm-61.093-43.474 1.129-.526 2.761 1.283 2.545 1.17 1.89.855 1.767.786 1.651.719 1.543.653 1.442.59.684.27.662.256.953.355.608.218.877.299.561.182.543.167.527.154.258.072.503.133.246.061.482.113.469.1.456.087.224.039.44.068.429.056.211.023.416.038.205.014.404.02.398.009h.196l.389-.009.385-.02.381-.03.189-.019.377-.046c.063-.008.126-.017.188-.027l.375-.061.376-.072c.062-.012.125-.025.187-.039l.377-.086.379-.095.381-.105.385-.113.39-.123.396-.13.454-.159.497-.184c.245-.095.487-.193.726-.296l.478-.213.477-.229.24-.121.484-.258c.081-.044.163-.09.245-.137l.501-.292.255-.156.526-.333.548-.364.575-.396.298-.21.622-.451.658-.49.699-.532.744-.576.039.414.074.865.066.914.059.963.053 1.01.044 1.06.037 1.105.029 1.15.021 1.197.013 1.241.004 1.285c0 4.168-3.431 6.985-10.239 8.615l-.729.167c-.618.136-1.262.263-1.932.38l-.816.137c-.277.044-.557.087-.842.128l-.866.12-.89.111-.916.103-.467.048-.953.09-.978.082-1.002.074-.586.038-1.152.069-1.007.05-.645.028-.985.036-1.37.038-1.465.028-1.181.015-2.634.017-2.539.004-12.095-.004-2.634-.017-1.181-.015-1.465-.028-1.37-.038-.985-.036-.965-.043-.687-.035-1.152-.069-.586-.038a99.61 99.61 0 0 1-1.002-.074l-.978-.082-.953-.09-.928-.098a86.329 86.329 0 0 1-.455-.053l-.89-.111-.866-.12a60.859 60.859 0 0 1-.842-.128l-.816-.137a46.488 46.488 0 0 1-1.932-.38l-.729-.167c-6.808-1.63-10.24-4.447-10.24-8.615l.005-1.276.012-1.234.009-.601.039-1.736.035-1.101.021-.534.046-1.032.054-.986.06-.938.068-.89c.023-.289.048-.569.073-.84l.748.575.703.53.336.25.643.47.609.43.292.202.564.379.272.177.529.332a19.942 19.942 0 0 0 2.938 1.502l.489.193.248.092.507.18.595.196.39.121.386.112.191.052.38.099.189.045.376.085.376.074.375.065.188.03.376.05.189.02.379.034.383.024c.128.006.257.01.386.013l.392.002.397-.01c.134-.004.268-.011.404-.02l.412-.033.42-.044a17.7 17.7 0 0 0 .213-.027l.434-.063.445-.075.227-.042.462-.094.475-.107.488-.12.503-.134.518-.147.535-.16.274-.086.56-.182.579-.196.598-.21.618-.226.64-.24.661-.256 1.034-.412 1.089-.447.757-.318 1.594-.685 1.268-.557 2.262-1.014 1.95-.889 3.176-1.468Z" clip-rule="evenodd"/><path fill="#000" fill-rule="evenodd" d="M200 288a4 4 0 1 1 0 8 4 4 0 0 1 0-8Zm-32 0a4 4 0 1 1 0 8 4 4 0 0 1 0-8Zm80-16a4 4 0 1 1 0 8 4 4 0 0 1 0-8Zm-32 0a4 4 0 1 1 0 8 4 4 0 0 1 0-8Zm-32 0a4 4 0 1 1 0 8 4 4 0 0 1 0-8Zm-32 0a4 4 0 1 1 0 8 4 4 0 0 1 0-8Zm-32 0a4 4 0 1 1 0 8 4 4 0 0 1 0-8Zm144-16a4 4 0 1 1 0 8 4 4 0 0 1 0-8Zm-160 0a4 4 0 1 1 0 8 4 4 0 0 1 0-8Z" clip-rule="evenodd"/><path fill="#000" fill-rule="evenodd" d="M244 16c2.208 0 4 1.863 4 4.159v11.84l15.261.001c4.741 0 8.599 3.832 8.735 8.613l.004.261.001 127.877C286.984 191.526 296 214.157 296 233.329 296 288.904 258.029 312 184 312c-67.143 0-104.624-19-111.016-63.998L32.739 248c-4.738 0-8.599-3.832-8.735-8.613l-.004-.261V40.874c0-4.814 3.776-8.732 8.481-8.87L32.74 32 48 31.999v-11.84C48 17.863 49.792 16 52 16s4 1.863 4 4.159v11.84h24v-11.84C80 17.863 81.792 16 84 16s4 1.863 4 4.159v11.84h24v-11.84c0-2.296 1.792-4.159 4-4.159s4 1.863 4 4.159v11.84h24v-11.84c0-2.296 1.792-4.159 4-4.159s4 1.863 4 4.159v11.84h24v-11.84c0-2.296 1.792-4.159 4-4.159s4 1.863 4 4.159v11.84h24v-11.84c0-2.296 1.792-4.159 4-4.159s4 1.863 4 4.159v11.84h24v-11.84c0-2.296 1.792-4.159 4-4.159Zm-29.73 104h-60.466c-.487 0-1.087.13-1.788.381l-.015.005-.211.079c-1.949.747-4.62 2.368-7.76 4.686l-.029.022-.264.195c-8.479 6.316-20.266 17.578-30.526 30.368a204.3 204.3 0 0 0-9.12 12.262l-.002.002-.084.124a177.457 177.457 0 0 0-8.004 12.791l-.325.575c-6.497 11.574-11.17 23.22-13.616 34.509V216l-.004.02c-1.278 5.905-1.946 11.712-1.946 17.36 0 5.165.36 10.016 1.083 14.562l.01.06.137.832C87.98 287.694 121.598 304 184.037 304c70.156 0 103.927-20.586 103.927-70.62 0-21.243-12.776-48.419-33.152-74.893-8.364-10.866-17.479-20.831-25.615-28.171-7.194-6.49-13.109-10.316-14.927-10.316ZM48 51.841V40H32.317a.32.32 0 0 0-.31.26l-.007.065v199.35c0 .156.109.288.253.318l.064.007 39.874.001a113.77 113.77 0 0 1-.191-6.672c0-5.682.605-11.474 1.764-17.328L52.127 216H52c-.76 0-1.471-.226-2.077-.618C48.767 214.673 48 213.423 48 212l.002-.108-.001-.072L48 116.25l.002-.142A3.89 3.89 0 0 1 48 116c0-1.42.764-2.668 1.916-3.378A3.806 3.806 0 0 1 52 112h192c.754 0 1.46.222 2.062.608 1.164.707 1.938 1.962 1.938 3.392l-.002.109.002.141.001 21.602a254.19 254.19 0 0 1 13.133 15.696c.972 1.26 1.928 2.522 2.867 3.785L264 40.325a.323.323 0 0 0-.319-.325L248 39.999v11.842c0 2.296-1.792 4.159-4 4.159s-4-1.863-4-4.159V40h-24v11.842c0 2.296-1.792 4.159-4 4.159s-4-1.863-4-4.159V40h-24v11.842c0 2.296-1.792 4.159-4 4.159s-4-1.863-4-4.159V40h-24v11.842c0 2.296-1.792 4.159-4 4.159s-4-1.863-4-4.159V40h-24v11.842c0 2.296-1.792 4.159-4 4.159s-4-1.863-4-4.159V40H88v11.842C88 54.137 86.208 56 84 56s-4-1.863-4-4.159V40H56v11.842C56 54.137 54.208 56 52 56s-4-1.863-4-4.159ZM187.684 164c5.829 0 10.518 1.798 13.95 5.355 3.426 3.552 5.166 8.335 5.166 14.223 0 .709-.531 1.301-1.199 1.368l-.127.006h-5.569c-.732 0-1.326-.621-1.326-1.374 0-3.838-1.014-6.817-3.008-8.863-2.026-2.078-4.737-3.084-8.301-3.084-3.384 0-5.999 1.193-7.988 3.662-1.944 2.417-2.965 5.806-3.036 10.082l-.004.479.366 12.255h14.285c.689 0 1.255.545 1.32 1.242l.006.132v4.882c0 .709-.526 1.301-1.199 1.368l-.127.007h-14.062l.361 11.573c.046 4.315-.537 7.888-1.739 10.694l-.16.362h31.401c.689 0 1.256.545 1.32 1.242l.006.132v4.883c0 .708-.526 1.3-1.198 1.368l-.128.006H161.56c-.689 0-1.255-.55-1.32-1.243l-.006-.131v-4.883c0-.714.526-1.301 1.199-1.368l.127-.006H166c.965-.297 1.761-2.348 2.207-4.008.52-1.991.777-4.115.771-6.319l-.008-.603-.366-11.699h-7.224c-.689 0-1.256-.551-1.32-1.243l-.006-.132v-4.882c0-.714.526-1.301 1.198-1.368l.128-.006h6.964l-.366-12.189c0-6.625 1.804-11.969 5.352-15.922 3.586-3.98 8.413-5.998 14.354-5.998Zm-93.327 4H56v40l19.679.001c3.72-13.291 10.136-26.799 18.678-40.001ZM96 120H56v40h40v-40Zm41.662-.001L104 120l-.001 34.382a224.477 224.477 0 0 1 2.918-3.709c10.112-12.578 21.37-23.639 30.745-30.674ZM240 120h-10.62c3.317 2.641 6.902 5.854 10.62 9.513V120Zm-94.033-54.805c6.73 5.417 8.804 6.875 11.122 7.662 2.4.816 4.624.683 10.446-1.623l.566-.226c3.364-1.358 7.875-3.4 14.183-6.335a4.168 4.168 0 0 1 3.506 0c18.042 8.395 21.398 9.484 25.194 8.176 2.299-.792 4.359-2.25 11.029-7.651 3.088-2.5 5.867-.634 7.058 1.925.456.978.795 2.285 1.072 3.98.553 3.385.861 8.422.861 14.863 0 11.675-10.544 16.504-28.086 17.694-.501.034-.991.065-1.476.093l-.727.039c-3.261.168-6.493.208-11.907.208h-9.542c-5.414 0-8.646-.04-11.907-.208l-.727-.039c-.485-.028-.975-.059-1.476-.093-17.542-1.19-28.086-6.019-28.086-17.694 0-6.371.293-11.385.819-14.766.264-1.692.586-2.997 1.015-3.972 1.154-2.617 3.875-4.598 7.063-2.033ZM184.037 72c-19.119 8.924-22.977 10.056-29.673 7.766-2.746-.94-4.76-2.12-8.878-5.313-.269 2.856-.422 6.627-.422 11.17 0 5.922 6.931 9.118 20.631 10.054.59.04 1.165.075 1.738.107l.687.035c2.983.145 6.064.181 11.139.181h9.556c5.075 0 8.156-.036 11.139-.18l.687-.036c.573-.032 1.148-.067 1.738-.107 13.7-.936 20.63-4.132 20.63-10.055 0-4.573-.159-8.353-.439-11.204-4.096 3.197-6.097 4.38-8.827 5.328-6.697 2.322-10.55 1.195-29.706-7.746Z" clip-rule="evenodd"/></svg>