<svg width="320" height="320" viewBox="0 0 320 320" xmlns="http://www.w3.org/2000/svg"><g id="Foundations/Icons/Brand-Icons/Cities/05-flag" stroke="none" stroke-width="1" fill="none" fill-rule="evenodd"><path d="M55 184H39V16h242.52l-49.41 83.94a8 8 0 0 0 .16 8.38l48.6 75.68H55Z" id="lg-icon-fill-primary" fill="#FFD500"/><path d="M51 280a4 4 0 1 1 0 8 4 4 0 0 1 0-8Zm0-32a4 4 0 1 1 0 8 4 4 0 0 1 0-8Zm0-32 .2.005A4 4 0 1 1 51 216Zm0-32a4 4 0 1 1 0 8 4 4 0 0 1 0-8Zm0-24a4 4 0 1 1 0 8 4 4 0 0 1 0-8Zm0-32a4 4 0 1 1 0 8 4 4 0 0 1 0-8Zm0-32a4 4 0 1 1 0 8 4 4 0 0 1 0-8Zm0-32a4 4 0 1 1 0 8 4 4 0 0 1 0-8Zm0-32a4 4 0 1 1 0 8 4 4 0 0 1 0-8Z" id="Half-tone" fill="#000"/><path d="m239 104 49.55-84.17a8 8 0 0 0-7-11.83H39a8 8 0 0 0-8 8v288a8 8 0 0 0 8 8h24a8 8 0 0 0 8-8V192h209.87a8 8 0 0 0 6.86-12.12L239 104ZM63 304H39V192h24v112Zm-8-120H39V16h242.52l-49.41 83.94a8 8 0 0 0 .16 8.38l48.6 75.68H55Z" id="Outlines" fill="#000"/></g></svg>