<svg width="320" height="320" viewBox="0 0 320 320" xmlns="http://www.w3.org/2000/svg"><g id="Foundations/Icons/Brand-Icons/Health/06-flask" stroke="none" stroke-width="1" fill="none" fill-rule="evenodd"><path d="M159.87 304.24c-40.07-.08-75.18-27.24-85.67-64.15h171.34c-10.49 36.91-45.6 64.07-85.67 64.15Z" id="lg-icon-fill-primary" fill="#FFD500"/><path d="M154.87 280.09a4 4 0 1 1 0 8 4 4 0 0 1 0-8Zm-32 0a4 4 0 1 1 0 8 4 4 0 0 1 0-8Zm64 0a4 4 0 1 1 0 8 4 4 0 0 1 0-8Zm-80-16a4 4 0 1 1 0 8 4 4 0 0 1 0-8Zm64 0a4 4 0 1 1 0 8 4 4 0 0 1 0-8Zm-32 0a4 4 0 1 1 0 8 4 4 0 0 1 0-8Zm64 0a4 4 0 1 1 0 8 4 4 0 0 1 0-8Zm-80-16a4 4 0 1 1 0 8 4 4 0 0 1 0-8Zm-32 0a4 4 0 1 1 0 8 4 4 0 0 1 0-8Zm96 0a4 4 0 1 1 0 8 4 4 0 0 1 0-8Zm-32 0a4 4 0 1 1 0 8 4 4 0 0 1 0-8Zm64 0 .2.005a4 4 0 1 1-.2-.005Z" id="Half-tone" fill="#000"/><path d="M233.33 156.51a101.53 101.53 0 0 0-49.23-30.92V16a8 8 0 0 0-8-8h-32.46a8 8 0 0 0-8 8v109.59a101.53 101.53 0 0 0-49.23 30.92C71.31 173.73 63 195.28 63 217.2c0 25.28 10.25 49.15 28.87 67.23a97.48 97.48 0 0 0 67.68 27.81h.65a97.49 97.49 0 0 0 67.67-27.81c18.62-18.08 28.87-41.95 28.87-67.23 0-21.92-8.31-43.47-23.41-60.69Zm-89.69-24.61V16h32.46v115.9c39.73 8.06 72.64 43.19 72.64 85.3a84.14 84.14 0 0 1-1.34 14.89H72.34A84.14 84.14 0 0 1 71 217.2c0-42.11 32.87-77.24 72.64-85.3Zm16.23 172.34c-40.07-.08-75.18-27.24-85.67-64.15h171.34c-10.49 36.91-45.6 64.07-85.67 64.15Z" id="Outlines" fill="#000"/></g></svg>