<svg width="320" height="320" viewBox="0 0 320 320" xmlns="http://www.w3.org/2000/svg"><g id="Foundations/Icons/Brand-Icons/Entertainment-and-Technology/06-flash-drive" stroke="none" stroke-width="1" fill="none" fill-rule="evenodd"><path id="lg-icon-fill-primary" fill="#FFD500" d="M192.18 80h-47.63L120 153h27.37l-26.64 103L208 120h-31.69z"/><path d="M188 16a4 4 0 1 1 0 8 4 4 0 0 1 0-8Zm-32 0a4 4 0 1 1 0 8 4 4 0 0 1 0-8Zm-32 0a4 4 0 1 1 0 8 4 4 0 0 1 0-8Z" id="Half-tone" fill="#000"/><path d="M210.82 0a8.31 8.31 0 0 1 8.3 8.3V32h12.58a8.31 8.31 0 0 1 8.3 8.3v271.4a8.31 8.31 0 0 1-8.3 8.3H88.3a8.31 8.31 0 0 1-8.3-8.3V40.3a8.31 8.31 0 0 1 8.3-8.3h12.57V8.3a8.31 8.31 0 0 1 8.3-8.3Zm20.88 40H88.3a.31.31 0 0 0-.3.3v271.4a.31.31 0 0 0 .3.3h143.4a.31.31 0 0 0 .3-.3V40.3a.31.31 0 0 0-.3-.3ZM204 284a4 4 0 1 1 0 8h-88a4 4 0 1 1 0-8ZM192.18 80l-15.87 40H208l-87.27 136 26.64-103H120l24.55-73h47.63Zm-11.78 8h-30.1l-19.17 57h26.58l-2.59 10L141 209.61l52.328-81.56H164.52l4.35-11L180.4 88Zm30.43-80H109.17a.31.31 0 0 0-.3.3v23.4a.31.31 0 0 0 .3.3h101.66a.31.31 0 0 0 .3-.3V8.3a.31.31 0 0 0-.3-.3Z" id="Outlines" fill="#000"/></g></svg>