<svg xmlns="http://www.w3.org/2000/svg" width="320" height="320" viewBox="0 0 320 320"><g id="Foundations/Icons/Brand-Icons/Nature/04-flowers" fill="none" fill-rule="evenodd" stroke="none" stroke-width="1"><path id="lg-icon-fill-primary" fill="#FFD500" d="M155.317 178.748c-10.956 0-18.42-4.374-22.8-13.386a40.364 40.364 0 0 1-3.737-15.314V85.29l26.537 20.696a8.023 8.023 0 0 0 1.698.979 15.567 15.567 0 0 0 12.195.068 7.956 7.956 0 0 0 1.658-.978l28.156-20.95v64.905a40.345 40.345 0 0 1-3.736 15.353c-4.38 9.012-11.873 13.386-22.8 13.386h-17.17Z"/><path id="Half-tone" fill="#000" d="M163.902 152.328a3.908 3.908 0 0 1 3.903 3.914 3.908 3.908 0 0 1-3.903 3.914 3.908 3.908 0 0 1-3.902-3.914 3.908 3.908 0 0 1 3.902-3.914Zm15.61-15.656a3.908 3.908 0 0 1 3.903 3.914 3.908 3.908 0 0 1-3.903 3.914 3.908 3.908 0 0 1-3.902-3.914 3.908 3.908 0 0 1 3.902-3.914Zm-31.22 0a3.908 3.908 0 0 1 3.903 3.914 3.908 3.908 0 0 1-3.902 3.914 3.908 3.908 0 0 1-3.903-3.914 3.908 3.908 0 0 1 3.903-3.914Zm15.61-15.657a3.908 3.908 0 0 1 3.903 3.914 3.908 3.908 0 0 1-3.903 3.915 3.908 3.908 0 0 1-3.902-3.915 3.908 3.908 0 0 1 3.902-3.914Z"/><path id="Outlines" fill="#000" d="M316.098 296.172h-46.83v-70.454h4.683c16.098 0 24.654-8.024 29.19-16.557a30.4 30.4 0 0 0 .859-1.712c.341-.724.654-1.458.976-2.182.322-.725.634-1.654.907-2.466a48.214 48.214 0 0 0 2.41-13.612v-65.238a7.586 7.586 0 0 0-.059-.979 2.875 2.875 0 0 0-.049-.283c0-.216-.068-.421-.117-.627-.048-.205 0-.205-.078-.303s-.127-.391-.195-.587c-.068-.196-.058-.176-.097-.264a7.78 7.78 0 0 0-.332-.705l-.049-.088a6.06 6.06 0 0 0-.458-.724c0-.078-.108-.137-.157-.206a6.958 6.958 0 0 0-.39-.47l-.205-.224a8.133 8.133 0 0 0-.42-.401l-.214-.186a6.022 6.022 0 0 0-.556-.43.917.917 0 0 1-.117-.089 11.233 11.233 0 0 0-.741-.43l-.205-.098a5.98 5.98 0 0 0-.576-.245l-.273-.108-.566-.166-.283-.069c-.215 0-.43-.088-.654-.117h-.195a7.49 7.49 0 0 0-.82-.03h-1.228c-.215 0-.42.079-.635.138l-.273.068a6.2 6.2 0 0 0-.878.304l-19.863 14.932-9.942 7.417a9.517 9.517 0 0 1-.741.264l-.215.059a4.769 4.769 0 0 1-.536.127l-.293.05-.468.068h-1.542c-.156 0-.312-.05-.468-.069h-.303l-.536-.137-.225-.059a9.884 9.884 0 0 1-.75-.283l-9.415-7.34-18.82-14.677a8.013 8.013 0 0 0-.888-.313l-.283-.079-.624-.137h-.302c-.215 0-.42 0-.635-.058h-.38a6.945 6.945 0 0 0-.78 0c-.274 0-.537.078-.8.127l-.274.068-.566.167-.283.107a5.895 5.895 0 0 0-.556.235c-.078 0-.156.069-.234.118a6.892 6.892 0 0 0-.741.42c-.225.157-.449.323-.654.49l-.205.186c-.15.129-.293.266-.429.41a2.082 2.082 0 0 0-.205.216 6.215 6.215 0 0 0-.39.47l-.166.205c-.163.235-.319.48-.468.734a5.624 5.624 0 0 0-.371.773c0 .088-.068.176-.098.264a5.962 5.962 0 0 0-.204.587c-.02.103-.047.204-.079.304 0 .215-.087.42-.117.636a2.875 2.875 0 0 0-.048.283 7.82 7.82 0 0 0-.059.979v65.072s0 12.877 7.19 23.338c.38.548.771 1.096 1.19 1.634a30.361 30.361 0 0 0 2.781 3.082c.507.49 1.034.979 1.59 1.43.556.45 1.278.978 1.952 1.496 4.731 3.278 11.112 5.49 19.56 5.49h4.683v70.454h-93.658V186.577h4.683c16.097 0 24.653-8.024 29.19-16.557.517-.979.976-1.957 1.385-2.936.137-.332.283-.665.41-.978.342-.832.634-1.654.907-2.466a48.214 48.214 0 0 0 2.45-13.592V84.81a7.586 7.586 0 0 0-.06-.979 2.875 2.875 0 0 0-.048-.283c0-.216-.068-.421-.117-.627-.049-.205-.049-.205-.078-.303-.03-.098-.127-.391-.195-.587-.069-.196-.059-.176-.098-.264a7.78 7.78 0 0 0-.332-.705l-.048-.088a6.06 6.06 0 0 0-.459-.724c-.049-.078-.107-.137-.156-.206a6.957 6.957 0 0 0-.39-.47l-.205-.224c-.137-.137-.273-.274-.42-.402l-.214-.185a6.022 6.022 0 0 0-.556-.431l-.117-.088a11.233 11.233 0 0 0-.742-.43l-.205-.099a5.98 5.98 0 0 0-.575-.244l-.274-.108-.565-.166-.283-.069c-.215 0-.43-.088-.654-.117h-.195a7.49 7.49 0 0 0-.81 0h-.263c-.225 0-.449 0-.683.049h-.283c-.215 0-.42.078-.634.137l-.273.068c-.3.08-.594.18-.878.304l-19.874 14.854-9.941 7.417a9.517 9.517 0 0 1-.742.264l-.214.059a4.768 4.768 0 0 1-.537.127h-.292l-.469.069h-1.541a3.892 3.892 0 0 1-.469-.069h-.302l-.537-.137-.224-.059a9.884 9.884 0 0 1-.751-.283l-9.415-7.34-18.82-14.677a8.013 8.013 0 0 0-.887-.313l-.283-.079-.624-.137h-.303c-.215 0-.42-.049-.634-.058h-.38a6.945 6.945 0 0 0-.781 0c-.273 0-.537.078-.8.127l-.273.068c-.186.05-.38.108-.566.176l-.283.098c-.19.069-.375.147-.556.235l-.234.118a6.892 6.892 0 0 0-.742.42c-.224.157-.448.323-.653.49l-.205.186c-.15.129-.294.266-.43.41a2.082 2.082 0 0 0-.204.216 6.215 6.215 0 0 0-.39.47l-.166.205a7.79 7.79 0 0 0-.469.734 5.624 5.624 0 0 0-.37.773c0 .088-.069.176-.098.264a5.961 5.961 0 0 0-.205.587c-.02.103-.046.204-.078.304 0 .215-.088.42-.117.636a2.672 2.672 0 0 0 0 .283 7.82 7.82 0 0 0-.059.979v65.072s0 12.877 7.19 23.338c.381.548.771 1.096 1.19 1.634a30.361 30.361 0 0 0 2.781 3.082c.508.49 1.035.979 1.59 1.43.557.45 1.279.978 1.952 1.496 4.683 3.327 11.063 5.539 19.512 5.539H160v109.595H66.341v-70.454h4.683c16.098 0 24.654-8.024 29.19-16.557.303-.567.596-1.135.86-1.712.34-.724.653-1.458.975-2.182.322-.725.634-1.654.907-2.466a48.214 48.214 0 0 0 2.41-13.612v-65.238a7.586 7.586 0 0 0-.059-.979 2.672 2.672 0 0 0 0-.283c0-.216-.068-.421-.117-.627-.049-.205 0-.205-.078-.303s-.127-.391-.195-.587c-.068-.196-.058-.176-.097-.264a7.78 7.78 0 0 0-.332-.705v-.088a6.06 6.06 0 0 0-.459-.724c0-.078-.107-.137-.156-.206a6.958 6.958 0 0 0-.39-.47l-.205-.224c-.137-.137-.273-.274-.42-.401l-.214-.186a6.022 6.022 0 0 0-.556-.43.917.917 0 0 1-.117-.089 11.233 11.233 0 0 0-.742-.43l-.205-.098a5.98 5.98 0 0 0-.575-.245l-.273-.108-.664-.127-.283-.068c-.214 0-.429-.088-.653-.118h-.196a7.49 7.49 0 0 0-.819-.068h-1.229c-.215 0-.42.078-.634.137l-.274.068a6.2 6.2 0 0 0-.878.304l-19.863 14.932-9.942 7.417a9.517 9.517 0 0 1-.741.264l-.215.059a4.769 4.769 0 0 1-.536.127l-.293.05-.468.068h-1.542c-.156 0-.312-.05-.468-.069h-.302l-.537-.137-.224-.059a9.884 9.884 0 0 1-.752-.283l-9.414-7.34-18.82-14.677a8.013 8.013 0 0 0-.888-.313l-.273-.137-.624-.137h-.303c-.214 0-.419 0-.634-.059h-.39a6.945 6.945 0 0 0-.78 0h-.05c-.272 0-.536.078-.8.127l-.272.069-.566.166-.283.108a5.32 5.32 0 0 0-.556.235c-.078 0-.156.068-.234.117a6.892 6.892 0 0 0-.742.42c-.224.157-.449.324-.654.49l-.204.186c-.15.13-.294.266-.43.41a2.082 2.082 0 0 0-.205.216 6.215 6.215 0 0 0-.39.47l-.166.205a7.79 7.79 0 0 0-.468.734 5.624 5.624 0 0 0-.37.773c0 .088-.069.176-.098.264a5.961 5.961 0 0 0-.205.588c-.02.102-.046.203-.078.303-.049.215-.088.42-.117.636a2.875 2.875 0 0 0-.049.284c-.04.324-.06.651-.059.978v65.072s0 12.878 7.19 23.338c.381.548.771 1.096 1.191 1.634a30.361 30.361 0 0 0 2.78 3.083c.508.489 1.035.978 1.59 1.428.557.45 1.279.979 1.952 1.498 4.78 3.336 11.16 5.548 19.61 5.548h4.683v70.454H3.902A3.908 3.908 0 0 0 0 300.086 3.908 3.908 0 0 0 3.902 304h312.196a3.908 3.908 0 0 0 3.902-3.914 3.908 3.908 0 0 0-3.902-3.914ZM256.78 217.89c-10.956 0-18.419-4.374-22.8-13.387a40.364 40.364 0 0 1-3.736-15.314V124.43l26.536 20.696a8.023 8.023 0 0 0 1.698.979 15.567 15.567 0 0 0 12.195.068 7.956 7.956 0 0 0 1.659-.978l28.156-20.95v64.905a40.345 40.345 0 0 1-3.737 15.353c-4.38 9.013-11.873 13.387-22.8 13.387h-17.17Zm-101.463-39.142c-10.956 0-18.42-4.374-22.8-13.386a40.364 40.364 0 0 1-3.737-15.314V85.29l26.537 20.696a8.023 8.023 0 0 0 1.698.979 15.567 15.567 0 0 0 12.195.068 7.956 7.956 0 0 0 1.658-.978l28.156-20.95v64.905a40.345 40.345 0 0 1-3.736 15.353c-4.38 9.012-11.873 13.386-22.8 13.386h-17.17ZM53.854 217.89c-10.956 0-18.42-4.374-22.8-13.387a40.364 40.364 0 0 1-3.737-15.314V124.43l26.537 20.696a8.023 8.023 0 0 0 1.697.979 15.567 15.567 0 0 0 12.195.068 7.956 7.956 0 0 0 1.659-.978l28.156-20.95v64.905a40.345 40.345 0 0 1-3.737 15.353c-4.38 9.013-11.873 13.387-22.8 13.387h-17.17Z"/></g></svg>