<svg width="320" height="320" viewBox="0 0 320 320" xmlns="http://www.w3.org/2000/svg"><g id="Foundations/Icons/Brand-Icons/Banking-and-Commerce/52-form" stroke="none" stroke-width="1" fill="none" fill-rule="evenodd"><path id="lg-icon-fill-primary" fill="#FFD500" d="M148 172v128H20V172h128"/><path d="M296 168a8 8 0 0 1 8 8v120a8 8 0 0 1-8 8H176a8 8 0 0 1-8-8V176a8 8 0 0 1 8-8Zm-152 0a8 8 0 0 1 7.996 7.75l.004.25v120a8 8 0 0 1-7.75 7.996L144 304H24a8 8 0 0 1-7.996-7.75L16 296V176a8 8 0 0 1 7.75-7.996L24 168h120Zm152 8H176v120h120V176Zm-152 0H24v120h120V176Zm-13.17 29.17a4.002 4.002 0 0 1 0 5.66L64 277.66l-26.83-26.83a4.002 4.002 0 0 1 5.66-5.66L64 266.34l61.17-61.17a4.002 4.002 0 0 1 5.66 0ZM144 16a8 8 0 0 1 8 8v120a8 8 0 0 1-8 8H24a8 8 0 0 1-8-8V24a8 8 0 0 1 8-8Zm131.32 0a8 8 0 0 1 5.461 2.14l.219.21 20.67 20.69a8 8 0 0 1 .195 11.108l-.195.202-84.07 84.07a7.94 7.94 0 0 1-2.784 1.807l-.316.113-38.85 13.09a4 4 0 0 1-5.136-4.843l.066-.217 13.09-38.85a8.08 8.08 0 0 1 1.698-2.857l.232-.243 84.07-84.07a8 8 0 0 1 5.333-2.334l.317-.006V16ZM144 24H24v120h120V24Zm131.32-1v.01a1 1 0 0 0-.602.204l-.098.086-84.07 84.08a1 1 0 0 0-.197.283l-.043.107-6.119 18.152a7.999 7.999 0 0 1 7.876 2.031 7.999 7.999 0 0 1 2.027 7.89l18.166-6.123a1 1 0 0 0 .303-.163l.087-.077 84.07-84.07a1 1 0 0 0 .083-1.316L296.72 44l-20.69-20.71a1 1 0 0 0-.71-.29Zm2.573 16.657a3.518 3.518 0 0 1 1.547 5.893l-65.87 65.85a3.51 3.51 0 0 1-2.48 1.02 3.5 3.5 0 0 1-2.47-6l65.87-65.87a3.518 3.518 0 0 1 3.403-.893Z" id="Outlines" fill="#000"/><path d="M188 280a4 4 0 1 1 0 8 4 4 0 0 1 0-8Zm32 0a4 4 0 1 1 0 8 4 4 0 0 1 0-8Zm32 0a4 4 0 1 1 0 8 4 4 0 0 1 0-8Zm32 0a4 4 0 1 1 0 8 4 4 0 0 1 0-8Zm-48-16a4 4 0 1 1 0 8 4 4 0 0 1 0-8Zm32 0a4 4 0 1 1 0 8 4 4 0 0 1 0-8Zm-64 0a4 4 0 1 1 0 8 4 4 0 0 1 0-8Zm48-16a4 4 0 1 1 0 8 4 4 0 0 1 0-8Zm-64 0a4 4 0 1 1 0 8 4 4 0 0 1 0-8Zm32 0a4 4 0 1 1 0 8 4 4 0 0 1 0-8Zm64 0a4 4 0 1 1 0 8 4 4 0 0 1 0-8Zm-80-16a4 4 0 1 1 0 8 4 4 0 0 1 0-8Zm32 0a4 4 0 1 1 0 8 4 4 0 0 1 0-8Zm32 0a4 4 0 1 1 0 8 4 4 0 0 1 0-8Zm-80-16a4 4 0 1 1 0 8 4 4 0 0 1 0-8Zm32 0a4 4 0 1 1 0 8 4 4 0 0 1 0-8Zm32 0a4 4 0 1 1 0 8 4 4 0 0 1 0-8Zm32 0a4 4 0 1 1 0 8 4 4 0 0 1 0-8Zm-16-16a4 4 0 1 1 0 8 4 4 0 0 1 0-8Zm-64 0a4 4 0 1 1 0 8 4 4 0 0 1 0-8Zm32 0a4 4 0 1 1 0 8 4 4 0 0 1 0-8Zm-16-16a4 4 0 1 1 0 8 4 4 0 0 1 0-8Zm32 0a4 4 0 1 1 0 8 4 4 0 0 1 0-8Zm-64 0a4 4 0 1 1 0 8 4 4 0 0 1 0-8Zm96 0a4 4 0 1 1 0 8 4 4 0 0 1 0-8Zm-184-56a4 4 0 1 1 0 8 4 4 0 0 1 0-8Zm32 0a4 4 0 1 1 0 8 4 4 0 0 1 0-8Zm-96 0a4 4 0 1 1 0 8 4 4 0 0 1 0-8Zm32 0a4 4 0 1 1 0 8 4 4 0 0 1 0-8Zm48-16a4 4 0 1 1 0 8 4 4 0 0 1 0-8Zm-64 0a4 4 0 1 1 0 8 4 4 0 0 1 0-8Zm32 0a4 4 0 1 1 0 8 4 4 0 0 1 0-8ZM36 96a4 4 0 1 1 0 8 4 4 0 0 1 0-8Zm64 0a4 4 0 1 1 0 8 4 4 0 0 1 0-8Zm-32 0a4 4 0 1 1 0 8 4 4 0 0 1 0-8Zm64 0a4 4 0 1 1 0 8 4 4 0 0 1 0-8ZM52 80a4 4 0 1 1 0 8 4 4 0 0 1 0-8Zm32 0a4 4 0 1 1 0 8 4 4 0 0 1 0-8Zm32 0a4 4 0 1 1 0 8 4 4 0 0 1 0-8ZM36 64a4 4 0 1 1 0 8 4 4 0 0 1 0-8Zm32 0a4 4 0 1 1 0 8 4 4 0 0 1 0-8Zm32 0a4 4 0 1 1 0 8 4 4 0 0 1 0-8Zm32 0a4 4 0 1 1 0 8 4 4 0 0 1 0-8ZM52 48a4 4 0 1 1 0 8 4 4 0 0 1 0-8Zm32 0a4 4 0 1 1 0 8 4 4 0 0 1 0-8Zm32 0a4 4 0 1 1 0 8 4 4 0 0 1 0-8ZM36 32a4 4 0 1 1 0 8 4 4 0 0 1 0-8Zm32 0a4 4 0 1 1 0 8 4 4 0 0 1 0-8Zm32 0a4 4 0 1 1 0 8 4 4 0 0 1 0-8Zm32 0a4 4 0 1 1 0 8 4 4 0 0 1 0-8Z" id="Half-tone" fill="#000"/></g></svg>