<svg xmlns="http://www.w3.org/2000/svg" width="320" height="320" viewBox="0 0 320 320"><g id="Brand-Icons/UI/Numerals-/-04-four" fill="none" fill-rule="evenodd" stroke="none" stroke-width="1"><path id="lg-icon-fill-primary" fill="#FFD500" d="M197.593 32.32 224 35.388V188h44v39.857h-44.596v39.577L256 275.162V292H132v-16.877l32-8V228H52v-22.543L197.593 32.32ZM164 96.877 89.507 188H164V96.877Z"/><path id="Half-tone" fill="#000" d="M202 256a4 4 0 1 1 0 8 4 4 0 0 1 0-8Zm-16-16a4 4 0 1 1 0 8 4 4 0 0 1 0-8Zm16-16a4 4 0 1 1 0 8 4 4 0 0 1 0-8Zm-16-16a4 4 0 1 1 0 8 4 4 0 0 1 0-8Zm16-16a4 4 0 1 1 0 8 4 4 0 0 1 0-8Zm-16-16a4 4 0 1 1 0 8 4 4 0 0 1 0-8Zm16-16a4 4 0 1 1 0 8 4 4 0 0 1 0-8Zm-16-16a4 4 0 1 1 0 8 4 4 0 0 1 0-8Zm16-16a4 4 0 1 1 0 8 4 4 0 0 1 0-8Zm-16-16a4 4 0 1 1 0 8 4 4 0 0 1 0-8Zm16-16a4 4 0 1 1 0 8 4 4 0 0 1 0-8Zm-16-16a4 4 0 1 1 0 8 4 4 0 0 1 0-8Zm16-16a4 4 0 1 1 0 8 4 4 0 0 1 0-8Z"/><path id="Outlines" fill="#000" d="M48 202.542 198.407 23.679 228 28.611V184h44v47.858l-44.597-.001v33.252L260 272.838V296H128v-23.123l32-8.001V232H48v-29.458ZM201.593 32.32 56 205.457V224h112v47.123l-32 8V288h116v-8.838l-32.596-7.728v-47.576l44.596-.001V192h-44V35.388l-18.407-3.068ZM168 84.877V192H79.507L168 84.877Zm-8.001 22.245-63.507 76.877h63.507v-76.877Z"/></g></svg>