<svg xmlns="http://www.w3.org/2000/svg" width="320" height="320" viewBox="0 0 320 320"><g id="Foundations/Icons/Brand-Icons/Energy-and-Resources/07-fuel-can" fill="none" fill-rule="evenodd" stroke="none" stroke-width="1"><circle id="lg-icon-fill-primary" cx="176.692" cy="159.942" r="63.99" fill="#FFD500"/><path id="Half-tone" fill="#000" d="M252.702 295.952a4 4 0 1 1 0 8 4 4 0 0 1 0-8Zm-32 0a4 4 0 1 1 0 8 4 4 0 0 1 0-8Zm-32 0a4 4 0 1 1 0 8 4 4 0 0 1 0-8Zm-32 0a4 4 0 1 1 0 8 4 4 0 0 1 0-8Zm-32 0a4 4 0 1 1 0 8 4 4 0 0 1 0-8Zm-32 0a4 4 0 1 1 0 8 4 4 0 0 1 0-8Z"/><path id="Outlines" fill="#000" d="M87.572 0a8.3 8.3 0 0 1 5.87 2.432l24.2 24.2.18.2.54-.54a8 8 0 0 1 5.65-2.34h148.39a8.31 8.31 0 0 1 8.3 8.3v279.4a8.31 8.31 0 0 1-8.3 8.3h-199.4a8.31 8.31 0 0 1-8.3-8.3V83.262a8 8 0 0 1 2.14-5.43l-.21-.19-24.2-24.2a8.3 8.3 0 0 1 0-11.74l39.27-39.27A8.3 8.3 0 0 1 87.572 0Zm184.83 31.912h-148.34l-6 6c-.14.15-.27.31-.42.46l-39.27 39.27c-.15.15-.31.28-.46.42l-5.21 5.2v228.39a.31.31 0 0 0 .3.3h199.4a.31.31 0 0 0 .3-.3V32.212a.31.31 0 0 0-.3-.3Zm-95.7 56.04c39.746.044 71.956 32.254 72 72 0 39.765-32.235 72-72 72-39.764 0-72-32.235-72-72 0-39.764 32.236-72 72-72Zm0 8c-35.346 0-64 28.654-64 64 0 35.346 28.654 64 64 64a64 64 0 0 0 64-64c0-35.346-28.654-64-64-64Zm.49 24 .998.84a132.25 132.25 0 0 1 14.762 14.69c1.47 1.73 2.95 3.56 4.38 5.47a72.6 72.6 0 0 1 7.51 12.23 36.19 36.19 0 0 1 3.86 15.23c0 17.673-14.327 32-32 32-17.673 0-32-14.327-32-32a35.22 35.22 0 0 1 4-15.23 72.65 72.65 0 0 1 7.73-12.23c1.47-1.91 2.99-3.74 4.52-5.47a134.56 134.56 0 0 1 16.24-15.53ZM87.572 8.002a.27.27 0 0 0-.21.09L48.05 47.405a.24.24 0 0 0-.048.167.27.27 0 0 0 .09.21l24.2 24.17a.27.27 0 0 0 .21.09.18.18 0 0 0 .11 0l39.46-39.44a.25.25 0 0 0 0-.1.24.24 0 0 0-.09-.21l-24.2-24.2a.24.24 0 0 0-.21-.09Z"/></g></svg>