<svg width="320" height="320" viewBox="0 0 320 320" xmlns="http://www.w3.org/2000/svg"><g id="Foundations/Icons/Brand-Icons/Energy-and-Resources/16-fuel-pump" stroke="none" stroke-width="1" fill="none" fill-rule="evenodd"><path d="M304 196h-16v-42.9a4 4 0 0 0-1.22-2.88l-21.6-20.89a4 4 0 0 1-1.18-2.81V71.17a4 4 0 0 0-1.17-2.83l-30-30.15a3.854 3.854 0 0 1 5.42-5.48l33.24 33.38.09.09a.59.59 0 0 1 .08.08l31.25 31.38a3.83 3.83 0 0 1 1.13 2.73L304 196Z" id="lg-icon-fill-primary" fill="#FFD500"/><path d="M172 276a4 4 0 1 1 0 8 4 4 0 0 1 0-8Zm-32 0a4 4 0 1 1 0 8 4 4 0 0 1 0-8Zm16-16a4 4 0 1 1 0 8 4 4 0 0 1 0-8Zm16-16a4 4 0 1 1 0 8 4 4 0 0 1 0-8Zm-32 0a4 4 0 1 1 0 8 4 4 0 0 1 0-8Zm16-16a4 4 0 1 1 0 8 4 4 0 0 1 0-8Zm16-16a4 4 0 1 1 0 8 4 4 0 0 1 0-8Zm-32 0a4 4 0 1 1 0 8 4 4 0 0 1 0-8Zm16-16a4 4 0 1 1 0 8 4 4 0 0 1 0-8Zm16-16 .2.005a4 4 0 1 1-.4 0l.2-.005Zm-32 0 .2.005a4 4 0 1 1-.4 0l.2-.005Zm16-16 .2.005a4 4 0 1 1-.4 0l.2-.005Zm16-16a4 4 0 1 1 0 8 4 4 0 0 1 0-8Zm-32 0a4 4 0 1 1 0 8 4 4 0 0 1 0-8Z" id="Half-tone" fill="#000"/><path d="M192 12a8 8 0 0 1 8 8v68.69a8 8 0 0 0 2.34 5.65l11.32 11.32a8 8 0 0 1 2.34 5.65V132h20a4 4 0 0 1 4 4v92h48v-24h-4a4 4 0 0 1-4-4v-45.21l-20.39-19.7a12 12 0 0 1-3.61-8.55v-53.7l-28.87-29c-4.61-4.644-4.61-12.136 0-16.78a11.82 11.82 0 0 1 16.75 0l33.16 33.31c.097.082.188.173.27.27L308.54 92a11.79 11.79 0 0 1 3.46 8.37V200a4 4 0 0 1-4 4h-12v28a4 4 0 0 1-4 4h-56a4 4 0 0 1-4-4v-92h-16v11.26a8 8 0 0 1-4.08 7l-7.84 4.42a8 8 0 0 0-4.08 7V268a8 8 0 0 0 8 8h8a8 8 0 0 1 8 8v16a8 8 0 0 1-8 8H16a8 8 0 0 1-8-8v-16a8 8 0 0 1 8-8h8a8 8 0 0 0 8-8V20a8 8 0 0 1 8-8Zm0 8H40v248c0 8.837-7.163 16-16 16h-8v16h200v-16h-8c-8.837 0-16-7.163-16-16v-98.27a16 16 0 0 1 8.16-14l7.84-4.41v-40.01L196.69 100A15.86 15.86 0 0 1 192 88.69V20Zm46.25 12.71a3.854 3.854 0 0 0-5.42 5.48l30 30.15a4 4 0 0 1 1.17 2.83v55.35a4 4 0 0 0 1.18 2.81l21.6 20.89a4 4 0 0 1 1.22 2.88V196h16l.04-95.63a3.83 3.83 0 0 0-1.13-2.73l-31.25-31.38a.59.59 0 0 0-.08-.08l-.09-.09ZM168 36a8 8 0 0 1 7.996 7.75L176 44v72a8 8 0 0 1-7.75 7.996L168 124H64a8 8 0 0 1-7.996-7.75L56 116V44a8 8 0 0 1 7.75-7.996L64 36h104Zm0 8H64v72h104V44Zm-52 16c19.651 0 35.677 14.074 35.995 31.472L152 92v8H80v-8c0-17.64 16.15-32 36-32Zm0 8c-15.305 0-27.749 10.536-27.996 23.603L88 92h56c0-13.25-12.54-24-28-24Z" id="Outlines" fill="#000"/></g></svg>