<svg xmlns="http://www.w3.org/2000/svg" width="320" height="320" viewBox="0 0 320 320"><g id="Foundations/Icons/Brand-Icons/UI/Pensions-and-Retirement/08-fusion" fill="none" fill-rule="evenodd" stroke="none" stroke-width="1"><path id="lg-icon-fill-primary" fill="#FFD500" d="M256 162c10.166 0 19.579 2.186 26.25 5.849 5.338 2.93 7.75 6.061 7.75 8.151s-2.412 5.221-7.75 8.151C275.58 187.814 266.167 190 256 190s-19.579-2.186-26.25-5.849c-5.338-2.93-7.75-6.061-7.75-8.151s2.412-5.221 7.75-8.151C236.42 164.186 245.833 162 256 162ZM64 114c10.166 0 19.579 2.186 26.25 5.849C95.589 122.779 98 125.91 98 128s-2.412 5.221-7.75 8.151C83.58 139.814 74.167 142 64 142s-19.579-2.186-26.25-5.849C32.411 133.221 30 130.09 30 128s2.412-5.221 7.75-8.151C44.42 116.186 53.833 114 64 114Zm96-64c10.166 0 19.579 2.186 26.25 5.849C191.589 58.779 194 61.91 194 64s-2.412 5.221-7.75 8.151C179.58 75.814 170.167 78 160 78s-19.579-2.186-26.25-5.849C128.411 69.221 126 66.09 126 64s2.412-5.221 7.75-8.151C140.42 52.186 149.833 50 160 50Z"/><path id="Half-tone" fill="#000" d="M292 252a4 4 0 1 1 0 8 4 4 0 0 1 0-8Zm-32 0a4 4 0 1 1 0 8 4 4 0 0 1 0-8Zm-64 0a4 4 0 1 1 0 8 4 4 0 0 1 0-8Zm-32 0a4 4 0 1 1 0 8 4 4 0 0 1 0-8Zm-96 0a4 4 0 1 1 0 8 4 4 0 0 1 0-8Zm32 0a4 4 0 1 1 0 8 4 4 0 0 1 0-8Zm176-16a4 4 0 1 1 0 8 4 4 0 0 1 0-8Zm-96 0a4 4 0 1 1 0 8 4 4 0 0 1 0-8Zm-96 0a4 4 0 1 1 0 8 4 4 0 0 1 0-8Zm176-16a4 4 0 1 1 0 8 4 4 0 0 1 0-8Zm32 0a4 4 0 1 1 0 8 4 4 0 0 1 0-8Zm-128 0a4 4 0 1 1 0 8 4 4 0 0 1 0-8Zm32 0a4 4 0 1 1 0 8 4 4 0 0 1 0-8Zm-96 0a4 4 0 1 1 0 8 4 4 0 0 1 0-8Zm-32 0a4 4 0 1 1 0 8 4 4 0 0 1 0-8Zm208-16a4 4 0 1 1 0 8 4 4 0 0 1 0-8Zm-96 0a4 4 0 1 1 0 8 4 4 0 0 1 0-8Zm-96 0a4 4 0 1 1 0 8 4 4 0 0 1 0-8Zm210.645-8.999A3.985 3.985 0 0 1 292 196a3.985 3.985 0 0 1-2.645-.999h5.29Zm-32 0A3.985 3.985 0 0 1 260 196a3.985 3.985 0 0 1-2.645-.999h5.29ZM196 188a4 4 0 1 1 0 8 4 4 0 0 1 0-8Zm-32 0a4 4 0 1 1 0 8 4 4 0 0 1 0-8Zm-96 0a4 4 0 1 1 0 8 4 4 0 0 1 0-8Zm32 0a4 4 0 1 1 0 8 4 4 0 0 1 0-8Zm80-16a4 4 0 1 1 0 8 4 4 0 0 1 0-8Zm-96 0a4 4 0 1 1 0 8 4 4 0 0 1 0-8Zm80-16a4 4 0 1 1 0 8 4 4 0 0 1 0-8Zm32 0a4 4 0 1 1 0 8 4 4 0 0 1 0-8Zm-96 0a4 4 0 1 1 0 8 4 4 0 0 1 0-8Zm-32 0a4 4 0 1 1 0 8 4 4 0 0 1 0-8Zm112-16a4 4 0 1 1 0 8 4 4 0 0 1 0-8Zm-16-16a4 4 0 1 1 0 8 4 4 0 0 1 0-8Zm32 0a4 4 0 1 1 0 8 4 4 0 0 1 0-8Zm-16-16a4 4 0 1 1 0 8 4 4 0 0 1 0-8Zm16-16a4 4 0 1 1 0 8 4 4 0 0 1 0-8Zm-32 0a4 4 0 1 1 0 8 4 4 0 0 1 0-8Z"/><path id="Outlines" fill="#000" d="M64 108c21.87 0 39.641 8.776 39.995 19.67l.005.33v128h-.045c-.994 11.134-18.503 20-39.955 20-21.452 0-38.96-8.866-39.955-20H24V128c0-11.046 17.909-20 40-20Zm192 48c22.091 0 40 8.954 40 20 0 .234-.008.468-.024.7l.024.001v80l-.024.001C295.236 267.422 277.62 276 256 276s-39.236-8.577-39.976-19.298H216V176.7h.024a10.197 10.197 0 0 1-.024-.7c0-11.046 17.909-20 40-20ZM160 44c21.892 0 39.676 8.793 39.996 19.701H200v193l-.024.001C199.236 267.422 181.62 276 160 276s-39.236-8.577-39.976-19.298H120v-193l.005-.001v-.032C120.36 52.776 138.13 44 160 44Zm-64 96.025-.104.07a36.197 36.197 0 0 1-2.702 1.579c-.037.018-.072.037-.108.056-.09.048-.181.096-.273.143l-.098.05-.43.22a41.08 41.08 0 0 1-.964.465l-.24.112-.25.114c-4.14 1.874-8.947 3.27-14.123 4.136l-.27.044-.302.05-.255.039a70.772 70.772 0 0 1-2.342.325l-.306.036-.422.05a77.045 77.045 0 0 1-4.385.366l-.087.003c-.18.01-.362.02-.543.028l-.314.014-.383.016-.267.01c-.44.015-.883.027-1.327.035h-.044c-.265.006-.532.01-.8.011L64 148c-.442 0-.882-.004-1.32-.01l-.141-.003h-.043c-.445-.01-.888-.021-1.329-.036l-.265-.01a60.15 60.15 0 0 1-.385-.016l-.313-.014a65.366 65.366 0 0 1-.543-.027l-.087-.005a77.073 77.073 0 0 1-4.217-.347l-.167-.019a53.901 53.901 0 0 1-.423-.048l-.306-.037a70.877 70.877 0 0 1-2.342-.325l-.255-.04-.302-.048-.27-.045c-5.176-.865-9.983-2.262-14.122-4.136a81.744 81.744 0 0 1-.49-.226l-.22-.103c-.25-.12-.499-.24-.744-.363l-.527-.269.022.012-.298-.154-.106-.058a35.665 35.665 0 0 1-2.703-1.578l-.104-.07v115.129l.013.135c.193 2.166 2.662 5.01 7.548 7.543l.38.195C46.168 266.154 54.753 268 64 268c9.248 0 17.833-1.846 24.058-4.973 5.01-2.517 7.6-5.37 7.91-7.57l.02-.168.012-.146V140.025Zm192 47.995-.176.115a35.53 35.53 0 0 1-2.62 1.533l-.146.076-.236.124-.107.055-.43.22a41.081 41.081 0 0 1-.964.465l-.24.112a65.88 65.88 0 0 1-.25.114c-4.14 1.874-8.947 3.27-14.123 4.136l-.27.044-.302.05-.255.039a70.772 70.772 0 0 1-2.342.325l-.306.036-.422.05a77.045 77.045 0 0 1-4.385.366l-.087.003c-.18.01-.362.02-.543.028l-.314.014-.383.016-.267.01c-.44.015-.883.027-1.327.035h-.044a80.843 80.843 0 0 1-2.923 0h-.042c-.445-.008-.888-.02-1.329-.035l-.265-.01-.385-.016-.313-.014a65.367 65.367 0 0 1-.543-.027l-.087-.005a77.073 77.073 0 0 1-4.217-.347l-.167-.019a53.902 53.902 0 0 1-.423-.048l-.306-.037a70.875 70.875 0 0 1-2.342-.325l-.255-.04-.302-.048-.27-.045c-5.176-.865-9.983-2.262-14.122-4.136a81.777 81.777 0 0 1-.49-.226l-.22-.103c-.25-.12-.499-.24-.744-.363l-.485-.247-.29-.15-.144-.078c-.925-.49-1.8-1-2.621-1.532l-.176-.115v68.059l.005.072c.125 1.802 2.469 4.431 7.295 6.84l.367.18C237.934 266.203 246.629 268 256 268c9.37 0 18.066-1.796 24.333-4.83 4.951-2.396 7.413-5.04 7.648-6.882l.019-.224V188.02ZM192 76.025l-.104.07a36.198 36.198 0 0 1-2.702 1.579c-.037.018-.072.037-.108.056-.09.048-.181.096-.273.143l-.098.05-.43.22a41.087 41.087 0 0 1-.964.465l-.24.112-.25.114c-4.14 1.874-8.947 3.27-14.123 4.136l-.27.044-.302.05-.255.039a70.782 70.782 0 0 1-2.342.325l-.306.036-.422.05a77.046 77.046 0 0 1-4.385.366l-.087.003c-.18.01-.362.02-.543.028l-.314.014-.383.016-.267.01c-.44.015-.883.027-1.327.035h-.044a80.842 80.842 0 0 1-2.923 0h-.042c-.445-.008-.888-.02-1.329-.035l-.265-.01-.385-.016-.313-.014a65.38 65.38 0 0 1-.543-.027l-.087-.005a77.073 77.073 0 0 1-4.217-.347l-.167-.019a53.883 53.883 0 0 1-.423-.048l-.306-.037a70.883 70.883 0 0 1-2.342-.325l-.255-.04-.302-.048-.27-.045c-5.176-.865-9.983-2.262-14.122-4.136a81.872 81.872 0 0 1-.49-.226l-.22-.103c-.25-.12-.499-.24-.744-.363l-.527-.269.022.012-.298-.154-.106-.058a35.666 35.666 0 0 1-2.703-1.578l-.104-.07v180.054l.005.072c.125 1.802 2.469 4.431 7.295 6.84l.367.18C141.934 266.203 150.629 268 160 268c9.37 0 18.066-1.796 24.333-4.83 4.951-2.396 7.413-5.04 7.648-6.882l.019-.224V76.025ZM256 164c-9.568 0-18.427 1.873-24.707 5.013C226.27 171.525 224 174.21 224 176c0 .213.032.44.097.676l.007.025.041.133.014.04.014.042.03.08.024.062.03.073-.022-.054.033.077.027.06.007.017.032.068.005.01.032.066.007.013.037.073.015.028.031.057.048.085.005.008.035.06-.034-.059c.043.076.09.152.139.228l.063.096.024.037-.024-.037a6.948 6.948 0 0 0 .381.518 8.8 8.8 0 0 0 .362.422l.156.167a11.02 11.02 0 0 0 .49.485l.005.005c.107.1.225.207.348.313.436.38.932.766 1.49 1.154l.218.15.111.075.113.074.039.026.077.05-.038-.024.148.096.095.06.222.14c.104.065.21.13.318.194l.253.15.259.15.055.032.077.044.057.031.101.057.383.21c.276.148.562.296.856.444 6.28 3.14 15.139 5.013 24.707 5.013 9.568 0 18.427-1.873 24.707-5.013.366-.183.717-.367 1.054-.552l.105-.057.08-.044.066-.038.092-.051.077-.045-.055.032.07-.04.246-.141c.104-.06.206-.121.306-.182l.245-.149.24-.15c.1-.063.2-.127.298-.191l.039-.027h.001l.038-.025-.039.025.113-.074.15-.1.219-.15a17.421 17.421 0 0 0 1.488-1.153c.122-.106.238-.21.35-.315l.005-.005a12 12 0 0 0 .59-.591 9.194 9.194 0 0 0 .584-.698c.058-.077.113-.153.165-.228l.024-.038.033-.047.055-.085.105-.169.007-.015.026-.044.014-.024.04-.07.046-.086.039-.073.005-.012.033-.066.005-.01.04-.084.014-.036.012-.025.04-.096.025-.062.03-.08-.001-.001.002-.005.012-.036.015-.04-.029.082a3.16 3.16 0 0 0 .07-.215l.007-.025A2.55 2.55 0 0 0 288 176c0-1.791-2.27-4.475-7.293-6.987-6.28-3.14-15.139-5.013-24.707-5.013ZM64 116c-9.568 0-18.427 1.873-24.707 5.013C34.27 123.525 32 126.21 32 128c0 1.791 2.27 4.475 7.293 6.987C45.573 138.127 54.432 140 64 140c9.568 0 18.427-1.873 24.707-5.013C93.73 132.475 96 129.79 96 128c0-1.791-2.27-4.475-7.293-6.987C82.427 117.873 73.568 116 64 116Zm96-64c-9.568 0-18.427 1.873-24.707 5.013-4.896 2.448-7.177 5.06-7.289 6.85A2.201 2.201 0 0 0 128 64c0 1.791 2.27 4.475 7.293 6.987C141.573 74.127 150.432 76 160 76c9.568 0 18.427-1.873 24.707-5.013C189.73 68.475 192 65.79 192 64l-.004-.136c-.112-1.79-2.392-4.402-7.29-6.85C178.427 53.873 169.569 52 160 52Z"/></g></svg>