<svg width="320" height="320" viewBox="0 0 320 320" xmlns="http://www.w3.org/2000/svg"><g id="Foundations/Icons/Brand-Icons/Energy-and-Resources/21-gas-holder" stroke="none" stroke-width="1" fill="none" fill-rule="evenodd"><path d="M296 312a8.05 8.05 0 0 0 8-8.1v-31.8a8.05 8.05 0 0 0-8-8.1h-24V30.2C272 17.93 224.35 8 160 8S48 17.93 48 30.2V264H24a8.05 8.05 0 0 0-8 8.1v31.8a8.05 8.05 0 0 0 8 8.1h272Z" id="lg-icon-fill-primary" fill="#FFD500"/><path d="M76 264a4 4 0 1 1 0 8 4 4 0 0 1 0-8Zm16-16a4 4 0 1 1 0 8 4 4 0 0 1 0-8Zm-16-16a4 4 0 1 1 0 8 4 4 0 0 1 0-8Zm16-16a4 4 0 1 1 0 8 4 4 0 0 1 0-8Zm-16-16a4 4 0 1 1 0 8 4 4 0 0 1 0-8Zm16-16a4 4 0 1 1 0 8 4 4 0 0 1 0-8Zm-16-16 .2.005A4 4 0 1 1 76 168Zm16-16 .2.005A4 4 0 1 1 92 152Zm-16-16 .2.005A4 4 0 1 1 76 136Zm16-16a4 4 0 1 1 0 8 4 4 0 0 1 0-8Zm-16-16a4 4 0 1 1 0 8 4 4 0 0 1 0-8Zm16-16a4 4 0 1 1 0 8 4 4 0 0 1 0-8ZM76 72a4 4 0 1 1 0 8 4 4 0 0 1 0-8Zm16-16a4 4 0 1 1 0 8 4 4 0 0 1 0-8ZM76 40l.2.005A4 4 0 1 1 76 40Z" id="Half-tone" fill="#000"/><path d="M296 264h-24V30.2C272 17.93 224.35 8 160 8S48 17.93 48 30.2V264H24a8.05 8.05 0 0 0-8 8.1v31.8a8.05 8.05 0 0 0 8 8.1h272a8.05 8.05 0 0 0 8-8.1v-31.8a8.05 8.05 0 0 0-8-8.1Zm-56 0h-72v-16.2h72V264Zm0-24.2h-72v-16.2h72v16.2Zm0-24.2h-72v-15.2h72v15.2Zm0-23.2h-72V176h72v16.4Zm0-24.4h-72v-16h72v16Zm0-24h-72v-16h72v16Zm0-24h-72v-16h72v16Zm0-24h-72V80h72v16Zm0-24h-72V56h72v16Zm0-24h-72V32h72v16Zm0-25.36V24h-72v-7.94c24.55.33 47.49 2.18 65.28 5.29 2.42.43 4.65.86 6.72 1.29Zm56 281.26a.265.265 0 0 1 0 .1H24a.265.265 0 0 1 0-.1v-31.8a.265.265 0 0 1 0-.1h32V31.22c1.38-1.28 7.69-5.83 30.72-9.87C106.43 17.9 132.45 16 160 16v256h88V24.52c11.24 3 15 5.75 16 6.7V272h32a.265.265 0 0 1 0 .1v31.8Z" id="Outlines" fill="#000"/></g></svg>