<svg xmlns="http://www.w3.org/2000/svg" width="320" height="320" viewBox="0 0 320 320"><g id="Foundations/Icons/Brand-Icons/Banking-and-Commerce/01-gavel" fill="none" fill-rule="evenodd" stroke="none" stroke-width="1"><path id="lg-icon-fill-primary" fill="#FFD500" d="M163.902 244.09h120v24h24v40h-168v-40h24v-24Z"/><path id="Half-tone" fill="#000" d="M203.902 160.09a4 4 0 1 1 0 8 4 4 0 0 1 0-8Zm16-16a4 4 0 1 1 0 8 4 4 0 0 1 0-8Zm16-16a4 4 0 1 1 0 8 4 4 0 0 1 0-8Zm-128-64a4 4 0 1 1 0 8 4 4 0 0 1 0-8Zm16-16a4 4 0 1 1 0 8 4 4 0 0 1 0-8Zm16-16a4 4 0 1 1 0 8 4 4 0 0 1 0-8Z"/><path id="Outlines" fill="#000" d="M279.602 240.09a8.31 8.31 0 0 1 8.3 8.3v15.4c0 .1-.002.2-.006.3h15.706a8.31 8.31 0 0 1 8.3 8.3v31.4a8.31 8.31 0 0 1-8.3 8.3h-159.4a8.31 8.31 0 0 1-8.3-8.3v-31.4a8.31 8.31 0 0 1 8.3-8.3h15.706a8.46 8.46 0 0 1-.006-.3v-15.4a8.31 8.31 0 0 1 8.3-8.3Zm24 32h-159.4a.31.31 0 0 0-.3.3v31.4a.31.31 0 0 0 .3.3h159.4a.31.31 0 0 0 .3-.3v-31.4a.31.31 0 0 0-.3-.3ZM141.682 8a8.28 8.28 0 0 1 5.87 2.43l16.83 16.83a8.3 8.3 0 0 1 0 11.74l.149-.156.161.156 68.21 68.24.18.185a8.264 8.264 0 0 1 5.73-2.295v-.04a8.28 8.28 0 0 1 5.87 2.43l16.82 16.82a8.32 8.32 0 0 1 0 11.75l-56.86 56.86a8.3 8.3 0 0 1-11.74 0l-16.78-16.83a8.29 8.29 0 0 1 0-11.74l-.155.159-.165-.159-16.992-16.995-.148.155-85.54 85.55 5.55 5.56a8.29 8.29 0 0 1 0 11.74l-16.82 16.83a8.3 8.3 0 0 1-11.74 0l-39.68-39.68a8.3 8.3 0 0 1 0-11.74l16.82-16.83a8.3 8.3 0 0 1 11.74 0l5.56 5.56 85.55-85.54c.053-.053.106-.105.16-.156l-22.7-22.704a8.298 8.298 0 0 1-.156-.16 8.318 8.318 0 0 1-11.594-.15l-16.82-16.83a8.3 8.3 0 0 1 0-11.74l56.82-56.82a8.27 8.27 0 0 1 5.87-2.43Zm137.92 240.09h-111.4a.31.31 0 0 0-.3.3v15.4a.31.31 0 0 0 .3.3h111.4a.31.31 0 0 0 .3-.3v-15.4a.31.31 0 0 0-.3-.3ZM135.968 124.549l-.055.005a.271.271 0 0 0-.151.086l-85.54 85.55a8 8 0 0 1-11.32 0l-5.57-5.56a.28.28 0 0 0-.22-.09.27.27 0 0 0-.21.09l-16.82 16.83a.273.273 0 0 0-.08.21.32.32 0 0 0 .08.21l39.68 39.68a.281.281 0 0 0 .22.09c.08.003.157-.03.21-.09l16.83-16.82a.28.28 0 0 0 .09-.22.27.27 0 0 0-.09-.21l-5.56-5.56a8 8 0 0 1 0-11.31l85.54-85.54a.281.281 0 0 0 .09-.235l-17.114-17.115-.01-.001Zm102.844-11.46v.041a.28.28 0 0 0-.22.09l-5.057 5.06a8.408 8.408 0 0 1-.633.71l-45.36 45.39a8.3 8.3 0 0 1-.848.74l-4.964 4.963a.24.24 0 0 0-.048.167.27.27 0 0 0 .09.21l16.83 16.83c.053.06.13.093.21.09a.281.281 0 0 0 .22-.09l56.87-56.77a.33.33 0 0 0 0-.43l-16.88-16.91a.27.27 0 0 0-.21-.09Zm-79.99-68.52h-.009L113.122 90.26c0 .08.033.155.09.21l27.786 27.78c.296.226.578.473.844.74l16.82 16.81a8.3 8.3 0 0 1 .754.866l22.056 22.054a.271.271 0 0 0 .221.09l45.678-45.679.001-.021a.272.272 0 0 0-.05-.166l-.04-.044-68.25-68.25a.319.319 0 0 0-.21-.08ZM141.682 16a.283.283 0 0 0-.22.091l-56.81 56.82a.31.31 0 0 0 0 .43l16.82 16.82c.053.06.13.093.21.09a.281.281 0 0 0 .22-.09l4.907-4.908c.23-.302.48-.59.753-.862L152.952 39a8.27 8.27 0 0 1 .899-.78l4.881-4.88a.271.271 0 0 0 .09-.21.281.281 0 0 0-.09-.22l-16.83-16.82a.272.272 0 0 0-.22-.09Z"/></g></svg>