<svg width="320" height="320" viewBox="0 0 320 320" xmlns="http://www.w3.org/2000/svg"><g id="Foundations/Icons/Brand-Icons/Online/36-goal" stroke="none" stroke-width="1" fill="none" fill-rule="evenodd"><path id="lg-icon-fill-primary" fill="#FFD500" d="M228 112h72v192h-72z"/><path d="M168 288a4 4 0 1 1 0 8 4 4 0 0 1 0-8Zm-32 0a4 4 0 1 1 0 8 4 4 0 0 1 0-8Zm16-16a4 4 0 1 1 0 8 4 4 0 0 1 0-8Zm32 0a4 4 0 1 1 0 8 4 4 0 0 1 0-8Zm-16-16a4 4 0 1 1 0 8 4 4 0 0 1 0-8Zm-32 0a4 4 0 1 1 0 8 4 4 0 0 1 0-8Zm48-16a4 4 0 1 1 0 8 4 4 0 0 1 0-8Zm-32 0a4 4 0 1 1 0 8 4 4 0 0 1 0-8Zm16-16a4 4 0 1 1 0 8 4 4 0 0 1 0-8Zm-32 0a4 4 0 1 1 0 8 4 4 0 0 1 0-8Zm48-16a4 4 0 1 1 0 8 4 4 0 0 1 0-8Zm-32 0a4 4 0 1 1 0 8 4 4 0 0 1 0-8Zm16-16a4 4 0 1 1 0 8 4 4 0 0 1 0-8Zm-32 0a4 4 0 1 1 0 8 4 4 0 0 1 0-8Zm48-16a4 4 0 1 1 0 8 4 4 0 0 1 0-8Zm-32 0a4 4 0 1 1 0 8 4 4 0 0 1 0-8Zm16-16a4 4 0 1 1 0 8 4 4 0 0 1 0-8Zm-32 0a4 4 0 1 1 0 8 4 4 0 0 1 0-8Z" id="Half-tone" fill="#000"/><path d="M262.36 8a5.65 5.65 0 0 1 4 1.62 5.5 5.5 0 0 1 1.64 3.91V104h31.7a8.31 8.31 0 0 1 8.3 8.3v191.4a8.31 8.31 0 0 1-8.3 8.3h-71.4a8.31 8.31 0 0 1-8.3-8.3V112.3a8.31 8.31 0 0 1 8.3-8.3H260V72h-82.36a5.65 5.65 0 0 1-4-1.62 5.5 5.5 0 0 1-1.64-3.91L186.87 40 172 13.53a5.5 5.5 0 0 1 1.61-3.91 5.65 5.65 0 0 1 4-1.62ZM195.7 144a8.31 8.31 0 0 1 8.3 8.3v151.4a8.31 8.31 0 0 1-8.3 8.3h-71.4a8.31 8.31 0 0 1-8.3-8.3V152.3a8.31 8.31 0 0 1 8.3-8.3Zm-104 56a8.31 8.31 0 0 1 8.3 8.3v95.4a8.31 8.31 0 0 1-8.3 8.3H20.3a8.31 8.31 0 0 1-8.3-8.3v-95.4a8.31 8.31 0 0 1 8.3-8.3Zm208-87.7h-71.4v191.4h71.4V112.3Zm-104 40h-71.4v151.4h71.4V152.3Zm-104 56H20.3v95.4h71.4v-95.4ZM260.06 15.94h-77.59l11.33 20.17a7.93 7.93 0 0 1 0 7.78l-11.33 20.17H260v-7.89h.06V15.94Z" id="Outlines" fill="#000"/></g></svg>