<svg width="320" height="320" viewBox="0 0 320 320" xmlns="http://www.w3.org/2000/svg"><g id="Foundations/Icons/Brand-Icons/Sports-and-Pastimes/12-goal-posts" stroke="none" stroke-width="1" fill="none" fill-rule="evenodd"><path id="lg-icon-fill-primary" fill="#FFD500" d="M136 216h48v99h-48z"/><path d="M152 292a4 4 0 1 1 0 8 4 4 0 0 1 0-8Zm16-16a4 4 0 1 1 0 8 4 4 0 0 1 0-8Zm-16-16 .2.005a4 4 0 1 1-.2-.005Zm16-16 .2.005a4 4 0 1 1-.2-.005Zm-16-16 .2.005a4 4 0 1 1-.2-.005Z" id="Half-tone" fill="#000"/><path d="M236 0a4 4 0 0 0-4 4v132a4 4 0 0 1-4 4H92a4 4 0 0 1-4-4V4a4 4 0 1 0-8 0v132c0 6.627 5.373 12 12 12h64v60h-20a8 8 0 0 0-8 8v96a8 8 0 0 0 8 8h48a8 8 0 0 0 8-8v-96a8 8 0 0 0-8-8h-20v-60h64c6.627 0 12-5.373 12-12V4a4 4 0 0 0-4-4Zm-52 216v96h-48v-96h48Z" id="Outlines" fill="#000"/></g></svg>