<svg xmlns="http://www.w3.org/2000/svg" width="320" height="320" viewBox="0 0 320 320"><g id="Foundations/Icons/Brand-Icons/Sports-and-Pastimes/14-golf-cart" fill="none" fill-rule="evenodd" stroke="none" stroke-width="1"><path id="lg-icon-fill-primary" fill="#FFD500" d="M72 32V8h192v24H72ZM45.67 288H16v-24h29.67v24Zm156 0h-71.34a43.95 43.95 0 0 0 0-24h71.34a43.95 43.95 0 0 0 0 24ZM304 288h-17.67a43.95 43.95 0 0 0 0-24H304v24Z"/><path id="Half-tone" fill="#000" d="M244 16a4 4 0 1 1 0 8 4 4 0 0 1 0-8Zm-32 0 .2.005A4 4 0 1 1 212 16Zm-32 0 .2.005A4 4 0 1 1 180 16Zm-32 0 .2.005A4 4 0 1 1 148 16Zm-32 0 .2.005A4 4 0 1 1 116 16Zm-32 0a4 4 0 1 1 0 8 4 4 0 0 1 0-8Z"/><path id="Outlines" fill="#000" d="M304 256h-8v-96a8.53 8.53 0 0 0-.16-1.61 9.65 9.65 0 0 0-.2-.77 8.09 8.09 0 0 0-3.17-4.25 7.44 7.44 0 0 0-1.36-.74A7.86 7.86 0 0 0 288 152h-20.63l-7.11-112H264a8 8 0 0 0 8-8V8a8 8 0 0 0-8-8H72a8 8 0 0 0-8 8v24a8 8 0 0 0 8 8h4.37L57.45 168H40a7.86 7.86 0 0 0-3.11.63 7.44 7.44 0 0 0-1.36.74 8.09 8.09 0 0 0-3.17 4.25c-.08.25-.14.51-.2.77A8.53 8.53 0 0 0 32 176v80H16a8 8 0 0 0-8 8v24a8 8 0 0 0 8 8h32.81a44 44 0 0 0 78.38 0h77.62a44 44 0 0 0 78.38 0H304a8 8 0 0 0 8-8v-24a8 8 0 0 0-8-8ZM72 32V8h192v24H72ZM45.67 288H16v-24h29.67v24ZM88 312c-19.882 0-36-16.118-36-36s16.118-36 36-36 36 16.118 36 36-16.118 36-36 36Zm40-56h-.81a44 44 0 0 0-78.38 0H40v-80h88v80Zm73.67 32h-71.34a43.95 43.95 0 0 0 0-24h71.34a43.95 43.95 0 0 0 0 24Zm1.86-134.63a8.09 8.09 0 0 0-3.17 4.25c-.08.25-.14.51-.2.77A8.53 8.53 0 0 0 200 160v96h-64v-80a8.35 8.35 0 0 0-.12-1.34l13.5-15.2L169 182.58a4 4 0 0 0 6.1-5.16l-44-52a4 4 0 0 0-6.1 5.16l19.21 22.72-13.48 15.17A8 8 0 0 0 128 168H65.53L84.45 40h167.8l7.1 112H208a7.86 7.86 0 0 0-3.11.63 7.44 7.44 0 0 0-1.36.74ZM244 312c-19.882 0-36-16.118-36-36s16.118-36 36-36 36 16.118 36 36-16.118 36-36 36Zm0-80a43.92 43.92 0 0 0-36 18.72V160h80v96h-4.81A44 44 0 0 0 244 232Zm60 32v24h-17.67a43.95 43.95 0 0 0 0-24H304Zm-216 8a4 4 0 1 1 0 8 4 4 0 0 1 0-8Zm156 0a4 4 0 1 1 0 8 4 4 0 0 1 0-8Z"/></g></svg>