<svg xmlns="http://www.w3.org/2000/svg" width="320" height="320" viewBox="0 0 320 320"><g id="Foundations/Icons/Brand-Icons/Health/08-h" fill="none" fill-rule="evenodd" stroke="none" stroke-width="1"><path id="lg-icon-fill-primary" fill="#FFD500" d="M88.5 72.12h40.1v64h63.9v-64h40.11v176.27H192.5v-72.27h-63.88v72.27H88.5z"/><path id="Half-tone" fill="#000" d="m28.5 280.5.2.005a4 4 0 1 1-.4 0l.2-.005Zm64 0a4 4 0 1 1 0 8 4 4 0 0 1 0-8Zm-32 0a4 4 0 1 1 0 8 4 4 0 0 1 0-8Zm96 0 .2.005a4 4 0 1 1-.4 0l.2-.005Zm-32 0a4 4 0 1 1 0 8 4 4 0 0 1 0-8Zm96 0a4 4 0 1 1 0 8 4 4 0 0 1 0-8Zm-32 0a4 4 0 1 1 0 8 4 4 0 0 1 0-8Zm96 0 .2.005a4 4 0 1 1-.4 0l.2-.005Zm-32 0a4 4 0 1 1 0 8 4 4 0 0 1 0-8Zm-224-32a4 4 0 1 1 0 8 4 4 0 0 1 0-8Zm256 0a4 4 0 1 1 0 8 4 4 0 0 1 0-8Zm-256-32a4 4 0 1 1 0 8 4 4 0 0 1 0-8Zm256 0a4 4 0 1 1 0 8 4 4 0 0 1 0-8Zm-256-32a4 4 0 1 1 0 8 4 4 0 0 1 0-8Zm256 0a4 4 0 1 1 0 8 4 4 0 0 1 0-8Zm-256-32 .2.005a4 4 0 1 1-.4 0l.2-.005Zm256 0 .2.005a4 4 0 1 1-.4 0l.2-.005Zm-256-32a4 4 0 1 1 0 8 4 4 0 0 1 0-8Zm256 0a4 4 0 1 1 0 8 4 4 0 0 1 0-8Zm-256-32a4 4 0 1 1 0 8 4 4 0 0 1 0-8Zm256 0a4 4 0 1 1 0 8 4 4 0 0 1 0-8Zm-256-32a4 4 0 1 1 0 8 4 4 0 0 1 0-8Zm256 0a4 4 0 1 1 0 8 4 4 0 0 1 0-8Zm-192-32a4 4 0 1 1 0 8 4 4 0 0 1 0-8Zm-32 0a4 4 0 1 1 0 8 4 4 0 0 1 0-8Zm-32 0 .2.005a4 4 0 1 1-.4 0l.2-.005Zm128 0 .2.005a4 4 0 1 1-.4 0l.2-.005Zm-32 0a4 4 0 1 1 0 8 4 4 0 0 1 0-8Zm96 0a4 4 0 1 1 0 8 4 4 0 0 1 0-8Zm-32 0a4 4 0 1 1 0 8 4 4 0 0 1 0-8Zm96 0 .2.005a4 4 0 1 1-.4 0l.2-.005Zm-32 0a4 4 0 1 1 0 8 4 4 0 0 1 0-8Z"/><path id="Outlines" fill="#000" d="M304 8a8 8 0 0 1 8 8v288a8 8 0 0 1-8 8H16a8 8 0 0 1-8-8V16a8 8 0 0 1 8-8Zm0 8H16v288h288V16ZM136.62 64.12v64h47.88v-64h56.11v192.27H184.5v-72.27h-47.88v72.27H80.5V64.12h56.12Zm-8.02 8H88.5v176.27h40.12v-72.27h63.88v72.27h40.11V72.12H192.5v64h-63.9v-64Z"/></g></svg>