<svg xmlns="http://www.w3.org/2000/svg" width="320" height="320" viewBox="0 0 320 320"><g id="Foundations/Icons/Brand-Icons/People/10-handshake" fill="none" fill-rule="evenodd" stroke="none" stroke-width="1"><path id="lg-icon-fill-primary" fill="#FFD500" d="m51.004 198-33.81-14.83 31.55-76.68 33.84 14.86L51.004 198Zm218-2.61-31.56-76.68 33.84-14.86 31.55 76.68-33.83 14.86Z"/><path id="Half-tone" fill="#000" d="M164.004 104a4 4 0 1 1 0 8 4 4 0 0 1 0-8Zm-48-16a4 4 0 1 1 0 8 4 4 0 0 1 0-8Zm96 0a4 4 0 1 1 0 8 4 4 0 0 1 0-8Zm-112-16a4 4 0 1 1 0 8 4 4 0 0 1 0-8Zm64 0a4 4 0 1 1 0 8 4 4 0 0 1 0-8Zm64 0a4 4 0 1 1 0 8 4 4 0 0 1 0-8Zm-144-16a4 4 0 1 1 0 8 4 4 0 0 1 0-8Zm160 0a4 4 0 1 1 0 8 4 4 0 0 1 0-8Zm-80-16a4 4 0 1 1 0 8 4 4 0 0 1 0-8Z"/><path id="Outlines" fill="#000" d="m311.704 181.13-34.6-84.08a4 4 0 0 0-5.31-2.14L230.634 113a4 4 0 0 0-2.09 5.19l2.22 5.4-.81.29a52.88 52.88 0 0 1-8.72 2.6c-4 .68-8.25-.62-12.7-2a56.59 56.59 0 0 0-9.27-2.3 167 167 0 0 0-27.21-.87c-.88 0-1.77 0-2.69.06-6.89.14-15.48.31-21.72 5.76-1.74 1.52-3.34 3.17-4.89 4.77-.73.76-1.46 1.51-2.21 2.25l-2.34 2.32-10.61-4.4c-4.19-1.73-9.92-1.11-16-.46-4.57.5-9.76 1.06-12 .11-3.62-1.49-7.81-3.1-10.83-4.24l2.75-6.69a4 4 0 0 0-2.09-5.18l-41.21-18.1a4 4 0 0 0-5.31 2.14l-34.6 84.08a4 4 0 0 0 2.09 5.19L51.554 207a4 4 0 0 0 5.31-2.14l2.78-6.77c3.447 2.473 7.273 4.973 11.48 7.5a12 12 0 0 0 2.68 4.2l3.42 3.44a11.87 11.87 0 0 0 4.67 2.91 12 12 0 0 0 2.88 12.13l3.42 3.45a11.88 11.88 0 0 0 8.47 3.54 11.85 11.85 0 0 0 3.58-.54 11.86 11.86 0 0 0 2.86 4.7l3.41 3.44a12 12 0 0 0 16.13.84 14.41 14.41 0 0 0 25.43 4.42l2.32-3.15a14.65 14.65 0 0 0 1.52-2.61c11.77 4.33 20 7 21.17 7.42a14.4 14.4 0 0 0 19.73-14.38l2.71 1.12a14.15 14.15 0 0 0 5.48 1.1 14.39 14.39 0 0 0 13.29-8.86v-.1a14.33 14.33 0 0 0 1-6.72 14.4 14.4 0 0 0 17.42-12.61c10.23-6.83 22.23-13.47 27.33-14.32l3 7.25a4 4 0 0 0 2.21 2.18 3.84 3.84 0 0 0 1.49.29 4.07 4.07 0 0 0 1.61-.33l41.16-18.09a4 4 0 0 0 2.19-5.18ZM51.004 198l-33.81-14.83 31.55-76.68 33.84 14.86L51.004 198Zm34.71 10.75a4 4 0 0 1-2.83-1.18l-3.41-3.44a4 4 0 0 1 0-5.66l17.33-17.17a4 4 0 0 1 2.82-1.15 4 4 0 0 1 2.82 1.18l3.41 3.45a4 4 0 0 1 0 5.65l-17.29 17.2a3.94 3.94 0 0 1-2.83 1.15l-.02-.03Zm13.8 17.34a4 4 0 0 1-2.82 1.14 4 4 0 0 1-2.82-1.17l-3.41-3.45a4 4 0 0 1 0-5.66l23.84-23.55a4 4 0 0 1 2.82-1.15 4 4 0 0 1 2.82 1.17l3.41 3.45a4 4 0 0 1 0 5.66l-23.84 23.56Zm28.05 1.56-9.68 9.58a4 4 0 0 1-5.65 0l-3.42-3.44a4 4 0 0 1 0-5.66l17.39-17.13a4 4 0 0 1 2.81-1.15 4 4 0 0 1 2.82 1.18l3.42 3.45a4 4 0 0 1 0 5.65l-4.48 4.44a28.51 28.51 0 0 0-3.19 3.11l-.02-.03Zm16.44 12.58-2.32 3.16a6.43 6.43 0 1 1-10.36-7.61l.89-1.21a39.6 39.6 0 0 1 3.47-3.74 6.42 6.42 0 0 1 8.32 9.4Zm40.43-1.38a6.45 6.45 0 0 1-8.39 3.47l-.3-.11c-.26-.09-9.37-3.05-22.68-8a14.37 14.37 0 0 0-5.71-9.42 14.31 14.31 0 0 0-4.22-2.12 12.09 12.09 0 0 0 1.13-7.42l36.53 15.14.16.07a6.35 6.35 0 0 1 3.47 3.47 6.43 6.43 0 0 1 0 4.92h.01Zm40-28.53a6.45 6.45 0 0 1-8.38 3.47l-65.76-27.24a4.004 4.004 0 1 0-3.06 7.4l56.32 23.33a6.38 6.38 0 0 1 3.46 8.31v.09a6.38 6.38 0 0 1-8.33 3.45l-14.94-6.13-51.39-21.32a12 12 0 0 0-3.29-10.4l-3.42-3.45a12 12 0 0 0-11-3.28 11.9 11.9 0 0 0-3-5.33l-3.42-3.45a11.93 11.93 0 0 0-8.47-3.55 11.92 11.92 0 0 0-8.45 3.47l-17.41 17.13a12 12 0 0 0-2.47 3.55c-3.07-1.94-6-3.91-8.65-5.88l22.89-55.62c3 1.13 7.25 2.76 10.83 4.24 4.18 1.73 9.9 1.11 16 .45 4.58-.5 9.77-1.06 12.07-.11l7.51 3.11-6.46 6.4a84.35 84.35 0 0 0-7.61 8.24c-4 5.2-4.56 9.28-1.75 12.12 5 5.05 10.26 6.39 14.45 6.39a20.89 20.89 0 0 0 2.85-.2 22.72 22.72 0 0 0 12.32-6l.17-.18 13.62-15.33 4 1.67c1.86.91 15.76 7.67 27 11.49.79.26 1.62.5 2.47.72l26.13 10.83a6.44 6.44 0 0 1 3.47 8.38 6.43 6.43 0 0 1-8.39 3.47l-56.13-23.25a4.65 4.65 0 0 0-.78-.24 4 4 0 0 0-2.28 7.63l56.17 23.3 9.63 4a6.45 6.45 0 0 1 3.47 8.38l.01-.06Zm6.67-9.42a14.31 14.31 0 0 0-5-5.25 14.42 14.42 0 0 0-3.76-24.34l-9.34-3.87a21.23 21.23 0 0 0 7.63-4.79 4 4 0 0 0 0-5.66 4 4 0 0 0-1-.69 4 4 0 0 0-4.7.66c-5.92 5.87-16.44 4.41-21.72 2.62a263.67 263.67 0 0 1-25.74-10.93c-3.61-3.12-9.83-4-13.39-.47l-.17.18-13.8 15.5a15 15 0 0 1-7.75 3.73 11.59 11.59 0 0 1-9.66-3.13c.81-1.77 3.64-5.06 8.44-9.81l15-14.83c.78-.77 1.55-1.57 2.33-2.36 1.49-1.55 2.91-3 4.4-4.32 4-3.53 10.44-3.66 16.62-3.78l2.79-.07a159 159 0 0 1 25.9.81 50.09 50.09 0 0 1 7.95 2c5.15 1.59 10.47 3.24 16.39 2.25a57.65 57.65 0 0 0 10.11-3l.44-.15.71-.25 23.29 56.6c-7.85 2.15-19.07 8.87-25.98 13.35h.01Zm37.9-5.48-31.56-76.68 33.84-14.86 31.55 76.68-33.83 14.86Z"/></g></svg>