<svg xmlns="http://www.w3.org/2000/svg" viewBox="0 0 320 320"><g id="Pensions-and-Retirement/Trusted-Growth" fill="none" fill-rule="evenodd" stroke="none" stroke-width="1"><path id="lg-icon-fill-primary" fill="#FFD500" d="m140.339 112.487 19.536 14.194c-3.252 37.19-15.913 47.77-37.982 31.735-22.069-16.034-15.92-31.344 18.446-45.93zm47.322-1c34.366 14.585 40.515 29.895 18.446 45.93-22.07 16.033-34.73 5.455-37.982-31.736l19.536-14.194zm45.164-33.903c8.43 25.943-5.543 34.715-41.92 26.315l-7.461-22.966c24.491-28.176 40.952-29.293 49.381-3.35zm-88.269 3.35-7.462 22.965c-36.376 8.4-50.349-.372-41.92-26.315 8.43-25.944 24.89-24.827 49.382 3.35zM164 28c27.279 0 31.303 16 12.074 48h-24.148C132.696 44 136.721 28 164 28z"/><path id="Half-tone" fill="#000" d="M51.996 256.036a4 4 0 0 1 4 4.001 4 4 0 0 1-4 4.002 4 4 0 0 1-4-4.002 4 4 0 0 1 4-4.001zm-15.998-16.008a4 4 0 0 1 4 4.002 4 4 0 0 1-4 4.002 4 4 0 0 1-4-4.002 4 4 0 0 1 4-4.002zm15.998-16.007a4 4 0 0 1 4 4.002 4 4 0 0 1-4 4.002 4 4 0 0 1-4-4.002 4 4 0 0 1 4-4.002zm-15.998-16.007a4 4 0 0 1 4 4.002 4 4 0 0 1-4 4.002 4 4 0 0 1-4-4.002 4 4 0 0 1 4-4.002zm15.998-16.007a4 4 0 0 1 4 4.002 4 4 0 0 1-4 4.001 4 4 0 0 1-4-4.001 4 4 0 0 1 4-4.002zm137.876-56.42a4 4 0 1 1 4.702 6.472 4 4 0 0 1-4.702-6.472zm-57.285.885a4 4 0 1 1 6.472 4.702 4 4 0 0 1-6.472-4.702zm47.88-13.83a4 4 0 1 1 4.703 6.473 4 4 0 0 1-4.702-6.472zm-38.475.886a4 4 0 1 1 6.472 4.702 4 4 0 0 1-6.472-4.702zM129.754 88.9a4 4 0 1 1 7.609 2.472 4 4 0 0 1-7.609-2.472zm63.435-2.618a4 4 0 1 1 2.472 7.608 4 4 0 0 1-2.472-7.608zm-78.651-2.326a4 4 0 1 1 7.608 2.472 4 4 0 0 1-7.608-2.472zm93.868-2.618a4 4 0 1 1 2.472 7.608 4 4 0 0 1-2.472-7.608zM164 64a4 4 0 1 1 0 8 4 4 0 0 1 0-8zm0-16a4 4 0 1 1 0 8 4 4 0 0 1 0-8z"/><path id="Outlines" fill="#000" d="M164 24c15.263 0 24.804 4.877 27.357 15.024 1.715 6.819-.01 15.544-5.022 26.33l-.512 1.087-.264.547-.545 1.107-.281.558-.578 1.127c-.196.378-.396.758-.6 1.141l-.62 1.155c-.317.58-.641 1.167-.973 1.758l-.676 1.19c-.114.2-.23.4-.346.6l-.708 1.211-.144.245c.243.171.483.346.72.524l.198-.225.933-1.048.464-.514.923-1.01c.46-.5.917-.989 1.371-1.469l.907-.948c.3-.312.6-.62.9-.923l.893-.897.444-.44.884-.86c.147-.141.293-.282.44-.42l.874-.823a90.68 90.68 0 0 1 3.01-2.682l.846-.71c7.167-5.923 13.671-9.116 19.634-9.52 10.44-.709 18.026 6.858 22.742 21.374 4.717 14.516 3.027 25.098-5.835 30.66-5.954 3.739-14.785 4.795-26.594 3.362l-1.19-.152-.603-.082-1.22-.177c-.206-.03-.412-.062-.618-.094l-1.25-.201c-.421-.07-.844-.143-1.271-.218l-1.29-.234a146.9 146.9 0 0 1-1.974-.382l-1.34-.274a163.63 163.63 0 0 1-.678-.144l-1.37-.299-.257-.057c-.09.295-.185.589-.285.88l.262.113 1.284.564.633.282 1.246.565c.616.283 1.223.567 1.82.851l1.182.57c.389.19.774.38 1.155.57l1.13.572.555.287 1.092.574.535.288 1.053.578a90.682 90.682 0 0 1 3.48 2.034l.937.586c7.848 4.985 12.895 10.184 15.122 15.73 3.9 9.71-.953 19.263-13.3 28.235-12.349 8.971-22.934 10.634-30.964 3.925-4.223-3.53-7.428-9.242-9.718-17.157v38.805c3.905-5.112 9.238-8.795 16-11.049l2.087-.69 1.356-.443 1.983-.639 1.92-.607 1.246-.387 1.816-.556 1.755-.524 1.135-.332 1.65-.473 1.066-.297 1.547-.42.996-.263.969-.25.941-.235.914-.221.885-.208.859-.194 1.235-.264 1.173-.234.747-.138.72-.125.35-.057.678-.104.328-.047.637-.083.61-.069.58-.055.554-.042.266-.015.513-.021c.166-.005.327-.007.484-.007l-.002.662-.014 1.308c-.33 19.693-5.658 32.378-15.984 38.057-8.836 4.859-19.503 7.516-31.999 7.973v7.136c.257.291.511.585.764.882l32.058.003c8.159 0 14.853 6.659 15.338 15.033l54.074-21.836c.9-.339 8.123-2.887 13.308.71 2.033 1.41 4.457 4.277 4.457 9.932 0 12.473-12.202 19.458-15.255 21.01l-.294.147-.081.04c-5.22 3.33-74.04 46.943-99.385 46.943-23.069 0-62.74-18.327-77.263-25.437-1.159 5.414-5.978 9.483-11.729 9.483H27.998c-6.616 0-11.998-5.385-11.998-12.004v-80.037C16 181.385 21.382 176 27.999 176h31.996c5.215 0 9.663 3.345 11.314 8.003h12.684c6.616 0 11.999 5.386 11.999 12.006l-.001.237c8.72-.262 40.612.21 64.01 19.217V148.4c-2.286 7.834-5.477 13.495-9.673 17-8.03 6.71-18.615 5.047-30.963-3.924-12.348-8.972-17.2-18.525-13.3-28.235 2.62-6.524 9.143-12.57 19.539-18.35l1.052-.578.536-.288 1.091-.574.555-.287 1.13-.572c.381-.19.766-.38 1.156-.57l1.181-.57c.598-.284 1.204-.568 1.821-.85l1.246-.566.632-.282 1.285-.564.221-.095a27.78 27.78 0 0 1-.278-.855l-.286.064-1.37.3-.679.143-1.34.274c-.665.134-1.323.261-1.973.382l-1.29.234c-.427.075-.85.148-1.27.218l-1.251.201c-.207.032-.413.064-.618.094l-1.22.177-.603.082-1.19.152c-1.379.167-2.716.3-4.012.4l-1.102.076c-9.28.58-16.42-.66-21.48-3.837-8.763-5.501-10.513-15.908-5.992-30.173l.156-.488c4.717-14.516 12.303-22.083 22.743-21.375 7.014.476 14.78 4.812 23.49 12.913l.874.822.44.421.883.86.445.44.893.897c.299.304.599.611.9.923l.906.948c.455.48.912.97 1.372 1.468l.923 1.01.464.515.933 1.048.178.202c.249-.188.5-.371.756-.55l-.144-.246-.708-1.21-.346-.6-.676-1.19c-.332-.592-.656-1.178-.972-1.759l-.622-1.155c-.203-.383-.403-.763-.6-1.14l-.577-1.128-.28-.558-.546-1.107-.264-.547-.512-1.086a90.68 90.68 0 0 1-1.62-3.692l-.413-1.024c-3.42-8.646-4.447-15.82-2.989-21.615C139.196 28.877 148.737 24 164 24zM95.99 204.263l-.001 57.494c9.983 4.99 53.87 26.24 76.996 26.24 6.638 0 21.769-3.945 56.148-22.736 16.08-8.789 30.496-17.66 36.359-21.33l.44-.275c1.335-.837 2.14-1.35 2.309-1.458l.032-.02a4.023 4.023 0 0 1 .58-.31l.117-.058c1.485-.741 11.03-5.823 11.03-13.95 0-.988-.13-2.736-1.007-3.35-1.195-.837-4.136-.448-5.83.157l-59.351 23.966-.048.018c-2.734 4.438-7.514 7.385-12.941 7.385h-53.047a4 4 0 0 1-4-4.002 4 4 0 0 1 4-4.002h53.047c4.062 0 7.367-3.59 7.367-8.004 0-4.413-3.305-8.003-7.367-8.003h-33.94l-.105-.002h-.028l-.062-.004h-.016.003l-.059-.003c-.05-.003-.1-.007-.15-.013l-.079-.01a2.973 2.973 0 0 1-.135-.018l-.06-.01a3.055 3.055 0 0 1-.164-.032l-.032-.008a2.949 2.949 0 0 1-.16-.039l-.065-.018a3.88 3.88 0 0 1-.875-.37l-.046-.028a3.087 3.087 0 0 1-.129-.078l-.02-.014-.02-.014a2.793 2.793 0 0 1-.12-.081l-.047-.035a3.757 3.757 0 0 1-.62-.565 4.095 4.095 0 0 1-.155-.185l.021.026c-20.837-26.039-59.383-26.49-67.771-26.26zm-11.997-12.256H71.994v80.036h11.999c2.206 0 4-1.795 4-4.002v-72.032a4.005 4.005 0 0 0-4-4.002zm-23.998-8.004H28c-2.206 0-4 1.795-4 4.002v80.037c0 2.206 1.794 4 3.999 4h35.997v-84.037a4.005 4.005 0 0 0-4-4.002zm147.571-6.64-.637.152-1.028.254-1.07.274-1.114.293-1.156.314-1.198.333-1.24.352-1.282.372-1.323.392-2.061.625-1.425.441-1.903.6-1.81.58-.927.3-1.894.623-.968.321c-10.395 3.465-16.35 11.105-18.032 24.085l-.038.3.427-.019c10.532-.516 19.428-2.757 26.739-6.657l.52-.281c6.136-3.375 10.087-10.945 11.385-23.306l.035-.349zm-66.387-61.136-.71.304-1.226.538-1.2.539-.588.269-1.157.538c-.381.18-.758.359-1.13.538l-1.101.538-.54.269-1.06.537-.52.269-1.017.536-.99.537a84.523 84.523 0 0 0-3.682 2.139l-.851.533c-.14.088-.278.177-.415.266l-.81.531-.781.531a51.128 51.128 0 0 0-2.517 1.85l-.656.526c-3.428 2.801-5.673 5.55-6.74 8.207-2.217 5.522.772 11.547 10.173 18.484l.407.298c9.72 7.062 16.5 8.127 21.13 4.258 2.198-1.836 4.119-4.82 5.724-8.946l.297-.787c.343-.934.67-1.923.982-2.965l.263-.908.256-.934.125-.477.243-.974a83.17 83.17 0 0 0 .792-3.619l.208-1.094.101-.557.196-1.134.095-.577.183-1.173.09-.597.17-1.214.083-.617.158-1.254.076-.636.146-1.294.07-.656.133-1.334.071-.778a28.057 28.057 0 0 1-14.481-10.51zm45.653-.015a28.058 28.058 0 0 1-14.446 10.51l.072.793.133 1.334.141 1.306.074.644.155 1.267c.052.417.107.83.162 1.24l.171 1.214.09.597.183 1.173.095.577.196 1.134.204 1.108c.277 1.458.576 2.846.896 4.162l.244.974.125.477.255.934.264.908a51.13 51.13 0 0 0 .981 2.965l.297.787c1.606 4.125 3.526 7.11 5.724 8.946 4.565 3.815 11.22 2.833 20.722-3.964l.409-.294c9.72-7.063 12.829-13.181 10.58-18.782-1.067-2.657-3.312-5.406-6.74-8.207l-.657-.526a51.129 51.129 0 0 0-2.516-1.85l-.782-.53-.81-.532a68.058 68.058 0 0 0-.414-.266l-.851-.533a83.17 83.17 0 0 0-3.198-1.871l-.976-.536c-.165-.09-.33-.18-.498-.269l-1.018-.536c-.172-.09-.345-.18-.52-.269l-1.06-.537c-.178-.09-.358-.18-.54-.269l-1.1-.538-.562-.269-1.143-.538-.582-.27-1.185-.538c-.2-.09-.401-.18-.603-.269l-1.227-.538zM164 80c-11.046 0-20 8.954-20 20s8.954 20 20 20 20-8.954 20-20-8.954-20-20-20zm-64.522-1.468-.157.48c-3.713 11.427-2.631 18.204 2.48 21.412 2.425 1.523 5.857 2.427 10.277 2.679l.84.04a51.13 51.13 0 0 0 3.123.017l.944-.03.968-.046c.163-.009.327-.018.492-.029l1.002-.069a83.17 83.17 0 0 0 3.686-.365l1.105-.14.56-.076 1.14-.164a110 110 0 0 0 .578-.089l1.173-.188c.197-.032.396-.066.595-.1l1.207-.212.612-.112 1.242-.237.629-.124 1.275-.261c.214-.045.43-.09.646-.137l1.31-.285.797-.182L136 100a27.875 27.875 0 0 1 5.506-16.677l-.527-.6-.891-1.001-.883-.974c-.146-.16-.292-.32-.438-.477l-.87-.935c-.288-.307-.575-.61-.86-.907l-.852-.882-.423-.43-.838-.842-.416-.411-.825-.802-.816-.776a84.522 84.522 0 0 0-3.172-2.841l-.77-.645c-.127-.105-.254-.21-.381-.312l-.756-.606-.746-.579a51.128 51.128 0 0 0-2.537-1.822l-.703-.462c-3.724-2.394-7.032-3.68-9.889-3.873-5.936-.403-10.742 4.302-14.435 15.386zM214.07 63.096c-2.857.194-6.165 1.479-9.888 3.873l-.704.462a51.128 51.128 0 0 0-2.536 1.822l-.747.58-.755.605a68.04 68.04 0 0 0-.382.312l-.77.645a83.17 83.17 0 0 0-2.767 2.463l-.811.762-.41.392-.825.802-.415.41-.839.843-.423.43-.851.882-.43.45-.865.921-.436.47-.878.961-.442.49-.892 1.001-.538.614A27.875 27.875 0 0 1 192 100.268l.78.178 1.31.285 1.286.27.635.128 1.252.244c.414.08.824.156 1.23.229l1.208.212c.199.034.397.068.595.1l1.173.188.578.089 1.139.164 1.116.148c1.473.187 2.885.33 4.236.433l1.002.07c.165.01.329.02.492.028l.967.046.944.03c1.088.025 2.13.02 3.123-.018l.84-.04c4.42-.25 7.853-1.155 10.278-2.678 5.039-3.163 6.162-9.795 2.634-20.932l-.154-.48c-3.713-11.428-8.572-16.275-14.593-15.866zM164 32c-12.016 0-18.126 3.123-19.598 8.976-.699 2.777-.499 6.32.628 10.601l.222.812c.272.957.588 1.949.949 2.975l.32.89.342.905.18.46.375.93a83.17 83.17 0 0 0 1.487 3.394l.474 1.007.246.51.508 1.033.262.522.542 1.058.279.535.575 1.082c.097.182.196.365.296.548l.608 1.107.313.56.642 1.132.33.573.676 1.156.41.69A27.968 27.968 0 0 1 164 72c3.124 0 6.128.512 8.934 1.455l.41-.689.676-1.156.654-1.14.318-.565.62-1.116c.203-.369.402-.735.597-1.099l.575-1.082.28-.535.54-1.058c.09-.175.177-.349.263-.522l.508-1.033.486-1.016a84.524 84.524 0 0 0 1.721-3.894l.376-.932.179-.459.342-.906.32-.889c.361-1.026.677-2.018.95-2.975l.221-.812c1.127-4.281 1.327-7.824.628-10.601-1.451-5.77-7.411-8.887-19.094-8.974L164 32z"/></g></svg>