<svg width="320" height="320" viewBox="0 0 320 320" xmlns="http://www.w3.org/2000/svg"><g id="Foundations/Icons/Brand-Icons/Health/11-heartbeat" stroke="none" stroke-width="1" fill="none" fill-rule="evenodd"><path d="M291.667 37.3C256.38.448 198.215-1.952 160 31.868 121.785-1.953 63.621.447 28.333 37.301c-37.777 39.41-37.777 101.526 0 140.937l125.935 129.85L160 314l5.732-5.911 125.935-129.851c37.777-39.41 37.777-101.526 0-140.937ZM34.065 42.815a87.14 87.14 0 0 1 62.967-26.89A87.14 87.14 0 0 1 160 42.813a87.149 87.149 0 0 1 62.973-26.89 87.149 87.149 0 0 1 62.972 26.89 93.532 93.532 0 0 1 24.753 80.61h-60.98a3.99 3.99 0 0 0-3.369 1.85l-28.909 45.43L171.584 66.1a4.048 4.048 0 0 0-3.818-2.388 3.987 3.987 0 0 0-3.609 2.687l-44.162 128.567L84.008 94.215a3.99 3.99 0 0 0-7.178-.707l-22.758 37.877H10.987c-7.875-30.592-.2-64.557 23.078-88.57Zm251.88 129.88L160 302.556 34.065 172.695a91.83 91.83 0 0 1-20.606-33.349h42.866c1.4 0 2.698-.732 3.42-1.93l19.588-32.592 37.034 103.498a3.987 3.987 0 0 0 3.758 2.677 3.987 3.987 0 0 0 3.738-2.687l44.56-129.671 44.74 102.105a3.99 3.99 0 0 0 6.978.537l31.771-49.898h57.101a92.021 92.021 0 0 1-23.068 41.31Z" id="Outlines" fill="#000"/></g></svg>