<svg width="320" height="320" viewBox="0 0 320 320" xmlns="http://www.w3.org/2000/svg"><g id="Foundations/Icons/Brand-Icons/Health/12-heart" stroke="none" stroke-width="1" fill="none" fill-rule="evenodd"><path d="M291.667 37.3C256.38.448 198.215-1.952 160 31.868 121.785-1.953 63.621.447 28.333 37.301c-37.777 39.41-37.777 101.526 0 140.937l125.935 129.85L160 314l5.732-5.911 125.935-129.851c37.777-39.41 37.777-101.526 0-140.937Zm-5.722 135.345L160 302.555 34.065 172.695c-34.781-35.827-34.781-93.995 0-129.86a87.139 87.139 0 0 1 62.963-26.9A87.139 87.139 0 0 1 160 42.814a87.149 87.149 0 0 1 62.973-26.892 87.149 87.149 0 0 1 62.972 26.891c34.771 35.886 34.771 94.025 0 129.88v-.049Z" id="Outlines" fill="#000"/></g></svg>