<svg xmlns="http://www.w3.org/2000/svg" viewBox="0 0 320 320"><g id="Foundations/Icons/Brand-Icons/Help-Advice" fill="none" fill-rule="evenodd" stroke="none" stroke-width="1"><path id="lg-icon-fill-primary" fill="#FFD500" d="m174.163 224 .227.006c2.177.108 3.975 1.762 4.228 3.923l.02.211 6.049 71.041.012.187.004.187c0 2.403-1.928 4.37-4.343 4.442l-.21.003h-40.962l-.188-.004-.189-.012c-2.416-.202-4.231-2.271-4.102-4.662l.015-.208 6.05-71.043.025-.223c.291-2.14 2.106-3.777 4.3-3.845l.214-.003h28.85zM20.455 135l.218.006.213.016 71.043 6.05.223.024c2.14.291 3.777 2.106 3.845 4.3l.003.214v28.85l-.006.227c-.108 2.177-1.762 3.975-3.923 4.228l-.211.02-71.041 6.05-.187.011-.187.004c-2.403 0-4.37-1.928-4.442-4.343l-.003-.21v-40.962l.004-.188.012-.189c.196-2.34 2.144-4.117 4.439-4.108zm278.948-.294c2.353-.083 4.381 1.712 4.581 4.105l.012.189.004.188v41.03l-.005.224c-.116 2.373-2.06 4.261-4.44 4.261a4.23 4.23 0 0 1-.373-.016l-71.111-6.055-.221-.024c-2.193-.297-3.85-2.189-3.85-4.445v-28.92l.005-.224c.11-2.23 1.838-4.055 4.066-4.245l71.11-6.055zM180.515 16l.224.005c2.373.116 4.26 2.06 4.26 4.44 0 .124-.004.249-.015.373L178.93 91.93l-.024.221c-.297 2.193-2.19 3.85-4.445 3.85h-28.92l-.224-.005c-2.23-.11-4.056-1.838-4.245-4.066l-6.055-71.11-.013-.222c-.084-2.353 1.712-4.381 4.105-4.581.126-.01.251-.016.377-.016h41.03z"/><path id="Half-tone" fill="#000" d="M80 268a4 4 0 0 1 3.93 4.748 132.52 132.52 0 0 1-5.909-4.224A3.971 3.971 0 0 1 80 268zm160 0c.72 0 1.396.19 1.98.523a135.85 135.85 0 0 1-5.907 4.227A4 4 0 0 1 240 268zm-16-16a4 4 0 1 1 0 8 4 4 0 0 1 0-8zm-128 0a4 4 0 1 1 0 8 4 4 0 0 1 0-8zm-32 0a4 4 0 0 1 2.702 6.95 135.313 135.313 0 0 1-5.652-5.65c.73-.8 1.782-1.3 2.95-1.3zm192 0c1.168 0 2.22.5 2.95 1.3a136.474 136.474 0 0 1-5.65 5.65A4 4 0 0 1 256 252zm-16-16a4 4 0 1 1 0 8 4 4 0 0 1 0-8zm-32 0a4 4 0 1 1 0 8 4 4 0 0 1 0-8zm-96 0a4 4 0 1 1 0 8 4 4 0 0 1 0-8zm-32 0a4 4 0 1 1 0 8 4 4 0 0 1 0-8zm-32 0a4 4 0 0 1 3.477 5.98c-1.46-1.93-2.87-3.9-4.227-5.907A3.74 3.74 0 0 1 48 236zm224 0a4 4 0 0 1 .747.07 131.583 131.583 0 0 1-4.223 5.909A4 4 0 0 1 272 236zM96 220a4 4 0 1 1 0 8 4 4 0 0 1 0-8zm-32 0a4 4 0 1 1 0 8 4 4 0 0 1 0-8zm160 0a4 4 0 1 1 0 8 4 4 0 0 1 0-8zm32 0a4 4 0 1 1 0 8 4 4 0 0 1 0-8zM80 204a4 4 0 1 1 0 8 4 4 0 0 1 0-8zm160 0a4 4 0 1 1 0 8 4 4 0 0 1 0-8zM80 108a4 4 0 1 1 0 8 4 4 0 0 1 0-8zm160 0a4 4 0 1 1 0 8 4 4 0 0 1 0-8zm16-16a4 4 0 1 1 0 8 4 4 0 0 1 0-8zm-32 0a4 4 0 1 1 0 8 4 4 0 0 1 0-8zM64 92a4 4 0 1 1 0 8 4 4 0 0 1 0-8zm32 0a4 4 0 1 1 0 8 4 4 0 0 1 0-8zm172.524-13.98a136.41 136.41 0 0 1 4.227 5.908 4 4 0 0 1-4.296-5.782zM208 76a4 4 0 1 1 0 8 4 4 0 0 1 0-8zm-96 0a4 4 0 1 1 0 8 4 4 0 0 1 0-8zm-32 0a4 4 0 1 1 0 8 4 4 0 0 1 0-8zm-28 4a4 4 0 0 1-4.747 3.93c1.354-2.01 2.763-3.98 4.223-5.91.334.584.524 1.26.524 1.98zm188-4a4 4 0 1 1 0 8 4 4 0 0 1 0-8zm-16-16a4 4 0 1 1 0 8 4 4 0 0 1 0-8zM96 60a4 4 0 1 1 0 8 4 4 0 0 1 0-8zm-28 4a4 4 0 0 1-6.95 2.701 135.717 135.717 0 0 1 5.65-5.651c.8.732 1.3 1.782 1.3 2.95zm185.3-2.95a136.852 136.852 0 0 1 5.65 5.65 4 4 0 1 1-5.712-5.593zm-17.227-13.8a136.41 136.41 0 0 1 5.906 4.226 4 4 0 0 1-5.936-4.067zM84 48a4 4 0 0 1-5.98 3.477c1.93-1.461 3.9-2.87 5.908-4.228.048.246.072.496.072.751z"/><path id="Outlines" fill="#000" d="M178.297 12c5.253 0 9.718 3.376 11.344 8.077 23.228.161 35.179.62 46.641 1.777l.929.095.928.099.928.101.751.085c20.195 2.323 33.118 7.045 42.01 15.937 9.003 9.003 13.73 22.136 16.023 42.762l.024.222.12 1.11c.116 1.085.225 2.169.327 3.263l.076.822c.968 10.666 1.372 22.44 1.523 43.71 4.347 1.507 7.625 5.458 8.037 10.338a12 12 0 0 1 .037.672l.005.337V178c0 5.252-3.375 9.716-8.074 11.343-.139 20.353-.502 32.003-1.357 42.311l-.069.808c-.046.537-.093 1.07-.142 1.603l-.075.796c-.038.397-.076.794-.116 1.19l-.097.963-.05.482-.19 1.75c-2.254 20.118-6.831 33.05-15.44 42.01-8.43 8.773-20.603 13.608-39.316 16.106l-.762.1-1.505.187-.924.11-.925.105c-12.057 1.357-25.021 1.888-49.616 2.063a12.036 12.036 0 0 1-10.732 8.056l-.3.013-.31.004h-36.594a12 12 0 0 1-1.008-.042c-4.862-.41-8.813-3.67-10.325-8.036-21.011-.149-32.67-.544-43.278-1.487l-.776-.07c-.387-.035-.773-.072-1.159-.109l-.955-.093c-.477-.048-.954-.097-1.43-.147l-.955-.101-.767-.085c-20.117-2.254-33.048-6.831-42.01-15.44-9.006-8.655-13.863-21.255-16.3-40.827l-.092-.756-.057-.476c-.1-.84-.195-1.684-.286-2.533l-.09-.851c-1.192-11.467-1.676-24.26-1.843-47.307a12.037 12.037 0 0 1-8.058-10.732l-.013-.3-.004-.311v-36.593a12 12 0 0 1 .042-1.01c.411-4.87 3.683-8.827 8.035-10.334.155-22.237.582-34.138 1.633-45.17l.08-.827.04-.413.084-.824.087-.824.044-.411.19-1.71c2.322-20.194 7.044-33.117 15.937-42.01 8.892-8.892 21.815-13.614 42.01-15.937l.751-.085.494-.054c.918-.1 1.835-.196 2.756-.288l.922-.09.76-.07.762-.07c10.643-.955 22.457-1.352 43.731-1.5 1.508-4.347 5.458-7.623 10.337-8.035a12 12 0 0 1 .672-.037l.336-.005h36.594zm-31.428 216-.191.002-.201.011a4.001 4.001 0 0 0-3.603 3.252l-.031.198-.022.2-.198 2.341h-.001l-5.197 61.599-.013.187a4 4 0 0 0 3.503 4.18l.054.004.101.012.168.01.168.004h36.532l.188-.002a4.77 4.77 0 0 0 .27-.017l-.005-.001a3.983 3.983 0 0 0 .418-.062l-.032.006a3.959 3.959 0 0 0 .443-.113l-.07.02c.061-.018.121-.037.18-.058l-.11.038c.063-.02.126-.042.187-.065l-.076.027a3.96 3.96 0 0 0 .183-.07l-.107.043c.057-.021.113-.044.168-.068l-.06.025c.064-.026.127-.054.19-.084l-.13.06c.06-.026.118-.053.176-.081l-.046.021c.062-.029.122-.06.181-.091l-.135.07.161-.083-.026.013c.056-.03.112-.061.166-.094l-.14.08c.056-.03.111-.062.166-.095l-.026.015c.054-.032.107-.066.159-.1l-.133.085a4 4 0 0 0 .17-.11l-.037.025a4.007 4.007 0 0 0 .363-.273l-.07.058c.042-.034.084-.068.124-.104l-.054.046c.047-.039.092-.079.137-.12l-.083.074a3.59 3.59 0 0 0 .17-.157l-.087.083a3.51 3.51 0 0 0 .124-.12l-.037.037c.044-.043.086-.086.128-.13l-.09.093c.049-.05.097-.1.144-.153l-.054.06.096-.108-.042.048a4.023 4.023 0 0 0 .296-.374l-.058.082a4.012 4.012 0 0 0 .28-.436l-.07.123a4 4 0 0 0 .091-.161l-.021.038a3.98 3.98 0 0 0 .496-1.734L182 296l-.004-.168-.01-.168-.119-1.4-5.276-62.538-.018-.19a4 4 0 0 0-3.771-3.531L172.6 228h-25.731zM28.316 207.644l.016.543c.295 12.858.825 21.599 1.746 29.81l.104.91.2 1.674c2.231 17.91 6.463 28.89 13.904 36.04 7.447 7.154 18.83 11.182 37.35 13.258l.745.082.465.05 1.326.138.885.089c.591.058 1.184.114 1.78.168l.896.08c6.893.606 14.316.978 24.644 1.202-39.004-14.104-69.948-45.045-84.061-84.044zm263.372-.02-.278.77c-14.234 38.638-45.022 69.269-83.763 83.29 12.685-.285 21.387-.79 29.458-1.664l.905-.1.451-.05 2.12-.253c17.91-2.23 28.89-6.462 36.04-13.904 6.962-7.246 10.964-18.22 13.087-35.873l.087-.74.166-1.481.095-.892.093-.892c.809-7.962 1.276-16.084 1.539-28.21zm-107.052 24.294 4.792 56.79c49.273-11.22 88.06-50.007 99.28-99.28l-56.79-4.792c-7.588 22.156-25.126 39.694-47.282 47.282zM88.18 184.925l-56.822 4.794c11.26 48.94 49.731 87.486 98.63 98.854l4.798-56.855c-21.787-7.66-39.031-24.966-46.606-46.793zm93.937-89.247-.014.019a11.985 11.985 0 0 1-8.906 4.3l-.301.003h-25.794c-3.687 0-7.012-1.67-9.221-4.32-19.764 6.793-35.411 22.44-42.205 42.205a12.054 12.054 0 0 1 4.305 8.596l.014.307.004.316v25.793c0 3.677-1.663 7-4.322 9.213 6.765 19.692 22.32 35.297 41.978 42.134a12.048 12.048 0 0 1 8.528-4.226l.306-.014.316-.004H172.6c3.713 0 7.066 1.696 9.279 4.402 19.953-6.775 35.744-22.564 42.522-42.516a11.98 11.98 0 0 1-4.397-8.985L220 172.6v-25.793c0-3.651 1.637-6.946 4.241-9.155-6.835-19.654-22.436-35.206-42.123-41.974zm-158.11 42.025a4.001 4.001 0 0 0-3.972 3.464l-.012.105-.01.095-.01.168-.004.169v36.532l.002.188a4.014 4.014 0 0 0 .067.617l-.018-.101c.012.073.026.145.041.216l-.023-.115c.013.072.029.143.046.213l-.023-.098c.013.059.027.117.043.175l-.02-.077c.016.065.033.13.052.193l-.032-.116c.015.059.032.117.05.175l-.018-.06.05.156-.031-.096c.024.076.05.15.078.225l-.047-.129c.023.065.047.129.072.192l-.025-.063c.022.057.045.113.07.169l-.045-.106c.025.062.052.123.08.184l-.035-.078c.025.057.05.113.078.169l-.043-.091c.029.062.06.124.092.185l-.049-.094.08.153-.031-.059c.032.062.066.122.102.182l-.07-.123c.03.054.06.108.093.16l-.023-.037c.03.05.06.1.093.148l-.07-.11a4 4 0 0 0 .114.176l-.044-.066c.039.059.079.116.12.173l-.076-.107.097.134-.02-.027c.038.053.079.105.12.156l-.1-.129c.042.056.085.111.13.165l-.03-.036.09.106-.06-.07c.046.055.093.108.142.16l-.082-.09c.041.047.084.094.127.139l-.045-.048c.04.043.08.085.123.126l-.078-.078c.045.047.092.093.139.137l-.061-.059c.047.047.096.093.146.137l-.085-.078.104.095-.02-.017c.046.04.092.08.139.118l-.119-.1c.07.06.141.12.215.176l-.096-.076c.046.038.094.075.142.11l-.046-.034c.047.036.095.07.144.105l-.098-.07c.054.04.11.078.165.115l-.067-.045c.047.032.094.064.143.095l-.076-.05c.053.036.108.07.163.104l-.087-.054a4 4 0 0 0 .427.236l-.078-.038c.05.025.102.05.154.073l-.076-.035c.057.027.115.053.173.077l-.097-.042c.066.03.134.058.202.084l-.105-.042c.057.024.115.047.174.068l-.069-.026.163.059-.094-.033c.063.023.126.044.19.064l-.096-.031c.06.02.12.039.181.056l-.084-.025c.062.019.125.037.188.053l-.104-.028c.058.016.117.031.176.045l-.072-.017c.064.016.13.03.195.044l-.123-.027c.076.018.153.034.23.047l-.107-.02.186.033-.078-.013c.048.009.097.016.146.023l-.068-.01c.198.03.4.046.607.046l.168-.004.168-.01.071-.007 63.867-5.388.19-.018a4 4 0 0 0 3.531-3.771l.005-.202v-25.73l-.002-.192a4 4 0 0 0-3.46-3.835l-.202-.022-.166-.015-2.242-.188-61.53-5.193-.193-.013-.196-.006zM228 172.6a4 4 0 0 0 3.465 3.964l.199.022 64 5.4a4 4 0 0 0 4.29-3.383l.023-.18.003-.02a4.03 4.03 0 0 0 .015-.204l.005-.2v-36.592l-.004-.169-.01-.168a4.001 4.001 0 0 0-3.717-3.655l-.202-.008-.204.002-.2.012-61.659 5.201v.001l-2.34.198-.206.022a4 4 0 0 0-3.438 3.56l-.015.204-.005.2V172.6zM31.359 130.282l56.822 4.794c7.608-21.924 24.97-39.287 46.894-46.894l-4.794-56.823c-49.038 11.283-87.64 49.885-98.922 98.923zm158.36-98.923-4.794 56.822c21.827 7.575 39.134 24.82 46.793 46.607l56.856-4.797c-11.368-48.9-49.914-87.371-98.855-98.632zm17.906-3.046.769.277c38.645 14.236 69.28 45.033 83.297 83.784-.276-12.583-.767-20.883-1.628-29.05l-.058-.545-.189-1.698c-2.135-18.553-6.275-29.883-13.644-37.253-7.37-7.369-18.7-11.51-37.253-13.644l-.736-.084-.481-.053-.885-.095-.887-.092-.888-.09-.891-.087c-7.393-.706-15.235-1.126-26.526-1.37zm-95.25-.004-.468.014c-10.148.226-17.497.598-24.28 1.197l-.882.08-.876.082-.437.042-.87.086-.651.066-.65.068-2.18.24c-18.553 2.135-29.883 6.275-37.253 13.644-7.369 7.37-11.51 18.7-13.644 37.253l-.083.736-.054.48c-.065.598-.128 1.194-.19 1.792l-.09.898c-.739 7.467-1.18 15.276-1.436 26.556l-.019.83.43-1.166c14.297-38.459 45.016-68.93 83.633-82.898zM178.297 20h-36.594a4 4 0 0 0-.336.014l-.152.016-.089.012a4.03 4.03 0 0 0-.191.032l.065-.012a4.008 4.008 0 0 0-.186.038l.12-.026a4 4 0 0 0-.21.047l.09-.021a3.99 3.99 0 0 0-.178.044l.088-.023a3.983 3.983 0 0 0-.182.05l.094-.027c-.072.02-.143.042-.213.065l.12-.038c-.06.019-.12.038-.179.059l.06-.02a3.97 3.97 0 0 0-.175.063l.115-.043a3.82 3.82 0 0 0-.202.078l.087-.035c-.065.025-.13.052-.193.08l.106-.045a3.97 3.97 0 0 0-.162.071l.056-.025a5.67 5.67 0 0 0-.176.084l.12-.059c-.063.03-.126.062-.188.095l.068-.036-.12.065.052-.029a3.98 3.98 0 0 0-.167.095l.115-.066a3.984 3.984 0 0 0-.195.116l.08-.05a3.989 3.989 0 0 0-.165.105l.085-.055a3.06 3.06 0 0 0-.133.088l.048-.033a3.996 3.996 0 0 0-.157.11l.109-.077a4 4 0 0 0-.184.135l.075-.058a4.672 4.672 0 0 0-.138.108l.063-.05-.111.09.048-.04c-.055.045-.11.091-.162.139l.114-.1a4.015 4.015 0 0 0-.183.164l.069-.064a4.018 4.018 0 0 0-.126.118l.057-.054a4.02 4.02 0 0 0-.13.128l.073-.074a5.097 5.097 0 0 0-.144.15l.072-.076a4.025 4.025 0 0 0-.12.13l.048-.054a4.024 4.024 0 0 0-.12.138l.072-.084a4.024 4.024 0 0 0-.673 1.057l.067-.146a3.974 3.974 0 0 0-.395 1.672l.002.201.012.2.458 5.433 4.739 56.158.133 1.585.07.823a4 4 0 0 0 3.785 3.66l.2.004h25.794a4 4 0 0 0 3.964-3.465l.021-.199 5.4-64a4 4 0 0 0-3.398-4.293l-.154-.019a3.22 3.22 0 0 0-.234-.02l-.2-.004z"/></g></svg>