<svg xmlns="http://www.w3.org/2000/svg" width="320" height="320" viewBox="0 0 320 320"><g id="Foundations/Icons/Brand-Icons/Charts-and-Graphs/02-hit-bottom" fill="none" fill-rule="evenodd" stroke="none" stroke-width="1"><path id="lg-icon-fill-primary" fill="#FFD500" d="M132.53 113.929V20h54.94v93.929H238L160 200l-78-86.071z"/><path id="Half-tone" fill="#000" d="M172 158.47a4 4 0 1 1 0 8 4 4 0 0 1 0-8Zm16-16a4 4 0 1 1 0 8 4 4 0 0 1 0-8Zm16-16a4 4 0 1 1 0 8 4 4 0 0 1 0-8Z"/><path id="Outlines" fill="#000" d="M160 218.47c32.47 0 63.06 4.23 86.12 11.92 24.43 8.14 37.88 19.54 37.88 32.08s-13.45 23.94-37.88 32.08c-23.06 7.69-53.65 11.92-86.12 11.92-32.47 0-63.06-4.23-86.12-11.92C49.45 286.41 36 275.01 36 262.47s13.45-23.94 37.88-32.08c23.06-7.69 53.65-11.92 86.12-11.92Zm0 8c-31.63 0-61.32 4.09-83.59 11.51C56.12 244.75 44 253.9 44 262.47c0 8.57 12.12 17.72 32.41 24.49 22.27 7.42 51.96 11.51 83.59 11.51 31.63 0 61.32-4.09 83.59-11.51 20.29-6.77 32.41-15.92 32.41-24.49 0-8.57-12.12-17.72-32.41-24.49-22.27-7.42-51.96-11.51-83.59-11.51Zm0 12c33.79 0 68 8.24 68 24s-34.21 24-68 24-68-8.24-68-24 34.21-24 68-24Zm0 8c-39.39 0-60 10.42-60 16s20.61 16 60 16 60-10.42 60-16-20.61-16-60-16ZM183.47 16a8 8 0 0 1 8 8v85.35H234a8 8 0 0 1 5.79 13.53l-74 77.59a8 8 0 0 1-11.58 0l-74-77.6A8 8 0 0 1 86 109.35h42.53V24a8 8 0 0 1 8-8Zm0 8h-46.94v93.36L86 117.35l74 77.59 74-77.59h-50.53V24Z"/></g></svg>