<svg xmlns="http://www.w3.org/2000/svg" width="320" height="320" viewBox="0 0 320 320"><g id="Foundations/Icons/Brand-Icons/UI/Insurance/02-home" fill="none" fill-rule="evenodd" stroke="none" stroke-width="1"><path id="lg-icon-fill-primary" fill="#FFD500" d="m220 232 .344.003c10.771.182 19.47 8.878 19.653 19.649L240 252v52h-40v-52l.003-.344C200.187 240.769 209.069 232 220 232Zm0 36a8 8 0 1 0 0 16 8 8 0 0 0 0-16Zm0-153.657 86.828 86.829a4 4 0 0 1-5.497 5.807l-.16-.15L220 125.656l-81.172 81.171a4 4 0 0 1-5.497.151l-.16-.15a4 4 0 0 1-.15-5.498l.15-.16L220 114.344ZM100 20c5.77 0 11.54 3.8 17.31 11.399 8.796-3.696 15.693-4.102 20.69-1.217 4.997 2.885 8.094 9.06 9.291 18.527 9.466 1.197 15.642 4.294 18.527 9.291 2.885 4.997 2.48 11.894-1.217 20.69C172.201 84.46 176 90.23 176 96s-3.8 11.54-11.399 17.31c3.696 8.796 4.102 15.693 1.217 20.69-2.885 4.997-9.06 8.094-18.527 9.291-1.197 9.466-4.294 15.642-9.291 18.527-4.997 2.885-11.894 2.48-20.69-1.217C111.54 168.201 105.77 172 100 172s-11.54-3.8-17.31-11.399c-8.796 3.696-15.693 4.102-20.69 1.217-4.997-2.885-8.094-9.06-9.291-18.527-9.466-1.197-15.642-4.294-18.527-9.291-2.885-4.997-2.48-11.894 1.217-20.69C27.799 107.54 24 101.77 24 96s3.8-11.54 11.399-17.31c-3.696-8.796-4.102-15.693-1.217-20.69 2.885-4.997 9.06-8.094 18.527-9.291 1.197-9.466 4.294-15.642 9.291-18.527 4.997-2.885 11.894-2.48 20.69 1.217C88.46 23.799 94.23 20 100 20Zm168 64c17.673 0 32-14.327 32-32 0-17.673-14.327-32-32-32-17.673 0-32 14.327-32 32 0 17.673 14.327 32 32 32Z"/><path id="Half-Tone" fill="#000" d="M100 124a4 4 0 1 1 0 8 4 4 0 0 1 0-8Zm16-16a4 4 0 1 1 0 8 4 4 0 0 1 0-8Zm-32 0a4 4 0 1 1 0 8 4 4 0 0 1 0-8Zm48-16a4 4 0 1 1 0 8 4 4 0 0 1 0-8Zm-32 0a4 4 0 1 1 0 8 4 4 0 0 1 0-8Zm-32 0a4 4 0 1 1 0 8 4 4 0 0 1 0-8Zm48-16a4 4 0 1 1 0 8 4 4 0 0 1 0-8Zm-32 0a4 4 0 1 1 0 8 4 4 0 0 1 0-8Zm16-16a4 4 0 1 1 0 8 4 4 0 0 1 0-8Z"/><path id="Outlines" fill="#000" d="M100 16c6.69 0 12.831 3.147 18.505 8.972l.37.383.041.045.573-.165c7.489-2.112 14.123-1.887 19.757 1.068l.383.205.371.21c5.793 3.345 9.539 9.14 11.54 17.022l.128.517.014.06.578.143c7.542 1.915 13.175 5.428 16.577 10.803l.228.37.217.367c3.345 5.793 3.69 12.686 1.483 20.512l-.148.511-.018.06.43.412c5.574 5.43 8.695 11.288 8.954 17.644l.013.435L180 96c0 6.69-3.147 12.831-8.972 18.505l-.383.37-.046.041.166.573c2.112 7.489 1.887 14.123-1.068 19.757l-.205.383-.21.371c-3.345 5.793-9.14 9.539-17.022 11.54l-.517.128-.061.014-.142.578c-1.915 7.542-5.428 13.175-10.803 16.577l-.37.228-.367.217c-5.793 3.345-12.686 3.69-20.512 1.483l-.511-.148-.061-.018-.411.43c-2.103 2.158-4.27 3.949-6.504 5.348L112 264h8v-8l12-16 12 16v8h8v-59.03l-7.515 7.515c-4.358 4.358-11.265 4.68-15.999.872l-.251-.208-.247-.216-.16-.146-.313-.302c-4.436-4.436-4.69-11.512-.664-16.25l.216-.247.146-.16.302-.313L220 103.029l36 36V120h8v-12a4 4 0 1 1 8 0v12h8v43.03l32.485 32.485c4.608 4.608 4.685 12.032.23 16.734l-.23.236c-4.436 4.436-11.512 4.69-16.25.664l-.247-.216-.16-.146-.313-.302L288 204.97V304h12a4 4 0 1 1 0 8H20a4 4 0 1 1 0-8h4v-48l12-16 12 16v8h8v-8l12-16 12 16v8h8v-91.623c-2.235-1.399-4.402-3.19-6.505-5.349l-.37-.383-.042-.046-.572.166c-7.489 2.112-14.123 1.887-19.757-1.068l-.383-.205-.371-.21c-5.793-3.345-9.539-9.14-11.54-17.022l-.128-.517-.015-.061-.577-.142c-7.542-1.915-13.175-5.428-16.577-10.803l-.228-.37-.217-.367c-3.345-5.793-3.69-12.686-1.483-20.512l.148-.511.017-.061-.429-.411c-5.574-5.43-8.695-11.288-8.954-17.644l-.013-.435L20 96c0-6.69 3.147-12.831 8.972-18.505l.383-.37.045-.042-.165-.572c-2.112-7.489-1.887-14.123 1.068-19.757l.205-.383.21-.371c3.345-5.793 9.14-9.539 17.022-11.54l.517-.128.06-.015.143-.577c1.915-7.542 5.428-13.175 10.803-16.577l.37-.228.367-.217c5.793-3.345 12.686-3.69 20.512-1.483l.511.148.06.017.412-.429c5.43-5.574 11.288-8.695 17.644-8.954l.435-.013L100 16ZM36 253.333l-4 5.334V304h8v-45.333l-4-5.334ZM120 288h-8v16h8v-16Zm-15.999-112.384c-1.033.2-2.08.323-3.14.367l-.435.013L100 176c-1.355 0-2.688-.13-4-.384V304h8l.001-128.384ZM68 253.333l-4 5.334V304h8v-45.333l-4-5.334ZM88 288h-8v16h8v-16Zm-32 0h-8v16h8v-16Zm96 0h-8v16h8v-16Zm68-151.03-60 60V304h32v-52c0-15.464 12.536-28 28-28s28 12.536 28 28v52h32V196.97l-60-60Zm-88 116.363-4 5.334V304h8v-45.333l-4-5.334ZM220 232c-10.93 0-19.813 8.769-19.997 19.656L200 252v52h40v-52c0-10.93-8.769-19.813-19.656-19.997L220 232Zm0 32c6.627 0 12 5.373 12 12s-5.373 12-12 12-12-5.373-12-12 5.373-12 12-12Zm-68 8h-8v8h8v-8Zm-96 0h-8v8h8v-8Zm32 0h-8v8h8v-8Zm32 0h-8v8h8v-8Zm100 0a4 4 0 1 0 0 8 4 4 0 0 0 0-8Zm0-112c15.464 0 28 12.536 28 28s-12.536 28-28 28-28-12.536-28-28 12.536-28 28-28Zm0-45.657-86.828 86.829-.151.159a4 4 0 0 0 0 5.338l.15.16.16.15a4 4 0 0 0 5.338 0l.16-.15L220 125.656l81.172 81.171.159.151a4 4 0 0 0 5.648-5.648l-.15-.16L220 114.344ZM216 192h-15.6c1.591 7.837 7.764 14.01 15.6 15.6V192Zm8 0v15.6c7.837-1.591 14.009-7.763 15.6-15.6H224Zm0-23.6V184h15.6c-1.59-7.836-7.763-14.009-15.6-15.6Zm-8 0c-7.836 1.59-14.01 7.764-15.6 15.6H216v-15.6ZM100 24c-5.466 0-10.933 3.6-16.399 10.799-8.333-3.502-14.867-3.886-19.601-1.153-4.734 2.733-7.668 8.584-8.802 17.552C46.23 52.332 40.379 55.266 37.646 60c-2.733 4.734-2.349 11.268 1.153 19.601C31.599 85.067 28 90.534 28 96c0 5.466 3.6 10.933 10.799 16.399-3.502 8.333-3.886 14.867-1.153 19.601 2.733 4.734 8.584 7.668 17.552 8.802 1.134 8.968 4.068 14.819 8.802 17.552 4.734 2.733 11.268 2.349 19.601-1.153 1.394 1.835 2.787 3.436 4.18 4.804l.22.213.38.362.382.35.154.137.171.151-.137-.12.137.12.051.045.006.005.055.048.006.005.082.071.169.144.059.05.005.004.001.002c.408.342.815.665 1.222.968l.05.036.021.016-.014-.011.081.06.037.027.012.009.134.097.014.01.003.002.102.072.37.257.435.288.028.018.086.054.245.153.08.049.007.004.017.011.207.123-.08-.047.079.047.06.036.166.095.214.12-.16-.089.094.053.126.07.214.116.215.112.135.068.199.099-.144-.07.084.042.067.032.014.007-.007-.004-.007-.003-.007-.004.047.024.049.023.109.052.006.003.028.013.03.014.089.041.028.013.046.021.045.021.055.024.03.013.231.1-.158-.067.065.028.149.063.002.001.005.002.055.023.09.037.146.059.013.005.239.092.13.048.013.005-.051-.019.066.025A13.12 13.12 0 0 0 100 168c1.479 0 2.958-.263 4.437-.79l.259-.097.127-.047.346-.139.013-.006.041-.017-.003.001.103-.044.04-.017-.037.016.039-.016.079-.035.047-.02.027-.012.128-.058-.072.033.12-.054.027-.013.03-.014.123-.057.159-.076-.108.051.155-.074.059-.029.097-.048-.013.006.022-.01.19-.097.34-.18.34-.19.189-.11.183-.109.005-.002a20.772 20.772 0 0 0 .997-.64l.065-.045.15-.104-.15.103.15-.102.171-.122.007-.005.039-.027.013-.01-.013.01.147-.107.013-.008.102-.077-.065.05.125-.092-.038.026.34-.254c.141-.109.283-.22.425-.334l.1-.081-.002.001.085-.067.008-.008.006-.005.168-.138.008-.007.031-.026.011-.009.135-.112.149-.128.019-.015.023-.021.082-.071.006-.005.056-.047.005-.006.048-.041.003-.004-.004.003.387-.343c.146-.132.292-.268.438-.406l.005-.005.42-.401c1.414-1.381 2.828-3.003 4.242-4.865 8.333 3.502 14.867 3.886 19.601 1.153 4.734-2.733 7.668-8.584 8.802-17.552 8.968-1.134 14.819-4.068 17.552-8.802 2.733-4.734 2.349-11.268-1.153-19.601C168.401 106.933 172 101.466 172 96c0-5.466-3.6-10.933-10.799-16.399 3.502-8.333 3.886-14.867 1.153-19.601-2.733-4.734-8.584-7.668-17.552-8.802-1.134-8.968-4.068-14.819-8.802-17.552-4.734-2.733-11.268-2.349-19.601 1.153C110.933 27.599 105.466 24 100 24Zm172 104h-8v18.687l8 8V128Zm-4-112c19.882 0 36 16.118 36 36s-16.118 36-36 36-36-16.118-36-36 16.118-36 36-36Zm0 8c-15.464 0-28 12.536-28 28s12.536 28 28 28 28-12.536 28-28-12.536-28-28-28Z"/></g></svg>