<svg width="320" height="320" viewBox="0 0 320 320" xmlns="http://www.w3.org/2000/svg"><g id="Foundations/Icons/Brand-Icons/Health/04-hospital-bed" stroke="none" stroke-width="1" fill="none" fill-rule="evenodd"><path d="M112 57.33a1.34 1.34 0 0 1 1.33-1.33h30.75V25.33a1.34 1.34 0 0 1 1.34-1.33h29.16a1.34 1.34 0 0 1 1.34 1.33v30.71h30.75a1.34 1.34 0 0 1 1.33 1.29v29.21a1.33 1.33 0 0 1-1.33 1.33h-30.75v30.75c0 .74-.6 1.34-1.34 1.34h-29.16c-.74 0-1.34-.6-1.34-1.34V87.87h-30.75a1.33 1.33 0 0 1-1.33-1.33V57.33Z" id="lg-icon-fill-primary" fill="#FFD500"/><path d="M100 240.33a4 4 0 1 1 0 8 4 4 0 0 1 0-8Zm-32 0a4 4 0 1 1 0 8 4 4 0 0 1 0-8Zm-32 0a4 4 0 1 1 0 8 4 4 0 0 1 0-8Zm128 0 .2.005a4 4 0 1 1-.2-.005Zm-32 0a4 4 0 1 1 0 8 4 4 0 0 1 0-8Zm96 0a4 4 0 1 1 0 8 4 4 0 0 1 0-8Zm-32 0a4 4 0 1 1 0 8 4 4 0 0 1 0-8Zm96 0a4 4 0 1 1 0 8 4 4 0 0 1 0-8Zm-32 0a4 4 0 1 1 0 8 4 4 0 0 1 0-8Z" id="Half-tone" fill="#000"/><path d="M311.84 182.72a9.65 9.65 0 0 0-.2-.77 8.09 8.09 0 0 0-3.17-4.25 7.44 7.44 0 0 0-1.36-.74 7.86 7.86 0 0 0-3.11-.63h-40a7.86 7.86 0 0 0-3.11.63 7.44 7.44 0 0 0-1.36.74 8.09 8.09 0 0 0-3.17 4.25c-.08.25-.14.51-.2.77a8.53 8.53 0 0 0-.16 1.61v32H112c0-2.447-.184-4.89-.55-7.31a48 48 0 0 0-16.92-29.69c-.59-.49-1.19-1-1.81-1.42a47.83 47.83 0 0 0-21.41-9 48.84 48.84 0 0 0-7.31-.58v-24a8.53 8.53 0 0 0-.16-1.61 9.65 9.65 0 0 0-.2-.77 8.09 8.09 0 0 0-3.17-4.25 7.44 7.44 0 0 0-1.36-.74 7.86 7.86 0 0 0-3.11-.63H16a7.86 7.86 0 0 0-3.11.63 7.44 7.44 0 0 0-1.36.74 8.09 8.09 0 0 0-3.17 4.25c-.08.25-.14.51-.2.77-.104.53-.16 1.07-.16 1.61v160a8 8 0 0 0 8 8h40a8 8 0 0 0 8-8v-32h192v32a8 8 0 0 0 8 8h40a8 8 0 0 0 8-8v-120c0-.54-.056-1.08-.16-1.61ZM64 176.33c22.091 0 40 17.909 40 40H64v-40Zm-8-32v80h208v-40h40v120h-40v-40H56v40H16v-160h40ZM174.63 16a9.3 9.3 0 0 1 4 .92 8.44 8.44 0 0 1 1.17.67 9.5 9.5 0 0 1 2.52 2.52 9.28 9.28 0 0 1 1.6 5.22V48h22.65a9.31 9.31 0 0 1 4.45 1.13 9.85 9.85 0 0 1 1.48 1 9.53 9.53 0 0 1 1.81 1.99 9.61 9.61 0 0 1 .86 1.58 9.38 9.38 0 0 1 .73 3.63v29.22a9.3 9.3 0 0 1-.73 3.63 10.13 10.13 0 0 1-.86 1.59c-.173.253-.353.493-.54.72a9.45 9.45 0 0 1-1.27 1.26 9.91 9.91 0 0 1-1.48 1 9.3 9.3 0 0 1-4.45 1.12h-22.75v22.72a9.26 9.26 0 0 1-1.6 5.22 9.44 9.44 0 0 1-2.52 2.52 8.49 8.49 0 0 1-1.17.68 9.3 9.3 0 0 1-4 .92h-29.16a9.3 9.3 0 0 1-4-.92 8.49 8.49 0 0 1-1.17-.68 9.35 9.35 0 0 1-4.12-7.7V95.88h-22.75a9.3 9.3 0 0 1-4.45-1.12 9.44 9.44 0 0 1-3.29-3 10.13 10.13 0 0 1-.86-1.59 9.3 9.3 0 0 1-.73-3.63V57.33a9.37 9.37 0 0 1 .73-3.59 9.61 9.61 0 0 1 .86-1.58 9.33 9.33 0 0 1 7.74-4.12h22.8V25.33a9.28 9.28 0 0 1 1.6-5.22 9.44 9.44 0 0 1 2.52-2.52 8.44 8.44 0 0 1 1.17-.67 9.3 9.3 0 0 1 4-.92Zm-.05 8h-29.16a1.34 1.34 0 0 0-1.34 1.33V56h-30.75a1.34 1.34 0 0 0-1.33 1.33v29.21c0 .735.595 1.33 1.33 1.33h30.75v30.75c0 .74.6 1.34 1.34 1.34h29.16c.74 0 1.34-.6 1.34-1.34V87.87h30.75a1.33 1.33 0 0 0 1.33-1.33V57.33a1.34 1.34 0 0 0-1.33-1.29h-30.75V25.33a1.34 1.34 0 0 0-1.34-1.33Z" id="Outlines" fill="#000"/></g></svg>