<svg width="320" height="320" viewBox="0 0 320 320" xmlns="http://www.w3.org/2000/svg"><g id="Foundations/Icons/Brand-Icons/House-and-Home/07-house-fire" stroke="none" stroke-width="1" fill="none" fill-rule="evenodd"><path d="M240 168.14c-14.9 0-27-15-27-33.43 0-10.68 5.56-23.93 16.07-38.3a161.07 161.07 0 0 1 11.44-13.85C251 94.32 267 116.22 267 134.71c0 18.49-12.12 33.43-27 33.43Zm30.72-13.51a47.27 47.27 0 0 0 4.28-19.92 44.23 44.23 0 0 0-.38-5.73 54.93 54.93 0 0 0-1.1-5.75c-.47-1.91-1-3.82-1.7-5.71a92.48 92.48 0 0 0-7.73-16.38 129 129 0 0 0-4.72-7.41c-1.07-1.57-2.15-3.09-3.23-4.54a158.42 158.42 0 0 0-15.63-18.18 160.92 160.92 0 0 0-16.12 18.18c-1.1 1.45-2.22 3-3.33 4.54-1.66 2.35-3.3 4.83-4.86 7.41a90.78 90.78 0 0 0-8 16.34c-.68 1.89-1.27 3.8-1.76 5.71a52.6 52.6 0 0 0-1.13 5.75 42.56 42.56 0 0 0-.4 5.73 47.43 47.43 0 0 0 4.23 19.75l.09.17c-10.59-10.7-17.33-26.79-17.33-44.77 0-36 35-76 48.82-90.46C254.24 33.89 288 73.79 288 109.86c0 17.98-6.73 34.07-17.31 44.77h.03Z" id="lg-icon-fill-primary" fill="#FFD500"/><path d="M52 144.14a4 4 0 1 1 0 8 4 4 0 0 1 0-8Zm16-16a4 4 0 1 1 0 8 4 4 0 0 1 0-8Zm-16-16a4 4 0 1 1 0 8 4 4 0 0 1 0-8Zm32 0a4 4 0 1 1 0 8 4 4 0 0 1 0-8Zm-16-16a4 4 0 1 1 0 8 4 4 0 0 1 0-8Zm32 0a4 4 0 1 1 0 8 4 4 0 0 1 0-8Zm-16-16a4 4 0 1 1 0 8 4 4 0 0 1 0-8Zm32 0a4 4 0 1 1 0 8 4 4 0 0 1 0-8Z" id="Half-tone" fill="#000"/><path d="M240.84 8S218.64 28.71 202 56.14H32a8 8 0 0 0-8 8v240a8 8 0 0 0 8 8h240a8 8 0 0 0 8-8V156.26c9.92-12 16-28.33 16-46.4C296 61.14 240.84 8 240.84 8ZM240 168.14c-14.9 0-27-15-27-33.43 0-10.68 5.56-23.93 16.07-38.3a161.07 161.07 0 0 1 11.44-13.85C251 94.32 267 116.22 267 134.71c0 18.49-12.12 33.43-27 33.43Zm-1.8 7.95c.6 0 1.2.05 1.8.05.6 0 1.21 0 1.81-.05A50.29 50.29 0 0 0 272 164.26v15.88H156v-116h41.41c-7.78 14.46-13.46 30.31-13.46 45.72-.02 35.89 24.1 65.1 54.22 66.28l.03-.05ZM32 64.14h116v116H32v-116Zm0 124h116v116H32v-116Zm240 116H156v-116h116v116Zm-1.29-149.51a47.27 47.27 0 0 0 4.29-19.92 44.23 44.23 0 0 0-.38-5.73 54.93 54.93 0 0 0-1.1-5.75c-.47-1.91-1-3.82-1.7-5.71a92.48 92.48 0 0 0-7.73-16.38 129 129 0 0 0-4.72-7.41c-1.07-1.57-2.15-3.09-3.23-4.54a158.42 158.42 0 0 0-15.63-18.18 160.92 160.92 0 0 0-16.12 18.18c-1.1 1.45-2.22 3-3.33 4.54-1.66 2.35-3.3 4.83-4.86 7.41a90.78 90.78 0 0 0-8 16.34c-.68 1.89-1.27 3.8-1.76 5.71a52.6 52.6 0 0 0-1.13 5.75 42.56 42.56 0 0 0-.4 5.73 47.43 47.43 0 0 0 4.23 19.75l.09.17c-10.59-10.7-17.33-26.79-17.33-44.77 0-36 35-76 48.82-90.46C254.24 33.89 288 73.79 288 109.86c0 17.98-6.73 34.07-17.31 44.77h.02Z" id="Outlines" fill="#000"/></g></svg>