<svg xmlns="http://www.w3.org/2000/svg" width="320" height="320" viewBox="0 0 320 320"><g id="Foundations/Icons/Brand-Icons/House-and-Home/12-house" fill="none" fill-rule="evenodd" stroke="none" stroke-width="1"><path id="lg-icon-fill-primary" fill="#FFD500" d="M287.488 127.795H9.244L43.036 15.986h234.15l33.572 111.809z"/><path id="Half-tone" fill="#000" d="m267.522 95.85.2.005a3.993 3.993 0 1 1-.4 0l.2-.005Zm-63.89 0 .199.005a3.993 3.993 0 1 1-.4 0l.2-.005Zm31.945 0a3.993 3.993 0 1 1 0 7.986 3.993 3.993 0 0 1 0-7.986Zm-95.836 0 .199.005a3.993 3.993 0 1 1-.399 0l.2-.005Zm31.945 0a3.993 3.993 0 1 1 0 7.986 3.993 3.993 0 0 1 0-7.986Zm-95.836 0 .2.005a3.993 3.993 0 1 1-.4 0l.2-.005Zm31.945 0a3.993 3.993 0 1 1 0 7.986 3.993 3.993 0 0 1 0-7.986Zm-63.89 0a3.993 3.993 0 1 1 0 7.986 3.993 3.993 0 0 1 0-7.986Zm207.644-15.973.2.005a3.993 3.993 0 1 1-.4 0l.2-.005Zm-31.945 0a3.993 3.993 0 1 1 0 7.986 3.993 3.993 0 0 1 0-7.986Zm-31.945 0 .199.005a3.993 3.993 0 1 1-.399 0l.2-.005Zm-127.782 0 .2.005a3.993 3.993 0 1 1-.4 0l.2-.005Zm95.836 0a3.993 3.993 0 1 1 0 7.986 3.993 3.993 0 0 1 0-7.986Zm-31.945 0 .2.005a3.993 3.993 0 1 1-.4 0l.2-.005Zm-31.945 0a3.993 3.993 0 1 1 0 7.986 3.993 3.993 0 0 1 0-7.986Zm175.699-15.973a3.993 3.993 0 1 1 0 7.987 3.993 3.993 0 0 1 0-7.987Zm-31.945 0 .199.005a3.993 3.993 0 1 1-.399 0l.2-.005Zm-31.946 0 .2.005a3.993 3.993 0 1 1-.4 0l.2-.005Zm-31.945 0 .2.005a3.993 3.993 0 1 1-.4 0l.2-.005Zm-95.836 0 .2.005a3.993 3.993 0 1 1-.4 0l.2-.005Zm31.945 0 .2.005a3.993 3.993 0 1 1-.4 0l.2-.005Zm31.946 0 .199.005a3.993 3.993 0 1 1-.399 0l.2-.005Zm-95.836 0 .199.005a3.993 3.993 0 1 1-.399 0l.2-.005Zm207.644-15.972a3.993 3.993 0 1 1 0 7.986 3.993 3.993 0 0 1 0-7.986Zm-31.945 0 .2.005a3.993 3.993 0 1 1-.4 0l.2-.005Zm-31.945 0a3.993 3.993 0 1 1 0 7.986 3.993 3.993 0 0 1 0-7.986Zm-31.946 0 .2.005a3.993 3.993 0 1 1-.4 0l.2-.005Zm-31.945 0a3.993 3.993 0 1 1 0 7.986 3.993 3.993 0 0 1 0-7.986Zm-31.945 0 .199.005a3.993 3.993 0 1 1-.399 0l.2-.005Zm-31.946 0a3.993 3.993 0 1 1 0 7.986 3.993 3.993 0 0 1 0-7.986Zm207.645-15.973a3.993 3.993 0 1 1 0 7.986 3.993 3.993 0 0 1 0-7.986Zm-31.945 0a3.993 3.993 0 1 1 0 7.986 3.993 3.993 0 0 1 0-7.986Zm-31.946 0 .2.005a3.993 3.993 0 1 1-.4 0l.2-.005Zm-31.945 0a3.993 3.993 0 1 1 0 7.986 3.993 3.993 0 0 1 0-7.986Zm-31.945 0 .199.005a3.993 3.993 0 1 1-.399 0l.2-.005Zm-31.946 0a3.993 3.993 0 1 1 0 7.986 3.993 3.993 0 0 1 0-7.986Zm-31.945 0 .2.005a3.993 3.993 0 1 1-.4 0l.2-.005Z"/><path id="Outlines" fill="#000" d="M280.16 8c.575.006 1.14.139 1.657.39a4.263 4.263 0 0 1 2.306 2.944l35.76 119.067a4.552 4.552 0 0 1-.76 3.713 3.574 3.574 0 0 1-.299.36 3.933 3.933 0 0 1-2.915 1.307h-20.435v167.713a8.515 8.515 0 0 1-.16 1.568 7.986 7.986 0 0 1-7.826 6.379H31.945a7.367 7.367 0 0 1-.819 0 7.986 7.986 0 0 1-2.286-.59 7.807 7.807 0 0 1-1.996-1.197 7.986 7.986 0 0 1-1.538-1.697 7.867 7.867 0 0 1-1.367-4.463V135.801H4.083a3.893 3.893 0 0 1-2.586-.998 3.846 3.846 0 0 1-.33-.33 4.572 4.572 0 0 1-.558-.748 5.58 5.58 0 0 1-.38-.869 3.724 3.724 0 0 1-.19-.878 4.293 4.293 0 0 1 .08-1.587L36.078 11.314A4.123 4.123 0 0 1 40.07 8ZM151.72 183.7H71.857v119.794h79.863V183.7Zm135.768-47.919H31.925v167.713H63.87V183.7a7.867 7.867 0 0 1 1.348-4.462 7.986 7.986 0 0 1 1.537-1.697 7.807 7.807 0 0 1 1.997-1.198 7.986 7.986 0 0 1 2.286-.589c.273-.015.546-.015.819 0H151.7c.273-.015.546-.015.819 0 .787.082 1.557.28 2.286.589a7.807 7.807 0 0 1 1.996 1.198c.2.159.39.329.57.509a8.106 8.106 0 0 1 2.335 5.65v119.795h127.782V135.781Zm-68.333 26.465a32.125 32.125 0 0 1 24.877 0 34.1 34.1 0 0 1 2.785 1.348 29.46 29.46 0 0 1 2.636 1.607 33.422 33.422 0 0 1 2.456 1.837 27.828 27.828 0 0 1 2.276 2.056 31.798 31.798 0 0 1 2.056 2.276c.33.39.65.79.949 1.198a33.053 33.053 0 0 1 2.495 3.894 31.846 31.846 0 0 1 1.917 4.242c.36.982.67 1.982.928 2.995.279 1.03.502 2.072.67 3.125a34.27 34.27 0 0 1 .329 3.215v1.647c0 17.643-14.303 31.945-31.946 31.945-17.623-.028-31.895-14.322-31.895-31.945v-1.647c.06-1.089.17-2.157.33-3.215a29.87 29.87 0 0 1 .638-3.125c.258-1.013.568-2.013.929-2.995a31.845 31.845 0 0 1 1.916-4.242 33.053 33.053 0 0 1 2.496-3.894c.3-.409.62-.808.949-1.198a27.828 27.828 0 0 1 2.056-2.276 34.108 34.108 0 0 1 2.276-2.056 31.423 31.423 0 0 1 2.456-1.837 29.46 29.46 0 0 1 2.635-1.607 34.1 34.1 0 0 1 2.786-1.348Zm16.422 5.82v47.24c11.526-1.949 19.963-11.93 19.965-23.62-.002-11.69-8.44-21.672-19.965-23.62Zm-7.987 0c-11.516 1.96-19.94 11.938-19.94 23.62 0 11.681 8.424 21.66 19.94 23.62Zm49.595-152.08H43.036L9.244 127.795h301.514L277.185 15.986Z"/></g></svg>