<svg width="320" height="320" viewBox="0 0 320 320" xmlns="http://www.w3.org/2000/svg"><g id="Foundations/Icons/Brand-Icons/Sports-and-Pastimes/11-hurdle" stroke="none" stroke-width="1" fill="none" fill-rule="evenodd"><path d="m149.95 23-58 58h-54.9l58-58h54.9Zm130 0-58 58h-54.9l58-58h54.9Z" id="lg-icon-fill-primary" fill="#FFD500"/><path d="M76 64a4 4 0 1 1 0 8 4 4 0 0 1 0-8Zm128 0a4 4 0 1 1 0 8 4 4 0 0 1 0-8ZM92 48a4 4 0 1 1 0 8 4 4 0 0 1 0-8Zm128 0a4 4 0 1 1 0 8 4 4 0 0 1 0-8ZM108 32a4 4 0 1 1 0 8 4 4 0 0 1 0-8Zm128 0a4 4 0 1 1 0 8 4 4 0 0 1 0-8Z" id="Half-tone" fill="#000"/><path d="M312 80V24a8 8 0 0 0-8-8H16a8 8 0 0 0-8 8v56a8 8 0 0 0 8 8h20v224H12a4 4 0 1 0 0 8h296a4 4 0 1 0 0-8h-24V89.94a7.76 7.76 0 0 0-.25-1.94H304a8 8 0 0 0 8-8Zm-8 0h-70.33l56.15-56H304v56ZM60 80H38.67l56.15-56h53.68L92.35 80H60Zm99.82-56h53.68l-56.16 56h-53.67l56.15-56Zm65 0h53.68l-56.16 56h-53.67l56.15-56ZM16 24h67.5L27.34 80H16V24Zm28 288V88h16v224H44Zm216 0V89.94h16V312h-16Zm-8-222.06V312H68V88h184.25a7.76 7.76 0 0 0-.25 1.94Z" id="Outlines" fill="#000"/></g></svg>