<svg xmlns="http://www.w3.org/2000/svg" width="320" height="320" viewBox="0 0 320 320"><g id="Foundations/Icons/Brand-Icons/UI/Design-and-Development/12-idea" fill="none" fill-rule="evenodd" stroke="none" stroke-width="1"><path id="lg-icon-fill-primary" fill="#FFD500" d="M160 20.852c45.84 0 83 37.227 83 83.148 0 28.954-14.773 54.45-37.179 69.34l-13.839 48.84a8 8 0 0 1-7.697 5.82h-48.57a8 8 0 0 1-7.697-5.82l-13.839-48.84C91.773 158.45 77 132.954 77 104c0-45.921 37.16-83.148 83-83.148Z"/><path id="Half-tone" fill="#000" d="M208 132a4 4 0 1 1 0 8 4 4 0 0 1 0-8Zm-96 0a4 4 0 1 1 0 8 4 4 0 0 1 0-8Zm112-16a4 4 0 1 1 0 8 4 4 0 0 1 0-8Zm-128 0a4 4 0 1 1 0 8 4 4 0 0 1 0-8Zm112-16a4 4 0 1 1 0 8 4 4 0 0 1 0-8Zm-96 0a4 4 0 1 1 0 8 4 4 0 0 1 0-8Zm112-16a4 4 0 1 1 0 8 4 4 0 0 1 0-8ZM96 84a4 4 0 1 1 0 8 4 4 0 0 1 0-8Zm112-16a4 4 0 1 1 0 8 4 4 0 0 1 0-8Zm-96 0a4 4 0 1 1 0 8 4 4 0 0 1 0-8Z"/><path id="Outlines" fill="#000" d="M160 16c48.601 0 88 39.399 88 88 0 30.523-15.54 57.416-39.139 73.2l-13.879 48.98a7.99 7.99 0 0 1-3.024 4.314c.028.255.042.515.042.779v1.146l3.558-.395a4 4 0 0 1 1.082 7.925l-.198.027-4.442.492v7.951l3.558-.395a4 4 0 0 1 1.082 7.925l-.198.027-4.442.492v7.951l3.558-.395a4 4 0 0 1 1.082 7.925l-.198.027-4.442.492v8.26a7.273 7.273 0 0 1-7.273 7.272H179.6c-1.854 9.13-9.924 16-19.6 16-9.676 0-17.746-6.87-19.6-16h-5.127a7.273 7.273 0 0 1-7.273-7.273v-1.147l-3.558.396a4 4 0 0 1-1.082-7.925l.198-.027 4.442-.494v-7.95l-3.558.396a4 4 0 0 1-1.082-7.925l.198-.027 4.442-.494v-7.95l-3.558.396a4 4 0 0 1-1.082-7.925l.198-.027 4.442-.494v-8.257c0-.264.014-.524.041-.78a7.985 7.985 0 0 1-3.023-4.312l-13.88-48.981C87.54 161.416 72 134.523 72 104c0-48.601 39.399-88 88-88Zm11.316 272h-22.633l.13.348c1.706 4.389 5.92 7.524 10.882 7.648L160 296c5.2 0 9.627-3.307 11.293-7.933l.023-.067ZM184 273.357l-48 5.334V280h48v-6.643Zm0-16-48 5.334v7.951l48-5.334v-7.951Zm0-16-48 5.334v7.951l48-5.334v-7.951Zm0-9.357h-48v6.642l48-5.334V232ZM160 24c-44.183 0-80 35.817-80 80 0 27.047 13.516 51.788 35.586 66.55a8 8 0 0 1 3.157 4.166l.093.303 13.877 48.979.002.002H144v-32c0-7.456 5.1-13.72 12-15.496v-28.597a4 4 0 0 1 2.036-3.485l.192-.1 7.723-3.818-23.355-8.759c-3.395-1.272-3.46-6.006-.196-7.412l.196-.078L164.607 116l-22.011-8.255c-3.395-1.272-3.46-6.006-.196-7.412l.196-.078L164.607 92l-22.011-8.255c-3.395-1.272-3.46-6.006-.196-7.412l.196-.078 32-12a4 4 0 0 1 3 7.413l-.192.077L155.392 80l22.012 8.255c3.395 1.272 3.46 6.006.196 7.412l-.196.078L155.392 104l22.012 8.255c3.395 1.272 3.46 6.006.196 7.412l-.196.078L155.392 128l22.012 8.255c3.213 1.205 3.497 5.599.553 7.234l-.185.097L164 150.392v26.112c6.901 1.776 12 8.04 12 15.496v32h11.285l13.88-48.981a8 8 0 0 1 3.249-4.469C226.484 155.788 240 131.047 240 104c0-44.183-35.817-80-80-80Zm0 160a8 8 0 0 0-8 8v32h16v-32a8 8 0 0 0-7.75-7.996Z"/></g></svg>