<svg width="320" height="320" viewBox="0 0 320 320" xmlns="http://www.w3.org/2000/svg"><g id="Foundations/Icons/Brand-Icons/Banking-and-Commerce/41-inbox" stroke="none" stroke-width="1" fill="none" fill-rule="evenodd"><path id="lg-icon-fill-primary" fill="#FFD500" d="m86.452 108.84 74 77.16 74-77.16h-50.53V16h-47.01l.07 92.84z"/><path d="m204.452 304 .2.005a4 4 0 1 1-.4 0l.2-.005Zm32 0 .2.005a4 4 0 1 1-.4 0l.2-.005Zm32 0 .2.005a4 4 0 1 1-.4 0l.2-.005Zm-224 0 .2.005a4 4 0 1 1-.4 0l.2-.005Zm32 0 .2.005a4 4 0 1 1-.4 0l.2-.005Zm32 0 .2.005a4 4 0 1 1-.4 0l.2-.005Zm32 0 .2.005a4 4 0 1 1-.4 0l.2-.005Zm32 0 .2.005a4 4 0 1 1-.4 0l.2-.005Zm112-16 .2.005a4 4 0 1 1-.4 0l.2-.005Zm-256 0 .2.005a4 4 0 1 1-.4 0l.2-.005Zm160 0 .2.005a4 4 0 1 1-.4 0l.2-.005Zm-128 0 .2.005a4 4 0 1 1-.4 0l.2-.005Zm32 0 .2.005a4 4 0 1 1-.4 0l.2-.005Zm128 0 .2.005a4 4 0 1 1-.4 0l.2-.005Zm32 0 .2.005a4 4 0 1 1-.4 0l.2-.005Zm-128 0 .2.005a4 4 0 1 1-.4 0l.2-.005Zm32 0 .2.005a4 4 0 1 1-.4 0l.2-.005Zm112-16 .2.005a4 4 0 1 1-.4 0l.2-.005Zm-224 0 .2.005a4 4 0 1 1-.4 0l.2-.005Zm32 0 .2.005a4 4 0 1 1-.4 0l.2-.005Zm32 0 .2.005a4 4 0 1 1-.4 0l.2-.005Zm32 0 .2.005a4 4 0 1 1-.4 0l.2-.005Zm32 0 .2.005a4 4 0 1 1-.4 0l.2-.005Zm32 0 .2.005a4 4 0 1 1-.4 0l.2-.005Zm32 0 .2.005a4 4 0 1 1-.4 0l.2-.005Zm-80-16 .2.005a4 4 0 1 1-.4 0l.2-.005Zm32 0 .2.005a4 4 0 1 1-.4 0l.2-.005Zm96 0 .2.005a4 4 0 1 1-.4 0l.2-.005Zm-224 0 .2.005a4 4 0 1 1-.4 0l.2-.005Zm64 0 .2.005a4 4 0 1 1-.4 0l.2-.005Zm128 0 .2.005a4 4 0 1 1-.4 0l.2-.005Zm-160 0 .2.005a4 4 0 1 1-.4 0l.2-.005Zm128 0 .2.005a4 4 0 1 1-.4 0l.2-.005Zm-192 0 .2.005a4 4 0 1 1-.4 0l.2-.005Zm144-16 .2.005a4 4 0 1 1-.4 0l.2-.005Zm-64 0 .2.005a4 4 0 1 1-.4 0l.2-.005Zm-64 0 .2.005a4 4 0 1 1-.4 0l.2-.005Zm224 0 .2.005a4 4 0 1 1-.4 0l.2-.005Zm-32 0 .2.005a4 4 0 1 1-.4 0l.2-.005Zm-160 0 .2.005a4 4 0 1 1-.4 0l.2-.005Zm64 0 .2.005a4 4 0 1 1-.4 0l.2-.005Zm64 0 .2.005a4 4 0 1 1-.4 0l.2-.005Zm48-16 .2.005a4 4 0 1 1-.4 0l.2-.005Zm-32 0 .2.005a4 4 0 1 1-.4 0l.2-.005Zm64 0 .2.005a4 4 0 1 1-.4 0l.2-.005Zm-224 0 .2.005a4 4 0 1 1-.4 0l.2-.005Zm96 0 .2.005a4 4 0 1 1-.4 0l.2-.005Zm-32 0 .2.005a4 4 0 1 1-.4 0l.2-.005Zm64 0 .2.005a4 4 0 1 1-.4 0l.2-.005Zm-96 0 .2.005a4 4 0 1 1-.4 0l.2-.005Zm-64 0 .2.005a4 4 0 1 1-.4 0l.2-.005Zm240-16 .2.005a4 4 0 1 1-.4 0l.2-.005Zm-224 0 .2.005a4 4 0 1 1-.4 0l.2-.005Zm32 0 .2.005a4 4 0 1 1-.4 0l.2-.005Zm32 0 .2.005a4 4 0 1 1-.4 0l.2-.005Zm32 0 .2.005a4 4 0 1 1-.4 0l.2-.005Zm32 0 .2.005a4 4 0 1 1-.4 0l.2-.005Zm32 0 .2.005a4 4 0 1 1-.4 0l.2-.005Zm32 0 .2.005a4 4 0 1 1-.4 0l.2-.005Z" id="Half-tone" fill="#000"/><path d="M183.922 8a8 8 0 0 1 7.996 7.75l.004.25v84.84h42.53a8 8 0 0 1 5.946 13.317l-.196.213-43.75 45.629 76 .001a8 8 0 0 1 6.064 2.776l.186.224 31.693 39.616c.142.155.277.317.407.484.124.155.24.315.35.48l.28.44c.112.198.216.401.312.607l.138.313v.05c.08.197.152.398.214.602l.146.528c.069.29.122.584.16.88a.5.5 0 0 1 0 .12 8 8 0 0 1-7.654 8.874l-.296.006.297-.004a8 8 0 0 0 7.659-6.782l.044-.335V304a8 8 0 0 1-7.751 7.996l-.25.004h-288a8 8 0 0 1-7.995-7.75l-.004-.25v-96l.007-.29a8 8 0 0 0 .643 3.445 8.059 8.059 0 0 1-.56-4.075.5.5 0 0 1 0-.12 8.52 8.52 0 0 1 .096-.589l.064-.291.06-.22a7.6 7.6 0 0 1 .187-.618l.113-.302.138-.313.15-.306.162-.301.12-.19a6.87 6.87 0 0 1 .33-.494l.18-.236.06-.1 32-40a8 8 0 0 1 5.959-2.995l.29-.005 76-.001-43.77-45.629a8 8 0 0 1-1.686-8.4l.109-.268a8 8 0 0 1 7.066-4.857l.282-.005h42.53V16a8 8 0 0 1 7.75-7.996l.25-.004h46.94Zm120.53 208h-288v88h288v-88ZM132.1 167.999 48.45 168l-32 40h288l-32-40H188.8l-22.58 23.54a8 8 0 0 1-11.33.21l-.21-.21-22.58-23.541Zm3.44-7.999h-.02l24.93 26 24.93-26 49.07-51.16h-50.53V16h-46.94v92.84H86.45L135.54 160Z" id="Outlines" fill="#000"/></g></svg>