<svg xmlns="http://www.w3.org/2000/svg" width="320" height="320" viewBox="0 0 320 320"><g id="Foundations/Icons/Brand-Icons/Banking-and-Commerce/30-increase" fill="none" fill-rule="evenodd" stroke="none" stroke-width="1"><path id="lg-icon-fill-primary" fill="#FFD500" d="M232 120.5v87.21a.29.29 0 0 1-.3.3h-31.32a.3.3 0 0 1-.3-.3V120.5h-15l31-34 31 34H232Z"/><path id="Half-tone" fill="#000" d="M228.08 240.5a4 4 0 1 1 0 8 4 4 0 0 1 0-8Zm-32 0a4 4 0 1 1 0 8 4 4 0 0 1 0-8Zm-32 0a4 4 0 1 1 0 8 4 4 0 0 1 0-8Zm-32 0a4 4 0 1 1 0 8 4 4 0 0 1 0-8Zm-32 0a4 4 0 1 1 0 8 4 4 0 0 1 0-8Zm-32 0a4 4 0 1 1 0 8 4 4 0 0 1 0-8Zm-32 0a4 4 0 1 1 0 8 4 4 0 0 1 0-8Zm224 0a4 4 0 1 1 0 8 4 4 0 0 1 0-8Zm32 0a4 4 0 1 1 0 8 4 4 0 0 1 0-8Z"/><path id="Outlines" fill="#000" d="M288.08 56a8 8 0 0 1 7.996 7.75l.004.25v160c0 .168-.005.335-.015.5H316a4 4 0 0 1 4 4c0 19.882-16.118 36-36 36H36c-19.882 0-36-16.118-36-36a4 4 0 0 1 4-4h20.095l-.011-.249-.004-.251V64a8 8 0 0 1 7.75-7.996l.25-.004h256Zm23.64 176.5H8.29c1.988 13.775 13.792 23.999 27.71 24h248c13.914-.018 25.711-10.232 27.72-24ZM288.08 64h-256v160h256V64Zm-184.3 112.5a8.31 8.31 0 0 1 8.296 8.046l.004.254v23.4a8.31 8.31 0 0 1-8.046 8.296l-.254.004H72.31a8.31 8.31 0 0 1-8.306-8.046L64 208.2v-23.4a8.31 8.31 0 0 1 8.056-8.296l.254-.004h31.47Zm63.7-32a8.31 8.31 0 0 1 8.306 8.046l.004.254v55.4a8.31 8.31 0 0 1-8.056 8.296l-.254.004h-31a8.31 8.31 0 0 1-8.296-8.046l-.004-.254v-55.4a8.31 8.31 0 0 1 8.046-8.296l.254-.004h31Zm48.64-68a4 4 0 0 1 2.804 1.148l.156.162 40 44a4 4 0 0 1-2.793 6.687l-.207.003h-16v79.21a8.29 8.29 0 0 1-7.986 8.294l-.314.006h-31.32a8.3 8.3 0 0 1-8.296-8.046l-.004-.254V128.5h-16a4 4 0 0 1-3.14-6.526l.14-.164 40-44a4 4 0 0 1 2.96-1.31Zm-112.34 108H72.31a.31.31 0 0 0-.3.23l-.01.07v23.4a.31.31 0 0 0 .24.292l.07.008h31.47a.31.31 0 0 0 .29-.232l.01-.068v-23.4a.31.31 0 0 0-.3-.3Zm63.7-32h-31a.3.3 0 0 0-.294.241l-.006.059v55.4a.3.3 0 0 0 .241.294l.059.006h31a.31.31 0 0 0 .3-.23l.01-.07v-55.4a.31.31 0 0 0-.31-.3Zm48.6-66-31 34h15v87.21a.3.3 0 0 0 .231.292l.069.008h31.4a.29.29 0 0 0 .296-.24l.004-.06V120.5h15l-31-34Z"/></g></svg>