<svg xmlns="http://www.w3.org/2000/svg" width="320" height="320" viewBox="0 0 320 320"><g id="Foundations/Icons/Brand-Icons/Banking-and-Commerce/26-increase-funds" fill="none" fill-rule="evenodd" stroke="none" stroke-width="1"><path id="lg-icon-fill-primary" fill="#FFD500" d="M64 20 16.77 69.52h34.8V124h24.86V69.52h34.8L64 20z"/><path id="Half-tone" fill="#000" d="M91.75 227.99a4 4 0 1 1 0 8 4 4 0 0 1 0-8Zm-48-16a4 4 0 1 1 0 8 4 4 0 0 1 0-8Zm32 0a4 4 0 1 1 0 8 4 4 0 0 1 0-8Zm32 0a4 4 0 1 1 0 8 4 4 0 0 1 0-8Zm32 0a4 4 0 1 1 0 8 4 4 0 0 1 0-8Zm-80-16a4 4 0 1 1 0 8 4 4 0 0 1 0-8Zm32 0a4 4 0 1 1 0 8 4 4 0 0 1 0-8Zm32 0a4 4 0 1 1 0 8 4 4 0 0 1 0-8Zm112.25-24a4 4 0 1 1 0 8 4 4 0 0 1 0-8Zm-48-16a4 4 0 1 1 0 8 4 4 0 0 1 0-8Zm32 0a4 4 0 1 1 0 8 4 4 0 0 1 0-8Zm32 0a4 4 0 1 1 0 8 4 4 0 0 1 0-8Zm32 0a4 4 0 1 1 0 8 4 4 0 0 1 0-8Zm-80-16a4 4 0 1 1 0 8 4 4 0 0 1 0-8Zm32 0a4 4 0 1 1 0 8 4 4 0 0 1 0-8Zm32 0a4 4 0 1 1 0 8 4 4 0 0 1 0-8Z"/><path id="Outlines" fill="#000" d="M233 123.87c39.75 0 80 11.87 80 34.56 0 5.57-2.44 10.5-6.7 14.75 4.26 4.26 6.7 9.18 6.7 14.76 0 5.17-2.1 9.82-5.8 13.82a20.9 20.9 0 0 1 4.29 8.37 18.44 18.44 0 0 1 1.51 7.31c0 5.18-2.1 9.82-5.8 13.82a19.69 19.69 0 0 1 4.8 12.68c0 5.57-2.44 10.49-6.7 14.75 4.26 4.25 6.7 9.18 6.7 14.75 0 22.69-40.25 34.56-80 34.56-29 0-58.3-6.33-72-18.57C146.3 301.67 117 308 88 308c-39.75 0-80-11.87-80-34.56 0-5.57 2.44-10.5 6.7-14.75-4.26-4.26-6.7-9.17-6.7-14.75s2.44-10.5 6.7-14.76C10.44 224.93 8 220 8 214.43c0-22.69 40.25-34.56 80-34.56 25.34 0 50.87 4.82 66.06 14.19a18.39 18.39 0 0 1-1.06-6.12c0-5.58 2.44-10.5 6.7-14.76-4.26-4.25-6.7-9.18-6.7-14.75 0-22.69 40.25-34.56 80-34.56Zm-78.01 139.84-.4.25c-15.11 9.59-40.95 14.53-66.59 14.53-25.87 0-51.94-5.02-67-14.78-3.21 3.02-5 6.3-5 9.73C16 288.11 48.24 300 88 300c30.29 0 56.19-6.9 66.81-16.67h.01c3.33-3.06 5.17-6.46 5.17-9.89 0-3.43-1.78-6.73-5-9.73Zm144.07.04c-15.07 9.78-41.14 14.78-67 14.78-25.59 0-51.47-4.94-66.59-14.53a18.7 18.7 0 0 1-.23 19.37c.6.55 1.23 1.1 1.92 1.63.51.38 1.04.77 1.59 1.14 1.11.75 2.31 1.48 3.61 2.19.64.31 1.31.66 2 1a87.8 87.8 0 0 0 17.44 6.13 151.8 151.8 0 0 0 22.27 3.7c2.28.22 4.613.397 7 .53 2.387.133 4.803.227 7.25.28h7.42c2.467-.053 4.883-.147 7.25-.28 2.367-.133 4.7-.31 7-.53a151.8 151.8 0 0 0 22.27-3.7 87.8 87.8 0 0 0 17.44-6.13c.69-.3 1.36-.65 2-1 1.3-.71 2.5-1.44 3.61-2.19.59-.37 1.08-.76 1.59-1.14a22.44 22.44 0 0 0 4.82-4.92 13.08 13.08 0 0 0 1.44-2.59l.08.04a10.22 10.22 0 0 0 .46-6.76 12.77 12.77 0 0 0-1.9-3.92 20.38 20.38 0 0 0-2.74-3.1Zm-144-29.55c-6.3 4.08-14.51 7.33-23.84 9.74a158.26 158.26 0 0 1-23 4 198.4 198.4 0 0 1-40.38 0 158.26 158.26 0 0 1-23-4c-9.33-2.41-17.54-5.66-23.84-9.74-3.21 3.02-4.99 6.33-4.99 9.76 0 3.43 1.78 6.73 5 9.73a35.49 35.49 0 0 0 7.12 5c12.92 7.12 34.87 11.8 59.87 11.8s47-4.68 59.94-11.82a35.49 35.49 0 0 0 7.12-5c3.21-3.02 5-6.29 5-9.73 0-3.44-1.78-6.74-5-9.74Zm146.04 2.26a73.51 73.51 0 0 1-20.11 9.12 139.86 139.86 0 0 1-17.4 4l-1.518.238A190.75 190.75 0 0 1 233 252a188.17 188.17 0 0 1-31.62-2.6l-1.355-.233A133 133 0 0 1 184 245.29a76.46 76.46 0 0 1-17-7.49 18.25 18.25 0 0 1 1.01 6.14 18.86 18.86 0 0 1-2.82 9.87 31.19 31.19 0 0 0 4.57 3.46c.11.07.23.144.353.22l.372.225c.245.148.475.285.635.385.32.2.65.4 1 .59.7.38 1.42.76 2.17 1.13a87.78 87.78 0 0 0 17.44 6.14c1.68.41 3.41.81 5.18 1.17a160.12 160.12 0 0 0 17.09 2.53c2.28.213 4.613.39 7 .53 3.61.2 7.23.3 11 .3 3.77 0 7.43-.1 11-.3 2.367-.147 4.7-.323 7-.53a160.12 160.12 0 0 0 17.08-2.49c1.77-.36 3.5-.76 5.18-1.17a87.78 87.78 0 0 0 17.45-6.18c.75-.37 1.47-.75 2.17-1.13.33-.19.53-.32 1-.59.47-.27.92-.55 1.36-.83a31.94 31.94 0 0 0 4.74-3.6c.21-.2.44-.4.64-.6a19 19 0 0 0 2.1-2.5 13.08 13.08 0 0 0 1.44-2.59c.356-.86.605-1.76.74-2.68l.01-.02a10.4 10.4 0 0 0 0-2.73 11.26 11.26 0 0 0-.74-2.68 13.08 13.08 0 0 0-1.44-2.59c-.19-.28-.41-.55-.63-.82Zm-1.11-28.77a75.73 75.73 0 0 1-19 8.38 136.37 136.37 0 0 1-17.4 4 189.6 189.6 0 0 1-30.59 2.42 189.23 189.23 0 0 1-31.56-2.56 134.57 134.57 0 0 1-17.38-4.12 75.71 75.71 0 0 1-17-7.49 18.54 18.54 0 0 1 1 6.14 19.14 19.14 0 0 1-3.6 11.07 22.38 22.38 0 0 0 2.49 2.47c.38.34.7.62 1.21 1s1.04.77 1.59 1.14l.42.27c.99.66 2.05 1.3 3.19 1.92.64.31 1.31.66 2 1a87.8 87.8 0 0 0 17.44 6.13c2.76.69 5.67 1.31 8.67 1.85a159.2 159.2 0 0 0 13.6 1.85c2.28.22 4.613.397 7 .53 2.387.133 4.803.227 7.25.28h7.42c2.467-.053 4.883-.147 7.25-.28 2.367-.133 4.7-.31 7-.53 1.1-.1 2.19-.21 3.26-.34 1.61-.18 3.16-.39 4.76-.61 1.6-.22 3.1-.47 4.6-.73 1.26-.22 2.5-.45 3.72-.7 2.03-.4 4.02-.84 5.93-1.32a87.8 87.8 0 0 0 17.44-6.13c.69-.3 1.23-.58 2-1 .77-.42 1.49-.85 2.19-1.28.49-.3.83-.54 1.42-.91s1.08-.76 1.59-1.14a25.4 25.4 0 0 0 3.44-3.21 17.82 17.82 0 0 0 1.38-1.71 13.08 13.08 0 0 0 1.44-2.59l.01-.05a10.22 10.22 0 0 0 .46-6.76 11.56 11.56 0 0 0-.8-2 13 13 0 0 0-1.1-1.89 20.38 20.38 0 0 0-2.74-3.1ZM88 187.87c-39.76 0-72 11.89-71.98 26.56 0 3.43 1.78 6.73 5 9.73a35.49 35.49 0 0 0 7.12 5c9.29 5.12 23.27 8.97 39.68 10.74a192.81 192.81 0 0 0 40.38 0c16.41-1.74 30.39-5.62 39.68-10.74a35.49 35.49 0 0 0 7.12-5c3.21-3.01 5-6.3 5-9.73 0-14.67-32.24-26.56-72-26.56Zm78.01-9.64-.56.53-.08.07a19 19 0 0 0-2.1 2.5 13.08 13.08 0 0 0-1.44 2.59 11.26 11.26 0 0 0-.74 2.68 10.4 10.4 0 0 0 0 2.73c.135.92.384 1.82.74 2.68.38.915.863 1.784 1.44 2.59.19.28.41.55.63.82a18.8 18.8 0 0 0 1.47 1.68c.2.2.43.4.64.6a31 31 0 0 0 4.1 3.19c.2.14.42.27.64.41.44.28 1.04.63 1.36.83.32.2.65.4 1 .59.7.38 1.42.76 2.17 1.13a87.78 87.78 0 0 0 17.44 6.14c2.76.68 5.67 1.3 8.67 1.84 4.31.78 8.85 1.41 13.6 1.86 2.28.213 4.613.39 7 .53 3.61.2 7.23.3 11 .3 3.77 0 7.43-.1 11-.3 2.367-.14 4.7-.317 7-.53l3.26-.34c3.22-.35 6.36-.82 9.36-1.35 3.373-.573 6.59-1.24 9.65-2a87.78 87.78 0 0 0 17.45-6.18c.75-.37 1.47-.75 2.17-1.13.33-.19.66-.39 1-.59l1-.6c.13-.07.24-.15.36-.23a31.94 31.94 0 0 0 4.74-3.6c.21-.2.38-.34.64-.6.26-.26.48-.52.72-.79a17.82 17.82 0 0 0 1.38-1.71 13.08 13.08 0 0 0 1.44-2.59c.356-.86.605-1.76.74-2.68l.01.05a10.4 10.4 0 0 0 0-2.73 11.26 11.26 0 0 0-.74-2.68 13.08 13.08 0 0 0-1.44-2.59 19 19 0 0 0-2.1-2.5l-.08-.07-.56-.53a75.37 75.37 0 0 1-19 8.38c-1.57.48-3.19.93-4.84 1.36-4 1.03-8.21 1.9-12.56 2.62-3.4.56-6.87 1.03-10.4 1.39l-1.678.163A195.37 195.37 0 0 1 233 193a195.37 195.37 0 0 1-20.19-1.02l-1.455-.156a167.364 167.364 0 0 1-9.965-1.404c-3.99-.69-7.85-1.5-11.54-2.45-2-.52-3.95-1.07-5.84-1.67a74 74 0 0 1-18-8.07Zm70.7-46.25h-7.42l-3.81.11c-2.293.087-4.55.217-6.77.39h-.49c-2.14.173-4.243.373-6.31.6l-.74.09c-1.94.22-3.847.477-5.72.77-3.4.52-6.67 1.13-9.78 1.82-20.79 4.66-34.67 13.09-34.67 22.72.004.916.128 1.827.37 2.71a15.56 15.56 0 0 0 4.64 7c.65.6 1.33 1.2 2.09 1.78.51.39 1.04.77 1.59 1.15 1.06.72 2.21 1.41 3.44 2.09l.17.1c7.03 3.83 16.73 7 28.11 9 3.63.63 7.45 1.2 11.4 1.63a189.185 189.185 0 0 0 40.38-.04c3.6-.39 7.08-.87 10.42-1.45 1.48-.26 2.93-.53 4.34-.82 1.24-.26 2.46-.53 3.66-.81 1.08-.24 2.08-.5 3.08-.76a81.37 81.37 0 0 0 18-6.8l.17-.1c1.23-.68 2.38-1.37 3.44-2.09.59-.38 1.08-.76 1.59-1.15.76-.58 1.44-1.18 2.09-1.78a15.56 15.56 0 0 0 4.64-7h.01a10.41 10.41 0 0 0 .37-2.71c0-9.63-13.88-18.06-34.67-22.67a149.8 149.8 0 0 0-9.78-1.82 136.13 136.13 0 0 0-5.72-.77l-.74-.09a184.43 184.43 0 0 0-6.31-.6h-.49a170.376 170.376 0 0 0-6.77-.39l-3.81-.11ZM64 12a8 8 0 0 1 5.79 2.48L117 64a8 8 0 0 1-5.77 13.52h-26.8V124a8 8 0 0 1-8 8H51.59a8 8 0 0 1-8-8V77.52h-26.8A8 8 0 0 1 11 64l47.21-49.52A8 8 0 0 1 64 12Zm0 8L16.77 69.52h34.8V124h24.86V69.52h34.8L64 20Z"/></g></svg>