<svg xmlns="http://www.w3.org/2000/svg" width="320" height="320" fill="none" viewBox="0 0 320 320"><g id="am-index"><path id="lg-icon-fill-primary" fill="#42AEEA" d="M287 271c6.627 6.627 6.627 17.373 0 24s-17.373 6.627-24 0l-51-51 24-24zm-76.859-123A51.8 51.8 0 0 1 216 172c0 25.998-19.079 47.539-44 51.387V148zM148 221.491c-20.89-6.748-36-26.355-36-49.491s15.11-42.744 36-49.492zM52 104c6.627 0 12 5.373 12 12s-5.373 12-12 12-12-5.373-12-12 5.373-12 12-12m144-24c6.627 0 12 5.373 12 12s-5.373 12-12 12-12-5.373-12-12 5.373-12 12-12m72-24c6.627 0 12 5.373 12 12s-5.373 12-12 12-12-5.373-12-12 5.373-12 12-12M124 24c6.627 0 12 5.373 12 12s-5.373 12-12 12-12-5.373-12-12 5.373-12 12-12"/><g id="Outlines" fill="#1D1D1B" fill-rule="evenodd" clip-rule="evenodd"><path d="M164 120c18.41 0 34.585 9.567 43.825 24l.01.016q.26.406.513.819l.094.154a47 47 0 0 1 .592.997q.251.433.493.87l.063.115q.234.426.461.856l.095.182q.215.413.422.83l.076.152a51 51 0 0 1 .947 2.024A51.8 51.8 0 0 1 216 172c0 25.959-19.022 47.473-43.887 51.369l-.098.016a64 64 0 0 1-.881.128l-.218.029a45 45 0 0 1-2.026.229q-2.416.228-4.89.229c-28.719 0-52-23.281-52-52 0-21.632 13.208-40.178 32-48.015l.051-.021a50 50 0 0 1 1.776-.699l.176-.067q.435-.16.874-.312l.136-.047q.933-.323 1.883-.61l.06-.019a51 51 0 0 1 3.028-.814l.016-.003A52 52 0 0 1 164 120m0 8c-4.16 0-8.185.577-12 1.656v84.687a44 44 0 0 0 16 1.473V148a4 4 0 0 1 4-4h25.942c-8.07-9.772-20.279-16-33.942-16m12 86.343c18.468-5.224 32-22.203 32-42.343 0-7.202-1.73-13.999-4.798-20H176zm-32-81.545c-14.247 7.283-24 22.103-24 39.202s9.754 31.918 24 39.201z"/><path d="M148 88a4 4 0 0 1 4 4v13.056l-.033.006A68.4 68.4 0 0 1 164 104c37.555 0 68 30.445 68 68 0 12.443-3.344 24.103-9.18 34.136q.608-1.043 1.18-2.111v10.318l6 6 3.172-3.172a4 4 0 0 1 5.657 0l51 51.001c8.189 8.189 8.189 21.467 0 29.656-8.061 8.062-21.055 8.188-29.27.378l-.387-.378L224 261.656V288h12a4 4 0 0 1 0 8H12a4 4 0 0 1 0-8h12V172a4 4 0 0 1 4-4h48a4 4 0 0 1 4 4v116h16V92a4 4 0 0 1 4-4zm84.864 140.791-.035.038-12 12-.022.021-3.15 3.15 48.171 48.172.24.233c5.082 4.83 13.118 4.753 18.104-.233 5.065-5.065 5.065-13.279 0-18.344L236 225.656zM32 288h40V176H32zm72 0h40v-50.991c-17.275-5.309-31.617-17.312-40-32.984zm48 0h16v-48.117a68.4 68.4 0 0 1-16-.94zm50.441-59.902a67.6 67.6 0 0 1-26.525 10.859l.084-.014V288h40v-34.344l-6.828-6.828-.143-.148a4 4 0 0 1 .143-5.508l3.171-3.172zm12.708-11.292a69 69 0 0 1-6.342 6.343l9.193 9.195 6.343-6.345zM164 112c-33.137 0-60 26.863-60 60s26.863 60 60 60 60-26.863 60-60-26.863-60-60-60m-60 27.974c8.383-15.672 22.725-27.676 40-32.984V96h-40z"/><path d="M124 20c8.837 0 16 7.163 16 16 0 2.258-.469 4.406-1.313 6.355l47.541 36.976A15.93 15.93 0 0 1 196 76c5.63 0 10.58 2.908 13.432 7.304l42.606-14.201A16 16 0 0 1 252 68c0-8.837 7.163-16 16-16s16 7.163 16 16-7.163 16-16 16c-5.631 0-10.582-2.91-13.434-7.307l-42.605 14.201q.038.549.039 1.106c0 8.837-7.163 16-16 16s-16-7.163-16-16c0-2.259.468-4.408 1.312-6.356l-47.54-36.976A15.93 15.93 0 0 1 124 52c-2.667 0-5.182-.653-7.394-1.808l-51.27 56.967A15.9 15.9 0 0 1 68 116c0 8.837-7.163 16-16 16s-16-7.163-16-16 7.163-16 16-16c2.666 0 5.18.652 7.39 1.806l51.272-56.968A15.93 15.93 0 0 1 108 36c0-8.837 7.163-16 16-16m-72 88a8 8 0 1 0 0 16 8 8 0 0 0 0-16m144-24a8 8 0 1 0 0 16 8 8 0 0 0 0-16m72-24a8 8 0 1 0 0 16 8 8 0 0 0 0-16M124 28a8 8 0 1 0 0 16 8 8 0 0 0 0-16"/></g></g></svg>