<svg xmlns="http://www.w3.org/2000/svg" width="320" height="320" viewBox="0 0 320 320"><g id="Foundations/Icons/Brand-Icons/UI/Financial/01-20-indicator" fill="none" fill-rule="evenodd" stroke="none" stroke-width="1"><path id="lg-icon-fill-primary" fill="#FFD500" d="M160 28c46.392 0 84 16.118 84 36v40c0 19.882-37.608 36-84 36s-84-16.118-84-36V64l.011-.595C76.753 43.797 114.072 28 160 28Z"/><path id="Half-tone" fill="#000" d="M176 76a4 4 0 1 1 0 8 4 4 0 0 1 0-8Zm-32 0a4 4 0 1 1 0 8 4 4 0 0 1 0-8Zm48-16a4 4 0 1 1 0 8 4 4 0 0 1 0-8Zm-32 0a4 4 0 1 1 0 8 4 4 0 0 1 0-8Zm-32 0a4 4 0 1 1 0 8 4 4 0 0 1 0-8Zm48-16a4 4 0 1 1 0 8 4 4 0 0 1 0-8Zm-32 0a4 4 0 1 1 0 8 4 4 0 0 1 0-8Z"/><path id="Outlines" fill="#000" d="M160 24c48.115 0 87.211 17.552 87.988 39.339L248 64v200c0 22.091-39.399 40-88 40s-88-17.909-88-40V64c0-22.091 39.399-40 88-40Zm0 240c-35.498 0-66.086-9.554-80-23.313V264c0 6.932 7.233 14.705 21.085 21.001C116.378 291.953 137.429 296 160 296c22.57 0 43.622-4.047 58.915-10.999C232.767 278.705 240 270.931 240 264l.001-23.314C226.088 254.446 195.498 264 160 264Zm0-40c-35.498 0-66.086-9.554-80-23.313V224c0 6.932 7.233 14.705 21.085 21.001C116.378 251.953 137.429 256 160 256c22.57 0 43.622-4.047 58.915-10.999C232.767 238.705 240 230.931 240 224l.001-23.314C226.088 214.446 195.498 224 160 224Zm0-40c-35.498 0-66.086-9.554-80-23.313V184c0 6.932 7.233 14.705 21.085 21.001C116.378 211.953 137.429 216 160 216c22.57 0 43.622-4.047 58.915-10.999C232.767 198.705 240 190.931 240 184l.001-23.314C226.088 174.446 195.498 184 160 184Zm0-40c-35.498 0-66.086-9.554-80-23.313V144c0 6.932 7.233 14.705 21.085 21.001C116.378 171.953 137.429 176 160 176c22.57 0 43.622-4.047 58.915-10.999C232.767 158.705 240 150.931 240 144l.001-23.314C226.088 134.446 195.498 144 160 144Zm0-40c-35.498 0-66.086-9.554-80-23.313V104c0 6.932 7.233 14.705 21.085 21.001C116.378 131.953 137.429 136 160 136c22.57 0 43.622-4.047 58.915-10.999C232.767 118.705 240 110.931 240 104l.001-23.314C226.088 94.446 195.498 104 160 104Zm0-72c-22.57 0-43.622 4.047-58.915 10.999C87.233 49.295 80 57.069 80 64c0 6.932 7.233 14.705 21.085 21.001C116.378 91.953 137.429 96 160 96c22.57 0 43.622-4.047 58.915-10.999C232.767 78.705 240 70.931 240 64c0-6.932-7.233-14.705-21.085-21.001C203.622 36.047 182.571 32 160 32Z"/></g></svg>