<svg width="320" height="320" viewBox="0 0 320 320" xmlns="http://www.w3.org/2000/svg"><g id="Foundations/Icons/Brand-Icons/Commands/01-information" stroke="none" stroke-width="1" fill="none" fill-rule="evenodd"><path d="M184 128v128h-48V128h48Zm-24-80c13.255 0 24 10.745 24 24s-10.745 24-24 24-24-10.745-24-24 10.745-24 24-24Z" id="lg-icon-fill-primary" fill="#FFD500"/><path d="M160 8c83.947 0 152 68.053 152 152s-68.053 152-152 152S8 243.947 8 160 76.053 8 160 8Zm37.721 11.977C147.722 6.725 94.456 21.307 58.18 58.18 21.308 94.456 6.725 147.722 19.977 197.721c13.252 50 52.302 89.05 102.302 102.302 49.999 13.252 103.265-1.33 139.541-38.203 36.872-36.276 51.455-89.542 38.203-139.541-13.252-50-52.302-89.05-102.302-102.302ZM184 120a8 8 0 0 1 8 8v128a8 8 0 0 1-8 8h-48a8 8 0 0 1-8-8V128a8 8 0 0 1 8-8Zm0 8h-48v128h48V128Zm-24-88a32 32 0 0 1 32 32c0 17.673-14.327 32-32 32-17.673 0-32-14.327-32-32 0-17.673 14.327-32 32-32Zm0 8c-13.255 0-24 10.745-24 24s10.745 24 24 24a24 24 0 0 0 24-24c0-13.255-10.745-24-24-24Z" id="Outlines" fill="#000"/></g></svg>