<svg xmlns="http://www.w3.org/2000/svg" width="320" height="320" viewBox="0 0 320 320"><g id="Foundations/Icons/Brand-Icons/Banking-and-Commerce/02-institution" fill="none" fill-rule="evenodd" stroke="none" stroke-width="1"><path id="lg-icon-fill-primary" fill="#FFD500" d="M76 140v128H44V140h32Zm66.67 0v128h-32V140h32Zm66.66 0v128h-32V140h32Zm66.67 0v128h-32V140h32Z"/><path id="Half-tone" fill="#000" d="M260 248a4 4 0 1 1 0 8 4 4 0 0 1 0-8Zm-67 0a4 4 0 1 1 0 8 4 4 0 0 1 0-8Zm-66 0a4 4 0 1 1 0 8 4 4 0 0 1 0-8Zm-67 0a4 4 0 1 1 0 8 4 4 0 0 1 0-8Zm200-32a4 4 0 1 1 0 8 4 4 0 0 1 0-8Zm-67 0a4 4 0 1 1 0 8 4 4 0 0 1 0-8Zm-66 0a4 4 0 1 1 0 8 4 4 0 0 1 0-8Zm-67 0a4 4 0 1 1 0 8 4 4 0 0 1 0-8Zm200-32a4 4 0 1 1 0 8 4 4 0 0 1 0-8Zm-67 0a4 4 0 1 1 0 8 4 4 0 0 1 0-8Zm-66 0a4 4 0 1 1 0 8 4 4 0 0 1 0-8Zm-67 0a4 4 0 1 1 0 8 4 4 0 0 1 0-8Zm200-32a4 4 0 1 1 0 8 4 4 0 0 1 0-8Zm-67 0a4 4 0 1 1 0 8 4 4 0 0 1 0-8Zm-66 0a4 4 0 1 1 0 8 4 4 0 0 1 0-8Zm-67 0a4 4 0 1 1 0 8 4 4 0 0 1 0-8Z"/><path id="Outlines" fill="#000" d="M304 96a7.86 7.86 0 0 1 3.11.63 7.94 7.94 0 0 1 4.26 4.26A7.86 7.86 0 0 1 312 104v32a7.86 7.86 0 0 1-.63 3.11 7.94 7.94 0 0 1-4.26 4.26 7.86 7.86 0 0 1-3.11.63h-24v120h8a8 8 0 0 1 8 8v8h8a8 8 0 0 1 8 8v16a8 8 0 0 1-8 8H16a8 8 0 0 1-8-8v-16a8 8 0 0 1 8-8h8v-8a8 8 0 0 1 8-8h8V144H16a7.86 7.86 0 0 1-3.11-.63 7.94 7.94 0 0 1-4.26-4.26A7.86 7.86 0 0 1 8 136v-32a7.86 7.86 0 0 1 .63-3.11 7.94 7.94 0 0 1 4.26-4.26A7.86 7.86 0 0 1 16 96h16L160 8l128 88Zm-16 176H32v8a8 8 0 0 1-8 8h-8v16h288v-16h-8a8 8 0 0 1-8-8v-8ZM80 144v120h26.65V144H80Zm66.65 0v120h26.67V144h-26.67Zm66.67 0v120H240V144h-26.68ZM72 144H48v120h24V144Zm66.65 0h-24v120h24V144Zm66.67 0h-24v120h24V144Zm66.68 0h-24v120h24V144ZM16 104v32h288v-32H16Zm144-86.29L46.116 96h227.768L160 17.71Z"/></g></svg>