<svg width="320" height="320" viewBox="0 0 320 320" xmlns="http://www.w3.org/2000/svg"><g id="Foundations/Icons/Brand-Icons/UI/Investments/02-Investment-Choices" stroke="none" stroke-width="1" fill="none" fill-rule="evenodd"><path d="M52 216c6.627 0 12 5.373 12 12s-5.373 12-12 12-12-5.373-12-12 5.373-12 12-12Zm104-72c6.627 0 12 5.373 12 12s-5.373 12-12 12-12-5.373-12-12 5.373-12 12-12Zm-52-40c6.627 0 12 5.373 12 12s-5.373 12-12 12-12-5.373-12-12 5.373-12 12-12Zm104-32c6.627 0 12 5.373 12 12s-5.373 12-12 12-12-5.373-12-12 5.373-12 12-12Zm52-32c6.627 0 12 5.373 12 12s-5.373 12-12 12-12-5.373-12-12 5.373-12 12-12Z" id="lg-icon-fill-primary" fill="#FFD500"/><path d="M284 296a4 4 0 1 1 0 8H36a4 4 0 1 1 0-8h248ZM260 32c11.046 0 20 8.954 20 20s-8.954 20-20 20a19.945 19.945 0 0 1-14.593-6.323L226.79 77.133A19.961 19.961 0 0 1 228 84c0 11.046-8.954 20-20 20-2.935 0-5.723-.632-8.234-1.768l-29.05 40.224A19.928 19.928 0 0 1 176 156c0 11.046-8.954 20-20 20s-20-8.954-20-20c0-3.14.724-6.11 2.013-8.755l-20.97-16.082A19.922 19.922 0 0 1 104 136a20.1 20.1 0 0 1-3.96-.392l-35.62 76.715C69.039 215.987 72 221.648 72 228c0 11.046-8.954 20-20 20s-20-8.954-20-20 8.954-20 20-20c1.828 0 3.599.245 5.28.705l35.39-76.222C87.432 128.876 84 122.839 84 116c0-11.046 8.954-20 20-20s20 8.954 20 20c0 3.174-.74 6.175-2.055 8.84l20.94 16.06A19.923 19.923 0 0 1 156 136c2.935 0 5.722.632 8.233 1.768l29.05-40.224A19.928 19.928 0 0 1 188 84c0-11.046 8.954-20 20-20a19.945 19.945 0 0 1 14.593 6.323l18.617-11.456A19.961 19.961 0 0 1 240 52c0-11.046 8.954-20 20-20ZM52 216c-6.627 0-12 5.373-12 12s5.373 12 12 12 12-5.373 12-12a11.96 11.96 0 0 0-3.476-8.446l.074.075a12.074 12.074 0 0 0-.676-.643l.15.134a12.072 12.072 0 0 0-.23-.204l.08.07c-.09-.08-.183-.158-.276-.235l.195.165a8.963 8.963 0 0 0-.258-.217l.063.052a12.047 12.047 0 0 0-.949-.71l.107.073a12.025 12.025 0 0 0-.233-.157l.126.084a9.423 9.423 0 0 0-.267-.175l.14.091a11.992 11.992 0 0 0-1.091-.636l.117.06a12.29 12.29 0 0 0-.256-.13l.139.07c-.098-.05-.197-.1-.297-.148l.158.078a11.94 11.94 0 0 0-1.038-.457l.198.078a11.918 11.918 0 0 0-.308-.12l.11.042a11.91 11.91 0 0 0-.309-.113l.199.071c-.104-.038-.21-.076-.315-.112l.116.04c-.1-.035-.2-.069-.302-.102l.186.062a16.12 16.12 0 0 0-.332-.108l.146.046a11.91 11.91 0 0 0-1.24-.327l.183.039a11.934 11.934 0 0 0-.38-.079l.198.04a11.94 11.94 0 0 0-.29-.057l.093.017c-.11-.02-.22-.04-.33-.058l.238.041A12.07 12.07 0 0 0 52 216Zm104-72a11.945 11.945 0 0 0-7.11 2.333l.26-.186c-.106.073-.21.147-.312.223l.051-.037c-.09.066-.178.133-.266.202l.215-.165-.3.23.085-.065a7.605 7.605 0 0 0-.242.194l.158-.128a9.841 9.841 0 0 0-.252.206l.094-.078c-.089.073-.176.147-.262.222l.168-.144c-.086.072-.17.145-.254.219l.086-.075c-.106.092-.21.186-.313.282l.227-.207c-.1.089-.199.18-.296.272l.069-.065c-.08.075-.16.151-.237.228l.168-.163c-.084.08-.167.161-.25.244l.082-.081c-.071.07-.142.142-.211.214l.13-.133c-.081.081-.16.164-.24.247l.11-.114c-.077.08-.153.16-.227.242l.118-.128c-.07.075-.14.151-.209.228l.09-.1a12.07 12.07 0 0 0-.299.341l.21-.24c-.09.1-.178.201-.264.305l.054-.065c-.071.085-.142.17-.211.257l.157-.192a12.06 12.06 0 0 0-.204.25l.047-.058a9.448 9.448 0 0 0-.196.252l.15-.193c-.079.099-.155.199-.23.3l.08-.107a12.034 12.034 0 0 0-.609.884l.098-.154c-.052.08-.103.161-.153.243l.055-.089c-.059.094-.116.19-.172.285l.117-.196c-.063.103-.124.207-.185.312l.068-.116a11.966 11.966 0 0 0-.555 1.065l.038-.083c-.044.094-.086.188-.128.283l.09-.2a11.56 11.56 0 0 0-.142.321l.052-.121c-.04.091-.078.183-.116.275l.064-.154c-.044.104-.087.21-.128.315l.064-.16A11.911 11.911 0 0 0 144 156c0 6.627 5.373 12 12 12s12-5.373 12-12c0-2.447-.732-4.723-1.99-6.62l-.142-.21a12.042 12.042 0 0 0-.488-.655l.083.106a7.63 7.63 0 0 0-.179-.224l.096.118a12.06 12.06 0 0 0-.2-.245l.104.127a9.46 9.46 0 0 0-.223-.265l.118.138a12.068 12.068 0 0 0-.717-.778l.081.081a12.077 12.077 0 0 0-.223-.22l.142.139a12.073 12.073 0 0 0-.253-.245l.11.105c-.082-.08-.166-.158-.25-.235l.14.13c-.075-.07-.15-.14-.227-.208l.087.078a12.065 12.065 0 0 0-.663-.56l.11.088a12.048 12.048 0 0 0-.641-.482l.09.065a12.03 12.03 0 0 0-.241-.169l.15.104a12.023 12.023 0 0 0-.524-.347l.14.089a12.008 12.008 0 0 0-.252-.158l.112.07a12 12 0 0 0-.31-.188l.198.118c-.094-.058-.19-.114-.285-.169l.087.05a11.966 11.966 0 0 0-1.047-.543l.099.046c-.1-.047-.2-.093-.302-.137l.203.091a11.934 11.934 0 0 0-.319-.14l.116.049a11.915 11.915 0 0 0-1.123-.423l.085.027a11.904 11.904 0 0 0-.323-.1l.238.073A11.992 11.992 0 0 0 156 144Zm-52-40c-6.627 0-12 5.373-12 12a11.976 11.976 0 0 0 5.332 9.978l-.149-.101c.075.052.15.102.226.152l-.077-.05.24.156-.163-.106c.117.078.236.153.356.226l-.193-.12c.081.052.163.102.245.152l-.052-.032c.087.053.174.104.261.155l-.209-.123a11.988 11.988 0 0 0 .96.52l-.089-.044c.104.051.207.101.312.15l-.223-.106c.096.046.193.092.29.136l-.067-.03c.1.045.201.09.303.133l-.235-.103c.107.048.214.095.322.14l-.087-.037c.126.054.254.105.382.155l-.295-.118c.122.05.245.1.37.146l-.075-.028c.097.037.194.073.292.108l-.218-.08c.114.043.228.084.343.124l-.125-.044c.114.04.228.079.342.116l-.217-.072c.1.034.2.067.3.098l-.083-.026.312.096-.229-.07c.11.035.221.068.333.1l-.104-.03c.124.036.247.07.372.102l-.268-.073a11.908 11.908 0 0 0 .632.16l-.224-.052c.108.026.216.051.325.074l-.101-.022c.112.025.225.049.338.07l-.237-.048c.113.025.226.047.34.068l-.103-.02c.107.022.215.04.323.059l-.22-.039c.12.022.242.043.364.062l-.144-.023a12.002 12.002 0 0 0 .917.115l-.15-.014c.117.012.234.022.352.03l-.202-.016c.123.01.245.02.369.027l-.167-.01c.113.007.227.013.341.018l-.174-.008a11.945 11.945 0 0 0 8.359-2.753l-.109.088c.085-.069.17-.14.253-.211l-.145.122c.084-.07.166-.14.248-.212l-.103.09a12.074 12.074 0 0 0 .904-.862l-.118.123c.073-.075.144-.15.215-.227l-.097.104c.074-.078.146-.157.218-.237l-.12.133c.083-.09.165-.183.246-.276l-.126.143a12.06 12.06 0 0 0 .602-.728l-.143.184c.074-.092.146-.186.217-.28l-.073.096c.062-.081.123-.164.184-.247l-.111.15a12.5 12.5 0 0 0 .19-.262l-.08.112a9.21 9.21 0 0 0 .201-.286l-.12.174c.063-.09.126-.181.187-.273l-.067.1a12.003 12.003 0 0 0 .616-1.01l-.04.075c.057-.104.113-.208.167-.313l-.127.239c.055-.101.11-.203.161-.306l-.034.067a11.946 11.946 0 0 0 .385-.82l-.073.168c.042-.093.082-.188.121-.283l-.048.115c.037-.086.072-.173.107-.26l-.059.145c.048-.116.093-.232.138-.35l-.08.205c.041-.103.08-.206.118-.31l-.038.105c.05-.134.098-.27.144-.406l.004-.014c.397-1.192.612-2.468.612-3.793 0-6.627-5.373-12-12-12Zm104-32c-6.627 0-12 5.373-12 12 0 2.546.793 4.908 2.146 6.85l-.013-.019a12.042 12.042 0 0 0 .483.65l-.095-.122c.062.08.126.16.19.239l-.095-.118.187.229-.092-.111a12.07 12.07 0 0 0 .857.94l-.133-.133c.077.079.156.157.236.234l-.103-.1.207.2-.104-.1c.086.082.173.164.26.244l-.156-.145.24.22-.083-.075a12.066 12.066 0 0 0 .661.559l-.109-.087a12.047 12.047 0 0 0 .641.482l-.09-.065c.08.057.16.114.241.169l-.15-.104a12.022 12.022 0 0 0 .523.347l-.145-.093c.085.055.171.11.258.162l-.113-.07c.094.06.189.117.284.173l-.17-.103c.093.058.188.114.284.169l-.114-.066a11.974 11.974 0 0 0 .973.512l-.188-.09c.093.046.187.09.282.134l-.094-.044c.1.047.202.093.304.138l-.21-.094c.11.05.22.099.331.146l-.121-.052c.105.046.211.09.318.133l-.197-.081c.094.04.188.078.283.115l-.086-.034a11.91 11.91 0 0 0 .811.292l-.092-.03c.102.034.205.066.308.097l-.216-.067A11.97 11.97 0 0 0 208 96c6.627 0 12-5.373 12-12a12.026 12.026 0 0 0-.668-3.958l.027.077a11.912 11.912 0 0 0-.58-1.4l.04.082a11.979 11.979 0 0 0-.776-1.37l.084.128a13.84 13.84 0 0 0-.155-.237l.071.108a12.017 12.017 0 0 0-.163-.242l.092.134a12.03 12.03 0 0 0-.205-.296l.113.162c-.06-.088-.122-.174-.184-.26l.07.098a12.049 12.049 0 0 0-.56-.723l.121.146c-.07-.087-.143-.174-.216-.259l.096.113c-.065-.077-.13-.154-.197-.229l.101.116a21.32 21.32 0 0 0-.241-.273l.14.157a12.072 12.072 0 0 0-.21-.232l.07.075a12.075 12.075 0 0 0-.616-.628l.111.107a12.072 12.072 0 0 0-.234-.221l.123.114a12.072 12.072 0 0 0-.238-.22l.115.106a12.07 12.07 0 0 0-.258-.232l.143.127c-.075-.067-.15-.133-.226-.198l.083.071A11.952 11.952 0 0 0 208 72Zm52-32c-6.627 0-12 5.373-12 12a12.026 12.026 0 0 0 .668 3.958l-.026-.077a11.922 11.922 0 0 0 .592 1.425l-.063-.129a11.961 11.961 0 0 0 .372.715l.161.276a12.006 12.006 0 0 0 .22.353l-.05-.08a12.025 12.025 0 0 0 .43.63l-.057-.078a12.05 12.05 0 0 0 .514.665l-.066-.08c.067.082.134.162.203.242l-.137-.162c.075.09.151.18.229.268l-.092-.106c.071.083.143.165.217.246l-.125-.14c.069.078.138.155.21.232l-.085-.092a12.075 12.075 0 0 0 .631.645l-.111-.107c.077.075.155.149.234.221l-.123-.114c.078.074.158.147.238.22l-.115-.106c.085.079.171.156.258.232l-.143-.127c.075.067.15.133.226.198l-.083-.071A11.952 11.952 0 0 0 260 64c6.627 0 12-5.373 12-12s-5.373-12-12-12Z" id="Outlines" fill="#000"/></g></svg>