<svg xmlns="http://www.w3.org/2000/svg" width="320" height="320" viewBox="0 0 320 320"><g id="Foundations/Icons/Brand-Icons/UI/Investments/01-investment" fill="none" fill-rule="evenodd" stroke="none" stroke-width="1"><path id="lg-icon-fill-primary" fill="#FFD500" d="M64 182c10.166 0 19.579 2.186 26.25 5.849C95.589 190.779 98 193.91 98 196s-2.412 5.221-7.75 8.151C83.58 207.814 74.167 210 64 210s-19.579-2.186-26.25-5.849C32.411 201.221 30 198.09 30 196s2.412-5.221 7.75-8.151C44.42 184.186 53.833 182 64 182Zm96-32c10.166 0 19.579 2.186 26.25 5.849 5.338 2.93 7.75 6.061 7.75 8.151s-2.412 5.221-7.75 8.151C179.58 175.814 170.167 178 160 178s-19.579-2.186-26.25-5.849c-5.338-2.93-7.75-6.061-7.75-8.151s2.412-5.221 7.75-8.151C140.42 152.186 149.833 150 160 150Zm96-32c10.166 0 19.579 2.186 26.25 5.849 5.338 2.93 7.75 6.061 7.75 8.151s-2.412 5.221-7.75 8.151C275.58 143.814 266.167 146 256 146s-19.579-2.186-26.25-5.849c-5.338-2.93-7.75-6.061-7.75-8.151s2.412-5.221 7.75-8.151C236.42 120.186 245.833 118 256 118Zm12-78v46h-62l20.16-20.13a4.055 4.055 0 0 0 0-5.74L206 40h62Z"/><path id="Half-Tone" fill="#000" d="M276 288c1.48 0 2.772.804 3.464 1.999h-6.928A3.998 3.998 0 0 1 276 288Zm16-16a4 4 0 1 1 0 8 4 4 0 0 1 0-8Zm-32 0a4 4 0 1 1 0 8 4 4 0 0 1 0-8Zm-64 0a4 4 0 1 1 0 8 4 4 0 0 1 0-8Zm-32 0a4 4 0 1 1 0 8 4 4 0 0 1 0-8Zm-96 0a4 4 0 1 1 0 8 4 4 0 0 1 0-8Zm32 0a4 4 0 1 1 0 8 4 4 0 0 1 0-8Zm176-16a4 4 0 1 1 0 8 4 4 0 0 1 0-8Zm-96 0a4 4 0 1 1 0 8 4 4 0 0 1 0-8Zm-96 0a4 4 0 1 1 0 8 4 4 0 0 1 0-8Zm208-16a4 4 0 1 1 0 8 4 4 0 0 1 0-8Zm-32 0a4 4 0 1 1 0 8 4 4 0 0 1 0-8Zm-96 0a4 4 0 1 1 0 8 4 4 0 0 1 0-8Zm32 0a4 4 0 1 1 0 8 4 4 0 0 1 0-8Zm-96 0a4 4 0 1 1 0 8 4 4 0 0 1 0-8Zm-32 0a4 4 0 1 1 0 8 4 4 0 0 1 0-8Zm208-16a4 4 0 1 1 0 8 4 4 0 0 1 0-8Zm-96 0a4 4 0 1 1 0 8 4 4 0 0 1 0-8Zm-96 0a4 4 0 1 1 0 8 4 4 0 0 1 0-8Zm-13.355-8.999A3.985 3.985 0 0 1 68 216a3.985 3.985 0 0 1-2.645-.999h5.29ZM164 208a4 4 0 1 1 0 8 4 4 0 0 1 0-8Zm32 0a4 4 0 1 1 0 8 4 4 0 0 1 0-8Zm64 0a4 4 0 1 1 0 8 4 4 0 0 1 0-8Zm32 0a4 4 0 1 1 0 8 4 4 0 0 1 0-8Zm-189.355 7.001A3.985 3.985 0 0 1 100 216a3.985 3.985 0 0 1-2.645-.999h5.29ZM180 192a4 4 0 1 1 0 8 4 4 0 0 1 0-8Zm96 0a4 4 0 1 1 0 8 4 4 0 0 1 0-8Zm-16-16a4 4 0 1 1 0 8 4 4 0 0 1 0-8Zm-64 0a4 4 0 1 1 0 8 4 4 0 0 1 0-8Zm-32 0a4 4 0 1 1 0 8 4 4 0 0 1 0-8Zm128 0a4 4 0 1 1 0 8 4 4 0 0 1 0-8Zm-16-16a4 4 0 1 1 0 8 4 4 0 0 1 0-8Zm19.874-13a4 4 0 1 1-7.747 0h7.747Zm-32 0a4 4 0 1 1-7.747 0h7.747Z"/><path id="Outlines" fill="#000" d="M256 16a4 4 0 0 1 3.995 3.8l.005.2v12h11.936a4.055 4.055 0 0 1 4.059 3.842l.005.201v29.825c7.883-1.704 15.646-2.22 24.105-1.638 2.32.16 4.058 2.01 3.883 4.132-.175 2.122-2.197 3.713-4.516 3.553-8.177-.563-15.68.032-23.471 1.92L276 89.958c0 2.165-1.711 3.933-3.861 4.038l-.203.005H260V112.1c19.998.993 35.663 9.35 35.995 19.57l.005.33v149h-.02c-.682 8.33-18.32 15-39.98 15-21.66 0-39.298-6.67-39.98-15H216V132c0-10.37 15.787-18.898 36-19.901V94h-20.753l-.232.13c-32.811 18.189-51.66 24.83-78.932 23.357l-.83-.047c-6.348-.38-8.674-.735-26.07-3.694-23.818-4.05-37.765-4.977-52.96-2.066-18.565 3.557-34.59 13.161-48.61 30.738-1.371 1.72-4.006 2.096-5.884.84-1.879-1.254-2.29-3.664-.919-5.383 15.237-19.103 33.063-29.787 53.687-33.738 16.576-3.176 31.388-2.191 56.224 2.032 12.28 2.089 16.86 2.847 20.685 3.24l.345.034c.344.034.684.065 1.024.093l.34.029.343.027.519.038c.581.042 1.182.08 1.825.12 22.112 1.318 38.235-3.096 62.803-15.749L196.072 94c-3.556 0-5.368-4.201-3.006-6.764l.133-.139L217.419 63l-24.22-24.097c-2.515-2.502-.81-6.748 2.681-6.899l.192-.004H252V20a4 4 0 0 1 3.8-3.995L256 16Zm-96 128c21.87 0 39.641 8.776 39.995 19.67l.005.33v114h-.055c-1.095 10.029-18.56 18-39.945 18s-38.85-7.971-39.945-18H120V164c0-11.046 17.909-20 40-20Zm-96 32c21.87 0 39.641 8.776 39.995 19.67l.005.33v80c0 11.046-17.909 20-40 20-21.87 0-39.641-8.776-39.995-19.67L24 276v-80c0-11.046 17.909-20 40-20Zm224-31.975-.104.07a36.198 36.198 0 0 1-2.702 1.579c-.037.018-.072.037-.108.056-.09.048-.181.096-.273.143l-.098.05-.43.22a41.081 41.081 0 0 1-.964.465l-.24.112a65.88 65.88 0 0 1-.25.114c-4.14 1.874-8.947 3.27-14.123 4.136l-.27.044-.302.05-.255.039a70.772 70.772 0 0 1-2.342.325l-.306.036-.422.05a77.045 77.045 0 0 1-4.385.366l-.087.003c-.18.01-.362.02-.543.028l-.314.014-.383.016-.267.01c-.44.015-.883.027-1.327.035h-.044c-.265.006-.532.01-.8.011L256 152c-.442 0-.882-.004-1.32-.01l-.141-.003h-.043c-.445-.01-.888-.021-1.329-.036l-.265-.01-.385-.016-.313-.014a65.367 65.367 0 0 1-.543-.027l-.087-.005a77.073 77.073 0 0 1-4.217-.347l-.167-.019a53.902 53.902 0 0 1-.423-.048l-.306-.037a70.875 70.875 0 0 1-2.342-.325l-.255-.04-.302-.048-.27-.045c-5.176-.865-9.983-2.262-14.122-4.136a81.777 81.777 0 0 1-.49-.226l-.22-.103c-.25-.12-.499-.24-.744-.363l-.527-.269.022.012-.298-.154-.106-.058a35.665 35.665 0 0 1-2.703-1.578l-.104-.07v136.03l.017.023c.123.157.305.353.553.578l.157.138c1.29 1.11 3.423 2.285 6.233 3.342C237.417 286.564 246.37 288 256 288c9.63 0 18.583-1.436 25.04-3.864 2.81-1.057 4.944-2.233 6.233-3.342.274-.236.482-.445.63-.617l.097-.123V144.025Zm-96 32-.104.07a36.198 36.198 0 0 1-2.702 1.579c-.037.018-.072.037-.108.056-.09.048-.181.096-.273.143l-.098.05-.43.22a41.081 41.081 0 0 1-.964.465l-.24.112a65.88 65.88 0 0 1-.25.114c-4.14 1.874-8.947 3.27-14.123 4.136l-.27.044-.302.05-.255.039a70.772 70.772 0 0 1-2.342.325l-.306.036-.422.05a77.045 77.045 0 0 1-4.385.366l-.087.003c-.18.01-.362.02-.543.028l-.314.014-.383.016-.267.01c-.44.015-.883.027-1.327.035h-.044c-.265.006-.532.01-.8.011L160 184c-.442 0-.882-.004-1.32-.01l-.141-.003h-.043c-.445-.01-.888-.021-1.329-.036l-.265-.01-.385-.016-.313-.014a65.367 65.367 0 0 1-.543-.027l-.087-.005a77.073 77.073 0 0 1-4.217-.347l-.167-.019a53.902 53.902 0 0 1-.423-.048l-.306-.037a70.875 70.875 0 0 1-2.342-.325l-.255-.04-.302-.048-.27-.045c-5.176-.865-9.983-2.262-14.122-4.136a81.777 81.777 0 0 1-.49-.226l-.22-.103c-.25-.12-.499-.24-.744-.363l-.527-.269.022.012-.298-.154-.106-.058a35.665 35.665 0 0 1-2.703-1.578l-.104-.07v101.042l.007.065c.055.5.415 1.206 1.255 2.102l.188.195c1.366 1.386 3.498 2.791 6.266 4.043C142.012 286.32 150.676 288 160 288c9.324 0 17.988-1.68 24.284-4.528 2.768-1.252 4.9-2.657 6.266-4.043.91-.924 1.327-1.657 1.426-2.187l.017-.11.007-.074V176.025Zm-96 32-.104.07a36.197 36.197 0 0 1-2.702 1.579c-.037.018-.072.037-.108.056-.09.048-.181.096-.273.143l-.098.05-.43.22a41.08 41.08 0 0 1-.964.465l-.24.112-.25.114c-4.14 1.874-8.947 3.27-14.123 4.136l-.27.044-.302.05-.255.039a70.772 70.772 0 0 1-2.342.325l-.306.036-.422.05a77.045 77.045 0 0 1-4.385.366l-.087.003c-.18.01-.362.02-.543.028l-.314.014-.383.016-.267.01c-.44.015-.883.027-1.327.035h-.044c-.265.006-.532.01-.8.011L64 216c-.442 0-.882-.004-1.32-.01l-.141-.003h-.043c-.445-.01-.888-.021-1.329-.036l-.265-.01a60.15 60.15 0 0 1-.385-.016l-.313-.014a65.366 65.366 0 0 1-.543-.027l-.087-.005a77.073 77.073 0 0 1-4.217-.347l-.167-.019a53.901 53.901 0 0 1-.423-.048l-.306-.037a70.877 70.877 0 0 1-2.342-.325l-.255-.04-.302-.048-.27-.045c-5.176-.865-9.983-2.262-14.122-4.136a81.744 81.744 0 0 1-.49-.226l-.22-.103c-.25-.12-.499-.24-.744-.363l-.527-.269.022.012-.298-.154-.106-.058a35.665 35.665 0 0 1-2.703-1.578l-.104-.069V276l.002.086.007.117c.16 1.768 2.417 4.316 7.103 6.692l.356.178C45.742 286.163 54.524 288 64 288c9.568 0 18.427-1.873 24.707-5.013 4.903-2.452 7.183-5.068 7.29-6.858L96 276v-67.975ZM64 184c-9.568 0-18.427 1.873-24.707 5.013C34.27 191.525 32 194.21 32 196c0 1.791 2.27 4.475 7.293 6.987C45.573 206.127 54.432 208 64 208c9.568 0 18.427-1.873 24.707-5.013C93.73 200.475 96 197.79 96 196c0-1.791-2.27-4.475-7.293-6.987C82.427 185.873 73.568 184 64 184Zm96-32c-9.568 0-18.427 1.873-24.707 5.013C130.27 159.525 128 162.21 128 164c0 1.791 2.27 4.475 7.293 6.987 6.28 3.14 15.139 5.013 24.707 5.013 9.568 0 18.427-1.873 24.707-5.013C189.73 168.475 192 165.79 192 164c0-1.791-2.27-4.475-7.293-6.987-6.28-3.14-15.139-5.013-24.707-5.013Zm100-31.89V132a4 4 0 0 1-3.8 3.995l-.2.005a4 4 0 0 1-3.995-3.8L252 132v-11.89c-8.015.443-15.312 2.206-20.707 4.903C226.27 127.525 224 130.21 224 132c0 1.791 2.27 4.475 7.293 6.987 6.28 3.14 15.139 5.013 24.707 5.013 9.568 0 18.427-1.873 24.707-5.013C285.73 136.475 288 133.79 288 132c0-1.791-2.27-4.475-7.293-6.987-5.394-2.697-12.691-4.46-20.706-4.903ZM268 40h-62l20.16 20.13a4.055 4.055 0 0 1 .154 5.578l-.154.162L206 86h62V40Z"/></g></svg>