<svg width="320" height="320" viewBox="0 0 320 320" xmlns="http://www.w3.org/2000/svg"><g id="Foundations/Icons/Brand-Icons/Entertainment-and-Technology/04-joypad" stroke="none" stroke-width="1" fill="none" fill-rule="evenodd"><path d="M94.4 100.506v25.6H120v12.8H94.4v25.6H81.6v-26.74H56v-9.37h25.6v-27.89h12.8Zm144 0v25.6H264v12.8h-25.6v25.6h-12.8v-25.6H200v-12.8h25.6v-25.6h12.8Z" id="lg-icon-fill-primary" fill="#FFD500"/><path d="M20 240.506a4 4 0 1 1 0 8 4 4 0 0 1 0-8Zm32 0a4 4 0 1 1 0 8 4 4 0 0 1 0-8Zm248 0a4 4 0 1 1 0 8 4 4 0 0 1 0-8Zm-32 0a4 4 0 1 1 0 8 4 4 0 0 1 0-8Zm-232-16a4 4 0 1 1 0 8 4 4 0 0 1 0-8Zm32 0a4 4 0 1 1 0 8 4 4 0 0 1 0-8Zm216 0a4 4 0 1 1 0 8 4 4 0 0 1 0-8Zm-32 0a4 4 0 1 1 0 8 4 4 0 0 1 0-8Zm-232-16a4 4 0 1 1 0 8 4 4 0 0 1 0-8Zm32 0a4 4 0 1 1 0 8 4 4 0 0 1 0-8Zm248 0a4 4 0 1 1 0 8 4 4 0 0 1 0-8Zm-32 0a4 4 0 1 1 0 8 4 4 0 0 1 0-8Zm-232-16 .2.005a4 4 0 1 1-.2-.005Zm248 0 .2.005a4 4 0 1 1-.2-.005Z" id="Half-tone" fill="#000"/><path d="M210.06 80.006c5.462-15.457 20.678-25.271 37.012-23.874 16.334 1.397 29.66 13.654 32.418 29.814l1.07 2.84a28.37 28.37 0 0 1 15.5 9.49 34 34 0 0 1 7.94 21.73 31.93 31.93 0 0 1-7.17 20.17l22.81 73.46a7.99 7.99 0 0 1 .36 2.37v40a8 8 0 0 1-8 8h-56a8 8 0 0 1-7.16-4.42l-23.07-46.16a40 40 0 0 1-65.77 2.55 40 40 0 0 1-65.77-2.55l-23.07 46.16a8 8 0 0 1-7.16 4.42H8a8 8 0 0 1-8-8v-40c0-.804.122-1.603.36-2.37l22.81-73.46a31.93 31.93 0 0 1-7.17-20.17 34 34 0 0 1 7.94-21.73 28.37 28.37 0 0 1 15.5-9.49l1.07-2.84c2.757-16.16 16.084-28.417 32.418-29.814 16.334-1.397 31.55 8.417 37.012 23.874ZM244 64.026c-13.911 0-25.713 10.213-27.71 23.98H103.71c-1.997-13.767-13.799-23.98-27.71-23.98-13.911 0-25.713 10.213-27.71 23.98l-3.09 8.17c-12.2 0-21.2 11.52-21.2 23.83a24 24 0 0 0 8.2 18.06L8 216.006v40h56l32-64c0 17.673 14.327 32 32 32 17.673 0 32-14.327 32-32 0 17.673 14.327 32 32 32 17.673 0 32-14.327 32-32l32 64h56v-40l-24.2-77.94a24 24 0 0 0 8.2-18.06c0-12.31-9-23.83-21.2-23.83l-3.09-8.17c-1.997-13.767-13.799-23.98-27.71-23.98Zm-52 108.48c11.046 0 20 8.954 20 20s-8.954 20-20 20-20-8.954-20-20 8.954-20 20-20Zm-64 0c11.046 0 20 8.954 20 20s-8.954 20-20 20-20-8.954-20-20 8.954-20 20-20Zm64 8c-6.627 0-12 5.373-12 12s5.373 12 12 12 12-5.373 12-12-5.373-12-12-12Zm-64 0c-6.627 0-12 5.373-12 12s5.373 12 12 12 12-5.373 12-12-5.373-12-12-12Zm110.4-88a8 8 0 0 1 7.996 7.75l.004.25v17.6H264a8 8 0 0 1 7.996 7.75l.004.25v12.8a8 8 0 0 1-7.75 7.996l-.25.004h-17.6v17.6a8 8 0 0 1-7.75 7.996l-.25.004h-12.8a8 8 0 0 1-7.996-7.75l-.004-.25v-17.6H200a8 8 0 0 1-7.996-7.75l-.004-.25v-12.8a8 8 0 0 1 7.75-7.996l.25-.004h17.6v-17.6a8 8 0 0 1 7.75-7.996l.25-.004h12.8Zm-144 0a8 8 0 0 1 7.996 7.75l.004.25v17.6H120a8 8 0 0 1 7.996 7.75l.004.25v12.8a8 8 0 0 1-7.75 7.996l-.25.004h-17.6v17.6a8 8 0 0 1-7.75 7.996l-.25.004H81.6a8 8 0 0 1-7.996-7.75l-.004-.25v-18.74H56a8 8 0 0 1-7.996-7.75l-.004-.25v-9.37a8 8 0 0 1 7.75-7.996l.25-.004h17.6v-19.89a8 8 0 0 1 7.75-7.996l.25-.004h12.8Zm144 8h-12.8v25.6H200v12.8h25.6v25.6h12.8v-25.6H264v-12.8h-25.6v-25.6Zm-144 0H81.6v27.89H56v9.37h25.6v26.74h12.8v-25.6H120v-12.8H94.4v-25.6Z" id="Outlines" fill="#000"/></g></svg>