<svg xmlns="http://www.w3.org/2000/svg" width="320" height="320" viewBox="0 0 320 320"><g id="Foundations/Icons/Brand-Icons/Security/09-key" fill="none" fill-rule="evenodd" stroke="none" stroke-width="1"><path id="Outlines" fill="#000" d="M244.437 80c37.29-.01 69.008 27.36 74.678 64.44 5.67 37.08-16.405 72.775-51.974 84.041-35.57 11.267-73.989-5.267-90.457-38.926l-16.634.14h-.06a7.934 7.934 0 0 1-3.638-.882l-30.18-15.562-30.178 15.19a7.871 7.871 0 0 1-7.126 0l-30.22-15.19-30.218 15.19a7.776 7.776 0 0 1-3.558.853 7.96 7.96 0 0 1-6.588-3.57L1.341 160.236a8.062 8.062 0 0 1 0-8.904l16.853-25.489a7.96 7.96 0 0 1 6.678-3.57h151.872C189.486 96.384 215.72 80 244.437 80Zm0 8.022c-27.446.003-52.164 16.71-62.54 42.273H24.921L7.978 155.784l16.894 25.488 33.787-16.995 33.777 16.995 33.767-16.995 33.777 17.417 21.837-.181c12.754 31.679 46.906 48.903 79.767 40.23 32.861-8.674 54.21-40.548 49.863-74.445-4.347-33.898-33.037-59.276-67.01-59.276Zm0 42.955c13.742 0 24.89 11.193 24.917 25.017.02 10.144-6.038 19.3-15.347 23.195a24.805 24.805 0 0 1-27.17-5.401c-7.137-7.166-9.278-17.952-5.425-27.325 3.854-9.373 12.943-15.486 23.025-15.486Zm0 8.022c-9.319.027-16.866 7.62-16.893 16.995-.02 6.904 4.1 13.138 10.436 15.79a16.869 16.869 0 0 0 18.488-3.686c4.852-4.882 6.298-12.226 3.663-18.6-2.635-6.374-8.832-10.52-15.694-10.5Z"/></g></svg>