<svg xmlns="http://www.w3.org/2000/svg" width="320" height="320"><g id="Foundations/Icons/Brand-Icons/Tools/08-ladder" fill="none" fill-rule="evenodd" stroke="none" stroke-width="1"><path id="lg-icon-fill-primary" fill="#ffd500" d="M104 8v304H88V8zm128 0v304h-16V8z"/><path id="Outlines" fill="#000" d="M232 0h-16a8 8 0 0 0-8 8v16h-96V8a8 8 0 0 0-8-8H88a8 8 0 0 0-8 8v304a8 8 0 0 0 8 8h16a8 8 0 0 0 8-8v-16h96v16a8 8 0 0 0 8 8h16a8 8 0 0 0 8-8V8a8 8 0 0 0-8-8M104 312H88V8h16zm8-280h96v36h-96zm0 44h96v36h-96zm0 44h96v36h-96zm0 44h96v36h-96zm0 44h96v36h-96zm0 80v-36h96v36zm120 24h-16V8h16z"/></g></svg>