<svg width="320" height="320" viewBox="0 0 320 320" xmlns="http://www.w3.org/2000/svg"><g id="Foundations/Icons/Brand-Icons/Tools/08-ladder" stroke="none" stroke-width="1" fill="none" fill-rule="evenodd"><path d="M104 8v304H88V8h16Zm128 0v304h-16V8h16Z" id="lg-icon-fill-primary" fill="#FFD500"/><path d="M232 0h-16a8 8 0 0 0-8 8v16h-96V8a8 8 0 0 0-8-8H88a8 8 0 0 0-8 8v304a8 8 0 0 0 8 8h16a8 8 0 0 0 8-8v-16h96v16a8 8 0 0 0 8 8h16a8 8 0 0 0 8-8V8a8 8 0 0 0-8-8ZM104 312H88V8h16v304Zm8-280h96v36h-96V32Zm0 44h96v36h-96V76Zm0 44h96v36h-96v-36Zm0 44h96v36h-96v-36Zm0 44h96v36h-96v-36Zm0 80v-36h96v36h-96Zm120 24h-16V8h16v304Z" id="Outlines" fill="#000"/></g></svg>