<svg width="320" height="320" viewBox="0 0 320 320" xmlns="http://www.w3.org/2000/svg"><g id="Foundations/Icons/Brand-Icons/House-and-Home/08-lamp" stroke="none" stroke-width="1" fill="none" fill-rule="evenodd"><path d="M277.507 176H42.087a.63.63 0 0 1-.09-.53L81.247 8.2a.41.41 0 0 1 .09-.2h157.38a.54.54 0 0 1 .09.2l38.79 167.27a.63.63 0 0 1-.09.53Z" id="lg-icon-fill-primary" fill="#FFD500"/><path d="m83.797 152 .2.005a4 4 0 1 1-.2-.005Zm32 0 .2.005a4 4 0 1 1-.2-.005Zm-16-16 .2.005a4 4 0 1 1-.2-.005Zm32 0 .2.005a4 4 0 1 1-.2-.005Zm-16-16 .2.005a4 4 0 1 1-.2-.005Zm32 0 .2.005a4 4 0 1 1-.2-.005Zm-16-16 .2.005a4 4 0 1 1-.2-.005Zm32 0 .2.005a4 4 0 1 1-.2-.005Zm-16-16 .2.005a4 4 0 1 1-.2-.005Zm32 0 .2.005a4 4 0 1 1-.2-.005Zm-16-16 .2.005a4 4 0 1 1-.2-.005Zm32 0 .2.005a4 4 0 1 1-.2-.005Zm-16-16 .2.005a4 4 0 1 1-.2-.005Zm32 0 .2.005a4 4 0 1 1-.2-.005Zm-16-16a4 4 0 1 1 0 8 4 4 0 0 1 0-8Zm32 0a4 4 0 1 1 0 8 4 4 0 0 1 0-8Zm-16-16a4 4 0 1 1 0 8 4 4 0 0 1 0-8Z" id="Half-tone" fill="#000"/><path d="M285.387 173.67 246.597 6.39a8.82 8.82 0 0 0-.72-2 8 8 0 0 0-7.08-4.39H81.227a7.49 7.49 0 0 0-2 .27 7.75 7.75 0 0 0-1.25.45 8.2 8.2 0 0 0-1.68 1.06 8.41 8.41 0 0 0-1 .93A8.3 8.3 0 0 0 73.887 5a9.67 9.67 0 0 0-.43 1.35l-39.24 167.29a8.64 8.64 0 0 0 0 3.85 9 9 0 0 0 .24.89 8.66 8.66 0 0 0 .77 1.66 8.08 8.08 0 0 0 3.22 3.08 7.68 7.68 0 0 0 3.58.88h97.77v88a8 8 0 0 1-8 8h-28a8 8 0 0 0-8 8v24a8 8 0 0 0 8 8h112a8 8 0 0 0 8-8v-24a8 8 0 0 0-8-8h-28a8 8 0 0 1-8-8v-88h97.81a7.74 7.74 0 0 0 1.88-.23 8.21 8.21 0 0 0 5.93-6.27 8.69 8.69 0 0 0-.03-3.83ZM187.797 288h28v24h-112v-24h28c8.837 0 16-7.163 16-16v-88h24v88c0 8.837 7.164 16 16 16Zm89.71-112H42.087a.63.63 0 0 1-.09-.53L81.247 8.2a.41.41 0 0 1 .09-.2h157.38a.54.54 0 0 1 .09.2l38.79 167.27a.63.63 0 0 1-.09.53Z" id="Outlines" fill="#000"/></g></svg>