<svg xmlns="http://www.w3.org/2000/svg" width="320" height="320" viewBox="0 0 320 320"><g id="Foundations/Icons/Brand-Icons/Security/06-laptop-threat" fill="none" fill-rule="evenodd" stroke="none" stroke-width="1"><path id="lg-icon-fill-primary" fill="#FFD500" d="M284 256H36c-13.918-.001-25.722-10.225-27.71-24h303.43c-2.009 13.768-13.806 23.982-27.72 24Z"/><path id="Half-tone" fill="#000" d="m244.08 240 .2.005a4 4 0 1 1-.4 0l.2-.005Zm-32 0 .2.005a4 4 0 1 1-.4 0l.2-.005Zm-32 0 .2.005a4 4 0 1 1-.4 0l.2-.005Zm-32 0a4 4 0 1 1 0 8 4 4 0 0 1 0-8Zm-32 0 .2.005a4 4 0 1 1-.4 0l.2-.005Zm160 0 .2.005a4 4 0 1 1-.4 0l.2-.005Zm-192 0 .2.005a4 4 0 1 1-.4 0l.2-.005Zm-32 0 .2.005a4 4 0 1 1-.4 0l.2-.005Z"/><path id="Outlines" fill="#000" d="M288.08 56a8 8 0 0 1 8 8v160H316a4 4 0 0 1 4 4c0 19.882-16.118 36-36 36H36c-19.882 0-36-16.118-36-36a4 4 0 0 1 4-4h20.08V64a8 8 0 0 1 8-8Zm23.64 176H8.29c1.988 13.775 13.792 23.999 27.71 24h248c13.914-.018 25.711-10.232 27.72-24ZM288.08 64h-256v160h256V64Zm-128 16.09c25.829-.007 46.98 20.412 47.976 46.13l.024.78v75.27a8.73 8.73 0 0 1-8.468 8.726l-.262.004h-78.54a8.73 8.73 0 0 1-8.724-8.415l-.006-.315V127l.024-.78c.995-25.718 22.147-46.137 47.976-46.13Zm-.03 8.639c-21.274 0-38.785 16.64-39.94 37.808l-.03.643v75.09c0 .37.275.675.63.723l.1.007h78.54a.73.73 0 0 0 .723-.63l.007-.1-.06-74.6v-.49c-.832-21.473-18.481-38.451-39.97-38.451Zm-25.73 39.241a6.93 6.93 0 0 1 2.974.666l.306.154 15.87 8.44v-.01a7 7 0 0 1 2.89 9.46 16 16 0 1 1-28.23-15 7 7 0 0 1 6.19-3.71Zm51.76.03a7 7 0 0 1 6.19 3.72c3.672 7.73.612 16.98-6.945 20.994-7.556 4.016-16.934 1.374-21.285-5.994a7 7 0 0 1 2.67-9.338l.22-.122 15.87-8.44a6.93 6.93 0 0 1 3.28-.82Zm-51.77 7a9 9 0 0 0 3.72 12.17 8.89 8.89 0 0 0 3.843 1.052l.367.008v-.05a9 9 0 0 0 7.793-4.477l.147-.263-15.87-8.44Zm51.82 0-15.91 8.44a9 9 0 0 0 11.91 3.833l.24-.123.04-.03a9 9 0 0 0 3.72-12.12Z"/></g></svg>