<svg xmlns="http://www.w3.org/2000/svg" width="320" height="320" viewBox="0 0 320 320"><g id="Foundations/Icons/Brand-Icons/Entertainment-and-Technology/12-laptop-rss" fill="none" fill-rule="evenodd" stroke="none" stroke-width="1"><path id="lg-icon-fill-primary" fill="#FFD500" d="M284 256H36c-13.918-.001-25.722-10.225-27.71-24h303.43c-2.009 13.768-13.806 23.982-27.72 24Z"/><path id="Half-tone" fill="#000" d="m244.08 240 .2.005a4 4 0 1 1-.4 0l.2-.005Zm-32 0 .2.005a4 4 0 1 1-.4 0l.2-.005Zm-32 0 .2.005a4 4 0 1 1-.4 0l.2-.005Zm-32 0a4 4 0 1 1 0 8 4 4 0 0 1 0-8Zm-32 0 .2.005a4 4 0 1 1-.4 0l.2-.005Zm160 0 .2.005a4 4 0 1 1-.4 0l.2-.005Zm-192 0 .2.005a4 4 0 1 1-.4 0l.2-.005Zm-32 0 .2.005a4 4 0 1 1-.4 0l.2-.005Z"/><path id="Outlines" fill="#000" d="M288.08 56a8 8 0 0 1 8 8v160H316a4 4 0 0 1 4 4c0 19.882-16.118 36-36 36H36c-19.882 0-36-16.118-36-36a4 4 0 0 1 4-4h20.08V64a8 8 0 0 1 8-8Zm23.64 176H8.29c1.988 13.775 13.792 23.999 27.71 24h248c13.914-.018 25.711-10.232 27.72-24ZM288.08 64h-256v160h256V64ZM128.01 176.11a12 12 0 0 1 9.98 18.663 12 12 0 1 1-9.98-18.663Zm-7.93-95.76c29.23 0 58.57 12.13 80.49 33.28 22.9 22.08 35.51 51.37 35.51 82.37a4 4 0 1 1-8 0c0-28.85-11.74-56-33.06-76.65-20.45-19.69-47.77-31-74.94-31a4 4 0 1 1 0-8Zm0 47.65c37 0 68.22 31.11 68.22 67.92a4 4 0 1 1-8 0c0-32.48-27.58-59.92-60.22-59.92a4 4 0 1 1 0-8Z"/></g></svg>