<svg width="320" height="320" viewBox="0 0 320 320" xmlns="http://www.w3.org/2000/svg"><g id="Foundations/Icons/Brand-Icons/Security/04-laptop-secure" stroke="none" stroke-width="1" fill="none" fill-rule="evenodd"><path d="M284 256H36c-13.918-.001-25.722-10.225-27.71-24h303.43c-2.009 13.768-13.806 23.982-27.72 24Z" id="lg-icon-fill-primary" fill="#FFD500"/><path d="m244.08 240 .2.005a4 4 0 1 1-.4 0l.2-.005Zm-32 0 .2.005a4 4 0 1 1-.4 0l.2-.005Zm-32 0 .2.005a4 4 0 1 1-.4 0l.2-.005Zm-32 0a4 4 0 1 1 0 8 4 4 0 0 1 0-8Zm-32 0 .2.005a4 4 0 1 1-.4 0l.2-.005Zm160 0 .2.005a4 4 0 1 1-.4 0l.2-.005Zm-192 0 .2.005a4 4 0 1 1-.4 0l.2-.005Zm-32 0 .2.005a4 4 0 1 1-.4 0l.2-.005Z" id="Half-tone" fill="#000"/><path d="M288.08 56a8 8 0 0 1 8 8v160H316a4 4 0 0 1 4 4c0 19.882-16.118 36-36 36H36c-19.882 0-36-16.118-36-36a4 4 0 0 1 4-4h20.08V64a8 8 0 0 1 8-8Zm23.64 176H8.29c1.988 13.775 13.792 23.999 27.71 24h248c13.914-.018 25.711-10.232 27.72-24ZM288.08 64h-256v160h256V64Zm-126.5 13.8c27.394.072 49.55 22.326 49.5 49.72 0 1-.04 2-.1 3 .042.26.071.522.087.785l.013.395v69.97a7 7 0 0 1-6.76 6.996l-.24.004h-84a8 8 0 0 1-7.996-7.75l-.004-.25v-68.93c.003-.395.037-.79.1-1.18-.1-1-.1-2-.1-3a49.63 49.63 0 0 1 49.5-49.76Zm41.5 53.9h-83v68.93h83V131.7Zm-26.429 20.283a17 17 0 0 1-3.173 18.316l-.258.271v11.62c-.016 5.339-4.281 9.672-9.585 9.807l-.275.003h-4.28c-5.323-.01-9.654-4.248-9.815-9.536l-.005-.274-.04-11.26a17 17 0 1 1 27.431-18.947ZM161.08 149a9.92 9.92 0 0 0-10.04 9.83 9.79 9.79 0 0 0 4.902 8.466l.278.154v14.74a2.84 2.84 0 0 0 2.687 2.806l.173.004h4.32a2.84 2.84 0 0 0 2.853-2.637l.007-.173v-14.94a9.81 9.81 0 0 0 4.82-8.42c-.05-5.475-4.525-9.874-10-9.83Zm.5-63.2c-21.271.087-39.023 16.175-41.257 37.26l-.063.64h82.64c-1.939-21.398-19.834-37.812-41.32-37.9Z" id="Outlines" fill="#000"/></g></svg>