<svg width="320" height="320" viewBox="0 0 320 320" xmlns="http://www.w3.org/2000/svg"><g id="Foundations/Icons/Brand-Icons/UI/Investments/03-leave-invested" stroke="none" stroke-width="1" fill="none" fill-rule="evenodd"><path d="M52 216c6.627 0 12 5.373 12 12s-5.373 12-12 12-12-5.373-12-12 5.373-12 12-12Zm72-80c6.627 0 12 5.373 12 12s-5.373 12-12 12-12-5.373-12-12 5.373-12 12-12Zm144-40c6.627 0 12 5.373 12 12s-5.373 12-12 12-12-5.373-12-12 5.373-12 12-12Zm-72-56c6.627 0 12 5.373 12 12s-5.373 12-12 12-12-5.373-12-12 5.373-12 12-12Z" id="lg-icon-fill-primary" fill="#FFD500"/><path d="M284 296a4 4 0 1 1 0 8H36a4 4 0 1 1 0-8h248ZM196 32c11.046 0 20 8.954 20 20a19.92 19.92 0 0 1-2.073 8.877l41.06 31.934A19.93 19.93 0 0 1 268 88c11.046 0 20 8.954 20 20s-8.954 20-20 20-20-8.954-20-20c0-3.188.746-6.202 2.073-8.876l-41.06-31.935A19.921 19.921 0 0 1 196 72c-3.057 0-5.954-.686-8.545-1.912l-48.44 64.7A19.924 19.924 0 0 1 144 148c0 11.046-8.954 20-20 20-3.686 0-7.14-.997-10.105-2.737L68.106 216.14A19.91 19.91 0 0 1 72 228c0 11.046-8.954 20-20 20s-20-8.954-20-20 8.954-20 20-20a19.91 19.91 0 0 1 10.17 2.775l45.768-50.855A19.91 19.91 0 0 1 104 148c0-11.046 8.954-20 20-20 3.093 0 6.022.702 8.637 1.956l48.417-64.666A19.925 19.925 0 0 1 176 52c0-11.046 8.954-20 20-20ZM52 216c-6.627 0-12 5.373-12 12s5.373 12 12 12 12-5.373 12-12-5.373-12-12-12Zm72-80c-6.627 0-12 5.373-12 12s5.373 12 12 12 12-5.373 12-12-5.373-12-12-12Zm144-40c-6.627 0-12 5.373-12 12s5.373 12 12 12 12-5.373 12-12-5.373-12-12-12Zm-72-56c-6.627 0-12 5.373-12 12s5.373 12 12 12 12-5.373 12-12-5.373-12-12-12Z" id="Outlines" fill="#000"/></g></svg>