<svg width="320" height="320" viewBox="0 0 320 320" xmlns="http://www.w3.org/2000/svg"><g id="Foundations/Icons/Brand-Icons/Banking-and-Commerce/37-legal-document" stroke="none" stroke-width="1" fill="none" fill-rule="evenodd"><path d="M238 217c0 15.464-12.536 28-28 28s-28-12.536-28-28h56Zm-100-35c0 15.464-12.536 28-28 28s-28-12.536-28-28h56Z" id="lg-icon-fill-primary" fill="#FFD500"/><path d="M255.7 8a8.31 8.31 0 0 1 8.296 8.046l.004.254v287.4a8.31 8.31 0 0 1-8.046 8.296l-.254.004H64.3a8.31 8.31 0 0 1-8.296-8.046L56 303.7V16.3a8.31 8.31 0 0 1 8.046-8.296L64.3 8h191.4Zm0 8.3H64.3v287.4h191.4V16.3Zm-95.64 80.22a4 4 0 0 1 4 4v24.437l47.79 16.683a3.998 3.998 0 0 1 2.462 2.442l29.418 67.748a4 4 0 0 1 .33 1.6v2.08c-.006 18.774-15.226 33.99-34 33.99-18.778 0-34-15.222-34-34v-2.08c0-.565.119-1.124.35-1.64l28.685-64.017-41.035-14.325V264h45.68a2.82 2.82 0 0 1 2.815 2.648l.005.172v18.36a2.82 2.82 0 0 1-2.648 2.815l-.172.005h-99.36a2.82 2.82 0 0 1-2.815-2.648l-.005-.172v-18.36a2.82 2.82 0 0 1 2.648-2.815l.172-.005h45.68V130.645l-38.232-13.346 25.882 59.521a4 4 0 0 1 .33 1.6v2.08c0 18.77-15.21 33.989-33.98 34-18.778 0-34-15.222-34-34v-2.08c0-.565.119-1.124.35-1.64l30.47-67.92a4 4 0 0 1 3.436-2.354l.214-.006c.313.002.62.04.917.111.006.003.012.004.018.005a2.515 2.515 0 0 1 .25.07l.033.01c.034.01.068.022.102.034l44.21 15.434V100.52a4 4 0 0 1 4-4ZM204.56 272h-89v8h89v-8Zm31.196-52.5h-51.392c1.92 12.466 12.694 22.01 25.696 22.01s23.776-9.544 25.696-22.01Zm-25.286-64.17-25.165 56.17h49.556l-24.391-56.17Zm-74.714 29.17H84.364c1.92 12.466 12.694 22.01 25.696 22.01s23.776-9.544 25.696-22.01Zm-25.286-64.09L85.307 176.5h49.553l-24.39-56.09ZM148 56a4 4 0 1 1 0 8H84a4 4 0 1 1 0-8h64Zm72-24a4 4 0 1 1 0 8H84a4 4 0 1 1 0-8h136Z" id="Outlines" fill="#000"/></g></svg>