<svg width="320" height="320" viewBox="0 0 320 320" xmlns="http://www.w3.org/2000/svg"><g id="Foundations/Icons/Brand-Icons/UI/Financial/06-level" stroke="none" stroke-width="1" fill="none" fill-rule="evenodd"><path d="M256 28c19.882 0 36 7.163 36 16s-16.118 16-36 16-36-7.163-36-16 16.118-16 36-16Zm-96 0c19.882 0 36 7.163 36 16s-16.118 16-36 16-36-7.163-36-16 16.118-16 36-16Zm-96 0c19.882 0 36 7.163 36 16S83.882 60 64 60s-36-7.163-36-16 16.118-16 36-16Z" id="lg-icon-fill-primary" fill="#FFD500"/><path d="M84 296a4 4 0 0 1 4 4 57.224 57.224 0 0 1-7.348 2.19A4 4 0 0 1 84 296Zm96 0a4 4 0 0 1 4 4 57.224 57.224 0 0 1-7.348 2.19A4 4 0 0 1 180 296Zm96 0a4 4 0 0 1 4 4 57.224 57.224 0 0 1-7.348 2.19A4 4 0 0 1 276 296Zm-80-16a4 4 0 1 1 0 8 4 4 0 0 1 0-8Zm-32 0a4 4 0 1 1 0 8 4 4 0 0 1 0-8Zm-64 0a4 4 0 1 1 0 8 4 4 0 0 1 0-8Zm-32 0a4 4 0 1 1 0 8 4 4 0 0 1 0-8Zm192 0a4 4 0 1 1 0 8 4 4 0 0 1 0-8Zm32 0a4 4 0 1 1 0 8 4 4 0 0 1 0-8Zm-16-16a4 4 0 1 1 0 8 4 4 0 0 1 0-8Zm-96 0a4 4 0 1 1 0 8 4 4 0 0 1 0-8Zm-96 0a4 4 0 1 1 0 8 4 4 0 0 1 0-8Zm208-16a4 4 0 1 1 0 8 4 4 0 0 1 0-8Zm-32 0a4 4 0 1 1 0 8 4 4 0 0 1 0-8Zm-64 0a4 4 0 1 1 0 8 4 4 0 0 1 0-8Zm-32 0a4 4 0 1 1 0 8 4 4 0 0 1 0-8Zm-64 0a4 4 0 1 1 0 8 4 4 0 0 1 0-8Zm-32 0a4 4 0 1 1 0 8 4 4 0 0 1 0-8Zm112-16a4 4 0 1 1 0 8 4 4 0 0 1 0-8Zm-96 0a4 4 0 1 1 0 8 4 4 0 0 1 0-8Zm192 0a4 4 0 1 1 0 8 4 4 0 0 1 0-8Zm-80-16a4 4 0 1 1 0 8 4 4 0 0 1 0-8Zm-32 0a4 4 0 1 1 0 8 4 4 0 0 1 0-8Zm-64 0a4 4 0 1 1 0 8 4 4 0 0 1 0-8Zm-32 0a4 4 0 1 1 0 8 4 4 0 0 1 0-8Zm224 0a4 4 0 1 1 0 8 4 4 0 0 1 0-8Zm-32 0a4 4 0 1 1 0 8 4 4 0 0 1 0-8Zm-80-16a4 4 0 1 1 0 8 4 4 0 0 1 0-8Zm-96 0a4 4 0 1 1 0 8 4 4 0 0 1 0-8Zm192 0a4 4 0 1 1 0 8 4 4 0 0 1 0-8Zm16-16a4 4 0 1 1 0 8 4 4 0 0 1 0-8Zm-32 0a4 4 0 1 1 0 8 4 4 0 0 1 0-8Zm-96 0a4 4 0 1 1 0 8 4 4 0 0 1 0-8Zm-64 0a4 4 0 1 1 0 8 4 4 0 0 1 0-8Zm-32 0a4 4 0 1 1 0 8 4 4 0 0 1 0-8Zm128 0a4 4 0 1 1 0 8 4 4 0 0 1 0-8Zm80-16a4 4 0 1 1 0 8 4 4 0 0 1 0-8Zm-96 0a4 4 0 1 1 0 8 4 4 0 0 1 0-8Zm-96 0a4 4 0 1 1 0 8 4 4 0 0 1 0-8Zm112-16a4 4 0 1 1 0 8 4 4 0 0 1 0-8Zm-32 0a4 4 0 1 1 0 8 4 4 0 0 1 0-8Zm-64 0a4 4 0 1 1 0 8 4 4 0 0 1 0-8Zm-32 0a4 4 0 1 1 0 8 4 4 0 0 1 0-8Zm192 0a4 4 0 1 1 0 8 4 4 0 0 1 0-8Zm32 0a4 4 0 1 1 0 8 4 4 0 0 1 0-8Zm-112-16a4 4 0 1 1 0 8 4 4 0 0 1 0-8Zm-96 0a4 4 0 1 1 0 8 4 4 0 0 1 0-8Zm192 0a4 4 0 1 1 0 8 4 4 0 0 1 0-8Zm-80-16a4 4 0 1 1 0 8 4 4 0 0 1 0-8Zm-32 0a4 4 0 1 1 0 8 4 4 0 0 1 0-8Zm-64 0a4 4 0 1 1 0 8 4 4 0 0 1 0-8Zm-32 0a4 4 0 1 1 0 8 4 4 0 0 1 0-8Zm192 0a4 4 0 1 1 0 8 4 4 0 0 1 0-8Zm32 0a4 4 0 1 1 0 8 4 4 0 0 1 0-8Zm-16-16a4 4 0 1 1 0 8 4 4 0 0 1 0-8Zm-192 0a4 4 0 1 1 0 8 4 4 0 0 1 0-8Zm96 0a4 4 0 1 1 0 8 4 4 0 0 1 0-8Zm112-16a4 4 0 1 1 0 8 4 4 0 0 1 0-8Zm-32 0a4 4 0 1 1 0 8 4 4 0 0 1 0-8Zm-64 0a4 4 0 1 1 0 8 4 4 0 0 1 0-8Zm-32 0a4 4 0 1 1 0 8 4 4 0 0 1 0-8Zm-64 0a4 4 0 1 1 0 8 4 4 0 0 1 0-8Zm-32 0a4 4 0 1 1 0 8 4 4 0 0 1 0-8Zm112-16a4 4 0 1 1 0 8 4 4 0 0 1 0-8Zm-96 0a4 4 0 1 1 0 8 4 4 0 0 1 0-8Zm192 0a4 4 0 1 1 0 8 4 4 0 0 1 0-8Zm20-12a4 4 0 0 1-8 .002c1.83-1.218 3.387-2.542 4.628-3.952A3.999 3.999 0 0 1 296 60Zm-96 0a4 4 0 0 1-8 .002c1.83-1.218 3.387-2.542 4.628-3.952A3.999 3.999 0 0 1 200 60Zm-96 0a4 4 0 0 1-8 .002c1.83-1.218 3.387-2.542 4.628-3.952A3.999 3.999 0 0 1 104 60Z" id="Half-tone" fill="#000"/><path d="M256 24c21.87 0 39.641 8.776 39.995 19.67L296 44v240c0 11.046-17.909 20-40 20-21.87 0-39.641-8.776-39.995-19.67L216 284V44c0-11.046 17.909-20 40-20Zm-96 0c21.87 0 39.641 8.776 39.995 19.67L200 44v240c0 11.046-17.909 20-40 20-21.87 0-39.641-8.776-39.995-19.67L120 284V44c0-11.046 17.909-20 40-20Zm-96 0c21.87 0 39.641 8.776 39.995 19.67L104 44v240c0 11.046-17.909 20-40 20-21.87 0-39.641-8.776-39.995-19.67L24 284V44c0-11.046 17.909-20 40-20Zm224.001 32.001C280.704 60.858 269.086 64 256 64c-13.085 0-24.702-3.141-32-7.998V284l.002.086.007.117c.16 1.768 2.417 4.316 7.103 6.692l.356.178C237.742 294.163 246.524 296 256 296c9.568 0 18.427-1.873 24.707-5.013 4.903-2.452 7.183-5.068 7.29-6.858L288 284l.001-227.999Zm-96 0C184.704 60.858 173.086 64 160 64c-13.085 0-24.702-3.141-32-7.998V284l.002.086.007.117c.16 1.768 2.417 4.316 7.103 6.692l.356.178C141.742 294.163 150.524 296 160 296c9.568 0 18.427-1.873 24.707-5.013 4.903-2.452 7.183-5.068 7.29-6.858L192 284l.001-227.999Zm-96 0C88.704 60.858 77.086 64 64 64c-13.085 0-24.702-3.141-32-7.998V284l.002.086.007.117c.16 1.768 2.417 4.316 7.103 6.692l.356.178C45.742 294.163 54.524 296 64 296c9.568 0 18.427-1.873 24.707-5.013 4.903-2.452 7.183-5.068 7.29-6.858L96 284l.001-227.999ZM256 32c-9.568 0-18.427 1.873-24.707 5.013C226.27 39.525 224 42.21 224 44c0 1.791 2.27 4.475 7.293 6.987C237.573 54.127 246.432 56 256 56c9.568 0 18.427-1.873 24.707-5.013C285.73 48.475 288 45.79 288 44c0-1.791-2.27-4.475-7.293-6.987C274.427 33.873 265.568 32 256 32Zm-96 0c-9.568 0-18.427 1.873-24.707 5.013C130.27 39.525 128 42.21 128 44c0 1.791 2.27 4.475 7.293 6.987C141.573 54.127 150.432 56 160 56c9.568 0 18.427-1.873 24.707-5.013C189.73 48.475 192 45.79 192 44c0-1.791-2.27-4.475-7.293-6.987C178.427 33.873 169.568 32 160 32Zm-96 0c-9.568 0-18.427 1.873-24.707 5.013C34.27 39.525 32 42.21 32 44c0 1.791 2.27 4.475 7.293 6.987C45.573 54.127 54.432 56 64 56c9.568 0 18.427-1.873 24.707-5.013C93.73 48.475 96 45.79 96 44c0-1.791-2.27-4.475-7.293-6.987C82.427 33.873 73.568 32 64 32Z" id="Outlines" fill="#000"/></g></svg>