<svg xmlns="http://www.w3.org/2000/svg" width="320" height="320" viewBox="0 0 320 320"><g id="Foundations/Icons/Brand-Icons/Energy-and-Resources/22-liquid" fill="none" fill-rule="evenodd" stroke="none" stroke-width="1"><path id="Outlines" fill="#000" d="M160.81 18.42a509.87 509.87 0 0 1 53.69 54c26.23 30.87 57.5 76.71 57.5 119.75-.045 45.28-27.351 86.079-69.194 103.385-41.843 17.306-89.99 7.715-122.006-24.305A111.002 111.002 0 0 1 48 192.17c0-43 31.71-88.84 58.31-119.71a512.67 512.67 0 0 1 54.5-54M160.89 8S40 104 40 192.16c0 66.274 53.726 120 120 120s120-53.726 120-120C280 104 160.89 8 160.89 8Z"/></g></svg>