<svg width="320" height="320" viewBox="0 0 320 320" xmlns="http://www.w3.org/2000/svg"><g id="Foundations/Icons/Brand-Icons/Security/01-locked" stroke="none" stroke-width="1" fill="none" fill-rule="evenodd"><path d="M53.081 118.994v185h214v-185h-214Zm117.87 85.85a8 8 0 0 0-3.87 6.85v42.3h-12v-41.72a8 8 0 0 0-4.15-7 20 20 0 1 1 20-.41l.02-.02Z" id="lg-icon-fill-primary" fill="#FFD500"/><path d="m84.081 279.994.2.005a4 4 0 1 1-.4 0l.2-.005Zm-16-16 .2.005a4 4 0 1 1-.4 0l.2-.005Zm16-16a4 4 0 1 1 0 8 4 4 0 0 1 0-8Zm-16-16a4 4 0 1 1 0 8 4 4 0 0 1 0-8Zm16-16 .2.005a4 4 0 1 1-.4 0l.2-.005Zm-16-16 .2.005a4 4 0 1 1-.4 0l.2-.005Zm16-16a4 4 0 1 1 0 8 4 4 0 0 1 0-8Zm-16-16a4 4 0 1 1 0 8 4 4 0 0 1 0-8Zm16-16a4 4 0 1 1 0 8 4 4 0 0 1 0-8Zm-16-16a4 4 0 1 1 0 8 4 4 0 0 1 0-8Z" id="Half-tone" fill="#000"/><path d="M160.076 8a114.68 114.68 0 0 1 81.385 33.884 115.153 115.153 0 0 1 33.62 85.79v176.32c0 4.42-2.58 8-7 8h-215a8 8 0 0 1-8-8v-176.35c-.08-1.31-.08-2.65-.08-4a115.213 115.213 0 0 1 33.69-81.76A114.68 114.68 0 0 1 160.076 8Zm107.005 114.664h-214v181.33h214v-181.33Zm-107.082 37.084a28 28 0 0 1 15.082 51.946v42.3a8 8 0 0 1-8 8h-12a8 8 0 0 1-8-8v-41.72a28 28 0 0 1 12.918-52.526Zm.582 8.246a19.84 19.84 0 0 0-9.65 37.28 8 8 0 0 1 4.15 7v41.72h12v-42.3a8 8 0 0 1 3.87-6.84 19.71 19.71 0 0 0 9.63-17c-.077-10.99-9.009-19.86-20-19.86Zm-.5-152c-56.13 0-102.17 43.42-106.7 98.67h213.4c-4.53-55.25-50.57-98.67-106.7-98.67Z" id="Outlines" fill="#000"/></g></svg>