<svg width="320" height="320" viewBox="0 0 320 320" xmlns="http://www.w3.org/2000/svg"><g id="Foundations/Icons/Brand-Icons/UI/Action/29-login" stroke="none" stroke-width="1" fill="none" fill-rule="evenodd"><circle id="lg-icon-fill-primary" fill="#FFD500" cx="160" cy="160" r="108"/><path d="M261.823 58.177c56.236 56.235 56.236 147.41 0 203.646-56.235 56.236-147.41 56.236-203.646 0a4 4 0 1 1 5.656-5.656c53.112 53.11 139.222 53.11 192.334 0 53.11-53.112 53.11-139.222 0-192.334-53.112-53.11-139.222-53.11-192.334 0a4 4 0 0 1-5.656-5.656c56.235-56.236 147.41-56.236 203.646 0ZM160 48c61.856 0 112 50.144 112 112s-50.144 112-112 112c-60.517 0-109.823-47.997-111.93-108H20a4 4 0 0 1-.2-7.995L20 156l28.07-.001C50.177 95.996 99.484 48 160 48Zm0 216c57.438 0 104-46.562 104-104S217.438 56 160 56c-56.098 0-101.822 44.415-103.924 99.999l140.518.001-41.415-41.172a3.983 3.983 0 0 1-.152-5.497l.152-.16a4.041 4.041 0 0 1 5.53-.15l.16.15L212 160l-51.13 50.828a4.04 4.04 0 0 1-5.691 0 3.983 3.983 0 0 1-.152-5.497l.152-.16L196.594 164H56.076C58.178 219.584 103.902 264 160 264Z" id="Outlines" fill="#000"/></g></svg>