<svg xmlns="http://www.w3.org/2000/svg" width="320" height="320" viewBox="0 0 320 320"><g id="Foundations/Icons/Brand-Icons/Communication/02-mail" fill="none" fill-rule="evenodd" stroke="none" stroke-width="1"><path id="lg-icon-fill-primary" fill="#FFD500" d="m17.225 119.531.19-.13 142-103.22a1.37 1.37 0 0 1 1.36 0l142 103.22.19.13a3.003 3.003 0 0 1 1.192 2.323 3.007 3.007 0 0 1-1.082 2.377l-108.81 67-3.32-3.08a8 8 0 0 0-5.45-2.14h-50.8a8 8 0 0 0-5.45 2.14l-3.32 3.08-108.85-67a3.003 3.003 0 0 1-1.081-2.377 3.003 3.003 0 0 1 1.191-2.323h.04Z"/><path id="Half-tone" fill="#000" d="M92.075 280.001a4 4 0 1 1 0 8 4 4 0 0 1 0-8Zm32 0a4 4 0 1 1 0 8 4 4 0 0 1 0-8Zm32 0a4 4 0 1 1 0 8 4 4 0 0 1 0-8Zm32 0a4 4 0 1 1 0 8 4 4 0 0 1 0-8Zm32 0a4 4 0 1 1 0 8 4 4 0 0 1 0-8Zm32 0a4 4 0 1 1 0 8 4 4 0 0 1 0-8Zm-176-16a4 4 0 1 1 0 8 4 4 0 0 1 0-8Zm32 0a4 4 0 1 1 0 8 4 4 0 0 1 0-8Zm32 0a4 4 0 1 1 0 8 4 4 0 0 1 0-8Zm32 0a4 4 0 1 1 0 8 4 4 0 0 1 0-8Zm32 0a4 4 0 1 1 0 8 4 4 0 0 1 0-8Zm32 0a4 4 0 1 1 0 8 4 4 0 0 1 0-8Z"/><path id="Outlines" fill="#000" d="M307.445 112.931 165.325 9.611a9.36 9.36 0 0 0-10.5 0l-142.12 103.32a10.92 10.92 0 0 0-4.39 11.58 8.14 8.14 0 0 0-.24 1.92v177.14a8 8 0 0 0 .61 3.05c0 .1.06.2.1.3a8 8 0 0 0 7.44 5.08h287.7a8 8 0 0 0 7.44-5.08c0-.1.06-.2.1-.3a8 8 0 0 0 .61-3.05v-177.14a8.14 8.14 0 0 0-.24-1.92 10.92 10.92 0 0 0-4.39-11.58Zm-290.22 6.6.19-.13 142-103.22a1.37 1.37 0 0 1 1.36 0l142 103.22.19.13a3.003 3.003 0 0 1 1.192 2.323 3.007 3.007 0 0 1-1.082 2.377l-108.81 67-3.32-3.08a8 8 0 0 0-5.45-2.14h-50.8a8 8 0 0 0-5.45 2.14l-3.32 3.08-108.85-67a3.003 3.003 0 0 1-1.081-2.377 3.003 3.003 0 0 1 1.191-2.323h.04Zm-1.15 173.7v-160.23l103.77 63.89-103.77 96.34Zm287.06 10.77H16.225l118.47-110h50.76l118.47 110h-.79Zm-102.83-107.13 103.77-63.87v160.23l-103.77-96.36Z"/></g></svg>