<svg xmlns="http://www.w3.org/2000/svg" width="320" height="320" viewBox="0 0 320 320"><g id="Foundations/Icons/Brand-Icons/Banking-and-Commerce/12-mail" fill="none" fill-rule="evenodd" stroke="none" stroke-width="1"><path id="lg-icon-fill-primary" fill="#FFD500" d="m228.175 135.906-6.284 5.94-3.834 3.675.919 5.206 3.307 18.693-17.75-9.04-4.446-2.315-4.446 2.266-17.75 9.04 3.308-18.693.918-5.206-3.834-3.674-6.284-5.892-7.435-7.032 19.256-2.768h.38l4.667-.662 2.315-4.544 8.905-17.48 8.906 17.48 2.315 4.544 4.704.662h.38l19.219 2.768z"/><path id="Half-tone" fill="#000" d="M68.087 288a4 4 0 1 1 0 8 4 4 0 0 1 0-8Zm32 0a4 4 0 1 1 0 8 4 4 0 0 1 0-8Zm32 0a4 4 0 1 1 0 8 4 4 0 0 1 0-8Zm32 0a4 4 0 1 1 0 8 4 4 0 0 1 0-8Zm32 0a4 4 0 1 1 0 8 4 4 0 0 1 0-8Zm32 0a4 4 0 1 1 0 8 4 4 0 0 1 0-8Zm32 0a4 4 0 1 1 0 8 4 4 0 0 1 0-8Zm-176-16a4 4 0 1 1 0 8 4 4 0 0 1 0-8Zm32 0a4 4 0 1 1 0 8 4 4 0 0 1 0-8Zm32 0a4 4 0 1 1 0 8 4 4 0 0 1 0-8Zm32 0a4 4 0 1 1 0 8 4 4 0 0 1 0-8Zm32 0a4 4 0 1 1 0 8 4 4 0 0 1 0-8Zm32 0a4 4 0 1 1 0 8 4 4 0 0 1 0-8Zm-144-16a4 4 0 1 1 0 8 4 4 0 0 1 0-8Zm32 0a4 4 0 1 1 0 8 4 4 0 0 1 0-8Zm32 0a4 4 0 1 1 0 8 4 4 0 0 1 0-8Zm32 0a4 4 0 1 1 0 8 4 4 0 0 1 0-8Zm32 0a4 4 0 1 1 0 8 4 4 0 0 1 0-8Z"/><path id="Outlines" fill="#000" d="M255.67 8a8.308 8.308 0 0 1 8.297 8.3v81.34l35.612 25.9a10.332 10.332 0 0 1 4.148 10.83 7.33 7.33 0 0 1 .18 1.63v168.68a6.22 6.22 0 0 1-.14.95c-.04.2-.14.53-.16.6-.02.07-.02.07-.07.22s-.08.32-.14.47a7.997 7.997 0 0 1-7.446 5.08H24.083a7.996 7.996 0 0 1-7.486-5.08c-.06-.15-.07-.39-.14-.47-.07-.08-.01-.02-.07-.22-.06-.2-.16-.4-.16-.6a6.223 6.223 0 0 1-.14-.95V136a7.343 7.343 0 0 1 .18-1.63 10.332 10.332 0 0 1 4.188-10.83l35.613-25.9V16.3A8.308 8.308 0 0 1 64.364 8Zm-60.53 202.34-30.415 20.32a8.323 8.323 0 0 1-9.416 0l-30.415-20.32-100.72 93.57a.735.735 0 0 0 .38.09H295.48a.735.735 0 0 0 .38-.09l-100.72-93.57ZM295.951 143l-93.954 62.78 93.954 87.3V143Zm-271.868 0v150.07l93.955-87.3L24.083 143ZM255.671 16H64.364a.31.31 0 0 0-.3.3v143.79l60.02 40.08 6.837 4.57L159.747 224l.08.05a.33.33 0 0 0 .38 0l.08-.05 28.876-19.25 6.837-4.57 59.97-40.09V16.3a.31.31 0 0 0-.3-.3Zm-55.673 82.902a5.827 5.827 0 0 1 5.026 2.881l.121.217 9.286 18.09L235.1 123a5.609 5.609 0 0 1 4.877 5 5.372 5.372 0 0 1-1.553 4.354l-.186.176-3.678 3.47-11.285 10.66 3.539 20a5.632 5.632 0 0 1-5.658 6.51 5.82 5.82 0 0 1-2.39-.515l-.278-.135-18.491-9.42-18.491 9.42c-.825.426-1.74.65-2.669.65a5.626 5.626 0 0 1-5.694-6.236l.037-.274 3.538-20L165.435 136l-3.679-3.47a5.401 5.401 0 0 1-1.699-4.53 5.609 5.609 0 0 1 4.644-4.966l.234-.034 20.67-2.84L194.85 102a5.827 5.827 0 0 1 5.148-3.098Zm0 10.578-7.267 14.27-1.889 3.71-3.808.54h-.31l-15.712 2.26 6.067 5.74 5.127 4.81 3.129 3-.75 4.25-2.698 15.26 14.483-7.38 3.628-1.85 3.628 1.89 14.483 7.38-2.699-15.26-.75-4.25 3.13-3 5.127-4.85 6.067-5.74L213.3 128h-.31l-3.838-.54-1.889-3.71-7.266-14.27Zm-143.93-1.95L27.96 128.01l-2.768 2-.19.14a2.24 2.24 0 0 0-1 1.91 2.25 2.25 0 0 0 .94 1.94l3.048 2 28.077 18.75v-47.22Zm207.899 0v47.22L292.043 136l3.049-2-.02-.05a2.39 2.39 0 0 0 0-3.81l-.19-.14-2.769-2-28.146-20.47ZM148.023 88a3.999 3.999 0 0 1 3.998 4 4 4 0 0 1-3.798 3.995l-.2.005H84.054a4.002 4.002 0 0 1-2.949-6.65 4.13 4.13 0 0 1 1.34-1 3.907 3.907 0 0 1 1.372-.342l.237-.008h63.969Zm71.965-24a3.999 3.999 0 0 1 3.998 4c.01.173.01.347 0 .52a3.999 3.999 0 0 1-3.797 3.477l-.201.003H84.054a3.999 3.999 0 0 1-3.998-4 4 4 0 0 1 3.799-3.995l.2-.005h135.933Zm0-24a3.999 3.999 0 0 1 3.998 4 4 4 0 0 1-3.798 3.995l-.2.005H84.054a3.999 3.999 0 0 1-3.998-4 4 4 0 0 1 3.799-3.995l.2-.005h135.933Z"/></g></svg>