<svg xmlns="http://www.w3.org/2000/svg" width="320" height="320" viewBox="0 0 320 320"><g id="Foundations/Icons/Brand-Icons/Commands/21-maximise" fill="none" fill-rule="evenodd" stroke="none" stroke-width="1"><path id="Outlines" fill="#000" d="M137.17 177.17a4.002 4.002 0 1 1 5.66 5.66L21.65 304H84a4 4 0 1 1 0 8H12a4.15 4.15 0 0 1-.8-.09c-.11-.02-.22-.1-.33-.1a2.8 2.8 0 0 1-.41-.13 2.28 2.28 0 0 1-.38-.2 2.38 2.38 0 0 1-.31-.17 3.64 3.64 0 0 1-.61-.49l-.174-.19a4.75 4.75 0 0 1-.316-.41c-.07-.1-.1-.18-.17-.31s-.15-.24-.2-.38c-.05-.14-.12-.27-.12-.41a1.91 1.91 0 0 1-.1-.34A3.454 3.454 0 0 1 8 308v-72a4 4 0 0 1 8 0v62.33Zm40 0a4.002 4.002 0 0 1 5.66 0L304 298.34V236a4 4 0 1 1 8.001 0v72a3.49 3.49 0 0 1-.07.77 1.91 1.91 0 0 1-.1.34c-.04.14-.06.28-.12.41-.06.13-.13.25-.2.38-.06.1-.1.21-.19.33a4.75 4.75 0 0 1-.49.6l-.192.178a3.64 3.64 0 0 1-.419.312c-.1.07-.18.12-.31.18s-.25.14-.38.19a2.8 2.8 0 0 1-.41.13c-.11.03-.22.1-.33.1-.26.052-.524.08-.79.08h-72a4 4 0 1 1 0-8h62.35L177.17 182.83a4.002 4.002 0 0 1 0-5.66ZM84 8a4 4 0 0 1 0 8H21.65l121.18 121.17a4.002 4.002 0 1 1-5.66 5.66L16 21.67V84a4 4 0 1 1-8 0V12a3.44 3.44 0 0 1 .12-.8 1.91 1.91 0 0 1 .1-.34c.04-.14.06-.28.12-.41.06-.13.14-.28.2-.38.06-.1.1-.21.17-.31a4.75 4.75 0 0 1 .49-.6l.192-.178a3.64 3.64 0 0 1 .738-.492c.12-.06.24-.19.37-.19a2.8 2.8 0 0 1 .41-.13c.11-.03.22-.1.33-.1.25-.048.505-.072.76-.07Zm224.13.03a4.9 4.9 0 0 1 .67.07l.38.11c.12.04.25.07.37.12a3 3 0 0 1 .4.21c.102.044.2.097.29.16.22.141.425.305.61.49l.174.191c.113.13.218.267.316.41.07.1.1.18.17.31s.15.24.2.38c.05.14.12.27.12.41.04.106.07.217.09.33.057.255.083.517.08.78v72a4 4 0 0 1-8 0V21.67L182.83 142.83a4.002 4.002 0 0 1-5.66-5.66L298.34 16.03H236a4 4 0 0 1 0-8Z"/></g></svg>