<svg xmlns="http://www.w3.org/2000/svg" width="320" height="320" viewBox="0 0 320 320"><g id="Foundations/Icons/Brand-Icons/Charts-and-Graphs/11-maze" fill="none" fill-rule="evenodd" stroke="none" stroke-width="1"><path id="lg-icon-fill-primary" fill="#FFD500" d="M308 12v296h-55.73v-24.17h31.55V36.17H244v63.71H100v104.25h47.85v24.17h-72V75.71h144V36.17H100.33V12H308ZM68 12v24.17H36.13v247.66h151.63v-119.9H140.2v-24.17h104.06v24.17H211.9v103.9h-.15V308H12V12h56Z"/><path id="Half-tone" fill="#000" d="M40 292a4 4 0 1 1 0 8 4 4 0 0 1 0-8Zm32 0a4 4 0 1 1 0 8 4 4 0 0 1 0-8Zm224 0a4 4 0 1 1 0 8 4 4 0 0 1 0-8Zm-32 0a4 4 0 1 1 0 8 4 4 0 0 1 0-8Zm-160 0a4 4 0 1 1 0 8 4 4 0 0 1 0-8Zm32 0a4 4 0 1 1 0 8 4 4 0 0 1 0-8Zm32 0a4 4 0 1 1 0 8 4 4 0 0 1 0-8Zm32 0a4 4 0 1 1 0 8 4 4 0 0 1 0-8ZM24 276a4 4 0 1 1 0 8 4 4 0 0 1 0-8Zm272-16a4 4 0 1 1 0 8 4 4 0 0 1 0-8Zm-96 0a4 4 0 1 1 0 8 4 4 0 0 1 0-8ZM24 244a4 4 0 1 1 0 8 4 4 0 0 1 0-8Zm176-16a4 4 0 1 1 0 8 4 4 0 0 1 0-8Zm96 0 .2.005a4 4 0 1 1-.2-.005ZM24 212l.2.005A4 4 0 1 1 24 212Zm64 0 .2.005A4 4 0 1 1 88 212Zm32 0 .2.005a4 4 0 1 1-.2-.005Zm80-16 .2.005a4 4 0 1 1-.2-.005Zm96 0 .2.005a4 4 0 1 1-.2-.005ZM24 180a4 4 0 1 1 0 8 4 4 0 0 1 0-8Zm64 0a4 4 0 1 1 0 8 4 4 0 0 1 0-8Zm208-16 .2.005a4 4 0 1 1-.2-.005Zm-96 0a4 4 0 1 1 0 8 4 4 0 0 1 0-8ZM88 148a4 4 0 1 1 0 8 4 4 0 0 1 0-8Zm-64 0a4 4 0 1 1 0 8 4 4 0 0 1 0-8Zm160 0a4 4 0 1 1 0 8 4 4 0 0 1 0-8Zm-32 0a4 4 0 1 1 0 8 4 4 0 0 1 0-8Zm64 0a4 4 0 1 1 0 8 4 4 0 0 1 0-8Zm80-16 .2.005a4 4 0 1 1-.2-.005ZM24 116l.2.005A4 4 0 1 1 24 116Zm64 0 .2.005A4 4 0 1 1 88 116Zm208-16 .2.005a4 4 0 1 1-.2-.005ZM24 84a4 4 0 1 1 0 8 4 4 0 0 1 0-8Zm192 0a4 4 0 1 1 0 8 4 4 0 0 1 0-8Zm-32 0a4 4 0 1 1 0 8 4 4 0 0 1 0-8Zm-96 0a4 4 0 1 1 0 8 4 4 0 0 1 0-8Zm32 0a4 4 0 1 1 0 8 4 4 0 0 1 0-8Zm32 0a4 4 0 1 1 0 8 4 4 0 0 1 0-8Zm144-16 .2.005A4 4 0 1 1 296 68Zm-64 0a4 4 0 1 1 0 8 4 4 0 0 1 0-8ZM24 52a4 4 0 1 1 0 8 4 4 0 0 1 0-8Zm272-16a4 4 0 1 1 0 8 4 4 0 0 1 0-8Zm-64 0a4 4 0 1 1 0 8 4 4 0 0 1 0-8ZM24 20a4 4 0 1 1 0 8 4 4 0 0 1 0-8Zm32 0a4 4 0 1 1 0 8 4 4 0 0 1 0-8Zm64 0a4 4 0 1 1 0 8 4 4 0 0 1 0-8Zm32 0a4 4 0 1 1 0 8 4 4 0 0 1 0-8Zm32 0a4 4 0 1 1 0 8 4 4 0 0 1 0-8Zm32 0a4 4 0 1 1 0 8 4 4 0 0 1 0-8Zm32 0a4 4 0 1 1 0 8 4 4 0 0 1 0-8Zm32 0 .2.005A4 4 0 1 1 280 20Z"/><path id="Outlines" fill="#000" d="M308 4a8 8 0 0 1 8 8v296a8 8 0 0 1-8 8h-55.73a8 8 0 0 1-8-8v-24.17a8 8 0 0 1 8-8h23.55V44.17H252v55.71a8 8 0 0 1-8 8H108v88.25h39.87a8 8 0 0 1 8 8v24.17a8 8 0 0 1-8 8h-72a8 8 0 0 1-8-8V75.71a8 8 0 0 1 8-8h136V44.17H100.33a8 8 0 0 1-8-8V12a8 8 0 0 1 8-8ZM68 4a8 8 0 0 1 8 8v24.17a8 8 0 0 1-8 8H44.13v231.66h135.63v-103.9H140.2a8 8 0 0 1-8-8v-24.17a8 8 0 0 1 8-8h104.06a8 8 0 0 1 8 8v24.17a8 8 0 0 1-8 8H219.9v103.9h-.15V308a8 8 0 0 1-8 8H4V12a8 8 0 0 1 8-8Zm240 8H100.33v24.17h119.52v39.54h-144V228.3h72v-24.17H100V99.88h144V36.17h39.82v247.66h-31.55V308H308V12ZM68 12H12v296h199.75v-40.17h.15v-103.9h32.36v-24.17H140.2v24.17h47.56v119.9H36.13V36.17H68V12Z"/></g></svg>