<svg xmlns="http://www.w3.org/2000/svg" width="320" height="320" viewBox="0 0 320 320"><g id="Foundations/Icons/Brand-Icons/Health/02-medical-bag" fill="none" fill-rule="evenodd" stroke="none" stroke-width="1"><path id="lg-icon-fill-primary" fill="#FFD500" d="M110 163.16c0-.922.748-1.67 1.67-1.67h31.56v-31.56c0-.922.748-1.67 1.67-1.67h30.2c.922 0 1.67.748 1.67 1.67v31.56h31.56c.922 0 1.67.748 1.67 1.67v30.21a1.66 1.66 0 0 1-1.67 1.66h-31.56v31.57a1.66 1.66 0 0 1-1.67 1.66h-30.2a1.66 1.66 0 0 1-1.67-1.66V195h-31.56a1.66 1.66 0 0 1-1.67-1.66v-30.18Z"/><path id="Half-tone" fill="#000" d="M92 280a4 4 0 1 1 0 8 4 4 0 0 1 0-8Zm-32 0a4 4 0 1 1 0 8 4 4 0 0 1 0-8Zm96 0a4 4 0 1 1 0 8 4 4 0 0 1 0-8Zm-32 0a4 4 0 1 1 0 8 4 4 0 0 1 0-8Zm64 0 .2.005a4 4 0 1 1-.4 0l.2-.005Zm32 0a4 4 0 1 1 0 8 4 4 0 0 1 0-8Zm32 0a4 4 0 1 1 0 8 4 4 0 0 1 0-8Zm-144-16a4 4 0 1 1 0 8 4 4 0 0 1 0-8Zm-32 0a4 4 0 1 1 0 8 4 4 0 0 1 0-8Zm-32 0a4 4 0 1 1 0 8 4 4 0 0 1 0-8Zm128 0 .2.005a4 4 0 1 1-.4 0l.2-.005Zm-32 0a4 4 0 1 1 0 8 4 4 0 0 1 0-8Zm96 0a4 4 0 1 1 0 8 4 4 0 0 1 0-8Zm-32 0a4 4 0 1 1 0 8 4 4 0 0 1 0-8Zm64 0a4 4 0 1 1 0 8 4 4 0 0 1 0-8Z"/><path id="Outlines" fill="#000" d="M210 24c.54 0 1.08.056 1.61.16.26.06.52.12.77.2a8.09 8.09 0 0 1 4.25 3.17c.293.426.541.882.74 1.36A7.86 7.86 0 0 1 218 32v8h86a8 8 0 0 1 8 8v128a8 8 0 0 1-8 8h-8v112a8 8 0 0 1-8 8H32a8 8 0 0 1-8-8V184h-8a8 8 0 0 1-8-8V48a8 8 0 0 1 8-8h86v-8a7.86 7.86 0 0 1 .63-3.11 7.44 7.44 0 0 1 .74-1.36 8.09 8.09 0 0 1 4.25-3.17c.25-.08.51-.14.77-.2.53-.104 1.07-.16 1.61-.16Zm94 24H16v128h8a8 8 0 0 1 8 8v112h256V184a8 8 0 0 1 8-8h8V48Zm-127.95 72.31c.353.04.687.09 1 .15a9.75 9.75 0 0 1 3.46 1.45c.51.352.988.746 1.43 1.18a8 8 0 0 1 .62.69 9.62 9.62 0 0 1 2.21 6.15v23.56h23.55a9.67 9.67 0 0 1 9.67 9.67v30.19a9.923 9.923 0 0 1-.08 1.23 9.33 9.33 0 0 1-.59 2.31 8.66 8.66 0 0 1-.5 1.07 9.25 9.25 0 0 1-1 1.54 10.13 10.13 0 0 1-1.31 1.31 9.77 9.77 0 0 1-4.2 2 9.63 9.63 0 0 1-1.95.19H184.8v23.6a9.66 9.66 0 0 1-4.26 8.01 9.34 9.34 0 0 1-4.42 1.6 8 8 0 0 1-1 0h-30.2a8 8 0 0 1-1 0 9.58 9.58 0 0 1-8.68-9.61v-23.58h-23.56a9.63 9.63 0 0 1-2-.19 9.77 9.77 0 0 1-4.2-2 10.13 10.13 0 0 1-1.31-1.31 9.25 9.25 0 0 1-1-1.54 8.66 8.66 0 0 1-.5-1.07 9.33 9.33 0 0 1-.59-2.31 10.006 10.006 0 0 1-.08-1.23v-30.21a9.67 9.67 0 0 1 9.67-9.67h23.51v-23.56a9.65 9.65 0 0 1 7.72-9.47c.35-.06.67-.15 1-.15Zm-.95 7.95h-30.2a1.67 1.67 0 0 0-1.67 1.67v31.56h-31.56a1.67 1.67 0 0 0-1.67 1.67v30.18a1.66 1.66 0 0 0 1.67 1.66h31.56v31.6a1.66 1.66 0 0 0 1.67 1.66h30.2a1.66 1.66 0 0 0 1.67-1.66v-31.57h31.56a1.66 1.66 0 0 0 1.67-1.66v-30.21a1.67 1.67 0 0 0-1.67-1.67h-31.56v-31.56a1.67 1.67 0 0 0-1.67-1.67ZM210 32H110v8h100v-8Z"/></g></svg>