<svg width="320" height="320" viewBox="0 0 320 320" xmlns="http://www.w3.org/2000/svg"><g id="Foundations/Icons/Brand-Icons/Health/09-medication" stroke="none" stroke-width="1" fill="none" fill-rule="evenodd"><path id="lg-icon-fill-primary" fill="#FFD500" d="M92 144h136v96H92z"/><path d="M96 24a4 4 0 1 1 0 8 4 4 0 0 1 0-8Zm64 0 .2.005A4 4 0 1 1 160 24Zm-32 0a4 4 0 1 1 0 8 4 4 0 0 1 0-8Zm96 0a4 4 0 1 1 0 8 4 4 0 0 1 0-8Zm-32 0a4 4 0 1 1 0 8 4 4 0 0 1 0-8Z" id="Half-tone" fill="#000"/><path d="M236 0a8 8 0 0 1 8 8v48a8 8 0 0 1-8 8h-1.6l23.85 29.81a8.008 8.008 0 0 1 1.75 5V312c0 4.42-3.58 8-8 8H68a8 8 0 0 1-8-8V98.81a8.01 8.01 0 0 1 1.75-5L85.6 64H84a8 8 0 0 1-8-8V8a8 8 0 0 1 8-8Zm-11.85 64H95.85L68 98.81V312h184V98.81L224.15 64Zm3.85 72a8 8 0 0 1 8 8v96a8 8 0 0 1-8 8H92a8 8 0 0 1-8-8v-96a8 8 0 0 1 8-8Zm0 8H92v96h136v-96Zm8-136H84v48h152V8Z" id="Outlines" fill="#000"/></g></svg>