<svg xmlns="http://www.w3.org/2000/svg" width="320" height="320" viewBox="0 0 320 320"><g id="Foundations/Icons/Brand-Icons/UI/Group-Protection/03-medical" fill="none" fill-rule="evenodd" stroke="none" stroke-width="1"><path id="lg-icon-fill-primary" fill="#FFD500" d="M180 52v88h88v40h-88v88h-40v-88H52v-40h88V52h40Z"/><path id="Half-tone" fill="#000" d="M160 236a4 4 0 1 1 0 8 4 4 0 0 1 0-8Zm0-32a4 4 0 1 1 0 8 4 4 0 0 1 0-8Zm0-32a4 4 0 1 1 0 8 4 4 0 0 1 0-8Zm80-16a4 4 0 1 1 0 8 4 4 0 0 1 0-8Zm-32 0a4 4 0 1 1 0 8 4 4 0 0 1 0-8Zm-32 0a4 4 0 1 1 0 8 4 4 0 0 1 0-8Zm-32 0a4 4 0 1 1 0 8 4 4 0 0 1 0-8Zm-32 0a4 4 0 1 1 0 8 4 4 0 0 1 0-8Zm-32 0a4 4 0 1 1 0 8 4 4 0 0 1 0-8Zm80-16a4 4 0 1 1 0 8 4 4 0 0 1 0-8Zm0-32a4 4 0 1 1 0 8 4 4 0 0 1 0-8Zm0-32a4 4 0 1 1 0 8 4 4 0 0 1 0-8Z"/><path id="Outlines" fill="#000" d="M200 28a4 4 0 0 1 4 4v84h84a4 4 0 0 1 3.995 3.8l.005.2v80a4 4 0 0 1-4 4h-84v84a4 4 0 0 1-3.8 3.995l-.2.005h-80a4 4 0 0 1-4-4v-84H32a4 4 0 0 1-3.995-3.8L28 200v-80a4 4 0 0 1 4-4h84V32a4 4 0 0 1 3.8-3.995L120 28Zm-4 8h-72v84a4 4 0 0 1-3.8 3.995l-.2.005H36v72h84a4 4 0 0 1 3.995 3.8l.005.2v84h72v-84a4 4 0 0 1 3.8-3.995l.2-.005h84v-72h-84a4 4 0 0 1-3.995-3.8L196 120V36Zm-16 12a4 4 0 0 1 4 4v84h84a4 4 0 0 1 3.995 3.8l.005.2v40a4 4 0 0 1-4 4h-84v84a4 4 0 0 1-3.8 3.995l-.2.005h-40a4 4 0 0 1-4-4v-84H52a4 4 0 0 1-3.995-3.8L48 180v-40a4 4 0 0 1 4-4h84V52a4 4 0 0 1 3.8-3.995L140 48Zm-4 8h-32v84a4 4 0 0 1-3.8 3.995l-.2.005H56v32h84a4 4 0 0 1 3.995 3.8l.005.2v84h32v-84a4 4 0 0 1 3.8-3.995l.2-.005h84v-32h-84a4 4 0 0 1-3.995-3.8L176 140V56Z"/></g></svg>