<svg width="320" height="320" viewBox="0 0 320 320" xmlns="http://www.w3.org/2000/svg"><g id="Foundations/Icons/Brand-Icons/Communication/11-megaphone" stroke="none" stroke-width="1" fill="none" fill-rule="evenodd"><path id="lg-icon-fill-primary" fill="#FFD500" d="M271.997 96.002v143.999l-119.999-55.59V64.473l120-56.47z"/><path d="M52 176.001a4 4 0 1 1 0 8 4 4 0 0 1 0-8Zm32 0a4 4 0 1 1 0 8 4 4 0 0 1 0-8Zm31.999 0a4 4 0 1 1 0 8 4 4 0 0 1 0-8Zm-80-16a4 4 0 1 1 0 8 4 4 0 0 1 0-8Zm32 0a4 4 0 1 1 0 8 4 4 0 0 1 0-8Zm32 0a4 4 0 1 1 0 8 4 4 0 0 1 0-8Zm32 0a4 4 0 1 1 0 8 4 4 0 0 1 0-8Zm-112-16a4 4 0 1 1 0 8 4 4 0 0 1 0-8Zm32 0a4 4 0 1 1 0 8 4 4 0 0 1 0-8Zm32 0a4 4 0 1 1 0 8 4 4 0 0 1 0-8Zm32 0a4 4 0 1 1 0 8 4 4 0 0 1 0-8ZM4 128.002a4 4 0 1 1 0 8 4 4 0 0 1 0-8Zm32 0a4 4 0 1 1 0 8 4 4 0 0 1 0-8Zm32 0a4 4 0 1 1 0 8 4 4 0 0 1 0-8Zm31.999 0a4 4 0 1 1 0 8 4 4 0 0 1 0-8Zm32 0a4 4 0 1 1 0 8 4 4 0 0 1 0-8Zm-112-15.999a4 4 0 1 1 0 8 4 4 0 0 1 0-8Zm32 0a4 4 0 1 1 0 8 4 4 0 0 1 0-8Zm32 0a4 4 0 1 1 0 8 4 4 0 0 1 0-8Zm32 0a4 4 0 1 1 0 8 4 4 0 0 1 0-8Zm-48-16a4 4 0 1 1 0 8 4 4 0 0 1 0-8Zm32 0a4 4 0 1 1 0 8 4 4 0 0 1 0-8Zm32 0a4 4 0 1 1 0 8 4 4 0 0 1 0-8Zm-80-16a4 4 0 1 1 0 8 4 4 0 0 1 0-8Zm32 0a4 4 0 1 1 0 8 4 4 0 0 1 0-8Zm32 0a4 4 0 1 1 0 8 4 4 0 0 1 0-8Zm-48-16a4 4 0 1 1 0 8 4 4 0 0 1 0-8Zm32 0a4 4 0 1 1 0 8 4 4 0 0 1 0-8Zm32 0a4 4 0 1 1 0 8 4 4 0 0 1 0-8Z" id="Half-tone" fill="#000"/><path d="M311.997 88.002h-32V8.003a8 8 0 0 0-11.41-7.24l-116.589 54.88a8 8 0 0 0-8-7.64H40a8 8 0 0 0-8 8v40H8a8 8 0 0 0-8 8v55.999a8 8 0 0 0 8 8h24v24a8 8 0 0 0 8 8h16V312a8 8 0 0 0 8 8h55.999a8 8 0 0 0 8-8V200.001h16a8 8 0 0 0 7.9-6.82l116.738 54.08a8 8 0 0 0 11.36-7.26v-88h32a8 8 0 0 0 8-8V96.003a8 8 0 0 0-8-8ZM119.999 312h-56V200.001h56v112Zm24-119.999h-104v-32H8v-55.999h32v-48h104v136Zm127.998-95.999v143.999l-119.999-55.59V64.473l120-56.47v88Zm40 48h-32v-48h32v48Z" id="Outlines" fill="#000"/></g></svg>