<svg xmlns="http://www.w3.org/2000/svg" width="320" height="320" viewBox="0 0 320 320"><g id="Foundations/Icons/Brand-Icons/Commands/20-minimise" fill="none" fill-rule="evenodd" stroke="none" stroke-width="1"><path id="Outlines" fill="#000" d="M140.208 176.082c.22.009.441.032.66.07.129.028.256.065.38.11.12.04.25.07.37.12.14.056.274.127.4.21.1.044.196.094.29.15.216.15.42.318.61.5l.18.188c.117.13.223.267.32.412.06.1.11.21.16.31.076.122.143.249.2.38a2.8 2.8 0 0 1 .13.41c.039.112.072.225.1.34.05.257.078.518.08.78v72a4 4 0 1 1-8 0v-62.34l-121.19 121.16a4 4 0 1 1-5.65-5.66l121.18-121.14h-62.34a4 4 0 1 1 0-8Zm111.88-.02a4 4 0 1 1 0 8h-62.34l121.18 121.16a4 4 0 0 1-5.65 5.66l-121.16-121.16v62.33a4 4 0 1 1-8 0v-72a4.13 4.13 0 0 1 .08-.78 3.37 3.37 0 0 1 .1-.34 2.8 2.8 0 0 1 .13-.41 3.48 3.48 0 0 1 .2-.38c.05-.1.1-.21.16-.31a3.62 3.62 0 0 1 .5-.6l.194-.177a4.92 4.92 0 0 1 .416-.323l.32-.17a2.58 2.58 0 0 1 .78-.32 3.37 3.37 0 0 1 .34-.1c.246-.051.497-.08.75-.08ZM10.994 8.13a4 4 0 0 1 3.904 1.113l121.19 121.16v-62.34a4 4 0 1 1 8 0v72c0 .266-.028.53-.08.79a3.37 3.37 0 0 1-.1.34 2.8 2.8 0 0 1-.13.41 2.75 2.75 0 0 1-.2.38c-.05.1-.1.21-.16.31a3.62 3.62 0 0 1-.5.6l-.195.178a4.92 4.92 0 0 1-.415.322l-.32.17a2.58 2.58 0 0 1-.78.32 3.37 3.37 0 0 1-.34.1 3.92 3.92 0 0 1-.78.08h-72a4 4 0 1 1 0-8h62.34L9.248 14.902a4 4 0 0 1 1.746-6.773Zm294.284 1.113a4 4 0 0 1 5.65 5.66l-121.18 121.15h62.34a4 4 0 1 1 0 8h-72a4.13 4.13 0 0 1-.78-.08 3.37 3.37 0 0 1-.34-.1 2.8 2.8 0 0 1-.41-.13c-.13-.05-.25-.13-.38-.19l-.31-.17a4.92 4.92 0 0 1-.61-.5l-.181-.187a3.62 3.62 0 0 1-.32-.413c-.06-.1-.11-.21-.16-.31a3.48 3.48 0 0 1-.2-.38 2.8 2.8 0 0 1-.13-.41 3.37 3.37 0 0 1-.1-.34 4.13 4.13 0 0 1-.08-.78v-72a4 4 0 1 1 8 0v62.34Z"/></g></svg>