<svg xmlns="http://www.w3.org/2000/svg" viewBox="0 0 320 320"><g id="Foundations/Icons/Brand-Icons/15-Minutes" fill="none" fill-rule="evenodd" stroke="none" stroke-width="1"><path id="lg-icon-fill-primary" fill="#FFD500" d="M163 100c44.735 0 81 36.265 81 81 0 2.359-.1 4.694-.298 7.001L156 188l-.001-87.702A82.064 82.064 0 01163 100z"/><path id="Half-tone" fill="#000" d="M224 164a4 4 0 110 8 4 4 0 010-8zm-32 0a4 4 0 110 8 4 4 0 010-8zm16-16a4 4 0 110 8 4 4 0 010-8zm-32 0a4 4 0 110 8 4 4 0 010-8zm16-16a4 4 0 110 8 4 4 0 010-8zm-16-16a4 4 0 110 8 4 4 0 010-8z"/><path id="Outlines" fill="#000" d="M215.996 16a8 8 0 018 8v16a8 8 0 01-8 8H176l.001 17.058C234.711 72.88 280 123.15 280 184c0 66.274-53.726 120-120 120S40 250.274 40 184c0-60.85 45.29-111.12 104-118.943V48h-40.004a8 8 0 01-8-8V24a8 8 0 018-8h112zM160 72C98.144 72 48 122.144 48 184s50.144 112 112 112 112-50.144 112-112S221.856 72 160 72zm0 24c48.601 0 88 39.399 88 88s-39.399 88-88 88-88-39.399-88-88 39.399-88 88-88zm-80 88c0 44.183 35.817 80 80 80 41.482 0 75.59-31.573 79.605-71.999L152 192v-87.605c-40.427 4.014-72 38.122-72 79.605zm80-80v80h80c0-44.183-35.817-80-80-80zm8-56h-16v16h16V48zm47.996-24h-112v16h112V24z"/></g></svg>