<svg width="320" height="320" viewBox="0 0 320 320" xmlns="http://www.w3.org/2000/svg"><g id="Foundations/Icons/Brand-Icons/Communication/05-mobile-phone" stroke="none" stroke-width="1" fill="none" fill-rule="evenodd"><path d="M160 264c8.837 0 16 7.163 16 16s-7.163 16-16 16-16-7.163-16-16 7.163-16 16-16" id="lg-icon-fill-primary" fill="#FFD500"/><path d="M76 280a4 4 0 1 1 0 8 4 4 0 0 1 0-8Zm0-32a4 4 0 1 1 0 8 4 4 0 0 1 0-8Zm0-32a4 4 0 1 1 0 8 4 4 0 0 1 0-8Zm0-32a4 4 0 1 1 0 8 4 4 0 0 1 0-8Zm0-32a4 4 0 1 1 0 8 4 4 0 0 1 0-8Zm0-32a4 4 0 1 1 0 8 4 4 0 0 1 0-8Zm0-32a4 4 0 1 1 0 8 4 4 0 0 1 0-8Zm0-32a4 4 0 1 1 0 8 4 4 0 0 1 0-8Zm0-32a4 4 0 1 1 0 8 4 4 0 0 1 0-8Z" id="Half-tone" fill="#000"/><path d="M255.7 0a8.31 8.31 0 0 1 8.3 8.3v303.4a8.31 8.31 0 0 1-8.3 8.3H64.3a8.31 8.31 0 0 1-8.3-8.3V8.3A8.31 8.31 0 0 1 64.3 0Zm0 8H64.3a.31.31 0 0 0-.3.3v303.4a.31.31 0 0 0 .3.3h191.4a.31.31 0 0 0 .3-.3V8.3a.31.31 0 0 0-.3-.3ZM160 256c13.255 0 24 10.745 24 24s-10.745 24-24 24-24-10.745-24-24 10.745-24 24-24Zm0 8c-8.837 0-16 7.163-16 16s7.163 16 16 16 16-7.163 16-16-7.163-16-16-16Zm64.8-224c3.98 0 7.2 2.91 7.2 6.5v195c0 3.59-3.2 6.5-7.2 6.5H95.2c-3.98 0-7.2-2.91-7.2-6.5v-195c0-3.59 3.2-6.5 7.2-6.5Zm-.8 8H96v192h128V48Zm-28-24a4 4 0 1 1 0 8h-72a4 4 0 1 1 0-8h72Z" id="Outlines" fill="#000"/></g></svg>