<svg xmlns="http://www.w3.org/2000/svg" width="320" height="320" fill="none" viewBox="0 0 320 320"><path fill="#FFD500" fill-rule="evenodd" d="M120 300h80c15.464 0 28-12.536 28-28v-12H92v12c0 15.464 12.536 28 28 28Zm0-280h80c15.464 0 28 12.536 28 28v12H92V48c0-15.464 12.536-28 28-28Z" clip-rule="evenodd"/><path fill="#000" fill-rule="evenodd" d="M180 232a4 4 0 1 1 0 8 4 4 0 0 1 0-8Zm-32 0a4 4 0 1 1 0 8 4 4 0 0 1 0-8Zm-32 0a4 4 0 1 1 0 8 4 4 0 0 1 0-8Zm48-16a4 4 0 1 1 0 8 4 4 0 0 1 0-8Zm-32 0a4 4 0 1 1 0 8 4 4 0 0 1 0-8Zm16-16a4 4 0 1 1 0 8 4 4 0 0 1 0-8Zm-32 0a4 4 0 1 1 0 8 4 4 0 0 1 0-8Zm16-16a4 4 0 1 1 0 8 4 4 0 0 1 0-8Zm-16-16a4 4 0 1 1 0 8 4 4 0 0 1 0-8Zm24-80a4 4 0 1 1 0-8 4 4 0 0 1 0 8Zm32 0a4 4 0 1 1 0-8 4 4 0 0 1 0 8Zm32 0a4 4 0 1 1 0-8 4 4 0 0 1 0 8Zm-48 16a4 4 0 1 1 0-8 4 4 0 0 1 0 8Zm32 0a4 4 0 1 1 0-8 4 4 0 0 1 0 8Zm-16 16a4 4 0 1 1 0-8 4 4 0 0 1 0 8Zm32 0a4 4 0 1 1 0-8 4 4 0 0 1 0 8Zm-16 16a4 4 0 1 1 0-8 4 4 0 0 1 0 8Zm16 16a4 4 0 1 1 0-8 4 4 0 0 1 0 8Z" clip-rule="evenodd"/><path fill="#000" fill-rule="evenodd" d="M198.222 16C216.877 16 232 30.327 232 48v224c0 17.673-15.123 32-33.778 32h-76.444C103.123 304 88 289.673 88 272V48c0-17.673 15.123-32 33.778-32h76.444Zm25.333 248H96.444v8c0 13.255 11.343 24 25.334 24h76.444c13.991 0 25.334-10.745 25.334-24l-.001-8Zm0-200H96.444v192h127.111V64Zm-25.333-40h-76.444c-13.991 0-25.334 10.745-25.334 24v8h127.111l.001-8c0-13.255-11.343-24-25.334-24ZM184 36a4 4 0 0 1 0 8h-32a4 4 0 0 1 0-8h32Zm-48 0a4 4 0 1 1 0 8 4 4 0 0 1 0-8Z" clip-rule="evenodd"/></svg>