<svg xmlns="http://www.w3.org/2000/svg" width="320" height="320" viewBox="0 0 320 320"><g id="Foundations/Icons/Brand-Icons/Entertainment-and-Technology/02-mobile-device" fill="none" fill-rule="evenodd" stroke="none" stroke-width="1"><circle id="lg-icon-fill-primary" cx="160" cy="280" r="24" fill="#FFD500"/><path id="Half-tone" fill="#000" d="M68 288a4 4 0 1 1 0 8 4 4 0 0 1 0-8Zm0-32a4 4 0 1 1 0 8 4 4 0 0 1 0-8Zm0-32 .2.005A4 4 0 1 1 68 224Zm0-32a4 4 0 1 1 0 8 4 4 0 0 1 0-8Zm0-32 .2.005A4 4 0 1 1 68 160Zm0-32a4 4 0 1 1 0 8 4 4 0 0 1 0-8Zm0-32 .2.005A4 4 0 1 1 68 96Zm0-32a4 4 0 1 1 0 8 4 4 0 0 1 0-8Zm0-32a4 4 0 1 1 0 8 4 4 0 0 1 0-8Z"/><path id="Outlines" fill="#000" d="M263.7 0a8.31 8.31 0 0 1 8.3 8.3v303.4a8.31 8.31 0 0 1-8.3 8.3H56.3a8.31 8.31 0 0 1-8.3-8.3V8.3A8.31 8.31 0 0 1 56.3 0Zm0 8H56.3a.31.31 0 0 0-.3.3v303.4a.31.31 0 0 0 .3.3h207.4a.31.31 0 0 0 .3-.3V8.3a.31.31 0 0 0-.3-.3ZM160 256c13.255 0 24 10.745 24 24s-10.745 24-24 24-24-10.745-24-24 10.745-24 24-24Zm0 8c-8.837 0-16 7.163-16 16s7.163 16 16 16 16-7.163 16-16-7.163-16-16-16Zm72.8-224c3.98 0 7.2 2.91 7.2 6.5v195c0 3.59-3.2 6.5-7.2 6.5H87.2c-3.98 0-7.2-2.91-7.2-6.5v-195c0-3.59 3.2-6.5 7.2-6.5Zm-.8 8H88v192h144V48Zm-32-24a4 4 0 1 1 0 8h-84a4 4 0 1 1 0-8Z"/></g></svg>