<svg width="320" height="320" viewBox="0 0 320 320" xmlns="http://www.w3.org/2000/svg"><g id="Foundations/Icons/Brand-Icons/Transport/07-moped" stroke="none" stroke-width="1" fill="none" fill-rule="evenodd"><circle id="lg-icon-fill-primary" fill="#FFD500" cx="160" cy="47.981" r="44"/><path d="M156.07 71.89a4 4 0 1 1 0 8 4 4 0 0 1 0-8Zm-16-16a4 4 0 1 1 0 8 4 4 0 0 1 0-8Zm32 0a4 4 0 1 1 0 8 4 4 0 0 1 0-8Zm-16-16a4 4 0 1 1 0 8 4 4 0 0 1 0-8Zm32 0a4 4 0 1 1 0 8 4 4 0 0 1 0-8Zm-16-16a4 4 0 1 1 0 8 4 4 0 0 1 0-8Z" id="Half-tone" fill="#000"/><path d="M256 15.98h-57a8.08 8.08 0 0 0-2.79.51 48 48 0 0 0-72.42 0 8.08 8.08 0 0 0-2.79-.51H64a8 8 0 0 0-8 8v8a8 8 0 0 0 8 8h48.68a47.83 47.83 0 0 0 9.67 37.75 52.91 52.91 0 0 0-18.92 20.85 69.36 69.36 0 0 0-7.43 29v70.88c0 30.27 16.67 44.68 30.65 51.44 1.79.87 3.59 1.63 5.35 2.3v51.78c0 8.837 7.163 16 16 16h24c8.837 0 16-7.163 16-16v-51a52.15 52.15 0 0 0 28.57-25.57 69.36 69.36 0 0 0 7.43-29v-70.87c0-27.46-13.72-41.87-26.7-49.35a47.88 47.88 0 0 0 10-38.21H256a8 8 0 0 0 8-8v-8a8 8 0 0 0-8-8Zm-141.26 16H64v-8h54.44a47.27 47.27 0 0 0-3.7 8ZM104 198.42v-70.88a60.78 60.78 0 0 1 8-27.92V227.4c-4.81-7.08-8-16.48-8-28.98Zm76 105.56a8 8 0 0 1-8 8h-24a8 8 0 0 1-8-8v-96a8 8 0 0 1 8-8h24a8 8 0 0 1 8 8v96Zm36-176.44v70.88a60.78 60.78 0 0 1-8 27.92V98.56c4.81 7.08 8 16.48 8 28.98Zm-16-37.77v146.59a43.21 43.21 0 0 1-12 7.94v-36.32c0-8.836-7.163-16-16-16h-24c-8.837 0-16 7.164-16 16v35.54a50.53 50.53 0 0 1-12-7.33V89.6a42.72 42.72 0 0 1 8-5.88c18.045 16.166 45.308 16.35 63.57.43a48.9 48.9 0 0 1 8.43 5.62Zm-40-1.79c-22.091 0-40-17.908-40-40 0-22.09 17.909-40 40-40s40 17.91 40 40c0 22.092-17.909 40-40 40Zm96-56h-50.74a47.27 47.27 0 0 0-3.7-8H256v8Z" id="Outlines" fill="#000"/></g></svg>