<svg xmlns="http://www.w3.org/2000/svg" width="320" height="320" viewBox="0 0 320 320"><g id="Foundations/Icons/Brand-Icons/Entertainment-and-Technology/14-mouse" fill="none" fill-rule="evenodd" stroke="none" stroke-width="1"><path id="Outlines" fill="#000" d="M258.18 74.16C245.38 44 218 8 160 8c-58 0-85.38 36-98.18 66.16C48.16 106.4 48 138.12 48 139.46v40c0 2.37.16 34.09 13.82 66.33C74.62 276 102 312 160 312c58 0 85.38-36 98.18-66.16 13.66-32.24 13.82-64 13.82-65.3v-40c0-2.42-.16-34.14-13.82-66.38Zm-7.37 3.13C260 99 262.8 120.43 263.64 132H164V16.07c22.44.71 41.59 7.39 57 19.9 12.45 10.14 22.49 24.03 29.81 41.32Zm-181.62 0C76.51 60 86.55 46.11 99 36c15.39-12.51 34.54-19.19 57-19.9V132H56.33c.8-11 3.53-32.71 12.86-54.71ZM264 180.54c0 1.27-.15 31.41-13.19 62.17C243.49 260 233.45 273.89 221 284c-16.29 13.25-36.81 20-61 20-24.19 0-44.69-6.72-61-20-12.47-10.14-22.51-24-29.83-41.32C56.37 212.47 56 182.8 56 179.51V140h208v40.54Z"/></g></svg>