<svg xmlns="http://www.w3.org/2000/svg" width="320" height="320" fill="none" viewBox="0 0 320 320"><path fill="#FFD500" fill-rule="evenodd" d="M159.179 19.37C220.832 19.37 268 66.052 268 127.368c0 49.474-25.121 93.92-63.704 124.941-32.389 26.041-79.246 44.536-127.544 54.252l-.791.158-3.265-15.062 1.12-.502c67.939-30.605 103.685-60.05 118.007-106.611l-2.108-.459c-16.557 11.522-33.596 16.283-53.715 16.283-47.23 0-84-37.083-84-81 0-29.755 14.567-57.323 36.527-74.817 19.375-15.436 47.005-25.183 70.652-25.183Zm-7.179 16c-24.66 0-32 16.68-32 60 0 47.931 17.644 80.999 48 80.999 11.921 0 19.218-2.048 27.545-8.914l1.05-.866.304-1.327c2.573-11.233 3.101-21.835 3.101-33.893 0-58.663-18.049-96-48-96Z" clip-rule="evenodd"/><path fill="#000" fill-rule="evenodd" d="M232 160a4 4 0 1 1 0 8 4 4 0 0 1 0-8Zm16-16a4 4 0 1 1 0 8 4 4 0 0 1 0-8Zm-32 0a4 4 0 1 1 0 8 4 4 0 0 1 0-8Zm-128 0a4 4 0 1 1 0 8 4 4 0 0 1 0-8Zm144-16a4 4 0 1 1 0 8 4 4 0 0 1 0-8Zm-128 0a4 4 0 1 1 0 8 4 4 0 0 1 0-8Zm-32 0a4 4 0 1 1 0 8 4 4 0 0 1 0-8Zm176-16a4 4 0 1 1 0 8 4 4 0 0 1 0-8Zm-32 0a4 4 0 1 1 0 8 4 4 0 0 1 0-8Zm-128 0a4 4 0 1 1 0 8 4 4 0 0 1 0-8Zm16-16a4 4 0 1 1 0 8 4 4 0 0 1 0-8Zm-32 0a4 4 0 1 1 0 8 4 4 0 0 1 0-8Zm160 0a4 4 0 1 1 0 8 4 4 0 0 1 0-8ZM88 80a4 4 0 1 1 0 8 4 4 0 0 1 0-8Z" clip-rule="evenodd"/><path fill="#000" fill-rule="evenodd" d="m76.742 311.3-3.707.7-5.733-22.929 3.082-1.361c62.57-27.624 97.387-55.224 113.539-93.754l.497-1.202-.596.32c-14.56 7.773-29.825 11.186-46.992 11.293l-.832.002c-51.665 0-88-36.682-88-85 0-32.265 13.729-59.103 37.542-78.075 20.809-16.577 48.2-25.925 73.637-25.925C225.23 15.37 272 61.615 272 127.37c0 52.006-22.293 94.694-62.691 127.176-34.514 27.749-81.294 47.071-132.567 56.755Zm2.219-8.58.79-.158c48.299-9.716 92.156-28.211 124.545-54.252C242.879 217.289 264 176.843 264 127.369c0-61.316-43.168-104-104.821-104-23.647 0-49.277 8.747-68.652 24.183C68.567 65.046 56 89.614 56 119.369c0 43.917 32.77 77 80 77 20.119 0 37.158-4.761 53.715-16.283l9.517-6.623-3.409 11.082c-14.322 46.561-50.068 78.006-118.008 108.611l-1.119.502 2.265 9.062ZM168 180.369c-30.356 0-52-37.068-52-85 0-43.32 11.34-64 36-64 29.951 0 52 41.337 52 100 0 12.058-1.528 25.66-4.101 36.893l-.304 1.327-1.05.866c-8.327 6.866-18.624 9.914-30.545 9.914Zm0-8c9.57 0 17.655-2.22 24.195-7.098l.209-.157.157-.727c2.087-9.875 3.35-21.468 3.434-31.904l.005-1.114c0-54.83-19.826-92-44-92-18.946 0-28 16.512-28 56 0 44.096 19.213 77 44 77Z" clip-rule="evenodd"/></svg>