<svg xmlns="http://www.w3.org/2000/svg" viewBox="0 0 320 320"><g id="Foundations/Icons/Brand-Icons/No-Information" fill="none" fill-rule="evenodd" stroke="none" stroke-width="1"><path id="lg-icon-fill-primary" fill="#FFD500" d="M239.92 140c-13.89-.023-26.94-5.451-36.747-15.288-9.806-9.837-15.195-22.904-15.173-36.792.044-28.63 23.37-51.92 51.998-51.92 13.973.023 27.024 5.451 36.829 15.288 9.806 9.837 15.196 22.904 15.173 36.792-.044 28.63-23.37 51.92-51.998 51.92h-.082z"/><path id="Outlines" fill="#000" d="M248.337 16c4.15 0 7.53 3.387 7.66 7.615l.003.25.001 10.464c23.139 6.91 40.038 28.407 40 53.758-.04 25.274-16.93 46.686-40 53.582L256 296.135c0 4.26-3.3 7.73-7.42 7.861l-.243.004H71.663c-4.15 0-7.53-3.387-7.66-7.615l-.003-.25V23.865c0-4.26 3.3-7.73 7.42-7.861l.243-.004h176.674zM248 24H72v272h176V143.43a56.097 56.097 0 0 1-7.075.562l-.923.008h-.09a56.153 56.153 0 0 1-9.355-.796c-.6.5-1.348.796-2.157.796H91.6c-1.988 0-3.6-1.791-3.6-4s1.612-4 3.6-4l119.582.001c-11.83-7.13-20.823-18.506-24.854-32L91.6 104c-1.988 0-3.6-1.791-3.6-4s1.612-4 3.6-4l92.97.001a56.231 56.231 0 0 1-.57-8.088A55.64 55.64 0 0 1 189.413 64H91.6c-1.988 0-3.6-1.791-3.6-4s1.612-4 3.6-4h102.475c9.97-14.262 26.403-23.69 45-23.992l.923-.008h.09a56.14 56.14 0 0 1 7.913.57L248 24zm-24 256a4 4 0 1 1 0 8 4 4 0 0 1 0-8zm-32 0a4 4 0 1 1 0 8 4 4 0 0 1 0-8zm-32 0a4 4 0 1 1 0 8 4 4 0 0 1 0-8zm-32 0a4 4 0 1 1 0 8 4 4 0 0 1 0-8zm-32 0a4 4 0 1 1 0 8 4 4 0 0 1 0-8zm132.4-64c1.988 0 3.6 1.791 3.6 4s-1.612 4-3.6 4H91.6c-1.988 0-3.6-1.791-3.6-4s1.612-4 3.6-4h136.8zm0-40c1.988 0 3.6 1.791 3.6 4s-1.612 4-3.6 4H91.6c-1.988 0-3.6-1.791-3.6-4s1.612-4 3.6-4h136.8zm11.674-136h-.076c-26.474.001-47.956 21.44-47.998 47.926-.04 26.243 20.989 47.602 47.132 48.066l.794.008h.076c26.473 0 47.957-21.44 47.998-47.926.04-26.509-21.416-48.033-47.926-48.074zm25.382 22.544a4 4 0 0 1 0 5.657L245.657 88l19.8 19.799a4 4 0 0 1-5.658 5.657L240 93.656l-19.799 19.8a4 4 0 0 1-5.657-5.657L234.344 88l-19.8-19.799a4 4 0 1 1 5.657-5.657l19.8 19.8 19.798-19.8a4 4 0 0 1 5.657 0z"/></g></svg>