<svg width="320" height="320" viewBox="0 0 320 320" xmlns="http://www.w3.org/2000/svg"><g id="Foundations/Icons/Brand-Icons/UI/Action/13-no-products" stroke="none" stroke-width="1" fill="none" fill-rule="evenodd"><path d="M247.92 124c-13.89-.023-26.94-5.451-36.747-15.288-9.806-9.837-15.195-22.904-15.173-36.792.044-28.63 23.37-51.92 51.998-51.92 13.973.023 27.024 5.451 36.829 15.288 9.806 9.837 15.196 22.904 15.173 36.792-.044 28.63-23.37 51.92-51.998 51.92h-.082Z" id="lg-icon-fill-primary" fill="#FFD500"/><path d="M180 88a4 4 0 1 1 0 8 4 4 0 0 1 0-8Zm-32 0a4 4 0 1 1 0 8 4 4 0 0 1 0-8Zm-32 0a4 4 0 1 1 0 8 4 4 0 0 1 0-8Zm-32 0a4 4 0 1 1 0 8 4 4 0 0 1 0-8Zm-32 0a4 4 0 1 1 0 8 4 4 0 0 1 0-8Zm112-16a4 4 0 1 1 0 8 4 4 0 0 1 0-8Zm-32 0a4 4 0 1 1 0 8 4 4 0 0 1 0-8Zm-32 0a4 4 0 1 1 0 8 4 4 0 0 1 0-8Zm-32 0a4 4 0 1 1 0 8 4 4 0 0 1 0-8Zm-32 0a4 4 0 1 1 0 8 4 4 0 0 1 0-8Zm48-16a4 4 0 1 1 0 8 4 4 0 0 1 0-8Zm-32 0a4 4 0 1 1 0 8 4 4 0 0 1 0-8Z" id="Half-tone" fill="#000"/><path d="M248.087 16c30.878.048 55.96 25.209 55.913 56.087a55.677 55.677 0 0 1-10.075 31.914l.069-.001c4.421 0 8.006 3.582 8.006 8 0 .346-.022.692-.067 1.035l-21.93 168a8.004 8.004 0 0 1-7.94 6.965H24a8 8 0 0 1-8-8V40a8 8 0 0 1 8-8h74l24 24h72.331c6.822-22.822 27.843-39.587 52.744-39.992l.923-.008h.09Zm.838 111.992-.923.008h-.09c-15.192-.024-28.981-6.127-39.065-15.998L45.937 112l-21.93 168h248.057l21.93-168h-6.85c-9.902 9.692-23.37 15.75-38.219 15.992ZM94.687 40H24v178.192l13.997-107.227a8.004 8.004 0 0 1 7.94-6.965l156.13.001A55.689 55.689 0 0 1 192 71.913c.004-2.686.199-5.328.57-7.913H122a8 8 0 0 1-5.439-2.133l-.218-.21L94.687 40Zm153.387-16h-.076c-26.474.001-47.957 21.44-47.998 47.926-.041 26.243 20.989 47.602 47.132 48.066l.794.008h.076c26.473 0 47.956-21.44 47.998-47.926.04-26.509-21.416-48.033-47.926-48.074Zm25.382 22.544a4 4 0 0 1 0 5.657L253.656 72l19.8 19.799a4 4 0 0 1-5.657 5.657L248 77.656l-19.799 19.8a4 4 0 1 1-5.657-5.657L242.344 72l-19.8-19.799a4 4 0 0 1 5.657-5.657L248 66.344l19.799-19.8a4 4 0 0 1 5.657 0Z" id="Outlines" fill="#000"/></g></svg>