<svg width="320" height="320" viewBox="0 0 320 320" xmlns="http://www.w3.org/2000/svg"><g id="Foundations/Icons/Brand-Icons/UI/Action/15-no-search-results" stroke="none" stroke-width="1" fill="none" fill-rule="evenodd"><circle id="lg-icon-fill-primary" fill="#FFD500" cx="112" cy="112" r="72"/><path d="M276.034 272a4 4 0 1 1 0 8 4 4 0 0 1 0-8Zm-16.002-16a4 4 0 1 1 0 8 4 4 0 0 1 0-8Zm-16.002-16a4 4 0 1 1 0 8 4 4 0 0 1 0-8Zm-16.002-16a4 4 0 1 1 0 8 4 4 0 0 1 0-8Zm-16.002-16a4 4 0 1 1 0 8 4 4 0 0 1 0-8Zm-16.002-16a4 4 0 1 1 0 8 4 4 0 0 1 0-8Z" id="Half-tone" fill="#000"/><path d="M112.013 16c53.026 0 96.012 42.98 96.012 96 0 18.751-5.376 36.247-14.673 51.03L301.839 271.5a7.7 7.7 0 0 1 .187 10.499l-.187.201-19.603 19.6a7.507 7.507 0 0 1-5.4 2.201 7.307 7.307 0 0 1-5.089-1.992l-.212-.209-108.486-108.47c-14.784 9.294-32.282 14.67-51.035 14.67C58.986 208 16 165.02 16 112s42.986-96 96.013-96Zm57.725 172.718L276.834 295.8l19.003-19L188.74 169.719a96.57 96.57 0 0 1-19.002 19ZM112.013 24C63.428 24.055 24.056 63.422 24 112c0 48.601 39.404 88 88.012 88 18.785 0 36.197-5.885 50.49-15.912a97.468 97.468 0 0 0 21.615-21.618c10.024-14.288 15.906-31.692 15.906-50.47 0-48.601-39.404-88-88.011-88Zm0 16a71.517 71.517 0 0 1 50.906 21.1c24.287 24.295 28.027 62.36 8.934 90.916-19.094 28.556-55.703 39.65-87.439 26.496-31.736-13.154-49.759-46.892-43.046-80.58C48.08 64.244 77.658 39.99 112.013 40Zm0 8a64.013 64.013 0 0 0-45.306 18.7c-21.613 21.567-24.98 55.394-8.045 80.798 16.936 25.403 49.46 35.31 77.684 23.66 28.224-11.65 44.289-41.61 38.371-71.562C168.8 69.645 142.547 48.043 112.013 48Zm.999 86c2.761 0 5 1.79 5 4s-2.239 4-5 4-5-1.79-5-4 2.239-4 5-4Zm0-56c1.336-.028 2.628.385 3.574 1.141.882.706 1.39 1.653 1.425 2.646V122c0 2.21-2.238 4-5 4-2.76 0-4.999-1.79-4.999-4V82c0-2.21 2.239-4 5-4Z" id="Outlines" fill="#000"/></g></svg>