<svg xmlns="http://www.w3.org/2000/svg" viewBox="0 0 320 320"><g id="Foundations/Icons/Brand-Icons/No-Transactions-Match" fill="none" fill-rule="evenodd" stroke="none" stroke-width="1"><path id="lg-icon-fill-primary" fill="#FFD500" d="M247.92 124c-13.89-.023-26.94-5.451-36.747-15.288-9.806-9.837-15.195-22.904-15.173-36.792.044-28.63 23.37-51.92 51.998-51.92 13.973.023 27.024 5.451 36.829 15.288 9.806 9.837 15.196 22.904 15.173 36.792-.044 28.63-23.37 51.92-51.998 51.92h-.082z"/><path id="Outlines" fill="#000" d="M248.087 16c30.878.048 55.96 25.209 55.913 56.087-.034 21.551-12.319 40.294-30.24 49.624 4.047 12.023 6.24 24.9 6.24 38.289 0 66.273-53.727 120-120 120-66.274 0-120-53.727-120-120C40 93.726 93.726 40 160 40c13.389 0 26.266 2.193 38.29 6.239 9.21-17.692 27.592-29.887 48.785-30.231l.923-.008h.09zM160 48C98.243 48 48 98.243 48 160s50.243 112 112 112 112-50.243 112-112c0-12.254-1.978-24.054-5.632-35.099a55.63 55.63 0 01-17.443 3.091l-.923.008h-.09c-30.878-.048-55.96-25.209-55.912-56.087a55.71 55.71 0 013.097-18.28C184.055 49.978 172.254 48 160 48zm30.739 113.021l.16.151 24.01 23.998v.05c.167.175.321.362.46.56.06.1.11.22.171.33.072.114.136.235.19.36.053.137.097.276.13.42.03.107.05.218.06.33a3.864 3.864 0 010 1.56 1.904 1.904 0 01-.1.33 2.83 2.83 0 01-.13.42 2.57 2.57 0 01-.19.36c-.06.109-.11.229-.17.33a5.126 5.126 0 01-.298.38l-.163.18v.049l-24.01 23.998a4.002 4.002 0 01-5.662 0 3.997 3.997 0 01-.152-5.499l.152-.16 17.177-17.17h-74.372a4 4 0 01-.2-7.994l.2-.005h74.372l-17.137-17.168a3.997 3.997 0 010-5.659 4.004 4.004 0 015.502-.15zm-55.975-55.85a4.003 4.003 0 01.15 5.5l-.15.16L117.626 128h74.372a4 4 0 01.2 7.994l-.2.005h-74.372l17.178 17.169a4.002 4.002 0 01-5.503 5.81l-.16-.15-24.01-23.999v-.049a4.849 4.849 0 01-.46-.56c-.061-.1-.112-.22-.17-.33a2.516 2.516 0 01-.192-.36 3.128 3.128 0 01-.129-.42 1.764 1.764 0 01-.1-.33 3.833 3.833 0 010-1.56c.01-.112.03-.223.06-.33.033-.144.076-.284.13-.42.053-.126.117-.246.19-.36.06-.11.11-.23.17-.33.093-.132.192-.26.298-.381l.163-.18v-.05l24.01-23.998a4.007 4.007 0 015.663 0zM248.074 24h-.076c-26.474.001-47.956 21.44-47.998 47.926-.04 26.243 20.989 47.602 47.132 48.066l.794.008h.076c26.473 0 47.956-21.44 47.998-47.926.04-26.509-21.416-48.033-47.926-48.074zm25.382 22.544a4 4 0 010 5.657l-19.799 19.798 19.799 19.8a4 4 0 11-5.657 5.657l-19.8-19.8-19.798 19.8a4 4 0 11-5.657-5.657l19.799-19.8-19.799-19.798a4 4 0 115.657-5.657l19.8 19.798 19.798-19.798a4 4 0 015.657 0z"/></g></svg>