<svg xmlns="http://www.w3.org/2000/svg" width="320" height="320" viewBox="0 0 320 320"><g id="Foundations/Icons/Brand-Icons/Online/12-notification-confirmation" fill="none" fill-rule="evenodd" stroke="none" stroke-width="1"><circle id="lg-icon-fill-primary" cx="237" cy="81" r="69" fill="#FFD500"/><path id="Half-tone" fill="#000" d="M48 256a4 4 0 1 1 0 8 4 4 0 0 1 0-8Zm32 0a4 4 0 1 1 0 8 4 4 0 0 1 0-8Zm32 0a4 4 0 1 1 0 8 4 4 0 0 1 0-8Zm32 0a4 4 0 1 1 0 8 4 4 0 0 1 0-8Zm32 0a4 4 0 1 1 0 8 4 4 0 0 1 0-8Zm32 0 .2.005a4 4 0 1 1-.4 0l.2-.005Zm32 0a4 4 0 1 1 0 8 4 4 0 0 1 0-8Zm32 0a4 4 0 1 1 0 8 4 4 0 0 1 0-8ZM32 240a4 4 0 1 1 0 8 4 4 0 0 1 0-8Zm32 0a4 4 0 1 1 0 8 4 4 0 0 1 0-8Zm32 0a4 4 0 1 1 0 8 4 4 0 0 1 0-8Zm32 0a4 4 0 1 1 0 8 4 4 0 0 1 0-8Zm32 0a4 4 0 1 1 0 8 4 4 0 0 1 0-8Zm32 0 .2.005a4 4 0 1 1-.4 0l.2-.005Zm32 0a4 4 0 1 1 0 8 4 4 0 0 1 0-8Zm32 0a4 4 0 1 1 0 8 4 4 0 0 1 0-8Z"/><path id="Outlines" fill="#000" d="M236.11 8c35.032.07 64.93 25.345 70.828 59.878 5.898 34.532-13.915 68.298-46.938 79.992v40.62l28.91 26.55c.09.072.174.152.25.24 4.7 4.72 7.29 7.3 8.93 10.64C300 229.73 300 233.2 300 238v25.17c-.01 9.255-7.485 16.77-16.74 16.83h-84c-3.74 18.95-20.77 32-43.22 32s-39.48-13.05-43.22-32h-84c-9.267-.016-16.782-7.513-16.82-16.78v-26.204c.01-4.346.132-7.602 1.91-11.186 1.64-3.29 4.23-5.89 8.93-10.59a1.88 1.88 0 0 1 .25-.24L52 188.53v-70a95.42 95.42 0 0 1 14.15-43.38 85.46 85.46 0 0 1 31.54-29.81 101.52 101.52 0 0 1 26.65-10c2.122-14.369 13.655-25.506 28.088-27.126 14.434-1.62 28.148 6.685 33.402 20.226A71.76 71.76 0 0 1 236 8ZM191.1 280H121c3.68 15.08 17.95 24 35 24s31.32-8.92 35.1-24ZM156 40c-93.5 0-96 78.79-96 78.79V192l-31.5 28.93-2.81 2.82a31.38 31.38 0 0 0-4.18 4.89c-1.34 2.16-1.51 4.05-1.51 7.81v26.72c0 .889.134 1.772.4 2.62a8 8 0 0 0 .29.82 9.48 9.48 0 0 0 1.32 2.18 9 9 0 0 0 1.2 1.19 8.791 8.791 0 0 0 5.61 2.02h254.36a8.791 8.791 0 0 0 5.61-2.02 9 9 0 0 0 1.2-1.19 9.48 9.48 0 0 0 1.32-2.18 8 8 0 0 0 .29-.82 8.75 8.75 0 0 0 .4-2.62v-26.72c-.02-3.76-.17-5.65-1.51-7.81a31.38 31.38 0 0 0-4.18-4.89l-2.81-2.82L252 192v-41.82a71.54 71.54 0 0 1-16 1.82h-.11a71.94 71.94 0 0 1-60.52-110.75A144.31 144.31 0 0 0 156 40Zm77.345-23.933-.555.013c-.55.03-.99.08-1.55.12-.56.04-1.19.08-1.69.13s-1 .12-1.5.18l-1.71.22c-.47.07-.83.15-1.41.25s-1.29.22-1.74.31c-.45.09-.76.18-1.34.31-.58.13-1.17.25-1.75.4l-1.25.35c-.6.17-1.2.33-1.79.51-.39.12-.77.26-1.15.39-.61.2-1.22.4-1.83.62-.36.13-.71.28-1.06.42-.62.23-1.24.46-1.84.72l-1 .43c-.63.28-1.26.55-1.88.85l-.9.46c-.62.31-1.25.62-1.86.95l-.84.48c-.61.35-1.23.69-1.84 1.06l-.78.5c-.61.38-1.22.76-1.82 1.16l-.69.49c-.61.42-1.22.85-1.82 1.29l-.61.48c-.61.47-1.21.93-1.8 1.42l-.59.5c-.58.51-1.17.99-1.74 1.51-.19.17-.37.35-.55.53-.57.52-1.13 1.04-1.67 1.58l-.5.52c-.55.56-1.09 1.12-1.62 1.7l-.47.55c-.54.58-1.04 1.17-1.54 1.77l-.43.54c-.5.62-1 1.22-1.49 1.88-.16.21-.3.42-.45.63-.45.62-.91 1.24-1.34 1.88l-.41.64a157.24 157.24 0 0 0-1.26 2l-.37.65c-.4.64-.79 1.31-1.17 2-.14.25-.26.51-.39.76-.33.67-.68 1.33-1 2-.15.3-.28.62-.42.93-.3.63-.6 1.26-.87 1.9-.12.29-.23.58-.34.87-.28.64-.55 1.31-.81 2-.12.33-.22.67-.33 1-.23.68-.47 1.34-.68 2l-.34 1.21c-.18.61-.39 1.38-.52 1.83-.13.45-.21.9-.34 1.45-.13.55-.27 1.1-.38 1.64-.11.54-.21 1.13-.3 1.64s-.17.88-.27 1.51-.16 1.27-.24 1.91c-.06.43-.17.86-.17 1.29-.11 1.06-.19 2.13-.25 3.21l-.044.655C172 78.14 172 79.02 172 79.9v.47c.001.94.009 1.863.06 2.66a63.72 63.72 0 0 0 14.47 37.46c.64.79 1.31 1.57 2 2.33 1.33 1.52 2.82 2.97 4.33 4.35a65.4 65.4 0 0 0 8.91 6.78c.68.43 1.37.84 2.06 1.25a63.38 63.38 0 0 0 9.44 4.5c1.72.66 3.47 1.23 5.26 1.73 1.833.527 3.693.963 5.58 1.31a63.18 63.18 0 0 0 8 1h.68c1.04.08 2.07.08 3.12.08h1.72c.54 0 1.07.03 1.62 0s1.1-.08 1.64-.12c.54-.04 1.07-.08 1.61-.13s1.06-.14 1.6-.2 1.03-.12 1.6-.2c.57-.08 1.04-.19 1.57-.28.53-.09 1.05-.18 1.58-.28.53-.1 1.01-.23 1.53-.35.52-.12 1.05-.23 1.57-.36h.06l.276-.072c.362-.097.708-.198 1.124-.318.52-.15 1.11-.3 1.58-.45.47-.15.94-.32 1.41-.48l1.56-.52 1.34-.53c.52-.2 1.05-.4 1.57-.62l1.25-.56c.53-.24 1.17-.53 1.58-.72.41-.19.64-.35 1.2-.61.56-.26 1.17-.6 1.56-.8.39-.2.76-.43 1.13-.65.55-.29 1.18-.66 1.55-.88.123-.073.244-.149.364-.226l.716-.464c.52-.34 1.02-.66 1.52-1 .35-.22.67-.46 1-.69.53-.36 1.03-.71 1.53-1.09.31-.23.6-.47.91-.71.51-.39 1.02-.78 1.51-1.18l.84-.73c.48-.42 1-.84 1.48-1.28.27-.24.52-.5.79-.75.44-.45.97-.9 1.44-1.37.24-.24.48-.5.72-.76.47-.46.94-.96 1.4-1.46.22-.24.42-.49.64-.74.46-.52.93-1.04 1.37-1.58.21-.25.41-.52.61-.77.44-.54.87-1.08 1.29-1.64.2-.27.39-.55.59-.83.41-.55.81-1.11 1.2-1.67.19-.28.36-.57.54-.86.38-.57.76-1.15 1.12-1.74.18-.29.34-.59.52-.89.32-.59.67-1.18 1-1.78.18-.32.34-.67.51-1 .31-.58.62-1.16.9-1.75.18-.36.33-.72.5-1.08.26-.59.54-1.16.79-1.75.15-.35.28-.71.42-1.07.25-.61.5-1.22.73-1.84.12-.29.23-.65.36-1 .22-.64.44-1.27.65-1.91.14-.46.23-.83.39-1.38.16-.55.33-1.11.47-1.66.14-.55.28-1.23.39-1.66.11-.43.21-.87.33-1.43.12-.56.23-1.25.31-1.7.08-.45.18-.96.26-1.45.1-.64.17-1.29.25-1.94.05-.42.16-.84.16-1.26.11-1.06.19-2.13.25-3.21l.044-.655C300 81.86 300 80.98 300 80.1c0-1.1 0-2.2-.09-3.29a64.22 64.22 0 0 0-.64-6.46c-.16-1.06-.35-2.15-.56-3.15-.42-2.08-.95-4.14-1.57-6.14a60.66 60.66 0 0 0-2.14-5.88 64.18 64.18 0 0 0-7.57-13.3c-1.23-1.65-2.58-3.23-3.91-4.75s-2.82-2.97-4.33-4.35a65.4 65.4 0 0 0-8.91-6.78c-1.49-.92-2.96-1.79-4.49-2.59a73.886 73.886 0 0 0-4.45-2.13 63.82 63.82 0 0 0-10.83-3.54c-.85-.19-1.7-.37-2.57-.53a63.18 63.18 0 0 0-8-1l-.68-.05c-1.04-.08-2.07-.08-3.12-.08h-1.68c-.55 0-1.12-.03-1.67 0ZM273.17 49.17a4.002 4.002 0 0 1 5.66 5.66L220 113.66l-26.83-26.83a4.002 4.002 0 1 1 5.66-5.66L220 102.34Zm-111.15-32.4a24.06 24.06 0 0 0-14.25.7 22.88 22.88 0 0 0-3.19 1.44c-.7.37-1.36.77-2 1.2-.64.43-1.26.89-1.85 1.38-.59.49-1.15 1.01-1.7 1.55s-1.06 1.1-1.55 1.7c-.49.6-.95 1.21-1.38 1.85a39.656 39.656 0 0 0-1.2 2 22.88 22.88 0 0 0-1.44 3.19v-.03c-.24.64-.46 1.31-.59 2.03l1.246-.182a156 156 0 0 1 45.094.182l-.14-.514a20.04 20.04 0 0 0-.49-1.486 22.88 22.88 0 0 0-1.44-3.19c-.37-.7-.77-1.36-1.2-2-.43-.64-.89-1.26-1.38-1.85-.49-.59-1.01-1.15-1.55-1.7s-1.1-1.06-1.7-1.55c-.6-.49-1.21-.95-1.85-1.38a31.727 31.727 0 0 0-2-1.2 22.88 22.88 0 0 0-3.19-1.44 21.71 21.71 0 0 0-2.25-.7Z"/></g></svg>