<svg width="320" height="320" viewBox="0 0 320 320" xmlns="http://www.w3.org/2000/svg"><g id="Foundations/Icons/Brand-Icons/Communication/10-notification-bell" stroke="none" stroke-width="1" fill="none" fill-rule="evenodd"><path d="M143 23.078a24 24 0 0 1 40.14 10.7 150 150 0 0 0-46.34 0 24.1 24.1 0 0 1 6.2-10.7Zm17 281c-11.35 0-23.31-4.25-30.22-13.65a29.47 29.47 0 0 1-4.78-10.35h70.1c-2.75 11.12-12 19.23-22.8 22.34a44.47 44.47 0 0 1-12.3 1.66Z" id="lg-icon-fill-primary" fill="#FFD500"/><path d="M52 256.078a4 4 0 1 1 0 8 4 4 0 0 1 0-8Zm32 0a4 4 0 1 1 0 8 4 4 0 0 1 0-8Zm32 0a4 4 0 1 1 0 8 4 4 0 0 1 0-8Zm32 0a4 4 0 1 1 0 8 4 4 0 0 1 0-8Zm32 0a4 4 0 1 1 0 8 4 4 0 0 1 0-8Zm32 0 .2.005a4 4 0 1 1-.4 0l.2-.005Zm32 0a4 4 0 1 1 0 8 4 4 0 0 1 0-8Zm32 0a4 4 0 1 1 0 8 4 4 0 0 1 0-8Zm-240-16a4 4 0 1 1 0 8 4 4 0 0 1 0-8Zm32 0a4 4 0 1 1 0 8 4 4 0 0 1 0-8Zm32 0a4 4 0 1 1 0 8 4 4 0 0 1 0-8Zm32 0a4 4 0 1 1 0 8 4 4 0 0 1 0-8Zm32 0a4 4 0 1 1 0 8 4 4 0 0 1 0-8Zm32 0 .2.005a4 4 0 1 1-.4 0l.2-.005Zm32 0a4 4 0 1 1 0 8 4 4 0 0 1 0-8Zm32 0a4 4 0 1 1 0 8 4 4 0 0 1 0-8Z" id="Half-tone" fill="#000"/><path d="M302.09 225.948c-1.64-3.29-4.23-5.89-8.93-10.59a1.88 1.88 0 0 0-.25-.24L264 188.568v-70a95.42 95.42 0 0 0-14.15-43.38 85.46 85.46 0 0 0-31.54-29.84 101.52 101.52 0 0 0-26.65-10C189.352 19.64 175.876 8 160 8s-29.352 11.64-31.66 27.348a101.52 101.52 0 0 0-26.65 10 85.46 85.46 0 0 0-31.54 29.88A95.42 95.42 0 0 0 56 118.608v70l-28.91 26.47a1.88 1.88 0 0 0-.25.24c-4.7 4.7-7.29 7.3-8.93 10.59-1.91 3.85-1.91 7.32-1.91 12.17v25.22c.038 9.267 7.553 16.763 16.82 16.78h84c3.74 18.95 20.77 32 43.22 32s39.48-13.05 43.22-32h84c9.255-.06 16.73-7.575 16.74-16.83v-25.17c0-4.85 0-8.32-1.91-12.13ZM143 23.078c.54-.54 1.11-1.06 1.7-1.55.59-.49 1.21-.95 1.85-1.38.64-.43 1.3-.83 2-1.2a22.88 22.88 0 0 1 3.19-1.44 24.06 24.06 0 0 1 16.5 0 22.88 22.88 0 0 1 3.19 1.44c.667.366 1.333.766 2 1.2.64.43 1.25.89 1.85 1.38.6.49 1.16 1 1.7 1.55a24 24 0 0 1 6.2 10.7 156 156 0 0 0-46.34 0 24 24 0 0 1 6.16-10.7Zm17 281c-17.05 0-31.32-8.92-35-24h70.1c-3.78 15.08-18.05 24-35.1 24Zm136-40.83a8.83 8.83 0 0 1-8.82 8.83H32.82a8.83 8.83 0 0 1-8.82-8.83v-25.17c0-8.51 0-8.51 8.5-17l31.5-29v-73.21s2.5-78.79 96-78.79 96 78.79 96 78.79v73.21l31.5 28.93c8.5 8.51 8.5 8.51 8.5 17v25.24Z" id="Outlines" fill="#000"/></g></svg>