<svg xmlns="http://www.w3.org/2000/svg" width="320" height="320" viewBox="0 0 320 320"><g id="Foundations/Icons/Brand-Icons/Energy-and-Resources/03-nuclear-energy" fill="none" fill-rule="evenodd" stroke="none" stroke-width="1"><path id="lg-icon-fill-primary" fill="#FFD500" d="M115.43 109.35a74 74 0 0 1 18.25-4.49c14.74-2 30.42-1.53 44.81 2.45 4.87 1.35 10.19 3.23 14 6.72 2 1.82 3.5 4.43 2.68 7.18-.72 2.45-2.82 4.28-4.87 5.65-6.19 4.13-14 5.88-21.27 7a122.41 122.41 0 0 1-24 1.36 102.67 102.67 0 0 1-23.05-3.22 46.9 46.9 0 0 1-10.58-4.11c-2.34-1.31-4.78-3-6.06-5.45a6 6 0 0 1-.71-3.22c.4-5.17 6.65-8.13 10.83-9.86"/><path id="Half-tone" fill="#000" d="M161.98 296.15a4 4 0 1 1 0 8 4 4 0 0 1 0-8Zm-32 0a4 4 0 1 1 0 8 4 4 0 0 1 0-8Zm80-16a4 4 0 1 1 0 8 4 4 0 0 1 0-8Zm-32 0a4 4 0 1 1 0 8 4 4 0 0 1 0-8Zm-32 0a4 4 0 1 1 0 8 4 4 0 0 1 0-8Zm-32 0a4 4 0 1 1 0 8 4 4 0 0 1 0-8Zm-32 0a4 4 0 1 1 0 8 4 4 0 0 1 0-8Z"/><path id="Outlines" fill="#000" d="M150.15 95.81c12.56.02 25.81 1.38 37.56 6.2 7.12 2.93 15.68 8.49 15.68 17.2.013 6.593.243 13.19.69 19.79a330.56 330.56 0 0 0 5.12 38.81 385.084 385.084 0 0 0 8.25 34.44 417.735 417.735 0 0 0 9.32 28.48c2.54 6.9 5.26 13.75 8.2 20.49a52.61 52.61 0 0 0 3.2 7c2.97 4.71 4.48 10.07 3.48 15.62-2.06 11.21-12.52 18.49-22.13 23.08-11.06 5.29-23.2 8.29-35.26 10.23a219 219 0 0 1-41.17 2.52 198.13 198.13 0 0 1-39.27-4.85c-11.55-2.7-23.43-6.59-33.13-13.59-4.59-3.33-8.74-7.55-11-12.83a20.57 20.57 0 0 1-.9-13.81 22.39 22.39 0 0 1 1.87-4.5c.53-.98 1.21-1.83 1.67-2.9.46-1.07.98-2.15 1.46-3.22 1.233-2.773 2.43-5.56 3.59-8.36a416.945 416.945 0 0 0 8.78-23.21 403.28 403.28 0 0 0 9.22-30.63c3.07-11.87 5.59-23.88 7.47-36a310.25 310.25 0 0 0 3.64-39.9c.08-3.12-.25-6.42.44-9.48a15.05 15.05 0 0 1 3.25-6.34c3.23-3.86 7.87-6.39 12.48-8.24 11.74-4.7 24.93-6.02 37.49-6Zm45.56 37.01c-5.5 3.99-12.23 6.18-18.8 7.7a124.7 124.7 0 0 1-39.2 2.29 102.86 102.86 0 0 1-18.09-3.15c-5.38-1.49-10.82-3.52-15.38-6.83a279.7 279.7 0 0 1-.5 8.17 357.51 357.51 0 0 1-10.56 62.42 421.3 421.3 0 0 1-15.11 47c-2.01 5.18-4.11 10.33-6.35 15.42-.75 1.72-1.55 3.5-2.31 5.14-.76 1.64-1.89 3.04-2.55 4.74a12.39 12.39 0 0 0-.81 5.81c.5 4.81 3.79 8.75 7.38 11.75 5.29 4.38 11.73 7.33 18.14 9.66 18.53 6.73 38.8 8.87 58.41 8.87 2.713-.007 5.423-.033 8.13-.08a196.81 196.81 0 0 0 30.91-3.46 119.89 119.89 0 0 0 24.6-7.35c9.11-3.97 24.03-12.55 19.6-24.82-.62-1.83-1.83-3.29-2.62-5-.37-.79-.73-1.59-1.09-2.39-.9-2-1.77-4-2.63-6-2.39-5.59-4.63-11.23-6.76-16.93a421.34 421.34 0 0 1-15.06-49.29 345.66 345.66 0 0 1-9.35-63.67Zm-47.39 89.71a6 6 0 0 0 1.88.3 6.07 6.07 0 0 0 2.42-.47c.17-.07.63-.34.71-.31.068.026.174.272.234.386l.026.044 1.32 2.22 9.43 15.76 6.17 10.32a40.91 40.91 0 0 1-40.121.51l-.47-.26 2.3-3.84 9.77-16.35 4-6.75a13.79 13.79 0 0 1 1-1.74c.05-.06.05-.26.19-.32s.91.42 1.14.5Zm-18.827-38.485.057.005c.131.053.3.465.401.661l.039.07 5.65 9.4 11.49 19.13a6.12 6.12 0 0 0-2.7 3.69c-.12.44-.01 1.59-.37 1.82-.332.211-1.372.032-1.884.003l-.116-.004h-32.22a41.82 41.82 0 0 1 8.3-24.43 39.6 39.6 0 0 1 8.06-8.19 33.9 33.9 0 0 1 2.44-1.67c.16-.104.55-.387.777-.466l.076-.019Zm40.937.465a37.18 37.18 0 0 1 7.14 5.49 41 41 0 0 1 12.41 28.81 1.13 1.13 0 0 0-.26 0 6.6 6.6 0 0 1-1.465.04l-.365-.04h-29.95a4.83 4.83 0 0 1-1.61 0c-.29-.18-.16-.61-.21-1a8.15 8.15 0 0 0-1.31-3.47 5.6 5.6 0 0 0-1.17-1.26c-.1-.08-.38-.22-.39-.3-.01-.08.21-.28.21-.35.248-.52.585-1.014.9-1.504l.23-.366 9.44-15.56 6.4-10.49Zm-36.75-79.65a74 74 0 0 0-18.25 4.49c-4.18 1.73-10.43 4.69-10.83 9.86a6 6 0 0 0 .74 3.23c1.28 2.45 3.72 4.14 6.06 5.45a46.9 46.9 0 0 0 10.58 4.11 102.67 102.67 0 0 0 23.05 3.22 122.41 122.41 0 0 0 24-1.36c7.27-1.12 15.08-2.87 21.27-7 2.05-1.37 4.15-3.2 4.87-5.65.82-2.75-.68-5.36-2.68-7.18-3.81-3.49-9.13-5.37-14-6.72-14.39-3.98-30.07-4.45-44.81-2.45Zm24.052-46.572A16 16 0 1 1 165.98 88a16.16 16.16 0 0 1-15.69-12.85 16 16 0 0 1 7.442-16.862Zm10.137 5.938a8 8 0 0 0-8.52 3.304 8.08 8.08 0 0 0 1.22 10.36 8 8 0 1 0 7.3-13.664ZM221.98 0c19.02-.027 35.42 13.36 39.2 32a40 40 0 1 1-76.79-5.69A40.42 40.42 0 0 1 221.98 0Zm22.405 17.167c-10.192-9.995-25.77-12.03-38.188-4.99-12.418 7.042-18.67 21.456-15.326 35.333a32 32 0 0 0 59.25 7.74c6.796-12.553 4.456-28.09-5.736-38.083Z"/></g></svg>