<svg width="320" height="320" viewBox="0 0 320 320" xmlns="http://www.w3.org/2000/svg"><g id="Foundations/Icons/Brand-Icons/Energy-and-Resources/17-oil-pump" stroke="none" stroke-width="1" fill="none" fill-rule="evenodd"><path d="M311.883 307.889H96.533l12.816-71.973h92.045l6.648 44.573a3.998 3.998 0 0 0 3.948 3.409h63.906a3.998 3.998 0 0 0 3.999-3.999v-19.992h31.838l.15 47.982Z" id="lg-icon-fill-primary" fill="#FFD500"/><path d="m203.923 291.895.2.005a3.999 3.999 0 1 1-.4 0l.2-.005Zm-31.988 0a3.998 3.998 0 1 1 0 7.997 3.998 3.998 0 0 1 0-7.997Zm-31.988 0 .2.005a3.999 3.999 0 1 1-.4 0l.2-.005Zm-31.988 0a3.998 3.998 0 1 1 0 7.997 3.998 3.998 0 0 1 0-7.997Zm159.94 0a3.998 3.998 0 1 1 0 7.997 3.998 3.998 0 0 1 0-7.997Zm-31.988 0a3.998 3.998 0 1 1 0 7.997 3.998 3.998 0 0 1 0-7.997Zm63.976 0a3.998 3.998 0 1 1 0 7.997 3.998 3.998 0 0 1 0-7.997Zm-79.97-15.994.2.005a3.999 3.999 0 1 1-.4 0l.2-.005Zm-31.988 0 .2.005a3.999 3.999 0 1 1-.4 0l.2-.005Zm-31.988 0 .2.005a3.999 3.999 0 1 1-.4 0l.2-.005Zm-31.988 0a3.998 3.998 0 1 1 0 7.997 3.998 3.998 0 0 1 0-7.997Zm127.952 0a3.999 3.999 0 1 1 0 7.997 3.999 3.999 0 0 1 0-7.997Zm-79.97-15.994.2.005a3.999 3.999 0 1 1-.4 0l.2-.005Zm-31.988 0 .2.005a3.999 3.999 0 1 1-.4 0l.2-.005Zm47.982-15.994a3.998 3.998 0 1 1 0 7.997 3.998 3.998 0 0 1 0-7.997Zm-31.988 0a3.998 3.998 0 1 1 0 7.997 3.998 3.998 0 0 1 0-7.997Zm-31.988 0a3.998 3.998 0 1 1 0 7.997 3.998 3.998 0 0 1 0-7.997Z" id="Half-tone" fill="#000"/><path d="m319.88 154.946.12-47.262a7.997 7.997 0 0 0-1.61-4.838L246.299 7.192a7.997 7.997 0 0 0-10.856-1.83l-16.924 11.396a7.997 7.997 0 0 0-2.699 10.236l24.99 50.491-60.317 28.28a27.18 27.18 0 0 0-50.67 13.435l-.9 10.726-108.3 50.23a7.997 7.997 0 0 0-4.628 7.258v64.496H7.997A7.997 7.997 0 0 0 0 259.907v47.982a7.997 7.997 0 0 0 7.997 7.997h55.979a7.997 7.997 0 0 0 7.997-7.997v-47.982a7.997 7.997 0 0 0-7.997-7.997h-7.997v-47.302l68.384-29.06-4.578 52.37H105.96a3.999 3.999 0 0 0-3.938 3.3l-14.235 79.97a3.998 3.998 0 0 0 3.929 4.698H315.88a3.998 3.998 0 0 0 3.999-3.999l-.16-55.979a3.998 3.998 0 0 0-3.998-3.998h-15.665l-.17-81.91 15.605-7.926a7.997 7.997 0 0 0 4.388-7.128Zm-7.997 152.943H96.533l12.816-71.973h92.045l6.648 44.573a3.998 3.998 0 0 0 3.948 3.409h63.906a3.998 3.998 0 0 0 3.999-3.999v-19.992h31.838l.15 47.982ZM186.27 147.199l71.523-33.937 31.099 53.68a7.997 7.997 0 0 0 3.048 2.999l.16 81.969h-16.204a3.998 3.998 0 0 0-3.998 3.998v19.993h-56.459l-6.647-44.573a3.998 3.998 0 0 0-3.999-3.41h-11.865L186.27 147.2Zm125.613 7.747-15.754 7.997h-.35l-34.757-60.057-83.179 39.455 7.088 85.578h-57.119l5.678-64.976-85.508 36.377v60.587h15.994v47.982H7.997v-47.982h15.994v-72.493l112.538-52.24 1.32-15.654c-.063-9.424 6.728-17.497 16.023-19.049 9.295-1.551 18.34 3.878 21.342 12.81a3.069 3.069 0 0 0 2.87 2.11c.432 0 .86-.098 1.249-.29l72.303-33.887-28.65-57.828L239.91 12l72.093 95.674-.12 47.272Z" id="Outlines" fill="#000"/></g></svg>