<svg xmlns="http://www.w3.org/2000/svg" width="320" height="320" viewBox="0 0 320 320"><g id="Foundations/Icons/Brand-Icons/Energy-and-Resources/02-oil-rig" fill="none" fill-rule="evenodd" stroke="none" stroke-width="1"><path id="lg-icon-fill-primary" fill="#FFD500" d="M312 248h-56v64h-24v-64h-80v64h-24v-64H80v-32h16v-62.2l-3-2.41L8 84.13V32h16v44l3.2 2.4 56 42L96 130v-18h80V8h40v64h80v144h16z"/><path id="Half-tone" fill="#000" d="M140 296a4 4 0 1 1 0 8 4 4 0 0 1 0-8Zm104 0a4 4 0 1 1 0 8 4 4 0 0 1 0-8Zm-104-32a4 4 0 1 1 0 8 4 4 0 0 1 0-8Zm104 0a4 4 0 1 1 0 8 4 4 0 0 1 0-8Z"/><path id="Outlines" fill="#000" d="M216 0a8 8 0 0 1 8 8v56h72a8 8 0 0 1 8 8v136h8a8 8 0 0 1 8 8v32a8 8 0 0 1-8 8h-48v56a8 8 0 0 1-8 8h-24a8 8 0 0 1-8-8v-56h-64v56a8 8 0 0 1-8 8h-24a8 8 0 0 1-8-8v-56H80a8 8 0 0 1-8-8v-32a8 8 0 0 1 8-8h8v-50.33L0 88V32a8 8 0 0 1 8-8h16a8 8 0 0 1 8 8v40l56 42v-2a8 8 0 0 1 8-8h72V8a8 8 0 0 1 8-8Zm0 8h-40v104H96v18L24 76V32H8v52.13l85 67.26 3 2.41V216H80v32h48v64h24v-64h80v64h24v-64h56v-32h-16V72h-80V8Zm44 176a4 4 0 0 1 3.995 3.8l.005.2v16a4 4 0 0 1-7.995.2L256 204v-16a4 4 0 0 1 4-4Zm-112 0a4 4 0 0 1 3.995 3.8l.005.2v16a4 4 0 0 1-7.995.2L144 204v-16a4 4 0 0 1 4-4Zm56 0a4 4 0 0 1 3.995 3.8l.005.2v16a4 4 0 0 1-7.995.2L200 204v-16a4 4 0 0 1 4-4Zm28-40a4 4 0 0 1 3.995 3.8l.005.2v16a4 4 0 0 1-7.995.2L228 164v-16a4 4 0 0 1 4-4Zm-28-40a4 4 0 0 1 3.995 3.8l.005.2v16a4 4 0 0 1-7.995.2L200 124v-16a4 4 0 0 1 4-4Zm56 0a4 4 0 0 1 3.995 3.8l.005.2v16a4 4 0 0 1-7.995.2L256 124v-16a4 4 0 0 1 4-4Z"/></g></svg>