<svg width="320" height="320" viewBox="0 0 320 320" xmlns="http://www.w3.org/2000/svg"><g id="Foundations/Icons/Brand-Icons/Energy-and-Resources/05-oil-barrel" stroke="none" stroke-width="1" fill="none" fill-rule="evenodd"><path d="M160 224c-35.346 0-64-28.654-64-64 0-35.346 28.654-64 64-64 35.346 0 64 28.654 64 64a64 64 0 0 1-64 64Z" id="lg-icon-fill-primary" fill="#FFD500"/><path d="M272 0c8.837 0 16 7.163 16 16s-7.163 16-16 16h-8v72h8c8.837 0 16 7.163 16 16s-7.163 16-16 16h-8v56h8c8.837 0 16 7.163 16 16s-7.163 16-16 16h-8v64h8c8.837 0 16 7.163 16 16s-7.163 16-16 16H48c-8.837 0-16-7.163-16-16s7.163-16 16-16h8v-64h-8c-8.837 0-16-7.163-16-16s7.163-16 16-16h8v-56h-8c-8.837 0-16-7.163-16-16s7.163-16 16-16h8V32h-8c-8.837 0-16-7.163-16-16S39.163 0 48 0Zm0 8H48a8 8 0 1 0 0 16h16v88H48a8 8 0 1 0 0 16h16v72H48a8 8 0 1 0 0 16h16v80H48a8 8 0 1 0 0 16h224a8 8 0 1 0 0-16h-16v-80h16a8 8 0 1 0 0-16h-16v-72h16a8 8 0 1 0 0-16h-16V24h16a8 8 0 1 0 0-16ZM160 88c39.746.044 71.956 32.254 72 72 0 39.765-32.235 72-72 72s-72-32.235-72-72 32.235-72 72-72Zm0 8c-35.346 0-64 28.654-64 64 0 35.346 28.654 64 64 64a64 64 0 0 0 64-64c0-35.346-28.654-64-64-64Zm.49 24S192 145.26 192 168.46c0 17.673-14.327 32-32 32-17.673 0-32-14.327-32-32 0-23.2 32.49-48.46 32.49-48.46Z" id="Outlines" fill="#000"/></g></svg>