<svg xmlns="http://www.w3.org/2000/svg" width="320" height="320" fill="none" viewBox="0 0 320 320"><path fill="#FFD500" fill-rule="evenodd" d="M196 28v239.2l40 9V292H88v-16.662l44-8V75.278L83.209 83.41 81.55 66.568 188.72 28H196Z" clip-rule="evenodd"/><path fill="#000" fill-rule="evenodd" d="M156 264a4 4 0 1 1 0 8 4 4 0 0 1 0-8Zm16-16a4 4 0 1 1 0 8 4 4 0 0 1 0-8Zm-16-16a4 4 0 1 1 0 8 4 4 0 0 1 0-8Zm16-16a4 4 0 1 1 0 8 4 4 0 0 1 0-8Zm-16-16a4 4 0 1 1 0 8 4 4 0 0 1 0-8Zm16-16a4 4 0 1 1 0 8 4 4 0 0 1 0-8Zm-16-16a4 4 0 1 1 0 8 4 4 0 0 1 0-8Zm16-16a4 4 0 1 1 0 8 4 4 0 0 1 0-8Zm-16-16a4 4 0 1 1 0 8 4 4 0 0 1 0-8Zm16-16a4 4 0 1 1 0 8 4 4 0 0 1 0-8Zm-16-16a4 4 0 1 1 0 8 4 4 0 0 1 0-8Zm16-16a4 4 0 1 1 0 8 4 4 0 0 1 0-8Zm-16-16a4 4 0 1 1 0 8 4 4 0 0 1 0-8Zm16-16a4 4 0 1 1 0 8 4 4 0 0 1 0-8Z" clip-rule="evenodd"/><path fill="#000" fill-rule="evenodd" d="M200 24h-12.724L76.448 65.431l4.343 23.159L128 80.721v183.94l-44 8.001V296h156v-22.2l-40-9.001V24Zm-8 8v239.2l40 9v7.8H92v-8.662l44-8V71.278L87.209 79.41l-1.658-8.842L188.72 32H192Z" clip-rule="evenodd"/></svg>