<svg width="320" height="320" viewBox="0 0 320 320" xmlns="http://www.w3.org/2000/svg"><g id="Foundations/Icons/Brand-Icons/Banking-and-Commerce/35-open-for-business" stroke="none" stroke-width="1" fill="none" fill-rule="evenodd"><path d="M144 60.088c0-6.627 5.373-12 12-12s12 5.373 12 12c0 .36 0 .72-.05 1.07a11.89 11.89 0 0 1-3.34 7.27l-.12.15c-4.682 4.66-12.248 4.66-16.93 0a.1.1 0 0 0-.05 0 11.9 11.9 0 0 1-3.43-7.16 11.73 11.73 0 0 1-.08-1.33Z" id="lg-icon-fill-primary" fill="#FFD500"/><path d="M132 256.088a4 4 0 1 1 0 8 4 4 0 0 1 0-8Zm-32 0a4 4 0 1 1 0 8 4 4 0 0 1 0-8Zm-32 0a4 4 0 1 1 0 8 4 4 0 0 1 0-8Zm-32 0a4 4 0 1 1 0 8 4 4 0 0 1 0-8Zm256 0a4 4 0 1 1 0 8 4 4 0 0 1 0-8Zm-32 0a4 4 0 1 1 0 8 4 4 0 0 1 0-8Zm-32 0a4 4 0 1 1 0 8 4 4 0 0 1 0-8Zm-32 0a4 4 0 1 1 0 8 4 4 0 0 1 0-8Zm-32 0a4 4 0 1 1 0 8 4 4 0 0 1 0-8Z" id="Half-tone" fill="#000"/><path d="M143.25 44.589a20.006 20.006 0 0 1 21.305-2.667A19.992 19.992 0 0 1 176 60.082a20.385 20.385 0 0 1-.53 4.517l103.67 47.463H312c4.418 0 8 3.58 8 7.997v151.944a7.999 7.999 0 0 1-8 7.997H8c-4.418 0-8-3.58-8-7.997V120.059a7.999 7.999 0 0 1 8-7.997h31.35l97.29-47.053a19.988 19.988 0 0 1 6.61-20.42ZM312 120.059H8v151.944h304V120.059Zm-27.92 35.987a4 4 0 0 1 4 3.998v71.974a3.999 3.999 0 0 1-2.84 3.828 4.171 4.171 0 0 1-1.16.17 4 4 0 0 1-3.33-1.78L240.1 173.26v58.759a4 4 0 0 1-4 3.998 4 4 0 0 1-4-3.998v-71.974a3.999 3.999 0 0 1 7.32-2.219l40.66 60.978v-58.759a4 4 0 0 1 4-3.998Zm-75.98 0a4 4 0 1 1 0 7.997h-25.72c-1.86 0-6.28.72-6.28 6.287v21.702h32a4 4 0 1 1 0 7.997h-32v21.807c.027 1.924.811 6.183 6.28 6.183h25.72a4 4 0 1 1 0 7.997h-25.72c-10.48 0-14.28-8.537-14.28-14.285v-51.4c0-10.487 8.54-14.285 14.28-14.285h25.72Zm-70.24 0c5.74 0 14.29 3.798 14.29 14.284v20.563c0 5.738-3.81 14.275-14.29 14.275H112v26.85a4 4 0 0 1-4 3.998 4 4 0 0 1-4-3.998v-75.972h33.86Zm-64.19 0c5.74 0 14.33 3.798 14.33 14.284v51.401c0 5.748-3.85 14.285-14.33 14.285H46c-10.48 0-14.28-8.537-14.28-14.285v-51.4c-.05-10.487 8.49-14.285 14.28-14.285h27.67ZM46 164.043c-1.86 0-6.28.72-6.28 6.287v51.401c0 1.87.72 6.288 6.28 6.288h27.67c5.895 0 6.268-5.056 6.28-6.228v-51.46c0-5.893-5.048-6.276-6.22-6.288H46Zm66 0v33.128h25.86c5.57 0 6.25-4.419 6.29-6.318V170.33c0-5.892-5.058-6.275-6.23-6.287H112Zm60.14-92.186a19.455 19.455 0 0 1-2 2.349c-7.81 7.805-20.47 7.805-28.28 0a20.705 20.705 0 0 1-1.74-2l-82.4 39.856h202.21ZM156 48.086c-6.627 0-12 5.37-12 11.995.001.444.028.888.08 1.33.29 2.708 1.5 5.234 3.43 7.157a.1.1 0 0 1 .05 0c4.682 4.658 12.248 4.658 16.93 0l.12-.15a11.884 11.884 0 0 0 3.34-7.267c.05-.35.05-.71.05-1.07 0-6.625-5.373-11.995-12-11.995Z" id="Outlines" fill="#000"/></g></svg>