<svg xmlns="http://www.w3.org/2000/svg" width="320" height="320" viewBox="0 0 320 320"><g id="Foundations/Icons/Brand-Icons/Charts-and-Graphs/14-organisation" fill="none" fill-rule="evenodd" stroke="none" stroke-width="1"><path id="lg-icon-fill-primary" fill="#FFD500" d="M311.918 126.117c.005.08.005.16 0 .24a35.829 35.829 0 0 1-9.24 21.759c-.707.78-1.447 1.53-2.22 2.25-.77.71-1.57 1.4-2.4 2a35.999 35.999 0 0 1-8.2 4.81 35.379 35.379 0 0 1-11 2.67c-.85.07-1.689.09-2.519.1h-1.77l-1.1-.07-.76-.05-1.12-.13-.71-.08c-.42-.06-.83-.14-1.24-.21l-.56-.09c-.59-.12-1.18-.25-1.76-.39l-.28-.08c-.49-.12-1-.26-1.45-.4l-.61-.2-1.08-.36-.68-.26-1-.38-.7-.3-.92-.42-.69-.34c-.3-.15-.6-.3-.89-.46l-.67-.37c-.3-.16-.58-.33-.87-.5l-.65-.4-.85-.55-.61-.42-.85-.62-.56-.42c-.3-.23-.6-.47-.89-.72-.29-.25-.31-.25-.46-.38-.43-.36-.839-.73-1.249-1.11l-19.37 45.088v60.667h-63.997v-55.997l-27.429-63.998H99.996l-27.359 63.998h8.36v71.997H8v-71.997h56.567l13.71-32 13.83-31.998h-12.11V48h87.996v87.996h-19.429l24 55.998h52.857l20.57-47.998h.07a35.799 35.799 0 0 1-6-17.12 38.538 38.538 0 0 1-.08-4.44 35.999 35.999 0 0 1 12.639-25.798 37.998 37.998 0 0 1 3.9-2.91c.91-.59 1.85-1.14 2.81-1.64s1.95-1 3-1.39a35.359 35.359 0 0 1 4.66-1.57 36.489 36.489 0 0 1 6.64-1.06c.73 0 1.459-.06 2.179-.07h2.02l1.15.08.79.06 1.22.16.68.09c.54.09 1.07.19 1.6.3l.28.05c.61.13 1.22.28 1.83.44l.66.19 1.14.34.75.27c.34.12.68.23 1 .36l.78.32c.31.13.62.25.93.39l.78.37.89.43.78.41.84.47c.26.14.51.3.76.46.25.16.55.32.81.49l.74.5c.26.18.52.35.77.54.25.19.49.36.73.54l.73.56.7.58.699.6c.23.2.45.41.67.62l.67.63c.22.21.43.43.64.65l.63.66.61.68.6.7.57.71c.19.24.38.48.56.73l.54.73c.18.25.35.51.52.76l.5.76c.17.26.33.53.49.79.16.26.31.52.46.79.15.27.31.54.45.82.14.28.29.53.42.8s.28.57.41.85c.13.28.26.55.38.83.12.28.25.58.37.88l.33.84.33.91c.09.28.19.56.29.85.1.29.18.63.28.94l.24.859c.08.33.16.65.23 1s.14.57.2.86c.06.29.13.68.19 1l.15.87c.05.35.09.7.13 1 .04.3.08.57.11.86.03.29.05.75.08 1.12.03.37 0 .54 0 .82v1.96c.07.72.07 1.25 0 1.84Z"/><path id="Half-tone" fill="#000" d="M107.996 119.997a4 4 0 1 1 0 8 4 4 0 0 1 0-8Zm31.998 0a4 4 0 1 1 0 8 4 4 0 0 1 0-8Zm-47.998-16a4 4 0 1 1 0 8 4 4 0 0 1 0-8Zm32 0a4 4 0 1 1 0 8 4 4 0 0 1 0-8Zm31.998 0a4 4 0 1 1 0 8 4 4 0 0 1 0-8Zm-47.998-15.999a4 4 0 1 1 0 8 4 4 0 0 1 0-8Zm31.998 0a4 4 0 1 1 0 8 4 4 0 0 1 0-8Zm-47.998-16a4 4 0 1 1 0 8 4 4 0 0 1 0-8Zm32 0a4 4 0 1 1 0 8 4 4 0 0 1 0-8Zm31.998 0a4 4 0 1 1 0 8 4 4 0 0 1 0-8ZM107.996 56a4 4 0 1 1 0 8 4 4 0 0 1 0-8Zm31.998 0a4 4 0 1 1 0 8 4 4 0 0 1 0-8Z"/><path id="Outlines" fill="#000" d="M308.078 93.898a44.178 44.178 0 0 0-32.089-13.9c-.94 0-1.89 0-2.83.09a43.998 43.998 0 0 0-36.098 64.428l-16.92 39.478h-42.298l-17.15-39.998h7.3a8 8 0 0 0 8-8V48a8 8 0 0 0-8-8H79.997a8 8 0 0 0-8 8v87.996a8 8 0 0 0 7.87 8l-20.58 47.998H8a8 8 0 0 0-8 8v71.997a8 8 0 0 0 8 8h72.997a8 8 0 0 0 8-8v-71.997a8 8 0 0 0-4.56-7.22l19.559-45.628a7.85 7.85 0 0 0 .64-3.15h31.359a7.85 7.85 0 0 0 .64 3.15l23.359 54.488v54.357a8 8 0 0 0 8 8h63.997a8 8 0 0 0 8-8v-58.997l14.759-34.439a43.858 43.858 0 0 0 21.239 5.44c1.14 0 2.3 0 3.44-.13 21.781-1.758 38.994-19.196 40.468-40.998a43.648 43.648 0 0 0-11.82-32.97Zm3.84 32.219c.005.08.005.16 0 .24a35.829 35.829 0 0 1-9.24 21.759c-.707.78-1.447 1.53-2.22 2.25-.77.71-1.57 1.4-2.4 2a35.999 35.999 0 0 1-8.2 4.81 35.379 35.379 0 0 1-11 2.67c-.85.07-1.689.09-2.519.1h-1.77l-1.1-.07-.76-.05-1.12-.13-.71-.08c-.42-.06-.83-.14-1.24-.21l-.56-.09c-.59-.12-1.18-.25-1.76-.39l-.28-.08c-.49-.12-1-.26-1.45-.4l-.61-.2-1.08-.36-.68-.26-1-.38-.7-.3-.92-.42-.69-.34c-.3-.15-.6-.3-.89-.46l-.67-.37c-.3-.16-.58-.33-.87-.5l-.65-.4-.85-.55-.61-.42-.85-.62-.56-.42c-.3-.23-.6-.47-.89-.72-.29-.25-.31-.25-.46-.38-.43-.36-.839-.73-1.249-1.11l-19.37 45.088v60.667h-63.997v-55.997l-27.429-63.998H99.996l-27.359 63.998h8.36v71.997H8v-71.997h56.567l13.71-32 13.83-31.998h-12.11V48h87.996v87.996h-19.429l24 55.998h52.857l20.57-47.998h.07a35.799 35.799 0 0 1-6-17.12 38.538 38.538 0 0 1-.08-4.44 35.999 35.999 0 0 1 12.639-25.798 37.998 37.998 0 0 1 3.9-2.91c.91-.59 1.85-1.14 2.81-1.64s1.95-1 3-1.39a35.359 35.359 0 0 1 4.66-1.57 36.489 36.489 0 0 1 6.64-1.06c.73 0 1.459-.06 2.179-.07h2.02l1.15.08.79.06 1.22.16.68.09c.54.09 1.07.19 1.6.3l.28.05c.61.13 1.22.28 1.83.44l.66.19 1.14.34.75.27c.34.12.68.23 1 .36l.78.32c.31.13.62.25.93.39l.78.37.89.43.78.41.84.47c.26.14.51.3.76.46.25.16.55.32.81.49l.74.5c.26.18.52.35.77.54.25.19.49.36.73.54l.73.56.7.58.699.6c.23.2.45.41.67.62l.67.63c.22.21.43.43.64.65l.63.66.61.68.6.7.57.71c.19.24.38.48.56.73l.54.73c.18.25.35.51.52.76l.5.76c.17.26.33.53.49.79.16.26.31.52.46.79.15.27.31.54.45.82.14.28.29.53.42.8s.28.57.41.85c.13.28.26.55.38.83.12.28.25.58.37.88l.33.84.33.91c.09.28.19.56.29.85.1.29.18.63.28.94l.24.859c.08.33.16.65.23 1s.14.57.2.86c.06.29.13.68.19 1l.15.87c.05.35.09.7.13 1 .04.3.08.57.11.86.03.29.05.75.08 1.12.03.37 0 .54 0 .82v1.96c.07.72.07 1.25 0 1.84Z"/></g></svg>