<svg xmlns="http://www.w3.org/2000/svg" width="320" height="320" viewBox="0 0 320 320"><g id="Foundations/Icons/Brand-Icons/Communication/03-outbox" fill="none" fill-rule="evenodd" stroke="none" stroke-width="1"><path id="lg-icon-fill-primary" fill="#FFD500" d="m159.5 12 80.39 79.79H185v96h-51v-96H79.11L159.5 12"/><path id="Half-tone" fill="#000" d="M44 283.79a4 4 0 1 1 0 8 4 4 0 0 1 0-8Zm32 0a4 4 0 1 1 0 8 4 4 0 0 1 0-8Zm32 0a4 4 0 1 1 0 8 4 4 0 0 1 0-8Zm32 0a4 4 0 1 1 0 8 4 4 0 0 1 0-8Zm32 0a4 4 0 1 1 0 8 4 4 0 0 1 0-8Zm32 0 .2.005a4 4 0 1 1-.2-.005Zm32 0a4 4 0 1 1 0 8 4 4 0 0 1 0-8Zm32 0a4 4 0 1 1 0 8 4 4 0 0 1 0-8Zm-240-16a4 4 0 1 1 0 8 4 4 0 0 1 0-8Zm32 0a4 4 0 1 1 0 8 4 4 0 0 1 0-8Zm32 0a4 4 0 1 1 0 8 4 4 0 0 1 0-8Zm32 0a4 4 0 1 1 0 8 4 4 0 0 1 0-8Zm32 0a4 4 0 1 1 0 8 4 4 0 0 1 0-8Zm32 0 .2.005a4 4 0 1 1-.2-.005Zm32 0a4 4 0 1 1 0 8 4 4 0 0 1 0-8Zm32 0a4 4 0 1 1 0 8 4 4 0 0 1 0-8Zm32 0a4 4 0 1 1 0 8 4 4 0 0 1 0-8Z"/><path id="Outlines" fill="#000" d="M312 179.79a8 8 0 0 1 8 8v120a8 8 0 0 1-8 8H8a8 8 0 0 1-8-8v-112a8 8 0 0 1 8-8h56a8 8 0 0 1 8 8v40h176v-48a8 8 0 0 1 8-8Zm0 8h-56v56H64v-48H8v112h304v-120ZM159.5 4c2.113 0 4.14.832 5.64 2.32l80.38 79.79a8 8 0 0 1-5.63 13.68H193v88a8 8 0 0 1-8 8h-51a8 8 0 0 1-8-8v-88H79.11a8 8 0 0 1-5.63-13.68l80.38-79.79A8.007 8.007 0 0 1 159.5 4Zm0 8L79.11 91.79H134v96h51v-96h54.89L159.5 12Z"/></g></svg>