<svg width="320" height="320" viewBox="0 0 320 320" xmlns="http://www.w3.org/2000/svg"><g id="Foundations/Icons/Brand-Icons/Tools/04-paint-roller" stroke="none" stroke-width="1" fill="none" fill-rule="evenodd"><path d="M279.87 56a8 8 0 0 1-8 8h-192a8 8 0 0 1-8-8V16a8 8 0 0 1 8-8h192a8 8 0 0 1 8 8v40Z" id="lg-icon-fill-primary" fill="#FFD500"/><path d="m131.87 40 .2.005a4 4 0 1 1-.4 0l.2-.005Zm-32 0a4 4 0 1 1 0 8 4 4 0 0 1 0-8Zm96 0 .2.005a4 4 0 1 1-.4 0l.2-.005Zm-32 0a4 4 0 1 1 0 8 4 4 0 0 1 0-8Zm96 0 .2.005a4 4 0 1 1-.4 0l.2-.005Zm-32 0a4 4 0 1 1 0 8 4 4 0 0 1 0-8Zm-112-16 .2.005a4 4 0 1 1-.4 0l.2-.005Zm32 0 .2.005a4 4 0 1 1-.4 0l.2-.005Zm-64 0a4 4 0 1 1 0 8 4 4 0 0 1 0-8Zm96 0 .2.005a4 4 0 1 1-.4 0l.2-.005Zm32 0 .2.005a4 4 0 1 1-.4 0l.2-.005Zm32 0 .2.005a4 4 0 1 1-.4 0l.2-.005Z" id="Halft-one" fill="#000"/><path d="M271.87 0h-192c-8.837 0-16 7.163-16 16v7.92H44c-6.627 0-12 5.373-12 12v64.29c0 6.627 5.373 12 12 12h123.87a4 4 0 0 1 4 4V134h-8c-8.837 0-16 7.163-16 16v154c0 8.837 7.163 16 16 16h24c8.837 0 16-7.163 16-16V150c0-8.837-7.163-16-16-16h-8v-17.79c0-6.627-5.373-12-12-12H44a4 4 0 0 1-4-4V35.92a4 4 0 0 1 4-4h19.87V56c0 8.837 7.163 16 16 16h192c8.837 0 16-7.163 16-16V16c0-8.837-7.163-16-16-16Zm-84 142a8 8 0 0 1 8 8v154a8 8 0 0 1-8 8h-24a8 8 0 0 1-8-8V150a8 8 0 0 1 8-8h24Zm92-86a8 8 0 0 1-8 8h-192a8 8 0 0 1-8-8V16a8 8 0 0 1 8-8h192a8 8 0 0 1 8 8v40Z" id="Outlines" fill="#000"/></g></svg>