<svg xmlns="http://www.w3.org/2000/svg" width="320" height="320" viewBox="0 0 320 320"><g id="Foundations/Icons/Brand-Icons/Stationary/06-paperclip" fill="none" fill-rule="evenodd" stroke="none" stroke-width="1"><path id="Outlines" fill="#000" d="M304.274 52.542c-12.289-19.36-32.257-32.77-53.415-35.86-30.227-4.429-55.995 13.54-72.434 29.45l-62.604 63.46C103.202 122.81 90.044 136 77.325 148.76a5644.913 5644.913 0 0 0-17.819 17.92c-9.532 9.64-19.071 19.273-28.617 28.9-1.52 1.53-3.08 3-4.73 4.62-6.999 6.73-14.218 13.69-18.358 23-9.829 22.069.15 50.398 21.348 60.638 27.518 13.28 50.126-9.94 66.624-26.9l2.35-2.41c7.9-8.07 15.998-16.22 23.808-24.109l18.798-19c23.658-24.06 48.995-49.949 79.833-81.448l3.63-3.77a4.003 4.003 0 0 0-5.72-5.6l-3.65 3.73a39794.634 39794.634 0 0 1-79.813 81.438 5052.287 5052.287 0 0 1-18.778 19c-7.83 7.9-15.928 16.07-23.838 24.16l-2.37 2.42c-16.448 16.9-35.086 36.059-57.414 25.27-17.479-8.44-25.668-31.88-17.519-50.17 3.5-7.87 10.16-14.28 16.599-20.48 1.61-1.55 3.27-3.15 4.86-4.75 9.559-9.626 19.111-19.266 28.657-28.919 5.913-6 11.842-11.963 17.788-17.89 12.749-12.79 25.938-26 38.577-39.249l62.494-63.349c14.999-14.6 38.636-31.17 65.644-27.22 18.888 2.77 36.767 14.82 47.816 32.23 10.219 16.18 13.078 34.18 8.039 50.76-6.57 21.649-21.178 36.079-36.647 51.368-1.83 1.81-3.69 3.64-5.55 5.5L134.77 293.168a4.002 4.002 0 0 0 5.66 5.66L269.027 170.11a844.006 844.006 0 0 1 5.52-5.47c16.208-16 31.517-31.15 38.676-54.739 5.72-18.9 2.54-39.24-8.949-57.359Z"/></g></svg>