<svg xmlns="http://www.w3.org/2000/svg" width="320" height="320" viewBox="0 0 320 320"><g id="Foundations/Icons/Brand-Icons/Travel/02-passport" fill="none" fill-rule="evenodd" stroke="none" stroke-width="1"><path id="lg-icon-fill-primary" fill="#FFD500" d="M260 12v296H60V12h200Zm-100 88c-41.974 0-76 34.026-76 76s34.026 76 76 76 76-34.026 76-76-34.026-76-76-76Z"/><path id="Outlines" fill="#000" d="M255.7 8a8.31 8.31 0 0 1 8.3 8.3v287.4a8.31 8.31 0 0 1-8.3 8.3H64.3a8.31 8.31 0 0 1-8.3-8.3V16.3A8.31 8.31 0 0 1 64.3 8Zm0 8.3H64.3v287.4h191.4V16.3ZM164 96v.1c40.627 2.034 73.189 34.21 75.83 74.671l.07 1.229h.1v8h-.1c-2.034 40.627-34.21 73.189-74.671 75.83l-1.229.07v.1h-8v-.1c-40.627-2.034-73.189-34.21-75.83-74.671L80.1 180H80v-8h.1c2.034-40.627 34.21-73.189 74.671-75.83L156 96.1V96h8Zm23.44 121.89H164v29.52c6.71-1.89 13.35-8.41 18.69-18.52a82.82 82.82 0 0 0 4.75-11Zm-54.88-.05a82.82 82.82 0 0 0 4.75 11c5.246 9.982 11.747 16.45 18.337 18.466l.353.104v-29.52l-23.44-.05Zm-8.43.05H101.5a72.25 72.25 0 0 0 36.92 26.8c-5.83-6.62-10.73-15.8-14.29-26.8Zm94.37 0h-22.63c-3.56 10.97-8.46 20.18-14.29 26.8a72.25 72.25 0 0 0 36.92-26.8ZM156 180h-30a131.06 131.06 0 0 0 3.804 28.716l.296 1.174H156V180Zm38.05 0H164v29.89h25.9a131.06 131.06 0 0 0 4.15-29.89Zm37.83 0h-29.83a140 140 0 0 1-3.619 28.665l-.291 1.225h25.36a71.47 71.47 0 0 0 8.38-29.89ZM118 180H88.12a71.47 71.47 0 0 0 7.994 29.16l.386.73h25.41A140 140 0 0 1 118 180Zm71.9-37.89H164V172h30.05a131.06 131.06 0 0 0-4.15-29.89Zm-33.9 0h-25.85a131.06 131.06 0 0 0-4.117 28.68L126 172h30v-29.89Zm67.5 0h-25.36a140 140 0 0 1 3.876 28.63l.034 1.26h29.83a71.47 71.47 0 0 0-8.38-29.89Zm-101.64 0H96.5a71.47 71.47 0 0 0-8.33 29.065l-.05.825H118a140 140 0 0 1 3.86-29.89ZM164 104.59v29.52l23.44.05a82.82 82.82 0 0 0-4.75-11c-5.34-10.16-11.98-16.68-18.69-18.57Zm-8 0c-6.71 1.89-13.35 8.41-18.69 18.52a82.82 82.82 0 0 0-4.384 9.973l-.366 1.027H156v-29.52Zm25.58 2.72c5.691 6.462 10.496 15.364 14.033 26.017l.257.783h22.63a72.25 72.25 0 0 0-36.92-26.8Zm-43.16 0a72.25 72.25 0 0 0-36.491 26.208l-.429.592h22.63c3.56-10.97 8.46-20.18 14.29-26.8ZM192 56a4 4 0 0 1 .2 7.995L192 64h-64a4 4 0 0 1-.2-7.995L128 56h64Zm36-24a4 4 0 0 1 .2 7.995L228 40H92a4 4 0 0 1-.2-7.995L92 32h136Z"/></g></svg>