<svg width="320" height="320" viewBox="0 0 320 320" xmlns="http://www.w3.org/2000/svg"><g id="Foundations/Icons/Brand-Icons/Banking-and-Commerce/49-passport" stroke="none" stroke-width="1" fill="none" fill-rule="evenodd"><path d="M156 184v96h24v-3.09C180 261 192.51 248 207.9 248c15.39 0 27.89 13 27.89 28.91v.15l.06 2.94H260v-96H156Zm52 40c-6.627 0-12-5.373-12-12s5.373-12 12-12 12 5.373 12 12-5.373 12-12 12Z" id="lg-icon-fill-primary" fill="#FFD500"/><path d="M48 136a4 4 0 1 1 0 8 4 4 0 0 1 0-8Zm32 0a4 4 0 1 1 0 8 4 4 0 0 1 0-8Zm32 0a4 4 0 1 1 0 8 4 4 0 0 1 0-8Zm32 0a4 4 0 1 1 0 8 4 4 0 0 1 0-8Zm32 0a4 4 0 1 1 0 8 4 4 0 0 1 0-8Zm32 0a4 4 0 1 1 0 8 4 4 0 0 1 0-8Zm32 0a4 4 0 1 1 0 8 4 4 0 0 1 0-8Zm32 0a4 4 0 1 1 0 8 4 4 0 0 1 0-8ZM64 120a4 4 0 1 1 0 8 4 4 0 0 1 0-8Zm32 0a4 4 0 1 1 0 8 4 4 0 0 1 0-8Zm32 0a4 4 0 1 1 0 8 4 4 0 0 1 0-8Zm32 0a4 4 0 1 1 0 8 4 4 0 0 1 0-8Zm32 0a4 4 0 1 1 0 8 4 4 0 0 1 0-8Zm64 0a4 4 0 1 1 0 8 4 4 0 0 1 0-8Zm-32 0a4 4 0 1 1 0 8 4 4 0 0 1 0-8Zm-192 0a4 4 0 1 1 0 8 4 4 0 0 1 0-8Zm16-16a4 4 0 1 1 0 8 4 4 0 0 1 0-8Zm32 0a4 4 0 1 1 0 8 4 4 0 0 1 0-8Zm96 0a4 4 0 1 1 0 8 4 4 0 0 1 0-8Zm32 0a4 4 0 1 1 0 8 4 4 0 0 1 0-8Zm-96 0a4 4 0 1 1 0 8 4 4 0 0 1 0-8Zm32 0a4 4 0 1 1 0 8 4 4 0 0 1 0-8Zm96 0a4 4 0 1 1 0 8 4 4 0 0 1 0-8Zm32 0a4 4 0 1 1 0 8 4 4 0 0 1 0-8ZM32 88a4 4 0 1 1 0 8 4 4 0 0 1 0-8Zm32 0a4 4 0 1 1 0 8 4 4 0 0 1 0-8Zm32 0a4 4 0 1 1 0 8 4 4 0 0 1 0-8Zm32 0a4 4 0 1 1 0 8 4 4 0 0 1 0-8Zm32 0a4 4 0 1 1 0 8 4 4 0 0 1 0-8Zm32 0a4 4 0 1 1 0 8 4 4 0 0 1 0-8Zm32 0a4 4 0 1 1 0 8 4 4 0 0 1 0-8Zm32 0a4 4 0 1 1 0 8 4 4 0 0 1 0-8ZM48 72a4 4 0 1 1 0 8 4 4 0 0 1 0-8Zm224 0a4 4 0 1 1 0 8 4 4 0 0 1 0-8Zm-64 0a4 4 0 1 1 0 8 4 4 0 0 1 0-8Zm-32 0a4 4 0 1 1 0 8 4 4 0 0 1 0-8Zm-96 0a4 4 0 1 1 0 8 4 4 0 0 1 0-8Zm64 0a4 4 0 1 1 0 8 4 4 0 0 1 0-8Zm-32 0a4 4 0 1 1 0 8 4 4 0 0 1 0-8Zm128 0a4 4 0 1 1 0 8 4 4 0 0 1 0-8Zm-48-16a4 4 0 1 1 0 8 4 4 0 0 1 0-8Zm64 0a4 4 0 1 1 0 8 4 4 0 0 1 0-8ZM96 56a4 4 0 1 1 0 8 4 4 0 0 1 0-8Zm64 0a4 4 0 1 1 0 8 4 4 0 0 1 0-8ZM32 56a4 4 0 1 1 0 8 4 4 0 0 1 0-8Zm96 0a4 4 0 1 1 0 8 4 4 0 0 1 0-8Zm-64 0a4 4 0 1 1 0 8 4 4 0 0 1 0-8Zm160 0a4 4 0 1 1 0 8 4 4 0 0 1 0-8ZM48 40a4 4 0 1 1 0 8 4 4 0 0 1 0-8Zm224 0a4 4 0 1 1 0 8 4 4 0 0 1 0-8ZM80 40a4 4 0 1 1 0 8 4 4 0 0 1 0-8Zm32 0a4 4 0 1 1 0 8 4 4 0 0 1 0-8Zm32 0a4 4 0 1 1 0 8 4 4 0 0 1 0-8Zm32 0a4 4 0 1 1 0 8 4 4 0 0 1 0-8Zm32 0a4 4 0 1 1 0 8 4 4 0 0 1 0-8Zm32 0a4 4 0 1 1 0 8 4 4 0 0 1 0-8ZM32 24a4 4 0 1 1 0 8 4 4 0 0 1 0-8Zm32 0a4 4 0 1 1 0 8 4 4 0 0 1 0-8Zm32 0a4 4 0 1 1 0 8 4 4 0 0 1 0-8Zm32 0a4 4 0 1 1 0 8 4 4 0 0 1 0-8Zm32 0a4 4 0 1 1 0 8 4 4 0 0 1 0-8Zm32 0a4 4 0 1 1 0 8 4 4 0 0 1 0-8Zm32 0a4 4 0 1 1 0 8 4 4 0 0 1 0-8Zm32 0a4 4 0 1 1 0 8 4 4 0 0 1 0-8Z" id="Half-tone" fill="#000"/><path d="M283.7 8a8.31 8.31 0 0 1 8.296 8.046l.004.254v135.4a8.271 8.271 0 0 1-1.204 4.301 8.248 8.248 0 0 1 1.2 4.045l.004.254v143.4a8.31 8.31 0 0 1-8.046 8.296l-.254.004H36.3a8.31 8.31 0 0 1-8.296-8.046L28 303.7V160.3a8.271 8.271 0 0 1 1.204-4.3 8.26 8.26 0 0 1-1.2-4.046L28 151.7V16.3a8.31 8.31 0 0 1 8.046-8.296L36.3 8h247.4Zm0 152H36.3a.31.31 0 0 0-.29.232l-.01.068v143.4a.31.31 0 0 0 .232.29l.068.01h247.4a.31.31 0 0 0 .29-.232l.01-.068V160.3a.31.31 0 0 0-.3-.3Zm-24 16a8.31 8.31 0 0 1 8.296 8.046l.004.254v95.4a8.31 8.31 0 0 1-8.046 8.296l-.254.004H156.3a8.31 8.31 0 0 1-8.296-8.046L148 279.7v-95.4a8.31 8.31 0 0 1 8.046-8.296l.254-.004h103.4Zm0 8H156.3a.31.31 0 0 0-.29.232l-.01.068v95.4a.31.31 0 0 0 .232.29l.068.01H172v-3.09c0-20.186 15.75-36.58 35.306-36.905l.594-.005.593.005c19.35.322 34.978 16.39 35.292 36.294l.005.611.058 3.09H259.7a.31.31 0 0 0 .29-.232l.01-.068v-95.4a.31.31 0 0 0-.3-.3Zm-51.8 64c-15.236 0-27.65 12.741-27.896 28.434l-.004.476V280h55.85l-.06-2.94v-.15c0-15.91-12.51-28.91-27.89-28.91ZM120 264a4 4 0 1 1 0 8H56a4 4 0 1 1 0-8h64Zm0-24a4 4 0 1 1 0 8H56a4 4 0 1 1 0-8h64Zm88-48c11.046 0 20 8.954 20 20s-8.954 20-20 20-20-8.954-20-20 8.954-20 20-20Zm0 8c-6.627 0-12 5.373-12 12s5.373 12 12 12 12-5.373 12-12-5.373-12-12-12Zm-88 16a4 4 0 1 1 0 8H56a4 4 0 1 1 0-8h64Zm0-24a4 4 0 1 1 0 8H56a4 4 0 1 1 0-8h64ZM283.7 16H36.3a.31.31 0 0 0-.29.232L36 16.3v135.4a.31.31 0 0 0 .232.29l.068.01h247.4a.31.31 0 0 0 .29-.232l.01-.068V16.3a.31.31 0 0 0-.3-.3Z" id="Outlines" fill="#000"/></g></svg>