<svg xmlns="http://www.w3.org/2000/svg" width="320" height="320" viewBox="0 0 320 320"><g id="Foundations/Icons/Brand-Icons/Banking-and-Commerce/48-passport-stamp" fill="none" fill-rule="evenodd" stroke="none" stroke-width="1"><path id="lg-icon-fill-primary" fill="#FFD500" d="M167.996 215.21v-77.78c11.16 4.24 25.22 6.57 40 6.57 14.78 0 28.84-2.33 40-6.57v78.07c0 9.11-17.91 16.5-40 16.5s-40-7.39-40-16.5v-.29Zm-16-103.21c0-13.25 25.07-24 56-24s56 10.75 56 24c0 4.52-2.92 8.75-8 12.36a44.44 44.44 0 0 1-8 4.43c-10.16 4.45-24.33 7.21-40 7.21-15.67 0-29.84-2.76-40-7.21a44.44 44.44 0 0 1-8-4.43c-5.08-3.61-8-7.84-8-12.36Zm56 144c-30.93 0-56-10.75-56-24 0-4.67 3.12-9 8.5-12.71 1.21 4.64 5.08 10.7 16.17 15.27 8.5 3.51 19.62 5.44 31.33 5.44 11.71 0 22.83-1.93 31.33-5.44 11.09-4.57 15-10.63 16.17-15.27 5.38 3.69 8.5 8 8.5 12.71 0 13.25-25.07 24-56 24Z"/><path id="Half-tone" fill="#000" d="M211.996 232a4 4 0 1 1 0 8 4 4 0 0 1 0-8Zm0-32a4 4 0 1 1 0 8 4 4 0 0 1 0-8Zm-16-16a4 4 0 1 1 0 8 4 4 0 0 1 0-8Zm32 0a4 4 0 1 1 0 8 4 4 0 0 1 0-8Zm-48-16a4 4 0 1 1 0 8 4 4 0 0 1 0-8Zm32 0a4 4 0 1 1 0 8 4 4 0 0 1 0-8Zm-16-16a4 4 0 1 1 0 8 4 4 0 0 1 0-8Zm56-24a4 4 0 1 1 0 8 4 4 0 0 1 0-8Zm-48-16a4 4 0 1 1 0 8 4 4 0 0 1 0-8Zm32 0 .2.005a4 4 0 1 1-.4 0l.2-.005Zm-48-16a4 4 0 1 1 0 8 4 4 0 0 1 0-8Zm32 0a4 4 0 1 1 0 8 4 4 0 0 1 0-8Z"/><path id="Outlines" fill="#000" d="M304.004 24a7.999 7.999 0 0 1 7.901 9.227l-.051.293-24 124a7.987 7.987 0 0 1-.927 2.481c.381.658.672 1.379.855 2.147l.071.332 24 124a8 8 0 0 1-7.552 9.514l-.297.006H15.996a8 8 0 0 1-7.901-9.227l.05-.293 24.001-124c.173-.893.49-1.727.926-2.48a7.961 7.961 0 0 1-.854-2.148l-.072-.332-24-124a8 8 0 0 1 7.552-9.514l.298-.006h288.008Zm-48.002 186.24c10.36 5.69 16 13.29 16 21.76 0 9.81-7.55 18.45-21.25 24.32-11.55 4.95-26.75 7.68-42.751 7.68-16 0-31.2-2.73-42.751-7.68C151.55 250.45 144 241.81 144 232c0-8.47 5.64-16.07 16-21.76V164H39.997L15.996 288h288.008l-24.001-124h-24Zm-.5 9.05c-1.17 4.64-5.08 10.7-16.17 15.27-8.5 3.51-19.62 5.44-31.331 5.44-11.71 0-22.83-1.93-31.33-5.44-11.091-4.57-14.961-10.63-16.171-15.27-5.38 3.71-8.5 8.04-8.5 12.71 0 13.25 25.07 24 56.001 24 30.93 0 56.001-10.75 56.001-24 0-4.71-3.12-9.02-8.5-12.71Zm-7.5-81.86c-11.16 4.24-25.22 6.57-40.001 6.57-14.78 0-28.84-2.33-40.001-6.57v78.07c0 9.11 17.91 16.5 40.001 16.5 22.09 0 40.001-7.39 40.001-16.5ZM124 192a4 4 0 1 1 0 8H47.997a4 4 0 1 1 0-8h76.002Zm8-16a4 4 0 1 1 0 8H51.997a4 4 0 1 1 0-8h80.002ZM304.004 32H15.996l24 124H160v-22.24c-10.36-5.69-16-13.29-16-21.76 0-9.81 7.55-18.45 21.25-24.32C176.8 82.73 192 80 208 80s31.2 2.73 42.751 7.68c13.7 5.87 21.25 14.51 21.25 24.32 0 8.47-5.64 16.07-16 21.76V156h24l24.002-124ZM208 88c-30.929 0-56 10.75-56 24 0 4.52 2.92 8.75 8 12.36a44.442 44.442 0 0 0 8 4.43c10.16 4.45 24.33 7.21 40.001 7.21 15.67 0 29.84-2.76 40.001-7.21a44.442 44.442 0 0 0 8-4.43c5.08-3.61 8-7.84 8-12.36 0-13.25-25.07-24-56.001-24Z"/></g></svg>