<svg xmlns="http://www.w3.org/2000/svg" width="320" height="320" viewBox="0 0 320 320"><g id="Foundations/Icons/Brand-Icons/Online/28-payment-calendar" fill="none" fill-rule="evenodd" stroke="none" stroke-width="1"><circle id="lg-icon-fill-primary" cx="244.5" cy="75.94" r="60.5" fill="#FFD500"/><path id="Half-tone" fill="#000" d="M132 255.94a4 4 0 1 1 0 8 4 4 0 0 1 0-8Zm128 0a4 4 0 1 1 0 8 4 4 0 0 1 0-8Zm-144-16a4 4 0 1 1 0 8 4 4 0 0 1 0-8Zm128 0a4 4 0 1 1 0 8 4 4 0 0 1 0-8Zm-168-40a4 4 0 1 1 0 8 4 4 0 0 1 0-8Zm120 0a4 4 0 1 1 0 8 4 4 0 0 1 0-8Zm-136-16a4 4 0 1 1 0 8 4 4 0 0 1 0-8Zm120 0a4 4 0 1 1 0 8 4 4 0 0 1 0-8Z"/><path id="Outlines" fill="#000" d="M244.39 8c37.555 0 68 30.445 68 68a67.63 67.63 0 0 1-.73 9.91 8.15 8.15 0 0 1 .34 2.33v215.4a8.31 8.31 0 0 1-8.3 8.3H16.3a8.31 8.31 0 0 1-8.3-8.3V88.24a8.31 8.31 0 0 1 8.3-8.3H32v-17a4 4 0 1 1 8 0v17h33.33v-17a4 4 0 1 1 8 0v17h33.34v-17a4 4 0 1 1 8 0v17H156v-17a4 4 0 1 1 8 0v17h12.52c-.08-1.31-.13-2.62-.13-3.94 0-37.555 30.445-68 68-68ZM32 87.94H16.3a.31.31 0 0 0-.3.3v215.4a.31.31 0 0 0 .3.3h287.4a.31.31 0 0 0 .3-.3V108.68c-13.872 25.263-42.163 39.037-70.604 34.375-28.441-4.661-50.855-26.746-55.936-55.115H164v19a4 4 0 1 1-8 0v-19h-33.33v19a4 4 0 1 1-8 0v-19H81.33v19a4 4 0 1 1-8 0v-19H40v19a4 4 0 1 1-8 0v-19Zm252 72.05a4 4 0 0 1 4 4v119.95a4 4 0 0 1-4 4H36a4 4 0 0 1-4-4V163.99a4 4 0 0 1 4-4ZM94 227.94H40v52h54v-52Zm62 0h-54v52h54v-52Zm62 0h-54v52h54v-52Zm62 0h-54v52h54v-52Zm0-59.95h-54v51.95h54v-51.95Zm-62 0h-54v51.95h54v-51.95Zm-62 0h-54v51.95h54v-51.95Zm-62 0H40v51.95h54v-51.95ZM244.39 16c-33.145.039-59.995 26.915-60 60.06 0 1.32.06 2.63.15 3.94a58.52 58.52 0 0 0 1.05 8c5.678 27.964 30.265 48.06 58.8 48.06 28.535 0 53.122-20.096 58.8-48.06a58.09 58.09 0 0 0 1.05-8c.09-1.35.15-2.67.15-4-.033-33.123-26.877-59.967-60-60Zm2.39 19.94c10.44 0 21.61 6.31 21.61 24a4 4 0 1 1-8 0c0-13.22-7.4-16-13.61-16-7.476.006-13.534 6.064-13.54 13.54v.14a65.82 65.82 0 0 0 1.14 10.37h18a4 4 0 1 1 0 8h-16.31c.06.24.12.48.17.72 1.95 8.28 3.81 16.28 1.31 23.28h30.83a4 4 0 1 1 0 8h-48a4 4 0 1 1 0-8l8.18-.04c3.49-4.92 2.26-11.26-.13-21.45-.19-.84-.39-1.69-.59-2.55h-7.48a4 4 0 1 1 0-8h5.86a69.78 69.78 0 0 1-1-10.34v-.24c.071-11.856 9.703-21.43 21.56-21.43Z"/></g></svg>