<svg width="320" height="320" viewBox="0 0 320 320" xmlns="http://www.w3.org/2000/svg"><g id="Foundations/Icons/Brand-Icons/Stationary/01-pencil" stroke="none" stroke-width="1" fill="none" fill-rule="evenodd"><path id="lg-icon-fill-primary" fill="#FFD500" d="m110.747 272.12-62.89-62.89 166.35-166.35 62.89 62.89z"/><path d="M115.977 240a4 4 0 1 1 0 8 4 4 0 0 1 0-8Zm16-16a4 4 0 1 1 0 8 4 4 0 0 1 0-8Zm16-16a4 4 0 1 1 0 8 4 4 0 0 1 0-8Zm16-16a4 4 0 1 1 0 8 4 4 0 0 1 0-8Zm16-16a4 4 0 1 1 0 8 4 4 0 0 1 0-8Zm16-16a4 4 0 1 1 0 8 4 4 0 0 1 0-8Zm16-16a4 4 0 1 1 0 8 4 4 0 0 1 0-8Zm16-16a4 4 0 1 1 0 8 4 4 0 0 1 0-8Zm16-16a4 4 0 1 1 0 8 4 4 0 0 1 0-8Z" id="Half-tone" fill="#000"/><path d="M246.722 8a18.19 18.19 0 0 1 12.865 5.33l47.06 47.06a18.19 18.19 0 0 1 0 25.73l-191.23 191.24a18.2 18.2 0 0 1-7.06 4.37l-88.36 29.78a9.4 9.4 0 0 1-2.95.49 9.12 9.12 0 0 1-8.58-12l29.78-88.38a18.2 18.2 0 0 1 4.37-7.06l191.24-191.23A18.19 18.19 0 0 1 246.722 8ZM26.047 269.73l-10.94 32.48a2 2 0 0 0 .26 1.87 2.09 2.09 0 0 0 1.68.92 2.11 2.11 0 0 0 .72-.13l32.48-10.94-24.2-24.2Zm17.85-53.11-15 44.65 29.81 29.81 44.65-15.08-59.46-59.38Zm170.31-173.74L47.857 209.23l62.85 62.85 166.39-166.31-62.89-62.89Zm8.25 49.6a3.536 3.536 0 0 1 5 5l-124.37 124.35a3.441 3.441 0 0 1-2.47 1c-.927.01-1.82-.35-2.48-1a3.5 3.5 0 0 1 0-4.94ZM246.772 15a11.19 11.19 0 0 0-7.915 3.28l-19 18.95 62.85 62.9 19-19-.01.04c4.381-4.359 4.404-11.443.05-15.83l-47.06-47.06a11.19 11.19 0 0 0-7.915-3.28Z" id="Outlines" fill="#000"/></g></svg>