<svg width="320" height="320" xmlns="http://www.w3.org/2000/svg"><g fill="none" fill-rule="evenodd"><g transform="translate(96 120)" stroke="#000" stroke-width="8"><circle fill="#FFD500" cx="20" cy="128" r="20"/><circle fill="#FFF" cx="60" cy="144" r="20"/><path fill="#FFD500" d="M83.585 142.326l35.318-18.779 7.512 14.127-35.318 18.779z"/><path fill="#FFF" d="M83.585 124.326l35.318-18.779 7.512 14.127-35.318 18.779z"/><path fill="#FFD500" d="M54.097 99.547l35.318 18.779-7.512 14.127-35.318-18.779zM128 65v40h-16V65z"/><circle fill="#FFD500" cx="95" cy="95" r="20"/><path fill="#FFF" d="M23.585 95.326l35.318-18.779 7.512 14.127-35.318 18.779z"/><circle fill="#FFF" cx="108" cy="57" r="20"/><path fill="#FFF" d="M16 68v40H0V68z"/><path fill="#FFD500" d="M32 49v40H16V49z"/><circle fill="#FFD500" cx="52" cy="58" r="20"/><path fill="#FFD500" d="M88 35v40H72V35z"/><path fill="#FFF" d="M1.585 40.326l35.318-18.779 7.512 14.127L9.097 54.453z"/><path fill="#FFD500" d="M1.585 22.326L36.903 3.547l7.512 14.127L9.097 36.453z"/><circle fill="#FFF" cx="63" cy="20" r="20"/></g><path d="M208 128a4 4 0 110 8 4 4 0 010-8zm32 0v8a4 4 0 110-8zm-16-16a4 4 0 110 8 4 4 0 010-8zm-32 0a4 4 0 110 8 4 4 0 010-8zm16-16a4 4 0 110 8 4 4 0 010-8zm30.629 7.578l.052.2a4.002 4.002 0 01-2.068-5.907 39.447 39.447 0 012.016 5.707z" fill="#000"/><path d="M200 60.847V72c22.091 0 40 17.909 40 40v132c0 16.415-9.888 30.52-24.032 36.685C214.956 291.414 190.286 300 160 300c-30.286 0-54.956-8.586-55.968-19.315C89.888 274.52 80 260.415 80 244V112c0-22.091 17.909-40 40-40V60.848c8.6 4.31 23.305 7.152 40 7.152 16.696 0 31.401-2.841 40-7.153z" stroke="#000" stroke-width="8"/><path d="M200 68c0 5.92-8.04 11.09-19.99 13.857-1.302.302-2.65.575-4.039.817a84.272 84.272 0 01-3.96.592A96.596 96.596 0 01160 84c-22.091 0-40-7.163-40-16" stroke="#000" stroke-width="8"/><path d="M208 36v16c0 8.837-21.49 16-48 16s-48-7.163-48-16h0V36h0c0 8.837 21.49 16 48 16s48-7.163 48-16h0z" stroke="#000" stroke-width="8" fill="#FFD500"/><ellipse stroke="#000" stroke-width="8" fill="#FFD500" cx="160" cy="36" rx="48" ry="16"/></g></svg>