<svg xmlns="http://www.w3.org/2000/svg" viewBox="0 0 320 320"><g id="Foundations/Icons/Brand-Icons/Pension-Pot" fill="none" fill-rule="evenodd" stroke="none" stroke-width="1"><path id="lg-icon-fill-primary" fill="#FFD500" d="M116 232c8.837 0 16 7.163 16 16s-7.163 16-16 16-16-7.163-16-16 7.163-16 16-16zm97.25 16.957 3.755 7.063-28.254 15.023-3.756-7.063 28.254-15.023zm-33.245-8.977-3.756 7.063-28.254-15.023 3.756-7.063 28.254 15.023zm39.996-45.092L220 221h-8v-21.365a23.985 23.985 0 0 0 8.001-4.747zM191 199c8.837 0 16 7.163 16 16s-7.163 16-16 16-16-7.163-16-16 7.163-16 16-16zm-67 6h-8v-32h8v32zm24-43c8.837 0 16 7.163 16 16s-7.163 16-16 16-16-7.163-16-16 7.163-16 16-16zm32 29h-8v-32h8v32zm-48.75-62.043 3.755 7.063-28.254 15.023-3.756-7.063 28.254-15.023zm-15.252-81.77.224.136C125.472 52.82 141.627 56 160 56l.86-.002c18.017-.098 33.813-3.264 42.918-8.675l.221-.135L204 52c0 1.987-3.864 5.032-11.324 7.519C184.17 62.354 172.498 64 160 64c-12.374 0-23.942-1.613-32.432-4.4-7.477-2.455-11.468-5.5-11.566-7.53l-.004-.167v-4.716zM160 24c12.498 0 24.17 1.646 32.676 4.481C200.136 30.968 204 34.013 204 36s-3.864 5.032-11.324 7.519C184.17 46.354 172.498 48 160 48c-12.498 0-24.17-1.646-32.676-4.481C119.864 41.032 116 37.987 116 36s3.864-5.032 11.324-7.519C135.83 25.646 147.502 24 160 24z"/><path id="Outlines" fill="#000" d="M160 16c28.708 0 52 7.764 52 20v16c0 4.342-2.933 8.12-8 11.19v4.99l.322.03c22.036 2.147 39.308 20.55 39.673 43.062L244 112v132c0 16.787-9.488 31.834-24.087 39.246l-.459.229-.13.384c-4.321 12.08-28.828 19.97-58.36 20.138L160 304c-30.26 0-55.455-8.09-59.449-20.51l-.004-.014-.46-.23c-14.445-7.334-23.887-22.143-24.084-38.716L76 244V112c0-22.842 17.406-41.62 39.679-43.79l.321-.03v-5.024c-4.887-2.973-7.79-6.614-7.992-10.794L108 52V36c.001-12.237 23.292-20 52-20zm-43.174 60.14-.361.031C98.242 77.948 84 93.311 84 112v132c0 14.46 8.602 27.34 21.63 33.018l2.163.943.222 2.349c.3 3.194 5.315 7.156 14.331 10.276C132.275 294.02 145.68 296 160 296c14.321 0 27.725-1.979 37.654-5.414 9.016-3.12 14.03-7.082 14.332-10.276l.221-2.349 2.163-.942C227.398 271.34 236 258.459 236 244V112c0-18.807-14.422-34.246-32.81-35.86-2.457 6.069-10.338 10.693-21.338 13.39l-.94.224a79.166 79.166 0 0 1-4.254.86 88.273 88.273 0 0 1-4.148.62c-4.02.506-8.223.766-12.51.766-21.234 0-39.185-6.164-43.174-15.86zM159 116c13.255 0 24 10.745 24 24a23.9 23.9 0 0 1-2.51 10.698l-.154.302H188v8.111A23.91 23.91 0 0 1 204 153c13.255 0 24 10.745 24 24 0 1.425-.124 2.82-.362 4.176l.03-.176H228v48h-6.731l6.555 12.328-7.461 3.967 7.461 14.033-42.381 22.535-6.235-11.726C176.497 280.419 167.134 288 156 288c-12.64 0-22.999-9.773-23.932-22.175A23.902 23.902 0 0 1 116 272c-13.255 0-24-10.745-24-24a23.91 23.91 0 0 1 6.111-16H92v-48h15.999v-6.56l8-4.254V184H116v21h8v-32h-7.65l.295-.158-13.202 7.02-11.267-21.19 7.46-3.968-7.46-14.032 42.381-22.535 4.512 8.488.134-.196C143.529 120.13 150.782 116 159 116zm-3 132c-8.837 0-16 7.163-16 16s7.163 16 16 16 16-7.163 16-16-7.163-16-16-16zm57.299 1.051-27.856 14.812-.051-.095-.397.212 3.756 7.063 28.254-15.023-3.706-6.969zM116 232c-8.837 0-16 7.163-16 16s7.163 16 16 16 16-7.163 16-16-7.163-16-16-16zm64.905 23.328-1.309 2.46 2.04-1.084-.731-1.376zm32.344-24.371-27.026 14.368-.789 1.483 3.266 6.14 27.857-14.81.05.093.398-.21-3.756-7.064zm-61.498-6-3.756 7.063 28.254 15.023 3.756-7.063-28.254-15.023zm-9.607 1.025-9.285 4.937a23.925 23.925 0 0 1 7.073 15.256 23.952 23.952 0 0 1 8.39-4.92l-11.146-5.927 4.968-9.346zM191 199c-8.837 0-16 7.163-16 16s7.163 16 16 16 16-7.163 16-16-7.163-16-16-16zm-23.892 13.709-10.676 5.676 12.844 6.83a23.894 23.894 0 0 1-2.273-9.818L167 215c0-.773.037-1.537.108-2.291zM116 217.103V224c1.304 0 2.583.104 3.83.304l-3.83-7.201zm37.25-15.146-28.255 15.023 3.756 7.063 28.254-15.023-3.756-7.063zM108 192h-8v32h8v-32zm112.049 2.845a23.986 23.986 0 0 1-8.076 4.799l.027-.01v3.738l-.031-.056A23.891 23.891 0 0 1 215 215a24.04 24.04 0 0 1-.623 5.455l-.133.546.69-.001 1.623-.863.459.863H220v-26.112l.049-.043zm-56.048 1.043a24.085 24.085 0 0 1-3.525 2.619l6.806 12.803a23.914 23.914 0 0 1 5.83-12.31H164l.001-3.112zm-32.001 0v8.306l7.234-3.845a24.002 24.002 0 0 1-7.234-4.46zm17.315-33.922.255.11c-.516-.05-1.04-.076-1.57-.076-8.837 0-16 7.163-16 16s7.163 16 16 16c1.47 0 2.892-.198 4.243-.569l4.314-2.294.153.287c4.388-2.853 7.29-7.8 7.29-13.424 0-6.256-3.59-11.673-8.823-14.304a23.775 23.775 0 0 1-5.862-1.73zM204 161c-8.837 0-16 7.163-16 16s7.163 16 16 16 16-7.163 16-16-7.163-16-16-16zm-30.263-2.056c-.565.44-1.15.855-1.754 1.244l.018-.01L172 191h8v-32l-6.337.001.074-.057zm-42.438-11.893-27.856 14.812-.051-.095-.397.212 3.756 7.063 28.254-15.023-3.706-6.969zM159 124c-8.837 0-16 7.163-16 16s7.163 16 16 16 16-7.163 16-16-7.163-16-16-16zm-27.75 4.957-28.255 15.023 3.705 6.968 27.857-14.81.05.094.398-.212-3.756-7.063zM208 128a4 4 0 1 1 0 8 4 4 0 0 1 0-8zm16-16a4 4 0 1 1 0 8 4 4 0 0 1 0-8zm-32 0a4 4 0 1 1 0 8 4 4 0 0 1 0-8zm16-16a4 4 0 1 1 0 8 4 4 0 0 1 0-8zm-84.001-29.152L124 72l.004.146c.132 2.208 3.23 5.067 9.197 7.454C140.151 82.38 149.73 84 160 84c3.955 0 7.826-.239 11.512-.703a80.276 80.276 0 0 0 3.772-.564 71.171 71.171 0 0 0 3.823-.773C189.742 79.498 196 75.25 196 72l.001-5.136C186.657 70.162 173.97 72 160 72l.017-.001-.041.001c-.414 0-.827-.002-1.24-.005-13.467-.108-25.673-1.936-34.737-5.147zm78.503-18.805a36.284 36.284 0 0 1-1.843.925 42.859 42.859 0 0 1-1.221.552 52.31 52.31 0 0 1-3.819 1.478l-.395.135a62.135 62.135 0 0 1-1.77.569 70.307 70.307 0 0 1-2.779.79 80.772 80.772 0 0 1-2.057.514 89.408 89.408 0 0 1-2.957.647l-.35.07a98.047 98.047 0 0 1-2.923.533 109.023 109.023 0 0 1-3.742.563 120.872 120.872 0 0 1-4.2.488 134.066 134.066 0 0 1-6.215.474 145.863 145.863 0 0 1-5.724.2 156.9 156.9 0 0 1-1.647.017L160 56a158.515 158.515 0 0 1-6.643-.142 148.202 148.202 0 0 1-5.383-.332 134.908 134.908 0 0 1-5.178-.523l-.256-.031a118.68 118.68 0 0 1-5.363-.79 105.507 105.507 0 0 1-3.297-.623 94.193 94.193 0 0 1-2.178-.478 82.345 82.345 0 0 1-4.185-1.09 71.726 71.726 0 0 1-2.625-.82 62.006 62.006 0 0 1-.654-.223 56.177 56.177 0 0 1-2.084-.77l-.575-.23a49.764 49.764 0 0 1-1.915-.83 42.91 42.91 0 0 1-1.875-.92 36.279 36.279 0 0 1-1.567-.875l-.224-.136v4.716l.004.167c.066 1.36 1.875 3.172 5.306 4.959l.485.243c.514.257 1.051.509 1.61.754l.15.064-.15-.064.39.168-.24-.104a47.62 47.62 0 0 0 4.015 1.51c3.143 1.032 6.709 1.903 10.58 2.59l.17.03-.17-.03c.256.046.513.09.771.134l-.6-.104c.227.04.456.08.686.118l-.086-.014.599.1-.513-.086c.283.048.568.095.855.14l-.342-.054.662.106-.32-.051c4.582.732 9.573 1.22 14.79 1.42l.123.004-.122-.005.805.029-.683-.024c.238.01.477.017.716.025l-.033-.001.715.021-.682-.02.79.023-.108-.003.697.017-.589-.014.834.02-.245-.006.774.015-.529-.01c.26.006.518.01.778.014l-.249-.004c.274.005.549.009.824.012l-.575-.008a70 70 0 0 0 .648.008h-.073a141.27 141.27 0 0 0 3.118 0l-.245.002.838-.01-.593.007c.235-.002.47-.006.704-.01l-.111.002.787-.014-.676.013.79-.015-.114.002.665-.016-.551.014.918-.023-.367.01.765-.023-.398.013.649-.02-.251.007a134.652 134.652 0 0 0 6.752-.378l-.094.007a123.054 123.054 0 0 0 5.634-.584l-.046.004.657-.085-.611.08.694-.09-.083.01a109.306 109.306 0 0 0 3.372-.502l-.164.027a101.97 101.97 0 0 0 1.498-.257l-.176.032.644-.116-.468.084c3.915-.701 7.513-1.59 10.673-2.644a47.557 47.557 0 0 0 3.807-1.443l-.079.034.23-.1-.15.066c.6-.262 1.175-.53 1.724-.804l.516-.258C202.213 55.192 204 53.35 204 52l-.001-4.812-.22.135a32.206 32.206 0 0 1-1.056.6zM160 24c-12.498 0-24.17 1.646-32.676 4.481C119.864 30.968 116 34.013 116 36l.004.111c.14 1.989 3.998 4.968 11.32 7.408C135.83 46.354 147.502 48 160 48c12.498 0 24.17-1.646 32.676-4.481C200.136 41.032 204 37.987 204 36c-.001-1.988-3.865-5.033-11.324-7.519C184.17 25.646 172.498 24 160 24z"/></g></svg>