<svg xmlns="http://www.w3.org/2000/svg" width="320" height="320" viewBox="0 0 320 320"><g id="Brand-Icons/UI/Pensions-and-Retirement/14-pensions-and-retirement" fill="none" fill-rule="evenodd" stroke="none" stroke-width="1"><path id="lg-icon-fill-primary" fill="#FFD500" d="m188 196 .517.004c16.167.273 39.02 17.255 39.476 33.504L228 230v74h-80v-74l.004-.517c.273-16.167 23.136-33.14 39.502-33.478L188 196Zm0 56a8 8 0 1 0 0 16 8 8 0 0 0 0-16Zm0-225.657 110.828 110.829a4 4 0 0 1-5.497 5.807l-.16-.15L188 37.656 82.828 142.828a4 4 0 0 1-5.497.151l-.16-.15a4 4 0 0 1-.15-5.498l.15-.16L188 26.344ZM100 164v16H36v-16h64ZM68 20c17.673 0 32 14.327 32 32 0 17.673-14.327 32-32 32-17.673 0-32-14.327-32-32 0-17.673 14.327-32 32-32Z"/><path id="Outlines" fill="#000" d="m188 15.03 36 36V32h8V20a4 4 0 1 1 8 0v12h8v43.03l56.485 56.485c4.608 4.608 4.685 12.032.23 16.734l-.23.236c-4.513 4.514-11.761 4.698-16.497.448l-.16-.146-.313-.302L280 140.97V304l12 .001a4 4 0 1 1 0 8l-12-.001h-48v.03h-88V312L28 312a4 4 0 1 1 0-8h12c-13.255 0-24-10.745-24-24v-72c0-13.255 10.745-24 24-24a8 8 0 0 1-8-8v-8a8 8 0 0 1 8-8h56v-19.03l-7.515 7.515c-4.436 4.436-11.512 4.69-16.25.664l-.247-.216-.16-.146-.313-.302c-4.514-4.513-4.698-11.761-.448-16.497l.146-.16.302-.313L188 15.029ZM87.999 184H48v8h-8c-8.731 0-15.83 6.994-15.997 15.685L24 208v72c0 8.731 6.994 15.83 15.685 15.997L40 296h8v8h40v-7.935l8.267-.067c8.616-.14 15.562-7.088 15.73-15.68L112 280v-72c0-8.731-6.994-15.83-15.685-15.997L96 192h-7.879L88 184ZM188 48.97l-84 84v52.396l.296.107C113.463 188.849 120 197.66 120 208v72c0 10.367-6.573 19.198-15.778 22.555l-.222.08v1.364h40v-67.97c0-24.3 19.7-44 44-44s44 19.7 44 44V304h40V132.97l-84-84Zm0 151.06c-19.683 0-35.677 15.796-35.995 35.404l-.005.595V304h72v-67.97c0-19.683-15.797-35.677-35.405-35.995l-.595-.005ZM71.65 208c5.833 0 10.525 1.798 13.96 5.355 3.428 3.552 5.17 8.335 5.17 14.223 0 .753-.6 1.374-1.328 1.374H83.88c-.733 0-1.327-.62-1.327-1.374 0-3.838-1.014-6.817-3.01-8.863-2.027-2.078-4.74-3.084-8.307-3.084-3.386 0-6.003 1.193-7.994 3.662-2.017 2.507-3.041 6.058-3.041 10.561l.366 12.255h14.295c.732 0 1.327.615 1.327 1.374v4.882c0 .754-.595 1.375-1.327 1.375H60.789l.361 11.573c.048 4.503-.59 8.197-1.9 11.056h31.423c.733 0 1.327.616 1.327 1.374v4.883c0 .753-.594 1.374-1.327 1.374H45.507c-.732 0-1.327-.621-1.327-1.374v-4.883c0-.758.595-1.374 1.327-1.374h4.443c.966-.297 1.762-2.348 2.208-4.008.568-2.172.823-4.503.765-6.922l-.367-11.7h-7.229c-.733 0-1.327-.62-1.327-1.374v-4.882c0-.759.594-1.374 1.327-1.374h6.97l-.367-12.189c0-6.625 1.805-11.969 5.356-15.922 3.588-3.98 8.418-5.998 14.363-5.998ZM188 248.03c6.627 0 12 5.372 12 12 0 6.627-5.373 12-12 12s-12-5.373-12-12c0-6.628 5.373-12 12-12Zm0 8a4 4 0 1 0 0 8 4 4 0 0 0 0-8Zm0-152c19.882 0 36 16.117 36 36 0 19.882-16.118 36-36 36s-36-16.118-36-36c0-19.883 16.118-36 36-36ZM96 168H40v8h56v-8Zm88-23.97h-23.716c1.754 12.263 11.454 21.962 23.717 23.716L184 144.029Zm31.716 0H192v23.716c12.263-1.754 21.962-11.454 23.716-23.716ZM188 26.343 77.172 137.172l-.151.159a4 4 0 0 0 .15 5.497l.16.151a4 4 0 0 0 5.497-.15L188 37.656l105.172 105.171.159.151a4 4 0 0 0 5.497-5.807L188 26.343Zm-4 85.97c-12.263 1.754-21.963 11.454-23.717 23.717H184v-23.717Zm8 0v23.715l23.716.001c-1.754-12.262-11.453-21.962-23.716-23.716ZM68 16c19.882 0 36 16.118 36 36S87.882 88 68 88 32 71.882 32 52s16.118-36 36-36Zm0 8c-15.464 0-28 12.536-28 28s12.536 28 28 28 28-12.536 28-28-12.536-28-28-28Zm172 16h-8v18.687l8 8V40Z"/></g></svg>