<svg xmlns="http://www.w3.org/2000/svg" width="320" height="320" fill="none" viewBox="0 0 320 320"><path fill="#FFD500" fill-rule="evenodd" d="m188 196 .517.004c16.167.273 39.021 17.255 39.476 33.504L228 230v74h-80v-74l.004-.517c.273-16.167 23.136-33.14 39.502-33.478L188 196Zm0 56a8 8 0 1 0 0 16 8 8 0 0 0 0-16Zm0-225.657 110.828 110.829a3.997 3.997 0 0 1 0 5.656 3.999 3.999 0 0 1-5.497.151l-.159-.151L188 37.657 82.828 142.828a4 4 0 0 1-5.497.151l-.16-.151a4 4 0 0 1-.15-5.497l.15-.159L188 26.343ZM100 164v16H36v-16h64ZM68 20c17.673 0 32 14.327 32 32 0 17.673-14.327 32-32 32-17.673 0-32-14.327-32-32 0-17.673 14.327-32 32-32Z" clip-rule="evenodd"/><path fill="#000" fill-rule="evenodd" d="m188 15.03 36 36V32h8V20a4 4 0 0 1 8 0v12h8v43.03l56.485 56.485c4.608 4.608 4.685 12.031.231 16.733l-.231.237c-4.436 4.436-11.512 4.691-16.25.664l-.247-.216-.159-.146-.314-.302L280 140.97v163.029l12 .001a4 4 0 0 1 0 8l-12-.001V312l-48-.001v.03h-88v-.03L96 312v-.001l-7.945.001H28a4 4 0 0 1 0-8h12c-13.255 0-24-10.745-24-24v-72c0-13.255 10.745-24 24-24a8 8 0 0 1-8-8v-8a8 8 0 0 1 8-8h56v-19.031l-7.515 7.516c-4.358 4.358-11.265 4.68-15.999.872l-.251-.208-.247-.216-.16-.146-.313-.302c-4.436-4.436-4.69-11.512-.664-16.25l.216-.247.146-.159.302-.314L188 15.029ZM87.999 184H48v8h-8c-8.731 0-15.83 6.994-15.997 15.685L24 208v72c0 8.731 6.994 15.829 15.685 15.997L40 296h8v8h40v-7.936l8.267-.066c8.616-.14 15.562-7.088 15.73-15.679L112 280v-72c0-8.731-6.994-15.829-15.685-15.997L96 192h-7.879L88 184ZM188 48.97l-84 83.999v52.397l.296.106C113.463 188.849 120 197.661 120 208v72c0 10.366-6.573 19.198-15.778 22.555l-.222.079v1.365l40-.001v-67.969c0-24.3 19.699-44 44-44s44 19.7 44 44v67.969l40 .001V132.97l-84-84Zm0 151.059c-19.683 0-35.677 15.797-35.995 35.405l-.005.595v67.969h72v-67.969c0-19.683-15.797-35.677-35.405-35.995l-.595-.005ZM71.65 208c5.833 0 10.525 1.798 13.96 5.355 3.428 3.551 5.17 8.335 5.17 14.223 0 .709-.532 1.301-1.2 1.368l-.128.006H83.88c-.733 0-1.327-.621-1.327-1.374 0-3.838-1.014-6.818-3.01-8.863-2.028-2.078-4.74-3.084-8.307-3.084-3.386 0-6.003 1.193-7.994 3.661-1.945 2.418-2.967 5.807-3.037 10.083l-.004.479.366 12.255h14.295c.689 0 1.256.545 1.32 1.242l.007.132v4.882c0 .709-.527 1.301-1.2 1.368l-.127.007H60.789l.361 11.573c.046 4.315-.537 7.888-1.74 10.694l-.16.362h31.423c.69 0 1.257.545 1.32 1.242l.007.132v4.882c0 .709-.527 1.301-1.2 1.368l-.127.007H45.507c-.689 0-1.256-.55-1.32-1.243l-.006-.132v-4.882c0-.714.526-1.301 1.199-1.368l.127-.006h4.443c.966-.297 1.762-2.348 2.208-4.008.521-1.991.779-4.115.773-6.319l-.008-.603-.367-11.699h-7.229c-.69 0-1.257-.551-1.32-1.243l-.007-.132v-4.882c0-.714.527-1.301 1.2-1.368l.127-.006h6.97l-.367-12.189c0-6.625 1.805-11.969 5.356-15.922 3.588-3.98 8.418-5.998 14.363-5.998ZM188 248.029c6.627 0 12 5.373 12 12 0 6.628-5.373 12-12 12s-12-5.372-12-12c0-6.627 5.373-12 12-12Zm0 8a4 4 0 1 0 0 8 4 4 0 0 0 0-8Zm0-152c19.882 0 36 16.118 36 36 0 19.883-16.118 36-36 36s-36-16.117-36-36c0-19.882 16.118-36 36-36ZM96 168H40v8h56v-8Zm88-23.971-23.716.001c1.754 12.262 11.454 21.962 23.717 23.716L184 144.029Zm31.716.001L192 144.029v23.717c12.263-1.754 21.962-11.454 23.716-23.716ZM188 26.343 77.172 137.171l-.151.16a4 4 0 0 0 0 5.338l.15.159.16.151a4 4 0 0 0 5.338 0l.16-.151L188 37.657l105.172 105.171.159.151a3.999 3.999 0 0 0 5.648-5.648l-.151-.16L188 26.343Zm-3.999 85.97c-12.264 1.754-21.964 11.454-23.718 23.717l23.717-.001.001-23.716Zm7.999 0v23.715l23.716.001c-1.754-12.263-11.453-21.962-23.716-23.716ZM68 16c19.882 0 36 16.118 36 36S87.882 88 68 88 32 71.882 32 52s16.118-36 36-36Zm0 8c-15.464 0-28 12.536-28 28s12.536 28 28 28 28-12.536 28-28-12.536-28-28-28Zm172 16h-8v18.687l8 8V40Z" clip-rule="evenodd"/></svg>