<svg width="320" height="320" viewBox="0 0 320 320" xmlns="http://www.w3.org/2000/svg"><g id="Foundations/Icons/Brand-Icons/People/09-people-search" stroke="none" stroke-width="1" fill="none" fill-rule="evenodd"><path d="M110.002 45.002c-37.555 0-68 30.445-68 68 0 37.556 30.445 68 68 68 37.556 0 68-30.444 68-68 0-37.555-30.444-68-68-68Zm-28.5 39.36c8.61 0 15.593 6.977 15.6 15.587.008 8.61-6.963 15.599-15.573 15.613-8.61.015-15.605-6.95-15.627-15.56a15.61 15.61 0 0 1 15.6-15.64Zm21.5 81.76v9.76a64.56 64.56 0 0 1-45.33-29.44 29.76 29.76 0 0 1 49.19 2.4 40.3 40.3 0 0 0-3.86 17.28Zm38.5-81.76c8.61 0 15.593 6.977 15.6 15.587.008 8.61-6.963 15.599-15.573 15.613-8.61.015-15.605-6.95-15.627-15.56a15.61 15.61 0 0 1 15.6-15.64Zm15.95 72.69a63.75 63.75 0 0 1-45.7 19.45h-.75v-10.38c0-17.4 13.65-31.55 30.42-31.55 9.18 0 18.7 5.19 24.44 12a65 65 0 0 1-8.41 10.48Z" id="lg-icon-fill-primary" fill="#FFD500"/><path d="M276.002 272.002a4 4 0 1 1 0 8 4 4 0 0 1 0-8Zm-16-16a4 4 0 1 1 0 8 4 4 0 0 1 0-8Zm-16-16a4 4 0 1 1 0 8 4 4 0 0 1 0-8Zm-16-16a4 4 0 1 1 0 8 4 4 0 0 1 0-8Zm-16-16a4 4 0 1 1 0 8 4 4 0 0 1 0-8Zm-16-16a4 4 0 1 1 0 8 4 4 0 0 1 0-8Z" id="Half-tone" fill="#000"/><path d="M44.118 44.118c34.538-34.537 89.503-37.636 127.704-7.2 38.201 30.436 47.46 84.704 21.51 126.084l108.45 108.46a7.58 7.58 0 0 1 0 10.72l-19.6 19.6a7.58 7.58 0 0 1-10.72 0l-108.46-108.45c-41.38 25.95-95.648 16.691-126.084-21.51C6.482 133.62 9.58 78.656 44.118 44.118Zm144.594 125.604a96.72 96.72 0 0 1-19 19l107.11 107.11 19.01-19.01ZM178.27 53.99c-26.713-30.593-70.882-38.955-106.93-20.242-36.046 18.713-54.625 59.648-44.976 99.1 9.65 39.452 45.024 67.191 85.638 67.154a87.51 87.51 0 0 0 50.67-16.09 96.82 96.82 0 0 0 21.24-21.24c23.402-33.195 21.071-78.088-5.642-108.682Zm-15.358 7.102a71.76 71.76 0 0 1 0 101.82c-20.591 20.593-51.56 26.754-78.465 15.61-26.905-11.144-44.448-37.398-44.448-66.52 0-29.121 17.543-55.376 44.448-66.52 26.905-11.143 57.874-4.983 78.465 15.61Zm-84.33-3.69c-27.614 16.909-38.248 51.779-24.77 81.22a37.68 37.68 0 0 1 57.61 2.79 37.7 37.7 0 0 1 58.33-2 66.48 66.48 0 0 1-4.21 7.51 30 30 0 0 0-24.12-12.35c-16.602 0-30.146 13.869-30.416 31.03l-.004.52v10.38h.75a63.75 63.75 0 0 0 45.25-18.987l.45-.463v-.01c22.798-22.994 24.83-59.392 4.734-84.781-20.096-25.39-55.99-31.769-83.604-14.86Zm-20.91 89.04a64.56 64.56 0 0 0 44.715 29.348l.615.092v-9.76a40.3 40.3 0 0 1 3.86-17.28 29.76 29.76 0 0 0-49.19-2.4Zm23.83-70.08a23.6 23.6 0 0 1 23.6 23.64c-.022 13.029-10.598 23.575-23.626 23.56-13.029-.014-23.581-10.584-23.574-23.613.008-13.029 10.572-23.587 23.6-23.587Zm60 0a23.6 23.6 0 0 1 23.6 23.64c-.022 13.029-10.598 23.575-23.626 23.56-13.029-.014-23.581-10.584-23.574-23.613.008-13.029 10.572-23.587 23.6-23.587ZM70.49 88.904a15.6 15.6 0 0 0 11.013 26.648c8.592-.01 15.562-6.958 15.6-15.55A15.6 15.6 0 0 0 70.49 88.904Zm60 0a15.6 15.6 0 0 0 11.013 26.648c8.592-.01 15.562-6.958 15.6-15.55a15.6 15.6 0 0 0-26.613-11.098Z" id="Outlines" fill="#000"/></g></svg>