<svg xmlns="http://www.w3.org/2000/svg" viewBox="0 0 320 320"><g id="Foundations/Icons/Brand-Icons/Performance" fill="none" fill-rule="evenodd" stroke="none" stroke-width="1"><path id="lg-icon-fill-primary" fill="#FFD500" d="M52 216c6.627 0 12 5.373 12 12s-5.373 12-12 12-12-5.373-12-12 5.373-12 12-12zm144-42c6.627 0 12 5.373 12 12s-5.373 12-12 12-12-5.373-12-12 5.373-12 12-12zm-72-78c6.627 0 12 5.373 12 12s-5.373 12-12 12-12-5.373-12-12 5.373-12 12-12zm144-40c6.627 0 12 5.373 12 12s-5.373 12-12 12-12-5.373-12-12 5.373-12 12-12z"/><path id="Outlines" fill="#000" d="M284 296a4 4 0 1 1 0 8H36a4 4 0 1 1 0-8h248zM268 48c11.046 0 20 8.954 20 20s-8.954 20-20 20c-2.457 0-4.81-.443-6.984-1.253l-50.994 84.991A19.94 19.94 0 0 1 216 186c0 11.046-8.954 20-20 20s-20-8.954-20-20c0-4.152 1.265-8.008 3.43-11.204l-44.643-49.951A19.906 19.906 0 0 1 124 128a19.97 19.97 0 0 1-6.572-1.105l-51.851 86.42A19.946 19.946 0 0 1 72 228c0 11.046-8.954 20-20 20s-20-8.954-20-20 8.954-20 20-20c2.364 0 4.632.41 6.738 1.163l51.814-86.359A19.948 19.948 0 0 1 104 108c0-11.046 8.954-20 20-20s20 8.954 20 20c0 4.178-1.281 8.057-3.472 11.265l44.626 49.928A19.906 19.906 0 0 1 196 166c2.58 0 5.046.488 7.31 1.378l50.922-84.871A19.943 19.943 0 0 1 248 68c0-11.046 8.954-20 20-20zM52 216c-6.627 0-12 5.373-12 12s5.373 12 12 12 12-5.373 12-12-5.373-12-12-12zm144-42c-6.627 0-12 5.373-12 12s5.373 12 12 12 12-5.373 12-12-5.373-12-12-12zm-72-78c-6.627 0-12 5.373-12 12s5.373 12 12 12 12-5.373 12-12-5.373-12-12-12zm144-40c-6.627 0-12 5.373-12 12s5.373 12 12 12 12-5.373 12-12-5.373-12-12-12z"/></g></svg>