<svg width="320" height="320" xmlns="http://www.w3.org/2000/svg"><g fill="none" fill-rule="evenodd"><path d="M52 216c6.627 0 12 5.373 12 12s-5.373 12-12 12-12-5.373-12-12 5.373-12 12-12zm144-42c6.627 0 12 5.373 12 12s-5.373 12-12 12-12-5.373-12-12 5.373-12 12-12zm-72-78c6.627 0 12 5.373 12 12s-5.373 12-12 12-12-5.373-12-12 5.373-12 12-12zm144-40c6.627 0 12 5.373 12 12s-5.373 12-12 12-12-5.373-12-12 5.373-12 12-12z" fill="#FFD500"/><path d="M284 296a4 4 0 110 8H36a4 4 0 110-8h248zM268 48c11.046 0 20 8.954 20 20s-8.954 20-20 20c-2.457 0-4.81-.443-6.984-1.253l-50.994 84.991A19.94 19.94 0 01216 186c0 11.046-8.954 20-20 20s-20-8.954-20-20c0-4.152 1.265-8.008 3.43-11.204l-44.643-49.951A19.906 19.906 0 01124 128a19.97 19.97 0 01-6.572-1.105l-51.851 86.42A19.946 19.946 0 0172 228c0 11.046-8.954 20-20 20s-20-8.954-20-20 8.954-20 20-20c2.364 0 4.632.41 6.738 1.163l51.814-86.359A19.948 19.948 0 01104 108c0-11.046 8.954-20 20-20s20 8.954 20 20c0 4.178-1.281 8.057-3.472 11.265l44.626 49.928A19.906 19.906 0 01196 166c2.58 0 5.046.488 7.31 1.378l50.922-84.871A19.943 19.943 0 01248 68c0-11.046 8.954-20 20-20zM52 216c-6.627 0-12 5.373-12 12s5.373 12 12 12 12-5.373 12-12-5.373-12-12-12zm144-42c-6.627 0-12 5.373-12 12s5.373 12 12 12 12-5.373 12-12-5.373-12-12-12zm-72-78c-6.627 0-12 5.373-12 12s5.373 12 12 12 12-5.373 12-12-5.373-12-12-12zm144-40c-6.627 0-12 5.373-12 12s5.373 12 12 12 12-5.373 12-12-5.373-12-12-12z" fill="#000"/></g></svg>