<svg viewBox="0 0 70 70" xmlns="http://www.w3.org/2000/svg"><g id="Text-amends" stroke="none" stroke-width="1" fill="none" fill-rule="evenodd"><g id="SN_1.0I_BookWithPensionWise_XL" transform="translate(-441 -477)"><g id="Group-2" transform="translate(328 439)"><g id="Foundations/Icons/Brand-Icons/Communication/04-phone-call-Copy" transform="translate(108 33)"><path d="m64.008 7.005 3 3 3 3a11.4 11.4 0 0 1 2.625 4.875c.75 3-.665 5.878-4.125 11.625-3.295 5.47-9 12-18 21s-15.53 14.705-21 18c-4.75 2.858-7.538 4.32-10.055 4.32-.53 0-1.057-.066-1.57-.195a11.4 11.4 0 0 1-4.875-2.625l-3-3-3-3 6.75-6.75 8.25-8.25 1.5 1.5 1.5 1.5c2.4 2.4 4.56 3.12 6.287 3.12a6.317 6.317 0 0 0 4.213-1.62l9-9 9-9a6.317 6.317 0 0 0 1.5-3c.375-1.875 0-4.5-3-7.5l-1.5-1.5-1.5-1.5 8.25-8.25 6.75-6.75" id="lg-icon-fill-primary" fill="#FFD500"/><path d="M17.883 66.88a1 1 0 1 1 0 2 1 1 0 0 1 0-2Zm8 0a1 1 0 1 1 0 2 1 1 0 0 1 0-2Zm-12-4a1 1 0 1 1 0 2 1 1 0 0 1 0-2Zm8 0a1 1 0 1 1 0 2 1 1 0 0 1 0-2Zm8 0a1 1 0 1 1 0 2 1 1 0 0 1 0-2Zm-12-4a1 1 0 1 1 0 2 1 1 0 0 1 0-2Zm8 0a1 1 0 1 1 0 2 1 1 0 0 1 0-2Zm8 0a1 1 0 1 1 0 2 1 1 0 0 1 0-2Zm-12-4a1 1 0 1 1 0 2 1 1 0 0 1 0-2Zm16 0a1 1 0 1 1 0 2 1 1 0 0 1 0-2Zm4-4a1 1 0 1 1 0 2 1 1 0 0 1 0-2Zm4-4a1 1 0 1 1 0 2 1 1 0 0 1 0-2Zm4-4a1 1 0 1 1 0 2 1 1 0 0 1 0-2Zm4-4a1 1 0 1 1 0 2 1 1 0 0 1 0-2Zm4-4a1 1 0 1 1 0 2 1 1 0 0 1 0-2Zm4-4a1 1 0 1 1 0 2 1 1 0 0 1 0-2Zm-4-4a1 1 0 1 1 0 2 1 1 0 0 1 0-2Zm8 0a1 1 0 1 1 0 2 1 1 0 0 1 0-2Zm-4-4a1 1 0 1 1 0 2 1 1 0 0 1 0-2Zm-4-4a1 1 0 1 1 0 2 1 1 0 0 1 0-2Zm8 0a1 1 0 1 1 0 2 1 1 0 0 1 0-2Zm-4-4a1 1 0 1 1 0 2 1 1 0 0 1 0-2Z" id="Half-tone" fill="#000"/><path d="M64 5c.53 0 1.038.21 1.413.585l6 6a13.5 13.5 0 0 1 3.152 5.805c.993 3.975-1.007 7.582-4.352 13.14-3.27 5.432-8.745 11.832-18.3 21.383-9.555 9.55-15.95 15.03-21.383 18.3-4.622 2.782-7.89 4.607-11.085 4.607a8.428 8.428 0 0 1-2.055-.25 13.5 13.5 0 0 1-5.805-3.152l-6-6a2 2 0 0 1 0-2.828l15-15a2 2 0 0 1 2.828 0l3 3c1.682 1.682 3.322 2.535 4.875 2.535.275 0 .55-.028.82-.083a4.475 4.475 0 0 0 2-.967l8.985-8.978 8.985-8.985c.486-.574.82-1.262.967-2 .358-1.792-.467-3.707-2.452-5.695l-3-3a2 2 0 0 1 0-2.827l15-15a2 2 0 0 1 1.415-.585Zm.008 2.005-15 15 3 3c3 3 3.375 5.625 3 7.5a6.317 6.317 0 0 1-1.5 3l-18 18a6.317 6.317 0 0 1-4.213 1.62c-1.727 0-3.887-.72-6.287-3.12l-3-3-15 15 6 6a11.4 11.4 0 0 0 4.875 2.625c.513.13 1.04.195 1.57.195 2.517 0 5.305-1.463 10.055-4.32 5.47-3.295 12-9 21-18s14.705-15.53 18-21c3.46-5.747 4.875-8.625 4.125-11.625a11.4 11.4 0 0 0-2.625-4.875l-6-6ZM37.883 16.88a1 1 0 1 1 0 2c-4.193 0-8.625 1.725-11.293 4.393-2.457 2.46-3.707 6.03-3.707 10.607a1 1 0 1 1-2 0c0-5.128 1.445-9.173 4.292-12.02 3.073-3.072 7.94-4.98 12.708-4.98Zm0-10a1 1 0 1 1 0 2c-6.915 0-13.78 2.75-18.365 7.322-4.34 4.34-6.635 10.455-6.635 17.678a1 1 0 1 1-2 0c0-7.765 2.5-14.368 7.222-19.093 4.95-4.95 12.345-7.907 19.778-7.907Z" id="Outlines" fill="#000"/></g></g></g></g></svg>