<svg width="320" height="320" xmlns="http://www.w3.org/2000/svg"><g fill="none" fill-rule="evenodd"><path d="M156 19a60.02 60.02 0 0149.827 26.586 60.013 60.013 0 015.691 56.186 58.154 58.154 0 01-3.531 7.172 60.02 60.02 0 01-57.995 29.755 60.019 60.019 0 01-50.93-40.678 59.013 59.013 0 01-2-7.772 60.013 60.013 0 0112.71-49.486A60.02 60.02 0 01156 19z" fill="#FFD500"/><path d="M156 16c35.346 0 64 28.654 64 64 0 5.09-.594 10.043-1.718 14.79a134.144 134.144 0 0118.296 14.413l40.783-9.061a8 8 0 018.52 12.05l-22.06 35.298A100.656 100.656 0 01270.175 168L296 168a8 8 0 018 8v39.59a8 8 0 01-4.38 7.133L256 244.863V296a8 8 0 01-8 8h-40a8 8 0 01-8-8l.001-21.656C185.643 278.18 170.022 280 154 280a117.29 117.29 0 01-34-5.011V296a8 8 0 01-8 8H72a8 8 0 01-8-8l-.002-58.583C49.01 218.808 40 195.313 40 169.42c0-.476.004-.95.01-1.423L20 168a4 4 0 110-8l20.472-.002c3.406-33.647 24.858-59.59 51.778-74.327A64.077 64.077 0 0192 80c0-35.346 28.654-64 64-64zM93.557 94.096l-.612.359c-24.497 14.463-41.293 37.925-44.408 65.363l-.106.986-.367 3.626-.059 4.013-.005.978c0 23.04 7.71 44.673 21.736 62.362l.492.615 1.77 2.197L72 296h40v-31.79l10.317 3.122A109.287 109.287 0 00154 272c15.223 0 29.71-1.706 42.816-5.09l1.12-.295 10.066-2.689L208 296h40v-56.048l48-24.363V176l-32.414-.002-1.263-6.467a92.483 92.483 0 00-5.419-17.859l-.432-1.02-1.655-3.849 24.279-38.851-44.918 9.979-3.084-2.904a125.788 125.788 0 00-15.266-12.253C206.648 126.877 183.324 144 156 144c-30.503 0-56.022-21.34-62.443-49.904zM180 256a4 4 0 110 8 4 4 0 010-8zm-32 0a4 4 0 110 8 4 4 0 010-8zm-48-16a4 4 0 110 8 4 4 0 010-8zm128 0a4 4 0 110 8 4 4 0 010-8zm-32 0a4 4 0 110 8 4 4 0 010-8zm-32 0a4 4 0 110 8 4 4 0 010-8zm-32 0a4 4 0 110 8 4 4 0 010-8zm112-16a4 4 0 110 8 4 4 0 010-8zm-32 0a4 4 0 110 8 4 4 0 010-8zm-32 0a4 4 0 110 8 4 4 0 010-8zm-32 0a4 4 0 110 8 4 4 0 010-8zm-32 0a4 4 0 110 8 4 4 0 010-8zm-32 0a4 4 0 110 8 4 4 0 010-8zm16-16a4 4 0 110 8 4 4 0 010-8zm-32 0a4 4 0 110 8 4 4 0 010-8zm16-16a4 4 0 110 8 4 4 0 010-8zm-16-16a4 4 0 110 8 4 4 0 010-8zm168-32a4 4 0 014 4v24a4 4 0 11-8 0v-24a4 4 0 014-4zm-81-8.009l.46.006c.18.003.36.003.54.003 30.928 0 56-25.072 56-56s-25.072-56-56-56-56 25.072-56 56l.008.926.02.867c.936 29.767 25.103 53.676 54.973 54.198zM158.39 40C168.83 40 180 46.3 180 64a4 4 0 01-8 0c0-13.09-7.253-15.94-13.412-15.999L158.39 48c-7.35.005-13.332 5.867-13.525 13.176l-.005.444a63.79 63.79 0 00.95 9.352L146 72h18a4 4 0 01.2 7.995L164 80h-16.32l.43 1.814c1.805 7.716 3.366 15.151 1.207 21.728l-.157.458H180a4 4 0 01.2 7.995l-.2.005h-48a4 4 0 01-.2-7.995l.2-.005 8.2.01c3.49-4.93 2.26-11.26-.13-21.46l-.193-.836-.397-1.704H132a4 4 0 01-.2-7.995l.2-.005h5.83a69.94 69.94 0 01-.97-9.31l-.03-1.04v-.26c.082-11.847 9.713-21.406 21.56-21.4z" fill="#000"/></g></svg>