<svg width="320" height="320" viewBox="0 0 320 320" xmlns="http://www.w3.org/2000/svg"><g id="Foundations/Icons/Brand-Icons/Energy-and-Resources/18-pipeline" stroke="none" stroke-width="1" fill="none" fill-rule="evenodd"><path d="M240 207.971h-24v-8h-21l-2.31 4c-5.28 9.13-15.23 20-32.64 20s-27.36-10.88-32.64-20l-2.31-4H104v8H80v-64h24v8h40v-24h-7.51a2.67 2.67 0 0 1-.43-.46v-15.54h16v-32H120v-8h80v8h-32v32h16v15.54a2.67 2.67 0 0 1-.43.46h-7.51v24h40v-8h24l-.06 64Z" id="lg-icon-fill-primary" fill="#FFD500"/><path d="m162.21 191.921.2.005a4 4 0 1 1-.4 0l.2-.005Zm-16-16 .2.005a4 4 0 1 1-.4 0l.2-.005Zm-32 0a4 4 0 1 1 0 8 4 4 0 0 1 0-8Zm96 0a4 4 0 1 1 0 8 4 4 0 0 1 0-8Zm-32 0a4 4 0 1 1 0 8 4 4 0 0 1 0-8Zm-16-16 .2.005a4 4 0 1 1-.4 0l.2-.005Zm-32 0a4 4 0 1 1 0 8 4 4 0 0 1 0-8Zm-32 0a4 4 0 1 1 0 8 4 4 0 0 1 0-8Zm96 0a4 4 0 1 1 0 8 4 4 0 0 1 0-8Zm32 0a4 4 0 1 1 0 8 4 4 0 0 1 0-8Z" id="Half-tone" fill="#000"/><path d="M307.12 167.191c-16.12-15.61-41.29-15.22-43.12-15.22h-16v-8a8.12 8.12 0 0 0-2.34-5.66 6.91 6.91 0 0 0-.57-.51 7.82 7.82 0 0 0-2-1.2 8 8 0 0 0-2.29-.59 7.38 7.38 0 0 0-.82 0H216a7.38 7.38 0 0 0-.82 0 8 8 0 0 0-2.29.59 7.82 7.82 0 0 0-2 1.2 8 8 0 0 0-1.54 1.7 7.88 7.88 0 0 0-1.35 4.47h-24v-4.27a1.21 1.21 0 0 0 0-.2v-3.53a6.93 6.93 0 0 0 3.59-1.11 9.63 9.63 0 0 0 1.28-1c.4-.353.771-.737 1.11-1.15a7.84 7.84 0 0 0 2-4.79v-15.95a8.12 8.12 0 0 0-2.34-5.66 6.91 6.91 0 0 0-.57-.51 7.82 7.82 0 0 0-2-1.2 8 8 0 0 0-2.29-.59 7.38 7.38 0 0 0-.82 0h-8v-16.04h24c.273.016.547.016.82 0a8 8 0 0 0 2.29-.59 7.82 7.82 0 0 0 2-1.2c.2-.159.39-.33.57-.51a8.12 8.12 0 0 0 2.36-5.7v-8a8.53 8.53 0 0 0-.16-1.61 7.89 7.89 0 0 0-.81-2.2 5.52 5.52 0 0 0-.4-.66 7.88 7.88 0 0 0-1-1.19 6.91 6.91 0 0 0-.57-.51 7.15 7.15 0 0 0-2-1.2 8 8 0 0 0-2.29-.59 7.38 7.38 0 0 0-.82 0H120a7.38 7.38 0 0 0-.82 0 8 8 0 0 0-2.29.59 7.15 7.15 0 0 0-2 1.2 8 8 0 0 0-1.54 1.7 5.52 5.52 0 0 0-.4.66 7.89 7.89 0 0 0-.61 1.43c-.08.25-.14.51-.2.77a8.53 8.53 0 0 0-.14 1.61v8a7.88 7.88 0 0 0 1.37 4.47 8 8 0 0 0 1.54 1.7 7.82 7.82 0 0 0 2 1.2 8 8 0 0 0 2.29.59c.273.016.547.016.82 0h24v16.04h-8a7.38 7.38 0 0 0-.82 0 8 8 0 0 0-2.29.59 7.82 7.82 0 0 0-2 1.2 8 8 0 0 0-1.54 1.7 7.88 7.88 0 0 0-1.37 4.51v16c0 2.55 1.89 5.37 4.35 6.89a6.93 6.93 0 0 0 3.59 1.11v8H112a8.12 8.12 0 0 0-2.34-5.66 6.91 6.91 0 0 0-.57-.51 7.82 7.82 0 0 0-2-1.2 8 8 0 0 0-2.29-.59 7.38 7.38 0 0 0-.82 0H80a7.38 7.38 0 0 0-.82 0 8 8 0 0 0-2.29.59 7.82 7.82 0 0 0-2 1.2 8 8 0 0 0-1.54 1.7 7.88 7.88 0 0 0-1.35 4.47v8H56c-1.81 0-27-.39-43.1 15.22-8.57 8.29-12.9 19.46-12.9 33.2v51.58a4 4 0 0 0 4 4h40a4 4 0 0 0 4-4v-43.13s-.08-4.37 2.39-6.91a7.41 7.41 0 0 1 5.61-1.96h16v8a7.88 7.88 0 0 0 1.37 4.47 8 8 0 0 0 1.54 1.7 7.82 7.82 0 0 0 2 1.2 8 8 0 0 0 2.29.59c.273.016.547.016.82 0h24c.273.016.547.016.82 0a8 8 0 0 0 2.29-.59 7.82 7.82 0 0 0 2-1.2c.2-.159.39-.33.57-.51a8.12 8.12 0 0 0 2.3-5.66h8.44a54.1 54.1 0 0 0 7.18 9.8 48.86 48.86 0 0 0 4.3 4.1 44.84 44.84 0 0 0 4.75 3.48c.52.33 1 .65 1.58 1a41.65 41.65 0 0 0 12.21 4.62 46.46 46.46 0 0 0 19.08 0 41.65 41.65 0 0 0 12.21-4.68c.54-.3 1.06-.62 1.58-1a44.84 44.84 0 0 0 4.75-3.48 48.86 48.86 0 0 0 4.3-4.1 54.1 54.1 0 0 0 7.18-9.8H208a7.88 7.88 0 0 0 1.37 4.47 8 8 0 0 0 1.54 1.7 7.82 7.82 0 0 0 2 1.2 8 8 0 0 0 2.29.59c.273.016.547.016.82 0h24c.273.016.547.016.82 0a8 8 0 0 0 2.29-.59 7.82 7.82 0 0 0 2-1.2c.2-.159.39-.33.57-.51a8.12 8.12 0 0 0 2.3-5.6v-8h16a7.41 7.41 0 0 1 5.61 2c2.47 2.54 2.39 6.87 2.39 6.89v43.11a4 4 0 0 0 4 4h40a4 4 0 0 0 4-4v-51.58c0-13.74-4.33-24.91-12.88-33.2ZM72 191.971H56a15.37 15.37 0 0 0-11.41 4.45c-4.59 4.77-4.59 11.49-4.59 12.61v38.94H8v-47.58c0-11.48 3.51-20.7 10.42-27.43 13.87-13.49 37.16-13 37.38-13H72v32.01Zm168 16h-24v-8h-21l-2.31 4c-5.28 9.13-15.23 20-32.64 20s-27.36-10.88-32.64-20l-2.31-4H104v8H80v-64h24v8h40v-24h-7.51a2.67 2.67 0 0 1-.43-.46v-15.54h16v-32H120v-8h80v8h-32v32h16v15.54a2.67 2.67 0 0 1-.43.46h-7.51v24h40v-8h24l-.06 64Zm72 40h-32v-38.94c0-1.12 0-7.84-4.59-12.61a15.37 15.37 0 0 0-11.41-4.45h-16v-32h16.2c.23 0 23.41-.55 37.35 13 6.93 6.73 10.45 16 10.45 27.46v47.54Z" id="Outlines" fill="#000"/></g></svg>