<svg width="320" height="320" viewBox="0 0 320 320" xmlns="http://www.w3.org/2000/svg"><g id="Foundations/Icons/Brand-Icons/Sports-and-Pastimes/19-pitch" stroke="none" stroke-width="1" fill="none" fill-rule="evenodd"><path d="M312 56H8a8 8 0 0 0-8 8v192a8 8 0 0 0 8 8h304a8 8 0 0 0 8-8V64a8 8 0 0 0-8-8Zm0 136h-40v-64h40v64Zm-156 15.82c-24.807-2.154-43.847-22.92-43.847-47.82s19.04-45.666 43.847-47.82v95.64Zm8-95.64c24.807 2.154 43.847 22.92 43.847 47.82s-19.04 45.666-43.847 47.82v-95.64ZM8 128h40v64H8v-64Zm0 72h44a4 4 0 0 0 4-4v-72a4 4 0 0 0-4-4H8V64h148v40.16c-29.203 2.212-51.77 26.553-51.77 55.84 0 29.287 22.567 53.628 51.77 55.84V256H8v-56Zm304 56H164v-40.16c29.203-2.212 51.77-26.553 51.77-55.84 0-29.287-22.567-53.628-51.77-55.84V64h148v56h-44a4 4 0 0 0-4 4v72a4 4 0 0 0 4 4h44v56Z" id="Outlines" fill="#000"/></g></svg>