<svg width="320" height="320" viewBox="0 0 320 320" xmlns="http://www.w3.org/2000/svg"><g id="Foundations/Icons/Brand-Icons/UI/Action/19-Post" stroke="none" stroke-width="1" fill="none" fill-rule="evenodd"><path id="lg-icon-fill-primary" fill="#FFD500" d="M228 84h48v64h-48z"/><path d="M132 112a4 4 0 1 1 0 8 4 4 0 0 1 0-8Zm32 0a4 4 0 1 1 0 8 4 4 0 0 1 0-8Zm32 0a4 4 0 1 1 0 8 4 4 0 0 1 0-8Zm32 0a4 4 0 1 1 0 8 4 4 0 0 1 0-8Zm32 0a4 4 0 1 1 0 8 4 4 0 0 1 0-8ZM116 96a4 4 0 1 1 0 8 4 4 0 0 1 0-8Zm32 0a4 4 0 1 1 0 8 4 4 0 0 1 0-8Zm32 0a4 4 0 1 1 0 8 4 4 0 0 1 0-8Zm32 0a4 4 0 1 1 0 8 4 4 0 0 1 0-8Zm32 0a4 4 0 1 1 0 8 4 4 0 0 1 0-8Zm32 0a4 4 0 1 1 0 8 4 4 0 0 1 0-8ZM132 80a4 4 0 1 1 0 8 4 4 0 0 1 0-8Zm32 0a4 4 0 1 1 0 8 4 4 0 0 1 0-8Zm32 0a4 4 0 1 1 0 8 4 4 0 0 1 0-8Zm32 0a4 4 0 1 1 0 8 4 4 0 0 1 0-8Zm32 0a4 4 0 1 1 0 8 4 4 0 0 1 0-8Z" id="Half-tone" fill="#000"/><path d="M304 56v216H16V56h288Zm-8 8H24v200h272V64Zm-16 16v72h-56V80h56Zm-8 8h-40v56h40V88ZM124.007 216a3.997 3.997 0 0 1 3.993 4c0 2.21-1.788 4-3.993 4H51.993A3.997 3.997 0 0 1 48 220c0-2.21 1.788-4 3.993-4h72.014Zm72-24a3.997 3.997 0 0 1 3.993 4c0 2.21-1.788 4-3.993 4H51.993A3.997 3.997 0 0 1 48 196c0-2.21 1.788-4 3.993-4h144.014Zm0-24a3.997 3.997 0 0 1 3.993 4c0 2.21-1.788 4-3.993 4H51.993A3.997 3.997 0 0 1 48 172c0-2.21 1.788-4 3.993-4h144.014Zm0-24a3.997 3.997 0 0 1 3.993 4c0 2.21-1.788 4-3.993 4H51.993A3.997 3.997 0 0 1 48 148c0-2.21 1.788-4 3.993-4h144.014Z" id="Outlines" fill="#000"/></g></svg>