<svg xmlns="http://www.w3.org/2000/svg" width="320" height="320"><g id="Foundations/Icons/Brand-Icons/UI/Action/19-Post" fill="none" fill-rule="evenodd" stroke="none" stroke-width="1"><path id="lg-icon-fill-primary" fill="#ffd500" d="M228 84h48v64h-48z"/><path id="Half-tone" fill="#000" d="M132 112a4 4 0 1 1 0 8 4 4 0 0 1 0-8m32 0a4 4 0 1 1 0 8 4 4 0 0 1 0-8m32 0a4 4 0 1 1 0 8 4 4 0 0 1 0-8m32 0a4 4 0 1 1 0 8 4 4 0 0 1 0-8m32 0a4 4 0 1 1 0 8 4 4 0 0 1 0-8M116 96a4 4 0 1 1 0 8 4 4 0 0 1 0-8m32 0a4 4 0 1 1 0 8 4 4 0 0 1 0-8m32 0a4 4 0 1 1 0 8 4 4 0 0 1 0-8m32 0a4 4 0 1 1 0 8 4 4 0 0 1 0-8m32 0a4 4 0 1 1 0 8 4 4 0 0 1 0-8m32 0a4 4 0 1 1 0 8 4 4 0 0 1 0-8M132 80a4 4 0 1 1 0 8 4 4 0 0 1 0-8m32 0a4 4 0 1 1 0 8 4 4 0 0 1 0-8m32 0a4 4 0 1 1 0 8 4 4 0 0 1 0-8m32 0a4 4 0 1 1 0 8 4 4 0 0 1 0-8m32 0a4 4 0 1 1 0 8 4 4 0 0 1 0-8"/><path id="Outlines" fill="#000" d="M304 56v216H16V56zm-8 8H24v200h272zm-16 16v72h-56V80zm-8 8h-40v56h40zM124.007 216a3.997 3.997 0 0 1 3.993 4c0 2.21-1.788 4-3.993 4H51.993A3.997 3.997 0 0 1 48 220c0-2.21 1.788-4 3.993-4zm72-24a3.997 3.997 0 0 1 3.993 4c0 2.21-1.788 4-3.993 4H51.993A3.997 3.997 0 0 1 48 196c0-2.21 1.788-4 3.993-4zm0-24a3.997 3.997 0 0 1 3.993 4c0 2.21-1.788 4-3.993 4H51.993A3.997 3.997 0 0 1 48 172c0-2.21 1.788-4 3.993-4zm0-24a3.997 3.997 0 0 1 3.993 4c0 2.21-1.788 4-3.993 4H51.993A3.997 3.997 0 0 1 48 148c0-2.21 1.788-4 3.993-4z"/></g></svg>