<svg width="320" height="320" viewBox="0 0 320 320" xmlns="http://www.w3.org/2000/svg"><g id="Foundations/Icons/Brand-Icons/Banking-and-Commerce/60-pounds-circulation" stroke="none" stroke-width="1" fill="none" fill-rule="evenodd"><path d="M297.179 168.33a4.001 4.001 0 0 1 3.499 1.94l16 26.69a4 4 0 0 1-3.42 6.06h-.01a4 4 0 0 1-3.43-1.94l-10.367-17.295a141.23 141.23 0 0 1-15.643 50.075 141.5 141.5 0 0 1-110.39 74.46c-4.993.53-10.01.8-15.03.81-4.6 0-9.177-.22-13.73-.66a141.23 141.23 0 0 1-52.66-15.92 142.51 142.51 0 0 1-42.08-34.08 141.24 141.24 0 0 1-32.37-76.34 4.022 4.022 0 0 1 8-.84 134.61 134.61 0 0 0 5.53 26.54 133 133 0 0 0 25 45.46 134.12 134.12 0 0 0 63.58 42.06 133.27 133.27 0 0 0 25.79 5.13 135.32 135.32 0 0 0 53.64-5.64c50.975-16.188 87.408-61.183 92.64-114.41l.014-.118-19.164 11.488a3.92 3.92 0 0 1-2.05.57 4 4 0 0 1-2.07-7.43l26.448-15.855a4 4 0 0 1 2.273-.756Zm-126.521-99.2c27.31 0 43.62 18.32 43.62 49a4 4 0 1 1-8 0c0-26.06-13-41-35.62-41-19.568-.017-35.455 15.812-35.51 35.38v.29c.188 9.904 1.593 19.275 3.423 28.33h44.727a4 4 0 1 1 0 8h-43.004c.592 2.613 1.2 5.205 1.804 7.78 4.998 21.46 9.466 40.364-.058 56.22h41.258c.136 0 .271.007.405.02h29.275a4 4 0 1 1 0 8l.03-.02h-101.71a4 4 0 1 1 0-8h20.91c11.609-13.836 7.395-31.833 2.1-54.42a801.628 801.628 0 0 1-2.206-9.579l-20.804-.001a4 4 0 1 1 0-8h19.127c-1.748-8.96-3.105-18.462-3.277-28.36v-.4c.137-23.93 19.58-43.252 43.51-43.24Zm70.716-36.01a141.68 141.68 0 0 1 63.354 103.91 4 4 0 1 1-7.95.83 135.07 135.07 0 0 0-5.52-26.53 133.14 133.14 0 0 0-25-45.47 134.72 134.72 0 0 0-39.72-32.16 133.15 133.15 0 0 0-49.68-15 134.83 134.83 0 0 0-53.64 5.64 132.77 132.77 0 0 0-24.17 10.35 133.76 133.76 0 0 0-68.469 103.682L48.718 127.5a4.001 4.001 0 0 1 4.12 6.86l-26.69 16a4.05 4.05 0 0 1-1.82.562l-.24.008-.11-.002-.021-.001a2.777 2.777 0 0 1-.295-.02l-.055-.006a3.921 3.921 0 0 1-.374-.063l-.05-.011a2.723 2.723 0 0 1-.102-.025l-.072-.02a3.992 3.992 0 0 1-.17-.051l-.078-.027a3.1 3.1 0 0 1-.14-.052l-.032-.013a3.303 3.303 0 0 1-.164-.07l-.04-.02a3.082 3.082 0 0 1-.134-.065l-.055-.03a3.075 3.075 0 0 1-.125-.069l-.066-.04a3.995 3.995 0 0 1-.945-.799l-.05-.06a2.86 2.86 0 0 1-.096-.12l-.019-.025a3.829 3.829 0 0 1-.281-.424L4.658 122.3a4 4 0 1 1 6.85-4.12L22.7 136.854A141.23 141.23 0 0 1 38.508 85.29a142.2 142.2 0 0 1 56.67-57.6 140.32 140.32 0 0 1 25.61-11 141.68 141.68 0 0 1 120.586 16.43Z" id="Outlines" fill="#000"/></g></svg>