<svg width="320" height="320" viewBox="0 0 320 320" xmlns="http://www.w3.org/2000/svg"><g id="Foundations/Icons/Brand-Icons/Charts-and-Graphs/22-pound-increase" stroke="none" stroke-width="1" fill="none" fill-rule="evenodd"><path id="lg-icon-fill-primary" fill="#FFD500" d="M160.03 160h56v144.22h-56z"/><path d="M188 288a4 4 0 1 1 0 8 4 4 0 0 1 0-8Zm-16-16a4 4 0 1 1 0 8 4 4 0 0 1 0-8Zm32 0a4 4 0 1 1 0 8 4 4 0 0 1 0-8Zm-16-16a4 4 0 1 1 0 8 4 4 0 0 1 0-8Zm-16-16a4 4 0 1 1 0 8 4 4 0 0 1 0-8Zm32 0a4 4 0 1 1 0 8 4 4 0 0 1 0-8Zm-16-16a4 4 0 1 1 0 8 4 4 0 0 1 0-8Zm-16-16 .2.005a4 4 0 1 1-.2-.005Zm32 0 .2.005a4 4 0 1 1-.2-.005Zm-16-16 .2.005a4 4 0 1 1-.2-.005Zm-16-16a4 4 0 1 1 0 8 4 4 0 0 1 0-8Zm32 0a4 4 0 1 1 0 8 4 4 0 0 1 0-8Z" id="Half-tone" fill="#000"/><path d="M303.7 112.22a8.31 8.31 0 0 1 8.3 8.3v183.4a8.31 8.31 0 0 1-8.3 8.3h-55.4a8.31 8.31 0 0 1-8.3-8.3v-183.4a8.31 8.31 0 0 1 8.3-8.3ZM127.75 200a8.3 8.3 0 0 1 8.3 8.3v95.4a8.29 8.29 0 0 1-8.3 8.3H72.36a8.3 8.3 0 0 1-8.31-8.3v-95.4a8.31 8.31 0 0 1 8.31-8.3Zm87.98-48a8.31 8.31 0 0 1 8.3 8.34V303.7a8.3 8.3 0 0 1-8.3 8.3h-55.4a8.29 8.29 0 0 1-8.3-8.3V160.3a8.3 8.3 0 0 1 8.3-8.3Zm87.97-31.78h-55.4a.31.31 0 0 0-.3.3v183.4a.31.31 0 0 0 .3.3h55.4a.31.31 0 0 0 .3-.3v-183.4a.31.31 0 0 0-.3-.3ZM127.75 208H72.36a.31.31 0 0 0-.31.3v95.4a.3.3 0 0 0 .31.3h55.39a.29.29 0 0 0 .3-.3v-95.4a.3.3 0 0 0-.3-.3Zm87.98-47.96h-55.4a.3.3 0 0 0-.3.3V303.7a.29.29 0 0 0 .3.3h55.4a.3.3 0 0 0 .3-.3V160.34a.31.31 0 0 0-.3-.3ZM220 56a4 4 0 0 1 4 4v48a4 4 0 1 1-8 0V70.65l-56.69 56.71a4.09 4.09 0 0 1-5.12.64 4 4 0 0 1-.65-6.22L211.32 64H173a4 4 0 1 1 0-8ZM56 8c26.51 0 48 21.49 48 48a48 48 0 0 1-48 48C29.49 104 8 82.51 8 56S29.49 8 56 8ZM40.34 18.115c-18.073 7.479-28.346 26.683-24.538 45.868C19.61 83.168 36.44 96.992 56 97a41 41 0 0 0 29-12c13.835-13.827 15.976-35.5 5.115-51.767-10.861-16.267-31.7-22.596-49.774-15.118Zm17.45 8.475c7.84 0 16.21 4.73 16.21 18a3 3 0 0 1-6 0c0-9.92-5.55-12-10.21-12-5.506-.005-9.996 4.37-10.165 9.84l-.005.28v.11a48.12 48.12 0 0 0 .693 6.923l.157.857H62a3 3 0 0 1 .176 5.995L62 56.6H49.74c.04.18.13.36.13.53 1.44 6.062 2.804 11.868 1.145 17.04l-.145.43H74a3 3 0 0 1 .176 5.995L74 80.6H38a3 3 0 0 1-.176-5.995L38 74.6h6.14c2.62-3.7 1.7-8.45-.09-16.1-.1-.413-.2-.836-.3-1.26l-.15-.64H38a3 3 0 0 1-.176-5.995L38 50.6h4.38a52.19 52.19 0 0 1-.729-6.785l-.031-.975v-.17c.05-8.895 7.275-16.08 16.17-16.08Z" id="Outlines" fill="#000"/></g></svg>