<svg width="320" height="320" viewBox="0 0 320 320" xmlns="http://www.w3.org/2000/svg"><g id="Foundations/Icons/Brand-Icons/Entertainment-and-Technology/15-power" stroke="none" stroke-width="1" fill="none" fill-rule="evenodd"><path d="M192.941 35.91a140.66 140.66 0 0 1 76.56 48.86A138.497 138.497 0 0 1 300.002 172c0 77.2-62.801 140-140.001 140S20 249.2 20 172a138.497 138.497 0 0 1 30.501-87.23 140.66 140.66 0 0 1 76.56-48.86 4.002 4.002 0 0 1 1.88 7.78 132.61 132.61 0 0 0-72.19 46.07A130.53 130.53 0 0 0 28.001 172c0 72.902 59.098 132 132 132s132-59.098 132-132a130.53 130.53 0 0 0-28.75-82.24 132.61 132.61 0 0 0-72.19-46.07 4.002 4.002 0 1 1 1.88-7.78ZM160.001 8a4 4 0 0 1 4 4v164a4 4 0 1 1-8 0V12a4 4 0 0 1 4-4Z" id="Outlines" fill="#000"/></g></svg>