<svg width="320" height="320" viewBox="0 0 320 320" xmlns="http://www.w3.org/2000/svg"><g id="Foundations/Icons/Brand-Icons/Energy-and-Resources/15-power-station" stroke="none" stroke-width="1" fill="none" fill-rule="evenodd"><path d="M180.06 78.87a34.91 34.91 0 0 1-4.06-16.7c0-16.34 14.57-35.85 24.4-46.62 9.48 10.81 23.6 30.28 23.6 46.62a34.92 34.92 0 0 1-4.12 16.69c.08-.82.12-1.65.12-2.49a30.24 30.24 0 0 0-1.82-9.82c-.19-.54-.39-1.08-.6-1.61a52.23 52.23 0 0 0-3-6.23 70.126 70.126 0 0 0-3.55-5.72c-.62-.89-1.23-1.76-1.84-2.59-.61-.83-1.22-1.62-1.82-2.38-.6-.76-1.17-1.46-1.72-2.12-.84-1-1.62-1.88-2.31-2.65l-.66-.73-.6-.64c-.49-.52-.89-.94-1.2-1.24-.31-.3-.38-.4-.49-.5l-.13-.12s-.71.66-1.87 1.86l-.62.64c-.86.92-1.91 2.06-3 3.38-.58.66-1.18 1.37-1.79 2.12-.61.75-1.24 1.55-1.87 2.38-.63.83-1.27 1.69-1.9 2.59-.63.9-1.26 1.82-1.87 2.78-.61.96-1.21 1.93-1.78 2.94a49.93 49.93 0 0 0-3.06 6.23c-.22.53-.43 1.07-.62 1.61a29.3 29.3 0 0 0-1.88 9.83c0 .77 0 1.54.09 2.29v.17M200 92.03c-6.51 0-12-7.17-12-15.65 0-8.17 6.63-18 12.2-24.55 1.09 1.33 2.26 2.84 3.43 4.49C209.1 64 212 70.93 212 76.38c0 8.48-5.55 15.65-12 15.65Z" id="lg-icon-fill-primary" fill="#FFD500"/><path d="M292 292.17a4 4 0 1 1 0 8 4 4 0 0 1 0-8Zm-32 0a4 4 0 1 1 0 8 4 4 0 0 1 0-8Zm16-16a4 4 0 1 1 0 8 4 4 0 0 1 0-8Zm16-16a4 4 0 1 1 0 8 4 4 0 0 1 0-8Zm-32 0a4 4 0 1 1 0 8 4 4 0 0 1 0-8Zm16-16a4 4 0 1 1 0 8 4 4 0 0 1 0-8Zm16-16a4 4 0 1 1 0 8 4 4 0 0 1 0-8Zm-32 0a4 4 0 1 1 0 8 4 4 0 0 1 0-8Zm16-16a4 4 0 1 1 0 8 4 4 0 0 1 0-8Zm16-16a4 4 0 1 1 0 8 4 4 0 0 1 0-8Zm-32 0a4 4 0 1 1 0 8 4 4 0 0 1 0-8Zm16-16a4 4 0 1 1 0 8 4 4 0 0 1 0-8Z" id="Half-tone" fill="#000"/><path d="M310.63 167.7a7.88 7.88 0 0 0-1-1.19 6.91 6.91 0 0 0-.57-.51 7.82 7.82 0 0 0-2-1.2 8 8 0 0 0-2.29-.59 7.38 7.38 0 0 0-.82 0H232v-56.04a8.12 8.12 0 0 0-2.34-5.66 6.91 6.91 0 0 0-.57-.51 7.82 7.82 0 0 0-2-1.2 8 8 0 0 0-2.29-.59 7.38 7.38 0 0 0-.82 0H176a7.38 7.38 0 0 0-.82 0 8 8 0 0 0-2.29.59 7.82 7.82 0 0 0-2 1.2 8 8 0 0 0-1.54 1.7 7.88 7.88 0 0 0-1.35 4.47v74.61l-68.38-34.31A8 8 0 0 0 88 155.62v27.18l-68.38-34.33A8 8 0 0 0 8 155.62v152.55a8 8 0 0 0 8 8h288c.273.015.547.015.82 0a8 8 0 0 0 2.29-.59 7.82 7.82 0 0 0 2-1.2c.2-.16.39-.33.57-.51a8.12 8.12 0 0 0 2.32-5.7v-136a7.88 7.88 0 0 0-1.37-4.47ZM16 308.17V155.62l80 40.14v-40.14l72 36.11v116.44H16Zm160 0v-200h48v200h-48Zm52 6.92Zm76-142.92v136h-72v-136h72Zm-260 88a4 4 0 0 1 3.995 3.8l.005.2v16a4 4 0 0 1-7.995.2l-.005-.2v-16a4 4 0 0 1 4-4Zm32 0a4 4 0 0 1 3.995 3.8l.005.2v16a4 4 0 0 1-7.995.2l-.005-.2v-16a4 4 0 0 1 4-4Zm32 0a4 4 0 0 1 3.995 3.8l.005.2v16a4 4 0 0 1-7.995.2l-.005-.2v-16a4 4 0 0 1 4-4Zm32 0a4 4 0 0 1 3.995 3.8l.005.2v16a4 4 0 0 1-7.995.2l-.005-.2v-16a4 4 0 0 1 4-4Zm-96-40a4 4 0 0 1 3.995 3.8l.005.2v16a4 4 0 0 1-7.995.2l-.005-.2v-16a4 4 0 0 1 4-4Zm32 0a4 4 0 0 1 3.995 3.8l.005.2v16a4 4 0 0 1-7.995.2l-.005-.2v-16a4 4 0 0 1 4-4Zm32 0a4 4 0 0 1 3.995 3.8l.005.2v16a4 4 0 0 1-7.995.2l-.005-.2v-16a4 4 0 0 1 4-4Zm32 0a4 4 0 0 1 3.995 3.8l.005.2v16a4 4 0 0 1-7.995.2l-.005-.2v-16a4 4 0 0 1 4-4ZM200.44 4l.016.016.082.081.042.042.107.108.065.064.15.152c.74.748 2.326 2.376 4.458 4.707.74.85 1.52 1.76 2.36 2.74.84.98 1.74 2.05 2.66 3.18 1.84 2.26 3.78 4.81 5.78 7.58 1.48 2.07 2.96 4.27 4.38 6.56 6.18 9.95 11.38 21.64 11.38 32.95 0 20.5-13.81 37.17-31 37.82h-2l-.551-.027A27.93 27.93 0 0 1 186.82 96.7c-.92-.5-1.83-1.04-2.71-1.63a30.91 30.91 0 0 1-2.55-1.92 35.68 35.68 0 0 1-7.49-8.7 38.53 38.53 0 0 1-2.4-4.55 42.37 42.37 0 0 1-3.37-12.06c-.08-.62-.14-1.24-.14-1.87-.11-1.25-.16-2.51-.16-3.8 0-7.82 2.52-15.84 6.18-23.36a97.91 97.91 0 0 1 5.47-9.61c1.51-2.29 2.99-4.49 4.51-6.56 2.06-2.77 4.09-5.32 6-7.58.95-1.18 1.86-2.19 2.74-3.18.88-.99 1.7-1.89 2.46-2.71 1.343-1.43 2.48-2.595 3.336-3.455l.426-.427A78.735 78.735 0 0 1 200.44 4Zm-.24 47.83c-5.57 6.55-12.2 16.38-12.2 24.55 0 8.48 5.49 15.65 12 15.65 6.45 0 12-7.17 12-15.65 0-5.45-2.9-12.38-8.37-20.06a81.323 81.323 0 0 0-3.43-4.49Zm.2-36.28C190.57 26.32 176 45.83 176 62.17a34.91 34.91 0 0 0 4.06 16.7l.03-.03v-.17c-.09-.75-.09-1.52-.09-2.29a29.3 29.3 0 0 1 1.88-9.83c.19-.54.4-1.08.62-1.61a49.93 49.93 0 0 1 3.06-6.23c.57-1.01 1.17-1.98 1.78-2.94.61-.96 1.24-1.88 1.87-2.78.63-.9 1.27-1.76 1.9-2.59.63-.83 1.26-1.63 1.87-2.38.61-.75 1.21-1.46 1.79-2.12 1.09-1.32 2.14-2.46 3-3.38l.62-.64c.276-.286.527-.54.749-.764l.251-.252c.554-.55.87-.844.87-.844l.13.12.036.034c.093.09.178.2.454.466.31.3.71.72 1.2 1.24l.6.64.66.73c.69.77 1.47 1.65 2.31 2.65.55.66 1.12 1.36 1.72 2.12.6.76 1.21 1.55 1.82 2.38.61.83 1.22 1.7 1.84 2.59a70.126 70.126 0 0 1 3.55 5.72 52.23 52.23 0 0 1 3 6.23c.21.53.41 1.07.6 1.61a30.24 30.24 0 0 1 1.82 9.82c0 .84-.04 1.67-.12 2.49A34.92 34.92 0 0 0 224 62.17c0-16.34-14.12-35.81-23.6-46.62Z" id="Outlines" fill="#000"/></g></svg>