<svg width="320" height="320" viewBox="0 0 320 320" xmlns="http://www.w3.org/2000/svg"><g id="Foundations/Icons/Brand-Icons/Tools/03-power-drill" stroke="none" stroke-width="1" fill="none" fill-rule="evenodd"><path d="M184 140a8 8 0 0 1-8 8H16a8 8 0 0 1-8-8V60a8 8 0 0 1 8-8h160a8 8 0 0 1 8 8v80Z" id="lg-icon-fill-primary" fill="#FFD500"/><path d="m164 128 .2.005a4 4 0 1 1-.4 0l.2-.005Zm-16-16 .2.005a4 4 0 1 1-.4 0l.2-.005Zm-16-16 .2.005a4 4 0 1 1-.4 0L132 96Zm32 0 .2.005a4 4 0 1 1-.4 0L164 96Zm-16-16 .2.005a4 4 0 1 1-.4 0L148 80Zm-32 0a4 4 0 1 1 0 8 4 4 0 0 1 0-8Zm16-16 .2.005a4 4 0 1 1-.4 0L132 64Zm32 0a4 4 0 1 1 0 8 4 4 0 0 1 0-8Zm-64 0a4 4 0 1 1 0 8 4 4 0 0 1 0-8Z" id="Half-tone" fill="#000"/><path d="M316 95h-56.22c-2-18-17-32-35.2-32H192v-3c0-8.837-7.163-16-16-16H16C7.163 44 0 51.163 0 60v80c0 8.837 7.163 16 16 16h16v112a8 8 0 0 0 8 8h44a8 8 0 0 0 8-7.15l8.62-80.85H116a4 4 0 0 0 2.83-1.17L149.66 156H176c8.837 0 16-7.163 16-16v-5h32.58c18.2 0 33.23-14 35.2-32H316a4 4 0 1 0 0-8ZM84 268H40V156h56l-2.91 27.17c-.06.272-.09.55-.09.83l-9 84Zm30.34-88h-12.87l2.53-23.15a8.08 8.08 0 0 0 0-.85h34.34l-24 24ZM184 140a8 8 0 0 1-8 8H16a8 8 0 0 1-8-8V60a8 8 0 0 1 8-8h160a8 8 0 0 1 8 8v80Zm8-13 .34-56H208v56h-16Zm32.58-56C239.66 71 252 83.6 252 99s-12.34 28-27.42 28H216V71h8.58ZM60 108a4 4 0 0 1 .2 7.995L60 116H28a4 4 0 0 1-.2-7.995L28 108h32Zm0-24a4 4 0 0 1 .2 7.995L60 92H28a4 4 0 0 1-.2-7.995L28 84h32Z" id="Outlines" fill="#000"/></g></svg>