<svg width="320" height="320" viewBox="0 0 320 320" xmlns="http://www.w3.org/2000/svg"><g id="Foundations/Icons/Brand-Icons/Charts-and-Graphs/13-presentation" stroke="none" stroke-width="1" fill="none" fill-rule="evenodd"><path d="M176 164c9.389 0 17 7.611 17 17s-7.611 17-17 17-17-7.611-17-17 7.611-17 17-17Zm-96-21c9.389 0 17 7.611 17 17s-7.611 17-17 17-17-7.611-17-17 7.611-17 17-17Zm195-32c9.389 0 17 7.611 17 17s-7.611 17-17 17-17-7.611-17-17 7.611-17 17-17Z" id="lg-icon-fill-primary" fill="#FFD500"/><path d="M20 240a4 4 0 1 1 0 8 4 4 0 0 1 0-8Zm32 0a4 4 0 1 1 0 8 4 4 0 0 1 0-8Zm32 0a4 4 0 1 1 0 8 4 4 0 0 1 0-8Zm32 0a4 4 0 1 1 0 8 4 4 0 0 1 0-8Zm32 0a4 4 0 1 1 0 8 4 4 0 0 1 0-8Zm32 0a4 4 0 1 1 0 8 4 4 0 0 1 0-8Zm32 0a4 4 0 1 1 0 8 4 4 0 0 1 0-8Zm32 0 .2.005a4 4 0 1 1-.2-.005Zm32 0a4 4 0 1 1 0 8 4 4 0 0 1 0-8Z" id="Half-tone" fill="#000"/><path d="M312 52c3.8 0 7.075 2.669 7.84 6.39.104.53.16 1.07.16 1.61v200c0 .54-.056 1.08-.16 1.61A8.002 8.002 0 0 1 312 268H8a8.002 8.002 0 0 1-7.84-6.39A8.352 8.352 0 0 1 0 260V60c0-.54.056-1.08.16-1.61A8.002 8.002 0 0 1 8 52Zm0 8H8v200h304V60Zm-37 44c11.238.01 20.965 7.817 23.406 18.786 2.441 10.97-3.056 22.165-13.23 26.94-10.173 4.775-22.297 1.851-29.176-7.036l-57.25 30.67A24 24 0 1 1 152 181v-1.15L102.26 169c-4.622 11.467-17.198 17.546-29.055 14.046s-19.115-15.435-16.769-27.573c2.347-12.139 13.53-20.508 25.838-19.337C94.582 137.308 103.985 147.637 104 160v1.15L153.74 172a24 24 0 0 1 41.26-5.69l57.25-30.67A24 24 0 0 1 275 104Zm-99 61.013a16 16 0 0 0-15.67 12.767 15.87 15.87 0 0 0 0 6.44 16 16 0 0 0 31.34 0 15.87 15.87 0 0 0 0-6.44A16 16 0 0 0 176 165.013Zm-96-21a16 16 0 0 0-15.67 12.767 15.87 15.87 0 0 0 0 6.44A16 16 0 0 0 80 176a16 16 0 0 0 15.67-12.78 15.87 15.87 0 0 0 0-6.44A16 16 0 0 0 80 144.013Zm195-32a16 16 0 0 0-15.67 12.767 15.87 15.87 0 0 0 0 6.44 16 16 0 0 0 31.34 0 15.87 15.87 0 0 0 0-6.44A16 16 0 0 0 275 112.013ZM120 72a8 8 0 0 1 7.996 7.75L128 80v16a8 8 0 0 1-7.75 7.996L120 104h-16a8 8 0 0 1-7.996-7.75L96 96V80a8 8 0 0 1 7.75-7.996L104 72h16Zm-40 0a8 8 0 0 1 7.996 7.75L88 80v16a8 8 0 0 1-7.75 7.996L80 104H64a8 8 0 0 1-7.996-7.75L56 96V80a8 8 0 0 1 7.75-7.996L64 72h16Zm-40 0a8 8 0 0 1 7.996 7.75L48 80v16a8 8 0 0 1-7.75 7.996L40 104H24a8 8 0 0 1-7.996-7.75L16 96V80a8 8 0 0 1 7.75-7.996L24 72h16Zm80 8h-16v16h16V80Zm-40 0H64v16h16V80Zm-40 0H24v16h16V80Z" id="Outlines" fill="#000"/></g></svg>