<svg width="320" height="320" viewBox="0 0 320 320" xmlns="http://www.w3.org/2000/svg"><g id="Foundations/Icons/Brand-Icons/Entertainment-and-Technology/08-printer" stroke="none" stroke-width="1" fill="none" fill-rule="evenodd"><path id="lg-icon-fill-primary" fill="#FFD500" d="M60.4 140.22h199v167h-199z"/><path d="m252.4 32.22.2.005a4 4 0 1 1-.4 0l.2-.005Zm-32 0 .2.005a4 4 0 1 1-.4 0l.2-.005Zm-32 0 .2.005a4 4 0 1 1-.4 0l.2-.005Zm-32 0a4 4 0 1 1 0 8 4 4 0 0 1 0-8Zm-32 0 .2.005a4 4 0 1 1-.4 0l.2-.005Zm160 0 .2.005a4 4 0 1 1-.4 0l.2-.005Zm-192 0 .2.005a4 4 0 1 1-.4 0l.2-.005Zm-32 0 .2.005a4 4 0 1 1-.4 0l.2-.005Zm-32 0 .2.005a4 4 0 1 1-.4 0l.2-.005Z" id="Half-tone" fill="#000"/><path d="M311.97 8a8 8 0 0 1 8 7.97v152a8.002 8.002 0 0 1-3.52 6.63c-.22.14-.44.28-.66.4a8 8 0 0 1-3.82 1h-48v127.7a8.3 8.3 0 0 1-8.3 8.3H64.31a8.31 8.31 0 0 1-8.31-8.3V176H8a8 8 0 0 1-8-8V16a8 8 0 0 1 1.77-5 8.14 8.14 0 0 1 2.42-2l.292-.155A7.88 7.88 0 0 1 7.97 8Zm-56 136h-192v160h192V144Zm-114 72.22a4 4 0 0 1 .2 7.995l-.2.005h-64a4 4 0 0 1-.2-7.995l.2-.005h64Zm72-24a4 4 0 0 1 .2 7.995l-.2.005h-136a4 4 0 0 1-.2-7.995l.2-.005h136Zm0-24a4 4 0 0 1 .2 7.995l-.2.005h-136a4 4 0 0 1-.2-7.995l.2-.005h136Zm98-152.22h-304v152h48v-24H35.64a4 4 0 1 1 0-8h240.33a4 4 0 1 1 0 8h-12v24h48V16Zm-28 40a4 4 0 1 1 0 8H27.64a4 4 0 1 1 0-8Z" id="Outlines" fill="#000"/></g></svg>