<svg xmlns="http://www.w3.org/2000/svg" width="320" height="320" fill="none"><g id="am-private-markets"><g id="lg-icon-fill-primary" fill="#42aeea"><path d="M300 160a140 140 0 0 1-57.711 113.261l-23.514-32.364A99.98 99.98 0 0 0 259.995 160zm-124.357 98.765-.15.021.368-.058zm-46.351-3.603-.192-.06-.118-.04z"/><path fill-rule="evenodd" d="m205 220-24.25 8H139.5l-23.5-8v-72h89zm-45-40a8 8 0 0 0-8 8v16a8 8 0 0 0 16 0v-16a8 8 0 0 0-8-8" clip-rule="evenodd"/><path d="M160 60.005a100 100 0 0 0-55.581 16.87l.004-.004a100 100 0 0 0-43.151 67.267l-.059.368-.198 1.313a100 100 0 0 0 3.842 44.949l.08.252-.038-.12-38.047 12.363A140 140 0 0 1 160 20z"/></g><g id="Outlines" fill="#1d1d1b" fill-rule="evenodd" clip-rule="evenodd"><path d="M160 176c6.627 0 12 5.373 12 12v16c0 6.627-5.373 12-12 12s-12-5.373-12-12v-16c0-6.627 5.373-12 12-12m0 8a4 4 0 0 0-4 4v16a4 4 0 0 0 8 0v-16a4 4 0 0 0-4-4"/><path d="M160 80c17.673 0 32 14.327 32 32v11.5a4 4 0 0 1-8 0V112c0-13.255-10.745-24-24-24s-24 10.745-24 24v32h73v78.893L181.393 232h-42.555L112 222.863V144h16v-32c0-17.673 14.327-32 32-32m-40 137.137L140.161 224h39.945L201 217.107V152h-81z"/><path d="M164 16.056C240.351 18.138 301.862 79.649 303.944 156H304v4q0 .811-.01 1.623l-.008.529a166 166 0 0 1-.038 1.823l-.004.146c-.96 34.166-13.822 65.353-34.586 89.567l-.083.099q-.366.425-.735.848l-.126.144q-1.063 1.215-2.152 2.406-.33.36-.66.717l-.41.439q-.348.374-.701.744l-.389.41q-1.065 1.114-2.154 2.204l-.297.298q-.44.438-.882.872l-.3.293a112 112 0 0 1-1.149 1.108q-.542.515-1.088 1.025l-.544.503-.452.417q-.378.347-.76.69l-.312.281a144 144 0 0 1-8.313 6.92l.03.041-2.046 1.486c-22.266 16.554-49.476 26.828-79.013 28.205l-.512.023-.147.006-.04.002q-.461.02-.924.036l-.234.008-.188.007q-.352.012-.706.021l-.43.013q-.67.016-1.339.026l-.194.003-.061.001-.357.005-.569.005-.372.003-.69.002L160 304l-.081-.001h-.057l-.5-.001a138 138 0 0 1-1.12-.009l-.088-.001-.074-.002-.634-.01-.896-.018-.41-.01-.31-.01-.431-.012-.574-.02c-34.248-1.209-65.452-14.379-89.563-35.46l-.254-.222-.073-.065q-.437-.383-.87-.77l-.227-.203-.94-.852q-.304-.277-.606-.558-.335-.309-.668-.621-.37-.346-.74-.696l-.343-.325-.398-.383-.17-.163-.51-.496-.151-.148q-.043-.04-.084-.083l-.271-.264a150 150 0 0 1-1.62-1.621l-.257-.262-.219-.225-.5-.516-.167-.172-.326-.34-.36-.38-.167-.176a131 131 0 0 1-1.342-1.44l-.34-.37-.51-.561-.33-.367-.079-.088-.159-.178q-.424-.474-.844-.953l-.273-.313c-11.757-13.472-21.046-29.152-27.163-46.338l-.017.006-.202-.622c-4.701-13.403-7.475-27.711-7.992-42.594l-.014-.414-.02-.673-.015-.551q-.026-1.152-.035-2.303l-.005-.509-.001-.241v-.726q0-.224.003-.446l.003-.465q0-.159.003-.317l.008-.565q0-.107.003-.214.009-.623.024-1.246l.018-.643.017-.562.01-.258c1.205-34.98 14.885-66.79 36.73-91.121a182 182 0 0 1 .978-1.078l.268-.292.338-.367q.15-.163.301-.324l.288-.307.38-.403.365-.386.232-.241a142 142 0 0 1 2.33-2.38l.28-.28.587-.577q.458-.45.92-.894l.174-.168.244-.235.41-.39a141 141 0 0 1 1.246-1.167l.43-.397q1.261-1.159 2.549-2.287l.15-.13q.445-.39.897-.777l.125-.108c23.672-20.3 54.008-33.045 87.277-34.502l.057-.003q.84-.037 1.683-.064l.614-.02.082-.001.603-.016.406-.009.642-.011.297-.005.359-.004A131 131 0 0 1 160 16h4zM31.948 205.812q.3.836.61 1.668a136 136 0 0 0 6.495 14.71l.164.318q.845 1.631 1.731 3.238l.123.221a136 136 0 0 0 8.551 13.484q1.053 1.463 2.145 2.898a136 136 0 0 0 12.066 13.818q.648.648 1.305 1.285a137 137 0 0 0 7.382 6.678 136 136 0 0 0 8.05 6.264 136 136 0 0 0 35.339 18.259 136 136 0 0 0 17.559 4.734 136.4 136.4 0 0 0 26.189 2.61q.58 0 1.161-.003.352-.001.703-.005 1.807-.02 3.613-.089a135.4 135.4 0 0 0 19.965-2.238 139 139 0 0 0 3.45-.694l.273-.059a134 134 0 0 0 7.363-1.813 136 136 0 0 0 6.835-2.081l.282-.095q1.63-.547 3.245-1.135l.34-.125a136 136 0 0 0 6.643-2.639l.299-.129q1.578-.68 3.139-1.4l.291-.136a135 135 0 0 0 10.095-5.208 136 136 0 0 0 9.312-5.819l-18.812-25.895C201.313 257.527 181.413 264 160 264c-44.81 0-83-28.34-97.627-68.073zM263.925 164c-1.192 31.522-16.415 59.452-39.603 77.727l18.817 25.899a136 136 0 0 0 14.124-12.57l.28-.287a138 138 0 0 0 5.76-6.313A136 136 0 0 0 295.939 164zM158.667 64.015q-.78.01-1.559.034a96 96 0 0 0-5.53.326l-.087.007q-1.39.124-2.774.288l-.047.006a96 96 0 0 0-11.153 1.999 96 96 0 0 0-5.292 1.435l-.126.038a96 96 0 0 0-11.763 4.434l-.261.12a96 96 0 0 0-3.622 1.748l-.099.052a96 96 0 0 0-8.451 4.87l-.181.116a95 95 0 0 0-2.156 1.443l-.117.079a96 96 0 0 0-5.499 4.096l-.176.14a96 96 0 0 0-5.16 4.473l-.147.135a96 96 0 0 0-8.672 9.248 96 96 0 0 0-5.117 6.831 96 96 0 0 0-7.658 13.452l-.08.173a96 96 0 0 0-1.036 2.308l-.088.204a97 97 0 0 0-3.343 8.987l-.07.218a96 96 0 0 0-2.427 9.377l-.044.212a96 96 0 0 0-1.304 8.22l-.023.202a96 96 0 0 0-.324 3.457q-.03.397-.058.795a96 96 0 0 0 .344 16.834 96 96 0 0 0 .97 6.699l.073.412a95 95 0 0 0 1.57 6.995 95 95 0 0 0 1.093 3.83l.25.787q.331 1.044.686 2.081.412 1.198.855 2.385l.052.142q.431 1.15.892 2.285a97 97 0 0 0 2.383 5.411l.119.246q.54 1.12 1.106 2.225l.158.305a98 98 0 0 0 3.464 6.124 97 97 0 0 0 3.943 5.906q.708.98 1.44 1.942l.151.2a97 97 0 0 0 8.35 9.532q.439.438.883.871a96 96 0 0 0 8.647 7.477l.14.106q1.02.778 2.061 1.528a95.5 95.5 0 0 0 12.008 7.383 96 96 0 0 0 10.368 4.613l.209.079q1.174.438 2.359.845a96 96 0 0 0 55.813 2.004l.183-.048a93 93 0 0 0 4.149-1.211 95 95 0 0 0 8.98-3.339 97 97 0 0 0 6.351-3.012A96 96 0 0 0 255.995 160v-.776c-.415-52.404-42.816-94.804-95.22-95.22H160q-.667 0-1.333.01m-4.521-39.889-.042.002a136 136 0 0 0-9.305.724l-.115.013a136 136 0 0 0-21.904 4.327l-.129.038q-1.692.483-3.371 1.01l-.256.08a136 136 0 0 0-8.905 3.157q-1.636.645-3.256 1.334l-.109.045a136 136 0 0 0-8.397 3.916q-.092.046-.183.094a136 136 0 0 0-6.983 3.825 136 136 0 0 0-3.353 2.032q-.962.604-1.917 1.224-1.567 1.017-3.104 2.075l-.103.072a136 136 0 0 0-4.763 3.444l-.118.09q-1.49 1.13-2.947 2.3l-.17.134a136 136 0 0 0-7.435 6.444 137 137 0 0 0-7.067 7.089l-.129.14a136 136 0 0 0-3.383 3.809q-.176.204-.35.41-.534.628-1.06 1.263a136 136 0 0 0-2.977 3.718 135 135 0 0 0-2.285 3.048l-.143.2a136 136 0 0 0-5.368 7.986q-.096.151-.19.304a136 136 0 0 0-1.917 3.198l-.166.285a136 136 0 0 0-2.735 4.972l-.139.264a136 136 0 0 0-1.679 3.337l-.097.201a137 137 0 0 0-2.388 5.208l-.134.31a135 135 0 0 0-4.803 12.935l-.038.119a135 135 0 0 0-1.597 5.497l-.086.32a136 136 0 0 0-1.416 5.86 135 135 0 0 0-1.475 7.848 136 136 0 0 0-.772 5.676l-.069.625a136 136 0 0 0-.694 9.114l-.031.801a136 136 0 0 0-.09 4.957v.729q.007 1.092.03 2.18.01.495.026.99l.022.76.008.218q.066 1.834.18 3.665l.014.22a136 136 0 0 0 .484 5.653q.052.489.109.978a136 136 0 0 0 2.05 12.658l.09.421.036.172q.357 1.654.756 3.301l.136.568q.705 2.865 1.533 5.69l30.425-9.886A104 104 0 0 1 56 160c0-56.098 44.416-101.823 100-103.925V24.06q-.927.027-1.854.066M164 56.076c54.257 2.051 97.873 45.667 99.925 99.924h32.015C293.863 84.068 235.932 26.136 164 24.059z"/></g></g></svg>