<svg width="320" height="320" viewBox="0 0 320 320" fill="none" xmlns="http://www.w3.org/2000/svg">
<g id="am-private-markets">
<g id="lg-icon-fill-primary">
<path d="M300 160C300 187.689 291.789 214.757 276.405 237.78C267.17 251.602 255.598 263.591 242.289 273.261L218.775 240.897C228.282 233.991 236.547 225.427 243.144 215.555C254.131 199.111 259.995 179.777 259.995 160H300Z" fill="#42AEEA"/>
<path d="M175.643 258.765C175.593 258.773 175.543 258.778 175.493 258.786C175.616 258.767 175.739 258.747 175.861 258.728C175.789 258.739 175.716 258.753 175.643 258.765Z" fill="#42AEEA"/>
<path d="M129.292 255.162C129.228 255.141 129.164 255.122 129.1 255.102C129.06 255.089 129.021 255.074 128.982 255.062C129.085 255.095 129.189 255.129 129.292 255.162Z" fill="#42AEEA"/>
<path fill-rule="evenodd" clip-rule="evenodd" d="M205 220L180.75 228H139.5L116 220V148H205V220ZM160 180C155.582 180 152 183.582 152 188V204C152 208.418 155.582 212 160 212C164.418 212 168 208.418 168 204V188C168 183.582 164.418 180 160 180Z" fill="#42AEEA"/>
<path d="M160 60.0049C144.22 60.0049 128.663 63.7392 114.603 70.9033C111.095 72.6904 107.706 74.6782 104.45 76.8535C104.449 76.8547 104.447 76.8563 104.445 76.8574C104.437 76.8633 104.428 76.8692 104.419 76.875C104.421 76.874 104.421 76.8721 104.423 76.8711C94.6372 83.4135 86.057 91.6514 79.1017 101.225C69.87 113.931 63.7627 128.633 61.2716 144.138L61.213 144.506L61.0148 145.819C58.8552 160.893 60.1675 176.267 64.8566 190.768C64.8835 190.852 64.9102 190.936 64.9376 191.02C64.9247 190.98 64.9115 190.94 64.8985 190.9L26.8517 203.263C20.0245 182.251 18.2676 159.921 21.7237 138.1C25.1799 116.278 33.7512 95.5839 46.7374 77.71C59.7236 59.836 76.7561 45.289 96.4415 35.2588C116.127 25.2287 137.907 20 160 20V60.0049Z" fill="#42AEEA"/>
</g>
<g id="Outlines">
<path fill-rule="evenodd" clip-rule="evenodd" d="M160 176C166.627 176 172 181.373 172 188V204C172 210.627 166.627 216 160 216C153.373 216 148 210.627 148 204V188C148 181.373 153.373 176 160 176ZM160 184C157.791 184 156 185.791 156 188V204C156 206.209 157.791 208 160 208C162.209 208 164 206.209 164 204V188C164 185.791 162.209 184 160 184Z" fill="#1D1D1B"/>
<path fill-rule="evenodd" clip-rule="evenodd" d="M160 80C177.673 80 192 94.3269 192 112V123.5C192 125.709 190.209 127.5 188 127.5C185.791 127.5 184 125.709 184 123.5V112C184 98.7452 173.255 88 160 88C146.745 88 136 98.7452 136 112V144H209V222.893L181.393 232H138.838L112 222.863V144H128V112C128 94.3269 142.327 80 160 80ZM120 217.137L140.161 224H180.106L201 217.107V152H120V217.137Z" fill="#1D1D1B"/>
<path fill-rule="evenodd" clip-rule="evenodd" d="M164 16.0557C240.351 18.138 301.862 79.6494 303.944 156H304V160C304 160.541 303.996 161.082 303.99 161.623C303.988 161.8 303.985 161.976 303.982 162.152C303.977 162.485 303.971 162.818 303.964 163.151C303.958 163.426 303.952 163.7 303.944 163.975C303.943 164.023 303.942 164.072 303.94 164.121C302.98 198.287 290.118 229.474 269.354 253.688C269.326 253.72 269.299 253.754 269.271 253.787C269.027 254.071 268.782 254.353 268.536 254.635C268.494 254.683 268.452 254.731 268.41 254.779C267.702 255.589 266.984 256.391 266.258 257.185C266.038 257.424 265.819 257.664 265.598 257.902C265.462 258.049 265.325 258.195 265.188 258.341C264.956 258.59 264.722 258.838 264.487 259.085C264.358 259.222 264.228 259.359 264.098 259.495C263.388 260.238 262.67 260.972 261.944 261.699C261.845 261.798 261.747 261.898 261.647 261.997C261.354 262.289 261.06 262.58 260.765 262.869C260.665 262.967 260.565 263.065 260.465 263.162C260.18 263.44 259.894 263.716 259.606 263.991C259.51 264.084 259.413 264.177 259.316 264.27C258.955 264.613 258.592 264.955 258.228 265.295C258.047 265.463 257.865 265.63 257.684 265.798C257.533 265.937 257.383 266.077 257.232 266.215C256.98 266.446 256.726 266.676 256.472 266.905C256.368 266.999 256.264 267.092 256.16 267.186C253.478 269.594 250.705 271.903 247.847 274.106L247.877 274.147L245.831 275.633C223.565 292.187 196.355 302.461 166.818 303.838C166.647 303.846 166.477 303.854 166.306 303.861C166.257 303.863 166.208 303.865 166.159 303.867C166.146 303.868 166.132 303.869 166.119 303.869C165.811 303.882 165.504 303.894 165.195 303.905C165.117 303.908 165.039 303.91 164.961 303.913C164.898 303.915 164.836 303.918 164.773 303.92C164.538 303.928 164.303 303.935 164.067 303.941C163.924 303.945 163.78 303.951 163.637 303.954C163.19 303.965 162.744 303.973 162.298 303.98C162.233 303.982 162.169 303.982 162.104 303.983C162.084 303.984 162.063 303.984 162.043 303.984C161.924 303.986 161.805 303.988 161.686 303.989C161.496 303.991 161.307 303.993 161.117 303.994C160.993 303.995 160.869 303.996 160.745 303.997C160.515 303.998 160.285 303.999 160.055 303.999C160.036 303.999 160.018 304 160 304C159.973 304 159.946 303.999 159.919 303.999C159.9 303.999 159.881 303.999 159.862 303.999C159.696 303.999 159.529 303.999 159.362 303.998C159.148 303.997 158.933 303.995 158.719 303.993C158.56 303.992 158.401 303.991 158.242 303.989C158.213 303.989 158.184 303.989 158.154 303.988C158.13 303.988 158.105 303.987 158.08 303.986C157.869 303.984 157.658 303.979 157.446 303.976C157.147 303.97 156.849 303.965 156.55 303.958C156.413 303.955 156.276 303.952 156.14 303.948C156.036 303.945 155.933 303.941 155.83 303.938C155.687 303.934 155.543 303.93 155.399 303.926C155.208 303.92 155.017 303.913 154.825 303.906C120.577 302.697 89.3732 289.527 65.2617 268.446C65.1769 268.372 65.0924 268.298 65.0078 268.224C64.9834 268.202 64.959 268.181 64.9346 268.159C64.6437 267.903 64.3533 267.647 64.0645 267.389C63.9888 267.321 63.9134 267.253 63.8379 267.186C63.7025 267.064 63.5675 266.942 63.4326 266.82C63.2539 266.659 63.0754 266.497 62.8975 266.334C62.6949 266.149 62.4936 265.963 62.292 265.776C62.0687 265.57 61.846 265.363 61.624 265.155C61.3767 264.924 61.1296 264.692 60.8838 264.459C60.7696 264.351 60.6549 264.243 60.541 264.134C60.4078 264.007 60.2753 263.879 60.1426 263.751C60.0862 263.697 60.0299 263.642 59.9736 263.588C59.8029 263.423 59.6328 263.258 59.4629 263.092C59.4125 263.043 59.3619 262.994 59.3115 262.944C59.2834 262.917 59.2557 262.889 59.2275 262.861C59.1374 262.773 59.0469 262.685 58.957 262.597C58.6962 262.34 58.4358 262.082 58.1768 261.823C57.8954 261.542 57.6158 261.259 57.3369 260.976C57.2512 260.888 57.1656 260.801 57.0801 260.714C57.007 260.639 56.9343 260.564 56.8613 260.489C56.6939 260.317 56.5269 260.145 56.3604 259.973C56.305 259.915 56.2495 259.858 56.1943 259.801C56.0855 259.688 55.9766 259.574 55.8682 259.461C55.7476 259.335 55.6279 259.208 55.5078 259.081C55.4522 259.022 55.3963 258.964 55.3408 258.905C55.1788 258.734 55.0176 258.562 54.8564 258.39C54.5692 258.083 54.2836 257.774 53.999 257.465C53.8856 257.342 53.7721 257.218 53.6592 257.095C53.4888 256.908 53.3188 256.722 53.1494 256.534C53.0391 256.412 52.9292 256.289 52.8193 256.167C52.793 256.138 52.7665 256.108 52.7402 256.079C52.6872 256.02 52.634 255.961 52.5811 255.901C52.2984 255.585 52.0172 255.267 51.7373 254.948C51.6459 254.844 51.555 254.739 51.4639 254.635C39.7073 241.163 30.4178 225.483 24.3008 208.297L24.2842 208.303L24.082 207.681C19.3806 194.278 16.6066 179.97 16.0898 165.087C16.085 164.949 16.0807 164.811 16.0762 164.673C16.0689 164.449 16.0619 164.224 16.0557 164C16.0507 163.816 16.0453 163.633 16.041 163.449C16.0226 162.681 16.012 161.913 16.0059 161.146C16.0045 160.976 16.0017 160.806 16.001 160.637C16.0006 160.556 16.0002 160.476 16 160.396V159.67C16.0003 159.521 16.0021 159.372 16.0029 159.224C16.0038 159.069 16.0045 158.914 16.0059 158.759C16.0068 158.653 16.0076 158.548 16.0088 158.442C16.0108 158.254 16.0139 158.065 16.0166 157.877C16.0177 157.806 16.0184 157.734 16.0195 157.663C16.0263 157.248 16.0336 156.832 16.0439 156.417C16.0492 156.203 16.0563 155.989 16.0625 155.774C16.068 155.587 16.0729 155.399 16.0791 155.212C16.082 155.126 16.0859 155.04 16.0889 154.954C17.2935 119.974 30.9737 88.1644 52.8193 63.833C52.9165 63.7248 53.0139 63.6167 53.1113 63.5088C53.339 63.2567 53.5674 63.0053 53.7969 62.7549C53.886 62.6575 53.975 62.56 54.0645 62.4629C54.1773 62.3404 54.2901 62.2178 54.4033 62.0957C54.5036 61.9876 54.6035 61.8793 54.7041 61.7715C54.7998 61.6689 54.8962 61.5671 54.9922 61.4648C55.1184 61.3303 55.2453 61.1965 55.3721 61.0625C55.4939 60.9337 55.615 60.8042 55.7373 60.6758C55.8142 60.5951 55.8917 60.5151 55.9688 60.4346C56.257 60.1334 56.546 59.8329 56.8369 59.5342C56.9344 59.4341 57.0321 59.3342 57.1299 59.2344C57.3517 59.008 57.5745 58.7826 57.7979 58.5576C57.9031 58.4516 58.0087 58.3459 58.1143 58.2402C58.1761 58.1783 58.2379 58.1165 58.2998 58.0547C58.393 57.9617 58.4856 57.8681 58.5791 57.7754C58.7739 57.5821 58.9701 57.3904 59.166 57.1982C59.4713 56.8988 59.7779 56.6005 60.0859 56.3037C60.144 56.2478 60.2016 56.1916 60.2598 56.1357C60.3411 56.0576 60.4224 55.9793 60.5039 55.9014C60.6402 55.7711 60.7772 55.6415 60.9141 55.5117C61.1506 55.2874 61.3878 55.0636 61.626 54.8408C61.8036 54.6746 61.9817 54.5091 62.1602 54.3438C62.3033 54.2112 62.4471 54.0793 62.5908 53.9473C63.4311 53.1751 64.2802 52.4124 65.1387 51.6602C65.1883 51.6167 65.2384 51.5737 65.2881 51.5303C65.5861 51.2699 65.8854 51.0109 66.1855 50.7529C66.2276 50.7168 66.2695 50.6806 66.3115 50.6445C89.9826 30.3458 120.319 17.6004 153.588 16.1426C153.607 16.1417 153.626 16.1405 153.645 16.1396C154.205 16.1153 154.766 16.0941 155.328 16.0762C155.533 16.0695 155.738 16.0624 155.942 16.0566C155.97 16.0559 155.997 16.0554 156.024 16.0547C156.225 16.0492 156.426 16.0437 156.627 16.0391C156.762 16.0359 156.898 16.0331 157.033 16.0303C157.247 16.0259 157.461 16.022 157.675 16.0186C157.774 16.017 157.873 16.0151 157.972 16.0137C158.091 16.012 158.211 16.0111 158.331 16.0098C158.493 16.0079 158.655 16.0062 158.817 16.0049C159.211 16.0016 159.606 16 160 16H164V16.0557ZM31.9482 205.812C32.1478 206.369 32.3519 206.926 32.5586 207.48C33.3129 209.505 34.1151 211.51 34.9639 213.494C35.4323 214.589 35.9145 215.677 36.4111 216.759C36.753 217.503 37.1018 218.244 37.457 218.982C37.9752 220.059 38.5067 221.129 39.0527 222.19C39.1072 222.296 39.1621 222.402 39.2168 222.508C39.7795 223.595 40.3566 224.675 40.9482 225.746C40.989 225.82 41.0304 225.893 41.0713 225.967C41.6361 226.985 42.214 227.996 42.8047 228.999C43.2462 229.749 43.6945 230.495 44.1504 231.236C44.7768 232.255 45.4162 233.266 46.0693 234.268C47.2127 236.022 48.3974 237.75 49.6221 239.451C50.3239 240.426 51.0388 241.392 51.7666 242.349C53.0841 244.08 54.4444 245.782 55.8467 247.452C56.6301 248.385 57.4263 249.308 58.2354 250.221C59.6401 251.804 61.0804 253.355 62.5566 254.871C62.9794 255.305 63.4041 255.738 63.833 256.167C64.2648 256.599 64.7004 257.027 65.1377 257.452C66.6562 258.93 68.2099 260.373 69.7959 261.779C70.6941 262.575 71.6025 263.359 72.5205 264.13C74.1821 265.526 75.8749 266.88 77.5977 268.192C78.5789 268.94 79.5697 269.674 80.5703 270.394C84.9934 273.576 89.5991 276.486 94.3613 279.11C95.3878 279.676 96.4217 280.228 97.4629 280.768C99.3658 281.753 101.292 282.693 103.24 283.588C104.321 284.084 105.409 284.567 106.503 285.035C108.487 285.884 110.493 286.686 112.519 287.44C113.643 287.859 114.773 288.264 115.909 288.653C121.628 290.613 127.493 292.198 133.468 293.387C136.164 293.923 138.87 294.374 141.583 294.745C142.778 294.909 143.976 295.057 145.175 295.188C148.645 295.569 152.123 295.814 155.601 295.927C156.948 295.97 158.3 295.994 159.657 295.997C160.044 295.998 160.431 295.996 160.818 295.994C161.053 295.993 161.287 295.992 161.521 295.989C162.726 295.976 163.93 295.946 165.134 295.9C167.239 295.821 169.342 295.693 171.44 295.516C172.691 295.41 173.941 295.288 175.19 295.147C178.509 294.774 181.814 294.279 185.099 293.662C186.252 293.445 187.403 293.214 188.549 292.968C188.64 292.948 188.731 292.929 188.822 292.909C189.977 292.659 191.128 292.393 192.274 292.113C193.582 291.794 194.885 291.454 196.185 291.096C197.279 290.794 198.369 290.478 199.454 290.149C199.548 290.121 199.641 290.093 199.734 290.064C200.834 289.728 201.929 289.378 203.02 289.015C203.114 288.983 203.208 288.952 203.302 288.92C204.388 288.555 205.47 288.177 206.547 287.785C206.66 287.744 206.773 287.702 206.887 287.66C207.943 287.272 208.994 286.871 210.04 286.457C210.687 286.201 211.332 285.941 211.976 285.675C212.495 285.46 213.013 285.242 213.53 285.021C213.63 284.978 213.729 284.935 213.829 284.892C214.881 284.438 215.927 283.972 216.968 283.492C217.065 283.447 217.162 283.402 217.259 283.356C218.311 282.868 219.357 282.367 220.396 281.852C221.574 281.268 222.743 280.667 223.901 280.05C224.924 279.505 225.941 278.948 226.95 278.377C227.085 278.301 227.219 278.225 227.354 278.148C228.315 277.6 229.271 277.04 230.22 276.468C232.409 275.148 234.558 273.768 236.666 272.329L217.854 246.434C201.313 257.527 181.413 264 160 264C115.19 264 76.9998 235.66 62.373 195.927L31.9482 205.812ZM263.925 164C262.733 195.522 247.51 223.452 224.322 241.727L243.139 267.626C245.743 265.615 248.273 263.51 250.725 261.314C252.972 259.3 255.154 257.213 257.263 255.056C257.356 254.96 257.45 254.864 257.543 254.769C258.517 253.766 259.476 252.748 260.419 251.716C261.06 251.014 261.694 250.305 262.321 249.589C262.651 249.213 262.978 248.835 263.303 248.456C266.803 244.369 270.069 240.063 273.08 235.558C287.282 214.303 295.189 189.498 295.939 164H263.925ZM158.667 64.0146C158.147 64.0219 157.628 64.0332 157.108 64.0488C155.26 64.1045 153.416 64.2132 151.578 64.375C151.549 64.3775 151.52 64.3793 151.491 64.3818C150.565 64.4643 149.64 64.5607 148.717 64.6699C148.701 64.6718 148.686 64.6739 148.67 64.6758C147.793 64.78 146.918 64.8961 146.045 65.0244C145.486 65.1065 144.929 65.1933 144.372 65.2852C143.027 65.5071 141.687 65.7572 140.353 66.0361C139.404 66.2345 138.458 66.4479 137.517 66.6748C135.74 67.1029 133.975 67.5813 132.225 68.1104C132.183 68.123 132.141 68.1357 132.099 68.1484C130.32 68.6887 128.557 69.2814 126.811 69.9248C126.793 69.9313 126.775 69.9378 126.758 69.9443C124.589 70.7449 122.447 71.6242 120.336 72.582C120.249 72.6216 120.162 72.6623 120.075 72.7021C118.857 73.2592 117.649 73.8413 116.453 74.4502C116.42 74.4672 116.387 74.4849 116.354 74.502C114.748 75.3217 113.168 76.1857 111.615 77.0918C111.005 77.4479 110.399 77.8116 109.796 78.1816C109.161 78.5715 108.529 78.9669 107.903 79.3711C107.843 79.4102 107.782 79.449 107.722 79.4883C106.996 79.9593 106.278 80.4407 105.566 80.9307C105.528 80.9574 105.488 80.983 105.449 81.0098C103.567 82.3098 101.733 83.677 99.9502 85.1064C99.8918 85.1533 99.8327 85.1992 99.7744 85.2461C98.0012 86.6747 96.2807 88.1676 94.6133 89.7188C94.5647 89.7639 94.5153 89.8082 94.4668 89.8535C93.8071 90.4698 93.156 91.0955 92.5137 91.7305C92.1269 92.1128 91.7443 92.499 91.3643 92.8877C90.7603 93.5053 90.1636 94.1305 89.5762 94.7646C89.1973 95.1736 88.8228 95.5865 88.4512 96.002C87.8878 96.6318 87.3322 97.269 86.7852 97.9141C86.4518 98.3072 86.1219 98.7032 85.7949 99.1016C85.2009 99.8254 84.6164 100.558 84.043 101.3C82.8761 102.81 81.7535 104.354 80.6777 105.933C79.9168 107.049 79.1815 108.181 78.4697 109.326C77.6771 110.601 76.9129 111.896 76.1797 113.209C75.0514 115.23 73.9975 117.29 73.0195 119.385C72.9927 119.442 72.9671 119.5 72.9404 119.558C72.585 120.323 72.2393 121.092 71.9043 121.866C71.8749 121.934 71.8457 122.002 71.8164 122.07C71.4863 122.838 71.1664 123.61 70.8564 124.386C70.6533 124.894 70.4539 125.404 70.2598 125.915C69.6157 127.611 69.0201 129.326 68.4727 131.057C68.4496 131.13 68.4253 131.202 68.4023 131.275C67.4373 134.353 66.6279 137.482 65.9756 140.652C65.961 140.723 65.946 140.794 65.9316 140.864C65.663 142.185 65.4222 143.513 65.209 144.847C65.1196 145.406 65.0355 145.966 64.9561 146.527C64.8354 147.379 64.7256 148.231 64.6279 149.084C64.6202 149.151 64.6121 149.219 64.6045 149.286C64.4752 150.437 64.3687 151.59 64.2812 152.743C64.2612 153.008 64.2405 153.273 64.2227 153.538C64.1035 155.304 64.0341 157.071 64.0127 158.838C63.9938 160.396 64.0122 161.955 64.0693 163.515C64.0999 164.35 64.1419 165.185 64.1943 166.019C64.2856 167.471 64.4098 168.922 64.5674 170.372C64.6593 171.217 64.7626 172.061 64.877 172.904C65.0122 173.901 65.1623 174.897 65.3291 175.891C65.3952 176.285 65.4651 176.678 65.5361 177.071C65.561 177.209 65.5849 177.346 65.6104 177.483C65.7579 178.28 65.9162 179.074 66.084 179.867C66.4115 181.415 66.7775 182.952 67.1797 184.478C67.3867 185.263 67.6029 186.046 67.8301 186.826C67.9742 187.321 68.1215 187.815 68.2734 188.308C68.3546 188.571 68.439 188.832 68.5225 189.095C68.744 189.791 68.9719 190.485 69.209 191.176C69.4834 191.975 69.7685 192.77 70.0635 193.561C70.0812 193.608 70.0984 193.656 70.1162 193.703C70.4035 194.469 70.7014 195.231 71.0078 195.988C71.4248 197.019 71.8583 198.043 72.3105 199.059C72.6603 199.844 73.0202 200.624 73.3906 201.399C73.4298 201.481 73.4704 201.563 73.5098 201.645C73.8693 202.391 74.2377 203.133 74.6162 203.87C74.6685 203.972 74.7218 204.073 74.7744 204.175C75.1239 204.849 75.4814 205.519 75.8467 206.185C76.1537 206.744 76.4661 207.3 76.7842 207.854C77.2048 208.585 77.6345 209.311 78.0742 210.031C78.1287 210.121 78.1835 210.21 78.2383 210.299C78.6758 211.01 79.1231 211.715 79.5791 212.415C80.4154 213.698 81.2828 214.962 82.1807 216.205C82.6525 216.858 83.1327 217.506 83.6211 218.147C83.6716 218.214 83.7218 218.28 83.7725 218.347C84.5882 219.412 85.4272 220.461 86.2881 221.493C87.8572 223.374 89.5011 225.199 91.2178 226.962C91.517 227.269 91.8176 227.575 92.1211 227.879C92.4137 228.171 92.7088 228.461 93.0049 228.75C94.7782 230.478 96.6136 232.132 98.5059 233.711C99.5378 234.572 100.587 235.411 101.652 236.227C101.699 236.262 101.745 236.298 101.792 236.333C102.472 236.852 103.159 237.361 103.853 237.861C105.84 239.295 107.88 240.65 109.968 241.925C110.66 242.348 111.358 242.761 112.061 243.166C112.58 243.465 113.101 243.76 113.626 244.05C114.366 244.458 115.111 244.856 115.861 245.244C118.478 246.599 121.157 247.834 123.891 248.943C124.666 249.258 125.445 249.563 126.229 249.857C126.298 249.884 126.369 249.909 126.438 249.936C127.22 250.227 128.007 250.51 128.797 250.781C132.86 252.178 137.026 253.306 141.272 254.15C154.828 256.847 168.743 256.571 182.078 253.42C182.925 253.22 183.77 253.008 184.61 252.785C184.671 252.769 184.732 252.754 184.793 252.737C185.663 252.505 186.529 252.26 187.391 252.003C187.909 251.849 188.426 251.69 188.942 251.526C189.739 251.275 190.531 251.014 191.32 250.741C192.753 250.247 194.175 249.718 195.587 249.154C196.369 248.842 197.148 248.519 197.922 248.187C199.294 247.596 200.651 246.975 201.99 246.323C202.756 245.951 203.517 245.568 204.273 245.175C218.573 237.742 230.814 226.806 239.817 213.332C250.365 197.546 255.995 178.986 255.995 160V159.224C255.58 106.82 213.179 64.4195 160.775 64.0049H160C159.555 64.0049 159.111 64.0085 158.667 64.0146ZM154.146 24.126C154.132 24.1266 154.118 24.1273 154.104 24.1279C152.867 24.1816 151.631 24.2525 150.397 24.3398C149.71 24.3885 149.023 24.4439 148.337 24.5029C147.156 24.6046 145.976 24.7201 144.799 24.8525C144.76 24.8569 144.722 24.8609 144.684 24.8652C142.847 25.0734 141.015 25.319 139.19 25.6016C137.909 25.7999 136.632 26.0173 135.358 26.252C134.229 26.46 133.102 26.6824 131.979 26.9189C130.025 27.3302 128.082 27.7848 126.15 28.2812C125.023 28.5709 123.9 28.8739 122.78 29.1924C122.737 29.2046 122.694 29.2172 122.651 29.2295C121.523 29.5516 120.4 29.8889 119.28 30.2402C119.195 30.267 119.11 30.2924 119.024 30.3193C117.904 30.6733 116.788 31.0427 115.677 31.4258C113.81 32.0692 111.957 32.753 110.119 33.4775C109.029 33.9074 107.943 34.3521 106.863 34.8105C106.827 34.826 106.79 34.841 106.754 34.8564C105.643 35.3293 104.537 35.8174 103.438 36.3203C102.788 36.6174 102.14 36.92 101.495 37.2275C100.444 37.7286 99.3973 38.2427 98.3574 38.7715C98.296 38.8027 98.2352 38.8349 98.1738 38.8662C96.4749 39.7333 94.7968 40.6357 93.1396 41.5713C92.4876 41.9394 91.8379 42.3122 91.1914 42.6914C90.0634 43.3531 88.9451 44.0296 87.8379 44.7227C87.1955 45.1248 86.5572 45.534 85.9209 45.9473C84.8768 46.6254 83.8417 47.3164 82.8174 48.0225C82.7829 48.0462 82.7483 48.0699 82.7139 48.0938C81.1009 49.2077 79.5132 50.3564 77.9512 51.5381C77.9117 51.5679 77.8724 51.598 77.833 51.6279C76.8398 52.381 75.8576 53.1479 74.8857 53.9277C74.8297 53.9727 74.7728 54.0165 74.7168 54.0615C73.6949 54.8842 72.685 55.7215 71.6875 56.5732C71.1572 57.0261 70.6304 57.4827 70.1074 57.9434C69.1532 58.7838 68.2117 59.6388 67.2812 60.5059C65.7645 61.92 64.2799 63.3682 62.8291 64.8496C61.9452 65.7523 61.0729 66.6671 60.2139 67.5947C60.1707 67.6414 60.1281 67.6886 60.085 67.7354C58.9336 68.9822 57.8074 70.2532 56.7021 71.5439C56.5853 71.6804 56.4678 71.8162 56.3516 71.9531C55.9958 72.372 55.6429 72.7934 55.292 73.2168C54.2788 74.4393 53.2843 75.6772 52.3145 76.9346C51.5394 77.9393 50.778 78.9557 50.0303 79.9834C49.9821 80.0496 49.9348 80.1163 49.8867 80.1826C48.8054 81.6743 47.7569 83.1868 46.7393 84.7178C46.4234 85.193 46.1117 85.6711 45.8018 86.1504C45.3686 86.8202 44.9395 87.4922 44.5186 88.1689C44.4554 88.2704 44.391 88.371 44.3281 88.4727C43.6742 89.5302 43.0362 90.5969 42.4121 91.6709C42.3569 91.766 42.3011 91.8608 42.2461 91.9561C41.2991 93.5949 40.3875 95.2527 39.5107 96.9277C39.4646 97.016 39.4181 97.104 39.3721 97.1924C38.7969 98.2971 38.2377 99.4097 37.6934 100.529C37.6608 100.596 37.6282 100.663 37.5957 100.73C36.7632 102.45 35.9671 104.186 35.208 105.938C35.1633 106.042 35.1187 106.145 35.0742 106.248C34.5931 107.366 34.1267 108.49 33.6758 109.621C33.4027 110.306 33.1356 110.992 32.874 111.681C31.9338 114.154 31.0654 116.656 30.2705 119.183C30.258 119.222 30.2458 119.262 30.2334 119.302C29.856 120.505 29.4954 121.714 29.1514 122.929C29.1399 122.969 29.1286 123.009 29.1172 123.05C28.9529 123.632 28.7923 124.215 28.6357 124.799C28.6071 124.906 28.5782 125.012 28.5498 125.119C28.198 126.445 27.8675 127.777 27.5557 129.114C27.4109 129.735 27.2697 130.356 27.1338 130.979C26.8682 132.194 26.6191 133.414 26.3867 134.639C26.1224 136.031 25.8797 137.428 25.6592 138.827C25.4672 140.045 25.2924 141.265 25.1338 142.486C25.0466 143.158 24.9639 143.83 24.8867 144.503C24.8628 144.711 24.8413 144.92 24.8184 145.128C24.698 146.222 24.5898 147.317 24.4961 148.413C24.4669 148.754 24.4397 149.096 24.4131 149.438C24.2885 151.037 24.192 152.639 24.124 154.242C24.1127 154.509 24.1025 154.776 24.0928 155.043C24.0325 156.695 24.0029 158.348 24.0029 160C24.0029 160.243 24.0026 160.486 24.0039 160.729C24.0077 161.457 24.017 162.184 24.0322 162.909C24.0393 163.239 24.0491 163.569 24.0586 163.899C24.0659 164.153 24.0724 164.406 24.0811 164.659C24.0835 164.732 24.0863 164.804 24.0889 164.877C24.1327 166.1 24.1927 167.321 24.2695 168.542C24.2741 168.615 24.2785 168.688 24.2832 168.762C24.3645 170.021 24.4638 171.279 24.5801 172.536C24.6381 173.163 24.6999 173.789 24.7666 174.415C24.8013 174.741 24.8389 175.067 24.876 175.393C24.988 176.376 25.1106 177.359 25.2441 178.34C25.5922 180.897 26.0137 183.448 26.5088 185.991C26.5619 186.264 26.6151 186.537 26.6699 186.81C26.7532 187.224 26.8386 187.637 26.9258 188.051C26.9554 188.191 26.9856 188.331 27.0156 188.472C27.0279 188.529 27.0394 188.586 27.0518 188.644C27.2895 189.747 27.5423 190.847 27.8076 191.945C27.8533 192.134 27.8978 192.324 27.9443 192.513C28.4146 194.423 28.9254 196.32 29.4766 198.203L59.9023 188.317C57.3605 179.315 56 169.816 56 160C56 103.902 100.416 58.1772 156 56.0752V24.0596C155.382 24.0778 154.764 24.0994 154.146 24.126ZM164 56.0752C218.257 58.127 261.873 101.743 263.925 156H295.94C293.863 84.0681 235.932 26.1363 164 24.0586V56.0752Z" fill="#1D1D1B"/>
</g>
</g>
</svg>
