<svg width="320" height="320" viewBox="0 0 320 320" xmlns="http://www.w3.org/2000/svg"><g id="Foundations/Icons/Brand-Icons/People/11-profile" stroke="none" stroke-width="1" fill="none" fill-rule="evenodd"><path d="M160 11.521c-82.014 0-148.5 66.486-148.5 148.5 0 82.015 66.486 148.5 148.5 148.5 82.015 0 148.5-66.485 148.5-148.5-.005-82.012-66.487-148.494-148.5-148.5Zm0 61.64c23.986 0 43.43 19.445 43.43 43.43 0 23.986-19.444 43.43-43.43 43.43-23.985 0-43.43-19.444-43.43-43.43.006-23.983 19.447-43.424 43.43-43.43Zm0 230.861a142.924 142.924 0 0 1-87.45-29.58v-5.14c0-48.36 38.91-87.57 86.9-87.57 47.99 0 86.9 39.21 86.9 87.57l.07 5.93a142.934 142.934 0 0 1-86.42 28.79Z" id="lg-icon-fill-primary" fill="#FFD500"/><path d="M60 192.021a4 4 0 1 1 0 8 4 4 0 0 1 0-8Zm192 0a4 4 0 1 1 0 8 4 4 0 0 1 0-8Zm-176-16a4 4 0 1 1 0 8 4 4 0 0 1 0-8Zm-32 0a4 4 0 1 1 0 8 4 4 0 0 1 0-8Zm192 0a4 4 0 1 1 0 8 4 4 0 0 1 0-8Zm32 0a4 4 0 1 1 0 8 4 4 0 0 1 0-8Zm-176-16a4 4 0 1 1 0 8 4 4 0 0 1 0-8Zm-32 0a4 4 0 1 1 0 8 4 4 0 0 1 0-8Zm-32 0a4 4 0 1 1 0 8 4 4 0 0 1 0-8Zm224 0a4 4 0 1 1 0 8 4 4 0 0 1 0-8Zm32 0a4 4 0 1 1 0 8 4 4 0 0 1 0-8Zm-64 0a4 4 0 1 1 0 8 4 4 0 0 1 0-8Zm-144-16a4 4 0 1 1 0 8 4 4 0 0 1 0-8Zm-32 0a4 4 0 1 1 0 8 4 4 0 0 1 0-8Zm224 0 .2.005a4 4 0 1 1-.2-.005Zm-32 0a4 4 0 1 1 0 8 4 4 0 0 1 0-8Zm-176-16a4 4 0 1 1 0 8 4 4 0 0 1 0-8Zm192 0a4 4 0 1 1 0 8 4 4 0 0 1 0-8Z" id="Half-tone" fill="#000"/><path d="M81.18 30.021C129.64.66 190.402.66 238.86 30.021c4.18 2.54 8.22 5.27 12.12 8.19a143.645 143.645 0 0 1 5.75 4.51 152.92 152.92 0 0 1 22.89 23.45c1.5 1.9 2.96 3.85 4.38 5.85a151.4 151.4 0 0 1 24.91 57.37c.767 3.714 1.39 7.47 1.87 11.27a154.395 154.395 0 0 1 1.22 19.36c0 83.948-68.052 152-152 152-83.947 0-152-68.052-152-152a154.62 154.62 0 0 1 1.18-19.35c.48-3.8 1.11-7.54 1.87-11.27.76-3.73 1.68-7.4 2.68-11A151.4 151.4 0 0 1 36 72.021c1.447-2 2.92-3.946 4.42-5.84a152.92 152.92 0 0 1 22.89-23.46c1.88-1.51 3.75-3.05 5.75-4.51 3.9-2.933 7.94-5.663 12.12-8.19Zm78.27 151.71c-47.99 0-86.9 39.21-86.9 87.57v5.14A142.924 142.924 0 0 0 160 304.022h.936a142.934 142.934 0 0 0 85.485-28.79l-.07-5.93c0-48.36-38.91-87.57-86.9-87.57Zm102.37-123.53c-56.244-56.233-147.426-56.224-203.66.02-56.233 56.245-56.224 147.427.02 203.66 2.07 2.07 4.21 4.07 6.39 6 .77-52.03 43.03-94.12 94.88-94.12 52.17 0 94.63 42.61 94.89 95.08a142.113 142.113 0 0 0 7.48-7c56.232-56.234 56.232-147.405 0-203.64ZM160 65.161c28.39.034 51.397 23.04 51.43 51.43 0 28.404-23.025 51.43-51.43 51.43-28.403 0-51.43-23.026-51.43-51.43s23.027-51.43 51.43-51.43Zm0 8c-23.985 0-43.43 19.445-43.43 43.43 0 23.986 19.445 43.43 43.43 43.43a43.43 43.43 0 0 0 43.43-43.43c0-23.985-19.444-43.43-43.43-43.43Z" id="Outlines" fill="#000"/></g></svg>