<svg width="320" height="320" viewBox="0 0 320 320" xmlns="http://www.w3.org/2000/svg"><g id="Foundations/Icons/Brand-Icons/UI/Design-and-Development/14-project" stroke="none" stroke-width="1" fill="none" fill-rule="evenodd"><path d="M252 148h16v128h-16V148Zm-48 48v48H68v-48h136Zm-22.514-92.889a36.19 36.19 0 0 0 11.294 11.334l-39.123 39.124a8 8 0 1 1-11.314-11.314l39.143-39.144ZM84 120c11.046 0 20 8.954 20 20H64c0-11.046 8.954-20 20-20Zm22.635-36C103.34 93.32 94.45 100 84 100c-10.45 0-19.34-6.679-22.635-16Z" id="lg-icon-fill-primary" fill="#FFD500"/><path d="M212 96a4 4 0 1 1 0 8 4 4 0 0 1 0-8Zm16-16a4 4 0 1 1 0 8 4 4 0 0 1 0-8Zm-32 0a4 4 0 1 1 0 8 4 4 0 0 1 0-8Zm16-16a4 4 0 1 1 0 8 4 4 0 0 1 0-8Z" id="Half-tone" fill="#000"/><path d="M280 16c13.255 0 24 10.745 24 24v240c0 13.255-10.745 24-24 24H40c-13.255 0-24-10.745-24-24V40c0-13.255 10.745-24 24-24h240ZM40 24c-8.731 0-15.83 6.994-15.997 15.685L24 40v240c0 8.731 6.994 15.83 15.685 15.997L40 296h56v-16H58.683a8.01 8.01 0 0 1-7.6-5.47l-2.67-8c-1.399-4.192.87-8.722 5.067-10.12a8.02 8.02 0 0 1 2.533-.41H64v-68c0-6.627 5.373-12 12-12h4v-16H48v-24h8v-12l.004-.463c.162-9.993 5.558-18.713 13.567-23.538-8.009-4.823-13.405-13.543-13.567-23.536L56 76V64h-8V40h32V24H40Zm240 272c8.731 0 15.83-6.994 15.997-15.685L296 280v-56h-24v56h-24v-56h-40v32h7.99c4.423 0 8.01 3.582 8.01 8a7.99 7.99 0 0 1-.411 2.53l-2.67 8a8.01 8.01 0 0 1-7.6 5.47H104v16h176Zm-16-144h-8v120h8V152Zm-48.01 112H56.012l2.67 8H213.32l2.67-8ZM200 248H72v8h128v-8Zm0-48H72v40h128v-40Zm80.315-175.997L280 24h-64v16.18c22.426 2.02 40 20.868 40 43.82 0 24.3-19.7 44-44 44a43.801 43.801 0 0 1-21.384-5.537l-34.001 34a12.027 12.027 0 0 1-4.614 2.884L152 176h44c6.627 0 12 5.373 12 12v28h40v-72l12-32 12 32v72h24V40c0-8.731-6.994-15.83-15.685-15.997ZM196 184H76a4 4 0 0 0-3.995 3.8L72 188v4h128v-4a4 4 0 0 0-3.8-3.995L196 184Zm-84-40H56v8h56v-8Zm66.17-31.864-32.94 32.942a4.025 4.025 0 0 0 5.532 5.844l.16-.152 32.942-32.94a44.269 44.269 0 0 1-5.694-5.694ZM260 130l-4 14h8l-4-14Zm-176-6c-7.364 0-13.566 4.975-15.428 11.747l-.068.253h30.991l-.067-.253c-1.836-6.676-7.888-11.605-15.113-11.744L84 124Zm0-20c-10.806 0-19.631 8.578-19.988 19.257l-.009.345L64 124v2.728C68.3 120.262 75.653 116 84 116s15.7 4.262 20 10.729v-2.664l-.003-.398C103.821 112.764 94.922 104 84 104Zm128-56c-19.882 0-36 16.118-36 36s16.118 36 36 36 36-16.118 36-36-16.118-36-36-36ZM100 88l-32 .002C71.649 92.861 77.462 96 84 96c6.543 0 12.352-3.142 16-8Zm4-24H64v11.935l.003.398c.02 1.254.156 2.48.397 3.668h39.2c.24-1.184.376-2.406.397-3.657L104 76V64Zm8-16H56v8h56v-8Zm-24-8h32v24h-8v12c0 10.186-5.439 19.101-13.57 24 8.008 4.825 13.404 13.545 13.566 23.537L112 124v12h8v24H88v16h56v-16.705a12.03 12.03 0 0 1-4.463-2.832c-4.716-4.716-4.716-12.362 0-17.078l34-34A43.801 43.801 0 0 1 168 84c0-22.952 17.574-41.8 40-43.82V24H88v16Z" id="Outline" fill="#000"/></g></svg>