<svg xmlns="http://www.w3.org/2000/svg" viewBox="0 0 320 320"><g id="Foundations/Icons/Brand-Icons/Quick-Easy" fill="none" fill-rule="evenodd" stroke="none" stroke-width="1"><circle id="lg-icon-fill-primary" cx="192" cy="160" r="20" fill="#FFD500"/><path id="Half-tone" fill="#000" d="M176 232a4 4 0 1 1 0 8 4 4 0 0 1 0-8zm16-16a4 4 0 1 1 0 8 4 4 0 0 1 0-8zm-32 0a4 4 0 1 1 0 8 4 4 0 0 1 0-8zm16-16a4 4 0 1 1 0 8 4 4 0 0 1 0-8zm-32 0a4 4 0 1 1 0 8 4 4 0 0 1 0-8zm16-16a4 4 0 1 1 0 8 4 4 0 0 1 0-8zm-32 0a4 4 0 1 1 0 8 4 4 0 0 1 0-8zm16-16a4 4 0 1 1 0 8 4 4 0 0 1 0-8zm-32 0a4 4 0 1 1 0 8 4 4 0 0 1 0-8zm16-16a4 4 0 1 1 0 8 4 4 0 0 1 0-8z"/><path id="Outlines" fill="#000" d="M192 48c61.856 0 112 50.144 112 112s-50.144 112-112 112S80 221.856 80 160 130.144 48 192 48zm0 8c-57.412.06-103.94 46.588-104 104 0 57.438 46.562 104 104 104s104-46.562 104-104S249.438 56 192 56zM80 216a4 4 0 1 1 0 8H20a4 4 0 1 1 0-8h60zm-16-40a4 4 0 1 1 0 8H20a4 4 0 1 1 0-8h44zM192.004 68A4 4 0 0 1 196 71.8l.005.2v64.337a23.999 23.999 0 0 1 19.589 19.262l.07.397H264a4 4 0 0 1 .2 7.994l-.2.005h-48.337c-2.034 12.05-12.799 20.648-25 19.967-12.203-.68-21.944-10.422-22.625-22.624-.674-12.078 7.742-22.747 19.599-24.936l.368-.065V72a4 4 0 0 1 4-4zm-4 76.526a16 16 0 1 0 19.47 19.47 15.36 15.36 0 0 0 0-8 16 16 0 0 0-11.47-11.47 15.359 15.359 0 0 0-8 0zM64 136a4 4 0 1 1 0 8H20a4 4 0 1 1 0-8h44zm16-40a4 4 0 1 1 0 8H20a4 4 0 1 1 0-8h60z"/></g></svg>