<svg width="320" height="320" viewBox="0 0 320 320" xmlns="http://www.w3.org/2000/svg"><g id="Foundations/Icons/Brand-Icons/Online/02-quick" stroke="none" stroke-width="1" fill="none" fill-rule="evenodd"><circle id="lg-icon-fill-primary" fill="#FFD500" cx="191" cy="160" r="20"/><path d="m172 232 .2.005a4 4 0 1 1-.4 0l.2-.005Zm-16-16 .2.005a4 4 0 1 1-.4 0l.2-.005Zm32 0 .2.005a4 4 0 1 1-.4 0l.2-.005Zm-48-16 .2.005a4 4 0 1 1-.4 0l.2-.005Zm32 0 .2.005a4 4 0 1 1-.4 0l.2-.005Zm-48-16 .2.005a4 4 0 1 1-.4 0l.2-.005Zm32 0 .2.005a4 4 0 1 1-.4 0l.2-.005Zm-48-16 .2.005a4 4 0 1 1-.4 0l.2-.005Zm32 0a4 4 0 1 1 0 8 4 4 0 0 1 0-8Zm-16-16a4 4 0 1 1 0 8 4 4 0 0 1 0-8Z" id="Half-tone" fill="#000"/><path d="M192 48c61.856 0 112 50.144 112 112s-50.144 112-112 112S80 221.856 80 160 130.144 48 192 48Zm0 8c-57.412.06-103.94 46.588-104 104 0 57.438 46.562 104 104 104s104-46.562 104-104S249.438 56 192 56ZM88 228a4 4 0 1 1 0 8H20a4 4 0 1 1 0-8h68Zm-19-48a4 4 0 1 1 0 8H20a4 4 0 1 1 0-8h49ZM192 68a4 4 0 0 1 4 4v64.34A24 24 0 0 1 215.66 156H264a4 4 0 1 1 0 8h-48.34c-2.034 12.051-12.8 20.649-25.002 19.968-12.203-.681-21.945-10.423-22.626-22.626-.68-12.202 7.917-22.968 19.968-25.002V72a4 4 0 0 1 4-4Zm4 76.53a15.36 15.36 0 0 0-8 0A16 16 0 1 0 207.47 164a15.36 15.36 0 0 0 0-8A16 16 0 0 0 196 144.53ZM69 132a4 4 0 1 1 0 8H20a4 4 0 1 1 0-8h49Zm19-48a4 4 0 1 1 0 8H20a4 4 0 1 1 0-8h68Z" id="Outlines" fill="#000"/></g></svg>