<svg xmlns="http://www.w3.org/2000/svg" width="320" height="320" fill="none" viewBox="0 0 320 320"><path fill="#000" fill-rule="evenodd" d="M208 280a4 4 0 1 0 0-8 4 4 0 0 0 0 8Zm-32 0a4 4 0 1 0 0-8 4 4 0 0 0 0 8Zm-32 0a4 4 0 1 0 0-8 4 4 0 0 0 0 8Zm-32 0a4 4 0 1 0 0-8 4 4 0 0 0 0 8Z" clip-rule="evenodd"/><path fill="#FFD500" d="M160 196c33.137 0 60-26.863 60-60s-26.863-60-60-60-60 26.863-60 60 26.863 60 60 60Z"/><path fill="#000" fill-rule="evenodd" d="M226 16a4 4 0 0 1 4 4v12h22a4 4 0 0 1 3.995 3.8l.005.2v264a4 4 0 0 1-4 4H68a4 4 0 0 1-4-4V36a4 4 0 0 1 4-4h24V20a4 4 0 0 1 8 0v12h18V20a4 4 0 0 1 8 0v12h18V20a4 4 0 0 1 8 0v12h18V20a4 4 0 0 1 8 0v12h18V20a4 4 0 0 1 8 0v12h18V20a4 4 0 0 1 4-4ZM92 40H72v256h176V40h-18v12a4 4 0 0 1-8 0V40h-18v12a4 4 0 0 1-8 0V40h-18v12a4 4 0 0 1-8 0V40h-18v12a4 4 0 0 1-8 0V40h-18v12a4 4 0 0 1-8 0V40h-18v12a4 4 0 0 1-8 0V40Zm120 208a4 4 0 0 1 0 8H108a4 4 0 0 1 0-8h104Zm0-24a4 4 0 0 1 0 8H108a4 4 0 0 1 0-8h104ZM160 72c35.346 0 64 28.654 64 64 0 35.346-28.654 64-64 64-35.331-.036-63.964-28.669-64-64 0-35.346 28.654-64 64-64Zm0 8c-30.928 0-56 25.072-56 56s25.072 56 56 56c30.915-.031 55.969-25.085 56-56 0-30.928-25.072-56-56-56Zm2.796 14c18.099 0 21.552 12.009 21.552 25.115 0 2.192-1.792 3.969-4.002 3.969s-4.002-1.777-4.002-3.969c0-12.362-2.873-17.178-13.548-17.178-8.974-.005-11.281 7.106-11.483 15.964l-.004.486c.089 4.377.659 9.573 1.436 13.65l16.594-.001c2.211 0 4.002 1.777 4.002 3.969s-1.791 3.968-4.002 3.968l-14.867.001.9 3.824c2.109 9.043 3.791 16.677.679 24.265h27.947c2.21 0 4.002 1.777 4.002 3.968 0 2.192-1.792 3.969-4.002 3.969h-47.996c-2.21 0-4.002-1.777-4.002-3.969 0-2.191 1.792-3.968 4.002-3.968h10.924c4.148-5.507 3.211-11.365.769-21.956l-1.166-4.966-.269-1.166-10.258-.002c-2.21 0-4.002-1.776-4.002-3.968s1.792-3.969 4.002-3.969h8.627c-.705-4.02-1.224-9.245-1.324-13.639v-.288C143.404 104.765 149.34 94 162.796 94Z" clip-rule="evenodd"/></svg>