<svg width="320" height="320" viewBox="0 0 320 320" xmlns="http://www.w3.org/2000/svg"><g id="Foundations/Icons/Brand-Icons/House-and-Home/06-radiator" stroke="none" stroke-width="1" fill="none" fill-rule="evenodd"><path id="lg-icon-fill-primary" fill="#FFD500" d="M16 104.425h185v201H16z"/><path d="M36 278.425a4 4 0 1 1 0 8 4 4 0 0 1 0-8Zm48 0a4 4 0 1 1 0 8 4 4 0 0 1 0-8Zm48 0a4 4 0 1 1 0 8 4 4 0 0 1 0-8Zm48 0a4 4 0 1 1 0 8 4 4 0 0 1 0-8Zm-144-32 .2.005a4 4 0 1 1-.4 0l.2-.005Zm48 0 .2.005a4 4 0 1 1-.4 0l.2-.005Zm48 0 .2.005a4 4 0 1 1-.4 0l.2-.005Zm48 0 .2.005a4 4 0 1 1-.4 0l.2-.005Zm-144-32a4 4 0 1 1 0 8 4 4 0 0 1 0-8Zm48 0a4 4 0 1 1 0 8 4 4 0 0 1 0-8Zm48 0a4 4 0 1 1 0 8 4 4 0 0 1 0-8Zm48 0a4 4 0 1 1 0 8 4 4 0 0 1 0-8Zm-144-32 .2.005a4 4 0 1 1-.4 0l.2-.005Zm48 0 .2.005a4 4 0 1 1-.4 0l.2-.005Zm48 0 .2.005a4 4 0 1 1-.4 0l.2-.005Zm48 0 .2.005a4 4 0 1 1-.4 0l.2-.005Zm-144-32a4 4 0 1 1 0 8 4 4 0 0 1 0-8Zm48 0a4 4 0 1 1 0 8 4 4 0 0 1 0-8Zm48 0a4 4 0 1 1 0 8 4 4 0 0 1 0-8Zm48 0a4 4 0 1 1 0 8 4 4 0 0 1 0-8Zm-144-32a4 4 0 1 1 0 8 4 4 0 0 1 0-8Zm48 0a4 4 0 1 1 0 8 4 4 0 0 1 0-8Zm48 0a4 4 0 1 1 0 8 4 4 0 0 1 0-8Zm48 0a4 4 0 1 1 0 8 4 4 0 0 1 0-8Z" id="Half-tone" fill="#000"/><path d="M104.35 104.425H64.18v200h40.17v-200Zm47.18 0h-39.18v200h39.18v-200Zm-95.35 0H16v200h40.18v-200Zm143.82 0h-40.47v200H200v-200Zm8 144h88v-96h-16v72a8 8 0 0 1-8 8h-64v16Zm96-192h-32v88h32v-88Zm-15.01-40h-2a2.7 2.7 0 0 0-.39 1l-5.16 31h13.1l-5.16-31a2.7 2.7 0 0 0-.39-1Zm-80.99 288a8 8 0 0 1-8 8H16a8 8 0 0 1-8-8v-200a8 8 0 0 1 8-8h184a8 8 0 0 1 8 8v120h64v-72a8 8 0 0 1-8-8v-88a8 8 0 0 1 8-8h1.33l5.42-32.28a9.28 9.28 0 0 1 5.12-7.15 6.85 6.85 0 0 1 1.33-.42c.46-.1.93-.15 1.4-.15h2.88a7.52 7.52 0 0 1 6 3.3 10.42 10.42 0 0 1 1.81 4.42l5.38 32.28H304a8 8 0 0 1 8 8v88a8 8 0 0 1-8 8v96a8 8 0 0 1-8 8h-88Z" id="Outlines" fill="#000"/></g></svg>