<svg xmlns="http://www.w3.org/2000/svg" width="320" height="320" viewBox="0 0 320 320"><g id="Foundations/Icons/Brand-Icons/Energy-and-Resources/14-rail-tanker" fill="none" fill-rule="evenodd" stroke="none" stroke-width="1"><path id="lg-icon-fill-primary" fill="#FFD500" d="M288 88v88c0 6.627-5.373 12-12 12h-12V75.93l12 .07c6.627 0 12 5.373 12 12Zm-32 52h-47v-16h47v16Zm-47 8h47v16h-47v-16Zm47-32h-47v-16h47v16Zm-47 56h47v16h-47v-16Zm47-80h-47V75.63l47 .26V92ZM32 88c0-6.627 5.373-12 12-12h84.4l-.3-7.9a8 8 0 0 1 8-8.1h40a8 8 0 0 1 8 7.88l.38 7.62 16.5.09V188H44c-6.627 0-12-5.373-12-12V88Z"/><path id="Half-tone" fill="#000" d="M52 204a4 4 0 1 1 0 8 4 4 0 0 1 0-8Zm32 0a4 4 0 1 1 0 8 4 4 0 0 1 0-8Zm32 0a4 4 0 1 1 0 8 4 4 0 0 1 0-8Zm32 0a4 4 0 1 1 0 8 4 4 0 0 1 0-8Zm32 0 .2.005a4 4 0 1 1-.2-.005Zm32 0a4 4 0 1 1 0 8 4 4 0 0 1 0-8Zm32 0a4 4 0 1 1 0 8 4 4 0 0 1 0-8Zm32 0a4 4 0 1 1 0 8 4 4 0 0 1 0-8Z"/><path id="Outlines" fill="#000" d="M297 188h-5a19.89 19.89 0 0 0 4-12V88c0-11.046-8.954-20-20-20l-83.89-.46c-.28-8.643-7.353-15.512-16-15.54h-40c-8.837 0-16 7.163-16 16H44c-11.046 0-20 8.954-20 20v88a19.89 19.89 0 0 0 4 12h-4a8 8 0 0 0-8 8v24a8 8 0 0 0 8 8h2.71A27.75 27.75 0 0 0 24 240c0 15.464 12.536 28 28 28s28-12.536 28-28a27.75 27.75 0 0 0-2.71-12h165.42a27.75 27.75 0 0 0-2.71 12c0 15.464 12.536 28 28 28s28-12.536 28-28a27.75 27.75 0 0 0-2.71-12H297a8 8 0 0 0 8-8v-24a8 8 0 0 0-8-8Zm-9-100v88c0 6.627-5.373 12-12 12h-12V75.93l12 .07c6.627 0 12 5.373 12 12Zm-32 52h-47v-16h47v16Zm-47 8h47v16h-47v-16Zm47-32h-47v-16h47v16Zm-47 56h47v16h-47v-16Zm47-80h-47V75.63l47 .26V92ZM32 88c0-6.627 5.373-12 12-12h84.4l-.3-7.9a8 8 0 0 1 8-8.1h40a8 8 0 0 1 8 7.88l.38 7.62 16.5.09V188H44c-6.627 0-12-5.373-12-12V88Zm37.59 142.47a20.23 20.23 0 0 1 1.51 3.58 20.12 20.12 0 0 1 0 11.9 20.23 20.23 0 0 1-1.51 3.58c-.22.39-.44.77-.68 1.15a20 20 0 0 1-33.82 0c-.24-.38-.46-.76-.68-1.15A20.23 20.23 0 0 1 32.9 246a20.12 20.12 0 0 1 0-11.9 20.23 20.23 0 0 1 1.51-3.58A20.6 20.6 0 0 1 36 228h32a20.6 20.6 0 0 1 1.59 2.47Zm216 0a20.23 20.23 0 0 1 1.51 3.58 20.12 20.12 0 0 1 0 11.9 20.23 20.23 0 0 1-1.51 3.58c-.22.39-.44.77-.68 1.15a20 20 0 0 1-33.82 0c-.24-.38-.46-.76-.68-1.15a20.23 20.23 0 0 1-1.51-3.53 20.12 20.12 0 0 1 0-11.9 20.23 20.23 0 0 1 1.51-3.58A20.6 20.6 0 0 1 252 228h32a20.6 20.6 0 0 1 1.59 2.47ZM268 236a4 4 0 1 1 0 8 4 4 0 0 1 0-8Zm-216 0a4 4 0 1 1 0 8 4 4 0 0 1 0-8Zm245-40v24H24v-24h273Z"/></g></svg>