<svg width="320" height="320" viewBox="0 0 320 320" xmlns="http://www.w3.org/2000/svg"><g id="Foundations/Icons/Brand-Icons/Nature/05-rain-cloud" stroke="none" stroke-width="1" fill="none" fill-rule="evenodd"><path d="m79.24 260.108.2.005a4 4 0 0 1 3.785 3.789l.005.206-.1 39.89a4 4 0 0 1-3.8 3.995l-.2.005-.2-.005a4 4 0 0 1-3.795-3.79l-.005-.205.11-39.89a4 4 0 0 1 4-4Zm56 0 .2.005a4 4 0 0 1 3.785 3.789l.005.206-.1 39.89a4 4 0 0 1-3.8 3.995l-.2.005-.2-.005a4 4 0 0 1-3.795-3.79l-.005-.205.11-39.89a4 4 0 0 1 4-4Zm56 0 .2.005a4 4 0 0 1 3.785 3.789l.005.206-.1 39.89a4 4 0 0 1-3.8 3.995l-.2.005-.2-.005a4 4 0 0 1-3.795-3.79l-.005-.205.11-39.89a4 4 0 0 1 4-4Zm56 0 .2.005a4 4 0 0 1 3.785 3.789l.005.206-.1 39.89a4 4 0 0 1-3.8 3.995l-.2.005-.2-.005a4 4 0 0 1-3.795-3.79l-.005-.205.11-39.89a4 4 0 0 1 4-4Zm-195-48.01.2.005a4 4 0 0 1 3.785 3.789l.005.206-.1 39.9a4 4 0 0 1-3.8 3.995l-.2.005-.2-.005a4 4 0 0 1-3.795-3.79l-.005-.205.11-39.9a4 4 0 0 1 4-4Zm56 0 .2.005a4 4 0 0 1 3.785 3.789l.005.206-.1 39.9a4 4 0 0 1-3.8 3.995l-.2.005-.2-.005a4 4 0 0 1-3.795-3.79l-.005-.205.11-39.9a4 4 0 0 1 4-4Zm56 0 .2.005a4 4 0 0 1 3.785 3.789l.005.206-.1 39.9a4 4 0 0 1-3.8 3.995l-.2.005-.2-.005a4 4 0 0 1-3.795-3.79l-.005-.205.11-39.9a4 4 0 0 1 4-4Zm56 0 .2.005a4 4 0 0 1 3.785 3.789l.005.206-.1 39.9a4 4 0 0 1-3.8 3.995l-.2.005-.2-.005a4 4 0 0 1-3.795-3.79l-.005-.205.11-39.9a4 4 0 0 1 4-4Zm56 0 .2.005a4 4 0 0 1 3.785 3.789l.005.206-.1 39.9a4 4 0 0 1-3.8 3.995l-.2.005-.2-.005a4 4 0 0 1-3.795-3.79l-.005-.205.11-39.9a4 4 0 0 1 4-4ZM160.13 12c30.315 0 57.445 18.822 68.06 47.218a71.83 71.83 0 0 1 11.24-.88c40.223 0 72.83 32.607 72.83 72.83s-32.607 72.83-72.83 72.83H80.83C40.607 203.998 8 171.39 8 131.168s32.607-72.83 72.83-72.83a71.83 71.83 0 0 1 11.24.88C102.685 30.822 129.815 12 160.13 12Zm0 7.988c-26.976 0-51.118 16.744-60.57 42.01l-2.3 6.12-6.43-1a65.88 65.88 0 0 0-10-.78c-35.805 0-64.83 29.025-64.83 64.83 0 35.804 29.025 64.83 64.83 64.83h158.6l-.01-.03c35.805 0 64.83-29.026 64.83-64.83 0-35.805-29.025-64.83-64.83-64.83a65.88 65.88 0 0 0-10 .78l-6.43 1-2.29-6.09c-9.452-25.266-33.594-42.01-60.57-42.01Z" id="Outlines" fill="#000"/></g></svg>