<svg xmlns="http://www.w3.org/2000/svg" width="320" height="320"><g fill="none" fill-rule="evenodd"><path fill="#FFEEA4" d="M155.611 101.861A48.4 48.4 0 01156 108c0 26.51-21.49 48-48 48l-.503-.003c3.255-26.1 22.225-47.317 47.14-53.886l.974-.25z"/><path fill="#FFD500" d="M108 60c24.43 0 44.598 18.252 47.611 41.863-25.395 6.268-44.817 27.696-48.115 54.133C81.219 155.728 60 134.342 60 108c0-26.51 21.49-48 48-48z"/><path fill="#000" d="M231.215 241.201a4 4 0 01.138 5.512l-.138.145-41.012 41.012a4 4 0 01-5.794-5.512l.137-.145 41.012-41.012a4 4 0 015.657 0zm-32.166 0a4 4 0 01.137 5.512l-.137.145-41.012 41.012a4 4 0 01-5.795-5.512l.138-.145 41.012-41.012a4 4 0 015.657 0zm-32.083 0a4 4 0 01.137 5.512l-.137.145-41.013 41.012a4 4 0 01-5.794-5.512l.137-.145 41.013-41.012a4 4 0 015.657 0zm-32.084 0a4 4 0 01.138 5.512l-.138.145L93.87 287.87a4 4 0 01-5.795-5.512l.138-.145 41.012-41.012a4 4 0 015.657 0zM108 56c24.973 0 45.834 17.604 50.851 41.08A67.806 67.806 0 01170.938 96c30.288 0 56.471 20.099 64.917 48.478l.25.862.053.196a43.807 43.807 0 0110.887-1.532L248 144c24.3 0 44 19.7 44 44 0 23.79-18.895 43.213-42.587 43.977l-.72.018L248 232H100c-17.673 0-32-14.327-32-32 0-17.673 14.327-32 32-32 .874 0 1.743.035 2.607.105l.707.065-.05-.918c-.023-.48-.04-.961-.053-1.443l-.015-.723-.008-1.086c0-1.414.042-2.818.127-4.21C76.792 157.424 56 135.14 56 108c0-28.719 23.281-52 52-52zm62.938 48c-3.63 0-7.184.325-10.635.948l-1.534.297-.484.103-.482.106-.502.116-.5.12-.627.156-.386.1-.678.182-.737.208-.498.146-.513.156-.882.28.371-.12c-20.274 6.458-35.865 23.485-40.352 44.64l-.28 1.407-.09.486-.085.488-.09.547-.086.55-.083.571-.06.426-.078.613-.042.346-.08.714-.08.8-.05.576a61.275 61.275 0 00.093 11.081l.002.002.077.745.101.844.123.91.877 6.138-5.954-1.731c-.359-.105-.72-.2-1.084-.288l-.548-.125-.475-.097-.639-.115A24.199 24.199 0 00100 176c-13.255 0-24 10.745-24 24 0 13.122 10.531 23.785 23.603 23.997L100 224h147.706c9.429-.01 18.488-3.705 25.293-10.538 14.001-14.06 14.001-36.864 0-50.924a35.633 35.633 0 00-25.112-10.537c-4.317.013-8.52.784-12.47 2.26l-.622.238-2.696 1.065a35.779 35.779 0 00-9.765 6.974 4 4 0 11-5.668-5.645 43.812 43.812 0 0111.97-8.544c-4.365-16.295-15.309-29.66-29.628-37.32l-.25-.132a59.539 59.539 0 00-3.991-1.925l-1.022-.435-.83-.338-.662-.259-.814-.306-.964-.344-.836-.283-.664-.216-.697-.217-.988-.291-.798-.222-.917-.24-.919-.226-.787-.18-.827-.178-.763-.153-.626-.117-.663-.117-.46-.077-.467-.074-.468-.07-.729-.102-.725-.093-.673-.078-.696-.072-.723-.066-.904-.07-1.006-.063-.84-.039-.634-.021-.692-.016-1.036-.009zM244 208c2.21 0 4 1.79 4 4s-1.79 4-4 4-4-1.79-4-4 1.79-4 4-4zm-32 0c2.21 0 4 1.79 4 4s-1.79 4-4 4-4-1.79-4-4 1.79-4 4-4zm-32 0c2.21 0 4 1.79 4 4s-1.79 4-4 4-4-1.79-4-4 1.79-4 4-4zm-32 0c2.21 0 4 1.79 4 4s-1.79 4-4 4-4-1.79-4-4 1.79-4 4-4zm-32 0c2.21 0 4 1.79 4 4s-1.79 4-4 4-4-1.79-4-4 1.79-4 4-4zm-16-16c2.21 0 4 1.79 4 4s-1.79 4-4 4-4-1.79-4-4 1.79-4 4-4zm32 0c2.21 0 4 1.79 4 4s-1.79 4-4 4-4-1.79-4-4 1.79-4 4-4zm32 0c2.21 0 4 1.79 4 4s-1.79 4-4 4-4-1.79-4-4 1.79-4 4-4zm32 0c2.21 0 4 1.79 4 4s-1.79 4-4 4-4-1.79-4-4 1.79-4 4-4zm32 0c2.21 0 4 1.79 4 4s-1.79 4-4 4-4-1.79-4-4 1.79-4 4-4zm32 0c2.21 0 4 1.79 4 4s-1.79 4-4 4-4-1.79-4-4 1.79-4 4-4zm-112-16c2.21 0 4 1.79 4 4s-1.79 4-4 4-4-1.79-4-4 1.79-4 4-4zm32 0c2.21 0 4 1.79 4 4s-1.79 4-4 4-4-1.79-4-4 1.79-4 4-4zm32 0c2.21 0 4 1.79 4 4s-1.79 4-4 4-4-1.79-4-4 1.79-4 4-4zm32 0c2.21 0 4 1.79 4 4s-1.79 4-4 4-4-1.79-4-4 1.79-4 4-4zM65.574 150.426a4 4 0 01.15 5.498l-.15.16-16.971 16.97a4 4 0 01-5.807-5.498l.15-.159 16.97-16.97a4 4 0 015.658 0zM132 160c2.21 0 4 1.79 4 4s-1.79 4-4 4-4-1.79-4-4 1.79-4 4-4zm64 0c2.21 0 4 1.79 4 4s-1.79 4-4 4-4-1.79-4-4 1.79-4 4-4zm-32 0c2.21 0 4 1.79 4 4s-1.79 4-4 4-4-1.79-4-4 1.79-4 4-4zm-56-96c-24.3 0-44 19.7-44 44 0 23.043 17.714 41.95 40.267 43.844 4.524-25.158 22.836-45.506 46.802-52.873C146.91 79.002 129.206 64 108 64zm-64 40a4 4 0 01.2 7.995L44 112H20a4 4 0 01-.2-7.995L20 104h24zm4.444-61.205l.159.151 16.97 16.97a4 4 0 01-5.497 5.808l-.16-.15-16.97-16.971a4 4 0 015.498-5.807zm124.61.151a4 4 0 01.15 5.498l-.15.159-16.97 16.97a4 4 0 01-5.808-5.497l.15-.16 16.971-16.97a4 4 0 015.657 0zM108 16a4 4 0 013.995 3.8l.005.2v24a4 4 0 01-7.995.2L104 44V20c0-2.21 1.79-4 4-4z"/></g></svg>