<svg xmlns="http://www.w3.org/2000/svg" width="320" height="320" viewBox="0 0 320 320"><g id="Foundations/Icons/Brand-Icons/UI/Design-and-Development/09-reduce-friction" fill="none" fill-rule="evenodd" stroke="none" stroke-width="1"><path id="lg-icon-fill-primary" fill="#FFD500" d="M284 164v136H124V164h160Zm-80 28c-13.333 16.636-20 28.636-20 36 0 11.046 8.954 20 20 20s20-8.954 20-20c0-7.364-6.667-19.364-20-36Zm48-84v24h-13.355l.495.395c9.748 7.866 16.805 18.933 19.571 31.604H149.29c2.813-12.884 10.062-24.11 20.065-31.998L156 132v-24h96Z"/><path id="Half-tone" fill="#000" d="M140 296.013c2.21 0 4 1.788 4 3.994h-8a3.997 3.997 0 0 1 4-3.994Zm32 0c2.21 0 4 1.788 4 3.994h-8a3.997 3.997 0 0 1 4-3.994Zm32 0c2.21 0 4 1.788 4 3.994h-8a3.997 3.997 0 0 1 4-3.994Zm32 0c2.21 0 4 1.788 4 3.994h-8a3.997 3.997 0 0 1 4-3.994Zm32 0c2.21 0 4 1.788 4 3.994h-8a3.997 3.997 0 0 1 4-3.994Zm-16-15.973c2.21 0 4 1.788 4 3.994a3.997 3.997 0 0 1-4 3.993c-2.21 0-4-1.788-4-3.993a3.997 3.997 0 0 1 4-3.994Zm-32 0c2.21 0 4 1.788 4 3.994a3.997 3.997 0 0 1-4 3.993c-2.21 0-4-1.788-4-3.993a3.997 3.997 0 0 1 4-3.994Zm-32 0c2.21 0 4 1.788 4 3.994a3.997 3.997 0 0 1-4 3.993c-2.21 0-4-1.788-4-3.993a3.997 3.997 0 0 1 4-3.994Zm-32 0c2.21 0 4 1.788 4 3.994a3.997 3.997 0 0 1-4 3.993c-2.21 0-4-1.788-4-3.993a3.997 3.997 0 0 1 4-3.994Zm-32 0c2.21 0 4 1.788 4 3.994a3.997 3.997 0 0 1-4 3.993v-7.987Zm160 0v7.987c-2.21 0-4-1.788-4-3.993a3.997 3.997 0 0 1 4-3.994Zm-16-15.973c2.21 0 4 1.788 4 3.994a3.997 3.997 0 0 1-4 3.993c-2.21 0-4-1.788-4-3.993a3.997 3.997 0 0 1 4-3.994Zm-32 0c2.21 0 4 1.788 4 3.994a3.997 3.997 0 0 1-4 3.993c-2.21 0-4-1.788-4-3.993a3.997 3.997 0 0 1 4-3.994Zm-32 0c2.21 0 4 1.788 4 3.994a3.997 3.997 0 0 1-4 3.993c-2.21 0-4-1.788-4-3.993a3.997 3.997 0 0 1 4-3.994Zm-32 0c2.21 0 4 1.788 4 3.994a3.997 3.997 0 0 1-4 3.993c-2.21 0-4-1.788-4-3.993a3.997 3.997 0 0 1 4-3.994Zm-32 0c2.21 0 4 1.788 4 3.994a3.997 3.997 0 0 1-4 3.993c-2.21 0-4-1.788-4-3.993a3.997 3.997 0 0 1 4-3.994Z"/><path id="Outlines" fill="#000" d="m255.515 16 16.97 16.942L216 89.332v15.004h36a3.997 3.997 0 0 1 3.995 3.794l.005.2v23.96a3.997 3.997 0 0 1-4 3.993h-3.277a59.777 59.777 0 0 1 13.119 23.96H284c2.21 0 4 1.787 4 3.993v135.77a3.997 3.997 0 0 1-4 3.994H124c-2.21 0-4-1.788-4-3.993V164.236a3.997 3.997 0 0 1 4-3.994h22.158a59.777 59.777 0 0 1 13.12-23.96H156c-2.21 0-4-1.787-4-3.993v-19.967h-25.71l-.314.549c-9.673 17.003-15.664 37.091-18.855 60.7l-.155 1.164a319.62 319.62 0 0 0-1.116 9.643l-.11 1.123c-1.369 14.223-1.722 28.694-1.74 52.692v1.915c0 45.257-72 45.257-72 0 0-35.817 18.6-83.627 47.685-132.356l2.05-3.416 88.468.001a143.527 143.527 0 0 0-10.603-8.786c-10.288-7.703-20.402-12.938-29.612-14.61a34.056 34.056 0 0 0-5.343-.557l-.645-.007H92c-2.21 0-4-1.788-4-3.993a3.996 3.996 0 0 1 3.8-3.989l.2-.005h32c2.423 0 4.898.236 7.42.693 10.65 1.934 21.787 7.698 32.98 16.079a153.06 153.06 0 0 1 16.776 14.625l.534.549H192V84.37c0-3.06 1.172-5.998 3.269-8.218l.246-.253 60-59.899ZM280 168.229H128v127.784h152V168.23Zm-162.846-55.907H86.271l-.563.947c-27.634 46.617-45.344 92.217-45.702 125.804L40 240.108c0 34.608 56 34.608 56 0l.009-6.602c.055-19.414.385-32.465 1.41-44.792l.106-1.251.055-.624.114-1.246c.039-.416.078-.83.119-1.245l.124-1.244c.02-.208.042-.415.064-.623l.132-1.246c.246-2.286.52-4.588.824-6.94l.077-.593c3.011-23.05 8.592-43.032 17.558-60.31l.562-1.07ZM204 185.803l3.592 4.476C221.172 207.281 228 219.647 228 228.128c0 13.232-10.745 23.96-24 23.96s-24-10.728-24-23.96c0-8.578 6.986-21.132 20.879-38.437l3.121-3.888Zm0 12.846-.203.264C193.246 212.627 188 222.56 188 228.128c0 8.822 7.163 15.973 16 15.973s16-7.151 16-15.973c0-5.42-4.97-14.974-14.964-28.126L204 198.65Zm33.227-62.367h-66.455l-.405.34a51.974 51.974 0 0 0-15.644 22.968l-.207.624-.009.027h98.985l-.215-.651a51.974 51.974 0 0 0-15.644-22.968l-.406-.34ZM248 112.323h-88v15.973h7.967l.003-.002h72.06l.003.002H248v-15.973Zm8.172-85.684-55 54.907-.156.165a3.99 3.99 0 0 0-1.008 2.414l-.008.245v19.966h8V86.023l53.828-53.737-5.656-5.647Z"/></g></svg>