<svg xmlns="http://www.w3.org/2000/svg" width="320" height="320" viewBox="0 0 320 320"><g id="Foundations/Icons/Brand-Icons/Charts-and-Graphs/08-refresh" fill="none" fill-rule="evenodd" stroke="none" stroke-width="1"><ellipse id="lg-icon-fill-primary" cx="159.775" cy="157.043" fill="#FFD500" rx="89" ry="90"/><path id="Outlines" fill="#000" d="M294.512 168.691a4 4 0 0 1 4.973 1.102c.106.124.203.254.29.39l16 26.69.01.05a4 4 0 1 1-6.85 4.12l-10.41-17.38c-6.442 55.391-44.767 101.856-97.92 118.72a142.88 142.88 0 0 1-43.11 6.63c-4.593 0-9.166-.22-13.72-.66a141.23 141.23 0 0 1-52.56-15.96 142.51 142.51 0 0 1-42.08-34.08 141 141 0 0 1-26.52-48.2 142.28 142.28 0 0 1-5.85-28.11 4 4 0 1 1 7.95-.84 134.61 134.61 0 0 0 5.53 26.54 133 133 0 0 0 25 45.46 134.54 134.54 0 0 0 39.72 32.17 133.15 133.15 0 0 0 49.68 15 135.32 135.32 0 0 0 53.64-5.64c50.974-16.191 87.41-61.183 92.65-114.41a.66.66 0 0 1 0-.15l-19.18 11.52a3.92 3.92 0 0 1-2.05.57 4 4 0 0 1-2.07-7.43l26.69-16ZM163.775 61.043v.09c51.355 2.226 91.844 44.507 91.844 95.91s-40.489 93.685-91.844 95.91v.09h-8v-.09c-51.355-2.225-91.844-44.507-91.844-95.91s40.49-93.684 91.844-95.91v-.09h8Zm-8 144.6-31.19.04a105.18 105.18 0 0 0 6.54 15.56c6.94 13.18 15.74 21.46 24.65 23.4v-39Zm39.19-.04h-31.19v39c8.91-1.94 17.71-10.22 24.65-23.44a105.18 105.18 0 0 0 6.54-15.56Zm38.13.04h-29.74c-4.72 15.24-11.59 27.79-19.82 36.14a88.33 88.33 0 0 0 49.56-36.14Zm-116.9 0h-29.74a88.33 88.33 0 0 0 49.56 36.14c-8.23-8.35-15.1-20.9-19.82-36.14Zm-6.9-44.6h-37.43a87.6 87.6 0 0 0 9.85 36.6h32.27a168.75 168.75 0 0 1-4.69-36.6Zm92.96 0h-38.48v36.56l33.55.04a159.36 159.36 0 0 0 4.93-36.6Zm45.43 0h-37.43a168.75 168.75 0 0 1-4.69 36.6h32.27a87.6 87.6 0 0 0 9.85-36.6Zm-91.91 0h-38.48a159.36 159.36 0 0 0 4.93 36.6h33.55v-36.6Zm81.58-45.47h-32a169 169 0 0 1 4.9 37.47h37.43a87.26 87.26 0 0 0-10.33-37.47Zm-40.26 0h-33.32v37.47h38.48a159 159 0 0 0-5.16-37.47Zm-41.32 0h-33.32a159 159 0 0 0-5.16 37.47h38.48v-37.47Zm-41.59 0h-32a87.26 87.26 0 0 0-10.32 37.47h37.43a169 169 0 0 1 4.89-37.47Zm5.72-98.94c54.772-17.346 114.6.021 151.57 44a140.88 140.88 0 0 1 26.52 48.19 142.38 142.38 0 0 1 5.85 28.12v-.02a4 4 0 1 1-7.95.83 133.49 133.49 0 0 0-70.26-104.16 133.15 133.15 0 0 0-49.68-15 134.83 134.83 0 0 0-53.64 5.64 132.77 132.77 0 0 0-24.15 10.37 134.16 134.16 0 0 0-53.45 54.37 132.71 132.71 0 0 0-15 49.29l18.12-10.89a4.001 4.001 0 1 1 4.12 6.86l-26.69 16a3.94 3.94 0 0 1-2.06.57 4.07 4.07 0 0 1-.5 0 4 4 0 0 1-2.93-1.91l-16-26.68a4 4 0 1 1 6.82-4.12l11.23 18.72a141.53 141.53 0 0 1 49.88-93.66 141 141 0 0 1 48.2-26.52Zm43.87 52.85v38.09h30.9a104.44 104.44 0 0 0-6.25-14.69c-6.94-13.18-15.74-21.46-24.65-23.4Zm-8 0c-8.91 1.94-17.71 10.22-24.65 23.4a104.44 104.44 0 0 0-6.25 14.69h30.9Zm27.76 2.82c8.07 8.19 14.84 20.42 19.55 35.27h29.43a88.35 88.35 0 0 0-48.98-35.27Zm-47.5 0h-.02a88.35 88.35 0 0 0-48.98 35.27h29.45c4.71-14.85 11.48-27.08 19.55-35.27Z"/></g></svg>