<svg xmlns="http://www.w3.org/2000/svg" width="320" height="320" viewBox="0 0 320 320"><g id="Foundations/Icons/Brand-Icons/House-and-Home/14-refridgerator" fill="none" fill-rule="evenodd" stroke="none" stroke-width="1"><path id="lg-icon-fill-primary" fill="#FFD500" d="M235.919 136.135v159.917H83.997V136.135H235.92ZM115.98 160.122h-7.996v71.963h7.996v-71.963ZM235.919 8.201v119.938H83.997V8.2H235.92ZM115.98 32.188h-7.996v71.963h7.996V32.188Z"/><path id="Half-tone" fill="#000" d="M223.955 256.073a3.998 3.998 0 1 1 0 7.996 3.998 3.998 0 0 1 0-7.996Zm0-31.984a3.998 3.998 0 1 1 0 7.996 3.998 3.998 0 0 1 0-7.996Zm0-31.983a3.998 3.998 0 1 1 0 7.996 3.998 3.998 0 0 1 0-7.996Zm0-31.984a3.998 3.998 0 1 1 0 7.996 3.998 3.998 0 0 1 0-7.996Zm0-63.967a3.998 3.998 0 1 1 0 7.996 3.998 3.998 0 0 1 0-7.996Zm0-31.983a3.998 3.998 0 1 1 0 7.996 3.998 3.998 0 0 1 0-7.996Zm0-31.984a3.998 3.998 0 1 1 0 7.996 3.998 3.998 0 0 1 0-7.996Z"/><path id="Outlines" fill="#000" d="m83.724.195.273.01H235.92c.273-.015.546-.015.82 0 .772.1 1.527.312 2.238.63a7.816 7.816 0 0 1 2 1.199c.198.16.388.33.569.51a7.876 7.876 0 0 1 2.369 5.657v287.851a8.113 8.113 0 0 1-2.3 5.657c-.18.18-.37.35-.569.51a7.816 7.816 0 0 1-1.999 1.2 8.05 8.05 0 0 1-2.289.59 7.376 7.376 0 0 1-.82 0v7.995a7.996 7.996 0 0 1-7.995 7.996h-23.988a7.996 7.996 0 0 1-7.996-7.996v-7.996h-71.963v7.996a7.996 7.996 0 0 1-7.995 7.996H92.013a7.996 7.996 0 0 1-7.996-7.996v-7.996a7.376 7.376 0 0 1-.82 0 7.996 7.996 0 0 1-2.288-.59 7.816 7.816 0 0 1-2-1.199 7.996 7.996 0 0 1-1.539-1.699 7.881 7.881 0 0 1-1.37-4.468V8.201a7.881 7.881 0 0 1 1.35-4.508 7.996 7.996 0 0 1 1.54-1.699 7.816 7.816 0 0 1 1.999-1.2c.73-.308 1.5-.507 2.288-.59a8.01 8.01 0 0 1 .82 0Zm32.257 303.853H91.993v7.996h23.988v-7.996Zm111.942 0h-23.988v7.996h23.988v-7.996Zm7.996-167.913H83.997v159.917H235.92V136.135ZM115.98 152.127a7.996 7.996 0 0 1 7.992 7.746l.003.25v71.962a7.996 7.996 0 0 1-7.746 7.992l-.25.004h-7.995a7.996 7.996 0 0 1-7.992-7.747l-.004-.249v-71.963a7.996 7.996 0 0 1 7.747-7.992l.249-.003h7.996Zm0 7.995h-7.996v71.963h7.996v-71.963ZM235.919 8.201H83.997v119.938H235.92V8.2ZM115.98 24.193a7.996 7.996 0 0 1 7.992 7.746l.003.25v71.962a7.996 7.996 0 0 1-7.746 7.992l-.25.004h-7.995a7.996 7.996 0 0 1-7.992-7.747l-.004-.249V32.188a7.996 7.996 0 0 1 7.747-7.992l.249-.003h7.996Zm0 7.995h-7.996v71.963h7.996V32.188Z"/></g></svg>