<svg xmlns="http://www.w3.org/2000/svg" width="320" height="320" viewBox="0 0 320 320"><g id="Foundations/Icons/Brand-Icons/Charts-and-Graphs/16-reload" fill="none" fill-rule="evenodd" stroke="none" stroke-width="1"><path id="lg-icon-fill-primary" fill="#FFD500" d="M182.03 283.2a128.592 128.592 0 0 1-24 2.26c-51.785.089-98.51-31.067-118.337-78.907-19.826-47.84-8.84-102.914 27.827-139.483 1.15-1.15 2.38-2.33 3.78-3.62l6.11-5.63-5.87-5.89-2.73-2.75-11.5-11.55 52.72.1V90.4L98.31 78.83l-4.18-4.2-5.36-5.4-5.66 5.1c-1.57 1.41-3 2.73-4.27 4a111.7 111.7 0 0 0-24 35.58 110.54 110.54 0 0 0-6.53 21 112.7 112.7 0 0 0 0 45.11 110.64 110.64 0 0 0 6.53 21 112.14 112.14 0 0 0 10.32 19 112.67 112.67 0 0 0 30.25 30.22 111.47 111.47 0 0 0 40.06 16.85 113.24 113.24 0 0 0 45.12 0l1.44-.3v16.41Z"/><path id="Outlines" fill="#000" d="m47.175 29.604.145.006h.35l66.36.12c.53 0 1.054.108 1.54.32.24.097.468.221.68.37.212.14.41.301.59.48a4.7 4.7 0 0 1 .49.6 3.94 3.94 0 0 1 .68 2.23v66.3a4 4 0 0 1-.08.78 1.6 1.6 0 0 1 0 .21 4.68 4.68 0 0 1-.17.53 1.34 1.34 0 0 0-.07.18 4 4 0 0 1-.35.61l-.06.07a3.57 3.57 0 0 1-.4.46l-.15.14-.42.32-.14.1a4.92 4.92 0 0 1-.61.3h-.13c-.174.06-.35.11-.53.15h-.21a4.87 4.87 0 0 1-.55.06H114a3.88 3.88 0 0 1-.67-.06h-.14a2.46 2.46 0 0 1-.51-.15l-.21-.08-.45-.24-.19-.11a3.69 3.69 0 0 1-.58-.48L92.7 84.49l-4.21-4.22a89.202 89.202 0 0 0-4 3.76 104.76 104.76 0 0 0-12.66 15.41 113.578 113.578 0 0 0-2.7 4.22 103.09 103.09 0 0 0-6.89 13.44c-.37.77-.69 1.56-1 2.34-.93 2.36-1.77 4.77-2.53 7.21-.51 1.62-.98 3.27-1.41 4.93-.42 1.647-.807 3.313-1.16 5-.17.84-.33 1.69-.49 2.55-.3 1.7-.55 3.43-.78 5.16-.23 1.73-.4 3.48-.54 5.24-.2 2.667-.3 5.333-.3 8a104.84 104.84 0 0 0 2.1 20.94 103.52 103.52 0 0 0 4.2 14.79c.58 1.59 1.21 3.16 1.86 4.72a103.42 103.42 0 0 0 9.59 17.66c1.88 2.76 3.88 5.44 6 8 2.12 2.56 4.32 5.03 6.71 7.38 2.39 2.35 4.83 4.57 7.39 6.71a99.27 99.27 0 0 0 8 6 103.89 103.89 0 0 0 17.71 9.58c1.55.65 3.13 1.27 4.72 1.86a105.36 105.36 0 0 0 14.8 4.19c.85.18 1.7.34 2.55.49.85.15 1.71.3 2.57.43 1.72.26 3.46.48 5.21.66 3.49.35 7 .53 10.63.53a103.27 103.27 0 0 0 20.96-2.11c.9-.19 1.83-.39 2.8-.61a103.56 103.56 0 0 0 8.24-2.3v33.18c-2.57.64-5.16 1.17-7.78 1.64s-5.27.87-7.93 1.19a136.71 136.71 0 0 1-69.23-9.71c-2-.86-4-1.77-6-2.73-1-.46-2-.96-3-1.46-2.94-1.507-5.81-3.11-8.61-4.81a139.887 139.887 0 0 1-10.85-7.33c-1.75-1.27-3.46-2.62-5.14-4a138.364 138.364 0 0 1-9.66-8.77 135.8 135.8 0 0 1 0-192.24c1.3-1.31 2.64-2.58 4-3.84l-2.74-2.75-18.29-18.34c-.12-.12-.22-.25-.32-.37l-.1-.12c-.08-.12-.19-.32-.22-.37-.03-.05-.05-.07-.1-.16s-.09-.18-.12-.27c-.03-.09-.11-.22-.11-.28 0-.06.03-.04 0-.17s-.09-.33-.09-.39V33a3.4 3.4 0 0 1 .07-.34 1.09 1.09 0 0 1 0-.17c.04-.12.08-.25.13-.37l.06-.14c.06-.12.12-.25.19-.36l.09-.14c.08-.11.15-.23.23-.33l.11-.12a2.61 2.61 0 0 1 .27-.3l.14-.21a3.61 3.61 0 0 1 .3-.25l.18-.11.32-.19.22-.08.33-.14.26-.06.35-.08c.096-.008.193-.008.29 0Zm98.575-2.634a137.53 137.53 0 0 1 40.36 1.15 135.119 135.119 0 0 1 28.88 8.57c2 .86 4 1.77 6 2.73.95.46 1.95.96 2.95 1.46 2.94 1.507 5.81 3.11 8.61 4.81.94.57 1.86 1.15 2.78 1.74 1.84 1.17 3.65 2.4 5.43 3.66.89.63 1.77 1.27 2.64 1.93a135.77 135.77 0 0 1 25.62 25 135.21 135.21 0 0 1 14.13 22c1.5 2.947 2.897 5.947 4.19 9l-.12.03a135.89 135.89 0 0 1 0 105.82 137.9 137.9 0 0 1-4.19 9 137 137 0 0 1-24.95 34.23c-1.3 1.31-2.64 2.58-4 3.84l2.74 2.75 18.3 18.39a6.4 6.4 0 0 1 .42.49c.044.068.084.138.12.21a2.8 2.8 0 0 1 .2.32c.07.05.07.1.07.15a2.78 2.78 0 0 1 .22.62c.03.12.08.28.08.34v.74c.01.133.01.267 0 .4v.14a2.7 2.7 0 0 1-.08.41v.12c-.05.14-.08.37-.15.42-.07.05-.07.09-.07.14a2 2 0 0 1-.18.36c-.03.06-.03.06-.1.16s-.14.21-.22.31l-.13.14a3.33 3.33 0 0 1-.25.28l-.18.15c-.09.07-.17.15-.26.21l-.21.13-.29.17-.55.22-.29.07c-.11.02-.21.07-.32.07a3.999 3.999 0 0 1-.31 0h-.33l-66.36-.12a4 4 0 0 1-4-4v-66.26a4 4 0 0 1 .08-.78 1.6 1.6 0 0 1 0-.21 3.27 3.27 0 0 1 .17-.53 1.34 1.34 0 0 0 .07-.18 4 4 0 0 1 .35-.61l.06-.07a4.55 4.55 0 0 1 .4-.46l.15-.14.42-.32.14-.1c.196-.114.4-.214.61-.3l.13-.05c.174-.06.35-.11.53-.15h.21c.182-.03.366-.05.55-.06h.14c.221 0 .442.02.66.06h.16c.172.031.34.082.5.15l.21.08c.154.072.304.152.45.24l.19.11c.21.14.403.3.58.48l18.55 18.33 4.21 4.22c1.38-1.22 2.71-2.47 4-3.76a104.45 104.45 0 0 0 9.8-11.3c1-1.34 1.96-2.7 2.9-4.08.927-1.38 1.827-2.787 2.7-4.22 1.74-2.86 3.34-5.803 4.8-8.83.73-1.52 1.43-3.05 2.09-4.61.37-.77.69-1.56 1-2.34a104.046 104.046 0 0 0 3.26-9.66 100.303 100.303 0 0 0 2.75-12.63c.26-1.72.48-3.45.66-5.2.18-1.75.31-3.51.4-5.28.09-1.77.14-3.56.14-5.35 0-1.79-.05-3.58-.14-5.35-.09-1.77-.23-3.54-.4-5.28-.17-1.74-.4-3.48-.66-5.2-.26-1.72-.57-3.42-.91-5.12-.52-2.5-1.13-5.04-1.84-7.5a102.83 102.83 0 0 0-4.22-12 103.502 103.502 0 0 0-6.89-13.44c-.87-1.43-1.77-2.83-2.7-4.22a105.35 105.35 0 0 0-12.7-15.38 106.619 106.619 0 0 0-7.39-6.71c-1.28-1.08-2.6-2.08-3.93-3.08s-2.68-1.96-4.07-2.9c-1.39-.94-2.79-1.84-4.22-2.71a106.51 106.51 0 0 0-8.84-4.79c-1.52-.73-3.06-1.44-4.61-2.09-1.55-.65-3.13-1.23-4.72-1.86-1.59-.63-3.2-1.12-4.83-1.63-1.63-.51-3.28-.97-4.94-1.4a87.873 87.873 0 0 0-5-1.16 98.34 98.34 0 0 0-7.71-1.28 105.33 105.33 0 0 0-13.25-.83 103.27 103.27 0 0 0-20.96 2.11 101.7 101.7 0 0 0-11 2.91V29.8l1.287-.311a124.98 124.98 0 0 1 6.493-1.329c2.62-.47 5.27-.87 7.93-1.19ZM57.31 37.63l11.5 11.55 2.73 2.75 5.87 5.89-6.11 5.63c-1.4 1.29-2.63 2.47-3.78 3.62-36.666 36.57-47.653 91.644-27.827 139.483 19.827 47.84 66.552 78.996 118.337 78.907 8.053 0 16.088-.757 24-2.26v-16.41l-1.44.3a113.24 113.24 0 0 1-45.12 0 111.47 111.47 0 0 1-40.06-16.85 112.67 112.67 0 0 1-30.25-30.22 112.14 112.14 0 0 1-10.32-19 110.64 110.64 0 0 1-6.53-21 112.7 112.7 0 0 1 0-45.11 110.54 110.54 0 0 1 6.53-21 111.7 111.7 0 0 1 24-35.58c1.27-1.27 2.7-2.59 4.27-4l5.66-5.1 5.36 5.4 4.18 4.2 11.72 11.57V37.73l-52.72-.1ZM162.03 34c-8.053 0-16.089.757-24 2.26v16.41l1.44-.3a113.24 113.24 0 0 1 45.12 0 111.47 111.47 0 0 1 40.06 16.85 112.67 112.67 0 0 1 30.25 30.22 112.14 112.14 0 0 1 10.32 19 110.64 110.64 0 0 1 6.53 21 112.7 112.7 0 0 1 0 45.11 110.54 110.54 0 0 1-6.53 21 111.7 111.7 0 0 1-24 35.58c-1.27 1.27-2.7 2.59-4.27 4l-5.66 5.1-5.36-5.4-4.18-4.2-11.72-11.57v52.67l52.77.1-11.5-11.55-2.73-2.75-5.87-5.89 6.11-5.63c1.4-1.29 2.63-2.47 3.78-3.62a127.54 127.54 0 0 0 27.44-40.66A128 128 0 0 0 162.03 34Z"/></g></svg>