<svg width="320" height="320" viewBox="0 0 320 320" xmlns="http://www.w3.org/2000/svg"><g id="Foundations/Icons/Brand-Icons/Online/33-remove-document" stroke="none" stroke-width="1" fill="none" fill-rule="evenodd"><ellipse id="lg-icon-fill-primary" fill="#FFD500" cx="252" cy="84.5" rx="44" ry="44.5"/><path d="M212 280a4 4 0 1 1 0 8 4 4 0 0 1 0-8Zm-32 0a4 4 0 1 1 0 8 4 4 0 0 1 0-8Zm-32 0a4 4 0 1 1 0 8 4 4 0 0 1 0-8Zm-32 0a4 4 0 1 1 0 8 4 4 0 0 1 0-8Zm-32 0a4 4 0 1 1 0 8 4 4 0 0 1 0-8Z" id="Half-tone" fill="#000"/><path d="M247.695 8a8.31 8.31 0 0 1 8.34 8.3v15.83a51.558 51.558 0 0 1 18.54 5c1.52.73 2.99 1.53 4.42 2.4 1.43.87 2.82 1.8 4.15 2.8 1.339 1 2.622 2.06 3.849 3.18l-.04-.06a52 52 0 0 1 0 77 53.239 53.239 0 0 1-3.85 3.18 52.172 52.172 0 0 1-8.57 5.2 51.558 51.558 0 0 1-18.54 5V303.7a8.31 8.31 0 0 1-8.299 8.3H56.3a8.31 8.31 0 0 1-8.3-8.3V16.3A8.31 8.31 0 0 1 56.3 8Zm0 8.3H56.3v287.4h191.395l-.04-167.89a51.518 51.518 0 0 1-22.66-7.34c-1.43-.87-2.82-1.8-4.15-2.8-1.333-1-2.616-2.06-3.85-3.18A52 52 0 0 1 203.997 104H76a4 4 0 0 1 0-8h125.407a51.901 51.901 0 0 1 6.78-40H75.999a4 4 0 0 1 0-8h138.497c.82-.86 1.66-1.69 2.54-2.49 1.23-1.12 2.52-2.18 3.85-3.18s2.72-1.93 4.15-2.8a48.651 48.651 0 0 1 4.42-2.4 51.518 51.518 0 0 1 18.239-4.94V16.3Zm-19.7 223.7a4 4 0 0 1 0 8H76a4 4 0 0 1 0-8Zm0-48a4 4 0 0 1 0 8H76a4 4 0 0 1 0-8Zm0-48a4 4 0 0 1 0 8H76a4 4 0 0 1 0-8Zm24-104c-24.3 0-43.999 19.7-43.999 44s19.699 44 43.999 44c24.288-.027 43.971-19.71 43.999-44 0-24.3-19.7-44-44-44Zm22.5 17.497a4 4 0 0 1 2.83 1.173 4 4 0 0 1 0 5.66L257.654 84l19.67 19.67a4.002 4.002 0 0 1-5.66 5.66l-19.67-19.67-19.67 19.67a4.002 4.002 0 1 1-5.66-5.66L246.335 84l-19.67-19.67a4.002 4.002 0 0 1 5.66-5.66l19.67 19.67 19.67-19.67a4 4 0 0 1 2.83-1.173Z" id="Outlines" fill="#000"/></g></svg>