<svg width="320" height="320" viewBox="0 0 320 320" xmlns="http://www.w3.org/2000/svg"><g id="Foundations/Icons/Brand-Icons/Online/11-reoccurring-notification" stroke="none" stroke-width="1" fill="none" fill-rule="evenodd"><circle id="lg-icon-fill-primary" fill="#FFD500" cx="237" cy="81" r="69"/><path d="M48 256a4 4 0 1 1 0 8 4 4 0 0 1 0-8Zm32 0a4 4 0 1 1 0 8 4 4 0 0 1 0-8Zm32 0a4 4 0 1 1 0 8 4 4 0 0 1 0-8Zm32 0a4 4 0 1 1 0 8 4 4 0 0 1 0-8Zm32 0a4 4 0 1 1 0 8 4 4 0 0 1 0-8Zm32 0 .2.005a4 4 0 1 1-.2-.005Zm32 0a4 4 0 1 1 0 8 4 4 0 0 1 0-8Zm32 0a4 4 0 1 1 0 8 4 4 0 0 1 0-8ZM32 240a4 4 0 1 1 0 8 4 4 0 0 1 0-8Zm32 0a4 4 0 1 1 0 8 4 4 0 0 1 0-8Zm32 0a4 4 0 1 1 0 8 4 4 0 0 1 0-8Zm32 0a4 4 0 1 1 0 8 4 4 0 0 1 0-8Zm32 0a4 4 0 1 1 0 8 4 4 0 0 1 0-8Zm32 0 .2.005a4 4 0 1 1-.2-.005Zm32 0a4 4 0 1 1 0 8 4 4 0 0 1 0-8Zm32 0a4 4 0 1 1 0 8 4 4 0 0 1 0-8Z" id="Half-tone" fill="#000"/><path d="M236.11 8c35.032.07 64.93 25.345 70.828 59.878 5.898 34.532-13.915 68.298-46.938 79.992v40.62l28.91 26.55c.09.072.174.152.25.24 4.7 4.72 7.29 7.3 8.93 10.64C300 229.73 300 233.2 300 238v25.17c-.01 9.255-7.485 16.77-16.74 16.83h-84c-3.74 18.95-20.77 32-43.22 32s-39.48-13.05-43.22-32h-84c-9.267-.016-16.782-7.513-16.82-16.78v-26.204c.01-4.346.132-7.602 1.91-11.186 1.64-3.29 4.23-5.89 8.93-10.59a1.88 1.88 0 0 1 .25-.24L52 188.53v-70a95.42 95.42 0 0 1 14.15-43.38 85.46 85.46 0 0 1 31.54-29.81 101.52 101.52 0 0 1 26.65-10c2.122-14.369 13.655-25.506 28.088-27.126 14.434-1.62 28.148 6.685 33.402 20.226A71.76 71.76 0 0 1 236 8ZM191.1 280H121c3.68 15.08 17.95 24 35 24s31.32-8.92 35.1-24ZM156 40c-93.5 0-96 78.79-96 78.79V192l-31.5 28.93-2.81 2.82a31.38 31.38 0 0 0-4.18 4.89c-1.34 2.16-1.51 4.05-1.51 7.81v26.72c0 .889.134 1.772.4 2.62a8 8 0 0 0 .29.82 9.48 9.48 0 0 0 .82 1.5c.241.353.509.687.8 1a8.2 8.2 0 0 0 .9.87 8.81 8.81 0 0 0 5.61 2h254.36a8.81 8.81 0 0 0 5.61-2 8.2 8.2 0 0 0 .9-.87 8.55 8.55 0 0 0 .8-1 9.48 9.48 0 0 0 .82-1.5 8 8 0 0 0 .29-.82 8.75 8.75 0 0 0 .4-2.62v-26.72c-.02-3.76-.17-5.65-1.51-7.81a31.38 31.38 0 0 0-4.18-4.89l-2.81-2.82L252 192v-41.82a71.54 71.54 0 0 1-16 1.82h-.11a72 72 0 0 1-60.52-110.75A144.31 144.31 0 0 0 156 40Zm77.313-23.913-.553.013c-.55.03-.98.08-1.55.12-.57.04-1.18.08-1.69.13s-.94.12-1.51.19c-.57.07-1.22.14-1.7.21-.48.07-.95.17-1.43.25l-1.72.31c-.45.09-.9.21-1.36.31l-1.73.4c-.43.11-.85.24-1.28.36-.59.17-1.18.32-1.76.5l-1.19.4c-.59.2-1.2.39-1.78.61-.38.13-.75.29-1.12.44-.6.23-1.2.45-1.79.7-.33.14-.67.31-1 .46-.61.27-1.23.53-1.83.82-.36.15-.68.33-1 .49-.6.3-1.2.6-1.8.92l-.91.52c-.59.31-1.19.64-1.77 1-.28.17-.55.36-.84.53-.59.37-1.18.74-1.75 1.13-.26.17-.51.36-.76.53-.59.41-1.18.82-1.75 1.25-.24.17-.46.36-.69.54-.58.44-1.17.89-1.73 1.36-.23.18-.44.38-.66.57-.56.43-1.12.94-1.66 1.43l-.64.61c-.54.51-1.07.99-1.59 1.51l-.57.6c-.55.53-1.05 1.07-1.55 1.62-.18.19-.34.4-.52.6-.49.57-1.01 1.13-1.49 1.72l-.48.6h.02c-.48.6-.96 1.16-1.47 2.03l-.5.7c-.44.6-.87 1.19-1.29 1.81l-.45.7c-.41.62-.82 1.25-1.22 1.89l-.37.65c-.4.64-.79 1.31-1.17 2-.14.25-.26.51-.39.76-.33.67-.68 1.33-1 2-.15.3-.28.62-.42.93-.3.63-.6 1.26-.87 1.9-.12.29-.23.58-.34.87-.28.64-.55 1.31-.81 2-.11.3-.21.62-.31.93-.24.63-.48 1.31-.7 2-.1.34-.18.68-.28 1-.2.68-.4 1.36-.58 2.05-.09.3-.16.65-.25 1-.16.64-.33 1.32-.47 2-.08.37-.13.73-.2 1.1-.13.63-.26 1.31-.37 2-.07.44-.11.89-.17 1.34-.08.62-.19 1.32-.24 1.86l-.12 1.62c-.05.54-.13 1.22-.13 1.63v1.24c-.06.68-.06 1.36-.06 2.05 0 5.153.624 10.287 1.86 15.29a62.81 62.81 0 0 0 2 6.72c.36.98.74 1.95 1.14 2.91.81 1.92 1.71 3.79 2.69 5.6.98 1.81 2.04 3.58 3.19 5.28 1.15 1.7 2.38 3.35 3.68 4.93.64.79 1.31 1.57 2 2.33 1.33 1.52 2.82 2.97 4.33 4.35.76.68 1.53 1.35 2.32 2a61.438 61.438 0 0 0 4.92 3.69 63.46 63.46 0 0 0 10.95 5.9 62.7 62.7 0 0 0 8.91 3c1.02.26 2.05.5 3.09.72a64.51 64.51 0 0 0 12.9 1.32h3.34l1.65-.12c.53-.04 1.06-.08 1.6-.13s1.08-.13 1.61-.2 1.05-.12 1.59-.2c.54-.08 1.03-.19 1.59-.28.56-.09 1.05-.17 1.56-.28l1.55-.35c.55-.12 1.04-.23 1.55-.36h.06l.278-.073c.361-.1.694-.207 1.142-.327.56-.15 1.12-.29 1.56-.44.44-.15.91-.32 1.44-.49.53-.17 1.06-.34 1.53-.51.47-.17.87-.35 1.39-.55.52-.2 1.08-.42 1.52-.6.44-.18.77-.35 1.3-.58.53-.23 1.11-.5 1.53-.7.42-.2.76-.39 1.26-.64s1.09-.55 1.5-.77c.41-.22.72-.39 1.2-.68.48-.29 1-.56 1.48-.85l1.13-.73c.47-.31.99-.61 1.47-.93l1-.74c.47-.35.99-.69 1.47-1.05.35-.24.56-.38 1-.76.44-.38.97-.74 1.44-1.13l.91-.79c.47-.41.95-.8 1.41-1.22.29-.26.57-.54.85-.81.46-.43.93-.86 1.38-1.31.26-.26.51-.53.76-.8.46-.42.92-.93 1.36-1.42l.69-.79c.44-.52.89-1.01 1.32-1.52.23-.28.44-.57.66-.84.42-.53.84-1.04 1.24-1.58.22-.29.43-.6.64-.9.39-.53.78-1.06 1.15-1.6.2-.3.38-.61.58-.91.36-.56.74-1.12 1.08-1.69.18-.29.34-.59.52-.89.32-.59.67-1.18 1-1.78.18-.32.34-.67.51-1 .31-.58.62-1.16.9-1.75.18-.36.33-.72.5-1.08.26-.59.54-1.16.79-1.75.15-.35.28-.71.42-1.07.25-.61.5-1.22.73-1.84.12-.33.22-.67.33-1 .23-.67.47-1.33.68-2 .11-.37.21-.75.32-1.13.18-.63.38-1.26.54-1.9.11-.42.2-.85.3-1.27.14-.61.29-1.21.42-1.82.08-.39.14-.78.21-1.17.12-.68.26-1.33.36-2 .07-.46.1-.78.18-1.38.08-.6.18-1.28.23-1.82l.12-1.62c.05-.54.13-1.22.13-1.63v-1.24c.06-.68.06-1.36.06-2.05a63.674 63.674 0 0 0-7.68-30.52 65.48 65.48 0 0 0-3.19-5.28 64.76 64.76 0 0 0-12.29-13.57 64.801 64.801 0 0 0-4.92-3.69 62.09 62.09 0 0 0-7.1-4.15c-.6-.31-1.21-.6-1.82-.89a63.88 63.88 0 0 0-26.89-5.9h-1.68c-.56 0-1.12-.03-1.67 0ZM203.96 82.79c2.035-.4 4.01.925 4.41 2.96A28.49 28.49 0 0 0 210 91l.279.641a27.61 27.61 0 0 0 2.391 4.259c.42.65.92 1.29 1.42 1.9l.25.3c.49.57.97 1.12 1.49 1.64.07.07.12.14.19.2a1.8 1.8 0 0 0 .2.19c.52.48 1.06 1.01 1.63 1.48.11.09.21.19.32.27A28.42 28.42 0 0 0 225 106a27.78 27.78 0 0 0 5.33 1.84h.22l1.16.2.43.06 1 .12h.54l.88.06H236a28.14 28.14 0 0 0 20-8.28 27.39 27.39 0 0 0 3.46-4.25H244a3.75 3.75 0 1 1 0-7.5h24a3.75 3.75 0 0 1 3.76 3.75v24a3.75 3.75 0 1 1-7.5 0v-14.2a37.63 37.63 0 0 1-3 3.36 35.63 35.63 0 0 1-25.29 10.48h-2.52l-.188-.011-.393-.029-.499-.04c-.25-.02-.49-.09-.73-.09l-1-.13c-.35-.05-.68-.12-1-.18l-.77-.13h-.07c-.47-.09-.93-.2-1.4-.32l-.25-.06a35.48 35.48 0 0 1-16.43-9.36 36.82 36.82 0 0 1-4.36-5.29A35.31 35.31 0 0 1 201 87.2a3.756 3.756 0 0 1 2.96-4.41Zm.02-42.54a3.75 3.75 0 0 1 3.75 3.75v14.16a36.11 36.11 0 0 1 3-3.36 35.63 35.63 0 0 1 25.29-10.48h1.8l.69.05c.37.02.74.08 1.11.08l.7.09 1.08.13 1 .17.79.14h.07c.46.09.93.2 1.39.32.085.014.168.034.25.06a35.55 35.55 0 0 1 16.44 9.36 36.82 36.82 0 0 1 4.36 5.29 36.4 36.4 0 0 1 3.3 6.07 35.81 35.81 0 0 1 2 6.72 3.74 3.74 0 0 1-2.9 4.43 3.34 3.34 0 0 1-.76.08 3.75 3.75 0 0 1-3.67-3 27.31 27.31 0 0 0-1.62-5.23 28.16 28.16 0 0 0-2.73-5c-.39-.64-.9-1.26-1.39-1.86l-.27-.33c-.48-.56-.96-1.1-1.48-1.62l-.19-.21-.21-.2a25.974 25.974 0 0 0-1.62-1.47l-.33-.27c-.61-.5-1.24-.98-1.89-1.42A28.48 28.48 0 0 0 247 54a27.57 27.57 0 0 0-5.38-1.88h-.18c-.4-.08-.79-.15-1.2-.21h-.39c-.33-.05-.66-.13-1-.13h-.54c-.29-.06-.66-.06-.88-.06H236A28.18 28.18 0 0 0 216 60a28.59 28.59 0 0 0-3.47 4.25H228a3.75 3.75 0 1 1 0 7.5h-24a3.75 3.75 0 0 1-3.77-3.75V44a3.75 3.75 0 0 1 3.75-3.75ZM162 16.74a24.06 24.06 0 0 0-14.25.7 22.88 22.88 0 0 0-3.19 1.44c-.7.37-1.36.77-2 1.2-.64.43-1.26.89-1.85 1.38-.59.49-1.15 1.01-1.7 1.55s-1.06 1.1-1.55 1.7c-.49.6-.95 1.21-1.38 1.85a39.656 39.656 0 0 0-1.2 2 22.88 22.88 0 0 0-1.44 3.19h.02c-.24.64-.46 1.31-.61 2l1.246-.182a156 156 0 0 1 45.094.182l-.14-.514a20.04 20.04 0 0 0-.49-1.486 22.88 22.88 0 0 0-1.44-3.19c-.37-.7-.77-1.36-1.2-2-.43-.64-.89-1.26-1.38-1.85-.49-.59-1.01-1.15-1.55-1.7s-1.1-1.06-1.7-1.55c-.6-.49-1.21-.95-1.85-1.38a31.727 31.727 0 0 0-2-1.2 22.88 22.88 0 0 0-3.19-1.44 21.71 21.71 0 0 0-2.25-.7Z" id="Outlines" fill="#000"/></g></svg>