<svg width="320" height="320" viewBox="0 0 320 320" xmlns="http://www.w3.org/2000/svg"><g id="Foundations/Icons/Brand-Icons/Commands/19-refresh" stroke="none" stroke-width="1" fill="none" fill-rule="evenodd"><path d="M310.448 139.496a140.74 140.74 0 0 0-2.76-13.88 143.56 143.56 0 0 0-9.74-27.12 140.27 140.27 0 0 0-6.74-12.42c-2.4-4-5-7.82-7.81-11.51a147.75 147.75 0 0 0-8.81-10.55c-3.09-3.36-6.36-6.52-9.73-9.52s-6.89-5.86-10.52-8.51a140.7 140.7 0 0 0-23.11-13.72c-4.04-1.9-8.21-3.62-12.41-5.13a137.645 137.645 0 0 0-26.1-6.59c-4.44-.66-9-1.14-13.49-1.37-4.49-.23-9.14-.24-13.68 0-4.606.21-9.198.65-13.76 1.32a135.9 135.9 0 0 0-13.77 2.78 140 140 0 0 0-26.85 9.86 145.73 145.73 0 0 0-12.32 6.81c-3.97 2.45-7.76 5.09-11.41 7.89-3.65 2.8-7.13 5.77-10.49 8.89-3.36 3.12-6.45 6.39-9.44 9.77-2.99 3.38-5.8 7-8.43 10.61-2.63 3.61-5.13 7.48-7.35 11.39-2.22 3.91-4.36 7.89-6.24 12s-3.59 8.29-5.08 12.51c-1.49 4.22-2.8 8.61-3.88 13-.7 2.83-1.74 8.45-2.55 13.34l-18.44-37.61a4 4 0 0 0-7.18 3.52l23.87 48.56a4 4 0 0 0 2.33 2 3.86 3.86 0 0 0 1.26.2 4 4 0 0 0 1.82-.43l48.13-24.56a4 4 0 1 0-3.64-7.12l-40.92 20.9c.74-5.11 2.23-13.49 3.09-17 1-4.12 2.25-8.23 3.66-12.24 1.41-4.01 3-8 4.79-11.81 1.79-3.81 3.76-7.65 5.89-11.3 2.13-3.65 4.47-7.26 6.94-10.7 2.47-3.44 5.15-6.81 8-10 2.85-3.19 5.77-6.26 8.88-9.2 3.11-2.94 6.49-5.76 9.85-8.37 3.36-2.61 7.06-5.14 10.76-7.44a133.24 133.24 0 0 1 24-11.7 132 132 0 0 1 25.88-6.62c4.28-.64 8.64-1.07 13-1.28 4.29-.215 8.59-.215 12.88 0 4.23.22 8.51.65 12.72 1.29 4.21.64 8.37 1.47 12.46 2.51 4.09 1.04 8.16 2.27 12.13 3.69 3.97 1.42 7.89 3 11.7 4.83 3.81 1.83 7.57 3.79 11.19 5.93 3.62 2.14 7.19 4.51 10.6 7 3.41 2.49 6.75 5.2 9.91 8s6.26 5.86 9.16 9c2.9 3.14 5.71 6.51 8.3 10 2.59 3.49 5.1 7.13 7.37 10.85a131 131 0 0 1 6.35 11.72 135.37 135.37 0 0 1 9.23 25.53 133.65 133.65 0 0 1 3.87 26.19c.21 4.32.2 8.69 0 13-.2 4.31-.65 8.6-1.28 12.84s-1.46 8.44-2.48 12.58c-1.02 4.14-2.25 8.24-3.66 12.24-1.41 4-3 8-4.8 11.81-1.8 3.81-3.76 7.65-5.88 11.3a132.99 132.99 0 0 1-6.94 10.7c-2.47 3.44-5.16 6.82-8 10-2.84 3.18-5.82 6.32-8.92 9.24a128.92 128.92 0 0 1-9.86 8.37c-3.44 2.64-7.05 5.15-10.75 7.44a132 132 0 0 1-49.91 18.32c-4.27.64-8.64 1.07-13 1.28a128.88 128.88 0 0 1-12.89 0 131.026 131.026 0 0 1-37.3-7.49c-3.96-1.42-7.89-3-11.7-4.83-3.81-1.83-7.57-3.79-11.19-5.93-3.62-2.14-7.2-4.51-10.6-7-3.4-2.49-6.75-5.19-9.92-8-3.17-2.81-6.26-5.86-9.15-9-2.89-3.14-5.72-6.52-8.3-10-2.58-3.48-5.07-7.06-7.34-10.81a138.84 138.84 0 0 1-6.35-11.72c-1.92-4-3.71-8.28-5.25-12.53a4 4 0 1 0-7.52 2.71 143.74 143.74 0 0 0 5.56 13.29c2 4.24 4.3 8.42 6.73 12.42 2.43 4 5 7.82 7.82 11.51 2.82 3.69 5.71 7.19 8.81 10.55 3.1 3.36 6.33 6.52 9.71 9.52 3.38 3 6.89 5.86 10.51 8.51 3.62 2.65 7.39 5.14 11.24 7.42 3.85 2.28 7.84 4.4 11.87 6.3 4.03 1.9 8.22 3.63 12.41 5.13 4.19 1.5 8.54 2.82 12.87 3.91 4.33 1.09 8.79 2 13.22 2.66 4.43.66 9 1.14 13.5 1.37 2.35.12 4.72.18 7.09.18 2.2 0 4.397-.053 6.59-.16a138 138 0 0 0 13.77-1.32 136.46 136.46 0 0 0 13.77-2.78 140 140 0 0 0 26.85-9.86 140 140 0 0 0 12.31-6.79c3.93-2.44 7.77-5.09 11.41-7.89 3.64-2.8 7.14-5.77 10.46-8.89 3.32-3.12 6.48-6.38 9.47-9.79a141.715 141.715 0 0 0 15.79-21.95c2.26-3.88 4.35-7.89 6.24-12 1.89-4.11 3.59-8.28 5.07-12.51 1.48-4.23 2.8-8.61 3.88-13 1.08-4.39 2-8.88 2.64-13.34.64-4.46 1.12-9.07 1.35-13.6.23-4.53.24-9.22 0-13.8s-.65-9.25-1.32-13.8Z" id="Outlines" fill="#000"/></g></svg>