<svg xmlns="http://www.w3.org/2000/svg" width="120" height="120" fill="none" viewBox="0 0 120 120"><path fill="#FFD500" fill-rule="evenodd" d="M100.703 16.823c-4.208.475-8.339 1.834-12.192 3.44-5.82 2.422-10.626 6.479-14.11 11.625-3.956 5.842-6.113 15.688-6.159 25.258.295.002.601 0 .918-.005l.47-.01.485-.018.247-.01.506-.026a50.9 50.9 0 0 0 3.597-.336c4.25-.546 8.811-.867 12.712-2.583 5.836-2.565 14-9.392 17.416-14.688 3.706-5.745 4.957-13.838 4.968-22.969-1.727-.012-6.707.08-8.858.322Zm-60.572 11.69.002.158c.12 6.68 1.508 14.19 3.97 18.19l.123.195c2.25 3.565 5.324 6.037 9.04 7.587 3.91 1.631 11.051 2.848 14.707 2.624l.26-.018-.003-.133c-.34-11.588-4.695-21.016-11.877-24.83l-.228-.12c-2.774-1.433-8.821-3.038-11.958-3.424a29.853 29.853 0 0 0-3.686-.233l-.35.004Z" clip-rule="evenodd"/><path fill="#000" fill-rule="evenodd" d="M19.498 72.004a1.5 1.5 0 1 1 .002-3 1.5 1.5 0 0 1-.002 3ZM13.5 78.007a1.5 1.5 0 1 1 .001-3 1.5 1.5 0 0 1 0 3Zm6 6.003a1.5 1.5 0 1 1 0-3.001 1.5 1.5 0 0 1 0 3Zm-6 6.002a1.5 1.5 0 1 1 .001-3 1.5 1.5 0 0 1 0 3Zm6 6.003a1.5 1.5 0 1 1 0-3 1.5 1.5 0 0 1 0 3Z" clip-rule="evenodd"/><path fill="#000" fill-rule="evenodd" d="m109.716 15.043.441.023.091.006.752-.031c.461 11.053-1.702 19.931-6.136 26.805-3.754 5.822-9.008 10.02-15.354 12.81-4.186 1.839-8.646 2.98-13.163 3.561a50.365 50.365 0 0 1-6.425.43h-.17l-.002 22.36h5.559c3.06 0 5.57 2.498 5.751 5.638l20.278-8.188c.338-.127 3.046-1.083 4.991.266.762.528 1.671 1.604 1.671 3.725 0 4.677-4.576 7.296-5.721 7.878l-.11.055a1.06 1.06 0 0 0-.03.015C100.182 91.646 74.374 108 64.869 108c-8.65 0-23.527-6.873-28.973-9.539a4.505 4.505 0 0 1-4.399 3.556H10.5a4.506 4.506 0 0 1-4.499-4.501V67.502A4.506 4.506 0 0 1 10.5 63h11.998a4.507 4.507 0 0 1 4.243 3h4.756c2.481 0 4.5 2.02 4.5 4.502v.09c3.702-.112 18.544.13 27.29 10.414h3.463l.001-22.252c-4.096.266-8.71-.245-13.14-2.093-9.353-3.901-14.974-12.698-14.986-27.397l.002-.57.021-.122a1.838 1.838 0 0 1 1.143-1.399l.082-.03.183-.061.191-.014c1.549-.107 3.504-.085 5.786.196 3.468.426 6.853 1.376 9.97 2.987 5.526 2.857 9.61 7.446 11.834 13.97l.044.132.023-.107c1.076-4.993 2.882-9.34 5.362-13.068l.15-.223c3.833-5.66 9.109-9.701 15.441-12.338 4.135-1.722 8.537-2.77 13.009-3.275.883-.1 1.74-.176 2.564-.23l.613-.037a47.018 47.018 0 0 1 4.673-.033ZM69.75 84.103h-3v-.094h-4.215l-.027-.002h-.006l-.02-.001a1.325 1.325 0 0 1-.057-.005l-.03-.003a1.184 1.184 0 0 1-.05-.007l-.023-.004a1.043 1.043 0 0 1-.061-.012l-.012-.003-.06-.015-.024-.007a1.455 1.455 0 0 1-.329-.138l-.017-.01a1.07 1.07 0 0 1-.048-.03l-.008-.005-.008-.005-.044-.031-.018-.013a1.421 1.421 0 0 1-.158-.135l-.022-.02a2.424 2.424 0 0 1-.11-.126l.008.01c-7.815-9.765-22.27-9.934-25.415-9.848v21.56c3.743 1.87 20.201 9.84 28.873 9.84 2.49 0 8.164-1.479 21.056-8.526l.457-.25a284.273 284.273 0 0 0 13.177-7.749l.165-.103c.501-.314.803-.506.866-.547l.012-.007a1.573 1.573 0 0 1 .218-.117l.044-.021c.557-.278 4.136-2.184 4.136-5.231 0-.371-.049-1.026-.378-1.257-.448-.314-1.55-.168-2.186.059l-22.257 8.987-.017.007c-1.026 1.664-2.818 2.77-4.853 2.77H55.416a1.5 1.5 0 0 1 0-3.002H75.31c1.523 0 2.762-1.347 2.762-3.001 0-1.655-1.239-3.002-2.762-3.002h-5.56v.094Zm-38.253-15.1h-4.5v30.013h4.5c.828 0 1.5-.673 1.5-1.5V70.502c0-.827-.672-1.5-1.5-1.5ZM22.498 66H10.5c-.827 0-1.5.673-1.5 1.5v30.015c0 .827.673 1.5 1.5 1.5H24V67.502c0-.828-.673-1.5-1.5-1.5Zm19.483-35.99-.35.003.002.158c.12 6.68 1.508 11.941 3.97 15.94l.123.195c2.25 3.566 5.324 6.037 9.04 7.587 3.91 1.631 8.051 2.098 11.707 1.874l.26-.017-.003-.134c-.34-11.587-4.695-18.766-11.877-22.58l-.228-.119c-2.774-1.434-5.821-2.289-8.959-2.675a29.792 29.792 0 0 0-3.685-.232Zm60.222-11.686c-4.208.474-8.339 1.459-12.192 3.063-5.82 2.424-10.626 6.105-14.11 11.251-3.956 5.842-6.114 13.439-6.159 23.008.295.002.601 0 .918-.005l.47-.01.485-.017.247-.011.506-.026a50.906 50.906 0 0 0 3.597-.335c4.25-.546 8.436-1.618 12.337-3.333 5.836-2.565 10.625-6.392 14.041-11.689 3.706-5.745 5.707-13.088 5.718-22.219a49.466 49.466 0 0 0-5.858.323Z" clip-rule="evenodd"/></svg>