<svg xmlns="http://www.w3.org/2000/svg" width="320" height="320" viewBox="0 0 320 320"><g id="Foundations/Icons/Brand-Icons/UI/Action/23-rewards" fill="none" fill-rule="evenodd" stroke="none" stroke-width="1"><path id="lg-icon-fill-primary" fill="#FFD500" d="M32 92h256v48h-16v160H48V140H32z"/><path id="Half-tone" fill="#000" d="M256 280a4 4 0 1 1 0 8 4 4 0 0 1 0-8Zm-32 0a4 4 0 1 1 0 8 4 4 0 0 1 0-8Zm-32 0a4 4 0 1 1 0 8 4 4 0 0 1 0-8Zm-32 0a4 4 0 1 1 0 8 4 4 0 0 1 0-8Zm-32 0a4 4 0 1 1 0 8 4 4 0 0 1 0-8Zm-32 0a4 4 0 1 1 0 8 4 4 0 0 1 0-8Zm-32 0a4 4 0 1 1 0 8 4 4 0 0 1 0-8Zm176-16a4 4 0 1 1 0 8 4 4 0 0 1 0-8Zm-32 0a4 4 0 1 1 0 8 4 4 0 0 1 0-8Zm-32 0a4 4 0 1 1 0 8 4 4 0 0 1 0-8Zm-32 0a4 4 0 1 1 0 8 4 4 0 0 1 0-8Zm-32 0a4 4 0 1 1 0 8 4 4 0 0 1 0-8Zm-32 0a4 4 0 1 1 0 8 4 4 0 0 1 0-8Zm176-144a4 4 0 1 1 0 8 4 4 0 0 1 0-8Zm-32 0a4 4 0 1 1 0 8 4 4 0 0 1 0-8Zm-32 0a4 4 0 1 1 0 8 4 4 0 0 1 0-8Zm-32 0a4 4 0 1 1 0 8 4 4 0 0 1 0-8Zm-32 0a4 4 0 1 1 0 8 4 4 0 0 1 0-8Zm-32 0a4 4 0 1 1 0 8 4 4 0 0 1 0-8Zm-32 0a4 4 0 1 1 0 8 4 4 0 0 1 0-8Zm208-16a4 4 0 1 1 0 8 4 4 0 0 1 0-8Zm-32 0a4 4 0 1 1 0 8 4 4 0 0 1 0-8Zm-32 0a4 4 0 1 1 0 8 4 4 0 0 1 0-8Zm-32 0a4 4 0 1 1 0 8 4 4 0 0 1 0-8Zm-32 0a4 4 0 1 1 0 8 4 4 0 0 1 0-8Zm-32 0a4 4 0 1 1 0 8 4 4 0 0 1 0-8Zm-32 0a4 4 0 1 1 0 8 4 4 0 0 1 0-8Zm-32 0a4 4 0 1 1 0 8 4 4 0 0 1 0-8Z"/><path id="Outlines" fill="#000" d="M192 24c19.882 0 36 16.118 36 36 0 11.31-5.215 21.401-13.372 28.001L292 88v56h-16v160H44V144H28V88l77.372.001C97.215 81.401 92 71.31 92 60c0-19.882 16.118-36 36-36 13.933 0 26.017 7.915 32.001 19.493C165.983 31.915 178.067 24 192 24Zm-36 120h-24v76l-.005.2a4 4 0 0 1-7.99 0L124 220v-76H52v152h104V144Zm112 0h-72v44a4 4 0 0 1-7.995.2L188 188v-44h-24v152h104V144ZM36 96v40h88v-24l.003-.397A23.908 23.908 0 0 1 130.111 96H36Zm136 0h-8v40h24v-24c0-8.837-7.163-16-16-16Zm17.89 0a23.908 23.908 0 0 1 6.107 15.603L196 112v24h88V96h-94.11ZM156 96h-8c-8.731 0-15.83 6.994-15.997 15.685L132 112v24h24V96Zm-28-64c-15.464 0-28 12.536-28 28 0 15.31 12.287 27.749 27.537 27.996L128 88h28V60.076l-.004-.542c-.245-15.112-12.457-27.288-27.538-27.53L128 32Zm64 0-.458.004c-14.93.24-27.049 12.175-27.527 27.077l-.011.453-.004.438V88h28l.463-.004C207.713 87.75 220 75.31 220 60c0-15.31-12.287-27.749-27.537-27.996L192 32Z"/></g></svg>