<svg xmlns="http://www.w3.org/2000/svg" width="320" height="320" viewBox="0 0 320 320"><g id="Foundations/Icons/Brand-Icons/Commands/13-right-arrow-spot" fill="none" fill-rule="evenodd" stroke="none" stroke-width="1"><path id="Outlines" fill="#000" d="M160 8c83.947 0 152 68.053 152 152s-68.053 152-152 152S8 243.947 8 160 76.053 8 160 8Zm37.721 11.977C147.722 6.725 94.456 21.307 58.18 58.18 21.308 94.456 6.725 147.722 19.977 197.721c13.252 50 52.302 89.05 102.302 102.302 49.999 13.252 103.265-1.33 139.541-38.203 36.872-36.276 51.455-89.542 38.203-139.541-13.252-50-52.302-89.05-102.302-102.302Zm-87.175 27.958A4 4 0 0 1 114.62 49L231.4 150.23a12.68 12.68 0 0 1 0 19.54L114.62 271a4 4 0 1 1-5.24-6l116.78-101.27a4.7 4.7 0 0 0 0-7.46L109.38 55a4 4 0 0 1 1.166-7.065Z"/></g></svg>