<svg xmlns="http://www.w3.org/2000/svg" width="320" height="320" viewBox="0 0 320 320"><g id="Foundations/Icons/Brand-Icons/Stationary/04-ringbinder" fill="none" fill-rule="evenodd" stroke="none" stroke-width="1"><path id="lg-icon-fill-primary" fill="#FFD500" d="M60.5 183c9.665 0 17.5 7.835 17.5 17.5S70.165 218 60.5 218 43 210.165 43 200.5 50.835 183 60.5 183Zm99 0c9.665 0 17.5 7.835 17.5 17.5s-7.835 17.5-17.5 17.5-17.5-7.835-17.5-17.5 7.835-17.5 17.5-17.5Zm101 0c9.665 0 17.5 7.835 17.5 17.5s-7.835 17.5-17.5 17.5-17.5-7.835-17.5-17.5 7.835-17.5 17.5-17.5ZM80 45v109H42V45h38Zm99 0v109h-38V45h38Zm101 0v109h-38V45h38Z"/><path id="Half-tone" fill="#000" d="m60 304 .2.005a4 4 0 1 1-.4 0L60 304Zm32-32 .2.005a4 4 0 1 1-.4 0L92 272Zm-32 0 .2.005a4 4 0 1 1-.4 0L60 272Zm-32 0 .2.005a4 4 0 1 1-.4 0L28 272Zm168 0 .2.005a4 4 0 1 1-.4 0l.2-.005Zm-32 0 .2.005a4 4 0 1 1-.4 0l.2-.005Zm-32 0 .2.005a4 4 0 1 1-.4 0l.2-.005Zm160 0 .2.005a4 4 0 1 1-.4 0l.2-.005Zm-32 0 .2.005a4 4 0 1 1-.4 0l.2-.005Zm-32 0 .2.005a4 4 0 1 1-.4 0l.2-.005ZM44 256l.2.005a4 4 0 1 1-.4 0L44 256Zm32 0 .2.005a4 4 0 1 1-.4 0L76 256Zm72 0 .2.005a4 4 0 1 1-.4 0l.2-.005Zm32 0 .2.005a4 4 0 1 1-.4 0l.2-.005Zm64 0 .2.005a4 4 0 1 1-.4 0l.2-.005Zm32 0 .2.005a4 4 0 1 1-.4 0l.2-.005Z"/><path id="Outlines" fill="#000" d="M303.7 8a8.31 8.31 0 0 1 8.3 8.3v287.4a8.31 8.31 0 0 1-8.3 8.3H16.3a8.31 8.31 0 0 1-8.3-8.3V16.3A8.31 8.31 0 0 1 16.3 8Zm-98.37 8h-90.66v288h90.66V16Zm-98.66 0H16.3a.31.31 0 0 0-.3.3v287.4a.31.31 0 0 0 .3.3h90.37V16Zm197.03 0h-90.37v288h90.37a.31.31 0 0 0 .3-.3V16.3a.31.31 0 0 0-.3-.3ZM261 176c13.255 0 24 10.745 24 24s-10.745 24-24 24-24-10.745-24-24 10.745-24 24-24Zm-101 0c13.255 0 24 10.745 24 24s-10.745 24-24 24-24-10.745-24-24 10.745-24 24-24Zm-99 0c13.255 0 24 10.745 24 24s-10.745 24-24 24-24-10.745-24-24 10.745-24 24-24Zm200 8c-8.837 0-16 7.163-16 16s7.163 16 16 16 16-7.163 16-16-7.163-16-16-16Zm-101 0c-8.837 0-16 7.163-16 16s7.163 16 16 16 16-7.163 16-16-7.163-16-16-16Zm-99 0c-8.837 0-16 7.163-16 16s7.163 16 16 16 16-7.163 16-16-7.163-16-16-16ZM276 40a8 8 0 0 1 7.996 7.75L284 48v104a8 8 0 0 1-7.75 7.996L276 160h-32a8 8 0 0 1-7.996-7.75L236 152V48a8 8 0 0 1 7.75-7.996L244 40h32Zm-100 0a8 8 0 0 1 7.996 7.75L184 48v104a8 8 0 0 1-7.75 7.996L176 160h-32a8 8 0 0 1-7.996-7.75L136 152V48a8 8 0 0 1 7.75-7.996L144 40h32ZM76 40a8 8 0 0 1 7.996 7.75L84 48v104a8 8 0 0 1-7.75 7.996L76 160H44a8 8 0 0 1-7.996-7.75L36 152V48a8 8 0 0 1 7.75-7.996L44 40h32Zm200 8h-32v104h32V48Zm-100 0h-32v104h32V48ZM76 48H44v104h32V48Z"/></g></svg>