<svg width="320" height="320" viewBox="0 0 320 320" xmlns="http://www.w3.org/2000/svg"><g id="Foundations/Icons/Brand-Icons/Energy-and-Resources/19-road-tanker" stroke="none" stroke-width="1" fill="none" fill-rule="evenodd"><path d="M24 172V84c0-.41 0-.82.06-1.22a12 12 0 0 1 .94-3.44c.3-.703.673-1.373 1.11-2A12.05 12.05 0 0 1 36 72h44.4l-.3-7.9a7.92 7.92 0 0 1 .34-2.4c.137-.5.325-.987.56-1.45A8.11 8.11 0 0 1 84.26 57a8.001 8.001 0 0 1 3.84-1h40.16c1.03-.005 2.05.2 3 .6.46.187.899.422 1.31.7.41.27.793.582 1.14.93a7.75 7.75 0 0 1 1.93 3.12c.082.239.149.483.2.73a7.9 7.9 0 0 1 .18 1.54l.36 7.38 35.64.5c.41 0 .82 0 1.22.07a11.7 11.7 0 0 1 3.44.89c.701.304 1.37.676 2 1.11a12.11 12.11 0 0 1 5.3 10V172a12.05 12.05 0 0 1-.7 4H24.7a12.05 12.05 0 0 1-.7-4Z" id="lg-icon-fill-primary" fill="#FFD500"/><path d="M148 152a4 4 0 1 1 0 8 4 4 0 0 1 0-8Zm-32 0a4 4 0 1 1 0 8 4 4 0 0 1 0-8Zm-32 0a4 4 0 1 1 0 8 4 4 0 0 1 0-8Zm-32 0a4 4 0 1 1 0 8 4 4 0 0 1 0-8Zm112-16a4 4 0 1 1 0 8 4 4 0 0 1 0-8Zm-32 0a4 4 0 1 1 0 8 4 4 0 0 1 0-8Zm-32 0a4 4 0 1 1 0 8 4 4 0 0 1 0-8Zm-32 0a4 4 0 1 1 0 8 4 4 0 0 1 0-8Zm-32 0a4 4 0 1 1 0 8 4 4 0 0 1 0-8Zm112-16 .2.005a4 4 0 1 1-.4 0l.2-.005Zm-32 0 .2.005a4 4 0 1 1-.4 0l.2-.005Zm-32 0 .2.005a4 4 0 1 1-.4 0L84 120Zm-32 0 .2.005a4 4 0 1 1-.4 0L52 120Zm112-16a4 4 0 1 1 0 8 4 4 0 0 1 0-8Zm-32 0a4 4 0 1 1 0 8 4 4 0 0 1 0-8Zm-32 0a4 4 0 1 1 0 8 4 4 0 0 1 0-8Zm-32 0a4 4 0 1 1 0 8 4 4 0 0 1 0-8Zm-32 0a4 4 0 1 1 0 8 4 4 0 0 1 0-8Zm112-16a4 4 0 1 1 0 8 4 4 0 0 1 0-8Zm-32 0a4 4 0 1 1 0 8 4 4 0 0 1 0-8Zm-32 0a4 4 0 1 1 0 8 4 4 0 0 1 0-8Zm-32 0a4 4 0 1 1 0 8 4 4 0 0 1 0-8Z" id="Half-tone" fill="#000"/><path d="M128.26 48c8.436.034 15.361 6.682 15.74 15.11l28.06.39c11.032.066 19.94 9.028 19.94 20.06V172a20.25 20.25 0 0 1-.4 4H208v-72a8 8 0 0 1 8-8h60.93a8 8 0 0 1 7 4.16l35.07 64a8 8 0 0 1 1 3.84v48a8 8 0 0 1-8 8h-20.31a31.71 31.71 0 0 1 4.31 16c0 17.673-14.327 32-32 32-17.673 0-32-14.327-32-32a31.71 31.71 0 0 1 4.31-16h-2.8l-20.94 14.56A8 8 0 0 1 208 240h-23.42a8 8 0 0 1-5.58-2.27L164.92 224h-9.23a31.71 31.71 0 0 1 4.31 16c0 17.673-14.327 32-32 32-17.673 0-32-14.327-32-32a31.71 31.71 0 0 1 4.31-16H83.69A31.71 31.71 0 0 1 88 240c0 17.673-14.327 32-32 32-17.673 0-32-14.327-32-32a31.71 31.71 0 0 1 4.31-16H8a8 8 0 0 1-8-8v-32a8 8 0 0 1 8-8h8.4a20.25 20.25 0 0 1-.4-4V84c0-11.046 8.954-20 20-20h36.1c0-8.837 7.163-16 16-16ZM73.88 224H38.11c-8.512 9.495-8.112 23.988.91 33 .54.55 1.1 1.06 1.7 1.55.6.49 1.21.95 1.85 1.38.667.427 1.333.827 2 1.2a22.88 22.88 0 0 0 3.19 1.44 24.06 24.06 0 0 0 16.5 0 22.88 22.88 0 0 0 3.19-1.44c.7-.37 1.36-.82 2-1.2.64-.38 1.26-.89 1.85-1.38.59-.49 1.16-1.01 1.7-1.55a23.93 23.93 0 0 0 7-17 23.87 23.87 0 0 0-6.12-16Zm71.99 0h-35.76c-8.512 9.495-8.112 23.988.91 33 .54.55 1.1 1.06 1.7 1.55.6.49 1.21.95 1.85 1.38.667.427 1.333.827 2 1.2a22.88 22.88 0 0 0 3.19 1.44 24.06 24.06 0 0 0 16.5 0 22.88 22.88 0 0 0 3.19-1.44c.7-.37 1.36-.82 2-1.2.64-.38 1.26-.89 1.85-1.38.59-.49 1.16-1.01 1.7-1.55a23.93 23.93 0 0 0 7-17 23.87 23.87 0 0 0-6.13-16Zm135.99-.03H246.1c-8.512 9.495-8.112 23.988.91 33 .54.55 1.1 1.06 1.7 1.55.6.49 1.21.95 1.85 1.38.667.427 1.333.827 2 1.2a22.88 22.88 0 0 0 3.19 1.44 21.71 21.71 0 0 0 2.25.7A24 24 0 0 0 288 240a23.87 23.87 0 0 0-6.14-16.03ZM276.93 104H216v80H8v32h160.17l16.41 16H208l23-16h81v-48l-35.07-64ZM128.26 56H88.1a8.001 8.001 0 0 0-3.84 1A8.11 8.11 0 0 0 81 60.25a7.73 7.73 0 0 0-.56 1.45 7.92 7.92 0 0 0-.34 2.4l.3 7.9H36a12.05 12.05 0 0 0-9.89 5.34 11.18 11.18 0 0 0-1.11 2 12 12 0 0 0-.94 3.44c-.06.4-.06.81-.06 1.22v88a12.05 12.05 0 0 0 .7 4h158.58a12.05 12.05 0 0 0 .7-4V83.57a12.11 12.11 0 0 0-5.3-10 11.82 11.82 0 0 0-2-1.11 11.7 11.7 0 0 0-3.44-.89c-.4-.07-.81-.07-1.22-.07l-35.64-.5-.36-7.38a7.9 7.9 0 0 0-.18-1.54 6.05 6.05 0 0 0-.2-.73 7.75 7.75 0 0 0-1.93-3.12 7.24 7.24 0 0 0-1.14-.93 7.16 7.16 0 0 0-1.31-.7c-.95-.4-1.97-.605-3-.6ZM269 120a8 8 0 0 1 7.16 4.42l16 32A8 8 0 0 1 285 168h-48a8 8 0 0 1-8-8v-32a8 8 0 0 1 8-8Zm0 8h-32v32h48l-16-32Z" id="Outlines" fill="#000"/></g></svg>