<svg xmlns="http://www.w3.org/2000/svg" width="320" height="320" viewBox="0 0 320 320"><g id="Foundations/Icons/Brand-Icons/Banking-and-Commerce/51-rosette" fill="none" fill-rule="evenodd" stroke="none" stroke-width="1"><path id="lg-icon-fill-primary" fill="#FFD500" d="m204 306.517-35.365-32.128a8.364 8.364 0 0 0-11.214-.333L116 308v-89.991c2.682.578 9.418.87 12.161.868 9.774 0 20.635-3.491 31.839-10.877 11.214 7.396 22.065 10.877 31.839 10.877 2.743.001 9.479-.29 12.161-.868v88.508Z"/><path id="Half-tone" fill="#000" d="M155.58 135.58a4 4 0 1 1 0 8 4 4 0 0 1 0-8Zm-16-16a4 4 0 1 1 0 8 4 4 0 0 1 0-8Zm32 0a4 4 0 1 1 0 8 4 4 0 0 1 0-8Zm-16-16a4 4 0 1 1 0 8 4 4 0 0 1 0-8Zm32 0a4 4 0 1 1 0 8 4 4 0 0 1 0-8Zm-16-16a4 4 0 1 1 0 8 4 4 0 0 1 0-8Zm32 0a4 4 0 1 1 0 8 4 4 0 0 1 0-8Zm-16-16a4 4 0 1 1 0 8 4 4 0 0 1 0-8Z"/><path id="Outlines" fill="#000" d="M191.72 0c20.034 0 35.462 14.66 39.829 40.353 38.273 6.468 52.115 37.329 29.63 71.374 22.485 34.044 8.643 64.905-29.63 71.373-3.072 18.064-11.614 30.66-23.368 36.558V320l-47.35-41.397L111.819 320V219.658c-11.754-5.897-20.296-18.534-23.368-36.558-38.273-6.468-52.115-37.329-29.63-71.373-22.485-34.045-8.643-64.906 29.63-71.374C92.818 14.659 108.206 0 128.281 0c9.736 0 20.547 3.455 31.679 10.794C171.122 3.464 181.942 0 191.679 0v8.01c-8.422 0-17.867 3.275-27.303 9.473a8.047 8.047 0 0 1-8.833 0c-9.435-6.198-18.88-9.472-27.302-9.472a27.558 27.558 0 0 0-20.076 8.2c-5.882 5.858-9.957 14.67-11.794 25.484a8.02 8.02 0 0 1-6.575 6.558c-15.719 2.654-26.89 9.883-31.458 20.347-4.738 10.804-2.158 24.562 7.147 38.72a7.994 7.994 0 0 1 0 8.812c-9.345 14.159-11.895 27.917-7.187 38.721 4.567 10.464 15.74 17.693 31.458 20.347a8.02 8.02 0 0 1 6.575 6.559c1.837 10.824 5.912 19.635 11.794 25.483a29.292 29.292 0 0 0 3.654 3.094 26.708 26.708 0 0 0 8.331 4.005 29.86 29.86 0 0 0 8.13 1.092c8.422 0 17.868-3.275 27.303-9.473a8.047 8.047 0 0 1 8.833 0c9.436 6.198 18.881 9.473 27.303 9.473a29.86 29.86 0 0 0 8.13-1.092 26.93 26.93 0 0 0 8.332-4.005c1.3-.93 2.522-1.965 3.653-3.094 5.883-5.858 9.958-14.67 11.795-25.483a8.02 8.02 0 0 1 6.574-6.559c15.72-2.654 26.891-9.883 31.459-20.347 4.707-10.804 2.158-24.562-7.187-38.72a7.994 7.994 0 0 1 0-8.812c9.345-14.159 11.894-27.917 7.187-38.721-4.568-10.464-15.74-17.693-31.459-20.347a8.02 8.02 0 0 1-6.574-6.558c-1.837-10.824-5.912-19.636-11.795-25.484a27.548 27.548 0 0 0-20.075-8.2ZM160 212.66c-11.162 7.329-21.983 10.793-31.72 10.793a38.605 38.605 0 0 1-8.13-.86v79.383l35.28-29.701a8.356 8.356 0 0 1 11.172.33l33.248 27.9v-77.913a38.605 38.605 0 0 1-8.13.861c-9.737 0-20.548-3.454-31.72-10.794Zm0-169.023c37.697 0 68.256 30.485 68.256 68.09 0 37.604-30.56 68.089-68.256 68.089-37.697 0-68.256-30.485-68.256-68.09 0-37.604 30.56-68.089 68.256-68.089Zm0 8.01c-33.262 0-60.226 26.899-60.226 60.08 0 33.18 26.964 60.078 60.226 60.078s60.226-26.898 60.226-60.078c-.039-33.165-26.98-60.04-60.226-60.08Z"/></g></svg>