<svg xmlns="http://www.w3.org/2000/svg" width="320" height="320" viewBox="0 0 320 320"><g id="Foundations/Icons/Brand-Icons/Communication/15-rss-feed" fill="none" fill-rule="evenodd" stroke="none" stroke-width="1"><path id="lg-icon-fill-primary" fill="#FFD500" d="M25.467 249.495c10.794-10.796 27.71-12.464 40.405-3.984s17.631 24.746 11.791 38.85c-5.84 14.106-20.83 22.121-35.804 19.145-14.973-2.976-25.76-16.115-25.762-31.381a31.9 31.9 0 0 1 9.37-22.63"/><path id="Outlines" fill="#000" d="M12.397 120.125c103.7 0 188.01 84.38 188 188.1a4 4 0 1 1-8 0c0-99.42-80.73-180.3-180-180.3a3.9 3.9 0 1 1 0-7.8ZM11.882 8l.215.005a298.09 298.09 0 0 1 212.22 87.9 298.09 298.09 0 0 1 87.9 212.22 3.9 3.9 0 1 1-7.79 0 290.39 290.39 0 0 0-85.64-206.71 290.39 290.39 0 0 0-206.69-85.62 3.9 3.9 0 1 1 0-7.79Zm36.215 224.125a39.71 39.71 0 0 1 28.28 11.72c13.492 13.496 15.572 34.643 4.967 50.508-10.605 15.866-30.94 22.03-48.57 14.724-17.628-7.306-27.642-26.048-23.915-44.763 3.727-18.716 20.155-32.193 39.238-32.19Zm6.239 8.62c-14.974-2.977-29.964 5.038-35.804 19.143-5.84 14.105-.904 30.372 11.79 38.851 12.695 8.48 29.612 6.812 40.405-3.984a31.9 31.9 0 0 0 9.37-22.63c-.002-15.266-10.788-28.405-25.761-31.38Z"/></g></svg>