<svg width="320" height="320" viewBox="0 0 320 320" xmlns="http://www.w3.org/2000/svg"><g id="Foundations/Icons/Brand-Icons/Banking-and-Commerce/17-safe" stroke="none" stroke-width="1" fill="none" fill-rule="evenodd"><path d="M256 168c-.006 15.312-10.857 28.474-25.887 31.399-15.03 2.925-30.025-5.207-35.773-19.399l-10.34.1-16-8.2-16 8-16-8-16 8-8-12 8-12h74.37c5.78-14.168 20.78-22.263 35.795-19.315C245.18 139.533 256.007 152.698 256 168Zm-21 1v-1c0-5.523-4.477-10-10-10h-1c-5.523 0-10 4.477-10 10v1c0 5.523 4.477 10 10 10h1c5.523 0 10-4.477 10-10Z" id="lg-icon-fill-primary" fill="#FFD500"/><path d="M212 280a4 4 0 1 1 0 8 4 4 0 0 1 0-8Zm-32 0a4 4 0 1 1 0 8 4 4 0 0 1 0-8Zm-32 0a4 4 0 1 1 0 8 4 4 0 0 1 0-8Zm-32 0a4 4 0 1 1 0 8 4 4 0 0 1 0-8Zm-64 0a4 4 0 1 1 0 8 4 4 0 0 1 0-8Zm256 0a4 4 0 1 1 0 8 4 4 0 0 1 0-8Zm-32 0a4 4 0 1 1 0 8 4 4 0 0 1 0-8Zm-16-16 .2.005a4 4 0 1 1-.4 0l.2-.005Zm-32 0a4 4 0 1 1 0 8 4 4 0 0 1 0-8Zm-32 0a4 4 0 1 1 0 8 4 4 0 0 1 0-8Zm-32 0a4 4 0 1 1 0 8 4 4 0 0 1 0-8Zm-32 0a4 4 0 1 1 0 8 4 4 0 0 1 0-8Zm-32 0a4 4 0 1 1 0 8 4 4 0 0 1 0-8Zm-32 0a4 4 0 1 1 0 8 4 4 0 0 1 0-8Zm-32 0a4 4 0 1 1 0 8 4 4 0 0 1 0-8Z" id="Half-tone" fill="#000"/><path d="M303.7 8a8.31 8.31 0 0 1 8.296 8.046l.004.254v287.4a8.31 8.31 0 0 1-8.046 8.296l-.254.004H256l-24-24H88l-24 24H16.3a8.31 8.31 0 0 1-8.296-8.046L8 303.7V16.3a8.31 8.31 0 0 1 8.046-8.296L16.3 8h287.4Zm0 8H16.3a.31.31 0 0 0-.29.232L16 16.3v287.4a.31.31 0 0 0 .232.29l.068.01h44.39l21.65-21.66a8 8 0 0 1 5.357-2.335L88 280h144a8 8 0 0 1 5.442 2.13l.218.21L259.31 304h44.39a.31.31 0 0 0 .29-.232l.01-.068V16.3a.31.31 0 0 0-.3-.3Zm-24 16a8.31 8.31 0 0 1 8.296 8.046l.004.254v207.4a8.31 8.31 0 0 1-8.046 8.296l-.254.004H40.3a8.31 8.31 0 0 1-8.296-8.046L32 247.7V40.3a8.31 8.31 0 0 1 8.046-8.296L40.3 32h239.4Zm0 8H40.3a.31.31 0 0 0-.29.232L40 40.3v207.4a.31.31 0 0 0 .232.29l.068.01h239.4a.31.31 0 0 0 .29-.232l.01-.068V40.3a.31.31 0 0 0-.3-.3ZM224 128c19.398-.001 36 13.915 39.388 33.014 3.388 19.1-7.416 37.877-25.63 44.547-18.033 6.603-38.183-.544-48.042-16.96l-.296-.501h-5.38a8 8 0 0 1-3.339-.73l-.311-.15-12.39-6.35-12.42 6.19a8 8 0 0 1-6.888.13l-.272-.13-12.42-6.22-12.42 6.22a8 8 0 0 1-10.088-2.5l-.152-.22-8-12a8 8 0 0 1-.163-8.626l.163-.254 8-12a8 8 0 0 1 6.374-3.555l.286-.005h69.41A39.85 39.85 0 0 1 224 128Zm0 8a32 32 0 0 0-29.46 19.491l-.17.409H120l-8 12 8 12 16-8 16 8 16-8 16 8.2 10.34-.1c6.035 14.919 22.21 23.034 37.777 18.955 15.568-4.08 25.683-19.086 23.625-35.047-2.058-15.961-15.65-27.91-31.742-27.908Zm0 16c8.837 0 16 7.163 16 16s-7.163 16-16 16-16-7.163-16-16 7.163-16 16-16Zm0 8a8 8 0 1 0 0 16 8 8 0 0 0 0-16ZM88 64a32 32 0 0 1 32 32c0 17.673-14.327 32-32 32-17.673 0-32-14.327-32-32 0-17.673 14.327-32 32-32Zm0 8c-13.255 0-24 10.745-24 24s10.745 24 24 24 24-10.745 24-24a23.9 23.9 0 0 0-5.282-15.023L91 98.66a4 4 0 0 1-3 1.34 4 4 0 0 1-3-6.66l15.726-17.692A23.888 23.888 0 0 0 88 72Z" id="Outlines" fill="#000"/></g></svg>