<svg xmlns="http://www.w3.org/2000/svg" width="320" height="320" viewBox="0 0 320 320"><g id="Foundations/Icons/Brand-Icons/Communication/07-satellite-dish" fill="none" fill-rule="evenodd" stroke="none" stroke-width="1"><path id="lg-icon-fill-primary" fill="#FFD500" d="M271.068 23.031h25.94v25.94h-25.94z" transform="rotate(-45 284.038 36)"/><path id="Half-tone" fill="#000" d="M220.033 256.003a4 4 0 1 1 0 8 4 4 0 0 1 0-8Zm32 0a4 4 0 1 1 0 8 4 4 0 0 1 0-8Zm-48-16a4 4 0 1 1 0 8 4 4 0 0 1 0-8Zm32 0a4 4 0 1 1 0 8 4 4 0 0 1 0-8Zm-48-16a4 4 0 1 1 0 8 4 4 0 0 1 0-8Zm32 0a4 4 0 1 1 0 8 4 4 0 0 1 0-8Zm-48-16a4 4 0 1 1 0 8 4 4 0 0 1 0-8Zm32 0a4 4 0 1 1 0 8 4 4 0 0 1 0-8Zm-48-16a4 4 0 1 1 0 8 4 4 0 0 1 0-8Zm32 0a4 4 0 1 1 0 8 4 4 0 0 1 0-8Zm-48-16a4 4 0 1 1 0 8 4 4 0 0 1 0-8Zm32 0a4 4 0 1 1 0 8 4 4 0 0 1 0-8Zm-48-16a4 4 0 1 1 0 8 4 4 0 0 1 0-8Zm32 0a4 4 0 1 1 0 8 4 4 0 0 1 0-8Zm-48-16a4 4 0 1 1 0 8 4 4 0 0 1 0-8Zm32 0a4 4 0 1 1 0 8 4 4 0 0 1 0-8Zm-48-16a4 4 0 1 1 0 8 4 4 0 0 1 0-8Zm32 0a4 4 0 1 1 0 8 4 4 0 0 1 0-8Zm-48-16a4 4 0 1 1 0 8 4 4 0 0 1 0-8Zm32 0a4 4 0 1 1 0 8 4 4 0 0 1 0-8Zm-48-16a4 4 0 1 1 0 8 4 4 0 0 1 0-8Zm32 0a4 4 0 1 1 0 8 4 4 0 0 1 0-8Zm-16-16a4 4 0 1 1 0 8 4 4 0 0 1 0-8Zm-16-16a4 4 0 1 1 0 8 4 4 0 0 1 0-8Z"/><path id="Outlines" fill="#000" d="m310.863 33.173-24-24a4 4 0 0 0-5.66 0l-24 24a4 4 0 0 0 0 5.66l7 7-157.88 38.44-41.57-41.57a8.67 8.67 0 0 0-.72-.64c-.08-.07-.16-.12-.24-.18-.08-.06-.34-.26-.52-.38l-.32-.18a4.62 4.62 0 0 0-.48-.28l-.35-.17-.48-.21-.38-.14-.48-.16c-.13 0-.27-.06-.4-.09l-.48-.11-.41-.06c-.16 0-.32-.05-.48-.06h-1.82l-.49.08-.42.07-.49.13-.41.11-.49.18-.39.16a4.16 4.16 0 0 0-.47.23c-.13.06-.25.11-.37.18-.12.07-.31.2-.47.3l-.33.22c-.17.12-.33.26-.49.39-.16.13-.18.14-.26.22a8.22 8.22 0 0 0-.66.66 173.36 173.36 0 0 0-17.76 23.63c-1.3 2.09-2.57 4.21-3.78 6.36a167.374 167.374 0 0 0-6.75 13.21 168.776 168.776 0 0 0-4.31 10.31 178.2 178.2 0 0 0-2.49 7 167.66 167.66 0 0 0-4.87 18.18 173.453 173.453 0 0 0-1.93 11.34 167.14 167.14 0 0 0-1.53 19.19c-.14 6.922.161 13.846.9 20.73.32 2.72.687 5.413 1.1 8.08.43 2.66.92 5.31 1.47 7.92a157.33 157.33 0 0 0 5.35 19.08c1.334 3.72 2.764 7.37 4.29 10.95 1.56 3.57 3.26 7.08 5.07 10.51a154.36 154.36 0 0 0 27.33 37c.89.9 1.79 1.78 2.71 2.65.3.29.61.57.92.85l1.86 1.76 1.15 1 1.69 1.5 1.24 1c.55.47 1.1.94 1.67 1.4.57.46.86.69 1.29 1l1.66 1.38c.44.35.9.69 1.34 1l1.68 1.27 1.39 1c.56.41 1.12.82 1.69 1.22l1.43 1 1.71 1.17 1.46.95 1.73 1.13 1.5.92 1.75 1.08 1.52.89 1.79 1 1.55.86 1.8 1 1.58.83 1.83.94 1.6.79 1.85.89 1.64.75 1.86.85 1.67.72 1.89.79 1.68.68c.64.26 1.27.51 1.91.75l1.72.65 1.93.7 1.73.6 1.95.65 1.76.57 2 .6 1.78.52 2 .56 1.8.48 2 .51 1.81.43 2 .46 1.85.4 2 .4 1.86.35 2.07.36 1.87.3 2.09.31 1.89.26 2.1.25 1.91.22 2.12.2 1.92.16 2.14.15c.65 0 1.29.09 1.94.12l2.16.1 1.94.07h7.87a166.45 166.45 0 0 0 26.76-2.7c3.74-.667 7.437-1.48 11.09-2.44a167 167 0 0 0 17.86-5.65c1.17-.44 2.33-.9 3.48-1.36 2.3-.94 4.577-1.923 6.83-2.95a168.37 168.37 0 0 0 16.41-8.61 172.84 172.84 0 0 0 26.81-19.53 9.08 9.08 0 0 0 3-5.68c0-.3.06-.61.07-.91a9.2 9.2 0 0 0-2.7-6.75l-40.37-40.28 37.24-159.1 6.91 6.92a4 4 0 0 0 5.66 0l24-24a4 4 0 0 0 .02-5.65Zm-26.83 21.17-18.34-18.34 18.34-18.34 18.34 18.34-18.34 18.34Zm-115.82 91.82-55.27-55.27 146.17-35.62-90.9 90.89Zm5.66 5.66 91.07-91.07-34.55 147.6-56.52-56.53Zm-6.18 152.18h-3.11c-40.12 0-77.55-15.33-105.39-43.16-28.62-28.63-43.94-67.16-43.16-108.5a161 161 0 0 1 41.31-104c.216-.241.527-.376.85-.37.327-.003.641.127.87.36l212.61 212.61c.244.235.375.562.361.9 0 .314-.135.613-.37.82a161 161 0 0 1-103.97 41.34Z"/></g></svg>