<svg xmlns="http://www.w3.org/2000/svg" width="320" height="320" viewBox="0 0 320 320"><g id="Foundations/Icons/Brand-Icons/Banking-and-Commerce/39-scales" fill="none" fill-rule="evenodd" stroke="none" stroke-width="1"><path id="lg-icon-fill-primary" fill="#FFD500" d="M288 196c0 26.51-21.49 48-48 48s-48-21.49-48-48h96Zm-160-56c0 26.51-21.49 48-48 48s-48-21.49-48-48h96Z"/><path id="Half-tone" fill="#000" d="M128 288a4 4 0 1 1 0 8 4 4 0 0 1 0-8Zm-32 0a4 4 0 1 1 0 8 4 4 0 0 1 0-8Zm128 0a4 4 0 1 1 0 8 4 4 0 0 1 0-8Zm-32 0a4 4 0 1 1 0 8 4 4 0 0 1 0-8Zm-32 0a4 4 0 1 1 0 8 4 4 0 0 1 0-8Z"/><path id="Outlines" fill="#000" d="M160 8a4 4 0 0 1 4 4v40.842l78.06 27.248a3.999 3.999 0 0 1 2.5 2.556l47.09 108.444a3.94 3.94 0 0 1 .33 1.59V196c-.028 28.7-23.28 51.961-51.98 52-28.707-.028-51.972-23.293-52-52v-3.33c0-.562.12-1.117.35-1.63l46.969-104.825L164 61.316V272h72a8 8 0 0 1 7.996 7.75l.004.25v24a8 8 0 0 1-8 8H84a8 8 0 0 1-8-8v-24a8 8 0 0 1 8-8h72V58.523L88.042 34.797 131.65 135.07a3.94 3.94 0 0 1 .33 1.59V140c-.028 28.7-23.28 51.961-51.98 52-28.707-.028-51.972-23.293-52-52v-3.33a4.06 4.06 0 0 1 .35-1.64L77.1 26.38a4 4 0 0 1 3.445-2.374L80.75 24a3.994 3.994 0 0 1 1.555.326L156 50.05V12a4 4 0 0 1 4-4Zm76 272H84v24h152v-24Zm47.82-80h-87.64c2.02 22.426 20.868 40 43.82 40s41.8-17.574 43.82-40ZM240.69 93.78 196.689 192h86.66L240.69 93.78ZM123.82 144H36.18c2.02 22.426 20.868 40 43.82 40s41.8-17.574 43.82-40ZM80.69 37.92l-44 98.08h86.658L80.69 37.92Z"/></g></svg>