<svg xmlns="http://www.w3.org/2000/svg" width="320" height="320" viewBox="0 0 320 320"><g id="Foundations/Icons/Brand-Icons/Tools/09-screwdriver" fill="none" fill-rule="evenodd" stroke="none" stroke-width="1"><path id="lg-icon-fill-primary" fill="#FFD500" d="M118 156h84v128c0 17.673-14.327 32-32 32h-20c-17.673 0-32-14.327-32-32V156Z"/><path id="Outlines" fill="#000" d="M164 152h34a8 8 0 0 1 8 8v124a36 36 0 0 1-36 36h-20a36 36 0 0 1-36-36V160a8 8 0 0 1 8-8h34V4l4-4 4 4v148Zm12 8h-32v85.19l7.69 18.26A4.12 4.12 0 0 1 152 265v47h16v-47a4.12 4.12 0 0 1 .31-1.55l7.69-18.26V160Zm-40 0h-14v124c0 13.152 9.153 24.532 22 27.35v-45.54l-7.69-18.26A4.12 4.12 0 0 1 136 246v-86Zm62 0h-14v86a4.12 4.12 0 0 1-.31 1.55L176 265.81v45.54c12.847-2.818 22-14.198 22-27.35V160Z"/></g></svg>