<svg width="320" height="320" viewBox="0 0 320 320" xmlns="http://www.w3.org/2000/svg"><g id="Foundations/Icons/Brand-Icons/Commands/04-search" stroke="none" stroke-width="1" fill="none" fill-rule="evenodd"><path d="M66.742 66.759c21.592-21.588 55.427-24.917 80.813-7.95 25.385 16.966 35.25 49.502 23.562 77.709-11.688 28.207-41.674 44.23-71.62 38.269-29.945-5.96-51.51-32.245-51.505-62.778a63.561 63.561 0 0 1 18.75-45.25Z" id="lg-icon-fill-primary" fill="#FFD500"/><path d="M275.992 272.009a4 4 0 1 1 0 8 4 4 0 0 1 0-8Zm-16-16a4 4 0 1 1 0 8 4 4 0 0 1 0-8Zm-16-16a4 4 0 1 1 0 8 4 4 0 0 1 0-8Zm-16-16a4 4 0 1 1 0 8 4 4 0 0 1 0-8Zm-16-16a4 4 0 1 1 0 8 4 4 0 0 1 0-8Zm-16-16a4 4 0 1 1 0 8 4 4 0 0 1 0-8Z" id="Half-tone" fill="#000"/><path d="M44.13 44.107C78.673 9.575 133.64 6.485 171.836 36.93s47.444 84.714 21.486 126.09l.003-.007L301.772 271.47a7.58 7.58 0 0 1 2.214 5.059l.006.3a7.58 7.58 0 0 1-2.22 5.36l-19.6 19.6a7.58 7.58 0 0 1-10.72 0l-108.45-108.45c2.3-1.45 4.54-2.98 6.7-4.61l107.12 107.1 19-19-107.107-107.116a96.663 96.663 0 0 1-18.227 18.41l-.796.607c-2.16 1.61-4.4 3.16-6.7 4.61-41.384 25.944-95.652 16.678-126.083-21.528C6.478 133.605 9.586 78.64 44.13 44.107Zm67.862-20.098c-48.601 0-88 39.399-88 88 .055 48.578 39.422 87.945 88 88 48.601 0 88-39.4 88-88 0-48.601-39.399-88-88-88ZM84.432 45.49c31.735-13.147 68.336-2.045 87.421 26.515 19.085 28.56 15.337 66.623-8.951 90.913a71.996 71.996 0 0 1-50.91 21.09c-34.35.001-63.917-24.261-70.62-57.95C34.67 92.368 52.7 58.636 84.433 45.49Zm52.058 7.388c-23.917-9.905-51.445-4.427-69.748 13.88a63.54 63.54 0 0 0 0 90.5c18.303 18.307 45.831 23.785 69.748 13.88 23.917-9.906 39.512-33.243 39.512-59.13s-15.595-49.225-39.512-59.13Z" id="Outlines" fill="#000"/></g></svg>