<svg width="320" height="320" viewBox="0 0 320 320" xmlns="http://www.w3.org/2000/svg"><g id="Foundations/Icons/Brand-Icons/UI/Action/24-search-complete" stroke="none" stroke-width="1" fill="none" fill-rule="evenodd"><circle id="lg-icon-fill-primary" fill="#028844" cx="112" cy="112" r="68"/><path d="M276.034 272a4 4 0 1 1 0 8 4 4 0 0 1 0-8Zm-16.002-16a4 4 0 1 1 0 8 4 4 0 0 1 0-8Zm-16.002-16a4 4 0 1 1 0 8 4 4 0 0 1 0-8Zm-16.002-16a4 4 0 1 1 0 8 4 4 0 0 1 0-8Zm-16.002-16a4 4 0 1 1 0 8 4 4 0 0 1 0-8Zm-16.002-16a4 4 0 1 1 0 8 4 4 0 0 1 0-8Z" id="Half-tone" fill="#000"/><path d="M112.013 16c53.026 0 96.012 42.98 96.012 96 0 18.751-5.376 36.247-14.673 51.03L301.839 271.5a7.7 7.7 0 0 1 .187 10.499l-.187.201-19.603 19.6a7.507 7.507 0 0 1-5.4 2.201 7.307 7.307 0 0 1-5.089-1.992l-.212-.209-108.486-108.47c-14.784 9.294-32.282 14.67-51.035 14.67C58.986 208 16 165.02 16 112s42.986-96 96.013-96ZM170 188.988 277.012 296 296 277.012 188.988 170A96.5 96.5 0 0 1 170 188.988ZM112.001 24c-48.578.055-87.945 39.422-88 88 0 48.601 39.399 88 88 88 18.783 0 36.192-5.885 50.483-15.912a97.462 97.462 0 0 0 21.613-21.618C194.12 148.182 200 130.778 200 112c0-48.601-39.399-88-88-88Zm.025 16a71.498 71.498 0 0 1 50.897 21.099c24.283 24.293 28.022 62.357 8.932 90.911-19.09 28.555-55.692 39.647-87.422 26.494-31.73-13.153-49.75-46.889-43.038-80.575 6.71-33.686 36.283-57.94 70.631-57.93Zm.062 8A63.997 63.997 0 0 0 66.79 66.7c-21.608 21.565-24.975 55.39-8.043 80.793 16.933 25.402 49.45 35.307 77.67 23.658 28.218-11.648 44.28-41.607 38.363-71.557-5.916-29.95-32.164-51.55-62.692-51.594Zm35.08 37.143c1.563-1.524 4.097-1.524 5.66 0a3.832 3.832 0 0 1 0 5.516L98 144l-26.829-26.15a3.832 3.832 0 0 1 0-5.518c1.563-1.523 4.097-1.523 5.66 0L98 132.967Z" id="Outlines" fill="#000"/></g></svg>