<svg width="320" height="320" viewBox="0 0 320 320" xmlns="http://www.w3.org/2000/svg"><g id="Foundations/Icons/Brand-Icons/Online/09-search-warning" stroke="none" stroke-width="1" fill="none" fill-rule="evenodd"><circle id="lg-icon-fill-primary" fill="#FFD500" cx="112.002" cy="112.002" r="64"/><path d="M276.002 272.002a4 4 0 1 1 0 8 4 4 0 0 1 0-8Zm-16-16a4 4 0 1 1 0 8 4 4 0 0 1 0-8Zm-16-16a4 4 0 1 1 0 8 4 4 0 0 1 0-8Zm-16-16a4 4 0 1 1 0 8 4 4 0 0 1 0-8Zm-16-16a4 4 0 1 1 0 8 4 4 0 0 1 0-8Zm-16-16a4 4 0 1 1 0 8 4 4 0 0 1 0-8Z" id="Half-tone" fill="#000"/><path d="M44.118 44.118c34.538-34.537 89.503-37.636 127.704-7.2 38.201 30.436 47.46 84.704 21.51 126.084l108.45 108.46a7.58 7.58 0 0 1 0 10.72l-19.6 19.6a7.58 7.58 0 0 1-10.72 0l-108.46-108.45c-41.38 25.95-95.648 16.691-126.084-21.51C6.482 133.62 9.58 78.656 44.118 44.118Zm144.594 125.604a96.72 96.72 0 0 1-19 19l107.11 107.11 19.01-19.01ZM182.7 59.547c-22.616-30.512-62.255-43.072-98.315-31.153-36.061 11.92-60.406 45.629-60.383 83.608.015 32.852 18.326 62.96 47.49 78.083 29.163 15.123 64.321 12.743 91.18-6.173a96.82 96.82 0 0 0 21.24-21.24c21.892-31.035 21.403-72.613-1.212-103.125Zm-10.837 12.452c19.085 28.56 15.337 66.624-8.95 90.913a71.996 71.996 0 0 1-50.91 21.09c-34.35.002-63.917-24.261-70.62-57.95-6.703-33.69 11.326-67.422 43.06-80.568S152.78 43.44 171.863 72Zm-105.11-5.247a63.56 63.56 0 0 0 0 90.5c18.302 18.307 45.83 23.785 69.748 13.88 23.916-9.905 39.511-33.243 39.511-59.13s-15.595-49.224-39.511-59.13c-23.917-9.904-51.446-4.426-69.749 13.88Zm45.25 67.25a4 4 0 1 1 0 8 4 4 0 0 1 0-8Zm0-56a4 4 0 0 1 3.994 3.8l.005.2v40a4 4 0 0 1-7.995.2l-.005-.2v-40a4 4 0 0 1 4-4Z" id="Outlines" fill="#000"/></g></svg>