<svg width="320" height="320" viewBox="0 0 320 320" xmlns="http://www.w3.org/2000/svg"><g id="Foundations/Icons/Brand-Icons/Online/18-secure-process" stroke="none" stroke-width="1" fill="none" fill-rule="evenodd"><path id="lg-icon-fill-primary" fill="#FFD500" d="M32 52v53l128-41 128 41-1-53-127-40z"/><path d="M48 80a4 4 0 1 1 0 8 4 4 0 0 1 0-8Zm224 0a4 4 0 1 1 0 8 4 4 0 0 1 0-8ZM64 64a4 4 0 1 1 0 8 4 4 0 0 1 0-8Zm32 0a4 4 0 1 1 0 8 4 4 0 0 1 0-8Zm128 0a4 4 0 1 1 0 8 4 4 0 0 1 0-8Zm32 0a4 4 0 1 1 0 8 4 4 0 0 1 0-8ZM80 48a4 4 0 1 1 0 8 4 4 0 0 1 0-8Zm32 0a4 4 0 1 1 0 8 4 4 0 0 1 0-8Zm32 0a4 4 0 1 1 0 8 4 4 0 0 1 0-8Zm32 0a4 4 0 1 1 0 8 4 4 0 0 1 0-8Zm32 0a4 4 0 1 1 0 8 4 4 0 0 1 0-8Zm32 0a4 4 0 1 1 0 8 4 4 0 0 1 0-8ZM128 32a4 4 0 1 1 0 8 4 4 0 0 1 0-8Zm32 0a4 4 0 1 1 0 8 4 4 0 0 1 0-8Zm32 0a4 4 0 1 1 0 8 4 4 0 0 1 0-8Z" id="Half-tone" fill="#000"/><path d="M160.36 8a4 4 0 0 1 1.83.46l127 39.64a4 4 0 0 1 2.81 3.81l.001.497.001.686v.613c.01 5.512.034 23.267.041 47.49v2.997l.001 1.523v14.355A37154.94 37154.94 0 0 1 292 172.2c0 29.9-15.62 61.42-43.79 88.76-24.32 23.56-56.6 42.45-86.6 50.67a4 4 0 0 1-1.68.37h-.23a3.955 3.955 0 0 1-1.7-.38c-30-8.31-62.21-27.3-86.44-50.92-28.14-27.44-43.61-59.01-43.56-88.9.03-18.345.041-36.117.044-52.119v-17.38l-.001-1.49v-2.933c-.009-23.678-.034-40.654-.041-45.156v-.488L28 52.037v-.497a4 4 0 0 1 2.82-3.83L158.28 8.45a4.013 4.013 0 0 1 1.85-.45Zm-.26 60.28-123.3 39.1a3.91 3.91 0 0 1-.8.16v64.27c0 27.72 14.57 57.25 41.15 83.13 23.22 22.64 54.02 40.85 82.62 48.85 28.64-7.92 59.52-26.03 82.82-48.6 26.66-25.8 41.41-55.28 41.41-83v-3.464c.003-12.097.017-23.907.02-35.086v-6.316c-.002-6.763-.01-13.258-.03-19.404a4.26 4.26 0 0 1-.69-.15L160.1 68.28Zm4.01 35.72c39.765.03 71.976 32.29 71.945 72.055-.03 39.367-31.648 71.33-70.864 71.936L164 248h-.11c-39.765-.03-71.976-32.29-71.946-72.055.03-39.367 31.649-71.33 70.865-71.936L164 104h.11Zm-.01 8h-.1c-35.346-.028-64.022 28.604-64.05 63.95-.027 34.993 28.034 63.448 62.892 64.04l1.058.01h.1c35.346.028 64.023-28.604 64.05-63.95.028-35.346-28.604-64.022-63.95-64.05Zm-30.193 66.789a3.75 3.75 0 0 1 2.463 2.961 28.49 28.49 0 0 0 1.371 4.612l.26.638.276.648a28.52 28.52 0 0 0 2.373 4.312c.33.49.677.967 1.04 1.43l.37.46.26.32c.383.428.743.844 1.122 1.249l.388.401.17.18.15.26c.405.39.821.78 1.249 1.153l.431.367.28.24c.62.5 1.26.98 1.91 1.43a28.36 28.36 0 0 0 9.72 4.235l.58.125.41.07 1 .17.63.08.78.1h.69l.73.05H164a28.14 28.14 0 0 0 20-8.28 27.39 27.39 0 0 0 3.075-3.682l.385-.568H172a3.75 3.75 0 0 1-.199-7.495l.2-.005h24a3.75 3.75 0 0 1 3.812 3.519l.007.231v24a3.75 3.75 0 0 1-7.495.2l-.005-.2v-14.15a37.63 37.63 0 0 1-3 3.36 35.63 35.63 0 0 1-24.763 10.477l-.527.003h-2.5c-.246-.013-.493-.044-.737-.064l-.363-.016-.68-.08-1.11-.14-.79-.14c-.233-.04-.458-.076-.676-.116l-.324-.064-.41-.086-.41-.095-.41-.099-.42-.1a35.18 35.18 0 0 1-11.14-5 36.82 36.82 0 0 1-5.29-4.36 35.77 35.77 0 0 1-9.74-18.08 3.75 3.75 0 0 1 4.877-4.461Zm-1.967-42.539a3.75 3.75 0 0 1 3.745 3.55l.005.2v14.21a36.11 36.11 0 0 1 3-3.36 35.63 35.63 0 0 1 24.763-10.477l.527-.003h2.5c.36.02.87.06 1.1.08.154.013.307.049.46.071l.23.019 1.09.13.93.17.82.14h.07c.46.09.92.2 1.38.32a2 2 0 0 1 .26.06 35.55 35.55 0 0 1 16.44 9.36 36.82 36.82 0 0 1 4.36 5.29 36.4 36.4 0 0 1 3.3 6.07 35.81 35.81 0 0 1 2.08 6.72 3.74 3.74 0 0 1-2.9 4.45 3.34 3.34 0 0 1-.76.08 3.76 3.76 0 0 1-3.67-3 28.46 28.46 0 0 0-1.62-5.25 28.75 28.75 0 0 0-2.72-5 14.96 14.96 0 0 0-1.1-1.498l-.3-.362-.27-.33c-.36-.42-.72-.829-1.097-1.226l-.383-.394-.19-.21-.21-.2a25.973 25.973 0 0 0-1.62-1.47c-.11-.09-.22-.19-.33-.27-.6-.5-1.23-.97-1.88-1.41A28.25 28.25 0 0 0 175 150a27.68 27.68 0 0 0-4.627-1.67l-.683-.17h-.23c-.26-.047-.515-.098-.77-.141l-.38-.059-.46-.06c-.296-.032-.553-.09-.808-.111l-.192-.009h-.58l-.84-.06H164a28.18 28.18 0 0 0-20 8.28 28.59 28.59 0 0 0-3.081 3.683l-.389.567H156a3.75 3.75 0 0 1 .2 7.495l-.2.005h-24a3.75 3.75 0 0 1-3.803-3.519l-.007-.231v-24a3.75 3.75 0 0 1 3.75-3.75Zm28.29-120.03L36 54.48v44.76l122.16-38.73a4.07 4.07 0 0 1 2-.45 4 4 0 0 1 2 .46L284 99.59V54.86L160.23 16.22Z" id="Outlines" fill="#000"/></g></svg>