<svg xmlns="http://www.w3.org/2000/svg" width="320" height="320" viewBox="0 0 320 320"><g id="Brand-Icons/UI/Numerals-/-07-seven" fill="none" fill-rule="evenodd" stroke="none" stroke-width="1"><path id="lg-icon-fill-primary" fill="#FFD500" d="M256 24H64v72h129.055l-116 200h49.531l2.153-4.764 2.04-4.458c.9-1.962 1.885-4.096 2.953-6.401l3.2-6.887a4258.85 4258.85 0 0 1 19.516-41.224l4.656-9.688c25.215-52.329 55.202-112.552 89.984-180.082L256 32.972V24Z"/><path id="Half-tone" fill="#000" d="M196 72a4 4 0 1 1 0 8 4 4 0 0 1 0-8Zm-32 0a4 4 0 1 1 0 8 4 4 0 0 1 0-8Zm-32 0a4 4 0 1 1 0 8 4 4 0 0 1 0-8Zm-32 0a4 4 0 1 1 0 8 4 4 0 0 1 0-8Zm112-16a4 4 0 1 1 0 8 4 4 0 0 1 0-8Zm-32 0a4 4 0 1 1 0 8 4 4 0 0 1 0-8Zm-32 0a4 4 0 1 1 0 8 4 4 0 0 1 0-8Zm-32 0a4 4 0 1 1 0 8 4 4 0 0 1 0-8Zm-32 0a4 4 0 1 1 0 8 4 4 0 0 1 0-8Zm144-16a4 4 0 1 1 0 8 4 4 0 0 1 0-8Zm-32 0a4 4 0 1 1 0 8 4 4 0 0 1 0-8Zm-32 0a4 4 0 1 1 0 8 4 4 0 0 1 0-8Zm-32 0a4 4 0 1 1 0 8 4 4 0 0 1 0-8Zm-32 0a4 4 0 1 1 0 8 4 4 0 0 1 0-8Z"/><path id="Outlines" fill="#000" d="M256 24H64v72h129.055l-116 200h49.531l2.153-4.764 2.04-4.458c.9-1.962 1.885-4.096 2.953-6.401l3.2-6.887a4258.85 4258.85 0 0 1 19.516-41.224l4.656-9.688c25.215-52.329 55.202-112.552 89.984-180.082L256 32.972V24ZM71.999 32h175.499l-4.632 8.988c-33.605 65.287-62.715 123.718-87.351 174.763l-5.07 10.532a4379.872 4379.872 0 0 0-19.845 41.86l-3.402 7.306a2374.17 2374.17 0 0 0-3.385 7.329L121.42 288H90.943L206.944 88H72V32Z"/></g></svg>