<svg xmlns="http://www.w3.org/2000/svg" width="320" height="320" fill="none" viewBox="0 0 320 320"><path fill="#FFD500" fill-rule="evenodd" d="M256 24H64v72h129.055l-116 200h49.531l2.153-4.764 2.04-4.458c.901-1.962 1.885-4.096 2.953-6.401l3.201-6.887a4240.674 4240.674 0 0 1 19.515-41.224l4.656-9.688c25.215-52.329 55.202-112.552 89.984-180.082L256 32.972V24Z" clip-rule="evenodd"/><path fill="#000" fill-rule="evenodd" d="M196 72a4 4 0 1 1 0 8 4 4 0 0 1 0-8Zm-32 0a4 4 0 1 1 0 8 4 4 0 0 1 0-8Zm-32 0a4 4 0 1 1 0 8 4 4 0 0 1 0-8Zm-32 0a4 4 0 1 1 0 8 4 4 0 0 1 0-8Zm112-16a4 4 0 1 1 0 8 4 4 0 0 1 0-8Zm-32 0a4 4 0 1 1 0 8 4 4 0 0 1 0-8Zm-32 0a4 4 0 1 1 0 8 4 4 0 0 1 0-8Zm-32 0a4 4 0 1 1 0 8 4 4 0 0 1 0-8Zm-32 0a4 4 0 1 1 0 8 4 4 0 0 1 0-8Zm144-16a4 4 0 1 1 0 8 4 4 0 0 1 0-8Zm-32 0a4 4 0 1 1 0 8 4 4 0 0 1 0-8Zm-32 0a4 4 0 1 1 0 8 4 4 0 0 1 0-8Zm-32 0a4 4 0 1 1 0 8 4 4 0 0 1 0-8Zm-32 0a4 4 0 1 1 0 8 4 4 0 0 1 0-8Z" clip-rule="evenodd"/><path fill="#000" fill-rule="evenodd" d="M256 24H64v72h129.055l-116 200h49.531l2.153-4.764 2.04-4.458c.901-1.962 1.885-4.096 2.953-6.401l3.201-6.887a4240.674 4240.674 0 0 1 19.515-41.224l4.656-9.688c25.215-52.329 55.202-112.552 89.984-180.082L256 32.972V24ZM71.999 32h175.499l-4.632 8.988c-33.605 65.287-62.715 123.718-87.351 174.763l-5.07 10.532a4352.71 4352.71 0 0 0-19.845 41.86l-3.402 7.306c-1.231 2.654-2.36 5.098-3.385 7.329L121.421 288H90.943L206.944 88H71.999V32Z" clip-rule="evenodd"/></svg>