<svg width="320" height="320" viewBox="0 0 320 320" xmlns="http://www.w3.org/2000/svg"><g id="Foundations/Icons/Brand-Icons/Banking-and-Commerce/06-shopping-basket" stroke="none" stroke-width="1" fill="none" fill-rule="evenodd"><path d="M236 307.988c20 0 22-17 22-17l27-103s23-4 23-28v-20H12v20c0 24 24 28 24 28l26 103s2 17 22 17h152Z" id="lg-icon-fill-primary" fill="#FFD500"/><path d="M84 279.988a4 4 0 1 1 0 8 4 4 0 0 1 0-8Zm32 0a4 4 0 1 1 0 8 4 4 0 0 1 0-8Zm32 0a4 4 0 1 1 0 8 4 4 0 0 1 0-8Zm32 0a4 4 0 1 1 0 8 4 4 0 0 1 0-8Zm32 0a4 4 0 1 1 0 8 4 4 0 0 1 0-8Zm32 0a4 4 0 1 1 0 8 4 4 0 0 1 0-8Zm-144-16a4 4 0 1 1 0 8 4 4 0 0 1 0-8Zm32 0a4 4 0 1 1 0 8 4 4 0 0 1 0-8Zm32 0a4 4 0 1 1 0 8 4 4 0 0 1 0-8Zm32 0a4 4 0 1 1 0 8 4 4 0 0 1 0-8Zm32 0a4 4 0 1 1 0 8 4 4 0 0 1 0-8Zm-144-16 .2.005a4 4 0 1 1-.2-.005Zm32 0 .2.005a4 4 0 1 1-.2-.005Zm32 0 .2.005a4 4 0 1 1-.2-.005Zm32 0 .2.005a4 4 0 1 1-.2-.005Zm32 0 .2.005a4 4 0 1 1-.2-.005Zm32 0 .2.005a4 4 0 1 1-.2-.005Zm-176-16a4 4 0 1 1 0 8 4 4 0 0 1 0-8Zm32 0a4 4 0 1 1 0 8 4 4 0 0 1 0-8Zm32 0a4 4 0 1 1 0 8 4 4 0 0 1 0-8Zm32 0a4 4 0 1 1 0 8 4 4 0 0 1 0-8Zm32 0a4 4 0 1 1 0 8 4 4 0 0 1 0-8Zm32 0a4 4 0 1 1 0 8 4 4 0 0 1 0-8Zm-144-16a4 4 0 1 1 0 8 4 4 0 0 1 0-8Zm32 0a4 4 0 1 1 0 8 4 4 0 0 1 0-8Zm32 0a4 4 0 1 1 0 8 4 4 0 0 1 0-8Zm32 0a4 4 0 1 1 0 8 4 4 0 0 1 0-8Zm32 0a4 4 0 1 1 0 8 4 4 0 0 1 0-8Zm32 0a4 4 0 1 1 0 8 4 4 0 0 1 0-8Z" id="Half-tone" fill="#000"/><path d="M160 12a4 4 0 0 1 3.25 1.668l87.386 122.32H304a8 8 0 0 1 7.996 7.751l.004.25v16c0 12.86-5.83 22.86-16.42 28.16a37.28 37.28 0 0 1-9.05 3.08l-22.74 97.59c-1.89 8.02-10.96 23.17-31.79 23.17H87.95c-20.79 0-29.9-15.18-31.79-23.18l-22.74-97.58a37.28 37.28 0 0 1-9-3.08c-10.59-5.3-16.42-15.3-16.42-28.16v-16a8 8 0 0 1 8-8l53.428-.001 87.322-122.32A4 4 0 0 1 160 12Zm144 131.988H16v16c0 24 24 24 24 24l24 103 .005.02c.161.653 4.395 16.98 23.995 16.98h144c20 0 24-17 24-17l24-103s24 0 24-24v-16ZM160 22.868l-80.796 113.12h161.6L160 22.868Z" id="Outlines" fill="#000"/></g></svg>