<svg xmlns="http://www.w3.org/2000/svg" width="320" height="320" viewBox="0 0 320 320"><g id="Foundations/Icons/Brand-Icons/UI/Pensions-and-Retirement/12-shop-around" fill="none" fill-rule="evenodd" stroke="none" stroke-width="1"><path id="lg-icon-fill-primary" fill="#FFD500" d="M160 40a4 4 0 0 0-4 4v136a4 4 0 1 0 8 0V44a4 4 0 0 0-4-4Z"/><path id="Half-tone" fill="#000" d="M112 288a4 4 0 0 1 4 4h-8a4 4 0 0 1 4-4Zm32 0a4 4 0 0 1 4 4h-8a4 4 0 0 1 4-4Zm32 0a4 4 0 0 1 4 4h-8a4 4 0 0 1 4-4Zm32 0a4 4 0 0 1 4 4h-8a4 4 0 0 1 4-4Zm16-16a4 4 0 1 1 0 8 4 4 0 0 1 0-8Zm-32 0a4 4 0 1 1 0 8 4 4 0 0 1 0-8Zm-32 0a4 4 0 1 1 0 8 4 4 0 0 1 0-8Zm-32 0a4 4 0 1 1 0 8 4 4 0 0 1 0-8Zm-32 0a4 4 0 1 1 0 8 4 4 0 0 1 0-8Zm112-16a4 4 0 1 1 0 8 4 4 0 0 1 0-8Zm-32 0a4 4 0 1 1 0 8 4 4 0 0 1 0-8Zm-32 0a4 4 0 1 1 0 8 4 4 0 0 1 0-8Zm-32 0a4 4 0 1 1 0 8 4 4 0 0 1 0-8Zm112-16a4 4 0 1 1 0 8 4 4 0 0 1 0-8Zm-32 0a4 4 0 1 1 0 8 4 4 0 0 1 0-8Zm-32 0a4 4 0 1 1 0 8 4 4 0 0 1 0-8Zm-32 0a4 4 0 1 1 0 8 4 4 0 0 1 0-8Zm-32 0a4 4 0 1 1 0 8 4 4 0 0 1 0-8Zm144-16a4 4 0 1 1 0 8 4 4 0 0 1 0-8Zm-32 0a4 4 0 1 1 0 8 4 4 0 0 1 0-8Zm-32 0a4 4 0 1 1 0 8 4 4 0 0 1 0-8Zm-32 0a4 4 0 1 1 0 8 4 4 0 0 1 0-8Zm-32 0a4 4 0 1 1 0 8 4 4 0 0 1 0-8Zm-32 0a4 4 0 1 1 0 8 4 4 0 0 1 0-8Zm144-16a4 4 0 1 1 0 8 4 4 0 0 1 0-8Zm-32 0a4 4 0 1 1 0 8 4 4 0 0 1 0-8Zm-32 0a4 4 0 1 1 0 8 4 4 0 0 1 0-8Zm-32 0a4 4 0 1 1 0 8 4 4 0 0 1 0-8Zm-32 0a4 4 0 1 1 0 8 4 4 0 0 1 0-8Zm144-16a4 4 0 1 1 0 8 4 4 0 0 1 0-8Zm-32 0a4 4 0 1 1 0 8 4 4 0 0 1 0-8Zm-96 0a4 4 0 1 1 0 8 4 4 0 0 1 0-8Zm-32 0a4 4 0 1 1 0 8 4 4 0 0 1 0-8Zm176-16a4 4 0 1 1 0 8 4 4 0 0 1 0-8Zm-32 0a4 4 0 1 1 0 8 4 4 0 0 1 0-8Zm-32 0a4 4 0 1 1 0 8 4 4 0 0 1 0-8Zm-64 0a4 4 0 1 1 0 8 4 4 0 0 1 0-8Zm-32 0a4 4 0 1 1 0 8 4 4 0 0 1 0-8Zm-32 0a4 4 0 1 1 0 8 4 4 0 0 1 0-8Zm176-16a4 4 0 1 1 0 8 4 4 0 0 1 0-8Zm-32 0a4 4 0 1 1 0 8 4 4 0 0 1 0-8Zm-96 0a4 4 0 1 1 0 8 4 4 0 0 1 0-8Zm-32 0a4 4 0 1 1 0 8 4 4 0 0 1 0-8Zm180-12a4 4 0 1 1-8 0h8Zm-32 0a4 4 0 1 1-8 0h8Zm-32 0a4 4 0 1 1-8 0h8Zm-64 0a4 4 0 1 1-8 0h8Zm-32 0a4 4 0 1 1-8 0h8Zm-32 0a4 4 0 1 1-8 0h8Z"/><path id="Outlines" fill="#000" d="M160 32c6.627 0 12 5.373 12 12v100h116c2.73 0 4.658 2.675 3.795 5.265l-48 144A4 4 0 0 1 240 296H80a4 4 0 0 1-3.795-2.735l-48-144C27.342 146.675 29.27 144 32 144h116V44c0-6.627 5.373-12 12-12Zm12 148c0 6.627-5.373 12-12 12s-12-5.373-12-12v-28H37.55l45.333 136h154.234l45.333-136H172v28ZM160 40a4 4 0 0 0-4 4v136a4 4 0 1 0 8 0V44a4 4 0 0 0-4-4Z"/></g></svg>