<svg xmlns="http://www.w3.org/2000/svg" width="320" height="320" viewBox="0 0 320 320"><g id="Foundations/Icons/Brand-Icons/Banking-and-Commerce/08-shopping-bags" fill="none" fill-rule="evenodd" stroke="none" stroke-width="1"><path id="lg-icon-fill-primary" fill="#FFD500" d="m138 290.969 12-149h149l10 146-5 5z"/><path id="Half-tone" fill="#000" d="m60 271.969.2.005a4 4 0 1 1-.4 0l.2-.005Zm32 0 .2.005a4 4 0 1 1-.4 0l.2-.005Zm32 0 .2.005a4 4 0 1 1-.4 0l.2-.005Zm-16-16 .2.005a4 4 0 1 1-.4 0l.2-.005Zm-64 0 .2.005a4 4 0 1 1-.4 0l.2-.005Zm32 0 .2.005a4 4 0 1 1-.4 0l.2-.005Zm48-16 .2.005a4 4 0 1 1-.4 0l.2-.005Zm-64 0 .2.005a4 4 0 1 1-.4 0l.2-.005Zm32 0 .2.005a4 4 0 1 1-.4 0l.2-.005Zm16-16 .2.005a4 4 0 1 1-.4 0l.2-.005Zm-64 0 .2.005a4 4 0 1 1-.4 0l.2-.005Zm32 0 .2.005a4 4 0 1 1-.4 0l.2-.005Zm-16-16 .2.005a4 4 0 1 1-.4 0l.2-.005Zm32 0 .2.005a4 4 0 1 1-.4 0l.2-.005Zm32 0 .2.005a4 4 0 1 1-.4 0l.2-.005Zm-80-16 .2.005a4 4 0 1 1-.4 0l.2-.005Zm32 0 .2.005a4 4 0 1 1-.4 0l.2-.005Zm32 0 .2.005a4 4 0 1 1-.4 0l.2-.005Zm-16-16 .2.005a4 4 0 1 1-.4 0l.2-.005Zm-32 0 .2.005a4 4 0 1 1-.4 0l.2-.005Zm64 0 .2.005a4 4 0 1 1-.4 0l.2-.005Zm-16-16 .2.005a4 4 0 1 1-.4 0l.2-.005Zm-64 0 .2.005a4 4 0 1 1-.4 0l.2-.005Zm32 0 .2.005a4 4 0 1 1-.4 0l.2-.005Zm-16-16a4 4 0 1 1 0 8 4 4 0 0 1 0-8Zm32 0a4 4 0 1 1 0 8 4 4 0 0 1 0-8Zm32 0a4 4 0 1 1 0 8 4 4 0 0 1 0-8Zm-80-16a4 4 0 1 1 0 8 4 4 0 0 1 0-8Zm32 0a4 4 0 1 1 0 8 4 4 0 0 1 0-8Zm32 0a4 4 0 1 1 0 8 4 4 0 0 1 0-8Zm32 0a4 4 0 1 1 0 8 4 4 0 0 1 0-8Zm-80-16a4 4 0 1 1 0 8 4 4 0 0 1 0-8Zm32 0a4 4 0 1 1 0 8 4 4 0 0 1 0-8Zm32 0a4 4 0 1 1 0 8 4 4 0 0 1 0-8Zm32 0a4 4 0 1 1 0 8 4 4 0 0 1 0-8Zm-112-16a4 4 0 1 1 0 8 4 4 0 0 1 0-8Zm32 0a4 4 0 1 1 0 8 4 4 0 0 1 0-8Zm32 0a4 4 0 1 1 0 8 4 4 0 0 1 0-8Zm32 0a4 4 0 1 1 0 8 4 4 0 0 1 0-8Z"/><path id="Outlines" fill="#000" d="M304 143.969a8.53 8.53 0 0 0-.16-1.61 8.32 8.32 0 0 0-.63-1.86 8.12 8.12 0 0 0-1-1.62 8 8 0 0 0-4.56-2.75 8.53 8.53 0 0 0-1.65-.16h-16.4a57 57 0 0 0-102.3-23.33l-1.3-29.67a8.53 8.53 0 0 0-.16-1.61 8.32 8.32 0 0 0-.63-1.86 8.12 8.12 0 0 0-1-1.62 8 8 0 0 0-4.56-2.75 8.53 8.53 0 0 0-1.65-.16h-15.32C149.596 45.987 125.145 24 96 24S42.404 45.987 39.32 74.969H24a8.53 8.53 0 0 0-1.61.16 8 8 0 0 0-4.56 2.75 8.12 8.12 0 0 0-1 1.62 8.32 8.32 0 0 0-.63 1.86 8.53 8.53 0 0 0-.2 1.61l-8 205c0 .54.056 1.08.16 1.61a8 8 0 0 0 5.56 6.06l.67.17c.53.104 1.07.16 1.61.16h288c.54 0 1.08-.056 1.61-.16l.67-.17a8 8 0 0 0 5.56-6.06c.104-.53.16-1.07.16-1.61l-8-144Zm-126.53-14.85c.16-.42.33-.84.5-1.26.42-1.06.87-2.11 1.36-3.13a48.68 48.68 0 0 1 3.54-6.16c.88-1.3 1.82-2.557 2.82-3.77a48.91 48.91 0 0 1 3.16-3.48 52 52 0 0 1 3.48-3.16c1.207-1 2.463-1.94 3.77-2.82a48.68 48.68 0 0 1 6.16-3.54 47.35 47.35 0 0 1 6.67-2.63 50.34 50.34 0 0 1 7.07-1.64 50 50 0 0 1 14.92 0 50.34 50.34 0 0 1 7.11 1.64 47.35 47.35 0 0 1 6.67 2.63 48.68 48.68 0 0 1 6.16 3.54c1.3.88 2.557 1.82 3.77 2.82a48.91 48.91 0 0 1 3.48 3.16 45.907 45.907 0 0 1 3.16 3.48 53.828 53.828 0 0 1 2.82 3.77 48.68 48.68 0 0 1 3.54 6.16 47.35 47.35 0 0 1 2.63 6.67c.46 1.49.85 3 1.18 4.57h-96c.33-1.55.72-3.08 1.18-4.57.32-.77.58-1.53.85-2.28ZM47.56 73.509a50.34 50.34 0 0 1 1.64-7.11 47.35 47.35 0 0 1 2.63-6.67 48.68 48.68 0 0 1 3.54-6.16c.88-1.334 1.82-2.59 2.82-3.77 1-1.18 2.053-2.34 3.16-3.48a48.91 48.91 0 0 1 3.48-3.16c1.213-1 2.47-1.94 3.77-2.82a48.68 48.68 0 0 1 6.16-3.54 47.35 47.35 0 0 1 4.39-1.83c.75-.27 1.51-.53 2.28-.77a50.34 50.34 0 0 1 7.11-1.64 50 50 0 0 1 14.92 0 50.34 50.34 0 0 1 7.11 1.64 47.35 47.35 0 0 1 6.67 2.63 48.68 48.68 0 0 1 6.16 3.54c1.3.88 2.557 1.82 3.77 2.82a48.91 48.91 0 0 1 6.64 6.64c1 1.213 1.94 2.47 2.82 3.77a48.68 48.68 0 0 1 3.54 6.16 47.35 47.35 0 0 1 1.83 4.36c.27.75.53 1.51.77 2.28a50.34 50.34 0 0 1 1.64 7.11c.07.48.12 1 .18 1.46H47.38c.06-.49.11-1 .18-1.46ZM16 287.969l8-204.69v-.31h144v.35l1.9 43.24a55.94 55.94 0 0 0-2.5 9.41H152a8.53 8.53 0 0 0-1.61.16 8 8 0 0 0-4.56 2.75 8.12 8.12 0 0 0-1 1.62 8.32 8.32 0 0 0-.63 1.86 8.53 8.53 0 0 0-.2 1.61l-9 144H16Zm169 0h-42l9-143.5v-.5h144v.44l8 143.56H185Z"/></g></svg>