<svg xmlns="http://www.w3.org/2000/svg" width="320" height="320" viewBox="0 0 320 320"><g id="Foundations/Icons/Brand-Icons/House-and-Home/17-shower" fill="none" fill-rule="evenodd" stroke="none" stroke-width="1"><path id="lg-icon-fill-primary" fill="#FFD500" d="M92 128h136v16H92z"/><path id="Half-tone" fill="#000" d="M112 104a4 4 0 1 1 0 8 4 4 0 0 1 0-8Zm32 0 .2.005a4 4 0 1 1-.2-.005Zm32 0 .2.005a4 4 0 1 1-.2-.005Zm32 0a4 4 0 1 1 0 8 4 4 0 0 1 0-8Zm-80-16a4 4 0 1 1 0 8 4 4 0 0 1 0-8Zm32 0a4 4 0 1 1 0 8 4 4 0 0 1 0-8Zm32 0a4 4 0 1 1 0 8 4 4 0 0 1 0-8Z"/><path id="Outlines" fill="#000" d="m104.11 264.1.2.005a4 4 0 0 1 3.79 3.995L108 308a4 4 0 0 1-4 4l-.2-.005A4 4 0 0 1 100 308l.11-39.9a4 4 0 0 1 4-4Zm56 0 .2.005a4 4 0 0 1 3.79 3.995L164 308a4 4 0 0 1-4 4l-.2-.005A4 4 0 0 1 156 308l.11-39.9a4 4 0 0 1 4-4Zm56 0 .2.005a4 4 0 0 1 3.79 3.995L220 308a4 4 0 0 1-4 4l-.2-.005A4 4 0 0 1 212 308l.11-39.9a4 4 0 0 1 4-4Zm-85-47.99.2.005a4 4 0 0 1 3.79 3.995L135 260a4 4 0 0 1-4 4l-.2-.005A4 4 0 0 1 127 260l.11-39.89a4 4 0 0 1 4-4Zm56 0 .2.005a4 4 0 0 1 3.79 3.995L191 260a4 4 0 0 1-4 4l-.2-.005A4 4 0 0 1 183 260l.11-39.89a4 4 0 0 1 4-4Zm-83-48.01.2.005a4 4 0 0 1 3.79 3.995L108 212a4 4 0 0 1-4 4l-.2-.005A4 4 0 0 1 100 212l.11-39.9a4 4 0 0 1 4-4Zm56 0 .2.005a4 4 0 0 1 3.79 3.995L164 212a4 4 0 0 1-4 4l-.2-.005A4 4 0 0 1 156 212l.11-39.9a4 4 0 0 1 4-4Zm56 0 .2.005a4 4 0 0 1 3.79 3.995L220 212a4 4 0 0 1-4 4l-.2-.005A4 4 0 0 1 212 212l.11-39.9a4 4 0 0 1 4-4ZM172 0a8 8 0 0 1 8 8v50.85c2.11.54 4.22 1.15 6.22 1.85A79.09 79.09 0 0 1 196.3 65a75.6 75.6 0 0 1 19.99 14.84c1.64 1.7 3.18 3.47 4.64 5.31A68.75 68.75 0 0 1 236 128v16a8 8 0 0 1-8 8H92a8 8 0 0 1-8-8v-16a7.88 7.88 0 0 1 .34-2.25 67.76 67.76 0 0 1 4.54-22.33A70.3 70.3 0 0 1 97.23 88c.68-.95 1.39-1.89 2.12-2.8a75.27 75.27 0 0 1 27.9-21.71 75.266 75.266 0 0 1 6.8-2.72C136 60.1 138 59.52 140 59V8a8 8 0 0 1 8-8Zm56 128H92v16h136v-16Zm-67.86-63.63C125.61 64.37 97 88.68 92.81 120h134.66c-4.21-31.32-32.8-55.63-67.33-55.63ZM172 8h-24v49.3a80.85 80.85 0 0 1 12.14-.88l1.16.009a81.35 81.35 0 0 1 10.39.821h.31V8Z"/></g></svg>