<svg width="320" height="320" viewBox="0 0 320 320" xmlns="http://www.w3.org/2000/svg"><g id="Foundations/Icons/Brand-Icons/Sports-and-Pastimes/08-shuttlecock" stroke="none" stroke-width="1" fill="none" fill-rule="evenodd"><path d="M159.834 15a55.3 55.3 0 0 1 42.65 20.6 44.44 44.44 0 0 1 9 20.81c.76 5.3.75 13.1-3.61 20.16-8 13-25.87 17-39.46 18.05-2.21.18-4.42.29-6.55.35h-2.72c-16.35 0-29.37-3.75-38.71-11.14-11.12-8.81-14.9-19.51-11.24-31.79 5.42-18.2 26.53-35.08 46.09-36.86 1.5-.14 3-.21 4.56-.21" id="lg-icon-fill-primary" fill="#FFD500"/><path d="m191.834 55 .2.005a4 4 0 1 1-.4 0l.2-.005Zm-32 0 .2.005a4 4 0 1 1-.4 0l.2-.005Zm-32 0a4 4 0 1 1 0 8 4 4 0 0 1 0-8Zm16-16 .2.005a4 4 0 1 1-.4 0l.2-.005Zm32 0a4 4 0 1 1 0 8 4 4 0 0 1 0-8Zm-16-16a4 4 0 1 1 0 8 4 4 0 0 1 0-8Z" id="Half-tone" fill="#000"/><path d="m265.004 265.56-15.49-4.8-5.68-19.61 8 2.75a4 4 0 0 0 2.62-7.56l-13.34-4.61-39.74-135.84a4.09 4.09 0 0 0-1.08-1.75 38.79 38.79 0 0 0 14.36-13.37c9.4-15.24 5.16-36-5.9-50.11A63.13 63.13 0 0 0 159.834 7v8a55.3 55.3 0 0 1 42.65 20.6 44.44 44.44 0 0 1 9 20.81c.76 5.3.75 13.1-3.61 20.16-8 13-25.87 17-39.46 18.05-2.21.18-4.42.29-6.55.35h-2.72c-16.35 0-29.37-3.75-38.71-11.14-11.12-8.81-14.9-19.51-11.24-31.79 5.42-18.2 26.53-35.08 46.09-36.86 1.5-.14 3-.21 4.56-.21V7c-1.76 0-3.53.08-5.28.24-37.59 3.42-77.46 52.49-39.09 82.89a51.38 51.38 0 0 0 5.09 3.53 4 4 0 0 0-1.73 2.23l-40.11 137.47-13.32 4.79a4.001 4.001 0 0 0 2.71 7.53l7.83-2.82-5.7 19.52-15.47 5a4.004 4.004 0 0 0 2.46 7.62l10.3-3.32-6.8 23.28a4 4 0 0 0 2.72 5 4 4 0 0 0 4.96-2.72l6.86-23.49c6.19 4.38 17.5 9 35.08 4.21l-4.35 29.52a4 4 0 1 0 7.91 1.16l4.24-28.74c6.68 3.53 18.77 6.85 37.68 1.74V308a4 4 0 1 0 8 0v-26.26a53.86 53.86 0 0 0 18.41 3.33 47.28 47.28 0 0 0 20-4.37l4.11 27.88a4 4 0 1 0 7.91-1.16l-4.23-28.42c18 3 28.54-.74 34.65-6.19l7.15 24.37a4 4 0 0 0 4.96 2.72 4 4 0 0 0 2.72-5l-7.29-25 10.42 3.23a4.001 4.001 0 0 0 2.38-7.64l-.02.07Zm-153.36 3.59c-19.66 6.5-30.1-.19-33.95-3.74l6.14-21.06a30.84 30.84 0 0 0 19.13 6.25 43.55 43.55 0 0 0 11.65-1.69l-2.97 20.24Zm4.27-29c-17.51 6.27-26.55-.84-29.62-4.16l40.25-137.86c.11-.41.158-.835.14-1.26a62.93 62.93 0 0 0 10.15 3.53 3.84 3.84 0 0 0-.61 1.6l-20.31 138.15Zm39.92 33.11c-21.44 6.39-32.46.92-36.42-2l3-20.59c6.09 3.48 16.82 6.63 33.39 1.79l.03 20.8Zm0-169.26v140.1c-19.25 6.34-28.89.55-32.1-2.18l20.44-138.76a4.08 4.08 0 0 0 0-1.26 95.37 95.37 0 0 0 11.85 1 3.71 3.71 0 0 0-.19 1.1Zm7.83-1.1c1.79-.07 3.58-.16 5.36-.31 2.34-.18 4.71-.45 7.08-.79a3.86 3.86 0 0 0-.05 1.36l20.6 139.84c-14.61 8.86-28.66 3-32.82.92V104a4 4 0 0 0-.17-1.1Zm.17 170.2v-20.4a44.65 44.65 0 0 0 16.11 3.12 39.36 39.36 0 0 0 18-4.32l3.08 20.87c-16.67 8.86-32.57 2.86-37.19.73Zm20.14-171.1a4.19 4.19 0 0 0-.59-1.57 71.1 71.1 0 0 0 10.16-3.11c.02.275.07.546.15.81l39.7 136c-5.45 9.82-18.33 9.61-28.88 7.41L183.974 102Zm24.86 168.61-3.05-20.74c16 2.69 25.14-1.35 30.38-6.38l5.9 20.2c-5.23 7.78-16.67 10.16-33.23 6.92Z" id="Outlines" fill="#000"/></g></svg>