<svg xmlns="http://www.w3.org/2000/svg" width="320" height="320" viewBox="0 0 320 320"><g id="Foundations/Icons/Brand-Icons/Health/01-siren" fill="none" fill-rule="evenodd" stroke="none" stroke-width="1"><path id="lg-icon-fill-primary" fill="#FFD500" d="M256 287.17V304H64v-24h192v7.17ZM64 272V142.79S66.5 64 160 64s96 78.79 96 78.79V272H64Z"/><path id="Half-tone" fill="#000" d="M140 288a4 4 0 1 1 0 8 4 4 0 0 1 0-8Zm-32 0a4 4 0 1 1 0 8 4 4 0 0 1 0-8Zm-32 0a4 4 0 1 1 0 8 4 4 0 0 1 0-8Zm96 0a4 4 0 1 1 0 8 4 4 0 0 1 0-8Zm64 0a4 4 0 1 1 0 8 4 4 0 0 1 0-8Zm-32 0a4 4 0 1 1 0 8 4 4 0 0 1 0-8Z"/><path id="Outlines" fill="#000" d="M160 56c22.69 0 42.31 4.48 58.31 13.31a85.46 85.46 0 0 1 31.54 29.84A95.42 95.42 0 0 1 264 142.53V304a8 8 0 0 1-8 8H64a8 8 0 0 1-8-8V142.53a95.42 95.42 0 0 1 14.15-43.38 85.46 85.46 0 0 1 31.54-29.84C117.69 60.48 137.31 56 160 56Zm96 224H64v24h192v-24ZM160 64c-93.5 0-96 78.79-96 78.79V272h192V142.79S253.5 64 160 64ZM48 112a4 4 0 1 1 0 8H16a4 4 0 1 1 0-8Zm256 0a4 4 0 1 1 0 8h-32a4 4 0 1 1 0-8ZM65.17 33.17a4.002 4.002 0 0 1 5.66 0l24 24a4.002 4.002 0 0 1-5.66 5.66l-24-24a4.002 4.002 0 0 1 0-5.66Zm184 0a4.002 4.002 0 0 1 5.66 5.66l-24 24A4 4 0 0 1 228 64a4 4 0 0 1-2.83-6.83ZM160 8a4 4 0 0 1 4 4v32a4 4 0 1 1-8 0V12a4 4 0 0 1 4-4Z"/></g></svg>