<svg xmlns="http://www.w3.org/2000/svg" width="320" height="320" fill="none" viewBox="0 0 320 320"><path fill="#FFD500" fill-rule="evenodd" d="m244.039 11.648 2.265 17.062-1.119.503c-67.94 30.605-102.686 59.05-117.008 105.61l2.108.46c16.557-11.522 33.596-16.284 53.715-16.284 47.23 0 84 37.084 84 81 0 29.756-13.567 57.323-35.527 74.818-19.375 15.436-48.005 25.182-71.652 25.182-61.653 0-108.821-46.684-108.821-108 0-49.474 25.121-93.919 63.704-124.94 32.389-26.041 79.246-45.536 127.544-55.253l.791-.158ZM152 143c-9.57 0-21.655 2.22-28.195 7.098l-.209.157-.157.727c-2.087 9.876-3.35 25.468-3.434 35.905L120 188c0 54.83 23.826 96 48 96 18.946 0 32-20.511 32-60 0-44.095-23.213-81-48-81Z" clip-rule="evenodd"/><path fill="#000" fill-rule="evenodd" d="M232 224a4 4 0 1 1 0 8 4 4 0 0 1 0-8Zm-160 0a4 4 0 1 1 0 8 4 4 0 0 1 0-8Zm32 0a4 4 0 1 1 0 8 4 4 0 0 1 0-8Zm144-16a4 4 0 1 1 0 8 4 4 0 0 1 0-8Zm-32 0a4 4 0 1 1 0 8 4 4 0 0 1 0-8Zm-128 0a4 4 0 1 1 0 8 4 4 0 0 1 0-8Zm144-16a4 4 0 1 1 0 8 4 4 0 0 1 0-8Zm-160 0a4 4 0 1 1 0 8 4 4 0 0 1 0-8Zm32 0a4 4 0 1 1 0 8 4 4 0 0 1 0-8Zm112-16a4 4 0 1 1 0 8 4 4 0 0 1 0-8Zm-128 0a4 4 0 1 1 0 8 4 4 0 0 1 0-8Zm160 0a4 4 0 1 1 0 8 4 4 0 0 1 0-8Zm-16-16a4 4 0 1 1 0 8 4 4 0 0 1 0-8Zm-128 0a4 4 0 1 1 0 8 4 4 0 0 1 0-8Zm-32 0a4 4 0 1 1 0 8 4 4 0 0 1 0-8Zm16-16a4 4 0 1 1 0 8 4 4 0 0 1 0-8Z" clip-rule="evenodd"/><path fill="#000" fill-rule="evenodd" d="m243.258 8.07 3.707-.7 5.733 22.928-3.082 1.361c-62.57 27.624-97.387 55.224-113.539 93.754l-.497 1.202.596-.32c14.56-7.773 29.825-11.186 46.992-11.293L184 115c51.665 0 88 36.682 88 85 0 32.265-13.729 59.103-37.542 78.074-20.809 16.578-48.2 25.926-73.637 25.926C94.771 304 48 257.754 48 192c0-52.006 22.293-94.694 62.691-127.176 34.514-27.749 81.294-47.072 132.567-56.755Zm-2.219 8.579-.791.158c-48.298 9.716-92.155 28.211-124.544 54.252C77.121 102.08 56 142.526 56 192c0 61.316 43.168 104 104.821 104 23.647 0 49.277-8.747 68.652-24.183C251.433 254.323 264 229.756 264 200c0-43.917-32.77-77-80-77-20.119 0-37.158 4.761-53.715 16.283l-9.517 6.623 3.409-11.082c14.322-46.56 50.068-78.006 118.008-108.61l1.119-.503-2.265-9.062ZM152 139c30.356 0 52 37.068 52 85 0 43.319-11.34 64-36 64-29.951 0-52-41.337-52-100 0-12.058 1.528-25.66 4.101-36.893l.304-1.327 1.05-.866C129.782 142.048 140.079 139 152 139Zm0 8c-9.57 0-17.655 2.22-24.195 7.098l-.209.157-.157.727c-2.087 9.875-3.35 21.468-3.434 31.904L124 188c0 54.83 19.826 92 44 92 18.946 0 28-16.512 28-56 0-44.096-19.213-77-44-77Z" clip-rule="evenodd"/></svg>