<svg xmlns="http://www.w3.org/2000/svg" width="320" height="320" viewBox="0 0 320 320"><g id="Foundations/Icons/Brand-Icons/Sports-and-Pastimes/02-soccer-ball" fill="none" fill-rule="evenodd" stroke="none" stroke-width="1"><path id="lg-icon-fill-primary" fill="#FFD500" d="M187.84 195h-57.33l-19.23-54.12 47.9-34.31 46.46 34.31z"/><path id="Half-tone" fill="#000" d="m172 168 .2.005a4 4 0 1 1-.4 0l.2-.005Zm16-16 .2.005a4 4 0 1 1-.4 0l.2-.005Zm-32 0a4 4 0 1 1 0 8 4 4 0 0 1 0-8Zm16-16 .2.005a4 4 0 1 1-.4 0l.2-.005Zm-32 0a4 4 0 1 1 0 8 4 4 0 0 1 0-8Zm16-16a4 4 0 1 1 0 8 4 4 0 0 1 0-8Z"/><path id="Outlines" fill="#000" d="M160 8C76.053 8 8 76.053 8 160s68.053 152 152 152 152-68.053 152-152S243.947 8 160 8Zm143.63 141.67-28.58-32.12 3.25-39.71a142.61 142.61 0 0 1 25.33 71.83Zm-32.15-80.84a3.86 3.86 0 0 0-.61 1.78L267.15 116 211 134.92l-48-35.48V40.68l40.2-16.38a4 4 0 0 0 1.61-1.22 145.17 145.17 0 0 1 66.67 45.75ZM187.84 195h-57.33l-19.23-54.12 47.9-34.31 46.46 34.31-17.8 54.12ZM160 16c11.11 0 22.182 1.274 33 3.8l-33.91 13.83-33.67-13.47A145.161 145.161 0 0 1 160 16ZM58.18 58.18a143.52 143.52 0 0 1 55.09-34.46 3.87 3.87 0 0 0 1 .59L155 40.61v59.11l-49.12 35.19-55.34-19.66L47.57 70a145.82 145.82 0 0 1 10.61-11.82ZM40.21 80l2.42 36.82-26.21 32.09A142.58 142.58 0 0 1 40.21 80ZM48 122.85l55.33 19.66 19.84 55.84L87.47 245l-50.1-11.22a4.25 4.25 0 0 0-1.12-.07A143.1 143.1 0 0 1 16 162l32-39.15Zm10.14 139a146.1 146.1 0 0 1-15.8-18.69l44.45 10 27.46 43.55a143.37 143.37 0 0 1-56.07-34.89l-.04.03Zm67.22 38a3.94 3.94 0 0 0-.56-1.48l-30.73-48.8L129.72 203h59l36.41 48.06-32.23 48a3.67 3.67 0 0 0-.57 1.34 145.76 145.76 0 0 1-66.9-.55h-.07Zm136.42-38a143.31 143.31 0 0 1-58.13 35.46l28.68-42.69 46.12-12.7a144.85 144.85 0 0 1-16.63 19.9l-.04.03Zm22.85-29.65a3.92 3.92 0 0 0-1.44.11l-51.56 14.2-36.5-48.17 18.35-55.78 56.17-19L304 162.09a143.07 143.07 0 0 1-19.33 70.08l-.04.03Z"/></g></svg>