<svg xmlns="http://www.w3.org/2000/svg" width="320" height="320" viewBox="0 0 320 320"><g id="Foundations/Icons/Brand-Icons/Energy-and-Resources/09-solar-panel" fill="none" fill-rule="evenodd" stroke="none" stroke-width="1"><path id="lg-icon-fill-primary" fill="#FFD500" d="M207.703 120h-95.69a47.85 47.85 0 1 1 95.69 0Z"/><path id="Half-tone" fill="#000" d="M132.013 248a4 4 0 1 1 0 8 4 4 0 0 1 0-8Zm152 0a4 4 0 1 1 0 8 4 4 0 0 1 0-8Zm-168-16a4 4 0 1 1 0 8 4 4 0 0 1 0-8Zm152 0a4 4 0 1 1 0 8 4 4 0 0 1 0-8Zm-200-48a4 4 0 1 1 0 8 4 4 0 0 1 0-8Zm136 0a4 4 0 1 1 0 8 4 4 0 0 1 0-8Zm-152-16a4 4 0 1 1 0 8 4 4 0 0 1 0-8Zm136 0a4 4 0 1 1 0 8 4 4 0 0 1 0-8Z"/><path id="Outlines" fill="#000" d="M280.013 144a8 8 0 0 1 7.89 6.46l24 120 .047.265a7 7 0 0 1 .063.535V296a8 8 0 0 1-8 8h-288a8 8 0 0 1-8-8v-23.51a7.55 7.55 0 0 1 .16-2.06l24-120a8 8 0 0 1 7.84-6.43Zm24 136h-288v16h288v-16Zm-148-64.25h-64.58L84.173 272h71.84v-56.25Zm72.58 0h-64.58V272h71.84l-7.26-56.25Zm64.17 0h-56.1l7.25 56.25h60.1l-11.25-56.25Zm-209.4 0h-56.1L16.013 272h60.1l7.25-56.25Zm137-63.75h-56.35v55.75h63.55l-7.2-55.75Zm59.65 0h-51.58l7.19 55.75h55.54L280.013 152Zm-124 0h-56.35l-7.2 55.75h63.55V152Zm-64.42 0h-51.58l-11.15 55.75h55.54l7.19-55.75Zm68.42-88c30.915.033 55.967 25.086 56 56a8 8 0 0 1-7.75 7.996l-.25.004h-96.31a8 8 0 0 1-8-8c.033-30.605 24.588-55.465 55.075-55.992l.925-.008h.31Zm-76 56a4 4 0 0 1 .2 7.995l-.2.005h-32a4 4 0 0 1-.2-7.995l.2-.005h32Zm180 0a4 4 0 0 1 .2 7.995l-.2.005h-32a4 4 0 0 1-.2-7.995l.2-.005h32ZM135.734 77.985a47.85 47.85 0 0 0-23.725 41.487l.004.528h95.69a47.85 47.85 0 0 0-71.969-42.015Zm-57.05-28.966.16.151 24 24a4.002 4.002 0 0 1-5.497 5.814l-.164-.154-24-24a4.002 4.002 0 0 1 5.501-5.811Zm166.365-.885a4.002 4.002 0 0 1 1.949 6.533l-.155.163-24 24a4 4 0 0 1-2.83 1.17 4 4 0 0 1-2.98-6.67l.15-.16 24-24a4.002 4.002 0 0 1 3.866-1.036ZM160.013 16a4 4 0 0 1 3.996 3.8l.004.2v32a4 4 0 0 1-7.995.2l-.005-.2V20a4 4 0 0 1 4-4Z"/></g></svg>