<svg xmlns="http://www.w3.org/2000/svg" fill="none" viewBox="0 0 320 320"><g id="am-solutions"><path id="lg-icon-fill-primary" fill="#42aeea" d="m288 64 26.343 26.343a8 8 0 0 1 0 11.314L288 128h-64v64h-96v64H28a4 4 0 0 1-4-4v-56a4 4 0 0 1 4-4h36v-64h96V64z"/><g id="Outlines" fill="#1d1d1b"><path d="M292 124a4 4 0 0 1 4 4v164a4 4 0 0 1-4 4H28a4 4 0 0 1-4-4v-36a4 4 0 0 1 4-4h68a4 4 0 0 1 0 8H32v28h156v-28h-28a4 4 0 0 1 0-8h92v-24h-28a4 4 0 0 1 0-8h32a4 4 0 0 1 4 4v32a4 4 0 0 1-4 4h-60v28h92V164h-28v28a4 4 0 0 1-8 0v-32a4 4 0 0 1 4-4h32v-24h-60v60a4 4 0 0 1-4 4h-28v28a4 4 0 0 1-4 4h-32a4 4 0 0 1 0-8h28v-24h-56v60a4 4 0 0 1-8 0v-64a4 4 0 0 1 4-4h92v-60a4 4 0 0 1 4-4zM32.123 220a4 4 0 0 1 0 8H32a4 4 0 0 1 0-8zm16 0a4 4 0 0 1 0 8h-.246a4 4 0 0 1 0-8z"/><path d="M64.123 220a4 4 0 0 1 0 8h-.246a4 4 0 0 1 0-8zm16 0a4 4 0 0 1 0 8h-.246a4 4 0 0 1 0-8zM96 219.877a4 4 0 0 1 4 4V224a4 4 0 0 1-4 4h-.123a4 4 0 0 1-2.905-6.749l.279-.279A3.98 3.98 0 0 1 96 219.877m0-16a4 4 0 0 1 4 4v.246a4 4 0 0 1-8 0v-.246a4 4 0 0 1 4-4m0-16a4 4 0 0 1 4 4v.246a4 4 0 0 1-8 0v-.246a4 4 0 0 1 4-4M292 24a4 4 0 0 1 4 4v36a4 4 0 0 1-4 4H164v28a4 4 0 0 1-4 4H64a4 4 0 0 1 0-8h92V64a4 4 0 0 1 4-4h128V32H132v32a4 4 0 0 1-8 0V32H32v28h64a4 4 0 0 1 0 8H32v120h28v-60a4 4 0 0 1 4-4h96a4 4 0 0 1 0 8H68v60a4 4 0 0 1-4 4H28a4 4 0 0 1-4-4V28a4 4 0 0 1 4-4z"/><path d="M96 171.877a4 4 0 0 1 4 4v.246a4 4 0 0 1-8 0v-.246a4 4 0 0 1 4-4M96.123 156a4 4 0 0 1 2.904 6.748l-.279.279A4 4 0 0 1 92 160.123V160a4 4 0 0 1 4-4zm16 0a4 4 0 0 1 0 8h-.246a4 4 0 0 1 0-8zm16 0a4 4 0 0 1 0 8h-.246a4 4 0 0 1 0-8zm16 0a4 4 0 0 1 0 8h-.246a4 4 0 0 1 0-8zm16 0a4 4 0 0 1 0 8h-.246a4 4 0 0 1 0-8zm16 0a4 4 0 0 1 0 8h-.246a4 4 0 0 1 0-8zm15.877-.123a4 4 0 0 1 4 4V160a4 4 0 0 1-4 4h-.123a4 4 0 0 1-2.905-6.749l.279-.279a3.98 3.98 0 0 1 2.749-1.095m0-16a4 4 0 0 1 4 4v.246a4 4 0 0 1-8 0v-.246a4 4 0 0 1 4-4m0-16a4 4 0 0 1 4 4v.246a4 4 0 0 1-8 0v-.246a4 4 0 0 1 4-4m0-16a4 4 0 0 1 4 4v.246a4 4 0 0 1-8 0v-.246a4 4 0 0 1 4-4m85.172-30.705a4 4 0 0 1 5.656 0l16 16a4 4 0 0 1 0 5.656l-16 16a4 4 0 1 1-5.656-5.656l9.172-9.172h-14.467a4 4 0 0 1 0-8h14.467l-9.172-9.172a4 4 0 0 1 0-5.656m-84.843 14.833a4 4 0 0 1 2.698 6.743l-.279.28A4 4 0 0 1 188 96.123v-.124a4 4 0 0 1 4-4h.123zM208.123 92a4 4 0 0 1 0 8h-.246a4 4 0 0 1 0-8zm16 0a4 4 0 0 1 0 8h-.246a4 4 0 0 1 0-8zm16 0a4 4 0 0 1 0 8h-.246a4 4 0 0 1 0-8zm16 0a4 4 0 0 1 0 8h-.246a4 4 0 0 1 0-8z"/></g></g></svg>