<svg xmlns="http://www.w3.org/2000/svg" viewBox="0 0 320 320"><g id="Foundations/Icons/Brand-Icons/Communication/06-speech-bubble" fill="#000" fill-rule="evenodd" stroke="none" stroke-width="1"><path id="Half-tone" d="M52 208a4 4 0 1 1 0 8 4 4 0 0 1 0-8m32 0a4 4 0 1 1 0 8 4 4 0 0 1 0-8m32 0a4 4 0 1 1 0 8 4 4 0 0 1 0-8m32 0a4 4 0 1 1 0 8 4 4 0 0 1 0-8m32 0a4 4 0 1 1 0 8 4 4 0 0 1 0-8m32 0 .2.005a4 4 0 1 1-.4 0zm32 0a4 4 0 1 1 0 8 4 4 0 0 1 0-8m32 0a4 4 0 1 1 0 8 4 4 0 0 1 0-8M36 192a4 4 0 1 1 0 8 4 4 0 0 1 0-8m32 0a4 4 0 1 1 0 8 4 4 0 0 1 0-8m32 0a4 4 0 1 1 0 8 4 4 0 0 1 0-8m32 0a4 4 0 1 1 0 8 4 4 0 0 1 0-8m32 0a4 4 0 1 1 0 8 4 4 0 0 1 0-8m32 0 .2.005a4 4 0 1 1-.4 0zm32 0a4 4 0 1 1 0 8 4 4 0 0 1 0-8m32 0a4 4 0 1 1 0 8 4 4 0 0 1 0-8m32 0a4 4 0 1 1 0 8 4 4 0 0 1 0-8"/><path id="Outlines" d="M311.72 40a8.29 8.29 0 0 1 8.28 8.3v183.4a8.29 8.29 0 0 1-8.28 8.3h-223l-40.87 40v-40H8.28A8.29 8.29 0 0 1 0 231.7V48.3A8.29 8.29 0 0 1 8.28 40Zm0 8H8.28a.29.29 0 0 0-.28.3v183.4a.29.29 0 0 0 .28.3h39.57a8 8 0 0 1 8 8v21l27.28-26.72a8 8 0 0 1 5.59-2.28h223a.29.29 0 0 0 .28-.3V48.3a.29.29 0 0 0-.28-.3M172 144a4 4 0 0 1 0 8H44a4 4 0 1 1 0-8zm104-32a4 4 0 0 1 0 8H44a4 4 0 1 1 0-8zm0-32a4 4 0 0 1 0 8H44a4 4 0 0 1 0-8z"/></g></svg>