<svg xmlns="http://www.w3.org/2000/svg" width="320" height="320" viewBox="0 0 320 320"><g id="Foundations/Icons/Brand-Icons/UI/Design-and-Development/19-sprint" fill="none" fill-rule="evenodd" stroke="none" stroke-width="1"><path id="Half-tone" fill="#000" d="M160 172a4 4 0 1 1 0 8 4 4 0 0 1 0-8Zm16-16a4 4 0 1 1 0 8 4 4 0 0 1 0-8Zm-32 0a4 4 0 1 1 0 8 4 4 0 0 1 0-8Zm48-16a4 4 0 1 1 0 8 4 4 0 0 1 0-8Zm-32 0a4 4 0 1 1 0 8 4 4 0 0 1 0-8Zm-32 0a4 4 0 1 1 0 8 4 4 0 0 1 0-8Zm48-16a4 4 0 1 1 0 8 4 4 0 0 1 0-8Zm-32 0a4 4 0 1 1 0 8 4 4 0 0 1 0-8Zm16-16a4 4 0 1 1 0 8 4 4 0 0 1 0-8Z"/><path id="lg-icon-fill-primary" fill="#FFD500" d="M160 244c8.837 0 16 7.163 16 16s-7.163 16-16 16-16-7.163-16-16 7.163-16 16-16Zm116-116c8.837 0 16 7.163 16 16s-7.163 16-16 16-16-7.163-16-16 7.163-16 16-16Zm-232 0c8.837 0 16 7.163 16 16s-7.163 16-16 16-16-7.163-16-16 7.163-16 16-16ZM160 12c8.837 0 16 7.163 16 16s-7.163 16-16 16-16-7.163-16-16 7.163-16 16-16Z"/><path id="Outlines" fill="#000" d="m270.698 241.045.13.127 24.067 24.067.104.114.083.095c.95 1.131 1.125 2.551.725 3.78l-.062.18a3.91 3.91 0 0 1-.167.382l-.094.176c-.21.376-.48.72-.801 1.013l-.042.036-23.813 23.813a4 4 0 0 1-5.497.151l-.16-.15a4 4 0 0 1-.15-5.498l.15-.16 17.163-17.163-8.708-.003-4.844-.011-6.438-.03-3.512-.025-5.06-.05-3.244-.04-3.924-.062-3.789-.074-2.944-.068-3.582-.096-1.406-.043-2.768-.092-2.718-.1-3.337-.14-3.283-.157-2.597-.137-3.22-.186-2.564-.162-1.921-.129-1.281-.09-1.407-.102-1.41-.106a604.46 604.46 0 0 1-5.87-.476l-2.7-.239a4 4 0 0 1 .722-7.967l.703.063c3.104.277 6.136.525 9.15.747l2.083.15 2.082.141 2.084.134 2.021.122 3.161.176 3.196.16 3.244.143 3.304.13 3.38.114 4.171.12 3.59.085 3.705.073 4.62.073 4.83.057 5.931.05 5.364.027 5.646.016 6.974.005 2.583-.001-17.18-17.18-.126-.13c-3.474-3.726 1.927-9.127 5.653-5.653ZM160 8c10.285 0 18.758 7.764 19.875 17.751 24.214 4.28 46.838 16.236 64.92 33.887 18.86 18.412 31.19 41.581 34.382 64.613C288.713 125.773 296 134.036 296 144c0 10.506-8.1 19.12-18.396 19.937-5.863 32.193-22.388 56.472-48.423 73.677-13.955 9.223-30.33 16.283-49.2 21.526.013.285.019.572.019.86 0 11.046-8.954 20-20 20-8.59 0-15.914-5.414-18.747-13.016-1.414.198-2.84.39-4.276.575l-2.628.33c-1.76.216-3.535.422-5.326.618l-2.698.288-2.72.274a496.29 496.29 0 0 1-4.127.386c-2.66.237-5.269.453-7.856.65l-1.41.106-3.27.232-2.488.163-2.493.153-3.133.175-3.166.16-1.277.06-3.231.137-3.293.124-3.367.11-3.455.097-3.554.085-3.666.072-4.567.072-3.958.049-4.953.046-6.983.04-9.413.022L28 272a4 4 0 0 1-.2-7.995L28 264l13.924.01 6.736-.01 7.22-.027 5.938-.04 5.62-.06 4.59-.066 3.682-.067 4.96-.113 3.42-.095 3.99-.131 2.6-.099 3.196-.136 3.144-.15 3.107-.167 1.851-.107 2.087-.129 2.083-.136 2.082-.144 1.39-.1c3.013-.223 6.045-.471 9.15-.748a427.544 427.544 0 0 0 21.254-2.41C140.503 248.46 149.263 240 160 240c7.954 0 14.824 4.644 18.046 11.368 18.018-5.025 33.575-11.738 46.725-20.428 24.07-15.908 39.34-38.153 44.881-67.969C261.718 160.318 256 152.827 256 144c0-9.37 6.444-17.236 15.142-19.406-3.101-20.954-14.507-42.217-31.936-59.232-16.783-16.383-37.7-27.511-60.046-31.61C176.69 41.994 169.046 48 160 48s-16.69-6.006-19.16-14.247c-22.346 4.098-43.263 15.226-60.046 31.61-17.43 17.014-28.835 38.277-31.938 59.232C57.556 126.764 64 134.629 64 144c0 8.83-5.722 16.323-13.66 18.974 7.549 40.802 33.255 67.392 74.928 82.962a4 4 0 0 1-2.8 7.494c-44.407-16.592-72.128-45.55-80.088-89.494C32.092 163.111 24 154.5 24 144c0-9.964 7.287-18.226 16.822-19.749 3.193-23.031 15.522-46.2 34.384-64.613 18.08-17.65 40.705-29.606 64.92-33.887C141.244 15.764 149.716 8 160 8Zm0 240c-5.812 0-10.659 4.131-11.764 9.618l-.042.221-.048.281a11.987 11.987 0 0 0-.066.489l.03-.245c-.017.128-.032.256-.046.386l.016-.141a12.074 12.074 0 0 0-.074 1.008l.005-.147a12.202 12.202 0 0 0 .02 1.39l-.012-.172c.009.148.02.294.033.44l-.022-.269a12.063 12.063 0 0 0 .073.723l-.033-.281c.014.136.031.272.05.407l-.017-.126c.017.125.035.249.055.372l-.037-.246c.016.113.033.225.052.337l-.015-.09c.016.093.032.186.05.279l-.035-.19a11.942 11.942 0 0 0 .139.686l-.04-.178.069.3-.03-.122a11.91 11.91 0 0 0 .259.935l-.038-.121c.037.12.075.238.116.356l-.078-.235c.033.104.068.207.104.31l-.026-.075a11.914 11.914 0 0 0 .326.844l-.04-.096a11.94 11.94 0 0 0 .512 1.068l-.144-.273A12 12 0 0 0 160 272c6.397 0 11.624-5.005 11.98-11.313l.009-.162-.008.162c.006-.113.01-.228.014-.342l-.006.18c.007-.174.011-.35.011-.525l-.005-.364a12.175 12.175 0 0 0-.095-1.193l.03.247a12.012 12.012 0 0 0-.05-.398l.02.151c-.016-.12-.033-.24-.052-.359l.031.208a11.98 11.98 0 0 0-.045-.294l.014.086c-.02-.123-.041-.245-.065-.366l.05.28a11.936 11.936 0 0 0-.483-1.904l.03.088c-.04-.116-.08-.232-.122-.347l.092.259a11.91 11.91 0 0 0-.116-.322l.024.063a11.927 11.927 0 0 0-.482-1.12l.036.074a11.959 11.959 0 0 0-.16-.322l.124.247a11.958 11.958 0 0 0-.158-.31l.033.063a11.98 11.98 0 0 0-.426-.75l.05.08a12.004 12.004 0 0 0-.188-.3l.138.22A11.993 11.993 0 0 0 160 248ZM44 132l-.41.007a12.167 12.167 0 0 0-.983.073l.078-.009c-.152.017-.303.036-.454.058l.376-.05a12 12 0 0 0-.805.122l.358-.06c-.15.022-.299.048-.447.077l.09-.017c-.141.026-.28.054-.42.085l.33-.068a11.93 11.93 0 0 0-.747.169l.297-.073c-.142.033-.282.068-.422.106l.125-.033c-.29.075-.575.161-.856.258C35.39 134.26 32 138.735 32 144c0 5.8 4.114 10.638 9.583 11.757a11.646 11.646 0 0 0 .843.14l-.183-.025c.137.02.274.038.412.054l-.229-.028c.118.015.236.029.355.04l-.126-.012c.159.017.318.032.478.043l-.352-.03c.152.015.305.028.46.037l-.108-.007c.13.01.26.017.392.022l-.284-.015c.121.008.243.014.366.018L44 156l.394-.006a12.187 12.187 0 0 0 .385-.019l-.311.016c.13-.005.258-.012.386-.02l-.075.004c.13-.008.258-.019.387-.03l-.312.025a12.063 12.063 0 0 0 .754-.077l-.254.032c.119-.014.237-.029.355-.046l-.1.014c.13-.017.26-.037.39-.059l-.29.045c.121-.017.242-.036.361-.057l-.071.012c.14-.023.28-.05.419-.078l-.348.066c.164-.028.326-.06.487-.095l-.14.03c.115-.024.228-.049.34-.075l-.2.045c.115-.025.23-.052.344-.08l-.143.035a11.908 11.908 0 0 0 .931-.26l-.117.037c.13-.04.259-.083.387-.127l-.27.09c.11-.035.22-.073.33-.111l-.06.02a11.915 11.915 0 0 0 .837-.328l-.118.051c.12-.05.238-.103.355-.157l-.237.106C53.036 153.153 56 148.923 56 144c0-5.198-3.305-9.624-7.927-11.291a11.867 11.867 0 0 0-.78-.252l.018.006a11.879 11.879 0 0 0-.388-.104l.37.098a11.91 11.91 0 0 0-.455-.12l.085.022c-.122-.03-.245-.06-.368-.086l.283.065c-.123-.03-.246-.058-.37-.084l.087.019a11.935 11.935 0 0 0-.936-.165l.126.018c-.133-.02-.266-.036-.4-.051l.274.033a12.019 12.019 0 0 0-.388-.046l.115.013a12.054 12.054 0 0 0-.478-.044l.363.031a12.075 12.075 0 0 0-.442-.036l.079.005a12.125 12.125 0 0 0-.372-.021l.293.016a12.142 12.142 0 0 0-.398-.02L44 132Zm232 0-.39.006a12.136 12.136 0 0 0-.4.02l.294-.016a15.09 15.09 0 0 0-.371.02l.077-.004c-.148.01-.295.021-.441.036l.364-.031c-.16.011-.32.026-.479.044l.115-.013c-.13.014-.26.029-.388.046l.273-.033c-.133.015-.267.032-.399.051l.126-.018a11.962 11.962 0 0 0-.953.168l.113-.024c-.119.025-.236.051-.354.08l.241-.056c-.12.027-.24.055-.36.085l.12-.03c-.162.04-.322.081-.48.126l.36-.096c-.127.032-.254.066-.38.102l.02-.006c-.111.032-.22.065-.33.1l.31-.094c-.143.04-.285.084-.425.13l.115-.037c-.152.048-.302.1-.452.153l-.263.099C267.179 134.546 264 138.902 264 144a12 12 0 0 0 6.87 10.851l.026.012.337.153a11.87 11.87 0 0 0 1.18.439l-.083-.027c.119.039.238.075.358.11l-.275-.083a11.905 11.905 0 0 0 .703.196l-.306-.08c.132.037.265.07.399.103l-.093-.023c.107.027.215.052.324.075l-.231-.052c.126.03.253.058.38.084l-.15-.032c.16.035.322.067.484.095l-.334-.063c.144.03.29.056.435.08l-.1-.017c.118.02.237.04.356.057l-.256-.04c.122.02.244.039.367.055l-.11-.015c.144.02.289.039.435.054l-.325-.039a9.4 9.4 0 0 0 .376.044l-.051-.005c.142.015.284.028.428.038l-.377-.033c.152.016.305.029.46.038l-.083-.005c.128.009.258.016.387.021l-.304-.016c.126.008.252.015.38.019L276 156l.394-.006a12.195 12.195 0 0 0 .376-.018l-.3.015c.13-.005.26-.012.39-.021l-.09.006c.154-.01.307-.023.46-.038l-.37.032c.146-.01.292-.024.438-.04l-.068.008c.124-.013.249-.028.372-.044l-.304.037a14.8 14.8 0 0 0 .423-.053l-.119.016a11.963 11.963 0 0 0 .957-.167l-.131.027c.11-.022.22-.047.33-.072l-.2.045c5.4-1.173 9.442-5.978 9.442-11.727 0-5.2-3.307-9.627-7.933-11.293l-.135-.047a11.84 11.84 0 0 0-.85-.26l.031.008c-.13-.035-.26-.067-.392-.098l.361.09a11.915 11.915 0 0 0-.795-.182l.329.068c-.139-.03-.278-.06-.418-.085l.089.017a11.924 11.924 0 0 0-.447-.078l.358.06a11.965 11.965 0 0 0-.806-.12l.377.05c-.15-.023-.301-.042-.453-.059l.076.009a12.07 12.07 0 0 0-.981-.073L276 132ZM160 16c-5.404 0-9.974 3.572-11.477 8.484l-.03.102-.102.364a12.082 12.082 0 0 0-.101.418l.09-.373c-.04.156-.078.314-.112.472l.022-.099a11.936 11.936 0 0 0-.224 1.364l.011-.102A12.4 12.4 0 0 0 148 28l.005.345a12.17 12.17 0 0 0 .075 1.05l-.017-.154c.016.148.033.295.054.44l-.037-.286c.014.117.029.234.046.35l-.01-.063a11.956 11.956 0 0 0 .173.947l-.024-.111c.032.152.068.304.106.454l-.082-.343c.031.14.065.279.101.417l-.02-.074c.031.12.063.237.097.355l-.077-.28c.036.137.075.274.115.41l-.038-.13a11.906 11.906 0 0 0 .303.91l-.03-.079c.045.123.093.244.142.365l-.112-.285C150.482 36.774 154.864 40 160 40c4.996 0 9.279-3.053 11.085-7.395l.007-.019a11.881 11.881 0 0 0 .535-1.605l-.012.047a11.9 11.9 0 0 0 .097-.402l-.085.355c.039-.153.075-.308.108-.463l-.023.108a11.937 11.937 0 0 0 .171-.944l-.009.062c.017-.116.032-.232.046-.35l-.037.288c.02-.146.038-.293.054-.44l-.017.152a12.078 12.078 0 0 0 .075-1.049l-.006.184a12.204 12.204 0 0 0-.066-1.899l.01.1a11.99 11.99 0 0 0-.14-.963l.016.091a11.937 11.937 0 0 0-.075-.38l.059.29a11.935 11.935 0 0 0-.082-.399l.023.108a11.919 11.919 0 0 0-.124-.523l.01.04a11.908 11.908 0 0 0-.101-.37l.091.33C170.262 19.802 165.575 16 160 16Z"/></g></svg>