<svg width="320" height="320" viewBox="0 0 320 320" xmlns="http://www.w3.org/2000/svg"><g id="Foundations/Icons/Brand-Icons/Health/05-stethoscope" stroke="none" stroke-width="1" fill="none" fill-rule="evenodd"><circle id="lg-icon-fill-primary" fill="#FFD500" cx="264" cy="156.475" r="17"/><path d="M264 132.475c-12.467.013-22.848 9.57-23.89 21.993-1.043 12.423 7.6 23.576 19.89 25.667v112.34c0 11.29-10 12-12 12H132c-2 0-12-.71-12-12v-128c44.11 0 80-36.06 80-80.39v-47.61a4 4 0 0 0-4-4h-20v-15.7a8.06 8.06 0 0 0 0-.85 8.78 8.78 0 0 0-.33-1.62 8.88 8.88 0 0 0-.63-1.49 8.22 8.22 0 0 0-2-2.44 8.35 8.35 0 0 0-2.81-1.53 8.78 8.78 0 0 0-1.68-.37 8.06 8.06 0 0 0-.85 0h-23.4a8.06 8.06 0 0 0-.85 0 8.78 8.78 0 0 0-1.62.33 8.35 8.35 0 0 0-2.83 1.57 8.22 8.22 0 0 0-2 2.44 8.88 8.88 0 0 0-.63 1.49 8.78 8.78 0 0 0-.33 1.62 8.06 8.06 0 0 0 0 .85v47.4a8.06 8.06 0 0 0 0 .85c.059.55.17 1.092.33 1.62a8.88 8.88 0 0 0 .63 1.49 8.22 8.22 0 0 0 2 2.44 8.35 8.35 0 0 0 2.81 1.53 8.78 8.78 0 0 0 1.62.33c.283.015.567.015.85 0h23.4c.283.015.567.015.85 0a8.78 8.78 0 0 0 1.62-.33 8.35 8.35 0 0 0 2.85-1.53 8.22 8.22 0 0 0 2-2.44 8.88 8.88 0 0 0 .63-1.49 8.78 8.78 0 0 0 .33-1.62 8.06 8.06 0 0 0 0-.85v-23.7h16v43.61c0 39.91-32.3 72.39-72 72.39S48 123.995 48 84.085v-43.61h16v23.52a8.36 8.36 0 0 0 1.9 5.28 8 8 0 0 0 1.1 1.12c.411.34.853.642 1.32.9a9.38 9.38 0 0 0 1.49.63 8.62 8.62 0 0 0 1.62.33h25.11a8.35 8.35 0 0 0 4.46-1.86 8 8 0 0 0 2.02-2.45 8.14 8.14 0 0 0 1-3.95v-47.4a8.14 8.14 0 0 0-.37-2.47 8.32 8.32 0 0 0-1.52-2.81 8 8 0 0 0-1.13-1.12 8.35 8.35 0 0 0-2.81-1.53 8.62 8.62 0 0 0-1.62-.33 7.94 7.94 0 0 0-.85 0H72.3a7.94 7.94 0 0 0-.85 0 8.16 8.16 0 0 0-4.45 1.86 8 8 0 0 0-1.13 1.12 8.07 8.07 0 0 0-1.24 2.05 8.29 8.29 0 0 0-.63 3.23v15.88H44a4 4 0 0 0-4 4v47.61c-.039 41.174 31.05 75.717 72 80v128.39c0 15.82 13.08 20 20 20h116c6.92 0 20-4.18 20-20v-112.34c12.29-2.091 20.933-13.244 19.89-25.667-1.042-12.423-11.423-21.98-23.89-21.993Zm-96-68.3a.31.31 0 0 1-.3.3h-23.4a.31.31 0 0 1-.3-.3v-47.4a.31.31 0 0 1 .3-.3h23.4a.31.31 0 0 1 .3.3v47.4Zm-96-47.58a.3.3 0 0 1 .31-.3h23.38a.29.29 0 0 1 .3.3v47.4a.3.3 0 0 1-.3.3H72.3a.31.31 0 0 1-.31-.3l.01-47.4Zm207.28 144.64a16.14 16.14 0 0 1-1.21 2.87c-.25.45-.52.89-.8 1.32a16 16 0 0 1-11.63 7c-.54.05-1.09.08-1.64.08-.55 0-1.1 0-1.64-.08a15.95 15.95 0 0 1-9.67-4.61 15.84 15.84 0 0 1-2-2.36c-.28-.43-.55-.87-.8-1.32a16.14 16.14 0 0 1-1.21-2.87c-.96-3.1-.96-6.42 0-9.52a16.14 16.14 0 0 1 1.21-2.87c.25-.45.52-.89.8-1.32a15.84 15.84 0 0 1 2-2.36 15.95 15.95 0 0 1 9.67-4.61c.54-.05 1.09-.08 1.64-.08.55 0 1.1 0 1.64.08a16 16 0 0 1 11.63 7c.28.43.55.87.8 1.32.495.915.9 1.877 1.21 2.87.96 3.1.96 6.42 0 9.52v-.06Z" id="Outlines" fill="#000"/></g></svg>