<svg width="320" height="320" viewBox="0 0 320 320" xmlns="http://www.w3.org/2000/svg"><g id="Foundations/Icons/Brand-Icons/COVID/02-stop" stroke="none" stroke-width="1" fill="none" fill-rule="evenodd"><rect id="lg-icon-fill-primary" fill="#FFD500" x="104.301" y="228.018" width="112" height="46.5" rx="4"/><path d="M132.301 249.018a4 4 0 1 1 0 8 4 4 0 0 1 0-8Zm32 0a4 4 0 1 1 0 8 4 4 0 0 1 0-8Zm32 0a4 4 0 1 1 0 8 4 4 0 0 1 0-8Z" id="Half-tone" fill="#000"/><path d="M160 8c83.947 0 152 68.053 152 152s-68.053 152-152 152S8 243.947 8 160 76.053 8 160 8ZM55.387 61.044C30.972 86.846 16 121.674 16 160c0 79.529 64.471 144 144 144 38.326 0 73.154-14.972 98.956-39.387L55.387 61.044ZM96.301 102.2l8 8v79.1l14.8 14.9a3.6 3.6 0 0 1 1.2 2.588V224.5h80V207a2.2 2.2 0 0 1 .047-.604l.053-.196 7.9 8v10.3h4a8 8 0 0 1 7.996 7.75l.004.25V271a8 8 0 0 1-7.75 7.996l-.25.004h-104a8 8 0 0 1-7.996-7.75l-.004-.25v-38.5a8 8 0 0 1 7.75-7.996l.25-.004h4v-15.8l-14.8-14.9a3.6 3.6 0 0 1-1.2-2.8v-88.8Zm116 130.3h-104V271h104v-38.5ZM160 16c-38.326 0-73.154 14.972-98.956 39.387l35.257 35.257V74.9c0-8 7.2-14.5 16-14.5a17.8 17.8 0 0 1 7.56 1.686l.44.214V58c0-7.7 7.2-14 16-14a17.4 17.4 0 0 1 8.6 2.2c2-5.9 8.1-10.2 15.4-10.2 7.3 0 13.4 4.3 15.4 10.2a17.4 17.4 0 0 1 8.6-2.2c8.689 0 15.818 6.142 15.997 13.805l.003.295v36.8a17.8 17.8 0 0 1 8-1.9c8.689 0 15.818 6.142 15.997 13.805l.003.295v83.7a3.9 3.9 0 0 1-1.042 2.639l-.158.161-11.823 12.021 53.335 53.335C289.028 233.154 304 198.326 304 160c0-79.529-64.471-144-144-144Zm.301 28c-4.212 0-7.849 2.687-7.995 5.899l-.005.201V127a4 4 0 0 1-7.995.2l-.005-.2V58c0-3.2-3.6-6-8-6-4.31 0-7.853 2.687-7.995 5.805L128.3 58v64.644l77.327 77.327L216.3 189.1v-82c0-3.3-3.7-6.1-8-6.1-4.212 0-7.849 2.687-7.995 5.899l-.005.201v36a4 4 0 0 1-7.995.2l-.005-.2v-85c0-3.3-3.7-6.1-8-6.1-4.212 0-7.849 2.687-7.995 5.899l-.005.201V128a4 4 0 0 1-7.995.2l-.005-.2V50.1c0-3.3-3.7-6.1-8-6.1Zm-40 82 4.2 4.2h-.2a4 4 0 0 1-3.995-3.8l-.005-.2v-.2Zm-8-57.6c-4.214 0-7.852 2.881-7.996 6.29l-.004.21v23.744l16 16V74.9c0-3.5-3.7-6.5-8-6.5Z" id="Outlines" fill="#000"/></g></svg>