<svg width="320" height="320" viewBox="0 0 320 320" xmlns="http://www.w3.org/2000/svg"><g id="Foundations/Icons/Brand-Icons/Charts-and-Graphs/10-stopwatch" stroke="none" stroke-width="1" fill="none" fill-rule="evenodd"><circle id="lg-icon-fill-primary" fill="#FFD500" cx="160" cy="184" r="36"/><path d="M128 16a4 4 0 1 1 0 8 4 4 0 0 1 0-8Zm32 0a4 4 0 1 1 0 8 4 4 0 0 1 0-8Zm32 0a4 4 0 1 1 0 8 4 4 0 0 1 0-8Z" id="Half-tone" fill="#000"/><path d="M209.998 0a6 6 0 0 1 6 6v28a6 6 0 0 1-6 6h-34l.002 8.931c25.624 3.003 49.071 13.13 68.308 28.346l17.729-17.728a4 4 0 0 1 5.497-.15l.16.15 16.97 16.97a4 4 0 0 1 .151 5.498l-.15.16-17.754 17.755C285.131 123.069 296 152.265 296 184c0 75.11-60.89 136-136 136S24 259.11 24 184c0-36.03 14.01-68.787 36.88-93.12L40.828 70.828A4 4 0 0 1 43.657 64H108a4 4 0 0 1 4 4v64.343a4 4 0 0 1-6.828 2.829l-21.65-21.65-.037.04-.002-.002a103.706 103.706 0 0 0-22.137 37.436l-.08.24c-.132.397-.261.796-.389 1.196l-.08.251-.015.05a103.358 103.358 0 0 0-2.056 7.518l-.086.363-.051.23a103.61 103.61 0 0 0-.392 1.79l-.123.607c-.076.364-.147.728-.217 1.094l-.117.63c-.055.289-.108.578-.159.868-.053.316-.108.633-.16.95a50.84 50.84 0 0 0-.123.74l-.146.955c-.032.201-.061.403-.09.605l-.141 1.03-.045.329-.031.25a104.265 104.265 0 0 0-.827 11.375l-.004.213-.001.06-.01.786L56 184c0 57.438 46.562 104 104 104s104-46.562 104-104c0-56.863-45.636-103.068-102.28-103.986L160 80l-1.366.01-.677.01a104.935 104.935 0 0 0-3.041.102l-.23.011c-.458.023-.915.05-1.372.078l-.322.021-.47.032-.523.04c-2.697.204-5.365.512-8 .92v-8.09H144V56.99h-.002V40h-34a6 6 0 0 1-5.996-5.775l-.004-.225V6a6 6 0 0 1 6-6Zm12.83 121.172a4 4 0 0 1 .151 5.497l-.15.16-31.857 31.856A39.835 39.835 0 0 1 200 184c0 22.091-17.909 40-40 40s-40-17.909-40-40 17.909-40 40-40c9.605 0 18.42 3.385 25.315 9.028l31.857-31.856a4 4 0 0 1 5.656 0ZM160 152c-17.673 0-32 14.327-32 32 0 17.673 14.327 32 32 32 17.673 0 32-14.327 32-32 0-17.673-14.327-32-32-32Zm104.864-83.966-14.409 14.408.845.758.172.156.305.279a137.554 137.554 0 0 1 7.042 6.925l.736.785.515.558.898.984.001.001.04.043.312.348.292.327.144.163 14.421-14.421-11.314-11.314ZM207.998 8h-96v24h40l-.001 16.232H152l.255-.015a137.8 137.8 0 0 1 4.64-.182l1.552-.026L160 48c2.59 0 5.172.072 7.743.217l.256.015L167.998 32h40V8ZM69.652 93.329l-.113.113-.282.282-.295.297.127-.128-.462.469-.109.111-.116.119-.045.046-.226.232-.077.08-.029.029-.443.46-.178.186.149-.155c-.391.408-.78.819-1.165 1.232h-.001l-.409.439c-13.289 14.37-23.065 31.496-28.635 50.147a147.614 147.614 0 0 0-.512 1.76l-.078.275a127.032 127.032 0 0 0-1.418 5.53l-.086.364-.05.23a127.513 127.513 0 0 0-.537 2.456c-.039.2-.08.398-.12.597-.089.429-.173.86-.256 1.29l-.13.704c-.079.411-.153.824-.226 1.237l-.194 1.155-.06.352-.071.438c-.065.418-.13.836-.192 1.255a47.06 47.06 0 0 0-.105.699c-.054.395-.11.79-.162 1.184l-.068.5-.035.282c-.06.47-.117.939-.172 1.41l-.044.36-.012.126a128.507 128.507 0 0 0-.38 3.882l-.032.392a152.244 152.244 0 0 0-.143 2.003 143.535 143.535 0 0 0-.194 4.08 131.12 131.12 0 0 0-.062 3.085L32 184c0 70.692 57.308 128 128 128 70.692 0 128-57.308 128-128 0-31.225-11.18-59.838-29.756-82.055l-.148-.176-.135-.16.134.16-.231-.274-.703-.826-.035-.042-.187-.217-.088-.103-.055-.062-.126-.144-.688-.786-.094-.107-.002-.002.096.109-.094-.107-.002-.002-.218-.246.114.128-.275-.31.147.166-.366-.409-.05-.056-.048-.055.001.003-.101-.112-.199-.222-.197-.215-.026-.029-.182-.199-.279-.304-.924-.994-.071-.077-.089-.093-.043-.046-.024-.025-.356-.375-.254-.266-.14-.147-.114-.118.085.089-.128-.133-.356-.368-.151-.155-.045-.046-.97-.983-.018-.018-.148-.149-.008-.008-.157-.156-.102-.101-.841-.828-.012-.012-.127-.123-.835-.806a128.781 128.781 0 0 0-2.16-2.015l.168.154-.771-.7c-.63-.568-1.266-1.13-1.908-1.684l-.197-.17-.194-.167-.24-.206c-19.618-16.752-44.36-27.68-71.548-30.108-.362-.032-.725-.063-1.088-.093l1.088.093a126.91 126.91 0 0 0-1.514-.126l.426.033c-.523-.042-1.047-.08-1.57-.117l1.144.084c-.493-.038-.987-.074-1.482-.106l.338.022a129.941 129.941 0 0 0-16.87-.056L152 72.28c2.642-.186 5.31-.281 8-.281 61.856 0 112 50.144 112 112s-50.144 112-112 112S48 245.856 48 184c0-29.401 11.33-56.157 29.86-76.139l.038-.042.144-.154.259-.276.073-.079-.387.414.573-.61.332-.35a112.709 112.709 0 0 1 4.533-4.498l.08-.075L104 122.686V72H53.314l18.872 18.872-.547.521-.689.66-.28.273-.28.273-.002.001-.292.288-.043.043-.163.161-.152.152-.18.178.094-.093Z" id="Outlines" fill="#000"/></g></svg>