<svg width="320" height="320" viewBox="0 0 320 320" xmlns="http://www.w3.org/2000/svg"><g id="Foundations/Icons/Brand-Icons/Seasonal/Spring/02-strawberry-pot" stroke="none" stroke-width="1" fill="none" fill-rule="evenodd"><path d="M163 33c18.765 0 35.583 8.337 46.953 21.508A47.857 47.857 0 0 1 228 51c26.51 0 48 21.49 48 48 0 .334-.003.668-.01 1.001H47.01A48.94 48.94 0 0 1 47 99c0-26.51 21.49-48 48-48 7.232 0 14.09 1.6 20.24 4.463C126.611 41.741 143.785 33 163 33Z" id="lg-icon-fill-primary" fill="#E22922"/><path d="M192.3 79.7a4 4 0 1 1 0 8 4 4 0 0 1 0-8Zm-30.3-.5a4 4 0 1 1 0 8 4 4 0 0 1 0-8Zm-32 0a4 4 0 1 1 0 8 4 4 0 0 1 0-8Zm48-16a4 4 0 1 1 0 8 4 4 0 0 1 0-8Zm-32 0a4 4 0 1 1 0 8 4 4 0 0 1 0-8Zm16.5-15.4a4 4 0 1 1 0 8 4 4 0 0 1 0-8Z" id="Half-tone" fill="#000"/><path d="M163 28c19.644 0 37.287 8.945 49.53 23.183A50.757 50.757 0 0 1 230.5 48c26.734 0 48.5 20.312 48.5 45.456a35.9 35.9 0 0 1-.062 2.545L282.2 96a7.8 7.8 0 0 1 7.8 7.8v23.4a7.8 7.8 0 0 1-7.8 7.8h-15.494L255.29 284.382c-.452 6.399-5.67 11.399-12.084 11.612l-.306.007H75.358c-6.057-.066-11.068-4.756-11.53-10.75L54.246 135H37.8a7.8 7.8 0 0 1-7.796-7.552L30 127.2v-23.4a7.8 7.8 0 0 1 7.8-7.8h7.26a36.314 36.314 0 0 1-.06-2.5C45 68.312 66.766 48 93.49 48a50.605 50.605 0 0 1 19.409 3.814C125.375 36.958 143.439 28 163 28Zm95.682 107H62.262l9.533 149.493c.1 1.92 1.65 3.433 3.602 3.505l.203.003h167.262a4.505 4.505 0 0 0 4.43-3.993l.02-.213L258.682 135ZM282 104H38v23h244v-23ZM93.5 56C71.065 56 53 72.859 53 93.543a29.1 29.1 0 0 0 .077 2.458h42.985a75.4 75.4 0 0 1 7.298-29.441l.349-.722 3.559 1.746-3.546-1.773a72.153 72.153 0 0 1 4.22-7.334A42.644 42.644 0 0 0 93.5 56ZM163 36c-21.781 0-41.522 12.727-51.813 32.779l-.296.583A67.4 67.4 0 0 0 104.069 96h117.865C220.467 62.551 194.592 36 163 36Zm67.477 20a42.8 42.8 0 0 0-12.842 1.895C224.914 68.74 229.385 81.84 229.941 96h40.978c.063-.823.09-1.655.081-2.5 0-20.641-18.065-37.5-40.523-37.5Z" id="Outlines" fill="#000"/></g></svg>