<svg width="320" height="320" viewBox="0 0 320 320" xmlns="http://www.w3.org/2000/svg"><g id="Foundations/Icons/Brand-Icons/Seasonal/Summer/01-suitcase" stroke="none" stroke-width="1" fill="none" fill-rule="evenodd"><path d="M288 92c10.93 0 19.813 8.769 19.997 19.656L308 112v136c0 10.93-8.769 19.813-19.656 19.997L288 268h-28V92h28ZM60 92v176H32c-11.046 0-20-8.954-20-20V112c0-11.046 8.954-20 20-20h28Z" id="lg-icon-fill-primary" fill="#FFD500"/><path d="m27.95 248.1.23.004A3.997 3.997 0 0 1 32 252.05a4.2 4.2 0 0 1-4 4.1 4 4 0 0 1-4-4 4 4 0 0 1 3.692-4.038l.258-.012Zm264.051.001a4 4 0 0 1 4 4 4.2 4.2 0 0 1-3.894 3.99l-.206.01a4 4 0 0 1-3.9-4.1 3.9 3.9 0 0 1 4-3.9ZM276 232.1l.2.005a4 4 0 1 1-.4 0l.2-.005Zm-232 0 .2.005a4 4 0 1 1-.4 0l.2-.005Zm248-15.999a4 4 0 0 1 .2 7.995l-.2.005a4.2 4.2 0 0 1-4-4.1 3.9 3.9 0 0 1 4-3.9Zm-263.775 0A3.9 3.9 0 0 1 32 220a4.1 4.1 0 0 1-4 4.1 4 4 0 0 1-.2-7.995l.2-.005h.225ZM276 200.1l.2.005a4 4 0 1 1-.4 0l.2-.005Zm-232 0 .2.005a4 4 0 1 1-.4 0l.2-.005Zm248-15.999a3.9 3.9 0 0 1 4 4 4 4 0 0 1-3.8 3.995l-.2.005a4.2 4.2 0 0 1-4-4.1 3.9 3.9 0 0 1 3.775-3.899H292Zm-263.775 0A3.9 3.9 0 0 1 32 188a4.2 4.2 0 0 1-4 4.1 4 4 0 0 1-.2-7.995l.2-.005h.225ZM276 168.1l.2.005a4 4 0 1 1-.4 0l.2-.005Zm-232 0 .2.005a4 4 0 1 1-.4 0l.2-.005Zm248-15.999a4 4 0 0 1 .36 7.985l-.23.014-.23.001a4.1 4.1 0 0 1-3.9-4.1 3.9 3.9 0 0 1 4-3.9Zm-263.872 0A4 4 0 0 1 32.001 156a4.2 4.2 0 0 1-4 4.1 4 4 0 0 1-4-4 3.9 3.9 0 0 1 3.676-3.994l.224-.006h.227ZM276 136.1l.2.005a4 4 0 1 1-.4 0l.2-.005Zm-232 0 .2.005a4 4 0 1 1-.4 0l.2-.005Zm248-15.999a4 4 0 0 1 .2 7.995l-.2.005a4.2 4.2 0 0 1-4-4.1 3.9 3.9 0 0 1 4-3.9Zm-263.775 0A3.9 3.9 0 0 1 32 124a4.2 4.2 0 0 1-4 4.1 4 4 0 0 1-.2-7.995l.2-.005h.225ZM276 104.1l.2.005a4 4 0 1 1-.4 0l.2-.005Zm-232 0 .2.005a4 4 0 1 1-.4 0l.2-.005Z" id="Half-tone" fill="#000"/><path d="M192.8 36c17.395 0 30.932 15.948 31.196 35.357l.004.543V88h63.7c13.286 0 24.082 10.605 24.297 23.769l.003.4V247.83c0 13.35-10.88 24.17-24.3 24.17H32.3C18.88 272 8 261.18 8 247.831V112.17C8 98.82 18.88 88 32.3 88H96V71.9c0-19.192 13.053-35.242 30.179-35.88l.52-.015.501-.005ZM55.699 95.956H32.3c-9.002 0-16.3 7.26-16.3 16.213V247.83c0 8.954 7.298 16.212 16.3 16.212h23.399V95.956Zm232.001 0H264v168.087h23.7c8.896 0 16.128-7.088 16.297-15.896l.003-.316V112.17c0-8.954-7.298-16.212-16.3-16.212Zm-31.7 0h-32V96h-25v-.044h-78V96H96v-.044H63.699v168.087H256V95.956ZM192.8 61h-65.6c-2.785 0-6.093 4.505-6.197 10.563L121 71.9V88h78V71.9c0-6.038-3.152-10.628-5.896-10.887l-.152-.01L192.8 61Zm0-17h-65.562l-.425.004C114.167 44.244 104 56.595 104 71.9V88h9V71.866l.004-.406C113.175 61.456 119.385 53 127.2 53h65.671l.295.007C200.953 53.284 207 61.879 207 71.9V88h9V71.927l-.003-.489C215.789 56.151 205.475 44 192.8 44Z" id="Outlines" fill="#000"/></g></svg>