<svg xmlns="http://www.w3.org/2000/svg" width="152" height="152"><g fill="none" fill-rule="evenodd"><path fill="#FFD500" fill-rule="nonzero" d="M76 36c-22.091 0-40 17.909-40 40s17.909 40 40 40 40-17.909 40-40a39.996 39.996 0 00-11.716-28.284A39.994 39.994 0 0076 36z"/><circle cx="76" cy="76" r="36"/><circle cx="76" cy="76" r="36"/><path fill="#000" fill-rule="nonzero" d="M76 26.615a2 2 0 002-2V2a2 2 0 10-4 0v22.615a2 2 0 002 2zM76 36c-22.091 0-40 17.909-40 40s17.909 40 40 40 40-17.909 40-40a39.996 39.996 0 00-11.716-28.284A39.994 39.994 0 0076 36zm0 76c-19.882 0-36-16.118-36-36s16.118-36 36-36 36 16.118 36 36c-.022 19.873-16.127 35.978-36 36zm0 13.32a2 2 0 00-2 2v22.615a2 2 0 104 0V127.32a2 2 0 00-2-2zM149.97 74h-22.615a2 2 0 100 4h22.615a2 2 0 100-4zM26.645 76a2 2 0 00-2-2H2.03a2 2 0 100 4h22.615a2 2 0 002-2zm85.96-34.05a2 2 0 001.395-.585l16-16a2 2 0 00-2.83-2.825l-16 16a1.998 1.998 0 001.415 3.415l.02-.005zm-74.04 69.21l-16 16a2.009 2.009 0 002.84 2.84l16-16a2 2 0 10-2.83-2.825l-.01-.015zm74.87 0a1.999 1.999 0 00-3.387.873c-.183.704.03 1.451.557 1.952l16 16a2.002 2.002 0 002.83-2.83l-16-15.995zM38 41.365a2 2 0 102.83-2.83l-16-16A2.003 2.003 0 1022 25.37l16 15.995z"/><circle cx="90" cy="62" r="2" fill="#000" fill-rule="nonzero"/><circle cx="82" cy="54" r="2" fill="#000" fill-rule="nonzero"/><circle cx="98" cy="70" r="2" fill="#000" fill-rule="nonzero"/></g></svg>