<svg width="320" height="320" viewBox="0 0 320 320" xmlns="http://www.w3.org/2000/svg"><g id="Foundations/Icons/Brand-Icons/Online/32-switch-warning" stroke="none" stroke-width="1" fill="none" fill-rule="evenodd"><circle id="lg-icon-fill-primary" fill="#FFD500" cx="240" cy="80" r="67"/><path d="m236 272 .2.005a4 4 0 1 1-.4 0l.2-.005Zm16-16 .2.005a4 4 0 1 1-.4 0l.2-.005Zm-16-16 .2.005a4 4 0 1 1-.4 0l.2-.005Zm32 0 .2.005a4 4 0 1 1-.4 0l.2-.005Zm-112-16 .2.005a4 4 0 1 1-.4 0l.2-.005Zm32 0 .2.005a4 4 0 1 1-.4 0l.2-.005Zm32 0 .2.005a4 4 0 1 1-.4 0l.2-.005Zm32 0 .2.005a4 4 0 1 1-.4 0l.2-.005Zm32 0 .2.005a4 4 0 1 1-.4 0l.2-.005Zm-48-16 .2.005a4 4 0 1 1-.4 0l.2-.005Zm32 0 .2.005a4 4 0 1 1-.4 0l.2-.005Zm-16-16 .2.005a4 4 0 1 1-.4 0l.2-.005Zm-16-16 .2.005a4 4 0 1 1-.4 0l.2-.005Z" id="Half-tone" fill="#000"/><path d="M240.068 8a71.985 71.985 0 0 1 62.315 36.048 72.011 72.011 0 0 1-.055 72A71.985 71.985 0 0 1 239.958 152h-.11c-1.44 0-2.97-.07-4.44-.16l74.047 70.36a8 8 0 0 1 0 11.6l-79.985 76a8 8 0 0 1-13.508-5.8v-48h-79.985a8 8 0 0 1-7.999-8v-40a8 8 0 0 1 7.999-8h79.985v-48a8.001 8.001 0 0 1 1-3.8 71.984 71.984 0 0 1-24.995-14.59v30.58a8 8 0 0 1-7.999 8h-79.985v48a8 8 0 0 1-4.84 7.36 8.11 8.11 0 0 1-3.159.65 7.998 7.998 0 0 1-5.509-2.21l-79.985-76a8 8 0 0 1 0-11.6l79.985-76a7.998 7.998 0 0 1 13.508 5.8v48h73.786a71.951 71.951 0 0 1-.228-72.106A71.925 71.925 0 0 1 239.958 8Zm-16.107 144v56h-87.984v40h87.984v56l79.985-76-79.985-76ZM95.984 68.19 16 144.19l79.985 76v-56h87.984v-39l-.78-1H95.984v-56ZM240.058 16h-.1a63.987 63.987 0 0 0-56.902 34.755 64.01 64.01 0 0 0 4.891 66.505 8.06 8.06 0 0 1 3.69 4.67A63.804 63.804 0 0 0 239.858 144h.1c35.34.028 64.01-28.604 64.038-63.95.028-35.346-28.598-64.022-63.938-64.05Zm-.1 86a4 4 0 1 1 0 8 4 4 0 0 1 0-8Zm0-56a4 4 0 0 1 3.994 3.8l.005.2v40a4 4 0 0 1-7.993.2l-.005-.2V50a4 4 0 0 1 3.999-4Z" id="Outlines" fill="#000"/></g></svg>