<svg width="320" height="320" viewBox="0 0 320 320" xmlns="http://www.w3.org/2000/svg"><g id="Foundations/Icons/Brand-Icons/Health/03-syringe" stroke="none" stroke-width="1" fill="none" fill-rule="evenodd"><path id="lg-icon-fill-primary" fill="#FFD500" d="m228.652 61.752 29 30 29-30-29-29z"/><path d="M121.652 218.752a4 4 0 1 1 0 8 4 4 0 0 1 0-8Zm16-16a4 4 0 1 1 0 8 4 4 0 0 1 0-8Zm16-16a4 4 0 1 1 0 8 4 4 0 0 1 0-8Zm16-16a4 4 0 1 1 0 8 4 4 0 0 1 0-8Zm16-16 .2.005a4 4 0 1 1-.2-.005Zm16-16a4 4 0 1 1 0 8 4 4 0 0 1 0-8Zm16-16a4 4 0 1 1 0 8 4 4 0 0 1 0-8Zm16-16a4 4 0 1 1 0 8 4 4 0 0 1 0-8Z" id="Half-tone" fill="#000"/><path d="m308.422 73.392-62.23-62.22a4.002 4.002 0 1 0-5.66 5.66l11.32 11.31-16.79 16.79-11.66 11.65c-7.47-5.536-17.867-4.766-24.44 1.81l-17.82 17.83-22.63 22.63-22.63 22.63-22.62 22.62-22.61 22.65-20 20a4 4 0 0 0-1.15 3.25l2.64 24.79a4 4 0 0 0 1.15 2.41l11.74 11.74-73.86 73.81a4.002 4.002 0 1 0 5.66 5.66l73.82-73.79 11.73 11.74a4 4 0 0 0 2.41 1.15l24.8 2.64h.42a4 4 0 0 0 2.83-1.17l128.35-128.36c6.552-6.584 7.32-16.963 1.81-24.44l28.44-28.43 11.32 11.3a4.002 4.002 0 1 0 5.66-5.66Zm-52.89 41.57-127 127-21.51-2.21-27.13-27.19-2.24-21.49 15.8-15.85 21.2 21.21a4 4 0 1 0 5.65-5.66l-21.21-21.21 17-17 21.22 21.21a4 4 0 1 0 5.65-5.65l-21.21-21.22 17-17 21.21 21.22a4.002 4.002 0 0 0 5.66-5.66l-21.21-21.21 17-17 21.14 21.3a4.002 4.002 0 0 0 5.66-5.66l-21.22-21.21 17-17 21.22 21.21a4 4 0 1 0 5.65-5.66l-21.21-21.18 15-15a10.79 10.79 0 0 1 15.26 0l35.62 35.7c4.181 4.208 4.181 11.002 0 15.21Zm2-24.59-28.31-28.29 28.28-28.28 28.29 28.28-28.26 28.29Z" id="Outlines" fill="#000"/></g></svg>