<svg xmlns="http://www.w3.org/2000/svg" width="320" height="320" viewBox="0 0 320 320"><g id="Foundations/Icons/Brand-Icons/Sports-and-Pastimes/16-table-tennis" fill="none" fill-rule="evenodd" stroke="none" stroke-width="1"><circle id="lg-icon-fill-primary" cx="259.963" cy="115.976" r="34" fill="#FFD500"/><path id="Half-tone" fill="#000" d="M203.963 143.976a4 4 0 1 1 0 8 4 4 0 0 1 0-8Zm-16-16 .2.005a4 4 0 1 1-.4 0l.2-.005Zm-16-16 .2.005a4 4 0 1 1-.4 0l.2-.005Zm32 0 .2.005a4 4 0 1 1-.4 0l.2-.005Zm-16-16 .2.005a4 4 0 1 1-.4 0l.2-.005Zm-32 0a4 4 0 1 1 0 8 4 4 0 0 1 0-8Zm-16-16 .2.005a4 4 0 1 1-.4 0l.2-.005Zm32 0 .2.005a4 4 0 1 1-.4 0l.2-.005Zm32 0a4 4 0 1 1 0 8 4 4 0 0 1 0-8Zm-48-16 .2.005a4 4 0 1 1-.4 0l.2-.005Zm-32 0a4 4 0 1 1 0 8 4 4 0 0 1 0-8Zm64 0 .2.005a4 4 0 1 1-.4 0l.2-.005Zm32 0a4 4 0 1 1 0 8 4 4 0 0 1 0-8Zm-80-16 .2.005a4 4 0 1 1-.4 0l.2-.005Zm-32 0a4 4 0 1 1 0 8 4 4 0 0 1 0-8Zm64 0 .2.005a4 4 0 1 1-.4 0l.2-.005Zm32 0a4 4 0 1 1 0 8 4 4 0 0 1 0-8Zm-80-16a4 4 0 1 1 0 8 4 4 0 0 1 0-8Zm32 0a4 4 0 1 1 0 8 4 4 0 0 1 0-8Zm32 0a4 4 0 1 1 0 8 4 4 0 0 1 0-8Z"/><path id="Outlines" fill="#000" d="M259.963 79.976c-1.11 0-2.21.06-3.3.16C237.735 30.451 186.483.921 134.004 9.464c-52.478 8.544-91.717 52.806-93.908 105.93-2.19 53.124 33.27 100.467 84.867 113.302v75.28a8 8 0 0 0 8 8h38a8 8 0 0 0 8-8v-75.28a112.2 112.2 0 0 0 80.35-76.72h.65c19.882 0 36-16.117 36-36 0-19.882-16.118-36-36-36Zm-26.46 104.56a104.59 104.59 0 0 1-56.46 36.44l-6.08 1.5v81.5h-38v-81.55l-6.08-1.5a104.59 104.59 0 0 1-56.46-36.39c-1.18-1.49-2.3-3-3.4-4.56h169.88c-1.1 1.54-2.22 3.07-3.4 4.56Zm8.54-12.56H63.963a3.87 3.87 0 0 0-1.82.46 102.896 102.896 0 0 1-14.18-52.46c-.007-49.948 35.495-92.847 84.563-102.182 49.068-9.335 97.843 17.531 116.177 63.992-15.232 5.022-25.306 19.515-24.703 35.543.603 16.028 11.736 29.724 27.303 33.587a101.69 101.69 0 0 1-9.26 21.06Zm17.92-28c-15.464 0-28-12.536-28-28s12.536-28 28-28 28 12.536 28 28-12.536 28-28 28Z"/></g></svg>