<svg width="320" height="320" viewBox="0 0 320 320" xmlns="http://www.w3.org/2000/svg"><g id="Foundations/Icons/Brand-Icons/Banking-and-Commerce/58-tag-yen" stroke="none" stroke-width="1" fill="none" fill-rule="evenodd"><path d="M200.69 56 236 91.31V304H84V91.31L119.31 56h81.38M160 72c-15.464 0-28 12.536-28 28s12.536 28 28 28 28-12.536 28-28-12.536-28-28-28Z" id="lg-icon-fill-primary" fill="#FFD500"/><path d="M160 8a4 4 0 0 1 4 4v36h40l37.66 37.66a7.997 7.997 0 0 1 2.334 5.333l.006.317V304a8 8 0 0 1-7.75 7.996L236 312H84a8 8 0 0 1-7.996-7.75L76 304V91.31c0-2.013.76-3.947 2.12-5.421l.22-.229L116 48h40V12a4 4 0 0 1 4-4Zm-4 48h-36.69L84 91.31V304h152V91.31L200.69 56H164v16.284c13.42 1.92 23.77 13.356 23.996 27.253L188 100c0 15.464-12.536 28-28 28s-28-12.536-28-28c0-14.106 10.431-25.776 24-27.717V56Zm31.597 100.883a4 4 0 0 1 1.153 5.487l-24.69 36.996v7.464h21.36a4 4 0 1 1 0 8h-21.36v9.43h21.36a4 4 0 1 1 0 8h-21.36v22.9a4.001 4.001 0 1 1-8 .04l-.001-22.94H134.71a4 4 0 1 1 0-8h21.349v-9.43H134.71a4 4 0 1 1 0-8h21.349l.001-7.46-24.68-37a4 4 0 0 1 6.66-4.43l22.025 33.017 22.025-33.017a4 4 0 0 1 5.507-1.057ZM164 80.4V92a4 4 0 1 1-8 0V80.4c-9.129 1.853-16 9.924-16 19.6 0 11.046 8.954 20 20 20s20-8.954 20-20c0-9.676-6.87-17.746-16-19.6Z" id="Outlines" fill="#000"/></g></svg>