<svg width="320" height="320" viewBox="0 0 320 320" xmlns="http://www.w3.org/2000/svg"><g id="Foundations/Icons/Brand-Icons/Food-and-Drink/09-teacup" stroke="none" stroke-width="1" fill="none" fill-rule="evenodd"><path d="M287.782 87.876h-31.834V71.959H33.108v38.798c1.65 59.43 46.348 107.69 102.924 112.415h18.185c39.942-3.313 73.975-28.323 91.126-63.67h42.439c15.917 0 15.917-15.916 15.917-15.916v-39.793c0-15.917-15.917-15.917-15.917-15.917Zm-7.959 47.751h-15.917v-23.876h15.917v23.876Z" id="lg-icon-fill-primary" fill="#FFD500"/><path d="m132.59 103.793.198.005a3.98 3.98 0 1 1-.397 0l.199-.005Zm-31.835 0a3.98 3.98 0 1 1 0 7.958 3.98 3.98 0 0 1 0-7.958Zm-31.834 0 .199.005a3.98 3.98 0 1 1-.398 0l.199-.005Zm127.337 0 .199.005a3.98 3.98 0 1 1-.397 0l.198-.005Zm-31.834 0a3.98 3.98 0 1 1 0 7.958 3.98 3.98 0 0 1 0-7.958Zm63.669 0a3.98 3.98 0 1 1 0 7.958 3.98 3.98 0 0 1 0-7.958Zm-111.42-15.917.198.005a3.98 3.98 0 1 1-.397 0l.198-.005Zm-31.835 0 .199.005a3.98 3.98 0 1 1-.397 0l.198-.005Zm-31.834 0a3.98 3.98 0 1 1 0 7.958 3.98 3.98 0 0 1 0-7.958Zm127.337 0 .199.005a3.98 3.98 0 1 1-.398 0l.2-.005Zm-31.834 0 .198.005a3.98 3.98 0 1 1-.397 0l.199-.005Zm63.668 0 .199.005a3.98 3.98 0 1 1-.397 0l.198-.005Z" id="Half-tone" fill="#000"/><path d="M255.948 64a7.959 7.959 0 0 1 7.958 7.959v7.958h23.876c9.6 0 23.876 6.357 23.876 23.876v39.793c0 9.6-6.357 23.875-23.876 23.875h-37.515a122.9 122.9 0 0 1-41.076 44.976 117.558 117.558 0 0 1-20.692 10.735h123.159a7.959 7.959 0 0 1 7.123 4.397 13.778 13.778 0 0 1-.965 13.111c-6.039 9.78-23.17 14.326-53.91 14.326H56.983c-30.84 0-48.17-4.537-54.546-14.276a13.689 13.689 0 0 1-1.492-12.793 7.959 7.959 0 0 1 7.292-4.765h93.583a119.379 119.379 0 0 1-40.44-26.94 125.487 125.487 0 0 1-36.152-84.321 8.754 8.754 0 0 1-.08-1.154V71.959A7.959 7.959 0 0 1 33.109 64ZM135.733 231.13H8.237s-6.964 15.917 48.746 15.917h206.923c54.596 0 48.044-15.287 47.76-15.898l-.008-.019H154.565a116.07 116.07 0 0 1-9.351.388c-3.174 0-6.337-.14-9.48-.388ZM255.948 71.96H33.158v38.798l.062 1.78c2.484 58.611 46.852 105.956 102.861 110.635h18.186c39.942-3.313 73.975-28.323 91.126-63.67h42.389c15.28 0 15.892-14.668 15.916-15.842v-.055l.001-.02v-39.792c0-15.599-15.287-15.91-15.898-15.917h-31.853V71.959Zm23.875 31.834a7.959 7.959 0 0 1 7.959 7.958v23.876a7.959 7.959 0 0 1-7.959 7.959h-15.917a7.959 7.959 0 0 1-7.958-7.959v-23.876a7.959 7.959 0 0 1 7.958-7.958Zm0 7.958h-15.917v23.876h15.917v-23.876Z" id="Outlines" fill="#000"/></g></svg>