<svg width="320" height="320" viewBox="0 0 320 320" xmlns="http://www.w3.org/2000/svg"><g id="Foundations/Icons/Brand-Icons/UI/Group-Tech/02-technical-infrastructure" stroke="none" stroke-width="1" fill="none" fill-rule="evenodd"><path d="M156 268c8.837 0 16 7.163 16 16s-7.163 16-16 16-16-7.163-16-16 7.163-16 16-16Zm83.8-56c2.32 0 4.2 2.388 4.2 5.333v21.334c0 2.945-1.88 5.333-4.2 5.333H80.2c-2.32 0-4.2-2.388-4.2-5.333v-21.334c0-2.945 1.88-5.333 4.2-5.333h159.6Zm0-48c2.32 0 4.2 2.388 4.2 5.333v21.334c0 2.945-1.88 5.333-4.2 5.333H80.2c-2.32 0-4.2-2.388-4.2-5.333v-21.334c0-2.945 1.88-5.333 4.2-5.333h159.6Zm0-48c2.32 0 4.2 2.388 4.2 5.333v21.334c0 2.945-1.88 5.333-4.2 5.333H80.2c-2.32 0-4.2-2.388-4.2-5.333v-21.334c0-2.945 1.88-5.333 4.2-5.333h159.6Zm0-48c2.32 0 4.2 2.388 4.2 5.333v21.334c0 2.945-1.88 5.333-4.2 5.333H80.2c-2.32 0-4.2-2.388-4.2-5.333V73.333C76 70.388 77.88 68 80.2 68h159.6Zm0-48c2.32 0 4.2 2.388 4.2 5.333v21.334c0 2.945-1.88 5.333-4.2 5.333H80.2c-2.32 0-4.2-2.388-4.2-5.333V25.333C76 22.388 77.88 20 80.2 20h159.6Z" id="lg-icon-fill-primary" fill="#FFD500"/><path d="M228 224a4 4 0 1 1 0 8 4 4 0 0 1 0-8Zm-32 0a4 4 0 1 1 0 8 4 4 0 0 1 0-8Zm-32 0a4 4 0 1 1 0 8 4 4 0 0 1 0-8Zm-32 0a4 4 0 1 1 0 8 4 4 0 0 1 0-8Zm-32 0a4 4 0 1 1 0 8 4 4 0 0 1 0-8Zm112-48a4 4 0 1 1 0 8 4 4 0 0 1 0-8Zm-32 0a4 4 0 1 1 0 8 4 4 0 0 1 0-8Zm-32 0a4 4 0 1 1 0 8 4 4 0 0 1 0-8Zm-32 0a4 4 0 1 1 0 8 4 4 0 0 1 0-8Zm112-48a4 4 0 1 1 0 8 4 4 0 0 1 0-8Zm-32 0a4 4 0 1 1 0 8 4 4 0 0 1 0-8Zm-32 0a4 4 0 1 1 0 8 4 4 0 0 1 0-8Zm-32 0a4 4 0 1 1 0 8 4 4 0 0 1 0-8Zm-32 0a4 4 0 1 1 0 8 4 4 0 0 1 0-8Zm112-48a4 4 0 1 1 0 8 4 4 0 0 1 0-8Zm-32 0a4 4 0 1 1 0 8 4 4 0 0 1 0-8Zm-32 0a4 4 0 1 1 0 8 4 4 0 0 1 0-8Zm-32 0a4 4 0 1 1 0 8 4 4 0 0 1 0-8Zm16-48a4 4 0 1 1 0 8 4 4 0 0 1 0-8Zm-32 0a4 4 0 1 1 0 8 4 4 0 0 1 0-8Zm64 0a4 4 0 1 1 0 8 4 4 0 0 1 0-8Zm32 0a4 4 0 1 1 0 8 4 4 0 0 1 0-8Zm32 0a4 4 0 1 1 0 8 4 4 0 0 1 0-8Z" id="Half-tone" fill="#000"/><path d="M236 16c6.525 0 11.834 5.209 11.996 11.695L248 28v16c0 6.525-5.209 11.834-11.695 11.996L236 56h-12v8h12c6.525 0 11.834 5.209 11.996 11.695L248 76v16c0 6.525-5.209 11.834-11.695 11.996L236 104h-12v8h12c6.525 0 11.834 5.209 11.996 11.695L248 124v16c0 6.525-5.209 11.834-11.695 11.996L236 152h-12v8h12c6.525 0 11.834 5.209 11.996 11.695L248 172v16c0 6.525-5.209 11.834-11.695 11.996L236 200h-12v8h12c6.525 0 11.834 5.209 11.996 11.695L248 220v16c0 6.525-5.209 11.834-11.695 11.996L236 248h-76v16.4c7.827 1.59 13.993 7.748 15.594 15.57l.006.03H300a4 4 0 1 1 0 8H175.6l-.006.03C173.729 297.145 165.665 304 156 304c-9.665 0-17.729-6.856-19.594-15.97l-.006-.03H20a4 4 0 1 1 0-8h116.4l.006-.03c1.6-7.823 7.768-13.981 15.594-15.57V248H84c-6.525 0-11.834-5.209-11.996-11.695L72 236v-16c0-6.525 5.209-11.834 11.695-11.996L84 208h12v-8H84c-6.525 0-11.834-5.209-11.996-11.695L72 188v-16c0-6.525 5.209-11.834 11.695-11.996L84 160h12v-8H84c-6.525 0-11.834-5.209-11.996-11.695L72 140v-16c0-6.525 5.209-11.834 11.695-11.996L84 112h12v-8H84c-6.525 0-11.834-5.209-11.996-11.695L72 92V76c0-6.525 5.209-11.834 11.695-11.996L84 64h12v-8H84c-6.525 0-11.834-5.209-11.996-11.695L72 44V28c0-6.525 5.209-11.834 11.695-11.996L84 16h152Zm-80 256c-6.627 0-12 5.373-12 12s5.373 12 12 12 12-5.373 12-12-5.373-12-12-12Zm80-56H84a4 4 0 0 0-3.995 3.8L80 220v16a4 4 0 0 0 3.8 3.995l.2.005h152a4 4 0 0 0 3.995-3.8l.005-.2v-16a4 4 0 0 0-4-4Zm-20-16H104v8h112v-8Zm20-32H84a4 4 0 0 0-3.995 3.8L80 172v16a4 4 0 0 0 3.8 3.995l.2.005h152a4 4 0 0 0 3.995-3.8l.005-.2v-16a4 4 0 0 0-4-4Zm-20-16H104v8h112v-8Zm20-32H84a4 4 0 0 0-3.995 3.8L80 124v16a4 4 0 0 0 3.8 3.995l.2.005h152a4 4 0 0 0 3.995-3.8l.005-.2v-16a4 4 0 0 0-4-4Zm-20-16H104v8h112v-8Zm20-32H84a4 4 0 0 0-3.995 3.8L80 76v16a4 4 0 0 0 3.8 3.995L84 96h152a4 4 0 0 0 3.995-3.8L240 92V76a4 4 0 0 0-4-4Zm-20-16H104v8h112v-8Zm20-32H84a4 4 0 0 0-3.995 3.8L80 28v16a4 4 0 0 0 3.8 3.995L84 48h152a4 4 0 0 0 3.995-3.8L240 44V28a4 4 0 0 0-4-4Z" id="Outlines" fill="#000"/></g></svg>