<svg width="320" height="320" viewBox="0 0 320 320" xmlns="http://www.w3.org/2000/svg"><g id="Foundations/Icons/Brand-Icons/House-and-Home/04-television" stroke="none" stroke-width="1" fill="none" fill-rule="evenodd"><path id="lg-icon-fill-primary" fill="#FFD500" d="M108 264h104v16H108z"/><path d="M35.74 120.31a4 4 0 1 1 0 8 4 4 0 0 1 0-8Zm16-16a4 4 0 1 1 0 8 4 4 0 0 1 0-8Zm-16-16a4 4 0 1 1 0 8 4 4 0 0 1 0-8Zm32 0a4 4 0 1 1 0 8 4 4 0 0 1 0-8Zm-16-16a4 4 0 1 1 0 8 4 4 0 0 1 0-8Zm32 0a4 4 0 1 1 0 8 4 4 0 0 1 0-8Zm-48-16a4 4 0 1 1 0 8 4 4 0 0 1 0-8Zm32 0a4 4 0 1 1 0 8 4 4 0 0 1 0-8Zm32 0a4 4 0 1 1 0 8 4 4 0 0 1 0-8Z" id="Half-tone" fill="#000"/><path d="M311.84 38.39a9.65 9.65 0 0 0-.2-.77 8.09 8.09 0 0 0-3.17-4.25 7.44 7.44 0 0 0-1.36-.74A7.86 7.86 0 0 0 304 32H16c-.54 0-1.08.056-1.61.16-.26.06-.52.12-.77.2a7.62 7.62 0 0 0-2.09 1 7.93 7.93 0 0 0-2.16 2.16 7.62 7.62 0 0 0-1 2.09c-.08.25-.14.51-.2.77A8.534 8.534 0 0 0 8 40v192a7.86 7.86 0 0 0 .63 3.11c.199.478.447.934.74 1.36a8.09 8.09 0 0 0 4.25 3.17c.25.08.51.14.77.2A8.53 8.53 0 0 0 16 240h128v16h-36a8.53 8.53 0 0 0-1.61.16c-.26.06-.52.12-.77.2a8.09 8.09 0 0 0-4.25 3.17 7.44 7.44 0 0 0-.74 1.36A7.86 7.86 0 0 0 100 264v16a7.86 7.86 0 0 0 .63 3.11c.199.478.447.934.74 1.36a8.09 8.09 0 0 0 4.25 3.17c.25.08.51.14.77.2.53.104 1.07.16 1.61.16h104c.54 0 1.08-.056 1.61-.16.26-.06.52-.12.77-.2a8.09 8.09 0 0 0 4.25-3.17 7.44 7.44 0 0 0 .74-1.36A7.86 7.86 0 0 0 220 280v-16a7.86 7.86 0 0 0-.63-3.11 7.44 7.44 0 0 0-.74-1.36 8.09 8.09 0 0 0-4.25-3.17 9.65 9.65 0 0 0-.77-.2A8.53 8.53 0 0 0 212 256h-36v-16h128a8 8 0 0 0 8-8V40c0-.54-.056-1.08-.16-1.61ZM168 256h-16v-16h16v16Zm44 8v16H108v-16h104Zm92-32H16V40h288v192Z" id="Outlines" fill="#000"/></g></svg>