<svg xmlns="http://www.w3.org/2000/svg" width="320" height="320" viewBox="0 0 320 320"><g id="Foundations/Icons/Brand-Icons/Sports-and-Pastimes/07-ten-pin-bowling" fill="none" fill-rule="evenodd" stroke="none" stroke-width="1"><path id="lg-icon-fill-primary" fill="#FFD500" d="M164.176 214c5.523 0 10 4.477 10 10s-4.477 10-10 10c-5.522 0-10-4.477-10-10s4.478-10 10-10Zm48 0c5.523 0 10 4.477 10 10s-4.477 10-10 10c-5.522 0-10-4.477-10-10s4.478-10 10-10Zm-24-40c5.523 0 10 4.477 10 10s-4.477 10-10 10c-5.522 0-10-4.477-10-10s4.478-10 10-10Zm-95-70v16h-50v-16h50Z"/><path id="Half-tone" fill="#000" d="M272.176 200a4 4 0 1 1 0 8 4 4 0 0 1 0-8Zm-16-16a4 4 0 1 1 0 8 4 4 0 0 1 0-8Zm-16-16a4 4 0 1 1 0 8 4 4 0 0 1 0-8Z"/><path id="Outlines" fill="#000" d="M212.176 136c48.602 0 88 39.399 88 88s-39.398 88-88 88c-48.6 0-88-39.399-88-88s39.4-88 88-88ZM68.326 8c12.35 0 22.42 4.69 29.12 13.57 8.55 11.31 11.65 29.16 9.22 53.16a204.47 204.47 0 0 1-5.49 30.34v13.58a271.87 271.87 0 0 1 14.91 76.14 235.87 235.87 0 0 1-4.84 60.13c-7.12 33.27-19.16 52.55-19.67 53.36a8 8 0 0 1-6.76 3.72h-33.26a8 8 0 0 1-6.76-3.72c-.51-.81-12.56-20.09-19.68-53.36a236.33 236.33 0 0 1-4.85-60.13 271.87 271.87 0 0 1 14.91-76.14v-13.58a204.4 204.4 0 0 1-5.46-30.35c-2.4-23.95.72-41.84 9.28-53.15C45.706 12.69 55.776 8 68.176 8Zm143.85 136c-44.182 0-80 35.817-80 80s35.818 80 80 80c44.163-.05 79.95-35.838 80-80 0-44.183-35.817-80-80-80Zm-116.34-16h-55.28c-33.57 105.57 11 176 11 176h33.26l.014-.021.103-.168c2.486-4.068 43.428-73.408 10.903-175.811Zm68.34 80c8.837 0 16 7.163 16 16s-7.163 16-16 16c-8.836 0-16-7.163-16-16s7.164-16 16-16Zm48 0c8.837 0 16 7.163 16 16s-7.163 16-16 16c-8.836 0-16-7.163-16-16s7.164-16 16-16Zm-48 8a8 8 0 1 0 0 16 8 8 0 0 0 0-16Zm48 0a8 8 0 1 0 0 16 8 8 0 0 0 0-16Zm-24-48c8.837 0 16 7.163 16 16s-7.163 16-16 16c-8.836 0-16-7.163-16-16s7.164-16 16-16Zm0 8a8 8 0 1 0 0 16 8 8 0 0 0 0-16Zm-95-72h-50v16h50v-16Zm-24.8-88h-.2c-40.67 0-31.69 58.31-26.95 80h53.95c4.72-21.69 13.77-80-26.8-80Z"/></g></svg>