<svg xmlns="http://www.w3.org/2000/svg" width="320" height="320" viewBox="0 0 320 320"><g id="Foundations/Icons/Brand-Icons/Sports-and-Pastimes/03-tennis-ball" fill="none" fill-rule="evenodd" stroke="none" stroke-width="1"><path id="lg-icon-fill-primary" fill="#FFD500" d="M58.18 261.82c-56.231-56.235-56.231-147.405 0-203.64 1.89-1.9 3.84-3.73 5.82-5.51 2 1.78 3.93 3.61 5.82 5.51A143.003 143.003 0 0 1 112 160a143.003 143.003 0 0 1-42.18 101.82c-1.89 1.9-3.84 3.73-5.82 5.51-2-1.78-3.93-3.61-5.82-5.51Zm203.64 0c-1.89 1.9-3.84 3.73-5.82 5.51-2-1.78-3.93-3.61-5.82-5.51-56.231-56.235-56.231-147.405 0-203.64 1.89-1.9 3.84-3.73 5.82-5.51 2 1.78 3.93 3.61 5.82 5.51 56.231 56.235 56.231 147.405 0 203.64Z"/><path id="Half-tone" fill="#000" d="M68 216a4 4 0 1 1 0 8 4 4 0 0 1 0-8Zm184 0a4 4 0 1 1 0 8 4 4 0 0 1 0-8ZM84 200a4 4 0 1 1 0 8 4 4 0 0 1 0-8Zm184 0 .2.005a4 4 0 1 1-.4 0l.2-.005Zm-216 0a4 4 0 1 1 0 8 4 4 0 0 1 0-8Zm184 0 .2.005a4 4 0 1 1-.4 0l.2-.005ZM36 184l.2.005a4 4 0 1 1-.4 0L36 184Zm32 0 .2.005a4 4 0 1 1-.4 0L68 184Zm216 0 .2.005a4 4 0 1 1-.4 0l.2-.005Zm-32 0 .2.005a4 4 0 1 1-.4 0l.2-.005ZM52 168l.2.005a4 4 0 1 1-.4 0L52 168Zm32 0 .2.005a4 4 0 1 1-.4 0L84 168Zm184 0 .2.005a4 4 0 1 1-.4 0l.2-.005Zm-32 0 .2.005a4 4 0 1 1-.4 0l.2-.005ZM36 152l.2.005a4 4 0 1 1-.4 0L36 152Zm32 0 .2.005a4 4 0 1 1-.4 0L68 152Zm216 0 .2.005a4 4 0 1 1-.4 0l.2-.005Zm-32 0 .2.005a4 4 0 1 1-.4 0l.2-.005ZM52 136l.2.005a4 4 0 1 1-.4 0L52 136Zm32 0 .2.005a4 4 0 1 1-.4 0L84 136Zm184 0 .2.005a4 4 0 1 1-.4 0l.2-.005Zm-32 0 .2.005a4 4 0 1 1-.4 0l.2-.005ZM36 120l.2.005a4 4 0 1 1-.4 0L36 120Zm32 0 .2.005a4 4 0 1 1-.4 0L68 120Zm216 0 .2.005a4 4 0 1 1-.4 0l.2-.005Zm-32 0 .2.005a4 4 0 1 1-.4 0l.2-.005ZM52 104l.2.005a4 4 0 1 1-.4 0L52 104Zm32 0 .2.005a4 4 0 1 1-.4 0L84 104Zm184 0a4 4 0 1 1 0 8 4 4 0 0 1 0-8Zm-32 0a4 4 0 1 1 0 8 4 4 0 0 1 0-8ZM68 88a4 4 0 1 1 0 8 4 4 0 0 1 0-8Zm184 0a4 4 0 1 1 0 8 4 4 0 0 1 0-8Z"/><path id="Outlines" fill="#000" d="M160 8C76.053 8 8 76.053 8 160s68.053 152 152 152 152-68.053 152-152S243.947 8 160 8ZM58.18 261.82c-56.231-56.235-56.231-147.405 0-203.64 1.89-1.9 3.84-3.73 5.82-5.51 2 1.78 3.93 3.61 5.82 5.51A143.003 143.003 0 0 1 112 160a143.003 143.003 0 0 1-42.18 101.82c-1.89 1.9-3.84 3.73-5.82 5.51-2-1.78-3.93-3.61-5.82-5.51ZM160 304a142.894 142.894 0 0 1-89.84-31.45A151.59 151.59 0 0 0 120 160 151.59 151.59 0 0 0 70.16 47.45c52.548-41.95 127.132-41.95 179.68 0a152 152 0 0 0 0 225.1A142.894 142.894 0 0 1 160 304Zm101.82-42.18c-1.89 1.9-3.84 3.73-5.82 5.51-2-1.78-3.93-3.61-5.82-5.51-56.231-56.235-56.231-147.405 0-203.64 1.89-1.9 3.84-3.73 5.82-5.51 2 1.78 3.93 3.61 5.82 5.51 56.231 56.235 56.231 147.405 0 203.64Z"/></g></svg>