<svg xmlns="http://www.w3.org/2000/svg" width="320" height="320" viewBox="0 0 320 320"><g id="Foundations/Icons/Brand-Icons/Online/35-timed-checklist" fill="none" fill-rule="evenodd" stroke="none" stroke-width="1"><circle id="lg-icon-fill-primary" cx="252" cy="84.003" r="48" fill="#FFD500"/><path id="Half-tone" fill="#000" d="M212 280.003a4 4 0 1 1 0 8 4 4 0 0 1 0-8Zm-32 0a4 4 0 1 1 0 8 4 4 0 0 1 0-8Zm-32 0a4 4 0 1 1 0 8 4 4 0 0 1 0-8Zm-32 0a4 4 0 1 1 0 8 4 4 0 0 1 0-8Zm-32 0a4 4 0 1 1 0 8 4 4 0 0 1 0-8Z"/><path id="Outlines" fill="#000" d="M304 84.003v-.76c0-.61 0-1.23-.05-1.85 0-.26 0-.53-.05-.79 0-.62-.08-1.23-.14-1.84 0-.21-.06-.42-.08-.63-.07-.67-.15-1.33-.25-2 0-.13-.05-.26-.07-.39-.12-.74-.24-1.48-.39-2.21v-.12a51.42 51.42 0 0 0-9.25-20.53c-.48-.64-1-1.28-1.49-1.9l-.47-.54c-.38-.45-.76-.9-1.16-1.33-.4-.43-.7-.75-1-1.12-.22-.22-.43-.46-.65-.68-.43-.43-.87-.84-1.31-1.25a51.57 51.57 0 0 0-30.15-13.74c-.44-.05-.88-.07-1.32-.1v-15.92a8.31 8.31 0 0 0-8.47-8.302H56.3a8.312 8.312 0 0 0-8.3 8.302v287.4a8.31 8.31 0 0 0 8.3 8.3h191.4a8.31 8.31 0 0 0 8.3-8.3v-167.87l.5-.05c.53 0 1.07-.09 1.6-.16l.89-.11 1.47-.22 1.05-.19c.42-.08.85-.15 1.26-.24.41-.09.88-.2 1.31-.3.43-.1.65-.15 1-.24.57-.14 1.14-.31 1.7-.47l.54-.16a52 52 0 0 0 35.5-38.69.43.43 0 0 1 0-.11c.16-.73.3-1.48.42-2.22v-.22c.12-.72.22-1.46.31-2.19v-.27c.1-.82.18-1.65.23-2.48 0-.26.05-.51.06-.77v-2.74h.16Zm-19.38-29.53c.94 1 1.84 2.13 2.68 3.26.42.56.83 1.14 1.22 1.73a41.89 41.89 0 0 1 3.17 5.54c.31.64.6 1.29.88 2a43.69 43.69 0 0 1 2.55 8.26c.26 1.28.46 2.59.6 3.9v.22a1.1 1.1 0 0 1 0 .18c.05.5.09 1 .12 1.53 0 .24 0 .48.05.71v4.46c0 .28-.05.55-.06.82l-.06.7c0 .21 0 .42-.05.63 0 .34-.09.68-.13 1-.04.32-.1.79-.16 1.19-.06.4-.15.83-.22 1.24-.07.41-.1.62-.17.92-.07.3-.2.89-.31 1.34-.06.26-.11.53-.18.79-.07.26-.23.79-.34 1.19-.11.4-.16.6-.26.89-.1.29-.27.82-.41 1.23-.14.41-.18.55-.28.81-.1.26-.32.81-.48 1.21-.16.4-.2.53-.31.79-.11.26-.36.79-.54 1.18-.18.39-.22.52-.34.77-.2.41-.42.82-.64 1.23-.11.22-.22.44-.34.66-.22.4-.45.79-.68 1.19-.13.21-.25.44-.38.65-.24.4-.5.78-.75 1.17l-.39.61c-.28.41-.56.8-.85 1.19l-.38.54c-.27.36-.56.71-.84 1.06l-.47.6c-.27.33-.56.65-.85 1-.29.35-.35.42-.53.62l-.93 1-.53.55-1 .91c-.19.18-.37.37-.56.54-.19.17-.66.58-1 .86-.34.28-.39.35-.6.52-.21.17-.67.53-1 .79l-.65.52-1 .73-.7.49-1.05.68-.73.46c-.36.22-.72.42-1.08.62l-.76.44-1.08.55-.82.42c-.35.17-.72.32-1.07.48l-.88.4-1.05.56-.89.35c-.36.14-.74.25-1.11.38-.37.13-.62.22-.93.31l-1.09.31c-.33.09-.66.2-1 .28-.34.08-.73.17-1.1.26l-1 .23c-.37.08-.74.14-1.11.2l-1.06.19-1.11.14-.87.11h-.2l-1.11.08-1.12.08h-4.59c-.52 0-1.04-.04-1.56-.12h-.72a44.29 44.29 0 0 1-8.58-1.77c-1.38-.43-2.72-.93-4-1.48a44.35 44.35 0 0 1-12.45-8c-.52-.47-1-1-1.52-1.46-.73-.73-1.42-1.49-2.1-2.27-.5-.58-1-1.18-1.47-1.79-.47-.61-1-1.29-1.44-2-.44-.71-1-1.51-1.5-2.29-.27-.45-.53-.91-.78-1.37-.25-.46-.5-.92-.74-1.39l-.17-.34c-.52-1-1-2.09-1.43-3.16-.43-1.07-.93-2.28-1.25-3.48-.26-.85-.49-1.71-.7-2.58a40.11 40.11 0 0 1-.76-3.81 44.772 44.772 0 0 1-.5-6.7v-2.2c0-.25 0-.5.06-.75l.06-.77v-.63c0-.27.07-.53.1-.79.06-.47.11-1 .19-1.42 0-.25.09-.51.14-.76.08-.47.15-.94.25-1.4.1-.46.16-.72.25-1.08.09-.36.15-.7.24-1 .09-.3.21-.73.31-1.09.1-.36.18-.67.29-1 .11-.33.27-.82.41-1.23.14-.41.18-.55.28-.81.15-.42.32-.83.49-1.24.1-.25.19-.51.3-.76.18-.42.37-.83.56-1.24l.32-.71c.2-.41.42-.81.63-1.21.12-.23.23-.46.35-.68.22-.41.46-.81.69-1.21.13-.21.24-.42.37-.63.25-.41.51-.81.77-1.21.13-.19.25-.38.37-.57.28-.42.58-.82.87-1.22l.36-.51c.3-.39.61-.78.92-1.16.13-.16.24-.32.37-.47.31-.38.64-.75 1-1.12l.41-.48c.35-.38.71-.74 1.06-1.11.14-.14.26-.28.4-.41.35-.36.72-.7 1.09-1l.44-.42 1.13-1 .48-.62c.39-.32.78-.62 1.18-.92.16-.13.32-.26.49-.38.39-.3.79-.57 1.19-.85l.53-.38c.4-.27.81-.52 1.21-.77l.58-.37c.41-.25.83-.48 1.24-.71l.6-.35c.41-.22.83-.43 1.25-.64.22-.1.43-.22.65-.33l1.25-.56.7-.32 1.27-.5.72-.28 1.25-.42c.27-.09.53-.19.8-.27.27-.08.8-.23 1.21-.34.41-.11.58-.18.88-.25.3-.07.82-.19 1.22-.29l.91-.2 1.21-.22 1-.17c.39-.06.78-.1 1.17-.15l.82-.1h.2l1.15-.08h3.39a43.9 43.9 0 0 1 32.55 14.32ZM80 56.003h40v40H80v-40Zm48 0h80.19a51.64 51.64 0 0 0-8.06 24.52c0 .25 0 .5-.06.76v5.33c0 .27 0 .53.05.8 0 .61.08 1.22.14 1.83 0 .21.06.42.08.63.07.67.15 1.33.25 2 0 .13 0 .26.07.39.12.74.24 1.48.39 2.21v.12c.1.48.2 1 .32 1.42H128v-40.01Zm-48 96h40v40H80v-40Zm48 0h96v40h-96v-40Zm-8-8H80v-40h40v40Zm-40 56h40v40H80v-40Zm48 0h96v40h-96v-40Zm96-56h-96v-40h76a51.59 51.59 0 0 0 6.36 11.11c.49.64 1 1.28 1.49 1.9l.48.55c.38.45.75.89 1.14 1.32.39.43.72.76 1.08 1.13l.63.67c.43.43.87.84 1.31 1.25a52 52 0 0 0 7.49 5.83l.02 16.24Zm23.7-127.7v15.89l-.57.06-1.5.16-1.11.15c-.45.07-.89.13-1.33.21l-1.37.26c-.35.07-.7.13-1 .21-.7.15-1.39.32-2.08.5l-.29.07a51.93 51.93 0 0 0-23.95 14.19H76a4 4 0 0 0-4 4v192a4 4 0 0 0 4 4h152a4 4 0 0 0 4-4v-112a52 52 0 0 0 13.82 3.608l.84.092c.34 0 .68.05 1 .08l.04 167.92H56.3v-287.4h191.4Zm4.3 31.7a4 4 0 0 1 4 4v32h24a4 4 0 1 1 0 8h-32v-40a4 4 0 0 1 4-4Z"/></g></svg>