<svg xmlns="http://www.w3.org/2000/svg" width="320" height="320" viewBox="0 0 320 320"><g id="Foundations/Icons/Brand-Icons/UI/Design-and-Development/15-toolkit" fill="none" fill-rule="evenodd" stroke="none" stroke-width="1"><path id="lg-icon-fill-primary" fill="#FFD500" d="M252 148h16v128h-16V148Zm-34 112v16H54v-16h164Zm-36.514-156.889a36.19 36.19 0 0 0 11.294 11.334l-39.123 39.124a8 8 0 1 1-11.314-11.314l39.143-39.144ZM204 244v16H68v-16h136ZM68 186a6 6 0 0 1 6-6h124a6 6 0 0 1 6 6v10H68v-10Zm24-53h24v16H92v-16ZM44 44h72v40H44V44Z"/><path id="Half-tone" fill="#000" d="M212 96a4 4 0 1 1 0 8 4 4 0 0 1 0-8Zm16-16a4 4 0 1 1 0 8 4 4 0 0 1 0-8Zm-32 0a4 4 0 1 1 0 8 4 4 0 0 1 0-8Zm16-16a4 4 0 1 1 0 8 4 4 0 0 1 0-8Z"/><path id="Outline" fill="#000" d="M280 16c13.255 0 24 10.745 24 24v240c0 13.255-10.745 24-24 24H40c-13.255 0-24-10.745-24-24V40c0-13.255 10.745-24 24-24h240ZM40 24c-8.731 0-15.83 6.994-15.997 15.685L24 40v240c0 8.731 6.994 15.83 15.685 15.997L40 296h56v-16H58.683a8.01 8.01 0 0 1-7.6-5.47l-2.67-8c-1.399-4.192.87-8.722 5.067-10.12a8.02 8.02 0 0 1 2.533-.41H64v-68c0-6.627 5.373-12 12-12h4v-24H48a8 8 0 0 1-8-8V48a8 8 0 0 1 8-8h32V24H40Zm240 272c8.731 0 15.83-6.994 15.997-15.685L296 280v-56h-24v56h-24v-56h-40v32h7.99c4.423 0 8.01 3.582 8.01 8a7.99 7.99 0 0 1-.411 2.53l-2.67 8a8.01 8.01 0 0 1-7.6 5.47H104v16h176Zm-16-144h-8v120h8V152ZM112 264H56.013l2.67 8h54a11.98 11.98 0 0 1-.683-4v-4Zm40 0h-32v4a4 4 0 0 0 3.8 3.995l.2.005h24a4 4 0 0 0 3.995-3.8l.005-.2v-4Zm63.99 0H160v4c0 1.403-.24 2.75-.683 4h54.002l2.67-8ZM200 248H72v8h128v-8Zm0-48H72v40h128v-40Zm80.315-175.997L280 24h-64v16.18c22.426 2.02 40 20.868 40 43.82 0 24.3-19.7 44-44 44a43.801 43.801 0 0 1-21.384-5.537l-34.001 34a12.027 12.027 0 0 1-4.614 2.884L152 176h44c6.627 0 12 5.373 12 12v28h40v-72l12-32 12 32v72h24V40c0-8.731-6.994-15.83-15.685-15.997ZM196 184H76a4 4 0 0 0-3.995 3.8L72 188v4h128v-4a4 4 0 0 0-3.8-3.995L196 184Zm-17.83-71.864-32.94 32.942a4.025 4.025 0 0 0 5.532 5.844l.16-.152 32.942-32.94a44.269 44.269 0 0 1-5.694-5.694ZM260 130l-4 14h8l-4-14Zm-196 6H48v8h16v-8Zm24 0H72v8h16v-8Zm24 0H96v8h16v-8Zm-24-16H72v8h16v-8Zm-24 0H48v8h16v-8Zm48 0H96v8h16v-8Zm100-72c-19.882 0-36 16.118-36 36s16.118 36 36 36 36-16.118 36-36-16.118-36-36-36Zm-100 56H96v8h16v-8Zm-48 0H48v8h16v-8Zm24 0H72v8h16v-8Zm24-16H96v8h16v-8Zm-24 0H72v8h16v-8Zm-24 0H48v8h16v-8Zm48-40H48v32h64V48Zm-24-8h24a8 8 0 0 1 8 8v96a8 8 0 0 1-7.75 7.996L112 152H88v24h56v-16.705a12.03 12.03 0 0 1-4.463-2.832c-4.716-4.716-4.716-12.362 0-17.078l34-34A43.801 43.801 0 0 1 168 84c0-22.952 17.574-41.8 40-43.82V24H88v16Z"/></g></svg>