<svg xmlns="http://www.w3.org/2000/svg" width="320" height="320" viewBox="0 0 320 320"><g id="Foundations/Icons/Brand-Icons/Tools/02-tool-box" fill="none" fill-rule="evenodd" stroke="none" stroke-width="1"><path id="lg-icon-fill-primary" fill="#FFD500" d="M8 168v-48c.033-30.914 25.086-55.967 56-56h192c30.914.033 55.967 25.086 56 56v56H181v-36a8 8 0 0 0-8-8h-25a8 8 0 0 0-8 8v36H8v-8Zm304 112H8v-96h132v36a8 8 0 0 0 8 8h25a8 8 0 0 0 8-8v-36h131v96Z"/><path id="Half-tone" fill="#000" d="m244 120 .2.005a4 4 0 1 1-.4 0l.2-.005Zm32 0 .2.005a4 4 0 1 1-.4 0l.2-.005Zm-16-16 .2.005a4 4 0 1 1-.4 0l.2-.005Zm-16-16a4 4 0 1 1 0 8 4 4 0 0 1 0-8Zm32 0a4 4 0 1 1 0 8 4 4 0 0 1 0-8Z"/><path id="Outlines" fill="#000" d="M256 56h-38V40a8 8 0 0 0-8-8H110a8 8 0 0 0-8 8v16H64C28.654 56 0 84.654 0 120v160a8 8 0 0 0 8 8h304a8 8 0 0 0 8-8V120c0-35.346-28.654-64-64-64ZM110 40h100v16H110V40ZM8 168v-48c.033-30.914 25.086-55.967 56-56h192c30.914.033 55.967 25.086 56 56v56H181v-36a8 8 0 0 0-8-8h-25a8 8 0 0 0-8 8v36H8v-8Zm165-28v80h-25v-80h25Zm139 140H8v-96h132v36a8 8 0 0 0 8 8h25a8 8 0 0 0 8-8v-36h131v96Z"/></g></svg>