<svg width="320" height="320" viewBox="0 0 320 320" xmlns="http://www.w3.org/2000/svg"><g id="Foundations/Icons/Brand-Icons/Transport/02-train" stroke="none" stroke-width="1" fill="none" fill-rule="evenodd"><path d="M265.18 158.29C241 138.63 220 128.13 215.56 128h-198c-.39 3.92-.72 7.93-1 12H32a8 8 0 0 1 8 8v32a8 8 0 0 1-8 8H17.21c1.72 19.65 5.22 37.43 10 52h195.43c12.41 0 36.07-1 55.53-7.71 8.48-2.92 15-6.54 19.34-10.77a19.67 19.67 0 0 0 6.49-14.68c0-10.35-15.24-29.41-38.82-48.55ZM104 180H64v-32h40v32Zm72 0h-40v-32h40v32Z" id="lg-icon-fill-primary" fill="#FFD500"/><path d="m108 224 .2.005a4 4 0 1 1-.4 0l.2-.005Zm-32 0 .2.005a4 4 0 1 1-.4 0L76 224Zm-32 0 .2.005a4 4 0 1 1-.4 0L44 224Zm128 0 .2.005a4 4 0 1 1-.4 0l.2-.005Zm-32 0 .2.005a4 4 0 1 1-.4 0l.2-.005Zm-80-16 .2.005a4 4 0 1 1-.4 0L60 208Zm32 0 .2.005a4 4 0 1 1-.4 0L92 208Zm32 0 .2.005a4 4 0 1 1-.4 0l.2-.005Zm32 0 .2.005a4 4 0 1 1-.4 0l.2-.005Z" id="Half-tone" fill="#000"/><path d="M52 40c19.16 0 35.45 33.39 41.49 80h122.08C232 120 312 176 312 206.84 312 240 258.57 248 222.57 248H30.74c6.43 14.95 14.33 24 21.26 24h232a4 4 0 1 1 0 8H52c-24.3 0-44-53.73-44-120C8 93.73 27.7 40 52 40Zm163.61 88h-198c-.42 3.92-.75 7.93-1 12H32a8 8 0 0 1 8 8v32a8 8 0 0 1-8 8H17.21c1.72 19.65 5.22 37.43 10 52h195.43c12.41 0 36.07-1 55.58-7.71 8.48-2.92 14.99-6.54 19.34-10.77a19.67 19.67 0 0 0 6.49-14.68c0-10.35-15.24-29.41-38.82-48.55-24.22-19.66-45.17-30.16-49.62-30.29ZM176 140a8 8 0 0 1 7.996 7.75l.004.25v32a8 8 0 0 1-7.75 7.996L176 188h-40a8 8 0 0 1-7.996-7.75L128 180v-32a8 8 0 0 1 7.75-7.996L136 140h40Zm-72 0a8 8 0 0 1 7.996 7.75l.004.25v32a8 8 0 0 1-7.75 7.996L104 188H64a8 8 0 0 1-7.996-7.75L56 180v-32a8 8 0 0 1 7.75-7.996L64 140h40Zm-72 8.02H16.22c-.08 2.03-.17 4.07-.17 6.12v.23c-.05 1.87-.05 3.75-.05 5.65 0 1.9.05 3.78.05 5.65v.23-.02c.093 4.793.28 9.507.56 14.14H32v-32Zm144-.02h-40v32h40v-32Zm-72 0H64v32h40v-32ZM52 48c-7.8 0-16.84 11.46-23.6 29.9C24 90 20.65 104.32 18.56 120h66.88C83.35 104.32 80 90 75.6 77.9 68.84 59.46 59.8 48 52 48Z" id="Outlines" fill="#000"/></g></svg>