<svg width="320" height="320" viewBox="0 0 320 320" xmlns="http://www.w3.org/2000/svg"><g id="Foundations/Icons/Brand-Icons/Nature/01-tree" stroke="none" stroke-width="1" fill="none" fill-rule="evenodd"><path d="M215.988 232a68.44 68.44 0 0 1-50.11-22l-1.8-2-4.09-4.46-4.09 4.46-1.8 2c-19.576 21.297-50.483 27.878-77.038 16.404-26.554-11.475-42.942-38.493-40.848-67.345 2.095-28.851 22.213-53.22 50.146-60.739l6.48-1.73-.58-6.68c-.18-2.14-.27-4.07-.27-5.91 0-37.555 30.444-68 68-68 37.555 0 68 30.445 68 68 0 1.84-.09 3.77-.27 5.91l-.58 6.68 6.48 1.73c32.961 8.838 54.267 40.738 49.805 74.571-4.462 33.833-33.31 59.119-67.435 59.109Z" id="lg-icon-fill-primary" fill="#FFD500"/><path d="M159.988 288a4 4 0 1 1 0 8 4 4 0 0 1 0-8Zm0-32a4 4 0 1 1 0 8 4 4 0 0 1 0-8Zm0-32a4 4 0 1 1 0 8 4 4 0 0 1 0-8Z" id="Half-tone" fill="#000"/><path d="M235.688 90.59c.18-2.17.3-4.37.3-6.59 0-41.974-34.027-76-76-76-41.974 0-76 34.026-76 76 0 2.22.12 4.42.3 6.59a76 76 0 1 0 51.7 142.34v39.6l-17.78-11.86a4.002 4.002 0 0 0-4.44 6.66l22.22 14.81V304a8 8 0 0 0 8 8h32a8 8 0 0 0 8-8v-29.63l22.67-15.11a4.002 4.002 0 0 0-4.44-6.66l-18.23 12.16v-31.83a76 76 0 1 0 51.7-142.34ZM175.988 304h-32v-75.4a76.54 76.54 0 0 0 16-13.23 76.54 76.54 0 0 0 16 13.23V304Zm40-72a68.44 68.44 0 0 1-50.11-22l-1.8-2-4.09-4.46-4.09 4.46-1.8 2c-19.576 21.297-50.483 27.878-77.038 16.404-26.554-11.475-42.942-38.493-40.848-67.345 2.095-28.851 22.213-53.22 50.146-60.739l6.48-1.73-.58-6.68c-.18-2.14-.27-4.07-.27-5.91 0-37.555 30.444-68 68-68 37.555 0 68 30.445 68 68 0 1.84-.09 3.77-.27 5.91l-.58 6.68 6.48 1.73c32.961 8.838 54.267 40.738 49.805 74.571-4.462 33.833-33.31 59.119-67.435 59.109Z" id="Outlines" fill="#000"/></g></svg>