<svg xmlns="http://www.w3.org/2000/svg" width="320" height="320" fill="none" viewBox="0 0 320 320"><path fill="#FFD500" fill-rule="evenodd" d="M161.348 28c-44.988 0-72.913 20.98-93.053 70.493l-1.23 3.024 14.003 7.003 2.232-3.26C97.728 84.188 113.696 76 136 76c22.639 0 44 18.13 44 42 0 24.123-36.309 75.641-108.64 148.957L68 270.355V292h184v-48H127.491l19.184-17.001 4.334-3.669c33.978-28.841 47.531-41.598 61.043-59.181 16.826-21.895 24.774-43.115 24.774-68.032C236.826 54.198 208.1 28 161.348 28Z" clip-rule="evenodd"/><path fill="#000" fill-rule="evenodd" d="M220 272a4 4 0 1 1 0 8 4 4 0 0 1 0-8Zm-32 0a4 4 0 1 1 0 8 4 4 0 0 1 0-8Zm-32 0a4 4 0 1 1 0 8 4 4 0 0 1 0-8Zm-32 0a4 4 0 1 1 0 8 4 4 0 0 1 0-8Zm-32 0a4 4 0 1 1 0 8 4 4 0 0 1 0-8Zm144-16a4 4 0 1 1 0 8 4 4 0 0 1 0-8Zm-32 0a4 4 0 1 1 0 8 4 4 0 0 1 0-8Zm-32 0a4 4 0 1 1 0 8 4 4 0 0 1 0-8Zm-32 0a4 4 0 1 1 0 8 4 4 0 0 1 0-8Zm-32 0a4 4 0 1 1 0 8 4 4 0 0 1 0-8Zm96-128a4 4 0 1 1 0 8 4 4 0 0 1 0-8Zm16-16a4 4 0 1 1 0 8 4 4 0 0 1 0-8Zm-16-16a4 4 0 1 1 0 8 4 4 0 0 1 0-8Zm16-16a4 4 0 1 1 0 8 4 4 0 0 1 0-8Zm-32 0a4 4 0 1 1 0 8 4 4 0 0 1 0-8Zm16-16a4 4 0 1 1 0 8 4 4 0 0 1 0-8Zm-32 0a4 4 0 1 1 0 8 4 4 0 0 1 0-8Zm16-16a4 4 0 1 1 0 8 4 4 0 0 1 0-8Zm-32 0a4 4 0 1 1 0 8 4 4 0 0 1 0-8Z" clip-rule="evenodd"/><path fill="#000" fill-rule="evenodd" d="M161.348 24c-44.988 0-76.913 24.98-97.053 74.493l-1.23 3.024 18.003 12.003 2.232-3.26C97.728 89.188 113.696 80 136 80c22.639 0 40 16.13 40 40 0 24.123-36.309 73.641-108.64 146.957L64 270.355V296h192v-56H135.491l11.184-9.001 4.334-3.669c33.978-28.841 51.531-45.598 65.043-63.181 16.826-21.895 24.774-43.115 24.774-68.032C240.826 54.198 208.1 24 161.348 24Zm0 8c42.471 0 71.478 26.767 71.478 64.117 0 23.06-7.319 42.598-23.117 63.157l-.823 1.062c-13.526 17.345-31.688 34.414-67.299 64.491L112.793 248H248v40H72v-14.358l-1.157 1.172C146.379 198.514 184 147.458 184 120c0-28.426-21.069-48-48-48l-.75.003c-23.199.197-40.645 9.57-55.697 29.742l-.57.77-6.025-4.018.484-1.127C92.456 53.475 121.108 32 161.348 32Z" clip-rule="evenodd"/></svg>