<svg width="320" height="320" viewBox="0 0 320 320" xmlns="http://www.w3.org/2000/svg"><g id="Foundations/Icons/Brand-Icons/House-and-Home/02-umbrella" stroke="none" stroke-width="1" fill="none" fill-rule="evenodd"><path d="M163.784 168H16.004c4.223-76.32 67.342-136.043 143.78-136.043 76.437 0 139.556 59.722 143.78 136.043h-139.78Z" id="lg-icon-fill-primary" fill="#FFD500"/><path d="M27.784 152a4 4 0 1 1 0 8 4 4 0 0 1 0-8Zm32 0a4 4 0 1 1 0 8 4 4 0 0 1 0-8Zm32 0a4 4 0 1 1 0 8 4 4 0 0 1 0-8Zm32 0a4 4 0 1 1 0 8 4 4 0 0 1 0-8Zm32 0 .2.005a4 4 0 1 1-.2-.005Zm32 0 .2.005a4 4 0 1 1-.2-.005Zm32 0 .2.005a4 4 0 1 1-.2-.005Zm32 0 .2.005a4 4 0 1 1-.2-.005Zm32 0a4 4 0 1 1 0 8 4 4 0 0 1 0-8Zm-240-16a4 4 0 1 1 0 8 4 4 0 0 1 0-8Zm32 0a4 4 0 1 1 0 8 4 4 0 0 1 0-8Zm32 0a4 4 0 1 1 0 8 4 4 0 0 1 0-8Zm32 0a4 4 0 1 1 0 8 4 4 0 0 1 0-8Zm32 0a4 4 0 1 1 0 8 4 4 0 0 1 0-8Zm32 0a4 4 0 1 1 0 8 4 4 0 0 1 0-8Zm32 0a4 4 0 1 1 0 8 4 4 0 0 1 0-8Zm32 0a4 4 0 1 1 0 8 4 4 0 0 1 0-8Z" id="Half-tone" fill="#000"/><path d="M311.554 167.59a152 152 0 0 0-2.82-22 149.33 149.33 0 0 0-4.68-17.59 139.597 139.597 0 0 0-3.76-10.09 151.76 151.76 0 0 0-23.79-39.3c-1.5-1.8-3.047-3.57-4.64-5.31-2.38-2.587-4.85-5.1-7.41-7.54a144.69 144.69 0 0 0-2.58-2.4 154 154 0 0 0-13.72-11.07 167.587 167.587 0 0 0-5.85-4 141.62 141.62 0 0 0-6-3.71 188.465 188.465 0 0 0-6.22-3.44c-1.05-.55-2.11-1.08-3.17-1.61a150.828 150.828 0 0 0-6.48-3 149.86 149.86 0 0 0-23.86-8.09 130.162 130.162 0 0 0-7.13-1.59 152.22 152.22 0 0 0-25.66-2.8V12a4 4 0 1 0-8 0v12.05c-3.707.1-7.374.327-11 .68-2.474.253-4.927.557-7.36.91a151.14 151.14 0 0 0-66 26.67 160.233 160.233 0 0 0-8.39 6.46 139.124 139.124 0 0 0-5.34 4.61 161.31 161.31 0 0 0-7.58 7.37 152.65 152.65 0 0 0-17.56 22.06c-1.3 2-2.55 4-3.75 6a153.5 153.5 0 0 0-6.64 12.57 136.114 136.114 0 0 0-2.89 6.54 150.72 150.72 0 0 0-7.67 24c-.54 2.38-1.027 4.773-1.46 7.18a153 153 0 0 0-2.13 18.43 7.84 7.84 0 0 0 .25 2.48 8 8 0 0 0 1.42 2.84c.16.211.333.412.52.6a8 8 0 0 0 1.2 1c.216.152.44.292.67.42.471.263.967.48 1.48.65a8 8 0 0 0 2.45.38h139.78V288c0 13.255 10.745 24 24 24s24-10.745 24-24a4 4 0 1 0-8 0c0 8.837-7.164 16-16 16-8.837 0-16-7.163-16-16V176h139.78a7.56 7.56 0 0 0 1.26-.1 7.64 7.64 0 0 0 1.19-.28 8.52 8.52 0 0 0 1.48-.65 8 8 0 0 0 4-5.7c.077-.557.095-1.12.06-1.68Zm-147.77.41H16.004c4.223-76.32 67.342-136.043 143.78-136.043 76.437 0 139.556 59.722 143.78 136.043h-139.78Z" id="Outlines" fill="#000"/></g></svg>