<svg width="320" height="320" viewBox="0 0 320 320" xmlns="http://www.w3.org/2000/svg"><g id="Foundations/Icons/Brand-Icons/Transport/03-underground-train" stroke="none" stroke-width="1" fill="none" fill-rule="evenodd"><path d="M264 119v55.72c0 13.94-10.77 25.28-24 25.28H80c-13.23 0-24-11.34-24-25.28V119h208ZM95 135c-13.255 0-24 10.745-24 24s10.745 24 24 24 24-10.745 24-24-10.745-24-24-24Zm121 0c-13.255 0-24 10.745-24 24s10.745 24 24 24 24-10.745 24-24-10.745-24-24-24Zm3.19-127v.05L227.55 24H91.67l8.22-15.94a.16.16 0 0 1 0-.06h119.3Z" id="lg-icon-fill-primary" fill="#FFD500"/><path d="m180 160 .2.005a4 4 0 1 1-.2-.005Zm-32 0a4 4 0 1 1 0 8 4 4 0 0 1 0-8Zm16-16a4 4 0 1 1 0 8 4 4 0 0 1 0-8Zm-32 0a4 4 0 1 1 0 8 4 4 0 0 1 0-8Z" id="Half-tone" fill="#000"/><path d="M219.27 0a7.94 7.94 0 0 1 7 4.34L271 89.64a8.58 8.58 0 0 1 1 4v81.08a34 34 0 0 1-7.34 21.21l9.2 36.07h7.49a4 4 0 1 1 0 8h-5.45l12.24 48H296a4 4 0 1 1 0 8h-5.82l6.12 24h-8.25l-6.12-24H38.12L32 320h-8.3l6.12-24H24a4 4 0 1 1 0-8h7.86l12.24-48h-6.5a4 4 0 1 1 0-8h8.54l9.2-36.07A34 34 0 0 1 48 174.72V93.6a8.61 8.61 0 0 1 .94-3.92L92.74 4.4A8 8 0 0 1 99.8 0Zm48.37 240H52.36l-12.25 48h239.78l-12.25-48ZM258 202.23a31 31 0 0 1-18 5.77H80a31 31 0 0 1-18-5.77L54.4 232h211.2Zm6-83.23H56v55.72C56 188.66 66.77 200 80 200h160c13.23 0 24-11.34 24-25.28V119ZM95 135c13.255 0 24 10.745 24 24s-10.745 24-24 24-24-10.745-24-24 10.745-24 24-24Zm121 0c13.255 0 24 10.745 24 24s-10.745 24-24 24-24-10.745-24-24 10.745-24 24-24Zm-121 8c-8.837 0-16 7.163-16 16s7.163 16 16 16 16-7.163 16-16-7.163-16-16-16Zm121 0c-8.837 0-16 7.163-16 16s7.163 16 16 16 16-7.163 16-16-7.163-16-16-16Zm15.75-111H164v79h100V93.64a.6.6 0 0 0-.06-.27L231.75 32ZM156 32H87.56l-31.5 61.34a.551.551 0 0 0-.06.26V111h100V32Zm63.16-24H99.86a.16.16 0 0 0 0 .06l-8.19 15.99h135.85l-8.36-16V8Z" id="Outlines" fill="#000"/></g></svg>