<svg width="320" height="320" viewBox="0 0 320 320" xmlns="http://www.w3.org/2000/svg"><g id="Foundations/Icons/Brand-Icons/Security/02-unlocked" stroke="none" stroke-width="1" fill="none" fill-rule="evenodd"><path d="M53.003 118.94v185h214v-185h-214Zm117.87 85.85a8 8 0 0 0-3.87 6.85v42.3h-12v-41.72a8 8 0 0 0-4.15-7 20 20 0 1 1 20-.41l.02-.02Z" id="lg-icon-fill-primary" fill="#FFD500"/><path d="m84.003 279.94.2.005a4 4 0 1 1-.4 0l.2-.004Zm-16-16 .2.005a4 4 0 1 1-.4 0l.2-.004Zm16-16a4 4 0 1 1 0 8 4 4 0 0 1 0-8Zm-16-16a4 4 0 1 1 0 8 4 4 0 0 1 0-8Zm16-16 .2.005a4 4 0 1 1-.4 0l.2-.004Zm-16-16 .2.005a4 4 0 1 1-.4 0l.2-.004Zm16-16a4 4 0 1 1 0 8 4 4 0 0 1 0-8Zm-16-16a4 4 0 1 1 0 8 4 4 0 0 1 0-8Zm16-16a4 4 0 1 1 0 8 4 4 0 0 1 0-8Zm-16-16a4 4 0 1 1 0 8 4 4 0 0 1 0-8Z" id="Half-tone" fill="#000"/><path d="M160.003 8a114.58 114.58 0 0 1 81.32 33.86 4 4 0 0 1-5.67 5.64c-29.455-29.619-73.47-39.356-112.67-24.923-39.2 14.432-66.394 50.385-69.61 92.034h213.63a8 8 0 0 1 8 8v181.33a8 8 0 0 1-8 8h-214a8 8 0 0 1-8-8V122.61a115 115 0 0 1 33.68-80.75A114.58 114.58 0 0 1 160.003 8Zm107 114.61h-214v181.33h214V122.61Zm-107.082 37.085a28 28 0 0 1 15.082 51.946v42.3a8 8 0 0 1-8 8h-12a8 8 0 0 1-8-8v-41.72a28 28 0 0 1 12.918-52.526Zm.582 8.246a19.84 19.84 0 0 0-9.65 37.28 8 8 0 0 1 4.15 7v41.72h12v-42.3a8 8 0 0 1 3.87-6.84 19.71 19.71 0 0 0 9.63-17c-.077-10.991-9.009-19.861-20-19.86Z" id="Outlines" fill="#000"/></g></svg>