<svg xmlns="http://www.w3.org/2000/svg" width="320" height="320" viewBox="0 0 320 320"><g id="Foundations/Icons/Brand-Icons/Transport/06-van" fill="none" fill-rule="evenodd" stroke="none" stroke-width="1"><path id="lg-icon-fill-primary" fill="#FFD500" d="M304 182v-41l-40.07-65H16v104h-.46A8 8 0 0 0 8 188v16a8 8 0 0 0 7.54 8h17.69c2.066-18.193 17.46-31.937 35.77-31.937 18.31 0 33.704 13.744 35.77 31.937h110.46c2.066-18.193 17.46-31.937 35.77-31.937 18.31 0 33.704 13.744 35.77 31.937H312v-30h-8Zm-96-45V94h40l24.5 43H208Z"/><path id="Half-tone" fill="#000" d="M148 180a4 4 0 1 1 0 8 4 4 0 0 1 0-8Zm32 0a4 4 0 1 1 0 8 4 4 0 0 1 0-8Zm-16-16a4 4 0 1 1 0 8 4 4 0 0 1 0-8Zm-96 0a4 4 0 1 1 0 8 4 4 0 0 1 0-8Zm64 0a4 4 0 1 1 0 8 4 4 0 0 1 0-8Zm-32 0a4 4 0 1 1 0 8 4 4 0 0 1 0-8Zm96 0a4 4 0 1 1 0 8 4 4 0 0 1 0-8Zm64 0a4 4 0 1 1 0 8 4 4 0 0 1 0-8Zm-32 0a4 4 0 1 1 0 8 4 4 0 0 1 0-8Z"/><path id="Outlines" fill="#000" d="M263.93 68a8 8 0 0 1 6.81 3.8l40.07 65A8 8 0 0 1 312 141v33a8 8 0 0 1 8 8v30a8 8 0 0 1-8 8h-25.23c-2.066 18.193-17.46 31.937-35.77 31.937-18.31 0-33.704-13.744-35.77-31.937H104.77c-2.066 18.193-17.46 31.937-35.77 31.937-18.31 0-33.704-13.744-35.77-31.937h-18.1a7.88 7.88 0 0 1-2.13-.29A15.997 15.997 0 0 1 0 204v-16a16.003 16.003 0 0 1 8-13.86V76a8 8 0 0 1 8-8ZM79.715 190.131A28 28 0 1 0 69 244c15.464 0 28-12.536 28-28a28 28 0 0 0-17.285-25.869Zm182 0A28 28 0 1 0 251 244c15.464 0 28-12.536 28-28a28 28 0 0 0-17.285-25.869ZM263.93 76H16v104h-.46A8 8 0 0 0 8 188v16a8 8 0 0 0 7.54 8h17.69c2.066-18.193 17.46-31.937 35.77-31.937 18.31 0 33.704 13.744 35.77 31.937h110.46c2.066-18.193 17.46-31.937 35.77-31.937 18.31 0 33.704 13.744 35.77 31.937H312v-30h-8v-41l-40.07-65ZM248 86a8.001 8.001 0 0 1 7 4l24.45 43a8 8 0 0 1-6.95 12H208a8 8 0 0 1-8-8V94a8 8 0 0 1 8-8Zm0 8h-40v43h64.5L248 94Z"/></g></svg>