<svg width="320" height="320" xmlns="http://www.w3.org/2000/svg"><g fill="none" fill-rule="evenodd"><path d="M160 96c24.3 0 44 19.7 44 44s-19.7 44-44 44-44-19.7-44-44 19.7-44 44-44zm-12 25v38l32-19-32-19z" fill="#FFD500"/><path d="M288 16c6.627 0 12 5.373 12 12v224c0 6.627-5.373 12-12 12H164v32h52a4 4 0 110 8H104a4 4 0 110-8h52v-32H32c-6.525 0-11.834-5.209-11.996-11.695L20 252V28c0-6.627 5.373-12 12-12zm4 208H28v28a4 4 0 003.8 3.995l.2.005h256a4 4 0 004-4v-28zm0-160H28v152h264V64zM192 200a4 4 0 110 8 4 4 0 010-8zm-32 0a4 4 0 110 8 4 4 0 010-8zm-32 0a4 4 0 110 8 4 4 0 010-8zm-32 0a4 4 0 110 8 4 4 0 010-8zm-32 0a4 4 0 110 8 4 4 0 010-8zm192 0a4 4 0 110 8 4 4 0 010-8zm-32 0a4 4 0 110 8 4 4 0 010-8zm16-16a4 4 0 110 8 4 4 0 010-8zm-32 0a4 4 0 110 8 4 4 0 010-8zm-96 0a4 4 0 110 8 4 4 0 010-8zm-32 0a4 4 0 110 8 4 4 0 010-8zm-32 0a4 4 0 110 8 4 4 0 010-8zm224 0a4 4 0 110 8 4 4 0 010-8zM160 92c26.51 0 48 21.49 48 48s-21.49 48-48 48-48-21.49-48-48 21.49-48 48-48zm0 8c-22.091 0-40 17.909-40 40s17.909 40 40 40 40-17.909 40-40-17.909-40-40-40zm96 68a4 4 0 110 8 4 4 0 010-8zm-32 0a4 4 0 110 8 4 4 0 010-8zm-128 0a4 4 0 110 8 4 4 0 010-8zm-32 0a4 4 0 110 8 4 4 0 010-8zm85.878-50.532l.164.093 32 19c2.55 1.513 2.61 5.154.178 6.767l-.178.111-32 19c-2.612 1.551-5.905-.261-6.038-3.25L144 159v-38c0-3.038 3.24-4.944 5.878-3.532zM272 152a4 4 0 110 8 4 4 0 010-8zm-32 0a4 4 0 110 8 4 4 0 010-8zm-160 0a4 4 0 110 8 4 4 0 010-8zm-32 0a4 4 0 110 8 4 4 0 010-8zm104-23.973v23.945L172.164 140 152 128.027zM96 136a4 4 0 110 8 4 4 0 010-8zm128 0a4 4 0 110 8 4 4 0 010-8zm-160 0a4 4 0 110 8 4 4 0 010-8zm192 0a4 4 0 110 8 4 4 0 010-8zM80 120a4 4 0 110 8 4 4 0 010-8zm-32 0a4 4 0 110 8 4 4 0 010-8zm192 0a4 4 0 110 8 4 4 0 010-8zm32 0a4 4 0 110 8 4 4 0 010-8zM64 104a4 4 0 110 8 4 4 0 010-8zm32 0a4 4 0 110 8 4 4 0 010-8zm160 0a4 4 0 110 8 4 4 0 010-8zm-32 0a4 4 0 110 8 4 4 0 010-8zm16-16a4 4 0 110 8 4 4 0 010-8zm32 0a4 4 0 110 8 4 4 0 010-8zm-160 0a4 4 0 110 8 4 4 0 010-8zm-32 0a4 4 0 110 8 4 4 0 010-8zm-32 0a4 4 0 110 8 4 4 0 010-8zm160 0a4 4 0 110 8 4 4 0 010-8zm16-16a4 4 0 110 8 4 4 0 010-8zm-96 0a4 4 0 110 8 4 4 0 010-8zm-32 0a4 4 0 110 8 4 4 0 010-8zm-32 0a4 4 0 110 8 4 4 0 010-8zm192 0a4 4 0 110 8 4 4 0 010-8zm-64 0a4 4 0 110 8 4 4 0 010-8zm-32 0a4 4 0 110 8 4 4 0 010-8zm128-48H32a4 4 0 00-4 4v28h264V28a4 4 0 00-3.8-3.995L288 24z" fill="#000"/></g></svg>