<svg width="320" height="320" viewBox="0 0 320 320" xmlns="http://www.w3.org/2000/svg"><g id="Foundations/Icons/Brand-Icons/COVID/05-virus" stroke="none" stroke-width="1" fill="none" fill-rule="evenodd"><path d="M168.23 246.754v24.503a4.182 4.182 0 0 0 1.996 3.486 19.04 19.04 0 0 1 7.183 7.171c4.972 8.365 3.166 19.092-4.273 25.374-7.439 6.283-18.334 6.283-25.773 0-7.439-6.282-9.245-17.009-4.273-25.374a19.04 19.04 0 0 1 7.183-7.171 4.182 4.182 0 0 0 1.995-3.486v-24.503a71.35 71.35 0 0 0 7.981.399 71.35 71.35 0 0 0 7.982-.399Zm139.05-100.117a19.896 19.896 0 0 1 0 25.73c-6.292 7.427-17.036 9.23-25.415 4.267a19.04 19.04 0 0 1-7.184-7.172 4.192 4.192 0 0 0-3.491-1.992h-23.545c.499-5.3.499-10.636 0-15.936h23.545a4.192 4.192 0 0 0 3.491-1.992 19.04 19.04 0 0 1 7.184-7.172c8.379-4.963 19.123-3.16 25.416 4.267Zm-294.56-.498c6.292-7.427 17.036-9.23 25.415-4.267a19.04 19.04 0 0 1 7.184 7.172 4.192 4.192 0 0 0 3.491 1.992h24.044a94.468 94.468 0 0 0-.1 15.936H48.81a4.192 4.192 0 0 0-3.491 1.992 19.04 19.04 0 0 1-7.184 7.172c-8.379 4.963-19.123 3.16-25.416-4.267a19.896 19.896 0 0 1 0-25.73ZM173.135 12.712c7.439 6.282 9.245 17.009 4.273 25.374a19.04 19.04 0 0 1-7.183 7.171 4.182 4.182 0 0 0-1.995 3.486l-.001 23.471-.716-.063a88.338 88.338 0 0 0-14.53 0l-.716.063v-23.47a4.182 4.182 0 0 0-1.995-3.487 19.04 19.04 0 0 1-7.183-7.171c-4.972-8.365-3.166-19.092 4.273-25.374 7.439-6.283 18.334-6.283 25.773 0Z" id="lg-icon-fill-primary" fill="#FFD500"/><path d="M163 208.8a4 4 0 1 1 0 8 4 4 0 0 1 0-8Zm16-16a4 4 0 1 1 0 8 4 4 0 0 1 0-8Zm16-16a4 4 0 1 1 0 8 4 4 0 0 1 0-8Zm16-16a4 4 0 1 1 0 8 4 4 0 0 1 0-8Z" id="Half-tone" fill="#000"/><path d="M311.81 139.763a27.778 27.778 0 0 0-19.769-8.174 28.269 28.269 0 0 0-22.964 11.962h-22.465a100.255 100.255 0 0 0-1.797-7.875c-.3-.897-.499-1.695-.699-2.492a154.06 154.06 0 0 0-3.594-9.47c-1.298-3.09-1.597-3.39-2.496-4.985-.899-1.595-2.296-4.087-3.495-6.081l-1.697-2.592 10.783-10.766.999.2 3.494.198c15.44 0 27.956-12.497 27.956-27.912 0-15.416-12.516-27.913-27.956-27.913s-27.956 12.497-27.956 27.913c0 1.301.1 2.601.3 3.888.017.503.084 1.004.2 1.495l-10.285 10.268-1.797-1.196a86.55 86.55 0 0 0-39.937-14.057 88.398 88.398 0 0 0-16.774 0h.4V48.648a4.186 4.186 0 0 0-1.997-3.49 19.055 19.055 0 0 1-7.189-7.177c-4.976-8.372-3.168-19.108 4.277-25.396 7.444-6.287 18.348-6.287 25.792 0 7.445 6.288 9.253 17.024 4.277 25.396a19.055 19.055 0 0 1-7.188 7.178 4.186 4.186 0 0 0-1.997 3.489v23.526h.399c2.55.212 5.083.578 7.588 1.097v-22.43a28.199 28.199 0 0 0 11.981-22.928C188.204 12.497 175.688 0 160.248 0s-27.956 12.497-27.956 27.913a28.199 28.199 0 0 0 11.981 22.928v22.43l-4.992.997a86.646 86.646 0 0 0-8.087 2.392l-5.691 2.293a80.914 80.914 0 0 0-13.579 7.278l-1.797 1.196-10.284-10.268c.116-.49.183-.992.2-1.495.199-1.287.299-2.587.3-3.888 0-15.416-12.517-27.913-27.957-27.913-15.44 0-27.956 12.497-27.956 27.913 0 15.415 12.517 27.912 27.956 27.912l3.495-.199.998-.2 10.783 10.767a93.86 93.86 0 0 0-8.886 16.449 92.004 92.004 0 0 0-4.792 16.249v.299H50.92a28.269 28.269 0 0 0-22.964-11.963C12.516 131.09 0 143.587 0 159.003s12.516 27.913 27.956 27.913a28.269 28.269 0 0 0 22.964-11.963h22.864c.1.399.1.897.2 1.296l1.198 5.284c.5 1.894 1.098 3.788 1.697 5.682a65.11 65.11 0 0 0 1.897 5.283 93.654 93.654 0 0 0 6.69 12.96c.699 1.296 1.597 2.592 2.396 3.788.799 1.196.2.2.2.3l-10.284 10.267-1.498-.2a25.599 25.599 0 0 0-3.894-.298c-15.44 0-27.956 12.497-27.956 27.912 0 15.416 12.517 27.913 27.956 27.913 15.44 0 27.956-12.497 27.956-27.913 0-1.096-.1-2.292-.2-3.489-.1-1.196-.1-.698-.199-.997l10.783-10.766a87.038 87.038 0 0 0 33.547 13.757v23.427a28.199 28.199 0 0 0-11.98 22.928c0 15.416 12.515 27.913 27.955 27.913 15.44 0 27.956-12.497 27.956-27.913a28.199 28.199 0 0 0-11.98-22.928v-23.427a100.757 100.757 0 0 0 7.887-1.794l2.096-.598a87.745 87.745 0 0 0 11.083-4.287 78.72 78.72 0 0 0 7.588-3.988l4.892-3.09 10.783 10.766c-.1.3-.1.698-.2.997-.1.3-.199 2.293-.199 3.49 0 15.415 12.516 27.912 27.956 27.912s27.956-12.497 27.956-27.913c0-15.415-12.516-27.912-27.956-27.912-1.304 0-2.605.1-3.894.299l-1.497.2-10.284-10.269a87.154 87.154 0 0 0 14.177-34.093h22.465a28.269 28.269 0 0 0 22.964 11.962c11.308.001 21.503-6.8 25.83-17.23a27.881 27.881 0 0 0-6.061-30.42Zm-29.853 36.885a19.055 19.055 0 0 1-7.189-7.178 4.195 4.195 0 0 0-3.494-1.993H247.71c.5-5.305.5-10.645 0-15.95h23.563a4.195 4.195 0 0 0 3.494-1.994 19.055 19.055 0 0 1 7.189-7.178c8.385-4.968 19.138-3.163 25.436 4.27a19.914 19.914 0 0 1 0 25.753c-6.298 7.433-17.05 9.238-25.436 4.27Zm-209.171-9.072c.014-.204-.02-.41-.1-.598H48.723a4.195 4.195 0 0 0-3.494 1.994 19.055 19.055 0 0 1-7.189 7.178c-8.385 4.968-19.138 3.162-25.435-4.27a19.914 19.914 0 0 1 0-25.753c6.297-7.433 17.05-9.238 25.435-4.27a19.055 19.055 0 0 1 7.189 7.177 4.195 4.195 0 0 0 3.494 1.994h24.063c.1-1.396.3-2.791.499-4.087a83.908 83.908 0 0 0-.5 20.635Zm95.45 79.253v24.523a4.186 4.186 0 0 0 1.997 3.49 19.055 19.055 0 0 1 7.188 7.177c4.976 8.372 3.168 19.108-4.277 25.396-7.444 6.287-18.348 6.287-25.792 0-7.445-6.288-9.253-17.024-4.277-25.396a19.055 19.055 0 0 1 7.189-7.178 4.186 4.186 0 0 0 1.997-3.489v-24.523c2.653.282 5.32.415 7.987.398a71.397 71.397 0 0 0 7.988-.398Zm79.807-194.791c10.948.018 19.817 8.874 19.836 19.804.018 10.93-8.822 19.816-19.769 19.871l-2.496-.199-2.296-.399a3.998 3.998 0 0 0-3.794 1.097l-28.056 27.913a3.984 3.984 0 0 0 0 5.682 3.797 3.797 0 0 0 2.795 1.196 3.897 3.897 0 0 0 2.796-1.196l9.984-9.969c17.552 26.721 17.434 61.324-.3 87.925l-9.684-9.57a3.897 3.897 0 0 0-5.591 0 3.984 3.984 0 0 0 0 5.682l27.257 27.215a3.998 3.998 0 0 0 3.894.997 13.097 13.097 0 0 1 2.696-.598l2.795-.2c10.947.056 19.787 8.942 19.769 19.872-.019 10.93-8.888 19.786-19.836 19.804-10.947.019-19.846-8.808-19.901-19.738.017-.834.083-1.666.2-2.492a19.91 19.91 0 0 1 .399-2.392 3.884 3.884 0 0 0-1.099-3.689l-27.457-27.514a3.997 3.997 0 0 0-5.69 0 3.885 3.885 0 0 0 0 5.583l9.484 9.47c-26.548 17.405-60.914 17.405-87.462 0l9.485-9.47a3.885 3.885 0 0 0 0-5.583 3.997 3.997 0 0 0-5.691 0l-27.457 27.514a3.983 3.983 0 0 0-1.098 3.788c.19.754.323 1.52.4 2.293.115.826.182 1.658.199 2.492-.055 10.93-8.955 19.757-19.902 19.738-10.947-.018-19.817-8.874-19.835-19.804-.019-10.93 8.821-19.816 19.768-19.871l2.796.2c.917.103 1.82.303 2.696.597a3.997 3.997 0 0 0 3.894-.997l27.257-27.215a3.984 3.984 0 0 0 0-5.682 3.897 3.897 0 0 0-5.592 0l-9.684 9.57c-17.734-26.601-17.852-61.204-.3-87.925l9.984 9.969a3.9 3.9 0 0 0 2.796 1.196 3.797 3.797 0 0 0 2.796-1.196 3.984 3.984 0 0 0 0-5.682L80.973 92.212a3.998 3.998 0 0 0-3.794-1.097l-2.297.399-2.496.2C61.44 91.657 52.6 82.772 52.618 71.841c.018-10.93 8.888-19.786 19.835-19.804C83.4 52.019 92.3 60.846 92.355 71.776a26.278 26.278 0 0 1-.2 2.791 13.042 13.042 0 0 1-.599 2.692 3.983 3.983 0 0 0 .999 3.887l27.756 27.714a3.997 3.997 0 0 0 5.691 0 3.885 3.885 0 0 0 0-5.583L115.918 93.11c26.865-17.8 61.795-17.8 88.66 0l-10.084 10.168a3.885 3.885 0 0 0 0 5.583 3.997 3.997 0 0 0 5.691 0l27.757-27.714a3.983 3.983 0 0 0 .998-3.887 13.042 13.042 0 0 1-.599-2.692 26.278 26.278 0 0 1-.2-2.791c.056-10.93 8.955-19.757 19.902-19.738ZM117.515 163.19a3.983 3.983 0 0 0 .371 5.212 3.998 3.998 0 0 0 5.22.37c5.844-5.236 14.768-4.996 20.32.547 5.552 5.544 5.793 14.455.548 20.288a3.885 3.885 0 0 0 0 5.583c.73.76 1.74 1.192 2.795 1.196a3.797 3.797 0 0 0 2.796-1.196c8.657-8.869 8.566-23.039-.205-31.796-8.77-8.757-22.962-8.848-31.845-.204Zm53.416-46.355a22.512 22.512 0 0 0-6.678 16 22.51 22.51 0 0 0 6.678 16 22.582 22.582 0 0 0 16.025 6.668 22.58 22.58 0 0 0 16.025-6.668 3.885 3.885 0 0 0 0-5.583 3.897 3.897 0 0 0-5.591 0c-5.79 5.688-15.078 5.688-20.867 0-5.75-5.758-5.75-15.076 0-20.835a3.983 3.983 0 0 0-.371-5.212 3.998 3.998 0 0 0-5.22-.37Z" id="Outlines" fill="#000"/></g></svg>