<svg width="320" height="320" viewBox="0 0 320 320" xmlns="http://www.w3.org/2000/svg"><g id="Foundations/Icons/Brand-Icons/Banking-and-Commerce/27-volatile-funds" stroke="none" stroke-width="1" fill="none" fill-rule="evenodd"><path d="M152.491 240a18.87 18.87 0 0 0-.42 3.94c0 5.57 2.44 10.49 6.7 14.75-4.26 4.25-6.7 9.18-6.7 14.75.001.836.058 1.671.17 2.5A80 80 0 0 1 17.591 240Zm-97.42-36a8 8 0 1 1 0 16 8 8 0 0 1 0-16Zm40-48c8.837 0 16 7.163 16 16s-7.163 16-16 16c-8.836 0-16-7.163-16-16s7.164-16 16-16Z" id="lg-icon-fill-primary" fill="#FFD500"/><path d="M235.671 227.64a4 4 0 1 1 0 8 4 4 0 0 1 0-8Zm-48-16a4 4 0 1 1 0 8 4 4 0 0 1 0-8Zm32 0a4 4 0 1 1 0 8 4 4 0 0 1 0-8Zm32 0a4 4 0 1 1 0 8 4 4 0 0 1 0-8Zm32 0a4 4 0 1 1 0 8 4 4 0 0 1 0-8Zm-80-16a4 4 0 1 1 0 8 4 4 0 0 1 0-8Zm32 0a4 4 0 1 1 0 8 4 4 0 0 1 0-8Zm32 0a4 4 0 1 1 0 8 4 4 0 0 1 0-8Z" id="Half-tone" fill="#000"/><path d="M119.071 12c8.837 0 16 7.163 16 16s-7.163 16-16 16h-8v89.46a88.06 88.06 0 0 1 66.21 55.14 71.66 71.66 0 0 0-1.067.414l1.067-.414.009.022.007.019-.016-.041c15.02-5.78 34.97-8.73 54.79-8.73 39.75 0 80 11.87 80 34.56 0 5.57-2.44 10.5-6.7 14.75 4.26 4.26 6.7 9.19 6.7 14.76s-2.44 10.49-6.7 14.75c4.26 4.25 6.7 9.18 6.7 14.75 0 22.69-40.25 34.56-80 34.56-33 0-66.36-8.19-76.72-23.94 2.034-1.9 3.97-3.9 5.81-6 5.91 12.51 35.39 22 70.91 22 39.76 0 72-11.89 72-26.56 0-3.43-1.78-6.73-5-9.73-15.07 9.78-41.14 14.78-67 14.78-23.34 0-46.84-4.06-62.28-12.06a92.628 92.628 0 0 0 3.92-7c13.08 6.65 34.36 11 58.36 11 24.713 0 46.494-4.573 59.51-11.594l.45-.246a35.49 35.49 0 0 0 7.12-5c3.21-3.02 5-6.29 5-9.73 0-3.44-1.78-6.74-5-9.74-6.3 4.08-14.51 7.33-23.84 9.74a158.26 158.26 0 0 1-23 4 198.4 198.4 0 0 1-40.38 0 158.26 158.26 0 0 1-23-4 114.6 114.6 0 0 1-8.48-2.55l.004.002-.014.058c-2.318-.875-4.538-1.696-6.637-2.605l-.893-.395a80.65 80.65 0 0 0 1.48-8.08 72.31 72.31 0 0 0 6.666 2.857l.973.353.011-.06a132.92 132.92 0 0 0 28.632 6.277l1.218.123a192.81 192.81 0 0 0 40.38 0c16.41-1.74 30.39-5.62 39.68-10.74a35.49 35.49 0 0 0 7.12-5c3.21-3.01 5-6.3 5-9.73 0-14.67-32.24-26.56-72-26.56-20.59 0-39.16 3.19-52.28 8.31a63.59 63.59 0 0 0-7.38 3.38l-.414.228c-7.537 4.195-11.926 9.23-11.926 14.642 0 3.43 1.78 6.73 5 9.73a35.49 35.49 0 0 0 7.13 5.02c.7.39 1.43.76 2.19 1.13a80.65 80.65 0 0 1-1.48 8.12 59.49 59.49 0 0 1-7.83-4.23c-3.21 3.02-5 6.31-5 9.74 0 3.43 1.78 6.73 5 9.73.56.55 1.18 1.04 1.83 1.55l-.031-.026.021-.044a38.76 38.76 0 0 0 4.599 3.084l.691.386 1.51.78a87.205 87.205 0 0 1-3.92 7c-1.66-.86-3.24-1.72-4.71-2.72-3.21 3.02-5 6.3-5 9.73a10.73 10.73 0 0 0 1.09 4.59 74.82 74.82 0 0 1-5.82 5.98 19.4 19.4 0 0 1-3.1-8.042v.002l.08.511a19.4 19.4 0 0 0 3.03 7.599c-26.586 25.052-65.885 31.074-98.753 15.132C23.73 283.24 4.128 248.649 7.343 212.26c3.214-36.388 28.575-67.007 63.728-76.941V44h-8c-8.836 0-16-7.163-16-16s7.164-16 16-16Zm33.42 228h-134.9a80 80 0 0 0 134.65 35.94l-.004-.03a19.556 19.556 0 0 1-.006-.04l.001-.001-.051-.427c-.054-.499-.089-1-.102-1.5l-.008-.502c0-5.57 2.44-10.5 6.7-14.75-4.26-4.26-6.7-9.18-6.7-14.75a18.87 18.87 0 0 1 .42-3.94Zm-33.42-220h-56a8 8 0 1 0 0 16h16v105.6c-41.734 8.546-69.468 48.278-63.1 90.4h140.33a28 28 0 0 1 2.47-2.82c-4.26-4.25-6.7-9.18-6.7-14.75 0-9.43 6.94-16.97 17.89-22.58l-.326-.851c-10.907-28.009-36.607-47.576-66.564-50.599V36h16a8 8 0 1 0 0-16Zm-64 176c8.837 0 16 7.163 16 16s-7.163 16-16 16c-8.836 0-16-7.163-16-16s7.164-16 16-16Zm0 8a8 8 0 1 0 0 16 8 8 0 0 0 0-16Zm40-56c13.255 0 24 10.745 24 24s-10.745 24-24 24c-13.254 0-24-10.745-24-24s10.746-24 24-24Zm0 8c-8.836 0-16 7.163-16 16s7.164 16 16 16c8.837 0 16-7.163 16-16s-7.163-16-16-16Z" id="Outlines" fill="#000"/></g></svg>