<svg width="320" height="320" viewBox="0 0 320 320" xmlns="http://www.w3.org/2000/svg"><g id="Foundations/Icons/Brand-Icons/Banking-and-Commerce/13-wallet" stroke="none" stroke-width="1" fill="none" fill-rule="evenodd"><path d="M212 20v57h32v103H60V20h152Zm62 90v70h-28v-70h28Z" id="lg-icon-fill-primary" fill="#FFD500"/><path d="M148 272a4 4 0 1 1 0 8 4 4 0 0 1 0-8Zm32 0a4 4 0 1 1 0 8 4 4 0 0 1 0-8Zm32 0a4 4 0 1 1 0 8 4 4 0 0 1 0-8Zm32 0a4 4 0 1 1 0 8 4 4 0 0 1 0-8Zm32 0a4 4 0 1 1 0 8 4 4 0 0 1 0-8Zm-112-16a4 4 0 1 1 0 8 4 4 0 0 1 0-8Zm32 0a4 4 0 1 1 0 8 4 4 0 0 1 0-8Zm32 0a4 4 0 1 1 0 8 4 4 0 0 1 0-8Zm32 0a4 4 0 1 1 0 8 4 4 0 0 1 0-8Zm-80-16a4 4 0 1 1 0 8 4 4 0 0 1 0-8Zm32 0a4 4 0 1 1 0 8 4 4 0 0 1 0-8Zm32 0a4 4 0 1 1 0 8 4 4 0 0 1 0-8Zm32 0a4 4 0 1 1 0 8 4 4 0 0 1 0-8Zm-80-16a4 4 0 1 1 0 8 4 4 0 0 1 0-8Zm32 0a4 4 0 1 1 0 8 4 4 0 0 1 0-8Zm32 0a4 4 0 1 1 0 8 4 4 0 0 1 0-8Zm-48-16a4 4 0 1 1 0 8 4 4 0 0 1 0-8Zm32 0a4 4 0 1 1 0 8 4 4 0 0 1 0-8Zm32 0a4 4 0 1 1 0 8 4 4 0 0 1 0-8Z" id="Half-tone" fill="#000"/><path d="M208 16a8 8 0 0 1 7.996 7.75L216 24v48h24a8 8 0 0 1 7.996 7.75L248 80v24h24a8 8 0 0 1 7.996 7.75l.004.25v8h16a8 8 0 0 1 7.996 7.75l.004.25v168a8 8 0 0 1-7.75 7.996L296 304H24a8 8 0 0 1-7.996-7.75L16 296V128a8 8 0 0 1 7.75-7.996L24 120h32V24a8 8 0 0 1 7.75-7.996L64 16h144ZM44 184a4 4 0 0 1-.2-7.995L44 176h12v-48H24v168h272V128h-16v56H44Zm196-8V80h-24v96h24Zm32-64h-24v64h24v-64ZM136 56a56 56 0 0 1 50.6 80 56 56 0 0 1-101.2 0A56 56 0 0 1 136 56Zm28.549 17.4c-16.964-12.551-40.134-12.551-57.098 0-16.963 12.55-23.74 34.707-16.701 54.6a47.31 47.31 0 0 0 3.71 8 47.95 47.95 0 0 0 83.08 0 47.31 47.31 0 0 0 3.71-8c7.04-19.893.262-42.05-16.701-54.6Zm3.431 32.08v18.63l-6.69 3 6.69-2.96v8.61h-8l-.001-6.65c-2.669-1.7-5.84-1.898-10.045-1.293l-.753.115-.775.13-.798.146-.822.16-.845.173-1.766.382-1.87.425-2.275.522v-8.21l2.223-.505 1.103-.244c.184-.04.367-.08.55-.118l1.095-.228 1.088-.213c4.703-.89 9.217-1.296 13.409-.151l.481.138.001-11.859h8Zm-42.47-14.25v8c-8.82 0-13.49 3.8-13.49 11 .086 6.058 4.985 10.921 11.008 11h.412a55.52 55.52 0 0 0 7.617-.726l.943-.164v-14.86h8v27.28h-8v-4.32c.293-.043.584-.089.873-.136l-1.815.283c-2.199.325-4.414.53-6.636.614l-.952.029h-.21a19.57 19.57 0 0 1-6.203-1.053l-.497-.177a19 19 0 0 1-12.497-19.15l.042-.554a20.07 20.07 0 0 1 1.14-5.172l.204-.526c2.499-6.19 8.487-11.226 19.589-11.365l.472-.003Zm42.47 1.53v12.71h-8V92.76h8ZM208 24H64v152h144V24Z" id="Outlines" fill="#000"/></g></svg>