<svg xmlns="http://www.w3.org/2000/svg" viewBox="0 0 320 320"><g id="Foundations/Icons/Brand-Icons/Warning" fill="none" fill-rule="evenodd" stroke="none" stroke-width="1"><path id="lg-icon-fill-primary" fill="#B50005" d="M213.4 20.958c2.447 0 4.794.971 6.524 2.702l75.727 75.727a9.225 9.225 0 0 1 2.702 6.523v107.095a9.225 9.225 0 0 1-2.702 6.523l-75.727 75.727a9.225 9.225 0 0 1-6.523 2.703H106.306a9.225 9.225 0 0 1-6.523-2.703l-75.728-75.727a9.225 9.225 0 0 1-2.702-6.523V105.91c0-2.447.972-4.793 2.702-6.523L99.783 23.66a9.225 9.225 0 0 1 6.523-2.702H213.4zm-4.463 19.999h-98.169l-69.415 69.416v98.168l69.415 69.416h98.169l69.416-69.416v-98.168l-69.416-69.416z"/><path id="Outlines" fill="#000" d="M216.336 16c2.12 0 4.153.842 5.652 2.341l79.67 79.671a7.993 7.993 0 0 1 2.342 5.652v112.672c0 2.12-.842 4.153-2.341 5.652l-79.671 79.67a7.993 7.993 0 0 1-5.652 2.342H103.664a7.993 7.993 0 0 1-5.652-2.341l-79.67-79.671A7.993 7.993 0 0 1 16 216.336V103.664c0-2.12.842-4.153 2.341-5.652l79.671-79.67A7.993 7.993 0 0 1 103.664 16h112.672zm0 7.993H103.664l-79.67 79.671v112.672l79.67 79.671h112.672l79.671-79.671V103.664l-79.671-79.67zM207.94 36c2.19 0 4.292.87 5.84 2.42l67.8 67.798a8.26 8.26 0 0 1 2.419 5.84v95.883a8.26 8.26 0 0 1-2.42 5.84l-67.798 67.8a8.26 8.26 0 0 1-5.84 2.419h-95.883a8.26 8.26 0 0 1-5.84-2.42l-67.8-67.798a8.26 8.26 0 0 1-2.419-5.84v-95.883c0-2.19.87-4.292 2.42-5.84l67.798-67.8a8.26 8.26 0 0 1 5.84-2.419h95.883zm0 8h-95.88a.26.26 0 0 0-.13.035l-.054.041-67.799 67.8a.26.26 0 0 0-.067.115l-.009.068v95.882c0 .046.012.09.035.13l.041.054 67.8 67.799a.26.26 0 0 0 .115.067l.068.009h95.882a.26.26 0 0 0 .13-.035l.054-.041 67.799-67.8a.26.26 0 0 0 .067-.115l.009-.068V112.06a.26.26 0 0 0-.035-.13l-.041-.054-67.8-67.799a.26.26 0 0 0-.115-.067l-.07-.01zM160 206a4 4 0 1 1 0 8 4 4 0 0 1 0-8zm0-104a4 4 0 0 1 3.995 3.8l.005.2v80a4 4 0 0 1-7.995.2L156 186v-80a4 4 0 0 1 4-4z"/><path id="Half-tone" fill="#000" d="M68 144a4 4 0 1 1 0 8 4 4 0 0 1 0-8zm16-16a4 4 0 1 1 0 8 4 4 0 0 1 0-8zm16-16a4 4 0 1 1 0 8 4 4 0 0 1 0-8zm-32 0a4 4 0 1 1 0 8 4 4 0 0 1 0-8zm48-16a4 4 0 1 1 0 8 4 4 0 0 1 0-8zm-32 0a4 4 0 1 1 0 8 4 4 0 0 1 0-8zm48-16a4 4 0 1 1 0 8 4 4 0 0 1 0-8zm-32 0a4 4 0 1 1 0 8 4 4 0 0 1 0-8zm48-16a4 4 0 1 1 0 8 4 4 0 0 1 0-8zm-32 0a4 4 0 1 1 0 8 4 4 0 0 1 0-8z"/></g></svg>