<svg width="320" height="320" viewBox="0 0 320 320" xmlns="http://www.w3.org/2000/svg"><g id="Foundations/Icons/Brand-Icons/COVID/01-wash-hands" stroke="none" stroke-width="1" fill="none" fill-rule="evenodd"><path id="lg-icon-fill-primary" fill="#FFD500" d="M256 304h48V192h-48z"/><path d="M212 24a4 4 0 1 1 0 8 4 4 0 0 1 0-8Zm-32 0a4 4 0 1 1 0 8 4 4 0 0 1 0-8Zm-32 0a4 4 0 1 1 0 8 4 4 0 0 1 0-8Zm-32 0a4 4 0 1 1 0 8 4 4 0 0 1 0-8Zm-32 0a4 4 0 1 1 0 8 4 4 0 0 1 0-8Zm-32 0a4 4 0 1 1 0 8 4 4 0 0 1 0-8Zm-32 0a4 4 0 1 1 0 8 4 4 0 0 1 0-8Z" id="Half-tone" fill="#000"/><path d="M223.774 184a4 4 0 0 1 2.81 1.152L241.64 200H248v-8a8 8 0 0 1 8-8h48a8 8 0 0 1 8 8v112a8 8 0 0 1-8 8h-48a8 8 0 0 1-8-8v-8h-6.344l-14.828 14.829A4.003 4.003 0 0 1 224 312H109.925c-8.03 0-14.565-7.169-14.565-15.98 0-2.925.732-5.66 1.987-8.02h-3.299c-7.764 0-14.08-7.155-14.08-15.951 0-3.209.83-6.184 2.246-8.686C76.324 261.437 72 255.285 72 248c0-7.287 4.327-13.439 10.22-15.364-1.42-2.495-2.253-5.455-2.253-8.636 0-8.822 6.335-16 14.122-16h35.788a17.527 17.527 0 0 1-1.91-8c0-8.822 6.335-16 14.122-16ZM304 192h-48v112h48V192Zm-81.866 0H142.09c-3.318 0-6.122 3.664-6.122 8s2.804 8 6.122 8h37.047a4 4 0 0 1 0 8H94.09c-3.318 0-6.122 3.664-6.122 8s2.804 8 6.122 8H164a4 4 0 0 1 0 8H86.123c-3.319 0-6.123 3.664-6.123 8s2.804 8 6.123 8H163a4 4 0 0 1 0 8H94.048c-3.297 0-6.08 3.641-6.08 7.951 0 4.408 2.783 8.049 5.08 8.049h69.362a4 4 0 0 1 0 8h-4.13l-48.352.039c-3.562 0-6.568 3.655-6.568 7.981 0 4.325 3.006 7.98 6.565 7.98h112.418l14.828-14.829a4.003 4.003 0 0 1 2.83-1.171h8v-80h-8a4.003 4.003 0 0 1-2.81-1.152L222.134 192ZM113 92a4 4 0 0 1 3.995 3.8l.005.2v64a4 4 0 0 1-7.995.2L109 160V96a4 4 0 0 1 4-4Zm31.667 0a4 4 0 0 1 3.995 3.8l.005.2v64a4 4 0 0 1-7.996.2l-.004-.2V96a4 4 0 0 1 4-4Zm31.666 0a4 4 0 0 1 3.995 3.8l.005.2v64a4 4 0 0 1-7.995.2l-.005-.2V96a4 4 0 0 1 4-4ZM208 92a4 4 0 0 1 3.995 3.8l.005.2v64a4 4 0 0 1-7.995.2L204 160V96a4 4 0 0 1 4-4Zm16-92a8 8 0 0 1 7.996 7.75L232 8v40a8 8 0 0 1-7.75 7.996L224 56h-8v16a8 8 0 0 1-7.75 7.996L208 80h-96a8 8 0 0 1-7.996-7.75L104 72V56H8a8 8 0 0 1-7.996-7.75L0 48V8A8 8 0 0 1 7.75.004L8 0h216Zm-16 56h-96v16h96V56Zm16-48H8v40h216V8Z" id="Outlines" fill="#000"/></g></svg>