<svg width="320" height="320" viewBox="0 0 320 320" xmlns="http://www.w3.org/2000/svg"><g id="Foundations/Icons/Brand-Icons/Nature/02-watering-can" stroke="none" stroke-width="1" fill="none" fill-rule="evenodd"><path id="lg-icon-fill-primary" fill="#FFD500" d="M40 80.14h168v208H40z"/><path d="M60 184.14a4 4 0 1 1 0 8 4 4 0 0 1 0-8Zm16-16a4 4 0 1 1 0 8 4 4 0 0 1 0-8Zm-16-16a4 4 0 1 1 0 8 4 4 0 0 1 0-8Zm32 0a4 4 0 1 1 0 8 4 4 0 0 1 0-8Zm-16-16a4 4 0 1 1 0 8 4 4 0 0 1 0-8Zm32 0a4 4 0 1 1 0 8 4 4 0 0 1 0-8Zm-48-16a4 4 0 1 1 0 8 4 4 0 0 1 0-8Zm32 0a4 4 0 1 1 0 8 4 4 0 0 1 0-8Zm32 0a4 4 0 1 1 0 8 4 4 0 0 1 0-8Z" id="Half-tone" fill="#000"/><path d="M284 52.28 255.72 24a39.69 39.69 0 0 0-5.67 7.14c-.52.84-1 1.7-1.47 2.57-.61 1.16-1.16 2.35-1.65 3.55a40.09 40.09 0 0 0 0 30.1c.19.46.39.92.59 1.37l.51 1.08-32 35.43v-25.1a8.12 8.12 0 0 0-2.34-5.66 6.91 6.91 0 0 0-.57-.51 7.82 7.82 0 0 0-2-1.2 8 8 0 0 0-2.29-.59 7.38 7.38 0 0 0-.82 0H128V56.14c0-17.673-14.327-32-32-32H40c-17.673 0-32 14.327-32 32v88c-.007 14.598 9.866 27.35 24 31v113a7.88 7.88 0 0 0 1.37 4.47 8 8 0 0 0 1.54 1.7 7.82 7.82 0 0 0 2 1.2 8 8 0 0 0 2.29.59c.273.015.547.015.82 0H208c.273.015.547.015.82 0a8 8 0 0 0 2.29-.59 7.82 7.82 0 0 0 2-1.2c.2-.16.39-.33.57-.51a8.12 8.12 0 0 0 2.32-5.66V143.2l49.93-55.23-.53-.26c.41.21.83.39 1.24.59.41.2 1.07.52 1.62.76.83.35 1.66.68 2.51 1a41 41 0 0 0 5.23 1.4l.68.14a40.28 40.28 0 0 0 14.74 0l.68-.14a41 41 0 0 0 5.18-1.42c.61-.21 1.22-.44 1.82-.69a36.7 36.7 0 0 0 3.55-1.64c.58-.31 1.16-.63 1.73-1a39.7 39.7 0 0 0 7.95-6.17L284 52.28Zm-76 27.86v15H40v-15h168ZM32 166.76a24 24 0 0 1-16-22.62v-88c0-13.255 10.745-24 24-24h56c13.255 0 24 10.745 24 24v16H40a7.38 7.38 0 0 0-.82 0 8 8 0 0 0-2.29.59 7.82 7.82 0 0 0-2 1.2 8 8 0 0 0-1.54 1.7A7.88 7.88 0 0 0 32 80.14v86.62Zm176 121.38H40v-185h168v185Zm41.84-215.06c-.44-.72-.87-1.45-1.26-2.2.42.75.82 1.48 1.26 2.2ZM216 131.27v-14.13l36.43-40.3c-.09-.13-.18-.26-.28-.38.25.33.51.65.77 1s.63.77 1 1.15c.59.68 1.19 1.34 1.84 2 .65.66 1.13 1.09 1.71 1.61.4.35.81.69 1.22 1l.54.45-.08-.06L216 131.27Zm34.23-57.56c.39.63.81 1.24 1.25 1.84-.48-.6-.85-1.21-1.25-1.84Zm10.9 11.43.27.19-.27-.19Zm22.87-.86a32 32 0 0 1-27.58-48.26l43.84 43.84A31.841 31.841 0 0 1 284 84.28Z" id="Outlines" fill="#000"/></g></svg>