<svg width="320" height="320" viewBox="0 0 320 320" xmlns="http://www.w3.org/2000/svg"><g id="Foundations/Icons/Brand-Icons/Sports-and-Pastimes/15-weights" stroke="none" stroke-width="1" fill="none" fill-rule="evenodd"><path d="M92 80v168H52V80h40Zm176 0v168h-40V80h40Z" id="lg-icon-fill-primary" fill="#FFD500"/><path d="M80 228a4 4 0 1 1 0 8 4 4 0 0 1 0-8Zm160 0a4 4 0 1 1 0 8 4 4 0 0 1 0-8ZM64 212l.2.005A4 4 0 1 1 64 212Zm192 0a4 4 0 1 1 0 8 4 4 0 0 1 0-8ZM80 196l.2.005A4 4 0 1 1 80 196Zm160 0 .2.005a4 4 0 1 1-.2-.005ZM64 180l.2.005A4 4 0 1 1 64 180Zm192 0 .2.005a4 4 0 1 1-.2-.005ZM80 164l.2.005A4 4 0 1 1 80 164Zm160 0 .2.005a4 4 0 1 1-.2-.005ZM64 148l.2.005A4 4 0 1 1 64 148Zm192 0 .2.005a4 4 0 1 1-.2-.005ZM80 132l.2.005A4 4 0 1 1 80 132Zm160 0 .2.005a4 4 0 1 1-.2-.005ZM64 116a4 4 0 1 1 0 8 4 4 0 0 1 0-8Zm192 0 .2.005a4 4 0 1 1-.2-.005ZM80 100a4 4 0 1 1 0 8 4 4 0 0 1 0-8Zm160 0a4 4 0 1 1 0 8 4 4 0 0 1 0-8Z" id="Half-tone" fill="#000"/><path d="M308 104h-32V80a8 8 0 0 0-8-8h-40a8 8 0 0 0-8 8v63H100V80a8 8 0 0 0-8-8H52a8 8 0 0 0-8 8v24H12a8 8 0 0 0-8 8v104a8 8 0 0 0 8 8h32v24a8 8 0 0 0 8 8h40a8 8 0 0 0 8-8v-63h120v63a8 8 0 0 0 8 8h40a8 8 0 0 0 8-8v-24h32a8 8 0 0 0 8-8V112a8 8 0 0 0-8-8ZM44 216H12V112h32v104Zm48 32H52V80h40v168Zm128-71H100v-26h120v26Zm48-65v136h-40V80h40v32Zm40 104h-32V112h32v104Z" id="Outlines" fill="#000"/></g></svg>