<svg viewBox="0 0 63 80" xmlns="http://www.w3.org/2000/svg"><g id="Page-1" stroke="none" stroke-width="1" fill="none" fill-rule="evenodd"><g id="ESG_1.0I_ESGFeatureCard_XL" transform="translate(-1121 -340)"><g id="Manage-your-investments-Copy" transform="translate(64 316)"><g id="Foundations/Icons/Brand-Icons/Scam" transform="translate(1048 24)"><path d="m31.455 37.545 1.126 1.952a49.511 49.511 0 0 1-9.91 7.534c-4.388 2.533-8.894 3.185-11.198 3.35 1.293-1.915 4.111-5.492 8.5-8.026a49.686 49.686 0 0 1 11.482-4.81Zm17.231 0a49.486 49.486 0 0 1 11.482 4.81c4.389 2.534 7.207 6.111 8.487 8.026-2.289-.165-6.794-.817-11.183-3.35a49.511 49.511 0 0 1-9.912-7.534l1.126-1.952ZM40.072 2.721c1.01 2.082 2.698 6.316 2.698 11.39a49.766 49.766 0 0 1-1.572 12.366H38.95a49.646 49.646 0 0 1-1.578-12.376c0-5.064 1.7-9.298 2.699-11.38Z" id="lg-icon-fill-primary" fill="#FFD500"/><path d="M40.072 74.01a.998.998 0 1 1 0 1.996.998.998 0 0 1 0-1.997Zm0-7.988a.998.998 0 1 1 0 1.996.998.998 0 0 1 0-1.996Zm0-7.988a.998.998 0 1 1 0 1.997.998.998 0 0 1 0-1.997Zm0-7.988.116.007a.999.999 0 1 1-.116-.007Z" id="Half-tone" fill="#000"/><path d="M41.297 42.058c1.018-.036 1.9.7 2.047 1.708l2.699 34.147c.12 1.118-.832 2.087-2.05 2.087H36.13c-1.218 0-2.169-.969-2.049-2.087l2.718-34.147a1.997 1.997 0 0 1 2.047-1.708Zm-.005 1.748h-2.45a.337.337 0 0 0-.31.144l-2.704 34.103v.05a.325.325 0 0 0 .312.15h7.937a.33.33 0 0 0 .238-.148v-.052L41.602 43.95a.337.337 0 0 0-.31-.144ZM47.51 36.1c.19-.33.574-.5.946-.417.242.055 6.006 1.358 12.589 5.16 6.684 3.859 9.867 9.805 10 10.054l.01.008a.874.874 0 0 1-.75 1.278h-.36a28.082 28.082 0 0 1-13.346-3.64c-5.081-2.932-8.632-6.188-10.064-7.604l-.182-.181c-.31-.312-.485-.502-.518-.537a.874.874 0 0 1-.112-1.026Zm-15.823-.417a.876.876 0 0 1 .946.417l1.787 3.095a.874.874 0 0 1-.112 1.031c-.032.035-.208.225-.517.537l-.182.181c-1.433 1.416-4.983 4.672-10.064 7.604a28.082 28.082 0 0 1-13.337 3.627h-.36a.874.874 0 0 1-.749-1.278c.133-.252 3.315-6.195 10-10.054 6.582-3.802 12.339-5.105 12.588-5.16Zm-.232 1.862a49.686 49.686 0 0 0-11.482 4.81c-4.389 2.534-7.207 6.111-8.5 8.026 2.304-.165 6.81-.817 11.198-3.35a49.511 49.511 0 0 0 9.91-7.534Zm17.231 0-1.126 1.952a49.511 49.511 0 0 0 9.912 7.534c4.389 2.533 8.894 3.185 11.183 3.35-1.28-1.915-4.098-5.492-8.487-8.026a49.486 49.486 0 0 0-11.482-4.81Zm-8.614-7.468a4.992 4.992 0 1 1 0 9.984 4.992 4.992 0 0 1 0-9.984Zm0 1.747a3.245 3.245 0 1 0 0 6.49 3.245 3.245 0 0 0 0-6.49Zm0 2.247a.998.998 0 1 1 0 1.997.998.998 0 0 1 0-1.997Zm0-34.071c.3 0 .579.154.739.407.152.24 3.706 5.966 3.706 13.704 0 7.611-1.752 13.265-1.824 13.502a.876.876 0 0 1-.834.612h-3.574a.876.876 0 0 1-.834-.612c-.078-.237-1.825-5.89-1.825-13.502 0-7.728 3.555-13.454 3.707-13.704A.874.874 0 0 1 40.072 0Zm0 2.721c-.999 2.082-2.699 6.316-2.699 11.38a49.646 49.646 0 0 0 1.578 12.376h2.247a49.766 49.766 0 0 0 1.572-12.366c0-5.074-1.687-9.308-2.698-11.39Z" id="Outlines" fill="#000"/></g></g></g></g></svg>