<svg xmlns="http://www.w3.org/2000/svg" viewBox="0 0 76 76"><g id="Text-amends" fill="none" fill-rule="evenodd" stroke="none" stroke-width="1"><g id="SN_1.0I_BookWithPensionWise_XL" transform="translate(-766 -474)"><g id="Group-3" transform="translate(656 440)"><g id="Foundations/Icons/Brand-Icons/Communication/04-phone-call-Copy" transform="translate(108 32)"><circle id="lg-icon-fill-primary" cx="40" cy="40" r="37.875" fill="#FFD500"/><path id="Outlines" fill="#000" d="M78 39C77.468 18.792 61.208 2.537 41 2.013V2h-2v.013C18.797 2.544 2.544 18.796 2.013 39H2v2h.013a37.813 37.813 0 0 0 5 17.852V59h.085A38 38 0 0 0 39 78h2c20.213-.525 36.475-16.787 37-37v-2Zm-18 0a66.657 66.657 0 0 0-2.102-16H71.75a35.77 35.77 0 0 1 4.233 16H60ZM46.532 6.545c2.168 1.75 4.133 4.27 5.84 7.518A42.825 42.825 0 0 1 55.236 21H41V4.06c1.888.218 3.75 1.05 5.532 2.485ZM39 4.06V21H24.765a42.825 42.825 0 0 1 2.863-6.938c1.707-3.25 3.672-5.774 5.84-7.517C35.25 5.11 37.111 4.277 39 4.06ZM39 23v16H22.012a64.387 64.387 0 0 1 2.163-16H39Zm0 18v16H24.175a64.387 64.387 0 0 1-2.163-16H39Zm0 18v16.94c-1.888-.218-3.75-1.05-5.532-2.485-2.168-1.75-4.133-4.27-5.84-7.517A42.825 42.825 0 0 1 24.765 59H39Zm2 16.94V59h14.235a42.825 42.825 0 0 1-2.862 6.938c-1.708 3.25-3.673 5.775-5.84 7.517C44.75 74.89 42.887 75.722 41 75.94ZM41 57V41h17a64.387 64.387 0 0 1-2.163 16H41Zm0-18V23h14.825A64.387 64.387 0 0 1 58 39H41Zm29.59-18H57.322c-2.212-7.273-5.66-13.02-9.794-16.215a35.75 35.75 0 0 1 17.927 9.75A36.183 36.183 0 0 1 70.59 21Zm-56.045-6.455a35.75 35.75 0 0 1 17.927-9.75C28.337 7.98 24.89 13.727 22.677 21H9.41a36.183 36.183 0 0 1 5.135-6.455ZM8.25 23h13.86A66.657 66.657 0 0 0 20 39H4a35.77 35.77 0 0 1 4.25-16ZM20 41a66.657 66.657 0 0 0 2.102 16H8.25a35.77 35.77 0 0 1-4.232-16H20ZM9.41 59h13.267c2.213 7.272 5.66 13.02 9.795 16.215a35.75 35.75 0 0 1-17.927-9.75A36.183 36.183 0 0 1 9.41 59Zm56.045 6.455a35.75 35.75 0 0 1-17.927 9.75c4.135-3.195 7.582-8.942 9.794-16.215H70.59a36.183 36.183 0 0 1-5.135 6.465ZM71.75 57H57.89A66.657 66.657 0 0 0 60 41h16a35.77 35.77 0 0 1-4.25 16Z"/></g></g></g></g></svg>