<svg xmlns="http://www.w3.org/2000/svg" width="320" height="320" fill="none" viewBox="0 0 320 320"><path fill="#FFD500" fill-rule="evenodd" d="M159.595 20c-29.02 0-57.713 13.023-79.104 36.38C57.234 81.772 44 117.515 44 159.794 44 243.928 90.677 300 161.214 300c28.791 0 57.28-13.111 78.53-36.617 23.103-25.555 36.256-61.512 36.256-104C276 76.965 229.109 20 159.595 20Zm-7.612 15.578c16.411 0 30.468 17.632 40.59 47.605 9.453 27.992 14.858 65.198 14.858 102.939 0 58.147-13.665 98.3-39.733 98.3-18.31 0-32.813-18.939-42.896-51.275-8.725-27.98-13.624-64.919-13.624-100.043 0-58.437 14.122-97.526 40.805-97.526Z" clip-rule="evenodd"/><path fill="#000" fill-rule="evenodd" d="M88 236a4 4 0 1 1 0 8 4 4 0 0 1 0-8Zm144-16a4 4 0 1 1 0 8 4 4 0 0 1 0-8Zm-160 0a4 4 0 1 1 0 8 4 4 0 0 1 0-8Zm176-16a4 4 0 1 1 0 8 4 4 0 0 1 0-8Zm-160 0a4 4 0 1 1 0 8 4 4 0 0 1 0-8Zm144-16a4 4 0 1 1 0 8 4 4 0 0 1 0-8Zm-160 0a4 4 0 1 1 0 8 4 4 0 0 1 0-8Zm16-16a4 4 0 1 1 0 8 4 4 0 0 1 0-8Zm160 0a4 4 0 1 1 0 8 4 4 0 0 1 0-8Zm-16-16a4 4 0 1 1 0 8 4 4 0 0 1 0-8Zm-160 0a4 4 0 1 1 0 8 4 4 0 0 1 0-8Zm176-16a4 4 0 1 1 0 8 4 4 0 0 1 0-8Zm-160 0a4 4 0 1 1 0 8 4 4 0 0 1 0-8Zm144-16a4 4 0 1 1 0 8 4 4 0 0 1 0-8Zm-160 0a4 4 0 1 1 0 8 4 4 0 0 1 0-8Zm176-16a4 4 0 1 1 0 8 4 4 0 0 1 0-8Zm-160 0a4 4 0 1 1 0 8 4 4 0 0 1 0-8Zm144-16a4 4 0 1 1 0 8 4 4 0 0 1 0-8ZM72 92a4 4 0 1 1 0 8 4 4 0 0 1 0-8Zm16-16a4 4 0 1 1 0 8 4 4 0 0 1 0-8Z" clip-rule="evenodd"/><path fill="#000" fill-rule="evenodd" d="M159.609 16C231.539 16 280 75.234 280 159.401c0 43.2-13.395 80.044-37.055 106.375C220.937 290.269 191.284 304 161.172 304 88.279 304 40 245.649 40 159.8c0-43.018 13.488-79.67 37.317-105.845C99.463 29.626 129.3 16 159.608 16Zm0 8c-28.019 0-55.723 12.651-76.377 35.34C60.778 84.007 48 118.73 48 159.8 48 241.53 93.068 296 161.172 296c27.799 0 55.305-12.736 75.822-35.571C259.301 235.604 272 200.674 272 159.401 272 79.337 226.726 24 159.609 24Zm-7.811 7.578c17.946 0 33.317 18.199 44.386 49.136 10.337 28.891 16.247 67.294 16.247 106.247 0 60.017-14.942 101.461-43.448 101.461-20.022 0-35.881-19.548-46.907-52.923-9.541-28.88-14.898-67.006-14.898-103.259 0-60.317 15.443-100.662 44.62-100.662Zm0 8c-22.662 0-36.62 36.467-36.62 92.662 0 35.446 5.239 72.736 14.494 100.749 10.053 30.431 23.847 47.433 39.311 47.433 21.865 0 35.448-37.673 35.448-93.461 0-79.219-24.388-147.383-52.633-147.383Z" clip-rule="evenodd"/></svg>