<svg width="320" height="320" viewBox="0 0 320 320" xmlns="http://www.w3.org/2000/svg"><g id="Foundations/Icons/Brand-Icons/Commands/03-zoom-out" stroke="none" stroke-width="1" fill="none" fill-rule="evenodd"><path d="M66.77 66.753c21.591-21.588 55.427-24.916 80.812-7.95 25.385 16.966 35.25 49.502 23.562 77.71-11.688 28.206-41.674 44.23-71.62 38.268-29.945-5.96-51.51-32.245-51.505-62.778a63.561 63.561 0 0 1 18.75-45.25Z" id="lg-icon-fill-primary" fill="#FFD500"/><path d="M276.02 272.003a4 4 0 1 1 0 8 4 4 0 0 1 0-8Zm-16-16a4 4 0 1 1 0 8 4 4 0 0 1 0-8Zm-16-16a4 4 0 1 1 0 8 4 4 0 0 1 0-8Zm-16-16a4 4 0 1 1 0 8 4 4 0 0 1 0-8Zm-16-16a4 4 0 1 1 0 8 4 4 0 0 1 0-8Zm-16-16a4 4 0 1 1 0 8 4 4 0 0 1 0-8Z" id="Half-tone" fill="#000"/><path d="M65.54 28c38.307-21.192 86.1-13.782 116.193 18.014 30.093 31.796 34.863 79.925 11.596 117.01-.59.939-1.193 1.865-1.81 2.78a91.953 91.953 0 0 0 1.83-2.8l108.45 108.46a7.58 7.58 0 0 1 0 10.72l-19.6 19.6a7.58 7.58 0 0 1-10.72 0l-108.45-108.45a94.54 94.54 0 0 0 6.7-4.61l107.12 107.1 19-19-107.11-107.12.586-.793-.606.812a96.72 96.72 0 0 1-19 19c-2.16 1.61-4.39 3.16-6.7 4.61a95.52 95.52 0 0 1-51 14.67c-43.779.005-82.016-29.61-92.961-71.998C8.112 93.616 27.23 49.192 65.539 28Zm46.48-3.997c-48.58.055-87.946 39.422-88 88 0 48.601 39.398 88 88 88 48.6 0 88-39.399 88-88s-39.4-88-88-88ZM52.157 72c19.085-28.56 55.686-39.661 87.42-26.515 31.735 13.146 49.763 46.879 43.06 80.568-6.702 33.689-36.27 57.952-70.619 57.95a71.76 71.76 0 0 1-50.91-21.09C36.821 138.623 33.074 100.56 52.16 72Zm95.424-13.197c-25.385-16.966-59.22-13.638-80.813 7.95a63.561 63.561 0 0 0-18.75 45.25c-.005 30.533 21.56 56.817 51.505 62.778 29.946 5.961 59.932-10.062 71.62-38.269 11.688-28.207 1.823-60.743-23.562-77.71Zm-10.883 49.2a4 4 0 1 1 0 8H87.37a4 4 0 1 1 0-8Z" id="Outlines" fill="#000"/></g></svg>