<svg width="222" height="264" viewBox="0 0 222 264" fill="none" xmlns="http://www.w3.org/2000/svg">
<path d="M77.4479 66.8047L66.0645 90.7375L76.2198 91.869L77.4479 66.8047Z" fill="#74C9E3" stroke="#333333" stroke-linejoin="bevel"/>
<path d="M168.956 19.049L167.24 13.9104L157.368 15.3247L141.828 22.6318L143.245 28.1318C145.78 34.2133 146.646 37.8747 153.337 39.9175L163.587 39.289L168.405 37.9218L172.845 36.5547C169.476 27.0475 168.925 19.0333 168.925 19.0333" fill="#CF945E"/>
<path d="M168.956 19.049L167.24 13.9104L157.368 15.3247L141.828 22.6318L143.245 28.1318C145.78 34.2133 146.646 37.8747 153.337 39.9175L163.587 39.289L168.405 37.9218L172.845 36.5547C169.476 27.0475 168.925 19.0333 168.925 19.0333" stroke="#333333" stroke-linejoin="bevel"/>
<path d="M165.461 27.0161C165.587 26.9847 166.012 26.6861 166.107 26.6075C166.437 26.3718 166.674 26.0575 166.925 25.759L166.548 26.2461C167.382 25.1775 167.776 23.9361 167.618 22.8518C167.461 21.7675 166.784 20.8561 165.745 20.369C165.257 20.1333 164.658 19.9918 164.028 20.0861C163.399 20.1804 162.706 20.5261 162.344 21.0447" stroke="#333333" stroke-linejoin="bevel"/>
<path d="M97.8526 217.568L97.8212 245.586L84.9578 245.492L84.0918 217.458" stroke="#333333" stroke-linejoin="bevel"/>
<path d="M84.9581 245.492L85.0841 249.342C85.1313 251.055 84.1552 252.438 82.8798 252.422H81.6832L80.282 252.343H79.8411C77.2747 252.312 75.0862 254.873 74.976 258.33C74.9445 259.336 75.0862 260.31 75.3539 261.19C75.6215 262.07 76.2828 262.605 76.9756 262.62L80.8173 262.652L82.0139 262.715L96.4518 262.809C97.1445 262.809 97.7743 262.259 97.9947 261.395C98.1679 260.688 98.2466 259.933 98.2152 259.148L97.7901 245.398L84.9739 245.492H84.9581Z" fill="#CF945E" stroke="#333333" stroke-linejoin="bevel"/>
<path d="M75.0703 259.273L80.9273 259.305L82.0137 259.383L98.0575 259.509" stroke="#333333" stroke-linejoin="bevel"/>
<path d="M99.0813 158.026C99.0813 158.026 98.1367 145.91 87.7767 145.769C85.289 145.738 81.3843 142.06 79.9673 143.098C75.4486 146.382 77.5584 157.712 77.5584 157.712L84.486 245.335L98.1209 245.539L99.0971 158.042L99.0813 158.026Z" fill="#333333" stroke="#333333" stroke-linejoin="bevel"/>
<path d="M116.353 245.618L116.479 249.452C116.542 251.149 117.613 252.516 118.888 252.516H120.085L128.965 252.438H129.405C131.972 252.422 134.334 254.952 134.648 258.378C134.743 259.383 134.664 260.342 134.46 261.222C134.255 262.102 133.625 262.636 132.932 262.636L129.091 262.668L120.415 262.715L105.993 262.809C105.3 262.809 104.639 262.275 104.371 261.395C104.151 260.703 104.025 259.949 104.009 259.163L103.553 245.523L116.385 245.618H116.353Z" fill="#CF945E" stroke="#333333" stroke-linejoin="bevel"/>
<path d="M134.617 259.289L128.76 259.336L120.195 259.399L104.151 259.525" stroke="#333333" stroke-linejoin="bevel"/>
<path d="M116.196 151.143L118.18 197.532L116.841 245.445L103.222 245.649L101.569 201.115L96.6094 158.969C96.6094 158.969 96.7826 146.948 107.127 146.806C109.614 146.775 113.283 143.129 114.779 144.15C115.755 144.826 116.479 145.832 116.999 147.026" fill="#333333"/>
<path d="M116.196 151.143L118.18 197.532L116.841 245.445L103.222 245.649L101.569 201.115L96.6094 158.969C96.6094 158.969 96.7826 146.948 107.127 146.806C109.614 146.775 113.283 143.129 114.779 144.15C115.755 144.826 116.479 145.832 116.999 147.026" stroke="#333333" stroke-linejoin="bevel"/>
<path d="M81.668 252.422C81.668 252.422 89.6033 251.605 92.3271 255.329" stroke="#333333" stroke-linejoin="bevel"/>
<path d="M87.5408 50.1161C91.8538 50.1161 95.3502 46.7531 95.3502 42.6047C95.3502 38.4562 91.8538 35.0933 87.5408 35.0933C83.2278 35.0933 79.7314 38.4562 79.7314 42.6047C79.7314 46.7531 83.2278 50.1161 87.5408 50.1161Z" fill="#333333" stroke="#333333" stroke-linejoin="bevel"/>
<path d="M115.881 54.0918C120.194 54.0918 123.69 50.7288 123.69 46.5804C123.69 42.4319 120.194 39.069 115.881 39.069C111.568 39.069 108.071 42.4319 108.071 46.5804C108.071 50.7288 111.568 54.0918 115.881 54.0918Z" fill="#333333" stroke="#333333" stroke-linejoin="bevel"/>
<path d="M120.305 54.4533C120.305 58.6018 116.81 61.9018 112.496 61.9647C105.962 62.0747 104.687 58.6018 104.687 54.4533C104.687 50.3047 108.182 46.9418 112.496 46.9418C116.81 46.9418 120.305 50.3047 120.305 54.4533Z" fill="#333333" stroke="#333333" stroke-linejoin="bevel"/>
<path d="M87.9812 59.9061C92.2942 59.9061 95.7906 56.5431 95.7906 52.3947C95.7906 48.2462 92.2942 44.8833 87.9812 44.8833C83.6682 44.8833 80.1719 48.2462 80.1719 52.3947C80.1719 56.5431 83.6682 59.9061 87.9812 59.9061Z" fill="#333333" stroke="#333333" stroke-linejoin="bevel"/>
<path d="M143.828 56.449L135.373 78.6218L145.544 78.4333L143.828 56.449Z" fill="#0076D6" stroke="#333333" stroke-linejoin="bevel"/>
<path d="M180.308 38.6133L156.25 45.8575L157.179 68.8475L166.232 73.8918L175.553 62.5933L180.308 38.6133Z" fill="#0076D6" stroke="#333333" stroke-linejoin="bevel"/>
<path d="M172.608 212.02L170.168 243.48L153.195 243.37L154.455 211.91" stroke="#333333" stroke-linejoin="bevel"/>
<path d="M153.196 243.37L153.022 247.692C152.944 249.609 151.527 251.165 149.842 251.149H148.252L136.522 251.055H135.939C132.539 251.023 129.437 253.899 129.012 257.78C128.886 258.912 128.98 260.012 129.264 261.002C129.547 261.992 130.366 262.605 131.279 262.605L136.349 262.636L147.811 262.699L166.846 262.809C167.759 262.809 168.641 262.196 169.003 261.222C169.287 260.436 169.46 259.588 169.491 258.708L170.105 243.276L153.164 243.386L153.196 243.37Z" fill="#CF945E" stroke="#333333" stroke-linejoin="bevel"/>
<path d="M129.091 258.833L136.821 258.88L148.11 258.959L169.287 259.1" stroke="#333333" stroke-linejoin="bevel"/>
<path d="M179.316 142.61C179.316 142.61 179.096 129.018 165.429 128.845C162.154 128.798 157.305 124.68 155.337 125.843C149.086 129.536 150.913 142.249 150.913 142.249L152.566 243.182L170.546 243.418L179.316 142.61Z" fill="#71CBF4" stroke="#333333" stroke-linejoin="bevel"/>
<path d="M200.65 212.303L200.587 243.59L183.614 243.48L182.48 212.178" stroke="#333333" stroke-linejoin="bevel"/>
<path d="M183.614 243.48L183.772 247.786C183.835 249.703 182.528 251.243 180.859 251.228H179.269L167.539 251.133H166.956C163.556 251.102 160.674 253.962 160.533 257.812C160.485 258.943 160.674 260.028 161.036 261.002C161.398 261.976 162.264 262.589 163.178 262.589L168.263 262.62L179.725 262.683L198.776 262.778C199.69 262.778 200.524 262.165 200.807 261.19C201.028 260.405 201.138 259.572 201.107 258.676L200.556 243.339L183.63 243.449L183.614 243.48Z" fill="#CF945E" stroke="#333333" stroke-linejoin="bevel"/>
<path d="M160.675 258.849L168.405 258.912L179.71 258.975L200.902 259.116" stroke="#333333" stroke-linejoin="bevel"/>
<path d="M174.231 167.078L182.969 243.292L200.965 243.512L200.493 143.365C200.493 143.365 199.249 129.85 185.567 129.678C182.292 129.63 177.128 125.545 175.254 126.692C173.9 127.525 172.987 128.829 172.404 130.338" fill="#71CBF4"/>
<path d="M174.231 167.078L182.969 243.292L200.965 243.512L200.493 143.365C200.493 143.365 199.249 129.85 185.567 129.678C182.292 129.63 177.128 125.545 175.254 126.692C173.9 127.525 172.987 128.829 172.404 130.338" stroke="#333333" stroke-linejoin="bevel"/>
<path d="M110.764 59.8118L88.7373 59.7018L90.5479 84.3418L93.319 84.8761L102.482 83.4933L110.764 59.8118Z" fill="#74C9E3" stroke="#333333" stroke-linejoin="bevel"/>
<path d="M96.3889 83.6818L88.737 59.7018C83.1948 59.7018 77.1961 63.9918 77.1174 69.3347L75.9365 150.358L115.692 149.085L119.99 69.9947C120.289 64.4004 115.676 59.7175 109.866 59.7175H108.481L97.7272 83.9804" fill="#FFD500"/>
<path d="M96.3889 83.6818L88.737 59.7018C83.1948 59.7018 77.1961 63.9918 77.1174 69.3347L75.9365 150.358L115.692 149.085L119.99 69.9947C120.289 64.4004 115.676 59.7175 109.866 59.7175H108.481L97.7272 83.9804" stroke="#333333" stroke-linejoin="bevel"/>
<path d="M161.399 75.9818L171.428 41.6147L180.324 38.6133C186.748 36.6647 193.313 41.159 193.802 47.8533L200.446 140.395L150.535 147.56L142.694 59.2933C144.993 51.2318 149.701 47.8847 155.951 45.9675L156.266 45.8733L163.635 69.1933" fill="#FFD500"/>
<path d="M161.399 75.9818L171.428 41.6147L180.324 38.6133C186.748 36.6647 193.313 41.159 193.802 47.8533L200.446 140.395L150.535 147.56L142.694 59.2933C144.993 51.2318 149.701 47.8847 155.951 45.9675L156.266 45.8733L163.635 69.1933" stroke="#333333" stroke-linejoin="bevel"/>
<path d="M190.763 40.939L217.481 73.5147C220.583 77.2861 220.646 82.6761 217.654 86.369L195.077 114.45L191.062 104.55L201.469 81.9533C201.878 81.0418 201.721 79.9575 201.091 79.1718C197.659 75.919 194.242 72.6661 190.81 69.4133C187.551 66.3175 183.693 63.8033 180.891 60.2518C177.631 56.1347 176.813 51.0904 177.112 46.0147C177.521 39.1004 185.756 36.0361 190.763 40.9233V40.939Z" fill="#0076D6" stroke="#333333" stroke-linejoin="bevel"/>
<path d="M119.644 66.6633L132.019 87.2333L118.321 88.1447L119.644 66.6633Z" fill="#74C9E3" stroke="#333333" stroke-linejoin="bevel"/>
<path d="M93.6494 56.1347L92.1064 60.739C92.1064 60.739 95.6962 62.059 98.7979 62.1533C101.9 62.2475 105.426 60.6761 105.426 60.6761L104.324 56.9518" fill="white"/>
<path d="M93.6494 56.1347L92.1064 60.739C92.1064 60.739 95.6962 62.059 98.7979 62.1533C101.9 62.2475 105.426 60.6761 105.426 60.6761L104.324 56.9518" stroke="#333333" stroke-linejoin="bevel"/>
<path d="M90.9412 37.5447C90.9412 37.5447 87.7136 49.4404 92.5 55.0661C95.3183 58.3818 99.6008 59.9847 103.773 57.7847C110.433 54.2804 111.346 47.6647 112.212 40.1847" fill="white"/>
<path d="M90.9412 37.5447C90.9412 37.5447 87.7136 49.4404 92.5 55.0661C95.3183 58.3818 99.6008 59.9847 103.773 57.7847C110.433 54.2804 111.346 47.6647 112.212 40.1847L90.9412 37.5447Z" stroke="#333333" stroke-linejoin="bevel"/>
<path d="M87.3828 34.8575C87.3828 34.8575 96.8611 42.2275 112.936 39.7447L116.07 39.1004L115.188 36.6961C115.188 36.6961 120.541 20.7775 101.742 20.6204C89.2564 20.5104 88.7211 33.0661 88.7211 33.0661L87.3986 34.8575H87.3828Z" fill="white" stroke="#333333" stroke-linejoin="bevel"/>
<path d="M175.994 35.0461L155.51 41.819L154.676 46.1561L177.128 39.5718L175.994 35.0461Z" fill="#0076D6" stroke="#333333" stroke-linejoin="bevel"/>
<path d="M161.619 43.7361L160.076 40.3261" stroke="#333333" stroke-linejoin="bevel"/>
<path d="M101.522 19.929L98.8769 37.5604L97.4756 38.9747C97.4756 38.9747 101.365 40.1847 106.151 40.1061L104.907 38.1261L107.631 20.5733L101.538 19.929H101.522Z" fill="white" stroke="#333333" stroke-linejoin="bevel"/>
<path d="M104.749 48.4347C105.419 48.4347 105.962 47.9422 105.962 47.3347C105.962 46.7272 105.419 46.2347 104.749 46.2347C104.08 46.2347 103.537 46.7272 103.537 47.3347C103.537 47.9422 104.08 48.4347 104.749 48.4347Z" fill="#333333"/>
<path d="M96.1371 47.5704C96.8067 47.5704 97.3495 47.0779 97.3495 46.4704C97.3495 45.8629 96.8067 45.3704 96.1371 45.3704C95.4676 45.3704 94.9248 45.8629 94.9248 46.4704C94.9248 47.0779 95.4676 47.5704 96.1371 47.5704Z" fill="#333333"/>
<path d="M102.341 44.789C102.341 44.789 105.49 43.6575 108.292 45.6847L102.341 44.789Z" fill="white"/>
<path d="M102.341 44.789C102.341 44.789 105.49 43.6575 108.292 45.6847" stroke="#333333" stroke-linejoin="bevel"/>
<path d="M93.4443 43.5161C93.4443 43.5161 96.4358 41.8975 99.1124 44.5061L93.4443 43.5161Z" fill="white"/>
<path d="M93.4443 43.5161C93.4443 43.5161 96.4358 41.8975 99.1124 44.5061" stroke="#333333" stroke-linejoin="bevel"/>
<path d="M97.9473 50.4618C97.9473 50.4618 99.7579 51.4675 99.8681 51.4675C99.9783 51.4675 102.135 51.1533 102.135 51.1533" fill="white"/>
<path d="M97.9473 50.4618C97.9473 50.4618 99.7579 51.4675 99.8681 51.4675C99.9783 51.4675 102.135 51.1533 102.135 51.1533" stroke="#333333" stroke-linejoin="bevel"/>
<path d="M96.3105 53.7304C96.3105 53.7304 99.0029 56.1661 103.018 54.3747L96.3105 53.7304Z" fill="white"/>
<path d="M96.3105 53.7304C96.3105 53.7304 99.0029 56.1661 103.018 54.3747" stroke="#333333" stroke-linejoin="bevel"/>
<path d="M109.976 40.5461C109.976 40.5461 109.268 46.3447 112.023 50.6818L116.132 45.7633L116.384 42.479L115.676 39.9333L114.967 39.9018L109.961 40.5461H109.976Z" fill="#333333" stroke="#333333" stroke-miterlimit="10"/>
<path d="M92.8938 38.0318C92.8938 38.0318 92.1695 47.3661 86.5801 48.969L84.6436 41.709L86.0448 38.0318L88.1074 35.6118L88.8789 35.9104L92.8938 38.0318Z" fill="#333333" stroke="#333333" stroke-miterlimit="10"/>
<path d="M148.883 29.8047C149.079 29.285 148.777 28.6899 148.207 28.4754C147.638 28.261 147.017 28.5084 146.821 29.0281C146.624 29.5478 146.927 30.143 147.496 30.3574C148.066 30.5718 148.686 30.3244 148.883 29.8047Z" fill="#333333"/>
<path d="M156.813 28.3853C157.009 27.8656 156.707 27.2705 156.137 27.056C155.568 26.8416 154.947 27.089 154.75 27.6087C154.554 28.1284 154.856 28.7235 155.426 28.938C155.995 29.1524 156.616 28.905 156.813 28.3853Z" fill="#333333"/>
<path d="M165.3 26.2186L165.114 26.2775C164.378 26.4764 163.836 28.0218 163.899 28.6975C163.931 29.0433 164.104 29.4204 163.899 29.7033C163.805 29.829 163.663 29.9075 163.537 30.0018C162.813 30.5675 162.91 31.4633 162.17 32.0133C161.556 32.469 160.593 32.6261 160.152 33.2233C160.042 33.3804 159.995 33.5533 159.869 33.6947C159.585 34.0404 159.034 34.0404 158.562 34.0561C157.586 34.1033 156.706 33.9618 155.872 34.3704C155.085 34.7633 152.106 36.4604 151.256 36.7433C149.257 37.419 149.194 35.7218 147.21 34.8104L145.101 34.0561C144.944 35.8633 145.966 38.3775 147.147 39.8704C147.32 40.0904 147.509 40.3261 147.761 40.4675C147.966 40.5933 148.218 40.6718 148.406 40.829C148.8 41.159 148.8 41.7247 149.083 42.1333C149.556 42.8247 150.642 42.8561 151.256 43.4533C151.524 43.7047 151.729 44.0818 152.091 44.1133C152.264 44.1133 152.406 44.0661 152.579 44.0347C153.224 43.9247 153.838 44.3647 154.484 44.5375C154.972 44.6633 155.46 44.6475 155.964 44.6161C156.688 44.5847 157.428 44.5375 158.042 44.2233C158.546 43.9718 158.955 43.5318 159.506 43.3747C159.837 43.2804 160.199 43.2961 160.514 43.1704C160.955 43.0133 161.27 42.6518 161.632 42.369C162.655 41.5675 164.246 41.2061 164.608 39.9804C164.749 39.4775 164.655 38.9433 164.749 38.4247C164.907 37.6704 165.489 37.089 165.773 36.3818C165.993 35.8633 166.862 34.2604 166.893 33.6947C166.988 31.2904 165.95 28.865 165.368 26.4764L165.3 26.2186ZM159.034 37.3875C158.955 37.9218 158.593 38.3618 158.184 38.7233C157.003 39.729 155.35 40.1375 153.712 40.1847C153.476 40.1847 153.209 40.1847 153.02 40.0433C152.862 39.9333 152.783 39.7761 152.705 39.6033C152.563 39.289 152.437 38.9433 152.453 38.5975C152.484 38.2518 152.295 37.7961 152.658 37.7018L154.279 36.7433C154.956 36.6018 156.342 36.1461 157.019 36.0047C157.444 35.9104 157.901 35.8318 158.31 36.0047C158.845 36.2247 159.129 36.8375 159.05 37.3718L159.034 37.3875Z" fill="#333333"/>
<path d="M158.926 36.429C158.722 37.5447 157.32 38.1575 156.344 38.4404C155.762 38.6133 155.148 38.7075 154.534 38.7547C154.376 38.7547 154.203 38.7861 154.046 38.7704C153.967 38.7704 153.857 38.739 153.857 38.7547C153.683 38.5975 153.573 38.1575 153.573 37.9375C153.573 37.7961 153.62 37.3718 153.557 37.2933C153.605 37.3561 153.054 37.6861 153.479 37.4661C153.51 37.4504 153.542 37.419 153.589 37.4033L154.455 36.8847C154.66 36.759 154.88 36.5861 155.1 36.5075C154.88 36.5861 155.211 36.5075 155.258 36.5075C155.368 36.4761 155.463 36.4604 155.573 36.429C155.856 36.3504 156.14 36.2718 156.407 36.1933C156.943 36.0361 157.494 35.8475 158.06 35.7847C158.627 35.7218 158.974 36.0361 158.911 36.6018C158.879 36.9475 159.226 37.2304 159.54 37.2304C159.918 37.2304 160.139 36.9475 160.17 36.6018C160.249 35.8318 159.824 35.0147 159.115 34.6847C158.407 34.3547 157.588 34.559 156.848 34.7475C156.218 34.9204 155.589 35.109 154.943 35.2818C154.565 35.3761 154.282 35.5175 153.951 35.7218C153.62 35.9261 153.227 36.1147 152.896 36.3504C152.707 36.4761 153.18 36.1933 152.77 36.4133C152.629 36.4918 152.503 36.6175 152.424 36.7747C152.251 37.1047 152.329 37.4504 152.329 37.7961C152.329 38.5818 152.676 39.7133 153.526 39.9647C153.888 40.0747 154.282 40.0433 154.644 40.0118C155.1 39.9804 155.557 39.9175 155.998 39.8233C156.88 39.6504 157.746 39.3361 158.501 38.849C159.257 38.3618 159.981 37.6861 160.139 36.7747C160.202 36.4447 160.044 36.099 159.698 36.0047C159.399 35.9261 158.989 36.1147 158.926 36.4447V36.429Z" fill="#333333"/>
<path d="M157.84 36.0204C157.84 36.0204 156.518 37.8118 154.298 37.5133" stroke="#333333" stroke-miterlimit="10"/>
<path d="M148.551 32.2647L147.26 32.4533C145.985 32.6418 144.694 31.8247 144.363 30.6461L143.513 27.519L149.417 26.6704L149.716 27.7547L150.267 29.7975C150.582 30.9761 149.811 32.0761 148.535 32.2647H148.551Z" stroke="#333333" stroke-miterlimit="10"/>
<path d="M157.29 30.6147L156.014 30.9133C154.755 31.2118 153.48 30.5047 153.165 29.3261L152.314 26.2304L158.014 24.3604L158.439 25.9475L158.99 27.9747C159.305 29.1375 158.549 30.3318 157.29 30.6304V30.6147Z" stroke="#333333" stroke-miterlimit="10"/>
<path d="M152.188 27.0004L149.983 27.4561" stroke="#333333" stroke-miterlimit="10"/>
<path d="M149.842 27.5504C149.842 27.5504 150.314 34.3547 150.724 35.8161L155.116 33.3018" fill="#CF945E"/>
<path d="M149.842 27.5504C149.842 27.5504 150.314 34.3547 150.724 35.8161L155.116 33.3018" stroke="#333333" stroke-miterlimit="10"/>
<path d="M171.837 16.299C171.837 16.299 162.753 27.3461 143.969 27.959L140.269 27.8804L140.726 24.769C140.726 24.769 131.043 6.72897 152.33 2.31325C166.468 -0.625317 169.932 14.429 169.932 14.429L171.853 16.299H171.837Z" fill="white" stroke="#333333" stroke-linejoin="bevel"/>
<path d="M153.889 4.0104C152.22 6.2104 149.968 11.6947 154.314 23.339L153.653 26.639C153.653 26.639 147.89 28.0061 145.025 27.739L146.142 24.5961C146.142 24.5961 142.868 15.4347 144.536 7.46754C145.088 4.84325 147.071 2.76897 149.606 2.10897L151.905 1.51183C153.794 1.02468 155.794 1.13468 157.62 1.85754L156.14 2.39183C155.259 2.70611 154.456 3.25611 153.889 4.0104Z" fill="white" stroke="#333333" stroke-linejoin="bevel"/>
<path d="M162.722 23.2761C162.722 23.2761 165.288 30.049 165.272 33.8675C165.257 37.6861 169.098 26.7961 169.303 19.4104" stroke="#333333" stroke-linejoin="bevel"/>
<path d="M54.083 80.5861C54.083 80.5861 59.94 85.8975 105.19 77.9304C150.44 69.9633 185.299 75.5418 185.299 75.5418C185.299 75.5418 187.425 149.525 187.425 149.65C187.519 152.809 174.939 155.685 173.018 156.015C161.289 158.073 150.771 155.622 139.262 154.035C127.579 152.432 115.629 153.39 104.293 156.643C93.9328 159.613 81.8724 167.848 70.8511 163.73C70.8511 163.73 55.9409 120.438 54.083 80.5861Z" fill="white" stroke="#333333" stroke-linejoin="bevel"/>
<path d="M56.0355 105.713C56.0355 105.713 56.1143 105.745 56.1458 105.76C56.2875 105.792 56.4449 105.76 56.5866 105.713C57.4998 105.446 66.1436 102.618 65.4823 104.802C65.3564 105.195 64.9943 105.462 64.6479 105.698C62.8215 106.923 60.9006 108.008 58.9011 108.903C61.1368 108.448 63.3726 108.008 65.6083 107.552C66.0334 107.473 66.4743 107.379 66.8994 107.458C67.3245 107.536 67.7496 107.803 67.8598 108.212C67.9858 108.62 67.7653 109.076 67.4347 109.375C67.1041 109.673 66.6947 109.815 66.2853 109.956C64.207 110.695 62.1287 111.402 60.0347 112.078C61.9241 111.842 63.8134 111.732 65.7028 111.7C66.3483 111.7 67.1355 111.795 67.356 112.408C67.5292 112.863 67.23 113.382 66.8206 113.633C66.4113 113.885 65.9232 113.948 65.4351 113.995C63.6245 114.183 61.8296 114.388 60.0189 114.576C61.0581 115.048 62.0972 115.519 63.1364 116.006C63.3726 116.116 63.6245 116.242 63.7347 116.462C63.9236 116.839 63.593 117.31 63.1994 117.436C62.8058 117.562 62.3649 117.468 61.9555 117.358C59.6096 116.745 57.2794 116.148 54.9334 115.535C54.5713 115.44 54.1934 115.33 53.9415 115.048C53.7683 114.859 53.7053 114.592 53.6266 114.356C52.9811 112.015 52.6189 109.579 52.556 107.143C52.5245 106.216 52.556 105.195 53.1858 104.488C53.8155 103.78 55.1696 103.733 55.516 104.582C55.6734 104.959 55.6734 105.493 56.0041 105.682L56.0355 105.713Z" fill="white" stroke="#333333" stroke-linecap="round" stroke-linejoin="bevel"/>
<path d="M186.149 105.792C186.149 105.792 186.102 105.886 186.055 105.918C185.929 106.059 185.74 106.122 185.551 106.185C184.401 106.53 173.27 109.548 175.553 111.433C175.962 111.779 176.545 111.81 177.08 111.826C179.883 111.873 182.685 111.685 185.44 111.26C182.764 112.345 180.087 113.429 177.411 114.513C176.907 114.718 176.387 114.938 175.994 115.315C175.6 115.692 175.364 116.289 175.537 116.808C175.71 117.342 176.261 117.672 176.812 117.766C177.363 117.86 177.915 117.719 178.45 117.593C181.158 116.949 183.866 116.242 186.543 115.503C184.401 116.572 182.323 117.766 180.323 119.086C179.646 119.526 178.891 120.202 179.095 121.003C179.253 121.6 179.93 121.962 180.544 121.946C181.158 121.93 181.725 121.648 182.26 121.365C184.291 120.312 186.338 119.259 188.369 118.206C187.629 119.448 186.873 120.689 186.133 121.93C185.96 122.213 185.787 122.512 185.834 122.842C185.913 123.376 186.59 123.659 187.109 123.518C187.629 123.376 188.007 122.952 188.369 122.559C190.384 120.265 192.4 117.97 194.415 115.66C194.73 115.299 195.045 114.922 195.092 114.45C195.123 114.12 195.013 113.79 194.903 113.476C193.864 110.49 192.494 107.615 190.809 104.943C190.164 103.922 189.377 102.853 188.227 102.508C187.078 102.178 185.598 103.073 185.85 104.252C185.96 104.77 186.354 105.352 186.149 105.776V105.792Z" fill="#CF945E" stroke="#333333" stroke-linejoin="bevel"/>
<line x1="0.535156" y1="263.253" x2="219.854" y2="263.253" stroke="#333333"/>
</svg>
