<?xml version="1.0" encoding="UTF-8"?>
<svg id="Layer_1" data-name="Layer 1" xmlns="http://www.w3.org/2000/svg" viewBox="0 0 354.24 251.56">
  <defs>
    <style>
      .cls-1 {
        fill: #c50b30;
      }

      .cls-2 {
        fill: #005dba;
      }

      .cls-3 {
        fill: #1d1d1b;
      }

      .cls-4 {
        fill: #00633d;
      }

      .cls-5 {
        fill: #ffb600;
      }
    </style>
  </defs>
  <path class="cls-1" d="M216.38,16.66c-.56-.78-1.47-1.25-2.43-1.25-.53,0-1.04.14-1.45.38-19.56,10.78-35.81,27.3-46.98,47.75-10.34,18.93-15.64,40.2-14.92,59.87.04,1.13.7,2.13,1.75,2.62.4.18.82.27,1.24.27.66,0,1.33-.23,1.88-.66,7.6-6.09,17.47-9.58,27.09-9.58,5.65,0,11.05,1.22,15.58,3.51.42.22.88.33,1.38.33.71,0,1.41-.25,1.97-.73.93-.81,1.27-2.08.88-3.21-13.09-39.41-3.35-79.43,13.64-95.37,1.09-1.03,1.25-2.73.38-3.94Z"/>
  <path class="cls-2" d="M256.94,94.14c-.02-.1-.05-.19-.1-.29l-35.14-77.79c-.4-.9-1.22-1.55-2.15-1.72-.25-.06-.47-.06-.59-.06-.8,0-1.56.31-2.12.88-10.91,10.97-17.83,27.27-20.01,47.11-1.92,17.48-.02,36.49,5.34,53.53.15.46.4.87.71,1.19.09.09.18.17.33.29.52.4,1.15.61,1.82.61.94,0,1.82-.43,2.4-1.2,10.04-13.31,27.12-19.27,39.6-19.27,2.28,0,4.47.2,6.48.58.2.04.38.06.58.06.93,0,1.79-.42,2.34-1.14.64-.8.82-1.85.5-2.8Z"/>
  <path class="cls-5" d="M308.9,66.12s-.05-.09-.07-.13c-9.6-15.04-22.93-28.69-37.54-38.43-14.82-9.88-30.06-15.1-44.09-15.1-1.59,0-3.22.07-4.85.2-.99.08-1.88.65-2.36,1.51-.48.86-.51,1.89-.09,2.77l37.01,76.78c.48,1.01,1.47,1.67,2.64,1.71h.07c1.08,0,2.08-.59,2.62-1.54,6.36-11.33,23.19-23.36,41.85-23.36.69,0,1.37.02,2.22.06,1.09,0,2.05-.57,2.58-1.51.53-.93.53-2.05.01-2.97Z"/>
  <path class="cls-4" d="M347.85,31.37c-.06-.06-.13-.11-.2-.15-20.69-18.57-49.81-29.21-79.94-29.21-14.81,0-28.96,2.55-42.05,7.58-1.41.54-2.2,2.06-1.83,3.53.34,1.34,1.53,2.27,2.9,2.27.14,0,.3,0,.36-.02,1.46-.17,2.98-.25,4.52-.25,22.63,0,56.45,17.58,77.28,51.17.54.88,1.52,1.43,2.56,1.43.12,0,.32,0,.5-.04,1.21-.2,2.16-1.1,2.42-2.28,3.2-13.79,16.38-25.65,32.05-28.86,1.12-.22,2.01-1.05,2.31-2.16.3-1.1-.04-2.25-.88-3.02Z"/>
  <path class="cls-3" d="M73.9,216.17c-2.51,0-3.51,2.01-3.89,4.39-2.64,16.56-6.65,20.08-22.84,20.08-12.17,0-17.69-2.13-17.69-13.3v-53.83c0-5.9,1.51-7.53,6.78-8.53l6.27-1.26c1.88-.38,3.39-1.13,3.39-3.26,0-2.01-1.51-3.01-3.26-3.01H4.64c-1.88,0-3.64,1-3.64,3.14s1.76,3.01,3.64,3.39l3.76.88c4.52,1,5.52,2.76,5.52,8.66v60.11c0,4.64-1.13,6.65-5.52,7.9h.01l-5.4,1.5c-1.76.5-3.01,1.63-3.01,3.39,0,2.38,1.63,3.26,3.51,3.26h67.38c4.39,0,6.4-2.01,6.4-7.03v-21.96c0-2.64-1-4.52-3.39-4.52ZM182.57,243.4c-6.27-2.01-14.05-4.52-26.6-12.55-1.38-.88-1.38-1.88-.88-3.01,1.26-2.76,2.38-5.9,3.64-11.42,1.38-6.02,1.63-8.53,10.16-9.79,4.02-.63,3.76-5.52-.13-5.52l-28.99-.12c-3.89,0-4.14,5.27-.5,5.77l6.52,1c3.51.5,4.77,2.01,4.77,5.77,0,3.39-.88,7.65-2.01,10.04-.75,1.51-1.63,1.51-3.01.38-10.04-7.53-16.81-13.93-23.21-22.71-1-1.38-.63-2.26.75-2.76,9.79-3.64,18.95-10.92,18.95-22.34,0-9.66-6.53-19.95-21.83-19.95s-23.72,9.29-23.72,21.71c0,5.4,1.76,10.79,5.9,16.69,1.26,1.76,1,3.14-.63,4.14-9.29,5.65-16.19,13.55-16.19,25.98h.02c0,15.94,11.42,26.85,33,26.85,13.43,0,22.46-4.39,30.37-12.3,1-1,1.88-.88,4.02.25,5.77,3.01,18.07,8.28,27.35,9.79,4.02.63,6.02-.13,6.02-2.51,0-2.13-1.51-2.64-3.77-3.39h0ZM119.96,163.98c7.03,0,9.79,6.15,9.79,12.05,0,6.78-3.64,12.3-10.67,15.56-2.01.88-3.26,1.13-4.89-.88-2.89-3.51-4.77-8.28-4.77-13.43,0-7.03,3.51-13.3,10.54-13.3ZM140.78,235.37c-4.02,4.02-12.05,7.15-19.83,7.15-10.92,0-21.33-6.02-21.33-20.45h.01c0-6.65,2.13-11.67,6.52-15.81,1.38-1.26,2.76-2.01,4.64.25,8.28,9.79,16.82,17.82,30.12,25.97,1.25.75,1.25,1.51-.13,2.89h0ZM352.74,31.56c-29.99-27.98-79.3-41.66-127.49-22.96-2.64,1-4.89.12-5.9-1.38l-4.14-5.9c-.88-1.38-2.76-.38-2.38,1.13l1.88,7.03c.5,1.63-.25,3.89-2.76,5.27-45.3,24.97-66.51,71.4-64.25,112.43v.03c.11,3.14,2.63,5.15,5.51,2.89,12.42-9.91,29.49-15.94,46.8-6.78,3.51,1.88,5.4.75,7.15-2.01,11.04-16.06,31.37-23.97,49.44-20.08l41.66,89.34c5.02,10.67,13.43,13.43,21.71,9.66,8.16-3.89,10.79-12.17,7.03-20.2l-3.01-6.53c-2.13-4.52-8.16-1.76-6.02,2.76l2.89,6.27c2.26,4.89.88,9.54-3.76,11.67s-9.29.88-12.67-6.4l-41.79-89.47c8.78-16.31,27.86-26.73,47.31-24.85,3.14.25,5.14-.38,6.02-4.27,4.14-19.2,19.7-28.23,35.26-31.5,3.64-.75,3.77-3.89,1.51-6.15ZM153.59,123.32c-1.38-37.89,20.08-82.69,60.36-104.9-22.21,20.83-25.1,66.38-14.43,98.5-14.43-7.28-33.25-3.77-45.93,6.4h0ZM205.04,114.91c-10.04-31.87-8.53-75.04,13.93-97.62l35.13,77.8c-14.93-2.89-37.13,4.02-49.06,19.82ZM259.62,92.45L222.6,15.66c31.75-2.76,65.75,23.84,83.7,51.95-19.7-1-39.27,11.67-46.68,24.84ZM311.44,64.72c-17.82-28.73-54.46-55.84-84.7-52.33,42.79-16.44,90.97-4.14,119.08,21.21-15.94,3.26-30.74,15.43-34.38,31.12ZM267.9,201.12h-35.39c-3.64,0-3.77,5.65-.13,6.15l6.78,1c5.4.75,7.03,2.51,7.03,7.4v12.05c0,9.91-5.9,14.81-18.32,14.81-15.94,0-32.12-9.03-32.12-38.77s14.93-39.53,33-39.53c13.8,0,21.21,6.65,24.97,22.21.75,3.14,5.9,3.39,5.9-.25l.13-15.81c0-5.77-2.26-7.65-6.65-9.66-7.53-3.39-16.44-4.52-24.72-4.52-30.74,0-49.44,20.83-49.44,48.81s18.95,46.55,48.18,46.55c10.79,0,21.46-3.26,27.23-6.4,5.52-3.01,5.65-7.53,5.65-12.17v-16.69c0-6.15,2.13-7.78,8.28-8.91,4.01-.75,3.76-6.27-.38-6.27h0Z"/>
</svg>