<svg width="81" height="80" viewBox="0 0 81 80" fill="none" xmlns="http://www.w3.org/2000/svg">
<path d="M0.666992 2C0.666992 0.895429 1.56242 0 2.66699 0H78.667C79.7716 0 80.667 0.895431 80.667 2V78C80.667 79.1046 79.7716 80 78.667 80H2.66699C1.56242 80 0.666992 79.1046 0.666992 78V2Z" fill="white"/>
<path d="M15.167 16.5C15.167 15.3954 16.0624 14.5 17.167 14.5H47.167C48.2716 14.5 49.167 15.3954 49.167 16.5V46.5C49.167 47.6046 48.2716 48.5 47.167 48.5H17.167C16.0624 48.5 15.167 47.6046 15.167 46.5V16.5Z" fill="#74C9E3"/>
<path d="M32.167 33.5C32.167 32.3954 33.0624 31.5 34.167 31.5H64.167C65.2716 31.5 66.167 32.3954 66.167 33.5V63.5C66.167 64.6046 65.2716 65.5 64.167 65.5H34.167C33.0624 65.5 32.167 64.6046 32.167 63.5V33.5Z" fill="white"/>
<path fill-rule="evenodd" clip-rule="evenodd" d="M64.167 33.5H34.167L34.167 63.5H64.167V33.5ZM34.167 31.5C33.0624 31.5 32.167 32.3954 32.167 33.5V63.5C32.167 64.6046 33.0624 65.5 34.167 65.5H64.167C65.2716 65.5 66.167 64.6046 66.167 63.5V33.5C66.167 32.3954 65.2716 31.5 64.167 31.5H34.167Z" fill="black"/>
<path fill-rule="evenodd" clip-rule="evenodd" d="M49.1525 55.023C49.1397 55.0866 49.1183 55.1496 49.0879 55.2104C47.9726 57.441 46.7886 58.625 45.4171 58.625C44.5067 58.625 44.0199 58.1833 43.3788 57.1859L43.2393 56.9681C42.7613 56.2245 42.4994 56 42.0421 56C41.2807 56 40.9873 56.2347 40.9113 56.843C40.8599 57.254 40.4851 57.5456 40.074 57.4942C39.663 57.4428 39.3715 57.068 39.4229 56.657C39.5968 55.2653 40.5535 54.5 42.0421 54.5C43.1629 54.5 43.771 55.0212 44.5011 56.1569L44.6405 56.3748C45.0216 56.9676 45.1951 57.125 45.4171 57.125C46.0456 57.125 46.8615 56.309 47.7463 54.5396C47.7495 54.5331 47.7528 54.5267 47.7562 54.5203L47.9656 51.0459L53.9949 40.6432C54.1403 40.3924 54.3877 40.0931 54.7611 39.8475C55.4212 39.4134 56.2232 39.3618 57.0386 39.8308C57.8541 40.2998 58.2103 41.0174 58.1629 41.8039C58.1361 42.2488 57.9995 42.612 57.8542 42.8627L51.8248 53.2655L49.1525 55.023ZM49.4273 51.4833L49.3278 53.1346L50.7137 52.2231L56.5678 42.1229C56.6081 42.0533 56.6696 41.8897 56.6802 41.7153C56.695 41.4697 56.6061 41.2906 56.2959 41.1123C55.9858 40.9339 55.7856 40.9467 55.5795 41.0823C55.4332 41.1786 55.3217 41.3135 55.2814 41.3831L49.4273 51.4833Z" fill="black"/>
<path fill-rule="evenodd" clip-rule="evenodd" d="M54.3512 41.7195L56.9241 43.1992L56.1813 44.4806L53.6085 43.001L54.3512 41.7195Z" fill="black"/>
</svg>
