<svg width="285" height="160" viewBox="0 0 285 160" fill="none" xmlns="http://www.w3.org/2000/svg">
<g clip-path="url(#clip0_208_5897)">
<rect width="285" height="160" rx="4" fill="#FAF7F5"/>
<g clip-path="url(#clip1_208_5897)">
<path fill-rule="evenodd" clip-rule="evenodd" d="M45.3022 75.7845C57.3386 68.2223 80.8272 71.4003 89.5947 78.5202C83.6142 81.7237 79.4542 85.9539 77.1144 91.211C71.186 84.7998 56.8851 75.1537 45.3022 75.7845Z" fill="#028844"/>
<path fill-rule="evenodd" clip-rule="evenodd" d="M44.5 76.25C55 74.75 71.75 84 77.25 91.5C67.75 94.75 64.25 96.75 59.25 104.25C56.75 99 48 83.5 44.5 76.25Z" fill="#FFD500"/>
<path fill-rule="evenodd" clip-rule="evenodd" d="M44.2421 76.5602C37.127 84.4263 35.4291 103.485 38.5713 112.239L39.0465 111.88C46.7248 106.11 50.3736 104.398 59.207 104.446L59.0238 104.132C55.9358 98.8043 48.2143 83.3769 44.2421 76.5602Z" fill="#0076D6"/>
<path fill-rule="evenodd" clip-rule="evenodd" d="M43.4996 76.5C30.4996 82.25 19.9996 103.5 20.9996 114.75C26.9996 111.583 32.8329 110.5 38.4996 111.5C36.4996 103 36.4996 85.75 43.4996 76.5Z" fill="#E22922"/>
<path fill-rule="evenodd" clip-rule="evenodd" d="M65 70C75.039 70 84.3103 73.2874 91.796 78.8443L91.6383 78.8971C85.7245 80.8658 80.9017 85.2225 78.3139 90.8232L78.2954 90.864C78.2109 91.0476 78.1289 91.2326 78.0493 91.4189C78.0424 91.4349 78.0355 91.4509 78.0287 91.467L78.0493 91.4189C78.0167 91.4952 77.9845 91.5717 77.9527 91.6485L78.0287 91.467C77.9889 91.5608 77.9497 91.655 77.9111 91.7494L77.9527 91.6485C77.8684 91.8521 77.787 92.0571 77.7085 92.2637C77.7011 92.2834 77.6936 92.303 77.6863 92.3226L77.7085 92.2637C77.6756 92.3505 77.6431 92.4376 77.6112 92.5249L77.6863 92.3226C77.6507 92.4171 77.6157 92.512 77.5813 92.6071C77.5569 92.6748 77.5327 92.7427 77.5089 92.8107L77.5813 92.6071C77.5418 92.7166 77.5031 92.8265 77.4652 92.9368L77.4652 92.9367L77.3829 93.181C70.1211 94.1045 63.9399 98.4895 60.5455 104.629L74.0367 130.002L74.0385 130.002L76.3859 134.416C77.1637 135.879 78.9802 136.435 80.4432 135.657C81.9061 134.879 82.4614 133.062 81.6836 131.599L80.5865 129.602L80.5642 129.558C80.3387 129.078 80.5271 128.501 81 128.25C81.4719 127.999 82.0542 128.164 82.3263 128.617L82.3524 128.663L83.4495 130.66L83.4893 130.737C84.7264 133.162 83.7949 136.14 81.3821 137.423C78.9704 138.705 75.9822 137.813 74.6629 135.434L74.62 135.355L72.9243 132.166C72.9136 132.149 72.9033 132.131 72.8935 132.112L58.6422 105.309C58.194 105.277 57.7422 105.257 57.2871 105.252L57 105.25C50.2073 105.25 44.1176 108.26 39.9924 113.019L39.868 113.164L39.6017 113.087C39.5731 113.079 39.5445 113.071 39.5159 113.063C39.4585 113.047 39.4009 113.032 39.3432 113.016L39.5159 113.063C39.4186 113.036 39.321 113.01 39.2232 112.984L39.3432 113.016C39.2413 112.989 39.1391 112.962 39.0367 112.936L39.2232 112.984C39.1415 112.963 39.0596 112.942 38.9775 112.921L39.0367 112.936C38.9372 112.911 38.8375 112.887 38.7375 112.863L38.9775 112.921C38.8824 112.898 38.7871 112.874 38.6916 112.852L38.7375 112.863C38.6305 112.837 38.5233 112.813 38.4157 112.789L38.6916 112.852C38.5847 112.827 38.4776 112.802 38.3703 112.779L38.4157 112.789C38.3246 112.768 38.2333 112.749 38.1419 112.729L38.3703 112.779C38.2652 112.755 38.1598 112.733 38.0542 112.711L38.1419 112.729C38.044 112.709 37.946 112.689 37.8477 112.67L38.0542 112.711C36.6606 112.425 35.22 112.267 33.7454 112.251L33.5 112.25C28.5179 112.25 23.914 113.869 20.1852 116.611L20.0324 116.724C20.0109 116.152 20 115.577 20 115C20 98.1642 29.2455 83.4879 42.9361 75.7712L40.9695 72.0719C40.7102 71.5843 40.8953 70.9788 41.3829 70.7195C41.8706 70.4602 42.4761 70.6453 42.7354 71.1329L44.7002 74.828C50.724 71.778 57.5264 70.0431 64.7299 70.0008L65 70ZM41.0405 79.2857L40.9895 79.3199C29.9347 86.764 22.8188 99.0033 22.0663 112.601L22.042 113.089L22.0565 113.081C25.4795 111.27 29.3135 110.284 33.294 110.251L33.5 110.25C34.7617 110.25 36.0112 110.346 37.2407 110.534C36.4293 107.155 36 103.628 36 100C36 92.5304 37.8199 85.4859 41.0405 79.2857ZM38 100C38 103.598 38.4416 107.135 39.305 110.554L39.3557 110.752L39.4585 110.646L39.4958 110.607L39.59 110.512C39.6229 110.479 39.6559 110.445 39.689 110.412C39.7788 110.323 39.8692 110.234 39.9603 110.145C40.1553 109.956 40.3533 109.771 40.554 109.589C40.7652 109.397 40.9794 109.21 41.1967 109.026C41.2296 108.998 41.2628 108.971 41.296 108.943C41.312 108.929 41.3281 108.916 41.3441 108.903C41.3564 108.892 41.3688 108.882 41.3813 108.872C41.4673 108.801 41.5537 108.73 41.6406 108.66C41.6666 108.639 41.6927 108.618 41.7188 108.597C41.7468 108.575 41.7748 108.552 41.8029 108.53C41.8906 108.461 41.9787 108.392 42.0673 108.324C42.0774 108.316 42.0876 108.308 42.0978 108.3C42.1291 108.276 42.1605 108.252 42.192 108.228C42.2157 108.21 42.2393 108.192 42.2629 108.175C42.2855 108.158 42.3082 108.141 42.331 108.124C42.4147 108.061 42.4987 107.999 42.5831 107.937C42.5954 107.928 42.6077 107.919 42.62 107.91C42.6565 107.884 42.693 107.858 42.7296 107.831C42.7574 107.811 42.7852 107.791 42.8131 107.772C42.8406 107.752 42.8681 107.733 42.8958 107.713C42.9103 107.703 42.9249 107.693 42.9395 107.682C42.9761 107.657 43.0127 107.631 43.0494 107.606C43.0753 107.588 43.1012 107.57 43.1271 107.552C43.1493 107.537 43.1714 107.522 43.1936 107.506C43.223 107.486 43.2524 107.466 43.2818 107.446C43.3123 107.426 43.3428 107.405 43.3734 107.385C43.3933 107.371 43.4132 107.358 43.4332 107.345C43.5775 107.249 43.7227 107.154 43.8688 107.061C43.8866 107.05 43.9043 107.039 43.9221 107.028C43.9466 107.012 43.9711 106.997 43.9956 106.981C44.0288 106.96 44.0621 106.94 44.0955 106.919C44.1875 106.862 44.2799 106.805 44.3726 106.75C44.3835 106.743 44.3945 106.736 44.4055 106.73C44.444 106.707 44.4825 106.684 44.5211 106.661C44.5474 106.645 44.5739 106.63 44.6003 106.614C44.6199 106.603 44.6394 106.591 44.6589 106.58C44.6943 106.559 44.7298 106.538 44.7653 106.518C44.7875 106.505 44.8095 106.493 44.8316 106.48C44.8656 106.46 44.8996 106.441 44.9338 106.422C44.9485 106.413 44.9632 106.405 44.978 106.397C45.0691 106.345 45.1606 106.295 45.2523 106.244C45.2868 106.225 45.3213 106.207 45.3559 106.188C45.3716 106.179 45.3874 106.171 45.4032 106.162L45.4569 106.134C45.4905 106.116 45.5241 106.098 45.5578 106.08C45.5695 106.074 45.5812 106.068 45.5928 106.062C45.6217 106.046 45.6507 106.031 45.6798 106.016C45.7145 105.998 45.7492 105.98 45.7839 105.962C45.8045 105.951 45.8252 105.941 45.8458 105.93C45.8794 105.913 45.9129 105.896 45.9466 105.879C45.9736 105.865 46.0006 105.852 46.0276 105.838C46.1148 105.794 46.2024 105.751 46.2902 105.709C46.4436 105.634 46.5979 105.561 46.7531 105.489C46.7754 105.479 46.7978 105.469 46.8202 105.459C46.9771 105.387 47.1346 105.317 47.2929 105.249C47.3081 105.242 47.3234 105.235 47.3387 105.229L47.3522 105.223C47.5942 105.119 47.8381 105.02 48.0836 104.924C48.1702 104.89 48.2572 104.857 48.3443 104.824C48.4315 104.791 48.5189 104.758 48.6066 104.726C48.7072 104.69 48.808 104.654 48.9091 104.618C48.9305 104.611 48.952 104.604 48.9735 104.596C48.998 104.588 49.0223 104.579 49.0466 104.571C49.2034 104.517 49.3609 104.465 49.5191 104.414C49.5635 104.4 49.6081 104.386 49.6528 104.372C49.6673 104.367 49.6818 104.363 49.6963 104.358C49.7336 104.347 49.7709 104.335 49.8083 104.324C49.9595 104.277 50.1113 104.232 50.2636 104.189C50.2996 104.179 50.3356 104.169 50.3717 104.158C50.3989 104.151 50.4263 104.143 50.4536 104.136C50.4762 104.129 50.4986 104.123 50.5211 104.117C50.5697 104.104 50.6184 104.091 50.6671 104.078C50.6767 104.075 50.6863 104.072 50.696 104.07C50.7408 104.058 50.7856 104.046 50.8305 104.035C50.8606 104.027 50.8907 104.019 50.9208 104.011C50.9547 104.003 50.9887 103.994 51.0228 103.986C51.0535 103.978 51.0842 103.97 51.1149 103.963C51.1443 103.955 51.1739 103.948 51.2035 103.941C51.2365 103.933 51.2694 103.925 51.3024 103.917C51.3418 103.908 51.3814 103.899 51.421 103.889C51.4364 103.886 51.4517 103.882 51.467 103.879C51.5066 103.869 51.5462 103.86 51.5858 103.852C51.6228 103.843 51.6598 103.835 51.6968 103.827C51.7258 103.82 51.7547 103.814 51.7837 103.808C51.8108 103.802 51.8381 103.796 51.8653 103.79C51.8978 103.783 51.9303 103.776 51.9628 103.77C52.0689 103.747 52.1751 103.726 52.2815 103.705C52.3005 103.701 52.3193 103.698 52.3382 103.694C52.3762 103.687 52.4145 103.679 52.4528 103.672C52.4956 103.664 52.5383 103.656 52.581 103.649C52.5923 103.646 52.6034 103.644 52.6146 103.642C52.6629 103.634 52.7113 103.625 52.7597 103.617C52.7811 103.613 52.8024 103.609 52.8237 103.606C52.8752 103.597 52.927 103.588 52.9787 103.579C52.9856 103.578 52.9922 103.577 52.9989 103.576C53.0519 103.567 53.105 103.559 53.1583 103.55C53.1797 103.547 53.2011 103.544 53.2226 103.54C53.251 103.536 53.2794 103.532 53.3078 103.527C53.3512 103.521 53.3947 103.514 53.4381 103.508C53.4521 103.506 53.4661 103.504 53.4801 103.502C53.534 103.494 53.588 103.486 53.6421 103.479C53.6504 103.478 53.6588 103.477 53.6673 103.476C53.719 103.469 53.7707 103.462 53.8225 103.455C53.8446 103.452 53.8667 103.449 53.8888 103.446C53.9283 103.441 53.9679 103.436 54.0076 103.432C54.1252 103.417 54.2429 103.404 54.3608 103.391C54.3672 103.39 54.3736 103.39 54.38 103.389C54.4359 103.383 54.4918 103.377 54.5477 103.372C54.5582 103.371 54.5686 103.37 54.5789 103.369C54.5922 103.367 54.6056 103.366 54.619 103.365L54.7712 103.35C54.7834 103.349 54.7956 103.348 54.8079 103.347C54.8165 103.346 54.8252 103.346 54.8338 103.345C54.8915 103.34 54.9493 103.335 55.007 103.33C55.0142 103.33 55.0212 103.329 55.0282 103.329C55.0817 103.324 55.1355 103.32 55.1893 103.316C55.226 103.314 55.2625 103.311 55.2991 103.308C55.3272 103.306 55.3554 103.305 55.3836 103.303C55.4212 103.3 55.4588 103.298 55.4965 103.296C55.5256 103.294 55.5545 103.292 55.5834 103.29C55.6144 103.289 55.6455 103.287 55.6766 103.285C55.9098 103.273 56.1435 103.264 56.3779 103.258C56.5124 103.254 56.6471 103.252 56.782 103.251L57 103.25C57.1838 103.25 57.3674 103.252 57.5508 103.256L44.0858 77.9333C40.127 84.5398 38 92.1101 38 100ZM45.8766 77.0403L59.4437 102.557C63.0426 96.7794 68.9201 92.7038 75.6781 91.4263L75.9038 91.3848L75.9385 91.2957L75.9558 91.2516L75.9625 91.2353L75.7886 91.0427C68.1226 82.6284 57.4384 77.5384 45.8766 77.0403ZM65 72C59.2922 72 53.7485 73.1124 48.6091 75.2335C59.716 76.3632 69.6283 81.5324 76.8537 89.2486C79.1619 84.6619 82.8684 80.9009 87.4143 78.5246L87.616 78.4202L87.4282 78.3044C80.8296 74.2609 73.2244 72.0517 65.2805 72.0009L65 72Z" fill="#333333"/>
</g>
<g clip-path="url(#clip2_208_5897)">
<rect width="171" height="244" transform="translate(112 -12)" fill="white"/>
<line x1="114" y1="4.37114e-08" x2="114" y2="160" stroke="#333333" stroke-width="2"/>
<path d="M126 2V102.326C126 102.336 126 102.347 126 102.358C126.001 102.368 126.001 102.378 126.002 102.388L126.002 106L126.003 106.09C126.051 108.81 128.271 111 131.002 111C133.735 111 135.956 108.808 136.002 106.086L136.002 106L135.971 103.721L135.97 103.668C135.942 103.141 135.506 102.721 134.971 102.721C134.436 102.721 133.999 103.142 133.972 103.671L133.971 103.721L134.002 106C134.002 107.657 132.659 109 131.002 109C129.345 109 128.002 107.657 128.002 106L128.002 100.999L128 100.999L128 2H126Z" fill="#333333"/>
<path d="M140 2V134.326C140 134.336 140 134.347 140 134.358C140.001 134.368 140.001 134.378 140.002 134.388L140.002 138L140.003 138.09C140.051 140.81 142.271 143 145.002 143C147.735 143 149.956 140.808 150.002 138.086L150.002 138L149.971 135.721L149.97 135.668C149.942 135.141 149.506 134.721 148.971 134.721C148.436 134.721 147.999 135.142 147.972 135.671L147.971 135.721L148.002 138C148.002 139.657 146.659 141 145.002 141C143.345 141 142.002 139.657 142.002 138L142.002 132.999H142L142 2H140Z" fill="#333333"/>
<path d="M154 1.5L154 116.326C154 116.336 154 116.347 154.001 116.358C154.001 116.368 154.001 116.378 154.002 116.388L154.002 120L154.003 120.09C154.051 122.81 156.271 125 159.002 125C161.735 125 163.956 122.808 164.002 120.086L164.003 120L163.971 117.721L163.97 117.668C163.942 117.141 163.506 116.721 162.971 116.721C162.436 116.721 161.999 117.142 161.973 117.671L161.971 117.721L162.002 120C162.002 121.657 160.659 123 159.002 123C157.345 123 156.002 121.657 156.002 120L156.002 114.999L156 114.999V1.5H154Z" fill="#333333"/>
<path d="M168 2L168 124.326C168 124.336 168 124.347 168.001 124.358C168.001 124.368 168.001 124.378 168.002 124.388L168.002 128L168.003 128.09C168.051 130.81 170.271 133 173.002 133C175.735 133 177.956 130.808 178.002 128.086L178.003 128L177.971 125.721L177.97 125.668C177.942 125.141 177.506 124.721 176.971 124.721C176.436 124.721 175.999 125.142 175.973 125.671L175.971 125.721L176.002 128C176.002 129.657 174.659 131 173.002 131C171.345 131 170.002 129.657 170.002 128L170.002 122.999L170 122.999L170 2H168Z" fill="#333333"/>
<path d="M182 2V102.326C182 102.336 182 102.347 182 102.358C182.001 102.368 182.001 102.378 182.002 102.388L182.002 106L182.003 106.09C182.051 108.81 184.271 111 187.002 111C189.735 111 191.956 108.808 192.002 106.086L192.002 106L191.971 103.721L191.97 103.668C191.942 103.141 191.506 102.721 190.971 102.721C190.436 102.721 189.999 103.142 189.972 103.671L189.971 103.721L190.002 106C190.002 107.657 188.659 109 187.002 109C185.345 109 184.002 107.657 184.002 106L184.002 100.999L184 100.999L184 2H182Z" fill="#333333"/>
<path d="M196 2V110.326C196 110.336 196 110.347 196 110.358C196.001 110.368 196.001 110.378 196.002 110.388L196.002 114L196.003 114.09C196.051 116.81 198.271 119 201.002 119C203.735 119 205.956 116.808 206.002 114.086L206.002 114L205.971 111.721L205.97 111.668C205.942 111.141 205.506 110.721 204.971 110.721C204.436 110.721 203.999 111.142 203.972 111.671L203.971 111.721L204.002 114C204.002 115.657 202.659 117 201.002 117C199.345 117 198.002 115.657 198.002 114L198.002 108.999L198 108.999L198 2H196Z" fill="#333333"/>
<path d="M210 2V93.3257C210 93.3364 210 93.347 210 93.3576C210.001 93.3677 210.001 93.3777 210.002 93.3877L210.002 96.9997L210.003 97.0896C210.051 99.8097 212.271 102 215.002 102C217.735 102 219.956 99.8077 220.002 97.0858L220.002 96.9997L219.971 94.7213L219.97 94.6682C219.942 94.1406 219.506 93.7212 218.971 93.7212C218.436 93.7212 217.999 94.1423 217.972 94.6714L217.971 94.7213L218.002 96.9997C218.002 98.6566 216.659 99.9999 215.002 99.9999C213.345 99.9999 212.002 98.6566 212.002 96.9997L212.002 91.9994L212 91.9994L212 2H210Z" fill="#333333"/>
<path d="M224 -16V75.3257C224 75.3364 224 75.347 224 75.3576C224.001 75.3677 224.001 75.3777 224.002 75.3877L224.002 78.9997L224.003 79.0896C224.051 81.8097 226.271 84 229.002 84C231.735 84 233.956 81.8077 234.002 79.0858L234.002 78.9997L233.971 76.7213L233.97 76.6682C233.942 76.1406 233.506 75.7212 232.971 75.7212C232.436 75.7212 231.999 76.1423 231.972 76.6714L231.971 76.7213L232.002 78.9997C232.002 80.6566 230.659 81.9999 229.002 81.9999C227.345 81.9999 226.002 80.6566 226.002 78.9997L226.002 73.9994L226 73.9994L226 -16H224Z" fill="#333333"/>
<path d="M238 2L238 104.326C238 104.336 238 104.347 238.001 104.358C238.001 104.368 238.001 104.378 238.002 104.388L238.002 108L238.003 108.09C238.051 110.81 240.271 113 243.002 113C245.735 113 247.956 110.808 248.002 108.086L248.003 108L247.971 105.721L247.97 105.668C247.942 105.141 247.506 104.721 246.971 104.721C246.436 104.721 245.999 105.142 245.973 105.671L245.971 105.721L246.002 108C246.002 109.657 244.659 111 243.002 111C241.345 111 240.002 109.657 240.002 108L240.002 102.999L240 102.999L240 2H238Z" fill="#333333"/>
<path d="M252 -3V88.3257C252 88.3364 252 88.347 252 88.3576C252.001 88.3677 252.001 88.3777 252.002 88.3877L252.002 91.9997L252.003 92.0896C252.051 94.8097 254.271 97 257.002 97C259.735 97 261.956 94.8077 262.002 92.0858L262.002 91.9997L261.971 89.7213L261.97 89.6682C261.942 89.1406 261.506 88.7212 260.971 88.7212C260.436 88.7212 259.999 89.1423 259.972 89.6714L259.971 89.7213L260.002 91.9997C260.002 93.6566 258.659 94.9999 257.002 94.9999C255.345 94.9999 254.002 93.6566 254.002 91.9997L254.002 86.9994L254 86.9994L254 -3H252Z" fill="#333333"/>
<path d="M266 2V99.3257C266 99.3364 266 99.347 266 99.3576C266.001 99.3677 266.001 99.3777 266.002 99.3877L266.002 103L266.003 103.09C266.051 105.81 268.271 108 271.002 108C273.735 108 275.956 105.808 276.002 103.086L276.002 103L275.971 100.721L275.97 100.668C275.942 100.141 275.506 99.7212 274.971 99.7212C274.436 99.7212 273.999 100.142 273.972 100.671L273.971 100.721L274.002 103C274.002 104.657 272.659 106 271.002 106C269.345 106 268.002 104.657 268.002 103L268.002 97.9994L268 97.9994L268 2H266Z" fill="#333333"/>
</g>
</g>
<rect x="1" y="1" width="283" height="158" rx="3" stroke="#333333" stroke-width="2"/>
<defs>
<clipPath id="clip0_208_5897">
<rect width="285" height="160" rx="4" fill="white"/>
</clipPath>
<clipPath id="clip1_208_5897">
<rect width="80" height="80" fill="white" transform="translate(16 64)"/>
</clipPath>
<clipPath id="clip2_208_5897">
<rect width="171" height="244" fill="white" transform="translate(112 -12)"/>
</clipPath>
</defs>
</svg>
