<svg width="16" height="16" xmlns="http://www.w3.org/2000/svg" xmlns:xlink="http://www.w3.org/1999/xlink"><defs><path d="M8.75 2.5a6.25 6.25 0 014.84 10.205l3.727 3.728a.625.625 0 01-.797.956l-.087-.072-3.728-3.727A6.25 6.25 0 118.75 2.5zm0 1.25a5 5 0 100 10 5 5 0 000-10zm0 1.25c.345 0 .625.28.625.625v.704c.23.059.446.15.645.267l.498-.498a.625.625 0 01.884.884l-.498.498c.117.2.208.416.267.646l.704-.001a.625.625 0 010 1.25h-.704c-.059.23-.15.446-.267.645l.498.498a.625.625 0 11-.884.884l-.498-.498a2.485 2.485 0 01-.645.267v.704a.625.625 0 11-1.25 0v-.704a2.485 2.485 0 01-.645-.267l-.498.498a.625.625 0 11-.884-.884l.498-.498a2.485 2.485 0 01-.267-.645h-.704a.625.625 0 110-1.25h.703c.06-.229.15-.446.268-.645l-.498-.498a.625.625 0 01.884-.884l.498.498c.2-.118.416-.208.646-.267l-.001-.704c0-.345.28-.625.625-.625zm0 2.5a1.25 1.25 0 100 2.5 1.25 1.25 0 000-2.5z" id="a"/></defs><use xlink:href="#a" transform="translate(-2 -2)" fill-rule="evenodd"/></svg>