<svg xmlns="http://www.w3.org/2000/svg" xmlns:xlink="http://www.w3.org/1999/xlink" viewBox="0 0 32 32"><defs><path id="a" d="M14 4c5.523 0 10 4.477 10 10 0 2.4-.846 4.604-2.257 6.328l5.964 5.965a1 1 0 0 1-1.414 1.414l-5.965-5.963A9.959 9.959 0 0 1 14 24C8.477 24 4 19.523 4 14S8.477 4 14 4zm0 2a8 8 0 1 0 0 16 8 8 0 0 0 0-16zm0 2a1 1 0 0 1 1 1v1.126c.367.095.714.24 1.032.428l.796-.797a1 1 0 0 1 1.414 1.415l-.796.796c.188.318.333.665.428 1.032H19a1 1 0 0 1 0 2h-1.126a3.98 3.98 0 0 1-.428 1.032l.796.796a1 1 0 0 1-1.414 1.415l-.796-.797a3.976 3.976 0 0 1-1.031.428L15 19a1 1 0 0 1-2 0v-1.126a3.976 3.976 0 0 1-1.032-.428l-.797.797a1 1 0 0 1-1.414-1.415l.797-.796a3.976 3.976 0 0 1-.428-1.031L9 15a1 1 0 0 1 0-2h1.126a3.96 3.96 0 0 1 .428-1.032l-.797-.796a1 1 0 0 1 1.414-1.415l.797.797A3.976 3.976 0 0 1 13 10.126V9a1 1 0 0 1 1-1zm0 4a2 2 0 1 0 0 4 2 2 0 0 0 0-4z"/></defs><use xlink:href="#a" fill-rule="evenodd"/></svg>