<svg xmlns="http://www.w3.org/2000/svg" viewBox="0 0 32 32"><path fill-rule="evenodd" d="M23 13c0-5.523-4.477-10-10-10S3 7.477 3 13s4.477 10 10 10a9.96 9.96 0 0 0 6.328-2.257l7.965 7.964a1 1 0 0 0 1.414-1.414l-7.964-7.964A9.96 9.96 0 0 0 23 13M5 13a8 8 0 1 1 16 0 8 8 0 0 1-16 0m8-6a1 1 0 0 1 1 1v1.126c.367.094.713.24 1.032.428l.796-.797a1 1 0 0 1 1.415 1.415l-.797.796c.188.318.333.665.428 1.032H18a1 1 0 1 1 0 2h-1.126c-.095.367-.24.714-.428 1.032l.796.796a1 1 0 0 1-1.414 1.415l-.796-.797a4 4 0 0 1-1.032.428V18a1 1 0 1 1-2 0v-1.126a4 4 0 0 1-1.032-.428l-.797.797a1 1 0 1 1-1.414-1.415l.797-.796A4 4 0 0 1 9.126 14H8a1 1 0 1 1 0-2h1.126a4 4 0 0 1 .428-1.032l-.797-.796a1 1 0 0 1 1.414-1.415l.797.797A4 4 0 0 1 12 9.126V8a1 1 0 0 1 1-1m0 8a2 2 0 1 0 0-4 2 2 0 0 0 0 4" clip-rule="evenodd"/></svg>