<svg width="18" height="18" xmlns="http://www.w3.org/2000/svg"><path d="M15.25.423v4.826l1.25.001c.69 0 1.25.56 1.25 1.25v1.25c0 .69-.56 1.25-1.25 1.25l-1.25-.001v4.828l-1.337-.763c-2.493-1.413-4.056-2.189-4.288-2.189l-1.875-.001v5.001c0 .69-.56 1.25-1.25 1.25H5.154a1.25 1.25 0 01-1.233-1.045l-1.035-5.206-.761.001A1.875 1.875 0 01.25 9V5.25c0-1.036.84-1.875 1.875-1.875h7.5c.232 0 1.795-.776 4.288-2.19L15.25.424zM6.5 10.875H4.113l1.041 5H6.5v-5zM14 2.573l-.635.355-.79.43c-1.605.864-2.534 1.267-2.95 1.267L7.75 4.624v5l1.875.001c.48 0 1.643.537 3.74 1.697l.635.355V2.573zM6.5 9.624v-5l-4.375.001a.625.625 0 00-.625.625V9c0 .345.28.625.625.625L6.5 9.624zm10-3.124h-1.25v1.25h1.25V6.5z"/></svg>