<svg xmlns="http://www.w3.org/2000/svg" viewBox="0 0 32 32"><path d="M24.504 2.13A1 1 0 0 1 26 3v7h2a2 2 0 0 1 2 2v2a2 2 0 0 1-2 2h-2v7.001a1 1 0 0 1-1.496.868l-.643-.366C19.871 21.241 17.371 20 17 20h-3v8a2 2 0 0 1-2 2H9.847a2 2 0 0 1-1.973-1.67L6.217 20H5a3 3 0 0 1-3-3V9a3 3 0 0 1 3-3h12c.371 0 2.872-1.24 6.861-3.503zM9.847 28H12v-8H8.18zM22.983 5.285l-1.262.689C19.152 7.354 17.666 8 17 8h-3v10h3c.769 0 2.628.86 5.983 2.716l1.017.567V4.718zM5 8a1 1 0 0 0-1 1v8a1 1 0 0 0 1 1h7V8zm21 6h2v-2h-2z"/></svg>