<svg xmlns="http://www.w3.org/2000/svg" xmlns:xlink="http://www.w3.org/1999/xlink" viewBox="0 0 32 32"><defs><path id="a" d="M24.988 15.31c-.067 1.68-.503 3.02-1.308 4.019-.805.998-1.879 1.497-3.22 1.497-.55 0-1.037-.114-1.46-.343a2.44 2.44 0 0 1-.986-.97c-.658.85-1.54 1.274-2.647 1.274-.644 0-1.208-.182-1.691-.545-.483-.364-.837-.881-1.062-1.551-.225-.67-.293-1.43-.206-2.28.201-1.61.741-2.905 1.62-3.884.88-.98 1.956-1.469 3.23-1.469.987 0 1.836.219 2.547.657l.634.406-.513 5.671c-.114.896.208 1.343.966 1.343.57 0 1.048-.35 1.434-1.048.386-.699.599-1.593.64-2.681.113-2.152-.351-3.813-1.395-4.986C20.528 9.248 19 8.662 16.987 8.662c-1.281 0-2.42.314-3.417.942-.996.628-1.784 1.517-2.365 2.667-.58 1.15-.907 2.458-.981 3.927-.107 2.255.362 3.98 1.409 5.174 1.047 1.195 2.617 1.792 4.71 1.792.564 0 1.16-.063 1.791-.188.631-.126 1.144-.272 1.54-.44l.373 1.604c-.41.258-.961.465-1.656.623a9.396 9.396 0 0 1-2.088.237c-1.832 0-3.38-.337-4.645-1.01-1.265-.673-2.206-1.67-2.823-2.99-.617-1.32-.892-2.921-.825-4.802.08-1.778.508-3.37 1.283-4.778.775-1.407 1.835-2.496 3.18-3.265C13.82 7.385 15.337 7 17.027 7c1.691 0 3.15.337 4.378 1.01a6.48 6.48 0 0 1 2.768 2.903c.617 1.263.889 2.728.815 4.396zm-9.961 1.17c-.07.83-.005 1.458.194 1.883.199.425.52.637.961.637.297 0 .57-.134.82-.403.248-.268.455-.651.62-1.15l.378-4.37a2.243 2.243 0 0 0-.587-.077c-.707 0-1.251.28-1.633.839-.382.559-.633 1.439-.753 2.64z"/></defs><use xlink:href="#a" fill-rule="evenodd"/></svg>