<svg width="11" height="12" xmlns="http://www.w3.org/2000/svg" xmlns:xlink="http://www.w3.org/1999/xlink"><defs><path d="M15.618 9.568c-.042 1.051-.315 1.888-.818 2.512-.503.624-1.174.936-2.013.936-.344 0-.648-.071-.912-.214a1.525 1.525 0 01-.616-.607c-.411.531-.963.797-1.655.797-.402 0-.755-.114-1.056-.341-.302-.227-.524-.55-.664-.97-.14-.418-.184-.893-.129-1.424.126-1.007.463-1.816 1.013-2.428.549-.612 1.222-.918 2.019-.918.616 0 1.147.137 1.591.41l.396.254-.32 3.545c-.072.56.13.84.604.84.356 0 .655-.219.896-.656.241-.436.374-.995.4-1.675.07-1.345-.22-2.384-.872-3.116-.652-.733-1.607-1.1-2.865-1.1-.801 0-1.513.197-2.136.59-.622.392-1.115.947-1.478 1.666-.362.719-.567 1.537-.613 2.455-.067 1.409.226 2.487.88 3.233.655.747 1.636 1.12 2.944 1.12.353 0 .726-.039 1.12-.117.394-.079.715-.17.962-.275l.233 1.003c-.256.16-.6.29-1.035.39a5.908 5.908 0 01-1.305.147c-1.145 0-2.112-.21-2.903-.631a3.957 3.957 0 01-1.764-1.869c-.386-.825-.558-1.826-.516-3.001.05-1.111.318-2.107.802-2.986a5.172 5.172 0 011.988-2.041c.84-.481 1.79-.722 2.846-.722 1.057 0 1.969.21 2.736.631a4.05 4.05 0 011.73 1.815c.386.789.556 1.705.51 2.747zm-6.226.732c-.044.519-.003.911.121 1.177.124.265.325.398.6.398.186 0 .357-.084.513-.252.156-.167.285-.407.387-.718l.237-2.732a1.402 1.402 0 00-.367-.048c-.442 0-.782.175-1.02.524-.24.35-.396.9-.471 1.65z" id="a"/></defs><use xlink:href="#a" transform="translate(-5 -4)"/></svg>