<svg width="13" height="15" xmlns="http://www.w3.org/2000/svg" xmlns:xlink="http://www.w3.org/1999/xlink"><defs><path d="M8.125 5.625v7.5C8.125 14.095 9.03 15 10 15s1.875-.905 1.875-1.875v-7.5c0-1.434-1.208-3.125-3.125-3.125S5.625 4.191 5.625 5.625v7.5c0 2.36 1.41 4.375 4.375 4.375s4.375-2.014 4.375-4.375v-7.5a.625.625 0 10-1.25 0v7.5c0 1.746-.965 3.125-3.125 3.125s-3.125-1.379-3.125-3.125v-7.5c0-.816.756-1.875 1.875-1.875s1.875 1.059 1.875 1.875v7.5c0 .28-.345.625-.625.625s-.625-.345-.625-.625v-7.5a.625.625 0 10-1.25 0z" id="a"/></defs><use transform="rotate(-30 2.902 14.098)" xlink:href="#a"/></svg>