<svg xmlns="http://www.w3.org/2000/svg" viewBox="0 0 32 32"><path fill-rule="evenodd" d="m9.538 7.976 7.153 15.577c.654 1.423 2.57 2.13 3.97 1.467s2.098-2.608 1.444-4.03L14.953 5.412c-.965-2.102-3.847-3.756-6.615-2.445S4.964 7.583 5.929 9.685l7.153 15.577c1.59 3.462 4.981 5.451 9.262 3.424 4.28-2.027 4.96-5.944 3.37-9.406L18.563 3.703a.99.99 0 0 0-1.323-.49 1.02 1.02 0 0 0-.482 1.344l7.153 15.578c1.176 2.56.71 5.241-2.408 6.718s-5.44.115-6.615-2.445L7.734 8.83c-.55-1.197-.17-3.266 1.444-4.03 1.616-.766 3.42.27 3.97 1.466L20.3 21.844c.188.41-.078 1.152-.482 1.344-.404.191-1.134-.079-1.323-.49L11.343 7.122a.99.99 0 0 0-1.323-.49 1.02 1.02 0 0 0-.482 1.345" clip-rule="evenodd"/></svg>