<svg xmlns="http://www.w3.org/2000/svg" viewBox="0 0 32 32"><path d="M16 3a4 4 0 0 1 3.874 3H25a1 1 0 0 1 1 1v2.615l4.935 13.03a1 1 0 0 1 .064.353L31 23a6 6 0 0 1-12 .05 1 1 0 0 1 .063-.405L24 9.615V8h-4.126a4.002 4.002 0 0 1-7.748 0H8v1.615l4.935 13.03q.074.203.063.406A5.999 5.999 0 0 1 1 23v-.002q-.001-.177.064-.353L6 9.615V7q0-.052.004-.103A1 1 0 0 1 7 6h5.126c.444-1.725 2.01-3 3.874-3M3.124 24a4.002 4.002 0 0 0 7.749 0zm18.002 0a4.002 4.002 0 0 0 7.748 0zm-17.68-2h7.104L7 12.624zm18 0h7.104L25 12.624zM16 5a2 2 0 1 0 0 4 2 2 0 0 0 0-4"/></svg>