<svg width="16" height="18" xmlns="http://www.w3.org/2000/svg"><path d="M1.75 17.125c-.69 0-1.25-.56-1.25-1.25V2.125c0-.69.56-1.25 1.25-1.25h12.5c.69 0 1.25.56 1.25 1.25v13.75c0 .69-.56 1.25-1.25 1.25H1.75zm0-1.25h1.875v-6.25H1.75v6.25zm9.375-1.25h-6.25v1.25h6.25v-1.25zm3.125-5h-1.875v6.25h1.875v-6.25zm-3.125 2.5h-6.25v1.25h6.25v-1.25zm0-2.5h-6.25v1.25h6.25v-1.25zm3.125-1.25v-3.75H1.75v3.75h1.875v-2.5h8.75v2.5h1.875zm-3.125-1.25h-6.25v1.25h6.25v-1.25zm-3.75-5a.625.625 0 100 1.25.625.625 0 000-1.25zm-2.5 0a.625.625 0 100 1.25.625.625 0 000-1.25zm-2.5 0a.625.625 0 100 1.25.625.625 0 000-1.25z" fill-rule="evenodd"/></svg>