<svg width="18" height="18" xmlns="http://www.w3.org/2000/svg" xmlns:xlink="http://www.w3.org/1999/xlink"><defs><path d="M3.125 1.875h13.75c.69 0 1.25.56 1.25 1.25v13.75c0 .69-.56 1.25-1.25 1.25H3.125c-.69 0-1.25-.56-1.25-1.25V3.125c0-.69.56-1.25 1.25-1.25zm7.5 8.75v6.25h6.25v-6.25h-6.25zm-7.5 0v6.25h6.25v-6.25h-6.25zm7.5-7.5v6.25h6.25v-6.25h-6.25zm-7.5 0v6.25h6.25v-6.25h-6.25zm9.375 11.25H15a.625.625 0 110 1.25h-2.5a.625.625 0 110-1.25zm0-2.5H15a.625.625 0 110 1.25h-2.5a.625.625 0 110-1.25zM5 13.125h2.5a.625.625 0 110 1.25H5a.625.625 0 110-1.25zm8.75-7.759l.663-.663a.625.625 0 01.884.884l-.663.663.663.663a.625.625 0 11-.884.884l-.663-.663-.663.663a.625.625 0 01-.884-.884l.663-.663-.663-.663a.625.625 0 11.884-.884l.663.663zm-6.875.259H7.5a.625.625 0 110 1.25h-.625V7.5a.625.625 0 11-1.25 0v-.625H5a.625.625 0 110-1.25h.625V5a.625.625 0 111.25 0v.625z" id="a"/></defs><use xlink:href="#a" transform="translate(-1 -1)" fill-rule="evenodd"/></svg>