<svg xmlns="http://www.w3.org/2000/svg" xmlns:xlink="http://www.w3.org/1999/xlink" viewBox="0 0 32 32"><defs><path id="a" d="M5 3h22a2 2 0 0 1 2 2v22a2 2 0 0 1-2 2H5a2 2 0 0 1-2-2V5a2 2 0 0 1 2-2zm12 14v10h10V17H17zM5 17v10h10V17H5zM17 5v10h10V5H17zM5 5v10h10V5H5zm15 18h4a1 1 0 0 1 0 2h-4a1 1 0 0 1 0-2zm0-4h4a1 1 0 0 1 0 2h-4a1 1 0 0 1 0-2zM8 21h4a1 1 0 0 1 0 2H8a1 1 0 0 1 0-2zM22 8.586l1.06-1.06a1 1 0 1 1 1.415 1.413L23.415 10l1.06 1.06a1 1 0 1 1-1.414 1.415L22 11.415l-1.06 1.06a1 1 0 1 1-1.415-1.414L20.585 10l-1.06-1.06a1 1 0 0 1 1.414-1.415L22 8.585zM11 9h1a1 1 0 0 1 0 2h-1v1a1 1 0 0 1-2 0v-1H8a1 1 0 0 1 0-2h1V8a1 1 0 1 1 2 0v1z"/></defs><use xlink:href="#a" fill-rule="evenodd"/></svg>