<svg width="16" height="16" xmlns="http://www.w3.org/2000/svg"><path d="M15.5.5v15H.5V.5h15zm-1.25 5H1.75v8.75h12.5V5.5zm-6.875 6.25h1.25a.625.625 0 110 1.25h-1.25a.625.625 0 110-1.25zm-3.75 0h1.25a.625.625 0 110 1.25h-1.25a.625.625 0 110-1.25zm7.5-2.5h1.25a.625.625 0 110 1.25h-1.25a.625.625 0 110-1.25zm-3.75 0h1.25a.625.625 0 110 1.25h-1.25a.625.625 0 110-1.25zm-3.75 0h1.25a.625.625 0 110 1.25h-1.25a.625.625 0 110-1.25zm7.5-2.5h1.25a.625.625 0 110 1.25h-1.25a.625.625 0 110-1.25zm-3.75 0h1.25a.625.625 0 110 1.25h-1.25a.625.625 0 110-1.25zm-3.75 0h1.25a.625.625 0 110 1.25h-1.25a.625.625 0 110-1.25z" fill-rule="evenodd"/></svg>