<svg xmlns="http://www.w3.org/2000/svg" viewBox="0 0 32 32"><path d="M6.426 3.607a2.077 2.077 0 0 1 2.778-.141l.157.141 4.569 4.569.143.157a2.077 2.077 0 0 1-.142 2.778l-2.013 2.012-.002.009q0 .016.01.033l.656.861c.675.886 1.434 1.849 2.49 2.904l.49.476c1.15 1.079 2.303 1.937 3.264 2.688l.029.009.008-.001 2.02-2.02.16-.143a2.09 2.09 0 0 1 2.798.143l4.547 4.547.143.158c.67.821.622 2.034-.143 2.799l-.001-.001-1.47 1.473-.041.04a7 7 0 0 1-.469.46 6 6 0 0 1-.998.727l-.18.099c-1.039.54-2.266.75-3.638.53l-.277-.05c-2.465-.494-5.994-2.511-10.101-6.436l-.83-.81c-4.32-4.323-6.576-8.058-7.191-10.678l-.054-.25c-.297-1.484-.098-2.806.48-3.914l.148-.265a6.4 6.4 0 0 1 1.007-1.257l.006-.007.14-.134zm1.438 1.399-.025.017-1.53 1.529-.01.008-.14.134c-.17.166-.45.466-.676.84l-.093.167c-.35.672-.507 1.525-.292 2.596l.094.401c.566 2.09 2.516 5.416 6.606 9.505l.807.79c3.986 3.806 7.178 5.525 9.102 5.91l.198.036c.98.158 1.77 0 2.4-.329l.224-.128c.178-.112.334-.234.467-.348l.474-.461.035-.033 1.469-1.469.02-.03a.1.1 0 0 0 0-.068l-.02-.03-4.547-4.546a.09.09 0 0 0-.099-.02l-.03.02-2.02 2.018a2.03 2.03 0 0 1-2.682.155c-.922-.72-2.162-1.643-3.407-2.81l-.532-.515c-1.523-1.523-2.5-2.899-3.315-3.96a2.035 2.035 0 0 1 .163-2.678l2.01-2.01a.07.07 0 0 0 .017-.082l-.016-.025-4.569-4.567a.08.08 0 0 0-.083-.017"/></svg>