<svg width="14" height="14" xmlns="http://www.w3.org/2000/svg" xmlns:xlink="http://www.w3.org/1999/xlink"><defs><path d="M12.545 8.318l-1.15-.574-.073-.074c-.825-.825-.417-2.323.684-3.424 1.101-1.1 2.6-1.51 3.424-.684l.913.913c1.333 1.332.067 6.323-2.739 9.13-2.806 2.805-7.797 4.07-9.13 2.738l-.912-.913c-.825-.825-.417-2.323.684-3.424 1.101-1.1 2.6-1.51 3.424-.684l.074.074.574 1.149c.732-.185 1.59-.722 2.547-1.68.958-.958 1.495-1.815 1.68-2.547zm1.387-.75L13.901 8c-.085 1.158-.776 2.432-2.123 3.778-1.346 1.347-2.62 2.038-3.778 2.123l-.431.031-.868-1.734c-.249-.11-.932.112-1.542.721-.663.664-.868 1.414-.684 1.598l.912.913c.181.18 1.334.211 2.643-.12 1.697-.431 3.372-1.33 4.661-2.619 1.29-1.29 2.188-2.964 2.618-4.661.332-1.309.302-2.462.121-2.643l-.913-.912c-.184-.184-.934.02-1.598.684-.61.61-.832 1.293-.721 1.542l1.734.868z" id="a"/></defs><use xlink:href="#a" transform="translate(-3 -3)"/></svg>