<svg xmlns="http://www.w3.org/2000/svg" xmlns:xlink="http://www.w3.org/1999/xlink" viewBox="0 0 32 32"><defs><path id="a" d="M17 4v2.05a9.99 9.99 0 0 1 7.091 4.072l1.771-1.033.504.863A11.948 11.948 0 0 1 28 16c0 6.627-5.373 12-12 12S4 22.627 4 16 9.373 4 16 4h1zm-2.001 2.049C9.947 6.551 6 10.815 6 16c0 5.523 4.477 10 10 10s10-4.477 10-10a9.94 9.94 0 0 0-.9-4.151L15 17.74v-.001.001l-.001-11.692zm2.002 2.013L17 14.257l5.353-3.12a7.99 7.99 0 0 0-5.352-3.075z"/></defs><use xlink:href="#a" fill-rule="evenodd"/></svg>