<svg xmlns="http://www.w3.org/2000/svg" xmlns:xlink="http://www.w3.org/1999/xlink" viewBox="0 0 32 32"><defs><path id="a" d="M16 26a9.987 9.987 0 008.117-4.159l-3.493-2.017A5.988 5.988 0 0116 22a5.988 5.988 0 01-4.624-2.176l-3.493 2.017A9.987 9.987 0 0016 26zm-5.625-7.907A6.002 6.002 0 0115 10.083V6.049C9.947 6.551 6 10.815 6 16c0 1.465.315 2.856.881 4.11l3.494-2.017zM26 16a9.959 9.959 0 00-2.257-6.329l-2.852 2.852A5.977 5.977 0 0122 16c0 .736-.133 1.441-.375 2.093l3.494 2.017A9.964 9.964 0 0026 16zm-9-9.95v4.033a5.968 5.968 0 012.477 1.026l2.852-2.852A9.954 9.954 0 0017 6.05zM16 28C9.373 28 4 22.627 4 16S9.373 4 16 4s12 5.373 12 12-5.373 12-12 12zm0-8a4 4 0 100-8 4 4 0 000 8z"/></defs><use fill-rule="evenodd" xlink:href="#a"/></svg>