<svg xmlns="http://www.w3.org/2000/svg" viewBox="0 0 32 32"><path d="M16 2c7.407 0 13.469 5.752 13.966 13.032l.01.168q.008.145.013.29l.006.149q.005.18.005.361l-.001.049-.002.182q-.003.144-.009.287l-.005.15a13.95 13.95 0 0 1-3.77 8.905q-.09.096-.182.19l-.054.058-.045.043-.198.196-.075.074-.052.048-.048.046-.189.172-.033.03a14 14 0 0 1-.526.448l-.059.047-.071.057a13.93 13.93 0 0 1-7.335 2.953h-.008q-.178.018-.358.03l-.128.008-.122.008-.153.005-.166.007-.124.002-.218.003-.061.001L16 30q-.173 0-.344-.005l-.076-.002h-.02l-.132-.007-.216-.01-.125-.007-.09-.006-.259-.02-.045-.005a13.9 13.9 0 0 1-6.946-2.63l-.073-.053a14 14 0 0 1-.368-.282l-.08-.064-.059-.049-.248-.206-.082-.069q-.02-.016-.037-.033a15 15 0 0 1-.26-.234l-.06-.054-.068-.064-.185-.177-.069-.067-.057-.057-.022-.021-.055-.057a14 14 0 0 1-.346-.364l-.082-.09-.095-.107-.202-.234-.051-.06a14 14 0 0 1-.527-.672l-.029-.04a13.9 13.9 0 0 1-2.658-7.286l-.006-.1q-.019-.306-.025-.617l-.001-.124L2 16l.001-.115.001-.105v-.054a13.94 13.94 0 0 1 3.355-8.823l.03-.035.057-.065.067-.075q.09-.102.182-.203l.133-.141.04-.043.172-.178.037-.038.147-.144q.126-.123.257-.244l.157-.145.051-.046q.115-.102.232-.201l.11-.094q.098-.081.198-.161l.097-.08.126-.096.013-.01.015-.011a13.93 13.93 0 0 1 7.24-2.834l.01-.001q.187-.017.376-.029l.075-.005.236-.011.083-.003Q15.748 2 16 2m-1 2.043a12 12 0 0 0-3.398.793l-.082.031a12 12 0 0 0-.458.196q-.108.049-.215.1-.139.066-.275.136-.095.047-.19.097-.274.146-.543.307l-.1.06q-.082.05-.162.102a12.04 12.04 0 0 0-4.047 4.27 12 12 0 0 0-.19.358l-.065.124a12 12 0 0 0-.724 1.79 12 12 0 0 0 .395 8.262l.187.42q.086.181.177.36l.028.056.03.058q.077.147.158.293.023.037.044.077c.98 1.718 2.37 3.17 4.04 4.222l.092.059.251.15.013.007a12 12 0 0 0 .926.486q.89.42 1.835.687l.039.01q.235.067.472.123l.114.025a11 11 0 0 0 1.407.232q.181.019.364.033l.11.008q.212.013.423.02h.127q.15.004.301.003a12 12 0 0 0 2.516-.284l.157-.037.135-.032.164-.041q.407-.108.805-.245l.012-.003a12 12 0 0 0 2.027-.91l.18-.101a12 12 0 0 0 .548-.344l.136-.09q.176-.12.35-.248l.075-.058.069-.051a12 12 0 0 0 2.3-2.303l-10.094-6.406-.048-.035a1 1 0 0 1-.098-.081l-.032-.03a1 1 0 0 1-.067-.077L15.2 16.6q-.027-.037-.05-.077l-.017-.027a1 1 0 0 1-.053-.105l-.006-.013q-.015-.041-.028-.084l-.012-.037A1 1 0 0 1 15 16zm2.913 11.985 8.718 5.534a12 12 0 0 0 1.28-4.105l.05-.493q.03-.372.036-.743l.001-.12a12 12 0 0 0-.282-2.695l-.027-.114q-.072-.307-.158-.61l-.02-.072a12 12 0 0 0-.581-1.56q-.062-.14-.128-.277zM17 14.248l8.781-5.195A11.99 11.99 0 0 0 17 4.04z"/></svg>