<svg width="16" height="16" xmlns="http://www.w3.org/2000/svg" xmlns:xlink="http://www.w3.org/1999/xlink"><defs><path d="M16.18 8.363l.023-.162c.813.844 1.297 1.901 1.297 3.049 0 1.07-.42 2.063-1.137 2.876l-.17.185L17.5 17.5l-3.878-1.623a7.607 7.607 0 01-2.372.373c-2.33 0-4.361-1.02-5.436-2.531l.636-.267c.318.085.643.152.973.2C8.33 14.467 9.694 15 11.25 15c.577 0 1.138-.074 1.668-.217l.314-.093.443-.146 1.523.638-.473-1.154.57-.587c.624-.644.955-1.404.955-2.191 0-.551-.166-1.083-.465-1.565.186-.42.32-.862.396-1.322l.022-.162zM8.75 2.5c3.452 0 6.25 2.239 6.25 5s-2.798 5-6.25 5c-.84 0-1.64-.132-2.372-.373L2.5 13.75l1.308-3.19C2.988 9.716 2.5 8.654 2.5 7.5c0-2.761 2.798-5 6.25-5zm0 1.25c-2.815 0-5 1.748-5 3.75 0 .787.33 1.547.955 2.191l.57.587-.473 1.154 1.523-.638.443.146c.62.203 1.29.31 1.982.31 2.815 0 5-1.748 5-3.75s-2.185-3.75-5-3.75z" id="a"/></defs><use xlink:href="#a" transform="translate(-2 -2)"/></svg>