<svg xmlns="http://www.w3.org/2000/svg" viewBox="0 0 32 32"><path d="M19.586 25a2 2 0 0 1 1.414.586l4 4V27a2 2 0 0 1 2-2h1a1 1 0 0 0 1-1V6a1 1 0 1 1 2 0v18a3 3 0 0 1-3 3h-1v2.586c0 1.782-2.154 2.674-3.414 1.414l-4-4H13.5a1 1 0 1 1 0-2z"/><path d="M3 4a1 1 0 0 1 1-1h20a1 1 0 0 1 1 1v16a1 1 0 0 1-1 1H12.414a2 2 0 0 0-1.414.586l-4 4V23a2 2 0 0 0-2-2H4a1 1 0 0 1-1-1zM1 20a3 3 0 0 0 3 3h1v2.586C5 27.368 7.154 28.26 8.414 27l4-4H24a3 3 0 0 0 3-3V4a3 3 0 0 0-3-3H4a3 3 0 0 0-3 3z"/><path d="M7 13h14v2H7zm0-4h14v2H7z"/></svg>