<svg width="16" height="14" xmlns="http://www.w3.org/2000/svg" xmlns:xlink="http://www.w3.org/1999/xlink"><defs><path d="M2.5 16.875l1.526-3.721C3.068 12.104 2.5 10.795 2.5 9.375c0-3.452 3.358-6.25 7.5-6.25 4.142 0 7.5 2.798 7.5 6.25s-3.358 6.25-7.5 6.25a8.747 8.747 0 01-3.142-.573L2.5 16.875zm2.302-2.318l2.036-.852.469.18c.833.32 1.747.49 2.693.49 3.497 0 6.25-2.294 6.25-5s-2.753-5-6.25-5-6.25 2.294-6.25 5c0 1.063.42 2.082 1.2 2.937l.533.584-.681 1.661z" id="a"/></defs><use xlink:href="#a" transform="translate(-2 -3)"/></svg>