<svg width="18" height="13" xmlns="http://www.w3.org/2000/svg" xmlns:xlink="http://www.w3.org/1999/xlink"><defs><path d="M10 4.375a5.628 5.628 0 015.49 4.395 3.72 3.72 0 011.383.47 3.738 3.738 0 011.745 2.269A3.755 3.755 0 0115 16.25H4.375a3.125 3.125 0 010-6.25A5.625 5.625 0 0110 4.375zm0 1.25a4.375 4.375 0 00-4.33 5.004l.136.95-.924-.26A1.877 1.877 0 002.5 13.125C2.5 14.161 3.34 15 4.375 15H15c.9 0 1.69-.476 2.13-1.191l.033-.071a2.492 2.492 0 00.253-1.884A2.501 2.501 0 0015 10h-.031l-.24.002a2.497 2.497 0 00-1.896 1.236.625.625 0 01-1.083-.625 3.74 3.74 0 012.464-1.793l-.054-.181A4.379 4.379 0 0010 5.625z" id="a"/></defs><use xlink:href="#a" transform="translate(-1 -4)"/></svg>