<svg width="32" height="32" xmlns="http://www.w3.org/2000/svg" xmlns:xlink="http://www.w3.org/1999/xlink"><defs><path d="M16 7a9.004 9.004 0 018.784 7.031c.757.1 1.509.347 2.212.753a5.98 5.98 0 012.773 3.562l.014.05c.006.023.013.045.018.068A6 6 0 0124 26H7a5 5 0 010-10 9 9 0 019-9zm0 2a7 7 0 00-6.928 8.006l.218 1.52-1.478-.415A3.003 3.003 0 004 21a3 3 0 003 3h17a3.997 3.997 0 003.4-1.893.753.753 0 01.06-.127c.52-.9.65-1.92.442-2.86A4.001 4.001 0 0024 16h-.05l-.395.004a3.994 3.994 0 00-3.023 1.976 1 1 0 01-1.732-1 5.985 5.985 0 013.942-2.867A7.003 7.003 0 0016 9z" id="a"/></defs><use xlink:href="#a" fill-rule="evenodd"/></svg>