<svg xmlns="http://www.w3.org/2000/svg" xmlns:xlink="http://www.w3.org/1999/xlink" viewBox="0 0 32 32"><defs><path id="a" d="M22.416 11.707a.992.992 0 0 1 0-1.414 1.02 1.02 0 0 1 1.431 0L29.5 15.88l-5.773 5.707a1.02 1.02 0 0 1-1.43 0 .992.992 0 0 1 0-1.414l4.342-4.293-4.223-4.174zm-2.932-1.572c.493.277.663.89.378 1.37l-5.936 9.993c-.285.48-.916.644-1.41.367a.988.988 0 0 1-.378-1.37l5.936-9.993c.285-.48.916-.644 1.41-.367zm-11.331.158a1.02 1.02 0 0 1 1.43 0 .992.992 0 0 1 0 1.414l-4.222 4.174 4.343 4.293a.992.992 0 0 1 0 1.414 1.02 1.02 0 0 1-1.43 0L2.5 15.881z"/></defs><use xlink:href="#a" fill-rule="evenodd"/></svg>