<svg width="18" height="8" xmlns="http://www.w3.org/2000/svg" xmlns:xlink="http://www.w3.org/1999/xlink"><defs><path d="M14.01 7.317a.62.62 0 010-.884.637.637 0 01.894 0l3.534 3.493-3.609 3.567a.637.637 0 01-.894 0 .62.62 0 010-.884l2.714-2.683-2.639-2.61zm-1.833-.983a.618.618 0 01.236.857l-3.71 6.245a.655.655 0 01-.88.23.618.618 0 01-.236-.857l3.71-6.245a.655.655 0 01.88-.23zm-7.081.1a.637.637 0 01.894 0 .62.62 0 010 .883L3.35 9.926l2.715 2.683a.62.62 0 010 .884.637.637 0 01-.894 0L1.562 9.926z" id="a"/></defs><use xlink:href="#a" transform="translate(-1 -6)"/></svg>