<svg xmlns="http://www.w3.org/2000/svg" viewBox="0 0 32 32"><path d="M16 1c3.845 0 7 2.927 7 7 0 2.052-1.086 3.56-2.53 4.357A4.87 4.87 0 0 1 21.907 15H27v7a9 9 0 0 1-9 9h-4a9 9 0 0 1-8.954-8.093A5 5 0 0 1 1 18v-3h18.843c-.396-1.212-1.506-2-2.843-2a1 1 0 1 1 0-2q.354 0 .696.046Q17.841 11 18 11c1.531 0 3-1.132 3-3 0-2.927-2.218-5-5-5a5 5 0 0 0-5 5 1 1 0 1 1-2 0 7 7 0 0 1 7-7M7 22a7 7 0 0 0 7 7h4a7 7 0 0 0 7-7v-5H7zm-4-4c0 1.306.835 2.413 2 2.825V17H3zM16 5c1.882 0 3 1.531 3 3a1 1 0 1 1-2 0c0-.531-.382-1-1-1a.93.93 0 0 0-.723.322A1.08 1.08 0 0 0 15 8 5 5 0 1 1 5 8a1 1 0 0 1 2 0 3 3 0 0 0 6 0c0-1.356 1.093-3 3-3"/></svg>