<svg xmlns="http://www.w3.org/2000/svg" viewBox="0 0 32 32"><path d="M21.5 13c1.617 0 2.9-.001 3.928.097 1.041.099 1.922.306 2.707.787a6 6 0 0 1 1.981 1.981c.48.785.688 1.666.787 2.707.098 1.027.097 2.31.097 3.928V30a1 1 0 0 1-1 1H2a1 1 0 0 1-1-1v-7.5c0-1.617-.001-2.9.097-3.928.099-1.041.306-1.922.787-2.707a6 6 0 0 1 1.981-1.981c.785-.48 1.666-.688 2.707-.787C7.6 12.999 8.882 13 10.5 13s2.9-.001 3.928.097a8 8 0 0 1 1.572.287 8 8 0 0 1 1.572-.287C18.6 12.999 19.882 13 21.5 13m0 2c-1.238 0-2.206 0-2.996.037q.34.386.612.828c.48.785.688 1.666.787 2.707.098 1.027.097 2.31.097 3.928V29h9v-6.5c0-1.656-.001-2.828-.088-3.738-.085-.896-.246-1.434-.502-1.852a4 4 0 0 0-1.32-1.32c-.418-.256-.956-.417-1.852-.502C24.328 15 23.156 15 21.5 15m-5.59.59c-.538.33-.99.782-1.32 1.32-.256.418-.417.956-.502 1.852C14 19.672 14 20.844 14 22.5V29h4v-6.5c0-1.656-.001-2.828-.088-3.738-.085-.896-.246-1.434-.502-1.852a4 4 0 0 0-1.32-1.32l-.09-.05zM10.5 15c-1.656 0-2.828.001-3.738.088-.896.085-1.434.246-1.852.502a4 4 0 0 0-1.32 1.32c-.256.418-.417.956-.502 1.852C3 19.672 3 20.844 3 22.5V29h9v-6.5c0-1.617-.001-2.9.097-3.928.099-1.041.306-1.922.787-2.707q.271-.441.611-.828c-.79-.036-1.757-.037-2.995-.037M10 1a5 5 0 1 1 0 10 5 5 0 0 1 0-10m12 0a5 5 0 1 1 0 10 5 5 0 0 1 0-10M10 3a3 3 0 1 0 0 6 3 3 0 0 0 0-6m12 0a3 3 0 1 0 0 6 3 3 0 0 0 0-6"/></svg>