<svg xmlns="http://www.w3.org/2000/svg" xmlns:xlink="http://www.w3.org/1999/xlink" viewBox="0 0 32 32"><defs><path id="a" d="M16 1a4 4 0 0 1 1 7.874v3.252A4.007 4.007 0 0 1 19.875 15h3.252A4.002 4.002 0 0 1 31 16a4 4 0 0 1-7.874 1h-3.252A4.007 4.007 0 0 1 17 19.875v3.252A4.002 4.002 0 0 1 16 31a4 4 0 0 1-1-7.874v-3.252a4.007 4.007 0 0 1-2.874-2.873H8.874A4.002 4.002 0 0 1 1 16a4 4 0 0 1 7.874-1h3.252A4.007 4.007 0 0 1 15 12.126V8.874A4.002 4.002 0 0 1 16 1zm0 24a2 2 0 1 0 0 4 2 2 0 0 0 0-4zm11-11a2 2 0 1 0 0 4 2 2 0 0 0 0-4zM5 14a2 2 0 1 0 0 4 2 2 0 0 0 0-4zm11 0a2 2 0 1 0 0 4 2 2 0 0 0 0-4zm0-11a2 2 0 1 0 0 4 2 2 0 0 0 0-4z"/></defs><use xlink:href="#a" fill-rule="evenodd" transform="rotate(45 16 16)"/></svg>