<svg width="16" height="16" xmlns="http://www.w3.org/2000/svg" xmlns:xlink="http://www.w3.org/1999/xlink"><defs><path d="M10 .625a2.5 2.5 0 01.625 4.921V7.58c.879.226 1.57.918 1.796 1.796h2.033a2.501 2.501 0 110 1.25l-2.033.001a2.504 2.504 0 01-1.796 1.795v2.033a2.501 2.501 0 11-1.25 0V12.42a2.504 2.504 0 01-1.796-1.795H5.546a2.501 2.501 0 110-1.25l2.033-.001a2.504 2.504 0 011.797-1.796V5.546A2.501 2.501 0 0110 .625zm0 15a1.25 1.25 0 100 2.5 1.25 1.25 0 000-2.5zm6.875-6.875a1.25 1.25 0 100 2.5 1.25 1.25 0 000-2.5zm-13.75 0a1.25 1.25 0 100 2.5 1.25 1.25 0 000-2.5zm6.875 0a1.25 1.25 0 100 2.5 1.25 1.25 0 000-2.5zm0-6.875a1.25 1.25 0 100 2.5 1.25 1.25 0 000-2.5z" id="a"/></defs><use transform="rotate(45 11.414 6.586)" xlink:href="#a" fill-rule="evenodd"/></svg>