<svg xmlns="http://www.w3.org/2000/svg" xmlns:xlink="http://www.w3.org/1999/xlink" viewBox="0 0 32 32"><defs><path id="a" d="M16 1a4 4 0 011 7.874v3.252A4.007 4.007 0 0119.875 15h3.252A4.002 4.002 0 0131 16a4 4 0 01-7.874 1h-3.252A4.007 4.007 0 0117 19.875v3.252A4.002 4.002 0 0116 31a4 4 0 01-1-7.874v-3.252a4.007 4.007 0 01-2.874-2.873H8.874A4.002 4.002 0 011 16a4 4 0 017.874-1h3.252A4.007 4.007 0 0115 12.126V8.874A4.002 4.002 0 0116 1zm0 24a2 2 0 100 4 2 2 0 000-4zm11-11a2 2 0 100 4 2 2 0 000-4zM5 14a2 2 0 100 4 2 2 0 000-4zm11 0a2 2 0 100 4 2 2 0 000-4zm0-11a2 2 0 100 4 2 2 0 000-4z"/></defs><use fill-rule="evenodd" transform="rotate(45 16 16)" xlink:href="#a"/></svg>