<svg xmlns="http://www.w3.org/2000/svg" viewBox="0 0 32 32"><path d="M16 2c7.732 0 14 6.268 14 14s-6.268 14-14 14S2 23.732 2 16 8.268 2 16 2m0 2C9.373 4 4 9.373 4 16s5.373 12 12 12 12-5.373 12-12S22.627 4 16 4M8.12 9.516c-.424-.881.515-1.821 1.396-1.398l.087.047 8.199 4.83.085.057.003.003a3.5 3.5 0 0 1 1.114 1.144l4.831 8.199.046.086c.423.881-.515 1.821-1.397 1.398l-.087-.047-8.199-4.83-.086-.057-.004-.003a3.5 3.5 0 0 1-1.065-1.072l-.047-.072-4.831-8.198zm10.778 8.444a3.5 3.5 0 0 1-.938.938l2.286 1.348zm-1.837-3.02a1.5 1.5 0 1 0-2.121 2.12 1.5 1.5 0 0 0 2.12-2.12m-3.96-.9a3.5 3.5 0 0 1 .938-.938l-2.285-1.348z"/></svg>