<svg width="14" height="14" xmlns="http://www.w3.org/2000/svg"><path d="M12 2c.345 0 .625.28.625.625v6.982a1.876 1.876 0 11-1.25 0V2.625c0-.345.28-.625.625-.625zm0 8.75A.625.625 0 1012 12a.625.625 0 000-1.25zm-5-10a1.875 1.875 0 01.626 3.643l-.001 6.982a.625.625 0 11-1.25 0V4.393A1.876 1.876 0 017 .75zM7 2a.625.625 0 100 1.25A.625.625 0 007 2zM2 2c.345 0 .625.28.625.625v2.607a1.876 1.876 0 010 3.536v2.607a.625.625 0 11-1.25 0V8.768a1.876 1.876 0 010-3.536V2.625C1.375 2.28 1.655 2 2 2zm0 4.375a.625.625 0 100 1.25.625.625 0 000-1.25z"/></svg>