<svg xmlns="http://www.w3.org/2000/svg" viewBox="0 0 32 32"><path d="M8 3a1 1 0 0 1 1 1v9.126a4.002 4.002 0 0 1 0 7.748V28a1 1 0 1 1-2 0v-7.126a4.002 4.002 0 0 1 0-7.748V4a1 1 0 0 1 1-1m8 0a1 1 0 0 1 1 1v1.126a4.002 4.002 0 0 1 0 7.748V28a1 1 0 1 1-2 0V12.874a4.002 4.002 0 0 1 0-7.748V4a1 1 0 0 1 1-1m8 0a1 1 0 0 1 1 1v13.126a4.002 4.002 0 0 1 0 7.748V28a1 1 0 1 1-2 0v-3.126a4.002 4.002 0 0 1 0-7.748V4a1 1 0 0 1 1-1m0 16a2 2 0 1 0 0 4 2 2 0 0 0 0-4M8 15a2 2 0 1 0 0 4 2 2 0 0 0 0-4m8-8a2 2 0 1 0 0 4 2 2 0 0 0 0-4"/></svg>