<svg xmlns="http://www.w3.org/2000/svg" xmlns:xlink="http://www.w3.org/1999/xlink" viewBox="0 0 32 32"><defs><path id="a" d="M19 4a1 1 0 0 1 1 1v8.775l4-1.072V7a1 1 0 0 1 2 0v5.167l4.23-1.133a1 1 0 1 1 .518 1.932L26 14.238V25a1 1 0 0 1-2 0V14.774l-4 1.072V23a1 1 0 0 1-2 0v-6.618l-4 1.072V27a1 1 0 0 1-2 0v-9.011l-4 1.072V25a1 1 0 0 1-2 0v-5.403l-4.23 1.134a1 1 0 0 1-.518-1.932L6 17.526V7a1 1 0 1 1 2 0v9.99l4-1.072V9a1 1 0 0 1 2 0v6.383l4-1.072V5a1 1 0 0 1 1-1z"/></defs><use xlink:href="#a" fill-rule="evenodd"/></svg>