<svg width="20" height="16" xmlns="http://www.w3.org/2000/svg" xmlns:xlink="http://www.w3.org/1999/xlink"><defs><path d="M11.875 2.5c.345 0 .625.28.625.625v5.484l2.5-.67V4.375a.625.625 0 111.25 0v3.229l2.644-.708a.625.625 0 01.323 1.208l-2.968.794.001 6.727a.625.625 0 11-1.25 0V9.233l-2.5.67v4.472a.625.625 0 11-1.25 0v-4.137l-2.5.67v5.967a.625.625 0 11-1.25 0v-5.632l-2.5.67v3.712a.625.625 0 11-1.25 0v-3.377l-2.644.709a.625.625 0 01-.323-1.208l2.966-.795.001-6.579a.625.625 0 111.25 0v6.244l2.5-.67V5.625a.625.625 0 111.25 0v3.989l2.5-.67V3.125c0-.345.28-.625.625-.625z" id="a"/></defs><use xlink:href="#a" transform="translate(0 -2)" fill-rule="evenodd"/></svg>