<svg width="20" height="14" xmlns="http://www.w3.org/2000/svg" xmlns:xlink="http://www.w3.org/1999/xlink"><defs><path d="M20 15.624v1.25h-6.34a8.699 8.699 0 00-.273-1.25h6.611zM6.814 10.837l.358.108a7.515 7.515 0 015.045 5.135l.225.795-12.444-.001v-1.25l10.731.001a6.272 6.272 0 00-3.57-3.367L5 14.42l-2.16-2.16a6.267 6.267 0 00-2.842 2.118l.001-1.841a7.489 7.489 0 012.828-1.591l.358-.108L5 12.652l1.815-1.815zm10 0l.358.108c1.061.32 2.022.87 2.827 1.59v1.84a6.267 6.267 0 00-2.84-2.117L15 14.42l-2.16-2.16a6.218 6.218 0 00-.966.453 8.707 8.707 0 00-.858-.94 7.392 7.392 0 011.81-.827l.359-.108L15 12.652l1.815-1.815zM15 3.125a3.75 3.75 0 110 7.5 3.75 3.75 0 010-7.5zm-10 0a3.75 3.75 0 110 7.5 3.75 3.75 0 010-7.5zm10 1.25a2.5 2.5 0 100 5 2.5 2.5 0 000-5zm-10 0a2.5 2.5 0 100 5 2.5 2.5 0 000-5z" id="a"/></defs><use xlink:href="#a" transform="translate(0 -3)"/></svg>