<svg xmlns="http://www.w3.org/2000/svg" xmlns:xlink="http://www.w3.org/1999/xlink" viewBox="0 0 32 32"><defs><path id="a" d="M32 24.999v2H21.858a13.918 13.918 0 00-.438-2H32zm-21.096-7.66l.573.173a12.023 12.023 0 018.071 8.216l.36 1.272L0 26.999v-2L17.168 25a10.035 10.035 0 00-5.71-5.386L8 23.07l-3.458-3.457A10.028 10.028 0 000 23v-2.944a11.982 11.982 0 014.524-2.545l.573-.173L8 20.243l2.904-2.904zm16 0l.573.173a11.982 11.982 0 014.524 2.545V23a10.028 10.028 0 00-4.543-3.387L24 23.07l-3.458-3.457a9.95 9.95 0 00-1.543.724 13.96 13.96 0 00-1.374-1.505 11.909 11.909 0 012.898-1.321l.573-.173L24 20.243l2.904-2.904zM24 5a6 6 0 110 12 6 6 0 010-12zM8 5a6 6 0 110 12A6 6 0 018 5zm16 2a4 4 0 100 8 4 4 0 000-8zM8 7a4 4 0 100 8 4 4 0 000-8z"/></defs><use fill-rule="evenodd" xlink:href="#a"/></svg>