<svg width="16" height="12" xmlns="http://www.w3.org/2000/svg" xmlns:xlink="http://www.w3.org/1999/xlink"><defs><path d="M4.375 4.375h11.25c1.036 0 1.875.84 1.875 1.875v7.5c0 1.036-.84 1.875-1.875 1.875H4.375A1.875 1.875 0 012.5 13.75v-7.5c0-1.036.84-1.875 1.875-1.875zm0 1.25a.625.625 0 00-.625.625v7.5c0 .345.28.625.625.625h11.25c.345 0 .625-.28.625-.625v-7.5a.625.625 0 00-.625-.625H4.375zm7.5 5h2.5c.345 0 .625.28.625.625v1.25c0 .345-.28.625-.625.625h-2.5a.625.625 0 01-.625-.625v-1.25c0-.345.28-.625.625-.625zM3.75 6.875h12.5v2.5H3.75v-2.5z" id="a"/></defs><use xlink:href="#a" transform="translate(-2 -4)"/></svg>