<svg xmlns="http://www.w3.org/2000/svg" viewBox="0 0 32 32"><path fill-rule="evenodd" d="M16 2c7.732 0 14 6.268 14 14s-6.268 14-14 14S2 23.732 2 16 8.268 2 16 2m0 2C9.373 4 4 9.373 4 16s5.373 12 12 12 12-5.373 12-12S22.627 4 16 4" clip-rule="evenodd"/><path d="M9.295 9.345a1.007 1.007 0 0 1 1.424 0l11.986 11.986a1.007 1.007 0 0 1-1.425 1.424L9.295 10.77a1.007 1.007 0 0 1 0-1.425"/><path d="M9.295 22.755a1.007 1.007 0 0 1 0-1.424L21.281 9.345a1.007 1.007 0 1 1 1.424 1.425L10.72 22.755a1.007 1.007 0 0 1-1.425 0"/></svg>