<svg width="17" height="17" xmlns="http://www.w3.org/2000/svg" xmlns:xlink="http://www.w3.org/1999/xlink"><defs><path d="M5 8.75h6.25V10H5V8.75zM9.634 2.5l4.116 4.116v4.634h3.75c.345 0 .625.28.625.625v6.25c0 .345-.28.625-.625.625H3.125a.625.625 0 01-.625-.625V3.75c0-.92.251-1.219 1.102-1.248L3.75 2.5h5.884zm-3.71 10.042c-.412 0-.775.098-1.088.294a1.895 1.895 0 00-.72.832c-.167.36-.25.778-.25 1.257v.242c0 .763.184 1.354.553 1.772.37.419.875.628 1.518.628.39 0 .735-.071 1.039-.215.303-.143.538-.345.706-.606.168-.26.26-.56.276-.901H6.786c-.009.278-.085.48-.228.608-.143.127-.35.191-.621.191-.32 0-.546-.112-.677-.336-.13-.224-.196-.596-.196-1.118v-.345c.007-.481.078-.832.215-1.051.136-.22.351-.329.644-.329.289 0 .504.065.645.195.14.13.216.343.225.64h1.175c-.05-.547-.254-.978-.615-1.29-.36-.312-.837-.468-1.43-.468zm4.464.003c-.36 0-.685.058-.973.173a1.53 1.53 0 00-.67.483 1.15 1.15 0 00-.237.717c0 .544.317.971.95 1.283.195.096.446.195.752.298.307.103.521.203.643.299.122.096.183.23.183.403 0 .152-.057.27-.17.354-.113.084-.266.126-.461.126-.305 0-.524-.062-.66-.186-.135-.125-.203-.318-.203-.58H8.36c0 .323.082.608.244.855.162.247.404.442.725.584.321.142.68.213 1.076.213.562 0 1.004-.122 1.326-.366.322-.244.483-.58.483-1.007 0-.535-.264-.954-.792-1.259a4.339 4.339 0 00-.833-.35c-.337-.109-.574-.214-.708-.316-.134-.102-.201-.215-.201-.34 0-.144.06-.262.183-.355.122-.093.288-.14.498-.14.208 0 .373.056.495.165.122.11.183.264.183.463h1.175c0-.297-.077-.562-.231-.793a1.496 1.496 0 00-.65-.536 2.28 2.28 0 00-.945-.188zm3.357.067h-1.306l1.632 4.888h1.289l1.645-4.888h-1.316l-.974 3.559-.97-3.559zM8.75 3.75h-5l-.001 7.5h8.75V7.5H8.75V3.75zm1.25.884V6.25h1.616L10 4.634z" id="a"/></defs><use xlink:href="#a" transform="translate(-2 -2)"/></svg>