<svg xmlns="http://www.w3.org/2000/svg" xmlns:xlink="http://www.w3.org/1999/xlink" viewBox="0 0 32 32"><defs><path id="a" d="M8 14h10v2H8v-2zm7.414-10L22 10.586V18h6a1 1 0 0 1 1 1v10a1 1 0 0 1-1 1H5a1 1 0 0 1-1-1V6c0-1.552.448-2 2-2h9.414zM9.477 20.067c-.659 0-1.239.157-1.74.47a3.032 3.032 0 0 0-1.152 1.332c-.267.575-.4 1.245-.4 2.011v.387c0 1.221.295 2.166.886 2.836.59.67 1.4 1.004 2.428 1.004.623 0 1.177-.114 1.662-.343.485-.23.862-.553 1.13-.97.27-.417.416-.898.441-1.442h-1.874c-.015.444-.136.768-.366.972-.229.204-.56.306-.993.306-.512 0-.873-.179-1.082-.537-.21-.358-.315-.954-.315-1.788v-.554c.011-.77.126-1.33.344-1.68.218-.352.562-.527 1.031-.527.462 0 .806.104 1.032.311.225.208.345.55.36 1.026h1.88c-.08-.877-.407-1.565-.984-2.065-.576-.5-1.339-.75-2.288-.75zm7.144.005a4.17 4.17 0 0 0-1.558.277c-.462.184-.819.442-1.071.773a1.84 1.84 0 0 0-.379 1.147c0 .87.507 1.554 1.52 2.052.312.154.713.313 1.203.478.49.165.834.324 1.029.478.195.154.292.369.292.644 0 .244-.09.433-.27.567-.182.134-.428.201-.74.201-.486 0-.838-.099-1.055-.298-.216-.198-.325-.507-.325-.926h-1.89c0 .515.13.971.39 1.367.259.395.645.707 1.16.934a4.21 4.21 0 0 0 1.72.341c.9 0 1.607-.195 2.122-.585.516-.39.774-.927.774-1.611 0-.856-.423-1.528-1.268-2.015-.347-.2-.791-.387-1.332-.56-.54-.174-.918-.343-1.133-.506-.215-.163-.322-.344-.322-.545 0-.229.097-.418.292-.566.195-.15.461-.223.798-.223.333 0 .597.087.792.263.195.175.293.422.293.741h1.88c0-.476-.124-.9-.37-1.27a2.394 2.394 0 0 0-1.04-.857c-.446-.2-.95-.3-1.512-.3zm5.37.108h-2.088l2.61 7.82h2.062l2.632-7.82h-2.105l-1.558 5.693-1.552-5.693zM14 6H6l-.001 12h14v-6H14V6zm2 1.415V10h2.585L16 7.415z"/></defs><use xlink:href="#a" fill-rule="evenodd"/></svg>