<svg xmlns="http://www.w3.org/2000/svg" viewBox="0 0 32 32"><path fill-rule="evenodd" d="M26 3a2 2 0 0 1 2 2v6c0 .364-.097.706-.268 1 .17.293.268.635.268 1v6c0 .365-.098.707-.268 1.001.17.293.268.635.268.999v6a2 2 0 0 1-2 2H6a2 2 0 0 1-2-2v-6c0-.364.097-.706.268-1A1.989 1.989 0 0 1 4 19v-6c0-.364.097-.706.268-1A1.989 1.989 0 0 1 4 11V5a2 2 0 0 1 2-2h20zm0 18H6v6h20v-6zm-3 2a1 1 0 0 1 0 2h-2a1 1 0 0 1 0-2h2zm3-10H6v6h20v-6zm-3 2a1 1 0 0 1 0 2h-2a1 1 0 0 1 0-2h2zm3-10H6v6h20V5zm-5 2h2a1 1 0 0 1 0 2h-2a1 1 0 0 1 0-2z"/></svg>