<svg width="18" height="18" xmlns="http://www.w3.org/2000/svg" xmlns:xlink="http://www.w3.org/1999/xlink"><defs><path d="M10 1.25a1.25 1.25 0 01.627 2.332v2.72a3.73 3.73 0 011.545.64l1.924-1.922a1.25 1.25 0 11.885.885l-1.923 1.924c.32.451.544.976.64 1.545h2.72a1.25 1.25 0 110 1.253h-2.72a3.73 3.73 0 01-.64 1.545l1.922 1.924a1.25 1.25 0 11-.885.885l-1.924-1.923a3.73 3.73 0 01-1.545.64v2.72a1.25 1.25 0 11-1.251 0v-2.72a3.73 3.73 0 01-1.547-.64L5.905 14.98a1.25 1.25 0 11-.885-.885l1.923-1.924a3.73 3.73 0 01-.64-1.545H3.581a1.25 1.25 0 110-1.252h2.72a3.73 3.73 0 01.64-1.546L5.019 5.905a1.25 1.25 0 11.885-.885l1.924 1.922a3.73 3.73 0 011.547-.64v-2.72A1.25 1.25 0 0110 1.25zm0 6.25a2.5 2.5 0 100 5 2.5 2.5 0 000-5z" id="a"/></defs><use xlink:href="#a" transform="translate(-1 -1)"/></svg>