<svg width="16" height="16" xmlns="http://www.w3.org/2000/svg" xmlns:xlink="http://www.w3.org/1999/xlink"><defs><path d="M16.25 2.5c.69 0 1.25.56 1.25 1.25v12.5c0 .69-.56 1.25-1.25 1.25H3.75c-.69 0-1.25-.56-1.25-1.25V3.75c0-.69.56-1.25 1.25-1.25h12.5zM6.25 15h-2.5v1.25h2.5V15zm10 0h-5v1.25h5V15zM10 15H7.5v1.25H10V15zm-3.75-2.5h-2.5v1.25h2.5V12.5zm10 0h-5v1.25h5V12.5zm-6.25 0H7.5v1.25H10V12.5zM6.25 10h-2.5v1.25h2.5V10zm10 0h-5v1.25h5V10zM10 10H7.5v1.25H10V10zM6.25 7.5h-2.5v1.25h2.5V7.5zm10 0h-5v1.25h5V7.5zM10 7.5H7.5v1.25H10V7.5zM6.25 3.75h-2.5v2.5h2.5v-2.5zm10 0h-5v2.5h5v-2.5zm-6.25 0H7.5v2.5H10v-2.5z" id="a"/></defs><use xlink:href="#a" transform="translate(-2 -2)" fill-rule="evenodd"/></svg>