<svg width="16" height="18" xmlns="http://www.w3.org/2000/svg" xmlns:xlink="http://www.w3.org/1999/xlink"><defs><path d="M16.25 11.875c.69 0 1.25.56 1.25 1.25v3.75c0 .69-.56 1.25-1.25 1.25H3.75c-.69 0-1.25-.56-1.25-1.25v-3.75c0-.69.56-1.25 1.25-1.25h12.5zm0 1.25H3.75v3.75h12.5v-3.75zm-1.875 1.25a.625.625 0 110 1.25h-1.25a.625.625 0 110-1.25h1.25zm1.875-7.5c.69 0 1.25.56 1.25 1.25v3.75c0 .69-.56 1.25-1.25 1.25H3.75c-.69 0-1.25-.56-1.25-1.25v-3.75c0-.69.56-1.25 1.25-1.25h12.5zm0 1.25H3.75v3.75h12.5v-3.75zm-1.875 1.25a.625.625 0 110 1.25h-1.25a.625.625 0 110-1.25h1.25zM3.75 1.875h12.5c.69 0 1.25.56 1.25 1.25v3.75c0 .69-.56 1.25-1.25 1.25H3.75c-.69 0-1.25-.56-1.25-1.25v-3.75c0-.69.56-1.25 1.25-1.25zm0 1.25v3.75h12.5v-3.75H3.75zm9.375 1.25h1.25a.625.625 0 110 1.25h-1.25a.625.625 0 110-1.25z" id="a"/></defs><use xlink:href="#a" transform="translate(-2 -1)"/></svg>