<svg width="16" height="16" xmlns="http://www.w3.org/2000/svg" xmlns:xlink="http://www.w3.org/1999/xlink"><defs><path d="M5.625 17.5a.625.625 0 110-1.25h2.5v-2.5h3.75v2.5h2.5a.625.625 0 110 1.25h-8.75zm-1.25-15h11.25c1.036 0 1.875.84 1.875 1.875v7.5c0 1.036-.84 1.875-1.875 1.875H4.375A1.875 1.875 0 012.5 11.875v-7.5c0-1.036.84-1.875 1.875-1.875zm0 1.25a.625.625 0 00-.625.625v7.5c0 .345.28.625.625.625h11.25c.345 0 .625-.28.625-.625v-7.5a.625.625 0 00-.625-.625H4.375zM5 5h10v1.25H5V5z" id="a"/></defs><use xlink:href="#a" transform="translate(-2 -2)"/></svg>