<svg xmlns="http://www.w3.org/2000/svg" xmlns:xlink="http://www.w3.org/1999/xlink" viewBox="0 0 32 32"><defs><path id="a" d="M23 4a1 1 0 0 1 1 1v6a1 1 0 0 1-1 1h-6v3h8v4.714L31 24l-7 5-7-5 6-4.286V17H9v2.562c2.838.357 5 2.208 5 4.438 0 2.485-2.686 4.5-6 4.5S2 26.485 2 24c0-2.23 2.163-4.081 5-4.438V15h8v-3H9a1 1 0 0 1-1-1V5a1 1 0 0 1 1-1h14zm1 17.458L20.44 24 24 26.542 27.56 24 24 21.458zM8 21.5c-2.34 0-4 1.384-4 2.5s1.66 2.5 4 2.5 4-1.384 4-2.5-1.66-2.5-4-2.5zM22 6H10v4h12V6z"/></defs><use xlink:href="#a" fill-rule="evenodd"/></svg>