<svg width="19" height="17" xmlns="http://www.w3.org/2000/svg" xmlns:xlink="http://www.w3.org/1999/xlink"><defs><path d="M15.625 9.375v2.946L19.375 15 15 18.125 10.625 15l3.75-2.679V9.375h1.25zM15 13.411L12.776 15 15 16.589 17.224 15 15 13.411zM10.625 6.25v3.125h5v1.25h-10v1.601C7.4 12.45 8.75 13.606 8.75 15c0 1.553-1.679 2.813-3.75 2.813-2.071 0-3.75-1.26-3.75-2.813 0-1.394 1.352-2.55 3.125-2.774V9.375h5V6.25h1.25zM5 13.438c-1.462 0-2.5.864-2.5 1.562 0 .698 1.038 1.563 2.5 1.563S7.5 15.697 7.5 15 6.462 13.437 5 13.437zM14 2.5a1 1 0 011 1v3a1 1 0 01-1 1H6a1 1 0 01-1-1v-3a1 1 0 011-1h8zm-.25 1.25h-7.5v2.5h7.5v-2.5z" id="a"/></defs><use xlink:href="#a" transform="translate(-1 -2)"/></svg>