<svg xmlns="http://www.w3.org/2000/svg" viewBox="0 0 32 32"><path d="M23.683 3.005A3.5 3.5 0 0 1 27 6.5l-.009.245a3.5 3.5 0 0 1-.119.685A3.5 3.5 0 0 1 28 10l-.009.245a3.5 3.5 0 0 1-.119.684A3.5 3.5 0 0 1 29 13.5l-.006.201a3.5 3.5 0 0 1-.554 1.69c.352.522.56 1.15.56 1.828l-.004.169A3.283 3.283 0 0 1 25.72 20.5h-5.382l2.065 5.682.078.245a3 3 0 0 1-1.024 3.125l-.208.151-1.693 1.128a1.003 1.003 0 0 1-1.399-.295l-4.379-6.882-3.522-3.1A2 2 0 0 1 9 21H5a2 2 0 0 1-2-2V7a2 2 0 0 1 2-2h4l.204.01c.313.032.604.137.857.296.447-.252 1.115-.61 1.9-.967C13.362 3.703 15.276 2.999 17 3h6.502zM17 5c-1.274 0-2.86.546-4.21 1.16-.753.342-1.387.686-1.79.914v11.524a1 1 0 0 1 .23.152l3.976 3.499.1.1q.045.054.084.114l3.905 6.138.844-.561.133-.106c.244-.232.355-.572.295-.904l-.044-.164-2.553-7.023a1 1 0 0 1 .94-1.342h6.809c.663 0 1.208-.505 1.274-1.15L27 17.22c0-.41-.195-.777-.503-1.015a1.003 1.003 0 0 1-.033-1.557c.289-.244.482-.589.526-.978l.01-.17a1.5 1.5 0 0 0-.814-1.333 1 1 0 0 1-.4-1.401 1.5 1.5 0 0 0 .2-.562L26 10a1.5 1.5 0 0 0-.814-1.333 1 1 0 0 1-.4-1.401c.136-.228.214-.49.214-.767l-.008-.153a1.5 1.5 0 0 0-1.337-1.34L23.502 5zM5 19h4V7H5z"/></svg>