<svg xmlns="http://www.w3.org/2000/svg" viewBox="0 0 32 32"><path fill-rule="evenodd" d="M8 14h10v2H8v-2zm7.414-10L22 10.586V18h6a1 1 0 011 1v10a1 1 0 01-1 1H5a1 1 0 01-1-1V6c0-1.493.414-1.964 1.826-1.998L6 4h9.414zm.899 15.872c-.67 0-1.267.16-1.792.478a3.134 3.134 0 00-1.208 1.356c-.281.586-.422 1.262-.422 2.028v.44c.014.738.166 1.392.454 1.961a3.13 3.13 0 001.206 1.313c.515.306 1.106.46 1.772.46.666 0 1.26-.159 1.78-.476a3.136 3.136 0 001.207-1.356c.282-.587.424-1.262.424-2.025v-.36c-.004-.752-.15-1.419-.438-2a3.185 3.185 0 00-1.211-1.346c-.52-.315-1.11-.473-1.773-.473zm7.465-.005c-.659 0-1.239.157-1.74.47a3.032 3.032 0 00-1.152 1.332c-.267.575-.4 1.245-.4 2.011v.387c0 1.221.295 2.166.886 2.836.59.67 1.4 1.004 2.428 1.004.623 0 1.177-.114 1.662-.343.485-.23.862-.553 1.13-.97.27-.417.416-.898.441-1.442H25.16c-.015.444-.136.768-.366.972-.229.204-.56.306-.993.306-.512 0-.873-.179-1.082-.537-.21-.358-.315-.954-.315-1.788v-.554c.011-.77.126-1.33.344-1.68.218-.352.562-.527 1.031-.527.462 0 .806.104 1.032.311.225.208.345.55.36 1.026h1.88c-.08-.877-.407-1.565-.984-2.065-.576-.5-1.339-.75-2.288-.75zM8.52 19.98H6v7.82h2.573a3.624 3.624 0 001.84-.486c.549-.32.975-.765 1.278-1.332.302-.568.454-1.21.454-1.926v-.36a4.005 4.005 0 00-.47-1.92 3.303 3.303 0 00-1.292-1.326c-.552-.314-1.173-.47-1.864-.47zm7.793 1.37c.484 0 .855.2 1.115.604.26.402.39.992.39 1.77v.36c-.004.758-.135 1.34-.393 1.745-.257.404-.625.607-1.1.607-.502 0-.88-.206-1.134-.618-.254-.412-.381-1-.381-1.767l.005-.575c.054-1.418.553-2.127 1.498-2.127zm-7.793.085c.555 0 .978.192 1.268.575.29.383.435.952.435 1.708v.338c0 .76-.145 1.331-.435 1.716-.29.385-.706.578-1.246.578h-.656v-4.915h.634zM14 6H6l-.001 12h14v-6H14V6zm2 1.415V10h2.585L16 7.415z"/></svg>