<svg width="17" height="17" xmlns="http://www.w3.org/2000/svg"><path d="M3 6.75h6.25V8H3V6.75zM7.634.5l4.116 4.116V9.25h3.75c.345 0 .625.28.625.625v6.25c0 .345-.28.625-.625.625H1.125a.625.625 0 01-.625-.625V1.75C.5.817.759.523 1.641.501L1.75.5h5.884zm.561 9.92c-.418 0-.791.1-1.12.299-.327.2-.579.482-.755.848-.175.365-.263.788-.263 1.267v.275a2.8 2.8 0 00.284 1.225c.18.356.431.63.753.821.323.191.692.287 1.108.287.416 0 .787-.099 1.113-.297a1.96 1.96 0 00.753-.848c.177-.367.266-.788.266-1.265v-.225a2.812 2.812 0 00-.274-1.25 1.99 1.99 0 00-.757-.841 2.093 2.093 0 00-1.108-.296zm4.666-.003c-.411 0-.774.098-1.087.294a1.895 1.895 0 00-.72.832c-.167.36-.25.778-.25 1.257v.242c0 .763.184 1.354.554 1.772.369.419.875.628 1.517.628.39 0 .736-.071 1.039-.215.303-.143.539-.345.706-.606.168-.26.26-.56.276-.901h-1.172c-.009.278-.085.48-.228.608-.143.127-.35.191-.621.191-.32 0-.546-.112-.677-.336-.13-.224-.196-.596-.196-1.118v-.345c.007-.481.078-.832.215-1.051.136-.22.351-.329.644-.329.29 0 .504.065.645.195.141.13.216.343.225.64h1.175c-.05-.547-.254-.978-.614-1.29-.36-.312-.837-.468-1.43-.468zm-9.537.07H1.75v4.888h1.608a2.265 2.265 0 001.15-.304c.343-.2.61-.478.799-.832a2.52 2.52 0 00.283-1.204v-.225a2.503 2.503 0 00-.293-1.2 2.065 2.065 0 00-.808-.829 2.316 2.316 0 00-1.165-.294zm4.871.856a.78.78 0 01.697.378c.162.252.243.62.243 1.106v.225c-.002.474-.084.838-.245 1.091a.77.77 0 01-.688.38.78.78 0 01-.708-.387c-.16-.257-.239-.625-.239-1.104l.004-.36c.033-.886.345-1.329.936-1.329zm-4.87.054c.346 0 .61.12.792.36.18.239.272.595.272 1.067v.211c0 .475-.091.832-.272 1.073-.182.24-.441.36-.78.36h-.409v-3.071h.396zM6.75 1.75h-5v7.5h8.75V5.5H6.75V1.75zM8 2.634V4.25h1.616L8 2.634z"/></svg>