<svg width="15" height="18" xmlns="http://www.w3.org/2000/svg"><path d="M7.509.5l4.116 4.116.001 5.311a3.751 3.751 0 11-3.874 5.574L1.647 15.5c-.95 0-1.25-.254-1.27-1.14l-.002-.11V1.75C.375.817.634.523 1.516.501L1.625.5h5.884zM11 11.125a.625.625 0 00-.625.625V13h-1.25a.625.625 0 00-.073 1.246l.073.004h1.25v1.25c0 .32.241.585.552.62l.073.005c.345 0 .625-.28.625-.625v-1.25h1.25a.625.625 0 100-1.25h-1.25v-1.25a.625.625 0 00-.552-.62L11 11.124zM6.625 1.75h-5v12.5l5.677.001a3.775 3.775 0 010-1.252L2.875 13v-1.25h4.877a3.77 3.77 0 011.175-1.25H2.875V9.25h6.25v1.127c.38-.22.8-.375 1.249-.45V5.5H6.625V1.75zm2.5 5V8h-6.25V6.75h6.25zm-1.25-4.116V4.25h1.616L7.875 2.634z"/></svg>