<svg xmlns="http://www.w3.org/2000/svg" viewBox="0 0 32 32"><path fill-rule="evenodd" d="M18.414 4 25 10.586l.002 8.497A6.002 6.002 0 0 1 24 31a5.998 5.998 0 0 1-5.196-2.998L9.035 28c-1.519 0-1.998-.407-2.033-1.825L7 26V6c0-1.493.414-1.964 1.826-1.998L9 4h9.414zM24 21a1 1 0 0 0-1 1v2h-2a1 1 0 0 0-.117 1.993L21 26h2v2a1 1 0 0 0 .883.993L24 29a1 1 0 0 0 1-1v-2h2a1 1 0 0 0 0-2h-2v-2a1 1 0 0 0-.883-.993L24 21zM17 6H9v20l9.083.002a6.04 6.04 0 0 1 0-2.003L11 24v-2l7.803-.001a6.03 6.03 0 0 1 1.88-2L11 20v-2h10v1.803a5.96 5.96 0 0 1 1.998-.72L23 12h-6V6zm4 8v2H11v-2h10zm-2-6.585V10h2.585L19 7.415z"/></svg>