<svg width="15" height="18" xmlns="http://www.w3.org/2000/svg" xmlns:xlink="http://www.w3.org/1999/xlink"><defs><path d="M6.875 13.75h5V15h-5v-1.25zm0-2.5h6.25v1.25h-6.25v-1.25zm0-2.5h6.25V10h-6.25V8.75zm4.634-6.25l4.116 4.116.001 5.947a3.14 3.14 0 00-1.252 0V7.5h-3.749V3.75h-5v12.5h6.313c.094.463.29.888.563 1.251L5.647 17.5c-.935 0-1.24-.247-1.27-1.102l-.002-.148V3.75c0-.92.251-1.219 1.102-1.248l.148-.002h5.884zm1.982 3.75l-1.616-1.616V6.25h1.616zM15 11.875a3.75 3.75 0 110 7.5 3.75 3.75 0 010-7.5zm2.325 2.05a.596.596 0 00-.846 0l-2.113 2.125-.845-.85a.596.596 0 00-.846 0 .603.603 0 000 .85l1.268 1.274a.596.596 0 00.846 0l2.536-2.549a.603.603 0 000-.85z" id="a"/></defs><use xlink:href="#a" transform="translate(-4 -2)"/></svg>