<svg xmlns="http://www.w3.org/2000/svg" viewBox="0 0 32 32"><path fill-rule="evenodd" d="M18.803 28.001 9.035 28c-1.519 0-1.998-.407-2.033-1.825L7 26V6c0-1.493.414-1.964 1.826-1.998L9 4h9.414L25 10.586v8.497l-.037-.006A6.002 6.002 0 0 1 24 31a5.998 5.998 0 0 1-5.208-3.018l.011.019zm-.37-.758a5.946 5.946 0 0 1-.04-.101l.04.1zM17 6H9v20l9.083.001.008.045A6.037 6.037 0 0 1 18.083 24H11v-2h7.803a6.03 6.03 0 0 1 1.88-2H11v-2h10v1.803a5.96 5.96 0 0 1 2.037-.726l-.038.006V12H17V6zm9 18h-4a1 1 0 0 0 0 2h4a1 1 0 0 0 0-2zm-2.297-4.993-.08.005c.125-.008.25-.012.377-.012l-.297.007zM21 14v2H11v-2h10zm-2-6.585V10h2.585L19 7.415z"/></svg>