<svg width="15" height="18" xmlns="http://www.w3.org/2000/svg"><path d="M7.752 15.5H1.647c-.95 0-1.25-.254-1.27-1.14l-.002-.11V1.75C.375.817.634.523 1.516.501L1.625.5h5.884l4.116 4.116v5.31l-.023-.003a3.751 3.751 0 11-3.857 5.566l.007.012zm-.231-.473a3.717 3.717 0 01-.025-.063l.025.063zM6.625 1.75h-5v12.5h5.677l.005.029A3.773 3.773 0 017.302 13H2.875v-1.25h4.877a3.77 3.77 0 011.175-1.25H2.875V9.25h6.25v1.127c.386-.224.816-.38 1.273-.454l-.024.004V5.5H6.625V1.75zM12.25 13h-2.5a.625.625 0 100 1.25h2.5a.625.625 0 100-1.25zm-1.436-3.12l-.05.002c.078-.005.157-.007.236-.007l-.186.005zM9.125 6.75V8h-6.25V6.75h6.25zm-1.25-4.116V4.25h1.616L7.875 2.634z"/></svg>