<svg xmlns="http://www.w3.org/2000/svg" viewBox="0 0 32 32"><path d="M17.672 1a2 2 0 0 1 1.414.586l7.328 7.328A2 2 0 0 1 27 10.328V19h4a1 1 0 0 1 1 1v10a1 1 0 0 1-1 1H1a1 1 0 0 1-1-1V20a1 1 0 0 1 1-1h4V3c0-1.552.448-2 2-2zm-5.45 20.072q-1.005 0-1.792.479-.787.477-1.208 1.355-.422.879-.422 2.029v.44q.021 1.105.454 1.96.432.855 1.206 1.313.773.46 1.772.46 1-.001 1.78-.476.782-.475 1.207-1.356.424-.88.424-2.025v-.36q-.006-1.128-.438-2a3.2 3.2 0 0 0-1.21-1.346q-.78-.473-1.773-.473m7.47-.005q-.988 0-1.74.47A3.03 3.03 0 0 0 16.8 22.87q-.4.863-.4 2.012v.387q0 1.83.886 2.835t2.428 1.004q.934 0 1.662-.343.728-.345 1.13-.97.404-.625.441-1.442h-1.874q-.021.666-.365.972t-.994.307q-.768 0-1.082-.537t-.315-1.79v-.552q.017-1.155.344-1.682.327-.525 1.031-.526.693 0 1.032.311.338.312.36 1.027h1.88q-.119-1.316-.983-2.066-.866-.75-2.289-.749M2 21v8h2.632a3.7 3.7 0 0 0 1.882-.497A3.4 3.4 0 0 0 7.82 27.14q.465-.871.465-1.97v-.368a4.1 4.1 0 0 0-.481-1.964 3.4 3.4 0 0 0-1.322-1.358Q5.636 21 4.577 21zm20.96 0 2.231 3.967L22.901 29h2.22l1.345-2.709L27.812 29h2.225l-2.297-4.033L29.977 21h-2.204l-1.307 2.66L25.158 21zm-10.738 1.55q.724 0 1.114.603.39.605.39 1.77v.36q-.006 1.14-.393 1.746t-1.1.607q-.753 0-1.134-.617-.382-.618-.381-1.768l.005-.574q.08-2.127 1.499-2.127m-7.645-.06q.852 0 1.297.587.445.588.444 1.747v.346q0 1.165-.444 1.756-.445.59-1.275.59h-.67V22.49zM7 19h18v-8h-6a2 2 0 0 1-2-2V3H7zM19 9h4.586L19 4.414z"/></svg>