<svg width="16" height="16" xmlns="http://www.w3.org/2000/svg" xmlns:xlink="http://www.w3.org/1999/xlink"><defs><path d="M10 16.25a6.242 6.242 0 005.073-2.6l-2.183-1.26A3.742 3.742 0 0110 13.75a3.742 3.742 0 01-2.89-1.36l-2.183 1.26A6.242 6.242 0 0010 16.25zm-3.516-4.942a3.751 3.751 0 012.89-5.006l.001-2.521a6.25 6.25 0 00-5.074 8.788l2.183-1.261zM16.25 10c0-1.5-.529-2.878-1.41-3.955l-1.783 1.782a3.759 3.759 0 01.459 3.481l2.183 1.26A6.216 6.216 0 0016.25 10zm-5.625-6.22v2.522a3.73 3.73 0 011.548.641l1.782-1.782a6.221 6.221 0 00-3.33-1.38zM10 17.5a7.5 7.5 0 110-15 7.5 7.5 0 010 15zm0-5a2.5 2.5 0 100-5 2.5 2.5 0 000 5z" id="a"/></defs><use xlink:href="#a" transform="translate(-2 -2)" fill-rule="evenodd"/></svg>