<svg xmlns="http://www.w3.org/2000/svg" viewBox="0 0 32 32"><path d="M19 13a1 1 0 0 1 .781.375l.001.002.004.005.012.016.045.056.165.213a42 42 0 0 1 2.344 3.402c.64 1.04 1.293 2.222 1.789 3.399.488 1.16.859 2.398.859 3.532a6 6 0 0 1-12 0c0-1.134.37-2.372.86-3.532.495-1.177 1.148-2.358 1.788-3.399a42 42 0 0 1 2.51-3.615l.044-.056.012-.016.004-.005v-.001c.19-.237.478-.376.782-.376m0 2.661a40 40 0 0 0-1.648 2.457c-.61.99-1.207 2.076-1.649 3.125C15.254 22.31 15 23.26 15 24a4 4 0 0 0 8 0c0-.741-.254-1.69-.703-2.757-.442-1.05-1.039-2.134-1.649-3.125A40 40 0 0 0 19 15.661M10 5a1 1 0 0 1 .781.375l.001.002.003.004.01.013.037.045.133.173a34 34 0 0 1 1.887 2.738c.515.838 1.043 1.792 1.445 2.747.395.937.703 1.957.703 2.903a5 5 0 0 1-10 0c0-.946.308-1.966.703-2.903.402-.955.93-1.909 1.445-2.746a34 34 0 0 1 1.887-2.739l.133-.173.037-.045.01-.013.003-.004v-.001C9.409 5.139 9.697 5 10 5m0 2.672a31 31 0 0 0-1.148 1.727c-.485.788-.957 1.646-1.305 2.473C7.192 12.716 7 13.446 7 14a3 3 0 1 0 6 0c0-.554-.192-1.284-.547-2.128-.348-.827-.82-1.685-1.305-2.473A31 31 0 0 0 10 7.672M23 2a1 1 0 0 1 .781.375l.001.002.002.003.008.01.028.036.102.13a25 25 0 0 1 1.43 2.075c.39.635.793 1.363 1.101 2.095C26.754 7.44 27 8.24 27 9a4 4 0 0 1-8 0c0-.759.246-1.56.547-2.274.308-.732.711-1.46 1.101-2.094a25 25 0 0 1 1.532-2.206l.028-.036.008-.01.002-.003v-.001c.19-.237.478-.376.782-.376m0 2.693a21 21 0 0 0-.648.988c-.36.584-.707 1.216-.961 1.82C21.129 8.121 21 8.634 21 9a2 2 0 1 0 4 0c0-.366-.13-.878-.39-1.499a14 14 0 0 0-.962-1.82A21 21 0 0 0 23 4.693"/></svg>