<svg width="13" height="12" xmlns="http://www.w3.org/2000/svg" xmlns:xlink="http://www.w3.org/1999/xlink"><defs><path d="M10.012 2.5c.788-.001 1.348.37 1.643.959.167.333.22.653.22.895l-.017 10.053-1.873 3.718-1.86-3.712.017-10.052c0-.243.055-.563.223-.897.297-.59.858-.963 1.647-.964zm.615 3.725l-1.244.003-.013 7.89.62 1.238.624-1.24.013-7.891zm-.617-2.487c-.3 0-.44.094-.533.278a.868.868 0 00-.09.343l-.002.63 1.244-.002.002-.63a.863.863 0 00-.09-.343c-.092-.184-.231-.276-.531-.276z" id="a"/></defs><use transform="rotate(45 12.828 3.484)" xlink:href="#a"/></svg>