<svg xmlns="http://www.w3.org/2000/svg" viewBox="0 0 32 32"><path fill-rule="evenodd" d="M23.033 1.88a3.007 3.007 0 0 1 4.252 0l2.834 2.835a3.007 3.007 0 0 1 0 4.252L25 14.087V28a3 3 0 0 1-3 3H4a3 3 0 0 1-3-3V10a3 3 0 0 1 3-3h13.914zM4 9a1 1 0 0 0-1 1v18a1 1 0 0 0 1 1h18a1 1 0 0 0 1-1V16.087l-6.5 6.5a1 1 0 0 1-.373.236L7.34 25.94a1.003 1.003 0 0 1-1.28-1.28l3.118-8.787c.05-.14.13-.268.235-.373l6.5-6.5zm4.38 13.687c.184.117.36.254.52.414q.239.241.413.518l5.256-1.936-4.253-4.252zm6.188-3.838 1.418 1.417 10.59-10.59-1.417-1.418zm-2.835-2.835 1.418 1.417 10.59-10.59-1.417-1.418zM25.868 3.297a1 1 0 0 0-1.417 0l-.709.71 4.252 4.251.71-.709a1 1 0 0 0 0-1.417z" clip-rule="evenodd"/></svg>