<svg width="16" height="16" xmlns="http://www.w3.org/2000/svg" xmlns:xlink="http://www.w3.org/1999/xlink"><defs><path d="M10 17.5a7.5 7.5 0 100-15 7.5 7.5 0 000 15zm0-1.25a6.25 6.25 0 110-12.5 6.25 6.25 0 010 12.5zm2.5-6.875a1.25 1.25 0 100-2.5 1.25 1.25 0 000 2.5zm-6.113 3.047c1.5-1.875 5.726-1.875 7.226 0a.625.625 0 11-.976.78c-1-1.249-4.274-1.249-5.274 0a.625.625 0 11-.976-.78zM7.5 6.875a1.25 1.25 0 110 2.5 1.25 1.25 0 010-2.5z" id="a"/></defs><use xlink:href="#a" transform="translate(-2 -2)"/></svg>