<svg xmlns="http://www.w3.org/2000/svg" xmlns:xlink="http://www.w3.org/1999/xlink" viewBox="0 0 32 32"><defs><path id="a" d="M16 28c6.627 0 12-5.373 12-12S22.627 4 16 4 4 9.373 4 16s5.373 12 12 12zm0-2c-5.523 0-10-4.477-10-10S10.477 6 16 6s10 4.477 10 10-4.477 10-10 10zm4-11a2 2 0 1 0 0-4 2 2 0 0 0 0 4zm-9.78 5.323c2.4-3.097 9.16-3.097 11.56 0a1.055 1.055 0 0 1-.155 1.45.979.979 0 0 1-1.406-.16c-1.6-2.065-6.838-2.065-8.438 0a.979.979 0 0 1-1.406.16 1.055 1.055 0 0 1-.156-1.45zM12 11a2 2 0 1 1 0 4 2 2 0 0 1 0-4z"/></defs><use xlink:href="#a" fill-rule="evenodd"/></svg>