<svg width="18" height="18" xmlns="http://www.w3.org/2000/svg" xmlns:xlink="http://www.w3.org/1999/xlink"><defs><path d="M16.25 13.75a2.5 2.5 0 110 5 2.5 2.5 0 010-5zm-6.25 0a2.5 2.5 0 110 5 2.5 2.5 0 010-5zm-6.25 0a2.5 2.5 0 110 5 2.5 2.5 0 010-5zM16.25 15a1.25 1.25 0 100 2.5 1.25 1.25 0 000-2.5zM10 15a1.25 1.25 0 100 2.5 1.25 1.25 0 000-2.5zm-6.25 0a1.25 1.25 0 100 2.5 1.25 1.25 0 000-2.5zm10-.626v.001h-.362l.363-.001zm-6.996 0v.001H6.25l.504-.001zm-5.505 0h.002l-.002.001v-.001zm5.566-4.787l.358.108a7.514 7.514 0 014.065 3.015 3.73 3.73 0 00-1.74-.177 6.268 6.268 0 00-2.337-1.525L5 13.17l-2.16-2.16a6.235 6.235 0 00-1.592.867l.001-1.497a7.461 7.461 0 011.578-.684l.358-.108L5 11.402l1.815-1.815zm10 0l.358.108a7.461 7.461 0 011.578.684v1.496a6.235 6.235 0 00-1.59-.867L15 13.17l-2.16-2.16a6.218 6.218 0 00-.966.452 8.742 8.742 0 00-.858-.94 7.392 7.392 0 011.81-.826l.359-.108L15 11.402l1.815-1.815zM15 1.25a3.75 3.75 0 110 7.5 3.75 3.75 0 010-7.5zm-10 0a3.75 3.75 0 110 7.5 3.75 3.75 0 010-7.5zM15 2.5a2.5 2.5 0 100 5 2.5 2.5 0 000-5zm-10 0a2.5 2.5 0 100 5 2.5 2.5 0 000-5z" id="a"/></defs><use xlink:href="#a" transform="translate(-1 -1)"/></svg>