<svg xmlns="http://www.w3.org/2000/svg" viewBox="0 0 32 32"><path d="M23 13c1.783 0 2.913-.012 3.855.294a6 6 0 0 1 3.851 3.851c.306.942.294 2.072.294 3.855v9a1 1 0 0 1-1 1H2a1 1 0 0 1-1-1v-9c0-1.783-.012-2.913.294-3.855a6 6 0 0 1 3.852-3.851C6.087 12.988 7.216 13 9 13a1 1 0 0 1 0 2c-1.939 0-2.672.012-3.236.195a4 4 0 0 0-2.569 2.569C3.012 18.328 3 19.06 3 21v8h3.004c.005-.526.018-.764.067-1.365.073-.896.227-1.66.583-2.359a6 6 0 0 1 2.622-2.622c.7-.356 1.463-.51 2.359-.583C12.519 22 13.617 22 15 22h2c1.384 0 2.481 0 3.365.071.896.073 1.66.227 2.359.583a6 6 0 0 1 2.622 2.622c.356.7.51 1.463.583 2.359.049.601.062.839.067 1.365H29v-8c0-1.94-.012-2.672-.195-3.236a4 4 0 0 0-2.569-2.569C25.672 15.012 24.94 15 23 15a1 1 0 1 1 0-2m-8 11c-1.416 0-2.419 0-3.202.064-.772.064-1.244.183-1.614.372a4 4 0 0 0-1.748 1.748c-.19.37-.308.842-.372 1.614-.047.585-.056.292-.06 1.202h15.991c-.003-.91-.012-.617-.06-1.202-.062-.772-.182-1.244-.37-1.614a4 4 0 0 0-1.749-1.748c-.37-.19-.842-.308-1.614-.372C19.42 24 18.416 24 17 24zm1-13a5 5 0 1 1 0 10 5 5 0 0 1 0-10m0 2a3 3 0 1 0 0 6 3 3 0 0 0 0-6M9 1a5 5 0 1 1 0 10A5 5 0 0 1 9 1m14 0a5 5 0 1 1 0 10 5 5 0 0 1 0-10M9 3a3 3 0 1 0 0 6 3 3 0 0 0 0-6m14 0a3 3 0 1 0 0 6 3 3 0 0 0 0-6"/></svg>