<svg xmlns="http://www.w3.org/2000/svg" xmlns:xlink="http://www.w3.org/1999/xlink" viewBox="0 0 32 32"><defs><path id="a" d="M26 22a4 4 0 1 1 0 8 4 4 0 0 1 0-8zm-10 0a4 4 0 1 1 0 8 4 4 0 0 1 0-8zM6 22a4 4 0 1 1 0 8 4 4 0 0 1 0-8zm20 2a2 2 0 1 0 0 4 2 2 0 0 0 0-4zm-10 0a2 2 0 1 0 0 4 2 2 0 0 0 0-4zM6 24a2 2 0 1 0 0 4 2 2 0 0 0 0-4zm4.904-8.661.573.173a12.023 12.023 0 0 1 6.503 4.822 5.996 5.996 0 0 0-2.787-.28 10.003 10.003 0 0 0-3.735-2.44L8 21.07l-3.458-3.457A9.977 9.977 0 0 0 2 19v-2.394a11.938 11.938 0 0 1 2.524-1.094l.573-.173L8 18.243l2.904-2.904zm16 0 .573.173c.89.269 1.735.638 2.523 1.094v2.393a9.977 9.977 0 0 0-2.542-1.385L24 21.07l-3.458-3.457a9.95 9.95 0 0 0-1.543.724 14.086 14.086 0 0 0-1.374-1.504 11.87 11.87 0 0 1 2.898-1.322l.573-.173L24 18.243l2.904-2.904zM24 2a6 6 0 1 1 0 12 6 6 0 0 1 0-12zM8 2a6 6 0 1 1 0 12A6 6 0 0 1 8 2zm16 2a4 4 0 1 0 0 8 4 4 0 0 0 0-8zM8 4a4 4 0 1 0 0 8 4 4 0 0 0 0-8z"/></defs><use xlink:href="#a" fill-rule="evenodd"/></svg>