<svg xmlns="http://www.w3.org/2000/svg" viewBox="0 0 32 32"><path d="M16 2c7.732 0 14 6.268 14 14 0 .921-.09 1.821-.26 2.692A8 8 0 0 1 18.691 29.74c-.87.17-1.77.261-2.691.261-7.732 0-14-6.268-14-14S8.268 2 16 2m-1.6 18c-1.153 0-1.898.002-2.465.048-.543.044-.744.12-.843.17a2 2 0 0 0-.874.874c-.05.099-.126.3-.17.844-.046.565-.048 3.296-.048 4.455a11.94 11.94 0 0 0 6.74 1.586A7.96 7.96 0 0 1 15 23c0-1.061.209-2.073.584-3zm8.6-2a1 1 0 0 0-1 1v3h-3a1 1 0 1 0 0 2h3v3a1 1 0 1 0 2 0v-3h3a1 1 0 1 0 0-2h-3v-3a1 1 0 0 0-1-1M16 4C9.373 4 4 9.373 4 16a11.97 11.97 0 0 0 4.007 8.948c.014-1.759.076-3.957.352-4.6l.077-.164a4 4 0 0 1 1.472-1.594l.276-.154c.641-.327 1.432-.409 2.732-.43L14.4 18h2.357A7.98 7.98 0 0 1 23 15c1.88 0 3.608.65 4.974 1.736q.024-.365.026-.736c0-6.627-5.373-12-12-12m0 4a4.5 4.5 0 1 1 0 9 4.5 4.5 0 0 1 0-9m0 2a2.5 2.5 0 1 0 0 5 2.5 2.5 0 0 0 0-5"/></svg>