<svg width="19" height="19" xmlns="http://www.w3.org/2000/svg" xmlns:xlink="http://www.w3.org/1999/xlink"><defs><path d="M17.043 12.584a7.5 7.5 0 10-13.33 1.507 6.44 6.44 0 01.393-.456c.726-.768 1.664-1.39 2.74-1.807a8.484 8.484 0 011.368-.4L10 13.214l1.786-1.786c.475.097.933.232 1.368.4a7.81 7.81 0 011.73.929 3.74 3.74 0 012.159-.173zm-1.008 1.204a.625.625 0 00-.41.587v1.25h-1.25a.625.625 0 100 1.25h1.25v1.25a.625.625 0 101.25 0v-1.25h1.25a.625.625 0 100-1.25h-1.25v-1.25a.625.625 0 00-.84-.587zm-2.315-.306a6.849 6.849 0 00-1.548-.672L10 14.982 7.828 12.81c-1.22.362-2.26 1.02-2.985 1.865-.12.14-.232.285-.334.434A7.48 7.48 0 0010 17.5c.908 0 1.778-.161 2.584-.457a3.74 3.74 0 011.136-3.561zm-.671 4.722a8.75 8.75 0 115.155-5.155 3.75 3.75 0 11-5.155 5.155zM10 11.25A3.125 3.125 0 1110 5a3.125 3.125 0 010 6.25zM10 10a1.875 1.875 0 100-3.75A1.875 1.875 0 0010 10z" id="a"/></defs><use xlink:href="#a" transform="translate(-1 -1)"/></svg>