<svg xmlns="http://www.w3.org/2000/svg" xmlns:xlink="http://www.w3.org/1999/xlink" viewBox="0 0 32 32"><defs><path id="a" d="M27.269 20.134C27.742 18.845 28 17.453 28 16c0-6.627-5.373-12-12-12S4 9.373 4 16c0 2.415.713 4.663 1.94 6.545.197-.25.407-.494.629-.729 1.162-1.229 2.663-2.225 4.385-2.892a13.602 13.602 0 0 1 2.189-.639L16 21.142l2.857-2.857c.76.155 1.493.37 2.19.64a12.47 12.47 0 0 1 2.767 1.486 6.023 6.023 0 0 1 3.455-.276zm-1.614 1.927A1 1 0 0 0 25 23v2h-2a1 1 0 0 0 0 2h2v2a1 1 0 0 0 2 0v-2h2a1 1 0 0 0 0-2h-2v-2a1 1 0 0 0-1.345-.939zm-3.703-.49a10.958 10.958 0 0 0-2.478-1.075L16 23.971l-3.474-3.475c-1.953.579-3.618 1.631-4.777 2.983-.192.224-.37.456-.534.696A11.967 11.967 0 0 0 16 28c1.453 0 2.845-.258 4.134-.731A6.023 6.023 0 0 1 20 26a5.99 5.99 0 0 1 1.952-4.43zm-1.074 7.556A13.97 13.97 0 0 1 16 30C8.268 30 2 23.732 2 16S8.268 2 16 2s14 6.268 14 14c0 1.716-.309 3.36-.873 4.878a6 6 0 1 1-8.249 8.249zM16 18a5 5 0 1 1 0-10 5 5 0 0 1 0 10zm0-2a3 3 0 1 0 0-6 3 3 0 0 0 0 6z"/></defs><use xlink:href="#a" fill-rule="evenodd"/></svg>