<svg width="16" height="18" xmlns="http://www.w3.org/2000/svg"><path d="M1.75.875h12.5c.69 0 1.25.56 1.25 1.25v13.75c0 .69-.56 1.25-1.25 1.25H1.75c-.69 0-1.25-.56-1.25-1.25V2.125c0-.69.56-1.25 1.25-1.25zm0 3.75v11.25h12.5V4.625H1.75zm10 6.25v2.5l1.25 1.25H4.25v-3.75h7.5zm-1.25 1.25h-5v1.25h5v-1.25zm1.25-6.25v3.75H3l1.25-1.25v-2.5h7.5zm-1.25 1.25h-5v1.25h5v-1.25zm-3.125-3.75a.625.625 0 100-1.25.625.625 0 000 1.25zm-2.5-1.25a.625.625 0 110 1.25.625.625 0 010-1.25zm-2.5 0a.625.625 0 110 1.25.625.625 0 010-1.25z" fill-rule="evenodd"/></svg>