<svg xmlns="http://www.w3.org/2000/svg" xmlns:xlink="http://www.w3.org/1999/xlink" viewBox="0 0 32 32"><defs><path id="a" d="M20 12a8 8 0 1 1 0 16 8 8 0 0 1 0-16zm-8 14H4v-2h6.832A9.991 9.991 0 0 0 12 26zm8-12a6 6 0 1 0 0 12 6 6 0 0 0 0-12zm.277 2.25c.577 0 1.045.171 1.388.517.343.345.513.806.513 1.368v.25h-1.43v-.25c0-.198-.046-.337-.132-.43-.083-.088-.201-.133-.373-.133a.379.379 0 0 0-.332.163c-.096.13-.147.307-.147.53l.026.743h1.189v1.31h-1.145l.018.465c0 .237-.031.453-.094.645h2.493l-.006 1.322h-4.48v-1.322h.25l.251.008c.005-.002.026-.026.055-.105.043-.12.067-.29.067-.502l-.018-.512h-.62v-1.309h.58l-.022-.734c0-.611.181-1.108.547-1.475.365-.366.844-.549 1.422-.549zM10 20c0 .685.069 1.354.2 2.001L4 22v-2h6zm.2-2H4v-2h6.832a9.925 9.925 0 0 0-.632 2zm1.8-4H4v-2h9.998A10.059 10.059 0 0 0 12 14zm8-6v2H4V8h16zm0-4v2H4V4h16z"/></defs><use xlink:href="#a" fill-rule="evenodd"/></svg>