<svg width="16" height="16" xmlns="http://www.w3.org/2000/svg" xmlns:xlink="http://www.w3.org/1999/xlink"><defs><path d="M12.5 7.5a5 5 0 110 10 5 5 0 010-10zm-5.73 7.501c.196.446.441.865.73 1.25l-5-.001V15l4.27.001zM12.5 8.75a3.75 3.75 0 100 7.5 3.75 3.75 0 000-7.5zm.173 1.406c.36 0 .653.107.868.324.214.215.32.503.32.855v.156h-.893v-.156c0-.124-.03-.211-.083-.269-.052-.055-.126-.084-.233-.084a.237.237 0 00-.208.102.547.547 0 00-.091.332l.016.464h.743v.818h-.716l.011.292c0 .148-.02.282-.058.403h1.558l-.004.826h-2.8v-.826h.156l.157.004c.003 0 .017-.015.035-.065a.966.966 0 00.041-.314l-.011-.32h-.387v-.818h.363l-.015-.459c0-.382.114-.692.342-.921.229-.23.528-.344.89-.344zM6.25 12.5c0 .428.043.847.125 1.251L2.5 13.75V12.5h3.75zm.52-2.5a6.203 6.203 0 00-.395 1.25H2.5V10h4.27zm1.98-2.5A6.287 6.287 0 007.5 8.75h-5V7.5h6.25zM12.5 5v1.25h-10V5h10zm0-2.5v1.25h-10V2.5h10z" id="a"/></defs><use xlink:href="#a" transform="translate(-2 -2)" fill-rule="evenodd"/></svg>