<svg xmlns="http://www.w3.org/2000/svg" viewBox="0 0 32 32"><path d="M23 15a8 8 0 1 1 0 16 8 8 0 0 1 0-16m-9.165 12a10 10 0 0 0 1.164 2H5v-2zM23 17.5c-.795 0-1.61.374-2.18.94-.59.585-1.018 1.48-.785 2.52v.002L20.26 22H20a1 1 0 1 0 0 2h.633l.214 1.5H20a1 1 0 1 0 0 2h6a1 1 0 1 0 0-2h-3.133l-.214-1.5H24a1 1 0 1 0 0-2h-1.693l-.318-1.462-.002-.01-.013-.083c-.018-.192.056-.39.253-.584.244-.242.568-.361.773-.361.338 0 .52.1.64.218.108.103.213.265.299.503l.077.263.029.098a1 1 0 0 0 1.935-.462l-.02-.1-.06-.234c-.16-.544-.43-1.082-.87-1.508-.526-.506-1.219-.778-2.03-.778M13 23q.002 1.03.2 2H5v-2zm.835-4a10 10 0 0 0-.635 2H5v-2zm3.164-4a10 10 0 0 0-2 2H5v-2zM27 13H5v-2h22zm0-4H5V7h22zm0-4H5V3h22z"/></svg>