<svg width="18" height="18" xmlns="http://www.w3.org/2000/svg" xmlns:xlink="http://www.w3.org/1999/xlink"><defs><path d="M15.625 17.5h1.25v.625a.625.625 0 11-1.25 0V17.5zm-12.5 0h1.25v.625a.625.625 0 11-1.25 0V17.5zm13.75-10h-1.25V3.125A.625.625 0 0015 2.5H5a.625.625 0 00-.625.625V7.5h-1.25V3.125c0-1.036.84-1.875 1.875-1.875h10c1.036 0 1.875.84 1.875 1.875V7.5zm0 8.75v1.25H3.125v-1.25h13.75zM15 6.25h2.5c.69 0 1.25.56 1.25 1.25v10h-5v-10c0-.69.56-1.25 1.25-1.25zm.625 1.25a.625.625 0 00-.625.625v8.125h2.5V8.125a.625.625 0 00-.625-.625h-1.25zM2.5 6.25H5c.69 0 1.25.56 1.25 1.25v10h-5v-10c0-.69.56-1.25 1.25-1.25zm.625 1.25a.625.625 0 00-.625.625v8.125H5V8.125a.625.625 0 00-.625-.625h-1.25zm2.5 5h8.75v1.25h-8.75V12.5zm0-2.5h8.75v1.25h-8.75V10z" id="a"/></defs><use xlink:href="#a" transform="translate(-1 -1)"/></svg>