<svg xmlns="http://www.w3.org/2000/svg" xmlns:xlink="http://www.w3.org/1999/xlink" viewBox="0 0 32 32"><defs><path id="a" d="M25 28h2v1a1 1 0 0 1-2 0v-1zM7 28v1a1 1 0 0 1-2 0v-1h2zm15-2v2H10v-2h12zm2-24a3 3 0 0 1 3 3v5h-2V5a1 1 0 0 0-1-1H8a1 1 0 0 0-1 1v5H5V5a3 3 0 0 1 3-3h16zm4 8a2 2 0 0 1 2 2v16h-8V12a2 2 0 0 1 2-2h4zm-1 2h-2a1 1 0 0 0-1 1v13h4V13a1 1 0 0 0-1-1zM7 12H5a1 1 0 0 0-1 1v13h4V13a1 1 0 0 0-1-1zm3 16H2V12a2 2 0 0 1 2-2h4a2 2 0 0 1 2 2v4h12v2H10v2h12v2H10v6z"/></defs><use xlink:href="#a" fill-rule="evenodd"/></svg>