<svg width="16" height="17" xmlns="http://www.w3.org/2000/svg"><path d="M3 6.75h6.25V8H3V6.75zM7.634.5l4.116 4.116V9.25h3.125c.345 0 .625.28.625.625v6.25c0 .345-.28.625-.625.625H3.625A.625.625 0 013 16.125V15.5H1.772c-.95 0-1.25-.254-1.27-1.14L.5 14.25V1.75C.5.817.759.523 1.641.501L1.75.5h5.884zm-1.3 10a2.07 2.07 0 00-1.099.29c-.316.194-.56.47-.73.83-.17.359-.255.779-.255 1.26l.003.423c.027.698.232 1.243.615 1.635.382.392.894.587 1.534.587.416 0 .799-.061 1.148-.184.349-.123.614-.286.795-.487v-2.008H6.348v.81h.82v.758c-.15.137-.379.205-.686.205-.358 0-.62-.123-.787-.368-.167-.245-.25-.611-.25-1.099v-.295c.002-.466.084-.824.245-1.075a.769.769 0 01.685-.376c.246 0 .436.059.57.175.135.116.222.311.262.584h1.135c-.056-.553-.252-.968-.589-1.247-.337-.279-.81-.418-1.418-.418zm3.952.07H9.11v4.888h1.175V10.57zm4.089 0h-3.27v4.888h1.178v-1.947h1.9v-.906h-1.9V11.48h2.092v-.91zM6.75 1.75h-5v12.5H3V9.875c0-.345.28-.625.625-.625h6.874V5.5H6.75V1.75zM8 2.634V4.25h1.616L8 2.634z"/></svg>