<svg xmlns="http://www.w3.org/2000/svg" viewBox="0 0 32 32"><path fill-rule="evenodd" d="M8 14h10v2H8v-2zm7.414-10L22 10.586V18h5a1 1 0 0 1 1 1v10a1 1 0 0 1-1 1H9a1 1 0 0 1-1-1v-1H6.035c-1.519 0-1.998-.407-2.033-1.825L4 26V6c0-1.493.414-1.964 1.826-1.998L6 4h9.414zm-2.079 16c-.666 0-1.252.155-1.759.465-.506.31-.896.752-1.168 1.326-.272.575-.408 1.247-.408 2.017l.005.677c.043 1.117.371 1.989.983 2.616.613.626 1.43.94 2.455.94a5.49 5.49 0 0 0 1.837-.296c.558-.197.983-.456 1.273-.779v-3.212h-3.196v1.295h1.31v1.214c-.24.218-.605.327-1.095.327-.573 0-.993-.196-1.26-.588-.267-.392-.4-.978-.4-1.759v-.472c.004-.745.134-1.318.392-1.72.258-.4.623-.6 1.096-.6.394 0 .698.092.913.278.215.187.354.498.419.935h1.815c-.09-.884-.403-1.55-.942-1.995-.54-.446-1.296-.669-2.27-.669zm6.322.113h-1.88v7.82h1.88v-7.82zm6.542 0h-5.231v7.82h1.885v-3.115h3.04v-1.45h-3.04v-1.8h3.346v-1.455zM14 6H6v20h2v-7a1 1 0 0 1 1-1h10.999v-6H14V6zm2 1.415V10h2.585L16 7.415z"/></svg>