<svg width="16" height="16" xmlns="http://www.w3.org/2000/svg"><path d="M8 .5a7.5 7.5 0 00-2.37 14.616c.374.07.511-.162.511-.361 0-.178-.006-.65-.01-1.275-2.086.453-2.526-1.006-2.526-1.006-.342-.866-.833-1.097-.833-1.097-.681-.465.051-.456.051-.456.753.053 1.149.773 1.149.773.669 1.146 1.756.815 2.183.623.068-.484.262-.815.476-1.002-1.665-.19-3.416-.833-3.416-3.707 0-.819.292-1.489.772-2.013-.078-.19-.335-.952.073-1.984 0 0 .63-.202 2.063.768A7.184 7.184 0 018 4.127a7.191 7.191 0 011.878.252c1.432-.97 2.06-.768 2.06-.768.41 1.032.152 1.795.075 1.984.48.524.771 1.194.771 2.013 0 2.881-1.754 3.515-3.424 3.7.269.232.509.69.509 1.39 0 1.002-.01 1.811-.01 2.057 0 .2.136.434.516.361A7.5 7.5 0 008 .5" fill="#161514" fill-rule="evenodd"/></svg>