<svg width="32" height="32" xmlns="http://www.w3.org/2000/svg" xmlns:xlink="http://www.w3.org/1999/xlink"><defs><path d="M16.009 3a12.97 12.97 0 019.779 4.444l.065.075c.16.187.317.379.467.575l.021.027a13.104 13.104 0 01.249.337l.068.097A12.94 12.94 0 0129 16c0 2.77-.866 5.336-2.342 7.445l-.069.097-.03.044a13.053 13.053 0 01-1.316 1.556A12.96 12.96 0 0116 29h.01-.021a12.956 12.956 0 01-8.978-3.608l-.122-.119-.018-.018a13.081 13.081 0 01-.263-.266l.281.284a13.134 13.134 0 01-1.148-1.287A12.944 12.944 0 013 16a12.951 12.951 0 013.36-8.722A12.966 12.966 0 0116 3h-.01zm-5.547 20.026l-.045.017c-.681.283-1.32.619-1.92 1.002a10.996 10.996 0 004.238 2.462 14.448 14.448 0 01-2.274-3.482zm11.147-.158l-.11.24a14.447 14.447 0 01-2.235 3.4 11 11 0 004.41-2.627 10.384 10.384 0 00-2.065-1.013zm-9.137-.482l-.055.014A12.186 12.186 0 0015 25.845v-3.816c-.892.051-1.734.173-2.528.357zm4.53-.364L17 25.844c.423-.39.84-.836 1.24-1.34.528-.668.991-1.393 1.38-2.18-.816-.16-1.688-.26-2.62-.302zM9.025 17h-3.98a10.941 10.941 0 002.076 5.494c.808-.531 1.68-.988 2.617-1.36A16.842 16.842 0 019.025 17zm17.93 0h-3.98a16.98 16.98 0 01-.664 3.977c.983.348 1.885.79 2.704 1.326A10.928 10.928 0 0026.955 17zM15 16.999L11.028 17c.074 1.271.29 2.442.627 3.518A17.125 17.125 0 0115 20.025V17zm5.972.001H17l.001 3.021a19.88 19.88 0 013.37.41 14.45 14.45 0 00.6-3.43zM7.12 9.507l-.03.04a10.94 10.94 0 00-2.046 5.452H9.02c.06-1.51.262-2.905.604-4.18A14.392 14.392 0 017.12 9.508zm13.368 2.036l-.153.035A19.91 19.91 0 0117 11.98V15h3.978c-.055-1.258-.218-2.408-.489-3.456zm-8.953-.09l-.048.179a16.889 16.889 0 00-.466 3.366H15v-3.023a17.218 17.218 0 01-3.464-.521zm13.48-1.757l-.114.075c-.76.484-1.587.889-2.483 1.215.316 1.228.503 2.567.561 4.013h3.975a10.939 10.939 0 00-1.94-5.303zM17 5.997V9.98c1.01-.045 1.951-.16 2.825-.342-.66-1.475-1.602-2.684-2.825-3.64zm-4.776 3.524l-.013.03c.87.22 1.798.363 2.788.42V5.997a9.421 9.421 0 00-2.775 3.525zm7.426-3.9l.031.035a11.907 11.907 0 012.105 3.41c.681-.26 1.31-.576 1.888-.946a11 11 0 00-4.024-2.5zm-7.302 0l-.187.067a11.001 11.001 0 00-3.664 2.267 12.31 12.31 0 001.784.946 11.845 11.845 0 012.067-3.28z" id="a"/></defs><use xlink:href="#a" fill-rule="evenodd"/></svg>