<svg xmlns="http://www.w3.org/2000/svg" viewBox="0 0 32 32"><path d="M16.361 2.005C23.926 2.196 30 8.389 30 16c0 7.732-6.268 14-14 14S2 23.732 2 16 8.268 2 16 2zM11.193 23c.263.695.56 1.335.887 1.907.936 1.637 1.97 2.533 2.92 2.896V23zM17 27.804c.95-.364 1.984-1.26 2.92-2.897.327-.572.624-1.212.887-1.907H17zM6.256 23a12.04 12.04 0 0 0 4.725 3.9c-.765-1.081-1.413-2.403-1.908-3.9zm16.67 0c-.494 1.497-1.143 2.819-1.908 3.9a12.04 12.04 0 0 0 4.726-3.9zM4.043 17a11.9 11.9 0 0 0 1.05 4h3.435a23 23 0 0 1-.505-4zm5.982 0c.063 1.426.256 2.771.554 4H15v-4zM17 21h4.422c.298-1.229.491-2.574.554-4H17zm6.977-4a23 23 0 0 1-.504 4h3.435a11.9 11.9 0 0 0 1.05-4zM5.092 11a11.9 11.9 0 0 0-1.05 4h3.98c.057-1.4.23-2.744.505-4zm5.486 0a21 21 0 0 0-.554 4H15v-4zM17 11v4h4.976a21 21 0 0 0-.554-4zm6.473 0c.274 1.256.448 2.6.505 4h3.98a11.9 11.9 0 0 0-1.05-4zM10.98 5.1A12.04 12.04 0 0 0 6.256 9h2.817c.495-1.498 1.143-2.82 1.908-3.9M15 4.195c-.95.363-1.984 1.26-2.92 2.897A13.4 13.4 0 0 0 11.193 9H15zM17 9h3.807a13.4 13.4 0 0 0-.887-1.907c-.936-1.638-1.97-2.534-2.92-2.897zm4.018-3.9c.765 1.08 1.413 2.402 1.909 3.9h2.817a12.04 12.04 0 0 0-4.726-3.9"/></svg>