<svg width="18" height="18" xmlns="http://www.w3.org/2000/svg" xmlns:xlink="http://www.w3.org/1999/xlink"><defs><path d="M10 1.875a8.104 8.104 0 015.99 2.636l-.213-.223a7.89 7.89 0 01.678.777A8.09 8.09 0 0118.125 10a8.088 8.088 0 01-1.506 4.714l-.02.026a8.154 8.154 0 01-.14.191l.16-.217a8.208 8.208 0 01-.436.557 8.107 8.107 0 01-5.935 2.85l-.227.004h-.042.002l-.23-.004a8.098 8.098 0 01-5.445-2.325l-.056-.056c-.05-.05-.1-.1-.148-.152l.203.208a8.315 8.315 0 01-.85-.98A8.089 8.089 0 011.876 10a8.089 8.089 0 011.58-4.815l.043-.058a8.16 8.16 0 01.145-.188l-.189.246a8.274 8.274 0 01.853-.982A8.1 8.1 0 019.98 1.875H10zm3.505 12.417l-.094.207a9.03 9.03 0 01-1.372 2.07 6.876 6.876 0 002.757-1.643 6.429 6.429 0 00-1.291-.634zm-6.966.1l-.084.033a7.666 7.666 0 00-1.144.603 6.867 6.867 0 002.65 1.54 9.03 9.03 0 01-1.422-2.176zm1.407-.434L7.761 14a7.663 7.663 0 001.613 2.151v-2.384c-.5.03-.976.093-1.428.19zm2.681-.194v2.387c.264-.243.525-.522.774-.836.33-.417.619-.87.862-1.362a10.876 10.876 0 00-1.636-.19zm-7.474-3.14a6.838 6.838 0 001.298 3.436 8.944 8.944 0 011.635-.852 10.52 10.52 0 01-.445-2.583H3.153zm13.694 0h-2.488c-.045.892-.187 1.72-.414 2.486a7.89 7.89 0 011.69.83 6.832 6.832 0 001.212-3.315zm-7.473 0l-2.481.001c.046.795.18 1.527.392 2.2.654-.167 1.35-.272 2.089-.31v-1.891zm1.252 0l.002 1.889c.747.03 1.449.115 2.104.255l.043-.144c.177-.617.29-1.282.332-1.999l-2.481-.001zM7.21 7.159l-.02.072c-.167.65-.267 1.364-.302 2.143h2.486v-1.89A10.76 10.76 0 017.21 7.16zm5.596.055l-.074.018c-.655.14-1.357.225-2.104.256l-.002 1.886h2.486a10.488 10.488 0 00-.306-2.16zm2.827-1.156l-.128.085a7.936 7.936 0 01-1.492.723c.196.767.313 1.604.35 2.507h2.484a6.837 6.837 0 00-1.214-3.315zM4.451 5.942l-.013.016a6.836 6.836 0 00-1.285 3.416l2.484-.001c.039-.944.165-1.815.378-2.612a8.923 8.923 0 01-1.564-.819zm6.177-2.192v2.487c.63-.029 1.217-.1 1.763-.214a5.889 5.889 0 00-1.763-2.273zm-1.255-.001A5.885 5.885 0 007.65 5.934l-.017.036a9.292 9.292 0 001.74.262l.001-2.483zm2.907-.237l.157.18a7.492 7.492 0 011.18 1.973 6.39 6.39 0 001.18-.59 6.86 6.86 0 00-2.517-1.563zm-4.56 0a6.857 6.857 0 00-2.407 1.46c.348.224.719.422 1.113.591a7.42 7.42 0 011.293-2.051z" id="a"/></defs><use xlink:href="#a" transform="translate(-1 -1)" fill-rule="evenodd"/></svg>