<svg width="16" height="16" xmlns="http://www.w3.org/2000/svg" xmlns:xlink="http://www.w3.org/1999/xlink"><defs><path d="M17.326 8.78h-7.152v2.964h4.117c-.384 1.884-1.989 2.965-4.117 2.965a4.526 4.526 0 01-4.534-4.535 4.526 4.526 0 014.534-4.534c1.082 0 2.059.383 2.826 1.011l2.233-2.232C13.873 3.233 12.128 2.5 10.174 2.5A7.652 7.652 0 002.5 10.174a7.652 7.652 0 007.674 7.675c3.838 0 7.326-2.79 7.326-7.675 0-.453-.07-.941-.174-1.395z" id="a"/></defs><use xlink:href="#a" transform="translate(-2 -2)" fill-rule="evenodd"/></svg>