<svg xmlns="http://www.w3.org/2000/svg" xmlns:xlink="http://www.w3.org/1999/xlink" viewBox="0 0 32 32"><defs><path id="a" d="m18.904 17.339.573.173a12.023 12.023 0 0 1 8.071 8.216l.36 1.272H4.092l.36-1.272a12.023 12.023 0 0 1 8.07-8.216l.574-.173L16 20.243l2.904-2.904zm.554 2.275L16 23.07l-3.458-3.457A10.035 10.035 0 0 0 6.832 25h18.336a10.035 10.035 0 0 0-5.71-5.386zM4 20c.413 0 .822.02 1.224.062a14.025 14.025 0 0 0-1.352 1.94L4 22a9.966 9.966 0 0 0-4 .832v-2.149A11.98 11.98 0 0 1 4 20zm24 0c1.403 0 2.75.24 4 .683v2.15A9.961 9.961 0 0 0 28.128 22a14.046 14.046 0 0 0-1.352-1.94c.402-.04.81-.061 1.224-.061zm0-10a4 4 0 1 1 0 8 4 4 0 0 1 0-8zM4 10a4 4 0 1 1 0 8 4 4 0 0 1 0-8zm12-5a6 6 0 1 1 0 12 6 6 0 0 1 0-12zm12 7a2 2 0 1 0 0 4 2 2 0 0 0 0-4zM4 12a2 2 0 1 0 0 4 2 2 0 0 0 0-4zm12-5a4 4 0 1 0 0 8 4 4 0 0 0 0-8z"/></defs><use xlink:href="#a" fill-rule="evenodd"/></svg>