<svg width="20" height="14" xmlns="http://www.w3.org/2000/svg" xmlns:xlink="http://www.w3.org/1999/xlink"><defs><path d="M11.815 10.837l.358.108a7.515 7.515 0 015.045 5.135l.224.795H2.557l.225-.795a7.515 7.515 0 015.045-5.135l.358-.108L10 12.652l1.815-1.815zm.346 1.421L10 14.42l-2.16-2.16a6.272 6.272 0 00-3.57 3.366h11.46a6.272 6.272 0 00-3.57-3.367zm5.339.242c.877 0 1.719.15 2.5.427l.001 1.343a6.226 6.226 0 00-2.422-.52 8.731 8.731 0 00-.844-1.211c.25-.026.506-.039.765-.039zm-15 0c.259 0 .515.013.767.039l-.095.113a8.783 8.783 0 00-.34.453l-.03.045a8.69 8.69 0 00-.366.574l-.016.027v.001l.08-.002c-.889 0-1.735.186-2.5.52v-1.343a7.488 7.488 0 012.5-.427zm15-6.25a2.5 2.5 0 110 5 2.5 2.5 0 010-5zm-15 0a2.5 2.5 0 110 5 2.5 2.5 0 010-5zM10 3.125a3.75 3.75 0 110 7.5 3.75 3.75 0 010-7.5zM17.5 7.5a1.25 1.25 0 100 2.5 1.25 1.25 0 000-2.5zm-15 0a1.25 1.25 0 100 2.5 1.25 1.25 0 000-2.5zM10 4.375a2.5 2.5 0 100 5 2.5 2.5 0 000-5z" id="a"/></defs><use xlink:href="#a" transform="translate(0 -3)"/></svg>