<svg xmlns="http://www.w3.org/2000/svg" viewBox="0 0 32 32"><path fill-rule="evenodd" d="M9 14h10v2H9v-2zm7.414-10L23 10.586V18h3a1 1 0 011 1v10a1 1 0 01-1 1H10a1 1 0 01-1-1v-1H7.035c-1.519 0-1.998-.407-2.033-1.825L5 26V6c0-1.493.414-1.964 1.826-1.998L7 4h9.414zm-3.529 16H11v7.82h1.885v-3.265h2.777v3.265h1.875V20h-1.875v3.104h-2.777V20zm8.363 0h-2.519v7.82h2.573a3.624 3.624 0 001.84-.486c.549-.32.975-.764 1.278-1.332.302-.567.454-1.21.454-1.925v-.36a4.005 4.005 0 00-.47-1.92 3.303 3.303 0 00-1.292-1.327 3.711 3.711 0 00-1.864-.47zm0 1.456c.555 0 .978.191 1.268.574.29.383.435.953.435 1.708v.339c0 .759-.145 1.33-.435 1.716-.29.385-.706.577-1.246.577h-.656v-4.914h.634zM15 6H7v20h2v-7a1 1 0 011-1h10.999v-6H15V6zm2 1.415V10h2.585L17 7.415z"/></svg>