<svg width="14" height="17" xmlns="http://www.w3.org/2000/svg"><path d="M2.625 6.75h6.25V8h-6.25V6.75zM7.259.5l4.116 4.116V9.25h1.875c.345 0 .625.28.625.625v6.25c0 .345-.28.625-.625.625h-10a.625.625 0 01-.625-.625V15.5H1.397c-.95 0-1.25-.254-1.27-1.14l-.002-.11V1.75C.125.817.384.523 1.266.501L1.375.5h5.884zm-2.206 10H3.875v4.888h1.178v-2.041H6.79v2.04h1.17V10.5H6.79v1.94H5.053V10.5zm5.227 0H8.706v4.888h1.608a2.265 2.265 0 001.15-.304c.343-.2.61-.478.798-.833.19-.354.284-.755.284-1.203v-.225a2.503 2.503 0 00-.294-1.2 2.065 2.065 0 00-.807-.83 2.316 2.316 0 00-1.165-.293zm0 .91c.347 0 .611.12.792.359.182.24.272.595.272 1.067v.212c0 .474-.09.832-.272 1.072-.181.241-.44.361-.779.361h-.41V11.41h.397zM6.375 1.75h-5v12.5h1.25V9.875c0-.345.28-.625.625-.625h6.874V5.5H6.375V1.75zm1.25.884V4.25h1.616L7.625 2.634z"/></svg>