<svg xmlns="http://www.w3.org/2000/svg" viewBox="0 0 32 32"><path fill-rule="evenodd" d="M8 14h10v2H8v-2zm7.414-10L22 10.586V18h6a1 1 0 011 1v10a1 1 0 01-1 1H5a1 1 0 01-1-1V6c0-1.493.414-1.964 1.826-1.998L6 4h9.414zM7.885 20H6v7.82h1.885v-3.265h2.777v3.265h1.875V20h-1.875v3.104H7.885V20zm8.363 0h-2.519v7.82h2.573a3.624 3.624 0 001.84-.486c.549-.32.975-.764 1.278-1.332.302-.567.454-1.21.454-1.925v-.36a4.005 4.005 0 00-.47-1.92 3.303 3.303 0 00-1.292-1.327 3.711 3.711 0 00-1.864-.47zm7.67 0H20.84v7.82h1.886v-2.76h1.02l1.38 2.76h2.02v-.08l-1.633-3.153c.47-.222.814-.512 1.034-.87.22-.358.33-.81.33-1.354 0-.752-.26-1.334-.784-1.745-.523-.412-1.248-.618-2.175-.618zm-7.67 1.456c.555 0 .978.191 1.268.574.29.383.435.953.435 1.708v.339c0 .759-.145 1.33-.435 1.716-.29.385-.706.577-1.246.577h-.656v-4.914h.634zm7.67 0c.354 0 .623.095.806.287.182.191.274.456.274.792 0 .337-.09.599-.272.787-.18.188-.45.282-.808.282h-1.192v-2.148h1.192zM14 6H6l-.001 12h14v-6H14V6zm2 1.415V10h2.585L16 7.415z"/></svg>