<svg width="17" height="17" xmlns="http://www.w3.org/2000/svg"><path d="M3 6.75h6.25V8H3V6.75zM7.634.5l4.116 4.116V9.25h3.75c.345 0 .625.28.625.625v6.25c0 .345-.28.625-.625.625H1.125a.625.625 0 01-.625-.625V1.75C.5.817.759.523 1.641.501L1.75.5h5.884zm-4.706 10H1.75v4.888h1.178v-2.041h1.736v2.04h1.171V10.5H4.664v1.94H2.928V10.5zm5.227 0H6.581v4.888h1.608a2.265 2.265 0 001.15-.304c.343-.2.61-.478.798-.833.19-.354.284-.755.284-1.203v-.225a2.503 2.503 0 00-.294-1.2 2.065 2.065 0 00-.807-.83 2.316 2.316 0 00-1.165-.293zm4.794 0h-1.924v4.888h1.178v-1.726h.638l.863 1.726h1.262v-.05l-1.02-1.971c.293-.139.508-.32.646-.544.138-.224.206-.506.206-.846 0-.47-.163-.834-.49-1.091-.326-.257-.78-.386-1.36-.386zm-4.794.91c.347 0 .611.12.792.359.182.24.272.595.272 1.067v.212c0 .474-.09.832-.272 1.072-.181.241-.44.361-.779.361h-.41V11.41h.397zm4.794 0c.221 0 .39.06.503.18.114.12.171.284.171.494 0 .21-.056.375-.17.492-.112.118-.28.177-.504.177h-.746V11.41h.746zM6.75 1.75h-5v7.5h8.75V5.5H6.75V1.75zM8 2.634V4.25h1.616L8 2.634z"/></svg>