<svg xmlns="http://www.w3.org/2000/svg" viewBox="0 0 32 32"><path d="M16.597 28.8a1 1 0 0 1-1.199 0l.6-.8zm4.14-25.025c1.092-.562 2.312-.904 3.594-.73 1.297.175 2.525.859 3.653 2.098l.197.224c1.97 2.317 2.163 5.024 1.413 7.646-.761 2.659-2.502 5.301-4.408 7.603-1.917 2.316-4.063 4.36-5.722 5.82a60 60 0 0 1-2.647 2.196l-.16.124-.055.04-.003.004h-.001l-.6-.8-.6.8-.002-.001-.003-.002-.054-.041-.161-.124a60 60 0 0 1-2.644-2.196c-1.659-1.46-3.804-3.504-5.72-5.82-1.905-2.302-3.645-4.945-4.407-7.603-.775-2.706-.547-5.503 1.603-7.869l.004-.003.214-.226c1.074-1.092 2.23-1.7 3.446-1.862 1.282-.172 2.5.168 3.592.73 1.784.917 3.416 2.531 4.731 3.954 1.316-1.424 2.953-3.042 4.74-3.962m3.326 1.252c-.754-.102-1.555.085-2.412.527-1.758.905-3.447 2.711-4.91 4.338a1 1 0 0 1-1.487 0c-1.464-1.627-3.147-3.429-4.902-4.332-.856-.44-1.657-.626-2.413-.525-.74.1-1.565.492-2.45 1.453l.001.001c-1.57 1.728-1.796 3.752-1.16 5.973.65 2.268 2.187 4.66 4.024 6.88 1.826 2.206 3.887 4.172 5.5 5.593a58 58 0 0 0 1.981 1.667q.085.069.162.128l.163-.128c.487-.39 1.177-.959 1.983-1.668 1.614-1.42 3.677-3.387 5.503-5.593 1.838-2.22 3.376-4.611 4.025-6.88.596-2.08.433-3.99-.886-5.644l-.28-.327c-.88-.968-1.703-1.363-2.442-1.463"/></svg>