<svg xmlns="http://www.w3.org/2000/svg" viewBox="0 0 32 32"><path d="M16.597 28.8a1 1 0 0 1-1.199 0l.6-.8zm4.14-25.025c1.092-.562 2.312-.904 3.594-.73 1.297.175 2.525.859 3.653 2.098l.197.224c1.97 2.317 2.163 5.024 1.413 7.646-.761 2.659-2.502 5.301-4.408 7.603-1.917 2.316-4.063 4.36-5.722 5.82a60 60 0 0 1-2.647 2.196l-.16.124-.055.04-.003.004-.602-.8-.6.8v-.001l-.004-.002-.054-.041-.161-.124a60 60 0 0 1-2.644-2.196c-1.659-1.46-3.804-3.504-5.72-5.82-1.905-2.302-3.645-4.945-4.407-7.603-.775-2.706-.547-5.503 1.603-7.869l.004-.003.214-.226c1.074-1.092 2.23-1.7 3.446-1.862 1.282-.172 2.5.168 3.592.73 1.784.917 3.416 2.531 4.731 3.954 1.316-1.424 2.953-3.042 4.74-3.962"/></svg>