<svg width="18" height="18" xmlns="http://www.w3.org/2000/svg"><path d="M11.946.933a.625.625 0 010 .884L10.361 3.4h3.643c.32 0 .585.242.621.553l.004.073-.003 6.256c1.675.181 3.017 1.082 3.118 2.317l.006.15v2.5c0 1.466-1.724 2.5-3.75 2.5-1.956 0-3.63-.964-3.744-2.35l-.006-.15v-2.5l.006-.15c.101-1.236 1.443-2.136 3.12-2.317l.003-5.631-3.018-.001 1.585 1.585a.625.625 0 11-.884.884L7.97 4.027 11.062.933a.625.625 0 01.884 0zM4 .25c1.956 0 3.63.964 3.744 2.35l.006.15v2.5c0 1.312-1.381 2.278-3.124 2.467l-.001 5.658h3.019L6.058 11.79a.625.625 0 01.884-.884L10.036 14l-3.094 3.094a.625.625 0 11-.884-.884l1.586-1.584L4 14.625a.625.625 0 01-.62-.552L3.374 14V7.717C1.698 7.536.356 6.635.255 5.4L.25 5.25v-2.5l.006-.15C.37 1.214 2.044.25 4 .25zm12.501 14.382c-.67.391-1.552.618-2.501.618-.948 0-1.83-.226-2.5-.618v.618c0 .605 1.074 1.25 2.5 1.25 1.36 0 2.402-.587 2.493-1.167l.007-.083.001-.618zM14 11.5c-1.426 0-2.5.645-2.5 1.25S12.574 14 14 14s2.5-.645 2.5-1.25-1.074-1.25-2.5-1.25zM6.501 4.632c-.67.391-1.552.618-2.501.618-.948 0-1.83-.226-2.5-.618v.618C1.5 5.855 2.574 6.5 4 6.5c1.36 0 2.402-.587 2.493-1.167L6.5 5.25l.001-.618zM4 1.5c-1.426 0-2.5.645-2.5 1.25S2.574 4 4 4s2.5-.645 2.5-1.25S5.426 1.5 4 1.5z"/></svg>