<svg width="32" height="32" xmlns="http://www.w3.org/2000/svg"><path d="M20.714 3.093a1 1 0 010 1.414l-2.536 2.535h5.829a1 1 0 01.993.884l.007.117L25 18.053c2.709.293 4.872 1.76 4.994 3.768L30 22v4c0 2.345-2.758 4-6 4-3.159 0-5.858-1.571-5.995-3.821L18 26v-4l.005-.179c.122-2.008 2.286-3.476 4.996-3.768l.006-9.01-4.829-.001 2.536 2.536a1 1 0 01-1.414 1.414l-4.95-4.95 4.95-4.95a1 1 0 011.414 0zM8 2c3.159 0 5.858 1.571 5.995 3.821L14 6v4c0 2.1-2.21 3.646-5 3.947V23h4.829l-2.536-2.536a1 1 0 011.414-1.414l4.95 4.95-4.95 4.95a1 1 0 01-1.414-1.414L13.829 25H8a1 1 0 01-.993-.883L7 24V13.947c-2.71-.293-4.873-1.76-4.995-3.768L2 10V6l.005-.179C2.142 3.571 4.841 2 8 2zm20.001 23.011C26.93 25.637 25.518 26 24 26c-1.517 0-2.928-.362-4-.988V26c0 .969 1.719 2 4 2 2.202 0 3.88-.961 3.994-1.9L28 26l.001-.989zM24 20c-2.281 0-4 1.031-4 2 0 .969 1.719 2 4 2 2.281 0 4-1.031 4-2 0-.969-1.719-2-4-2zM12.001 9.011C10.93 9.637 9.518 10 8 10c-1.517 0-2.928-.362-4-.988V10c0 .969 1.719 2 4 2 2.202 0 3.88-.961 3.994-1.9L12 10l.001-.989zM8 4C5.719 4 4 5.031 4 6c0 .969 1.719 2 4 2 2.281 0 4-1.031 4-2 0-.969-1.719-2-4-2z" fill-rule="evenodd"/></svg>