<svg width="18" height="18" xmlns="http://www.w3.org/2000/svg"><path d="M7.125.875v6.25h-2.5v6.25h3.644L6.683 11.79a.625.625 0 01.884-.884L10.66 14l-3.094 3.094a.625.625 0 11-.884-.884l1.586-1.584L4 14.625a.625.625 0 01-.62-.552L3.374 14V7.126l-2.5-.001V.875h6.25zm4.192.031a.625.625 0 010 .884L9.73 3.374l4.27.001c.32 0 .585.241.62.552l.005.073v6.938a3.126 3.126 0 11-1.25 0V4.625H9.732l1.585 1.585a.625.625 0 11-.884.884L7.34 4 10.433.906a.625.625 0 01.884 0zM14 12.125a1.875 1.875 0 100 3.75 1.875 1.875 0 000-3.75zm-8.125-10h-3.75v3.75h3.75v-3.75z" fill-rule="evenodd"/></svg>