<svg xmlns="http://www.w3.org/2000/svg" viewBox="0 0 32 32"><path d="M16 2c7.732 0 14 6.268 14 14s-6.268 14-14 14S2 23.732 2 16 8.268 2 16 2m2.074 21.727a8 8 0 0 1-4.15 0q-.021.026-.045.051l-3.053 3.051A11.95 11.95 0 0 0 16 28c1.852 0 3.606-.421 5.173-1.17l-3.052-3.052zM6.221 22.95a12 12 0 0 0 2.828 2.828l2.889-2.887a8.04 8.04 0 0 1-2.83-2.83zm16.67-2.889a8 8 0 0 1-2.83 2.83l2.89 2.887a12 12 0 0 0 2.827-2.828zM16 10a6 6 0 1 0 0 12 6 6 0 0 0 0-12m-10.83.826A11.95 11.95 0 0 0 4 16c0 1.852.42 3.606 1.17 5.173l3.052-3.052.05-.047a8 8 0 0 1 0-4.15q-.026-.021-.05-.045zm18.608 3.053-.051.046a8 8 0 0 1 0 4.15q.026.021.051.046l3.051 3.052A11.9 11.9 0 0 0 28 16a11.95 11.95 0 0 0-1.17-5.174zM9.048 6.22a12 12 0 0 0-2.827 2.828l2.887 2.889a8.04 8.04 0 0 1 2.83-2.83zm11.013 2.887a8.04 8.04 0 0 1 2.83 2.83l2.887-2.89A12 12 0 0 0 22.95 6.22zM16 4c-1.853 0-3.607.42-5.174 1.17l3.053 3.052.046.05a8 8 0 0 1 4.15 0q.021-.026.046-.05l3.052-3.052A11.95 11.95 0 0 0 16 4"/></svg>