<svg width="16" height="16" xmlns="http://www.w3.org/2000/svg" xmlns:xlink="http://www.w3.org/1999/xlink"><defs><path d="M10 2.5a7.5 7.5 0 110 15 7.5 7.5 0 010-15zm.625 13.75v-2.552a3.775 3.775 0 01-1.25 0v2.552h1.25v-2.552zm-3.873-4.374H4.036a6.265 6.265 0 004.089 4.088l-.001-2.716a3.768 3.768 0 01-1.372-1.372zm9.212 0h-2.716a3.768 3.768 0 01-1.371 1.371v2.717a6.265 6.265 0 004.087-4.088zM10 7.5a2.5 2.5 0 100 5 2.5 2.5 0 000-5zM6.302 9.376L3.75 9.375v1.25h2.552a3.775 3.775 0 010-1.25zm9.948-.001h-2.552a3.775 3.775 0 010 1.25h2.552v-1.25zM8.125 4.036a6.265 6.265 0 00-4.089 4.09l2.716-.001a3.768 3.768 0 011.372-1.373V4.036zm3.751 0l.001 2.717c.568.33 1.042.803 1.371 1.372h2.716a6.265 6.265 0 00-4.088-4.089zm-1.251-.286h-1.25v2.552a3.775 3.775 0 011.25 0V3.75z" id="a"/></defs><use transform="rotate(45 11.414 6.586)" xlink:href="#a" fill-rule="evenodd"/></svg>