<svg width="16" height="16" xmlns="http://www.w3.org/2000/svg"><path d="M3.935 3.935l11.697 5.013-5.013 1.671-1.67 5.013L3.934 3.935zm9.94 7.44v2.5h-2.5v-1.25h1.25v-1.25h1.25zm-7.5 1.25v1.25h-2.5v-1.25h2.5zm-5-1.25v1.25h1.25v1.25h-2.5v-2.5h1.25zm4.94-5.06l2.487 5.803.829-2.487 2.487-.83-5.803-2.486zm-4.94 1.31v2.5H.125v-2.5h1.25zm12.5-3.75v2.5h-1.25v-2.5h1.25zm-12.5 0v2.5H.125v-2.5h1.25zm12.5-3.75v2.5h-1.25v-1.25h-1.25V.125h2.5zm-11.25 0v1.25h-1.25v1.25H.125v-2.5h2.5zm7.5 0v1.25h-2.5V.125h2.5zm-3.75 0v1.25h-2.5V.125h2.5z" fill-rule="evenodd"/></svg>