<svg width="19" height="17" xmlns="http://www.w3.org/2000/svg" xmlns:xlink="http://www.w3.org/1999/xlink"><defs><path d="M12.5 16.25h1.25v-4.746l-.055.04a3.31 3.31 0 01-.16.106c-.335.208-.667.283-1.035.178v4.422zm-1.25 0V8.076L8.125 6.34 5 8.076v8.174h1.25v-3.125a1.875 1.875 0 013.75 0v3.125h1.25zm-2.5 0v-3.125a.625.625 0 10-1.25 0v3.125h1.25zm-5 0V8.77l-.948.526a.625.625 0 01-.606-1.092L8.125 4.91l1.291.717a1.169 1.169 0 01.06-.781c.22-.528.55-.694 1.167-.8.242-.04.32-.058.417-.098a.686.686 0 00.232-.156.686.686 0 00.156-.232c.04-.097.057-.175.099-.417.105-.617.27-.948.799-1.166.43-.178.808-.113 1.188.123.05.031.1.064.16.107l.136.095c.227.158.359.214.545.214.186 0 .318-.056.545-.214l.135-.095c.061-.043.11-.076.16-.107.38-.236.76-.301 1.189-.123.528.218.694.549.8 1.166.04.242.058.32.098.417.036.087.084.16.156.232.071.072.145.12.232.156.097.04.175.057.417.099.617.105.948.27 1.166.799.178.43.113.808-.123 1.188-.031.05-.064.1-.107.16l-.095.136c-.158.227-.214.359-.214.545 0 .186.056.318.214.545l.095.135c.043.061.076.11.107.16.236.38.301.76.123 1.189-.218.528-.549.694-1.166.8-.242.04-.32.058-.417.098a.686.686 0 00-.232.156.686.686 0 00-.156.232c-.04.097-.057.175-.099.417-.105.617-.27.948-.799 1.166-.43.178-.808.113-1.188-.123a3.31 3.31 0 01-.16-.107L15 11.504v4.746h1.875a.625.625 0 110 1.25h-15a.625.625 0 110-1.25H3.75zm7.488-9.61l2.816 1.564a.625.625 0 01-.608 1.092l-.946-.525v.766c.026.05.05.1.07.153.084.202.113.332.168.656.043.249.044.252.087.27.037.015.032.016.115-.035a2.76 2.76 0 00.102-.069l.136-.096c.399-.278.732-.417 1.197-.417.465 0 .798.139 1.197.417l.136.096c.043.03.075.052.102.069.083.051.078.05.115.035.043-.018.044-.021.087-.27.055-.324.084-.454.167-.656.092-.224.224-.425.405-.606.18-.181.382-.313.606-.405.202-.083.332-.112.656-.167.249-.043.252-.044.27-.087.015-.037.016-.032-.035-.115a2.192 2.192 0 00-.069-.102l-.096-.136c-.278-.399-.417-.732-.417-1.197 0-.465.139-.798.417-1.197l.096-.136a2.76 2.76 0 00.069-.102c.051-.083.05-.078.035-.115-.018-.043-.021-.044-.27-.087-.324-.055-.454-.084-.656-.167a1.829 1.829 0 01-.606-.405 1.829 1.829 0 01-.405-.606c-.083-.202-.112-.332-.167-.656-.043-.249-.044-.252-.087-.27-.037-.015-.032-.016-.115.035a2.76 2.76 0 00-.102.069l-.136.096c-.399.278-.732.417-1.197.417-.465 0-.798-.139-1.197-.417l-.136-.096a2.192 2.192 0 00-.102-.069c-.083-.051-.078-.05-.115-.035-.043.018-.044.021-.087.27-.055.324-.084.454-.167.656a1.829 1.829 0 01-.405.606 1.829 1.829 0 01-.606.405c-.202.083-.332.112-.656.167-.249.043-.252.044-.27.087-.015.037-.016.032.035.115.017.027.039.059.069.102l.096.136c.229.328.364.612.404.962zm2.983 4.61h.308a.711.711 0 00-.154-.016.711.711 0 00-.154.016z" id="a"/></defs><use xlink:href="#a" transform="translate(-1 -1)" fill-rule="evenodd"/></svg>