<svg xmlns="http://www.w3.org/2000/svg" viewBox="0 0 32 32"><path d="M28 1a3 3 0 0 1 3 3v24a3 3 0 0 1-3 3H4a3 3 0 0 1-3-3V4a3 3 0 0 1 3-3zM4 3a1 1 0 0 0-1 1v24a1 1 0 0 0 1 1h24a1 1 0 0 0 1-1V4a1 1 0 0 0-1-1zm22 2a1 1 0 0 1 1 1v20a1 1 0 0 1-1 1H6a1 1 0 0 1-1-1V6a1 1 0 0 1 1-1zM11.262 15.112a.357.357 0 0 0-.524 0l-.014.017L7 18.852V25h5.083l4.522-4.564-5.329-5.307zm11.025 3.01a.4.4 0 0 0-.574 0l-.005.005L14.898 25H25v-4.092l-2.709-2.781zM7 16.023l2.293-2.293.001.002a2.35 2.35 0 0 1 3.411 0l.002-.002 5.305 5.286 2.28-2.3a2.396 2.396 0 0 1 3.417 0L25 18.043V7H7zM18 9a3 3 0 1 1 0 6 3 3 0 0 1 0-6"/></svg>