<svg width="16" height="16" xmlns="http://www.w3.org/2000/svg" xmlns:xlink="http://www.w3.org/1999/xlink"><defs><path d="M16.875 5c.345 0 .625.28.625.625v11.25a.625.625 0 11-1.25 0V5.625c0-.345.28-.625.625-.625zm-7.5 7.693V3.01c0-.282.28-.511.625-.511s.625.229.625.511v9.682l2.683-2.516a.64.64 0 01.884 0 .59.59 0 010 .854L10 15l-4.192-3.969a.59.59 0 010-.854.64.64 0 01.884 0l2.683 2.516zM3.125 5c.345 0 .625.28.625.625v11.25a.625.625 0 11-1.25 0V5.625c0-.345.28-.625.625-.625z" id="a"/></defs><use xlink:href="#a" transform="translate(-2 -2)" fill-rule="evenodd"/></svg>