<svg xmlns="http://www.w3.org/2000/svg" viewBox="0 0 32 32"><path d="M10.616 3.09c-1.383.066-2.328.287-3.154.611a6.4 6.4 0 0 0-2.3 1.504 6.4 6.4 0 0 0-1.495 2.304c-.32.827-.536 1.773-.598 3.157-.06 1.384-.074 1.829-.067 5.359s.022 3.973.089 5.36c.066 1.382.286 2.327.61 3.153.334.854.78 1.579 1.504 2.3a6.4 6.4 0 0 0 2.306 1.495c.827.32 1.773.537 3.156.598s1.83.074 5.359.067 3.973-.022 5.36-.088c1.386-.066 2.326-.287 3.152-.61a6.4 6.4 0 0 0 2.3-1.504 6.4 6.4 0 0 0 1.494-2.305c.32-.827.538-1.773.598-3.156.06-1.387.075-1.83.069-5.36-.007-3.53-.023-3.972-.089-5.359-.066-1.386-.286-2.327-.61-3.154a6.4 6.4 0 0 0-1.503-2.3 6.35 6.35 0 0 0-2.306-1.494c-.827-.32-1.772-.538-3.156-.598s-1.83-.075-5.36-.069c-3.53.007-3.972.022-5.359.09m.152 23.502c-1.268-.055-1.956-.266-2.415-.442a4.05 4.05 0 0 1-1.497-.97 4 4 0 0 1-.975-1.493c-.178-.458-.392-1.146-.452-2.413-.064-1.37-.078-1.781-.085-5.252s.006-3.882.066-5.252c.054-1.267.266-1.956.442-2.414.234-.608.516-1.04.97-1.497a4 4 0 0 1 1.492-.975c.459-.179 1.146-.392 2.413-.452 1.371-.065 1.782-.078 5.252-.086s3.882.006 5.254.066c1.266.055 1.955.265 2.413.442a4 4 0 0 1 1.497.97c.457.454.739.886.976 1.493.179.457.392 1.144.451 2.412.066 1.371.08 1.782.087 5.252s-.006 3.882-.066 5.252c-.056 1.268-.266 1.956-.442 2.415a4 4 0 0 1-.97 1.497 4 4 0 0 1-1.494.975c-.457.179-1.145.392-2.411.452-1.372.065-1.782.078-5.254.086s-3.881-.007-5.252-.066m10.598-17.54a1.56 1.56 0 1 0 3.12-.006 1.56 1.56 0 0 0-3.12.006m-12.04 6.961a6.676 6.676 0 1 0 13.35-.028 6.676 6.676 0 0 0-13.35.028m2.34-.005a4.334 4.334 0 1 1 8.668-.017 4.334 4.334 0 0 1-8.667.017"/></svg>