<svg width="16" height="16" xmlns="http://www.w3.org/2000/svg"><path d="M7.545.463h.985c1.593.001 1.87.012 2.6.045.798.036 1.343.163 1.82.348.493.192.911.449 1.328.866.417.417.674.835.866 1.328.185.477.312 1.022.348 1.82.033.73.044 1.007.045 2.6v.985c-.001 1.593-.012 1.87-.045 2.6-.036.798-.163 1.343-.348 1.82a3.677 3.677 0 01-.866 1.329 3.677 3.677 0 01-1.328.865c-.477.185-1.022.312-1.82.349-.696.031-.98.042-2.381.044H7.326c-1.402-.002-1.685-.013-2.381-.044-.798-.037-1.343-.164-1.82-.349a3.677 3.677 0 01-1.329-.865 3.676 3.676 0 01-.865-1.328c-.185-.478-.312-1.023-.349-1.821-.031-.696-.042-.98-.044-2.381V7.251C.54 5.85.55 5.566.582 4.871c.038-.8.164-1.345.349-1.821a3.68 3.68 0 01.865-1.328A3.676 3.676 0 013.124.856C3.602.671 4.147.544 4.945.508c.73-.033 1.007-.044 2.6-.045h.985zm1.39 1.352H7.14c-1.205.003-1.48.013-2.133.043-.732.033-1.129.155-1.393.258-.35.136-.6.299-.862.561a2.323 2.323 0 00-.561.862c-.103.265-.225.662-.259 1.393-.033.722-.042.983-.043 2.547v.968c.001 1.564.01 1.824.043 2.546.034.732.156 1.129.259 1.393.136.35.298.6.56.862.263.263.513.425.863.561.264.103.661.225 1.393.259.722.033.982.042 2.546.043h.968c1.564-.001 1.825-.01 2.547-.043.731-.034 1.128-.156 1.393-.259.35-.136.6-.298.862-.56.262-.263.425-.513.56-.863.104-.264.226-.661.26-1.393.029-.653.04-.928.042-2.133V7.066a38.282 38.282 0 00-.043-2.134c-.033-.731-.155-1.128-.258-1.393-.136-.35-.299-.6-.561-.862a2.323 2.323 0 00-.862-.56c-.265-.104-.662-.226-1.393-.26-.653-.029-.929-.04-2.134-.042zm-.898 2.398a3.75 3.75 0 110 7.5 3.75 3.75 0 010-7.5zm0 1.316a2.434 2.434 0 100 4.868 2.434 2.434 0 000-4.868zm3.75-2.254a.938.938 0 110 1.875.938.938 0 010-1.875z" fill-rule="evenodd"/></svg>