<svg xmlns="http://www.w3.org/2000/svg" viewBox="0 0 32 32"><path fill-rule="evenodd" d="M16 4l13.524 8.263c.47.287.617.898.328 1.365-.29.467-.906.613-1.376.326L26 12.44V28H6V12.44l-2.476 1.514a1.004 1.004 0 01-1.376-.326.989.989 0 01.328-1.365L16 4zm3.845 16.983L16 24.828l-3.846-3.845-.13.073a8.018 8.018 0 00-3.732 4.783L8.25 26h15.495l-.04-.154a8.016 8.016 0 00-3.73-4.79l-.13-.072zM16 6.331L8 11.22V22a10.03 10.03 0 014.334-3.306l.261-.098L16 22l3.406-3.405A10.025 10.025 0 0124 21.999V11.22l-8-4.888zM16 10a4 4 0 01.2 7.995L16 18a4 4 0 01-.2-7.995L16 10zm0 2a2 2 0 100 4 2 2 0 000-4z"/></svg>