<svg width="17" height="17" xmlns="http://www.w3.org/2000/svg" xmlns:xlink="http://www.w3.org/1999/xlink"><defs><path d="M5.683 13.433a.625.625 0 11.884.884L3.03 17.852a.625.625 0 11-.883-.883l3.535-3.536zm-.751.076L1.25 12.93l.223-.696c.738-2.3 2.959-3.762 4.612-3.793a13.314 13.314 0 012.291-3.04c2.096-2.096 4.925-3.055 8.44-2.882l.567.027.028.566c.172 3.516-.786 6.345-2.882 8.44-.92.92-1.937 1.682-3.047 2.283-.03 1.654-1.492 3.876-3.793 4.614l-.697.223-.577-3.681-1.483-1.483zm3.063 3.455c1.084-.583 1.839-1.599 2.116-2.47a14.05 14.05 0 01-2.393.707l.277 1.763zm-.782-2.95c2.533-.474 4.671-1.587 6.43-3.346 1.718-1.718 2.564-4.01 2.532-6.913-2.904-.031-5.195.814-6.913 2.532-1.794 1.794-2.907 3.931-3.348 6.427l1.3 1.3zM5.43 9.811c-.872.278-1.887 1.032-2.47 2.117l1.763.276c.165-.818.4-1.616.707-2.393zm8.414-3.732a1.875 1.875 0 11-2.652 2.651 1.875 1.875 0 012.652-2.651zm-1.768.884a.625.625 0 10.884.883.625.625 0 00-.884-.883z" id="a"/></defs><use xlink:href="#a" transform="translate(-1 -2)"/></svg>