<svg xmlns="http://www.w3.org/2000/svg" viewBox="0 0 32 32"><path fill-rule="evenodd" d="M18.908 8.728a3 3 0 1 1 4.242 4.241 3 3 0 0 1-4.242-4.241m2.828 1.414a1 1 0 1 0-1.414 1.414 1 1 0 0 0 1.414-1.414" clip-rule="evenodd"/><path fill-rule="evenodd" d="M27.907 3.043a.96.96 0 0 1 .938.939c.11 4.978-.933 9.839-4.6 13.505a21 21 0 0 1-4.874 3.65c-.048 2.647-2.387 6.203-6.07 7.384a1.002 1.002 0 0 1-1.295-.797l-.742-4.738-.49-.49-6.066 6.069a1 1 0 0 1-1.415-1.414l6.067-6.069-.47-.469-4.736-.742a1.002 1.002 0 0 1-.797-1.295c1.18-3.68 4.733-6.019 7.379-6.069a21.3 21.3 0 0 1 3.666-4.864c3.666-3.666 8.526-4.71 13.505-4.6M17.178 22.19q-1.864.735-3.829 1.13l.443 2.822c1.735-.933 2.942-2.558 3.386-3.952M26.88 5.008c-4.645-.05-8.312 1.303-11.06 4.052-2.87 2.87-4.652 6.289-5.357 10.282l2.08 2.08c4.052-.758 7.473-2.539 10.287-5.352 2.748-2.75 4.101-6.416 4.05-11.062M9.688 14.699c-1.395.445-3.02 1.652-3.952 3.387l2.82.443a22.5 22.5 0 0 1 1.132-3.83" clip-rule="evenodd"/></svg>