<svg xmlns="http://www.w3.org/2000/svg" xmlns:xlink="http://www.w3.org/1999/xlink" viewBox="0 0 32 32"><defs><path id="a" d="M24.245 18 25 19.796a16.19 16.19 0 0 0-1.378.681l.01.005-.135.065a15.409 15.409 0 0 0-3.413 2.624 15.212 15.212 0 0 0-2.501 3.366c-.217.398-.392.765-.53 1.091a5.917 5.917 0 0 0-.144.372H15.09a5.626 5.626 0 0 0-.145-.372 12.093 12.093 0 0 0-.529-1.09 15.212 15.212 0 0 0-2.5-3.367 15.409 15.409 0 0 0-3.414-2.624 13.96 13.96 0 0 0-.133-.065l.008-.005c-.44-.245-.9-.472-1.378-.681L7.755 18a17.452 17.452 0 0 1 5.516 3.79A17.177 17.177 0 0 1 16 25.42a17.177 17.177 0 0 1 2.729-3.631A17.452 17.452 0 0 1 24.245 18zm.606 4.065a3 3 0 0 1-4.594 3.377L20 25.7c1.263-1.288 2.84-2.662 4.616-3.527zm-17.702 0L7 21.996c1.814.793 3.433 2.143 4.744 3.446a3 3 0 0 1-4.595-3.377zm4.638-7.81a6.043 6.043 0 0 1 0-8.495 5.923 5.923 0 0 1 8.426 0 6.043 6.043 0 0 1 0 8.496 5.923 5.923 0 0 1-8.426 0zm1.405-1.415a3.948 3.948 0 0 0 5.616 0 4.029 4.029 0 0 0 0-5.664 3.948 3.948 0 0 0-5.616 0 4.029 4.029 0 0 0 0 5.664z"/></defs><use xlink:href="#a" fill-rule="evenodd"/></svg>