<svg xmlns="http://www.w3.org/2000/svg" viewBox="0 0 32 32"><path d="M11.787 3.759a5.924 5.924 0 0 1 8.426 0 6.04 6.04 0 0 1 1.4 6.252 14 14 0 0 1 2.581-.384c1.21-.068 2.223.033 2.939.152.358.06.645.124.846.176q.151.04.236.065l.068.02.02.008q.005 0 .008.002h.003l.002.002.147.062A1 1 0 0 1 29 11v15a1 1 0 0 1-1.314.949h-.003l-.035-.01-.166-.046a8 8 0 0 0-.677-.14 11.5 11.5 0 0 0-2.5-.13c-2.07.116-4.854.804-7.664 3.145l-.044.03q-.03.024-.062.046l-.012.008a1 1 0 0 1-.084.045l-.015.009h-.003a1 1 0 0 1-.197.066l-.042.011a1 1 0 0 1-.182.015 1 1 0 0 1-.183-.015l-.042-.01a1 1 0 0 1-.197-.067h-.002l-.016-.009a1 1 0 0 1-.083-.045l-.013-.009q-.032-.021-.062-.044l-.043-.03c-2.81-2.342-5.595-3.03-7.665-3.145a11.5 11.5 0 0 0-2.499.129 8 8 0 0 0-.842.185l-.036.01h-.003A1 1 0 0 1 3 26.002V11a1 1 0 0 1 .684-.948l.002-.002h.002l.008-.002.02-.007.07-.02a7 7 0 0 1 .235-.066c.201-.052.488-.116.846-.176.716-.12 1.729-.22 2.939-.152.786.043 1.654.16 2.578.384a6.04 6.04 0 0 1 1.403-6.252m-4.093 7.865a11.5 11.5 0 0 0-2.499.129q-.103.017-.195.036v12.97a13.6 13.6 0 0 1 2.806-.132c2.013.112 4.564.689 7.194 2.394v-12.54c-2.688-2.11-5.324-2.747-7.306-2.857m19.11.129a11.5 11.5 0 0 0-2.498-.13c-1.982.11-4.618.749-7.306 2.858v12.54c2.63-1.706 5.181-2.282 7.194-2.394 1.138-.063 2.1.023 2.806.133V11.789q-.091-.019-.195-.036M18.81 5.176a3.95 3.95 0 0 0-5.618 0 4.03 4.03 0 0 0 .453 6.056q.441.228.888.497a3.95 3.95 0 0 0 2.933.001q.448-.27.89-.498.238-.176.454-.392a4.03 4.03 0 0 0 0-5.664"/></svg>