<svg width="12" height="16" xmlns="http://www.w3.org/2000/svg" xmlns:xlink="http://www.w3.org/1999/xlink"><defs><path d="M15.124 12.638l.03-.013c-.156.068-.308.138-.457.212a9.608 9.608 0 00-2.145 1.645 9.507 9.507 0 00-1.563 2.104 7.558 7.558 0 00-.33.682c-.05.117-.08.197-.09.232H9.431a3.516 3.516 0 00-.09-.232 7.558 7.558 0 00-.331-.682 9.63 9.63 0 00-3.707-3.75l-.072-.034a8.592 8.592 0 00-.857-.43l.472-1.122a10.907 10.907 0 013.447 2.368A10.736 10.736 0 0110 15.888a10.897 10.897 0 015.153-4.638l.472 1.123c-.298.13-.585.272-.86.425l.004.003.355-.163zm.407 1.152a1.875 1.875 0 01-2.87 2.112l-.161.16c.824-.84 1.86-1.738 3.03-2.272zm-11.064 0l-.092-.042c1.134.495 2.146 1.339 2.965 2.153a1.875 1.875 0 01-2.912-1.97l.039-.141zm2.9-4.88a3.777 3.777 0 010-5.31 3.702 3.702 0 015.266 0 3.777 3.777 0 010 5.31 3.702 3.702 0 01-5.266 0zm.878-.885c.97.977 2.54.977 3.51 0 .97-.978.97-2.563 0-3.54a2.468 2.468 0 00-3.51 0 2.518 2.518 0 000 3.54z" id="a"/></defs><use xlink:href="#a" transform="translate(-4 -2)" fill-rule="evenodd"/></svg>