<svg xmlns="http://www.w3.org/2000/svg" viewBox="0 0 32 32"><path d="M19 29a1 1 0 1 1 0 2h-6a1 1 0 1 1 0-2zM16 1c5.523 0 10 4.477 10 10a9.99 9.99 0 0 1-4.552 8.38l-1.129 6.784a1 1 0 0 1-.986.836h-6.666a1 1 0 0 1-.986-.836L10.55 19.38A9.99 9.99 0 0 1 6 11C6 5.477 10.477 1 16 1m-2.486 24h4.972l.333-2h-5.638zM16 3a8 8 0 0 0-4.253 14.773l.22.134.093.062a1 1 0 0 1 .388.637l.4 2.406Q12.924 21 13 21h6q.075 0 .15.012l.4-2.406.025-.108a1 1 0 0 1 .457-.59A7.99 7.99 0 0 0 24 11a8 8 0 0 0-8-8m0 2a6 6 0 0 1 6 6 1 1 0 1 1-2 0 4 4 0 0 0-4-4 1 1 0 1 1 0-2"/></svg>