<svg xmlns="http://www.w3.org/2000/svg" viewBox="0 0 32 32"><path fill-rule="evenodd" d="M23.683 28.995A3.5 3.5 0 0 0 27 25.5l-.009-.245a3.5 3.5 0 0 0-.119-.685A3.5 3.5 0 0 0 28 22l-.009-.246a3.5 3.5 0 0 0-.119-.684A3.5 3.5 0 0 0 29 18.5l-.006-.202a3.47 3.47 0 0 0-.554-1.689c.352-.521.56-1.15.56-1.828l-.004-.169A3.28 3.28 0 0 0 25.72 11.5h-5.382l2.065-5.682.078-.245a3 3 0 0 0-1.024-3.125l-.208-.151-1.693-1.128a1 1 0 0 0-1.399.295l-4.379 6.882-3.522 3.1A2 2 0 0 0 9 11H5a2 2 0 0 0-2 2v12a2 2 0 0 0 2 2h4l.204-.01c.313-.032.604-.137.857-.296.447.252 1.115.61 1.9.967 1.4.636 3.314 1.34 5.039 1.34h6.502zM17 27c-1.274 0-2.86-.546-4.21-1.16a23 23 0 0 1-1.79-.914V13.403q.124-.059.23-.152l3.976-3.499.1-.1a1 1 0 0 0 .084-.114L19.295 3.4l.844.561.133.106a1 1 0 0 1 .295.904l-.044.164-2.553 7.023a1 1 0 0 0 .94 1.342h6.809c.663 0 1.208.504 1.274 1.15l.007.131c0 .41-.195.778-.503 1.015a1 1 0 0 0-.033 1.557c.289.243.482.588.526.977l.01.17a1.5 1.5 0 0 1-.814 1.332 1 1 0 0 0-.4 1.401q.155.26.2.562l.014.204a1.5 1.5 0 0 1-.814 1.333 1 1 0 0 0-.4 1.401c.136.228.214.49.214.767l-.008.153a1.5 1.5 0 0 1-1.337 1.34l-.153.007zM5 13h4v12H5z" clip-rule="evenodd"/></svg>