<svg xmlns="http://www.w3.org/2000/svg" xmlns:xlink="http://www.w3.org/1999/xlink" viewBox="0 0 32 32"><defs><path id="a" d="M17 23.215h6c.552 0 1-.431 1-.964 0-.532-.448-.964-1-.964h-3.5c-1.333 0-1.333-1.928 0-1.928H25c.552 0 1-.432 1-.964 0-.533-.448-.964-1-.964h-4c-1.333 0-1.333-1.928 0-1.928h4c.552 0 1-.432 1-.964 0-.533-.448-.965-1-.965h-8.466c-.698 0-1.181-.671-.937-1.301l2.334-6.02a.946.946 0 0 0-.387-1.152l-.048-.03a.93.93 0 0 0-1.18.157L6.244 16.694a.937.937 0 0 0-.178.96l.04.129 1.864 8.09c.214.82.569 1.199 1.03 1.199h12c.552 0 1-.432 1-.964 0-.533-.448-.964-1-.964h-4c-1.333 0-1.333-1.929 0-1.929zm11-4.82c0 1.334-.936 2.457-2.21 2.79.136.33.21.69.21 1.066 0 1.334-.936 2.457-2.21 2.791.136.33.21.69.21 1.066C24 27.705 22.657 29 21 29H9c-1.551 0-2.556-1.074-2.976-2.683L4.167 18.26a2.796 2.796 0 0 1-.147-.64.929.929 0 0 1-.017-.27 2.82 2.82 0 0 1 .72-1.907L14.794 3.976c.95-1.066 2.574-1.289 3.795-.52l.048.03c1.183.745 1.667 2.185 1.164 3.45l-1.827 4.71H25c1.657 0 3 1.295 3 2.893 0 .74-.289 1.416-.764 1.928.475.511.764 1.187.764 1.928z"/></defs><use xlink:href="#a" fill-rule="evenodd"/></svg>