<svg width="16" height="18" xmlns="http://www.w3.org/2000/svg"><path d="M15.5 10.497c0 .833-.585 1.535-1.381 1.744.085.206.131.43.131.666 0 .834-.585 1.536-1.381 1.744.085.207.131.431.131.666 0 .999-.84 1.808-1.875 1.808h-7.5c-.97 0-1.598-.671-1.86-1.677l-1.16-5.036a1.748 1.748 0 01-.093-.4.58.58 0 01-.01-.168 1.762 1.762 0 01.45-1.192l6.295-7.167a1.865 1.865 0 012.372-.325l.03.019c.74.466 1.041 1.366.727 2.156L9.235 6.279h4.39c1.036 0 1.875.81 1.875 1.808 0 .463-.18.885-.477 1.205.297.32.477.742.477 1.205z" fill-rule="evenodd"/></svg>