<svg width="16" height="18" xmlns="http://www.w3.org/2000/svg" xmlns:xlink="http://www.w3.org/1999/xlink"><defs><path d="M10.625 14.51h3.75c.345 0 .625-.27.625-.603a.614.614 0 00-.625-.602h-2.187c-.834 0-.834-1.206 0-1.206h3.437c.345 0 .625-.27.625-.602a.614.614 0 00-.625-.603h-2.5c-.833 0-.833-1.205 0-1.205h2.5c.345 0 .625-.27.625-.602a.614.614 0 00-.625-.603h-5.291c-.436 0-.738-.42-.586-.814l1.46-3.762a.591.591 0 00-.243-.72l-.03-.019a.581.581 0 00-.737.098l-6.296 7.167a.585.585 0 00-.11.6l.024.08 1.165 5.056c.134.513.356.75.644.75h7.5c.345 0 .625-.27.625-.603a.614.614 0 00-.625-.602h-2.5c-.833 0-.833-1.205 0-1.205zm6.875-3.013c0 .833-.585 1.535-1.381 1.744.085.206.131.43.131.666 0 .834-.585 1.536-1.381 1.744.085.207.131.431.131.666 0 .999-.84 1.808-1.875 1.808h-7.5c-.97 0-1.598-.671-1.86-1.677l-1.16-5.036a1.748 1.748 0 01-.093-.4.58.58 0 01-.01-.168 1.762 1.762 0 01.45-1.192l6.295-7.167a1.865 1.865 0 012.372-.325l.03.019c.74.466 1.041 1.366.727 2.156l-1.141 2.944h4.39c1.036 0 1.875.81 1.875 1.808 0 .463-.18.885-.477 1.205.297.32.477.742.477 1.205z" id="a"/></defs><use xlink:href="#a" transform="translate(-2 -1)"/></svg>