<svg width="15" height="14" xmlns="http://www.w3.org/2000/svg" xmlns:xlink="http://www.w3.org/1999/xlink"><defs><path d="M10 6.875a3.125 3.125 0 013.062 3.75l-1.294.001a1.875 1.875 0 00-1.621-2.496L10 8.126H5c-.986 0-1.795.761-1.87 1.728L3.126 10c0 .986.761 1.795 1.728 1.87l.147.005 1.827.001c.265.47.613.892 1.025 1.25L5 13.125a3.125 3.125 0 010-6.25h5zm5.625 0a3.125 3.125 0 010 6.25h-5a3.125 3.125 0 01-3.062-3.75l1.294-.001a1.875 1.875 0 001.621 2.496l.147.005h5c.986 0 1.795-.761 1.87-1.728L17.5 10c0-.986-.761-1.795-1.728-1.87l-.147-.005-1.827-.001a4.755 4.755 0 00-1.025-1.25l2.852.001z" id="a"/></defs><use transform="rotate(-45 5.191 12.121)" xlink:href="#a"/></svg>