<svg width="16" height="16" xmlns="http://www.w3.org/2000/svg"><path d="M13.28 13.28h-2.222V9.8c0-.83-.015-1.898-1.156-1.898-1.157 0-1.334.904-1.334 1.838v3.54H6.345V6.123h2.134v.978h.03a2.338 2.338 0 012.105-1.156c2.252 0 2.668 1.482 2.668 3.41l-.001 3.926zM3.838 5.146a1.29 1.29 0 110-2.58 1.29 1.29 0 010 2.58zM4.95 13.28H2.724V6.123h2.225v7.158zM14.389.5H1.607A1.095 1.095 0 00.5 1.582v12.835A1.095 1.095 0 001.607 15.5h12.782a1.098 1.098 0 001.111-1.083V1.581a1.097 1.097 0 00-1.111-1.08z"/></svg>