<svg xmlns="http://www.w3.org/2000/svg" viewBox="0 0 32 32"><path d="M23 15a8 8 0 1 1 0 16 8 8 0 0 1 0-16m1.63 4.225a1 1 0 0 0-1.405 1.406l.068.076L24.586 22H19a1 1 0 0 0 0 2h5.586l-1.293 1.293a1 1 0 0 0 1.414 1.414l3-3a1 1 0 0 0 .068-1.338l-.068-.076-3-3zM9.3 9.644a4.996 4.996 0 0 1 6.88.176l.706.707.068.075a1 1 0 0 1-1.406 1.408l-.076-.069-.707-.707a2.996 2.996 0 0 0-4.125-.105l-.112.105-6.65 6.652a2.996 2.996 0 0 0 4.236 4.236l3.12-3.118a1 1 0 1 1 1.413 1.414l-3.119 3.12a4.996 4.996 0 0 1-7.065-7.066L9.114 9.82zm7.358-7.358a4.996 4.996 0 0 1 7.056 7.056l-.177.186-6.651 6.652a4.996 4.996 0 0 1-6.88.177l-.186-.177-.706-.707-.068-.075a1 1 0 0 1 1.406-1.408l.076.069.706.707.113.105a2.996 2.996 0 0 0 4.125-.105l6.65-6.652.106-.111a2.995 2.995 0 0 0-4.231-4.232l-.111.107-3.12 3.118a1 1 0 0 1-1.414-1.414l3.12-3.12z"/></svg>