<svg xmlns="http://www.w3.org/2000/svg" viewBox="0 0 32 32"><path fill-rule="evenodd" d="M24.45 24.45h-3.557v-5.57c0-1.328-.024-3.037-1.85-3.037-1.852 0-2.135 1.447-2.135 2.94v5.666h-3.556V12.997h3.414v1.565h.048a3.741 3.741 0 013.368-1.85c3.604 0 4.269 2.37 4.269 5.455l-.002 6.282zM9.34 11.43a2.064 2.064 0 11-.001-4.127 2.064 2.064 0 010 4.127zm1.778 13.018h-3.56V12.997h3.56v11.452zM26.222 4.002H5.771A1.751 1.751 0 004 5.732v20.535A1.753 1.753 0 005.771 28h20.451A1.756 1.756 0 0028 26.267V5.73A1.755 1.755 0 0026.222 4v.002z"/></svg>