<svg xmlns="http://www.w3.org/2000/svg" viewBox="0 0 32 32"><path fill-rule="evenodd" d="M26.111 3A2.89 2.89 0 0 1 29 5.889V26.11A2.89 2.89 0 0 1 26.111 29H5.89A2.89 2.89 0 0 1 3 26.111V5.89A2.89 2.89 0 0 1 5.889 3zM6.984 25.389h3.877V12.87H6.984zm13.849-12.9c-2.656 0-3.775 2.068-3.775 2.068V12.87H13.34v12.52h3.718v-6.572c0-1.76.81-2.808 2.362-2.808 1.426 0 2.11 1.007 2.11 2.808v6.572h3.859v-7.926c0-3.353-1.9-4.975-4.556-4.975M8.904 6.61a2.3 2.3 0 0 0-2.293 2.31 2.3 2.3 0 0 0 2.293 2.31 2.3 2.3 0 0 0 2.292-2.31 2.3 2.3 0 0 0-2.292-2.31" clip-rule="evenodd"/></svg>