<svg xmlns="http://www.w3.org/2000/svg" xmlns:xlink="http://www.w3.org/1999/xlink" viewBox="0 0 32 32"><defs><path id="a" d="M16 11a5 5 0 014.9 6.001h-2.071a3 3 0 00-2.653-3.996L16 13H8a3 3 0 00-.176 5.995L8 19l2.923.001c.424.751.98 1.427 1.64 2L8 21a5 5 0 010-10h8zm4.438-.001L25 11a5 5 0 010 10h-8a5 5 0 01-4.9-6.001h2.071a3 3 0 002.653 3.996L17 19h8a3 3 0 00.176-5.995L25 13l-2.923-.001a7.607 7.607 0 00-1.64-2z"/></defs><use fill-rule="evenodd" transform="rotate(-45 16.5 16)" xlink:href="#a"/></svg>