<svg width="16" height="16" xmlns="http://www.w3.org/2000/svg" xmlns:xlink="http://www.w3.org/1999/xlink"><defs><path d="M15.193 15H11.76c-.282 0-.511-.28-.511-.625s.229-.625.511-.625h3.432l-1.266-1.433a.64.64 0 010-.884.59.59 0 01.854 0l2.719 2.942-2.719 2.942a.59.59 0 01-.854 0 .64.64 0 010-.884L15.193 15zm-3.434-7.126l-.914.914a1.873 1.873 0 00-3.015-.517l-3.533 3.532a1.873 1.873 0 002.65 2.65l1.29-1.29a4.75 4.75 0 001.606.159L7.83 15.336a3.122 3.122 0 01-4.416-4.416l3.533-3.532a3.122 3.122 0 014.812.486zm-4.768 3.002l.914-.914a1.873 1.873 0 003.015.517l3.533-3.532a1.873 1.873 0 10-2.65-2.65l-1.29 1.29a4.75 4.75 0 00-1.606-.159l2.013-2.014a3.122 3.122 0 114.416 4.416l-3.533 3.532a3.122 3.122 0 01-4.812-.486z" id="a"/></defs><use xlink:href="#a" transform="translate(-2 -2)"/></svg>