<svg xmlns="http://www.w3.org/2000/svg" xmlns:xlink="http://www.w3.org/1999/xlink" viewBox="0 0 32 32"><defs><path id="a" d="M24.308 24h-5.49c-.452 0-.818-.448-.818-1s.366-1 .818-1h5.49l-2.025-2.293a1.025 1.025 0 010-1.414.944.944 0 011.367 0L28 23l-4.35 4.707a.944.944 0 01-1.367 0 1.025 1.025 0 010-1.414L24.308 24zm-5.493-11.402l-1.463 1.463a2.997 2.997 0 00-4.824-.827l-5.652 5.651a2.997 2.997 0 104.239 4.239l2.064-2.065a7.6 7.6 0 002.57.256l-3.222 3.222a4.995 4.995 0 01-7.064-7.064l5.652-5.652a4.995 4.995 0 017.7.777zm-7.63 4.804l1.463-1.463a2.997 2.997 0 004.824.827l5.652-5.651a2.997 2.997 0 10-4.239-4.239l-2.064 2.065a7.6 7.6 0 00-2.57-.256l3.222-3.222a4.995 4.995 0 017.064 7.064l-5.652 5.652a4.995 4.995 0 01-7.7-.777z"/></defs><use fill-rule="evenodd" xlink:href="#a"/></svg>