<svg xmlns="http://www.w3.org/2000/svg" viewBox="0 0 32 32"><path d="M12.3 12.644a4.996 4.996 0 0 1 6.88.176l.706.707.068.075a1 1 0 0 1-1.406 1.408l-.076-.069-.707-.707a2.996 2.996 0 0 0-4.125-.105l-.112.105-7.65 7.652a2.996 2.996 0 0 0 4.236 4.236l4.12-4.118a1 1 0 0 1 1.413 1.414l-4.119 4.12a4.997 4.997 0 0 1-7.065-7.066l7.651-7.652zm8.358-8.358a4.997 4.997 0 0 1 7.056 7.056l-.177.186-7.651 7.652a4.996 4.996 0 0 1-6.88.176l-.186-.176-.706-.707-.068-.075a1.001 1.001 0 0 1 1.406-1.408l.076.069.706.707.113.105a2.996 2.996 0 0 0 4.124-.105l7.65-7.652.107-.111a2.995 2.995 0 0 0-4.231-4.232l-.111.107-4.12 4.118a1 1 0 0 1-1.414-1.414l4.12-4.12z"/></svg>