<svg xmlns="http://www.w3.org/2000/svg" viewBox="0 0 32 32"><path d="M5.75 22.75c1.448 0 2.75 1.107 2.75 2.625 0 .63-.227 1.187-.592 1.625.365.439.592.996.592 1.625 0 1.518-1.303 2.625-2.75 2.625a2.9 2.9 0 0 1-2.037-.821 3.2 3.2 0 0 1-.602-.803l-.012-.023-.003-.009-.002-.005h-.001c0-.001 0-.003.907-.422l-.908.42a1 1 0 0 1 1.814-.843v-.003l.028.048c.035.053.09.127.165.2a.9.9 0 0 0 .65.261c.486 0 .75-.348.75-.625 0-.276-.264-.625-.75-.625H5.5a1 1 0 0 1 0-2h.25l.09-.004c.428-.04.66-.361.66-.62 0-.277-.264-.626-.75-.626a.9.9 0 0 0-.65.262 1.2 1.2 0 0 0-.197.253l.003-.006.001-.003-.046.087a1 1 0 0 1-1.768-.929l.855.395a97 97 0 0 1-.854-.396v-.002l.003-.005.003-.008.012-.024a2 2 0 0 1 .15-.257 3.2 3.2 0 0 1 .452-.545 2.9 2.9 0 0 1 2.037-.822M29 28H12v-2h17zM5.5 12c.655 0 1.267.3 1.704.714.445.422.796 1.046.796 1.786 0 .651-.304 1.314-.6 1.832a13 13 0 0 1-1.119 1.606l-.05.062H7.5a1 1 0 1 1 0 2H4a1 1 0 0 1-.707-1.707l.006-.006.021-.022.089-.09a22 22 0 0 0 1.31-1.487c.359-.449.699-.92.944-1.348.266-.465.337-.74.337-.84 0-.088-.044-.213-.172-.335A.55.55 0 0 0 5.5 14a.55.55 0 0 0-.328.165c-.128.121-.172.247-.172.335a1 1 0 0 1-2 0c0-.74.351-1.364.796-1.786C4.233 12.3 4.845 12 5.5 12M29 17H12v-2h17zM5.518 1.123A1 1 0 0 1 7 2v6a1 1 0 1 1-2 0V4l-.4.3a1 1 0 1 1-1.2-1.6l2-1.5zM29 6H12V4h17z"/></svg>