<svg xmlns="http://www.w3.org/2000/svg" xmlns:xlink="http://www.w3.org/1999/xlink" viewBox="0 0 32 32"><defs><path id="a" d="M6.143 20.84c.667 0 1.205.163 1.605.496.409.34.615.813.615 1.396a1.5 1.5 0 0 1-.259.838c-.092.14-.207.266-.343.376.152.105.282.23.39.377.2.27.299.6.299.983 0 .588-.222 1.07-.66 1.426-.425.347-.977.518-1.647.518-.396 0-.767-.08-1.109-.238a1.838 1.838 0 0 1-.808-.69 1.85 1.85 0 0 1-.276-1v-.25h1.782v.25c0 .106.039.194.126.277a.454.454 0 0 0 .33.124c.163 0 .279-.042.363-.124a.419.419 0 0 0 .125-.32c0-.224-.046-.362-.123-.428-.089-.078-.222-.12-.41-.12h-.87V23.24h.851c.337 0 .465-.13.465-.48a.4.4 0 0 0-.102-.293c-.063-.066-.157-.101-.298-.101a.422.422 0 0 0-.282.097c-.068.056-.096.113-.096.19v.25H4.037v-.25c0-.352.095-.671.285-.95.188-.275.447-.49.773-.641a2.46 2.46 0 0 1 1.048-.223zM28 23v2H12v-2h16zM6.208 12.753c.651 0 1.169.162 1.54.494.379.338.566.818.566 1.422 0 .257-.046.507-.137.75-.09.236-.225.48-.408.733-.178.247-.459.57-.832.96l-.371.446H8.45v1.527H4.109v-1.119l.065-.168 1.763-1.935c.401-.477.595-.844.595-1.075 0-.195-.037-.33-.1-.408-.053-.067-.13-.1-.255-.1-.11 0-.192.045-.268.152a.851.851 0 0 0-.136.502v.25H3.995v-.25c0-.396.096-.764.286-1.1.191-.339.459-.605.798-.796.339-.19.716-.285 1.129-.285zM28 15v2H12v-2h16zM7.433 4.75v6.249H5.655V6.838L4.4 7.221V5.697l.165-.06 2.5-.887h.368zM28 7v2H12V7h16z"/></defs><use xlink:href="#a" fill-rule="evenodd"/></svg>