<svg width="14" height="12" xmlns="http://www.w3.org/2000/svg" xmlns:xlink="http://www.w3.org/1999/xlink"><defs><path d="M16.25 14.375v1.25h-10v-1.25h10zm-11.875 0a.625.625 0 110 1.25.625.625 0 010-1.25zm11.875-2.5v1.25h-10v-1.25h10zm-11.875 0a.625.625 0 110 1.25.625.625 0 010-1.25zm11.875-2.5v1.25h-10v-1.25h10zm-11.875 0a.625.625 0 110 1.25.625.625 0 010-1.25zm11.875-2.5v1.25h-10v-1.25h10zm-11.875 0a.625.625 0 110 1.25.625.625 0 010-1.25zm11.875-2.5v1.25h-10v-1.25h10zm-11.875 0a.625.625 0 110 1.25.625.625 0 010-1.25z" id="a"/></defs><use xlink:href="#a" transform="translate(-3 -4)" fill-rule="evenodd"/></svg>