<svg width="16" height="15" xmlns="http://www.w3.org/2000/svg" xmlns:xlink="http://www.w3.org/1999/xlink"><defs><path d="M3.84 13.025c.417 0 .753.102 1.002.31.256.213.385.508.385.872a.938.938 0 01-.162.524c-.058.088-.13.167-.214.235.095.066.176.144.244.236.125.168.186.375.186.614 0 .367-.138.669-.412.891-.266.217-.611.324-1.03.324-.247 0-.479-.05-.693-.149a1.149 1.149 0 01-.505-.431 1.156 1.156 0 01-.172-.625v-.156h1.113v.156c0 .067.025.121.08.173a.284.284 0 00.206.078c.101 0 .174-.026.226-.078a.262.262 0 00.078-.2c0-.14-.029-.226-.076-.267-.056-.049-.139-.075-.256-.075h-.544v-.932h.532c.21 0 .29-.081.29-.3a.25.25 0 00-.063-.183c-.04-.041-.098-.063-.187-.063-.07 0-.126.02-.176.06a.142.142 0 00-.06.12v.155H2.523v-.156c0-.22.06-.42.178-.594.118-.172.28-.306.483-.4.2-.093.419-.14.656-.14zm13.66 1.35v1.25h-10v-1.25h10zM3.88 7.971c.407 0 .73.101.963.308.236.211.353.512.353.89 0 .16-.028.316-.085.468-.056.148-.141.3-.255.458a6.095 6.095 0 01-.52.6l-.232.279H5.28v.954H2.568v-.7l.04-.104 1.103-1.21c.25-.298.372-.527.372-.672 0-.122-.023-.205-.063-.255-.033-.041-.082-.062-.16-.062-.068 0-.12.028-.167.095a.532.532 0 00-.085.314v.156h-1.11v-.156c0-.247.059-.478.178-.688.12-.212.286-.378.499-.497.211-.119.447-.178.705-.178zM17.5 9.375v1.25h-10v-1.25h10zM4.646 2.969v3.905H3.534v-2.6l-.784.24V3.56l.103-.038 1.563-.554h.23zM17.5 4.375v1.25h-10v-1.25h10z" id="a"/></defs><use xlink:href="#a" transform="translate(-2 -2)" fill-rule="evenodd"/></svg>