<svg xmlns="http://www.w3.org/2000/svg" viewBox="0 0 32 32"><path d="M16 2c5.523 0 10 4.477 10 10 0 1.714-.633 3.683-1.494 5.598-.872 1.937-2.026 3.92-3.165 5.693a77 77 0 0 1-4.46 6.21l-.078.098-.02.025-.007.007-.002.002a1 1 0 0 1-1.472.083l-.076-.083-.002-.002-.006-.007-.02-.025-.079-.098-.29-.366a77 77 0 0 1-4.169-5.844c-1.14-1.773-2.294-3.756-3.166-5.693C6.633 15.683 6 13.714 6 12 6 6.477 10.477 2 16 2m0 2a8 8 0 0 0-8 8c0 1.286.492 2.942 1.318 4.777.816 1.813 1.912 3.705 3.023 5.432A75 75 0 0 0 16 27.384a75 75 0 0 0 3.66-5.175c1.11-1.727 2.206-3.619 3.022-5.432C23.508 14.942 24 13.285 24 12a8 8 0 0 0-8-8m0 4a4 4 0 1 1 0 8 4 4 0 0 1 0-8m0 2a2 2 0 1 0 0 4 2 2 0 0 0 0-4"/></svg>