<svg width="12" height="18" xmlns="http://www.w3.org/2000/svg" xmlns:xlink="http://www.w3.org/1999/xlink"><defs><path d="M10 1.875c3.112 0 5.625 2.61 5.625 5.817 0 2.032-1.615 5.256-4.838 9.782l-.28.391-.507.704-.507-.704c-3.41-4.732-5.118-8.083-5.118-10.173 0-3.207 2.513-5.817 5.625-5.817zm0 1.25c-2.41 0-4.375 2.04-4.375 4.567 0 1.642 1.456 4.586 4.375 8.73 2.919-4.144 4.375-7.088 4.375-8.73 0-2.527-1.964-4.567-4.375-4.567zM10 5a2.5 2.5 0 110 5 2.5 2.5 0 010-5zm0 1.25a1.25 1.25 0 100 2.5 1.25 1.25 0 000-2.5z" id="a"/></defs><use xlink:href="#a" transform="translate(-4 -1)"/></svg>