<svg xmlns="http://www.w3.org/2000/svg" viewBox="0 0 32 32"><path d="M16 1a1 1 0 0 1 .894.552l.004.005.023.044c.023.041.058.104.106.181.098.156.24.36.413.56.386.44.756.658 1.06.658.303 0 .674-.218 1.06-.658a4.5 4.5 0 0 0 .52-.74l.023-.045.003-.005.09-.146A1.001 1.001 0 0 1 22 2v2a4.99 4.99 0 0 1-2.094 4.066 23 23 0 0 1 4.314 2.505C27.177 12.757 30 16.016 30 20c0 2.611-.456 4.66-1.305 6.252-.856 1.606-2.08 2.684-3.498 3.392C22.444 31.021 18.933 31 16 31s-6.444.02-9.197-1.356c-1.418-.708-2.642-1.786-3.498-3.392C2.456 24.66 2 22.612 2 20c0-3.984 2.824-7.243 5.78-9.429a23 23 0 0 1 4.313-2.505A5 5 0 0 1 10 4V2l.015-.171a1 1 0 0 1 1.879-.277l.004.005.023.044c.023.041.058.104.106.181.098.156.24.36.413.56.386.44.757.658 1.06.658s.675-.218 1.06-.658a4.5 4.5 0 0 0 .52-.74l.022-.045.005-.007A1 1 0 0 1 16 1m0 8c-.545 0-1.582.248-2.905.81a20.8 20.8 0 0 0-4.125 2.368C6.177 14.244 4 16.985 4 20c0 2.388.42 4.09 1.07 5.31.644 1.207 1.545 2.004 2.627 2.545C9.944 28.98 12.933 29 16 29s6.056-.021 8.303-1.145c1.082-.54 1.983-1.338 2.627-2.545C27.58 24.09 28 22.388 28 20c0-3.016-2.177-5.757-4.97-7.821a20.8 20.8 0 0 0-4.125-2.369C17.582 9.248 16.545 9 16 9m0 4c.985 0 1.815.305 2.451.88.542.49.883 1.123 1.089 1.78l.08.282.02.1a1 1 0 0 1-1.927.492l-.03-.098-.052-.181c-.128-.407-.309-.699-.522-.89C16.883 15.158 16.55 15 16 15c-.392 0-.913.197-1.29.546-.312.29-.44.597-.411.9l.022.13.002.01.472 2.039h2.538l.103.005a1 1 0 0 1 0 1.99l-.103.005h-2.169L15.525 23H20l.102.005a1 1 0 0 1 0 1.99L20 25h-8a1 1 0 1 1 0-2h1.503l-.362-2.375H12a1 1 0 1 1 0-2h.742l-.365-1.577-.046-.23c-.185-1.136.334-2.101 1.019-2.737C14.062 13.419 15.059 13 16 13m0-9.272C15.5 4.281 14.646 5 13.5 5c-.55 0-1.032-.167-1.44-.4A3 3 0 0 0 15 7h2a3 3 0 0 0 2.94-2.4c-.41.233-.89.4-1.44.4-1.146 0-2-.72-2.5-1.272"/></svg>