<svg width="16" height="16" xmlns="http://www.w3.org/2000/svg" xmlns:xlink="http://www.w3.org/1999/xlink"><defs><path d="M10 2.5a7.5 7.5 0 110 15 7.5 7.5 0 010-15zm0 13.75a6.25 6.25 0 006.22-5.626l-2.18.001-.758-1.138-2.013 5.368-2.5-6.25-1.737 4.632-1.741-2.612H3.78A6.25 6.25 0 0010 16.25zm0-12.5a6.25 6.25 0 00-6.22 5.625h2.18l.758 1.138 2.013-5.368 2.5 6.25 1.737-4.632 1.741 2.612h1.51A6.25 6.25 0 0010 3.75z" id="a"/></defs><use xlink:href="#a" transform="translate(-2 -2)" fill-rule="evenodd"/></svg>