<svg xmlns="http://www.w3.org/2000/svg" xmlns:xlink="http://www.w3.org/1999/xlink" viewBox="0 0 32 32"><defs><path id="a" d="M16 4c6.627 0 12 5.373 12 12s-5.373 12-12 12S4 22.627 4 16 9.373 4 16 4zm0 22c5.185 0 9.449-3.947 9.95-9h-3.485l-1.214-1.82-3.22 8.588-4-10-2.78 7.411L8.465 17H6.049c.502 5.053 4.766 9 9.951 9zm0-20c-5.185 0-9.448 3.946-9.95 8.999L9.534 15l1.214 1.82 3.22-8.588 4 10 2.78-7.411L23.535 15l2.416-.001C25.448 9.946 21.185 6 16 6z"/></defs><use xlink:href="#a" fill-rule="evenodd"/></svg>