<svg width="10" height="16" xmlns="http://www.w3.org/2000/svg" xmlns:xlink="http://www.w3.org/1999/xlink"><defs><path d="M13.75 10v-.625a.625.625 0 111.25 0V10a5 5 0 01-4.375 4.961V17.5h-1.25v-2.539A5 5 0 015 10v-.625a.625.625 0 111.25 0V10a3.75 3.75 0 007.5 0zM10 2.5A2.5 2.5 0 0112.5 5v5a2.5 2.5 0 11-5 0V5A2.5 2.5 0 0110 2.5zm0 1.25c-.69 0-1.25.56-1.25 1.25v5a1.25 1.25 0 002.5 0V5c0-.69-.56-1.25-1.25-1.25z" id="a"/></defs><use xlink:href="#a" transform="translate(-5 -2)" fill-rule="evenodd"/></svg>