<svg xmlns="http://www.w3.org/2000/svg" xmlns:xlink="http://www.w3.org/1999/xlink" viewBox="0 0 32 32"><defs><path id="a" d="m12.876 23.367 1.57-1.57A6 6 0 0 0 22 16v-1a1 1 0 0 1 2 0v1a8.001 8.001 0 0 1-7 7.938V28h-2v-4.062a7.946 7.946 0 0 1-2.124-.571zm-4.243-4.243A7.975 7.975 0 0 1 8 16v-1a1 1 0 0 1 2 0v1c0 .537.07 1.058.203 1.554l-1.57 1.57zm11.36-11.36L18 9.757V8a2 2 0 1 0-4 0v5.757l-2 2V8a4 4 0 0 1 7.993-.236zm0 8.486-3.743 3.742a4 4 0 0 0 3.742-3.742zm5.2-9.442a1 1 0 0 1 0 1.414L8.221 25.192a1 1 0 0 1-1.414-1.414l16.97-16.97a1 1 0 0 1 1.414 0z"/></defs><use xlink:href="#a" fill-rule="evenodd"/></svg>