<svg width="12" height="16" xmlns="http://www.w3.org/2000/svg" xmlns:xlink="http://www.w3.org/1999/xlink"><defs><path d="M8.047 14.604l.982-.981A3.755 3.755 0 0013.75 10v-.625a.625.625 0 111.25 0V10a5 5 0 01-4.375 4.961V17.5h-1.25v-2.539a4.966 4.966 0 01-1.328-.357zm-2.651-2.651A4.984 4.984 0 015 10v-.625a.625.625 0 111.25 0V10c0 .336.044.662.127.971l-.981.982zm7.1-7.1L11.25 6.098V5a1.25 1.25 0 00-2.5 0v3.598L7.5 9.848V5a2.5 2.5 0 014.996-.147zm0 5.303l-2.34 2.34a2.5 2.5 0 002.34-2.34zm3.25-5.901a.625.625 0 010 .884L5.138 15.745a.625.625 0 11-.884-.884L14.86 4.255a.625.625 0 01.884 0z" id="a"/></defs><use xlink:href="#a" transform="translate(-4 -2)" fill-rule="evenodd"/></svg>