<svg width="10" height="16" xmlns="http://www.w3.org/2000/svg" xmlns:xlink="http://www.w3.org/1999/xlink"><defs><path d="M13.125 2.5C14.161 2.5 15 3.34 15 4.375v11.25c0 1.036-.84 1.875-1.875 1.875h-6.25A1.875 1.875 0 015 15.625V4.375C5 3.339 5.84 2.5 6.875 2.5h6.25zM8.232 15H6.25v.625c0 .345.28.625.625.625l1.357.001a1.872 1.872 0 010-1.251zm3.536 0a1.872 1.872 0 010 1.251l1.357-.001c.345 0 .625-.28.625-.625V15h-1.982zM10 15a.625.625 0 100 1.25.625.625 0 000-1.25zm3.75-8.75h-7.5v7.5h7.5v-7.5zm-.625-2.5h-6.25a.625.625 0 00-.625.625V5h7.5v-.625a.625.625 0 00-.625-.625z" id="a"/></defs><use xlink:href="#a" transform="translate(-5 -2)"/></svg>