<svg xmlns="http://www.w3.org/2000/svg" xmlns:xlink="http://www.w3.org/1999/xlink" viewBox="0 0 32 32"><defs><path id="a" d="m16.391 4.58 10 4.25a.99.99 0 0 1 .601 1.046c.005.04.008.082.008.124v12.227a.999.999 0 0 1-.502.89l-10 5.75a1.003 1.003 0 0 1-.362.124h-.008a.991.991 0 0 1-.256 0h-.007a.972.972 0 0 1-.114-.022l-.027-.008a.91.91 0 0 1-.222-.094l.095.048a.996.996 0 0 1-.079-.038l-.016-.01-10-5.75A1 1 0 0 1 5 22.23V10c0-.043.003-.086.008-.128a.989.989 0 0 1 .6-1.042l10-4.25a1 1 0 0 1 .783 0zM7 11.26v10.411l8 4.599V14.66l-8-3.4zm18 0-8 3.4v11.61l8-4.6V11.26zm-9-4.674L8.557 9.75 16 12.913l7.443-3.163L16 6.587z"/></defs><use xlink:href="#a" fill-rule="evenodd"/></svg>