<svg width="14" height="17" xmlns="http://www.w3.org/2000/svg" xmlns:xlink="http://www.w3.org/1999/xlink"><defs><path d="M10.244 2.862l6.25 2.657a.619.619 0 01.377.65l.004.081v7.645a.625.625 0 01-.313.553l-6.25 3.594a.627.627 0 01-.22.076l-.092.007a.63.63 0 01-.106-.009l-.012-.002a.618.618 0 01-.183-.066l-.01-.006-6.25-3.594a.625.625 0 01-.314-.57V6.25a.63.63 0 01.005-.083.616.616 0 01.376-.648l6.25-2.657a.625.625 0 01.488 0zm-5.87 4.176v6.506l5 2.875V9.165l-5-2.125zm11.25 0l-5 2.124v7.257l5-2.876V7.038zM10 4.117L5.348 6.094 10 8.07l4.652-1.977L10 4.117z" id="a"/></defs><use xlink:href="#a" transform="translate(-3 -2)"/></svg>