<svg width="32" height="32" xmlns="http://www.w3.org/2000/svg" xmlns:xlink="http://www.w3.org/1999/xlink"><defs><path d="M28 12v16H4V12h24zm-15.608 2H6v12l6.394.001A6.996 6.996 0 019 20a6.996 6.996 0 013.392-6zM26 14h-6.392A6.996 6.996 0 0123 20a6.996 6.996 0 01-3.394 6.001L26 26V14zm-10 1a5 5 0 100 10 5 5 0 000-10zm.277 1.75c.577 0 1.045.171 1.388.517.343.345.513.806.513 1.368v.25h-1.43v-.25c0-.198-.046-.337-.132-.43-.083-.088-.201-.133-.373-.133a.379.379 0 00-.332.163c-.096.13-.147.307-.147.53l.026.743h1.189v1.31h-1.145l.018.465c0 .237-.031.453-.094.645h2.493l-.006 1.322h-4.48v-1.322h.25l.251.008c.005-.002.026-.026.055-.105.043-.12.067-.29.067-.502l-.018-.512h-.62v-1.309h.58l-.022-.734c0-.611.181-1.108.547-1.475.365-.366.844-.549 1.422-.549zM27 8v2H5V8h22zm-2-4v2H6V4h19z" id="a"/></defs><use xlink:href="#a" fill-rule="evenodd"/></svg>