<svg width="16" height="16" xmlns="http://www.w3.org/2000/svg" xmlns:xlink="http://www.w3.org/1999/xlink"><defs><path d="M17.5 7.5v10h-15v-10h15zM7.746 8.75H3.75v7.5l3.997.001A4.373 4.373 0 015.625 12.5c0-1.592.85-2.985 2.12-3.75zm4.508 0a4.373 4.373 0 012.121 3.75c0 1.592-.85 2.986-2.122 3.751l3.997-.001v-7.5h-3.996zM10 9.375a3.125 3.125 0 100 6.25 3.125 3.125 0 000-6.25zm.173 1.094c.36 0 .653.107.868.323.214.216.32.504.32.855v.156h-.893v-.156c0-.124-.03-.21-.083-.268-.052-.056-.126-.084-.233-.084a.237.237 0 00-.208.102.547.547 0 00-.091.331l.016.464h.743v.819h-.716l.011.291c0 .148-.02.283-.058.403h1.558l-.004.826h-2.8v-.826h.156l.157.005c.003-.001.017-.016.035-.066a.966.966 0 00.041-.313l-.011-.32h-.387v-.819h.363l-.015-.459c0-.381.114-.691.342-.92.229-.23.528-.344.89-.344zM16.875 5v1.25H3.125V5h13.75zm-1.25-2.5v1.25H3.75V2.5h11.875z" id="a"/></defs><use xlink:href="#a" transform="translate(-2 -2)"/></svg>