<svg xmlns="http://www.w3.org/2000/svg" viewBox="0 0 32 32"><path d="M29 11a2 2 0 0 1 2 2v14a2 2 0 0 1-2 2H3a2 2 0 0 1-2-2V13a2 2 0 0 1 2-2zM3 27h7.345A8.98 8.98 0 0 1 7 20a8.98 8.98 0 0 1 3.345-7H3zm13-14a7 7 0 1 0 0 14 7 7 0 0 0 0-14m5.655 0A8.98 8.98 0 0 1 25 20a8.98 8.98 0 0 1-3.345 7H29V13zM16 15c.811 0 1.504.272 2.03.778.44.426.71.964.87 1.508l.06.233.02.101a1.001 1.001 0 0 1-1.935.462l-.03-.098-.076-.263a1.3 1.3 0 0 0-.298-.503C16.519 17.1 16.338 17 16 17c-.205 0-.529.119-.773.361-.197.195-.271.392-.253.584l.013.082.002.011.318 1.462H17a1 1 0 1 1 0 2h-1.347l.214 1.5H19a1 1 0 1 1 0 2h-6a1 1 0 1 1 0-2h.847l-.214-1.5H13a1 1 0 1 1 0-2h.26l-.226-1.038.001-.001c-.233-1.041.195-1.936.784-2.52C14.391 15.373 15.205 15 16 15m12-8a1 1 0 0 1 1 1v1H3V8a1 1 0 0 1 1-1zm-2-4a1 1 0 0 1 1 1v1H5V4a1 1 0 0 1 1-1z"/></svg>