<svg width="18" height="18" xmlns="http://www.w3.org/2000/svg" xmlns:xlink="http://www.w3.org/1999/xlink"><defs><path d="M10 18.75l-2.95-3.012a.618.618 0 010-.861.587.587 0 01.843 0l1.51 1.543v-4.561c0-.337.268-.609.597-.609.33 0 .596.272.596.609v4.561l1.511-1.543a.587.587 0 01.843 0 .618.618 0 010 .86L10 18.75zM18.75 10l-3.012 2.95a.618.618 0 01-.861 0 .587.587 0 010-.843l1.543-1.51h-4.561A.602.602 0 0111.25 10c0-.33.272-.596.609-.596h4.561l-1.543-1.511a.587.587 0 010-.843.618.618 0 01.86 0L18.75 10zM1.268 10L4.28 7.05a.618.618 0 01.86 0 .587.587 0 010 .843l-1.543 1.51H8.16c.336 0 .609.268.609.597 0 .33-.273.596-.61.596h-4.56l1.543 1.511a.587.587 0 010 .843.618.618 0 01-.861 0L1.268 10zM10 1.25l2.95 3.012a.618.618 0 010 .861.587.587 0 01-.843 0l-1.51-1.543v4.561A.602.602 0 0110 8.75a.602.602 0 01-.596-.609V3.58L7.893 5.123a.587.587 0 01-.843 0 .618.618 0 010-.86L10 1.25z" id="a"/></defs><use xlink:href="#a" transform="translate(-1 -1)" fill-rule="evenodd"/></svg>