<svg xmlns="http://www.w3.org/2000/svg" xmlns:xlink="http://www.w3.org/1999/xlink" viewBox="0 0 32 32"><defs><path id="a" d="m16 30-4.72-4.82a.988.988 0 0 1 0-1.377.94.94 0 0 1 1.348 0l2.418 2.469v-7.298c0-.538.427-.974.954-.974.527 0 .954.436.954.974v7.298l2.418-2.469a.94.94 0 0 1 1.349 0 .988.988 0 0 1 0 1.377L16 30zm14-14-4.82 4.72a.988.988 0 0 1-1.377 0 .94.94 0 0 1 0-1.348l2.469-2.418h-7.298A.964.964 0 0 1 18 16c0-.527.436-.954.974-.954h7.298l-2.469-2.418a.94.94 0 0 1 0-1.349.988.988 0 0 1 1.377 0L30 16zM2.028 16l4.82-4.72a.988.988 0 0 1 1.377 0 .94.94 0 0 1 0 1.348l-2.469 2.418h7.298c.538 0 .974.427.974.954a.964.964 0 0 1-.974.954H5.756l2.469 2.418a.94.94 0 0 1 0 1.349.988.988 0 0 1-1.377 0L2.028 16zM16 2l4.72 4.82a.988.988 0 0 1 0 1.377.94.94 0 0 1-1.348 0l-2.418-2.469v7.298A.964.964 0 0 1 16 14a.964.964 0 0 1-.954-.974V5.728l-2.418 2.469a.94.94 0 0 1-1.349 0 .988.988 0 0 1 0-1.377L16 2z"/></defs><use xlink:href="#a" fill-rule="evenodd"/></svg>