<svg xmlns="http://www.w3.org/2000/svg" xmlns:xlink="http://www.w3.org/1999/xlink" viewBox="0 0 34 34"><defs><path id="a" d="M16 4c6.627 0 12 5.373 12 12s-5.373 12-12 12S4 22.627 4 16 9.373 4 16 4zm1 17.917a5.99 5.99 0 0 1-2 0V26h2zM10.804 19H6.458A10.02 10.02 0 0 0 13 25.541v-4.345A6.032 6.032 0 0 1 10.803 19zm14.739 0h-4.345a6.037 6.037 0 0 1-2.196 2.196v4.345A10.02 10.02 0 0 0 25.542 19zM16 12c-2.21 0-4 1.79-4 4s1.79 4 4 4 4-1.79 4-4-1.79-4-4-4zm-5.917 3H6v2h4.083a5.99 5.99 0 0 1 0-2zM26 15h-4.083a5.998 5.998 0 0 1 0 2H26v-2zM6.458 13h4.345A6.035 6.035 0 0 1 13 10.803V6.458A10.024 10.024 0 0 0 6.458 13zM19 6.458v4.345A6.025 6.025 0 0 1 21.196 13h4.345A10.02 10.02 0 0 0 19 6.458zM17 6h-2v4.083a5.998 5.998 0 0 1 2 0V6z"/></defs><g fill-rule="evenodd" transform="translate(1 1)"><path d="M16 4c6.627 0 12 5.373 12 12s-5.373 12-12 12S4 22.627 4 16 9.373 4 16 4zm6.207 3.672-3.16 3.159A5.958 5.958 0 0 0 16 10a5.978 5.978 0 0 0-3.048.83l-3.16-3.158-2.12 2.12 3.159 3.16C10.303 13.845 10 14.887 10 16s.303 2.155.83 3.048l-3.158 3.16 2.12 2.12 3.16-3.159c.893.528 1.935.831 3.048.831s2.155-.303 3.048-.83l3.16 3.158 2.12-2.12-3.159-3.16c.528-.893.831-1.935.831-3.048s-.303-2.155-.83-3.048l3.158-3.16-2.12-2.12z"/><use xlink:href="#a" transform="rotate(45 16 16)"/></g></svg>