<svg width="12" height="16" xmlns="http://www.w3.org/2000/svg"><path d="M8.5.5c.345 0 .625.28.625.625v.625h1.25c.69 0 1.25.56 1.25 1.25v11.25c0 .69-.56 1.25-1.25 1.25h-8.75c-.69 0-1.25-.56-1.25-1.25V3c0-.69.56-1.25 1.25-1.25h1.25v-.625a.625.625 0 111.25 0v.625h1.25v-.625a.625.625 0 111.25 0v.625h1.25v-.625C7.875.78 8.155.5 8.5.5zM10.375 3h-1.25v.625a.625.625 0 11-1.25 0V3h-1.25v.625a.625.625 0 11-1.25 0V3h-1.25v.625a.625.625 0 11-1.25 0V3h-1.25v11.25h8.75V3zm-1.25 7.5v1.25h-6.25V10.5h6.25zm0-2.5v1.25h-6.25V8h6.25zm0-2.5v1.25h-6.25V5.5h6.25z" fill-rule="evenodd"/></svg>