<svg width="16" height="18" xmlns="http://www.w3.org/2000/svg" xmlns:xlink="http://www.w3.org/1999/xlink"><defs><path d="M10 16.875a1.25 1.25 0 01-2.494.128l-.006-.128H10zM10 1.25a1.875 1.875 0 011.69 2.688c2.523.638 3.335 2.907 3.335 6.837v.249c-.002.249-.006.516-.013.955-.005.365-.009.597-.01.793l-.001.095 2.758 2.758H2.24L5 12.867a97.435 97.435 0 00-.011-.888c-.01-.585-.013-.865-.013-1.204 0-3.93.812-6.199 3.335-6.837A1.875 1.875 0 0110 1.25zM10 5c-2.937 0-3.775 1.676-3.775 5.775 0 .33.003.605.012 1.184.008.47.011.723.013.961v.464l-.991.991h9.482l-.991-.991v-.362c0-.272.004-.526.013-1.063.006-.434.01-.697.011-.941l.001-.243C13.775 6.675 12.937 5 10 5zm0-2.5a.625.625 0 100 1.25.625.625 0 000-1.25z" id="a"/></defs><use xlink:href="#a" transform="translate(-2 -1)"/></svg>