<svg width="16" height="18" xmlns="http://www.w3.org/2000/svg" xmlns:xlink="http://www.w3.org/1999/xlink"><defs><path d="M9.956 16.875a1.25 1.25 0 01-2.494.128l-.006-.128h2.5zm6.048-12.88a.625.625 0 010 .885L3.63 17.254a.625.625 0 11-.884-.884L15.12 3.996a.625.625 0 01.884 0zM14.772 7.88c.146.837.209 1.802.209 2.896l-.001.249c-.001.249-.005.516-.012.955-.006.365-.01.597-.01.793l-.002.095 2.758 2.758H7.024l1.25-1.25h6.423l-.991-.991v-.362c0-.272.004-.526.012-1.063.007-.434.01-.697.012-.941v-.243c0-.656-.02-1.25-.069-1.785l1.111-1.111zM9.956 1.25a1.875 1.875 0 011.69 2.688c.47.119.88.295 1.238.527l-.94.94C11.427 5.128 10.773 5 9.957 5 7.019 5 6.18 6.676 6.18 10.775l.001.39-1.232 1.236-.007-.422c-.01-.585-.012-.865-.012-1.204 0-3.93.812-6.199 3.335-6.837a1.875 1.875 0 011.69-2.688zm0 1.25a.625.625 0 100 1.25.625.625 0 000-1.25z" id="a"/></defs><use xlink:href="#a" transform="translate(-2 -1)" fill-rule="evenodd"/></svg>