<svg xmlns="http://www.w3.org/2000/svg" viewBox="0 0 32 32"><path d="M18.003.958a1 1 0 0 1 .825.726l1.433 5.218 4.995-2.083.14-.047a1 1 0 0 1 1.18 1.322l-1.908 5.064 5.266 1.25a1 1 0 0 1 .318 1.808l-4.52 2.976 3.525 4.106a1 1 0 0 1-.805 1.65l-5.406-.25.439 5.395a1 1 0 0 1-1.622.861l-4.227-3.38-2.816 4.622a1 1 0 0 1-1.817-.255l-1.434-5.22-4.994 2.085a1 1 0 0 1-1.321-1.276l1.907-5.064-5.264-1.25a1 1 0 0 1-.319-1.808l4.52-2.976-3.525-4.106a1 1 0 0 1 .805-1.65l5.405.25-.437-5.395a1 1 0 0 1 1.62-.86l4.228 3.378 2.816-4.621.086-.12a1 1 0 0 1 .907-.35M15.311 8.06a1 1 0 0 1-1.479.26l-3.307-2.643.344 4.219a1 1 0 0 1-1.043 1.08L5.6 10.78l2.757 3.212.065.084a1 1 0 0 1-.274 1.403L4.61 17.805l4.119.977a1 1 0 0 1 .705 1.327l-1.493 3.959 3.906-1.63.101-.034a1 1 0 0 1 1.248.693l1.12 4.081 2.203-3.613.06-.09a1 1 0 0 1 1.418-.171l3.306 2.643-.343-4.218a1.002 1.002 0 0 1 1.043-1.08l4.227.194-2.756-3.21a1 1 0 0 1 .209-1.487l3.534-2.327-4.117-.977a1 1 0 0 1-.704-1.326l1.492-3.961-3.906 1.63a1 1 0 0 1-1.35-.657l-1.121-4.081z"/></svg>