<svg xmlns="http://www.w3.org/2000/svg" width="320" height="320" viewBox="0 0 320 320"><g fill-rule="evenodd"><path d="M48 296c15.464 0 28-12.536 28-28s-12.536-28-28-28-28 12.536-28 28 12.536 28 28 28Zm0-144c15.464 0 28-12.536 28-28S63.464 96 48 96s-28 12.536-28 28 12.536 28 28 28Zm0-72c15.464 0 28-12.536 28-28S63.464 24 48 24 20 36.536 20 52s12.536 28 28 28Z"/><path d="M96 272h148v8H96v-8Zm0-16h148v8H96v-8Zm-48-20c17.673 0 32 14.327 32 32 0 17.673-14.327 32-32 32-17.673 0-32-14.327-32-32 0-17.673 14.327-32 32-32Zm0 8c-13.255 0-24 10.745-24 24s10.745 24 24 24 24-10.745 24-24a23.91 23.91 0 0 0-2.22-10.096L43.875 284 28 268l5.625-5.667 10.25 10.334 21.286-21.445A23.928 23.928 0 0 0 48 244Zm48-44h184v8H96v-8Zm0-16h184v8H96v-8Zm-48-20c17.673 0 32 14.327 32 32 0 17.673-14.327 32-32 32-17.673 0-32-14.327-32-32 0-17.673 14.327-32 32-32Zm0 8c-13.255 0-24 10.745-24 24s10.745 24 24 24 24-10.745 24-24-10.745-24-24-24Zm48-44h168v8H96v-8Zm0-16h168v8H96v-8ZM48 92c17.673 0 32 14.327 32 32 0 17.673-14.327 32-32 32-17.673 0-32-14.327-32-32 0-17.673 14.327-32 32-32Zm0 8c-13.255 0-24 10.745-24 24s10.745 24 24 24 24-10.745 24-24a23.91 23.91 0 0 0-2.22-10.096L43.875 140 28 124l5.625-5.667 10.25 10.334 21.286-21.445A23.928 23.928 0 0 0 48 100Zm48-44h208v8H96Zm0-16h208v8H96ZM48 20c17.673 0 32 14.327 32 32 0 17.673-14.327 32-32 32-17.673 0-32-14.327-32-32 0-17.673 14.327-32 32-32Zm0 8c-13.255 0-24 10.745-24 24s10.745 24 24 24 24-10.745 24-24a23.91 23.91 0 0 0-2.22-10.096L43.875 68 28 52l5.625-5.667 10.25 10.334 21.286-21.445A23.928 23.928 0 0 0 48 28Z"/></g></svg>