<svg width="18" height="17" xmlns="http://www.w3.org/2000/svg" xmlns:xlink="http://www.w3.org/1999/xlink"><defs><path d="M4.697 11.768L3.37 13.094a.625.625 0 11-.884-.884l1.326-1.326L1.16 8.232l6.187-6.187L10 4.697l2.652-2.652 6.187 6.187-2.652 2.652 1.326 1.326a.625.625 0 01-.884.884.625.625 0 00-.884.883.625.625 0 11-.884.884.625.625 0 10-.884.884.625.625 0 01-.883.884.625.625 0 10-.884.884.625.625 0 11-.884.884L10 17.07l-1.326 1.326a.625.625 0 11-.884-.884l1.326-1.326-.884-.884-1.326 1.326a.625.625 0 11-.883-.884l1.325-1.326-.884-.883L5.14 14.86a.625.625 0 11-.884-.884l1.326-1.325-.884-.884zm6.187-6.187L15.304 10l1.767-1.768-4.42-4.42-1.767 1.769zm.884 8.838a.625.625 0 00-.884 0l-1.768 1.768.884.884 1.768-1.768a.625.625 0 000-.884zm-.884-2.651a.625.625 0 00-.884 0l-2.652 2.651.884.884 2.652-2.651a.625.625 0 000-.884zM9.116 10a.625.625 0 00-.884 0l-2.651 2.652.883.884 2.652-2.652a.625.625 0 000-.884zm-3.093-.442a.625.625 0 00-.884 0l-1.326 1.326.884.884 1.326-1.326a.625.625 0 000-.884zM10 4.697L7.348 7.348a.625.625 0 00.884.884l2.652-2.651L10 4.697z" id="a"/></defs><use xlink:href="#a" transform="translate(-1 -2)" fill-rule="evenodd"/></svg>