<svg xmlns="http://www.w3.org/2000/svg" xmlns:xlink="http://www.w3.org/1999/xlink" viewBox="0 0 32 32"><defs><path id="a" d="M1 6h30v20H1V6zm2 2v16h26V8H3zm24 2v12h-2V10h2zm-7 2v2.267l1.964-1.133 1 1.732-1.963 1.133 1.963 1.135-1 1.732L20 17.732V20h-2v-2.268l-1.964 1.134-1-1.732L16.999 16l-1.963-1.134 1-1.732L18 14.267V12h2zm-10 0v2.267l1.964-1.133 1 1.732-1.963 1.133 1.963 1.135-1 1.732L10 17.732V20H8v-2.268l-1.964 1.134-1-1.732L6.999 16l-1.963-1.134 1-1.732L8 14.267V12h2z"/></defs><use xlink:href="#a" fill-rule="evenodd"/></svg>