<svg width="20" height="14" xmlns="http://www.w3.org/2000/svg" xmlns:xlink="http://www.w3.org/1999/xlink"><defs><path d="M.625 3.75h18.75v12.5H.625V3.75zM1.875 5v10h16.25V5H1.875zm15 1.25v7.5h-1.25v-7.5h1.25zM12.5 7.5v1.417l1.228-.708.625 1.082-1.228.709 1.228.709-.625 1.082-1.229-.709.001 1.418h-1.25v-1.417l-1.228.708-.625-1.082L10.624 10l-1.227-.709.625-1.082 1.227.707.001-1.416h1.25zm-6.25 0v1.417l1.228-.708.625 1.082L6.875 10l1.228.709-.625 1.082-1.229-.709.001 1.418H5v-1.417l-1.228.708-.625-1.082L4.374 10l-1.227-.709.625-1.082L5 8.916V7.5h1.25z" id="a"/></defs><use xlink:href="#a" transform="translate(0 -3)"/></svg>