<svg xmlns="http://www.w3.org/2000/svg" viewBox="0 0 32 32"><path d="M17.672 1a2 2 0 0 1 1.414.586l7.328 7.328A2 2 0 0 1 27 10.328V19h1a1 1 0 0 1 1 1v10a1 1 0 0 1-1 1H6a1 1 0 0 1-1-1V3c0-1.552.448-2 2-2zM7 21v8h1.886v-2.714h1.203q1.428 0 2.247-.701.82-.7.82-1.871 0-.791-.38-1.414a2.5 2.5 0 0 0-1.068-.962Q11.018 21 10.121 21zm7.16 0v8h2.572a3.56 3.56 0 0 0 1.84-.497q.825-.492 1.279-1.363t.454-1.97v-.368q-.006-1.088-.471-1.964a3.35 3.35 0 0 0-1.291-1.358q-.828-.48-1.864-.48zm7.111 0v8h1.885v-3.186h3.04V24.33h-3.04v-1.84h3.347V21zm-4.592 1.49q.832 0 1.267.587.435.588.436 1.747v.346q0 1.165-.436 1.756-.435.59-1.246.59h-.655V22.49zm-6.536 0q.51.005.805.34t.295.896q0 .51-.287.79t-.835.28H8.886V22.49zM7 19h18v-8h-6a2 2 0 0 1-2-2V3H7zM19 9h4.586L19 4.414z"/></svg>