<svg xmlns="http://www.w3.org/2000/svg" viewBox="0 0 32 32"><path fill-rule="evenodd" d="M8 14h10v2H8v-2zm7.414-10L22 10.586V18h5a1 1 0 0 1 1 1v10a1 1 0 0 1-1 1H5a1 1 0 0 1-1-1V6c0-1.493.414-1.964 1.826-1.998L6 4h9.414zm10.088 15.98h-5.231v7.82h1.885v-3.115h3.04v-1.45h-3.04v-1.8h3.346V19.98zm-9.823 0h-2.52v7.82h2.573a3.624 3.624 0 0 0 1.84-.486c.55-.32.976-.765 1.278-1.332.303-.568.454-1.21.454-1.926v-.36a4.005 4.005 0 0 0-.47-1.92 3.303 3.303 0 0 0-1.292-1.326c-.551-.314-1.172-.47-1.863-.47zm-6.558 0H6v7.82h1.885v-2.653h1.203c.953 0 1.702-.229 2.248-.685.546-.457.82-1.066.82-1.829 0-.516-.127-.977-.38-1.383a2.49 2.49 0 0 0-1.068-.94c-.46-.22-.99-.33-1.587-.33zm6.558 1.455c.555 0 .977.192 1.267.575.29.383.435.952.435 1.708v.338c0 .76-.145 1.331-.435 1.716-.29.385-.705.578-1.246.578h-.655v-4.915h.634zm-6.537 0c.34.004.609.115.806.333.197.219.295.51.295.876 0 .333-.096.59-.287.773-.192.183-.47.274-.835.274H7.885v-2.256h1.257zM14 6H6l-.001 12h14v-6H14V6zm2 1.415V10h2.585L16 7.415z"/></svg>