<svg width="16" height="17" xmlns="http://www.w3.org/2000/svg"><path d="M3 6.75h6.25V8H3V6.75zM7.634.5l4.116 4.116V9.25h3.125c.345 0 .625.28.625.625v6.25c0 .345-.28.625-.625.625H1.125a.625.625 0 01-.625-.625V1.75C.5.817.759.523 1.641.501L1.75.5h5.884zm6.305 9.987h-3.27v4.888h1.179v-1.947h1.9v-.906h-1.9v-1.125h2.091v-.91zm-6.14 0H6.225v4.888h1.608a2.265 2.265 0 001.15-.304c.343-.2.61-.478.798-.832a2.51 2.51 0 00.284-1.204v-.225a2.503 2.503 0 00-.294-1.2 2.065 2.065 0 00-.807-.829 2.316 2.316 0 00-1.165-.294zm-4.099 0H1.75v4.888h1.178v-1.658h.752c.596 0 1.064-.143 1.405-.428.341-.286.512-.667.512-1.143 0-.323-.079-.61-.237-.865a1.556 1.556 0 00-.668-.587 2.272 2.272 0 00-.992-.207zm4.1.91c.346 0 .61.12.791.36.182.239.272.595.272 1.067v.211c0 .475-.09.832-.272 1.073-.18.24-.44.36-.778.36h-.41v-3.071H7.8zm-4.086 0c.212.002.38.072.503.208.123.137.185.32.185.547 0 .208-.06.37-.18.484-.12.114-.293.17-.522.17h-.772v-1.409h.786zM6.75 1.75h-5v7.5h8.75V5.5H6.75V1.75zM8 2.634V4.25h1.616L8 2.634z"/></svg>