<svg xmlns="http://www.w3.org/2000/svg" viewBox="0 0 32 32"><path d="M22 1a2 2 0 0 1 2 2v2c0 .748-.412 1.398-1.02 1.741q.018.127.02.259v.1a5 5 0 0 1 4 4.9v12a5 5 0 0 1-4 4.9v.1a2 2 0 0 1-1.796 1.99L21 31H11a2 2 0 0 1-2-2v-.1a5 5 0 0 1-3.994-4.651L5 24V12a5 5 0 0 1 4-4.9V7q.001-.132.019-.259A2 2 0 0 1 8 5V3a2 2 0 0 1 2-2zM11 7.794a1.21 1.21 0 0 1-1.156 1.208v.002A3 3 0 0 0 7 12v12l.015.297a3 3 0 0 0 2.83 2.7h-.001A1.21 1.21 0 0 1 11 28.207V29h10v-.794c0-.648.51-1.18 1.155-1.209A3 3 0 0 0 25 24V12a3 3 0 0 0-2.845-2.996v-.002A1.21 1.21 0 0 1 21 7.794V7H11zM18 11a4 4 0 1 1-1.004 7.873Q17 18.936 17 19q-.001.285-.04.559A4 4 0 1 1 19 27h-6a1 1 0 1 1 0-2h2.536a3.98 3.98 0 0 1-.497-2.56 4 4 0 1 1-1.036-7.314L14 15a4 4 0 0 1 4-4m1 10a2 2 0 1 0 0 4 2 2 0 0 0 0-4m-6-4a2 2 0 1 0 0 4 2 2 0 0 0 0-4m5-4a2 2 0 1 0 0 4 2 2 0 0 0 0-4m-8-8h12V3H10z"/></svg>