<svg width="32" height="32" xmlns="http://www.w3.org/2000/svg"><path d="M16.281 4.002c3.638.048 6.565 1.038 6.713 2.853L23 7v4l.106.082a4.991 4.991 0 011.889 3.692L25 15v6a4.996 4.996 0 01-2.005 4.004l-.2.143-.095.059-.077.143c-.894 1.527-3.262 2.51-6.016 2.637l-.307.01L16 28c-2.906 0-5.48-.944-6.518-2.485l-.105-.167-.078-.143-.093-.059a4.993 4.993 0 01-2.182-3.655l-.018-.25L7 21v-6a4.99 4.99 0 011.834-3.87L9 11V6.977c.024-1.891 2.997-2.925 6.713-2.975h.568zm-6.208 8.7l-.021.016a2.994 2.994 0 00-1.046 2.088L9 15v6c0 1.045.538 1.994 1.4 2.537l.165.097.341.186.127.367C11.35 25.108 13.446 26 16 26c2.465 0 4.505-.831 4.929-1.717l.04-.095.125-.367.34-.185a2.999 2.999 0 001.56-2.441L23 21v-6c0-.915-.41-1.735-1.057-2.285C20.708 13.56 18.507 14 16 14c-2.494 0-4.685-.44-5.927-1.298zm6.234 2.798c.64 0 1.16.198 1.542.597.38.398.57.93.57 1.578v.289H16.83v-.289c0-.229-.05-.389-.146-.495-.092-.102-.224-.155-.415-.155a.416.416 0 00-.369.188c-.107.15-.163.355-.163.612l.029.857h1.32v1.511h-1.27l.018.538c0 .273-.034.522-.104.744h2.77L18.493 23h-4.976v-1.525h.278l.279.008c.005-.001.028-.029.06-.12.048-.139.074-.336.074-.58l-.02-.59H13.5v-1.51h.645l-.025-.848c0-.705.201-1.278.608-1.701.405-.423.937-.634 1.58-.634zM16 10l-.469-.005a19.69 19.69 0 01-.707-.029l-.413-.028-.324-.03-.445-.05-.29-.04-.361-.059-.368-.07-.316-.069-.304-.076-.287-.081-.31-.1a7.358 7.358 0 01-.408-.152l-.001 1.726.02.005.12.086c.22.158.569.32 1.018.464 1.005.32 2.376.508 3.845.508 1.511 0 2.918-.198 3.926-.534.383-.128.685-.269.89-.405l.157-.115c.02-.012.025-.005.027.021V9.213c-.905.369-2.062.611-3.36.72l-.479.034-.337.017-.475.013L16 10zm4.9-3l-.084-.06a3.089 3.089 0 00-.535-.274l-.17-.067-.185-.065C18.918 6.198 17.511 6 16 6c-1.511 0-2.918.198-3.926.534a3.892 3.892 0 00-.89.405L11.1 7l.084.062c.137.091.316.184.535.273l.17.067.185.065C13.082 7.802 14.489 8 16 8l.374-.004.43-.015.293-.016.332-.026.346-.034.344-.042.333-.049.463-.084.236-.05.295-.073c.103-.026.202-.054.298-.084l.391-.131.25-.102.168-.078.12-.064.117-.07L20.9 7z" fill-rule="evenodd"/></svg>