<svg xmlns="http://www.w3.org/2000/svg" viewBox="0 0 32 32"><path d="M18.4 17c1.664 0 2.971 0 4.022.085 1.062.087 1.95.267 2.756.678l.244.13a7 7 0 0 1 2.815 2.93l.144.305c.31.724.458 1.52.534 2.45.086 1.05.085.358.085 2.022V29H3v-3.4c0-1.664 0-.971.085-2.022.087-1.062.267-1.95.678-2.756a7 7 0 0 1 3.06-3.06c.805-.41 1.693-.59 2.755-.677 1.05-.086 2.358-.085 4.022-.085zm-4.8 2c-1.697 0-2.91 0-3.86.078-.938.077-1.532.224-2.01.467a5 5 0 0 0-2.185 2.185c-.243.478-.39 1.072-.467 2.01C5 24.69 5 23.903 5 25.6V27h22v-1.4c0-1.697 0-.91-.078-1.86-.067-.82-.188-1.379-.38-1.825l-.087-.184a5 5 0 0 0-2.01-2.093l-.175-.093c-.478-.243-1.072-.39-2.01-.467C21.31 19 20.097 19 18.4 19zM16 3a6 6 0 1 1 0 12 6 6 0 0 1 0-12m0 2a4 4 0 1 0 0 8 4 4 0 0 0 0-8"/></svg>