<svg width="16" height="15" xmlns="http://www.w3.org/2000/svg" xmlns:xlink="http://www.w3.org/1999/xlink"><defs><path d="M11.815 11.462l.358.108a7.515 7.515 0 015.045 5.135l.224.795H2.557l.225-.795a7.515 7.515 0 015.045-5.135l.358-.108L10 13.277l1.815-1.815zm.346 1.421L10 15.044l-2.16-2.16a6.272 6.272 0 00-3.57 3.366h11.46a6.272 6.272 0 00-3.57-3.367zM10 3.75a3.75 3.75 0 110 7.5 3.75 3.75 0 010-7.5zM10 5a2.5 2.5 0 100 5 2.5 2.5 0 000-5z" id="a"/></defs><use xlink:href="#a" transform="translate(-2 -3)"/></svg>