<svg width="18" height="17" xmlns="http://www.w3.org/2000/svg" xmlns:xlink="http://www.w3.org/1999/xlink"><defs><path d="M17.188 2.582c1.472.84 1.057 2.888-.495 5.374l-.027.042c.571 1.932-.215 4.519-1.609 6.594l.059-.001a6.85 6.85 0 01-.217.23c-1.334 1.891-3.168 3.304-4.899 3.304-1.73 0-3.563-1.411-4.897-3.3a6.555 6.555 0 01-.219-.232l.06.002c-1.387-2.066-2.174-4.64-1.618-6.57a2.86 2.86 0 01-.044-.07C1.73 5.47 1.315 3.423 2.787 2.583c1.281-.731 3.294-.014 5.675 1.612l.351.246a10.908 10.908 0 012.352-.003l.348-.243c2.38-1.626 4.393-2.343 5.675-1.612zm-7.2 11.414c-.644.73-1.548 1.33-2.495 1.678.814.735 1.692 1.201 2.507 1.201.813 0 1.69-.464 2.502-1.195-.954-.346-1.866-.95-2.515-1.684zM4.76 7.813c-.988 1.71.099 4.762 1.78 6.848 1.036-.244 2.15-.95 2.735-1.764l-.016-.039c-.728-.468-1.388-1.426-1.039-1.838.472-.556 3.151-.497 3.573 0 .318.374-.35 1.38-1.081 1.852l-.01.025c.586.82 1.71 1.529 2.751 1.77 1.684-2.087 2.774-5.143 1.785-6.854-1.686-2.917-8.792-2.917-10.478 0zm8.364.312a1.25 1.25 0 110 2.5 1.25 1.25 0 010-2.5zm-6.25 0a1.25 1.25 0 110 2.5 1.25 1.25 0 010-2.5zM3.406 3.668C2.92 3.946 3.096 5.1 4 6.715c.707-.903 1.806-1.545 3.07-1.925-1.543-.922-3.022-1.488-3.664-1.122zm9.641 1.038l-.133.079c1.261.377 2.36 1.014 3.072 1.911.894-1.605 1.068-2.751.582-3.028-.621-.355-2.03.166-3.52 1.038z" id="a"/></defs><use xlink:href="#a" transform="translate(-1 -2)"/></svg>