<svg width="14" height="14" xmlns="http://www.w3.org/2000/svg" xmlns:xlink="http://www.w3.org/1999/xlink"><defs><path d="M15.754 12.006c1.1 1.101 1.51 2.6.684 3.424l-.913.913c-1.124 1.124-4.853.399-7.676-1.54l.919-.919c.99.661 2.09 1.144 3.202 1.425 1.309.332 2.462.302 2.643.121l.912-.913c.184-.184-.02-.934-.684-1.598-.61-.61-1.293-.832-1.542-.721l-.868 1.734-.43-.031c-.737-.054-1.52-.353-2.34-.91l.932-.932a3.89 3.89 0 001.089.486l.574-1.15.074-.073c.825-.825 2.323-.417 3.424.684zm-.588-8.07a.635.635 0 01.898.898l-11.23 11.23a.635.635 0 01-.898-.898zm-7.172.31c1.1 1.101 1.51 2.6.684 3.424l-.074.074-1.149.574c.085.338.245.702.487 1.09l-.932.932C6.452 9.52 6.153 8.737 6.1 8l-.032-.431L7.802 6.7c.11-.249-.112-.932-.721-1.542-.664-.663-1.414-.868-1.598-.684l-.913.912c-.18.181-.211 1.334.12 2.643a10.417 10.417 0 001.427 3.203l-.919.919c-1.94-2.823-2.666-6.553-1.541-7.677l.913-.913c.825-.825 2.323-.417 3.424.684z" id="a"/></defs><use xlink:href="#a" transform="translate(-3 -3)"/></svg>