<svg width="14" height="14" xmlns="http://www.w3.org/2000/svg" xmlns:xlink="http://www.w3.org/1999/xlink"><defs><path d="M9.135 10.865c.958.958 1.815 1.495 2.547 1.68l.574-1.15.074-.073c.825-.825 2.323-.417 3.424.684 1.1 1.101 1.51 2.6.684 3.424l-.913.913c-1.332 1.333-6.323.067-9.13-2.739-2.805-2.806-4.07-7.797-2.738-9.13l.913-.912c.825-.825 2.323-.417 3.424.684 1.1 1.101 1.51 2.6.684 3.424l-.074.074-1.149.574c.185.732.722 1.59 1.68 2.547zm3.296 3.067l-.43-.031c-1.16-.085-2.433-.776-3.78-2.123C6.876 10.432 6.185 9.158 6.1 8l-.031-.431L7.802 6.7c.11-.249-.112-.932-.721-1.542-.664-.663-1.414-.868-1.598-.684l-.913.912c-.18.181-.211 1.334.12 2.643.431 1.697 1.33 3.372 2.619 4.661 1.29 1.29 2.964 2.188 4.661 2.618 1.309.332 2.462.302 2.643.121l.912-.913c.184-.184-.02-.934-.684-1.598-.61-.61-1.293-.832-1.542-.721l-.868 1.734z" id="a"/></defs><use xlink:href="#a" transform="translate(-3 -3)"/></svg>