<svg xmlns="http://www.w3.org/2000/svg" viewBox="0 0 32 32"><path d="M25.472 4.118a1 1 0 0 0-1.027.05l-4.821 3.214-8.568-.714-.388-.023c-3.833-.145-7.166 2.33-8.274 5.823a2.996 2.996 0 0 0-.002 5.06A8.37 8.37 0 0 0 6 22.128V27a1 1 0 0 0 1 1h3a1 1 0 0 0 .895-.553l2.14-4.281 3.774-.315 2.296 4.596A1 1 0 0 0 20 28h3a1 1 0 0 0 1-1v-5.356A7.54 7.54 0 0 0 26.847 19H28a2 2 0 0 0 1.99-1.796L30 17v-5l-.005-.102A1 1 0 0 0 29 11h-2.152A7.5 7.5 0 0 0 26 9.896V5a1 1 0 0 0-.528-.882M24 10.302c0 .272.11.532.307.72.378.365.704.782.966 1.24l.108.199a1 1 0 0 0 .888.539H28v4h-1.731a1 1 0 0 0-.888.54 5.54 5.54 0 0 1-2.768 2.55 1 1 0 0 0-.613.923V26h-1.382l-2.323-4.648-.078-.13a1 1 0 0 0-.9-.42l-5.008.419-.13.018a1 1 0 0 0-.682.53L9.382 26H8v-4.452a1 1 0 0 0-.542-.889 6.38 6.38 0 0 1-3.255-4.061l-.035-.112a1 1 0 0 0-.55-.562l-.132-.067a.999.999 0 0 1 .132-1.782 1 1 0 0 0 .585-.674 6.365 6.365 0 0 1 6.392-4.758l.295.017 8.916.743a1 1 0 0 0 .637-.164L24 6.87zM11 11a1 1 0 1 0 0 2h5a1 1 0 1 0 0-2z"/></svg>