<svg width="17" height="17" xmlns="http://www.w3.org/2000/svg"><path d="M3 6.75h6.25V8H3V6.75zM7.634.5l4.116 4.116V9.25h3.75c.345 0 .625.28.625.625v6.25c0 .345-.28.625-.625.625H1.125a.625.625 0 01-.625-.625V1.75C.5.817.759.523 1.641.501L1.75.5h5.884zm5.409 10c-.417 0-.783.097-1.1.29-.316.194-.56.47-.73.83-.17.359-.255.779-.255 1.26l.003.423c.027.698.232 1.243.615 1.635.382.392.894.587 1.534.587.416 0 .799-.061 1.148-.184.35-.123.614-.286.796-.487v-2.008h-1.998v.81h.82v.758c-.15.137-.379.205-.686.205-.358 0-.62-.123-.787-.368-.166-.245-.25-.611-.25-1.099v-.295c.002-.466.084-.824.245-1.075a.769.769 0 01.685-.376c.246 0 .436.059.57.175.135.116.222.311.263.584h1.134c-.056-.553-.252-.968-.589-1.247-.337-.279-.81-.418-1.418-.418zm-9.343.07H1.75v4.888h1.178V13.8h.752c.596 0 1.064-.143 1.405-.428.341-.285.512-.666.512-1.143 0-.322-.079-.61-.237-.865a1.556 1.556 0 00-.668-.587 2.272 2.272 0 00-.992-.207zm3.703 0H6.225v4.888h1.178v-3.041l1.732 3.041h1.172V10.57H9.132v3.042L7.403 10.57zm-3.69.91a.655.655 0 01.504.208c.123.137.185.32.185.548 0 .208-.06.369-.18.483-.12.114-.293.171-.522.171h-.772v-1.41h.786zM6.75 1.75h-5v7.5h8.75V5.5H6.75V1.75zM8 2.634V4.25h1.616L8 2.634z"/></svg>