<svg xmlns="http://www.w3.org/2000/svg" viewBox="0 0 32 32"><path fill-rule="evenodd" d="M8 14h10v2H8v-2zm7.414-10L22 10.586V18h6a1 1 0 011 1v10a1 1 0 01-1 1H5a1 1 0 01-1-1V6c0-1.493.414-1.964 1.826-1.998L6 4h9.414zm8.654 16c-.666 0-1.252.155-1.759.465-.506.31-.896.752-1.168 1.326-.272.575-.408 1.247-.408 2.017l.005.677c.043 1.117.37 1.989.983 2.616.612.626 1.43.94 2.455.94a5.49 5.49 0 001.837-.296c.558-.197.983-.456 1.273-.779v-3.212H24.09v1.295h1.31v1.214c-.24.218-.605.327-1.095.327-.573 0-.993-.196-1.26-.588-.267-.392-.4-.978-.4-1.759v-.472c.004-.745.134-1.318.392-1.72.258-.4.623-.6 1.096-.6.394 0 .698.092.913.278.215.187.354.498.419.935h1.815c-.09-.884-.403-1.55-.942-1.995-.54-.446-1.296-.669-2.27-.669zm-14.947.113H6v7.82h1.885V25.28h1.203c.953 0 1.702-.228 2.248-.685.546-.457.82-1.066.82-1.829 0-.516-.127-.977-.38-1.383a2.49 2.49 0 00-1.068-.94c-.46-.22-.99-.33-1.587-.33zm5.924 0H13.16v7.82h1.885v-4.866l2.771 4.866h1.875v-7.82h-1.88v4.866l-2.766-4.866zm-5.903 1.455c.34.004.609.115.806.333.197.219.295.51.295.876 0 .333-.096.59-.287.773-.192.183-.47.274-.835.274H7.885v-2.256h1.257zM14 6H6l-.001 12h14v-6H14V6zm2 1.415V10h2.585L16 7.415z"/></svg>