<svg width="16" height="16" xmlns="http://www.w3.org/2000/svg" xmlns:xlink="http://www.w3.org/1999/xlink"><defs><path d="M15 2.5V5h.625c1.036 0 1.875.84 1.875 1.875v6.25c0 1.036-.84 1.875-1.875 1.875H15v2.5H5V15h-.625A1.875 1.875 0 012.5 13.125v-6.25C2.5 5.839 3.34 5 4.375 5H5V2.5h10zm-1.25 8.75h-7.5v5h7.5v-5zm1.875-5H4.375a.625.625 0 00-.625.625v6.25c0 .345.28.625.625.625H5V10h10v3.75h.625c.345 0 .625-.28.625-.625v-6.25a.625.625 0 00-.625-.625zm-1.875-2.5h-7.5V5h7.5V3.75z" id="a"/></defs><use xlink:href="#a" transform="translate(-2 -2)"/></svg>