<svg width="32" height="32" xmlns="http://www.w3.org/2000/svg" xmlns:xlink="http://www.w3.org/1999/xlink"><defs><path d="M16 2c7.732 0 14 6.268 14 14s-6.268 14-14 14S2 23.732 2 16 8.268 2 16 2zM7.749 23.48a7.87 7.87 0 00-.534.695A11.968 11.968 0 0016 28c3.469 0 6.593-1.472 8.784-3.825a7.838 7.838 0 00-.645-.825c-1.154-1.29-2.775-2.294-4.665-2.854L16 23.97l-3.475-3.475c-1.952.58-3.617 1.632-4.776 2.983zm5.395-5.195l.484.484 1.278 1.278h-.001L16 21.142l2.857-2.857c.147.03.294.062.44.097l-.44-.097a13.856 13.856 0 012.19.64c1.707.66 3.197 1.645 4.355 2.86.233.245.452.498.657.76A11.939 11.939 0 0028 16c0-6.627-5.373-12-12-12S4 9.373 4 16c0 2.415.714 4.664 1.942 6.547a9.4 9.4 0 01.627-.73c1.162-1.23 2.663-2.226 4.385-2.893l.102-.038c.087-.033.175-.066.264-.097l-.366.136a13.278 13.278 0 011.77-.548c.138-.032.279-.063.42-.092zM16 8a5 5 0 110 10 5 5 0 010-10zm0 2a3 3 0 100 6 3 3 0 000-6z" id="a"/></defs><use xlink:href="#a" fill-rule="evenodd"/></svg>