<svg xmlns="http://www.w3.org/2000/svg" viewBox="0 0 32 32"><path d="M16 2c7.732 0 14 6.268 14 14s-6.268 14-14 14S2 23.732 2 16 8.268 2 16 2m-1.6 18c-1.153 0-1.898.002-2.465.048-.543.044-.744.12-.843.17a2 2 0 0 0-.874.874c-.05.099-.126.3-.17.844-.046.565-.048 3.296-.048 4.455A11.94 11.94 0 0 0 16 28a11.94 11.94 0 0 0 5.999-1.61c0-1.158 0-3.89-.047-4.454-.044-.544-.12-.745-.17-.844a2 2 0 0 0-.874-.874c-.099-.05-.3-.126-.844-.17-.566-.046-1.311-.048-2.464-.048zM16 4C9.373 4 4 9.373 4 16a11.97 11.97 0 0 0 4.007 8.948c.014-1.759.076-3.957.352-4.6l.077-.164a4 4 0 0 1 1.472-1.594l.276-.154c.641-.327 1.432-.409 2.732-.43L14.4 18h3.2l1.484.007c1.3.02 2.09.102 2.732.428a4 4 0 0 1 1.749 1.749c.34.668.409 2.918.424 4.766A11.97 11.97 0 0 0 28 16c0-6.627-5.373-12-12-12m0 4a4.5 4.5 0 1 1 0 9 4.5 4.5 0 0 1 0-9m0 2a2.5 2.5 0 1 0 0 5 2.5 2.5 0 0 0 0-5"/></svg>