<svg width="18" height="18" xmlns="http://www.w3.org/2000/svg" xmlns:xlink="http://www.w3.org/1999/xlink"><defs><path d="M10 1.25a8.75 8.75 0 110 17.5 8.75 8.75 0 010-17.5zM4.843 14.675c-.12.14-.232.285-.334.434A7.48 7.48 0 0010 17.5a7.48 7.48 0 005.489-2.389 4.588 4.588 0 00-.402-.517c-.721-.806-1.734-1.434-2.915-1.784L10 14.982 7.827 12.81c-1.22.362-2.26 1.02-2.984 1.865zM10 2.5a7.5 7.5 0 00-6.287 11.591c.123-.157.254-.31.393-.456.726-.768 1.664-1.39 2.74-1.807l.034-.013.216-.08-.25.093a8.307 8.307 0 011.37-.4L10 13.214l.967-.968.819-.818a8.627 8.627 0 011.369.4c1.066.413 1.998 1.029 2.721 1.788.146.152.282.31.41.474A7.5 7.5 0 0010 2.5zM10 5a3.125 3.125 0 110 6.25A3.125 3.125 0 0110 5zm0 1.25A1.875 1.875 0 1010 10a1.875 1.875 0 000-3.75z" id="a"/></defs><use xlink:href="#a" transform="translate(-1 -1)"/></svg>