<svg xmlns="http://www.w3.org/2000/svg" viewBox="0 0 32 32"><path d="M16.371 28.929a1 1 0 0 1-.818-.034L16 28zM25 7.744l-8-2.4v21.07l.092-.047c.9-.48 2.094-1.197 3.283-2.148C22.78 22.295 25 19.552 25 16zM7 16c0 3.033 2.191 5.776 4.648 7.863a27.4 27.4 0 0 0 3.314 2.395l.038.022V5.344l-8 2.4zm20 0c0 4.448-2.78 7.705-5.375 9.781a23.6 23.6 0 0 1-4.78 2.94 11 11 0 0 1-.34.152l-.095.04-.026.01-.008.004h-.003L16 28l-.448.895v-.001l-.003-.001-.007-.004-.026-.013-.092-.048-.335-.18a29.4 29.4 0 0 1-4.736-3.26C7.808 23.224 5 19.967 5 15.999V7a1 1 0 0 1 .713-.958l10-3 .143-.031a1 1 0 0 1 .431.031l10 3A1 1 0 0 1 27 7z"/></svg>