<svg xmlns="http://www.w3.org/2000/svg" viewBox="0 0 32 32"><path d="M16 2c7.732 0 14 6.268 14 14s-6.268 14-14 14S2 23.732 2 16 8.268 2 16 2m-.5 18.5a1.25 1.25 0 1 0 0 2.5 1.25 1.25 0 0 0 0-2.5M15.75 9C13.526 9 12 10.702 12 12.667a1 1 0 0 0 2 0c0-.891.66-1.667 1.75-1.667s1.75.776 1.75 1.667c0 .617-.405 1.132-1.132 1.725-.173.14-.346.273-.526.41-.173.133-.361.277-.527.42a3 3 0 0 0-.497.524 1.58 1.58 0 0 0-.318.921V18l.005.102a1 1 0 0 0 1.99 0L16.5 18v-1.151q.043-.043.123-.114a10 10 0 0 1 .434-.344c.17-.131.373-.284.575-.449.773-.63 1.868-1.67 1.868-3.275C19.5 10.702 17.974 9 15.75 9"/></svg>