<svg width="16" height="16" xmlns="http://www.w3.org/2000/svg"><path d="M8 15.5a7.5 7.5 0 110-15 7.5 7.5 0 010 15zM8 1.75a6.25 6.25 0 100 12.5 6.25 6.25 0 000-12.5zm-.157 8.594c.516 0 .938.42.938.935a.94.94 0 01-.938.94.938.938 0 010-1.875zm.005-6.406c1.247 0 2.265.998 2.343 2.256l.005.312c-.04.722-.336 1.28-.937 1.767-.317.256-.553.489-.636.601a.776.776 0 01-.775.702.772.772 0 01-.747-.574c-.158-.552.25-1.188 1.181-1.94.28-.227.359-.387.359-.712 0-.475-.359-.857-.793-.857a.774.774 0 00-.793.8.777.777 0 11-1.555 0 2.327 2.327 0 012.348-2.356z" fill-rule="evenodd"/></svg>