<svg width="16" height="16" xmlns="http://www.w3.org/2000/svg"><path d="M8 .5a7.5 7.5 0 110 15 7.5 7.5 0 010-15zm-.157 9.844a.938.938 0 000 1.875.94.94 0 00.938-.94.939.939 0 00-.938-.935zm.005-6.406A2.327 2.327 0 005.5 6.292a.777.777 0 101.555 0c0-.46.337-.8.793-.8.434 0 .793.383.793.858 0 .325-.08.485-.359.712-.93.752-1.34 1.388-1.18 1.94a.772.772 0 00.956.543.776.776 0 00.565-.67c.083-.113.319-.346.636-.602.6-.488.897-1.045.937-1.767l-.005-.312c-.078-1.258-1.096-2.256-2.343-2.256z" fill-rule="evenodd"/></svg>