<svg xmlns="http://www.w3.org/2000/svg" viewBox="0 0 32 32"><path d="M16 2c7.732 0 14 6.268 14 14s-6.268 14-14 14S2 23.732 2 16 8.268 2 16 2m0 2C9.373 4 4 9.373 4 16s5.373 12 12 12 12-5.373 12-12S22.627 4 16 4m-.5 16.5a1.25 1.25 0 1 1 0 2.5 1.25 1.25 0 0 1 0-2.5M15.75 9c2.224 0 3.75 1.702 3.75 3.667 0 1.605-1.095 2.646-1.868 3.275-.202.165-.404.318-.575.449a10 10 0 0 0-.434.344 2 2 0 0 0-.123.114V18l-.005.102a1 1 0 0 1-1.99 0L14.5 18v-1.333c0-.4.17-.714.318-.92a3 3 0 0 1 .497-.524c.166-.144.354-.288.527-.42.18-.138.353-.27.526-.411.727-.593 1.132-1.108 1.132-1.725 0-.891-.66-1.667-1.75-1.667S14 11.776 14 12.667a1 1 0 0 1-2 0C12 10.702 13.526 9 15.75 9"/></svg>