<svg xmlns="http://www.w3.org/2000/svg" viewBox="0 0 32 32"><path d="M3.333 27c-.685 0-1.219-.454-1.219-1.172 0-.529.305-.87.99-1.398 3.81-2.873 6.363-5.746 6.82-9.602 0 0-1.295.756-2.895.756C4.133 15.584 2 13.581 2 10.52 2 7.306 4.59 5 7.638 5c3.924 0 6.59 3.402 6.59 8.24 0 4.461-2.476 8.544-5.295 10.812C6.114 26.433 4.4 27 3.333 27m15.772 0c-.686 0-1.22-.454-1.22-1.172 0-.529.305-.87.991-1.398 3.81-2.873 6.362-5.746 6.82-9.602 0 0-1.296.756-2.896.756-2.895 0-5.029-2.003-5.029-5.065C17.771 7.306 20.361 5 23.41 5 27.333 5 30 8.402 30 13.24c0 4.461-2.476 8.544-5.295 10.812-2.82 2.381-4.534 2.948-5.6 2.948"/></svg>