<svg xmlns="http://www.w3.org/2000/svg" viewBox="0 0 32 32"><path d="M12.807 5c.68 0 1.21.454 1.21 1.172 0 .529-.303.87-.983 1.398-3.779 2.873-6.31 5.746-6.764 9.602 0 0 1.285-.756 2.872-.756 2.872 0 4.988 2.003 4.988 5.065 0 3.213-2.57 5.519-5.593 5.519C4.645 27 2 23.598 2 18.76c0-4.461 2.456-8.544 5.252-10.812C10.05 5.567 11.75 5 12.807 5m15.87 0c.68 0 1.21.454 1.21 1.172 0 .529-.303.87-.983 1.398-3.779 2.873-6.31 5.746-6.764 9.602 0 0 1.285-.756 2.872-.756 2.872 0 4.988 2.003 4.988 5.065C30 24.694 27.43 27 24.408 27c-3.893 0-6.538-3.402-6.538-8.24 0-4.461 2.457-8.544 5.253-10.812C25.919 5.567 27.619 5 28.677 5"/></svg>