<svg width="18" height="18" xmlns="http://www.w3.org/2000/svg" xmlns:xlink="http://www.w3.org/1999/xlink"><defs><path d="M12.5 3.75a6.25 6.25 0 110 12.5h-.992l1.434 1.433a.625.625 0 01-.797.956l-.087-.072-2.942-2.942 2.942-2.942a.625.625 0 01.956.797l-.072.087L11.508 15h.992a5 5 0 000-10 .625.625 0 110-1.25zM7.942 1.433l2.942 2.942-2.942 2.942a.625.625 0 01-.884-.884L8.491 5H7.5a5 5 0 100 10 .625.625 0 110 1.25 6.25 6.25 0 110-12.5h.991L7.058 2.317a.625.625 0 01.884-.884z" id="a"/></defs><use xlink:href="#a" transform="translate(-1 -1)"/></svg>