<svg width="16" height="14" xmlns="http://www.w3.org/2000/svg" xmlns:xlink="http://www.w3.org/1999/xlink"><defs><path d="M17.5 16.875l-4.358-1.823a8.747 8.747 0 01-3.142.573c-4.142 0-7.5-2.798-7.5-6.25s3.358-6.25 7.5-6.25c4.142 0 7.5 2.798 7.5 6.25 0 1.42-.568 2.73-1.526 3.779l1.526 3.721zm-2.302-2.318l-.68-1.66.533-.585c.78-.855 1.199-1.874 1.199-2.937 0-2.706-2.753-5-6.25-5s-6.25 2.294-6.25 5 2.753 5 6.25 5c.946 0 1.86-.17 2.693-.49l.469-.18 2.036.852zM6.25 10h7.5v1.25h-7.5V10zm0-2.5h7.5v1.25h-7.5V7.5z" id="a"/></defs><use xlink:href="#a" transform="translate(-2 -3)"/></svg>