<svg width="15" height="16" xmlns="http://www.w3.org/2000/svg" xmlns:xlink="http://www.w3.org/1999/xlink"><defs><path d="M15 2.5c.69 0 1.25.56 1.25 1.25v12.5c0 .69-.56 1.25-1.25 1.25H5c-.69 0-1.25-.56-1.25-1.25V3.75c0-.69.56-1.25 1.25-1.25h10zm0 1.25H5v12.5h10V3.75zM3.125 14.375h1.25a.625.625 0 110 1.25h-1.25a.625.625 0 110-1.25zm0-2.5h1.25a.625.625 0 110 1.25h-1.25a.625.625 0 110-1.25zm0-2.5h1.25a.625.625 0 110 1.25h-1.25a.625.625 0 110-1.25zm0-2.5h1.25a.625.625 0 110 1.25h-1.25a.625.625 0 110-1.25zm0-2.5h1.25a.625.625 0 110 1.25h-1.25a.625.625 0 110-1.25zM7.5 8.75h5V10h-5V8.75zm-1.25-2.5h7.5V7.5h-7.5V6.25z" id="a"/></defs><use xlink:href="#a" transform="translate(-2 -2)"/></svg>