<svg xmlns="http://www.w3.org/2000/svg" viewBox="0 0 32 32"><path d="M27 23V5a1 1 0 0 0-1-1H6a1 1 0 0 0-1 1v18a1 1 0 0 0 1 1h3a2 2 0 0 1 2 2v2.586l4-4 .146-.133A2 2 0 0 1 16.415 24H26a1 1 0 0 0 1-1m2 0a3 3 0 0 1-3 3h-9.586l-4 4C11.154 31.26 9 30.368 9 28.586V26H6a3 3 0 0 1-3-3V5a3 3 0 0 1 3-3h20a3 3 0 0 1 3 3z"/><path fill-rule="evenodd" d="M16 18.5a1.25 1.25 0 1 0 0 2.5 1.25 1.25 0 0 0 0-2.5" clip-rule="evenodd"/><path d="M15 16v-1.333c0-.4.17-.714.318-.92a3 3 0 0 1 .497-.524c.166-.144.354-.288.527-.42.18-.138.353-.27.526-.411.727-.593 1.132-1.108 1.132-1.725C18 9.776 17.34 9 16.25 9s-1.75.776-1.75 1.667a1 1 0 0 1-2 0C12.5 8.702 14.026 7 16.25 7S20 8.702 20 10.667c0 1.605-1.095 2.646-1.868 3.275-.202.165-.404.318-.575.449a10 10 0 0 0-.434.344 2 2 0 0 0-.123.114V16l-.005.102a1 1 0 0 1-1.99 0z"/></svg>