<svg width="32" height="32" xmlns="http://www.w3.org/2000/svg" xmlns:xlink="http://www.w3.org/1999/xlink"><defs><path d="M23.96 8.95l4.12 5.641a6.022 6.022 0 011.356 1.858l.024.034c.05.086.085.176.107.268.28.693.433 1.45.433 2.244A6.002 6.002 0 0124 25a6.003 6.003 0 01-5.975-5.452A3.954 3.954 0 0016 18.995c-.74 0-1.432.2-2.026.55A6.001 6.001 0 018 25c-3.314 0-6-2.689-6-6.005 0-.795.154-1.554.435-2.248a.986.986 0 01.105-.264l.022-.03a6.023 6.023 0 011.362-1.864l4.116-5.64c1.097-1.901 2.987-2.408 5.315-1.535a1.001 1.001 0 01-.702 1.874c-1.47-.551-2.311-.326-2.88.662L7.54 13.007a6.003 6.003 0 016.25 4.408 5.955 5.955 0 012.21-.422c.78 0 1.527.15 2.21.421a6.002 6.002 0 016.25-4.406L22.229 9.95c-.57-.988-1.411-1.213-2.88-.662a1 1 0 11-.703-1.874c2.328-.873 4.218-.366 5.315 1.535zm.04 6.042a4 4 0 00-4 4.003 4.002 4.002 0 004 4.003 4 4 0 004-4.003 4.002 4.002 0 00-4-4.003zm-16 0a4 4 0 00-4 4.003 4.002 4.002 0 004 4.003 4 4 0 004-4.003 4.002 4.002 0 00-4-4.003z" id="a"/></defs><use xlink:href="#a" fill-rule="evenodd"/></svg>