<svg width="18" height="12" xmlns="http://www.w3.org/2000/svg" xmlns:xlink="http://www.w3.org/1999/xlink"><defs><path d="M14.975 5.593l2.577 3.529c.35.325.638.717.844 1.155l.017.025c.03.053.052.11.066.166A3.752 3.752 0 0115 15.625a3.752 3.752 0 01-3.733-3.406 2.487 2.487 0 00-2.533-.002 3.75 3.75 0 11-7.212-1.749.624.624 0 01.067-.166l.017-.026c.206-.438.494-.83.844-1.155l2.576-3.528c.686-1.188 1.867-1.505 3.322-.96a.626.626 0 01-.439 1.172c-.918-.344-1.444-.203-1.8.414L4.71 8.129a3.752 3.752 0 013.908 2.756 3.737 3.737 0 012.763-.002 3.75 3.75 0 013.907-2.753l-1.396-1.911c-.356-.617-.882-.758-1.801-.414a.625.625 0 11-.439-1.172c1.455-.545 2.637-.228 3.322.96zM15 9.37c-1.38 0-2.5 1.12-2.5 2.502A2.501 2.501 0 1015 9.37zm-10 0c-1.38 0-2.5 1.12-2.5 2.502A2.501 2.501 0 105 9.37z" id="a"/></defs><use xlink:href="#a" transform="translate(-1 -4)" fill-rule="evenodd"/></svg>