<svg width="16" height="16" xmlns="http://www.w3.org/2000/svg" xmlns:xlink="http://www.w3.org/1999/xlink"><defs><path d="M15 2.5v1.25h2.5v.625c0 1.656-.16 2.346-.818 3.072-.223.247-.5.488-.913.808-.104.08-.485.396-.884.728-.36 2.009-1.608 2.897-4.26 4.495l-.001 2.772H12.5a.625.625 0 110 1.25h-5a.625.625 0 110-1.25h1.874v-2.772c-2.651-1.599-3.899-2.486-4.26-4.494a53.42 53.42 0 00-.883-.73c-.414-.319-.69-.56-.913-.807-.621-.686-.799-1.339-.816-2.805L2.5 4.375V3.75h2.499L5 2.5h10zm-1.25 1.25h-7.5V7.5c0 2.648.934 3.184 3.75 4.895 2.728-1.657 3.69-2.212 3.747-4.653l.003-.242V3.75zM4.999 4.999L3.759 5c.033.893.157 1.245.485 1.609.218.24-.102-.006.756.63l-.001-2.24zm10.001 0v2.24c.858-.636.538-.39.756-.63.328-.364.452-.716.484-1.609L15 4.999z" id="a"/></defs><use xlink:href="#a" transform="translate(-2 -2)" fill-rule="evenodd"/></svg>