<svg width="16" height="16" xmlns="http://www.w3.org/2000/svg" xmlns:xlink="http://www.w3.org/1999/xlink"><defs><path d="M5 2.5c6.904 0 12.5 5.592 12.5 12.49 0 .669-.053 1.332-.157 1.984a.625.625 0 01-1.234-.197c.093-.587.141-1.184.141-1.788C16.25 8.781 11.213 3.75 5 3.75c-.596 0-1.186.046-1.767.138a.625.625 0 11-.195-1.234C3.683 2.551 4.338 2.5 5 2.5zm0 4.996a7.497 7.497 0 017.217 9.538.625.625 0 01-1.202-.34A6.247 6.247 0 005 8.744c-.58 0-1.15.078-1.697.232a.625.625 0 01-.339-1.202A7.511 7.511 0 015 7.495zm0 4.995a2.499 2.499 0 11-2.5 2.498A2.5 2.5 0 015 12.491zm0 1.25a1.25 1.25 0 10-.001 2.498A1.25 1.25 0 005 13.74z" id="a"/></defs><use xlink:href="#a" transform="translate(-2 -2)"/></svg>