<svg width="32" height="32" xmlns="http://www.w3.org/2000/svg" xmlns:xlink="http://www.w3.org/1999/xlink"><defs><path d="M28.007 28.007h-7a1 1 0 110-2h3.586l-5.3-5.3a1 1 0 011.414-1.414l5.3 5.3v-3.586a1 1 0 012 0v7zM4 28.007v-7a1 1 0 012 0v3.586l5.3-5.3a1 1 0 111.414 1.414l-5.3 5.3H11a1 1 0 010 2H4zM28.007 4v7a1 1 0 11-2 0V7.414l-5.3 5.3a1 1 0 01-1.414-1.414l5.3-5.3h-3.586a1 1 0 010-2h7zM4 4h7a1 1 0 010 2H7.414l5.3 5.3a1 1 0 11-1.414 1.414L6 7.414V11a1 1 0 01-2 0V4z" id="a"/></defs><use xlink:href="#a" fill-rule="evenodd"/></svg>