<svg xmlns="http://www.w3.org/2000/svg" xmlns:xlink="http://www.w3.org/1999/xlink" viewBox="0 0 32 32"><defs><path id="a" d="M19 19h7a1 1 0 0 1 0 2h-3.586l5.3 5.3a1 1 0 1 1-1.414 1.414l-5.3-5.3V26a1 1 0 0 1-2 0v-7zm-5.993 0v7a1 1 0 1 1-2 0v-3.586l-5.3 5.3A1 1 0 0 1 4.293 26.3l5.3-5.3H6.007a1 1 0 0 1 0-2h7zM19 13.007v-7a1 1 0 0 1 2 0v3.586l5.3-5.3a1 1 0 1 1 1.414 1.414l-5.3 5.3H26a1 1 0 0 1 0 2h-7zm-5.993 0h-7a1 1 0 1 1 0-2h3.586l-5.3-5.3a1 1 0 0 1 1.414-1.414l5.3 5.3V6.007a1 1 0 0 1 2 0v7z"/></defs><use xlink:href="#a" fill-rule="evenodd"/></svg>