<svg width="16" height="16" xmlns="http://www.w3.org/2000/svg" xmlns:xlink="http://www.w3.org/1999/xlink"><defs><path d="M11.875 11.875h4.375a.625.625 0 110 1.25h-2.241l3.312 3.312a.625.625 0 11-.884.884l-3.312-3.312v2.241a.625.625 0 11-1.25 0v-4.375zm-3.746 0v4.375a.625.625 0 11-1.25 0v-2.241L3.567 17.32a.625.625 0 11-.884-.884l3.312-3.312h-2.24a.625.625 0 110-1.25h4.374zm3.746-3.746V3.754a.625.625 0 111.25 0v2.241l3.312-3.312a.625.625 0 11.884.884L14.01 6.879h2.241a.625.625 0 110 1.25h-4.375zm-3.746 0H3.754a.625.625 0 010-1.25h2.241L2.683 3.567a.625.625 0 01.884-.884l3.312 3.312v-2.24a.625.625 0 111.25 0v4.374z" id="a"/></defs><use xlink:href="#a" transform="translate(-2 -2)" fill-rule="evenodd"/></svg>