<svg width="32" height="32" xmlns="http://www.w3.org/2000/svg" xmlns:xlink="http://www.w3.org/1999/xlink"><defs><path d="M19 19h7a1 1 0 010 2h-3.586l5.3 5.3a1 1 0 11-1.414 1.414l-5.3-5.3V26a1 1 0 01-2 0v-7zm-5.993 0v7a1 1 0 11-2 0v-3.586l-5.3 5.3A1 1 0 014.293 26.3l5.3-5.3H6.007a1 1 0 010-2h7zM19 13.007v-7a1 1 0 012 0v3.586l5.3-5.3a1 1 0 111.414 1.414l-5.3 5.3H26a1 1 0 010 2h-7zm-5.993 0h-7a1 1 0 110-2h3.586l-5.3-5.3a1 1 0 011.414-1.414l5.3 5.3V6.007a1 1 0 012 0v7z" id="a"/></defs><use xlink:href="#a" fill-rule="evenodd"/></svg>