<svg width="16" height="16" xmlns="http://www.w3.org/2000/svg" xmlns:xlink="http://www.w3.org/1999/xlink"><defs><path d="M17.504 17.504H13.13a.625.625 0 110-1.25h2.241l-3.312-3.312a.625.625 0 11.884-.884l3.312 3.312v-2.24a.625.625 0 111.25 0v4.374zm-15.004 0V13.13a.625.625 0 111.25 0v2.241l3.312-3.312a.625.625 0 11.884.884l-3.312 3.312h2.241a.625.625 0 110 1.25H2.5zM17.504 2.5v4.375a.625.625 0 11-1.25 0V4.634l-3.312 3.312a.625.625 0 11-.884-.884L15.37 3.75h-2.24a.625.625 0 110-1.25h4.374zM2.5 2.5h4.375a.625.625 0 110 1.25H4.634l3.312 3.312a.625.625 0 11-.884.884L3.75 4.634v2.241a.625.625 0 11-1.25 0V2.5z" id="a"/></defs><use xlink:href="#a" transform="translate(-2 -2)" fill-rule="evenodd"/></svg>