<svg xmlns="http://www.w3.org/2000/svg" xmlns:xlink="http://www.w3.org/1999/xlink" viewBox="0 0 32 32"><defs><path id="a" d="M25 22a1 1 0 0 1 1 1v5h-5a1 1 0 0 1 0-2h3v-3a1 1 0 0 1 1-1zM7 22a1 1 0 0 1 1 1v3h3a1 1 0 0 1 0 2H6v-5a1 1 0 0 1 1-1zM22 8v7h3a1 1 0 0 1 0 2h-3v7H10v-7H7a1 1 0 0 1 0-2h3V8h12zm-2.757 9h-2.828L12 21.415V22h2.242l5.001-5zM20 19.071 17.07 22h2.828l.102-.101v-2.828zM13.585 17H12v1.585L13.585 17zM20 10h-8v5h8v-5zm6-6v5a1 1 0 0 1-2 0V6h-3a1 1 0 0 1 0-2h5zM11 4a1 1 0 0 1 .117 1.993L11 6H8v3a1 1 0 0 1-1.993.117L6 9V4h5z"/></defs><use xlink:href="#a" fill-rule="evenodd"/></svg>