<svg width="14" height="16" xmlns="http://www.w3.org/2000/svg" xmlns:xlink="http://www.w3.org/1999/xlink"><defs><path d="M15.625 13.75c.345 0 .625.28.625.625V17.5h-3.125a.625.625 0 110-1.25H15v-1.875c0-.345.28-.625.625-.625zm-11.25 0c.345 0 .625.28.625.625v1.875h1.875a.625.625 0 110 1.25H3.75v-3.125c0-.345.28-.625.625-.625zM13.75 5v4.375h1.875a.625.625 0 110 1.25H13.75V15h-7.5v-4.375H4.375a.625.625 0 110-1.25H6.25V5h7.5zm-1.723 5.625h-1.768L7.5 13.384v.366h1.4l3.127-3.125zm.473 1.295l-1.832 1.83h1.768l.064-.063V11.92zm-4.009-1.295H7.5v.991l.991-.991zM12.5 6.25h-5v3.125h5V6.25zm3.75-3.75v3.125a.625.625 0 11-1.25 0V3.75h-1.875a.625.625 0 110-1.25h3.125zm-9.375 0a.625.625 0 01.092 1.243l-.092.007H5v1.875a.625.625 0 01-1.243.092l-.007-.092V2.5h3.125z" id="a"/></defs><use xlink:href="#a" transform="translate(-3 -2)"/></svg>