<svg width="32" height="32" xmlns="http://www.w3.org/2000/svg"><path d="M26 6l.002 8.126a4.002 4.002 0 012.993 3.674L29 18v2h2v10H19v-4H2V6h24zm-2 8.126V9.142l-10 10-10-10V24h15v-4h2v-2l.005-.2a4.002 4.002 0 012.804-3.62l.19-.054zM25 16l-.214.011-.125.018-.142.03-.156.045-.084.03-.15.065a2 2 0 00-1.124 1.652L23 18v2h4v-2c0-.687-.346-1.293-.873-1.653L26 16.268l-.146-.077-.153-.064-.122-.042-.08-.022-.106-.024-.14-.023-.054-.006A2.024 2.024 0 0025 16zm-2.687-8H5.687L14 16.314 22.313 8z" fill-rule="evenodd"/></svg>