<svg xmlns="http://www.w3.org/2000/svg" viewBox="0 0 32 32"><path d="M18.205 1.01A2 2 0 0 1 20 3v.876c0 2.309 2.5 3.752 4.5 2.598l.758-.438.183-.093a2 2 0 0 1 2.55.826l2 3.463.093.183a2 2 0 0 1-.654 2.439l-.172.11-.758.438c-2 1.155-2 4.042 0 5.197l.758.437.172.111a2 2 0 0 1 .654 2.439l-.094.183-2 3.463a2 2 0 0 1-2.55.826l-.182-.093-.758-.438c-2-1.154-4.5.289-4.5 2.598V29a2 2 0 0 1-1.795 1.99L18 31h-4a2 2 0 0 1-2-2v-.875c0-2.31-2.5-3.753-4.5-2.599l-.759.439a2 2 0 0 1-2.62-.56l-.112-.173-2-3.463a2 2 0 0 1 .732-2.733l.76-.437.18-.114c1.817-1.22 1.756-3.964-.18-5.083l-.76-.437a2 2 0 0 1-.731-2.733l2-3.463.111-.172a2 2 0 0 1 2.438-.654l.182.093.76.439C9.5 7.629 12 6.185 12 3.876V3c0-1.104.895-2 2-2.001h4zM14 3.877c0 3.728-3.91 6.103-7.184 4.498L6.5 8.207l-.76-.438-1.999 3.463.757.438c3.333 1.924 3.334 6.735.001 8.66l-.759.438 2 3.464.76-.437.315-.168c3.274-1.605 7.184.77 7.184 4.498V29h4v-.875c0-3.85 4.168-6.255 7.501-4.33l.757.437 2-3.463-.758-.439c-3.333-1.924-3.333-6.736 0-8.66l.758-.438-2-3.463-.758.437c-3.333 1.924-7.5-.482-7.5-4.33V3h-4zM16 10a6 6 0 1 1 0 12 6 6 0 0 1 0-12m0 2a4 4 0 1 0 0 8 4 4 0 0 0 0-8"/></svg>