<svg width="32" height="32" xmlns="http://www.w3.org/2000/svg" xmlns:xlink="http://www.w3.org/1999/xlink"><defs><path d="M16 4a1 1 0 011 1l.001 1.05a9.936 9.936 0 013.109.83l.524-.906a1 1 0 011.732 1l-.524.91a10.04 10.04 0 012.275 2.274l.91-.524a1 1 0 011 1.732l-.908.525c.436.964.723 2.01.832 3.109H27a1 1 0 110 2l-1.05.001a9.936 9.936 0 01-.832 3.108l.907.525a1 1 0 01-1 1.732l-.909-.524c-.63.875-1.4 1.644-2.275 2.275l.524.91a1 1 0 01-1.732 1l-.524-.908a9.936 9.936 0 01-3.109.832V27a1 1 0 11-2 0v-1.05a9.936 9.936 0 01-3.11-.83l-.525.906a1 1 0 11-1.732-1l.524-.91a10.04 10.04 0 01-2.275-2.274l-.91.524a1 1 0 11-1-1.732l.908-.525a9.936 9.936 0 01-.831-3.108L5 17a1 1 0 010-2h1.05a9.936 9.936 0 01.83-3.11l-.906-.524a1 1 0 011-1.732l.91.524a10.04 10.04 0 012.274-2.275l-.524-.91a1 1 0 111.732-1l.525.908A9.936 9.936 0 0115 6.049V5a1 1 0 011-1zm0 4a8 8 0 100 16 8 8 0 000-16zm0 2a6 6 0 110 12 6 6 0 010-12zm0 2a4 4 0 100 8 4 4 0 000-8z" id="a"/></defs><use xlink:href="#a" fill-rule="evenodd"/></svg>