<svg width="16" height="16" xmlns="http://www.w3.org/2000/svg" xmlns:xlink="http://www.w3.org/1999/xlink"><defs><path d="M10 2.5c.314 0 .574.231.618.533l.007.092v.656a6.21 6.21 0 011.944.52l.327-.567a.625.625 0 011.126.533l-.043.092-.327.568a6.286 6.286 0 011.422 1.422l.568-.328a.625.625 0 01.708 1.025l-.083.058-.568.327a6.21 6.21 0 01.52 1.944h.656a.625.625 0 01.092 1.243l-.092.007h-.656a6.21 6.21 0 01-.52 1.944l.568.327a.625.625 0 01-.534 1.126l-.091-.043-.569-.328a6.286 6.286 0 01-1.423 1.423l.329.567a.625.625 0 01-1.025.71l-.058-.085-.327-.566a6.21 6.21 0 01-1.944.52v.655a.625.625 0 01-1.243.092l-.007-.092v-.656a6.21 6.21 0 01-1.944-.52l-.327.567a.625.625 0 01-1.126-.533l.043-.092.328-.568a6.286 6.286 0 01-1.423-1.423l-.567.329a.625.625 0 01-.709-1.025l.084-.058.567-.327a6.21 6.21 0 01-.52-1.943l-.656-.001a.625.625 0 01-.092-1.243l.092-.007h.656a6.21 6.21 0 01.52-1.944l-.567-.327a.625.625 0 01.533-1.126l.092.043.568.328A6.286 6.286 0 016.35 4.926l-.33-.566a.625.625 0 011.025-.71l.058.085.327.567a6.21 6.21 0 011.945-.52v-.656c0-.345.279-.625.624-.625zM10 5a5 5 0 100 10 5 5 0 000-10zm0 1.25a3.75 3.75 0 110 7.5 3.75 3.75 0 010-7.5zm0 1.25a2.5 2.5 0 100 5 2.5 2.5 0 000-5z" id="a"/></defs><use xlink:href="#a" transform="translate(-2 -2)" fill-rule="evenodd"/></svg>