<svg width="14" height="14" xmlns="http://www.w3.org/2000/svg" xmlns:xlink="http://www.w3.org/1999/xlink"><defs><path d="M13.75 3.125a2.5 2.5 0 11-1.77 4.266l-3.326 1.92a2.502 2.502 0 010 1.378l3.326 1.92a2.5 2.5 0 11-.634 1.077l-3.327-1.92a2.5 2.5 0 110-3.533l3.327-1.92a2.502 2.502 0 012.404-3.188zm0 10a1.25 1.25 0 100 2.5 1.25 1.25 0 000-2.5zM6.25 8.75a1.25 1.25 0 100 2.5 1.25 1.25 0 000-2.5zm7.5-4.375a1.25 1.25 0 100 2.5 1.25 1.25 0 000-2.5z" id="a"/></defs><use xlink:href="#a" transform="translate(-3 -3)"/></svg>