<svg xmlns="http://www.w3.org/2000/svg" viewBox="0 0 32 32"><path d="M21.634 2.736a3.006 3.006 0 0 1 3.995-1.454l3.634 1.694a3.006 3.006 0 0 1 1.454 3.995l-8.14 17.456a1 1 0 0 1-.27.35l-7.19 5.935q-.038.029-.078.053a1 1 0 0 1-.64.235H2a1 1 0 1 1 0-2h11.468l-.068-8.376a1 1 0 0 1 .095-.432zm-6.652 24.563q.319.07.629.211.307.145.565.346l4.278-3.616-5.45-2.542zm4.502-5.723 1.816.847L27.63 8.85l-1.816-.847zM15.85 19.88l1.816.848 6.33-13.574-1.817-.847zm8.932-16.783a1 1 0 0 0-1.332.485l-.423.908 5.449 2.542.424-.908a1.003 1.003 0 0 0-.486-1.332z"/></svg>