<svg width="17" height="17" xmlns="http://www.w3.org/2000/svg" xmlns:xlink="http://www.w3.org/1999/xlink"><defs><path d="M16.56 2.776c.68.39.976.989.937 1.644-.023.37-.137.673-.258.882l-5.024 8.67-2.227 1.465a.626.626 0 01-.054.155c-.93 1.859-1.916 2.845-3.059 2.845-.759 0-1.164-.368-1.699-1.199l-.116-.181c-.398-.62-.616-.807-.997-.807-.635 0-.88.196-.943.703a.625.625 0 01-1.24-.156C2.025 15.637 2.822 15 4.063 15c.934 0 1.44.434 2.049 1.38l.116.182c.317.494.462.625.647.625.524 0 1.204-.68 1.941-2.154a.637.637 0 01.007-.014L9 12.122l5.024-8.67c.121-.208.328-.458.639-.662.55-.362 1.218-.405 1.898-.014zm-6.343 9.71l-.083 1.376 1.155-.76 4.878-8.416a.863.863 0 00.094-.34c.012-.205-.062-.354-.32-.502-.259-.15-.426-.138-.597-.025a.867.867 0 00-.249.25l-4.878 8.417zM14.32 4.35l2.144 1.233-.619 1.068-2.144-1.234.62-1.067z" id="a"/></defs><use xlink:href="#a" transform="translate(-1 -2)"/></svg>