<svg xmlns="http://www.w3.org/2000/svg" xmlns:xlink="http://www.w3.org/1999/xlink" viewBox="0 0 32 32"><defs><path id="a" d="M26.495 4.441c1.088.625 1.563 1.582 1.5 2.63a3.223 3.223 0 0 1-.412 1.413l-8.04 13.87-3.563 2.344a1.001 1.001 0 0 1-.086.25C14.407 27.92 12.83 29.5 11 29.5c-1.214 0-1.863-.589-2.718-1.919l-.186-.29C7.46 26.299 7.11 26 6.5 26c-1.015 0-1.406.313-1.508 1.124a1 1 0 1 1-1.984-.248C3.24 25.02 4.515 24 6.5 24c1.494 0 2.305.695 3.279 2.21l.186.29c.508.79.74 1 1.035 1 .838 0 1.926-1.088 3.106-3.447l.012-.025.28-4.633 8.04-13.87a3.238 3.238 0 0 1 1.02-1.062c.88-.579 1.95-.647 3.037-.022zM16.347 19.978l-.133 2.202 1.848-1.216 7.806-13.467a1.38 1.38 0 0 0 .15-.543c.02-.328-.1-.567-.513-.804-.413-.238-.68-.221-.955-.04a1.387 1.387 0 0 0-.398.4l-7.805 13.468zm6.566-13.019 3.43 1.973-.99 1.709-3.43-1.973.99-1.709z"/></defs><use xlink:href="#a" fill-rule="evenodd"/></svg>