<svg width="16" height="16" xmlns="http://www.w3.org/2000/svg"><path d="M6.021 8.403A1.58 1.58 0 017.597 9.98v3.945A1.58 1.58 0 016.02 15.5a1.58 1.58 0 01-1.576-1.576V9.98A1.58 1.58 0 016.02 8.404zM9.98 12.35a1.58 1.58 0 011.576 1.575A1.58 1.58 0 019.979 15.5a1.58 1.58 0 01-1.576-1.576V12.35H9.98zM3.65 8.403V9.98a1.58 1.58 0 01-1.575 1.576A1.58 1.58 0 01.5 9.979a1.58 1.58 0 011.576-1.576H3.65zm10.273 0A1.58 1.58 0 0115.5 9.98a1.58 1.58 0 01-1.576 1.576H9.98A1.58 1.58 0 018.404 9.98 1.58 1.58 0 019.98 8.403h3.945zM6.021 4.445a1.58 1.58 0 011.576 1.576A1.58 1.58 0 016.02 7.597H2.076A1.58 1.58 0 01.5 6.02a1.58 1.58 0 011.576-1.576H6.02zm7.903 0A1.58 1.58 0 0115.5 6.021a1.58 1.58 0 01-1.576 1.576H12.35V6.02a1.58 1.58 0 011.575-1.576zM9.98.5a1.58 1.58 0 011.576 1.576V6.02A1.58 1.58 0 019.98 7.596 1.58 1.58 0 018.403 6.02V2.076A1.58 1.58 0 019.98.5zM6.02.5a1.58 1.58 0 011.576 1.576V3.65H6.02a1.58 1.58 0 01-1.576-1.575A1.58 1.58 0 016.021.5z"/></svg>