<svg xmlns="http://www.w3.org/2000/svg" viewBox="0 0 32 32"><path fill-rule="evenodd" d="M12.834 16.645a2.527 2.527 0 012.521 2.521v6.313A2.527 2.527 0 0112.834 28a2.527 2.527 0 01-2.521-2.521v-6.313a2.527 2.527 0 012.52-2.521zm6.332 6.313a2.527 2.527 0 012.521 2.52A2.527 2.527 0 0119.167 28a2.527 2.527 0 01-2.522-2.521v-2.521h2.521zM9.042 16.645v2.521a2.527 2.527 0 01-2.52 2.521A2.527 2.527 0 014 19.167a2.527 2.527 0 012.521-2.522h2.521zm16.437 0A2.527 2.527 0 0128 19.166a2.527 2.527 0 01-2.521 2.521h-6.313a2.527 2.527 0 01-2.521-2.52 2.527 2.527 0 012.521-2.522h6.313zm-12.645-6.332a2.527 2.527 0 012.521 2.52 2.527 2.527 0 01-2.521 2.522H6.52A2.527 2.527 0 014 12.834a2.527 2.527 0 012.521-2.521h6.313zm12.645 0A2.527 2.527 0 0128 12.833a2.527 2.527 0 01-2.521 2.522h-2.521v-2.521a2.527 2.527 0 012.52-2.521zM19.166 4a2.527 2.527 0 012.521 2.521v6.313a2.527 2.527 0 01-2.52 2.521 2.527 2.527 0 01-2.522-2.521V6.52A2.527 2.527 0 0119.166 4zm-6.332 0a2.527 2.527 0 012.521 2.521v2.521h-2.521a2.527 2.527 0 01-2.521-2.52A2.527 2.527 0 0112.833 4z"/></svg>