<svg xmlns="http://www.w3.org/2000/svg" viewBox="0 0 32 32"><path d="M16 1a1 1 0 0 1 .951.691l2.92 8.983h9.443a1 1 0 0 1 .588 1.808l-7.641 5.552 2.919 8.984a1 1 0 0 1-1.538 1.117L16 22.583l-7.642 5.552a.999.999 0 0 1-1.538-1.117l2.918-8.984-7.64-5.552a1 1 0 0 1 .588-1.808h9.444l2.919-8.983.061-.148A1 1 0 0 1 16 1m-2.192 10.982a1 1 0 0 1-.952.692H5.764l5.738 4.17a1 1 0 0 1 .363 1.118l-2.193 6.746 5.74-4.17.137-.083a1 1 0 0 1 1.039.083l5.74 4.17-2.193-6.746a1 1 0 0 1 .363-1.118l5.738-4.17h-7.092a1 1 0 0 1-.952-.692L16 5.235z"/></svg>