<svg xmlns="http://www.w3.org/2000/svg" viewBox="0 0 32 32"><path d="M16 2A14 14 0 1 1 3.905 23.05a1 1 0 0 1 1.728-1.006A12 12 0 1 0 16 4a1 1 0 0 1 0-2m-.205 8q1.216 0 2.049.368.831.368 1.263 1.072t.432 1.712q0 .513-.128 1.008-.113.48-.368.96-.24.48-.624.992-.368.496-.896 1.04l-2.486 2.592h4.086a.848.848 0 1 1 0 1.696h-5.64a1 1 0 0 1-1-1v-.125a1 1 0 0 1 .27-.683l3.378-3.6q.495-.529.784-.976a3.7 3.7 0 0 0 .448-.864q.144-.415.144-.832 0-.8-.512-1.216-.495-.417-1.456-.417-.752 0-1.472.289a4 4 0 0 0-.47.22c-.476.263-1.118.135-1.34-.361-.142-.317-.067-.695.22-.89a5.5 5.5 0 0 1 1.222-.617A6.1 6.1 0 0 1 15.795 10"/></svg>