<svg xmlns="http://www.w3.org/2000/svg" viewBox="0 0 32 32"><path d="M16 2c7.732 0 14 6.268 14 14s-6.268 14-14 14S2 23.732 2 16 8.268 2 16 2m0 2C9.373 4 4 9.373 4 16s5.373 12 12 12 12-5.373 12-12S22.627 4 16 4m-.188 6q1.167 0 2 .368.831.352 1.263 1.024.448.655.448 1.6 0 1.008-.56 1.744-.45.579-1.173.846.538.143.95.434.544.385.831.976.288.592.288 1.36 0 .99-.496 1.728-.495.736-1.408 1.136-.912.384-2.176.384a7 7 0 0 1-1.504-.16 6 6 0 0 1-1.343-.432 5 5 0 0 1-.591-.32c-.311-.198-.4-.598-.254-.937.217-.507.853-.666 1.344-.416a4.9 4.9 0 0 0 2.284.537q.704 0 1.184-.192t.72-.576q.255-.384.256-.928 0-.8-.544-1.184-.529-.4-1.552-.4h-.96a.848.848 0 1 1 0-1.695h.768q.608 0 1.04-.193a1.6 1.6 0 0 0 .672-.576q.24-.368.24-.896 0-.736-.496-1.12-.48-.384-1.408-.385-.832 0-1.552.289-.24.09-.473.216c-.481.261-1.13.13-1.35-.373-.135-.309-.066-.676.209-.873q.54-.388 1.246-.634A6.3 6.3 0 0 1 15.812 10"/></svg>