<svg width="17" height="17" xmlns="http://www.w3.org/2000/svg"><path d="M3 6.75h6.25V8H3V6.75zM7.634.5l4.116 4.116V9.25h3.75c.345 0 .625.28.625.625v6.25c0 .345-.28.625-.625.625H1.125a.625.625 0 01-.625-.625V1.75C.5.817.759.523 1.641.501L1.75.5h5.884zM3.81 10.503c-.36 0-.685.058-.974.173a1.53 1.53 0 00-.67.484 1.15 1.15 0 00-.236.716c0 .544.317.972.95 1.283.195.096.445.196.752.298.307.103.52.203.643.3.122.095.183.23.183.402 0 .152-.057.27-.17.354-.113.084-.267.126-.461.126-.305 0-.525-.062-.66-.186s-.203-.317-.203-.58H1.783c0 .323.081.608.244.855.162.247.404.442.725.584.32.142.68.213 1.076.213.561 0 1.003-.122 1.326-.366.322-.244.483-.58.483-1.007 0-.535-.264-.954-.792-1.259a4.339 4.339 0 00-.833-.35c-.338-.109-.574-.214-.708-.316-.134-.102-.201-.215-.201-.34 0-.144.06-.262.182-.355.122-.093.289-.14.499-.14.208 0 .373.056.495.165.122.11.183.265.183.464h1.175c0-.298-.077-.563-.232-.794a1.496 1.496 0 00-.65-.536 2.28 2.28 0 00-.944-.188zm8.92-.003c-.417 0-.783.097-1.1.29-.317.194-.56.47-.73.83-.17.359-.255.779-.255 1.26l.003.423c.027.698.232 1.243.614 1.635.383.392.894.587 1.534.587.417 0 .8-.061 1.148-.184.35-.123.615-.286.796-.487v-2.008h-1.997v.81h.819v.758c-.15.137-.378.205-.685.205-.358 0-.62-.123-.787-.368-.167-.245-.25-.611-.25-1.099v-.295c.002-.466.084-.824.245-1.075a.769.769 0 01.685-.376c.246 0 .436.059.57.175.134.116.222.311.262.584h1.135c-.056-.553-.253-.968-.59-1.247-.336-.279-.809-.418-1.418-.418zm-5.563.07H5.862l1.631 4.888h1.29l1.644-4.888H9.111l-.973 3.559-.97-3.559zM6.75 1.75h-5v7.5h8.75V5.5H6.75V1.75zM8 2.634V4.25h1.616L8 2.634z"/></svg>