<svg xmlns="http://www.w3.org/2000/svg" viewBox="0 0 32 32"><path fill-rule="evenodd" d="M8 14h10v2H8v-2zm7.414-10L22 10.586V18h6a1 1 0 011 1v10a1 1 0 01-1 1H5a1 1 0 01-1-1V6c0-1.493.414-1.964 1.826-1.998L6 4h9.414zM9.297 20.005a4.17 4.17 0 00-1.557.277c-.462.184-.82.442-1.072.773a1.84 1.84 0 00-.378 1.147c0 .87.506 1.554 1.52 2.052.311.154.712.313 1.203.478.49.165.833.324 1.028.478.195.154.293.369.293.644 0 .244-.09.433-.271.567-.181.134-.427.202-.739.202-.487 0-.839-.1-1.055-.299-.217-.198-.325-.507-.325-.926h-1.89c0 .516.129.971.389 1.367s.646.707 1.16.934a4.21 4.21 0 001.721.342c.899 0 1.606-.196 2.122-.586.515-.39.773-.927.773-1.611 0-.856-.422-1.527-1.267-2.014a7.032 7.032 0 00-1.332-.562c-.541-.173-.919-.342-1.134-.505-.215-.162-.322-.344-.322-.545 0-.229.098-.418.293-.566.195-.149.46-.223.797-.223.333 0 .597.087.793.263.195.175.292.422.292.741h1.88c0-.476-.123-.9-.37-1.27a2.394 2.394 0 00-1.04-.857c-.445-.2-.95-.3-1.512-.3zM23.568 20c-.666 0-1.252.155-1.759.465-.506.31-.896.752-1.168 1.326-.272.575-.408 1.247-.408 2.017l.005.677c.043 1.117.37 1.989.983 2.616.612.626 1.43.94 2.455.94a5.49 5.49 0 001.837-.296c.558-.197.983-.456 1.273-.779v-3.212H23.59v1.295h1.31v1.214c-.24.218-.605.327-1.095.327-.573 0-.993-.196-1.26-.588-.267-.392-.4-.978-.4-1.759v-.472c.004-.745.134-1.318.392-1.72.258-.4.623-.6 1.096-.6.394 0 .698.092.913.278.215.187.354.498.419.935h1.815c-.09-.884-.403-1.55-.942-1.995-.54-.446-1.296-.669-2.27-.669zm-8.9.113H12.58l2.61 7.82h2.063l2.632-7.82h-2.106l-1.557 5.693-1.553-5.693zM14 6H6l-.001 12h14v-6H14V6zm2 1.415V10h2.585L16 7.415z"/></svg>