<svg width="20" height="18" xmlns="http://www.w3.org/2000/svg" xmlns:xlink="http://www.w3.org/1999/xlink"><defs><path d="M15.625 11.25a3.75 3.75 0 110 7.5 3.75 3.75 0 010-7.5zM10 1.25a6.25 6.25 0 016.25 6.208l1.62-2.318a.63.63 0 111.034.726l-2.86 4.092-4.175-2.928a.633.633 0 01.724-1.035L15 7.682V7.5a5 5 0 00-10 0v3.802a3.751 3.751 0 11-1.25 0V7.5A6.25 6.25 0 0110 1.25zm5.625 11.25a2.5 2.5 0 100 5 2.5 2.5 0 000-5zm-11.25 0a2.5 2.5 0 100 5 2.5 2.5 0 000-5zm0 1.25a1.25 1.25 0 110 2.5 1.25 1.25 0 010-2.5z" id="a"/></defs><use xlink:href="#a" transform="translate(0 -1)"/></svg>