<svg xmlns="http://www.w3.org/2000/svg" viewBox="0 0 32 32"><path d="M16.5 30h-.01c-4.177-.028-7.388-1.406-9.547-4.094-1.918-2.394-2.91-5.723-2.943-9.895v-.02c.034-4.174 1.025-7.5 2.946-9.895C9.102 3.406 12.316 2.028 16.49 2h.017c3.203.022 5.882.846 7.963 2.447 1.957 1.507 3.335 3.651 4.093 6.379l-2.38.663c-1.288-4.62-4.547-6.98-9.688-7.017-3.393.026-5.96 1.092-7.63 3.17C7.306 9.588 6.5 12.399 6.47 16c.03 3.6.837 6.412 2.4 8.358 1.668 2.08 4.236 3.147 7.63 3.17 3.06-.023 5.084-.737 6.767-2.386 1.92-1.882 1.887-4.192 1.271-5.597-.361-.829-1.02-1.518-1.907-2.041-.224 1.576-.725 2.853-1.498 3.816-1.033 1.285-2.497 1.988-4.351 2.089-1.403.075-2.755-.255-3.802-.935-1.24-.804-1.966-2.03-2.044-3.458-.076-1.39.476-2.666 1.55-3.596 1.028-.887 2.473-1.408 4.181-1.506a16 16 0 0 1 3.523.165c-.146-.865-.437-1.554-.874-2.05-.6-.683-1.526-1.03-2.752-1.038h-.034c-.986 0-2.324.271-3.175 1.54l-2.05-1.375c1.143-1.697 2.996-2.632 5.225-2.632h.05c3.727.022 5.948 2.304 6.169 6.286q.19.081.375.165c1.739.818 3.01 2.055 3.68 3.581.929 2.126 1.016 5.59-1.807 8.353-2.159 2.111-4.777 3.066-8.49 3.091zm1.17-13.639q-.423 0-.863.025c-2.142.12-3.477 1.104-3.402 2.5.079 1.465 1.694 2.146 3.248 2.062 1.428-.076 3.287-.633 3.601-4.33a12.3 12.3 0 0 0-2.584-.257"/></svg>