<svg xmlns="http://www.w3.org/2000/svg" viewBox="0 0 32 32"><path fill-rule="evenodd" d="M21.799 4.134a6.23 6.23 0 0 0 2.766 4.078l.001.001A6.34 6.34 0 0 0 28 9.22v4.47a10.9 10.9 0 0 1-6.308-2v9.084c0 4.536-3.744 8.227-8.346 8.227a8.4 8.4 0 0 1-4.783-1.491l-.002-.003C6.41 26.017 5 23.554 5 20.773c0-4.537 3.744-8.228 8.346-8.228.382 0 .756.031 1.125.08v4.565a3.8 3.8 0 0 0-1.125-.174c-2.102 0-3.812 1.686-3.812 3.758 0 1.442.83 2.696 2.044 3.325.529.275 1.13.432 1.768.432 2.053 0 3.728-1.61 3.804-3.616L17.157 3h4.535q.001.581.107 1.134" clip-rule="evenodd"/></svg>