<svg xmlns="http://www.w3.org/2000/svg" viewBox="0 0 32 32"><path fill-rule="evenodd" d="M24 1a7 7 0 01.953 13.936c.031.35.047.705.047 1.064 0 6.627-5.373 12-12 12S1 22.627 1 16 6.373 4 13 4c1.667 0 3.254.34 4.696.954A7 7 0 0124 1zM13 6C7.477 6 3 10.477 3 16s4.477 10 10 10 10-4.477 10-10c0-.365-.02-.726-.058-1.081a7 7 0 01-5.852-8.046A9.946 9.946 0 0013 6zm0 2a1 1 0 01.993.883L14 9v6.434l4.514 2.709a1 1 0 01-.925 1.769l-.103-.055L12 16.567V9a1 1 0 011-1zm11 2a1 1 0 100 2 1 1 0 000-2zm0-6c-.552 0-1 .407-1 .91v3.18c0 .503.448.91 1 .91s1-.407 1-.91V4.91c0-.503-.448-.91-1-.91z"/></svg>