<svg xmlns="http://www.w3.org/2000/svg" viewBox="0 0 32 32"><path fill-rule="evenodd" d="M22.283 17.293a.943.943 0 0 1 1.276-.083l.091.083 4.709 5.023a1 1 0 0 1 0 1.368l-4.709 5.023a.944.944 0 0 1-1.367 0 1.026 1.026 0 0 1-.08-1.32l.08-.094L25.308 24H9.818C9.366 24 9 23.552 9 23c0-.513.316-.936.723-.993L9.818 22h15.49l-3.025-3.293a1.025 1.025 0 0 1 0-1.414m-12.566-14c.377.39.377 1.024 0 1.414L6.69 8h15.49c.453 0 .819.448.819 1s-.366 1-.818 1H6.692l3.025 3.293c.377.39.377 1.024 0 1.414a.944.944 0 0 1-1.367 0L3.64 9.684a1 1 0 0 1 0-1.368l4.71-5.023a.944.944 0 0 1 1.367 0" clip-rule="evenodd"/></svg>