<svg xmlns="http://www.w3.org/2000/svg" width="25" height="24" viewBox="0 0 25 24"><path fill-rule="evenodd" d="M16.462 12.22a.707.707 0 0 1 .957-.063l.069.063L21.5 16.5l-4.012 4.28a.708.708 0 0 1-1.026 0 .77.77 0 0 1-.06-.99l.06-.07 2.27-2.47H7.113c-.34 0-.614-.336-.614-.75 0-.385.237-.702.542-.745l.072-.005H18.73l-2.269-2.47a.768.768 0 0 1 0-1.06Zm-7.924-9a.768.768 0 0 1 0 1.06l-2.27 2.47h11.618c.34 0 .614.336.614.75s-.275.75-.614.75H6.27l2.269 2.47a.768.768 0 0 1 0 1.06.708.708 0 0 1-1.026 0L3.5 7.5l4.012-4.28a.708.708 0 0 1 1.026 0Z" clip-rule="evenodd"/></svg>