<svg width="14" height="18" xmlns="http://www.w3.org/2000/svg" xmlns:xlink="http://www.w3.org/1999/xlink"><defs><path d="M15.708 6.875l-1.406 11.25H5.698L4.292 6.875h11.416zm-7.877 1.25H5.708l1.094 8.75h1.303l-.274-8.75zm6.461 0h-2.124l-.274 8.75h1.304l1.094-8.75zm-3.375 0H9.082l.273 8.75h1.289l.273-8.75zm-7.167-2.5a.625.625 0 01-.092-1.243l.092-.007h4.375V2.5c0-.345.28-.625.625-.625h2.5c.345 0 .625.28.625.625v1.875h4.375a.625.625 0 01.092 1.243l-.092.007H3.75zm6.875-2.5h-1.25v1.25h1.25v-1.25z" id="a"/></defs><use xlink:href="#a" transform="translate(-3 -1)"/></svg>