<svg xmlns="http://www.w3.org/2000/svg" viewBox="0 0 32 32"><path fill-rule="evenodd" d="M11.548 25.505c9.057 0 14.01-7.503 14.01-14.01 0-.213-.005-.425-.014-.636A10.014 10.014 0 0028 8.309a9.819 9.819 0 01-2.828.775 4.942 4.942 0 002.166-2.724 9.875 9.875 0 01-3.127 1.196 4.925 4.925 0 00-8.39 4.49A13.982 13.982 0 015.67 6.901a4.91 4.91 0 00-.668 2.475 4.92 4.92 0 002.192 4.099 4.887 4.887 0 01-2.23-.616l-.001.063a4.925 4.925 0 003.95 4.827 4.93 4.93 0 01-2.224.084 4.929 4.929 0 004.6 3.42 9.878 9.878 0 01-6.115 2.108A10 10 0 014 23.293a13.938 13.938 0 007.548 2.212"/></svg>