<svg width="16" height="13" xmlns="http://www.w3.org/2000/svg"><path d="M5.217 12.94c5.661 0 8.757-4.689 8.757-8.756 0-.133-.003-.265-.01-.397A6.259 6.259 0 0015.5 2.193a6.137 6.137 0 01-1.767.484A3.089 3.089 0 0015.086.975a6.172 6.172 0 01-1.954.747 3.078 3.078 0 00-5.244 2.806 8.739 8.739 0 01-6.344-3.215 3.075 3.075 0 00.953 4.108 3.055 3.055 0 01-1.394-.384v.04c0 1.49 1.06 2.734 2.468 3.016a3.081 3.081 0 01-1.39.053 3.08 3.08 0 002.875 2.137A6.174 6.174 0 01.5 11.558a8.711 8.711 0 004.717 1.382"/></svg>