<svg width="32" height="32" xmlns="http://www.w3.org/2000/svg" xmlns:xlink="http://www.w3.org/1999/xlink"><defs><path d="M16 2c7.732 0 14 6.268 14 14s-6.268 14-14 14S2 23.732 2 16 8.268 2 16 2zm3.474 18.496L16 23.97l-3.475-3.475c-1.952.58-3.617 1.632-4.776 2.983-.192.224-.37.456-.534.696A11.968 11.968 0 0016 28c3.469 0 6.593-1.472 8.784-3.825a7.838 7.838 0 00-.645-.825c-1.154-1.29-2.775-2.294-4.665-2.854zM16 4c-4.843 0-9.016 2.87-10.912 7H5a4 4 0 11-.636 7.95 11.969 11.969 0 001.578 3.597 9.4 9.4 0 01.627-.73c1.162-1.23 2.663-2.227 4.386-2.893h-.001l.068-.026.154-.057.152-.055.003-.001.11-.038a13.414 13.414 0 011.703-.462l.822.821L16 21.142l1.095-1.095 1.762-1.762.258.055.077.018-.28-.061.307.067.029.007.015.003-.044-.01.152.036a13.726 13.726 0 011.675.525c1.708.66 3.198 1.645 4.356 2.86.233.245.452.498.657.76.71-1.088 1.249-2.3 1.576-3.597A4 4 0 1126.911 11 12 12 0 0016 4zm0 4a5 5 0 110 10 5 5 0 010-10zM5 13a2 2 0 00-.65.108 12.027 12.027 0 00-.327 3.636A2 2 0 105 13zm22 0a2 2 0 10.977 3.746 12.027 12.027 0 00-.328-3.638A1.99 1.99 0 0027 13zm-11-3a3 3 0 100 6 3 3 0 000-6z" id="a"/></defs><use xlink:href="#a" fill-rule="evenodd"/></svg>