<svg width="18" height="18" xmlns="http://www.w3.org/2000/svg" xmlns:xlink="http://www.w3.org/1999/xlink"><defs><path d="M10 1.25a8.75 8.75 0 110 17.5 8.75 8.75 0 010-17.5zm2.172 11.56L10 14.982 7.827 12.81c-1.22.362-2.26 1.02-2.984 1.865-.12.14-.232.285-.334.434A7.48 7.48 0 0010 17.5a7.48 7.48 0 005.489-2.389 4.588 4.588 0 00-.402-.517c-.721-.806-1.734-1.434-2.915-1.784zM10 2.5a7.501 7.501 0 00-6.82 4.376l-.055-.001a2.5 2.5 0 11-.397 4.969c.205.81.541 1.567.985 2.247.123-.157.254-.31.393-.456.726-.768 1.664-1.39 2.74-1.807l.002-.001.216-.08.139-.048a8.432 8.432 0 011.013-.271L10 13.214l.685-.684h-.001l1.102-1.102a8.627 8.627 0 01.676.167l.121.036a8.427 8.427 0 01.572.197c1.066.413 1.998 1.029 2.721 1.788.146.152.282.31.41.474.444-.68.78-1.437.986-2.246a2.5 2.5 0 11-.45-4.968A7.502 7.502 0 009.999 2.5zm-2.999 9.269l-.138.052.017-.006.108-.04.013-.006zm.043-.015l-.043.015.022-.007.021-.008zm.048-.018l-.028.011-.02.007.048-.018zM10 5a3.125 3.125 0 110 6.25A3.125 3.125 0 0110 5zM3.125 8.125c-.142 0-.279.024-.406.067a7.52 7.52 0 00-.205 2.274 1.25 1.25 0 10.61-2.34zm13.75 0a1.25 1.25 0 10.61 2.341 7.517 7.517 0 00-.204-2.274 1.25 1.25 0 00-.406-.067zM10 6.25A1.875 1.875 0 1010 10a1.875 1.875 0 000-3.75z" id="a"/></defs><use xlink:href="#a" transform="translate(-1 -1)"/></svg>