<svg width="18" height="14" xmlns="http://www.w3.org/2000/svg" xmlns:xlink="http://www.w3.org/1999/xlink"><defs><path d="M16.187 3.933a.625.625 0 010 .884l-11.49 11.49a.625.625 0 11-.884-.883l11.49-11.49a.625.625 0 01.884 0zm.024 2.629c1.234 1.265 1.914 2.683 1.914 3.558 0 1.875-3.125 6.25-8.125 6.25a8.31 8.31 0 01-3.03-.568l.983-.982c.652.196 1.337.3 2.047.3 1.939 0 3.698-.776 5.08-2.08 1.095-1.036 1.795-2.306 1.795-2.92 0-.566-.595-1.69-1.548-2.675zm-2.588 2.587A3.755 3.755 0 0110 13.87c-.336 0-.661-.044-.971-.127zM10 3.87a8.31 8.31 0 013.03.569l-.982.981A7.096 7.096 0 0010 5.12c-1.939 0-3.698.776-5.08 2.08-1.095 1.036-1.795 2.306-1.795 2.92 0 .566.595 1.691 1.548 2.675l-.884.884c-1.234-1.265-1.914-2.684-1.914-3.559C1.875 8.245 5 3.87 10 3.87zm0 2.5c.336 0 .662.044.972.127l-4.595 4.594A3.755 3.755 0 0110 6.371z" id="a"/></defs><use xlink:href="#a" transform="translate(-1 -3)"/></svg>