<svg width="16" height="16" xmlns="http://www.w3.org/2000/svg" xmlns:xlink="http://www.w3.org/1999/xlink"><defs><path d="M17.5 11.25v6.25h-1.25v-6.25h1.25zm-6.067.183a.625.625 0 01.884 0l2.942 2.942-2.942 2.942-.087.072a.625.625 0 01-.797-.072l-.072-.087a.625.625 0 01.072-.797L12.867 15H5.625C5.343 15 5 14.72 5 14.375s.343-.625.625-.625h7.242l-1.434-1.433-.072-.087a.625.625 0 01.072-.797zM3.75 2.5v6.25H2.5V2.5h1.25zm4.817.183a.625.625 0 01.072.797l-.072.087L7.133 5h7.242c.282 0 .625.28.625.625s-.343.625-.625.625H7.133l1.434 1.433a.625.625 0 01.072.797l-.072.087a.625.625 0 01-.797.072l-.087-.072-2.942-2.942 2.942-2.942a.625.625 0 01.884 0z" id="a"/></defs><use xlink:href="#a" transform="translate(-2 -2)"/></svg>