<svg xmlns="http://www.w3.org/2000/svg" xmlns:xlink="http://www.w3.org/1999/xlink" viewBox="0 0 32 33"><defs><path id="a" d="M16 10a6 6 0 1 1 0 12 6 6 0 0 1 0-12zm2 2a2 2 0 1 0 0 4 2 2 0 0 0 0-4zm-2 14c8 0 13-7 13-10S24 6 16 6 3 13 3 16s5 10 13 10zm0-2c-3.102 0-5.917-1.242-8.127-3.329C6.12 19.014 5 16.982 5 16c0-.982 1.12-3.014 2.873-4.671C10.083 9.242 12.898 8 16 8c3.102 0 5.917 1.242 8.127 3.329C25.88 12.986 27 15.018 27 16c0 .982-1.12 3.014-2.873 4.671C21.917 22.758 19.102 24 16 24z"/></defs><use xlink:href="#a" fill-rule="evenodd"/></svg>