<svg xmlns="http://www.w3.org/2000/svg" viewBox="0 0 32 32"><path d="M26.485 4.293A1 1 0 1 1 27.9 5.707L5.515 28.092A1 1 0 1 1 4.1 26.678zm.214 5.441C28.826 11.961 30 14.46 30 16c0 3.3-5.385 11-14 11-2.006 0-3.837-.418-5.466-1.1l1.552-1.552c1.239.424 2.55.652 3.914.652 3.384 0 6.454-1.397 8.865-3.745C26.78 19.39 28 17.105 28 16c0-1.024-1.05-3.062-2.727-4.839zm-4.056 4.057a7 7 0 0 1-8.852 8.852zM16 5c2.117 0 4.038.465 5.733 1.216l-1.536 1.536A12 12 0 0 0 16 7c-3.384 0-6.454 1.397-8.865 3.745C5.22 12.609 4 14.895 4 16c0 1.062 1.129 3.214 2.915 5.034L5.491 22.46C3.245 20.184 2 17.585 2 15.999 2 12.7 7.385 5 16 5m0 4c.878 0 1.717.163 2.491.458L9.458 18.49A7 7 0 0 1 16 9"/></svg>