<svg xmlns="http://www.w3.org/2000/svg" viewBox="0 0 32 32"><path fill-rule="evenodd" d="M28 17a1 1 0 0 1 1 1v10a1 1 0 1 1-2 0V18a1 1 0 0 1 1-1m-9.707.293a1 1 0 0 1 1.32-.083l.094.083 5 5a1 1 0 0 1 0 1.414l-5 5-.094.083a1 1 0 0 1-1.226 0l-.094-.083-.083-.094a1 1 0 0 1 0-1.226l.083-.094L21.586 24H10c-.452 0-1-.448-1-1 0-.513.473-.936.902-.993L10 22h11.586l-3.293-3.293-.083-.094a1 1 0 0 1 .083-1.32M4 3a1 1 0 0 1 1 1v10a1 1 0 1 1-2 0V4a1 1 0 0 1 1-1m9.707.293a1 1 0 0 1 .083 1.32l-.083.094L10.414 8H22c.452 0 1 .448 1 1s-.548 1-1 1H10.414l3.293 3.293a1 1 0 0 1 .083 1.32l-.083.094a1 1 0 0 1-1.32.083l-.094-.083-5-5a1 1 0 0 1 0-1.414l5-5a1 1 0 0 1 1.414 0" clip-rule="evenodd"/></svg>