<svg xmlns="http://www.w3.org/2000/svg" xmlns:xlink="http://www.w3.org/1999/xlink" viewBox="0 0 32 32"><defs><path id="a" d="M28 18v10h-2V18h2zm-9.707.293a1 1 0 0 1 1.414 0L24.414 23l-4.707 4.707-.094.083a1 1 0 0 1-1.32-.083l-.083-.094a1 1 0 0 1 .083-1.32L20.586 24H9c-.452 0-1-.448-1-1s.548-1 1-1h11.586l-2.293-2.293-.083-.094a1 1 0 0 1 .083-1.32zM6 4v10H4V4h2zm7.707.293a1 1 0 0 1 .083 1.32l-.083.094L11.414 8H23c.452 0 1 .448 1 1s-.548 1-1 1H11.414l2.293 2.293a1 1 0 0 1 .083 1.32l-.083.094a1 1 0 0 1-1.32.083l-.094-.083L7.586 9l4.707-4.707a1 1 0 0 1 1.414 0z"/></defs><use xlink:href="#a" fill-rule="evenodd"/></svg>