<svg width="18" height="13" xmlns="http://www.w3.org/2000/svg" xmlns:xlink="http://www.w3.org/1999/xlink"><defs><path d="M10 6.06c2.071 0 3.75 1.629 3.75 3.637s-1.679 3.636-3.75 3.636c-2.071 0-3.75-1.628-3.75-3.636S7.929 6.061 10 6.061zm1.25 1.213c-.69 0-1.25.542-1.25 1.212 0 .67.56 1.212 1.25 1.212s1.25-.543 1.25-1.212c0-.67-.56-1.212-1.25-1.212zM10 15.758c5 0 8.125-4.243 8.125-6.061 0-1.818-3.125-6.06-8.125-6.06s-8.125 4.242-8.125 6.06c0 1.818 3.125 6.06 8.125 6.06zm0-1.213c-1.939 0-3.698-.752-5.08-2.017-1.095-1.004-1.795-2.236-1.795-2.831 0-.595.7-1.827 1.796-2.83C6.302 5.6 8.06 4.847 10 4.847c1.939 0 3.698.753 5.08 2.018 1.095 1.004 1.795 2.236 1.795 2.831 0 .595-.7 1.827-1.796 2.83-1.381 1.266-3.14 2.018-5.079 2.018z" id="a"/></defs><use xlink:href="#a" transform="translate(-1 -3)"/></svg>