<svg width="17" height="14" xmlns="http://www.w3.org/2000/svg" xmlns:xlink="http://www.w3.org/1999/xlink"><defs><path d="M10 3.125v13.75l-3.75-3.75H2.5v-6.25h3.75L10 3.125zm1.875.625a6.25 6.25 0 110 12.5l-.093-.007a.625.625 0 010-1.236l.093-.007a5 5 0 100-10l-.093-.007a.625.625 0 010-1.236l.093-.007zM8.75 6.143L6.768 8.125H3.75v3.75h3.018l1.982 1.982V6.143zm3.125.107a3.75 3.75 0 010 7.5l-.093-.007a.625.625 0 010-1.236l.093-.007a2.5 2.5 0 100-5l-.092-.007a.625.625 0 010-1.236l.092-.007z" id="a"/></defs><use xlink:href="#a" transform="translate(-2 -3)"/></svg>