<svg width="32" height="32" xmlns="http://www.w3.org/2000/svg"><path d="M17.181 4.331c.31.189.571.449.76.759l10.727 19.46a2.267 2.267 0 01-1.94 3.45H5.271a2.27 2.27 0 01-1.94-3.449L14.058 5.09a2.274 2.274 0 013.122-.759zm-1.37 1.724L5.038 25.592a.267.267 0 00-.039.139.27.27 0 00.272.269h21.455c.05 0 .1-.014.143-.04.128-.077.168-.242.047-.443L16.22 6.112a.271.271 0 00-.078-.072c-.13-.078-.299-.037-.333.015zM16 21.5a1.5 1.5 0 110 3 1.5 1.5 0 010-3zm0-11a1.5 1.5 0 011.5 1.5v6a1.5 1.5 0 01-3 0v-6a1.5 1.5 0 011.5-1.5z" fill-rule="evenodd"/></svg>