<svg xmlns="http://www.w3.org/2000/svg" viewBox="0 0 32 32"><path fill-rule="evenodd" d="M17.181 4.331c.31.189.571.449.76.759l10.727 19.46a2.267 2.267 0 0 1-1.94 3.45H5.271a2.27 2.27 0 0 1-1.94-3.449L14.058 5.09a2.274 2.274 0 0 1 3.122-.759zm-1.37 1.724L5.038 25.592a.267.267 0 0 0-.039.139.27.27 0 0 0 .272.269h21.455c.05 0 .1-.014.143-.04.128-.077.168-.242.047-.443L16.22 6.112a.271.271 0 0 0-.078-.072c-.13-.078-.299-.037-.333.015zM16 21.5a1.5 1.5 0 1 1 0 3 1.5 1.5 0 0 1 0-3zm0-11a1.5 1.5 0 0 1 1.5 1.5v6a1.5 1.5 0 0 1-3 0v-6a1.5 1.5 0 0 1 1.5-1.5z"/></svg>