<svg width="18" height="16" xmlns="http://www.w3.org/2000/svg"><path d="M9.738.707c.194.118.357.28.475.474l6.705 12.163a1.417 1.417 0 01-1.213 2.156H2.295a1.42 1.42 0 01-1.213-2.156L7.787 1.181A1.421 1.421 0 019.738.707zm-.857 1.077L2.15 13.995a.167.167 0 00-.024.087.17.17 0 00.17.168h13.41a.172.172 0 00.089-.025c.08-.048.104-.151.029-.277L9.138 1.82a.17.17 0 00-.049-.045c-.08-.049-.186-.023-.208.01zM9 11.437a.937.937 0 110 1.875.937.937 0 010-1.874zm0-6.874c.518 0 .938.42.938.937v3.75a.937.937 0 11-1.876 0V5.5c0-.518.42-.938.938-.938z"/></svg>