<svg xmlns="http://www.w3.org/2000/svg" viewBox="0 0 32 32"><path d="M13.91 4.18a2.442 2.442 0 0 1 4.18 0l11.553 21.084a2.464 2.464 0 0 1-.818 3.378 2.44 2.44 0 0 1-1.272.358H4.447A2.453 2.453 0 0 1 2 26.542c0-.45.123-.893.356-1.278zm2.319.886a.44.44 0 0 0-.603.141L4.11 26.225l-.02.038-.023.037a.47.47 0 0 0-.067.242c0 .261.209.458.447.458h23.106c.08 0 .159-.022.228-.064l.074-.056a.47.47 0 0 0 .078-.58l-.023-.037-.021-.038L16.37 5.205a.5.5 0 0 0-.057-.073z"/><path fill-rule="evenodd" d="M16 20a1.5 1.5 0 0 1-1.493-1.355L14.5 18.5v-6a1.5 1.5 0 0 1 2.993-.145l.007.145v6A1.5 1.5 0 0 1 16 20m0 5a1.5 1.5 0 1 1 0-3 1.5 1.5 0 0 1 0 3" clip-rule="evenodd"/></svg>