<svg xmlns="http://www.w3.org/2000/svg" viewBox="0 0 32 32"><path d="M24 19.763c0-1.494-.503-3.304-1.326-5.237-.816-1.917-1.913-3.878-3.022-5.65A69 69 0 0 0 16 3.62q-.267.349-.604.8a69 69 0 0 0-3.048 4.456c-1.11 1.772-2.206 3.733-3.022 5.65C8.504 16.46 8 18.27 8 19.763 8 24.336 11.606 28 16 28s8-3.664 8-8.237m2 0C26 25.392 21.547 30 16 30S6 25.392 6 19.763c0-1.888.622-3.989 1.486-6.02.872-2.047 2.025-4.105 3.166-5.929A71 71 0 0 1 15.12 1.5l.078-.098.02-.025.007-.007.002-.002a1 1 0 0 1 1.548 0l.002.002.006.007.02.025.079.098.293.37a71 71 0 0 1 4.174 5.945c1.14 1.823 2.294 3.88 3.166 5.928.864 2.031 1.486 4.132 1.486 6.02"/></svg>