<svg xmlns="http://www.w3.org/2000/svg" viewBox="0 0 32 32"><path d="M16.667 4.255 16 5l.668-.744.006.006.015.012.05.046.174.167a20.5 20.5 0 0 1 2.41 2.873c.756 1.095 1.534 2.465 2.056 4.019a17 17 0 0 1 3.595-1.054 20.7 20.7 0 0 1 3.734-.324q.155.002.242.006.044 0 .068.003h.029l.893.05.05.886v.029l.003.066q.003.085.005.24c.003.204.002.495-.012.855a20 20 0 0 1-.315 2.845c-.412 2.234-1.35 5.091-3.508 7.23-1.373 1.36-3.04 2.23-4.65 2.789H28l.103.005a1 1 0 0 1 0 1.99L28 27H4a1 1 0 1 1 0-2h6.486c-1.61-.559-3.277-1.428-4.65-2.79-2.158-2.138-3.096-4.995-3.508-7.229a20 20 0 0 1-.315-2.845 17 17 0 0 1-.007-1.095l.003-.066v-.029l.05-.886.894-.05h.03l.067-.003q.087-.004.242-.006a20.6 20.6 0 0 1 3.734.324c1.101.2 2.352.525 3.594 1.054.522-1.554 1.3-2.924 2.057-4.019a20.5 20.5 0 0 1 1.809-2.254 17 17 0 0 1 .826-.832l.014-.012.006-.006c.001.001.029.03.668.744l-.667-.745.667-.598zM4.011 12.062c.025.646.097 1.548.284 2.563.379 2.054 1.209 4.454 2.955 6.185s4.167 2.55 6.238 2.926l.008.001a20 20 0 0 1-.82-1.097C11.375 20.754 10 18.052 10 15c0-.569.048-1.125.134-1.666-1.151-.528-2.359-.858-3.467-1.059a19 19 0 0 0-2.588-.282l-.07-.002zm23.91-.069c-.653.025-1.564.097-2.588.282-1.108.201-2.316.531-3.468 1.059A10.6 10.6 0 0 1 22 15c0 3.052-1.374 5.754-2.677 7.64-.276.4-.556.766-.82 1.097h.009c2.072-.376 4.492-1.197 6.238-2.927 1.746-1.731 2.575-4.131 2.954-6.185a18 18 0 0 0 .285-2.563l.002-.07zM15.952 6.466a18.5 18.5 0 0 0-1.629 2.031C13.126 10.231 12 12.53 12 15s1.126 4.77 2.323 6.503a18.5 18.5 0 0 0 1.63 2.031l.047.05.048-.05a18.5 18.5 0 0 0 1.629-2.031C18.874 19.769 20 17.47 20 15s-1.126-4.77-2.323-6.503a18.5 18.5 0 0 0-1.629-2.031L16 6.415z"/></svg>