<svg xmlns="http://www.w3.org/2000/svg" viewBox="0 0 32 32"><path d="M27 26a1 1 0 0 1-1 1H6a1 1 0 0 1-1-1v-1h22zm1-4a1 1 0 0 1-1 1H5a1 1 0 0 1-1-1v-1h24zm2-17a1 1 0 1 1 0 2h-1v10a2 2 0 0 1-2 2H5a2 2 0 0 1-2-2V7H2a1 1 0 0 1 0-2zM5 7v10h5.345A8.98 8.98 0 0 1 7 10c0-1.052.182-2.062.515-3zm13.803 0q.053.142.096.286l.062.234.02.1a1.001 1.001 0 0 1-1.936.462l-.03-.098-.076-.263a1.3 1.3 0 0 0-.298-.503C16.519 7.1 16.338 7 16 7c-.205 0-.529.119-.773.361-.197.195-.271.392-.253.584l.013.082.002.011.318 1.462H17a1 1 0 1 1 0 2h-1.347l.214 1.5H19a1 1 0 1 1 0 2h-6a1 1 0 1 1 0-2h.847l-.214-1.5H13a1 1 0 1 1 0-2h.26l-.226-1.038.001-.001A2.56 2.56 0 0 1 13.131 7H9.676a7 7 0 1 0 12.648 0zm5.682 0c.333.938.515 1.948.515 3a8.98 8.98 0 0 1-3.345 7H27V7z"/></svg>