<svg xmlns="http://www.w3.org/2000/svg" viewBox="0 0 32 32"><path d="M17.672 1a2 2 0 0 1 1.414.586l7.328 7.328A2 2 0 0 1 27 10.328V19h1a1 1 0 0 1 1 1v10a1 1 0 0 1-1 1H6a1 1 0 0 1-1-1V3c0-1.552.448-2 2-2zm6.572 20a4.2 4.2 0 0 0-1.558.276q-.692.277-1.07.774a1.84 1.84 0 0 0-.38 1.147q.001 1.305 1.52 2.052.468.23 1.204.478.735.247 1.028.478.293.232.293.645 0 .365-.271.566t-.739.201q-.73 0-1.055-.298t-.325-.926H21q0 .773.39 1.367.39.593 1.16.934.771.341 1.721.341 1.348 0 2.122-.585t.773-1.611q0-1.284-1.268-2.015-.52-.3-1.332-.561-.81-.26-1.132-.505-.323-.245-.323-.545 0-.344.292-.567.294-.222.798-.222.5 0 .792.262.293.264.293.742h1.88q0-.715-.37-1.27a2.4 2.4 0 0 0-1.04-.857q-.669-.3-1.512-.301M7.061 21l2.23 3.967L7 29h2.22l1.346-2.709L11.912 29h2.226l-2.297-4.033L14.077 21h-2.203l-1.308 2.66L9.258 21zM15 21v8h5.286v-1.483H16.93V21zm-8-2h18v-8h-6a2 2 0 0 1-2-2V3H7zM19 9h4.586L19 4.414z"/></svg>