<svg width="32" height="32" xmlns="http://www.w3.org/2000/svg"><path d="M16.24 8c1.294.006 7.472.055 9.15.514a3.007 3.007 0 012.116 2.115c.436 1.594.488 4.653.493 5.544v.41c-.006.753-.059 3.96-.493 5.611a3.007 3.007 0 01-2.116 2.116c-1.678.441-7.856.488-9.15.493h-.479c-1.292-.005-7.456-.054-9.151-.513a3.007 3.007 0 01-2.116-2.115c-.434-1.634-.487-4.854-.493-5.611v-.323c.006-.754.059-3.961.493-5.612A3.069 3.069 0 016.61 8.494c1.678-.441 7.855-.488 9.15-.493zm-2.553 4.745v7.196l6.247-3.598-6.247-3.598z" fill-rule="evenodd"/></svg>