<svg width="16" height="16" xmlns="http://www.w3.org/2000/svg" xmlns:xlink="http://www.w3.org/1999/xlink"><defs><path d="M8.75 2.5a6.25 6.25 0 014.84 10.205l3.727 3.728a.625.625 0 01-.797.956l-.087-.072-3.728-3.727A6.25 6.25 0 118.75 2.5zm0 1.25a5 5 0 100 10 5 5 0 000-10zm-.092 1.882l.092-.007c.314 0 .574.231.618.533l.007.092v1.875h1.875c.314 0 .574.231.618.533l.007.092a.625.625 0 01-.533.618l-.092.007H9.375v1.875a.625.625 0 01-.533.618l-.092.007a.625.625 0 01-.618-.533l-.007-.092V9.375H6.25a.625.625 0 01-.618-.533l-.007-.092c0-.314.231-.574.533-.618l.092-.007h1.875V6.25c0-.314.231-.574.533-.618l.092-.007z" id="a"/></defs><use xlink:href="#a" transform="translate(-2 -2)" fill-rule="evenodd"/></svg>