<svg width="32" height="32" xmlns="http://www.w3.org/2000/svg" xmlns:xlink="http://www.w3.org/1999/xlink"><defs><path d="M14 4c5.523 0 10 4.477 10 10 0 2.4-.846 4.604-2.256 6.328l5.963 5.965a1 1 0 01-1.414 1.414l-5.965-5.963A9.959 9.959 0 0114 24C8.477 24 4 19.523 4 14S8.477 4 14 4zm0 5l-.117.007A1 1 0 0013 10v3h-3l-.117.007A1 1 0 009 14l.007.117A1 1 0 0010 15h3v3l.007.117A1 1 0 0014 19l.117-.007A1 1 0 0015 18v-3h3l.117-.007A1 1 0 0019 14l-.007-.117A1 1 0 0018 13h-3v-3l-.007-.117A1 1 0 0014 9z" id="a"/></defs><use xlink:href="#a" fill-rule="evenodd"/></svg>