<svg xmlns="http://www.w3.org/2000/svg" xmlns:xlink="http://www.w3.org/1999/xlink" viewBox="0 0 32 32"><defs><path id="a" d="M14 4c5.523 0 10 4.477 10 10 0 2.4-.846 4.604-2.256 6.328l5.963 5.965a1 1 0 0 1-1.414 1.414l-5.965-5.963A9.959 9.959 0 0 1 14 24C8.477 24 4 19.523 4 14S8.477 4 14 4zm0 5-.117.007A1 1 0 0 0 13 10v3h-3l-.117.007A1 1 0 0 0 9 14l.007.117A1 1 0 0 0 10 15h3v3l.007.117A1 1 0 0 0 14 19l.117-.007A1 1 0 0 0 15 18v-3h3l.117-.007A1 1 0 0 0 19 14l-.007-.117A1 1 0 0 0 18 13h-3v-3l-.007-.117A1 1 0 0 0 14 9z"/></defs><use xlink:href="#a" fill-rule="evenodd"/></svg>