<svg width="16" height="16" xmlns="http://www.w3.org/2000/svg" xmlns:xlink="http://www.w3.org/1999/xlink"><defs><path d="M8.75 2.5a6.25 6.25 0 014.84 10.205l3.727 3.728a.625.625 0 01-.797.956l-.087-.072-3.728-3.727A6.25 6.25 0 118.75 2.5zm-.092 3.132a.625.625 0 00-.533.618v1.875H6.25l-.092.007a.625.625 0 00-.533.618l.007.092a.625.625 0 00.618.533h1.875v1.875l.007.092a.625.625 0 00.618.533l.092-.007a.625.625 0 00.533-.618V9.375h1.875l.092-.007a.625.625 0 00.533-.618l-.007-.092a.625.625 0 00-.618-.533H9.375V6.25l-.007-.092a.625.625 0 00-.618-.533z" id="a"/></defs><use xlink:href="#a" transform="translate(-2 -2)" fill-rule="evenodd"/></svg>