<?xml version="1.0" encoding="UTF-8"?>
<svg width="116px" height="116px" viewBox="0 0 116 116" version="1.1" xmlns="http://www.w3.org/2000/svg" xmlns:xlink="http://www.w3.org/1999/xlink">
    <g id="Foundations/Logos/114x114" stroke="none" stroke-width="1" fill="none" fill-rule="evenodd">
        <g id="Foundation/Logos/114x114" transform="translate(1.000000, 15.000000)" fill-rule="nonzero">
            <g id="AW">
              <g id="Group" transform="translate(0.000000, 43.000000)" fill="#000000">
                <path d="M91.65246,19.58888 C89.8856,19.05897 87.40181,17.62731 84.90038,15.77371 C85.38105,14.98765 85.8134,14.13538 86.17346,13.25738 C86.96315,11.32292 87.32771,10.34371 89.11987,10.16075 L89.11987,9.33065 C88.14678,9.37673 87.13436,9.39232 86.11156,9.39232 C85.1362,9.39232 84.15271,9.37673 83.16537,9.33065 L83.16537,10.16075 C83.83421,10.31707 84.54123,10.37646 85.20397,10.57481 C85.20397,11.34551 84.77254,12.70239 84.39487,13.61744 C84.19472,14.05859 83.9747,14.47488 83.73754,14.86995 C81.44437,13.03014 79.25263,10.86981 77.75571,8.74831 C79.91289,7.73296 82.43239,6.50505 82.43239,3.90448 C82.43239,1.41864 80.63729,0.13065 78.1264,0.13065 C75.3774,0.13065 73.07634,2.14283 73.07634,4.73642 C73.07634,6.03952 73.45898,7.37698 74.10589,8.69049 C71.62074,9.94323 69.9465,11.47111 69.9465,14.33055 C69.9465,18.49605 73.30832,20.52855 77.05412,20.52855 C79.76065,20.52855 81.8103,19.44995 83.39554,17.76555 C86.21953,19.40772 89.14878,20.47547 91.50429,20.57145 L91.65246,19.58888 Z M77.7774,1.6565 C79.25647,1.6565 79.76065,2.83201 79.76065,4.15453 C79.76065,5.89135 78.33173,6.80641 76.91724,7.44634 C76.2039,6.18907 75.78649,4.97925 75.78649,3.87762 C75.78649,2.7674 76.60055,1.6565 77.7774,1.6565 Z M81.68472,17.20356 C80.72471,17.95914 79.30414,18.33998 78.14966,18.33998 C75.63264,18.33998 73.46666,16.41296 73.46666,13.49613 C73.46666,12.01639 74.04446,11.06453 75.0309,10.28205 C76.70445,12.76609 79.25647,15.11075 82.02985,16.92572 C81.92121,17.02645 81.80352,17.11456 81.68472,17.20356 Z" id="Shape"></path>
                <path d="M80.15829,33.57395 C79.94596,32.77634 79.55653,31.85927 78.59088,31.85927 C77.86127,31.85927 76.99886,32.48044 76.4432,32.95186 L76.4432,39.71345 C76.4432,41.90586 77.39146,41.60158 79.14837,41.78952 L79.14837,42.6506 C77.60379,42.6506 76.02711,42.58646 74.49338,42.58646 C73.33821,42.58646 72.1957,42.58646 71.0333,42.6506 L71.0333,41.78952 L72.87786,41.4916 L72.87786,33.31644 C72.87786,32.3526 72.79746,31.55478 71.56866,31.55478 C71.32831,31.55478 71.10289,31.55478 70.86637,31.57829 L70.86637,30.74228 C71.76381,30.52611 72.66552,30.29119 73.56365,30.06012 C74.17263,29.87827 74.98129,29.58396 75.56586,29.58396 C76.46397,29.58396 76.44319,30.74228 76.44319,31.38785 L76.44319,31.68987 C77.30086,30.74228 78.65186,29.52387 80.02794,29.52387 C81.2737,29.52387 82.25877,30.2101 82.25877,31.53987 C82.25877,32.63044 81.23145,33.55519 80.15829,33.57395 Z" id="Path"></path>
                <path d="M54.37515,42.58645 C53.16011,42.58645 51.93684,42.58645 50.72962,42.65059 L50.72962,41.78951 L52.51309,41.49159 L52.51309,35.05392 C52.51309,33.61845 52.47615,31.79353 50.5409,31.79353 C49.57153,31.79353 48.11277,32.28936 47.2778,32.77634 L47.2778,40.16 C47.2778,41.53991 47.7709,41.66324 49.03876,41.78951 L49.03876,42.65059 C47.79506,42.65059 46.54796,42.58645 45.32923,42.58645 C44.16218,42.58645 43.00951,42.58645 41.84871,42.65059 L41.84871,41.78951 L43.69542,41.49159 L43.69542,33.46711 C43.69542,32.44137 43.67802,31.55478 42.40315,31.55478 C42.16699,31.55478 41.93397,31.55478 41.70031,31.57829 L41.70031,30.74228 C42.59978,30.52611 43.49833,30.29119 44.40039,30.06012 C45.21708,29.8401 45.90872,29.58396 46.39405,29.58396 C47.43367,29.58396 47.27781,30.93429 47.27781,31.62028 C48.69071,30.76328 50.98973,29.58396 52.65437,29.58396 C53.73805,29.58396 54.5475,29.8166 55.26276,30.65711 C56.12483,31.64379 56.0704,33.27353 56.0704,34.5222 L56.0704,40.09517 C56.0704,41.87468 57.00306,41.57651 58.35203,41.78951 L58.35203,42.65059 C57.0435,42.65059 55.70739,42.58645 54.37515,42.58645 Z" id="Path"></path>
                <path d="M16.3294,19.99547 L0,19.99547 L0,19.13462 L3.02266,18.60221 L3.02266,3.68448 C3.02266,1.90746 2.49307,1.45682 0.23006,1.39515 L0.23006,0.53544 L9.88903,0.53544 L9.88903,1.39515 L7.1013,1.86273 L7.1013,16.82045 C7.1013,18.47504 7.4845,18.66163 9.88902,18.66163 C13.68892,18.66163 14.97523,18.32122 15.88157,14.49363 L16.82837,14.49363 L16.3294,19.99547 Z" id="Path"></path>
                <path d="M28.27023,34.28976 C26.94023,34.28976 26.40851,34.648 26.40851,36.0451 C26.40851,36.0451 26.40851,40.1451 26.40851,41.5765 C24.40627,42.41093 21.98413,43.03367 19.04914,43.03367 C13.14726,43.03367 9.2246,38.91967 9.2246,33.1696 C9.2246,27.52435 13.70125,22.9326 19.51716,22.9326 C22.3495,22.9326 24.62426,23.6202 26.29431,24.21562 L26.25626,29.1367 L25.4163,29.1367 C25.13857,27.63186 24.62425,26.36443 23.66267,25.48802 C22.73891,24.67235 21.51555,24.2102 20.03566,24.2102 C15.02298,24.2102 13.83214,30.00929 13.83214,33.33743 C13.83214,36.7537 15.05111,41.76693 19.47503,41.76693 C21.88237,41.76693 22.54126,41.01382 22.54126,38.50134 L22.54126,34.648 L20.15899,34.28976 L20.15899,33.33744 L28.65772,33.33744 L28.65772,34.28976 L28.27023,34.28976 Z" id="Path"></path>
                <path d="M91.90125,42.81842 C90.54866,42.81842 89.63292,42.55774 89.13553,41.17376 C88.21485,42.55774 86.42088,42.94943 85.09268,42.94943 C82.6893,42.94943 80.45959,41.92145 80.45959,39.26619 C80.45959,35.01552 85.97316,34.97261 89.00227,34.97261 L89.00227,33.33743 C89.00227,31.74768 88.25595,31.12786 86.57628,31.12786 C85.48074,31.12786 84.28401,31.47211 83.26799,31.83576 L83.26799,30.24827 C84.67977,29.84009 86.07752,29.56452 87.80328,29.56452 C89.02485,29.56452 90.72033,29.8166 91.63786,30.70094 C92.62541,31.64378 92.58882,32.824 92.58882,34.11401 L92.58882,39.94992 C92.58882,40.97566 92.89558,41.7895 93.92242,41.7895 C94.82099,41.7895 95.76474,41.70526 96.6389,41.62416 L96.6389,26.89822 C96.6389,25.85168 96.62534,24.96737 95.35725,24.96737 C95.12684,24.96737 94.89418,24.98769 94.64705,25.01096 L94.64705,24.17519 C95.54833,23.96739 96.44916,23.72637 97.35765,23.49527 C98.17083,23.27752 98.86383,23.01527 99.34767,23.01527 C100.38222,23.01527 100.22681,24.32563 100.22681,25.05794 L100.22681,40.16 C100.22681,41.5555 101.03998,41.62417 103.18271,41.78951 L103.18271,42.65059 C99.40642,42.65059 95.67891,42.81842 91.90125,42.81842 Z M89.00228,36.21452 C87.0931,36.21452 84.33327,36.55717 84.33327,39.19686 C84.33327,40.53 84.93817,41.36668 86.33504,41.36668 C87.46401,41.36668 88.33952,40.54943 88.70727,39.64793 C88.96475,38.96035 89.00228,38.4031 89.00228,37.65136 L89.00228,36.21452 Z" id="Shape"></path>
                <path d="M55.57358,20.16487 C54.19343,20.16487 53.29172,19.90806 52.79692,18.51413 C51.8742,19.90806 50.0782,20.31712 48.73139,20.31712 C46.34267,20.31712 44.09537,19.2844 44.09537,16.62531 C44.09537,12.37464 49.61943,12.31297 52.67315,12.31297 L52.67315,10.68098 C52.67315,9.09301 51.90638,8.49398 50.2273,8.49398 C49.12837,8.49398 47.91155,8.83213 46.92104,9.18042 L46.92104,7.59404 C48.34095,7.20689 49.71036,6.92159 51.47823,6.92159 C52.67315,6.92159 54.38998,7.16081 55.31519,8.04265 C56.2797,8.98752 56.23113,10.18605 56.23113,11.47698 L56.23113,17.29186 C56.23113,18.32121 56.54015,19.15879 57.58666,19.15879 C58.47098,19.15879 59.41246,19.07205 60.31441,18.96431 L60.31441,4.24331 C60.31441,3.19025 60.29047,2.31609 59.01559,2.31609 C58.78542,2.31609 58.55208,2.36216 58.31784,2.37979 L58.31784,1.51758 C59.21775,1.3057 60.11926,1.06899 61.00043,0.83248 C61.81201,0.62038 62.49599,0.35859 63.02003,0.35859 C64.02611,0.35859 63.88742,1.69129 63.88742,2.39695 L63.88742,17.50171 C63.88742,18.90355 64.6875,18.96432 66.85281,19.1588 L66.85281,19.99547 C63.05709,19.99547 59.34378,20.16487 55.57358,20.16487 Z M52.67314,13.56142 C50.7397,13.56142 47.97705,13.89843 47.97705,16.54103 C47.97705,17.86786 48.57957,18.72937 49.96594,18.72937 C51.12528,18.72937 52.0121,17.89272 52.35149,16.99528 C52.60627,16.32711 52.67314,15.74478 52.67314,14.99555 L52.67314,13.56142 Z" id="Shape"></path>
                <path d="M70.41348,35.9326 L61.75087,36.06384 C61.82408,39.24292 63.16897,41.3276 66.5789,41.3276 C67.50455,41.3276 68.60598,41.13085 69.39882,40.87335 L69.39882,41.99034 C67.91207,42.6506 66.64892,42.93158 64.96723,42.93158 C60.94132,42.93158 57.82866,40.29486 57.82866,36.16754 C57.82866,32.09418 60.87267,29.58397 64.82153,29.58397 C67.97374,29.58397 70.4659,31.7477 70.4659,34.97263 C70.4659,35.27168 70.44783,35.61729 70.41348,35.9326 Z M64.68917,30.83443 C62.65668,30.83443 61.88191,33.18927 61.79517,34.88518 L65.24981,34.54093 C66.15559,34.45128 66.70674,34.32792 66.70674,33.27352 C66.70674,32.07071 66.00065,30.83443 64.68917,30.83443 Z" id="Shape"></path>
                <path d="M44.21698,8.17006 C43.61385,7.71964 42.94435,7.35756 42.19758,7.35756 C41.61966,7.35756 41.33325,7.95456 41.14339,8.40564 C41.98187,9.09301 42.4989,10.31707 42.4989,11.38752 C42.4989,14.49363 39.96619,16.30522 37.02498,16.30522 C36.41149,16.30522 35.80883,16.28422 35.20346,16.13197 C34.88134,16.54104 34.38848,16.92572 33.89706,17.11863 C33.93638,17.7468 34.64644,17.78113 35.11661,17.78113 C36.14381,17.78113 37.15847,17.70072 38.16297,17.70072 C40.41728,17.70072 42.94435,18.38989 42.94435,21.08738 C42.94435,24.88854 39.10797,26.47221 35.84961,26.47221 C33.57439,26.47221 29.98738,25.43946 29.98738,22.61797 C29.98738,21.32614 31.01821,20.46779 32.08968,19.97357 C31.20705,19.44205 30.93293,18.4283 30.93293,17.44232 C30.93293,17.26681 30.95303,17.10281 30.97799,16.92573 C31.85748,16.82046 33.50959,16.39197 34.07135,15.70394 C32.30077,15.015 31.2949,13.64297 31.2949,11.73495 C31.2949,8.49399 34.08683,6.92161 37.02499,6.92161 C38.12357,6.92161 39.42622,7.1841 40.34841,7.80436 C40.69456,6.45947 41.74685,5.51165 43.16708,5.51165 C43.74229,5.51165 44.96352,5.6849 44.96352,6.47549 C44.96352,7.1179 44.61452,7.7 44.21698,8.17006 Z M36.81253,8.27373 C35.26784,8.27373 34.60421,9.51948 34.60421,11.17181 C34.60421,13.08798 35.09436,14.97206 37.00297,14.97206 C38.5524,14.97206 39.16952,13.77173 39.16952,12.09748 C39.16952,10.31707 38.67913,8.27373 36.81253,8.27373 Z M37.77311,20.59496 C36.65601,20.59496 36.1176,20.70564 35.00581,20.70564 C34.27135,20.70564 33.59539,20.63696 33.0561,20.46779 C32.69006,20.74854 32.32481,21.4113 32.32481,21.86239 C32.32481,23.63963 34.04536,24.30621 36.53819,24.30621 C39.33902,24.30621 41.01441,23.40471 41.01441,22.0528 C41.01441,20.55587 38.97763,20.59496 37.77311,20.59496 Z" id="Shape"></path>
                <path d="M30.07729,13.40962 L21.41017,13.53431 C21.49624,16.6908 22.82543,18.79421 26.2602,18.79421 C27.18724,18.79421 28.26401,18.60221 29.05507,18.33998 L29.05507,19.44205 C27.57903,20.12421 26.30066,20.38647 24.65239,20.38647 C20.61755,20.38647 17.50929,17.76239 17.50929,13.64296 C17.50929,9.54206 20.53171,7.03431 24.4754,7.03431 C27.65865,7.03431 30.12925,9.19941 30.12925,12.4171 C30.12925,12.74462 30.10518,13.08797 30.07729,13.40962 Z M24.34958,8.27373 C22.33539,8.27373 21.53577,10.65974 21.45072,12.33172 L24.91248,12.01231 C25.80922,11.92581 26.37393,11.7713 26.37393,10.74488 C26.37393,9.54206 25.66489,8.27373 24.34958,8.27373 Z" id="Shape"></path>
                <path d="M41.57031,35.9326 L32.90375,36.06384 C32.99602,39.24292 34.32738,41.3276 37.76215,41.3276 C38.67913,41.3276 39.74551,41.13085 40.54413,40.87335 L40.54413,41.99034 C39.05803,42.6506 37.80552,42.93158 36.14381,42.93158 C32.11013,42.93158 29.0039,40.29486 29.0039,36.16754 C29.0039,32.09418 32.01763,29.58397 35.97519,29.58397 C39.14523,29.58397 41.61967,31.7477 41.61967,34.97263 C41.61967,35.27168 41.59367,35.61729 41.57031,35.9326 Z M35.84961,30.83443 C33.831,30.83443 33.04008,33.18927 32.96835,34.88518 L36.41149,34.54093 C37.30677,34.45128 37.8656,34.32792 37.8656,33.27352 C37.8656,32.07071 37.15847,30.83443 35.84961,30.83443 Z" id="Shape"></path>
              </g>
              <path d="M99.92346,17.32141 C101.28967,13.51202 103.98083,10.39081 107.57068,8.47705 C108.11096,8.18921 108.66345,7.93707 109.22394,7.71381 C103.31043,4.00519 96.45917,2.01862 89.50788,2.01862 C85.13624,2.01862 80.72547,2.80549 76.48389,4.44129 C88.0639,5.26282 95.72906,12.13208 99.92346,17.32141 Z" id="Path" fill="#028844"></path>
              <path d="M54.6001,28.18201 C53.66687,31.30262 53.15064,34.48444 53.03949,37.66193 C53.53723,37.32001 54.05804,37.00153 54.60309,36.711 C58.15747,34.81702 62.19678,34.31769 66.07739,35.27466 C64.1452,28.88623 62.78521,18.72467 68.54223,8.68884 C61.87714,13.38751 56.99677,20.17096 54.6001,28.18201 Z" id="Path" fill="#E22922"></path>
              <path d="M68.23486,35.43976 C69.8161,33.49927 71.78186,31.87482 74.05487,30.66315 C76.86291,29.16523 79.92963,28.40985 83.02374,28.41748 L71.81689,7.30218 C64.39478,17.87756 66.14917,29.02502 68.23486,35.43976 Z" id="Path" fill="#0076D6"></path>
              <path d="M91.69434,21.26367 C93.9289,20.07171 96.32734,19.3504 98.77289,19.10907 C94.63153,13.79877 86.42529,6.15863 73.6145,6.38593 L84.81,27.47992 C86.53528,24.89679 88.87964,22.76416 91.69434,21.26367 Z" id="Path" fill="#FFD500"></path>
              <path d="M111.72571,6.94537 C100.38062,-0.8772 85.34485,-2.44263 72.37464,4.04992 L72.34485,4.06585 L70.23468,0.9306 L70.17792,0.85064 C70.01361,0.61889 69.69916,0.53857 69.4397,0.67657 C69.18024,0.81451 69.07099,1.12011 69.17121,1.38592 L69.20325,1.47149 L70.62622,4.98321 L70.59503,4.99987 C61.91449,9.9226 55.56726,17.91149 52.66961,27.60168 C51.51666,31.45648 50.96606,35.39978 51.00164,39.32025 C51.01031,40.27215 51.05346,41.22259 51.1314,42.17016 C51.69567,41.46191 52.33251,40.80328 53.03722,40.20501 C53.79766,39.55944 54.63524,38.98309 55.5501,38.49535 C57.63421,37.38506 59.90825,36.82152 62.20305,36.82152 C63.59899,36.82152 65.00279,37.02977 66.37615,37.45018 C66.49621,37.48698 66.61352,37.52916 66.73211,37.56889 C66.77526,37.58329 66.81872,37.59727 66.86181,37.6121 C67.46966,37.82212 68.05743,38.07115 68.62353,38.35606 C68.76202,38.13737 68.90515,37.92204 69.05322,37.71019 C69.2959,37.36321 69.54815,37.02336 69.81592,36.69603 C71.22669,34.97087 72.97791,33.52611 75.00196,32.44749 C77.50147,31.11515 80.22938,30.43907 82.98194,30.43907 C83.05207,30.43907 83.12232,30.44218 83.19257,30.44304 C83.50092,30.44695 83.80957,30.45848 84.11817,30.47936 L97.04761,54.84032 L97.40613,55.51586 C97.51123,55.71404 97.62958,55.90233 97.7591,56.08068 C98.06751,56.50542 98.44245,56.87096 98.86921,57.16643 C99.00861,57.26299 99.15308,57.35271 99.30317,57.43376 C99.5738,57.58006 99.86091,57.70054 100.16163,57.79271 C100.61255,57.93091 101.07422,57.9999923 101.53302,57.9999923 C102.28607,57.9999923 103.03333,57.81445 103.71747,57.45026 C104.04138,57.27753 104.33557,57.07087 104.60028,56.83832 C105.35736,56.17353 105.86468,55.29059 106.07745,54.33655 C106.31219,53.28443 106.18975,52.14685 105.64703,51.12213 L104.6242,49.19366 C104.3623,48.70117 103.75195,48.51165 103.26067,48.77618 C102.76946,49.03772 102.58239,49.64959 102.84429,50.14306 L103.86712,52.07055 C104.3764,53.03295 104.23467,54.17028 103.59899,54.97363 C103.37939,55.2511 103.1018,55.48932 102.77044,55.66589 C102.3421,55.89404 101.87872,55.99066 101.42553,55.97223 C101.3894,55.97113 101.35351,55.96948 101.31805,55.96661 C101.28973,55.96429 101.26153,55.96057 101.23327,55.95739 C100.12444,55.82403 99.38574,54.86413 99.03381,54.27966 L98.82177,53.88018 L85.90625,29.54541 C86.06567,29.26935 86.23138,28.99756 86.40558,28.73181 C87.95551,26.36633 90.07923,24.41345 92.64142,23.04803 C94.66431,21.96972 96.83685,21.32171 99.05097,21.11364 C99.42908,21.07812 99.80854,21.05602 100.18867,21.0462 C100.33284,21.04254 100.47706,21.03961 100.62141,21.03961 C100.7779,21.03961 100.93464,21.04407 101.09132,21.04846 C101.16658,20.46283 101.27583,19.87878 101.42494,19.29913 C101.44728,19.21234 101.47334,19.1261 101.49733,19.03949 C101.53096,18.91797 101.56197,18.79602 101.59895,18.67493 C102.70845,15.03614 105.16566,12.04773 108.51771,10.26142 C109.42018,9.78059 110.35847,9.40278 111.31849,9.12842 C112.19752,8.8772 113.09486,8.71393 114.00001,8.63794 C113.26038,8.04486 112.50177,7.48047 111.72571,6.94537 Z M66.07739,35.27466 C62.19677,34.31769 58.15747,34.81702 54.60309,36.711 C54.05805,37.00153 53.53723,37.32001 53.03949,37.66193 C53.15064,34.48444 53.66687,31.30262 54.6001,28.18201 C56.99677,20.17096 61.87714,13.38752 68.54224,8.68885 C62.78522,18.72467 64.1452,28.88623 66.07739,35.27466 Z M74.05487,30.66315 C71.78186,31.87482 69.8161,33.49927 68.23486,35.43976 C66.14917,29.02503 64.39477,17.87757 71.81689,7.30219 L83.02374,28.41749 C79.92963,28.40985 76.86292,29.16522 74.05487,30.66315 Z M91.69434,21.26367 C88.87964,22.76416 86.53528,24.89679 84.81,27.47992 L73.6145,6.38593 C86.42529,6.15864 94.63153,13.79877 98.77289,19.10907 C96.32733,19.3504 93.92889,20.07172 91.69434,21.26367 Z M107.57068,8.47705 C103.98084,10.39081 101.28967,13.51202 99.92346,17.32141 C95.72906,12.13208 88.0639,5.26282 76.48388,4.44128 C80.72546,2.80548 85.13622,2.01861 89.50787,2.01861 C96.45916,2.01861 103.31042,4.00518 109.22393,7.7138 C108.66345,7.93707 108.11096,8.18921 107.57068,8.47705 Z" id="Shape" fill="#000000"></path>
            </g>
        </g>
    </g>
</svg>