<svg xmlns="http://www.w3.org/2000/svg" fill="none" viewBox="0 0 32 32"><g clip-path="url(#clip0_2055_1951)"><path fill="#0076d6" d="M32 0H0v32h32z"/><path fill="#fff" d="M8.56 8.125A10.8 10.8 0 0 1 16 5.167h-.027.053a10.8 10.8 0 0 1 7.926 3.476l-.249-.26a11 11 0 0 1 1.12 1.33l.028.04A10.8 10.8 0 0 1 26.833 16c0 2.343-.744 4.513-2.008 6.285l-.036.05q-.098.136-.2.268l.236-.317a11 11 0 0 1-.873 1.071A10.8 10.8 0 0 1 16 26.833a10.8 10.8 0 0 1-7.592-3.105l-.037-.036a11 11 0 0 1-.833-.927l-.019-.024q-.118-.149-.231-.3l-.014-.02-.125-.173A10.8 10.8 0 0 1 5.167 16c0-2.403.782-4.623 2.106-6.42l.032-.043q.125-.168.256-.33l-.289.372A11 11 0 0 1 8.34 8.34l.067-.067zm12.114 13.598-.032.073a12 12 0 0 1-1.922 2.96 9.2 9.2 0 0 0 3.675-2.188 8.6 8.6 0 0 0-1.721-.845m-9.288.134-.113.043q-.81.346-1.525.804c.997.93 2.2 1.64 3.533 2.053a12 12 0 0 1-1.895-2.9m1.876-.58-.247.058q.477.944 1.118 1.751.501.63 1.034 1.118v-3.18q-1.002.059-1.905.253m3.573-.259v3.185a10.2 10.2 0 0 0 2.183-2.931 14.5 14.5 0 0 0-2.183-.254m-6.648-4.185H6.871a9.1 9.1 0 0 0 1.73 4.58 12 12 0 0 1 2.18-1.135 14 14 0 0 1-.594-3.445m14.942 0h-3.316a14.2 14.2 0 0 1-.553 3.314q1.229.436 2.253 1.106a9.1 9.1 0 0 0 1.616-4.42m-9.962 0h-3.31c.062 1.06.24 2.037.523 2.933q1.307-.334 2.787-.412zm4.976 0h-3.31l.003 2.517q1.495.06 2.805.341c.27-.875.442-1.826.502-2.857M8.601 10.59l-.034.045a9.1 9.1 0 0 0-1.696 4.531h3.312q.076-1.889.504-3.482A12 12 0 0 1 8.6 10.589m11.14 1.697-.099.023q-1.31.28-2.806.341l-.003 2.515h3.316a14 14 0 0 0-.408-2.88m-7.461-.074-.04.148a14 14 0 0 0-.389 2.806h3.316v-2.52a14.4 14.4 0 0 1-2.887-.434m11.232-1.467-.172.112q-.915.573-1.99.964.393 1.536.467 3.344h3.312a9.1 9.1 0 0 0-1.617-4.42m-6.677-3.08v3.317a14.6 14.6 0 0 0 2.355-.285 7.9 7.9 0 0 0-2.355-3.032m-3.87 2.706-.122.255q1.087.278 2.323.35v-3.31a7.8 7.8 0 0 0-2.2 2.707M19.04 7.35l.21.24a10 10 0 0 1 1.573 2.63 8.4 8.4 0 0 0 1.573-.784A9.1 9.1 0 0 0 19.04 7.35m-6.08 0-.25.093a9.2 9.2 0 0 0-2.96 1.853q.697.45 1.486.789A9.9 9.9 0 0 1 12.96 7.35"/></g><defs><clipPath id="clip0_2055_1951"><rect width="32" height="32" fill="#fff" rx="8"/></clipPath></defs></svg>