<svg xmlns="http://www.w3.org/2000/svg" fill="none" viewBox="0 0 32 32"><g clip-path="url(#clip0_2055_1956)"><path fill="#ce1126" d="M32 16H0v16h32z"/><path fill="#002b7f" d="M32 0H0v16h32z"/><path fill="#000" d="m7.7 3.6-.447-.224a.5.5 0 0 0 0 .448zM8 3l.447-.224a.5.5 0 0 0-.894 0zm0 1.2v.5a.5.5 0 0 0 .447-.724zm-.3.3-.224.447A.5.5 0 0 0 8.2 4.5zm-.6-.3.224-.447a.5.5 0 0 0-.448 0zm-.6.3-.224-.447a.5.5 0 0 0 0 .894zm.6.3-.224.447a.5.5 0 0 0 .448 0zm.6-.3h.5a.5.5 0 0 0-.724-.447zm.3-.3-.447-.224A.5.5 0 0 0 8 4.7zm.3-.6.447.224a.5.5 0 0 0 0-.448zm0 .9-.224-.447a.5.5 0 0 0 0 .894zm.6.3-.224.447a.5.5 0 0 0 .448 0zm0-.6.224-.447a.5.5 0 0 0-.448 0zm.6.3.224.447a.5.5 0 0 0 0-.894zM8 5l.447-.224a.5.5 0 0 0-.894 0zm-.3.6-.447-.224a.5.5 0 0 0 0 .448zm.6 0 .447.224a.5.5 0 0 0 0-.448zm-.205.41-.447-.225a.5.5 0 0 0 .353.715zm-.19 0 .094.49a.5.5 0 0 0 .353-.715zM8.5 7l.493-.082A.5.5 0 0 0 8.5 6.5zm.025.15-.493.082a.5.5 0 0 0 .862.255zM12 8.5h-.5a.5.5 0 0 0 .518.5zm.5 0 .46.197A.5.5 0 0 0 12.5 8zm-1.38 3.22-.46-.198a.5.5 0 0 0 .098.541zm-6.24 0 .363.343a.5.5 0 0 0 .096-.54zM3.5 8.5V8a.5.5 0 0 0-.46.697zm.5 0-.018.5a.5.5 0 0 0 .518-.5zm0 0h-.5zm3.475-1.35-.369.337a.5.5 0 0 0 .862-.255zM7.5 7v-.5a.5.5 0 0 0-.493.418zm.2-3.4.447.224.3-.6L8 3l-.447-.224-.3.6zm.3.6.447-.224-.3-.6L7.7 3.6l-.447.224.3.6zm-.3.3h.5a.2.2 0 0 1-.2.2v-1a.8.8 0 0 0-.8.8zm-.6-.3-.224.447.6.3L7.7 4.5l.224-.447-.6-.3zm-.6.3.224.447.6-.3L7.1 4.2l-.224-.447-.6.3zm.6.3.224-.447-.6-.3L6.5 4.5l-.224.447.6.3zm.6-.3-.224-.447-.6.3.224.447.224.447.6-.3zm.3.3v-.5c.11 0 .2.09.2.2h-1a.8.8 0 0 0 .8.8zm.3-.3h-.5c0-.11.09-.2.2-.2v1a.8.8 0 0 0 .8-.8zM8 4.2v.5a.2.2 0 0 1-.2-.2h1a.8.8 0 0 0-.8-.8zm.3-.6-.447-.224-.3.6L8 4.2l.447.224.3-.6zM8 3l-.447.224.3.6L8.3 3.6l.447-.224-.3-.6zm.3 1.5-.224.447.6.3L8.9 4.8l.224-.447-.6-.3zm.6-.3-.224-.447-.6.3.224.447.224.447.6-.3zm.6.3.224-.447-.6-.3L8.9 4.2l-.224.447.6.3zm-.6.3.224.447.6-.3L9.5 4.5l-.224-.447-.6.3zM8 5l-.447-.224-.3.6.447.224.447.224.3-.6zm.3.6.447-.224-.3-.6L8 5l-.447.224.3.6zm-.205.41.448.223.204-.41L8.3 5.6l-.447-.224-.205.41zm0 0-.094.49H8h1a1 1 0 0 0-.81-.982zm.405.49H8v1a1 1 0 0 0 1-1zM8 7v-.5H7a1 1 0 0 0 1 1zm-.5-.5H8l-.095-.49-.095-.492A1 1 0 0 0 7 6.5zm.2-.9-.447.224.204.409.448-.224.447-.224-.205-.409zM8 7v.5h.5v-1H8zm.5 0-.493.082.025.15.493-.083.493-.082-.025-.15zm.025.15.369.337C9.168 7.187 9.562 7 10 7V6c-.73 0-1.387.313-1.844.812zM10 6.5V7a1.5 1.5 0 0 1 1.5 1.5h1A2.5 2.5 0 0 0 10 6zm2 2h-.5zh.5zm0 0 .018.5h.017V8h-.053zm.035 0V9h.465V8h-.465zm.465 0-.46-.197-1.38 3.22.46.196.46.197 1.38-3.219zm-1.38 3.22-.362.343c.013.014.011.016.006.005A.2.2 0 0 1 10.75 12h1a.9.9 0 0 0-.267-.625zm.13.28h-.5c0-.099.063-.097-.05-.015a2 2 0 0 1-.549.244c-.529.163-1.29.271-2.151.271v1c.933 0 1.797-.116 2.445-.315.32-.099.617-.226.844-.391.216-.157.461-.42.461-.794zM8 13v-.5c-.862 0-1.622-.108-2.151-.27-.267-.083-.447-.17-.55-.245-.113-.082-.049-.084-.049.015h-1c0 .375.245.637.461.794.227.165.523.292.844.391.648.2 1.512.315 2.445.315zm-3.25-1h.5a.2.2 0 0 1-.014.068c-.005.011-.007.01.007-.005l-.363-.344-.363-.344A.9.9 0 0 0 4.25 12zm.13-.28.46-.198-1.38-3.219-.46.197-.46.197 1.38 3.22zM3.5 8.5V9h.465V8H3.5zm.465 0V9h.017L4 8.5l.018-.5h-.053zM4 8.5h.5zh-.5zm0 0h.5A1.5 1.5 0 0 1 6 7V6a2.5 2.5 0 0 0-2.5 2.5zm2-2V7c.438 0 .832.187 1.106.487l.37-.338.368-.337A2.5 2.5 0 0 0 6 6zm1.475.65.493.082.025-.15L7.5 7l-.493-.082-.025.15zM7.5 7v.5H8v-1h-.5z"/><circle cx="10" cy="8.5" r="2" fill="#ffd500" stroke="#000" stroke-linejoin="round" stroke-miterlimit="16" stroke-width=".5"/><circle cx="6" cy="8.5" r="2" fill="#ffd500" stroke="#000" stroke-linejoin="round" stroke-miterlimit="16" stroke-width=".5"/><path fill="#ffd500" stroke="#000" stroke-linejoin="round" stroke-miterlimit="16" stroke-width=".5" d="M7.5 7h1l.5 3H7z"/><path fill="#ffd500" stroke="#000" stroke-linejoin="round" stroke-miterlimit="16" stroke-width=".5" d="M3.5 8.5h.465a1 1 0 0 1 .832.445l.226.34A1 1 0 0 1 7 9.5a1 1 0 0 1 2 0 1 1 0 0 1 1.977-.215l.226-.34a1 1 0 0 1 .832-.445h.465L11 12H5z"/><ellipse cx="8" cy="12" fill="#000" rx="3.25" ry="1"/><mask id="path-10-outside-1_2055_1956" width="5" height="5" x="5.5" y="2" fill="#000" maskUnits="userSpaceOnUse"><path fill="#fff" d="M5.5 2h5v5h-5z"/><path fill-rule="evenodd" d="m8 3-.3.6.3.6a.3.3 0 0 0-.3.3l-.6-.3-.6.3.6.3.6-.3a.3.3 0 1 0 .3-.3l.3-.6zm.9 1.8-.6-.3.6-.3.6.3zm-1.2.8L8 5l.3.6-.3.6z" clip-rule="evenodd"/></mask><path fill="#ffd500" fill-rule="evenodd" d="m8 3-.3.6.3.6a.3.3 0 0 0-.3.3l-.6-.3-.6.3.6.3.6-.3a.3.3 0 1 0 .3-.3l.3-.6zm.9 1.8-.6-.3.6-.3.6.3zm-1.2.8L8 5l.3.6-.3.6z" clip-rule="evenodd"/><path fill="#000" d="m7.7 3.6-.447-.224a.5.5 0 0 0 0 .448zM8 3l.447-.224a.5.5 0 0 0-.894 0zm0 1.2v.5a.5.5 0 0 0 .447-.724zm-.3.3-.224.447A.5.5 0 0 0 8.2 4.5zm-.6-.3.224-.447a.5.5 0 0 0-.448 0zm-.6.3-.224-.447a.5.5 0 0 0 0 .894zm.6.3-.224.447a.5.5 0 0 0 .448 0zm.6-.3h.5a.5.5 0 0 0-.724-.447zm.3-.3-.447-.224A.5.5 0 0 0 8 4.7zm.3-.6.447.224a.5.5 0 0 0 0-.448zm0 .9-.224-.447a.5.5 0 0 0 0 .894zm.6.3-.224.447a.5.5 0 0 0 .448 0zm0-.6.224-.447a.5.5 0 0 0-.448 0zm.6.3.224.447a.5.5 0 0 0 0-.894zM8 5l.447-.224a.5.5 0 0 0-.894 0zm-.3.6-.447-.224a.5.5 0 0 0 0 .448zm.6 0 .447.224a.5.5 0 0 0 0-.448zm-.3.6-.447.224a.5.5 0 0 0 .894 0zm-.3-2.6.447.224.3-.6L8 3l-.447-.224-.3.6zm.3.6.447-.224-.3-.6L7.7 3.6l-.447.224.3.6zm-.3.3h.5a.2.2 0 0 1-.2.2v-1a.8.8 0 0 0-.8.8zm-.6-.3-.224.447.6.3L7.7 4.5l.224-.447-.6-.3zm-.6.3.224.447.6-.3L7.1 4.2l-.224-.447-.6.3zm.6.3.224-.447-.6-.3L6.5 4.5l-.224.447.6.3zm.6-.3-.224-.447-.6.3.224.447.224.447.6-.3zm.3.3v-.5c.11 0 .2.09.2.2h-1a.8.8 0 0 0 .8.8zm.3-.3h-.5c0-.11.09-.2.2-.2v1a.8.8 0 0 0 .8-.8zM8 4.2v.5a.2.2 0 0 1-.2-.2h1a.8.8 0 0 0-.8-.8zm.3-.6-.447-.224-.3.6L8 4.2l.447.224.3-.6zM8 3l-.447.224.3.6L8.3 3.6l.447-.224-.3-.6zm.3 1.5-.224.447.6.3L8.9 4.8l.224-.447-.6-.3zm.6-.3-.224-.447-.6.3.224.447.224.447.6-.3zm.6.3.224-.447-.6-.3L8.9 4.2l-.224.447.6.3zm-.6.3.224.447.6-.3L9.5 4.5l-.224-.447-.6.3zM8 5l-.447-.224-.3.6.447.224.447.224.3-.6zm.3.6.447-.224-.3-.6L8 5l-.447.224.3.6zm-.3.6.447.224.3-.6L8.3 5.6l-.447-.224-.3.6zm-.3-.6-.447.224.3.6L8 6.2l.447-.224-.3-.6z" mask="url(#path-10-outside-1_2055_1956)"/><circle cx="8" cy="6.5" r=".5" fill="#ffd500" stroke="#000" stroke-linejoin="round" stroke-miterlimit="16" stroke-width=".5"/></g><defs><clipPath id="clip0_2055_1956"><rect width="32" height="32" fill="#fff" rx="8"/></clipPath></defs></svg>