<svg xmlns="http://www.w3.org/2000/svg" fill="none" viewBox="0 0 32 32"><g clip-path="url(#clip0_2055_1962)"><path fill="#f6f6f6" d="M40-8H-8v48h48z"/><path fill="#012169" d="M-8-8v48h48V-8z"/><path fill="#fff" d="M40 .421v7.156L23.155 16 40 24.422v7.156l-24-12-24 12v-7.156L8.843 16-8 7.577V.421l24 12z"/><path fill="#c8102e" d="M39.999 6.001 19.384 16.306 38 25.612v2.385L17 17.498 16 18v-1.002l-.616-.306-23.386 11.694V26l20.616-10.308-18.616-9.308V4l21 10.5L16 14v1l.613.307L39.999 3.613z"/><path fill="#fff" d="M21-7.715v18.75h18.998V21H21v19.285H11V21H-8.002v-9.964L11 11V-7.715z"/><path fill="#c8102e" d="M19-8v21h20.998v6H19.001v21h-6V19H-8.002v-6H13V-8z"/></g><defs><clipPath id="clip0_2055_1962"><rect width="32" height="32" fill="#fff" rx="8"/></clipPath></defs></svg>