<svg xmlns="http://www.w3.org/2000/svg" fill="none" viewBox="0 0 32 32"><g clip-path="url(#clip0_2055_1963)"><path fill="#f6f6f6" d="M32 0H0v32h32z"/><path fill="#b22234" d="M32 0H0v32h32z"/><path fill="#fff" d="M32 28H0v-4h32zm0-8H0v-4h32zm0-8H0V8h32zm0-12v4H0V0z"/><path fill="#3c3b6e" d="M16 0H0v16h16z"/><path fill="#fff" d="m12.42 4.975.976 3.075-2.556-1.9H14l-2.557 1.9zm0 5.95L13.396 14l-2.556-1.9H14L11.443 14zM8 2l.977 3.075-2.557-1.9h3.16l-2.557 1.9zm0 5.95.977 3.075-2.557-1.9h3.16l-2.557 1.9zM3.58 4.975l.977 3.075L2 6.15h3.16l-2.556 1.9zm0 5.95L4.557 14 2 12.1h3.16L2.604 14z"/></g><defs><clipPath id="clip0_2055_1963"><rect width="32" height="32" fill="#fff" rx="8"/></clipPath></defs></svg>